<?xml version="1.0" encoding="UTF-8" standalone="no"?>
<!DOCTYPE svg PUBLIC "-//W3C//DTD SVG 1.1//EN"
 "http://www.w3.org/Graphics/SVG/1.1/DTD/svg11.dtd">
<!-- Generated by graphviz version 2.40.1 (20161225.0304)
 -->
<!-- Title: xla::CompileOnlyClient::PointerSizeForTriple Pages: 1 -->
<svg width="650pt" height="50pt"
 viewBox="0.00 0.00 650.00 50.00" xmlns="http://www.w3.org/2000/svg" xmlns:xlink="http://www.w3.org/1999/xlink">
<g id="graph0" class="graph" transform="scale(1 1) rotate(0) translate(4 46)">
<title>xla::CompileOnlyClient::PointerSizeForTriple</title>
<polygon fill="#ffffff" stroke="transparent" points="-4,4 -4,-46 646,-46 646,4 -4,4"/>
<!-- Node33 -->
<g id="node1" class="node">
<title>Node33</title>
<polygon fill="#bfbfbf" stroke="#000000" points="0,-6 0,-36 117,-36 117,-6 0,-6"/>
<text text-anchor="start" x="8" y="-24" font-family="Helvetica,sans-Serif" font-size="10.00" fill="#000000">xla::CompileOnlyClient</text>
<text text-anchor="middle" x="58.5" y="-13" font-family="Helvetica,sans-Serif" font-size="10.00" fill="#000000">::PointerSizeForTriple</text>
</g>
<!-- Node34 -->
<g id="node2" class="node">
<title>Node34</title>
<g id="a_node2"><a xlink:href="../../d4/df4/namespacetensorflow_1_1tfcompile_1_1anonymous__namespace_02compile_8cc_03.html#a40f8a019f31fa8cbe2fff5d90e69c21b" target="_top" xlink:title="Compiles the XLA computation into executable code. ">
<polygon fill="#ffffff" stroke="#000000" points="153,-.5 153,-41.5 282,-41.5 282,-.5 153,-.5"/>
<text text-anchor="start" x="161" y="-29.5" font-family="Helvetica,sans-Serif" font-size="10.00" fill="#000000">tensorflow::tfcompile</text>
<text text-anchor="start" x="161" y="-18.5" font-family="Helvetica,sans-Serif" font-size="10.00" fill="#000000">::anonymous_namespace</text>
<text text-anchor="middle" x="217.5" y="-7.5" font-family="Helvetica,sans-Serif" font-size="10.00" fill="#000000">{compile::cc}::CompileXla</text>
</a>
</g>
</g>
<!-- Node33&#45;&gt;Node34 -->
<g id="edge1" class="edge">
<title>Node33&#45;&gt;Node34</title>
<path fill="none" stroke="#191970" d="M127.4359,-21C135.8704,-21 144.4663,-21 152.8349,-21"/>
<polygon fill="#191970" stroke="#191970" points="127.254,-17.5001 117.254,-21 127.254,-24.5001 127.254,-17.5001"/>
</g>
<!-- Node35 -->
<g id="node3" class="node">
<title>Node35</title>
<g id="a_node3"><a xlink:href="../../d7/d38/namespacetensorflow_1_1tfcompile.html#a021cb1c58d938b16dcd998aa8d1fc191" target="_top" xlink:title="Converts the graph into an XLA computation, and compiles the computation. Called by tensorflow::tfcom...">
<polygon fill="#ffffff" stroke="#000000" points="318,-6 318,-36 425,-36 425,-6 318,-6"/>
<text text-anchor="start" x="326" y="-24" font-family="Helvetica,sans-Serif" font-size="10.00" fill="#000000">tensorflow::tfcompile</text>
<text text-anchor="middle" x="371.5" y="-13" font-family="Helvetica,sans-Serif" font-size="10.00" fill="#000000">::CompileGraph</text>
</a>
</g>
</g>
<!-- Node34&#45;&gt;Node35 -->
<g id="edge2" class="edge">
<title>Node34&#45;&gt;Node35</title>
<path fill="none" stroke="#191970" d="M292.4184,-21C301.0192,-21 309.6546,-21 317.895,-21"/>
<polygon fill="#191970" stroke="#191970" points="292.3636,-17.5001 282.3635,-21 292.3635,-24.5001 292.3636,-17.5001"/>
</g>
<!-- Node36 -->
<g id="node4" class="node">
<title>Node36</title>
<g id="a_node4"><a xlink:href="../../d7/d38/namespacetensorflow_1_1tfcompile.html#a460964a5bb277865d1275fe3746132c1" target="_top" xlink:title="tensorflow::tfcompile\l::Main">
<polygon fill="#ffffff" stroke="#000000" points="461,-6 461,-36 568,-36 568,-6 461,-6"/>
<text text-anchor="start" x="469" y="-24" font-family="Helvetica,sans-Serif" font-size="10.00" fill="#000000">tensorflow::tfcompile</text>
<text text-anchor="middle" x="514.5" y="-13" font-family="Helvetica,sans-Serif" font-size="10.00" fill="#000000">::Main</text>
</a>
</g>
</g>
<!-- Node35&#45;&gt;Node36 -->
<g id="edge3" class="edge">
<title>Node35&#45;&gt;Node36</title>
<path fill="none" stroke="#191970" d="M435.3238,-21C443.7452,-21 452.3103,-21 460.5445,-21"/>
<polygon fill="#191970" stroke="#191970" points="435.1548,-17.5001 425.1548,-21 435.1547,-24.5001 435.1548,-17.5001"/>
</g>
<!-- Node37 -->
<g id="node5" class="node">
<title>Node37</title>
<g id="a_node5"><a xlink:href="../../d4/d8d/tfcompile__main_8cc.html#a3c04138a5bfe5d72780bb7e82a18e627" target="_top" xlink:title="main">
<polygon fill="#ffffff" stroke="#000000" points="604,-11.5 604,-30.5 642,-30.5 642,-11.5 604,-11.5"/>
<text text-anchor="middle" x="623" y="-18.5" font-family="Helvetica,sans-Serif" font-size="10.00" fill="#000000">main</text>
</a>
</g>
</g>
<!-- Node36&#45;&gt;Node37 -->
<g id="edge4" class="edge">
<title>Node36&#45;&gt;Node37</title>
<path fill="none" stroke="#191970" d="M578.2814,-21C587.5615,-21 596.4574,-21 603.8366,-21"/>
<polygon fill="#191970" stroke="#191970" points="578.1143,-17.5001 568.1143,-21 578.1142,-24.5001 578.1143,-17.5001"/>
</g>
</g>
</svg>
