<?xml version="1.0" encoding="UTF-8" standalone="no"?>
<!DOCTYPE svg PUBLIC "-//W3C//DTD SVG 1.1//EN"
 "http://www.w3.org/Graphics/SVG/1.1/DTD/svg11.dtd">
<!-- Generated by graphviz version 2.40.1 (20161225.0304)
 -->
<!-- Title: tensorflow::XlaOpRegistry::Backend Pages: 1 -->
<svg width="298pt" height="117pt"
 viewBox="0.00 0.00 298.00 117.00" xmlns="http://www.w3.org/2000/svg" xmlns:xlink="http://www.w3.org/1999/xlink">
<g id="graph0" class="graph" transform="scale(1 1) rotate(0) translate(4 113)">
<title>tensorflow::XlaOpRegistry::Backend</title>
<polygon fill="#ffffff" stroke="transparent" points="-4,4 -4,-113 294,-113 294,4 -4,4"/>
<!-- Node1 -->
<g id="node1" class="node">
<title>Node1</title>
<polygon fill="#bfbfbf" stroke="#000000" points="101.5,-.5 101.5,-30.5 232.5,-30.5 232.5,-.5 101.5,-.5"/>
<text text-anchor="start" x="109.5" y="-18.5" font-family="Helvetica,sans-Serif" font-size="10.00" fill="#000000">tensorflow::XlaOpRegistry</text>
<text text-anchor="middle" x="167" y="-7.5" font-family="Helvetica,sans-Serif" font-size="10.00" fill="#000000">::Backend</text>
</g>
<!-- Node2 -->
<g id="node2" class="node">
<title>Node2</title>
<polygon fill="#ffffff" stroke="#bfbfbf" points="0,-78.5 0,-108.5 104,-108.5 104,-78.5 0,-78.5"/>
<text text-anchor="start" x="8" y="-96.5" font-family="Helvetica,sans-Serif" font-size="10.00" fill="#000000">vector&lt; std::unique</text>
<text text-anchor="middle" x="52" y="-85.5" font-family="Helvetica,sans-Serif" font-size="10.00" fill="#000000">_ptr&lt; KernelDef &gt; &gt;</text>
</g>
<!-- Node2&#45;&gt;Node1 -->
<g id="edge1" class="edge">
<title>Node2&#45;&gt;Node1</title>
<path fill="none" stroke="#9a32cd" stroke-dasharray="5,2" d="M77.951,-72.009C87.4968,-64.4361 98.5343,-56.0578 109,-49 118.5446,-42.5634 129.381,-36.0951 139.0827,-30.5823"/>
<polygon fill="#9a32cd" stroke="#9a32cd" points="75.5985,-69.4094 69.9982,-78.4031 79.9848,-74.8648 75.5985,-69.4094"/>
<text text-anchor="middle" x="136" y="-52" font-family="Helvetica,sans-Serif" font-size="10.00" fill="#000000"> kernel_defs</text>
</g>
<!-- Node3 -->
<g id="node3" class="node">
<title>Node3</title>
<polygon fill="#ffffff" stroke="#bfbfbf" points="122,-84 122,-103 212,-103 212,-84 122,-84"/>
<text text-anchor="middle" x="167" y="-91" font-family="Helvetica,sans-Serif" font-size="10.00" fill="#000000">set&lt; DataType &gt;</text>
</g>
<!-- Node3&#45;&gt;Node1 -->
<g id="edge2" class="edge">
<title>Node3&#45;&gt;Node1</title>
<path fill="none" stroke="#9a32cd" stroke-dasharray="5,2" d="M167,-73.8751C167,-60.5215 167,-43.1052 167,-30.7824"/>
<polygon fill="#9a32cd" stroke="#9a32cd" points="163.5001,-73.9356 167,-83.9357 170.5001,-73.9357 163.5001,-73.9356"/>
<text text-anchor="middle" x="205" y="-52" font-family="Helvetica,sans-Serif" font-size="10.00" fill="#000000"> supported_types</text>
</g>
<!-- Node4 -->
<g id="node4" class="node">
<title>Node4</title>
<polygon fill="#ffffff" stroke="#bfbfbf" points="248.5,-84 248.5,-103 283.5,-103 283.5,-84 248.5,-84"/>
<text text-anchor="middle" x="266" y="-91" font-family="Helvetica,sans-Serif" font-size="10.00" fill="#000000">bool</text>
</g>
<!-- Node4&#45;&gt;Node1 -->
<g id="edge3" class="edge">
<title>Node4&#45;&gt;Node1</title>
<path fill="none" stroke="#9a32cd" stroke-dasharray="5,2" d="M259.8773,-74.131C256.3609,-65.5383 251.1877,-55.8454 244,-49 235.9768,-41.3589 225.931,-35.3022 215.7707,-30.5626"/>
<polygon fill="#9a32cd" stroke="#9a32cd" points="256.6809,-75.5844 263.3691,-83.8013 263.2648,-73.207 256.6809,-75.5844"/>
<text text-anchor="middle" x="271" y="-52" font-family="Helvetica,sans-Serif" font-size="10.00" fill="#000000"> op_filter</text>
</g>
</g>
</svg>
