<?xml version="1.0" encoding="UTF-8" standalone="no"?>
<!DOCTYPE svg PUBLIC "-//W3C//DTD SVG 1.1//EN"
 "http://www.w3.org/Graphics/SVG/1.1/DTD/svg11.dtd">
<!-- Generated by graphviz version 2.40.1 (20161225.0304)
 -->
<!-- Title: xla::Compiler::ShapeSizeBytesFunction Pages: 1 -->
<svg width="452pt" height="88pt"
 viewBox="0.00 0.00 452.00 88.00" xmlns="http://www.w3.org/2000/svg" xmlns:xlink="http://www.w3.org/1999/xlink">
<g id="graph0" class="graph" transform="scale(1 1) rotate(0) translate(4 84)">
<title>xla::Compiler::ShapeSizeBytesFunction</title>
<polygon fill="#ffffff" stroke="transparent" points="-4,4 -4,-84 448,-84 448,4 -4,4"/>
<!-- Node34 -->
<g id="node1" class="node">
<title>Node34</title>
<polygon fill="#bfbfbf" stroke="#000000" points="0,-24.5 0,-54.5 128,-54.5 128,-24.5 0,-24.5"/>
<text text-anchor="start" x="8" y="-42.5" font-family="Helvetica,sans-Serif" font-size="10.00" fill="#000000">xla::Compiler::ShapeSize</text>
<text text-anchor="middle" x="64" y="-31.5" font-family="Helvetica,sans-Serif" font-size="10.00" fill="#000000">BytesFunction</text>
</g>
<!-- Node35 -->
<g id="node2" class="node">
<title>Node35</title>
<g id="a_node2"><a xlink:href="../../d3/d3e/classxla_1_1Compiler.html#a06a2a3d995eca2de6c632f04e9a631e8" target="_top" xlink:title="xla::Compiler::BufferSize\lBytesFunction">
<polygon fill="#ffffff" stroke="#000000" points="164,-24.5 164,-54.5 289,-54.5 289,-24.5 164,-24.5"/>
<text text-anchor="start" x="172" y="-42.5" font-family="Helvetica,sans-Serif" font-size="10.00" fill="#000000">xla::Compiler::BufferSize</text>
<text text-anchor="middle" x="226.5" y="-31.5" font-family="Helvetica,sans-Serif" font-size="10.00" fill="#000000">BytesFunction</text>
</a>
</g>
</g>
<!-- Node34&#45;&gt;Node35 -->
<g id="edge1" class="edge">
<title>Node34&#45;&gt;Node35</title>
<path fill="none" stroke="#191970" d="M138.4782,-39.5C146.9451,-39.5 155.5108,-39.5 163.804,-39.5"/>
<polygon fill="#191970" stroke="#191970" points="138.2243,-36.0001 128.2243,-39.5 138.2243,-43.0001 138.2243,-36.0001"/>
</g>
<!-- Node36 -->
<g id="node3" class="node">
<title>Node36</title>
<g id="a_node3"><a xlink:href="../../d2/d94/classxla_1_1cpu_1_1CpuCompiler.html#aaf223c38802bf733546631f5f418c51f" target="_top" xlink:title="xla::cpu::CpuCompiler\l::RunBackend">
<polygon fill="#ffffff" stroke="#000000" points="327.5,-49.5 327.5,-79.5 441.5,-79.5 441.5,-49.5 327.5,-49.5"/>
<text text-anchor="start" x="335.5" y="-67.5" font-family="Helvetica,sans-Serif" font-size="10.00" fill="#000000">xla::cpu::CpuCompiler</text>
<text text-anchor="middle" x="384.5" y="-56.5" font-family="Helvetica,sans-Serif" font-size="10.00" fill="#000000">::RunBackend</text>
</a>
</g>
</g>
<!-- Node35&#45;&gt;Node36 -->
<g id="edge2" class="edge">
<title>Node35&#45;&gt;Node36</title>
<path fill="none" stroke="#191970" d="M299.5068,-51.0517C308.8854,-52.5357 318.3773,-54.0375 327.4497,-55.473"/>
<polygon fill="#191970" stroke="#191970" points="299.8239,-47.5584 289.3998,-49.4525 298.7299,-54.4724 299.8239,-47.5584"/>
</g>
<!-- Node37 -->
<g id="node4" class="node">
<title>Node37</title>
<g id="a_node4"><a xlink:href="../../d2/d94/classxla_1_1cpu_1_1CpuCompiler.html#ae39f2b47db1aaa1457e76acb6ee3d496" target="_top" xlink:title="xla::cpu::CpuCompiler\l::CompileAheadOfTime">
<polygon fill="#ffffff" stroke="#000000" points="325,-.5 325,-30.5 444,-30.5 444,-.5 325,-.5"/>
<text text-anchor="start" x="333" y="-18.5" font-family="Helvetica,sans-Serif" font-size="10.00" fill="#000000">xla::cpu::CpuCompiler</text>
<text text-anchor="middle" x="384.5" y="-7.5" font-family="Helvetica,sans-Serif" font-size="10.00" fill="#000000">::CompileAheadOfTime</text>
</a>
</g>
</g>
<!-- Node35&#45;&gt;Node37 -->
<g id="edge3" class="edge">
<title>Node35&#45;&gt;Node37</title>
<path fill="none" stroke="#191970" d="M299.3674,-28.4315C307.9167,-27.1329 316.5624,-25.8196 324.9007,-24.5531"/>
<polygon fill="#191970" stroke="#191970" points="298.7607,-24.9835 289.3998,-29.9456 299.812,-31.9041 298.7607,-24.9835"/>
</g>
</g>
</svg>
