<?xml version="1.0" encoding="UTF-8" standalone="no"?>
<!DOCTYPE svg PUBLIC "-//W3C//DTD SVG 1.1//EN"
 "http://www.w3.org/Graphics/SVG/1.1/DTD/svg11.dtd">
<!-- Generated by graphviz version 2.40.1 (20161225.0304)
 -->
<!-- Title: xla::Compiler::CompileAheadOfTime Pages: 1 -->
<svg width="993pt" height="50pt"
 viewBox="0.00 0.00 993.00 50.00" xmlns="http://www.w3.org/2000/svg" xmlns:xlink="http://www.w3.org/1999/xlink">
<g id="graph0" class="graph" transform="scale(1 1) rotate(0) translate(4 46)">
<title>xla::Compiler::CompileAheadOfTime</title>
<polygon fill="#ffffff" stroke="transparent" points="-4,4 -4,-46 989,-46 989,4 -4,4"/>
<!-- Node10 -->
<g id="node1" class="node">
<title>Node10</title>
<polygon fill="#bfbfbf" stroke="#000000" points="0,-6 0,-36 144,-36 144,-6 0,-6"/>
<text text-anchor="start" x="8" y="-24" font-family="Helvetica,sans-Serif" font-size="10.00" fill="#000000">xla::Compiler::CompileAhead</text>
<text text-anchor="middle" x="72" y="-13" font-family="Helvetica,sans-Serif" font-size="10.00" fill="#000000">OfTime</text>
</g>
<!-- Node11 -->
<g id="node2" class="node">
<title>Node11</title>
<g id="a_node2"><a xlink:href="../../dc/d07/classxla_1_1CompileOnlyService.html#aceb67616a89167b9af1bf23d17ec37c9" target="_top" xlink:title="xla::CompileOnlyService\l::CompileAheadOfTime">
<polygon fill="#ffffff" stroke="#000000" points="180,-6 180,-36 305,-36 305,-6 180,-6"/>
<text text-anchor="start" x="188" y="-24" font-family="Helvetica,sans-Serif" font-size="10.00" fill="#000000">xla::CompileOnlyService</text>
<text text-anchor="middle" x="242.5" y="-13" font-family="Helvetica,sans-Serif" font-size="10.00" fill="#000000">::CompileAheadOfTime</text>
</a>
</g>
</g>
<!-- Node10&#45;&gt;Node11 -->
<g id="edge1" class="edge">
<title>Node10&#45;&gt;Node11</title>
<path fill="none" stroke="#191970" d="M154.3223,-21C162.8867,-21 171.4906,-21 179.7876,-21"/>
<polygon fill="#191970" stroke="#191970" points="154.3074,-17.5001 144.3073,-21 154.3073,-24.5001 154.3074,-17.5001"/>
</g>
<!-- Node12 -->
<g id="node3" class="node">
<title>Node12</title>
<g id="a_node3"><a xlink:href="../../d1/dd1/classxla_1_1CompileOnlyClient.html#a5a585d21f617b77a1cecc1b587d18d7a" target="_top" xlink:title="Compiles a list of computations for ahead&#45;of&#45;time execution. This is intended for use in static compi...">
<polygon fill="#ffffff" stroke="#000000" points="341,-6 341,-36 460,-36 460,-6 341,-6"/>
<text text-anchor="start" x="349" y="-24" font-family="Helvetica,sans-Serif" font-size="10.00" fill="#000000">xla::CompileOnlyClient</text>
<text text-anchor="middle" x="400.5" y="-13" font-family="Helvetica,sans-Serif" font-size="10.00" fill="#000000">::CompileAheadOfTime</text>
</a>
</g>
</g>
<!-- Node11&#45;&gt;Node12 -->
<g id="edge2" class="edge">
<title>Node11&#45;&gt;Node12</title>
<path fill="none" stroke="#191970" d="M315.6463,-21C324.1046,-21 332.653,-21 340.9007,-21"/>
<polygon fill="#191970" stroke="#191970" points="315.3998,-17.5001 305.3998,-21 315.3997,-24.5001 315.3998,-17.5001"/>
</g>
<!-- Node13 -->
<g id="node4" class="node">
<title>Node13</title>
<g id="a_node4"><a xlink:href="../../d4/df4/namespacetensorflow_1_1tfcompile_1_1anonymous__namespace_02compile_8cc_03.html#a40f8a019f31fa8cbe2fff5d90e69c21b" target="_top" xlink:title="Compiles the XLA computation into executable code. ">
<polygon fill="#ffffff" stroke="#000000" points="496,-.5 496,-41.5 625,-41.5 625,-.5 496,-.5"/>
<text text-anchor="start" x="504" y="-29.5" font-family="Helvetica,sans-Serif" font-size="10.00" fill="#000000">tensorflow::tfcompile</text>
<text text-anchor="start" x="504" y="-18.5" font-family="Helvetica,sans-Serif" font-size="10.00" fill="#000000">::anonymous_namespace</text>
<text text-anchor="middle" x="560.5" y="-7.5" font-family="Helvetica,sans-Serif" font-size="10.00" fill="#000000">{compile::cc}::CompileXla</text>
</a>
</g>
</g>
<!-- Node12&#45;&gt;Node13 -->
<g id="edge3" class="edge">
<title>Node12&#45;&gt;Node13</title>
<path fill="none" stroke="#191970" d="M470.3003,-21C478.7649,-21 487.3845,-21 495.7714,-21"/>
<polygon fill="#191970" stroke="#191970" points="470.0781,-17.5001 460.0781,-21 470.0781,-24.5001 470.0781,-17.5001"/>
</g>
<!-- Node14 -->
<g id="node5" class="node">
<title>Node14</title>
<g id="a_node5"><a xlink:href="../../d7/d38/namespacetensorflow_1_1tfcompile.html#a021cb1c58d938b16dcd998aa8d1fc191" target="_top" xlink:title="Converts the graph into an XLA computation, and compiles the computation. Called by tensorflow::tfcom...">
<polygon fill="#ffffff" stroke="#000000" points="661,-6 661,-36 768,-36 768,-6 661,-6"/>
<text text-anchor="start" x="669" y="-24" font-family="Helvetica,sans-Serif" font-size="10.00" fill="#000000">tensorflow::tfcompile</text>
<text text-anchor="middle" x="714.5" y="-13" font-family="Helvetica,sans-Serif" font-size="10.00" fill="#000000">::CompileGraph</text>
</a>
</g>
</g>
<!-- Node13&#45;&gt;Node14 -->
<g id="edge4" class="edge">
<title>Node13&#45;&gt;Node14</title>
<path fill="none" stroke="#191970" d="M635.4184,-21C644.0192,-21 652.6546,-21 660.895,-21"/>
<polygon fill="#191970" stroke="#191970" points="635.3636,-17.5001 625.3635,-21 635.3635,-24.5001 635.3636,-17.5001"/>
</g>
<!-- Node15 -->
<g id="node6" class="node">
<title>Node15</title>
<g id="a_node6"><a xlink:href="../../d7/d38/namespacetensorflow_1_1tfcompile.html#a460964a5bb277865d1275fe3746132c1" target="_top" xlink:title="tensorflow::tfcompile\l::Main">
<polygon fill="#ffffff" stroke="#000000" points="804,-6 804,-36 911,-36 911,-6 804,-6"/>
<text text-anchor="start" x="812" y="-24" font-family="Helvetica,sans-Serif" font-size="10.00" fill="#000000">tensorflow::tfcompile</text>
<text text-anchor="middle" x="857.5" y="-13" font-family="Helvetica,sans-Serif" font-size="10.00" fill="#000000">::Main</text>
</a>
</g>
</g>
<!-- Node14&#45;&gt;Node15 -->
<g id="edge5" class="edge">
<title>Node14&#45;&gt;Node15</title>
<path fill="none" stroke="#191970" d="M778.3238,-21C786.7452,-21 795.3103,-21 803.5445,-21"/>
<polygon fill="#191970" stroke="#191970" points="778.1548,-17.5001 768.1548,-21 778.1547,-24.5001 778.1548,-17.5001"/>
</g>
<!-- Node16 -->
<g id="node7" class="node">
<title>Node16</title>
<g id="a_node7"><a xlink:href="../../d4/d8d/tfcompile__main_8cc.html#a3c04138a5bfe5d72780bb7e82a18e627" target="_top" xlink:title="main">
<polygon fill="#ffffff" stroke="#000000" points="947,-11.5 947,-30.5 985,-30.5 985,-11.5 947,-11.5"/>
<text text-anchor="middle" x="966" y="-18.5" font-family="Helvetica,sans-Serif" font-size="10.00" fill="#000000">main</text>
</a>
</g>
</g>
<!-- Node15&#45;&gt;Node16 -->
<g id="edge6" class="edge">
<title>Node15&#45;&gt;Node16</title>
<path fill="none" stroke="#191970" d="M921.2814,-21C930.5615,-21 939.4574,-21 946.8366,-21"/>
<polygon fill="#191970" stroke="#191970" points="921.1143,-17.5001 911.1143,-21 921.1142,-24.5001 921.1143,-17.5001"/>
</g>
</g>
</svg>
