<?xml version="1.0" encoding="UTF-8" standalone="no"?>
<!DOCTYPE svg PUBLIC "-//W3C//DTD SVG 1.1//EN"
 "http://www.w3.org/Graphics/SVG/1.1/DTD/svg11.dtd">
<!-- Generated by graphviz version 2.40.1 (20161225.0304)
 -->
<!-- Title: xla::anonymous_namespace{transpose_folding::cc}::CanFoldOperandsIntoDot Pages: 1 -->
<svg width="346pt" height="50pt"
 viewBox="0.00 0.00 346.00 50.00" xmlns="http://www.w3.org/2000/svg" xmlns:xlink="http://www.w3.org/1999/xlink">
<g id="graph0" class="graph" transform="scale(1 1) rotate(0) translate(4 46)">
<title>xla::anonymous_namespace{transpose_folding::cc}::CanFoldOperandsIntoDot</title>
<polygon fill="#ffffff" stroke="transparent" points="-4,4 -4,-46 342,-46 342,4 -4,4"/>
<!-- Node1 -->
<g id="node1" class="node">
<title>Node1</title>
<polygon fill="#bfbfbf" stroke="#000000" points="0,-.5 0,-41.5 156,-41.5 156,-.5 0,-.5"/>
<text text-anchor="start" x="8" y="-29.5" font-family="Helvetica,sans-Serif" font-size="10.00" fill="#000000">xla::anonymous_namespace</text>
<text text-anchor="start" x="8" y="-18.5" font-family="Helvetica,sans-Serif" font-size="10.00" fill="#000000">{transpose_folding::cc}</text>
<text text-anchor="middle" x="78" y="-7.5" font-family="Helvetica,sans-Serif" font-size="10.00" fill="#000000">::CanFoldOperandsIntoDot</text>
</g>
<!-- Node2 -->
<g id="node2" class="node">
<title>Node2</title>
<g id="a_node2"><a xlink:href="../../d5/db5/classxla_1_1TransposeFolding.html#a94d1b7a112dd613def2f188a17925095" target="_top" xlink:title="entry point of xla::TransposeFolding pass ">
<polygon fill="#ffffff" stroke="#000000" points="192,-11.5 192,-30.5 338,-30.5 338,-11.5 192,-11.5"/>
<text text-anchor="middle" x="265" y="-18.5" font-family="Helvetica,sans-Serif" font-size="10.00" fill="#000000">xla::TransposeFolding::Run</text>
</a>
</g>
</g>
<!-- Node1&#45;&gt;Node2 -->
<g id="edge1" class="edge">
<title>Node1&#45;&gt;Node2</title>
<path fill="none" stroke="#191970" d="M166.2478,-21C174.8269,-21 183.4651,-21 191.8724,-21"/>
<polygon fill="#191970" stroke="#191970" points="166.2214,-17.5001 156.2213,-21 166.2213,-24.5001 166.2214,-17.5001"/>
</g>
</g>
</svg>
