<?xml version="1.0" encoding="UTF-8" standalone="no"?>
<!DOCTYPE svg PUBLIC "-//W3C//DTD SVG 1.1//EN"
 "http://www.w3.org/Graphics/SVG/1.1/DTD/svg11.dtd">
<!-- Generated by graphviz version 2.40.1 (20161225.0304)
 -->
<!-- Title: tensorflow/tensorflow/compiler/xla/service/while_loop_simplifier.h Pages: 1 -->
<!--zoomable 284 -->
<svg id="main" version="1.1" xmlns="http://www.w3.org/2000/svg" xmlns:xlink="http://www.w3.org/1999/xlink" xml:space="preserve" onload="init(evt)">
<style type="text/css"><![CDATA[
.edge:hover path { stroke: red; }
.edge:hover polygon { stroke: red; fill: red; }
]]></style>
<script type="text/javascript"><![CDATA[
var edges = document.getElementsByTagName('g');
if (edges && edges.length) {
  for (var i=0;i<edges.length;i++) {
    if (edges[i].id.substr(0,4)=='edge') {
      edges[i].setAttribute('class','edge');
    }
  }
}
]]></script>
        <defs>
                <circle id="rim" cx="0" cy="0" r="7"/>
                <circle id="rim2" cx="0" cy="0" r="3.5"/>
                <g id="zoomPlus">
                        <use xlink:href="#rim" fill="#404040">
                                <set attributeName="fill" to="#808080" begin="zoomplus.mouseover" end="zoomplus.mouseout"/>
                        </use>
                        <path d="M-4,0h8M0,-4v8" fill="none" stroke="white" stroke-width="1.5" pointer-events="none"/>
                </g>
                <g id="zoomMin">
                        <use xlink:href="#rim" fill="#404040">
                                <set attributeName="fill" to="#808080" begin="zoomminus.mouseover" end="zoomminus.mouseout"/>
                        </use>
                        <path d="M-4,0h8" fill="none" stroke="white" stroke-width="1.5" pointer-events="none"/>
                </g>
                <g id="dirArrow">
                        <path fill="none" stroke="white" stroke-width="1.5" d="M0,-3.0v7 M-2.5,-0.5L0,-3.0L2.5,-0.5"/>
                </g>
               <g id="resetDef">
                       <use xlink:href="#rim2" fill="#404040">
                               <set attributeName="fill" to="#808080" begin="reset.mouseover" end="reset.mouseout"/>
                       </use>
               </g>
        </defs>

<script type="text/javascript">
var viewWidth = 2791;
var viewHeight = 284;
var sectionId = 'dynsection-0';
</script>
<script xlink:href="../../svgpan.js"/>
<svg id="graph" class="graph">
<g id="viewport">
<title>tensorflow/tensorflow/compiler/xla/service/while_loop_simplifier.h</title>
<polygon fill="#ffffff" stroke="transparent" points="-4,4 -4,-280 2786.5,-280 2786.5,4 -4,4"/>
<!-- Node0 -->
<g id="node1" class="node">
<title>Node0</title>
<polygon fill="#bfbfbf" stroke="#000000" points="2565.5,-234.5 2565.5,-275.5 2682.5,-275.5 2682.5,-234.5 2565.5,-234.5"/>
<text text-anchor="start" x="2573.5" y="-263.5" font-family="Helvetica,sans-Serif" font-size="10.00" fill="#000000">tensorflow/tensorflow</text>
<text text-anchor="start" x="2573.5" y="-252.5" font-family="Helvetica,sans-Serif" font-size="10.00" fill="#000000">/compiler/xla/service</text>
<text text-anchor="middle" x="2624" y="-241.5" font-family="Helvetica,sans-Serif" font-size="10.00" fill="#000000">/while_loop_simplifier.h</text>
</g>
<!-- Node1 -->
<g id="node2" class="node">
<title>Node1</title>
<g id="a_node2"><a xlink:href="../../db/da0/hlo__module_8h.html" target="_top" xlink:title="tensorflow/compiler\l/xla/service/hlo_module.h">
<polygon fill="#ffffff" stroke="#000000" points="1406,-162 1406,-192 1534,-192 1534,-162 1406,-162"/>
<text text-anchor="start" x="1414" y="-180" font-family="Helvetica,sans-Serif" font-size="10.00" fill="#000000">tensorflow/compiler</text>
<text text-anchor="middle" x="1470" y="-169" font-family="Helvetica,sans-Serif" font-size="10.00" fill="#000000">/xla/service/hlo_module.h</text>
</a>
</g>
</g>
<!-- Node0&#45;&gt;Node1 -->
<g id="edge1" class="edge">
<title>Node0&#45;&gt;Node1</title>
<path fill="none" stroke="#191970" d="M2565.1864,-251.0247C2372.2246,-237.9822 1758.5463,-196.5031 1544.5065,-182.036"/>
<polygon fill="#191970" stroke="#191970" points="1544.5289,-178.5296 1534.3156,-181.3472 1544.0568,-185.5137 1544.5289,-178.5296"/>
</g>
<!-- Node21 -->
<g id="node22" class="node">
<title>Node21</title>
<polygon fill="#ffffff" stroke="#bfbfbf" points="2681.5,-6 2681.5,-36 2782.5,-36 2782.5,-6 2681.5,-6"/>
<text text-anchor="start" x="2689.5" y="-24" font-family="Helvetica,sans-Serif" font-size="10.00" fill="#000000">tensorflow/compiler</text>
<text text-anchor="middle" x="2732" y="-13" font-family="Helvetica,sans-Serif" font-size="10.00" fill="#000000">/xla/statusor.h</text>
</g>
<!-- Node0&#45;&gt;Node21 -->
<g id="edge47" class="edge">
<title>Node0&#45;&gt;Node21</title>
<path fill="none" stroke="#191970" d="M2625.8894,-234.2442C2628.2814,-213.7434 2633.4388,-181.8025 2644,-156 2661.4246,-113.4295 2692.7654,-69.856 2712.96,-44.1271"/>
<polygon fill="#191970" stroke="#191970" points="2715.8511,-46.1151 2719.3451,-36.113 2710.3763,-41.7531 2715.8511,-46.1151"/>
</g>
<!-- Node35 -->
<g id="node36" class="node">
<title>Node35</title>
<polygon fill="#ffffff" stroke="#bfbfbf" points="2652.5,-156.5 2652.5,-197.5 2761.5,-197.5 2761.5,-156.5 2652.5,-156.5"/>
<text text-anchor="start" x="2660.5" y="-185.5" font-family="Helvetica,sans-Serif" font-size="10.00" fill="#000000">tensorflow/compiler</text>
<text text-anchor="start" x="2660.5" y="-174.5" font-family="Helvetica,sans-Serif" font-size="10.00" fill="#000000">/xla/service/hlo_pass</text>
<text text-anchor="middle" x="2707" y="-163.5" font-family="Helvetica,sans-Serif" font-size="10.00" fill="#000000">_interface.h</text>
</g>
<!-- Node0&#45;&gt;Node35 -->
<g id="edge46" class="edge">
<title>Node0&#45;&gt;Node35</title>
<path fill="none" stroke="#191970" d="M2646.2425,-234.0974C2655.9025,-225.0193 2667.3512,-214.2603 2677.6917,-204.5427"/>
<polygon fill="#191970" stroke="#191970" points="2680.0936,-207.0885 2684.9839,-197.6898 2675.2999,-201.9875 2680.0936,-207.0885"/>
</g>
<!-- Node2 -->
<g id="node3" class="node">
<title>Node2</title>
<polygon fill="#ffffff" stroke="#bfbfbf" points="1421,-89.5 1421,-108.5 1467,-108.5 1467,-89.5 1421,-89.5"/>
<text text-anchor="middle" x="1444" y="-96.5" font-family="Helvetica,sans-Serif" font-size="10.00" fill="#000000">atomic</text>
</g>
<!-- Node1&#45;&gt;Node2 -->
<g id="edge2" class="edge">
<title>Node1&#45;&gt;Node2</title>
<path fill="none" stroke="#191970" d="M1464.9869,-161.9608C1460.8418,-149.5253 1454.9277,-131.7832 1450.4336,-118.3007"/>
<polygon fill="#191970" stroke="#191970" points="1453.6774,-116.9639 1447.1946,-108.5839 1447.0366,-119.1775 1453.6774,-116.9639"/>
</g>
<!-- Node3 -->
<g id="node4" class="node">
<title>Node3</title>
<polygon fill="#ffffff" stroke="#bfbfbf" points="2634.5,-11.5 2634.5,-30.5 2663.5,-30.5 2663.5,-11.5 2634.5,-11.5"/>
<text text-anchor="middle" x="2649" y="-18.5" font-family="Helvetica,sans-Serif" font-size="10.00" fill="#000000">list</text>
</g>
<!-- Node1&#45;&gt;Node3 -->
<g id="edge3" class="edge">
<title>Node1&#45;&gt;Node3</title>
<path fill="none" stroke="#191970" d="M1534.2525,-176.0312C1673.1124,-173.1739 2011.2519,-162.0992 2291,-120 2441.7412,-97.315 2489.3765,-111.5975 2625,-42 2627.4136,-40.7614 2629.7826,-39.2276 2632.0355,-37.5569"/>
<polygon fill="#191970" stroke="#191970" points="2634.6573,-39.9212 2639.9985,-30.7712 2630.1171,-34.5933 2634.6573,-39.9212"/>
</g>
<!-- Node4 -->
<g id="node5" class="node">
<title>Node4</title>
<polygon fill="#ffffff" stroke="#bfbfbf" points="0,-11.5 0,-30.5 52,-30.5 52,-11.5 0,-11.5"/>
<text text-anchor="middle" x="26" y="-18.5" font-family="Helvetica,sans-Serif" font-size="10.00" fill="#000000">memory</text>
</g>
<!-- Node1&#45;&gt;Node4 -->
<g id="edge4" class="edge">
<title>Node1&#45;&gt;Node4</title>
<path fill="none" stroke="#191970" d="M1405.7225,-175.5829C1166.6947,-170.1052 336.9727,-149.1608 222,-120 154.4974,-102.8791 83.5297,-59.7823 48.414,-36.4991"/>
<polygon fill="#191970" stroke="#191970" points="50.1382,-33.4408 39.8869,-30.7645 46.2318,-39.2494 50.1382,-33.4408"/>
</g>
<!-- Node5 -->
<g id="node6" class="node">
<title>Node5</title>
<polygon fill="#ffffff" stroke="#bfbfbf" points="1561.5,-89.5 1561.5,-108.5 1610.5,-108.5 1610.5,-89.5 1561.5,-89.5"/>
<text text-anchor="middle" x="1586" y="-96.5" font-family="Helvetica,sans-Serif" font-size="10.00" fill="#000000">random</text>
</g>
<!-- Node1&#45;&gt;Node5 -->
<g id="edge5" class="edge">
<title>Node1&#45;&gt;Node5</title>
<path fill="none" stroke="#191970" d="M1492.366,-161.9608C1512.7825,-148.2325 1542.8169,-128.0369 1563.3286,-114.2446"/>
<polygon fill="#191970" stroke="#191970" points="1565.4016,-117.0683 1571.7471,-108.5839 1561.4956,-111.2594 1565.4016,-117.0683"/>
</g>
<!-- Node6 -->
<g id="node7" class="node">
<title>Node6</title>
<polygon fill="#ffffff" stroke="#bfbfbf" points="70.5,-11.5 70.5,-30.5 111.5,-30.5 111.5,-11.5 70.5,-11.5"/>
<text text-anchor="middle" x="91" y="-18.5" font-family="Helvetica,sans-Serif" font-size="10.00" fill="#000000">string</text>
</g>
<!-- Node1&#45;&gt;Node6 -->
<g id="edge6" class="edge">
<title>Node1&#45;&gt;Node6</title>
<path fill="none" stroke="#191970" d="M1405.7847,-175.4683C1256.7367,-171.37 875.9241,-157.7743 560,-120 362.8001,-96.4212 302.842,-119.5408 120,-42 116.6361,-40.5734 113.288,-38.6948 110.1258,-36.6469"/>
<polygon fill="#191970" stroke="#191970" points="112.0021,-33.6845 101.8476,-30.662 107.9009,-39.3573 112.0021,-33.6845"/>
</g>
<!-- Node7 -->
<g id="node8" class="node">
<title>Node7</title>
<polygon fill="#ffffff" stroke="#bfbfbf" points="129.5,-11.5 129.5,-30.5 212.5,-30.5 212.5,-11.5 129.5,-11.5"/>
<text text-anchor="middle" x="171" y="-18.5" font-family="Helvetica,sans-Serif" font-size="10.00" fill="#000000">unordered_map</text>
</g>
<!-- Node1&#45;&gt;Node7 -->
<g id="edge7" class="edge">
<title>Node1&#45;&gt;Node7</title>
<path fill="none" stroke="#191970" d="M1405.5602,-172.6152C1290.2703,-164.4648 1041.1889,-145.4687 832,-120 710.5751,-105.2165 681.2949,-93.8152 560,-78 410.1961,-58.4676 368.4366,-79.1354 222,-42 214.5979,-40.1229 206.8583,-37.3773 199.7098,-34.4865"/>
<polygon fill="#191970" stroke="#191970" points="200.9868,-31.2262 190.4154,-30.5225 198.2407,-37.6651 200.9868,-31.2262"/>
</g>
<!-- Node8 -->
<g id="node9" class="node">
<title>Node8</title>
<polygon fill="#ffffff" stroke="#bfbfbf" points="231,-11.5 231,-30.5 275,-30.5 275,-11.5 231,-11.5"/>
<text text-anchor="middle" x="253" y="-18.5" font-family="Helvetica,sans-Serif" font-size="10.00" fill="#000000">vector</text>
</g>
<!-- Node1&#45;&gt;Node8 -->
<g id="edge8" class="edge">
<title>Node1&#45;&gt;Node8</title>
<path fill="none" stroke="#191970" d="M1405.8601,-172.4514C1312.9029,-165.1777 1135.5981,-148.7389 987,-120 916.9254,-106.4476 902.4025,-89.7307 832,-78 591.2387,-37.8836 514.8706,-121.2091 284,-42 280.0321,-40.6387 276.0949,-38.6293 272.4249,-36.385"/>
<polygon fill="#191970" stroke="#191970" points="274.205,-33.3608 263.9876,-30.5579 270.2269,-39.1207 274.205,-33.3608"/>
</g>
<!-- Node9 -->
<g id="node10" class="node">
<title>Node9</title>
<polygon fill="#ffffff" stroke="#bfbfbf" points="293.5,-6 293.5,-36 394.5,-36 394.5,-6 293.5,-6"/>
<text text-anchor="start" x="301.5" y="-24" font-family="Helvetica,sans-Serif" font-size="10.00" fill="#000000">tensorflow/compiler</text>
<text text-anchor="middle" x="344" y="-13" font-family="Helvetica,sans-Serif" font-size="10.00" fill="#000000">/xla/iterator_util.h</text>
</g>
<!-- Node1&#45;&gt;Node9 -->
<g id="edge9" class="edge">
<title>Node1&#45;&gt;Node9</title>
<path fill="none" stroke="#191970" d="M1405.8927,-172.8005C1328.2211,-166.5219 1193.9764,-151.8304 1083,-120 1038.2337,-107.1601 1032.2691,-88.9362 987,-78 734.6547,-17.0378 658.4724,-93.3651 404,-42 399.9229,-41.177 395.7459,-40.1413 391.5868,-38.9732"/>
<polygon fill="#191970" stroke="#191970" points="392.5557,-35.6096 381.9699,-36.0453 390.5169,-42.3062 392.5557,-35.6096"/>
</g>
<!-- Node10 -->
<g id="node11" class="node">
<title>Node10</title>
<polygon fill="#ffffff" stroke="#bfbfbf" points="413,-6 413,-36 517,-36 517,-6 413,-6"/>
<text text-anchor="start" x="421" y="-24" font-family="Helvetica,sans-Serif" font-size="10.00" fill="#000000">tensorflow/compiler</text>
<text text-anchor="middle" x="465" y="-13" font-family="Helvetica,sans-Serif" font-size="10.00" fill="#000000">/xla/service/hlo.pb.h</text>
</g>
<!-- Node1&#45;&gt;Node10 -->
<g id="edge10" class="edge">
<title>Node1&#45;&gt;Node10</title>
<path fill="none" stroke="#191970" d="M1405.9139,-169.9069C1344.107,-161.8972 1248.4958,-146.4083 1169,-120 1128.6323,-106.59 1124.1135,-88.9116 1083,-78 843.2288,-14.364 769.2229,-90.8097 526,-42 521.8614,-41.1695 517.6193,-40.1284 513.3939,-38.9566"/>
<polygon fill="#191970" stroke="#191970" points="514.2055,-35.546 503.6214,-36.0233 512.193,-42.2505 514.2055,-35.546"/>
</g>
<!-- Node11 -->
<g id="node12" class="node">
<title>Node11</title>
<g id="a_node12"><a xlink:href="../../d2/d31/hlo__computation_8h.html" target="_top" xlink:title="tensorflow/compiler\l/xla/service/hlo_computation.h">
<polygon fill="#ffffff" stroke="#000000" points="1178.5,-84 1178.5,-114 1327.5,-114 1327.5,-84 1178.5,-84"/>
<text text-anchor="start" x="1186.5" y="-102" font-family="Helvetica,sans-Serif" font-size="10.00" fill="#000000">tensorflow/compiler</text>
<text text-anchor="middle" x="1253" y="-91" font-family="Helvetica,sans-Serif" font-size="10.00" fill="#000000">/xla/service/hlo_computation.h</text>
</a>
</g>
</g>
<!-- Node1&#45;&gt;Node11 -->
<g id="edge11" class="edge">
<title>Node1&#45;&gt;Node11</title>
<path fill="none" stroke="#191970" d="M1428.1602,-161.9608C1392.9996,-149.3224 1342.5904,-131.203 1304.8695,-117.6443"/>
<polygon fill="#191970" stroke="#191970" points="1305.6755,-114.2148 1295.081,-114.1259 1303.3076,-120.8022 1305.6755,-114.2148"/>
</g>
<!-- Node17 -->
<g id="node18" class="node">
<title>Node17</title>
<polygon fill="#ffffff" stroke="#bfbfbf" points="2084.5,-6 2084.5,-36 2225.5,-36 2225.5,-6 2084.5,-6"/>
<text text-anchor="start" x="2092.5" y="-24" font-family="Helvetica,sans-Serif" font-size="10.00" fill="#000000">tensorflow/compiler</text>
<text text-anchor="middle" x="2155" y="-13" font-family="Helvetica,sans-Serif" font-size="10.00" fill="#000000">/xla/service/hlo_instruction.h</text>
</g>
<!-- Node1&#45;&gt;Node17 -->
<g id="edge37" class="edge">
<title>Node1&#45;&gt;Node17</title>
<path fill="none" stroke="#191970" d="M1428.4668,-161.9443C1409.8207,-152.8592 1389.6542,-139.2452 1379,-120 1369.959,-103.6689 1366.1461,-91.5359 1379,-78 1432.3231,-21.8476 1998.482,-53.893 2075,-42 2081.2388,-41.0303 2087.6944,-39.7743 2094.1084,-38.3588"/>
<polygon fill="#191970" stroke="#191970" points="2095.1741,-41.7042 2104.116,-36.0215 2093.582,-34.8876 2095.1741,-41.7042"/>
</g>
<!-- Node19 -->
<g id="node20" class="node">
<title>Node19</title>
<polygon fill="#ffffff" stroke="#bfbfbf" points="2244,-6 2244,-36 2382,-36 2382,-6 2244,-6"/>
<text text-anchor="start" x="2252" y="-24" font-family="Helvetica,sans-Serif" font-size="10.00" fill="#000000">tensorflow/compiler</text>
<text text-anchor="middle" x="2313" y="-13" font-family="Helvetica,sans-Serif" font-size="10.00" fill="#000000">/xla/service/name_uniquer.h</text>
</g>
<!-- Node1&#45;&gt;Node19 -->
<g id="edge39" class="edge">
<title>Node1&#45;&gt;Node19</title>
<path fill="none" stroke="#191970" d="M1449.8736,-161.812C1424.6791,-141.0462 1387.6195,-103.4703 1412,-78 1443.6464,-44.939 2189.7712,-48.9909 2235,-42 2241.0938,-41.0581 2247.3952,-39.8203 2253.6532,-38.4159"/>
<polygon fill="#191970" stroke="#191970" points="2254.4986,-41.8126 2263.4154,-36.0907 2252.8766,-35.0031 2254.4986,-41.8126"/>
</g>
<!-- Node22 -->
<g id="node23" class="node">
<title>Node22</title>
<polygon fill="#ffffff" stroke="#bfbfbf" points="2400.5,-6 2400.5,-36 2501.5,-36 2501.5,-6 2400.5,-6"/>
<text text-anchor="start" x="2408.5" y="-24" font-family="Helvetica,sans-Serif" font-size="10.00" fill="#000000">tensorflow/compiler</text>
<text text-anchor="middle" x="2451" y="-13" font-family="Helvetica,sans-Serif" font-size="10.00" fill="#000000">/xla/types.h</text>
</g>
<!-- Node1&#45;&gt;Node22 -->
<g id="edge41" class="edge">
<title>Node1&#45;&gt;Node22</title>
<path fill="none" stroke="#191970" d="M1472.5795,-161.733C1477.3138,-139.0323 1489.7329,-97.0175 1519,-78 1600.3128,-25.1636 2295.7548,-60.2156 2391,-42 2395.1462,-41.207 2399.3929,-40.1822 2403.6175,-39.0125"/>
<polygon fill="#191970" stroke="#191970" points="2404.8182,-42.306 2413.377,-36.0613 2402.792,-35.6057 2404.8182,-42.306"/>
</g>
<!-- Node25 -->
<g id="node26" class="node">
<title>Node25</title>
<polygon fill="#ffffff" stroke="#bfbfbf" points="2520,-6 2520,-36 2616,-36 2616,-6 2520,-6"/>
<text text-anchor="start" x="2528" y="-24" font-family="Helvetica,sans-Serif" font-size="10.00" fill="#000000">tensorflow/core/lib</text>
<text text-anchor="middle" x="2568" y="-13" font-family="Helvetica,sans-Serif" font-size="10.00" fill="#000000">/gtl/array_slice.h</text>
</g>
<!-- Node1&#45;&gt;Node25 -->
<g id="edge42" class="edge">
<title>Node1&#45;&gt;Node25</title>
<path fill="none" stroke="#191970" d="M1482.0623,-161.9751C1503.8953,-134.8711 1548.1655,-80.3671 1553,-78 1648.6673,-31.1578 2406.5049,-62.6687 2511,-42 2514.8473,-41.239 2518.7796,-40.256 2522.6911,-39.1315"/>
<polygon fill="#191970" stroke="#191970" points="2523.8307,-42.442 2532.3108,-36.0907 2521.7209,-35.7676 2523.8307,-42.442"/>
</g>
<!-- Node30 -->
<g id="node31" class="node">
<title>Node30</title>
<polygon fill="#ffffff" stroke="#bfbfbf" points="1628.5,-78.5 1628.5,-119.5 1747.5,-119.5 1747.5,-78.5 1628.5,-78.5"/>
<text text-anchor="start" x="1636.5" y="-107.5" font-family="Helvetica,sans-Serif" font-size="10.00" fill="#000000">tensorflow/compiler</text>
<text text-anchor="start" x="1636.5" y="-96.5" font-family="Helvetica,sans-Serif" font-size="10.00" fill="#000000">/xla/service/hlo_module</text>
<text text-anchor="middle" x="1688" y="-85.5" font-family="Helvetica,sans-Serif" font-size="10.00" fill="#000000">_config.h</text>
</g>
<!-- Node1&#45;&gt;Node30 -->
<g id="edge38" class="edge">
<title>Node1&#45;&gt;Node30</title>
<path fill="none" stroke="#191970" d="M1512.0326,-161.9608C1542.7942,-150.9544 1585.1741,-135.7909 1620.635,-123.1031"/>
<polygon fill="#191970" stroke="#191970" points="1622.2016,-126.2599 1630.4379,-119.5956 1619.8433,-119.6691 1622.2016,-126.2599"/>
</g>
<!-- Node31 -->
<g id="node32" class="node">
<title>Node31</title>
<polygon fill="#ffffff" stroke="#bfbfbf" points="1765.5,-78.5 1765.5,-119.5 1882.5,-119.5 1882.5,-78.5 1765.5,-78.5"/>
<text text-anchor="start" x="1773.5" y="-107.5" font-family="Helvetica,sans-Serif" font-size="10.00" fill="#000000">tensorflow/compiler</text>
<text text-anchor="start" x="1773.5" y="-96.5" font-family="Helvetica,sans-Serif" font-size="10.00" fill="#000000">/xla/service/versioned</text>
<text text-anchor="middle" x="1824" y="-85.5" font-family="Helvetica,sans-Serif" font-size="10.00" fill="#000000">_computation_handle.h</text>
</g>
<!-- Node1&#45;&gt;Node31 -->
<g id="edge40" class="edge">
<title>Node1&#45;&gt;Node31</title>
<path fill="none" stroke="#191970" d="M1534.2777,-166.2782C1590.4534,-156.4437 1674.3334,-140.6414 1755.4055,-120.3017"/>
<polygon fill="#191970" stroke="#191970" points="1756.4434,-123.6494 1765.2764,-117.7988 1754.7229,-116.8641 1756.4434,-123.6494"/>
</g>
<!-- Node32 -->
<g id="node33" class="node">
<title>Node32</title>
<polygon fill="#ffffff" stroke="#bfbfbf" points="1900.5,-84 1900.5,-114 2001.5,-114 2001.5,-84 1900.5,-84"/>
<text text-anchor="start" x="1908.5" y="-102" font-family="Helvetica,sans-Serif" font-size="10.00" fill="#000000">tensorflow/core/lib</text>
<text text-anchor="middle" x="1951" y="-91" font-family="Helvetica,sans-Serif" font-size="10.00" fill="#000000">/gtl/iterator_range.h</text>
</g>
<!-- Node1&#45;&gt;Node32 -->
<g id="edge43" class="edge">
<title>Node1&#45;&gt;Node32</title>
<path fill="none" stroke="#191970" d="M1534.0365,-172.5114C1617.3946,-165.725 1767.1721,-150.2968 1892,-120 1895.4322,-119.167 1898.9434,-118.2072 1902.4582,-117.1663"/>
<polygon fill="#191970" stroke="#191970" points="1903.8286,-120.404 1912.3109,-114.0558 1901.7211,-113.7288 1903.8286,-120.404"/>
</g>
<!-- Node33 -->
<g id="node34" class="node">
<title>Node33</title>
<polygon fill="#ffffff" stroke="#bfbfbf" points="2020,-84 2020,-114 2142,-114 2142,-84 2020,-84"/>
<text text-anchor="start" x="2028" y="-102" font-family="Helvetica,sans-Serif" font-size="10.00" fill="#000000">tensorflow/core/platform</text>
<text text-anchor="middle" x="2081" y="-91" font-family="Helvetica,sans-Serif" font-size="10.00" fill="#000000">/logging.h</text>
</g>
<!-- Node1&#45;&gt;Node33 -->
<g id="edge44" class="edge">
<title>Node1&#45;&gt;Node33</title>
<path fill="none" stroke="#191970" d="M1534.2954,-174.1082C1636.2404,-168.6556 1840.8581,-154.1734 2011,-120 2015.727,-119.0506 2020.593,-117.9203 2025.4526,-116.6838"/>
<polygon fill="#191970" stroke="#191970" points="2026.6218,-119.9939 2035.3721,-114.0204 2024.8065,-113.2334 2026.6218,-119.9939"/>
</g>
<!-- Node34 -->
<g id="node35" class="node">
<title>Node34</title>
<polygon fill="#ffffff" stroke="#bfbfbf" points="2160,-84 2160,-114 2282,-114 2282,-84 2160,-84"/>
<text text-anchor="start" x="2168" y="-102" font-family="Helvetica,sans-Serif" font-size="10.00" fill="#000000">tensorflow/core/platform</text>
<text text-anchor="middle" x="2221" y="-91" font-family="Helvetica,sans-Serif" font-size="10.00" fill="#000000">/mutex.h</text>
</g>
<!-- Node1&#45;&gt;Node34 -->
<g id="edge45" class="edge">
<title>Node1&#45;&gt;Node34</title>
<path fill="none" stroke="#191970" d="M1534.4434,-176.0545C1656.0365,-173.2912 1927.1979,-162.4573 2151,-120 2155.9375,-119.0633 2161.0229,-117.9137 2166.0922,-116.6396"/>
<polygon fill="#191970" stroke="#191970" points="2167.016,-120.0156 2175.7778,-114.059 2165.2138,-113.2516 2167.016,-120.0156"/>
</g>
<!-- Node11&#45;&gt;Node3 -->
<g id="edge12" class="edge">
<title>Node11&#45;&gt;Node3</title>
<path fill="none" stroke="#191970" d="M1327.652,-87.5486C1354.2169,-83.896 1384.385,-80.2276 1412,-78 1546.4005,-67.1583 2499.496,-91.293 2625,-42 2627.8021,-40.8994 2630.4966,-39.319 2633.0028,-37.5122"/>
<polygon fill="#191970" stroke="#191970" points="2635.4109,-40.0569 2640.6809,-30.8657 2630.8294,-34.7644 2635.4109,-40.0569"/>
</g>
<!-- Node11&#45;&gt;Node4 -->
<g id="edge13" class="edge">
<title>Node11&#45;&gt;Node4</title>
<path fill="none" stroke="#191970" d="M1178.4191,-97.5486C934.1148,-92.5017 167.4544,-74.2434 61,-42 56.3734,-40.5987 51.7272,-38.453 47.4004,-36.0591"/>
<polygon fill="#191970" stroke="#191970" points="48.9192,-32.8838 38.5701,-30.6149 45.2455,-38.8423 48.9192,-32.8838"/>
</g>
<!-- Node11&#45;&gt;Node6 -->
<g id="edge14" class="edge">
<title>Node11&#45;&gt;Node6</title>
<path fill="none" stroke="#191970" d="M1178.1135,-96.4046C933.361,-87.7687 169.8686,-59.5565 120,-42 116.3244,-40.706 112.71,-38.7865 109.3472,-36.6254"/>
<polygon fill="#191970" stroke="#191970" points="111.2931,-33.7119 101.1642,-30.6045 107.1446,-39.3501 111.2931,-33.7119"/>
</g>
<!-- Node11&#45;&gt;Node7 -->
<g id="edge15" class="edge">
<title>Node11&#45;&gt;Node7</title>
<path fill="none" stroke="#191970" d="M1178.2991,-95.2042C945.1954,-83.3166 245.3017,-47.2822 222,-42 214.4242,-40.2827 206.5283,-37.5449 199.276,-34.6059"/>
<polygon fill="#191970" stroke="#191970" points="200.4443,-31.2981 189.8759,-30.5503 197.6713,-37.7255 200.4443,-31.2981"/>
</g>
<!-- Node11&#45;&gt;Node8 -->
<g id="edge18" class="edge">
<title>Node11&#45;&gt;Node8</title>
<path fill="none" stroke="#191970" d="M1178.2261,-92.542C1124.9407,-88.0756 1051.6015,-82.2033 987,-78 830.9031,-67.8434 432.3234,-91.6945 284,-42 280.0224,-40.6673 276.0803,-38.6722 272.4086,-36.4332"/>
<polygon fill="#191970" stroke="#191970" points="274.1888,-33.409 263.9721,-30.6036 270.2094,-39.1679 274.1888,-33.409"/>
</g>
<!-- Node11&#45;&gt;Node9 -->
<g id="edge19" class="edge">
<title>Node11&#45;&gt;Node9</title>
<path fill="none" stroke="#191970" d="M1178.2229,-88.6169C1148.618,-84.8063 1114.2526,-80.7554 1083,-78 781.9661,-51.4592 700.4846,-100.5038 404,-42 399.9194,-41.1948 395.7399,-40.1715 391.579,-39.0119"/>
<polygon fill="#191970" stroke="#191970" points="392.5449,-35.6475 381.9596,-36.0969 390.5148,-42.3466 392.5449,-35.6475"/>
</g>
<!-- Node11&#45;&gt;Node10 -->
<g id="edge23" class="edge">
<title>Node11&#45;&gt;Node10</title>
<path fill="none" stroke="#191970" d="M1186.4698,-83.9827C1174.3845,-81.67 1161.8537,-79.5422 1150,-78 874.5272,-42.1598 798.5516,-95.7159 526,-42 521.8586,-41.1838 517.6145,-40.1528 513.3877,-38.9879"/>
<polygon fill="#191970" stroke="#191970" points="514.1967,-35.5767 503.6131,-36.0649 512.1911,-42.2833 514.1967,-35.5767"/>
</g>
<!-- Node12 -->
<g id="node13" class="node">
<title>Node12</title>
<polygon fill="#ffffff" stroke="#bfbfbf" points="929,-11.5 929,-30.5 1007,-30.5 1007,-11.5 929,-11.5"/>
<text text-anchor="middle" x="968" y="-18.5" font-family="Helvetica,sans-Serif" font-size="10.00" fill="#000000">unordered_set</text>
</g>
<!-- Node11&#45;&gt;Node12 -->
<g id="edge16" class="edge">
<title>Node11&#45;&gt;Node12</title>
<path fill="none" stroke="#191970" d="M1184.5348,-83.9442C1126.1209,-70.8391 1046.8379,-52.3639 1016,-42 1009.7759,-39.9082 1003.2454,-37.3264 997.076,-34.6971"/>
<polygon fill="#191970" stroke="#191970" points="998.3364,-31.4276 987.7747,-30.59 995.5088,-37.8312 998.3364,-31.4276"/>
</g>
<!-- Node13 -->
<g id="node14" class="node">
<title>Node13</title>
<polygon fill="#ffffff" stroke="#bfbfbf" points="1025,-11.5 1025,-30.5 1065,-30.5 1065,-11.5 1025,-11.5"/>
<text text-anchor="middle" x="1045" y="-18.5" font-family="Helvetica,sans-Serif" font-size="10.00" fill="#000000">utility</text>
</g>
<!-- Node11&#45;&gt;Node13 -->
<g id="edge17" class="edge">
<title>Node11&#45;&gt;Node13</title>
<path fill="none" stroke="#191970" d="M1188.9431,-83.9311C1153.9226,-74.393 1110.3928,-60.3726 1074,-42 1070.948,-40.4592 1067.8688,-38.6112 1064.915,-36.659"/>
<polygon fill="#191970" stroke="#191970" points="1066.7508,-33.6688 1056.5823,-30.6934 1062.6759,-39.3605 1066.7508,-33.6688"/>
</g>
<!-- Node14 -->
<g id="node15" class="node">
<title>Node14</title>
<polygon fill="#ffffff" stroke="#bfbfbf" points="1083.5,-6 1083.5,-36 1184.5,-36 1184.5,-6 1083.5,-6"/>
<text text-anchor="start" x="1091.5" y="-24" font-family="Helvetica,sans-Serif" font-size="10.00" fill="#000000">tensorflow/compiler</text>
<text text-anchor="middle" x="1134" y="-13" font-family="Helvetica,sans-Serif" font-size="10.00" fill="#000000">/xla/map_util.h</text>
</g>
<!-- Node11&#45;&gt;Node14 -->
<g id="edge20" class="edge">
<title>Node11&#45;&gt;Node14</title>
<path fill="none" stroke="#191970" d="M1230.0556,-83.9608C1211.8174,-72.0064 1186.0976,-55.148 1165.8615,-41.884"/>
<polygon fill="#191970" stroke="#191970" points="1167.5622,-38.8139 1157.28,-36.2592 1163.7248,-44.6684 1167.5622,-38.8139"/>
</g>
<!-- Node15 -->
<g id="node16" class="node">
<title>Node15</title>
<polygon fill="#ffffff" stroke="#bfbfbf" points="1202.5,-.5 1202.5,-41.5 1303.5,-41.5 1303.5,-.5 1202.5,-.5"/>
<text text-anchor="start" x="1210.5" y="-29.5" font-family="Helvetica,sans-Serif" font-size="10.00" fill="#000000">tensorflow/compiler</text>
<text text-anchor="start" x="1210.5" y="-18.5" font-family="Helvetica,sans-Serif" font-size="10.00" fill="#000000">/xla/service/dfs_hlo</text>
<text text-anchor="middle" x="1253" y="-7.5" font-family="Helvetica,sans-Serif" font-size="10.00" fill="#000000">_visitor.h</text>
</g>
<!-- Node11&#45;&gt;Node15 -->
<g id="edge21" class="edge">
<title>Node11&#45;&gt;Node15</title>
<path fill="none" stroke="#191970" d="M1253,-83.9608C1253,-74.8358 1253,-62.8535 1253,-51.7935"/>
<polygon fill="#191970" stroke="#191970" points="1256.5001,-51.5956 1253,-41.5956 1249.5001,-51.5956 1256.5001,-51.5956"/>
</g>
<!-- Node16 -->
<g id="node17" class="node">
<title>Node16</title>
<polygon fill="#ffffff" stroke="#bfbfbf" points="1322,-.5 1322,-41.5 1436,-41.5 1436,-.5 1322,-.5"/>
<text text-anchor="start" x="1330" y="-29.5" font-family="Helvetica,sans-Serif" font-size="10.00" fill="#000000">tensorflow/compiler</text>
<text text-anchor="start" x="1330" y="-18.5" font-family="Helvetica,sans-Serif" font-size="10.00" fill="#000000">/xla/service/dfs_hlo</text>
<text text-anchor="middle" x="1379" y="-7.5" font-family="Helvetica,sans-Serif" font-size="10.00" fill="#000000">_visitor_with_default.h</text>
</g>
<!-- Node11&#45;&gt;Node16 -->
<g id="edge22" class="edge">
<title>Node11&#45;&gt;Node16</title>
<path fill="none" stroke="#191970" d="M1277.2941,-83.9608C1294.2379,-73.4718 1317.2804,-59.2073 1337.1484,-46.9081"/>
<polygon fill="#191970" stroke="#191970" points="1339.0698,-49.8351 1345.7302,-41.5956 1335.3852,-43.8833 1339.0698,-49.8351"/>
</g>
<!-- Node11&#45;&gt;Node17 -->
<g id="edge24" class="edge">
<title>Node11&#45;&gt;Node17</title>
<path fill="none" stroke="#191970" d="M1309.0365,-83.9914C1319.5892,-81.6318 1330.5818,-79.4855 1341,-78 1664.344,-31.8957 1752.194,-91.7313 2075,-42 2081.24,-41.0387 2087.6965,-39.7881 2094.111,-38.3759"/>
<polygon fill="#191970" stroke="#191970" points="2095.1753,-41.7217 2104.1192,-36.0423 2093.5857,-34.9046 2095.1753,-41.7217"/>
</g>
<!-- Node18 -->
<g id="node19" class="node">
<title>Node18</title>
<polygon fill="#ffffff" stroke="#bfbfbf" points="1454.5,-6 1454.5,-36 1599.5,-36 1599.5,-6 1454.5,-6"/>
<text text-anchor="start" x="1462.5" y="-24" font-family="Helvetica,sans-Serif" font-size="10.00" fill="#000000">tensorflow/compiler</text>
<text text-anchor="middle" x="1527" y="-13" font-family="Helvetica,sans-Serif" font-size="10.00" fill="#000000">/xla/service/hlo_reachability.h</text>
</g>
<!-- Node11&#45;&gt;Node18 -->
<g id="edge25" class="edge">
<title>Node11&#45;&gt;Node18</title>
<path fill="none" stroke="#191970" d="M1305.83,-83.9608C1351.0764,-71.0804 1416.3214,-52.5071 1464.2241,-38.8705"/>
<polygon fill="#191970" stroke="#191970" points="1465.2059,-42.2302 1473.8655,-36.1259 1463.2893,-35.4976 1465.2059,-42.2302"/>
</g>
<!-- Node11&#45;&gt;Node19 -->
<g id="edge26" class="edge">
<title>Node11&#45;&gt;Node19</title>
<path fill="none" stroke="#191970" d="M1327.7489,-84.9844C1344.5564,-82.268 1362.3463,-79.7314 1379,-78 1757.7395,-38.6254 1858.6392,-99.8491 2235,-42 2241.0945,-41.0632 2247.3965,-39.8288 2253.6548,-38.4265"/>
<polygon fill="#191970" stroke="#191970" points="2254.4993,-41.8234 2263.4174,-36.1035 2252.8788,-35.0135 2254.4993,-41.8234"/>
</g>
<!-- Node20 -->
<g id="node21" class="node">
<title>Node20</title>
<polygon fill="#ffffff" stroke="#bfbfbf" points="1617.5,-6 1617.5,-36 1718.5,-36 1718.5,-6 1617.5,-6"/>
<text text-anchor="start" x="1625.5" y="-24" font-family="Helvetica,sans-Serif" font-size="10.00" fill="#000000">tensorflow/compiler</text>
<text text-anchor="middle" x="1668" y="-13" font-family="Helvetica,sans-Serif" font-size="10.00" fill="#000000">/xla/shape_tree.h</text>
</g>
<!-- Node11&#45;&gt;Node20 -->
<g id="edge27" class="edge">
<title>Node11&#45;&gt;Node20</title>
<path fill="none" stroke="#191970" d="M1312.4708,-83.9504C1321.9787,-81.7923 1331.7348,-79.7233 1341,-78 1459.1546,-56.024 1492.1994,-70.3034 1609,-42 1612.4325,-41.1682 1615.9439,-40.2094 1619.4589,-39.1692"/>
<polygon fill="#191970" stroke="#191970" points="1620.8288,-42.4071 1629.3119,-36.0599 1618.7222,-35.7316 1620.8288,-42.4071"/>
</g>
<!-- Node11&#45;&gt;Node21 -->
<g id="edge28" class="edge">
<title>Node11&#45;&gt;Node21</title>
<path fill="none" stroke="#191970" d="M1327.6506,-87.5312C1354.2154,-83.8769 1384.3838,-80.212 1412,-78 1691.4414,-55.6171 2397.4599,-93.6345 2673,-42 2677.1477,-41.2227 2681.3939,-40.1985 2685.6134,-39.0199"/>
<polygon fill="#191970" stroke="#191970" points="2686.8171,-42.3118 2695.3515,-36.0337 2684.7648,-35.6194 2686.8171,-42.3118"/>
</g>
<!-- Node11&#45;&gt;Node22 -->
<g id="edge29" class="edge">
<title>Node11&#45;&gt;Node22</title>
<path fill="none" stroke="#191970" d="M1327.6611,-87.6583C1354.2268,-84.0156 1384.3931,-80.3254 1412,-78 1628.9343,-59.7268 2177.0812,-82.4126 2391,-42 2395.148,-41.2164 2399.3959,-40.1981 2403.6213,-39.0328"/>
<polygon fill="#191970" stroke="#191970" points="2404.8192,-42.3273 2413.3821,-36.0881 2402.7974,-35.6256 2404.8192,-42.3273"/>
</g>
<!-- Node23 -->
<g id="node24" class="node">
<title>Node23</title>
<polygon fill="#ffffff" stroke="#bfbfbf" points="1736.5,-6 1736.5,-36 1837.5,-36 1837.5,-6 1736.5,-6"/>
<text text-anchor="start" x="1744.5" y="-24" font-family="Helvetica,sans-Serif" font-size="10.00" fill="#000000">tensorflow/compiler</text>
<text text-anchor="middle" x="1787" y="-13" font-family="Helvetica,sans-Serif" font-size="10.00" fill="#000000">/xla/xla_data.pb.h</text>
</g>
<!-- Node11&#45;&gt;Node23 -->
<g id="edge30" class="edge">
<title>Node11&#45;&gt;Node23</title>
<path fill="none" stroke="#191970" d="M1310.9871,-83.9359C1320.9493,-81.7005 1331.2367,-79.6107 1341,-78 1511.4387,-49.8813 1559.3218,-79.2512 1728,-42 1731.6661,-41.1904 1735.4166,-40.2171 1739.1622,-39.139"/>
<polygon fill="#191970" stroke="#191970" points="1740.4926,-42.3907 1749.0036,-36.081 1738.4154,-35.706 1740.4926,-42.3907"/>
</g>
<!-- Node24 -->
<g id="node25" class="node">
<title>Node24</title>
<polygon fill="#ffffff" stroke="#bfbfbf" points="1856,-6 1856,-36 1952,-36 1952,-6 1856,-6"/>
<text text-anchor="start" x="1864" y="-24" font-family="Helvetica,sans-Serif" font-size="10.00" fill="#000000">tensorflow/core/lib</text>
<text text-anchor="middle" x="1904" y="-13" font-family="Helvetica,sans-Serif" font-size="10.00" fill="#000000">/core/status.h</text>
</g>
<!-- Node11&#45;&gt;Node24 -->
<g id="edge31" class="edge">
<title>Node11&#45;&gt;Node24</title>
<path fill="none" stroke="#191970" d="M1310.0101,-83.9663C1320.2696,-81.6702 1330.9093,-79.5523 1341,-78 1563.8359,-43.7195 1626.5906,-89.4416 1847,-42 1850.6697,-41.2101 1854.4208,-40.2339 1858.1598,-39.1385"/>
<polygon fill="#191970" stroke="#191970" points="1859.5038,-42.3835 1867.9645,-36.0064 1857.3737,-35.7154 1859.5038,-42.3835"/>
</g>
<!-- Node11&#45;&gt;Node25 -->
<g id="edge32" class="edge">
<title>Node11&#45;&gt;Node25</title>
<path fill="none" stroke="#191970" d="M1327.6559,-87.5962C1354.2211,-83.9479 1384.3885,-80.2701 1412,-78 1655.5316,-57.9781 2271.1774,-88.8362 2511,-42 2514.9057,-41.2372 2518.8984,-40.2431 2522.8677,-39.1023"/>
<polygon fill="#191970" stroke="#191970" points="2524.1462,-42.3688 2532.6228,-36.0129 2522.0327,-35.6954 2524.1462,-42.3688"/>
</g>
<!-- Node26 -->
<g id="node27" class="node">
<title>Node26</title>
<polygon fill="#ffffff" stroke="#bfbfbf" points="1970,-6 1970,-36 2066,-36 2066,-6 1970,-6"/>
<text text-anchor="start" x="1978" y="-24" font-family="Helvetica,sans-Serif" font-size="10.00" fill="#000000">tensorflow/core/lib</text>
<text text-anchor="middle" x="2018" y="-13" font-family="Helvetica,sans-Serif" font-size="10.00" fill="#000000">/gtl/flatmap.h</text>
</g>
<!-- Node11&#45;&gt;Node26 -->
<g id="edge33" class="edge">
<title>Node11&#45;&gt;Node26</title>
<path fill="none" stroke="#191970" d="M1309.5203,-83.9621C1319.9271,-81.6364 1330.744,-79.5094 1341,-78 1614.078,-37.8094 1690.7877,-98.3223 1961,-42 1964.6748,-41.234 1968.4296,-40.2751 1972.1711,-39.1917"/>
<polygon fill="#191970" stroke="#191970" points="1973.5066,-42.44 1981.9801,-36.08 1971.3899,-35.7677 1973.5066,-42.44"/>
</g>
<!-- Node27 -->
<g id="node28" class="node">
<title>Node27</title>
<polygon fill="#ffffff" stroke="#bfbfbf" points="535,-6 535,-36 631,-36 631,-6 535,-6"/>
<text text-anchor="start" x="543" y="-24" font-family="Helvetica,sans-Serif" font-size="10.00" fill="#000000">tensorflow/core/lib</text>
<text text-anchor="middle" x="583" y="-13" font-family="Helvetica,sans-Serif" font-size="10.00" fill="#000000">/gtl/flatset.h</text>
</g>
<!-- Node11&#45;&gt;Node27 -->
<g id="edge34" class="edge">
<title>Node11&#45;&gt;Node27</title>
<path fill="none" stroke="#191970" d="M1185.6221,-83.9496C1173.796,-81.6844 1161.5724,-79.5812 1150,-78 924.8613,-47.237 862.1563,-89.7531 640,-42 636.3301,-41.2111 632.5788,-40.2357 628.8397,-39.1408"/>
<polygon fill="#191970" stroke="#191970" points="629.6256,-35.7177 619.0348,-36.0095 627.496,-42.3859 629.6256,-35.7177"/>
</g>
<!-- Node28 -->
<g id="node29" class="node">
<title>Node28</title>
<polygon fill="#ffffff" stroke="#bfbfbf" points="649,-6 649,-36 771,-36 771,-6 649,-6"/>
<text text-anchor="start" x="657" y="-24" font-family="Helvetica,sans-Serif" font-size="10.00" fill="#000000">tensorflow/core/platform</text>
<text text-anchor="middle" x="710" y="-13" font-family="Helvetica,sans-Serif" font-size="10.00" fill="#000000">/macros.h</text>
</g>
<!-- Node11&#45;&gt;Node28 -->
<g id="edge35" class="edge">
<title>Node11&#45;&gt;Node28</title>
<path fill="none" stroke="#191970" d="M1184.4756,-83.9936C1173.0004,-81.7785 1161.1894,-79.6804 1150,-78 986.6111,-53.4633 942.1144,-73.8886 780,-42 775.2693,-41.0694 770.4006,-39.9524 765.5392,-38.7248"/>
<polygon fill="#191970" stroke="#191970" points="766.1818,-35.2738 755.6172,-36.074 764.375,-42.0366 766.1818,-35.2738"/>
</g>
<!-- Node29 -->
<g id="node30" class="node">
<title>Node29</title>
<polygon fill="#ffffff" stroke="#bfbfbf" points="789,-6 789,-36 911,-36 911,-6 789,-6"/>
<text text-anchor="start" x="797" y="-24" font-family="Helvetica,sans-Serif" font-size="10.00" fill="#000000">tensorflow/core/platform</text>
<text text-anchor="middle" x="850" y="-13" font-family="Helvetica,sans-Serif" font-size="10.00" fill="#000000">/types.h</text>
</g>
<!-- Node11&#45;&gt;Node29 -->
<g id="edge36" class="edge">
<title>Node11&#45;&gt;Node29</title>
<path fill="none" stroke="#191970" d="M1181.3253,-83.9471C1170.8335,-81.8715 1160.1479,-79.8277 1150,-78 1048.1715,-59.6602 1020.8966,-64.9186 920,-42 915.6367,-41.0089 911.1472,-39.8923 906.649,-38.7037"/>
<polygon fill="#191970" stroke="#191970" points="907.4034,-35.2813 896.8335,-36.0071 905.549,-42.0312 907.4034,-35.2813"/>
</g>
</g>
</svg>
        <g id="navigator" transform="translate(0 0)" fill="#404254">
                <rect fill="#f2f5e9" fill-opacity="0.5" stroke="#606060" stroke-width=".5" x="0" y="0" width="60" height="60"/>
                <use id="zoomplus" xlink:href="#zoomPlus" x="17" y="9" onmousedown="handleZoom(evt,'in')"/>
                <use id="zoomminus" xlink:href="#zoomMin" x="42" y="9" onmousedown="handleZoom(evt,'out')"/>
                <use id="reset" xlink:href="#resetDef" x="30" y="36" onmousedown="handleReset()"/>
                <g id="arrowUp" xlink:href="#dirArrow" transform="translate(30 24)" onmousedown="handlePan(0,-1)">
                  <use xlink:href="#rim" fill="#404040">
                        <set attributeName="fill" to="#808080" begin="arrowUp.mouseover" end="arrowUp.mouseout"/>
                  </use>
                  <path fill="none" stroke="white" stroke-width="1.5" d="M0,-3.0v7 M-2.5,-0.5L0,-3.0L2.5,-0.5"/>
                </g>
                <g id="arrowRight" xlink:href="#dirArrow" transform="rotate(90) translate(36 -43)" onmousedown="handlePan(1,0)">
                  <use xlink:href="#rim" fill="#404040">
                        <set attributeName="fill" to="#808080" begin="arrowRight.mouseover" end="arrowRight.mouseout"/>
                  </use>
                  <path fill="none" stroke="white" stroke-width="1.5" d="M0,-3.0v7 M-2.5,-0.5L0,-3.0L2.5,-0.5"/>
                </g>
                <g id="arrowDown" xlink:href="#dirArrow" transform="rotate(180) translate(-30 -48)" onmousedown="handlePan(0,1)">
                  <use xlink:href="#rim" fill="#404040">
                        <set attributeName="fill" to="#808080" begin="arrowDown.mouseover" end="arrowDown.mouseout"/>
                  </use>
                  <path fill="none" stroke="white" stroke-width="1.5" d="M0,-3.0v7 M-2.5,-0.5L0,-3.0L2.5,-0.5"/>
                </g>
                <g id="arrowLeft" xlink:href="#dirArrow" transform="rotate(270) translate(-36 17)" onmousedown="handlePan(-1,0)">
                  <use xlink:href="#rim" fill="#404040">
                        <set attributeName="fill" to="#808080" begin="arrowLeft.mouseover" end="arrowLeft.mouseout"/>
                  </use>
                  <path fill="none" stroke="white" stroke-width="1.5" d="M0,-3.0v7 M-2.5,-0.5L0,-3.0L2.5,-0.5"/>
                </g>
        </g>
        <svg viewBox="0 0 15 15" width="100%" height="30px" preserveAspectRatio="xMaxYMin meet">
         <g id="arrow_out" transform="scale(0.3 0.3)">
          <a xlink:href="while__loop__simplifier_8h__incl_org.svg" target="_base">
           <rect id="button" ry="5" rx="5" y="6" x="6" height="38" width="38"
                fill="#f2f5e9" fill-opacity="0.5" stroke="#606060" stroke-width="1.0"/>
           <path id="arrow"
             d="M 11.500037,31.436501 C 11.940474,20.09759 22.043105,11.32322 32.158766,21.979434 L 37.068811,17.246167 C 37.068811,17.246167 37.088388,32 37.088388,32 L 22.160133,31.978069 C 22.160133,31.978069 26.997745,27.140456 26.997745,27.140456 C 18.528582,18.264221 13.291696,25.230495 11.500037,31.436501 z"
             style="fill:#404040;"/>
          </a>
         </g>
        </svg>
</svg>
