<?xml version="1.0" encoding="UTF-8" standalone="no"?>
<!DOCTYPE svg PUBLIC "-//W3C//DTD SVG 1.1//EN"
 "http://www.w3.org/Graphics/SVG/1.1/DTD/svg11.dtd">
<!-- Generated by graphviz version 2.40.1 (20161225.0304)
 -->
<!-- Title: tensorflow/tensorflow/compiler/xla/service/copy_insertion.cc Pages: 1 -->
<svg width="3615pt" height="429pt"
 viewBox="0.00 0.00 3614.50 429.00" xmlns="http://www.w3.org/2000/svg" xmlns:xlink="http://www.w3.org/1999/xlink">
<g id="graph0" class="graph" transform="scale(1 1) rotate(0) translate(4 425)">
<title>tensorflow/tensorflow/compiler/xla/service/copy_insertion.cc</title>
<polygon fill="#ffffff" stroke="transparent" points="-4,4 -4,-425 3610.5,-425 3610.5,4 -4,4"/>
<!-- Node0 -->
<g id="node1" class="node">
<title>Node0</title>
<polygon fill="#bfbfbf" stroke="#000000" points="2320,-379.5 2320,-420.5 2442,-420.5 2442,-379.5 2320,-379.5"/>
<text text-anchor="start" x="2328" y="-408.5" font-family="Helvetica,sans-Serif" font-size="10.00" fill="#000000">tensorflow/tensorflow</text>
<text text-anchor="start" x="2328" y="-397.5" font-family="Helvetica,sans-Serif" font-size="10.00" fill="#000000">/compiler/xla/service</text>
<text text-anchor="middle" x="2381" y="-386.5" font-family="Helvetica,sans-Serif" font-size="10.00" fill="#000000">/copy_insertion.cc</text>
</g>
<!-- Node1 -->
<g id="node2" class="node">
<title>Node1</title>
<g id="a_node2"><a xlink:href="../../d8/d94/copy__insertion_8h.html" target="_top" xlink:title="tensorflow/compiler\l/xla/service/copy_insertion.h">
<polygon fill="#ffffff" stroke="#000000" points="1368,-307 1368,-337 1524,-337 1524,-307 1368,-307"/>
<text text-anchor="start" x="1376" y="-325" font-family="Helvetica,sans-Serif" font-size="10.00" fill="#000000">tensorflow/compiler</text>
<text text-anchor="middle" x="1446" y="-314" font-family="Helvetica,sans-Serif" font-size="10.00" fill="#000000">/xla/service/copy_insertion.h</text>
</a>
</g>
</g>
<!-- Node0&#45;&gt;Node1 -->
<g id="edge1" class="edge">
<title>Node0&#45;&gt;Node1</title>
<path fill="none" stroke="#191970" d="M2319.8226,-399.1463C2180.392,-396.4854 1828.6198,-385.724 1538,-343 1530.6744,-341.9231 1523.0679,-340.5718 1515.5081,-339.0768"/>
<polygon fill="#191970" stroke="#191970" points="1516.125,-335.6304 1505.6243,-337.0394 1514.7117,-342.4863 1516.125,-335.6304"/>
</g>
<!-- Node3 -->
<g id="node4" class="node">
<title>Node3</title>
<g id="a_node4"><a xlink:href="../../d2/d31/hlo__computation_8h.html" target="_top" xlink:title="tensorflow/compiler\l/xla/service/hlo_computation.h">
<polygon fill="#ffffff" stroke="#000000" points="1731.5,-156.5 1731.5,-186.5 1898.5,-186.5 1898.5,-156.5 1731.5,-156.5"/>
<text text-anchor="start" x="1739.5" y="-174.5" font-family="Helvetica,sans-Serif" font-size="10.00" fill="#000000">tensorflow/compiler</text>
<text text-anchor="middle" x="1815" y="-163.5" font-family="Helvetica,sans-Serif" font-size="10.00" fill="#000000">/xla/service/hlo_computation.h</text>
</a>
</g>
</g>
<!-- Node0&#45;&gt;Node3 -->
<g id="edge73" class="edge">
<title>Node0&#45;&gt;Node3</title>
<path fill="none" stroke="#191970" d="M2319.7959,-396.6724C2188.5937,-389.1298 1884.0621,-369.3228 1784,-343 1701.6481,-321.3361 1655.3636,-336.4253 1609,-265 1598.8366,-249.3428 1597.5123,-237.7132 1609,-223 1623.3497,-204.6213 1673.8192,-191.8308 1721.2075,-183.5934"/>
<polygon fill="#191970" stroke="#191970" points="1721.9771,-187.0133 1731.2588,-181.9044 1720.8171,-180.1101 1721.9771,-187.0133"/>
</g>
<!-- Node16 -->
<g id="node17" class="node">
<title>Node16</title>
<g id="a_node17"><a xlink:href="../../dd/d66/hlo__instruction_8h.html" target="_top" xlink:title="tensorflow/compiler\l/xla/service/hlo_instruction.h">
<polygon fill="#ffffff" stroke="#ff0000" points="926.5,-84 926.5,-114 1083.5,-114 1083.5,-84 926.5,-84"/>
<text text-anchor="start" x="934.5" y="-102" font-family="Helvetica,sans-Serif" font-size="10.00" fill="#000000">tensorflow/compiler</text>
<text text-anchor="middle" x="1005" y="-91" font-family="Helvetica,sans-Serif" font-size="10.00" fill="#000000">/xla/service/hlo_instruction.h</text>
</a>
</g>
</g>
<!-- Node0&#45;&gt;Node16 -->
<g id="edge81" class="edge">
<title>Node0&#45;&gt;Node16</title>
<path fill="none" stroke="#191970" d="M2319.8779,-398.5166C2113.411,-393.2406 1449.6909,-374.0234 1359,-343 1217.2572,-294.5129 1080.186,-172.085 1027.5788,-121.4525"/>
<polygon fill="#191970" stroke="#191970" points="1029.7675,-118.6991 1020.1557,-114.2422 1024.8902,-123.7203 1029.7675,-118.6991"/>
</g>
<!-- Node22 -->
<g id="node23" class="node">
<title>Node22</title>
<polygon fill="#ffffff" stroke="#bfbfbf" points="0,-6 0,-36 140,-36 140,-6 0,-6"/>
<text text-anchor="start" x="8" y="-24" font-family="Helvetica,sans-Serif" font-size="10.00" fill="#000000">tensorflow/compiler</text>
<text text-anchor="middle" x="70" y="-13" font-family="Helvetica,sans-Serif" font-size="10.00" fill="#000000">/xla/service/hlo_opcode.h</text>
</g>
<!-- Node0&#45;&gt;Node22 -->
<g id="edge83" class="edge">
<title>Node0&#45;&gt;Node22</title>
<path fill="none" stroke="#191970" d="M2319.9189,-399.277C2053.295,-395.9212 989.9873,-380.4123 658,-343 428.121,-317.0945 147,-475.3341 147,-244 147,-244 147,-244 147,-171.5 147,-122.0275 113.6164,-72.4554 90.8119,-44.3637"/>
<polygon fill="#191970" stroke="#191970" points="93.221,-41.7884 84.123,-36.3592 87.8496,-46.277 93.221,-41.7884"/>
</g>
<!-- Node25 -->
<g id="node26" class="node">
<title>Node25</title>
<polygon fill="#ffffff" stroke="#bfbfbf" points="2946.5,-6 2946.5,-36 3059.5,-36 3059.5,-6 2946.5,-6"/>
<text text-anchor="start" x="2954.5" y="-24" font-family="Helvetica,sans-Serif" font-size="10.00" fill="#000000">tensorflow/compiler</text>
<text text-anchor="middle" x="3003" y="-13" font-family="Helvetica,sans-Serif" font-size="10.00" fill="#000000">/xla/types.h</text>
</g>
<!-- Node0&#45;&gt;Node25 -->
<g id="edge101" class="edge">
<title>Node0&#45;&gt;Node25</title>
<path fill="none" stroke="#191970" d="M2442.2486,-399.0114C2600.6357,-395.8811 3014.5923,-383.8383 3060,-343 3093.3122,-313.04 3079,-288.803 3079,-244 3079,-244 3079,-244 3079,-171.5 3079,-122.1601 3046.05,-72.5459 3023.5417,-44.4102"/>
<polygon fill="#191970" stroke="#191970" points="3025.998,-41.8871 3016.9396,-36.392 3020.5941,-46.3366 3025.998,-41.8871"/>
</g>
<!-- Node30 -->
<g id="node30" class="node">
<title>Node30</title>
<polygon fill="#ffffff" stroke="#bfbfbf" points="158.5,-6 158.5,-36 265.5,-36 265.5,-6 158.5,-6"/>
<text text-anchor="start" x="166.5" y="-24" font-family="Helvetica,sans-Serif" font-size="10.00" fill="#000000">tensorflow/core/lib</text>
<text text-anchor="middle" x="212" y="-13" font-family="Helvetica,sans-Serif" font-size="10.00" fill="#000000">/gtl/flatmap.h</text>
</g>
<!-- Node0&#45;&gt;Node30 -->
<g id="edge103" class="edge">
<title>Node0&#45;&gt;Node30</title>
<path fill="none" stroke="#191970" d="M2319.8629,-398.3069C1992.5322,-388.8502 462,-339.5249 462,-244 462,-244 462,-244 462,-171.5 462,-125.3192 335.205,-68.5846 262.2131,-39.7502"/>
<polygon fill="#191970" stroke="#191970" points="263.3111,-36.4216 252.7232,-36.0386 260.7614,-42.9407 263.3111,-36.4216"/>
</g>
<!-- Node33 -->
<g id="node31" class="node">
<title>Node33</title>
<polygon fill="#ffffff" stroke="#bfbfbf" points="2701.5,-6 2701.5,-36 2838.5,-36 2838.5,-6 2701.5,-6"/>
<text text-anchor="start" x="2709.5" y="-24" font-family="Helvetica,sans-Serif" font-size="10.00" fill="#000000">tensorflow/core/platform</text>
<text text-anchor="middle" x="2770" y="-13" font-family="Helvetica,sans-Serif" font-size="10.00" fill="#000000">/logging.h</text>
</g>
<!-- Node0&#45;&gt;Node33 -->
<g id="edge107" class="edge">
<title>Node0&#45;&gt;Node33</title>
<path fill="none" stroke="#191970" d="M2442.1404,-395.6964C2534.1043,-388.3936 2702.9236,-371.5221 2756,-343 2778.1741,-331.0841 2772.5889,-314.238 2794,-301 2844.6286,-269.6974 2879.1838,-305.2896 2923,-265 2984.1797,-208.7444 2981.0157,-136.5218 2922,-78 2901.9487,-58.1165 2874.3091,-45.0658 2848.0926,-36.5452"/>
<polygon fill="#191970" stroke="#191970" points="2849.1017,-33.1939 2838.5149,-33.6068 2847.0485,-39.886 2849.1017,-33.1939"/>
</g>
<!-- Node38 -->
<g id="node36" class="node">
<title>Node38</title>
<polygon fill="#ffffff" stroke="#bfbfbf" points="2177.5,-84 2177.5,-114 2290.5,-114 2290.5,-84 2177.5,-84"/>
<text text-anchor="start" x="2185.5" y="-102" font-family="Helvetica,sans-Serif" font-size="10.00" fill="#000000">tensorflow/compiler</text>
<text text-anchor="middle" x="2234" y="-91" font-family="Helvetica,sans-Serif" font-size="10.00" fill="#000000">/xla/statusor.h</text>
</g>
<!-- Node0&#45;&gt;Node38 -->
<g id="edge100" class="edge">
<title>Node0&#45;&gt;Node38</title>
<path fill="none" stroke="#191970" d="M2319.9276,-396.6032C2244.7942,-390.9999 2123.7517,-376.8517 2096,-343 2035.397,-269.0762 2149.0274,-164.9515 2205.2044,-120.4868"/>
<polygon fill="#191970" stroke="#191970" points="2207.6342,-123.0305 2213.3703,-114.1228 2203.3312,-117.5092 2207.6342,-123.0305"/>
</g>
<!-- Node39 -->
<g id="node37" class="node">
<title>Node39</title>
<polygon fill="#ffffff" stroke="#bfbfbf" points="2052.5,-84 2052.5,-114 2159.5,-114 2159.5,-84 2052.5,-84"/>
<text text-anchor="start" x="2060.5" y="-102" font-family="Helvetica,sans-Serif" font-size="10.00" fill="#000000">tensorflow/core/lib</text>
<text text-anchor="middle" x="2106" y="-91" font-family="Helvetica,sans-Serif" font-size="10.00" fill="#000000">/gtl/flatset.h</text>
</g>
<!-- Node0&#45;&gt;Node39 -->
<g id="edge104" class="edge">
<title>Node0&#45;&gt;Node39</title>
<path fill="none" stroke="#191970" d="M2319.7584,-397.5855C2239.3079,-392.9796 2104.6282,-379.8383 2074,-343 2020.7207,-278.9179 2067.2133,-170.8298 2092.3666,-123.0021"/>
<polygon fill="#191970" stroke="#191970" points="2095.5508,-124.4714 2097.2218,-114.0092 2089.3912,-121.1458 2095.5508,-124.4714"/>
</g>
<!-- Node40 -->
<g id="node38" class="node">
<title>Node40</title>
<g id="a_node38"><a xlink:href="../../db/da0/hlo__module_8h.html" target="_top" xlink:title="tensorflow/compiler\l/xla/service/hlo_module.h">
<polygon fill="#ffffff" stroke="#ff0000" points="2381,-229 2381,-259 2523,-259 2523,-229 2381,-229"/>
<text text-anchor="start" x="2389" y="-247" font-family="Helvetica,sans-Serif" font-size="10.00" fill="#000000">tensorflow/compiler</text>
<text text-anchor="middle" x="2452" y="-236" font-family="Helvetica,sans-Serif" font-size="10.00" fill="#000000">/xla/service/hlo_module.h</text>
</a>
</g>
</g>
<!-- Node0&#45;&gt;Node40 -->
<g id="edge82" class="edge">
<title>Node0&#45;&gt;Node40</title>
<path fill="none" stroke="#191970" d="M2345.4322,-379.4653C2332.7498,-370.1129 2319.9046,-357.7971 2313,-343 2305.1068,-326.0843 2302.6019,-316.5024 2313,-301 2326.5391,-280.8148 2348.6396,-267.7722 2371.2747,-259.3467"/>
<polygon fill="#191970" stroke="#191970" points="2372.6643,-262.5702 2380.9848,-256.0112 2370.3901,-255.9499 2372.6643,-262.5702"/>
</g>
<!-- Node48 -->
<g id="node40" class="node">
<title>Node48</title>
<polygon fill="#ffffff" stroke="#bfbfbf" points="2321.5,-301.5 2321.5,-342.5 2440.5,-342.5 2440.5,-301.5 2321.5,-301.5"/>
<text text-anchor="start" x="2329.5" y="-330.5" font-family="Helvetica,sans-Serif" font-size="10.00" fill="#000000">tensorflow/compiler</text>
<text text-anchor="start" x="2329.5" y="-319.5" font-family="Helvetica,sans-Serif" font-size="10.00" fill="#000000">/xla/service/hlo_alias</text>
<text text-anchor="middle" x="2381" y="-308.5" font-family="Helvetica,sans-Serif" font-size="10.00" fill="#000000">_analysis.h</text>
</g>
<!-- Node0&#45;&gt;Node48 -->
<g id="edge72" class="edge">
<title>Node0&#45;&gt;Node48</title>
<path fill="none" stroke="#191970" d="M2381,-379.0974C2381,-371.077 2381,-361.7444 2381,-352.9772"/>
<polygon fill="#191970" stroke="#191970" points="2384.5001,-352.6898 2381,-342.6898 2377.5001,-352.6898 2384.5001,-352.6898"/>
</g>
<!-- Node49 -->
<g id="node41" class="node">
<title>Node49</title>
<g id="a_node41"><a xlink:href="../../da/d99/hlo__dce_8h.html" target="_top" xlink:title="tensorflow/compiler\l/xla/service/hlo_dce.h">
<polygon fill="#ffffff" stroke="#000000" points="1793,-307 1793,-337 1915,-337 1915,-307 1793,-307"/>
<text text-anchor="start" x="1801" y="-325" font-family="Helvetica,sans-Serif" font-size="10.00" fill="#000000">tensorflow/compiler</text>
<text text-anchor="middle" x="1854" y="-314" font-family="Helvetica,sans-Serif" font-size="10.00" fill="#000000">/xla/service/hlo_dce.h</text>
</a>
</g>
</g>
<!-- Node0&#45;&gt;Node49 -->
<g id="edge74" class="edge">
<title>Node0&#45;&gt;Node49</title>
<path fill="none" stroke="#191970" d="M2319.7735,-390.938C2221.6023,-376.4079 2029.4619,-347.9697 1925.2721,-332.5488"/>
<polygon fill="#191970" stroke="#191970" points="1925.5677,-329.0545 1915.1629,-331.0526 1924.5427,-335.9791 1925.5677,-329.0545"/>
</g>
<!-- Node50 -->
<g id="node42" class="node">
<title>Node50</title>
<polygon fill="#ffffff" stroke="#bfbfbf" points="2623,-301.5 2623,-342.5 2747,-342.5 2747,-301.5 2623,-301.5"/>
<text text-anchor="start" x="2631" y="-330.5" font-family="Helvetica,sans-Serif" font-size="10.00" fill="#000000">tensorflow/compiler</text>
<text text-anchor="start" x="2631" y="-319.5" font-family="Helvetica,sans-Serif" font-size="10.00" fill="#000000">/xla/service/hlo_graph</text>
<text text-anchor="middle" x="2685" y="-308.5" font-family="Helvetica,sans-Serif" font-size="10.00" fill="#000000">_dumper.h</text>
</g>
<!-- Node0&#45;&gt;Node50 -->
<g id="edge80" class="edge">
<title>Node0&#45;&gt;Node50</title>
<path fill="none" stroke="#191970" d="M2442.0364,-385.9083C2486.8574,-375.3674 2549.4336,-360.2519 2612.9264,-343.2409"/>
<polygon fill="#191970" stroke="#191970" points="2613.9636,-346.5863 2622.7096,-340.6065 2612.1434,-339.8271 2613.9636,-346.5863"/>
</g>
<!-- Node51 -->
<g id="node43" class="node">
<title>Node51</title>
<g id="a_node43"><a xlink:href="../../dd/d39/hlo__ordering_8h.html" target="_top" xlink:title="tensorflow/compiler\l/xla/service/hlo_ordering.h">
<polygon fill="#ffffff" stroke="#ff0000" points="2459,-307 2459,-337 2605,-337 2605,-307 2459,-307"/>
<text text-anchor="start" x="2467" y="-325" font-family="Helvetica,sans-Serif" font-size="10.00" fill="#000000">tensorflow/compiler</text>
<text text-anchor="middle" x="2532" y="-314" font-family="Helvetica,sans-Serif" font-size="10.00" fill="#000000">/xla/service/hlo_ordering.h</text>
</a>
</g>
</g>
<!-- Node0&#45;&gt;Node51 -->
<g id="edge84" class="edge">
<title>Node0&#45;&gt;Node51</title>
<path fill="none" stroke="#191970" d="M2421.0688,-379.3022C2443.5453,-367.6919 2471.4398,-353.2828 2493.6338,-341.8183"/>
<polygon fill="#191970" stroke="#191970" points="2495.4857,-344.8011 2502.764,-337.102 2492.273,-338.5819 2495.4857,-344.8011"/>
</g>
<!-- Node55 -->
<g id="node44" class="node">
<title>Node55</title>
<polygon fill="#ffffff" stroke="#bfbfbf" points="2803,-301.5 2803,-342.5 2919,-342.5 2919,-301.5 2803,-301.5"/>
<text text-anchor="start" x="2811" y="-330.5" font-family="Helvetica,sans-Serif" font-size="10.00" fill="#000000">tensorflow/compiler</text>
<text text-anchor="start" x="2811" y="-319.5" font-family="Helvetica,sans-Serif" font-size="10.00" fill="#000000">/xla/service/liveness</text>
<text text-anchor="middle" x="2861" y="-308.5" font-family="Helvetica,sans-Serif" font-size="10.00" fill="#000000">_util.h</text>
</g>
<!-- Node0&#45;&gt;Node55 -->
<g id="edge93" class="edge">
<title>Node0&#45;&gt;Node55</title>
<path fill="none" stroke="#191970" d="M2442.3125,-394.2356C2522.5635,-386.0532 2667.3209,-369.1005 2789,-343 2790.2532,-342.7312 2791.5165,-342.452 2792.7873,-342.1636"/>
<polygon fill="#191970" stroke="#191970" points="2793.7293,-345.5369 2802.6319,-339.7928 2792.0903,-338.7314 2793.7293,-345.5369"/>
</g>
<!-- Node56 -->
<g id="node45" class="node">
<title>Node56</title>
<polygon fill="#ffffff" stroke="#bfbfbf" points="2937.5,-301.5 2937.5,-342.5 3050.5,-342.5 3050.5,-301.5 2937.5,-301.5"/>
<text text-anchor="start" x="2945.5" y="-330.5" font-family="Helvetica,sans-Serif" font-size="10.00" fill="#000000">tensorflow/compiler</text>
<text text-anchor="start" x="2945.5" y="-319.5" font-family="Helvetica,sans-Serif" font-size="10.00" fill="#000000">/xla/service/logical</text>
<text text-anchor="middle" x="2994" y="-308.5" font-family="Helvetica,sans-Serif" font-size="10.00" fill="#000000">_buffer.h</text>
</g>
<!-- Node0&#45;&gt;Node56 -->
<g id="edge94" class="edge">
<title>Node0&#45;&gt;Node56</title>
<path fill="none" stroke="#191970" d="M2442.3354,-397.691C2542.3344,-393.0356 2746.6088,-379.8053 2927.3625,-342.9068"/>
<polygon fill="#191970" stroke="#191970" points="2928.2322,-346.3011 2937.3147,-340.846 2926.8128,-339.4465 2928.2322,-346.3011"/>
</g>
<!-- Node57 -->
<g id="node46" class="node">
<title>Node57</title>
<g id="a_node46"><a xlink:href="../../df/dc6/tuple__simplifier_8h.html" target="_top" xlink:title="tensorflow/compiler\l/xla/service/tuple_simplifier.h">
<polygon fill="#ffffff" stroke="#000000" points="2105,-307 2105,-337 2265,-337 2265,-307 2105,-307"/>
<text text-anchor="start" x="2113" y="-325" font-family="Helvetica,sans-Serif" font-size="10.00" fill="#000000">tensorflow/compiler</text>
<text text-anchor="middle" x="2185" y="-314" font-family="Helvetica,sans-Serif" font-size="10.00" fill="#000000">/xla/service/tuple_simplifier.h</text>
</a>
</g>
</g>
<!-- Node0&#45;&gt;Node57 -->
<g id="edge95" class="edge">
<title>Node0&#45;&gt;Node57</title>
<path fill="none" stroke="#191970" d="M2329.2469,-379.4044C2299.1872,-367.4419 2261.5953,-352.4818 2232.3243,-340.8332"/>
<polygon fill="#191970" stroke="#191970" points="2233.325,-337.4645 2222.7395,-337.0188 2230.7367,-343.9684 2233.325,-337.4645"/>
</g>
<!-- Node58 -->
<g id="node47" class="node">
<title>Node58</title>
<polygon fill="#ffffff" stroke="#bfbfbf" points="3107,-307 3107,-337 3225,-337 3225,-307 3107,-307"/>
<text text-anchor="start" x="3115" y="-325" font-family="Helvetica,sans-Serif" font-size="10.00" fill="#000000">tensorflow/compiler</text>
<text text-anchor="middle" x="3166" y="-314" font-family="Helvetica,sans-Serif" font-size="10.00" fill="#000000">/xla/status_macros.h</text>
</g>
<!-- Node0&#45;&gt;Node58 -->
<g id="edge99" class="edge">
<title>Node0&#45;&gt;Node58</title>
<path fill="none" stroke="#191970" d="M2442.0126,-399.2168C2565.7694,-396.7297 2854.7888,-386.3464 3093,-343 3098.2709,-342.0409 3103.7073,-340.8573 3109.1238,-339.5447"/>
<polygon fill="#191970" stroke="#191970" points="3109.9934,-342.935 3118.8123,-337.0632 3108.2566,-336.1539 3109.9934,-342.935"/>
</g>
<!-- Node59 -->
<g id="node48" class="node">
<title>Node59</title>
<polygon fill="#ffffff" stroke="#bfbfbf" points="3243.5,-307 3243.5,-337 3356.5,-337 3356.5,-307 3243.5,-307"/>
<text text-anchor="start" x="3251.5" y="-325" font-family="Helvetica,sans-Serif" font-size="10.00" fill="#000000">tensorflow/compiler</text>
<text text-anchor="middle" x="3300" y="-314" font-family="Helvetica,sans-Serif" font-size="10.00" fill="#000000">/xla/util.h</text>
</g>
<!-- Node0&#45;&gt;Node59 -->
<g id="edge102" class="edge">
<title>Node0&#45;&gt;Node59</title>
<path fill="none" stroke="#191970" d="M2442.1974,-397.8296C2611.1987,-391.5304 3081.8891,-371.8422 3234,-343 3238.6296,-342.1222 3243.3883,-341.021 3248.1282,-339.7855"/>
<polygon fill="#191970" stroke="#191970" points="3249.0935,-343.1499 3257.7836,-337.0891 3247.2107,-336.4079 3249.0935,-343.1499"/>
</g>
<!-- Node60 -->
<g id="node49" class="node">
<title>Node60</title>
<polygon fill="#ffffff" stroke="#bfbfbf" points="3374.5,-307 3374.5,-337 3481.5,-337 3481.5,-307 3374.5,-307"/>
<text text-anchor="start" x="3382.5" y="-325" font-family="Helvetica,sans-Serif" font-size="10.00" fill="#000000">tensorflow/core/lib</text>
<text text-anchor="middle" x="3428" y="-314" font-family="Helvetica,sans-Serif" font-size="10.00" fill="#000000">/strings/str_util.h</text>
</g>
<!-- Node0&#45;&gt;Node60 -->
<g id="edge105" class="edge">
<title>Node0&#45;&gt;Node60</title>
<path fill="none" stroke="#191970" d="M2442.1663,-398.609C2628.5714,-394.0313 3187.6674,-377.7025 3366,-343 3370.2042,-342.1819 3374.5142,-341.1495 3378.8078,-339.9837"/>
<polygon fill="#191970" stroke="#191970" points="3380.1348,-343.2417 3388.7389,-337.0594 3378.1574,-336.5267 3380.1348,-343.2417"/>
</g>
<!-- Node61 -->
<g id="node50" class="node">
<title>Node61</title>
<polygon fill="#ffffff" stroke="#bfbfbf" points="3499.5,-307 3499.5,-337 3606.5,-337 3606.5,-307 3499.5,-307"/>
<text text-anchor="start" x="3507.5" y="-325" font-family="Helvetica,sans-Serif" font-size="10.00" fill="#000000">tensorflow/core/lib</text>
<text text-anchor="middle" x="3553" y="-314" font-family="Helvetica,sans-Serif" font-size="10.00" fill="#000000">/strings/strcat.h</text>
</g>
<!-- Node0&#45;&gt;Node61 -->
<g id="edge106" class="edge">
<title>Node0&#45;&gt;Node61</title>
<path fill="none" stroke="#191970" d="M2442.3204,-399.0683C2644.3121,-395.6519 3287.4942,-381.9154 3491,-343 3495.2068,-342.1956 3499.5187,-341.1728 3503.8135,-340.0135"/>
<polygon fill="#191970" stroke="#191970" points="3505.1365,-343.273 3513.7465,-337.0991 3503.1656,-336.5562 3505.1365,-343.273"/>
</g>
<!-- Node2 -->
<g id="node3" class="node">
<title>Node2</title>
<polygon fill="#ffffff" stroke="#bfbfbf" points="1304.5,-223.5 1304.5,-264.5 1417.5,-264.5 1417.5,-223.5 1304.5,-223.5"/>
<text text-anchor="start" x="1312.5" y="-252.5" font-family="Helvetica,sans-Serif" font-size="10.00" fill="#000000">tensorflow/compiler</text>
<text text-anchor="start" x="1312.5" y="-241.5" font-family="Helvetica,sans-Serif" font-size="10.00" fill="#000000">/xla/service/buffer</text>
<text text-anchor="middle" x="1361" y="-230.5" font-family="Helvetica,sans-Serif" font-size="10.00" fill="#000000">_liveness.h</text>
</g>
<!-- Node1&#45;&gt;Node2 -->
<g id="edge2" class="edge">
<title>Node1&#45;&gt;Node2</title>
<path fill="none" stroke="#191970" d="M1429.6111,-306.9608C1418.6421,-296.8951 1403.8842,-283.3526 1390.866,-271.4065"/>
<polygon fill="#191970" stroke="#191970" points="1393.1783,-268.778 1383.4439,-264.5956 1388.4455,-273.9356 1393.1783,-268.778"/>
</g>
<!-- Node1&#45;&gt;Node3 -->
<g id="edge3" class="edge">
<title>Node1&#45;&gt;Node3</title>
<path fill="none" stroke="#191970" d="M1455.4812,-306.7578C1470.2072,-284.4832 1500.7902,-243.4694 1538,-223 1569.0323,-205.9289 1653.596,-191.6915 1721.1967,-182.5446"/>
<polygon fill="#191970" stroke="#191970" points="1722.0137,-185.9667 1731.4638,-181.1765 1721.0891,-179.0281 1722.0137,-185.9667"/>
</g>
<!-- Node1&#45;&gt;Node16 -->
<g id="edge55" class="edge">
<title>Node1&#45;&gt;Node16</title>
<path fill="none" stroke="#191970" d="M1447.416,-306.7987C1448.5353,-285.3215 1447.2068,-246.1393 1426,-223 1413.76,-209.6446 1187.3,-147.6823 1071.705,-116.715"/>
<polygon fill="#191970" stroke="#191970" points="1072.4532,-113.2921 1061.8883,-114.0883 1070.6438,-120.0542 1072.4532,-113.2921"/>
</g>
<!-- Node1&#45;&gt;Node30 -->
<g id="edge71" class="edge">
<title>Node1&#45;&gt;Node30</title>
<path fill="none" stroke="#191970" d="M1391.8858,-306.9673C1245.2531,-266.5426 827.6635,-153.4692 476,-78 386.8377,-58.8652 362.3241,-64.6916 274,-42 270.5947,-41.1251 267.1069,-40.155 263.6064,-39.1255"/>
<polygon fill="#191970" stroke="#191970" points="264.3524,-35.6931 253.7653,-36.0963 262.2931,-42.3833 264.3524,-35.6931"/>
</g>
<!-- Node1&#45;&gt;Node40 -->
<g id="edge56" class="edge">
<title>Node1&#45;&gt;Node40</title>
<path fill="none" stroke="#191970" d="M1524.102,-315.9444C1710.6384,-301.4813 2180.6645,-265.0379 2370.5465,-250.3155"/>
<polygon fill="#191970" stroke="#191970" points="2371.0398,-253.7878 2380.7393,-249.5252 2370.4986,-246.8088 2371.0398,-253.7878"/>
</g>
<!-- Node47 -->
<g id="node39" class="node">
<title>Node47</title>
<polygon fill="#ffffff" stroke="#bfbfbf" points="1618.5,-223.5 1618.5,-264.5 1737.5,-264.5 1737.5,-223.5 1618.5,-223.5"/>
<text text-anchor="start" x="1626.5" y="-252.5" font-family="Helvetica,sans-Serif" font-size="10.00" fill="#000000">tensorflow/compiler</text>
<text text-anchor="start" x="1626.5" y="-241.5" font-family="Helvetica,sans-Serif" font-size="10.00" fill="#000000">/xla/service/hlo_pass</text>
<text text-anchor="middle" x="1678" y="-230.5" font-family="Helvetica,sans-Serif" font-size="10.00" fill="#000000">_interface.h</text>
</g>
<!-- Node1&#45;&gt;Node47 -->
<g id="edge70" class="edge">
<title>Node1&#45;&gt;Node47</title>
<path fill="none" stroke="#191970" d="M1490.7319,-306.9608C1524.2344,-295.697 1570.6862,-280.0796 1608.9433,-267.2173"/>
<polygon fill="#191970" stroke="#191970" points="1610.117,-270.5153 1618.4802,-264.011 1607.8862,-263.8803 1610.117,-270.5153"/>
</g>
<!-- Node4 -->
<g id="node5" class="node">
<title>Node4</title>
<polygon fill="#ffffff" stroke="#bfbfbf" points="2142,-11.5 2142,-30.5 2174,-30.5 2174,-11.5 2142,-11.5"/>
<text text-anchor="middle" x="2158" y="-18.5" font-family="Helvetica,sans-Serif" font-size="10.00" fill="#000000">list</text>
</g>
<!-- Node3&#45;&gt;Node4 -->
<g id="edge4" class="edge">
<title>Node3&#45;&gt;Node4</title>
<path fill="none" stroke="#191970" d="M1817.342,-156.3605C1821.4877,-135.1243 1832.2515,-96.9698 1858,-78 1957.2403,-4.8862 2020.1691,-91.6332 2133,-42 2135.9153,-40.7176 2138.7552,-38.9865 2141.4124,-37.0654"/>
<polygon fill="#191970" stroke="#191970" points="2143.7216,-39.6969 2149.1474,-30.5968 2139.231,-34.3271 2143.7216,-39.6969"/>
</g>
<!-- Node5 -->
<g id="node6" class="node">
<title>Node5</title>
<polygon fill="#ffffff" stroke="#bfbfbf" points="2625,-11.5 2625,-30.5 2683,-30.5 2683,-11.5 2625,-11.5"/>
<text text-anchor="middle" x="2654" y="-18.5" font-family="Helvetica,sans-Serif" font-size="10.00" fill="#000000">memory</text>
</g>
<!-- Node3&#45;&gt;Node5 -->
<g id="edge5" class="edge">
<title>Node3&#45;&gt;Node5</title>
<path fill="none" stroke="#191970" d="M1898.5406,-157.3838C1931.5788,-149.5157 1968.9861,-137.6269 2000,-120 2023.5036,-106.6416 2019.2331,-88.8382 2044,-78 2160.6796,-26.9402 2493.7342,-77.6693 2616,-42 2621.2031,-40.4821 2626.4813,-38.16 2631.3819,-35.6054"/>
<polygon fill="#191970" stroke="#191970" points="2633.2741,-38.5554 2640.2215,-30.5564 2629.8022,-32.4771 2633.2741,-38.5554"/>
</g>
<!-- Node6 -->
<g id="node7" class="node">
<title>Node6</title>
<polygon fill="#ffffff" stroke="#bfbfbf" points="2429,-11.5 2429,-30.5 2473,-30.5 2473,-11.5 2429,-11.5"/>
<text text-anchor="middle" x="2451" y="-18.5" font-family="Helvetica,sans-Serif" font-size="10.00" fill="#000000">string</text>
</g>
<!-- Node3&#45;&gt;Node6 -->
<g id="edge6" class="edge">
<title>Node3&#45;&gt;Node6</title>
<path fill="none" stroke="#191970" d="M1855.7818,-156.4454C1877.7792,-147.4319 1904.8739,-134.8455 1927,-120 1949.718,-104.7574 1946.9707,-89.0443 1972,-78 2154.7523,2.6402 2231.5357,-108.2001 2420,-42 2423.9578,-40.6098 2427.8901,-38.586 2431.5583,-36.3365"/>
<polygon fill="#191970" stroke="#191970" points="2433.755,-39.0731 2439.9964,-30.5118 2429.7784,-33.3123 2433.755,-39.0731"/>
</g>
<!-- Node7 -->
<g id="node8" class="node">
<title>Node7</title>
<polygon fill="#ffffff" stroke="#bfbfbf" points="2192.5,-11.5 2192.5,-30.5 2285.5,-30.5 2285.5,-11.5 2192.5,-11.5"/>
<text text-anchor="middle" x="2239" y="-18.5" font-family="Helvetica,sans-Serif" font-size="10.00" fill="#000000">unordered_map</text>
</g>
<!-- Node3&#45;&gt;Node7 -->
<g id="edge7" class="edge">
<title>Node3&#45;&gt;Node7</title>
<path fill="none" stroke="#191970" d="M1827.821,-156.1305C1849.5079,-130.2149 1891.5252,-80.3917 1896,-78 2009.3772,-17.4026 2058.184,-72.7798 2183,-42 2191.0808,-40.0073 2199.5914,-37.2036 2207.4704,-34.2922"/>
<polygon fill="#191970" stroke="#191970" points="2208.9649,-37.4671 2217.0327,-30.5998 2206.4433,-30.937 2208.9649,-37.4671"/>
</g>
<!-- Node8 -->
<g id="node9" class="node">
<title>Node8</title>
<polygon fill="#ffffff" stroke="#bfbfbf" points="1543,-11.5 1543,-30.5 1629,-30.5 1629,-11.5 1543,-11.5"/>
<text text-anchor="middle" x="1586" y="-18.5" font-family="Helvetica,sans-Serif" font-size="10.00" fill="#000000">unordered_set</text>
</g>
<!-- Node3&#45;&gt;Node8 -->
<g id="edge8" class="edge">
<title>Node3&#45;&gt;Node8</title>
<path fill="none" stroke="#191970" d="M1731.4834,-156.5928C1662.2421,-143.832 1574.296,-126.5196 1569,-120 1550.4064,-97.1107 1563.7945,-61.2639 1575.0261,-39.5651"/>
<polygon fill="#191970" stroke="#191970" points="1578.1562,-41.1367 1579.9121,-30.6883 1572.0238,-37.7612 1578.1562,-41.1367"/>
</g>
<!-- Node9 -->
<g id="node10" class="node">
<title>Node9</title>
<polygon fill="#ffffff" stroke="#bfbfbf" points="2727.5,-89.5 2727.5,-108.5 2772.5,-108.5 2772.5,-89.5 2727.5,-89.5"/>
<text text-anchor="middle" x="2750" y="-96.5" font-family="Helvetica,sans-Serif" font-size="10.00" fill="#000000">utility</text>
</g>
<!-- Node3&#45;&gt;Node9 -->
<g id="edge9" class="edge">
<title>Node3&#45;&gt;Node9</title>
<path fill="none" stroke="#191970" d="M1898.7979,-165.0023C2096.5145,-149.6713 2585.3368,-111.768 2716.927,-101.5645"/>
<polygon fill="#191970" stroke="#191970" points="2717.4641,-105.0334 2727.1636,-100.7707 2716.9229,-98.0544 2717.4641,-105.0334"/>
</g>
<!-- Node10 -->
<g id="node11" class="node">
<title>Node10</title>
<polygon fill="#ffffff" stroke="#bfbfbf" points="1945.5,-11.5 1945.5,-30.5 1992.5,-30.5 1992.5,-11.5 1945.5,-11.5"/>
<text text-anchor="middle" x="1969" y="-18.5" font-family="Helvetica,sans-Serif" font-size="10.00" fill="#000000">vector</text>
</g>
<!-- Node3&#45;&gt;Node10 -->
<g id="edge10" class="edge">
<title>Node3&#45;&gt;Node10</title>
<path fill="none" stroke="#191970" d="M1801.557,-156.4302C1785.5743,-136.6279 1763.2795,-101.6014 1782,-78 1825.6807,-22.9306 1871.2093,-69.2546 1936,-42 1939.834,-40.3872 1943.7224,-38.344 1947.4197,-36.1687"/>
<polygon fill="#191970" stroke="#191970" points="1949.5198,-38.981 1956.0771,-30.6592 1945.7614,-33.0755 1949.5198,-38.981"/>
</g>
<!-- Node11 -->
<g id="node12" class="node">
<title>Node11</title>
<polygon fill="#ffffff" stroke="#bfbfbf" points="2010.5,-6 2010.5,-36 2123.5,-36 2123.5,-6 2010.5,-6"/>
<text text-anchor="start" x="2018.5" y="-24" font-family="Helvetica,sans-Serif" font-size="10.00" fill="#000000">tensorflow/compiler</text>
<text text-anchor="middle" x="2067" y="-13" font-family="Helvetica,sans-Serif" font-size="10.00" fill="#000000">/xla/iterator_util.h</text>
</g>
<!-- Node3&#45;&gt;Node11 -->
<g id="edge11" class="edge">
<title>Node3&#45;&gt;Node11</title>
<path fill="none" stroke="#191970" d="M1810.7486,-156.4932C1805.9743,-136.1123 1801.1476,-99.7362 1820,-78 1874.0267,-15.7093 1922.1871,-62.7103 2002,-42 2005.5979,-41.0664 2009.2892,-40.0466 2012.997,-38.9757"/>
<polygon fill="#191970" stroke="#191970" points="2014.2193,-42.2634 2022.7979,-36.0458 2012.2143,-35.5567 2014.2193,-42.2634"/>
</g>
<!-- Node12 -->
<g id="node13" class="node">
<title>Node12</title>
<polygon fill="#ffffff" stroke="#bfbfbf" points="593.5,-6 593.5,-36 706.5,-36 706.5,-6 593.5,-6"/>
<text text-anchor="start" x="601.5" y="-24" font-family="Helvetica,sans-Serif" font-size="10.00" fill="#000000">tensorflow/compiler</text>
<text text-anchor="middle" x="650" y="-13" font-family="Helvetica,sans-Serif" font-size="10.00" fill="#000000">/xla/map_util.h</text>
</g>
<!-- Node3&#45;&gt;Node12 -->
<g id="edge12" class="edge">
<title>Node3&#45;&gt;Node12</title>
<path fill="none" stroke="#191970" d="M1731.4595,-163.3399C1703.0844,-160.748 1671.1798,-158.0308 1642,-156 1561.5398,-150.4002 990.9179,-152.2699 917,-120 892.5167,-109.3115 897.4594,-90.7803 874,-78 810.7544,-43.5449 785.4882,-60.9354 716,-42 712.487,-41.0427 708.8816,-40.0181 705.2548,-38.9554"/>
<polygon fill="#191970" stroke="#191970" points="706.2376,-35.5962 695.6535,-36.0738 704.2253,-42.3007 706.2376,-35.5962"/>
</g>
<!-- Node13 -->
<g id="node14" class="node">
<title>Node13</title>
<polygon fill="#ffffff" stroke="#bfbfbf" points="1280.5,-.5 1280.5,-41.5 1393.5,-41.5 1393.5,-.5 1280.5,-.5"/>
<text text-anchor="start" x="1288.5" y="-29.5" font-family="Helvetica,sans-Serif" font-size="10.00" fill="#000000">tensorflow/compiler</text>
<text text-anchor="start" x="1288.5" y="-18.5" font-family="Helvetica,sans-Serif" font-size="10.00" fill="#000000">/xla/service/dfs_hlo</text>
<text text-anchor="middle" x="1337" y="-7.5" font-family="Helvetica,sans-Serif" font-size="10.00" fill="#000000">_visitor.h</text>
</g>
<!-- Node3&#45;&gt;Node13 -->
<g id="edge13" class="edge">
<title>Node3&#45;&gt;Node13</title>
<path fill="none" stroke="#191970" d="M1731.2639,-157.9209C1641.5958,-143.3241 1511.3451,-121.9362 1506,-120 1456.9882,-102.2464 1406.0728,-70.2543 1373.1092,-47.4431"/>
<polygon fill="#191970" stroke="#191970" points="1374.915,-44.4348 1364.7164,-41.5644 1370.8991,-50.1682 1374.915,-44.4348"/>
</g>
<!-- Node14 -->
<g id="node15" class="node">
<title>Node14</title>
<polygon fill="#ffffff" stroke="#bfbfbf" points="1602,-78.5 1602,-119.5 1730,-119.5 1730,-78.5 1602,-78.5"/>
<text text-anchor="start" x="1610" y="-107.5" font-family="Helvetica,sans-Serif" font-size="10.00" fill="#000000">tensorflow/compiler</text>
<text text-anchor="start" x="1610" y="-96.5" font-family="Helvetica,sans-Serif" font-size="10.00" fill="#000000">/xla/service/dfs_hlo</text>
<text text-anchor="middle" x="1666" y="-85.5" font-family="Helvetica,sans-Serif" font-size="10.00" fill="#000000">_visitor_with_default.h</text>
</g>
<!-- Node3&#45;&gt;Node14 -->
<g id="edge14" class="edge">
<title>Node3&#45;&gt;Node14</title>
<path fill="none" stroke="#191970" d="M1784.1271,-156.478C1764.7982,-147.073 1739.4199,-134.7244 1717.1419,-123.8845"/>
<polygon fill="#191970" stroke="#191970" points="1718.6576,-120.7297 1708.1341,-119.5015 1715.5948,-127.0241 1718.6576,-120.7297"/>
</g>
<!-- Node15 -->
<g id="node16" class="node">
<title>Node15</title>
<polygon fill="#ffffff" stroke="#bfbfbf" points="2491.5,-6 2491.5,-36 2606.5,-36 2606.5,-6 2491.5,-6"/>
<text text-anchor="start" x="2499.5" y="-24" font-family="Helvetica,sans-Serif" font-size="10.00" fill="#000000">tensorflow/compiler</text>
<text text-anchor="middle" x="2549" y="-13" font-family="Helvetica,sans-Serif" font-size="10.00" fill="#000000">/xla/service/hlo.pb.h</text>
</g>
<!-- Node3&#45;&gt;Node15 -->
<g id="edge15" class="edge">
<title>Node3&#45;&gt;Node15</title>
<path fill="none" stroke="#191970" d="M1875.3362,-156.3951C1903.1508,-147.9812 1935.9214,-135.9413 1963,-120 1987.1414,-105.7879 1984.2269,-88.9788 2010,-78 2106.7787,-36.7742 2378.6981,-61.8594 2482,-42 2486.691,-41.0982 2491.5158,-39.9804 2496.3236,-38.7338"/>
<polygon fill="#191970" stroke="#191970" points="2497.4158,-42.0632 2506.1198,-36.0223 2495.5484,-35.3168 2497.4158,-42.0632"/>
</g>
<!-- Node3&#45;&gt;Node16 -->
<g id="edge16" class="edge">
<title>Node3&#45;&gt;Node16</title>
<path fill="none" stroke="#191970" d="M1731.4732,-157.604C1726.9216,-157.0183 1722.4082,-156.4777 1718,-156 1440.9403,-125.9748 1367.6703,-160.8593 1092,-120 1085.1843,-118.9898 1078.1195,-117.6995 1071.0963,-116.2564"/>
<polygon fill="#191970" stroke="#191970" points="1071.3837,-112.7378 1060.8701,-114.0476 1069.9057,-119.58 1071.3837,-112.7378"/>
</g>
<!-- Node24 -->
<g id="node25" class="node">
<title>Node24</title>
<polygon fill="#ffffff" stroke="#bfbfbf" points="1773,-6 1773,-36 1927,-36 1927,-6 1773,-6"/>
<text text-anchor="start" x="1781" y="-24" font-family="Helvetica,sans-Serif" font-size="10.00" fill="#000000">tensorflow/compiler</text>
<text text-anchor="middle" x="1850" y="-13" font-family="Helvetica,sans-Serif" font-size="10.00" fill="#000000">/xla/service/name_uniquer.h</text>
</g>
<!-- Node3&#45;&gt;Node24 -->
<g id="edge44" class="edge">
<title>Node3&#45;&gt;Node24</title>
<path fill="none" stroke="#191970" d="M1731.321,-157.2396C1672.2002,-146.3117 1601.9378,-131.2485 1593,-120 1581.3875,-105.3852 1581.2386,-92.4953 1593,-78 1641.9354,-17.6897 1688.2657,-59.214 1764,-42 1769.023,-40.8583 1774.2048,-39.6556 1779.4178,-38.4274"/>
<polygon fill="#191970" stroke="#191970" points="1780.5278,-41.7612 1789.4474,-36.0436 1778.9091,-34.9509 1780.5278,-41.7612"/>
</g>
<!-- Node3&#45;&gt;Node25 -->
<g id="edge47" class="edge">
<title>Node3&#45;&gt;Node25</title>
<path fill="none" stroke="#191970" d="M1898.7782,-163.4798C1995.5362,-154.014 2159.4487,-137.3537 2300,-120 2534.0916,-91.097 2811.0449,-50.0835 2935.9644,-31.2172"/>
<polygon fill="#191970" stroke="#191970" points="2936.7706,-34.6351 2946.1349,-29.6793 2935.724,-27.7138 2936.7706,-34.6351"/>
</g>
<!-- Node26 -->
<g id="node27" class="node">
<title>Node26</title>
<polygon fill="#ffffff" stroke="#bfbfbf" points="1411.5,-6 1411.5,-36 1524.5,-36 1524.5,-6 1411.5,-6"/>
<text text-anchor="start" x="1419.5" y="-24" font-family="Helvetica,sans-Serif" font-size="10.00" fill="#000000">tensorflow/compiler</text>
<text text-anchor="middle" x="1468" y="-13" font-family="Helvetica,sans-Serif" font-size="10.00" fill="#000000">/xla/xla_data.pb.h</text>
</g>
<!-- Node3&#45;&gt;Node26 -->
<g id="edge48" class="edge">
<title>Node3&#45;&gt;Node26</title>
<path fill="none" stroke="#191970" d="M1731.3685,-157.6076C1661.6368,-145.5734 1571.2907,-128.7593 1556,-120 1524.1157,-101.7351 1497.7498,-67.7012 1482.4354,-44.6996"/>
<polygon fill="#191970" stroke="#191970" points="1485.3009,-42.6851 1476.9339,-36.1855 1479.4215,-46.4842 1485.3009,-42.6851"/>
</g>
<!-- Node27 -->
<g id="node28" class="node">
<title>Node27</title>
<polygon fill="#ffffff" stroke="#bfbfbf" points="1647.5,-6 1647.5,-36 1754.5,-36 1754.5,-6 1647.5,-6"/>
<text text-anchor="start" x="1655.5" y="-24" font-family="Helvetica,sans-Serif" font-size="10.00" fill="#000000">tensorflow/core/lib</text>
<text text-anchor="middle" x="1701" y="-13" font-family="Helvetica,sans-Serif" font-size="10.00" fill="#000000">/core/status.h</text>
</g>
<!-- Node3&#45;&gt;Node27 -->
<g id="edge49" class="edge">
<title>Node3&#45;&gt;Node27</title>
<path fill="none" stroke="#191970" d="M1731.3041,-158.305C1668.1247,-147.4898 1590.6916,-132.0566 1581,-120 1569.3049,-105.4511 1571.0265,-93.7789 1581,-78 1588.9992,-65.3447 1619.7464,-50.866 1648.1122,-39.6679"/>
<polygon fill="#191970" stroke="#191970" points="1649.5358,-42.8701 1657.6043,-36.0034 1647.0148,-36.3398 1649.5358,-42.8701"/>
</g>
<!-- Node29 -->
<g id="node29" class="node">
<title>Node29</title>
<polygon fill="#ffffff" stroke="#bfbfbf" points="2303.5,-6 2303.5,-36 2410.5,-36 2410.5,-6 2303.5,-6"/>
<text text-anchor="start" x="2311.5" y="-24" font-family="Helvetica,sans-Serif" font-size="10.00" fill="#000000">tensorflow/core/lib</text>
<text text-anchor="middle" x="2357" y="-13" font-family="Helvetica,sans-Serif" font-size="10.00" fill="#000000">/gtl/array_slice.h</text>
</g>
<!-- Node3&#45;&gt;Node29 -->
<g id="edge50" class="edge">
<title>Node3&#45;&gt;Node29</title>
<path fill="none" stroke="#191970" d="M1840.1476,-156.4384C1855.6337,-146.7424 1875.5929,-133.4711 1892,-120 1912.4027,-103.2483 1910.1428,-89.3014 1934,-78 2079.7174,-8.972 2137.4032,-76.0832 2295,-42 2299.0613,-41.1217 2303.2272,-40.0659 2307.3849,-38.9012"/>
<polygon fill="#191970" stroke="#191970" points="2308.4418,-42.2384 2317.0186,-36.0184 2306.4349,-35.5322 2308.4418,-42.2384"/>
</g>
<!-- Node3&#45;&gt;Node30 -->
<g id="edge51" class="edge">
<title>Node3&#45;&gt;Node30</title>
<path fill="none" stroke="#191970" d="M1731.4675,-163.2219C1703.093,-160.6214 1671.1867,-157.9289 1642,-156 1548.3413,-149.8102 882.963,-159.8944 798,-120 775.2139,-109.3008 782.6158,-89.0546 760,-78 662.7053,-30.4423 380.1316,-63.5427 274,-42 269.8652,-41.1607 265.6258,-40.1232 261.399,-38.9626"/>
<polygon fill="#191970" stroke="#191970" points="262.1969,-35.5488 251.6147,-36.0666 260.2101,-42.2609 262.1969,-35.5488"/>
</g>
<!-- Node34 -->
<g id="node32" class="node">
<title>Node34</title>
<polygon fill="#ffffff" stroke="#bfbfbf" points="283.5,-6 283.5,-36 420.5,-36 420.5,-6 283.5,-6"/>
<text text-anchor="start" x="291.5" y="-24" font-family="Helvetica,sans-Serif" font-size="10.00" fill="#000000">tensorflow/core/platform</text>
<text text-anchor="middle" x="352" y="-13" font-family="Helvetica,sans-Serif" font-size="10.00" fill="#000000">/macros.h</text>
</g>
<!-- Node3&#45;&gt;Node34 -->
<g id="edge53" class="edge">
<title>Node3&#45;&gt;Node34</title>
<path fill="none" stroke="#191970" d="M1731.4653,-163.2558C1703.0905,-160.6578 1671.1848,-157.9582 1642,-156 1552.5563,-149.9986 917.1065,-158.1829 836,-120 813.2247,-109.2779 820.4854,-89.3175 798,-78 724.4069,-40.9587 510.0322,-56.8922 429,-42 423.5488,-40.9982 417.9212,-39.7967 412.3054,-38.4825"/>
<polygon fill="#191970" stroke="#191970" points="412.7966,-34.9992 402.2504,-36.0138 411.1275,-41.7973 412.7966,-34.9992"/>
</g>
<!-- Node35 -->
<g id="node33" class="node">
<title>Node35</title>
<polygon fill="#ffffff" stroke="#bfbfbf" points="438.5,-6 438.5,-36 575.5,-36 575.5,-6 438.5,-6"/>
<text text-anchor="start" x="446.5" y="-24" font-family="Helvetica,sans-Serif" font-size="10.00" fill="#000000">tensorflow/core/platform</text>
<text text-anchor="middle" x="507" y="-13" font-family="Helvetica,sans-Serif" font-size="10.00" fill="#000000">/types.h</text>
</g>
<!-- Node3&#45;&gt;Node35 -->
<g id="edge54" class="edge">
<title>Node3&#45;&gt;Node35</title>
<path fill="none" stroke="#191970" d="M1731.4628,-163.293C1703.0878,-160.6978 1671.1826,-157.9904 1642,-156 1556.771,-150.187 951.2502,-156.4716 874,-120 851.2365,-109.2528 858.2272,-89.8165 836,-78 736.1024,-24.8919 694.7894,-64.9285 584,-42 578.9562,-40.9562 573.7538,-39.7727 568.545,-38.5122"/>
<polygon fill="#191970" stroke="#191970" points="569.1115,-35.046 558.5605,-36.0096 567.4095,-41.8359 569.1115,-35.046"/>
</g>
<!-- Node36 -->
<g id="node34" class="node">
<title>Node36</title>
<polygon fill="#ffffff" stroke="#bfbfbf" points="1101.5,-84 1101.5,-114 1262.5,-114 1262.5,-84 1101.5,-84"/>
<text text-anchor="start" x="1109.5" y="-102" font-family="Helvetica,sans-Serif" font-size="10.00" fill="#000000">tensorflow/compiler</text>
<text text-anchor="middle" x="1182" y="-91" font-family="Helvetica,sans-Serif" font-size="10.00" fill="#000000">/xla/service/hlo_reachability.h</text>
</g>
<!-- Node3&#45;&gt;Node36 -->
<g id="edge43" class="edge">
<title>Node3&#45;&gt;Node36</title>
<path fill="none" stroke="#191970" d="M1731.4592,-157.7263C1726.9112,-157.109 1722.4024,-156.5282 1718,-156 1520.1093,-132.2572 1467.8884,-150.9743 1271,-120 1264.2564,-118.9391 1257.2672,-117.6421 1250.3052,-116.2183"/>
<polygon fill="#191970" stroke="#191970" points="1250.6664,-112.7167 1240.1563,-114.0542 1249.2065,-119.5628 1250.6664,-112.7167"/>
</g>
<!-- Node37 -->
<g id="node35" class="node">
<title>Node37</title>
<polygon fill="#ffffff" stroke="#bfbfbf" points="1280.5,-84 1280.5,-114 1393.5,-114 1393.5,-84 1280.5,-84"/>
<text text-anchor="start" x="1288.5" y="-102" font-family="Helvetica,sans-Serif" font-size="10.00" fill="#000000">tensorflow/compiler</text>
<text text-anchor="middle" x="1337" y="-91" font-family="Helvetica,sans-Serif" font-size="10.00" fill="#000000">/xla/shape_tree.h</text>
</g>
<!-- Node3&#45;&gt;Node37 -->
<g id="edge45" class="edge">
<title>Node3&#45;&gt;Node37</title>
<path fill="none" stroke="#191970" d="M1731.435,-157.9139C1726.8932,-157.2483 1722.3925,-156.6057 1718,-156 1580.5966,-137.0525 1543.8948,-147.7728 1408,-120 1403.2891,-119.0372 1398.439,-117.9075 1393.5909,-116.68"/>
<polygon fill="#191970" stroke="#191970" points="1394.2516,-113.2341 1383.6879,-114.0457 1392.452,-119.9989 1394.2516,-113.2341"/>
</g>
<!-- Node3&#45;&gt;Node38 -->
<g id="edge46" class="edge">
<title>Node3&#45;&gt;Node38</title>
<path fill="none" stroke="#191970" d="M1898.7076,-163.3355C1970.909,-155.3416 2077.6581,-141.2406 2169,-120 2173.0284,-119.0632 2177.1655,-117.992 2181.3069,-116.8403"/>
<polygon fill="#191970" stroke="#191970" points="2182.3101,-120.1936 2190.9291,-114.0323 2180.349,-113.4739 2182.3101,-120.1936"/>
</g>
<!-- Node3&#45;&gt;Node39 -->
<g id="edge52" class="edge">
<title>Node3&#45;&gt;Node39</title>
<path fill="none" stroke="#191970" d="M1886.1309,-156.4532C1930.0884,-146.8135 1987.5494,-133.5965 2038,-120 2041.6126,-119.0264 2045.3219,-117.9893 2049.0546,-116.9174"/>
<polygon fill="#191970" stroke="#191970" points="2050.3288,-120.1912 2058.9394,-114.0181 2048.3586,-113.4741 2050.3288,-120.1912"/>
</g>
<!-- Node16&#45;&gt;Node4 -->
<g id="edge19" class="edge">
<title>Node16&#45;&gt;Node4</title>
<path fill="none" stroke="#191970" d="M1059.9083,-83.9707C1070.4857,-81.5812 1081.5313,-79.4295 1092,-78 1206.6717,-62.3418 2024.9553,-83.4863 2133,-42 2135.9733,-40.8584 2138.8457,-39.2062 2141.5183,-37.3227"/>
<polygon fill="#191970" stroke="#191970" points="2143.8257,-39.9557 2149.2547,-30.8575 2139.337,-34.5843 2143.8257,-39.9557"/>
</g>
<!-- Node16&#45;&gt;Node5 -->
<g id="edge20" class="edge">
<title>Node16&#45;&gt;Node5</title>
<path fill="none" stroke="#191970" d="M1059.4295,-83.9831C1070.1494,-81.5597 1081.3696,-79.3923 1092,-78 1259.9462,-56.0033 2452.4984,-86.238 2616,-42 2621.2319,-40.5844 2626.5227,-38.3073 2631.4266,-35.7642"/>
<polygon fill="#191970" stroke="#191970" points="2633.325,-38.7104 2640.2626,-30.7029 2629.8457,-32.6363 2633.325,-38.7104"/>
</g>
<!-- Node16&#45;&gt;Node6 -->
<g id="edge22" class="edge">
<title>Node16&#45;&gt;Node6</title>
<path fill="none" stroke="#191970" d="M1059.8998,-83.9074C1070.478,-81.5238 1081.5261,-79.3904 1092,-78 1238.3261,-58.5757 2279.4829,-87.2061 2420,-42 2423.9933,-40.7153 2427.9432,-38.7439 2431.6178,-36.5136"/>
<polygon fill="#191970" stroke="#191970" points="2433.8191,-39.2468 2440.053,-30.68 2429.8374,-33.4895 2433.8191,-39.2468"/>
</g>
<!-- Node16&#45;&gt;Node7 -->
<g id="edge24" class="edge">
<title>Node16&#45;&gt;Node7</title>
<path fill="none" stroke="#191970" d="M1059.9065,-83.9573C1070.4841,-81.5691 1081.5302,-79.4212 1092,-78 1332.372,-45.3715 1945.0623,-89.2121 2183,-42 2191.7112,-40.2715 2200.8525,-37.3539 2209.1642,-34.2346"/>
<polygon fill="#191970" stroke="#191970" points="2210.4638,-37.4845 2218.4649,-30.5394 2207.8792,-30.9791 2210.4638,-37.4845"/>
</g>
<!-- Node16&#45;&gt;Node8 -->
<g id="edge25" class="edge">
<title>Node16&#45;&gt;Node8</title>
<path fill="none" stroke="#191970" d="M1061.8373,-83.9407C1071.8346,-81.6764 1082.1814,-79.576 1092,-78 1286.1667,-46.8347 1341.4975,-86.7079 1533,-42 1540.7738,-40.1851 1548.9102,-37.4293 1556.409,-34.5056"/>
<polygon fill="#191970" stroke="#191970" points="1557.9026,-37.6757 1565.8155,-30.6304 1555.2362,-31.2034 1557.9026,-37.6757"/>
</g>
<!-- Node16&#45;&gt;Node10 -->
<g id="edge26" class="edge">
<title>Node16&#45;&gt;Node10</title>
<path fill="none" stroke="#191970" d="M1060.3847,-83.9334C1070.819,-81.5795 1081.691,-79.45 1092,-78 1277.8962,-51.8527 1756.9199,-98.3153 1936,-42 1940.2998,-40.6478 1944.5884,-38.5851 1948.5824,-36.2712"/>
<polygon fill="#191970" stroke="#191970" points="1950.7676,-39.0248 1957.2342,-30.6324 1946.9454,-33.1604 1950.7676,-39.0248"/>
</g>
<!-- Node16&#45;&gt;Node11 -->
<g id="edge27" class="edge">
<title>Node16&#45;&gt;Node11</title>
<path fill="none" stroke="#191970" d="M1060.381,-83.9074C1070.8157,-81.5559 1081.6888,-79.4341 1092,-78 1492.902,-22.2422 1603.4931,-112.8769 2002,-42 2006.7141,-41.1616 2011.5581,-40.0652 2016.3736,-38.8132"/>
<polygon fill="#191970" stroke="#191970" points="2017.4895,-42.1352 2026.1677,-36.0574 2015.5935,-35.3969 2017.4895,-42.1352"/>
</g>
<!-- Node16&#45;&gt;Node12 -->
<g id="edge29" class="edge">
<title>Node16&#45;&gt;Node12</title>
<path fill="none" stroke="#191970" d="M940.0316,-83.978C930.6394,-81.9087 921.0811,-79.8585 912,-78 825.2301,-60.2423 801.9266,-63.47 716,-42 712.1722,-41.0436 708.2413,-39.9873 704.2968,-38.8725"/>
<polygon fill="#191970" stroke="#191970" points="705.095,-35.4593 694.5142,-36.0045 703.1256,-42.1766 705.095,-35.4593"/>
</g>
<!-- Node16&#45;&gt;Node13 -->
<g id="edge30" class="edge">
<title>Node16&#45;&gt;Node13</title>
<path fill="none" stroke="#191970" d="M1066.2464,-83.9044C1074.8812,-81.8672 1083.6558,-79.8454 1092,-78 1168.1388,-61.1609 1190.6948,-62.2173 1270.2423,-42.0629"/>
<polygon fill="#191970" stroke="#191970" points="1271.4181,-45.3746 1280.2332,-39.4972 1269.6769,-38.5946 1271.4181,-45.3746"/>
</g>
<!-- Node16&#45;&gt;Node15 -->
<g id="edge31" class="edge">
<title>Node16&#45;&gt;Node15</title>
<path fill="none" stroke="#191970" d="M1059.8984,-83.8972C1070.4768,-81.5145 1081.5252,-79.3841 1092,-78 1398.3299,-37.524 2177.1947,-92.696 2482,-42 2487.056,-41.1591 2492.2586,-40.0279 2497.4233,-38.7244"/>
<polygon fill="#191970" stroke="#191970" points="2498.536,-42.0488 2507.2598,-36.0366 2496.6909,-35.2963 2498.536,-42.0488"/>
</g>
<!-- Node17 -->
<g id="node18" class="node">
<title>Node17</title>
<polygon fill="#ffffff" stroke="#bfbfbf" points="1130.5,-11.5 1130.5,-30.5 1195.5,-30.5 1195.5,-11.5 1130.5,-11.5"/>
<text text-anchor="middle" x="1163" y="-18.5" font-family="Helvetica,sans-Serif" font-size="10.00" fill="#000000">functional</text>
</g>
<!-- Node16&#45;&gt;Node17 -->
<g id="edge17" class="edge">
<title>Node16&#45;&gt;Node17</title>
<path fill="none" stroke="#191970" d="M1036.0468,-83.8166C1059.4245,-72.3661 1092.2505,-56.2506 1121,-42 1125.4236,-39.8073 1130.1048,-37.4767 1134.6742,-35.1963"/>
<polygon fill="#191970" stroke="#191970" points="1136.3978,-38.2477 1143.7779,-30.646 1133.2681,-31.9863 1136.3978,-38.2477"/>
</g>
<!-- Node18 -->
<g id="node19" class="node">
<title>Node18</title>
<polygon fill="#ffffff" stroke="#bfbfbf" points="1213.5,-11.5 1213.5,-30.5 1262.5,-30.5 1262.5,-11.5 1213.5,-11.5"/>
<text text-anchor="middle" x="1238" y="-18.5" font-family="Helvetica,sans-Serif" font-size="10.00" fill="#000000">iosfwd</text>
</g>
<!-- Node16&#45;&gt;Node18 -->
<g id="edge18" class="edge">
<title>Node16&#45;&gt;Node18</title>
<path fill="none" stroke="#191970" d="M1064.4746,-83.888C1113.5469,-71.0651 1179.018,-53.0405 1204,-42 1207.8174,-40.3129 1211.7182,-38.2592 1215.4523,-36.1042"/>
<polygon fill="#191970" stroke="#191970" points="1217.5673,-38.9123 1224.249,-30.6901 1213.8982,-32.9509 1217.5673,-38.9123"/>
</g>
<!-- Node19 -->
<g id="node20" class="node">
<title>Node19</title>
<polygon fill="#ffffff" stroke="#bfbfbf" points="725,-11.5 725,-30.5 757,-30.5 757,-11.5 725,-11.5"/>
<text text-anchor="middle" x="741" y="-18.5" font-family="Helvetica,sans-Serif" font-size="10.00" fill="#000000">set</text>
</g>
<!-- Node16&#45;&gt;Node19 -->
<g id="edge21" class="edge">
<title>Node16&#45;&gt;Node19</title>
<path fill="none" stroke="#191970" d="M938.541,-83.9423C870.5785,-68.4233 773.8464,-45.9501 766,-42 763.342,-40.6619 760.7227,-38.9894 758.2381,-37.1759"/>
<polygon fill="#191970" stroke="#191970" points="760.3898,-34.4137 750.449,-30.7487 755.9346,-39.8129 760.3898,-34.4137"/>
</g>
<!-- Node20 -->
<g id="node21" class="node">
<title>Node20</title>
<polygon fill="#ffffff" stroke="#bfbfbf" points="775.5,-11.5 775.5,-30.5 816.5,-30.5 816.5,-11.5 775.5,-11.5"/>
<text text-anchor="middle" x="796" y="-18.5" font-family="Helvetica,sans-Serif" font-size="10.00" fill="#000000">tuple</text>
</g>
<!-- Node16&#45;&gt;Node20 -->
<g id="edge23" class="edge">
<title>Node16&#45;&gt;Node20</title>
<path fill="none" stroke="#191970" d="M940.5822,-83.9813C905.3652,-74.4583 861.5922,-60.4364 825,-42 821.9468,-40.4617 818.8669,-38.615 815.9127,-36.6636"/>
<polygon fill="#191970" stroke="#191970" points="817.7484,-33.6733 807.5799,-30.6981 813.6737,-39.3651 817.7484,-33.6733"/>
</g>
<!-- Node21 -->
<g id="node22" class="node">
<title>Node21</title>
<polygon fill="#ffffff" stroke="#bfbfbf" points="834.5,-6 834.5,-36 947.5,-36 947.5,-6 834.5,-6"/>
<text text-anchor="start" x="842.5" y="-24" font-family="Helvetica,sans-Serif" font-size="10.00" fill="#000000">tensorflow/compiler</text>
<text text-anchor="middle" x="891" y="-13" font-family="Helvetica,sans-Serif" font-size="10.00" fill="#000000">/xla/literal_util.h</text>
</g>
<!-- Node16&#45;&gt;Node21 -->
<g id="edge28" class="edge">
<title>Node16&#45;&gt;Node21</title>
<path fill="none" stroke="#191970" d="M983.0197,-83.9608C965.6261,-72.06 941.1295,-55.2991 921.7839,-42.0627"/>
<polygon fill="#191970" stroke="#191970" points="923.5313,-39.0175 913.3018,-36.2592 919.5785,-44.7946 923.5313,-39.0175"/>
</g>
<!-- Node16&#45;&gt;Node22 -->
<g id="edge32" class="edge">
<title>Node16&#45;&gt;Node22</title>
<path fill="none" stroke="#191970" d="M926.2809,-95.7082C744.0288,-87.7711 297.3401,-66.4191 149,-42 142.9349,-41.0016 136.6607,-39.7399 130.4218,-38.3326"/>
<polygon fill="#191970" stroke="#191970" points="131.2203,-34.9249 120.682,-36.0181 129.6019,-41.7353 131.2203,-34.9249"/>
</g>
<!-- Node23 -->
<g id="node24" class="node">
<title>Node23</title>
<polygon fill="#ffffff" stroke="#bfbfbf" points="965.5,-6 965.5,-36 1112.5,-36 1112.5,-6 965.5,-6"/>
<text text-anchor="start" x="973.5" y="-24" font-family="Helvetica,sans-Serif" font-size="10.00" fill="#000000">tensorflow/compiler</text>
<text text-anchor="middle" x="1039" y="-13" font-family="Helvetica,sans-Serif" font-size="10.00" fill="#000000">/xla/service/hlo_sharding.h</text>
</g>
<!-- Node16&#45;&gt;Node23 -->
<g id="edge33" class="edge">
<title>Node16&#45;&gt;Node23</title>
<path fill="none" stroke="#191970" d="M1011.5555,-83.9608C1016.2757,-73.1321 1022.7499,-58.2796 1028.2247,-45.7198"/>
<polygon fill="#191970" stroke="#191970" points="1031.5611,-46.8247 1032.3486,-36.2592 1025.1442,-44.0276 1031.5611,-46.8247"/>
</g>
<!-- Node16&#45;&gt;Node24 -->
<g id="edge34" class="edge">
<title>Node16&#45;&gt;Node24</title>
<path fill="none" stroke="#191970" d="M1060.8653,-83.9195C1071.1552,-81.5981 1081.8528,-79.4836 1092,-78 1387.9482,-34.7284 1468.1094,-85.6637 1764,-42 1770.7423,-41.0051 1777.7292,-39.7247 1784.6736,-38.2877"/>
<polygon fill="#191970" stroke="#191970" points="1785.7585,-41.6335 1794.7843,-36.0851 1784.2684,-34.7939 1785.7585,-41.6335"/>
</g>
<!-- Node16&#45;&gt;Node25 -->
<g id="edge35" class="edge">
<title>Node16&#45;&gt;Node25</title>
<path fill="none" stroke="#191970" d="M1059.426,-83.9566C1070.1462,-81.5354 1081.3674,-79.3757 1092,-78 1479.0776,-27.9167 2458.8698,-72.2499 2848,-42 2877.0484,-39.7419 2908.9743,-35.6878 2936.2632,-31.7398"/>
<polygon fill="#191970" stroke="#191970" points="2937.0957,-35.1551 2946.4793,-30.2359 2936.0761,-28.2297 2937.0957,-35.1551"/>
</g>
<!-- Node16&#45;&gt;Node26 -->
<g id="edge36" class="edge">
<title>Node16&#45;&gt;Node26</title>
<path fill="none" stroke="#191970" d="M1063.2924,-83.9012C1072.8446,-81.7238 1082.6687,-79.6617 1092,-78 1228.5554,-53.6826 1266.3967,-71.1626 1402,-42 1406.1659,-41.1041 1410.4431,-40.0538 1414.7211,-38.9091"/>
<polygon fill="#191970" stroke="#191970" points="1415.9853,-42.1887 1424.6522,-36.0948 1414.0767,-35.4539 1415.9853,-42.1887"/>
</g>
<!-- Node16&#45;&gt;Node27 -->
<g id="edge37" class="edge">
<title>Node16&#45;&gt;Node27</title>
<path fill="none" stroke="#191970" d="M1061.3486,-83.9169C1071.4929,-81.626 1082.0158,-79.5227 1092,-78 1332.4137,-41.3345 1399.3589,-88.8352 1638,-42 1642.3821,-41.14 1646.8805,-40.0594 1651.3596,-38.8448"/>
<polygon fill="#191970" stroke="#191970" points="1652.464,-42.1685 1661.0816,-36.0051 1650.5014,-35.4493 1652.464,-42.1685"/>
</g>
<!-- Node16&#45;&gt;Node29 -->
<g id="edge38" class="edge">
<title>Node16&#45;&gt;Node29</title>
<path fill="none" stroke="#191970" d="M1059.903,-83.9313C1070.4809,-81.5455 1081.528,-79.4051 1092,-78 1357.0774,-42.4321 2031.7846,-89.4211 2295,-42 2299.4616,-41.1962 2304.0381,-40.133 2308.5855,-38.9108"/>
<polygon fill="#191970" stroke="#191970" points="2309.8278,-42.1939 2318.4379,-36.02 2307.857,-35.477 2309.8278,-42.1939"/>
</g>
<!-- Node16&#45;&gt;Node30 -->
<g id="edge39" class="edge">
<title>Node16&#45;&gt;Node30</title>
<path fill="none" stroke="#191970" d="M926.4201,-90.4211C887.7685,-86.3562 840.4706,-81.6123 798,-78 565.4019,-58.2168 502.8958,-87.825 274,-42 269.863,-41.1718 265.622,-40.1421 261.3941,-38.9869"/>
<polygon fill="#191970" stroke="#191970" points="262.1899,-35.5726 251.6082,-36.0991 260.2087,-42.2863 262.1899,-35.5726"/>
</g>
<!-- Node16&#45;&gt;Node33 -->
<g id="edge40" class="edge">
<title>Node16&#45;&gt;Node33</title>
<path fill="none" stroke="#191970" d="M1059.4282,-83.9736C1070.1482,-81.551 1081.3688,-79.3864 1092,-78 1797.3193,13.9766 1987.9433,-143.1891 2692,-42 2698.2856,-41.0966 2704.7879,-39.8558 2711.2337,-38.4252"/>
<polygon fill="#191970" stroke="#191970" points="2712.3552,-41.7563 2721.2769,-36.042 2710.739,-34.9454 2712.3552,-41.7563"/>
</g>
<!-- Node16&#45;&gt;Node34 -->
<g id="edge41" class="edge">
<title>Node16&#45;&gt;Node34</title>
<path fill="none" stroke="#191970" d="M926.3929,-88.6456C897.9411,-85.0529 865.5472,-81.1415 836,-78 655.4227,-58.8006 607.7504,-74.0172 429,-42 423.5443,-41.0228 417.9136,-39.8383 412.2959,-38.5351"/>
<polygon fill="#191970" stroke="#191970" points="412.7831,-35.0513 402.2384,-36.0803 411.1233,-41.8517 412.7831,-35.0513"/>
</g>
<!-- Node16&#45;&gt;Node35 -->
<g id="edge42" class="edge">
<title>Node16&#45;&gt;Node35</title>
<path fill="none" stroke="#191970" d="M926.445,-85.9428C909.1843,-83.2035 890.9891,-80.4154 874,-78 745.4149,-59.7183 711.4197,-67.1506 584,-42 578.7323,-40.9602 573.2951,-39.7541 567.8604,-38.4558"/>
<polygon fill="#191970" stroke="#191970" points="568.6667,-35.0498 558.1178,-36.0352 566.9788,-41.8432 568.6667,-35.0498"/>
</g>
<!-- Node40&#45;&gt;Node3 -->
<g id="edge64" class="edge">
<title>Node40&#45;&gt;Node3</title>
<path fill="none" stroke="#191970" d="M2380.7822,-235.8944C2265.3289,-222.7541 2037.308,-196.8019 1908.7892,-182.1746"/>
<polygon fill="#191970" stroke="#191970" points="1908.9026,-178.665 1898.571,-181.0116 1908.111,-185.6201 1908.9026,-178.665"/>
</g>
<!-- Node40&#45;&gt;Node4 -->
<g id="edge57" class="edge">
<title>Node40&#45;&gt;Node4</title>
<path fill="none" stroke="#191970" d="M2457.2248,-228.835C2467.2886,-196.5364 2485.174,-120.448 2447,-78 2407.5548,-34.1385 2238.1538,-65.3906 2184,-42 2181.0071,-40.7073 2178.0754,-38.9704 2175.3224,-37.0466"/>
<polygon fill="#191970" stroke="#191970" points="2177.2649,-34.1174 2167.2789,-30.5777 2172.878,-39.5722 2177.2649,-34.1174"/>
</g>
<!-- Node40&#45;&gt;Node5 -->
<g id="edge58" class="edge">
<title>Node40&#45;&gt;Node5</title>
<path fill="none" stroke="#191970" d="M2523.1191,-231.3393C2551.3345,-223.0285 2581.9966,-209.3672 2603,-187 2641.938,-145.5337 2651.183,-75.0227 2653.3526,-40.8021"/>
<polygon fill="#191970" stroke="#191970" points="2656.8547,-40.8422 2653.8498,-30.6825 2649.8632,-40.4986 2656.8547,-40.8422"/>
</g>
<!-- Node40&#45;&gt;Node6 -->
<g id="edge59" class="edge">
<title>Node40&#45;&gt;Node6</title>
<path fill="none" stroke="#191970" d="M2506.6192,-228.8964C2527.3929,-220.1999 2548.9431,-206.9109 2561,-187 2586.0931,-145.5609 2587.1093,-118.8065 2561,-78 2540.4223,-45.8389 2516.3856,-60.525 2483,-42 2479.8242,-40.2378 2476.5459,-38.2709 2473.3535,-36.2669"/>
<polygon fill="#191970" stroke="#191970" points="2475.031,-33.1826 2464.7407,-30.6604 2471.2121,-39.0492 2475.031,-33.1826"/>
</g>
<!-- Node40&#45;&gt;Node7 -->
<g id="edge60" class="edge">
<title>Node40&#45;&gt;Node7</title>
<path fill="none" stroke="#191970" d="M2463.9614,-228.5467C2471.6371,-217.6126 2480.9068,-202.2397 2485,-187 2497.5663,-140.2138 2515.9028,-115.3079 2485,-78 2430.1743,-11.8108 2377.7637,-65.1741 2295,-42 2287.1963,-39.8149 2278.9458,-37.0103 2271.2464,-34.167"/>
<polygon fill="#191970" stroke="#191970" points="2272.4542,-30.8818 2261.8635,-30.5885 2269.9598,-37.4223 2272.4542,-30.8818"/>
</g>
<!-- Node40&#45;&gt;Node10 -->
<g id="edge61" class="edge">
<title>Node40&#45;&gt;Node10</title>
<path fill="none" stroke="#191970" d="M2442.1461,-228.8165C2416.5427,-189.5813 2348.8076,-87.232 2333,-78 2205.2174,-3.3723 2141.6289,-91.0046 2002,-42 1997.819,-40.5326 1993.6255,-38.449 1989.6974,-36.1586"/>
<polygon fill="#191970" stroke="#191970" points="1991.4432,-33.1196 1981.1446,-30.6317 1987.644,-38.9988 1991.4432,-33.1196"/>
</g>
<!-- Node40&#45;&gt;Node11 -->
<g id="edge62" class="edge">
<title>Node40&#45;&gt;Node11</title>
<path fill="none" stroke="#191970" d="M2449.4398,-228.8455C2442.9512,-195.5283 2422.5616,-115.8697 2371,-78 2284.7761,-14.6724 2237.186,-66.2942 2133,-42 2128.9819,-41.0631 2124.8553,-40 2120.7214,-38.8615"/>
<polygon fill="#191970" stroke="#191970" points="2121.6881,-35.4977 2111.11,-36.0919 2119.7498,-42.2241 2121.6881,-35.4977"/>
</g>
<!-- Node40&#45;&gt;Node15 -->
<g id="edge63" class="edge">
<title>Node40&#45;&gt;Node15</title>
<path fill="none" stroke="#191970" d="M2522.9704,-228.9256C2545.5894,-220.4603 2568.2823,-207.3242 2582,-187 2609.1063,-146.8391 2597.1729,-124.6276 2584,-78 2580.6643,-66.1928 2574.1202,-54.4225 2567.5843,-44.6698"/>
<polygon fill="#191970" stroke="#191970" points="2570.3155,-42.4706 2561.6764,-36.3374 2564.6051,-46.5194 2570.3155,-42.4706"/>
</g>
<!-- Node40&#45;&gt;Node16 -->
<g id="edge65" class="edge">
<title>Node40&#45;&gt;Node16</title>
<path fill="none" stroke="#191970" d="M2380.6914,-239.4686C2203.1892,-228.0483 1753.5621,-198.2022 1723,-187 1700.8794,-178.8919 1702.1882,-163.9211 1680,-156 1556.7095,-111.986 1221.4609,-139.4335 1092,-120 1085.1862,-118.9772 1078.1226,-117.6786 1071.1001,-116.2305"/>
<polygon fill="#191970" stroke="#191970" points="1071.3889,-112.712 1060.8747,-114.0166 1069.9076,-119.5535 1071.3889,-112.712"/>
</g>
<!-- Node40&#45;&gt;Node24 -->
<g id="edge66" class="edge">
<title>Node40&#45;&gt;Node24</title>
<path fill="none" stroke="#191970" d="M2434.976,-228.978C2422.4815,-217.7432 2405.2744,-201.8273 2391,-187 2363.6843,-158.6264 2358.0625,-150.3822 2333,-120 2317.8937,-101.6873 2320.8123,-89.4195 2300,-78 2228.9326,-39.0059 2016.9232,-55.5425 1937,-42 1930.5155,-40.9012 1923.7969,-39.5917 1917.0989,-38.1712"/>
<polygon fill="#191970" stroke="#191970" points="1917.8483,-34.7524 1907.3298,-36.0221 1916.3443,-41.5889 1917.8483,-34.7524"/>
</g>
<!-- Node40&#45;&gt;Node25 -->
<g id="edge67" class="edge">
<title>Node40&#45;&gt;Node25</title>
<path fill="none" stroke="#191970" d="M2517.8974,-228.955C2558.8079,-218.8351 2612.144,-204.2186 2658,-187 2774.6003,-143.2173 2905.3452,-74.5925 2967.0584,-40.9492"/>
<polygon fill="#191970" stroke="#191970" points="2968.9136,-43.9239 2976.0055,-36.0527 2965.553,-37.7833 2968.9136,-43.9239"/>
</g>
<!-- Node40&#45;&gt;Node29 -->
<g id="edge68" class="edge">
<title>Node40&#45;&gt;Node29</title>
<path fill="none" stroke="#191970" d="M2481.3033,-228.9549C2496.7776,-219.2709 2514.3192,-205.1012 2523,-187 2543.9481,-143.3189 2551.1487,-117.4274 2523,-78 2522.1304,-76.7819 2459.7569,-55.5741 2411.7283,-39.3811"/>
<polygon fill="#191970" stroke="#191970" points="2412.6248,-35.99 2402.0307,-36.114 2410.3899,-42.6236 2412.6248,-35.99"/>
</g>
<!-- Node40&#45;&gt;Node33 -->
<g id="edge69" class="edge">
<title>Node40&#45;&gt;Node33</title>
<path fill="none" stroke="#191970" d="M2523.3194,-230.2951C2556.7648,-221.5714 2595.9838,-207.8717 2627,-187 2679.5942,-151.6078 2677.4159,-125.849 2719,-78 2728.8563,-66.6588 2739.9636,-54.207 2749.2903,-43.8422"/>
<polygon fill="#191970" stroke="#191970" points="2751.926,-46.1458 2756.0252,-36.376 2746.7282,-41.4571 2751.926,-46.1458"/>
</g>
<!-- Node49&#45;&gt;Node3 -->
<g id="edge75" class="edge">
<title>Node49&#45;&gt;Node3</title>
<path fill="none" stroke="#191970" d="M1850.0458,-306.741C1843.3301,-280.8251 1829.6335,-227.9701 1821.4939,-196.5596"/>
<polygon fill="#191970" stroke="#191970" points="1824.8613,-195.6016 1818.9646,-186.7994 1818.0851,-197.3576 1824.8613,-195.6016"/>
</g>
<!-- Node49&#45;&gt;Node16 -->
<g id="edge76" class="edge">
<title>Node49&#45;&gt;Node16</title>
<path fill="none" stroke="#191970" d="M1792.9273,-309.4787C1743.1107,-298.8617 1671.0798,-282.5889 1609,-265 1462.418,-223.4694 1431.4455,-194.3522 1284,-156 1199.9756,-134.1443 1176.8931,-138.1918 1092,-120 1086.6824,-118.8605 1081.1927,-117.64 1075.6772,-116.3821"/>
<polygon fill="#191970" stroke="#191970" points="1076.2848,-112.9303 1065.7533,-114.0866 1074.7073,-119.7502 1076.2848,-112.9303"/>
</g>
<!-- Node49&#45;&gt;Node38 -->
<g id="edge79" class="edge">
<title>Node49&#45;&gt;Node38</title>
<path fill="none" stroke="#191970" d="M1869.397,-306.5414C1902.2386,-274.3444 1982.7373,-199.4826 2063,-156 2068.3414,-153.1063 2130.133,-132.7465 2177.9187,-117.177"/>
<polygon fill="#191970" stroke="#191970" points="2179.1471,-120.458 2187.5726,-114.0346 2176.9804,-113.8017 2179.1471,-120.458"/>
</g>
<!-- Node49&#45;&gt;Node40 -->
<g id="edge77" class="edge">
<title>Node49&#45;&gt;Node40</title>
<path fill="none" stroke="#191970" d="M1915.1862,-314.0192C2023.6176,-299.876 2249.4734,-270.4165 2370.7887,-254.5928"/>
<polygon fill="#191970" stroke="#191970" points="2371.304,-258.0553 2380.7673,-253.2912 2370.3986,-251.1141 2371.304,-258.0553"/>
</g>
<!-- Node49&#45;&gt;Node47 -->
<g id="edge78" class="edge">
<title>Node49&#45;&gt;Node47</title>
<path fill="none" stroke="#191970" d="M1820.0654,-306.9608C1795.6549,-296.1425 1762.1824,-281.3081 1733.8594,-268.7559"/>
<polygon fill="#191970" stroke="#191970" points="1735.0327,-265.4476 1724.4721,-264.5956 1732.1964,-271.8473 1735.0327,-265.4476"/>
</g>
<!-- Node51&#45;&gt;Node5 -->
<g id="edge85" class="edge">
<title>Node51&#45;&gt;Node5</title>
<path fill="none" stroke="#191970" d="M2586.9271,-306.9483C2595.9322,-304.765 2605.1962,-302.6887 2614,-301 2675.3947,-289.2234 2846.1693,-306.4112 2893,-265 2955.2605,-209.9447 2953.8713,-134.5875 2893,-78 2826.8507,-16.506 2778.2664,-71.7803 2693,-42 2687.9566,-40.2385 2682.7785,-37.8867 2677.9102,-35.3945"/>
<polygon fill="#191970" stroke="#191970" points="2679.5002,-32.2749 2669.0471,-30.5477 2676.1416,-38.4166 2679.5002,-32.2749"/>
</g>
<!-- Node51&#45;&gt;Node6 -->
<g id="edge86" class="edge">
<title>Node51&#45;&gt;Node6</title>
<path fill="none" stroke="#191970" d="M2589.7403,-306.9965C2597.8768,-304.9454 2606.1428,-302.8952 2614,-301 2684.4353,-284.0106 2724.6005,-318.919 2773,-265 2791.7765,-244.0822 2783.6986,-79.9154 2782,-78 2737.5958,-27.9288 2545.8602,-64.9665 2483,-42 2479.0406,-40.5534 2475.0784,-38.5342 2471.3581,-36.315"/>
<polygon fill="#191970" stroke="#191970" points="2473.0146,-33.2137 2462.7474,-30.5989 2469.143,-39.0456 2473.0146,-33.2137"/>
</g>
<!-- Node51&#45;&gt;Node9 -->
<g id="edge87" class="edge">
<title>Node51&#45;&gt;Node9</title>
<path fill="none" stroke="#191970" d="M2590.7553,-306.9357C2655.4087,-290.3262 2750.3664,-265.8196 2751,-265 2784.4006,-221.7933 2767.8068,-151.5984 2756.9304,-118.0419"/>
<polygon fill="#191970" stroke="#191970" points="2760.2196,-116.8434 2753.6707,-108.515 2753.5966,-119.1096 2760.2196,-116.8434"/>
</g>
<!-- Node51&#45;&gt;Node15 -->
<g id="edge88" class="edge">
<title>Node51&#45;&gt;Node15</title>
<path fill="none" stroke="#191970" d="M2587.3912,-306.9485C2596.2541,-304.7907 2605.3525,-302.7222 2614,-301 2669.2633,-289.9941 2828.0922,-307.579 2865,-265 2919.437,-202.1982 2919.4016,-140.8325 2865,-78 2828.4042,-35.7327 2670.5161,-54.4005 2616,-42 2611.8547,-41.0571 2607.5953,-39.9813 2603.33,-38.8265"/>
<polygon fill="#191970" stroke="#191970" points="2603.9931,-35.3765 2593.4174,-36.0134 2602.082,-42.1106 2603.9931,-35.3765"/>
</g>
<!-- Node51&#45;&gt;Node16 -->
<g id="edge89" class="edge">
<title>Node51&#45;&gt;Node16</title>
<path fill="none" stroke="#191970" d="M2476.6019,-306.9829C2467.7399,-304.8206 2458.6436,-302.7418 2450,-301 2280.4322,-266.8305 1838.2488,-256.8435 1680,-187 1660.0598,-178.1994 1662.2826,-163.9798 1642,-156 1528.0202,-111.1572 1213.0881,-138.4376 1092,-120 1085.2916,-118.9785 1078.3401,-117.6944 1071.4238,-116.2671"/>
<polygon fill="#191970" stroke="#191970" points="1071.862,-112.781 1061.348,-114.0871 1070.3817,-119.6227 1071.862,-112.781"/>
</g>
<!-- Node51&#45;&gt;Node25 -->
<g id="edge91" class="edge">
<title>Node51&#45;&gt;Node25</title>
<path fill="none" stroke="#191970" d="M2586.4665,-306.9605C2595.6125,-304.7494 2605.0415,-302.6612 2614,-301 2681.9724,-288.396 2868.6171,-307.6803 2923,-265 2991.6113,-211.1531 3002.0767,-97.0997 3003.1977,-46.3135"/>
<polygon fill="#191970" stroke="#191970" points="3006.6986,-46.2441 3003.3128,-36.2048 2999.699,-46.1643 3006.6986,-46.2441"/>
</g>
<!-- Node51&#45;&gt;Node30 -->
<g id="edge92" class="edge">
<title>Node51&#45;&gt;Node30</title>
<path fill="none" stroke="#191970" d="M2479.3801,-306.9183C2469.6781,-304.597 2459.585,-302.4829 2450,-301 2309.447,-279.2549 1946.0714,-309.5391 1811,-265 1778.6888,-254.3455 1779.0479,-234.422 1747,-223 1331.5487,-74.9316 1194.9864,-192.876 760,-120 678.5533,-106.3547 660.3526,-92.1951 579,-78 444.5351,-54.5374 407.1457,-72.0586 274,-42 270.12,-41.1241 266.1421,-40.0951 262.1655,-38.9714"/>
<polygon fill="#191970" stroke="#191970" points="262.9244,-35.5448 252.3401,-36.0159 260.908,-42.2481 262.9244,-35.5448"/>
</g>
<!-- Node51&#45;&gt;Node40 -->
<g id="edge90" class="edge">
<title>Node51&#45;&gt;Node40</title>
<path fill="none" stroke="#191970" d="M2516.5752,-306.9608C2504.8091,-295.4888 2488.4111,-279.5008 2475.0841,-266.507"/>
<polygon fill="#191970" stroke="#191970" points="2477.2538,-263.7342 2467.6504,-259.2592 2472.3671,-268.7462 2477.2538,-263.7342"/>
</g>
<!-- Node57&#45;&gt;Node9 -->
<g id="edge96" class="edge">
<title>Node57&#45;&gt;Node9</title>
<path fill="none" stroke="#191970" d="M2265.4234,-308.8014C2367.8655,-291.9874 2531.8035,-265.0736 2532,-265 2619.4273,-232.2359 2700.9343,-152.1397 2734.2115,-116.5448"/>
<polygon fill="#191970" stroke="#191970" points="2737.0624,-118.6158 2741.2631,-108.8893 2731.9137,-113.8732 2737.0624,-118.6158"/>
</g>
<!-- Node57&#45;&gt;Node40 -->
<g id="edge97" class="edge">
<title>Node57&#45;&gt;Node40</title>
<path fill="none" stroke="#191970" d="M2236.4803,-306.9608C2280.4788,-294.1073 2343.8835,-275.5846 2390.5353,-261.956"/>
<polygon fill="#191970" stroke="#191970" points="2391.6056,-265.2897 2400.2229,-259.1259 2389.6427,-258.5705 2391.6056,-265.2897"/>
</g>
<!-- Node57&#45;&gt;Node47 -->
<g id="edge98" class="edge">
<title>Node57&#45;&gt;Node47</title>
<path fill="none" stroke="#191970" d="M2104.6105,-314.9528C2017.2309,-306.473 1873.7774,-290.155 1752,-265 1750.5287,-264.6961 1749.0438,-264.3783 1747.5493,-264.0485"/>
<polygon fill="#191970" stroke="#191970" points="1748.1247,-260.5886 1737.59,-261.7162 1746.5285,-267.4042 1748.1247,-260.5886"/>
</g>
</g>
</svg>
