<?xml version="1.0" encoding="UTF-8" standalone="no"?>
<!DOCTYPE svg PUBLIC "-//W3C//DTD SVG 1.1//EN"
 "http://www.w3.org/Graphics/SVG/1.1/DTD/svg11.dtd">
<!-- Generated by graphviz version 2.40.1 (20161225.0304)
 -->
<!-- Title: tensorflow/tensorflow/compiler/xla/service/while_loop_invariant_code_motion.cc Pages: 1 -->
<svg width="3212pt" height="373pt"
 viewBox="0.00 0.00 3212.00 373.00" xmlns="http://www.w3.org/2000/svg" xmlns:xlink="http://www.w3.org/1999/xlink">
<g id="graph0" class="graph" transform="scale(1 1) rotate(0) translate(4 369)">
<title>tensorflow/tensorflow/compiler/xla/service/while_loop_invariant_code_motion.cc</title>
<polygon fill="#ffffff" stroke="transparent" points="-4,4 -4,-369 3208,-369 3208,4 -4,4"/>
<!-- Node0 -->
<g id="node1" class="node">
<title>Node0</title>
<polygon fill="#bfbfbf" stroke="#000000" points="2715.5,-312.5 2715.5,-364.5 2825.5,-364.5 2825.5,-312.5 2715.5,-312.5"/>
<text text-anchor="start" x="2723.5" y="-352.5" font-family="Helvetica,sans-Serif" font-size="10.00" fill="#000000">tensorflow/tensorflow</text>
<text text-anchor="start" x="2723.5" y="-341.5" font-family="Helvetica,sans-Serif" font-size="10.00" fill="#000000">/compiler/xla/service</text>
<text text-anchor="start" x="2723.5" y="-330.5" font-family="Helvetica,sans-Serif" font-size="10.00" fill="#000000">/while_loop_invariant</text>
<text text-anchor="middle" x="2770.5" y="-319.5" font-family="Helvetica,sans-Serif" font-size="10.00" fill="#000000">_code_motion.cc</text>
</g>
<!-- Node1 -->
<g id="node2" class="node">
<title>Node1</title>
<g id="a_node2"><a xlink:href="../../d1/d57/while__loop__invariant__code__motion_8h.html" target="_top" xlink:title="tensorflow/compiler\l/xla/service/while_loop\l_invariant_code_motion.h">
<polygon fill="#ffffff" stroke="#000000" points="2452.5,-234.5 2452.5,-275.5 2580.5,-275.5 2580.5,-234.5 2452.5,-234.5"/>
<text text-anchor="start" x="2460.5" y="-263.5" font-family="Helvetica,sans-Serif" font-size="10.00" fill="#000000">tensorflow/compiler</text>
<text text-anchor="start" x="2460.5" y="-252.5" font-family="Helvetica,sans-Serif" font-size="10.00" fill="#000000">/xla/service/while_loop</text>
<text text-anchor="middle" x="2516.5" y="-241.5" font-family="Helvetica,sans-Serif" font-size="10.00" fill="#000000">_invariant_code_motion.h</text>
</a>
</g>
</g>
<!-- Node0&#45;&gt;Node1 -->
<g id="edge1" class="edge">
<title>Node0&#45;&gt;Node1</title>
<path fill="none" stroke="#191970" d="M2715.3858,-320.3817C2678.3182,-308.1961 2629.0683,-292.0057 2588.8522,-278.7851"/>
<polygon fill="#191970" stroke="#191970" points="2589.6936,-275.3774 2579.1006,-275.5793 2587.5074,-282.0273 2589.6936,-275.3774"/>
</g>
<!-- Node27 -->
<g id="node28" class="node">
<title>Node27</title>
<polygon fill="#ffffff" stroke="#bfbfbf" points="2573.5,-6 2573.5,-36 2669.5,-36 2669.5,-6 2573.5,-6"/>
<text text-anchor="start" x="2581.5" y="-24" font-family="Helvetica,sans-Serif" font-size="10.00" fill="#000000">tensorflow/core/lib</text>
<text text-anchor="middle" x="2621.5" y="-13" font-family="Helvetica,sans-Serif" font-size="10.00" fill="#000000">/gtl/flatmap.h</text>
</g>
<!-- Node0&#45;&gt;Node27 -->
<g id="edge52" class="edge">
<title>Node0&#45;&gt;Node27</title>
<path fill="none" stroke="#191970" d="M2724.6079,-312.3364C2710.9097,-302.5254 2697.0243,-290.2458 2687.5,-276 2638.4545,-202.6411 2625.8479,-94.9871 2622.6132,-46.4221"/>
<polygon fill="#191970" stroke="#191970" points="2626.0929,-45.9716 2622.0151,-36.193 2619.1049,-46.3802 2626.0929,-45.9716"/>
</g>
<!-- Node28 -->
<g id="node29" class="node">
<title>Node28</title>
<polygon fill="#ffffff" stroke="#bfbfbf" points="2687.5,-6 2687.5,-36 2783.5,-36 2783.5,-6 2687.5,-6"/>
<text text-anchor="start" x="2695.5" y="-24" font-family="Helvetica,sans-Serif" font-size="10.00" fill="#000000">tensorflow/core/lib</text>
<text text-anchor="middle" x="2735.5" y="-13" font-family="Helvetica,sans-Serif" font-size="10.00" fill="#000000">/gtl/flatset.h</text>
</g>
<!-- Node0&#45;&gt;Node28 -->
<g id="edge53" class="edge">
<title>Node0&#45;&gt;Node28</title>
<path fill="none" stroke="#191970" d="M2731.2683,-312.2921C2719.7986,-302.4069 2708.6889,-290.0943 2702.5,-276 2667.8879,-197.1764 2704.1508,-92.4017 2724.1478,-45.5063"/>
<polygon fill="#191970" stroke="#191970" points="2727.4395,-46.715 2728.2525,-36.1514 2721.0294,-43.9023 2727.4395,-46.715"/>
</g>
<!-- Node37 -->
<g id="node38" class="node">
<title>Node37</title>
<polygon fill="#ffffff" stroke="#bfbfbf" points="2712,-240 2712,-270 2829,-270 2829,-240 2712,-240"/>
<text text-anchor="start" x="2720" y="-258" font-family="Helvetica,sans-Serif" font-size="10.00" fill="#000000">tensorflow/compiler</text>
<text text-anchor="middle" x="2770.5" y="-247" font-family="Helvetica,sans-Serif" font-size="10.00" fill="#000000">/xla/service/tuple_util.h</text>
</g>
<!-- Node0&#45;&gt;Node37 -->
<g id="edge49" class="edge">
<title>Node0&#45;&gt;Node37</title>
<path fill="none" stroke="#191970" d="M2770.5,-312.0801C2770.5,-301.9748 2770.5,-290.4781 2770.5,-280.4638"/>
<polygon fill="#191970" stroke="#191970" points="2774.0001,-280.3152 2770.5,-270.3152 2767.0001,-280.3152 2774.0001,-280.3152"/>
</g>
<!-- Node38 -->
<g id="node39" class="node">
<title>Node38</title>
<polygon fill="#ffffff" stroke="#bfbfbf" points="2847,-240 2847,-270 2966,-270 2966,-240 2847,-240"/>
<text text-anchor="start" x="2855" y="-258" font-family="Helvetica,sans-Serif" font-size="10.00" fill="#000000">tensorflow/compiler</text>
<text text-anchor="middle" x="2906.5" y="-247" font-family="Helvetica,sans-Serif" font-size="10.00" fill="#000000">/xla/service/while_util.h</text>
</g>
<!-- Node0&#45;&gt;Node38 -->
<g id="edge50" class="edge">
<title>Node0&#45;&gt;Node38</title>
<path fill="none" stroke="#191970" d="M2813.1581,-312.3092C2832.3955,-300.498 2854.7907,-286.748 2872.8219,-275.6773"/>
<polygon fill="#191970" stroke="#191970" points="2875.1229,-278.3717 2881.8135,-270.1568 2871.4603,-272.4064 2875.1229,-278.3717"/>
</g>
<!-- Node39 -->
<g id="node40" class="node">
<title>Node39</title>
<polygon fill="#ffffff" stroke="#bfbfbf" points="2984,-240 2984,-270 3085,-270 3085,-240 2984,-240"/>
<text text-anchor="start" x="2992" y="-258" font-family="Helvetica,sans-Serif" font-size="10.00" fill="#000000">tensorflow/compiler</text>
<text text-anchor="middle" x="3034.5" y="-247" font-family="Helvetica,sans-Serif" font-size="10.00" fill="#000000">/xla/util.h</text>
</g>
<!-- Node0&#45;&gt;Node39 -->
<g id="edge51" class="edge">
<title>Node0&#45;&gt;Node39</title>
<path fill="none" stroke="#191970" d="M2825.5329,-322.4698C2866.9316,-310.23 2924.9764,-292.6835 2975.5,-276 2978.073,-275.1504 2980.7042,-274.2671 2983.3578,-273.3649"/>
<polygon fill="#191970" stroke="#191970" points="2984.6878,-276.6086 2993.0013,-270.0408 2982.4066,-269.9908 2984.6878,-276.6086"/>
</g>
<!-- Node40 -->
<g id="node41" class="node">
<title>Node40</title>
<polygon fill="#ffffff" stroke="#bfbfbf" points="3103,-240 3103,-270 3204,-270 3204,-240 3103,-240"/>
<text text-anchor="start" x="3111" y="-258" font-family="Helvetica,sans-Serif" font-size="10.00" fill="#000000">tensorflow/core/lib</text>
<text text-anchor="middle" x="3153.5" y="-247" font-family="Helvetica,sans-Serif" font-size="10.00" fill="#000000">/gtl/inlined_vector.h</text>
</g>
<!-- Node0&#45;&gt;Node40 -->
<g id="edge54" class="edge">
<title>Node0&#45;&gt;Node40</title>
<path fill="none" stroke="#191970" d="M2825.5403,-330.4882C2890.4719,-320.4393 3001.3728,-301.3986 3094.5,-276 3097.6468,-275.1418 3100.8664,-274.1963 3104.0983,-273.1958"/>
<polygon fill="#191970" stroke="#191970" points="3105.3372,-276.4736 3113.7714,-270.0615 3103.1794,-269.8145 3105.3372,-276.4736"/>
</g>
<!-- Node2 -->
<g id="node3" class="node">
<title>Node2</title>
<g id="a_node3"><a xlink:href="../../db/da0/hlo__module_8h.html" target="_top" xlink:title="tensorflow/compiler\l/xla/service/hlo_module.h">
<polygon fill="#ffffff" stroke="#000000" points="1019.5,-162 1019.5,-192 1147.5,-192 1147.5,-162 1019.5,-162"/>
<text text-anchor="start" x="1027.5" y="-180" font-family="Helvetica,sans-Serif" font-size="10.00" fill="#000000">tensorflow/compiler</text>
<text text-anchor="middle" x="1083.5" y="-169" font-family="Helvetica,sans-Serif" font-size="10.00" fill="#000000">/xla/service/hlo_module.h</text>
</a>
</g>
</g>
<!-- Node1&#45;&gt;Node2 -->
<g id="edge2" class="edge">
<title>Node1&#45;&gt;Node2</title>
<path fill="none" stroke="#191970" d="M2452.1431,-251.497C2217.4051,-238.7199 1407.9289,-194.6591 1157.7573,-181.0419"/>
<polygon fill="#191970" stroke="#191970" points="1157.855,-177.5421 1147.6796,-180.4934 1157.4745,-184.5318 1157.855,-177.5421"/>
</g>
<!-- Node22 -->
<g id="node23" class="node">
<title>Node22</title>
<polygon fill="#ffffff" stroke="#bfbfbf" points="2454,-6 2454,-36 2555,-36 2555,-6 2454,-6"/>
<text text-anchor="start" x="2462" y="-24" font-family="Helvetica,sans-Serif" font-size="10.00" fill="#000000">tensorflow/compiler</text>
<text text-anchor="middle" x="2504.5" y="-13" font-family="Helvetica,sans-Serif" font-size="10.00" fill="#000000">/xla/statusor.h</text>
</g>
<!-- Node1&#45;&gt;Node22 -->
<g id="edge48" class="edge">
<title>Node1&#45;&gt;Node22</title>
<path fill="none" stroke="#191970" d="M2508.2636,-234.2523C2504.4708,-223.6013 2500.3971,-210.3077 2498.5,-198 2490.258,-144.5303 2496.1805,-80.9442 2500.6899,-46.4088"/>
<polygon fill="#191970" stroke="#191970" points="2504.1895,-46.65 2502.0845,-36.2664 2497.2548,-45.6964 2504.1895,-46.65"/>
</g>
<!-- Node36 -->
<g id="node37" class="node">
<title>Node36</title>
<polygon fill="#ffffff" stroke="#bfbfbf" points="2508,-156.5 2508,-197.5 2617,-197.5 2617,-156.5 2508,-156.5"/>
<text text-anchor="start" x="2516" y="-185.5" font-family="Helvetica,sans-Serif" font-size="10.00" fill="#000000">tensorflow/compiler</text>
<text text-anchor="start" x="2516" y="-174.5" font-family="Helvetica,sans-Serif" font-size="10.00" fill="#000000">/xla/service/hlo_pass</text>
<text text-anchor="middle" x="2562.5" y="-163.5" font-family="Helvetica,sans-Serif" font-size="10.00" fill="#000000">_interface.h</text>
</g>
<!-- Node1&#45;&gt;Node36 -->
<g id="edge47" class="edge">
<title>Node1&#45;&gt;Node36</title>
<path fill="none" stroke="#191970" d="M2528.8272,-234.0974C2533.8171,-225.6363 2539.6681,-215.7149 2545.0804,-206.5375"/>
<polygon fill="#191970" stroke="#191970" points="2548.2332,-208.0814 2550.2983,-197.6898 2542.2036,-204.5255 2548.2332,-208.0814"/>
</g>
<!-- Node3 -->
<g id="node4" class="node">
<title>Node3</title>
<polygon fill="#ffffff" stroke="#bfbfbf" points="560.5,-89.5 560.5,-108.5 606.5,-108.5 606.5,-89.5 560.5,-89.5"/>
<text text-anchor="middle" x="583.5" y="-96.5" font-family="Helvetica,sans-Serif" font-size="10.00" fill="#000000">atomic</text>
</g>
<!-- Node2&#45;&gt;Node3 -->
<g id="edge3" class="edge">
<title>Node2&#45;&gt;Node3</title>
<path fill="none" stroke="#191970" d="M1019.4571,-172.2341C910.322,-163.5941 693.0684,-143.997 620.5,-120 615.67,-118.4028 610.7608,-116.145 606.1645,-113.6976"/>
<polygon fill="#191970" stroke="#191970" points="607.7026,-110.5437 597.2954,-108.5587 604.1932,-116.6005 607.7026,-110.5437"/>
</g>
<!-- Node4 -->
<g id="node5" class="node">
<title>Node4</title>
<polygon fill="#ffffff" stroke="#bfbfbf" points="0,-11.5 0,-30.5 29,-30.5 29,-11.5 0,-11.5"/>
<text text-anchor="middle" x="14.5" y="-18.5" font-family="Helvetica,sans-Serif" font-size="10.00" fill="#000000">list</text>
</g>
<!-- Node2&#45;&gt;Node4 -->
<g id="edge4" class="edge">
<title>Node2&#45;&gt;Node4</title>
<path fill="none" stroke="#191970" d="M1019.2188,-174.4886C913.971,-169.408 710.3884,-155.2347 648.5,-120 627.8698,-108.2547 636.5174,-89.0374 615.5,-78 501.7588,-18.2682 157.2966,-90.9112 38.5,-42 35.7162,-40.8539 33.0323,-39.2472 30.5313,-37.4273"/>
<polygon fill="#191970" stroke="#191970" points="32.7047,-34.6795 22.8542,-30.7784 28.122,-39.9709 32.7047,-34.6795"/>
</g>
<!-- Node5 -->
<g id="node6" class="node">
<title>Node5</title>
<polygon fill="#ffffff" stroke="#bfbfbf" points="47.5,-11.5 47.5,-30.5 99.5,-30.5 99.5,-11.5 47.5,-11.5"/>
<text text-anchor="middle" x="73.5" y="-18.5" font-family="Helvetica,sans-Serif" font-size="10.00" fill="#000000">memory</text>
</g>
<!-- Node2&#45;&gt;Node5 -->
<g id="edge5" class="edge">
<title>Node2&#45;&gt;Node5</title>
<path fill="none" stroke="#191970" d="M1019.4215,-172.509C923.5044,-164.9806 747.8352,-147.8421 691.5,-120 667.5505,-108.1636 672.8919,-88.8957 648.5,-78 538.6911,-28.949 223.27,-77.9423 108.5,-42 103.8868,-40.5553 99.2468,-38.3893 94.922,-35.9891"/>
<polygon fill="#191970" stroke="#191970" points="96.4404,-32.8137 86.0903,-30.5495 92.7693,-38.7739 96.4404,-32.8137"/>
</g>
<!-- Node6 -->
<g id="node7" class="node">
<title>Node6</title>
<polygon fill="#ffffff" stroke="#bfbfbf" points="701,-89.5 701,-108.5 750,-108.5 750,-89.5 701,-89.5"/>
<text text-anchor="middle" x="725.5" y="-96.5" font-family="Helvetica,sans-Serif" font-size="10.00" fill="#000000">random</text>
</g>
<!-- Node2&#45;&gt;Node6 -->
<g id="edge6" class="edge">
<title>Node2&#45;&gt;Node6</title>
<path fill="none" stroke="#191970" d="M1019.3451,-171.561C953.8284,-164.6243 849.8979,-149.7651 764.5,-120 759.4555,-118.2418 754.2769,-115.8914 749.4084,-113.3997"/>
<polygon fill="#191970" stroke="#191970" points="750.9985,-110.2801 740.5454,-108.5525 747.6397,-116.4216 750.9985,-110.2801"/>
</g>
<!-- Node7 -->
<g id="node8" class="node">
<title>Node7</title>
<polygon fill="#ffffff" stroke="#bfbfbf" points="118,-11.5 118,-30.5 159,-30.5 159,-11.5 118,-11.5"/>
<text text-anchor="middle" x="138.5" y="-18.5" font-family="Helvetica,sans-Serif" font-size="10.00" fill="#000000">string</text>
</g>
<!-- Node2&#45;&gt;Node7 -->
<g id="edge7" class="edge">
<title>Node2&#45;&gt;Node7</title>
<path fill="none" stroke="#191970" d="M1019.4105,-169.623C945.6728,-160.2461 829.9354,-142.5342 792.5,-120 771.9238,-107.6142 779.8515,-88.9955 758.5,-78 641.5233,-17.7597 291.3774,-86.3491 167.5,-42 163.8313,-40.6866 160.2204,-38.7572 156.859,-36.5922"/>
<polygon fill="#191970" stroke="#191970" points="158.8048,-33.6787 148.6755,-30.5727 154.657,-39.3175 158.8048,-33.6787"/>
</g>
<!-- Node8 -->
<g id="node9" class="node">
<title>Node8</title>
<polygon fill="#ffffff" stroke="#bfbfbf" points="177,-11.5 177,-30.5 260,-30.5 260,-11.5 177,-11.5"/>
<text text-anchor="middle" x="218.5" y="-18.5" font-family="Helvetica,sans-Serif" font-size="10.00" fill="#000000">unordered_map</text>
</g>
<!-- Node2&#45;&gt;Node8 -->
<g id="edge8" class="edge">
<title>Node2&#45;&gt;Node8</title>
<path fill="none" stroke="#191970" d="M1019.252,-167.0758C955.2301,-156.3854 862.0431,-138.4172 830.5,-120 808.7612,-107.3073 815.1445,-88.9956 792.5,-78 687.704,-27.1137 382.9383,-68.5209 269.5,-42 262.0641,-40.2616 254.3118,-37.5683 247.1617,-34.6837"/>
<polygon fill="#191970" stroke="#191970" points="248.4416,-31.4244 237.8713,-30.7035 245.6849,-37.8588 248.4416,-31.4244"/>
</g>
<!-- Node9 -->
<g id="node10" class="node">
<title>Node9</title>
<polygon fill="#ffffff" stroke="#bfbfbf" points="278.5,-11.5 278.5,-30.5 322.5,-30.5 322.5,-11.5 278.5,-11.5"/>
<text text-anchor="middle" x="300.5" y="-18.5" font-family="Helvetica,sans-Serif" font-size="10.00" fill="#000000">vector</text>
</g>
<!-- Node2&#45;&gt;Node9 -->
<g id="edge9" class="edge">
<title>Node2&#45;&gt;Node9</title>
<path fill="none" stroke="#191970" d="M1019.0288,-169.7456C974.211,-162.4378 914.5019,-148.0306 868.5,-120 847.0034,-106.9014 853.1264,-89.0329 830.5,-78 730.5699,-29.2729 436.5437,-78.4166 331.5,-42 327.5365,-40.6259 323.6014,-38.6102 319.9323,-36.3637"/>
<polygon fill="#191970" stroke="#191970" points="321.7122,-33.3395 311.4946,-30.5376 317.7349,-39.0997 321.7122,-33.3395"/>
</g>
<!-- Node10 -->
<g id="node11" class="node">
<title>Node10</title>
<polygon fill="#ffffff" stroke="#bfbfbf" points="341,-6 341,-36 442,-36 442,-6 341,-6"/>
<text text-anchor="start" x="349" y="-24" font-family="Helvetica,sans-Serif" font-size="10.00" fill="#000000">tensorflow/compiler</text>
<text text-anchor="middle" x="391.5" y="-13" font-family="Helvetica,sans-Serif" font-size="10.00" fill="#000000">/xla/iterator_util.h</text>
</g>
<!-- Node2&#45;&gt;Node10 -->
<g id="edge10" class="edge">
<title>Node2&#45;&gt;Node10</title>
<path fill="none" stroke="#191970" d="M1019.3605,-164.9048C984.0819,-156.2216 940.67,-142.0686 906.5,-120 885.3539,-106.3428 891.0481,-89.1921 868.5,-78 785.1874,-36.6464 542.4408,-61.5161 451.5,-42 447.6053,-41.1642 443.6161,-40.1466 439.6365,-39.0151"/>
<polygon fill="#191970" stroke="#191970" points="440.41,-35.5915 429.8233,-36.0066 438.3582,-42.2841 440.41,-35.5915"/>
</g>
<!-- Node11 -->
<g id="node12" class="node">
<title>Node11</title>
<polygon fill="#ffffff" stroke="#bfbfbf" points="460.5,-6 460.5,-36 564.5,-36 564.5,-6 460.5,-6"/>
<text text-anchor="start" x="468.5" y="-24" font-family="Helvetica,sans-Serif" font-size="10.00" fill="#000000">tensorflow/compiler</text>
<text text-anchor="middle" x="512.5" y="-13" font-family="Helvetica,sans-Serif" font-size="10.00" fill="#000000">/xla/service/hlo.pb.h</text>
</g>
<!-- Node2&#45;&gt;Node11 -->
<g id="edge11" class="edge">
<title>Node2&#45;&gt;Node11</title>
<path fill="none" stroke="#191970" d="M1035.627,-161.9097C1008.7376,-152.2111 975.3035,-138.042 948.5,-120 926.6004,-105.259 930.3101,-89.4003 906.5,-78 772.2344,-13.7136 718.7867,-74.4313 573.5,-42 569.6741,-41.146 565.7541,-40.1329 561.8373,-39.0203"/>
<polygon fill="#191970" stroke="#191970" points="562.7485,-35.6393 552.163,-36.0834 560.7151,-42.3375 562.7485,-35.6393"/>
</g>
<!-- Node12 -->
<g id="node13" class="node">
<title>Node12</title>
<g id="a_node13"><a xlink:href="../../d2/d31/hlo__computation_8h.html" target="_top" xlink:title="tensorflow/compiler\l/xla/service/hlo_computation.h">
<polygon fill="#ffffff" stroke="#000000" points="958,-84 958,-114 1107,-114 1107,-84 958,-84"/>
<text text-anchor="start" x="966" y="-102" font-family="Helvetica,sans-Serif" font-size="10.00" fill="#000000">tensorflow/compiler</text>
<text text-anchor="middle" x="1032.5" y="-91" font-family="Helvetica,sans-Serif" font-size="10.00" fill="#000000">/xla/service/hlo_computation.h</text>
</a>
</g>
</g>
<!-- Node2&#45;&gt;Node12 -->
<g id="edge12" class="edge">
<title>Node2&#45;&gt;Node12</title>
<path fill="none" stroke="#191970" d="M1073.6667,-161.9608C1066.4462,-150.9177 1056.4895,-135.6899 1048.1769,-122.9764"/>
<polygon fill="#191970" stroke="#191970" points="1050.8791,-120.7135 1042.4771,-114.2592 1045.0203,-124.5443 1050.8791,-120.7135"/>
</g>
<!-- Node18 -->
<g id="node19" class="node">
<title>Node18</title>
<polygon fill="#ffffff" stroke="#bfbfbf" points="1904,-6 1904,-36 2045,-36 2045,-6 1904,-6"/>
<text text-anchor="start" x="1912" y="-24" font-family="Helvetica,sans-Serif" font-size="10.00" fill="#000000">tensorflow/compiler</text>
<text text-anchor="middle" x="1974.5" y="-13" font-family="Helvetica,sans-Serif" font-size="10.00" fill="#000000">/xla/service/hlo_instruction.h</text>
</g>
<!-- Node2&#45;&gt;Node18 -->
<g id="edge38" class="edge">
<title>Node2&#45;&gt;Node18</title>
<path fill="none" stroke="#191970" d="M1092.7698,-161.7582C1108.5293,-136.4178 1140.5749,-87.4616 1158.5,-78 1230.9077,-39.7805 1813.5783,-54.4612 1894.5,-42 1900.7401,-41.0391 1907.1966,-39.7888 1913.6111,-38.3768"/>
<polygon fill="#191970" stroke="#191970" points="1914.6754,-41.7226 1923.6194,-36.0433 1913.0858,-34.9055 1914.6754,-41.7226"/>
</g>
<!-- Node20 -->
<g id="node21" class="node">
<title>Node20</title>
<polygon fill="#ffffff" stroke="#bfbfbf" points="2063.5,-6 2063.5,-36 2201.5,-36 2201.5,-6 2063.5,-6"/>
<text text-anchor="start" x="2071.5" y="-24" font-family="Helvetica,sans-Serif" font-size="10.00" fill="#000000">tensorflow/compiler</text>
<text text-anchor="middle" x="2132.5" y="-13" font-family="Helvetica,sans-Serif" font-size="10.00" fill="#000000">/xla/service/name_uniquer.h</text>
</g>
<!-- Node2&#45;&gt;Node20 -->
<g id="edge40" class="edge">
<title>Node2&#45;&gt;Node20</title>
<path fill="none" stroke="#191970" d="M1103.564,-161.8343C1118.0521,-150.6591 1137.9052,-134.8787 1154.5,-120 1174.1553,-102.3773 1172.3282,-88.612 1196.5,-78 1283.7665,-39.6878 1959.2768,-56.327 2053.5,-42 2059.669,-41.062 2066.0493,-39.8267 2072.3863,-38.4239"/>
<polygon fill="#191970" stroke="#191970" points="2073.3385,-41.7956 2082.2724,-36.1004 2071.7369,-34.9813 2073.3385,-41.7956"/>
</g>
<!-- Node23 -->
<g id="node24" class="node">
<title>Node23</title>
<polygon fill="#ffffff" stroke="#bfbfbf" points="2220,-6 2220,-36 2321,-36 2321,-6 2220,-6"/>
<text text-anchor="start" x="2228" y="-24" font-family="Helvetica,sans-Serif" font-size="10.00" fill="#000000">tensorflow/compiler</text>
<text text-anchor="middle" x="2270.5" y="-13" font-family="Helvetica,sans-Serif" font-size="10.00" fill="#000000">/xla/types.h</text>
</g>
<!-- Node2&#45;&gt;Node23 -->
<g id="edge42" class="edge">
<title>Node2&#45;&gt;Node23</title>
<path fill="none" stroke="#191970" d="M1116.7938,-161.8533C1138.3534,-151.3914 1166.5776,-136.4392 1189.5,-120 1211.7316,-104.0563 1209.2373,-88.4997 1234.5,-78 1334.7078,-36.3516 2103.8691,-62.1505 2210.5,-42 2214.648,-41.2161 2218.8959,-40.1977 2223.1212,-39.0323"/>
<polygon fill="#191970" stroke="#191970" points="2224.3192,-42.3268 2232.882,-36.0875 2222.2972,-35.6251 2224.3192,-42.3268"/>
</g>
<!-- Node26 -->
<g id="node27" class="node">
<title>Node26</title>
<polygon fill="#ffffff" stroke="#bfbfbf" points="2339.5,-6 2339.5,-36 2435.5,-36 2435.5,-6 2339.5,-6"/>
<text text-anchor="start" x="2347.5" y="-24" font-family="Helvetica,sans-Serif" font-size="10.00" fill="#000000">tensorflow/core/lib</text>
<text text-anchor="middle" x="2387.5" y="-13" font-family="Helvetica,sans-Serif" font-size="10.00" fill="#000000">/gtl/array_slice.h</text>
</g>
<!-- Node2&#45;&gt;Node26 -->
<g id="edge43" class="edge">
<title>Node2&#45;&gt;Node26</title>
<path fill="none" stroke="#191970" d="M1127.1124,-161.8773C1162.6692,-149.136 1209.6594,-131.2361 1226.5,-120 1248.1997,-105.5219 1243.635,-88.5336 1267.5,-78 1375.514,-30.3244 2213.5711,-64.3718 2329.5,-42 2333.5812,-41.2124 2337.7581,-40.1809 2341.9078,-38.9976"/>
<polygon fill="#191970" stroke="#191970" points="2342.9832,-42.3286 2351.4834,-36.0043 2340.8946,-35.6474 2342.9832,-42.3286"/>
</g>
<!-- Node31 -->
<g id="node32" class="node">
<title>Node31</title>
<polygon fill="#ffffff" stroke="#bfbfbf" points="1277,-78.5 1277,-119.5 1396,-119.5 1396,-78.5 1277,-78.5"/>
<text text-anchor="start" x="1285" y="-107.5" font-family="Helvetica,sans-Serif" font-size="10.00" fill="#000000">tensorflow/compiler</text>
<text text-anchor="start" x="1285" y="-96.5" font-family="Helvetica,sans-Serif" font-size="10.00" fill="#000000">/xla/service/hlo_module</text>
<text text-anchor="middle" x="1336.5" y="-85.5" font-family="Helvetica,sans-Serif" font-size="10.00" fill="#000000">_config.h</text>
</g>
<!-- Node2&#45;&gt;Node31 -->
<g id="edge39" class="edge">
<title>Node2&#45;&gt;Node31</title>
<path fill="none" stroke="#191970" d="M1132.2809,-161.9608C1170.5136,-150.1737 1224.2104,-133.6189 1266.9477,-120.443"/>
<polygon fill="#191970" stroke="#191970" points="1268.1978,-123.7202 1276.7228,-117.4293 1266.1355,-117.0309 1268.1978,-123.7202"/>
</g>
<!-- Node32 -->
<g id="node33" class="node">
<title>Node32</title>
<polygon fill="#ffffff" stroke="#bfbfbf" points="1414,-78.5 1414,-119.5 1531,-119.5 1531,-78.5 1414,-78.5"/>
<text text-anchor="start" x="1422" y="-107.5" font-family="Helvetica,sans-Serif" font-size="10.00" fill="#000000">tensorflow/compiler</text>
<text text-anchor="start" x="1422" y="-96.5" font-family="Helvetica,sans-Serif" font-size="10.00" fill="#000000">/xla/service/versioned</text>
<text text-anchor="middle" x="1472.5" y="-85.5" font-family="Helvetica,sans-Serif" font-size="10.00" fill="#000000">_computation_handle.h</text>
</g>
<!-- Node2&#45;&gt;Node32 -->
<g id="edge41" class="edge">
<title>Node2&#45;&gt;Node32</title>
<path fill="none" stroke="#191970" d="M1147.6293,-168.0041C1210.5473,-158.6389 1309.3107,-142.5025 1403.6542,-120.0676"/>
<polygon fill="#191970" stroke="#191970" points="1404.7483,-123.4044 1413.652,-117.6621 1403.1107,-116.5986 1404.7483,-123.4044"/>
</g>
<!-- Node33 -->
<g id="node34" class="node">
<title>Node33</title>
<polygon fill="#ffffff" stroke="#bfbfbf" points="1549,-84 1549,-114 1650,-114 1650,-84 1549,-84"/>
<text text-anchor="start" x="1557" y="-102" font-family="Helvetica,sans-Serif" font-size="10.00" fill="#000000">tensorflow/core/lib</text>
<text text-anchor="middle" x="1599.5" y="-91" font-family="Helvetica,sans-Serif" font-size="10.00" fill="#000000">/gtl/iterator_range.h</text>
</g>
<!-- Node2&#45;&gt;Node33 -->
<g id="edge44" class="edge">
<title>Node2&#45;&gt;Node33</title>
<path fill="none" stroke="#191970" d="M1147.6967,-173.2835C1236.6615,-167.1618 1402.0198,-152.2647 1539.5,-120 1543.096,-119.1561 1546.7773,-118.1739 1550.46,-117.104"/>
<polygon fill="#191970" stroke="#191970" points="1551.6375,-120.4034 1560.1546,-114.1018 1549.5667,-113.7167 1551.6375,-120.4034"/>
</g>
<!-- Node34 -->
<g id="node35" class="node">
<title>Node34</title>
<polygon fill="#ffffff" stroke="#bfbfbf" points="1668.5,-84 1668.5,-114 1790.5,-114 1790.5,-84 1668.5,-84"/>
<text text-anchor="start" x="1676.5" y="-102" font-family="Helvetica,sans-Serif" font-size="10.00" fill="#000000">tensorflow/core/platform</text>
<text text-anchor="middle" x="1729.5" y="-91" font-family="Helvetica,sans-Serif" font-size="10.00" fill="#000000">/logging.h</text>
</g>
<!-- Node2&#45;&gt;Node34 -->
<g id="edge45" class="edge">
<title>Node2&#45;&gt;Node34</title>
<path fill="none" stroke="#191970" d="M1147.8902,-174.5806C1254.8199,-169.6808 1475.384,-155.8233 1658.5,-120 1663.4199,-119.0375 1668.4886,-117.8809 1673.5465,-116.6117"/>
<polygon fill="#191970" stroke="#191970" points="1674.4456,-119.9943 1683.2181,-114.0534 1672.6555,-113.227 1674.4456,-119.9943"/>
</g>
<!-- Node35 -->
<g id="node36" class="node">
<title>Node35</title>
<polygon fill="#ffffff" stroke="#bfbfbf" points="1808.5,-84 1808.5,-114 1930.5,-114 1930.5,-84 1808.5,-84"/>
<text text-anchor="start" x="1816.5" y="-102" font-family="Helvetica,sans-Serif" font-size="10.00" fill="#000000">tensorflow/core/platform</text>
<text text-anchor="middle" x="1869.5" y="-91" font-family="Helvetica,sans-Serif" font-size="10.00" fill="#000000">/mutex.h</text>
</g>
<!-- Node2&#45;&gt;Node35 -->
<g id="edge46" class="edge">
<title>Node2&#45;&gt;Node35</title>
<path fill="none" stroke="#191970" d="M1147.7029,-173.6377C1299.1638,-165.423 1675.3307,-143.2947 1799.5,-120 1804.4394,-119.0733 1809.5261,-117.9307 1814.5963,-116.6611"/>
<polygon fill="#191970" stroke="#191970" points="1815.5176,-120.0378 1824.283,-114.0865 1813.7194,-113.2727 1815.5176,-120.0378"/>
</g>
<!-- Node12&#45;&gt;Node4 -->
<g id="edge13" class="edge">
<title>Node12&#45;&gt;Node4</title>
<path fill="none" stroke="#191970" d="M957.8184,-92.7386C902.7494,-88.2524 825.9923,-82.2729 758.5,-78 678.5601,-72.939 112.7547,-72.0373 38.5,-42 35.7092,-40.8711 33.0212,-39.2743 30.5182,-37.4594"/>
<polygon fill="#191970" stroke="#191970" points="32.6916,-34.7116 22.8408,-30.8114 28.1094,-40.0034 32.6916,-34.7116"/>
</g>
<!-- Node12&#45;&gt;Node5 -->
<g id="edge14" class="edge">
<title>Node12&#45;&gt;Node5</title>
<path fill="none" stroke="#191970" d="M957.8114,-92.8468C902.739,-88.4142 825.9806,-82.4541 758.5,-78 614.1483,-68.4719 246.7951,-84.4577 108.5,-42 103.8787,-40.5812 99.235,-38.4274 94.909,-36.031"/>
<polygon fill="#191970" stroke="#191970" points="96.4276,-32.8556 86.0781,-30.5886 92.755,-38.8148 96.4276,-32.8556"/>
</g>
<!-- Node12&#45;&gt;Node7 -->
<g id="edge15" class="edge">
<title>Node12&#45;&gt;Node7</title>
<path fill="none" stroke="#191970" d="M957.9522,-91.902C910.5944,-87.5353 847.9826,-82.0244 792.5,-78 653.7454,-67.9356 298.5556,-88.6749 167.5,-42 163.8291,-40.6926 160.2171,-38.7663 156.8553,-36.6026"/>
<polygon fill="#191970" stroke="#191970" points="158.8012,-33.689 148.6719,-30.5826 154.6531,-39.3277 158.8012,-33.689"/>
</g>
<!-- Node12&#45;&gt;Node8 -->
<g id="edge16" class="edge">
<title>Node12&#45;&gt;Node8</title>
<path fill="none" stroke="#191970" d="M957.7409,-90.5166C919.6814,-86.3786 872.6615,-81.5429 830.5,-78 581.5313,-57.0785 512.9172,-98.3133 269.5,-42 261.9318,-40.2491 254.0388,-37.4991 246.7867,-34.559"/>
<polygon fill="#191970" stroke="#191970" points="247.9544,-31.251 237.3856,-30.5078 245.1841,-37.6796 247.9544,-31.251"/>
</g>
<!-- Node12&#45;&gt;Node9 -->
<g id="edge19" class="edge">
<title>Node12&#45;&gt;Node9</title>
<path fill="none" stroke="#191970" d="M957.9054,-88.4819C929.9087,-84.7889 897.7836,-80.8538 868.5,-78 749.4627,-66.3993 444.6022,-80.8888 331.5,-42 327.533,-40.636 323.5962,-38.6253 319.9264,-36.3806"/>
<polygon fill="#191970" stroke="#191970" points="321.7065,-33.3564 311.489,-30.5537 317.7286,-39.1163 321.7065,-33.3564"/>
</g>
<!-- Node12&#45;&gt;Node10 -->
<g id="edge20" class="edge">
<title>Node12&#45;&gt;Node10</title>
<path fill="none" stroke="#191970" d="M957.6992,-85.4425C940.8946,-82.7012 923.1189,-80.0385 906.5,-78 705.1549,-53.3026 649.9896,-83.8535 451.5,-42 447.6023,-41.1781 443.611,-40.1706 439.6299,-39.046"/>
<polygon fill="#191970" stroke="#191970" points="440.4005,-35.6218 429.8143,-36.0488 438.3562,-42.3167 440.4005,-35.6218"/>
</g>
<!-- Node12&#45;&gt;Node11 -->
<g id="edge24" class="edge">
<title>Node12&#45;&gt;Node11</title>
<path fill="none" stroke="#191970" d="M974.5074,-83.969C964.5458,-81.7297 954.2601,-79.6301 944.5,-78 781.1001,-50.7087 735.3794,-77.2052 573.5,-42 569.6096,-41.1539 565.6235,-40.1379 561.6432,-39.0155"/>
<polygon fill="#191970" stroke="#191970" points="562.4045,-35.5892 551.8193,-36.0424 560.3767,-42.289 562.4045,-35.5892"/>
</g>
<!-- Node13 -->
<g id="node14" class="node">
<title>Node13</title>
<polygon fill="#ffffff" stroke="#bfbfbf" points="582.5,-11.5 582.5,-30.5 660.5,-30.5 660.5,-11.5 582.5,-11.5"/>
<text text-anchor="middle" x="621.5" y="-18.5" font-family="Helvetica,sans-Serif" font-size="10.00" fill="#000000">unordered_set</text>
</g>
<!-- Node12&#45;&gt;Node13 -->
<g id="edge17" class="edge">
<title>Node12&#45;&gt;Node13</title>
<path fill="none" stroke="#191970" d="M973.0343,-83.923C963.5257,-81.7685 953.768,-79.7077 944.5,-78 823.2756,-55.6637 788.2568,-75.0318 669.5,-42 662.944,-40.1765 656.1205,-37.6253 649.7457,-34.9275"/>
<polygon fill="#191970" stroke="#191970" points="650.7575,-31.5456 640.2005,-30.6509 647.8954,-37.9338 650.7575,-31.5456"/>
</g>
<!-- Node14 -->
<g id="node15" class="node">
<title>Node14</title>
<polygon fill="#ffffff" stroke="#bfbfbf" points="678.5,-11.5 678.5,-30.5 718.5,-30.5 718.5,-11.5 678.5,-11.5"/>
<text text-anchor="middle" x="698.5" y="-18.5" font-family="Helvetica,sans-Serif" font-size="10.00" fill="#000000">utility</text>
</g>
<!-- Node12&#45;&gt;Node14 -->
<g id="edge18" class="edge">
<title>Node12&#45;&gt;Node14</title>
<path fill="none" stroke="#191970" d="M972.0296,-83.9826C962.83,-81.8683 953.4295,-79.8039 944.5,-78 848.6731,-58.6419 817.713,-79.6715 727.5,-42 724.1282,-40.592 720.7759,-38.7234 717.6119,-36.68"/>
<polygon fill="#191970" stroke="#191970" points="719.4882,-33.7176 709.3335,-30.6953 715.3871,-39.3905 719.4882,-33.7176"/>
</g>
<!-- Node15 -->
<g id="node16" class="node">
<title>Node15</title>
<polygon fill="#ffffff" stroke="#bfbfbf" points="737,-6 737,-36 838,-36 838,-6 737,-6"/>
<text text-anchor="start" x="745" y="-24" font-family="Helvetica,sans-Serif" font-size="10.00" fill="#000000">tensorflow/compiler</text>
<text text-anchor="middle" x="787.5" y="-13" font-family="Helvetica,sans-Serif" font-size="10.00" fill="#000000">/xla/map_util.h</text>
</g>
<!-- Node12&#45;&gt;Node15 -->
<g id="edge21" class="edge">
<title>Node12&#45;&gt;Node15</title>
<path fill="none" stroke="#191970" d="M980.9884,-83.8863C943.5423,-72.7363 891.7089,-56.9646 846.5,-42 843.9276,-41.1485 841.2969,-40.2638 838.6437,-39.3604"/>
<polygon fill="#191970" stroke="#191970" points="839.5959,-35.9865 829.0012,-36.0333 837.3126,-42.6037 839.5959,-35.9865"/>
</g>
<!-- Node16 -->
<g id="node17" class="node">
<title>Node16</title>
<polygon fill="#ffffff" stroke="#bfbfbf" points="856,-.5 856,-41.5 957,-41.5 957,-.5 856,-.5"/>
<text text-anchor="start" x="864" y="-29.5" font-family="Helvetica,sans-Serif" font-size="10.00" fill="#000000">tensorflow/compiler</text>
<text text-anchor="start" x="864" y="-18.5" font-family="Helvetica,sans-Serif" font-size="10.00" fill="#000000">/xla/service/dfs_hlo</text>
<text text-anchor="middle" x="906.5" y="-7.5" font-family="Helvetica,sans-Serif" font-size="10.00" fill="#000000">_visitor.h</text>
</g>
<!-- Node12&#45;&gt;Node16 -->
<g id="edge22" class="edge">
<title>Node12&#45;&gt;Node16</title>
<path fill="none" stroke="#191970" d="M1008.2059,-83.9608C991.2621,-73.4718 968.2196,-59.2073 948.3516,-46.9081"/>
<polygon fill="#191970" stroke="#191970" points="950.1148,-43.8833 939.7698,-41.5956 946.4302,-49.8351 950.1148,-43.8833"/>
</g>
<!-- Node17 -->
<g id="node18" class="node">
<title>Node17</title>
<polygon fill="#ffffff" stroke="#bfbfbf" points="975.5,-.5 975.5,-41.5 1089.5,-41.5 1089.5,-.5 975.5,-.5"/>
<text text-anchor="start" x="983.5" y="-29.5" font-family="Helvetica,sans-Serif" font-size="10.00" fill="#000000">tensorflow/compiler</text>
<text text-anchor="start" x="983.5" y="-18.5" font-family="Helvetica,sans-Serif" font-size="10.00" fill="#000000">/xla/service/dfs_hlo</text>
<text text-anchor="middle" x="1032.5" y="-7.5" font-family="Helvetica,sans-Serif" font-size="10.00" fill="#000000">_visitor_with_default.h</text>
</g>
<!-- Node12&#45;&gt;Node17 -->
<g id="edge23" class="edge">
<title>Node12&#45;&gt;Node17</title>
<path fill="none" stroke="#191970" d="M1032.5,-83.9608C1032.5,-74.8358 1032.5,-62.8535 1032.5,-51.7935"/>
<polygon fill="#191970" stroke="#191970" points="1036.0001,-51.5956 1032.5,-41.5956 1029.0001,-51.5956 1036.0001,-51.5956"/>
</g>
<!-- Node12&#45;&gt;Node18 -->
<g id="edge25" class="edge">
<title>Node12&#45;&gt;Node18</title>
<path fill="none" stroke="#191970" d="M1088.5334,-83.9698C1099.0865,-81.6124 1110.08,-79.4723 1120.5,-78 1461.4849,-29.8202 1554.0775,-94.0047 1894.5,-42 1900.7413,-41.0466 1907.1985,-39.8011 1913.6135,-38.3922"/>
<polygon fill="#191970" stroke="#191970" points="1914.6764,-41.7384 1923.6222,-36.0619 1913.0891,-34.9207 1914.6764,-41.7384"/>
</g>
<!-- Node19 -->
<g id="node20" class="node">
<title>Node19</title>
<polygon fill="#ffffff" stroke="#bfbfbf" points="1108,-6 1108,-36 1253,-36 1253,-6 1108,-6"/>
<text text-anchor="start" x="1116" y="-24" font-family="Helvetica,sans-Serif" font-size="10.00" fill="#000000">tensorflow/compiler</text>
<text text-anchor="middle" x="1180.5" y="-13" font-family="Helvetica,sans-Serif" font-size="10.00" fill="#000000">/xla/service/hlo_reachability.h</text>
</g>
<!-- Node12&#45;&gt;Node19 -->
<g id="edge26" class="edge">
<title>Node12&#45;&gt;Node19</title>
<path fill="none" stroke="#191970" d="M1061.0359,-83.9608C1084.3021,-71.6989 1117.3579,-54.2776 1142.8021,-40.8678"/>
<polygon fill="#191970" stroke="#191970" points="1144.5849,-43.8846 1151.7996,-36.1259 1141.3212,-37.692 1144.5849,-43.8846"/>
</g>
<!-- Node12&#45;&gt;Node20 -->
<g id="edge27" class="edge">
<title>Node12&#45;&gt;Node20</title>
<path fill="none" stroke="#191970" d="M1107.2465,-84.9617C1124.0541,-82.2466 1141.8447,-79.7161 1158.5,-78 1554.5029,-37.1968 1659.8713,-101.4944 2053.5,-42 2059.7619,-41.0536 2066.2412,-39.799 2072.6718,-38.3724"/>
<polygon fill="#191970" stroke="#191970" points="2073.7686,-41.7099 2082.6988,-36.0087 2072.1625,-34.8966 2073.7686,-41.7099"/>
</g>
<!-- Node21 -->
<g id="node22" class="node">
<title>Node21</title>
<polygon fill="#ffffff" stroke="#bfbfbf" points="1271,-6 1271,-36 1372,-36 1372,-6 1271,-6"/>
<text text-anchor="start" x="1279" y="-24" font-family="Helvetica,sans-Serif" font-size="10.00" fill="#000000">tensorflow/compiler</text>
<text text-anchor="middle" x="1321.5" y="-13" font-family="Helvetica,sans-Serif" font-size="10.00" fill="#000000">/xla/shape_tree.h</text>
</g>
<!-- Node12&#45;&gt;Node21 -->
<g id="edge28" class="edge">
<title>Node12&#45;&gt;Node21</title>
<path fill="none" stroke="#191970" d="M1095.7409,-83.9551C1152.291,-70.3743 1230.8316,-51.1623 1261.5,-42 1264.4195,-41.1278 1267.4072,-40.1994 1270.4144,-39.2372"/>
<polygon fill="#191970" stroke="#191970" points="1271.6197,-42.5253 1280.0255,-36.076 1269.4326,-35.8757 1271.6197,-42.5253"/>
</g>
<!-- Node12&#45;&gt;Node22 -->
<g id="edge29" class="edge">
<title>Node12&#45;&gt;Node22</title>
<path fill="none" stroke="#191970" d="M1107.0314,-91.2166C1153.1959,-86.6748 1213.7325,-81.2219 1267.5,-78 1528.7093,-62.3477 2187.2214,-89.7812 2444.5,-42 2448.7114,-41.2179 2453.025,-40.1902 2457.313,-39.0094"/>
<polygon fill="#191970" stroke="#191970" points="2458.6506,-42.2616 2467.2116,-36.0198 2456.6268,-35.5606 2458.6506,-42.2616"/>
</g>
<!-- Node12&#45;&gt;Node23 -->
<g id="edge30" class="edge">
<title>Node12&#45;&gt;Node23</title>
<path fill="none" stroke="#191970" d="M1107.0501,-87.9849C1135.0418,-84.2363 1167.1752,-80.393 1196.5,-78 1421.2283,-59.6617 1988.9171,-83.7151 2210.5,-42 2214.6485,-41.219 2218.8968,-40.2026 2223.1224,-39.0385"/>
<polygon fill="#191970" stroke="#191970" points="2224.3195,-42.3333 2232.8835,-36.0957 2222.2989,-35.6313 2224.3195,-42.3333"/>
</g>
<!-- Node24 -->
<g id="node25" class="node">
<title>Node24</title>
<polygon fill="#ffffff" stroke="#bfbfbf" points="1390,-6 1390,-36 1491,-36 1491,-6 1390,-6"/>
<text text-anchor="start" x="1398" y="-24" font-family="Helvetica,sans-Serif" font-size="10.00" fill="#000000">tensorflow/compiler</text>
<text text-anchor="middle" x="1440.5" y="-13" font-family="Helvetica,sans-Serif" font-size="10.00" fill="#000000">/xla/xla_data.pb.h</text>
</g>
<!-- Node12&#45;&gt;Node24 -->
<g id="edge31" class="edge">
<title>Node12&#45;&gt;Node24</title>
<path fill="none" stroke="#191970" d="M1091.9769,-83.9834C1101.4841,-81.8211 1111.2383,-79.7421 1120.5,-78 1235.1476,-56.4356 1267.1066,-69.4047 1380.5,-42 1384.0903,-41.1323 1387.7674,-40.1325 1391.4472,-39.0501"/>
<polygon fill="#191970" stroke="#191970" points="1392.6336,-42.3464 1401.1364,-36.0255 1390.5477,-35.6644 1392.6336,-42.3464"/>
</g>
<!-- Node25 -->
<g id="node26" class="node">
<title>Node25</title>
<polygon fill="#ffffff" stroke="#bfbfbf" points="1509.5,-6 1509.5,-36 1605.5,-36 1605.5,-6 1509.5,-6"/>
<text text-anchor="start" x="1517.5" y="-24" font-family="Helvetica,sans-Serif" font-size="10.00" fill="#000000">tensorflow/core/lib</text>
<text text-anchor="middle" x="1557.5" y="-13" font-family="Helvetica,sans-Serif" font-size="10.00" fill="#000000">/core/status.h</text>
</g>
<!-- Node12&#45;&gt;Node25 -->
<g id="edge32" class="edge">
<title>Node12&#45;&gt;Node25</title>
<path fill="none" stroke="#191970" d="M1090.4898,-83.9521C1100.4517,-81.7148 1110.7383,-79.6202 1120.5,-78 1287.419,-50.295 1334.4142,-79.0974 1499.5,-42 1503.108,-41.1892 1506.798,-40.2151 1510.4821,-39.1364"/>
<polygon fill="#191970" stroke="#191970" points="1511.6802,-42.4285 1520.1604,-36.0773 1509.5705,-35.7539 1511.6802,-42.4285"/>
</g>
<!-- Node12&#45;&gt;Node26 -->
<g id="edge33" class="edge">
<title>Node12&#45;&gt;Node26</title>
<path fill="none" stroke="#191970" d="M1107.2166,-89.9591C1145.2653,-85.679 1192.2883,-80.8844 1234.5,-78 1477.3984,-61.4021 2090.4223,-88.0105 2329.5,-42 2333.5816,-41.2145 2337.7587,-40.1845 2341.9086,-39.0021"/>
<polygon fill="#191970" stroke="#191970" points="2342.9834,-42.3333 2351.4846,-36.0103 2340.8958,-35.6518 2342.9834,-42.3333"/>
</g>
<!-- Node12&#45;&gt;Node27 -->
<g id="edge34" class="edge">
<title>Node12&#45;&gt;Node27</title>
<path fill="none" stroke="#191970" d="M1107.0282,-91.1631C1153.1915,-86.6014 1213.728,-81.1464 1267.5,-78 1555.1191,-61.1701 2280.4427,-95.727 2563.5,-42 2567.5836,-41.2249 2571.7621,-40.2021 2575.9129,-39.0246"/>
<polygon fill="#191970" stroke="#191970" points="2576.9845,-42.3567 2585.4902,-36.0398 2574.9017,-35.6738 2576.9845,-42.3567"/>
</g>
<!-- Node12&#45;&gt;Node28 -->
<g id="edge35" class="edge">
<title>Node12&#45;&gt;Node28</title>
<path fill="none" stroke="#191970" d="M1107.0257,-91.1199C1153.1881,-86.5423 1213.7245,-81.0856 1267.5,-78 1580.6425,-60.032 2370.4425,-101.0058 2678.5,-42 2682.4084,-41.2514 2686.4031,-40.2672 2690.3736,-39.1331"/>
<polygon fill="#191970" stroke="#191970" points="2691.6476,-42.4013 2700.1308,-36.0543 2689.5411,-35.7258 2691.6476,-42.4013"/>
</g>
<!-- Node29 -->
<g id="node30" class="node">
<title>Node29</title>
<polygon fill="#ffffff" stroke="#bfbfbf" points="1623.5,-6 1623.5,-36 1745.5,-36 1745.5,-6 1623.5,-6"/>
<text text-anchor="start" x="1631.5" y="-24" font-family="Helvetica,sans-Serif" font-size="10.00" fill="#000000">tensorflow/core/platform</text>
<text text-anchor="middle" x="1684.5" y="-13" font-family="Helvetica,sans-Serif" font-size="10.00" fill="#000000">/macros.h</text>
</g>
<!-- Node12&#45;&gt;Node29 -->
<g id="edge36" class="edge">
<title>Node12&#45;&gt;Node29</title>
<path fill="none" stroke="#191970" d="M1089.5124,-83.9808C1099.7716,-81.6831 1110.4106,-79.561 1120.5,-78 1338.0494,-44.3413 1398.0021,-81.8662 1614.5,-42 1619.5185,-41.0759 1624.6879,-39.9238 1629.8369,-38.6382"/>
<polygon fill="#191970" stroke="#191970" points="1630.9025,-41.9766 1639.6685,-36.0262 1629.1051,-35.2113 1630.9025,-41.9766"/>
</g>
<!-- Node30 -->
<g id="node31" class="node">
<title>Node30</title>
<polygon fill="#ffffff" stroke="#bfbfbf" points="1763.5,-6 1763.5,-36 1885.5,-36 1885.5,-6 1763.5,-6"/>
<text text-anchor="start" x="1771.5" y="-24" font-family="Helvetica,sans-Serif" font-size="10.00" fill="#000000">tensorflow/core/platform</text>
<text text-anchor="middle" x="1824.5" y="-13" font-family="Helvetica,sans-Serif" font-size="10.00" fill="#000000">/types.h</text>
</g>
<!-- Node12&#45;&gt;Node30 -->
<g id="edge37" class="edge">
<title>Node12&#45;&gt;Node30</title>
<path fill="none" stroke="#191970" d="M1089.0187,-83.9513C1099.4257,-81.6267 1110.2431,-79.5029 1120.5,-78 1399.75,-37.0833 1476.5343,-90.8857 1754.5,-42 1759.6019,-41.1027 1764.857,-39.9575 1770.0865,-38.6663"/>
<polygon fill="#191970" stroke="#191970" points="1771.2907,-41.9683 1780.0649,-36.0299 1769.5026,-35.2005 1771.2907,-41.9683"/>
</g>
</g>
</svg>
