<?xml version="1.0" encoding="UTF-8" standalone="no"?>
<!DOCTYPE svg PUBLIC "-//W3C//DTD SVG 1.1//EN"
 "http://www.w3.org/Graphics/SVG/1.1/DTD/svg11.dtd">
<!-- Generated by graphviz version 2.40.1 (20161225.0304)
 -->
<!-- Title: xla::cpu::anonymous_namespace{cpu_compiler::cc}::InitializeModuleHooks Pages: 1 -->
<svg width="301pt" height="88pt"
 viewBox="0.00 0.00 301.00 88.00" xmlns="http://www.w3.org/2000/svg" xmlns:xlink="http://www.w3.org/1999/xlink">
<g id="graph0" class="graph" transform="scale(1 1) rotate(0) translate(4 84)">
<title>xla::cpu::anonymous_namespace{cpu_compiler::cc}::InitializeModuleHooks</title>
<polygon fill="#ffffff" stroke="transparent" points="-4,4 -4,-84 297,-84 297,4 -4,4"/>
<!-- Node9 -->
<g id="node1" class="node">
<title>Node9</title>
<polygon fill="#bfbfbf" stroke="#000000" points="0,-19 0,-60 138,-60 138,-19 0,-19"/>
<text text-anchor="start" x="8" y="-48" font-family="Helvetica,sans-Serif" font-size="10.00" fill="#000000">xla::cpu::anonymous</text>
<text text-anchor="start" x="8" y="-37" font-family="Helvetica,sans-Serif" font-size="10.00" fill="#000000">_namespace{cpu_compiler</text>
<text text-anchor="middle" x="69" y="-26" font-family="Helvetica,sans-Serif" font-size="10.00" fill="#000000">::cc}::InitializeModuleHooks</text>
</g>
<!-- Node10 -->
<g id="node2" class="node">
<title>Node10</title>
<g id="a_node2"><a xlink:href="../../d2/d94/classxla_1_1cpu_1_1CpuCompiler.html#aaf223c38802bf733546631f5f418c51f" target="_top" xlink:title="xla::cpu::CpuCompiler\l::RunBackend">
<polygon fill="#ffffff" stroke="#000000" points="176.5,-49.5 176.5,-79.5 290.5,-79.5 290.5,-49.5 176.5,-49.5"/>
<text text-anchor="start" x="184.5" y="-67.5" font-family="Helvetica,sans-Serif" font-size="10.00" fill="#000000">xla::cpu::CpuCompiler</text>
<text text-anchor="middle" x="233.5" y="-56.5" font-family="Helvetica,sans-Serif" font-size="10.00" fill="#000000">::RunBackend</text>
</a>
</g>
</g>
<!-- Node9&#45;&gt;Node10 -->
<g id="edge1" class="edge">
<title>Node9&#45;&gt;Node10</title>
<path fill="none" stroke="#191970" d="M148.1965,-51.5359C157.7464,-52.9873 167.3512,-54.447 176.4951,-55.8366"/>
<polygon fill="#191970" stroke="#191970" points="148.6984,-48.0721 138.286,-50.0298 147.6466,-54.9927 148.6984,-48.0721"/>
</g>
<!-- Node11 -->
<g id="node3" class="node">
<title>Node11</title>
<g id="a_node3"><a xlink:href="../../d2/d94/classxla_1_1cpu_1_1CpuCompiler.html#ae39f2b47db1aaa1457e76acb6ee3d496" target="_top" xlink:title="xla::cpu::CpuCompiler\l::CompileAheadOfTime">
<polygon fill="#ffffff" stroke="#000000" points="174,-.5 174,-30.5 293,-30.5 293,-.5 174,-.5"/>
<text text-anchor="start" x="182" y="-18.5" font-family="Helvetica,sans-Serif" font-size="10.00" fill="#000000">xla::cpu::CpuCompiler</text>
<text text-anchor="middle" x="233.5" y="-7.5" font-family="Helvetica,sans-Serif" font-size="10.00" fill="#000000">::CompileAheadOfTime</text>
</a>
</g>
</g>
<!-- Node9&#45;&gt;Node11 -->
<g id="edge2" class="edge">
<title>Node9&#45;&gt;Node11</title>
<path fill="none" stroke="#191970" d="M148.3525,-27.9227C156.9635,-26.6664 165.6169,-25.4039 173.9346,-24.1904"/>
<polygon fill="#191970" stroke="#191970" points="147.676,-24.4843 138.286,-29.3914 148.6866,-31.411 147.676,-24.4843"/>
</g>
</g>
</svg>
