<?xml version="1.0" encoding="UTF-8" standalone="no"?>
<!DOCTYPE svg PUBLIC "-//W3C//DTD SVG 1.1//EN"
 "http://www.w3.org/Graphics/SVG/1.1/DTD/svg11.dtd">
<!-- Generated by graphviz version 2.40.1 (20161225.0304)
 -->
<!-- Title: xla::HloPassPipeline::Run Pages: 1 -->
<svg width="316pt" height="160pt"
 viewBox="0.00 0.00 316.00 159.50" xmlns="http://www.w3.org/2000/svg" xmlns:xlink="http://www.w3.org/1999/xlink">
<g id="graph0" class="graph" transform="scale(1 1) rotate(0) translate(4 155.5)">
<title>xla::HloPassPipeline::Run</title>
<polygon fill="#ffffff" stroke="transparent" points="-4,4 -4,-155.5 312,-155.5 312,4 -4,4"/>
<!-- Node12 -->
<g id="node1" class="node">
<title>Node12</title>
<polygon fill="#bfbfbf" stroke="#000000" points="0,-71.5 0,-90.5 131,-90.5 131,-71.5 0,-71.5"/>
<text text-anchor="middle" x="65.5" y="-78.5" font-family="Helvetica,sans-Serif" font-size="10.00" fill="#000000">xla::HloPassPipeline::Run</text>
</g>
<!-- Node13 -->
<g id="node2" class="node">
<title>Node13</title>
<g id="a_node2"><a xlink:href="../../d2/dbd/classxla_1_1HloPassPipeline.html#af3316f3ece4bafa5162be7e06249e56e" target="_top" xlink:title="xla::HloPassPipeline\l::name">
<polygon fill="#ffffff" stroke="#000000" points="184,-121 184,-151 291,-151 291,-121 184,-121"/>
<text text-anchor="start" x="192" y="-139" font-family="Helvetica,sans-Serif" font-size="10.00" fill="#000000">xla::HloPassPipeline</text>
<text text-anchor="middle" x="237.5" y="-128" font-family="Helvetica,sans-Serif" font-size="10.00" fill="#000000">::name</text>
</a>
</g>
</g>
<!-- Node12&#45;&gt;Node13 -->
<g id="edge1" class="edge">
<title>Node12&#45;&gt;Node13</title>
<path fill="none" stroke="#191970" d="M95.4601,-90.5803C118.8785,-98.0687 152.1166,-108.6972 180.5526,-117.7901"/>
<polygon fill="#191970" stroke="#191970" points="179.7956,-121.2225 190.3865,-120.9346 181.9277,-114.5551 179.7956,-121.2225"/>
</g>
<!-- Node14 -->
<g id="node3" class="node">
<title>Node14</title>
<g id="a_node3"><a xlink:href="../../da/dc5/namespacexla_1_1anonymous__namespace_02hlo__pass__pipeline_8cc_03.html#a002f9135ce43451af6d09360bd8a794c" target="_top" xlink:title="xla::anonymous_namespace\l\{hlo_pass_pipeline::cc\}\l::DumpModuleProto">
<polygon fill="#ffffff" stroke="#000000" points="167,-60.5 167,-101.5 308,-101.5 308,-60.5 167,-60.5"/>
<text text-anchor="start" x="175" y="-89.5" font-family="Helvetica,sans-Serif" font-size="10.00" fill="#000000">xla::anonymous_namespace</text>
<text text-anchor="start" x="175" y="-78.5" font-family="Helvetica,sans-Serif" font-size="10.00" fill="#000000">{hlo_pass_pipeline::cc}</text>
<text text-anchor="middle" x="237.5" y="-67.5" font-family="Helvetica,sans-Serif" font-size="10.00" fill="#000000">::DumpModuleProto</text>
</a>
</g>
</g>
<!-- Node12&#45;&gt;Node14 -->
<g id="edge2" class="edge">
<title>Node12&#45;&gt;Node14</title>
<path fill="none" stroke="#191970" d="M131.0165,-81C139.4094,-81 148.0787,-81 156.6786,-81"/>
<polygon fill="#191970" stroke="#191970" points="156.7217,-84.5001 166.7217,-81 156.7217,-77.5001 156.7217,-84.5001"/>
</g>
<!-- Node15 -->
<g id="node4" class="node">
<title>Node15</title>
<g id="a_node4"><a xlink:href="../../da/dc5/namespacexla_1_1anonymous__namespace_02hlo__pass__pipeline_8cc_03.html#a5319cf542d98397e6aa1625921a93f3e" target="_top" xlink:title="xla::anonymous_namespace\l\{hlo_pass_pipeline::cc\}\l::DumpModuleGraph">
<polygon fill="#ffffff" stroke="#000000" points="167,-.5 167,-41.5 308,-41.5 308,-.5 167,-.5"/>
<text text-anchor="start" x="175" y="-29.5" font-family="Helvetica,sans-Serif" font-size="10.00" fill="#000000">xla::anonymous_namespace</text>
<text text-anchor="start" x="175" y="-18.5" font-family="Helvetica,sans-Serif" font-size="10.00" fill="#000000">{hlo_pass_pipeline::cc}</text>
<text text-anchor="middle" x="237.5" y="-7.5" font-family="Helvetica,sans-Serif" font-size="10.00" fill="#000000">::DumpModuleGraph</text>
</a>
</g>
</g>
<!-- Node12&#45;&gt;Node15 -->
<g id="edge3" class="edge">
<title>Node12&#45;&gt;Node15</title>
<path fill="none" stroke="#191970" d="M92.7539,-71.4928C113.2545,-64.3414 142.2864,-54.214 168.9743,-44.9043"/>
<polygon fill="#191970" stroke="#191970" points="170.3913,-48.1169 178.6804,-41.5184 168.0856,-41.5075 170.3913,-48.1169"/>
</g>
</g>
</svg>
