<?xml version="1.0" encoding="UTF-8" standalone="no"?>
<!DOCTYPE svg PUBLIC "-//W3C//DTD SVG 1.1//EN"
 "http://www.w3.org/Graphics/SVG/1.1/DTD/svg11.dtd">
<!-- Generated by graphviz version 2.40.1 (20161225.0304)
 -->
<!-- Title: xla::HloPassPipeline::name Pages: 1 -->
<svg width="432pt" height="39pt"
 viewBox="0.00 0.00 432.00 39.00" xmlns="http://www.w3.org/2000/svg" xmlns:xlink="http://www.w3.org/1999/xlink">
<g id="graph0" class="graph" transform="scale(1 1) rotate(0) translate(4 35)">
<title>xla::HloPassPipeline::name</title>
<polygon fill="#ffffff" stroke="transparent" points="-4,4 -4,-35 428,-35 428,4 -4,4"/>
<!-- Node9 -->
<g id="node1" class="node">
<title>Node9</title>
<polygon fill="#bfbfbf" stroke="#000000" points="0,-.5 0,-30.5 107,-30.5 107,-.5 0,-.5"/>
<text text-anchor="start" x="8" y="-18.5" font-family="Helvetica,sans-Serif" font-size="10.00" fill="#000000">xla::HloPassPipeline</text>
<text text-anchor="middle" x="53.5" y="-7.5" font-family="Helvetica,sans-Serif" font-size="10.00" fill="#000000">::name</text>
</g>
<!-- Node10 -->
<g id="node2" class="node">
<title>Node10</title>
<g id="a_node2"><a xlink:href="../../d2/dbd/classxla_1_1HloPassPipeline.html#ab27120e575c66e2991a9085a94c88169" target="_top" xlink:title="xla::HloPassPipeline::Run">
<polygon fill="#ffffff" stroke="#000000" points="143,-6 143,-25 274,-25 274,-6 143,-6"/>
<text text-anchor="middle" x="208.5" y="-13" font-family="Helvetica,sans-Serif" font-size="10.00" fill="#000000">xla::HloPassPipeline::Run</text>
</a>
</g>
</g>
<!-- Node9&#45;&gt;Node10 -->
<g id="edge1" class="edge">
<title>Node9&#45;&gt;Node10</title>
<path fill="none" stroke="#191970" d="M117.3737,-15.5C125.7636,-15.5 134.3735,-15.5 142.7933,-15.5"/>
<polygon fill="#191970" stroke="#191970" points="117.2765,-12.0001 107.2765,-15.5 117.2764,-19.0001 117.2765,-12.0001"/>
</g>
<!-- Node11 -->
<g id="node3" class="node">
<title>Node11</title>
<g id="a_node3"><a xlink:href="../../d2/d94/classxla_1_1cpu_1_1CpuCompiler.html#ab3bae76bdf9896dcfe3e1e749373f6b1" target="_top" xlink:title="xla::cpu::CpuCompiler\l::RunHloPasses">
<polygon fill="#ffffff" stroke="#000000" points="310,-.5 310,-30.5 424,-30.5 424,-.5 310,-.5"/>
<text text-anchor="start" x="318" y="-18.5" font-family="Helvetica,sans-Serif" font-size="10.00" fill="#000000">xla::cpu::CpuCompiler</text>
<text text-anchor="middle" x="367" y="-7.5" font-family="Helvetica,sans-Serif" font-size="10.00" fill="#000000">::RunHloPasses</text>
</a>
</g>
</g>
<!-- Node10&#45;&gt;Node11 -->
<g id="edge2" class="edge">
<title>Node10&#45;&gt;Node11</title>
<path fill="none" stroke="#191970" d="M284.5953,-15.5C293.0424,-15.5 301.5374,-15.5 309.6956,-15.5"/>
<polygon fill="#191970" stroke="#191970" points="284.3413,-12.0001 274.3413,-15.5 284.3413,-19.0001 284.3413,-12.0001"/>
</g>
</g>
</svg>
