<?xml version="1.0" encoding="UTF-8" standalone="no"?>
<!DOCTYPE svg PUBLIC "-//W3C//DTD SVG 1.1//EN"
 "http://www.w3.org/Graphics/SVG/1.1/DTD/svg11.dtd">
<!-- Generated by graphviz version 2.40.1 (20161225.0304)
 -->
<!-- Title: tensorflow/tensorflow/compiler/xla/service/service.h Pages: 1 -->
<svg width="3366pt" height="272pt"
 viewBox="0.00 0.00 3366.23 272.00" xmlns="http://www.w3.org/2000/svg" xmlns:xlink="http://www.w3.org/1999/xlink">
<g id="graph0" class="graph" transform="scale(1 1) rotate(0) translate(4 268)">
<title>tensorflow/tensorflow/compiler/xla/service/service.h</title>
<polygon fill="#ffffff" stroke="transparent" points="-4,4 -4,-268 3362.2334,-268 3362.2334,4 -4,4"/>
<!-- Node0 -->
<g id="node1" class="node">
<title>Node0</title>
<polygon fill="#bfbfbf" stroke="#000000" points="1409.5049,-225.5 1409.5049,-263.5 1519.4355,-263.5 1519.4355,-225.5 1409.5049,-225.5"/>
<text text-anchor="start" x="1417.5049" y="-251.5" font-family="Helvetica,sans-Serif" font-size="10.00" fill="#000000">tensorflow/tensorflow</text>
<text text-anchor="start" x="1417.5049" y="-241.5" font-family="Helvetica,sans-Serif" font-size="10.00" fill="#000000">/compiler/xla/service</text>
<text text-anchor="middle" x="1464.4702" y="-231.5" font-family="Helvetica,sans-Serif" font-size="10.00" fill="#000000">/service.h</text>
</g>
<!-- Node1 -->
<g id="node2" class="node">
<title>Node1</title>
<polygon fill="#ffffff" stroke="#bfbfbf" points="202.0664,-10.5 202.0664,-28.5 260.874,-28.5 260.874,-10.5 202.0664,-10.5"/>
<text text-anchor="middle" x="231.4702" y="-16.5" font-family="Helvetica,sans-Serif" font-size="10.00" fill="#000000">functional</text>
</g>
<!-- Node0&#45;&gt;Node1 -->
<g id="edge1" class="edge">
<title>Node0&#45;&gt;Node1</title>
<path fill="none" stroke="#191970" d="M1409.3097,-243.4479C1179.5256,-238.8752 307.9876,-219.5742 258.4702,-189 212.5265,-160.6323 209.3644,-128.5263 216.4702,-75 218.108,-62.663 221.7088,-49.1776 224.9719,-38.5891"/>
<polygon fill="#191970" stroke="#191970" points="228.3996,-39.3651 228.1537,-28.7731 221.7407,-37.2066 228.3996,-39.3651"/>
</g>
<!-- Node2 -->
<g id="node3" class="node">
<title>Node2</title>
<polygon fill="#ffffff" stroke="#bfbfbf" points="278.4136,-10.5 278.4136,-28.5 330.5269,-28.5 330.5269,-10.5 278.4136,-10.5"/>
<text text-anchor="middle" x="304.4702" y="-16.5" font-family="Helvetica,sans-Serif" font-size="10.00" fill="#000000">memory</text>
</g>
<!-- Node0&#45;&gt;Node2 -->
<g id="edge2" class="edge">
<title>Node0&#45;&gt;Node2</title>
<path fill="none" stroke="#191970" d="M1409.3472,-243.5221C1224.984,-239.9357 630.9577,-225.7457 443.4702,-189 343.333,-169.3741 285.6784,-197.1085 226.4702,-114 216.4129,-99.8828 218.5248,-90.405 226.4702,-75 232.3102,-63.6772 259.1303,-46.0111 279.707,-33.6603"/>
<polygon fill="#191970" stroke="#191970" points="281.5097,-36.6605 288.3435,-28.5642 277.9524,-30.6318 281.5097,-36.6605"/>
</g>
<!-- Node3 -->
<g id="node4" class="node">
<title>Node3</title>
<polygon fill="#ffffff" stroke="#bfbfbf" points="143.2437,-10.5 143.2437,-28.5 183.6968,-28.5 183.6968,-10.5 143.2437,-10.5"/>
<text text-anchor="middle" x="163.4702" y="-16.5" font-family="Helvetica,sans-Serif" font-size="10.00" fill="#000000">string</text>
</g>
<!-- Node0&#45;&gt;Node3 -->
<g id="edge3" class="edge">
<title>Node0&#45;&gt;Node3</title>
<path fill="none" stroke="#191970" d="M1409.2504,-243.7908C1174.0241,-240.5477 265.38,-225.6811 217.4702,-189 170.3385,-152.9147 163.5396,-75.4718 163.0782,-39.1122"/>
<polygon fill="#191970" stroke="#191970" points="166.5789,-38.8654 163.108,-28.8552 159.5789,-38.845 166.5789,-38.8654"/>
</g>
<!-- Node4 -->
<g id="node5" class="node">
<title>Node4</title>
<polygon fill="#ffffff" stroke="#bfbfbf" points="1630.8545,-10.5 1630.8545,-28.5 1674.0859,-28.5 1674.0859,-10.5 1630.8545,-10.5"/>
<text text-anchor="middle" x="1652.4702" y="-16.5" font-family="Helvetica,sans-Serif" font-size="10.00" fill="#000000">vector</text>
</g>
<!-- Node0&#45;&gt;Node4 -->
<g id="edge4" class="edge">
<title>Node0&#45;&gt;Node4</title>
<path fill="none" stroke="#191970" d="M1457.6992,-225.4513C1446.5184,-190.1722 1429.1916,-114.6568 1469.4702,-75 1518.9411,-26.2928 1557.4459,-65.8448 1621.4702,-39 1624.796,-37.6055 1628.1698,-35.8718 1631.407,-34.0175"/>
<polygon fill="#191970" stroke="#191970" points="1633.379,-36.9127 1640.0159,-28.6542 1629.6776,-30.9713 1633.379,-36.9127"/>
</g>
<!-- Node5 -->
<g id="node6" class="node">
<title>Node5</title>
<polygon fill="#ffffff" stroke="#bfbfbf" points="1492.1084,-150.5 1492.1084,-188.5 1594.832,-188.5 1594.832,-150.5 1492.1084,-150.5"/>
<text text-anchor="start" x="1500.1084" y="-176.5" font-family="Helvetica,sans-Serif" font-size="10.00" fill="#000000">tensorflow/compiler</text>
<text text-anchor="start" x="1500.1084" y="-166.5" font-family="Helvetica,sans-Serif" font-size="10.00" fill="#000000">/xla/executable_run</text>
<text text-anchor="middle" x="1543.4702" y="-156.5" font-family="Helvetica,sans-Serif" font-size="10.00" fill="#000000">_options.h</text>
</g>
<!-- Node0&#45;&gt;Node5 -->
<g id="edge5" class="edge">
<title>Node0&#45;&gt;Node5</title>
<path fill="none" stroke="#191970" d="M1484.8147,-225.1856C1494.2138,-216.2624 1505.5223,-205.5265 1515.6911,-195.8725"/>
<polygon fill="#191970" stroke="#191970" points="1518.3522,-198.1723 1523.1947,-188.7489 1513.5326,-193.0957 1518.3522,-198.1723"/>
</g>
<!-- Node6 -->
<g id="node7" class="node">
<title>Node6</title>
<polygon fill="#ffffff" stroke="#bfbfbf" points="1613.2119,-150.5 1613.2119,-188.5 1733.7285,-188.5 1733.7285,-150.5 1613.2119,-150.5"/>
<text text-anchor="start" x="1621.2119" y="-176.5" font-family="Helvetica,sans-Serif" font-size="10.00" fill="#000000">tensorflow/compiler</text>
<text text-anchor="start" x="1621.2119" y="-166.5" font-family="Helvetica,sans-Serif" font-size="10.00" fill="#000000">/xla/legacy_flags/debug</text>
<text text-anchor="middle" x="1673.4702" y="-156.5" font-family="Helvetica,sans-Serif" font-size="10.00" fill="#000000">_options_flags.h</text>
</g>
<!-- Node0&#45;&gt;Node6 -->
<g id="edge6" class="edge">
<title>Node0&#45;&gt;Node6</title>
<path fill="none" stroke="#191970" d="M1517.4799,-225.4774C1545.9614,-215.2568 1581.2461,-202.5948 1611.0489,-191.9"/>
<polygon fill="#191970" stroke="#191970" points="1612.2869,-195.1743 1620.517,-188.5023 1609.9225,-188.5857 1612.2869,-195.1743"/>
</g>
<!-- Node7 -->
<g id="node8" class="node">
<title>Node7</title>
<polygon fill="#ffffff" stroke="#bfbfbf" points="1751.9482,-150.5 1751.9482,-188.5 1862.9922,-188.5 1862.9922,-150.5 1751.9482,-150.5"/>
<text text-anchor="start" x="1759.9482" y="-176.5" font-family="Helvetica,sans-Serif" font-size="10.00" fill="#000000">tensorflow/compiler</text>
<text text-anchor="start" x="1759.9482" y="-166.5" font-family="Helvetica,sans-Serif" font-size="10.00" fill="#000000">/xla/service/allocation</text>
<text text-anchor="middle" x="1807.4702" y="-156.5" font-family="Helvetica,sans-Serif" font-size="10.00" fill="#000000">_tracker.h</text>
</g>
<!-- Node0&#45;&gt;Node7 -->
<g id="edge7" class="edge">
<title>Node0&#45;&gt;Node7</title>
<path fill="none" stroke="#191970" d="M1519.6687,-235.067C1573.8646,-225.4487 1659.0301,-209.385 1742.0476,-188.991"/>
<polygon fill="#191970" stroke="#191970" points="1743.033,-192.3527 1751.8964,-186.5483 1741.3479,-185.5586 1743.033,-192.3527"/>
</g>
<!-- Node8 -->
<g id="node9" class="node">
<title>Node8</title>
<polygon fill="#ffffff" stroke="#bfbfbf" points="1881,-155.5 1881,-183.5 1995.9404,-183.5 1995.9404,-155.5 1881,-155.5"/>
<text text-anchor="start" x="1889" y="-171.5" font-family="Helvetica,sans-Serif" font-size="10.00" fill="#000000">tensorflow/compiler</text>
<text text-anchor="middle" x="1938.4702" y="-161.5" font-family="Helvetica,sans-Serif" font-size="10.00" fill="#000000">/xla/service/backend.h</text>
</g>
<!-- Node0&#45;&gt;Node8 -->
<g id="edge8" class="edge">
<title>Node0&#45;&gt;Node8</title>
<path fill="none" stroke="#191970" d="M1519.704,-239.6763C1598.5674,-232.1821 1747.7047,-215.7547 1872.4702,-189 1876.3674,-188.1643 1880.3696,-187.2153 1884.3833,-186.1966"/>
<polygon fill="#191970" stroke="#191970" points="1885.569,-189.5029 1894.3307,-183.5461 1883.7667,-182.7389 1885.569,-189.5029"/>
</g>
<!-- Node9 -->
<g id="node10" class="node">
<title>Node9</title>
<polygon fill="#ffffff" stroke="#bfbfbf" points="2013.5591,-150.5 2013.5591,-188.5 2117.3813,-188.5 2117.3813,-150.5 2013.5591,-150.5"/>
<text text-anchor="start" x="2021.5591" y="-176.5" font-family="Helvetica,sans-Serif" font-size="10.00" fill="#000000">tensorflow/compiler</text>
<text text-anchor="start" x="2021.5591" y="-166.5" font-family="Helvetica,sans-Serif" font-size="10.00" fill="#000000">/xla/service/channel</text>
<text text-anchor="middle" x="2065.4702" y="-156.5" font-family="Helvetica,sans-Serif" font-size="10.00" fill="#000000">_tracker.h</text>
</g>
<!-- Node0&#45;&gt;Node9 -->
<g id="edge9" class="edge">
<title>Node0&#45;&gt;Node9</title>
<path fill="none" stroke="#191970" d="M1519.4646,-242.6024C1615.979,-238.4579 1822.0316,-225.977 2003.4301,-188.9883"/>
<polygon fill="#191970" stroke="#191970" points="2004.3335,-192.3755 2013.4168,-186.9216 2002.915,-185.5208 2004.3335,-192.3755"/>
</g>
<!-- Node10 -->
<g id="node11" class="node">
<title>Node10</title>
<polygon fill="#ffffff" stroke="#bfbfbf" points="2135.7832,-150.5 2135.7832,-188.5 2255.1572,-188.5 2255.1572,-150.5 2135.7832,-150.5"/>
<text text-anchor="start" x="2143.7832" y="-176.5" font-family="Helvetica,sans-Serif" font-size="10.00" fill="#000000">tensorflow/compiler</text>
<text text-anchor="start" x="2143.7832" y="-166.5" font-family="Helvetica,sans-Serif" font-size="10.00" fill="#000000">/xla/service/compilation</text>
<text text-anchor="middle" x="2195.4702" y="-156.5" font-family="Helvetica,sans-Serif" font-size="10.00" fill="#000000">_cache.h</text>
</g>
<!-- Node0&#45;&gt;Node10 -->
<g id="edge10" class="edge">
<title>Node0&#45;&gt;Node10</title>
<path fill="none" stroke="#191970" d="M1519.8647,-243.4352C1632.5398,-240.4972 1896.4372,-229.6791 2125.5673,-188.976"/>
<polygon fill="#191970" stroke="#191970" points="2126.1964,-192.4191 2135.4186,-187.2035 2124.9568,-185.5297 2126.1964,-192.4191"/>
</g>
<!-- Node11 -->
<g id="node12" class="node">
<title>Node11</title>
<g id="a_node12"><a xlink:href="../../d1/dc5/computation__tracker_8h.html" target="_top" xlink:title="tensorflow/compiler\l/xla/service/computation\l_tracker.h">
<polygon fill="#ffffff" stroke="#000000" points="717.835,-150.5 717.835,-188.5 841.1055,-188.5 841.1055,-150.5 717.835,-150.5"/>
<text text-anchor="start" x="725.835" y="-176.5" font-family="Helvetica,sans-Serif" font-size="10.00" fill="#000000">tensorflow/compiler</text>
<text text-anchor="start" x="725.835" y="-166.5" font-family="Helvetica,sans-Serif" font-size="10.00" fill="#000000">/xla/service/computation</text>
<text text-anchor="middle" x="779.4702" y="-156.5" font-family="Helvetica,sans-Serif" font-size="10.00" fill="#000000">_tracker.h</text>
</a>
</g>
</g>
<!-- Node0&#45;&gt;Node11 -->
<g id="edge11" class="edge">
<title>Node0&#45;&gt;Node11</title>
<path fill="none" stroke="#191970" d="M1409.2832,-238.4576C1286.1225,-224.9729 988.895,-192.4297 851.4264,-177.3784"/>
<polygon fill="#191970" stroke="#191970" points="851.7328,-173.8911 841.4113,-176.2819 850.9709,-180.8496 851.7328,-173.8911"/>
</g>
<!-- Node15 -->
<g id="node16" class="node">
<title>Node15</title>
<polygon fill="#ffffff" stroke="#bfbfbf" points="235.0518,-80.5 235.0518,-108.5 363.8887,-108.5 363.8887,-80.5 235.0518,-80.5"/>
<text text-anchor="start" x="243.0518" y="-96.5" font-family="Helvetica,sans-Serif" font-size="10.00" fill="#000000">tensorflow/compiler</text>
<text text-anchor="middle" x="299.4702" y="-86.5" font-family="Helvetica,sans-Serif" font-size="10.00" fill="#000000">/xla/service/hlo_module.h</text>
</g>
<!-- Node0&#45;&gt;Node15 -->
<g id="edge49" class="edge">
<title>Node0&#45;&gt;Node15</title>
<path fill="none" stroke="#191970" d="M1409.2162,-242.9339C1241.437,-237.8791 739.5916,-220.4697 579.4702,-189 492.5055,-171.9083 395.4095,-134.8528 341.4549,-112.5592"/>
<polygon fill="#191970" stroke="#191970" points="342.4716,-109.1912 331.8946,-108.5764 339.7796,-115.6529 342.4716,-109.1912"/>
</g>
<!-- Node16 -->
<g id="node17" class="node">
<title>Node16</title>
<polygon fill="#ffffff" stroke="#bfbfbf" points="382.2217,-75.5 382.2217,-113.5 502.7188,-113.5 502.7188,-75.5 382.2217,-75.5"/>
<text text-anchor="start" x="390.2217" y="-101.5" font-family="Helvetica,sans-Serif" font-size="10.00" fill="#000000">tensorflow/compiler</text>
<text text-anchor="start" x="390.2217" y="-91.5" font-family="Helvetica,sans-Serif" font-size="10.00" fill="#000000">/xla/service/hlo_module</text>
<text text-anchor="middle" x="442.4702" y="-81.5" font-family="Helvetica,sans-Serif" font-size="10.00" fill="#000000">_config.h</text>
</g>
<!-- Node0&#45;&gt;Node16 -->
<g id="edge50" class="edge">
<title>Node0&#45;&gt;Node16</title>
<path fill="none" stroke="#191970" d="M1409.3723,-242.3716C1258.7734,-236.249 842.5677,-217.2062 708.4702,-189 631.7174,-172.8558 546.972,-139.9647 494.2235,-117.5748"/>
<polygon fill="#191970" stroke="#191970" points="495.3262,-114.2397 484.7556,-113.5227 492.5719,-120.6751 495.3262,-114.2397"/>
</g>
<!-- Node17 -->
<g id="node18" class="node">
<title>Node17</title>
<polygon fill="#ffffff" stroke="#bfbfbf" points="0,-5.5 0,-33.5 124.9404,-33.5 124.9404,-5.5 0,-5.5"/>
<text text-anchor="start" x="8" y="-21.5" font-family="Helvetica,sans-Serif" font-size="10.00" fill="#000000">tensorflow/compiler</text>
<text text-anchor="middle" x="62.4702" y="-11.5" font-family="Helvetica,sans-Serif" font-size="10.00" fill="#000000">/xla/service/session.pb.h</text>
</g>
<!-- Node0&#45;&gt;Node17 -->
<g id="edge51" class="edge">
<title>Node0&#45;&gt;Node17</title>
<path fill="none" stroke="#191970" d="M1409.2662,-243.4476C1170.8489,-238.7316 239.0573,-218.4769 184.4702,-189 124.8737,-156.8181 87.2912,-81.3477 71.3289,-42.9014"/>
<polygon fill="#191970" stroke="#191970" points="74.5431,-41.5131 67.5673,-33.5389 68.0477,-44.1228 74.5431,-41.5131"/>
</g>
<!-- Node18 -->
<g id="node19" class="node">
<title>Node18</title>
<g id="a_node19"><a xlink:href="../../d6/d38/user__computation_8h.html" target="_top" xlink:title="tensorflow/compiler\l/xla/service/user_computation.h">
<polygon fill="#ffffff" stroke="#000000" points="881.1577,-80.5 881.1577,-108.5 1037.7827,-108.5 1037.7827,-80.5 881.1577,-80.5"/>
<text text-anchor="start" x="889.1577" y="-96.5" font-family="Helvetica,sans-Serif" font-size="10.00" fill="#000000">tensorflow/compiler</text>
<text text-anchor="middle" x="959.4702" y="-86.5" font-family="Helvetica,sans-Serif" font-size="10.00" fill="#000000">/xla/service/user_computation.h</text>
</a>
</g>
</g>
<!-- Node0&#45;&gt;Node18 -->
<g id="edge52" class="edge">
<title>Node0&#45;&gt;Node18</title>
<path fill="none" stroke="#191970" d="M1409.3424,-235.4247C1356.0727,-226.0368 1273.3966,-209.8299 1203.4702,-189 1130.3589,-167.2213 1048.1713,-133.3512 1000.2755,-112.6246"/>
<polygon fill="#191970" stroke="#191970" points="1001.4449,-109.3165 990.8788,-108.5363 998.6521,-115.7353 1001.4449,-109.3165"/>
</g>
<!-- Node20 -->
<g id="node21" class="node">
<title>Node20</title>
<polygon fill="#ffffff" stroke="#bfbfbf" points="1492.4854,-.5 1492.4854,-38.5 1612.4551,-38.5 1612.4551,-.5 1492.4854,-.5"/>
<text text-anchor="start" x="1500.4854" y="-26.5" font-family="Helvetica,sans-Serif" font-size="10.00" fill="#000000">tensorflow/compiler</text>
<text text-anchor="start" x="1500.4854" y="-16.5" font-family="Helvetica,sans-Serif" font-size="10.00" fill="#000000">/xla/service/versioned</text>
<text text-anchor="middle" x="1552.4702" y="-6.5" font-family="Helvetica,sans-Serif" font-size="10.00" fill="#000000">_computation_handle.h</text>
</g>
<!-- Node0&#45;&gt;Node20 -->
<g id="edge53" class="edge">
<title>Node0&#45;&gt;Node20</title>
<path fill="none" stroke="#191970" d="M1439.6028,-225.3885C1429.1124,-215.7553 1418.052,-203.1213 1412.4702,-189 1393.5883,-141.2308 1398.5989,-114.4702 1431.4702,-75 1439.8964,-64.8823 1464.7925,-52.7763 1489.8282,-42.4564"/>
<polygon fill="#191970" stroke="#191970" points="1491.4318,-45.5836 1499.3961,-38.5964 1488.8128,-39.0919 1491.4318,-45.5836"/>
</g>
<!-- Node21 -->
<g id="node22" class="node">
<title>Node21</title>
<polygon fill="#ffffff" stroke="#bfbfbf" points="1112.3989,-5.5 1112.3989,-33.5 1214.5415,-33.5 1214.5415,-5.5 1112.3989,-5.5"/>
<text text-anchor="start" x="1120.3989" y="-21.5" font-family="Helvetica,sans-Serif" font-size="10.00" fill="#000000">tensorflow/compiler</text>
<text text-anchor="middle" x="1163.4702" y="-11.5" font-family="Helvetica,sans-Serif" font-size="10.00" fill="#000000">/xla/statusor.h</text>
</g>
<!-- Node0&#45;&gt;Node21 -->
<g id="edge55" class="edge">
<title>Node0&#45;&gt;Node21</title>
<path fill="none" stroke="#191970" d="M1409.3413,-228.1754C1383.9069,-219.0668 1354.1717,-206.071 1330.4702,-189 1276.0185,-149.7812 1279.6404,-121.7199 1231.4702,-75 1218.6386,-62.5548 1203.2887,-49.8617 1190.4226,-39.761"/>
<polygon fill="#191970" stroke="#191970" points="1192.426,-36.8856 1182.3778,-33.5265 1188.1381,-42.4186 1192.426,-36.8856"/>
</g>
<!-- Node22 -->
<g id="node23" class="node">
<title>Node22</title>
<polygon fill="#ffffff" stroke="#bfbfbf" points="1372.3989,-5.5 1372.3989,-33.5 1474.5415,-33.5 1474.5415,-5.5 1372.3989,-5.5"/>
<text text-anchor="start" x="1380.3989" y="-21.5" font-family="Helvetica,sans-Serif" font-size="10.00" fill="#000000">tensorflow/compiler</text>
<text text-anchor="middle" x="1423.4702" y="-11.5" font-family="Helvetica,sans-Serif" font-size="10.00" fill="#000000">/xla/types.h</text>
</g>
<!-- Node0&#45;&gt;Node22 -->
<g id="edge56" class="edge">
<title>Node0&#45;&gt;Node22</title>
<path fill="none" stroke="#191970" d="M1414.4334,-225.3861C1398.7944,-216.7641 1383.3279,-204.8687 1374.4702,-189 1347.3339,-140.3847 1383.431,-75.3594 1406.6502,-41.7324"/>
<polygon fill="#191970" stroke="#191970" points="1409.5606,-43.6792 1412.5121,-33.5038 1403.8593,-39.6177 1409.5606,-43.6792"/>
</g>
<!-- Node23 -->
<g id="node24" class="node">
<title>Node23</title>
<polygon fill="#ffffff" stroke="#bfbfbf" points="1692.3989,-5.5 1692.3989,-33.5 1794.5415,-33.5 1794.5415,-5.5 1692.3989,-5.5"/>
<text text-anchor="start" x="1700.3989" y="-21.5" font-family="Helvetica,sans-Serif" font-size="10.00" fill="#000000">tensorflow/compiler</text>
<text text-anchor="middle" x="1743.4702" y="-11.5" font-family="Helvetica,sans-Serif" font-size="10.00" fill="#000000">/xla/xla.pb.h</text>
</g>
<!-- Node0&#45;&gt;Node23 -->
<g id="edge57" class="edge">
<title>Node0&#45;&gt;Node23</title>
<path fill="none" stroke="#191970" d="M1463.6146,-225.4865C1463.6657,-204.8608 1466.7156,-171.9478 1483.4702,-150 1511.1829,-113.6976 1629.5041,-63.5562 1696.5788,-37.2477"/>
<polygon fill="#191970" stroke="#191970" points="1698.0392,-40.435 1706.0864,-33.5435 1695.498,-33.9126 1698.0392,-40.435"/>
</g>
<!-- Node24 -->
<g id="node25" class="node">
<title>Node24</title>
<polygon fill="#ffffff" stroke="#bfbfbf" points="992.3989,-5.5 992.3989,-33.5 1094.5415,-33.5 1094.5415,-5.5 992.3989,-5.5"/>
<text text-anchor="start" x="1000.3989" y="-21.5" font-family="Helvetica,sans-Serif" font-size="10.00" fill="#000000">tensorflow/compiler</text>
<text text-anchor="middle" x="1043.4702" y="-11.5" font-family="Helvetica,sans-Serif" font-size="10.00" fill="#000000">/xla/xla_data.pb.h</text>
</g>
<!-- Node0&#45;&gt;Node24 -->
<g id="edge58" class="edge">
<title>Node0&#45;&gt;Node24</title>
<path fill="none" stroke="#191970" d="M1409.4631,-232.0154C1373.4164,-222.719 1325.8566,-208.3013 1286.4702,-189 1199.6497,-146.4536 1109.3177,-75.0048 1067.4381,-40.0348"/>
<polygon fill="#191970" stroke="#191970" points="1069.6296,-37.3046 1059.7236,-33.5466 1065.1239,-42.6618 1069.6296,-37.3046"/>
</g>
<!-- Node25 -->
<g id="node26" class="node">
<title>Node25</title>
<polygon fill="#ffffff" stroke="#bfbfbf" points="1232.1157,-5.5 1232.1157,-33.5 1354.8247,-33.5 1354.8247,-5.5 1232.1157,-5.5"/>
<text text-anchor="start" x="1240.1157" y="-21.5" font-family="Helvetica,sans-Serif" font-size="10.00" fill="#000000">tensorflow/core/platform</text>
<text text-anchor="middle" x="1293.4702" y="-11.5" font-family="Helvetica,sans-Serif" font-size="10.00" fill="#000000">/macros.h</text>
</g>
<!-- Node0&#45;&gt;Node25 -->
<g id="edge61" class="edge">
<title>Node0&#45;&gt;Node25</title>
<path fill="none" stroke="#191970" d="M1412.2002,-225.45C1393.8908,-216.6682 1374.4361,-204.6526 1360.4702,-189 1322.2875,-146.2056 1304.5866,-79.0426 1297.5051,-43.4691"/>
<polygon fill="#191970" stroke="#191970" points="1300.9199,-42.6891 1295.6374,-33.5052 1294.0398,-43.9789 1300.9199,-42.6891"/>
</g>
<!-- Node29 -->
<g id="node30" class="node">
<title>Node29</title>
<polygon fill="#ffffff" stroke="#bfbfbf" points="2273.0566,-150.5 2273.0566,-188.5 2381.8838,-188.5 2381.8838,-150.5 2273.0566,-150.5"/>
<text text-anchor="start" x="2281.0566" y="-176.5" font-family="Helvetica,sans-Serif" font-size="10.00" fill="#000000">tensorflow/compiler</text>
<text text-anchor="start" x="2281.0566" y="-166.5" font-family="Helvetica,sans-Serif" font-size="10.00" fill="#000000">/xla/service/device</text>
<text text-anchor="middle" x="2327.4702" y="-156.5" font-family="Helvetica,sans-Serif" font-size="10.00" fill="#000000">_memory_allocator.h</text>
</g>
<!-- Node0&#45;&gt;Node29 -->
<g id="edge45" class="edge">
<title>Node0&#45;&gt;Node29</title>
<path fill="none" stroke="#191970" d="M1519.596,-242.3345C1672.7297,-236.0614 2102.0445,-216.6598 2262.8315,-189.0263"/>
<polygon fill="#191970" stroke="#191970" points="2263.8047,-192.4075 2273.0282,-187.1942 2262.5668,-185.5179 2263.8047,-192.4075"/>
</g>
<!-- Node30 -->
<g id="node31" class="node">
<title>Node30</title>
<polygon fill="#ffffff" stroke="#bfbfbf" points="2399.7192,-155.5 2399.7192,-183.5 2525.2212,-183.5 2525.2212,-155.5 2399.7192,-155.5"/>
<text text-anchor="start" x="2407.7192" y="-171.5" font-family="Helvetica,sans-Serif" font-size="10.00" fill="#000000">tensorflow/compiler</text>
<text text-anchor="middle" x="2462.4702" y="-161.5" font-family="Helvetica,sans-Serif" font-size="10.00" fill="#000000">/xla/service/executable.h</text>
</g>
<!-- Node0&#45;&gt;Node30 -->
<g id="edge46" class="edge">
<title>Node0&#45;&gt;Node30</title>
<path fill="none" stroke="#191970" d="M1519.4397,-242.683C1691.9379,-236.7485 2221.1007,-216.711 2390.4702,-189 2395.5325,-188.1718 2400.7518,-187.133 2405.9586,-185.9687"/>
<polygon fill="#191970" stroke="#191970" points="2406.9947,-189.3198 2415.9111,-183.5972 2405.3722,-182.5105 2406.9947,-189.3198"/>
</g>
<!-- Node31 -->
<g id="node32" class="node">
<title>Node31</title>
<polygon fill="#ffffff" stroke="#bfbfbf" points="2543.6699,-150.5 2543.6699,-188.5 2655.2705,-188.5 2655.2705,-150.5 2543.6699,-150.5"/>
<text text-anchor="start" x="2551.6699" y="-176.5" font-family="Helvetica,sans-Serif" font-size="10.00" fill="#000000">tensorflow/compiler</text>
<text text-anchor="start" x="2551.6699" y="-166.5" font-family="Helvetica,sans-Serif" font-size="10.00" fill="#000000">/xla/service/execution</text>
<text text-anchor="middle" x="2599.4702" y="-156.5" font-family="Helvetica,sans-Serif" font-size="10.00" fill="#000000">_tracker.h</text>
</g>
<!-- Node0&#45;&gt;Node31 -->
<g id="edge47" class="edge">
<title>Node0&#45;&gt;Node31</title>
<path fill="none" stroke="#191970" d="M1519.5178,-243.3859C1706.449,-239.335 2316.815,-223.8467 2533.6304,-188.8517"/>
<polygon fill="#191970" stroke="#191970" points="2534.3709,-192.2765 2543.6542,-187.1705 2533.213,-185.3729 2534.3709,-192.2765"/>
</g>
<!-- Node32 -->
<g id="node33" class="node">
<title>Node32</title>
<polygon fill="#ffffff" stroke="#bfbfbf" points="2673.2168,-150.5 2673.2168,-188.5 2803.7236,-188.5 2803.7236,-150.5 2673.2168,-150.5"/>
<text text-anchor="start" x="2681.2168" y="-176.5" font-family="Helvetica,sans-Serif" font-size="10.00" fill="#000000">tensorflow/compiler</text>
<text text-anchor="start" x="2681.2168" y="-166.5" font-family="Helvetica,sans-Serif" font-size="10.00" fill="#000000">/xla/service/hlo_execution</text>
<text text-anchor="middle" x="2738.4702" y="-156.5" font-family="Helvetica,sans-Serif" font-size="10.00" fill="#000000">_profile.h</text>
</g>
<!-- Node0&#45;&gt;Node32 -->
<g id="edge48" class="edge">
<title>Node0&#45;&gt;Node32</title>
<path fill="none" stroke="#191970" d="M1519.6759,-243.4961C1721.4028,-239.5904 2419.1024,-223.9374 2662.6438,-189.0745"/>
<polygon fill="#191970" stroke="#191970" points="2663.4759,-192.4895 2672.8543,-187.5604 2662.449,-185.5652 2663.4759,-192.4895"/>
</g>
<!-- Node33 -->
<g id="node34" class="node">
<title>Node33</title>
<polygon fill="#ffffff" stroke="#bfbfbf" points="2821.335,-155.5 2821.335,-183.5 2939.6055,-183.5 2939.6055,-155.5 2821.335,-155.5"/>
<text text-anchor="start" x="2829.335" y="-171.5" font-family="Helvetica,sans-Serif" font-size="10.00" fill="#000000">tensorflow/compiler</text>
<text text-anchor="middle" x="2880.4702" y="-161.5" font-family="Helvetica,sans-Serif" font-size="10.00" fill="#000000">/xla/service_interface.h</text>
</g>
<!-- Node0&#45;&gt;Node33 -->
<g id="edge54" class="edge">
<title>Node0&#45;&gt;Node33</title>
<path fill="none" stroke="#191970" d="M1519.5893,-243.9788C1739.8545,-241.6256 2557.2539,-230.2416 2812.4702,-189 2817.2933,-188.2206 2822.2595,-187.2126 2827.2078,-186.0658"/>
<polygon fill="#191970" stroke="#191970" points="2828.4357,-189.3666 2837.2883,-183.5457 2826.7379,-182.5756 2828.4357,-189.3666"/>
</g>
<!-- Node34 -->
<g id="node35" class="node">
<title>Node34</title>
<polygon fill="#ffffff" stroke="#bfbfbf" points="2957.1748,-155.5 2957.1748,-183.5 3053.7656,-183.5 3053.7656,-155.5 2957.1748,-155.5"/>
<text text-anchor="start" x="2965.1748" y="-171.5" font-family="Helvetica,sans-Serif" font-size="10.00" fill="#000000">tensorflow/core/lib</text>
<text text-anchor="middle" x="3005.4702" y="-161.5" font-family="Helvetica,sans-Serif" font-size="10.00" fill="#000000">/gtl/array_slice.h</text>
</g>
<!-- Node0&#45;&gt;Node34 -->
<g id="edge59" class="edge">
<title>Node0&#45;&gt;Node34</title>
<path fill="none" stroke="#191970" d="M1519.4636,-243.3939C1771.0409,-238.2054 2806.1195,-215.419 2948.4702,-189 2952.2943,-188.2903 2956.2102,-187.3753 2960.1105,-186.3296"/>
<polygon fill="#191970" stroke="#191970" points="2961.1074,-189.6847 2969.7124,-183.5037 2959.131,-182.9695 2961.1074,-189.6847"/>
</g>
<!-- Node35 -->
<g id="node36" class="node">
<title>Node35</title>
<polygon fill="#ffffff" stroke="#bfbfbf" points="3072.1157,-155.5 3072.1157,-183.5 3194.8247,-183.5 3194.8247,-155.5 3072.1157,-155.5"/>
<text text-anchor="start" x="3080.1157" y="-171.5" font-family="Helvetica,sans-Serif" font-size="10.00" fill="#000000">tensorflow/core/platform</text>
<text text-anchor="middle" x="3133.4702" y="-161.5" font-family="Helvetica,sans-Serif" font-size="10.00" fill="#000000">/logging.h</text>
</g>
<!-- Node0&#45;&gt;Node35 -->
<g id="edge60" class="edge">
<title>Node0&#45;&gt;Node35</title>
<path fill="none" stroke="#191970" d="M1519.5449,-244.3093C1764.3785,-243.1971 2755.4592,-235.833 3062.4702,-189 3067.6295,-188.213 3072.9491,-187.181 3078.2466,-186.0022"/>
<polygon fill="#191970" stroke="#191970" points="3079.449,-189.3133 3088.3587,-183.5802 3077.8185,-182.5058 3079.449,-189.3133"/>
</g>
<!-- Node36 -->
<g id="node37" class="node">
<title>Node36</title>
<polygon fill="#ffffff" stroke="#bfbfbf" points="3212.707,-155.5 3212.707,-183.5 3358.2334,-183.5 3358.2334,-155.5 3212.707,-155.5"/>
<text text-anchor="start" x="3220.707" y="-171.5" font-family="Helvetica,sans-Serif" font-size="10.00" fill="#000000">tensorflow/core/platform</text>
<text text-anchor="middle" x="3285.4702" y="-161.5" font-family="Helvetica,sans-Serif" font-size="10.00" fill="#000000">/stream_executor_no_cuda.h</text>
</g>
<!-- Node0&#45;&gt;Node36 -->
<g id="edge62" class="edge">
<title>Node0&#45;&gt;Node36</title>
<path fill="none" stroke="#191970" d="M1519.547,-244.2358C1777.3478,-242.7703 2866.4487,-233.9824 3203.4702,-189 3209.8477,-188.1488 3216.4533,-187.0148 3223.0207,-185.7201"/>
<polygon fill="#191970" stroke="#191970" points="3224.202,-189.0487 3233.2711,-183.5712 3222.7656,-182.1976 3224.202,-189.0487"/>
</g>
<!-- Node11&#45;&gt;Node2 -->
<g id="edge14" class="edge">
<title>Node11&#45;&gt;Node2</title>
<path fill="none" stroke="#191970" d="M717.5823,-155.1096C686.849,-146.2203 650.0629,-132.8475 620.4702,-114 600.0579,-100.9994 604.0169,-86.0191 582.4702,-75 485.2653,-25.2887 442.8392,-74.1404 339.4702,-39 335.3212,-37.5895 331.0947,-35.6923 327.0799,-33.6334"/>
<polygon fill="#191970" stroke="#191970" points="328.6696,-30.5123 318.233,-28.6885 325.2543,-36.6227 328.6696,-30.5123"/>
</g>
<!-- Node11&#45;&gt;Node3 -->
<g id="edge16" class="edge">
<title>Node11&#45;&gt;Node3</title>
<path fill="none" stroke="#191970" d="M717.5717,-160.6299C677.0081,-152.8198 624.0054,-138.7 582.4702,-114 561.6695,-101.6303 566.2586,-85.533 544.4702,-75 403.2837,-6.7477 341.3485,-91.1921 193.4702,-39 190.0269,-37.7847 186.5832,-36.0995 183.3208,-34.2241"/>
<polygon fill="#191970" stroke="#191970" points="185.0514,-31.1748 174.7574,-28.6677 181.2412,-37.047 185.0514,-31.1748"/>
</g>
<!-- Node12 -->
<g id="node13" class="node">
<title>Node12</title>
<polygon fill="#ffffff" stroke="#bfbfbf" points="786.9702,-85.5 786.9702,-103.5 815.9702,-103.5 815.9702,-85.5 786.9702,-85.5"/>
<text text-anchor="middle" x="801.0811" y="-91.5" font-family="Helvetica,sans-Serif" font-size="10.00" fill="#000000">list</text>
</g>
<!-- Node11&#45;&gt;Node12 -->
<g id="edge12" class="edge">
<title>Node11&#45;&gt;Node12</title>
<path fill="none" stroke="#191970" d="M785.1358,-150.1856C788.4547,-138.8712 792.6284,-124.6425 795.9261,-113.4003"/>
<polygon fill="#191970" stroke="#191970" points="799.3066,-114.3102 798.7629,-103.7294 792.5896,-112.3399 799.3066,-114.3102"/>
</g>
<!-- Node13 -->
<g id="node14" class="node">
<title>Node13</title>
<polygon fill="#ffffff" stroke="#bfbfbf" points="770.7437,-10.5 770.7437,-28.5 806.1968,-28.5 806.1968,-10.5 770.7437,-10.5"/>
<text text-anchor="middle" x="788.4702" y="-16.5" font-family="Helvetica,sans-Serif" font-size="10.00" fill="#000000">map</text>
</g>
<!-- Node11&#45;&gt;Node13 -->
<g id="edge13" class="edge">
<title>Node11&#45;&gt;Node13</title>
<path fill="none" stroke="#191970" d="M777.7287,-150.2637C776.3104,-131.1322 774.9217,-100.967 777.4702,-75 778.6665,-62.8107 781.307,-49.3291 783.701,-38.7057"/>
<polygon fill="#191970" stroke="#191970" points="787.1378,-39.381 786.0358,-28.8436 780.3261,-37.7683 787.1378,-39.381"/>
</g>
<!-- Node14 -->
<g id="node15" class="node">
<title>Node14</title>
<polygon fill="#ffffff" stroke="#bfbfbf" points="833.8003,-85.5 833.8003,-103.5 863.1401,-103.5 863.1401,-85.5 833.8003,-85.5"/>
<text text-anchor="middle" x="848.4702" y="-91.5" font-family="Helvetica,sans-Serif" font-size="10.00" fill="#000000">set</text>
</g>
<!-- Node11&#45;&gt;Node14 -->
<g id="edge15" class="edge">
<title>Node11&#45;&gt;Node14</title>
<path fill="none" stroke="#191970" d="M797.2394,-150.1856C808.2926,-138.1713 822.3688,-122.8711 832.9684,-111.3498"/>
<polygon fill="#191970" stroke="#191970" points="835.7844,-113.4584 839.9792,-103.7294 830.6328,-108.719 835.7844,-113.4584"/>
</g>
<!-- Node11&#45;&gt;Node15 -->
<g id="edge17" class="edge">
<title>Node11&#45;&gt;Node15</title>
<path fill="none" stroke="#191970" d="M717.5205,-163.4047C637.5624,-154.9959 494.345,-138.0947 373.4702,-114 368.8285,-113.0747 364.0456,-112.0294 359.2507,-110.9152"/>
<polygon fill="#191970" stroke="#191970" points="359.9749,-107.4896 349.4331,-108.5482 358.3342,-114.2946 359.9749,-107.4896"/>
</g>
<!-- Node11&#45;&gt;Node16 -->
<g id="edge18" class="edge">
<title>Node11&#45;&gt;Node16</title>
<path fill="none" stroke="#191970" d="M717.6351,-157.3539C664.2156,-146.6455 585.0337,-130.2575 516.4702,-114 515.234,-113.7069 513.987,-113.4085 512.7315,-113.1055"/>
<polygon fill="#191970" stroke="#191970" points="513.5316,-109.6981 502.9851,-110.7082 511.8597,-116.4955 513.5316,-109.6981"/>
</g>
<!-- Node11&#45;&gt;Node17 -->
<g id="edge19" class="edge">
<title>Node11&#45;&gt;Node17</title>
<path fill="none" stroke="#191970" d="M717.7316,-159.4357C658.2369,-148.9396 573.1464,-131.5906 544.4702,-114 525.1157,-102.1275 531.5905,-85.5227 511.4702,-75 436.8946,-35.9976 217.2717,-54.0541 134.4702,-39 129.7041,-38.1335 124.7936,-37.1038 119.8826,-35.9773"/>
<polygon fill="#191970" stroke="#191970" points="120.3903,-32.4992 109.8477,-33.5499 118.7445,-39.303 120.3903,-32.4992"/>
</g>
<!-- Node11&#45;&gt;Node18 -->
<g id="edge20" class="edge">
<title>Node11&#45;&gt;Node18</title>
<path fill="none" stroke="#191970" d="M825.3576,-150.3803C853.3096,-138.7336 888.8039,-123.9443 916.2549,-112.5064"/>
<polygon fill="#191970" stroke="#191970" points="917.7191,-115.688 925.6037,-108.6111 915.0267,-109.2265 917.7191,-115.688"/>
</g>
<!-- Node11&#45;&gt;Node20 -->
<g id="edge37" class="edge">
<title>Node11&#45;&gt;Node20</title>
<path fill="none" stroke="#191970" d="M841.35,-165.0181C928.4161,-157.9964 1091.7349,-142.2004 1228.4702,-114 1319.7619,-95.1719 1422.7093,-63.2518 1487.5729,-41.7816"/>
<polygon fill="#191970" stroke="#191970" points="1488.8704,-45.0386 1497.2543,-38.5609 1486.6608,-38.3965 1488.8704,-45.0386"/>
</g>
<!-- Node11&#45;&gt;Node21 -->
<g id="edge38" class="edge">
<title>Node11&#45;&gt;Node21</title>
<path fill="none" stroke="#191970" d="M841.2965,-161.77C913.5529,-152.0066 1028.129,-134.0429 1066.4702,-114 1099.9473,-96.4998 1129.6118,-63.742 1147.0625,-41.7722"/>
<polygon fill="#191970" stroke="#191970" points="1149.9928,-43.7044 1153.3465,-33.6544 1144.4575,-39.4195 1149.9928,-43.7044"/>
</g>
<!-- Node11&#45;&gt;Node22 -->
<g id="edge39" class="edge">
<title>Node11&#45;&gt;Node22</title>
<path fill="none" stroke="#191970" d="M841.3553,-163.7207C915.3816,-156.0058 1042.6984,-140.1857 1149.4702,-114 1232.5135,-93.6337 1326.0343,-58.6691 1379.5359,-37.4589"/>
<polygon fill="#191970" stroke="#191970" points="1381.0565,-40.6206 1389.0486,-33.6652 1378.4634,-34.1186 1381.0565,-40.6206"/>
</g>
<!-- Node11&#45;&gt;Node24 -->
<g id="edge40" class="edge">
<title>Node11&#45;&gt;Node24</title>
<path fill="none" stroke="#191970" d="M841.3351,-165.4605C911.9874,-159.407 1021.1115,-145.172 1046.4702,-114 1062.3323,-94.5017 1058.1448,-64.518 1052.2182,-43.5691"/>
<polygon fill="#191970" stroke="#191970" points="1055.4911,-42.3094 1049.1536,-33.819 1048.8132,-44.4084 1055.4911,-42.3094"/>
</g>
<!-- Node11&#45;&gt;Node25 -->
<g id="edge41" class="edge">
<title>Node11&#45;&gt;Node25</title>
<path fill="none" stroke="#191970" d="M841.2325,-166.4482C908.3142,-161.4469 1017.6388,-148.3196 1105.4702,-114 1135.094,-102.4247 1137.4489,-90.0454 1165.4702,-75 1191.7506,-60.8893 1222.368,-47.511 1247.0677,-37.4259"/>
<polygon fill="#191970" stroke="#191970" points="1248.6052,-40.5797 1256.5671,-33.5898 1245.984,-34.089 1248.6052,-40.5797"/>
</g>
<!-- Node26 -->
<g id="node27" class="node">
<title>Node26</title>
<polygon fill="#ffffff" stroke="#bfbfbf" points="348.1157,-5.5 348.1157,-33.5 470.8247,-33.5 470.8247,-5.5 348.1157,-5.5"/>
<text text-anchor="start" x="356.1157" y="-21.5" font-family="Helvetica,sans-Serif" font-size="10.00" fill="#000000">tensorflow/core/platform</text>
<text text-anchor="middle" x="409.4702" y="-11.5" font-family="Helvetica,sans-Serif" font-size="10.00" fill="#000000">/mutex.h</text>
</g>
<!-- Node11&#45;&gt;Node26 -->
<g id="edge42" class="edge">
<title>Node11&#45;&gt;Node26</title>
<path fill="none" stroke="#191970" d="M727.1658,-150.4836C704.9678,-141.1824 679.435,-128.7846 658.4702,-114 638.6927,-100.0526 641.4113,-87.1305 620.4702,-75 564.8774,-42.7968 542.5596,-55.5081 480.4702,-39 477.0942,-38.1024 473.6299,-37.1742 470.1346,-36.2322"/>
<polygon fill="#191970" stroke="#191970" points="470.8169,-32.791 460.2496,-33.5548 468.9868,-39.5475 470.8169,-32.791"/>
</g>
<!-- Node27 -->
<g id="node28" class="node">
<title>Node27</title>
<polygon fill="#ffffff" stroke="#bfbfbf" points="489.1157,-5.5 489.1157,-33.5 611.8247,-33.5 611.8247,-5.5 489.1157,-5.5"/>
<text text-anchor="start" x="497.1157" y="-21.5" font-family="Helvetica,sans-Serif" font-size="10.00" fill="#000000">tensorflow/core/platform</text>
<text text-anchor="middle" x="550.4702" y="-11.5" font-family="Helvetica,sans-Serif" font-size="10.00" fill="#000000">/thread_annotations.h</text>
</g>
<!-- Node11&#45;&gt;Node27 -->
<g id="edge43" class="edge">
<title>Node11&#45;&gt;Node27</title>
<path fill="none" stroke="#191970" d="M757.6586,-150.4129C734.1202,-130.3157 695.0745,-98.4039 658.4702,-75 636.9074,-61.2133 611.5067,-48.0208 590.7579,-37.9596"/>
<polygon fill="#191970" stroke="#191970" points="592.1135,-34.7282 581.5826,-33.5663 589.0905,-41.0418 592.1135,-34.7282"/>
</g>
<!-- Node28 -->
<g id="node29" class="node">
<title>Node28</title>
<polygon fill="#ffffff" stroke="#bfbfbf" points="630.1157,-5.5 630.1157,-33.5 752.8247,-33.5 752.8247,-5.5 630.1157,-5.5"/>
<text text-anchor="start" x="638.1157" y="-21.5" font-family="Helvetica,sans-Serif" font-size="10.00" fill="#000000">tensorflow/core/platform</text>
<text text-anchor="middle" x="691.4702" y="-11.5" font-family="Helvetica,sans-Serif" font-size="10.00" fill="#000000">/types.h</text>
</g>
<!-- Node11&#45;&gt;Node28 -->
<g id="edge44" class="edge">
<title>Node11&#45;&gt;Node28</title>
<path fill="none" stroke="#191970" d="M768.1459,-150.1972C751.9774,-122.6372 722.3229,-72.0897 705.0135,-42.5851"/>
<polygon fill="#191970" stroke="#191970" points="707.9391,-40.6551 699.8601,-33.8009 701.9014,-44.1972 707.9391,-40.6551"/>
</g>
<!-- Node18&#45;&gt;Node1 -->
<g id="edge21" class="edge">
<title>Node18&#45;&gt;Node1</title>
<path fill="none" stroke="#191970" d="M903.0858,-80.4787C892.9453,-78.3531 882.433,-76.4046 872.4702,-75 606.6221,-37.5193 528.4433,-109.8023 269.4702,-39 264.5438,-37.6531 259.5177,-35.6195 254.802,-33.3662"/>
<polygon fill="#191970" stroke="#191970" points="256.1708,-30.1318 245.69,-28.5818 252.9167,-36.3294 256.1708,-30.1318"/>
</g>
<!-- Node18&#45;&gt;Node2 -->
<g id="edge23" class="edge">
<title>Node18&#45;&gt;Node2</title>
<path fill="none" stroke="#191970" d="M902.6083,-80.4453C892.6137,-78.3507 882.2742,-76.4213 872.4702,-75 637.4979,-40.9361 567.1285,-106.4097 339.4702,-39 334.9974,-37.6756 330.4662,-35.7069 326.2141,-33.5224"/>
<polygon fill="#191970" stroke="#191970" points="327.9061,-30.4583 317.4824,-28.5617 324.4483,-36.5447 327.9061,-30.4583"/>
</g>
<!-- Node18&#45;&gt;Node3 -->
<g id="edge24" class="edge">
<title>Node18&#45;&gt;Node3</title>
<path fill="none" stroke="#191970" d="M903.0935,-80.4232C892.9522,-78.3035 882.4376,-76.3714 872.4702,-75 722.7797,-54.4041 337.1517,-85.7665 193.4702,-39 189.8301,-37.8152 186.2041,-36.0708 182.7963,-34.105"/>
<polygon fill="#191970" stroke="#191970" points="184.7074,-31.1728 174.4257,-28.6161 180.8689,-37.0265 184.7074,-31.1728"/>
</g>
<!-- Node18&#45;&gt;Node4 -->
<g id="edge25" class="edge">
<title>Node18&#45;&gt;Node4</title>
<path fill="none" stroke="#191970" d="M1037.8956,-92.5686C1189.0638,-88.0855 1515.2297,-74.51 1621.4702,-39 1625.1864,-37.7579 1628.9097,-35.9838 1632.4216,-34.0059"/>
<polygon fill="#191970" stroke="#191970" points="1634.5025,-36.8307 1641.073,-28.5193 1630.7536,-30.9192 1634.5025,-36.8307"/>
</g>
<!-- Node18&#45;&gt;Node13 -->
<g id="edge22" class="edge">
<title>Node18&#45;&gt;Node13</title>
<path fill="none" stroke="#191970" d="M914.3592,-80.4658C885.2922,-70.6194 847.152,-56.1714 815.4702,-39 812.9825,-37.6516 810.4592,-36.1062 808.0049,-34.4883"/>
<polygon fill="#191970" stroke="#191970" points="809.7859,-31.4607 799.6036,-28.5329 805.7377,-37.1714 809.7859,-31.4607"/>
</g>
<!-- Node18&#45;&gt;Node17 -->
<g id="edge27" class="edge">
<title>Node18&#45;&gt;Node17</title>
<path fill="none" stroke="#191970" d="M903.5661,-80.4858C893.2802,-78.3314 882.5939,-76.3711 872.4702,-75 547.0512,-30.9263 458.841,-90.2208 134.4702,-39 129.3255,-38.1876 124.0202,-37.1492 118.7318,-35.9758"/>
<polygon fill="#191970" stroke="#191970" points="119.1673,-32.482 108.6292,-33.5769 117.5501,-39.2926 119.1673,-32.482"/>
</g>
<!-- Node19 -->
<g id="node20" class="node">
<title>Node19</title>
<polygon fill="#ffffff" stroke="#bfbfbf" points="824.2119,-5.5 824.2119,-33.5 974.7285,-33.5 974.7285,-5.5 824.2119,-5.5"/>
<text text-anchor="start" x="832.2119" y="-21.5" font-family="Helvetica,sans-Serif" font-size="10.00" fill="#000000">tensorflow/compiler</text>
<text text-anchor="middle" x="899.4702" y="-11.5" font-family="Helvetica,sans-Serif" font-size="10.00" fill="#000000">/xla/service/hlo_computation.h</text>
</g>
<!-- Node18&#45;&gt;Node19 -->
<g id="edge26" class="edge">
<title>Node18&#45;&gt;Node19</title>
<path fill="none" stroke="#191970" d="M948.1847,-80.3931C939.4689,-69.4984 927.2444,-54.2177 917.2219,-41.6896"/>
<polygon fill="#191970" stroke="#191970" points="919.6852,-39.1659 910.7052,-33.5437 914.2191,-43.5388 919.6852,-39.1659"/>
</g>
<!-- Node18&#45;&gt;Node20 -->
<g id="edge28" class="edge">
<title>Node18&#45;&gt;Node20</title>
<path fill="none" stroke="#191970" d="M1038.2073,-90.3409C1139.1532,-84.0767 1319.5818,-69.74 1482.213,-39.0722"/>
<polygon fill="#191970" stroke="#191970" points="1483.2387,-42.4396 1492.4038,-37.1243 1481.9245,-35.564 1483.2387,-42.4396"/>
</g>
<!-- Node18&#45;&gt;Node21 -->
<g id="edge29" class="edge">
<title>Node18&#45;&gt;Node21</title>
<path fill="none" stroke="#191970" d="M997.8411,-80.3931C1031.1787,-68.1366 1079.6152,-50.329 1115.5045,-37.1344"/>
<polygon fill="#191970" stroke="#191970" points="1117.0934,-40.2794 1125.2714,-33.5437 1114.6779,-33.7094 1117.0934,-40.2794"/>
</g>
<!-- Node18&#45;&gt;Node22 -->
<g id="edge30" class="edge">
<title>Node18&#45;&gt;Node22</title>
<path fill="none" stroke="#191970" d="M1038.0409,-87.8772C1119.9984,-80 1251.8511,-64.5911 1363.4702,-39 1366.8832,-38.2175 1370.3794,-37.3263 1373.8849,-36.3659"/>
<polygon fill="#191970" stroke="#191970" points="1375.0997,-39.6578 1383.7271,-33.5082 1373.1477,-32.9354 1375.0997,-39.6578"/>
</g>
<!-- Node18&#45;&gt;Node23 -->
<g id="edge31" class="edge">
<title>Node18&#45;&gt;Node23</title>
<path fill="none" stroke="#191970" d="M1038.0084,-90.8412C1199.0469,-82.9518 1561.7375,-63.0902 1683.4702,-39 1687.2896,-38.2442 1691.2051,-37.3223 1695.1165,-36.295"/>
<polygon fill="#191970" stroke="#191970" points="1696.1061,-39.6524 1704.7733,-33.5589 1694.1979,-32.9175 1696.1061,-39.6524"/>
</g>
<!-- Node18&#45;&gt;Node24 -->
<g id="edge32" class="edge">
<title>Node18&#45;&gt;Node24</title>
<path fill="none" stroke="#191970" d="M975.27,-80.3931C987.9413,-69.0794 1005.9101,-53.0358 1020.2228,-40.2566"/>
<polygon fill="#191970" stroke="#191970" points="1022.613,-42.8147 1027.7413,-33.5437 1017.9508,-37.5931 1022.613,-42.8147"/>
</g>
<!-- Node18&#45;&gt;Node25 -->
<g id="edge33" class="edge">
<title>Node18&#45;&gt;Node25</title>
<path fill="none" stroke="#191970" d="M1032.5919,-80.4446C1085.7452,-69.9076 1159.3167,-54.6618 1223.4702,-39 1227.1162,-38.1099 1230.8602,-37.1633 1234.6301,-36.1854"/>
<polygon fill="#191970" stroke="#191970" points="1235.8489,-39.4834 1244.6203,-33.541 1234.0576,-32.7165 1235.8489,-39.4834"/>
</g>
<!-- Node18&#45;&gt;Node26 -->
<g id="edge34" class="edge">
<title>Node18&#45;&gt;Node26</title>
<path fill="none" stroke="#191970" d="M901.6405,-80.4467C891.9418,-78.4042 881.9506,-76.4914 872.4702,-75 699.6404,-47.8112 652.6049,-70.2894 480.4702,-39 475.7657,-38.1449 470.9202,-37.1233 466.0752,-36.0022"/>
<polygon fill="#191970" stroke="#191970" points="466.7216,-32.5572 456.1765,-33.5826 465.0595,-39.357 466.7216,-32.5572"/>
</g>
<!-- Node18&#45;&gt;Node27 -->
<g id="edge35" class="edge">
<title>Node18&#45;&gt;Node27</title>
<path fill="none" stroke="#191970" d="M899.691,-80.4571C890.5954,-78.5074 881.3006,-76.6203 872.4702,-75 761.6237,-54.6604 731.8019,-61.9687 621.4702,-39 617.1292,-38.0963 612.6611,-37.0795 608.18,-35.9968"/>
<polygon fill="#191970" stroke="#191970" points="608.9448,-32.5803 598.3935,-33.5397 607.2402,-39.3696 608.9448,-32.5803"/>
</g>
<!-- Node18&#45;&gt;Node28 -->
<g id="edge36" class="edge">
<title>Node18&#45;&gt;Node28</title>
<path fill="none" stroke="#191970" d="M909.3759,-80.4811C864.6805,-67.973 799.1456,-49.633 751.626,-36.3346"/>
<polygon fill="#191970" stroke="#191970" points="752.3466,-32.9019 741.7733,-33.5773 750.46,-39.6429 752.3466,-32.9019"/>
</g>
</g>
</svg>
