<?xml version="1.0" encoding="UTF-8" standalone="no"?>
<!DOCTYPE svg PUBLIC "-//W3C//DTD SVG 1.1//EN"
 "http://www.w3.org/Graphics/SVG/1.1/DTD/svg11.dtd">
<!-- Generated by graphviz version 2.40.1 (20161225.0304)
 -->
<!-- Title: tensorflow::XlaCompiler::SetDeviceToHostMetadata Pages: 1 -->
<svg width="314pt" height="50pt"
 viewBox="0.00 0.00 314.00 50.00" xmlns="http://www.w3.org/2000/svg" xmlns:xlink="http://www.w3.org/1999/xlink">
<g id="graph0" class="graph" transform="scale(1 1) rotate(0) translate(4 46)">
<title>tensorflow::XlaCompiler::SetDeviceToHostMetadata</title>
<polygon fill="#ffffff" stroke="transparent" points="-4,4 -4,-46 310,-46 310,4 -4,4"/>
<!-- Node150 -->
<g id="node1" class="node">
<title>Node150</title>
<polygon fill="#bfbfbf" stroke="#000000" points="0,-6 0,-36 140,-36 140,-6 0,-6"/>
<text text-anchor="start" x="8" y="-24" font-family="Helvetica,sans-Serif" font-size="10.00" fill="#000000">tensorflow::XlaCompiler</text>
<text text-anchor="middle" x="70" y="-13" font-family="Helvetica,sans-Serif" font-size="10.00" fill="#000000">::SetDeviceToHostMetadata</text>
</g>
<!-- Node151 -->
<g id="node2" class="node">
<title>Node151</title>
<g id="a_node2"><a xlink:href="../../de/d61/namespacetensorflow_1_1anonymous__namespace_02xla__compiler_8cc_03.html#a825e34fae809930b56d1ba0bdb036e37" target="_top" xlink:title="tensorflow::anonymous\l_namespace\{xla_compiler\l::cc\}::SetTransfer">
<polygon fill="#ffffff" stroke="#000000" points="176,-.5 176,-41.5 306,-41.5 306,-.5 176,-.5"/>
<text text-anchor="start" x="184" y="-29.5" font-family="Helvetica,sans-Serif" font-size="10.00" fill="#000000">tensorflow::anonymous</text>
<text text-anchor="start" x="184" y="-18.5" font-family="Helvetica,sans-Serif" font-size="10.00" fill="#000000">_namespace{xla_compiler</text>
<text text-anchor="middle" x="241" y="-7.5" font-family="Helvetica,sans-Serif" font-size="10.00" fill="#000000">::cc}::SetTransfer</text>
</a>
</g>
</g>
<!-- Node150&#45;&gt;Node151 -->
<g id="edge1" class="edge">
<title>Node150&#45;&gt;Node151</title>
<path fill="none" stroke="#191970" d="M140.0456,-21C148.439,-21 157.0378,-21 165.504,-21"/>
<polygon fill="#191970" stroke="#191970" points="165.7424,-24.5001 175.7424,-21 165.7423,-17.5001 165.7424,-24.5001"/>
</g>
</g>
</svg>
