<?xml version="1.0" encoding="UTF-8" standalone="no"?>
<!DOCTYPE svg PUBLIC "-//W3C//DTD SVG 1.1//EN"
 "http://www.w3.org/Graphics/SVG/1.1/DTD/svg11.dtd">
<!-- Generated by graphviz version 2.40.1 (20161225.0304)
 -->
<!-- Title: tensorflow::XlaCompiler::options Pages: 1 -->
<!--zoomable 149 -->
<svg id="main" version="1.1" xmlns="http://www.w3.org/2000/svg" xmlns:xlink="http://www.w3.org/1999/xlink" xml:space="preserve" onload="init(evt)">
<style type="text/css"><![CDATA[
.edge:hover path { stroke: red; }
.edge:hover polygon { stroke: red; fill: red; }
]]></style>
<script type="text/javascript"><![CDATA[
var edges = document.getElementsByTagName('g');
if (edges && edges.length) {
  for (var i=0;i<edges.length;i++) {
    if (edges[i].id.substr(0,4)=='edge') {
      edges[i].setAttribute('class','edge');
    }
  }
}
]]></script>
        <defs>
                <circle id="rim" cx="0" cy="0" r="7"/>
                <circle id="rim2" cx="0" cy="0" r="3.5"/>
                <g id="zoomPlus">
                        <use xlink:href="#rim" fill="#404040">
                                <set attributeName="fill" to="#808080" begin="zoomplus.mouseover" end="zoomplus.mouseout"/>
                        </use>
                        <path d="M-4,0h8M0,-4v8" fill="none" stroke="white" stroke-width="1.5" pointer-events="none"/>
                </g>
                <g id="zoomMin">
                        <use xlink:href="#rim" fill="#404040">
                                <set attributeName="fill" to="#808080" begin="zoomminus.mouseover" end="zoomminus.mouseout"/>
                        </use>
                        <path d="M-4,0h8" fill="none" stroke="white" stroke-width="1.5" pointer-events="none"/>
                </g>
                <g id="dirArrow">
                        <path fill="none" stroke="white" stroke-width="1.5" d="M0,-3.0v7 M-2.5,-0.5L0,-3.0L2.5,-0.5"/>
                </g>
               <g id="resetDef">
                       <use xlink:href="#rim2" fill="#404040">
                               <set attributeName="fill" to="#808080" begin="reset.mouseover" end="reset.mouseout"/>
                       </use>
               </g>
        </defs>

<script type="text/javascript">
var viewWidth = 967;
var viewHeight = 149;
var sectionId = 'dynsection-15';
</script>
<script xlink:href="../../svgpan.js"/>
<svg id="graph" class="graph">
<g id="viewport">
<title>tensorflow::XlaCompiler::options</title>
<polygon fill="#ffffff" stroke="transparent" points="-4,4 -4,-145 963,-145 963,4 -4,4"/>
<!-- Node141 -->
<g id="node1" class="node">
<title>Node141</title>
<polygon fill="#bfbfbf" stroke="#000000" points="0,-55.5 0,-85.5 121,-85.5 121,-55.5 0,-55.5"/>
<text text-anchor="start" x="8" y="-73.5" font-family="Helvetica,sans-Serif" font-size="10.00" fill="#000000">tensorflow::XlaCompiler</text>
<text text-anchor="middle" x="60.5" y="-62.5" font-family="Helvetica,sans-Serif" font-size="10.00" fill="#000000">::options</text>
</g>
<!-- Node142 -->
<g id="node2" class="node">
<title>Node142</title>
<g id="a_node2"><a xlink:href="../../d7/dbf/classtensorflow_1_1XlaCompiler.html#a7dc00dad25b347e8ab8b15f68cba4be0" target="_top" xlink:title="tensorflow::XlaCompiler\l::CompileFunction">
<polygon fill="#ffffff" stroke="#000000" points="314,-110.5 314,-140.5 435,-140.5 435,-110.5 314,-110.5"/>
<text text-anchor="start" x="322" y="-128.5" font-family="Helvetica,sans-Serif" font-size="10.00" fill="#000000">tensorflow::XlaCompiler</text>
<text text-anchor="middle" x="374.5" y="-117.5" font-family="Helvetica,sans-Serif" font-size="10.00" fill="#000000">::CompileFunction</text>
</a>
</g>
</g>
<!-- Node141&#45;&gt;Node142 -->
<g id="edge1" class="edge">
<title>Node141&#45;&gt;Node142</title>
<path fill="none" stroke="#191970" d="M123.8215,-88.0252C134.8325,-90.751 146.2113,-93.366 157,-95.5 209.5378,-105.892 269.9208,-113.9135 313.7127,-119.0364"/>
<polygon fill="#191970" stroke="#191970" points="124.3931,-84.5597 113.8402,-85.5015 122.6772,-91.3461 124.3931,-84.5597"/>
</g>
<!-- Node143 -->
<g id="node3" class="node">
<title>Node143</title>
<g id="a_node3"><a xlink:href="../../d7/dbf/classtensorflow_1_1XlaCompiler.html#ab941b14046527727c11c728908d36d92" target="_top" xlink:title="tensorflow::XlaCompiler\l::CompileSingleOp">
<polygon fill="#ffffff" stroke="#000000" points="314,-.5 314,-30.5 435,-30.5 435,-.5 314,-.5"/>
<text text-anchor="start" x="322" y="-18.5" font-family="Helvetica,sans-Serif" font-size="10.00" fill="#000000">tensorflow::XlaCompiler</text>
<text text-anchor="middle" x="374.5" y="-7.5" font-family="Helvetica,sans-Serif" font-size="10.00" fill="#000000">::CompileSingleOp</text>
</a>
</g>
</g>
<!-- Node141&#45;&gt;Node143 -->
<g id="edge2" class="edge">
<title>Node141&#45;&gt;Node143</title>
<path fill="none" stroke="#191970" d="M126.8778,-53.0476C136.9333,-50.6781 147.2146,-48.409 157,-46.5 209.598,-36.2388 269.9751,-27.9033 313.7495,-22.4705"/>
<polygon fill="#191970" stroke="#191970" points="125.8289,-49.6999 116.9244,-55.4409 127.4655,-56.5059 125.8289,-49.6999"/>
</g>
<!-- Node144 -->
<g id="node4" class="node">
<title>Node144</title>
<g id="a_node4"><a xlink:href="../../d7/dbf/classtensorflow_1_1XlaCompiler.html#ade5be3e41d2892412acb844070182858" target="_top" xlink:title="Compiles a tensorflow::Graph into an xla::Computation. ">
<polygon fill="#ffffff" stroke="#000000" points="157,-55.5 157,-85.5 278,-85.5 278,-55.5 157,-55.5"/>
<text text-anchor="start" x="165" y="-73.5" font-family="Helvetica,sans-Serif" font-size="10.00" fill="#000000">tensorflow::XlaCompiler</text>
<text text-anchor="middle" x="217.5" y="-62.5" font-family="Helvetica,sans-Serif" font-size="10.00" fill="#000000">::CompileGraph</text>
</a>
</g>
</g>
<!-- Node141&#45;&gt;Node144 -->
<g id="edge3" class="edge">
<title>Node141&#45;&gt;Node144</title>
<path fill="none" stroke="#191970" d="M131.2098,-70.5C139.807,-70.5 148.5301,-70.5 156.9611,-70.5"/>
<polygon fill="#191970" stroke="#191970" points="131.2003,-67.0001 121.2003,-70.5 131.2003,-74.0001 131.2003,-67.0001"/>
</g>
<!-- Node144&#45;&gt;Node142 -->
<g id="edge9" class="edge">
<title>Node144&#45;&gt;Node142</title>
<path fill="none" stroke="#191970" d="M270.0047,-88.8934C290.039,-95.9117 312.6197,-103.8222 331.6509,-110.4892"/>
<polygon fill="#191970" stroke="#191970" points="270.9958,-85.5321 260.4009,-85.529 268.6814,-92.1384 270.9958,-85.5321"/>
</g>
<!-- Node144&#45;&gt;Node143 -->
<g id="edge10" class="edge">
<title>Node144&#45;&gt;Node143</title>
<path fill="none" stroke="#191970" d="M270.0047,-52.1066C290.039,-45.0883 312.6197,-37.1778 331.6509,-30.5108"/>
<polygon fill="#191970" stroke="#191970" points="268.6814,-48.8616 260.4009,-55.471 270.9958,-55.4679 268.6814,-48.8616"/>
</g>
<!-- Node145 -->
<g id="node5" class="node">
<title>Node145</title>
<g id="a_node5"><a xlink:href="../../d3/dfa/namespacetensorflow_1_1anonymous__namespace_02tf2xla_8cc_03.html#a8bea171341441170c6d6c7dbb0b3227d" target="_top" xlink:title="Converts the TensorFlow graph into an XLA computation, by executing the graph symbolically, with each op building up the XLA HLO. ">
<polygon fill="#ffffff" stroke="#000000" points="315,-50 315,-91 434,-91 434,-50 315,-50"/>
<text text-anchor="start" x="323" y="-79" font-family="Helvetica,sans-Serif" font-size="10.00" fill="#000000">tensorflow::anonymous</text>
<text text-anchor="start" x="323" y="-68" font-family="Helvetica,sans-Serif" font-size="10.00" fill="#000000">_namespace{tf2xla::cc}</text>
<text text-anchor="middle" x="374.5" y="-57" font-family="Helvetica,sans-Serif" font-size="10.00" fill="#000000">::ConvertGraphToXla</text>
</a>
</g>
</g>
<!-- Node144&#45;&gt;Node145 -->
<g id="edge4" class="edge">
<title>Node144&#45;&gt;Node145</title>
<path fill="none" stroke="#191970" d="M288.2181,-70.5C297.1644,-70.5 306.2469,-70.5 314.9946,-70.5"/>
<polygon fill="#191970" stroke="#191970" points="288.2003,-67.0001 278.2003,-70.5 288.2003,-74.0001 288.2003,-67.0001"/>
</g>
<!-- Node146 -->
<g id="node6" class="node">
<title>Node146</title>
<g id="a_node6"><a xlink:href="../../de/d86/namespacetensorflow.html#a6f8fce5955ec6d67cd1762891d4830e9" target="_top" xlink:title="Convert tensorflow graph_def to XLA UserComputation. ">
<polygon fill="#ffffff" stroke="#000000" points="471,-55.5 471,-85.5 599,-85.5 599,-55.5 471,-55.5"/>
<text text-anchor="start" x="479" y="-73.5" font-family="Helvetica,sans-Serif" font-size="10.00" fill="#000000">tensorflow::ConvertGraph</text>
<text text-anchor="middle" x="535" y="-62.5" font-family="Helvetica,sans-Serif" font-size="10.00" fill="#000000">DefToXla</text>
</a>
</g>
</g>
<!-- Node145&#45;&gt;Node146 -->
<g id="edge5" class="edge">
<title>Node145&#45;&gt;Node146</title>
<path fill="none" stroke="#191970" d="M444.4693,-70.5C453.2496,-70.5 462.197,-70.5 470.8814,-70.5"/>
<polygon fill="#191970" stroke="#191970" points="444.2643,-67.0001 434.2643,-70.5 444.2642,-74.0001 444.2643,-67.0001"/>
</g>
<!-- Node147 -->
<g id="node7" class="node">
<title>Node147</title>
<g id="a_node7"><a xlink:href="../../d7/d38/namespacetensorflow_1_1tfcompile.html#a021cb1c58d938b16dcd998aa8d1fc191" target="_top" xlink:title="Converts the graph into an XLA computation, and compiles the computation. Called by tensorflow::tfcom...">
<polygon fill="#ffffff" stroke="#000000" points="635,-55.5 635,-85.5 742,-85.5 742,-55.5 635,-55.5"/>
<text text-anchor="start" x="643" y="-73.5" font-family="Helvetica,sans-Serif" font-size="10.00" fill="#000000">tensorflow::tfcompile</text>
<text text-anchor="middle" x="688.5" y="-62.5" font-family="Helvetica,sans-Serif" font-size="10.00" fill="#000000">::CompileGraph</text>
</a>
</g>
</g>
<!-- Node146&#45;&gt;Node147 -->
<g id="edge6" class="edge">
<title>Node146&#45;&gt;Node147</title>
<path fill="none" stroke="#191970" d="M609.2612,-70.5C617.8631,-70.5 626.5067,-70.5 634.7592,-70.5"/>
<polygon fill="#191970" stroke="#191970" points="609.2084,-67.0001 599.2084,-70.5 609.2084,-74.0001 609.2084,-67.0001"/>
</g>
<!-- Node148 -->
<g id="node8" class="node">
<title>Node148</title>
<g id="a_node8"><a xlink:href="../../d7/d38/namespacetensorflow_1_1tfcompile.html#a460964a5bb277865d1275fe3746132c1" target="_top" xlink:title="tensorflow::tfcompile\l::Main">
<polygon fill="#ffffff" stroke="#000000" points="778,-55.5 778,-85.5 885,-85.5 885,-55.5 778,-55.5"/>
<text text-anchor="start" x="786" y="-73.5" font-family="Helvetica,sans-Serif" font-size="10.00" fill="#000000">tensorflow::tfcompile</text>
<text text-anchor="middle" x="831.5" y="-62.5" font-family="Helvetica,sans-Serif" font-size="10.00" fill="#000000">::Main</text>
</a>
</g>
</g>
<!-- Node147&#45;&gt;Node148 -->
<g id="edge7" class="edge">
<title>Node147&#45;&gt;Node148</title>
<path fill="none" stroke="#191970" d="M752.3238,-70.5C760.7452,-70.5 769.3103,-70.5 777.5445,-70.5"/>
<polygon fill="#191970" stroke="#191970" points="752.1548,-67.0001 742.1548,-70.5 752.1547,-74.0001 752.1548,-67.0001"/>
</g>
<!-- Node149 -->
<g id="node9" class="node">
<title>Node149</title>
<g id="a_node9"><a xlink:href="../../d4/d8d/tfcompile__main_8cc.html#a3c04138a5bfe5d72780bb7e82a18e627" target="_top" xlink:title="main">
<polygon fill="#ffffff" stroke="#000000" points="921,-61 921,-80 959,-80 959,-61 921,-61"/>
<text text-anchor="middle" x="940" y="-68" font-family="Helvetica,sans-Serif" font-size="10.00" fill="#000000">main</text>
</a>
</g>
</g>
<!-- Node148&#45;&gt;Node149 -->
<g id="edge8" class="edge">
<title>Node148&#45;&gt;Node149</title>
<path fill="none" stroke="#191970" d="M895.2814,-70.5C904.5615,-70.5 913.4574,-70.5 920.8366,-70.5"/>
<polygon fill="#191970" stroke="#191970" points="895.1143,-67.0001 885.1143,-70.5 895.1142,-74.0001 895.1143,-67.0001"/>
</g>
</g>
</svg>
        <g id="navigator" transform="translate(0 0)" fill="#404254">
                <rect fill="#f2f5e9" fill-opacity="0.5" stroke="#606060" stroke-width=".5" x="0" y="0" width="60" height="60"/>
                <use id="zoomplus" xlink:href="#zoomPlus" x="17" y="9" onmousedown="handleZoom(evt,'in')"/>
                <use id="zoomminus" xlink:href="#zoomMin" x="42" y="9" onmousedown="handleZoom(evt,'out')"/>
                <use id="reset" xlink:href="#resetDef" x="30" y="36" onmousedown="handleReset()"/>
                <g id="arrowUp" xlink:href="#dirArrow" transform="translate(30 24)" onmousedown="handlePan(0,-1)">
                  <use xlink:href="#rim" fill="#404040">
                        <set attributeName="fill" to="#808080" begin="arrowUp.mouseover" end="arrowUp.mouseout"/>
                  </use>
                  <path fill="none" stroke="white" stroke-width="1.5" d="M0,-3.0v7 M-2.5,-0.5L0,-3.0L2.5,-0.5"/>
                </g>
                <g id="arrowRight" xlink:href="#dirArrow" transform="rotate(90) translate(36 -43)" onmousedown="handlePan(1,0)">
                  <use xlink:href="#rim" fill="#404040">
                        <set attributeName="fill" to="#808080" begin="arrowRight.mouseover" end="arrowRight.mouseout"/>
                  </use>
                  <path fill="none" stroke="white" stroke-width="1.5" d="M0,-3.0v7 M-2.5,-0.5L0,-3.0L2.5,-0.5"/>
                </g>
                <g id="arrowDown" xlink:href="#dirArrow" transform="rotate(180) translate(-30 -48)" onmousedown="handlePan(0,1)">
                  <use xlink:href="#rim" fill="#404040">
                        <set attributeName="fill" to="#808080" begin="arrowDown.mouseover" end="arrowDown.mouseout"/>
                  </use>
                  <path fill="none" stroke="white" stroke-width="1.5" d="M0,-3.0v7 M-2.5,-0.5L0,-3.0L2.5,-0.5"/>
                </g>
                <g id="arrowLeft" xlink:href="#dirArrow" transform="rotate(270) translate(-36 17)" onmousedown="handlePan(-1,0)">
                  <use xlink:href="#rim" fill="#404040">
                        <set attributeName="fill" to="#808080" begin="arrowLeft.mouseover" end="arrowLeft.mouseout"/>
                  </use>
                  <path fill="none" stroke="white" stroke-width="1.5" d="M0,-3.0v7 M-2.5,-0.5L0,-3.0L2.5,-0.5"/>
                </g>
        </g>
        <svg viewBox="0 0 15 15" width="100%" height="30px" preserveAspectRatio="xMaxYMin meet">
         <g id="arrow_out" transform="scale(0.3 0.3)">
          <a xlink:href="classtensorflow_1_1XlaCompiler_ae32d4db4084c279f416faca933b1f65f_icgraph_org.svg" target="_base">
           <rect id="button" ry="5" rx="5" y="6" x="6" height="38" width="38"
                fill="#f2f5e9" fill-opacity="0.5" stroke="#606060" stroke-width="1.0"/>
           <path id="arrow"
             d="M 11.500037,31.436501 C 11.940474,20.09759 22.043105,11.32322 32.158766,21.979434 L 37.068811,17.246167 C 37.068811,17.246167 37.088388,32 37.088388,32 L 22.160133,31.978069 C 22.160133,31.978069 26.997745,27.140456 26.997745,27.140456 C 18.528582,18.264221 13.291696,25.230495 11.500037,31.436501 z"
             style="fill:#404040;"/>
          </a>
         </g>
        </svg>
</svg>
