<?xml version="1.0" encoding="UTF-8" standalone="no"?>
<!DOCTYPE svg PUBLIC "-//W3C//DTD SVG 1.1//EN"
 "http://www.w3.org/Graphics/SVG/1.1/DTD/svg11.dtd">
<!-- Generated by graphviz version 2.40.1 (20161225.0304)
 -->
<!-- Title: tensorflow::XlaCompiler::BuildArguments Pages: 1 -->
<svg width="836pt" height="39pt"
 viewBox="0.00 0.00 836.00 39.00" xmlns="http://www.w3.org/2000/svg" xmlns:xlink="http://www.w3.org/1999/xlink">
<g id="graph0" class="graph" transform="scale(1 1) rotate(0) translate(4 35)">
<title>tensorflow::XlaCompiler::BuildArguments</title>
<polygon fill="#ffffff" stroke="transparent" points="-4,4 -4,-35 832,-35 832,4 -4,4"/>
<!-- Node0 -->
<g id="node1" class="node">
<title>Node0</title>
<polygon fill="#bfbfbf" stroke="#000000" points="0,-.5 0,-30.5 133,-30.5 133,-.5 0,-.5"/>
<text text-anchor="start" x="8" y="-18.5" font-family="Helvetica,sans-Serif" font-size="10.00" fill="#000000">tensorflow::XlaCompiler</text>
<text text-anchor="middle" x="66.5" y="-7.5" font-family="Helvetica,sans-Serif" font-size="10.00" fill="#000000">::BuildArguments</text>
</g>
<!-- Node1 -->
<g id="node2" class="node">
<title>Node1</title>
<g id="a_node2"><a xlink:href="../../df/d1b/classxla_1_1ComputationBuilder.html#a7312b57426afbc7bcb728307fc020869" target="_top" xlink:title="Enqueues a &quot;retrieve parameter value&quot; instruction to the UserComputation. ">
<polygon fill="#ffffff" stroke="#000000" points="169,-.5 169,-30.5 304,-30.5 304,-.5 169,-.5"/>
<text text-anchor="start" x="177" y="-18.5" font-family="Helvetica,sans-Serif" font-size="10.00" fill="#000000">xla::ComputationBuilder</text>
<text text-anchor="middle" x="236.5" y="-7.5" font-family="Helvetica,sans-Serif" font-size="10.00" fill="#000000">::Parameter</text>
</a>
</g>
</g>
<!-- Node0&#45;&gt;Node1 -->
<g id="edge1" class="edge">
<title>Node0&#45;&gt;Node1</title>
<path fill="none" stroke="#191970" d="M133.2006,-15.5C141.5332,-15.5 150.1121,-15.5 158.596,-15.5"/>
<polygon fill="#191970" stroke="#191970" points="158.8746,-19.0001 168.8746,-15.5 158.8745,-12.0001 158.8746,-19.0001"/>
</g>
<!-- Node2 -->
<g id="node3" class="node">
<title>Node2</title>
<g id="a_node3"><a xlink:href="../../df/d1b/classxla_1_1ComputationBuilder.html#a584f43dacccc04122c79a7e4ad2770d0" target="_top" xlink:title="Call RunOp() and either return the output ComputationDataHandle (on success) or an empty ComputationD...">
<polygon fill="#ffffff" stroke="#000000" points="340,-.5 340,-30.5 486,-30.5 486,-.5 340,-.5"/>
<text text-anchor="start" x="348" y="-18.5" font-family="Helvetica,sans-Serif" font-size="10.00" fill="#000000">xla::ComputationBuilder</text>
<text text-anchor="middle" x="413" y="-7.5" font-family="Helvetica,sans-Serif" font-size="10.00" fill="#000000">::RunOpAndParseResponse</text>
</a>
</g>
</g>
<!-- Node1&#45;&gt;Node2 -->
<g id="edge2" class="edge">
<title>Node1&#45;&gt;Node2</title>
<path fill="none" stroke="#191970" d="M304.2347,-15.5C312.6195,-15.5 321.2658,-15.5 329.8477,-15.5"/>
<polygon fill="#191970" stroke="#191970" points="329.8729,-19.0001 339.8728,-15.5 329.8728,-12.0001 329.8729,-19.0001"/>
</g>
<!-- Node3 -->
<g id="node4" class="node">
<title>Node3</title>
<g id="a_node4"><a xlink:href="../../df/d1b/classxla_1_1ComputationBuilder.html#a7d2ff8c5c638378bb6fb998a71661d22" target="_top" xlink:title="Run the given parameter op_request and fill in op_response. ">
<polygon fill="#ffffff" stroke="#000000" points="522,-.5 522,-30.5 657,-30.5 657,-.5 522,-.5"/>
<text text-anchor="start" x="530" y="-18.5" font-family="Helvetica,sans-Serif" font-size="10.00" fill="#000000">xla::ComputationBuilder</text>
<text text-anchor="middle" x="589.5" y="-7.5" font-family="Helvetica,sans-Serif" font-size="10.00" fill="#000000">::RunOp</text>
</a>
</g>
</g>
<!-- Node2&#45;&gt;Node3 -->
<g id="edge3" class="edge">
<title>Node2&#45;&gt;Node3</title>
<path fill="none" stroke="#191970" d="M486.0634,-15.5C494.4912,-15.5 503.1096,-15.5 511.5984,-15.5"/>
<polygon fill="#191970" stroke="#191970" points="511.8673,-19.0001 521.8672,-15.5 511.8672,-12.0001 511.8673,-19.0001"/>
</g>
<!-- Node4 -->
<g id="node5" class="node">
<title>Node4</title>
<g id="a_node5"><a xlink:href="../../df/d1b/classxla_1_1ComputationBuilder.html#af5ca3f8bbbe525f593293b55df772f1a" target="_top" xlink:title="Populates computation_ with a valid object. Used before any given operation is enqueued. ">
<polygon fill="#ffffff" stroke="#000000" points="693,-.5 693,-30.5 828,-30.5 828,-.5 693,-.5"/>
<text text-anchor="start" x="701" y="-18.5" font-family="Helvetica,sans-Serif" font-size="10.00" fill="#000000">xla::ComputationBuilder</text>
<text text-anchor="middle" x="760.5" y="-7.5" font-family="Helvetica,sans-Serif" font-size="10.00" fill="#000000">::PrepareComputation</text>
</a>
</g>
</g>
<!-- Node3&#45;&gt;Node4 -->
<g id="edge4" class="edge">
<title>Node3&#45;&gt;Node4</title>
<path fill="none" stroke="#191970" d="M657.0837,-15.5C665.5381,-15.5 674.2372,-15.5 682.83,-15.5"/>
<polygon fill="#191970" stroke="#191970" points="682.8472,-19.0001 692.8472,-15.5 682.8472,-12.0001 682.8472,-19.0001"/>
</g>
</g>
</svg>
