<?xml version="1.0" encoding="UTF-8" standalone="no"?>
<!DOCTYPE svg PUBLIC "-//W3C//DTD SVG 1.1//EN"
 "http://www.w3.org/Graphics/SVG/1.1/DTD/svg11.dtd">
<!-- Generated by graphviz version 2.40.1 (20161225.0304)
 -->
<!-- Title: tensorflow::XlaCompiler::flib_runtime Pages: 1 -->
<svg width="622pt" height="39pt"
 viewBox="0.00 0.00 622.00 39.00" xmlns="http://www.w3.org/2000/svg" xmlns:xlink="http://www.w3.org/1999/xlink">
<g id="graph0" class="graph" transform="scale(1 1) rotate(0) translate(4 35)">
<title>tensorflow::XlaCompiler::flib_runtime</title>
<polygon fill="#ffffff" stroke="transparent" points="-4,4 -4,-35 618,-35 618,4 -4,4"/>
<!-- Node117 -->
<g id="node1" class="node">
<title>Node117</title>
<polygon fill="#bfbfbf" stroke="#000000" points="0,-.5 0,-30.5 121,-30.5 121,-.5 0,-.5"/>
<text text-anchor="start" x="8" y="-18.5" font-family="Helvetica,sans-Serif" font-size="10.00" fill="#000000">tensorflow::XlaCompiler</text>
<text text-anchor="middle" x="60.5" y="-7.5" font-family="Helvetica,sans-Serif" font-size="10.00" fill="#000000">::flib_runtime</text>
</g>
<!-- Node118 -->
<g id="node2" class="node">
<title>Node118</title>
<g id="a_node2"><a xlink:href="../../de/d86/namespacetensorflow.html#a1be38bc1834820c78b21c2ee9b648416" target="_top" xlink:title="tensorflow::GetFunctionBody">
<polygon fill="#ffffff" stroke="#000000" points="157,-6 157,-25 300,-25 300,-6 157,-6"/>
<text text-anchor="middle" x="228.5" y="-13" font-family="Helvetica,sans-Serif" font-size="10.00" fill="#000000">tensorflow::GetFunctionBody</text>
</a>
</g>
</g>
<!-- Node117&#45;&gt;Node118 -->
<g id="edge1" class="edge">
<title>Node117&#45;&gt;Node118</title>
<path fill="none" stroke="#191970" d="M131.314,-15.5C139.7383,-15.5 148.344,-15.5 156.7808,-15.5"/>
<polygon fill="#191970" stroke="#191970" points="131.1519,-12.0001 121.1519,-15.5 131.1518,-19.0001 131.1519,-12.0001"/>
</g>
<!-- Node119 -->
<g id="node3" class="node">
<title>Node119</title>
<g id="a_node3"><a xlink:href="../../d7/dbf/classtensorflow_1_1XlaCompiler.html#a11bad5ab2e4c3e68eb7b05e61e7e7af5" target="_top" xlink:title="tensorflow::XlaCompiler\l::FindFunctionBody">
<polygon fill="#ffffff" stroke="#000000" points="336,-.5 336,-30.5 457,-30.5 457,-.5 336,-.5"/>
<text text-anchor="start" x="344" y="-18.5" font-family="Helvetica,sans-Serif" font-size="10.00" fill="#000000">tensorflow::XlaCompiler</text>
<text text-anchor="middle" x="396.5" y="-7.5" font-family="Helvetica,sans-Serif" font-size="10.00" fill="#000000">::FindFunctionBody</text>
</a>
</g>
</g>
<!-- Node118&#45;&gt;Node119 -->
<g id="edge2" class="edge">
<title>Node118&#45;&gt;Node119</title>
<path fill="none" stroke="#191970" d="M310.2999,-15.5C318.9048,-15.5 327.5404,-15.5 335.8454,-15.5"/>
<polygon fill="#191970" stroke="#191970" points="310.2345,-12.0001 300.2344,-15.5 310.2344,-19.0001 310.2345,-12.0001"/>
</g>
<!-- Node120 -->
<g id="node4" class="node">
<title>Node120</title>
<g id="a_node4"><a xlink:href="../../d7/dbf/classtensorflow_1_1XlaCompiler.html#a7dc00dad25b347e8ab8b15f68cba4be0" target="_top" xlink:title="tensorflow::XlaCompiler\l::CompileFunction">
<polygon fill="#ffffff" stroke="#000000" points="493,-.5 493,-30.5 614,-30.5 614,-.5 493,-.5"/>
<text text-anchor="start" x="501" y="-18.5" font-family="Helvetica,sans-Serif" font-size="10.00" fill="#000000">tensorflow::XlaCompiler</text>
<text text-anchor="middle" x="553.5" y="-7.5" font-family="Helvetica,sans-Serif" font-size="10.00" fill="#000000">::CompileFunction</text>
</a>
</g>
</g>
<!-- Node119&#45;&gt;Node120 -->
<g id="edge3" class="edge">
<title>Node119&#45;&gt;Node120</title>
<path fill="none" stroke="#191970" d="M467.2098,-15.5C475.807,-15.5 484.5301,-15.5 492.9611,-15.5"/>
<polygon fill="#191970" stroke="#191970" points="467.2003,-12.0001 457.2003,-15.5 467.2003,-19.0001 467.2003,-12.0001"/>
</g>
</g>
</svg>
