<?xml version="1.0" encoding="UTF-8" standalone="no"?>
<!DOCTYPE svg PUBLIC "-//W3C//DTD SVG 1.1//EN"
 "http://www.w3.org/Graphics/SVG/1.1/DTD/svg11.dtd">
<!-- Generated by graphviz version 2.40.1 (20161225.0304)
 -->
<!-- Title: tensorflow::XlaCompiler::FindFunctionBody Pages: 1 -->
<svg width="465pt" height="39pt"
 viewBox="0.00 0.00 465.00 39.00" xmlns="http://www.w3.org/2000/svg" xmlns:xlink="http://www.w3.org/1999/xlink">
<g id="graph0" class="graph" transform="scale(1 1) rotate(0) translate(4 35)">
<title>tensorflow::XlaCompiler::FindFunctionBody</title>
<polygon fill="#ffffff" stroke="transparent" points="-4,4 -4,-35 461,-35 461,4 -4,4"/>
<!-- Node111 -->
<g id="node1" class="node">
<title>Node111</title>
<polygon fill="#bfbfbf" stroke="#000000" points="0,-.5 0,-30.5 121,-30.5 121,-.5 0,-.5"/>
<text text-anchor="start" x="8" y="-18.5" font-family="Helvetica,sans-Serif" font-size="10.00" fill="#000000">tensorflow::XlaCompiler</text>
<text text-anchor="middle" x="60.5" y="-7.5" font-family="Helvetica,sans-Serif" font-size="10.00" fill="#000000">::FindFunctionBody</text>
</g>
<!-- Node112 -->
<g id="node2" class="node">
<title>Node112</title>
<g id="a_node2"><a xlink:href="../../de/d86/namespacetensorflow.html#a1be38bc1834820c78b21c2ee9b648416" target="_top" xlink:title="tensorflow::GetFunctionBody">
<polygon fill="#ffffff" stroke="#000000" points="157,-6 157,-25 300,-25 300,-6 157,-6"/>
<text text-anchor="middle" x="228.5" y="-13" font-family="Helvetica,sans-Serif" font-size="10.00" fill="#000000">tensorflow::GetFunctionBody</text>
</a>
</g>
</g>
<!-- Node111&#45;&gt;Node112 -->
<g id="edge1" class="edge">
<title>Node111&#45;&gt;Node112</title>
<path fill="none" stroke="#191970" d="M121.1519,-15.5C129.4609,-15.5 138.1011,-15.5 146.7103,-15.5"/>
<polygon fill="#191970" stroke="#191970" points="146.7808,-19.0001 156.7808,-15.5 146.7808,-12.0001 146.7808,-19.0001"/>
</g>
<!-- Node113 -->
<g id="node3" class="node">
<title>Node113</title>
<g id="a_node3"><a xlink:href="../../d7/dbf/classtensorflow_1_1XlaCompiler.html#ae52fa23cfbf27a3760562e08dcc619a8" target="_top" xlink:title="tensorflow::XlaCompiler\l::flib_runtime">
<polygon fill="#ffffff" stroke="#000000" points="336,-.5 336,-30.5 457,-30.5 457,-.5 336,-.5"/>
<text text-anchor="start" x="344" y="-18.5" font-family="Helvetica,sans-Serif" font-size="10.00" fill="#000000">tensorflow::XlaCompiler</text>
<text text-anchor="middle" x="396.5" y="-7.5" font-family="Helvetica,sans-Serif" font-size="10.00" fill="#000000">::flib_runtime</text>
</a>
</g>
</g>
<!-- Node112&#45;&gt;Node113 -->
<g id="edge2" class="edge">
<title>Node112&#45;&gt;Node113</title>
<path fill="none" stroke="#191970" d="M300.2344,-15.5C308.6671,-15.5 317.2684,-15.5 325.6883,-15.5"/>
<polygon fill="#191970" stroke="#191970" points="325.8454,-19.0001 335.8454,-15.5 325.8453,-12.0001 325.8454,-19.0001"/>
</g>
</g>
</svg>
