<?xml version="1.0" encoding="UTF-8" standalone="no"?>
<!DOCTYPE svg PUBLIC "-//W3C//DTD SVG 1.1//EN"
 "http://www.w3.org/Graphics/SVG/1.1/DTD/svg11.dtd">
<!-- Generated by graphviz version 2.40.1 (20161225.0304)
 -->
<!-- Title: tensorflow/tensorflow/compiler/xla/service/hlo_scheduling.cc Pages: 1 -->
<svg width="3117pt" height="496pt"
 viewBox="0.00 0.00 3117.00 496.00" xmlns="http://www.w3.org/2000/svg" xmlns:xlink="http://www.w3.org/1999/xlink">
<g id="graph0" class="graph" transform="scale(1 1) rotate(0) translate(4 492)">
<title>tensorflow/tensorflow/compiler/xla/service/hlo_scheduling.cc</title>
<polygon fill="#ffffff" stroke="transparent" points="-4,4 -4,-492 3113,-492 3113,4 -4,4"/>
<!-- Node0 -->
<g id="node1" class="node">
<title>Node0</title>
<polygon fill="#bfbfbf" stroke="#000000" points="2041,-446.5 2041,-487.5 2163,-487.5 2163,-446.5 2041,-446.5"/>
<text text-anchor="start" x="2049" y="-475.5" font-family="Helvetica,sans-Serif" font-size="10.00" fill="#000000">tensorflow/tensorflow</text>
<text text-anchor="start" x="2049" y="-464.5" font-family="Helvetica,sans-Serif" font-size="10.00" fill="#000000">/compiler/xla/service</text>
<text text-anchor="middle" x="2102" y="-453.5" font-family="Helvetica,sans-Serif" font-size="10.00" fill="#000000">/hlo_scheduling.cc</text>
</g>
<!-- Node1 -->
<g id="node2" class="node">
<title>Node1</title>
<g id="a_node2"><a xlink:href="../../db/da3/hlo__scheduling_8h.html" target="_top" xlink:title="tensorflow/compiler\l/xla/service/hlo_scheduling.h">
<polygon fill="#ffffff" stroke="#000000" points="1351,-379.5 1351,-409.5 1509,-409.5 1509,-379.5 1351,-379.5"/>
<text text-anchor="start" x="1359" y="-397.5" font-family="Helvetica,sans-Serif" font-size="10.00" fill="#000000">tensorflow/compiler</text>
<text text-anchor="middle" x="1430" y="-386.5" font-family="Helvetica,sans-Serif" font-size="10.00" fill="#000000">/xla/service/hlo_scheduling.h</text>
</a>
</g>
</g>
<!-- Node0&#45;&gt;Node1 -->
<g id="edge1" class="edge">
<title>Node0&#45;&gt;Node1</title>
<path fill="none" stroke="#191970" d="M2040.9927,-462.3473C1935.2662,-453.982 1711.2498,-434.9252 1523,-410 1521.7221,-409.8308 1520.4349,-409.6573 1519.14,-409.4801"/>
<polygon fill="#191970" stroke="#191970" points="1519.4867,-405.9942 1509.0937,-408.0527 1518.502,-412.9246 1519.4867,-405.9942"/>
</g>
<!-- Node2 -->
<g id="node3" class="node">
<title>Node2</title>
<polygon fill="#ffffff" stroke="#bfbfbf" points="342.5,-11.5 342.5,-30.5 389.5,-30.5 389.5,-11.5 342.5,-11.5"/>
<text text-anchor="middle" x="366" y="-18.5" font-family="Helvetica,sans-Serif" font-size="10.00" fill="#000000">vector</text>
</g>
<!-- Node0&#45;&gt;Node2 -->
<g id="edge105" class="edge">
<title>Node0&#45;&gt;Node2</title>
<path fill="none" stroke="#191970" d="M2040.5767,-464.7463C1750.0652,-453.8025 521.3752,-404.2271 362,-343 309.3835,-322.7864 289.9061,-313.9728 262,-265 237.9149,-222.7327 244.4857,-204.064 252,-156 257.623,-120.0331 254.8051,-106.8552 277,-78 277.2955,-77.6158 316.018,-52.8786 342.2829,-36.1221"/>
<polygon fill="#191970" stroke="#191970" points="344.4214,-38.9095 350.9702,-30.581 340.6571,-33.0078 344.4214,-38.9095"/>
</g>
<!-- Node21 -->
<g id="node21" class="node">
<title>Node21</title>
<polygon fill="#ffffff" stroke="#bfbfbf" points="56.5,-6 56.5,-36 169.5,-36 169.5,-6 56.5,-6"/>
<text text-anchor="start" x="64.5" y="-24" font-family="Helvetica,sans-Serif" font-size="10.00" fill="#000000">tensorflow/compiler</text>
<text text-anchor="middle" x="113" y="-13" font-family="Helvetica,sans-Serif" font-size="10.00" fill="#000000">/xla/types.h</text>
</g>
<!-- Node0&#45;&gt;Node21 -->
<g id="edge112" class="edge">
<title>Node0&#45;&gt;Node21</title>
<path fill="none" stroke="#191970" d="M2040.5154,-466.0989C1739.5218,-461.5545 428.6324,-440.1736 249,-410 133.2471,-390.5565 0,-439.3746 0,-322 0,-322 0,-322 0,-171.5 0,-116.3786 49.0732,-68.5482 82.5415,-42.3373"/>
<polygon fill="#191970" stroke="#191970" points="84.8365,-44.9891 90.6748,-36.148 80.5974,-39.4185 84.8365,-44.9891"/>
</g>
<!-- Node29 -->
<g id="node26" class="node">
<title>Node29</title>
<polygon fill="#ffffff" stroke="#bfbfbf" points="187.5,-6 187.5,-36 324.5,-36 324.5,-6 187.5,-6"/>
<text text-anchor="start" x="195.5" y="-24" font-family="Helvetica,sans-Serif" font-size="10.00" fill="#000000">tensorflow/core/platform</text>
<text text-anchor="middle" x="256" y="-13" font-family="Helvetica,sans-Serif" font-size="10.00" fill="#000000">/logging.h</text>
</g>
<!-- Node0&#45;&gt;Node29 -->
<g id="edge117" class="edge">
<title>Node0&#45;&gt;Node29</title>
<path fill="none" stroke="#191970" d="M2040.7886,-465.9831C1698.6117,-459.9067 38,-425.1064 38,-322 38,-322 38,-322 38,-244 38,-144.6633 149.9793,-73.1693 213.4256,-40.6338"/>
<polygon fill="#191970" stroke="#191970" points="215.0508,-43.7343 222.4153,-36.1175 211.9083,-37.4793 215.0508,-43.7343"/>
</g>
<!-- Node35 -->
<g id="node30" class="node">
<title>Node35</title>
<g id="a_node30"><a xlink:href="../../d2/d31/hlo__computation_8h.html" target="_top" xlink:title="tensorflow/compiler\l/xla/service/hlo_computation.h">
<polygon fill="#ffffff" stroke="#000000" points="1564.5,-156.5 1564.5,-186.5 1731.5,-186.5 1731.5,-156.5 1564.5,-156.5"/>
<text text-anchor="start" x="1572.5" y="-174.5" font-family="Helvetica,sans-Serif" font-size="10.00" fill="#000000">tensorflow/compiler</text>
<text text-anchor="middle" x="1648" y="-163.5" font-family="Helvetica,sans-Serif" font-size="10.00" fill="#000000">/xla/service/hlo_computation.h</text>
</a>
</g>
</g>
<!-- Node0&#45;&gt;Node35 -->
<g id="edge107" class="edge">
<title>Node0&#45;&gt;Node35</title>
<path fill="none" stroke="#191970" d="M2040.9049,-453.5783C1910.7688,-423.6214 1613.3921,-347.4268 1556,-265 1545.3337,-249.6809 1546.5596,-239.1035 1556,-223 1564.0495,-209.2692 1577.2447,-198.9245 1591.1615,-191.2498"/>
<polygon fill="#191970" stroke="#191970" points="1593.0283,-194.2275 1600.3642,-186.5832 1589.8624,-187.9843 1593.0283,-194.2275"/>
</g>
<!-- Node36 -->
<g id="node31" class="node">
<title>Node36</title>
<polygon fill="#ffffff" stroke="#bfbfbf" points="1980.5,-89.5 1980.5,-108.5 2025.5,-108.5 2025.5,-89.5 1980.5,-89.5"/>
<text text-anchor="middle" x="2003" y="-96.5" font-family="Helvetica,sans-Serif" font-size="10.00" fill="#000000">utility</text>
</g>
<!-- Node0&#45;&gt;Node36 -->
<g id="edge104" class="edge">
<title>Node0&#45;&gt;Node36</title>
<path fill="none" stroke="#191970" d="M2075.9889,-446.4467C2046.6569,-420.7575 2003,-373.8185 2003,-322 2003,-322 2003,-322 2003,-244 2003,-199.0858 2003,-146.3458 2003,-118.5047"/>
<polygon fill="#191970" stroke="#191970" points="2006.5001,-118.5005 2003,-108.5005 1999.5001,-118.5005 2006.5001,-118.5005"/>
</g>
<!-- Node40 -->
<g id="node35" class="node">
<title>Node40</title>
<polygon fill="#ffffff" stroke="#bfbfbf" points="2676.5,-84 2676.5,-114 2789.5,-114 2789.5,-84 2676.5,-84"/>
<text text-anchor="start" x="2684.5" y="-102" font-family="Helvetica,sans-Serif" font-size="10.00" fill="#000000">tensorflow/compiler</text>
<text text-anchor="middle" x="2733" y="-91" font-family="Helvetica,sans-Serif" font-size="10.00" fill="#000000">/xla/statusor.h</text>
</g>
<!-- Node0&#45;&gt;Node40 -->
<g id="edge111" class="edge">
<title>Node0&#45;&gt;Node40</title>
<path fill="none" stroke="#191970" d="M2093.6471,-446.4033C2087.112,-426.5498 2081.5962,-396.9505 2098,-379 2128.0282,-346.1405 2453.415,-352.0438 2497,-343 2605.1653,-320.556 2657.5951,-345.7314 2733,-265 2766.6196,-229.0055 2761.271,-204.5538 2753,-156 2751.1439,-145.1043 2747.4265,-133.5193 2743.6947,-123.6591"/>
<polygon fill="#191970" stroke="#191970" points="2746.8394,-122.0963 2739.8782,-114.1093 2740.3393,-124.6941 2746.8394,-122.0963"/>
</g>
<!-- Node51 -->
<g id="node39" class="node">
<title>Node51</title>
<g id="a_node39"><a xlink:href="../../df/d8a/tuple__points__to__analysis_8h.html" target="_top" xlink:title="tensorflow/compiler\l/xla/service/tuple_points\l_to_analysis.h">
<polygon fill="#ffffff" stroke="#000000" points="2094,-301.5 2094,-342.5 2230,-342.5 2230,-301.5 2094,-301.5"/>
<text text-anchor="start" x="2102" y="-330.5" font-family="Helvetica,sans-Serif" font-size="10.00" fill="#000000">tensorflow/compiler</text>
<text text-anchor="start" x="2102" y="-319.5" font-family="Helvetica,sans-Serif" font-size="10.00" fill="#000000">/xla/service/tuple_points</text>
<text text-anchor="middle" x="2162" y="-308.5" font-family="Helvetica,sans-Serif" font-size="10.00" fill="#000000">_to_analysis.h</text>
</a>
</g>
</g>
<!-- Node0&#45;&gt;Node51 -->
<g id="edge108" class="edge">
<title>Node0&#45;&gt;Node51</title>
<path fill="none" stroke="#191970" d="M2082.7347,-446.4149C2068.0818,-428.1429 2052.4058,-401.0084 2065,-379 2072.37,-366.121 2083.9079,-355.8662 2096.491,-347.8122"/>
<polygon fill="#191970" stroke="#191970" points="2098.5062,-350.6867 2105.331,-342.5829 2094.9421,-344.662 2098.5062,-350.6867"/>
</g>
<!-- Node55 -->
<g id="node43" class="node">
<title>Node55</title>
<polygon fill="#ffffff" stroke="#bfbfbf" points="2107,-385 2107,-404 2145,-404 2145,-385 2107,-385"/>
<text text-anchor="middle" x="2126" y="-392" font-family="Helvetica,sans-Serif" font-size="10.00" fill="#000000">map</text>
</g>
<!-- Node0&#45;&gt;Node55 -->
<g id="edge103" class="edge">
<title>Node0&#45;&gt;Node55</title>
<path fill="none" stroke="#191970" d="M2108.8132,-446.4183C2112.228,-436.1029 2116.3367,-423.6913 2119.6804,-413.5904"/>
<polygon fill="#191970" stroke="#191970" points="2123.0069,-414.6787 2122.8269,-404.0853 2116.3615,-412.4788 2123.0069,-414.6787"/>
</g>
<!-- Node56 -->
<g id="node44" class="node">
<title>Node56</title>
<polygon fill="#ffffff" stroke="#bfbfbf" points="2163,-379.5 2163,-409.5 2323,-409.5 2323,-379.5 2163,-379.5"/>
<text text-anchor="start" x="2171" y="-397.5" font-family="Helvetica,sans-Serif" font-size="10.00" fill="#000000">tensorflow/compiler</text>
<text text-anchor="middle" x="2243" y="-386.5" font-family="Helvetica,sans-Serif" font-size="10.00" fill="#000000">/xla/service/heap_simulator.h</text>
</g>
<!-- Node0&#45;&gt;Node56 -->
<g id="edge106" class="edge">
<title>Node0&#45;&gt;Node56</title>
<path fill="none" stroke="#191970" d="M2142.0278,-446.4183C2161.6189,-436.3449 2185.0975,-424.2726 2204.4824,-414.3051"/>
<polygon fill="#191970" stroke="#191970" points="2206.3421,-417.2846 2213.6348,-409.5991 2203.1411,-411.0593 2206.3421,-417.2846"/>
</g>
<!-- Node57 -->
<g id="node45" class="node">
<title>Node57</title>
<polygon fill="#ffffff" stroke="#bfbfbf" points="2341.5,-379.5 2341.5,-409.5 2454.5,-409.5 2454.5,-379.5 2341.5,-379.5"/>
<text text-anchor="start" x="2349.5" y="-397.5" font-family="Helvetica,sans-Serif" font-size="10.00" fill="#000000">tensorflow/compiler</text>
<text text-anchor="middle" x="2398" y="-386.5" font-family="Helvetica,sans-Serif" font-size="10.00" fill="#000000">/xla/shape_util.h</text>
</g>
<!-- Node0&#45;&gt;Node57 -->
<g id="edge109" class="edge">
<title>Node0&#45;&gt;Node57</title>
<path fill="none" stroke="#191970" d="M2163.3314,-451.978C2212.386,-439.9629 2281.0541,-423.1438 2331.4376,-410.8033"/>
<polygon fill="#191970" stroke="#191970" points="2332.3791,-414.1762 2341.2593,-408.3976 2330.7137,-407.3772 2332.3791,-414.1762"/>
</g>
<!-- Node58 -->
<g id="node46" class="node">
<title>Node58</title>
<polygon fill="#ffffff" stroke="#bfbfbf" points="2473,-379.5 2473,-409.5 2591,-409.5 2591,-379.5 2473,-379.5"/>
<text text-anchor="start" x="2481" y="-397.5" font-family="Helvetica,sans-Serif" font-size="10.00" fill="#000000">tensorflow/compiler</text>
<text text-anchor="middle" x="2532" y="-386.5" font-family="Helvetica,sans-Serif" font-size="10.00" fill="#000000">/xla/status_macros.h</text>
</g>
<!-- Node0&#45;&gt;Node58 -->
<g id="edge110" class="edge">
<title>Node0&#45;&gt;Node58</title>
<path fill="none" stroke="#191970" d="M2163.0678,-458.6761C2233.0947,-448.8415 2351.5363,-431.3256 2462.6709,-410.1873"/>
<polygon fill="#191970" stroke="#191970" points="2463.5491,-413.5828 2472.7119,-408.2636 2462.2319,-406.7078 2463.5491,-413.5828"/>
</g>
<!-- Node59 -->
<g id="node47" class="node">
<title>Node59</title>
<polygon fill="#ffffff" stroke="#bfbfbf" points="2609.5,-379.5 2609.5,-409.5 2722.5,-409.5 2722.5,-379.5 2609.5,-379.5"/>
<text text-anchor="start" x="2617.5" y="-397.5" font-family="Helvetica,sans-Serif" font-size="10.00" fill="#000000">tensorflow/compiler</text>
<text text-anchor="middle" x="2666" y="-386.5" font-family="Helvetica,sans-Serif" font-size="10.00" fill="#000000">/xla/util.h</text>
</g>
<!-- Node0&#45;&gt;Node59 -->
<g id="edge113" class="edge">
<title>Node0&#45;&gt;Node59</title>
<path fill="none" stroke="#191970" d="M2163.2754,-462.3045C2255.6419,-454.7161 2436.1523,-437.9021 2599.0003,-410.0464"/>
<polygon fill="#191970" stroke="#191970" points="2599.9473,-413.4347 2609.2049,-408.2822 2598.7548,-406.537 2599.9473,-413.4347"/>
</g>
<!-- Node60 -->
<g id="node48" class="node">
<title>Node60</title>
<polygon fill="#ffffff" stroke="#bfbfbf" points="2740.5,-379.5 2740.5,-409.5 2847.5,-409.5 2847.5,-379.5 2740.5,-379.5"/>
<text text-anchor="start" x="2748.5" y="-397.5" font-family="Helvetica,sans-Serif" font-size="10.00" fill="#000000">tensorflow/core/lib</text>
<text text-anchor="middle" x="2794" y="-386.5" font-family="Helvetica,sans-Serif" font-size="10.00" fill="#000000">/core/errors.h</text>
</g>
<!-- Node0&#45;&gt;Node60 -->
<g id="edge114" class="edge">
<title>Node0&#45;&gt;Node60</title>
<path fill="none" stroke="#191970" d="M2163.2203,-464.6097C2274.5143,-459.5788 2517.4348,-445.4433 2730.2292,-410.1517"/>
<polygon fill="#191970" stroke="#191970" points="2731.0561,-413.562 2740.3389,-408.4551 2729.8975,-406.6585 2731.0561,-413.562"/>
</g>
<!-- Node61 -->
<g id="node49" class="node">
<title>Node61</title>
<polygon fill="#ffffff" stroke="#bfbfbf" points="2865.5,-379.5 2865.5,-409.5 2972.5,-409.5 2972.5,-379.5 2865.5,-379.5"/>
<text text-anchor="start" x="2873.5" y="-397.5" font-family="Helvetica,sans-Serif" font-size="10.00" fill="#000000">tensorflow/core/lib</text>
<text text-anchor="middle" x="2919" y="-386.5" font-family="Helvetica,sans-Serif" font-size="10.00" fill="#000000">/strings/str_util.h</text>
</g>
<!-- Node0&#45;&gt;Node61 -->
<g id="edge115" class="edge">
<title>Node0&#45;&gt;Node61</title>
<path fill="none" stroke="#191970" d="M2163.0869,-465.8936C2290.4334,-462.8297 2593.5351,-451.5892 2855.2714,-410.1196"/>
<polygon fill="#191970" stroke="#191970" points="2856.027,-413.5433 2865.3471,-408.5048 2854.9192,-406.6315 2856.027,-413.5433"/>
</g>
<!-- Node62 -->
<g id="node50" class="node">
<title>Node62</title>
<polygon fill="#ffffff" stroke="#bfbfbf" points="2991,-379.5 2991,-409.5 3109,-409.5 3109,-379.5 2991,-379.5"/>
<text text-anchor="start" x="2999" y="-397.5" font-family="Helvetica,sans-Serif" font-size="10.00" fill="#000000">tensorflow/core/lib</text>
<text text-anchor="middle" x="3050" y="-386.5" font-family="Helvetica,sans-Serif" font-size="10.00" fill="#000000">/strings/stringprintf.h</text>
</g>
<!-- Node0&#45;&gt;Node62 -->
<g id="edge116" class="edge">
<title>Node0&#45;&gt;Node62</title>
<path fill="none" stroke="#191970" d="M2163.1611,-466.3855C2305.2773,-464.2379 2668.7973,-454.601 2980.6267,-410.0502"/>
<polygon fill="#191970" stroke="#191970" points="2981.3691,-413.4795 2990.7664,-408.5866 2980.3689,-406.5513 2981.3691,-413.4795"/>
</g>
<!-- Node1&#45;&gt;Node2 -->
<g id="edge2" class="edge">
<title>Node1&#45;&gt;Node2</title>
<path fill="none" stroke="#191970" d="M1350.9087,-392.6089C1088.9233,-385.3088 266,-353.6513 266,-244 266,-244 266,-244 266,-171.5 266,-114.6815 316.0562,-62.927 345.3387,-37.5122"/>
<polygon fill="#191970" stroke="#191970" points="347.9417,-39.8957 353.3349,-30.7763 343.4319,-34.5421 347.9417,-39.8957"/>
</g>
<!-- Node3 -->
<g id="node4" class="node">
<title>Node3</title>
<g id="a_node4"><a xlink:href="../../dd/d66/hlo__instruction_8h.html" target="_top" xlink:title="tensorflow/compiler\l/xla/service/hlo_instruction.h">
<polygon fill="#ffffff" stroke="#ff0000" points="1168.5,-84 1168.5,-114 1325.5,-114 1325.5,-84 1168.5,-84"/>
<text text-anchor="start" x="1176.5" y="-102" font-family="Helvetica,sans-Serif" font-size="10.00" fill="#000000">tensorflow/compiler</text>
<text text-anchor="middle" x="1247" y="-91" font-family="Helvetica,sans-Serif" font-size="10.00" fill="#000000">/xla/service/hlo_instruction.h</text>
</a>
</g>
</g>
<!-- Node1&#45;&gt;Node3 -->
<g id="edge3" class="edge">
<title>Node1&#45;&gt;Node3</title>
<path fill="none" stroke="#191970" d="M1420.6734,-379.4399C1390.8754,-331.3234 1297.8106,-181.0466 1261.611,-122.5931"/>
<polygon fill="#191970" stroke="#191970" points="1264.5485,-120.6888 1256.3078,-114.0298 1258.5973,-124.3743 1264.5485,-120.6888"/>
</g>
<!-- Node1&#45;&gt;Node21 -->
<g id="edge102" class="edge">
<title>Node1&#45;&gt;Node21</title>
<path fill="none" stroke="#191970" d="M1350.6628,-393.5874C1136.7276,-390.6622 551.3459,-379.4656 362,-343 257.6589,-322.9052 209.8544,-341.3963 136,-265 78.4168,-205.4349 95.1232,-95.3239 106.4226,-46.0161"/>
<polygon fill="#191970" stroke="#191970" points="109.8507,-46.7299 108.791,-36.1882 103.0455,-45.0898 109.8507,-46.7299"/>
</g>
<!-- Node32 -->
<g id="node29" class="node">
<title>Node32</title>
<g id="a_node29"><a xlink:href="../../db/da0/hlo__module_8h.html" target="_top" xlink:title="tensorflow/compiler\l/xla/service/hlo_module.h">
<polygon fill="#ffffff" stroke="#ff0000" points="822,-229 822,-259 964,-259 964,-229 822,-229"/>
<text text-anchor="start" x="830" y="-247" font-family="Helvetica,sans-Serif" font-size="10.00" fill="#000000">tensorflow/compiler</text>
<text text-anchor="middle" x="893" y="-236" font-family="Helvetica,sans-Serif" font-size="10.00" fill="#000000">/xla/service/hlo_module.h</text>
</a>
</g>
</g>
<!-- Node1&#45;&gt;Node32 -->
<g id="edge29" class="edge">
<title>Node1&#45;&gt;Node32</title>
<path fill="none" stroke="#191970" d="M1350.6196,-392.0858C1239.5722,-387.5811 1044.4382,-375.2285 982,-343 949.0023,-325.9677 922.3667,-291.3179 907.1054,-267.8741"/>
<polygon fill="#191970" stroke="#191970" points="909.9318,-265.7942 901.6409,-259.1979 904.0087,-269.5247 909.9318,-265.7942"/>
</g>
<!-- Node1&#45;&gt;Node40 -->
<g id="edge101" class="edge">
<title>Node1&#45;&gt;Node40</title>
<path fill="none" stroke="#191970" d="M1509.0451,-392.2443C1774.7229,-383.8912 2623.6476,-350.655 2708,-265 2744.6945,-227.7389 2742.2311,-161.1567 2737.4755,-124.6637"/>
<polygon fill="#191970" stroke="#191970" points="2740.8801,-123.7568 2735.9669,-114.3701 2733.9541,-124.772 2740.8801,-123.7568"/>
</g>
<!-- Node46 -->
<g id="node37" class="node">
<title>Node46</title>
<g id="a_node37"><a xlink:href="../../dd/d39/hlo__ordering_8h.html" target="_top" xlink:title="tensorflow/compiler\l/xla/service/hlo_ordering.h">
<polygon fill="#ffffff" stroke="#ff0000" points="991,-307 991,-337 1137,-337 1137,-307 991,-307"/>
<text text-anchor="start" x="999" y="-325" font-family="Helvetica,sans-Serif" font-size="10.00" fill="#000000">tensorflow/compiler</text>
<text text-anchor="middle" x="1064" y="-314" font-family="Helvetica,sans-Serif" font-size="10.00" fill="#000000">/xla/service/hlo_ordering.h</text>
</a>
</g>
</g>
<!-- Node1&#45;&gt;Node46 -->
<g id="edge68" class="edge">
<title>Node1&#45;&gt;Node46</title>
<path fill="none" stroke="#191970" d="M1354.1646,-379.478C1293.869,-367.5342 1209.6087,-350.8432 1147.4147,-338.5234"/>
<polygon fill="#191970" stroke="#191970" points="1147.7303,-335.018 1137.2408,-336.5081 1146.3701,-341.8846 1147.7303,-335.018"/>
</g>
<!-- Node50 -->
<g id="node38" class="node">
<title>Node50</title>
<polygon fill="#ffffff" stroke="#bfbfbf" points="1565.5,-223.5 1565.5,-264.5 1678.5,-264.5 1678.5,-223.5 1565.5,-223.5"/>
<text text-anchor="start" x="1573.5" y="-252.5" font-family="Helvetica,sans-Serif" font-size="10.00" fill="#000000">tensorflow/compiler</text>
<text text-anchor="start" x="1573.5" y="-241.5" font-family="Helvetica,sans-Serif" font-size="10.00" fill="#000000">/xla/service/logical</text>
<text text-anchor="middle" x="1622" y="-230.5" font-family="Helvetica,sans-Serif" font-size="10.00" fill="#000000">_buffer.h</text>
</g>
<!-- Node1&#45;&gt;Node50 -->
<g id="edge77" class="edge">
<title>Node1&#45;&gt;Node50</title>
<path fill="none" stroke="#191970" d="M1456.9777,-379.446C1473.6218,-369.7528 1495.1305,-356.4819 1513,-343 1542.2622,-320.9228 1572.9407,-292.5177 1594.2684,-271.7998"/>
<polygon fill="#191970" stroke="#191970" points="1596.9859,-274.0374 1601.683,-264.5406 1592.0889,-269.0355 1596.9859,-274.0374"/>
</g>
<!-- Node1&#45;&gt;Node51 -->
<g id="edge78" class="edge">
<title>Node1&#45;&gt;Node51</title>
<path fill="none" stroke="#191970" d="M1509.0323,-386.6723C1649.9603,-372.7143 1943.0089,-343.6897 2083.5307,-329.7719"/>
<polygon fill="#191970" stroke="#191970" points="2084.1827,-333.2245 2093.789,-328.7559 2083.4927,-326.2586 2084.1827,-333.2245"/>
</g>
<!-- Node3&#45;&gt;Node2 -->
<g id="edge13" class="edge">
<title>Node3&#45;&gt;Node2</title>
<path fill="none" stroke="#191970" d="M1168.2453,-95.998C971.6305,-88.1789 469.8174,-66.1105 398,-42 393.8187,-40.5963 389.6545,-38.5087 385.7795,-36.1863"/>
<polygon fill="#191970" stroke="#191970" points="387.6439,-33.2224 377.391,-30.5524 383.7411,-39.0334 387.6439,-33.2224"/>
</g>
<!-- Node4 -->
<g id="node5" class="node">
<title>Node4</title>
<polygon fill="#ffffff" stroke="#bfbfbf" points="1302.5,-11.5 1302.5,-30.5 1367.5,-30.5 1367.5,-11.5 1302.5,-11.5"/>
<text text-anchor="middle" x="1335" y="-18.5" font-family="Helvetica,sans-Serif" font-size="10.00" fill="#000000">functional</text>
</g>
<!-- Node3&#45;&gt;Node4 -->
<g id="edge4" class="edge">
<title>Node3&#45;&gt;Node4</title>
<path fill="none" stroke="#191970" d="M1263.9673,-83.9608C1278.9695,-70.6634 1300.8172,-51.2984 1316.3148,-37.5619"/>
<polygon fill="#191970" stroke="#191970" points="1319.0255,-39.8362 1324.1874,-30.5839 1314.3824,-34.5977 1319.0255,-39.8362"/>
</g>
<!-- Node5 -->
<g id="node6" class="node">
<title>Node5</title>
<polygon fill="#ffffff" stroke="#bfbfbf" points="2317.5,-11.5 2317.5,-30.5 2366.5,-30.5 2366.5,-11.5 2317.5,-11.5"/>
<text text-anchor="middle" x="2342" y="-18.5" font-family="Helvetica,sans-Serif" font-size="10.00" fill="#000000">iosfwd</text>
</g>
<!-- Node3&#45;&gt;Node5 -->
<g id="edge5" class="edge">
<title>Node3&#45;&gt;Node5</title>
<path fill="none" stroke="#191970" d="M1325.769,-84.2967C1341.3726,-81.8299 1357.667,-79.5663 1373,-78 1580.0762,-56.8474 2110.3028,-104.0277 2309,-42 2313.3026,-40.6568 2317.5925,-38.5985 2321.5871,-36.286"/>
<polygon fill="#191970" stroke="#191970" points="2323.7727,-39.0393 2330.2386,-30.6463 2319.95,-33.1752 2323.7727,-39.0393"/>
</g>
<!-- Node6 -->
<g id="node7" class="node">
<title>Node6</title>
<polygon fill="#ffffff" stroke="#bfbfbf" points="789,-11.5 789,-30.5 821,-30.5 821,-11.5 789,-11.5"/>
<text text-anchor="middle" x="805" y="-18.5" font-family="Helvetica,sans-Serif" font-size="10.00" fill="#000000">list</text>
</g>
<!-- Node3&#45;&gt;Node6 -->
<g id="edge6" class="edge">
<title>Node3&#45;&gt;Node6</title>
<path fill="none" stroke="#191970" d="M1168.3874,-93.4835C1064.8333,-85.3251 888.9511,-68.132 830,-42 827.0883,-40.7093 824.2505,-38.9736 821.5943,-37.0503"/>
<polygon fill="#191970" stroke="#191970" points="823.7757,-34.312 813.8594,-30.5815 819.285,-39.6817 823.7757,-34.312"/>
</g>
<!-- Node7 -->
<g id="node8" class="node">
<title>Node7</title>
<polygon fill="#ffffff" stroke="#bfbfbf" points="541,-11.5 541,-30.5 599,-30.5 599,-11.5 541,-11.5"/>
<text text-anchor="middle" x="570" y="-18.5" font-family="Helvetica,sans-Serif" font-size="10.00" fill="#000000">memory</text>
</g>
<!-- Node3&#45;&gt;Node7 -->
<g id="edge7" class="edge">
<title>Node3&#45;&gt;Node7</title>
<path fill="none" stroke="#191970" d="M1168.3373,-96.0441C1021.3741,-89.8531 710.7103,-73.425 608,-42 602.905,-40.4411 597.7264,-38.142 592.8989,-35.6303"/>
<polygon fill="#191970" stroke="#191970" points="594.5878,-32.5645 584.1624,-30.677 591.1353,-38.6539 594.5878,-32.5645"/>
</g>
<!-- Node8 -->
<g id="node9" class="node">
<title>Node8</title>
<polygon fill="#ffffff" stroke="#bfbfbf" points="2385,-11.5 2385,-30.5 2417,-30.5 2417,-11.5 2385,-11.5"/>
<text text-anchor="middle" x="2401" y="-18.5" font-family="Helvetica,sans-Serif" font-size="10.00" fill="#000000">set</text>
</g>
<!-- Node3&#45;&gt;Node8 -->
<g id="edge8" class="edge">
<title>Node3&#45;&gt;Node8</title>
<path fill="none" stroke="#191970" d="M1325.7658,-84.2654C1341.3697,-81.8012 1357.665,-79.5466 1373,-78 1483.9534,-66.8101 2271.9206,-82.0418 2376,-42 2378.9725,-40.8564 2381.8445,-39.2032 2384.5169,-37.3191"/>
<polygon fill="#191970" stroke="#191970" points="2386.8244,-39.9521 2392.2534,-30.8539 2382.3356,-34.5808 2386.8244,-39.9521"/>
</g>
<!-- Node9 -->
<g id="node10" class="node">
<title>Node9</title>
<polygon fill="#ffffff" stroke="#bfbfbf" points="1082,-11.5 1082,-30.5 1126,-30.5 1126,-11.5 1082,-11.5"/>
<text text-anchor="middle" x="1104" y="-18.5" font-family="Helvetica,sans-Serif" font-size="10.00" fill="#000000">string</text>
</g>
<!-- Node3&#45;&gt;Node9 -->
<g id="edge9" class="edge">
<title>Node3&#45;&gt;Node9</title>
<path fill="none" stroke="#191970" d="M1214.5677,-83.8224C1191.8933,-72.8919 1161.1186,-57.4119 1135,-42 1131.94,-40.1944 1128.7736,-38.2026 1125.6857,-36.1863"/>
<polygon fill="#191970" stroke="#191970" points="1127.595,-33.2525 1117.3444,-30.5737 1123.6872,-39.0602 1127.595,-33.2525"/>
</g>
<!-- Node10 -->
<g id="node11" class="node">
<title>Node10</title>
<polygon fill="#ffffff" stroke="#bfbfbf" points="1385.5,-11.5 1385.5,-30.5 1426.5,-30.5 1426.5,-11.5 1385.5,-11.5"/>
<text text-anchor="middle" x="1406" y="-18.5" font-family="Helvetica,sans-Serif" font-size="10.00" fill="#000000">tuple</text>
</g>
<!-- Node3&#45;&gt;Node10 -->
<g id="edge10" class="edge">
<title>Node3&#45;&gt;Node10</title>
<path fill="none" stroke="#191970" d="M1286.3406,-83.9489C1312.3993,-73.4192 1346.9937,-58.3545 1376,-42 1378.9905,-40.3139 1382.0542,-38.4047 1385.0272,-36.4416"/>
<polygon fill="#191970" stroke="#191970" points="1387.2867,-39.134 1393.5101,-30.5596 1383.2979,-33.3816 1387.2867,-39.134"/>
</g>
<!-- Node11 -->
<g id="node12" class="node">
<title>Node11</title>
<polygon fill="#ffffff" stroke="#bfbfbf" points="839.5,-11.5 839.5,-30.5 932.5,-30.5 932.5,-11.5 839.5,-11.5"/>
<text text-anchor="middle" x="886" y="-18.5" font-family="Helvetica,sans-Serif" font-size="10.00" fill="#000000">unordered_map</text>
</g>
<!-- Node3&#45;&gt;Node11 -->
<g id="edge11" class="edge">
<title>Node3&#45;&gt;Node11</title>
<path fill="none" stroke="#191970" d="M1168.4456,-88.3639C1106.0971,-78.9682 1017.074,-63.4189 941,-42 933.3383,-39.8428 925.2484,-37.0548 917.6999,-34.2193"/>
<polygon fill="#191970" stroke="#191970" points="918.7586,-30.8757 908.1699,-30.5136 916.2216,-37.3999 918.7586,-30.8757"/>
</g>
<!-- Node12 -->
<g id="node13" class="node">
<title>Node12</title>
<polygon fill="#ffffff" stroke="#bfbfbf" points="1576,-11.5 1576,-30.5 1662,-30.5 1662,-11.5 1576,-11.5"/>
<text text-anchor="middle" x="1619" y="-18.5" font-family="Helvetica,sans-Serif" font-size="10.00" fill="#000000">unordered_set</text>
</g>
<!-- Node3&#45;&gt;Node12 -->
<g id="edge12" class="edge">
<title>Node3&#45;&gt;Node12</title>
<path fill="none" stroke="#191970" d="M1310.923,-83.9996C1320.643,-81.8829 1330.5724,-79.8133 1340,-78 1439.88,-58.7887 1467.9095,-68.8948 1566,-42 1573.4153,-39.9668 1581.2109,-37.2337 1588.4731,-34.4128"/>
<polygon fill="#191970" stroke="#191970" points="1590.0059,-37.5682 1597.9596,-30.569 1587.3771,-31.0805 1590.0059,-37.5682"/>
</g>
<!-- Node13 -->
<g id="node14" class="node">
<title>Node13</title>
<polygon fill="#ffffff" stroke="#bfbfbf" points="950.5,-6 950.5,-36 1063.5,-36 1063.5,-6 950.5,-6"/>
<text text-anchor="start" x="958.5" y="-24" font-family="Helvetica,sans-Serif" font-size="10.00" fill="#000000">tensorflow/compiler</text>
<text text-anchor="middle" x="1007" y="-13" font-family="Helvetica,sans-Serif" font-size="10.00" fill="#000000">/xla/iterator_util.h</text>
</g>
<!-- Node3&#45;&gt;Node13 -->
<g id="edge14" class="edge">
<title>Node3&#45;&gt;Node13</title>
<path fill="none" stroke="#191970" d="M1200.7256,-83.9608C1161.5073,-71.2149 1105.136,-52.8942 1063.3051,-39.2992"/>
<polygon fill="#191970" stroke="#191970" points="1064.1334,-35.8882 1053.5412,-36.1259 1061.9697,-42.5454 1064.1334,-35.8882"/>
</g>
<!-- Node14 -->
<g id="node15" class="node">
<title>Node14</title>
<polygon fill="#ffffff" stroke="#bfbfbf" points="1444.5,-6 1444.5,-36 1557.5,-36 1557.5,-6 1444.5,-6"/>
<text text-anchor="start" x="1452.5" y="-24" font-family="Helvetica,sans-Serif" font-size="10.00" fill="#000000">tensorflow/compiler</text>
<text text-anchor="middle" x="1501" y="-13" font-family="Helvetica,sans-Serif" font-size="10.00" fill="#000000">/xla/literal_util.h</text>
</g>
<!-- Node3&#45;&gt;Node14 -->
<g id="edge15" class="edge">
<title>Node3&#45;&gt;Node14</title>
<path fill="none" stroke="#191970" d="M1297.3278,-83.9447C1335.2212,-72.5596 1388.4242,-56.4697 1435,-42 1437.9479,-41.0842 1440.9683,-40.1408 1444.0169,-39.1847"/>
<polygon fill="#191970" stroke="#191970" points="1445.3087,-42.4475 1453.7959,-36.1057 1443.2064,-35.7706 1445.3087,-42.4475"/>
</g>
<!-- Node15 -->
<g id="node16" class="node">
<title>Node15</title>
<polygon fill="#ffffff" stroke="#bfbfbf" points="1680.5,-6 1680.5,-36 1793.5,-36 1793.5,-6 1680.5,-6"/>
<text text-anchor="start" x="1688.5" y="-24" font-family="Helvetica,sans-Serif" font-size="10.00" fill="#000000">tensorflow/compiler</text>
<text text-anchor="middle" x="1737" y="-13" font-family="Helvetica,sans-Serif" font-size="10.00" fill="#000000">/xla/map_util.h</text>
</g>
<!-- Node3&#45;&gt;Node15 -->
<g id="edge16" class="edge">
<title>Node3&#45;&gt;Node15</title>
<path fill="none" stroke="#191970" d="M1309.0885,-83.9527C1319.375,-81.7559 1329.9589,-79.6741 1340,-78 1485.9638,-53.6637 1526.2168,-72.5862 1671,-42 1675.3529,-41.0804 1679.8263,-39.988 1684.2944,-38.7919"/>
<polygon fill="#191970" stroke="#191970" points="1685.3525,-42.1299 1694.0184,-36.0346 1683.4429,-35.3954 1685.3525,-42.1299"/>
</g>
<!-- Node16 -->
<g id="node17" class="node">
<title>Node16</title>
<polygon fill="#ffffff" stroke="#bfbfbf" points="1811.5,-.5 1811.5,-41.5 1924.5,-41.5 1924.5,-.5 1811.5,-.5"/>
<text text-anchor="start" x="1819.5" y="-29.5" font-family="Helvetica,sans-Serif" font-size="10.00" fill="#000000">tensorflow/compiler</text>
<text text-anchor="start" x="1819.5" y="-18.5" font-family="Helvetica,sans-Serif" font-size="10.00" fill="#000000">/xla/service/dfs_hlo</text>
<text text-anchor="middle" x="1868" y="-7.5" font-family="Helvetica,sans-Serif" font-size="10.00" fill="#000000">_visitor.h</text>
</g>
<!-- Node3&#45;&gt;Node16 -->
<g id="edge17" class="edge">
<title>Node3&#45;&gt;Node16</title>
<path fill="none" stroke="#191970" d="M1307.7927,-83.9513C1318.4755,-81.6859 1329.5253,-79.5823 1340,-78 1540.3641,-47.7336 1598.0145,-80.398 1801.2315,-41.8924"/>
<polygon fill="#191970" stroke="#191970" points="1802.1787,-45.2743 1811.3343,-39.9428 1800.8522,-38.4011 1802.1787,-45.2743"/>
</g>
<!-- Node17 -->
<g id="node18" class="node">
<title>Node17</title>
<polygon fill="#ffffff" stroke="#bfbfbf" points="407.5,-6 407.5,-36 522.5,-36 522.5,-6 407.5,-6"/>
<text text-anchor="start" x="415.5" y="-24" font-family="Helvetica,sans-Serif" font-size="10.00" fill="#000000">tensorflow/compiler</text>
<text text-anchor="middle" x="465" y="-13" font-family="Helvetica,sans-Serif" font-size="10.00" fill="#000000">/xla/service/hlo.pb.h</text>
</g>
<!-- Node3&#45;&gt;Node17 -->
<g id="edge18" class="edge">
<title>Node3&#45;&gt;Node17</title>
<path fill="none" stroke="#191970" d="M1168.2414,-94.9542C1008.6377,-86.3887 652.0303,-65.2888 532,-42 527.3816,-41.1039 522.6329,-40.0007 517.8983,-38.7733"/>
<polygon fill="#191970" stroke="#191970" points="518.8167,-35.3959 508.2456,-36.1057 516.952,-42.143 518.8167,-35.3959"/>
</g>
<!-- Node18 -->
<g id="node19" class="node">
<title>Node18</title>
<polygon fill="#ffffff" stroke="#bfbfbf" points="1144,-6 1144,-36 1284,-36 1284,-6 1144,-6"/>
<text text-anchor="start" x="1152" y="-24" font-family="Helvetica,sans-Serif" font-size="10.00" fill="#000000">tensorflow/compiler</text>
<text text-anchor="middle" x="1214" y="-13" font-family="Helvetica,sans-Serif" font-size="10.00" fill="#000000">/xla/service/hlo_opcode.h</text>
</g>
<!-- Node3&#45;&gt;Node18 -->
<g id="edge19" class="edge">
<title>Node3&#45;&gt;Node18</title>
<path fill="none" stroke="#191970" d="M1240.6373,-83.9608C1236.0559,-73.1321 1229.7722,-58.2796 1224.4584,-45.7198"/>
<polygon fill="#191970" stroke="#191970" points="1227.5756,-44.1051 1220.4558,-36.2592 1221.1289,-46.8326 1227.5756,-44.1051"/>
</g>
<!-- Node20 -->
<g id="node20" class="node">
<title>Node20</title>
<polygon fill="#ffffff" stroke="#bfbfbf" points="617,-6 617,-36 771,-36 771,-6 617,-6"/>
<text text-anchor="start" x="625" y="-24" font-family="Helvetica,sans-Serif" font-size="10.00" fill="#000000">tensorflow/compiler</text>
<text text-anchor="middle" x="694" y="-13" font-family="Helvetica,sans-Serif" font-size="10.00" fill="#000000">/xla/service/name_uniquer.h</text>
</g>
<!-- Node3&#45;&gt;Node20 -->
<g id="edge20" class="edge">
<title>Node3&#45;&gt;Node20</title>
<path fill="none" stroke="#191970" d="M1168.4891,-92.2716C1075.3456,-83.6318 915.5931,-66.7407 780,-42 773.9474,-40.8956 767.6849,-39.6232 761.426,-38.2621"/>
<polygon fill="#191970" stroke="#191970" points="762.1482,-34.8372 751.6244,-36.062 760.615,-41.6673 762.1482,-34.8372"/>
</g>
<!-- Node3&#45;&gt;Node21 -->
<g id="edge21" class="edge">
<title>Node3&#45;&gt;Node21</title>
<path fill="none" stroke="#191970" d="M1168.3931,-97.4472C954.9813,-92.8109 368.0648,-77.152 178,-42 173.361,-41.142 168.5941,-40.0436 163.8512,-38.8002"/>
<polygon fill="#191970" stroke="#191970" points="164.7727,-35.4236 154.1979,-36.0748 162.8707,-42.1602 164.7727,-35.4236"/>
</g>
<!-- Node22 -->
<g id="node22" class="node">
<title>Node22</title>
<polygon fill="#ffffff" stroke="#bfbfbf" points="2745.5,-6 2745.5,-36 2858.5,-36 2858.5,-6 2745.5,-6"/>
<text text-anchor="start" x="2753.5" y="-24" font-family="Helvetica,sans-Serif" font-size="10.00" fill="#000000">tensorflow/compiler</text>
<text text-anchor="middle" x="2802" y="-13" font-family="Helvetica,sans-Serif" font-size="10.00" fill="#000000">/xla/xla_data.pb.h</text>
</g>
<!-- Node3&#45;&gt;Node22 -->
<g id="edge22" class="edge">
<title>Node3&#45;&gt;Node22</title>
<path fill="none" stroke="#191970" d="M1325.7544,-84.1495C1341.3592,-81.6951 1357.6578,-79.4738 1373,-78 1674.8273,-49.006 2438.1256,-93.1313 2737,-42 2741.7889,-41.1807 2746.7098,-40.0858 2751.5977,-38.8245"/>
<polygon fill="#191970" stroke="#191970" points="2752.8493,-42.1086 2761.5317,-36.0368 2750.9579,-35.3689 2752.8493,-42.1086"/>
</g>
<!-- Node23 -->
<g id="node23" class="node">
<title>Node23</title>
<polygon fill="#ffffff" stroke="#bfbfbf" points="2192.5,-6 2192.5,-36 2299.5,-36 2299.5,-6 2192.5,-6"/>
<text text-anchor="start" x="2200.5" y="-24" font-family="Helvetica,sans-Serif" font-size="10.00" fill="#000000">tensorflow/core/lib</text>
<text text-anchor="middle" x="2246" y="-13" font-family="Helvetica,sans-Serif" font-size="10.00" fill="#000000">/core/status.h</text>
</g>
<!-- Node3&#45;&gt;Node23 -->
<g id="edge23" class="edge">
<title>Node3&#45;&gt;Node23</title>
<path fill="none" stroke="#191970" d="M1325.7765,-84.369C1341.3794,-81.896 1357.6717,-79.6116 1373,-78 1731.8216,-40.2737 1829.3885,-108.5348 2184,-42 2188.3911,-41.1761 2192.8956,-40.11 2197.3752,-38.8956"/>
<polygon fill="#191970" stroke="#191970" points="2198.4836,-42.2179 2207.0883,-36.0364 2196.5069,-35.5028 2198.4836,-42.2179"/>
</g>
<!-- Node25 -->
<g id="node24" class="node">
<title>Node25</title>
<polygon fill="#ffffff" stroke="#bfbfbf" points="1942.5,-6 1942.5,-36 2049.5,-36 2049.5,-6 1942.5,-6"/>
<text text-anchor="start" x="1950.5" y="-24" font-family="Helvetica,sans-Serif" font-size="10.00" fill="#000000">tensorflow/core/lib</text>
<text text-anchor="middle" x="1996" y="-13" font-family="Helvetica,sans-Serif" font-size="10.00" fill="#000000">/gtl/array_slice.h</text>
</g>
<!-- Node3&#45;&gt;Node25 -->
<g id="edge24" class="edge">
<title>Node3&#45;&gt;Node25</title>
<path fill="none" stroke="#191970" d="M1307.0197,-83.9573C1317.937,-81.6472 1329.2663,-79.5269 1340,-78 1601.8482,-40.7508 1674.4545,-92.8737 1934,-42 1938.203,-41.1762 1942.5123,-40.1398 1946.8054,-38.9712"/>
<polygon fill="#191970" stroke="#191970" points="1948.1341,-42.2285 1956.7356,-36.0427 1946.154,-35.5144 1948.1341,-42.2285"/>
</g>
<!-- Node26 -->
<g id="node25" class="node">
<title>Node26</title>
<polygon fill="#ffffff" stroke="#bfbfbf" points="2067.5,-6 2067.5,-36 2174.5,-36 2174.5,-6 2067.5,-6"/>
<text text-anchor="start" x="2075.5" y="-24" font-family="Helvetica,sans-Serif" font-size="10.00" fill="#000000">tensorflow/core/lib</text>
<text text-anchor="middle" x="2121" y="-13" font-family="Helvetica,sans-Serif" font-size="10.00" fill="#000000">/gtl/flatmap.h</text>
</g>
<!-- Node3&#45;&gt;Node26 -->
<g id="edge25" class="edge">
<title>Node3&#45;&gt;Node26</title>
<path fill="none" stroke="#191970" d="M1325.787,-84.4674C1341.3891,-81.986 1357.6783,-79.6734 1373,-78 1676.5035,-44.8512 1759.1574,-99.512 2059,-42 2063.2063,-41.1932 2067.5179,-40.1688 2071.8126,-39.0084"/>
<polygon fill="#191970" stroke="#191970" points="2073.1362,-42.2676 2081.7452,-36.0923 2071.1642,-35.5511 2073.1362,-42.2676"/>
</g>
<!-- Node3&#45;&gt;Node29 -->
<g id="edge26" class="edge">
<title>Node3&#45;&gt;Node29</title>
<path fill="none" stroke="#191970" d="M1168.2868,-96.156C977.2038,-88.9189 492.7895,-68.4869 333,-42 327.2202,-41.0419 321.2493,-39.8275 315.3079,-38.4675"/>
<polygon fill="#191970" stroke="#191970" points="315.9189,-35.0144 305.3758,-36.0609 314.2703,-41.8175 315.9189,-35.0144"/>
</g>
<!-- Node30 -->
<g id="node27" class="node">
<title>Node30</title>
<polygon fill="#ffffff" stroke="#bfbfbf" points="2435.5,-6 2435.5,-36 2572.5,-36 2572.5,-6 2435.5,-6"/>
<text text-anchor="start" x="2443.5" y="-24" font-family="Helvetica,sans-Serif" font-size="10.00" fill="#000000">tensorflow/core/platform</text>
<text text-anchor="middle" x="2504" y="-13" font-family="Helvetica,sans-Serif" font-size="10.00" fill="#000000">/macros.h</text>
</g>
<!-- Node3&#45;&gt;Node30 -->
<g id="edge27" class="edge">
<title>Node3&#45;&gt;Node30</title>
<path fill="none" stroke="#191970" d="M1325.7637,-84.2446C1341.3678,-81.7822 1357.6636,-79.5335 1373,-78 1838.9498,-31.4083 1962.8862,-111.3225 2426,-42 2432.1892,-41.0736 2438.5908,-39.832 2444.9426,-38.4133"/>
<polygon fill="#191970" stroke="#191970" points="2445.9267,-41.777 2454.8454,-36.058 2444.3069,-34.9669 2445.9267,-41.777"/>
</g>
<!-- Node31 -->
<g id="node28" class="node">
<title>Node31</title>
<polygon fill="#ffffff" stroke="#bfbfbf" points="2590.5,-6 2590.5,-36 2727.5,-36 2727.5,-6 2590.5,-6"/>
<text text-anchor="start" x="2598.5" y="-24" font-family="Helvetica,sans-Serif" font-size="10.00" fill="#000000">tensorflow/core/platform</text>
<text text-anchor="middle" x="2659" y="-13" font-family="Helvetica,sans-Serif" font-size="10.00" fill="#000000">/types.h</text>
</g>
<!-- Node3&#45;&gt;Node31 -->
<g id="edge28" class="edge">
<title>Node3&#45;&gt;Node31</title>
<path fill="none" stroke="#191970" d="M1325.7584,-84.1908C1341.3629,-81.7329 1357.6603,-79.4997 1373,-78 1908.0206,-25.6921 2050.306,-121.2757 2582,-42 2588.1158,-41.0881 2594.4391,-39.8561 2600.7118,-38.4431"/>
<polygon fill="#191970" stroke="#191970" points="2601.5845,-41.8332 2610.4902,-36.094 2599.9492,-35.0268 2601.5845,-41.8332"/>
</g>
<!-- Node32&#45;&gt;Node2 -->
<g id="edge34" class="edge">
<title>Node32&#45;&gt;Node2</title>
<path fill="none" stroke="#191970" d="M821.7021,-236.8186C732.6177,-224.9419 578.6865,-194.5892 470,-120 449.2446,-105.756 450.0042,-95.5934 432,-78 417.2547,-63.5912 399.522,-48.3835 386.1521,-37.3036"/>
<polygon fill="#191970" stroke="#191970" points="388.021,-34.3095 378.0714,-30.6685 383.5788,-39.7194 388.021,-34.3095"/>
</g>
<!-- Node32&#45;&gt;Node3 -->
<g id="edge63" class="edge">
<title>Node32&#45;&gt;Node3</title>
<path fill="none" stroke="#191970" d="M929.8824,-228.8928C994.8288,-202.2905 1129.4443,-147.1514 1200.5959,-118.0073"/>
<polygon fill="#191970" stroke="#191970" points="1202.2734,-121.1025 1210.2006,-114.0732 1199.6201,-114.6248 1202.2734,-121.1025"/>
</g>
<!-- Node32&#45;&gt;Node6 -->
<g id="edge30" class="edge">
<title>Node32&#45;&gt;Node6</title>
<path fill="none" stroke="#191970" d="M886.9514,-228.6723C871.3105,-189.0369 829.5598,-83.2367 812.4603,-39.9052"/>
<polygon fill="#191970" stroke="#191970" points="815.6883,-38.5501 808.7619,-30.533 809.177,-41.1197 815.6883,-38.5501"/>
</g>
<!-- Node32&#45;&gt;Node7 -->
<g id="edge31" class="edge">
<title>Node32&#45;&gt;Node7</title>
<path fill="none" stroke="#191970" d="M870.9994,-228.8639C854.4463,-217.4377 831.2309,-201.3316 811,-187 743.4604,-139.1547 728.5497,-124.3865 660,-78 638.1167,-63.1919 612.629,-47.1599 594.375,-35.8816"/>
<polygon fill="#191970" stroke="#191970" points="596.1456,-32.8616 585.7947,-30.6012 592.4767,-38.8232 596.1456,-32.8616"/>
</g>
<!-- Node32&#45;&gt;Node9 -->
<g id="edge32" class="edge">
<title>Node32&#45;&gt;Node9</title>
<path fill="none" stroke="#191970" d="M907.2829,-228.8899C934.8618,-199.7156 997.3708,-133.5995 1050,-78 1062.6682,-64.6168 1077.0156,-49.473 1087.7359,-38.1602"/>
<polygon fill="#191970" stroke="#191970" points="1090.4868,-40.3457 1094.8251,-30.6797 1085.4059,-35.5306 1090.4868,-40.3457"/>
</g>
<!-- Node32&#45;&gt;Node11 -->
<g id="edge33" class="edge">
<title>Node32&#45;&gt;Node11</title>
<path fill="none" stroke="#191970" d="M892.5189,-228.6723C891.2826,-189.2883 887.9957,-84.5762 886.6196,-40.7372"/>
<polygon fill="#191970" stroke="#191970" points="890.1114,-40.4182 886.2992,-30.533 883.1148,-40.6379 890.1114,-40.4182"/>
</g>
<!-- Node32&#45;&gt;Node13 -->
<g id="edge35" class="edge">
<title>Node32&#45;&gt;Node13</title>
<path fill="none" stroke="#191970" d="M900.0163,-228.7129C913.6424,-199.2362 944.9069,-132.6256 974,-78 979.8438,-67.0276 986.6758,-55.0945 992.6027,-44.9956"/>
<polygon fill="#191970" stroke="#191970" points="995.6576,-46.7058 997.737,-36.317 989.6329,-43.1416 995.6576,-46.7058"/>
</g>
<!-- Node32&#45;&gt;Node17 -->
<g id="edge36" class="edge">
<title>Node32&#45;&gt;Node17</title>
<path fill="none" stroke="#191970" d="M838.8376,-228.9358C773.9079,-209.4999 663.1964,-171.9112 578,-120 542.5351,-98.3908 507.4721,-65.3636 486.031,-43.4816"/>
<polygon fill="#191970" stroke="#191970" points="488.5025,-41.0026 479.0367,-36.2435 483.4687,-45.8668 488.5025,-41.0026"/>
</g>
<!-- Node32&#45;&gt;Node20 -->
<g id="edge64" class="edge">
<title>Node32&#45;&gt;Node20</title>
<path fill="none" stroke="#191970" d="M879.3219,-228.6723C844.944,-190.1483 754.7872,-89.1184 714.2525,-43.695"/>
<polygon fill="#191970" stroke="#191970" points="716.7803,-41.2709 707.5107,-36.1401 711.5574,-45.9316 716.7803,-41.2709"/>
</g>
<!-- Node32&#45;&gt;Node21 -->
<g id="edge65" class="edge">
<title>Node32&#45;&gt;Node21</title>
<path fill="none" stroke="#191970" d="M821.8762,-239.939C735.2495,-233.7856 585.005,-219.2065 460,-187 380.9558,-166.6349 362.7493,-154.9822 289,-120 237.6796,-95.6567 180.822,-62.4718 145.9929,-41.3877"/>
<polygon fill="#191970" stroke="#191970" points="147.5655,-38.2477 137.2032,-36.0403 143.9273,-44.2279 147.5655,-38.2477"/>
</g>
<!-- Node32&#45;&gt;Node25 -->
<g id="edge66" class="edge">
<title>Node32&#45;&gt;Node25</title>
<path fill="none" stroke="#191970" d="M964.1899,-236.0738C1055.5364,-223.3104 1216.2372,-191.9193 1334,-120 1355.7397,-106.7232 1349.9884,-88.9249 1373,-78 1485.8508,-24.4232 1811.4525,-66.2466 1934,-42 1938.2016,-41.1687 1942.5098,-40.127 1946.8021,-38.955"/>
<polygon fill="#191970" stroke="#191970" points="1948.1331,-42.2114 1956.7314,-36.0211 1946.1494,-35.4983 1948.1331,-42.2114"/>
</g>
<!-- Node32&#45;&gt;Node29 -->
<g id="edge67" class="edge">
<title>Node32&#45;&gt;Node29</title>
<path fill="none" stroke="#191970" d="M821.6605,-240.722C747.554,-235.4889 629.2017,-221.9485 533,-187 433.8278,-150.9724 330.7636,-78.201 283.1281,-42.1821"/>
<polygon fill="#191970" stroke="#191970" points="285.2346,-39.3869 275.16,-36.1076 280.9907,-44.9537 285.2346,-39.3869"/>
</g>
<!-- Node32&#45;&gt;Node35 -->
<g id="edge37" class="edge">
<title>Node32&#45;&gt;Node35</title>
<path fill="none" stroke="#191970" d="M964.0286,-237.1794C1100.8358,-224.0423 1400.8762,-195.2304 1554.0271,-180.5239"/>
<polygon fill="#191970" stroke="#191970" points="1554.728,-183.9728 1564.3476,-179.5328 1554.0588,-177.0048 1554.728,-183.9728"/>
</g>
<!-- Node35&#45;&gt;Node2 -->
<g id="edge44" class="edge">
<title>Node35&#45;&gt;Node2</title>
<path fill="none" stroke="#191970" d="M1564.307,-169.2037C1329.0581,-162.5057 672.8746,-142.0643 578,-120 535.539,-110.1252 436.3649,-62.7021 398,-42 394.6447,-40.1895 391.1861,-38.1357 387.8389,-36.0386"/>
<polygon fill="#191970" stroke="#191970" points="389.6743,-33.057 379.3867,-30.5237 385.8491,-38.9194 389.6743,-33.057"/>
</g>
<!-- Node35&#45;&gt;Node3 -->
<g id="edge50" class="edge">
<title>Node35&#45;&gt;Node3</title>
<path fill="none" stroke="#191970" d="M1564.9125,-156.478C1497.8958,-144.3615 1403.8576,-127.3595 1335.4508,-114.9917"/>
<polygon fill="#191970" stroke="#191970" points="1336.0135,-111.5368 1325.5503,-113.2017 1334.768,-118.4251 1336.0135,-111.5368"/>
</g>
<!-- Node35&#45;&gt;Node6 -->
<g id="edge38" class="edge">
<title>Node35&#45;&gt;Node6</title>
<path fill="none" stroke="#191970" d="M1564.4302,-169.3822C1409.6104,-164.752 1084.1229,-151.5105 976,-120 940.6848,-109.708 860.4698,-62.6077 830,-42 827.7815,-40.4995 825.5302,-38.8376 823.3339,-37.1248"/>
<polygon fill="#191970" stroke="#191970" points="825.2591,-34.1752 815.3213,-30.5021 820.7994,-39.5708 825.2591,-34.1752"/>
</g>
<!-- Node35&#45;&gt;Node7 -->
<g id="edge39" class="edge">
<title>Node35&#45;&gt;Node7</title>
<path fill="none" stroke="#191970" d="M1564.183,-169.561C1381.7433,-164.8159 953.6725,-150.6949 812,-120 800.1416,-117.4308 619.0034,-47.1135 608,-42 603.7321,-40.0166 599.2856,-37.7515 595.0015,-35.4601"/>
<polygon fill="#191970" stroke="#191970" points="596.4611,-32.268 586.0147,-30.5009 593.0791,-38.3968 596.4611,-32.268"/>
</g>
<!-- Node35&#45;&gt;Node9 -->
<g id="edge40" class="edge">
<title>Node35&#45;&gt;Node9</title>
<path fill="none" stroke="#191970" d="M1637.7094,-156.2785C1622.0709,-134.5715 1590.0799,-95.4256 1552,-78 1382.8468,-.5943 1310.3263,-104.1701 1135,-42 1131.1133,-40.6218 1127.2493,-38.6371 1123.6354,-36.4311"/>
<polygon fill="#191970" stroke="#191970" points="1125.5229,-33.4816 1115.2967,-30.7111 1121.5632,-39.2541 1125.5229,-33.4816"/>
</g>
<!-- Node35&#45;&gt;Node11 -->
<g id="edge41" class="edge">
<title>Node35&#45;&gt;Node11</title>
<path fill="none" stroke="#191970" d="M1564.2963,-167.9256C1428.426,-161.4573 1166.0958,-146.0134 1077,-120 1011.8353,-100.9738 942.9226,-59.0598 908.4327,-36.3491"/>
<polygon fill="#191970" stroke="#191970" points="910.2999,-33.3875 900.0384,-30.7508 906.416,-39.2112 910.2999,-33.3875"/>
</g>
<!-- Node35&#45;&gt;Node12 -->
<g id="edge42" class="edge">
<title>Node35&#45;&gt;Node12</title>
<path fill="none" stroke="#191970" d="M1643.3699,-156.2884C1640.3895,-146.0937 1636.6009,-132.3297 1634,-120 1628.2443,-92.7153 1623.8122,-60.7535 1621.3049,-40.6888"/>
<polygon fill="#191970" stroke="#191970" points="1624.7627,-40.1288 1620.0846,-30.6228 1617.8136,-40.9713 1624.7627,-40.1288"/>
</g>
<!-- Node35&#45;&gt;Node13 -->
<g id="edge45" class="edge">
<title>Node35&#45;&gt;Node13</title>
<path fill="none" stroke="#191970" d="M1564.4344,-167.4292C1444.9237,-160.8048 1231.6032,-145.7736 1159,-120 1109.8388,-102.5482 1060.6573,-66.2307 1032.0652,-42.7691"/>
<polygon fill="#191970" stroke="#191970" points="1034.1416,-39.9434 1024.2197,-36.2276 1029.6588,-45.3198 1034.1416,-39.9434"/>
</g>
<!-- Node35&#45;&gt;Node15 -->
<g id="edge46" class="edge">
<title>Node35&#45;&gt;Node15</title>
<path fill="none" stroke="#191970" d="M1649.1453,-156.1771C1651.196,-136.7166 1656.8194,-102.7009 1672,-78 1680.4923,-64.1818 1693.3971,-51.873 1705.476,-42.2614"/>
<polygon fill="#191970" stroke="#191970" points="1707.7998,-44.8913 1713.6419,-36.0527 1703.5631,-39.319 1707.7998,-44.8913"/>
</g>
<!-- Node35&#45;&gt;Node16 -->
<g id="edge47" class="edge">
<title>Node35&#45;&gt;Node16</title>
<path fill="none" stroke="#191970" d="M1654.3229,-156.3666C1663.6277,-135.8388 1682.8873,-99.2931 1710,-78 1717.8127,-71.8643 1762.0737,-56.1109 1801.7679,-42.7169"/>
<polygon fill="#191970" stroke="#191970" points="1803.1049,-45.96 1811.4704,-39.4586 1800.8764,-39.3242 1803.1049,-45.96"/>
</g>
<!-- Node35&#45;&gt;Node17 -->
<g id="edge49" class="edge">
<title>Node35&#45;&gt;Node17</title>
<path fill="none" stroke="#191970" d="M1564.2577,-170.6276C1364.2213,-167.9517 863.126,-157.5918 700,-120 626.2955,-103.0151 546.3018,-64.6074 501.2405,-40.9357"/>
<polygon fill="#191970" stroke="#191970" points="502.6437,-37.7181 492.1699,-36.1212 499.3618,-43.9011 502.6437,-37.7181"/>
</g>
<!-- Node35&#45;&gt;Node20 -->
<g id="edge52" class="edge">
<title>Node35&#45;&gt;Node20</title>
<path fill="none" stroke="#191970" d="M1564.4437,-170.3986C1394.1994,-167.4107 1012.7246,-156.712 888,-120 850.9779,-109.1027 846.2771,-95.7332 812,-78 786.7808,-64.9529 758.1057,-51.0798 735.3382,-40.287"/>
<polygon fill="#191970" stroke="#191970" points="736.8255,-37.1187 726.2886,-36.0116 733.8353,-43.4479 736.8255,-37.1187"/>
</g>
<!-- Node35&#45;&gt;Node21 -->
<g id="edge55" class="edge">
<title>Node35&#45;&gt;Node21</title>
<path fill="none" stroke="#191970" d="M1564.4247,-170.2057C1332.0198,-166.2307 681.3166,-152.4475 470,-120 358.8117,-102.9271 232.9177,-62.9734 164.3099,-39.3721"/>
<polygon fill="#191970" stroke="#191970" points="165.2065,-35.9787 154.6117,-36.0132 162.9156,-42.5932 165.2065,-35.9787"/>
</g>
<!-- Node35&#45;&gt;Node22 -->
<g id="edge56" class="edge">
<title>Node35&#45;&gt;Node22</title>
<path fill="none" stroke="#191970" d="M1731.8099,-160.6622C1799.897,-150.968 1889.8738,-135.8744 1923,-120 1948.8664,-107.6046 1945.34,-88.5812 1972,-78 2130.1846,-15.2176 2569.5541,-72.4282 2737,-42 2741.7109,-41.1439 2746.5527,-40.0355 2751.3669,-38.7757"/>
<polygon fill="#191970" stroke="#191970" points="2752.4873,-42.0963 2761.1591,-36.0094 2750.5842,-35.3599 2752.4873,-42.0963"/>
</g>
<!-- Node35&#45;&gt;Node23 -->
<g id="edge57" class="edge">
<title>Node35&#45;&gt;Node23</title>
<path fill="none" stroke="#191970" d="M1688.4894,-156.4948C1714.3321,-146.664 1748.4138,-133.2272 1778,-120 1816.1052,-102.9642 1821.9732,-89.8353 1862,-78 2000.0925,-37.1681 2043.4355,-73.2795 2184,-42 2187.8826,-41.136 2191.8625,-40.1157 2195.8405,-38.9981"/>
<polygon fill="#191970" stroke="#191970" points="2197.0939,-42.2763 2205.6682,-36.0527 2195.0843,-35.5709 2197.0939,-42.2763"/>
</g>
<!-- Node35&#45;&gt;Node25 -->
<g id="edge58" class="edge">
<title>Node35&#45;&gt;Node25</title>
<path fill="none" stroke="#191970" d="M1666.1449,-156.3132C1677.9864,-146.2444 1693.6645,-132.6124 1707,-120 1725.9525,-102.0752 1725.0364,-90.3761 1748,-78 1822.1215,-38.0527 1852.605,-63.5555 1934,-42 1937.3988,-41.0999 1940.8815,-40.1107 1944.3783,-39.067"/>
<polygon fill="#191970" stroke="#191970" points="1945.7019,-42.3209 1954.2123,-36.0103 1943.6241,-35.6363 1945.7019,-42.3209"/>
</g>
<!-- Node35&#45;&gt;Node26 -->
<g id="edge59" class="edge">
<title>Node35&#45;&gt;Node26</title>
<path fill="none" stroke="#191970" d="M1680.5832,-156.2986C1699.2776,-146.9398 1722.7776,-134.0648 1742,-120 1763.8179,-104.0361 1761.6174,-89.677 1786,-78 1896.3789,-25.1391 1939.807,-69.7633 2059,-42 2062.8134,-41.1118 2066.7233,-40.0822 2070.6347,-38.9656"/>
<polygon fill="#191970" stroke="#191970" points="2071.7474,-42.2857 2080.3063,-36.0411 2069.7213,-35.5853 2071.7474,-42.2857"/>
</g>
<!-- Node35&#45;&gt;Node30 -->
<g id="edge61" class="edge">
<title>Node35&#45;&gt;Node30</title>
<path fill="none" stroke="#191970" d="M1721.726,-156.4182C1756.6079,-147.9512 1798.3323,-135.8607 1834,-120 1865.7696,-105.8727 1866.9691,-88.8557 1900,-78 2122.6105,-4.8385 2194.8835,-80.642 2426,-42 2431.8483,-41.0222 2437.8925,-39.7945 2443.9083,-38.4262"/>
<polygon fill="#191970" stroke="#191970" points="2445.0603,-41.7491 2453.9661,-36.0099 2443.4251,-34.9428 2445.0603,-41.7491"/>
</g>
<!-- Node35&#45;&gt;Node31 -->
<g id="edge62" class="edge">
<title>Node35&#45;&gt;Node31</title>
<path fill="none" stroke="#191970" d="M1731.5551,-161.6657C1777.1929,-154.1926 1833.8495,-141.4122 1881,-120 1909.6518,-106.9885 1908.3911,-88.6552 1938,-78 2072.8675,-29.4661 2440.5202,-64.984 2582,-42 2587.8704,-41.0463 2593.9369,-39.8221 2599.9686,-38.4449"/>
<polygon fill="#191970" stroke="#191970" points="2601.1514,-41.7597 2610.0461,-36.0034 2599.5031,-34.9565 2601.1514,-41.7597"/>
</g>
<!-- Node35&#45;&gt;Node36 -->
<g id="edge43" class="edge">
<title>Node35&#45;&gt;Node36</title>
<path fill="none" stroke="#191970" d="M1731.5566,-161.3753C1810.8374,-151.1545 1923.9271,-134.8067 1966,-120 1970.716,-118.3403 1975.5247,-116.0902 1980.0476,-113.6779"/>
<polygon fill="#191970" stroke="#191970" points="1981.8872,-116.6574 1988.8083,-108.6357 1978.3954,-110.5905 1981.8872,-116.6574"/>
</g>
<!-- Node37 -->
<g id="node32" class="node">
<title>Node37</title>
<polygon fill="#ffffff" stroke="#bfbfbf" points="2044,-78.5 2044,-119.5 2172,-119.5 2172,-78.5 2044,-78.5"/>
<text text-anchor="start" x="2052" y="-107.5" font-family="Helvetica,sans-Serif" font-size="10.00" fill="#000000">tensorflow/compiler</text>
<text text-anchor="start" x="2052" y="-96.5" font-family="Helvetica,sans-Serif" font-size="10.00" fill="#000000">/xla/service/dfs_hlo</text>
<text text-anchor="middle" x="2108" y="-85.5" font-family="Helvetica,sans-Serif" font-size="10.00" fill="#000000">_visitor_with_default.h</text>
</g>
<!-- Node35&#45;&gt;Node37 -->
<g id="edge48" class="edge">
<title>Node35&#45;&gt;Node37</title>
<path fill="none" stroke="#191970" d="M1731.6436,-163.9746C1808.1272,-156.2697 1924.446,-142.4865 2033.7651,-120.121"/>
<polygon fill="#191970" stroke="#191970" points="2034.5619,-123.5303 2043.6428,-118.0725 2033.1404,-116.6762 2034.5619,-123.5303"/>
</g>
<!-- Node38 -->
<g id="node33" class="node">
<title>Node38</title>
<polygon fill="#ffffff" stroke="#bfbfbf" points="1382.5,-84 1382.5,-114 1543.5,-114 1543.5,-84 1382.5,-84"/>
<text text-anchor="start" x="1390.5" y="-102" font-family="Helvetica,sans-Serif" font-size="10.00" fill="#000000">tensorflow/compiler</text>
<text text-anchor="middle" x="1463" y="-91" font-family="Helvetica,sans-Serif" font-size="10.00" fill="#000000">/xla/service/hlo_reachability.h</text>
</g>
<!-- Node35&#45;&gt;Node38 -->
<g id="edge51" class="edge">
<title>Node35&#45;&gt;Node38</title>
<path fill="none" stroke="#191970" d="M1609.6679,-156.478C1581.018,-145.2503 1541.6636,-129.8276 1510.933,-117.7845"/>
<polygon fill="#191970" stroke="#191970" points="1511.8707,-114.3929 1501.283,-114.0028 1509.3165,-120.9103 1511.8707,-114.3929"/>
</g>
<!-- Node39 -->
<g id="node34" class="node">
<title>Node39</title>
<polygon fill="#ffffff" stroke="#bfbfbf" points="2190.5,-84 2190.5,-114 2303.5,-114 2303.5,-84 2190.5,-84"/>
<text text-anchor="start" x="2198.5" y="-102" font-family="Helvetica,sans-Serif" font-size="10.00" fill="#000000">tensorflow/compiler</text>
<text text-anchor="middle" x="2247" y="-91" font-family="Helvetica,sans-Serif" font-size="10.00" fill="#000000">/xla/shape_tree.h</text>
</g>
<!-- Node35&#45;&gt;Node39 -->
<g id="edge53" class="edge">
<title>Node35&#45;&gt;Node39</title>
<path fill="none" stroke="#191970" d="M1731.9028,-168.8759C1837.5978,-164.3203 2024.3563,-152.1103 2181,-120 2185.4265,-119.0926 2189.9756,-117.9991 2194.5159,-116.7937"/>
<polygon fill="#191970" stroke="#191970" points="2195.7181,-120.0912 2204.3904,-114.0049 2193.8155,-113.3547 2195.7181,-120.0912"/>
</g>
<!-- Node35&#45;&gt;Node40 -->
<g id="edge54" class="edge">
<title>Node35&#45;&gt;Node40</title>
<path fill="none" stroke="#191970" d="M1731.7655,-167.5483C1886.5696,-160.0174 2227.867,-142.3501 2515,-120 2565.7112,-116.0527 2622.9522,-110.4963 2666.0509,-106.0905"/>
<polygon fill="#191970" stroke="#191970" points="2666.5432,-109.5584 2676.133,-105.0545 2665.8276,-102.5951 2666.5432,-109.5584"/>
</g>
<!-- Node41 -->
<g id="node36" class="node">
<title>Node41</title>
<polygon fill="#ffffff" stroke="#bfbfbf" points="2398.5,-84 2398.5,-114 2505.5,-114 2505.5,-84 2398.5,-84"/>
<text text-anchor="start" x="2406.5" y="-102" font-family="Helvetica,sans-Serif" font-size="10.00" fill="#000000">tensorflow/core/lib</text>
<text text-anchor="middle" x="2452" y="-91" font-family="Helvetica,sans-Serif" font-size="10.00" fill="#000000">/gtl/flatset.h</text>
</g>
<!-- Node35&#45;&gt;Node41 -->
<g id="edge60" class="edge">
<title>Node35&#45;&gt;Node41</title>
<path fill="none" stroke="#191970" d="M1731.6449,-166.9778C1857.8744,-159.7116 2104.471,-143.795 2313,-120 2337.7183,-117.1794 2364.7908,-113.2754 2388.4234,-109.598"/>
<polygon fill="#191970" stroke="#191970" points="2388.99,-113.052 2398.3241,-108.0397 2387.9015,-106.1371 2388.99,-113.052"/>
</g>
<!-- Node46&#45;&gt;Node3 -->
<g id="edge73" class="edge">
<title>Node46&#45;&gt;Node3</title>
<path fill="none" stroke="#191970" d="M1076.5783,-306.6723C1108.1267,-268.2281 1190.7571,-167.5364 1228.1438,-121.9778"/>
<polygon fill="#191970" stroke="#191970" points="1230.9375,-124.0907 1234.5756,-114.1401 1225.5263,-119.6501 1230.9375,-124.0907"/>
</g>
<!-- Node46&#45;&gt;Node7 -->
<g id="edge69" class="edge">
<title>Node46&#45;&gt;Node7</title>
<path fill="none" stroke="#191970" d="M990.6623,-316.787C874.429,-307.8697 658.2934,-288.3687 632,-265 565.7534,-206.1221 565.5548,-87.4247 568.3353,-40.6174"/>
<polygon fill="#191970" stroke="#191970" points="571.8309,-40.8022 569.0485,-30.5793 564.8485,-40.3061 571.8309,-40.8022"/>
</g>
<!-- Node46&#45;&gt;Node9 -->
<g id="edge70" class="edge">
<title>Node46&#45;&gt;Node9</title>
<path fill="none" stroke="#191970" d="M1064.5702,-306.7353C1066.2133,-268.1223 1071.9152,-163.5475 1088,-78 1090.3931,-65.2724 1094.3064,-51.2653 1097.6639,-40.3215"/>
<polygon fill="#191970" stroke="#191970" points="1101.0729,-41.1499 1100.759,-30.5597 1094.4002,-39.0342 1101.0729,-41.1499"/>
</g>
<!-- Node46&#45;&gt;Node17 -->
<g id="edge72" class="edge">
<title>Node46&#45;&gt;Node17</title>
<path fill="none" stroke="#191970" d="M990.8442,-316.7595C867.6032,-307.3895 628.8495,-286.7044 597,-265 518.9706,-211.8257 483.0379,-96.9891 470.4883,-46.1242"/>
<polygon fill="#191970" stroke="#191970" points="473.8688,-45.2106 468.1585,-36.2863 467.0572,-46.8238 473.8688,-45.2106"/>
</g>
<!-- Node46&#45;&gt;Node21 -->
<g id="edge75" class="edge">
<title>Node46&#45;&gt;Node21</title>
<path fill="none" stroke="#191970" d="M990.8975,-321.4773C790.5139,-319.4662 242.9164,-309.8799 176,-265 104.4244,-216.9953 105.6988,-98.3941 110.0896,-46.2663"/>
<polygon fill="#191970" stroke="#191970" points="113.5842,-46.4881 111.0488,-36.2011 106.6158,-45.824 113.5842,-46.4881"/>
</g>
<!-- Node46&#45;&gt;Node26 -->
<g id="edge76" class="edge">
<title>Node46&#45;&gt;Node26</title>
<path fill="none" stroke="#191970" d="M1111.7839,-306.9906C1182.2623,-285.3862 1318.5458,-245.6393 1437,-223 1570.2028,-197.5419 1617.085,-244.2976 1740,-187 1758.2388,-178.4979 1755.992,-166.7548 1773,-156 1853.2904,-105.2295 1883.4145,-112.3045 1972,-78 2005.2981,-65.1054 2042.8481,-50.7418 2071.9219,-39.6592"/>
<polygon fill="#191970" stroke="#191970" points="2073.3398,-42.8645 2081.4384,-36.0335 2070.8475,-36.3232 2073.3398,-42.8645"/>
</g>
<!-- Node46&#45;&gt;Node32 -->
<g id="edge74" class="edge">
<title>Node46&#45;&gt;Node32</title>
<path fill="none" stroke="#191970" d="M1031.0295,-306.9608C1003.7939,-294.5376 964.9477,-276.8182 935.4006,-263.3406"/>
<polygon fill="#191970" stroke="#191970" points="936.7113,-260.0916 926.1606,-259.1259 933.8063,-266.4604 936.7113,-260.0916"/>
</g>
<!-- Node46&#45;&gt;Node36 -->
<g id="edge71" class="edge">
<title>Node46&#45;&gt;Node36</title>
<path fill="none" stroke="#191970" d="M1137.0033,-314.9429C1212.7859,-306.666 1334.3748,-290.7096 1437,-265 1491.4051,-251.3705 1501.683,-236.9763 1556,-223 1650.6786,-198.6382 1678.3588,-211.5065 1773,-187 1858.871,-164.7645 1879.4029,-154.7875 1961,-120 1965.844,-117.9348 1970.9175,-115.5749 1975.7963,-113.2003"/>
<polygon fill="#191970" stroke="#191970" points="1977.4445,-116.2894 1984.8267,-108.6898 1974.3166,-110.0271 1977.4445,-116.2894"/>
</g>
<!-- Node51&#45;&gt;Node2 -->
<g id="edge84" class="edge">
<title>Node51&#45;&gt;Node2</title>
<path fill="none" stroke="#191970" d="M2093.802,-320.5633C1828.2428,-314.7923 871.3957,-292.2893 738,-265 588.9817,-234.5147 535.0986,-228.0078 428,-120 404.1938,-95.9917 385.0995,-61.2661 374.6766,-39.9647"/>
<polygon fill="#191970" stroke="#191970" points="377.7247,-38.2241 370.2738,-30.6919 371.4012,-41.2266 377.7247,-38.2241"/>
</g>
<!-- Node51&#45;&gt;Node3 -->
<g id="edge86" class="edge">
<title>Node51&#45;&gt;Node3</title>
<path fill="none" stroke="#191970" d="M2093.664,-306.4976C2007.0114,-286.8772 1852.9856,-252.126 1721,-223 1647.2809,-206.732 1623.7862,-218.1066 1555,-187 1533.8604,-177.4402 1534.1514,-165.5337 1513,-156 1481.7339,-141.9072 1400.3342,-125.4596 1335.7457,-113.8646"/>
<polygon fill="#191970" stroke="#191970" points="1335.9929,-110.3536 1325.5342,-112.0464 1334.7658,-117.2452 1335.9929,-110.3536"/>
</g>
<!-- Node51&#45;&gt;Node5 -->
<g id="edge80" class="edge">
<title>Node51&#45;&gt;Node5</title>
<path fill="none" stroke="#191970" d="M2230.2667,-311.7646C2272.8819,-303.4119 2327.8385,-288.963 2372,-265 2396.6227,-251.6392 2397.2427,-240.6468 2419,-223 2471.7777,-180.1935 2506.7152,-183.0758 2532,-120 2538.9455,-102.6736 2543.621,-92.6081 2532,-78 2487.702,-22.3152 2441.8111,-69.0556 2376,-42 2371.9574,-40.338 2367.8454,-38.2223 2363.943,-35.9767"/>
<polygon fill="#191970" stroke="#191970" points="2365.6934,-32.9439 2355.349,-30.654 2362.0076,-38.895 2365.6934,-32.9439"/>
</g>
<!-- Node51&#45;&gt;Node7 -->
<g id="edge81" class="edge">
<title>Node51&#45;&gt;Node7</title>
<path fill="none" stroke="#191970" d="M2093.9014,-320.4474C1828.1354,-314.2174 872.4318,-290.1549 813,-265 699.1675,-216.8196 610.7017,-87.3071 580.8793,-39.2639"/>
<polygon fill="#191970" stroke="#191970" points="583.7575,-37.2613 575.5614,-30.5475 577.7819,-40.9071 583.7575,-37.2613"/>
</g>
<!-- Node51&#45;&gt;Node8 -->
<g id="edge82" class="edge">
<title>Node51&#45;&gt;Node8</title>
<path fill="none" stroke="#191970" d="M2230.1109,-319.284C2361.4391,-313.3445 2639.3193,-297.0929 2668,-265 2680.4386,-251.0815 2674.8964,-240.346 2668,-223 2659.8692,-202.5492 2648.3383,-203.696 2634,-187 2593.9757,-140.3944 2599.7822,-112.5716 2549,-78 2502.2679,-46.1856 2477.0619,-68.2652 2427,-42 2424.2126,-40.5376 2421.4389,-38.7519 2418.7984,-36.8456"/>
<polygon fill="#191970" stroke="#191970" points="2420.9618,-34.0942 2410.9623,-30.5926 2416.5957,-39.5657 2420.9618,-34.0942"/>
</g>
<!-- Node51&#45;&gt;Node9 -->
<g id="edge83" class="edge">
<title>Node51&#45;&gt;Node9</title>
<path fill="none" stroke="#191970" d="M2093.8729,-319.3357C1986.4328,-314.1219 1783.4271,-299.8706 1721,-265 1700.0328,-253.2881 1707.581,-235.3779 1687,-223 1661.3888,-207.5968 1183.181,-137.5633 1159,-120 1131.9452,-100.3494 1116.5638,-63.1164 1109.2859,-40.334"/>
<polygon fill="#191970" stroke="#191970" points="1112.6327,-39.3092 1106.4237,-30.7244 1105.924,-41.3074 1112.6327,-39.3092"/>
</g>
<!-- Node51&#45;&gt;Node21 -->
<g id="edge92" class="edge">
<title>Node51&#45;&gt;Node21</title>
<path fill="none" stroke="#191970" d="M2093.6438,-320.939C1808.3207,-316.3217 720.258,-296.7729 570,-265 400.4338,-229.1443 351.6768,-216.9293 208,-120 176.7948,-98.9479 147.9161,-66.1635 130.3818,-44.1526"/>
<polygon fill="#191970" stroke="#191970" points="132.9345,-41.7349 124.02,-36.0094 127.4183,-46.0444 132.9345,-41.7349"/>
</g>
<!-- Node51&#45;&gt;Node22 -->
<g id="edge93" class="edge">
<title>Node51&#45;&gt;Node22</title>
<path fill="none" stroke="#191970" d="M2230.2442,-318.1722C2375.2436,-309.6388 2704.5197,-287.9892 2750,-265 2791.5708,-243.987 2803.0189,-230.3742 2820,-187 2838.5799,-139.5422 2823.1499,-78.9755 2811.6607,-45.6889"/>
<polygon fill="#191970" stroke="#191970" points="2814.9513,-44.4964 2808.2636,-36.2791 2808.3673,-46.8734 2814.9513,-44.4964"/>
</g>
<!-- Node51&#45;&gt;Node23 -->
<g id="edge94" class="edge">
<title>Node51&#45;&gt;Node23</title>
<path fill="none" stroke="#191970" d="M2230.4017,-304.5122C2261.7817,-295.0689 2298.8476,-281.8546 2330,-265 2341.4853,-258.786 2509.2846,-131.7413 2515,-120 2523.1699,-103.2162 2527.0096,-92.2904 2515,-78 2485.1016,-42.4235 2354.0568,-53.3793 2309,-42 2305.437,-41.1001 2301.7845,-40.0988 2298.1201,-39.0352"/>
<polygon fill="#191970" stroke="#191970" points="2299.0311,-35.6541 2288.4457,-36.1013 2296.9996,-42.3529 2299.0311,-35.6541"/>
</g>
<!-- Node51&#45;&gt;Node25 -->
<g id="edge95" class="edge">
<title>Node51&#45;&gt;Node25</title>
<path fill="none" stroke="#191970" d="M2144.3296,-301.304C2128.8985,-280.5665 2111.1147,-248.1928 2126,-223 2179.499,-132.455 2381.9508,-157.4124 2313,-78 2275.6242,-34.9533 2114.4907,-55.0673 2059,-42 2055.195,-41.104 2051.2927,-40.0769 2047.3858,-38.9692"/>
<polygon fill="#191970" stroke="#191970" points="2048.3006,-35.5897 2037.717,-36.0786 2046.2954,-42.2964 2048.3006,-35.5897"/>
</g>
<!-- Node51&#45;&gt;Node26 -->
<g id="edge97" class="edge">
<title>Node51&#45;&gt;Node26</title>
<path fill="none" stroke="#191970" d="M2148.1061,-301.4955C2135.2357,-279.7007 2120.6299,-245.3597 2139,-223 2191.3436,-159.2885 2258.1723,-240.4012 2321,-187 2358.8709,-154.8112 2377.1001,-116.7699 2346,-78 2299.8486,-20.467 2255.0801,-61.688 2184,-42 2180.6772,-41.0796 2177.2709,-40.0877 2173.8461,-39.0535"/>
<polygon fill="#191970" stroke="#191970" points="2174.7872,-35.6809 2164.1989,-36.0513 2172.7072,-42.3647 2174.7872,-35.6809"/>
</g>
<!-- Node51&#45;&gt;Node30 -->
<g id="edge99" class="edge">
<title>Node51&#45;&gt;Node30</title>
<path fill="none" stroke="#191970" d="M2230.0541,-319.5542C2364.7901,-314.0095 2655.1362,-298.2954 2685,-265 2754.5718,-187.4338 2608.9844,-84.28 2538.8775,-41.2198"/>
<polygon fill="#191970" stroke="#191970" points="2540.6849,-38.2226 2530.3191,-36.0313 2537.0559,-44.2085 2540.6849,-38.2226"/>
</g>
<!-- Node51&#45;&gt;Node31 -->
<g id="edge100" class="edge">
<title>Node51&#45;&gt;Node31</title>
<path fill="none" stroke="#191970" d="M2230.072,-318.2216C2367.4555,-310.1174 2668.2367,-289.7736 2708,-265 2786.4495,-216.1238 2850.5833,-154.6966 2799,-78 2789.6691,-64.1263 2754.9424,-49.9421 2722.4127,-39.1936"/>
<polygon fill="#191970" stroke="#191970" points="2723.4619,-35.8545 2712.8702,-36.1147 2721.3123,-42.5163 2723.4619,-35.8545"/>
</g>
<!-- Node51&#45;&gt;Node32 -->
<g id="edge87" class="edge">
<title>Node51&#45;&gt;Node32</title>
<path fill="none" stroke="#191970" d="M2093.773,-317.8064C1877.5484,-304.516 1208.0337,-263.3638 974.4232,-249.0047"/>
<polygon fill="#191970" stroke="#191970" points="974.4924,-245.5025 964.2965,-248.3823 974.0629,-252.4893 974.4924,-245.5025"/>
</g>
<!-- Node51&#45;&gt;Node37 -->
<g id="edge85" class="edge">
<title>Node51&#45;&gt;Node37</title>
<path fill="none" stroke="#191970" d="M2106.721,-301.3128C2091.0827,-292.5975 2075.908,-280.7332 2067,-265 2042.2958,-221.3676 2068.039,-163.0481 2088.4145,-128.4164"/>
<polygon fill="#191970" stroke="#191970" points="2091.4945,-130.088 2093.7085,-119.727 2085.5166,-126.4459 2091.4945,-130.088"/>
</g>
<!-- Node51&#45;&gt;Node39 -->
<g id="edge90" class="edge">
<title>Node51&#45;&gt;Node39</title>
<path fill="none" stroke="#191970" d="M2229.236,-301.4701C2246.0943,-292.9616 2262.1656,-281.1724 2272,-265 2299.0132,-220.5777 2276.2392,-157.4588 2259.948,-123.2711"/>
<polygon fill="#191970" stroke="#191970" points="2262.9471,-121.4408 2255.3672,-114.0384 2256.6765,-124.552 2262.9471,-121.4408"/>
</g>
<!-- Node51&#45;&gt;Node40 -->
<g id="edge91" class="edge">
<title>Node51&#45;&gt;Node40</title>
<path fill="none" stroke="#191970" d="M2230.2382,-317.1548C2284.2012,-310.9707 2360.0123,-296.9153 2419,-265 2442.4962,-252.2874 2438.9246,-236.4613 2462,-223 2511.5689,-194.0835 2533.392,-209.9268 2586,-187 2628.7502,-168.3693 2674.2724,-139.5526 2703.1372,-120.014"/>
<polygon fill="#191970" stroke="#191970" points="2705.2593,-122.803 2711.539,-114.2698 2701.3085,-117.0245 2705.2593,-122.803"/>
</g>
<!-- Node51&#45;&gt;Node41 -->
<g id="edge98" class="edge">
<title>Node51&#45;&gt;Node41</title>
<path fill="none" stroke="#191970" d="M2221.8439,-301.4726C2244.8395,-292.1552 2270.6678,-279.8622 2292,-265 2351.6446,-223.4455 2407.1864,-157.3075 2434.4296,-122.3786"/>
<polygon fill="#191970" stroke="#191970" points="2437.3974,-124.2614 2440.7314,-114.2047 2431.8537,-119.9873 2437.3974,-124.2614"/>
</g>
<!-- Node51&#45;&gt;Node50 -->
<g id="edge88" class="edge">
<title>Node51&#45;&gt;Node50</title>
<path fill="none" stroke="#191970" d="M2093.8543,-317.2977C2002.0671,-310.152 1833.9574,-294.199 1693,-265 1691.5446,-264.6985 1690.0759,-264.3814 1688.5979,-264.0508"/>
<polygon fill="#191970" stroke="#191970" points="1689.2948,-260.6187 1678.7545,-261.6927 1687.664,-267.4261 1689.2948,-260.6187"/>
</g>
<!-- Node52 -->
<g id="node40" class="node">
<title>Node52</title>
<polygon fill="#ffffff" stroke="#bfbfbf" points="2471,-234.5 2471,-253.5 2527,-253.5 2527,-234.5 2471,-234.5"/>
<text text-anchor="middle" x="2499" y="-241.5" font-family="Helvetica,sans-Serif" font-size="10.00" fill="#000000">stddef.h</text>
</g>
<!-- Node51&#45;&gt;Node52 -->
<g id="edge79" class="edge">
<title>Node51&#45;&gt;Node52</title>
<path fill="none" stroke="#191970" d="M2230.1352,-314.2022C2290.8154,-306.0037 2381.427,-290.6543 2457,-265 2462.4038,-263.1656 2467.9926,-260.7643 2473.2613,-258.2432"/>
<polygon fill="#191970" stroke="#191970" points="2474.9489,-261.3119 2482.29,-253.6725 2471.7872,-255.0665 2474.9489,-261.3119"/>
</g>
<!-- Node53 -->
<g id="node41" class="node">
<title>Node53</title>
<polygon fill="#ffffff" stroke="#bfbfbf" points="2545.5,-223.5 2545.5,-264.5 2658.5,-264.5 2658.5,-223.5 2545.5,-223.5"/>
<text text-anchor="start" x="2553.5" y="-252.5" font-family="Helvetica,sans-Serif" font-size="10.00" fill="#000000">tensorflow/compiler</text>
<text text-anchor="start" x="2553.5" y="-241.5" font-family="Helvetica,sans-Serif" font-size="10.00" fill="#000000">/xla/service/logical</text>
<text text-anchor="middle" x="2602" y="-230.5" font-family="Helvetica,sans-Serif" font-size="10.00" fill="#000000">_buffer_analysis.h</text>
</g>
<!-- Node51&#45;&gt;Node53 -->
<g id="edge89" class="edge">
<title>Node51&#45;&gt;Node53</title>
<path fill="none" stroke="#191970" d="M2230.1736,-314.8647C2303.473,-306.4622 2423.4399,-290.6003 2535.4993,-264.9396"/>
<polygon fill="#191970" stroke="#191970" points="2536.326,-268.3408 2545.276,-262.6708 2534.7436,-261.522 2536.326,-268.3408"/>
</g>
<!-- Node54 -->
<g id="node42" class="node">
<title>Node54</title>
<polygon fill="#ffffff" stroke="#bfbfbf" points="2147.5,-229 2147.5,-259 2262.5,-259 2262.5,-229 2147.5,-229"/>
<text text-anchor="start" x="2155.5" y="-247" font-family="Helvetica,sans-Serif" font-size="10.00" fill="#000000">tensorflow/core/lib</text>
<text text-anchor="middle" x="2205" y="-236" font-family="Helvetica,sans-Serif" font-size="10.00" fill="#000000">/gtl/compactptrset.h</text>
</g>
<!-- Node51&#45;&gt;Node54 -->
<g id="edge96" class="edge">
<title>Node51&#45;&gt;Node54</title>
<path fill="none" stroke="#191970" d="M2173.5232,-301.0974C2179.0848,-291.0089 2185.7909,-278.8445 2191.5816,-268.3404"/>
<polygon fill="#191970" stroke="#191970" points="2194.8203,-269.715 2196.5831,-259.2679 2188.6901,-266.3355 2194.8203,-269.715"/>
</g>
</g>
</svg>
