<?xml version="1.0" encoding="UTF-8" standalone="no"?>
<!DOCTYPE svg PUBLIC "-//W3C//DTD SVG 1.1//EN"
 "http://www.w3.org/Graphics/SVG/1.1/DTD/svg11.dtd">
<!-- Generated by graphviz version 2.40.1 (20161225.0304)
 -->
<!-- Title: xla::CompileOnlyService::AotComputationInstance Pages: 1 -->
<svg width="349pt" height="106pt"
 viewBox="0.00 0.00 348.50 106.00" xmlns="http://www.w3.org/2000/svg" xmlns:xlink="http://www.w3.org/1999/xlink">
<g id="graph0" class="graph" transform="scale(1 1) rotate(0) translate(4 102)">
<title>xla::CompileOnlyService::AotComputationInstance</title>
<polygon fill="#ffffff" stroke="transparent" points="-4,4 -4,-102 344.5,-102 344.5,4 -4,4"/>
<!-- Node1 -->
<g id="node1" class="node">
<title>Node1</title>
<polygon fill="#bfbfbf" stroke="#000000" points="82.5,-.5 82.5,-30.5 213.5,-30.5 213.5,-.5 82.5,-.5"/>
<text text-anchor="start" x="90.5" y="-18.5" font-family="Helvetica,sans-Serif" font-size="10.00" fill="#000000">xla::CompileOnlyService</text>
<text text-anchor="middle" x="148" y="-7.5" font-family="Helvetica,sans-Serif" font-size="10.00" fill="#000000">::AotComputationInstance</text>
</g>
<!-- Node2 -->
<g id="node2" class="node">
<title>Node2</title>
<polygon fill="#ffffff" stroke="#bfbfbf" points="0,-78.5 0,-97.5 78,-97.5 78,-78.5 0,-78.5"/>
<text text-anchor="middle" x="39" y="-85.5" font-family="Helvetica,sans-Serif" font-size="10.00" fill="#000000">const Shape *</text>
</g>
<!-- Node2&#45;&gt;Node1 -->
<g id="edge1" class="edge">
<title>Node2&#45;&gt;Node1</title>
<path fill="none" stroke="#9a32cd" stroke-dasharray="5,2" d="M56.6405,-71.4977C64.9195,-64.1664 75.1219,-55.6998 85,-49 94.842,-42.3247 106.1618,-35.945 116.4672,-30.5778"/>
<polygon fill="#9a32cd" stroke="#9a32cd" points="54.1462,-69.0347 49.0859,-78.343 58.8465,-74.222 54.1462,-69.0347"/>
<text text-anchor="middle" x="114.5" y="-52" font-family="Helvetica,sans-Serif" font-size="10.00" fill="#000000"> result_layout</text>
</g>
<!-- Node3 -->
<g id="node3" class="node">
<title>Node3</title>
<polygon fill="#ffffff" stroke="#bfbfbf" points="96.5,-78.5 96.5,-97.5 199.5,-97.5 199.5,-78.5 96.5,-78.5"/>
<text text-anchor="middle" x="148" y="-85.5" font-family="Helvetica,sans-Serif" font-size="10.00" fill="#000000">ComputationHandle</text>
</g>
<!-- Node3&#45;&gt;Node1 -->
<g id="edge2" class="edge">
<title>Node3&#45;&gt;Node1</title>
<path fill="none" stroke="#9a32cd" stroke-dasharray="5,2" d="M148,-68.0177C148,-56.2164 148,-41.513 148,-30.668"/>
<polygon fill="#9a32cd" stroke="#9a32cd" points="144.5001,-68.2223 148,-78.2223 151.5001,-68.2224 144.5001,-68.2223"/>
<text text-anchor="middle" x="176.5" y="-52" font-family="Helvetica,sans-Serif" font-size="10.00" fill="#000000"> computation</text>
</g>
<!-- Node4 -->
<g id="node4" class="node">
<title>Node4</title>
<polygon fill="#ffffff" stroke="#bfbfbf" points="217.5,-78.5 217.5,-97.5 340.5,-97.5 340.5,-78.5 217.5,-78.5"/>
<text text-anchor="middle" x="279" y="-85.5" font-family="Helvetica,sans-Serif" font-size="10.00" fill="#000000">vector&lt; const Shape * &gt;</text>
</g>
<!-- Node4&#45;&gt;Node1 -->
<g id="edge3" class="edge">
<title>Node4&#45;&gt;Node1</title>
<path fill="none" stroke="#9a32cd" stroke-dasharray="5,2" d="M252.792,-73.3488C239.6559,-66.0179 223.4977,-57.0195 209,-49 198.1103,-42.9763 186.1087,-36.3768 175.6528,-30.64"/>
<polygon fill="#9a32cd" stroke="#9a32cd" points="251.3186,-76.5347 261.7561,-78.3543 254.7314,-70.423 251.3186,-76.5347"/>
<text text-anchor="middle" x="268.5" y="-52" font-family="Helvetica,sans-Serif" font-size="10.00" fill="#000000"> argument_layouts</text>
</g>
</g>
</svg>
