<?xml version="1.0" encoding="UTF-8" standalone="no"?>
<!DOCTYPE svg PUBLIC "-//W3C//DTD SVG 1.1//EN"
 "http://www.w3.org/Graphics/SVG/1.1/DTD/svg11.dtd">
<!-- Generated by graphviz version 2.40.1 (20161225.0304)
 -->
<!-- Title: xla::anonymous_namespace{user_computation.cc}::ComputationLowerer Pages: 1 -->
<!--zoomable 217 -->
<svg id="main" version="1.1" xmlns="http://www.w3.org/2000/svg" xmlns:xlink="http://www.w3.org/1999/xlink" xml:space="preserve" onload="init(evt)">
<style type="text/css"><![CDATA[
.edge:hover path { stroke: red; }
.edge:hover polygon { stroke: red; fill: red; }
]]></style>
<script type="text/javascript"><![CDATA[
var edges = document.getElementsByTagName('g');
if (edges && edges.length) {
  for (var i=0;i<edges.length;i++) {
    if (edges[i].id.substr(0,4)=='edge') {
      edges[i].setAttribute('class','edge');
    }
  }
}
]]></script>
        <defs>
                <circle id="rim" cx="0" cy="0" r="7"/>
                <circle id="rim2" cx="0" cy="0" r="3.5"/>
                <g id="zoomPlus">
                        <use xlink:href="#rim" fill="#404040">
                                <set attributeName="fill" to="#808080" begin="zoomplus.mouseover" end="zoomplus.mouseout"/>
                        </use>
                        <path d="M-4,0h8M0,-4v8" fill="none" stroke="white" stroke-width="1.5" pointer-events="none"/>
                </g>
                <g id="zoomMin">
                        <use xlink:href="#rim" fill="#404040">
                                <set attributeName="fill" to="#808080" begin="zoomminus.mouseover" end="zoomminus.mouseout"/>
                        </use>
                        <path d="M-4,0h8" fill="none" stroke="white" stroke-width="1.5" pointer-events="none"/>
                </g>
                <g id="dirArrow">
                        <path fill="none" stroke="white" stroke-width="1.5" d="M0,-3.0v7 M-2.5,-0.5L0,-3.0L2.5,-0.5"/>
                </g>
               <g id="resetDef">
                       <use xlink:href="#rim2" fill="#404040">
                               <set attributeName="fill" to="#808080" begin="reset.mouseover" end="reset.mouseout"/>
                       </use>
               </g>
        </defs>

<script type="text/javascript">
var viewWidth = 574;
var viewHeight = 217;
var sectionId = 'dynsection-0';
</script>
<script xlink:href="../../svgpan.js"/>
<svg id="graph" class="graph">
<g id="viewport">
<title>xla::anonymous_namespace{user_computation.cc}::ComputationLowerer</title>
<polygon fill="#ffffff" stroke="transparent" points="-4,4 -4,-213 570,-213 570,4 -4,4"/>
<!-- Node1 -->
<g id="node1" class="node">
<title>Node1</title>
<polygon fill="#bfbfbf" stroke="#000000" points="0,-.5 0,-41.5 156,-41.5 156,-.5 0,-.5"/>
<text text-anchor="start" x="8" y="-29.5" font-family="Helvetica,sans-Serif" font-size="10.00" fill="#000000">xla::anonymous_namespace</text>
<text text-anchor="start" x="8" y="-18.5" font-family="Helvetica,sans-Serif" font-size="10.00" fill="#000000">{user_computation.cc}::</text>
<text text-anchor="middle" x="78" y="-7.5" font-family="Helvetica,sans-Serif" font-size="10.00" fill="#000000">ComputationLowerer</text>
</g>
<!-- Node2 -->
<g id="node2" class="node">
<title>Node2</title>
<g id="a_node2"><a xlink:href="../../de/d57/classxla_1_1HloComputation_1_1Builder.html" target="_top" xlink:title="Builder class for HloComputation. ">
<polygon fill="#ffffff" stroke="#000000" points="19.5,-89.5 19.5,-119.5 136.5,-119.5 136.5,-89.5 19.5,-89.5"/>
<text text-anchor="start" x="27.5" y="-107.5" font-family="Helvetica,sans-Serif" font-size="10.00" fill="#000000">xla::HloComputation</text>
<text text-anchor="middle" x="78" y="-96.5" font-family="Helvetica,sans-Serif" font-size="10.00" fill="#000000">::Builder</text>
</a>
</g>
</g>
<!-- Node2&#45;&gt;Node1 -->
<g id="edge1" class="edge">
<title>Node2&#45;&gt;Node1</title>
<path fill="none" stroke="#9a32cd" stroke-dasharray="5,2" d="M78,-78.9112C78,-66.9282 78,-52.8447 78,-41.5668"/>
<polygon fill="#9a32cd" stroke="#9a32cd" points="74.5001,-79.1848 78,-89.1848 81.5001,-79.1848 74.5001,-79.1848"/>
<text text-anchor="middle" x="109.5" y="-63" font-family="Helvetica,sans-Serif" font-size="10.00" fill="#000000"> hlo_builder_</text>
</g>
<!-- Node3 -->
<g id="node3" class="node">
<title>Node3</title>
<g id="a_node3"><a xlink:href="../../d7/d59/classxla_1_1HloInstruction.html" target="_top" xlink:title="xla::HloInstruction">
<polygon fill="#ffffff" stroke="#000000" points="164,-189.5 164,-208.5 270,-208.5 270,-189.5 164,-189.5"/>
<text text-anchor="middle" x="217" y="-196.5" font-family="Helvetica,sans-Serif" font-size="10.00" fill="#000000">xla::HloInstruction</text>
</a>
</g>
</g>
<!-- Node3&#45;&gt;Node2 -->
<g id="edge2" class="edge">
<title>Node3&#45;&gt;Node2</title>
<path fill="none" stroke="#9a32cd" stroke-dasharray="5,2" d="M153.8888,-191.8966C126.3751,-187.4917 98.2785,-180.7684 89,-171 76.0249,-157.3398 75.0193,-134.5593 76.0597,-119.533"/>
<polygon fill="#9a32cd" stroke="#9a32cd" points="153.5529,-195.3854 163.9631,-193.4158 154.5968,-188.4637 153.5529,-195.3854"/>
<text text-anchor="start" x="89" y="-163" font-family="Helvetica,sans-Serif" font-size="10.00" fill="#000000"> fusion_instruction</text>
<text text-anchor="middle" x="147" y="-152" font-family="Helvetica,sans-Serif" font-size="10.00" fill="#000000">_</text>
<text text-anchor="middle" x="147" y="-141" font-family="Helvetica,sans-Serif" font-size="10.00" fill="#000000">last_added_instruction_</text>
</g>
<!-- Node3&#45;&gt;Node3 -->
<g id="edge3" class="edge">
<title>Node3&#45;&gt;Node3</title>
<path fill="none" stroke="#9a32cd" stroke-dasharray="5,2" d="M280.4305,-205.1307C285.122,-203.756 288,-201.7124 288,-199 288,-194.6602 280.6323,-192.0325 270.2572,-191.1171"/>
<polygon fill="#9a32cd" stroke="#9a32cd" points="279.518,-201.7363 270.2572,-206.8829 280.7062,-208.6347 279.518,-201.7363"/>
<text text-anchor="middle" x="333.5" y="-196.5" font-family="Helvetica,sans-Serif" font-size="10.00" fill="#000000"> trace_instruction_</text>
</g>
<!-- Node4 -->
<g id="node4" class="node">
<title>Node4</title>
<g id="a_node4"><a xlink:href="../../d4/d36/classxla_1_1HloComputation.html" target="_top" xlink:title="xla::HloComputation">
<polygon fill="#ffffff" stroke="#000000" points="215.5,-95 215.5,-114 332.5,-114 332.5,-95 215.5,-95"/>
<text text-anchor="middle" x="274" y="-102" font-family="Helvetica,sans-Serif" font-size="10.00" fill="#000000">xla::HloComputation</text>
</a>
</g>
</g>
<!-- Node3&#45;&gt;Node4 -->
<g id="edge5" class="edge">
<title>Node3&#45;&gt;Node4</title>
<path fill="none" stroke="#9a32cd" stroke-dasharray="5,2" d="M210.7405,-179.1544C207.9769,-166.5314 206.7766,-150.3061 214,-138 220.5224,-126.8881 232.2203,-119.1896 243.5659,-114.0021"/>
<polygon fill="#9a32cd" stroke="#9a32cd" points="207.4421,-180.3695 213.3991,-189.131 214.206,-178.5669 207.4421,-180.3695"/>
<text text-anchor="start" x="214" y="-163" font-family="Helvetica,sans-Serif" font-size="10.00" fill="#000000"> fusion_instruction</text>
<text text-anchor="middle" x="259.5" y="-152" font-family="Helvetica,sans-Serif" font-size="10.00" fill="#000000">_</text>
<text text-anchor="middle" x="259.5" y="-141" font-family="Helvetica,sans-Serif" font-size="10.00" fill="#000000">root_instruction_</text>
</g>
<!-- Node4&#45;&gt;Node3 -->
<g id="edge4" class="edge">
<title>Node4&#45;&gt;Node3</title>
<path fill="none" stroke="#9a32cd" stroke-dasharray="5,2" d="M296.2904,-120.6322C301.4287,-125.5708 306.2032,-131.4517 309,-138 314.7607,-151.488 317.7315,-159.2156 309,-171 303.4588,-178.4786 285.292,-184.7543 266.5489,-189.4562"/>
<polygon fill="#9a32cd" stroke="#9a32cd" points="298.5558,-117.9642 288.6898,-114.1025 293.9943,-123.2739 298.5558,-117.9642"/>
<text text-anchor="middle" x="335" y="-152" font-family="Helvetica,sans-Serif" font-size="10.00" fill="#000000"> parent_</text>
</g>
<!-- Node5 -->
<g id="node5" class="node">
<title>Node5</title>
<g id="a_node5"><a xlink:href="../../d7/d10/classxla_1_1HloModule.html" target="_top" xlink:title="xla::HloModule">
<polygon fill="#ffffff" stroke="#000000" points="335.5,-11.5 335.5,-30.5 424.5,-30.5 424.5,-11.5 335.5,-11.5"/>
<text text-anchor="middle" x="380" y="-18.5" font-family="Helvetica,sans-Serif" font-size="10.00" fill="#000000">xla::HloModule</text>
</a>
</g>
</g>
<!-- Node4&#45;&gt;Node5 -->
<g id="edge8" class="edge">
<title>Node4&#45;&gt;Node5</title>
<path fill="none" stroke="#9a32cd" stroke-dasharray="5,2" d="M257.1262,-86.8235C251.0367,-78.2804 246.9836,-68.1413 253,-60 263.0068,-46.459 302.9072,-35.6782 335.349,-28.9136"/>
<polygon fill="#9a32cd" stroke="#9a32cd" points="254.5452,-89.1955 263.5971,-94.7013 259.9544,-84.7524 254.5452,-89.1955"/>
<text text-anchor="middle" x="303.5" y="-63" font-family="Helvetica,sans-Serif" font-size="10.00" fill="#000000"> entry_computation_</text>
</g>
<!-- Node5&#45;&gt;Node4 -->
<g id="edge6" class="edge">
<title>Node5&#45;&gt;Node4</title>
<path fill="none" stroke="#9a32cd" stroke-dasharray="5,2" d="M375.2876,-40.4869C371.9458,-50.7122 366.5067,-62.7862 358,-71 346.3667,-82.2328 330.4966,-89.8497 315.6822,-94.942"/>
<polygon fill="#9a32cd" stroke="#9a32cd" points="378.6907,-41.3151 378.0515,-30.7396 371.9562,-39.4055 378.6907,-41.3151"/>
<text text-anchor="middle" x="387" y="-63" font-family="Helvetica,sans-Serif" font-size="10.00" fill="#000000"> parent_</text>
</g>
<!-- Node6 -->
<g id="node6" class="node">
<title>Node6</title>
<g id="a_node6"><a xlink:href="../../db/df3/structxla_1_1VersionedComputationHandle.html" target="_top" xlink:title="xla::VersionedComputation\lHandle">
<polygon fill="#ffffff" stroke="#000000" points="368.5,-89.5 368.5,-119.5 517.5,-119.5 517.5,-89.5 368.5,-89.5"/>
<text text-anchor="start" x="376.5" y="-107.5" font-family="Helvetica,sans-Serif" font-size="10.00" fill="#000000">xla::VersionedComputation</text>
<text text-anchor="middle" x="443" y="-96.5" font-family="Helvetica,sans-Serif" font-size="10.00" fill="#000000">Handle</text>
</a>
</g>
</g>
<!-- Node6&#45;&gt;Node5 -->
<g id="edge7" class="edge">
<title>Node6&#45;&gt;Node5</title>
<path fill="none" stroke="#9a32cd" stroke-dasharray="5,2" d="M432.7477,-79.8981C429.4425,-73.1666 425.4637,-66.0612 421,-60 412.7277,-48.7673 401.0177,-37.9964 392.2289,-30.6311"/>
<polygon fill="#9a32cd" stroke="#9a32cd" points="429.7267,-81.706 437.0861,-89.3277 436.086,-78.7801 429.7267,-81.706"/>
<text text-anchor="middle" x="496.5" y="-63" font-family="Helvetica,sans-Serif" font-size="10.00" fill="#000000"> entry_computation_handle_</text>
</g>
</g>
</svg>
        <g id="navigator" transform="translate(0 0)" fill="#404254">
                <rect fill="#f2f5e9" fill-opacity="0.5" stroke="#606060" stroke-width=".5" x="0" y="0" width="60" height="60"/>
                <use id="zoomplus" xlink:href="#zoomPlus" x="17" y="9" onmousedown="handleZoom(evt,'in')"/>
                <use id="zoomminus" xlink:href="#zoomMin" x="42" y="9" onmousedown="handleZoom(evt,'out')"/>
                <use id="reset" xlink:href="#resetDef" x="30" y="36" onmousedown="handleReset()"/>
                <g id="arrowUp" xlink:href="#dirArrow" transform="translate(30 24)" onmousedown="handlePan(0,-1)">
                  <use xlink:href="#rim" fill="#404040">
                        <set attributeName="fill" to="#808080" begin="arrowUp.mouseover" end="arrowUp.mouseout"/>
                  </use>
                  <path fill="none" stroke="white" stroke-width="1.5" d="M0,-3.0v7 M-2.5,-0.5L0,-3.0L2.5,-0.5"/>
                </g>
                <g id="arrowRight" xlink:href="#dirArrow" transform="rotate(90) translate(36 -43)" onmousedown="handlePan(1,0)">
                  <use xlink:href="#rim" fill="#404040">
                        <set attributeName="fill" to="#808080" begin="arrowRight.mouseover" end="arrowRight.mouseout"/>
                  </use>
                  <path fill="none" stroke="white" stroke-width="1.5" d="M0,-3.0v7 M-2.5,-0.5L0,-3.0L2.5,-0.5"/>
                </g>
                <g id="arrowDown" xlink:href="#dirArrow" transform="rotate(180) translate(-30 -48)" onmousedown="handlePan(0,1)">
                  <use xlink:href="#rim" fill="#404040">
                        <set attributeName="fill" to="#808080" begin="arrowDown.mouseover" end="arrowDown.mouseout"/>
                  </use>
                  <path fill="none" stroke="white" stroke-width="1.5" d="M0,-3.0v7 M-2.5,-0.5L0,-3.0L2.5,-0.5"/>
                </g>
                <g id="arrowLeft" xlink:href="#dirArrow" transform="rotate(270) translate(-36 17)" onmousedown="handlePan(-1,0)">
                  <use xlink:href="#rim" fill="#404040">
                        <set attributeName="fill" to="#808080" begin="arrowLeft.mouseover" end="arrowLeft.mouseout"/>
                  </use>
                  <path fill="none" stroke="white" stroke-width="1.5" d="M0,-3.0v7 M-2.5,-0.5L0,-3.0L2.5,-0.5"/>
                </g>
        </g>
        <svg viewBox="0 0 15 15" width="100%" height="30px" preserveAspectRatio="xMaxYMin meet">
         <g id="arrow_out" transform="scale(0.3 0.3)">
          <a xlink:href="classxla_1_1anonymous__namespace_02user__computation_8cc_03_1_1ComputationLowerer__coll__graph_org.svg" target="_base">
           <rect id="button" ry="5" rx="5" y="6" x="6" height="38" width="38"
                fill="#f2f5e9" fill-opacity="0.5" stroke="#606060" stroke-width="1.0"/>
           <path id="arrow"
             d="M 11.500037,31.436501 C 11.940474,20.09759 22.043105,11.32322 32.158766,21.979434 L 37.068811,17.246167 C 37.068811,17.246167 37.088388,32 37.088388,32 L 22.160133,31.978069 C 22.160133,31.978069 26.997745,27.140456 26.997745,27.140456 C 18.528582,18.264221 13.291696,25.230495 11.500037,31.436501 z"
             style="fill:#404040;"/>
          </a>
         </g>
        </svg>
</svg>
