<?xml version="1.0" encoding="UTF-8" standalone="no"?>
<!DOCTYPE svg PUBLIC "-//W3C//DTD SVG 1.1//EN"
 "http://www.w3.org/Graphics/SVG/1.1/DTD/svg11.dtd">
<!-- Generated by graphviz version 2.40.1 (20161225.0304)
 -->
<!-- Title: tensorflow::tfcompile::CompileResult Pages: 1 -->
<svg width="393pt" height="117pt"
 viewBox="0.00 0.00 392.50 117.00" xmlns="http://www.w3.org/2000/svg" xmlns:xlink="http://www.w3.org/1999/xlink">
<g id="graph0" class="graph" transform="scale(1 1) rotate(0) translate(4 113)">
<title>tensorflow::tfcompile::CompileResult</title>
<polygon fill="#ffffff" stroke="transparent" points="-4,4 -4,-113 388.5,-113 388.5,4 -4,4"/>
<!-- Node1 -->
<g id="node1" class="node">
<title>Node1</title>
<polygon fill="#bfbfbf" stroke="#000000" points="168,-.5 168,-30.5 275,-30.5 275,-.5 168,-.5"/>
<text text-anchor="start" x="176" y="-18.5" font-family="Helvetica,sans-Serif" font-size="10.00" fill="#000000">tensorflow::tfcompile</text>
<text text-anchor="middle" x="221.5" y="-7.5" font-family="Helvetica,sans-Serif" font-size="10.00" fill="#000000">::CompileResult</text>
</g>
<!-- Node2 -->
<g id="node2" class="node">
<title>Node2</title>
<polygon fill="#ffffff" stroke="#bfbfbf" points="0,-78.5 0,-108.5 145,-108.5 145,-78.5 0,-78.5"/>
<text text-anchor="start" x="8" y="-96.5" font-family="Helvetica,sans-Serif" font-size="10.00" fill="#000000">unique_ptr&lt; xla::cpu</text>
<text text-anchor="middle" x="72.5" y="-85.5" font-family="Helvetica,sans-Serif" font-size="10.00" fill="#000000">::CpuAotCompilationResult &gt;</text>
</g>
<!-- Node2&#45;&gt;Node1 -->
<g id="edge1" class="edge">
<title>Node2&#45;&gt;Node1</title>
<path fill="none" stroke="#9a32cd" stroke-dasharray="5,2" d="M110.2718,-73.7268C135.8517,-60.336 169.136,-42.912 192.6057,-30.6259"/>
<polygon fill="#9a32cd" stroke="#9a32cd" points="108.4649,-70.7221 101.2287,-78.4608 111.7115,-76.9237 108.4649,-70.7221"/>
<text text-anchor="middle" x="164" y="-52" font-family="Helvetica,sans-Serif" font-size="10.00" fill="#000000"> aot</text>
</g>
<!-- Node3 -->
<g id="node3" class="node">
<title>Node3</title>
<polygon fill="#ffffff" stroke="#bfbfbf" points="163,-84 163,-103 204,-103 204,-84 163,-84"/>
<text text-anchor="middle" x="183.5" y="-91" font-family="Helvetica,sans-Serif" font-size="10.00" fill="#000000">string</text>
</g>
<!-- Node3&#45;&gt;Node1 -->
<g id="edge2" class="edge">
<title>Node3&#45;&gt;Node1</title>
<path fill="none" stroke="#9a32cd" stroke-dasharray="5,2" d="M181.7989,-73.5383C181.8835,-65.5768 182.9784,-56.533 186.5,-49 189.7059,-42.1423 194.9835,-35.9659 200.48,-30.8395"/>
<polygon fill="#9a32cd" stroke="#9a32cd" points="178.3123,-73.9475 182.2045,-83.8015 185.3068,-73.6711 178.3123,-73.9475"/>
<text text-anchor="middle" x="212.5" y="-52" font-family="Helvetica,sans-Serif" font-size="10.00" fill="#000000"> entry_point</text>
</g>
<!-- Node4 -->
<g id="node4" class="node">
<title>Node4</title>
<polygon fill="#ffffff" stroke="#bfbfbf" points="222,-84 222,-103 303,-103 303,-84 222,-84"/>
<text text-anchor="middle" x="262.5" y="-91" font-family="Helvetica,sans-Serif" font-size="10.00" fill="#000000">ProgramShape</text>
</g>
<!-- Node4&#45;&gt;Node1 -->
<g id="edge3" class="edge">
<title>Node4&#45;&gt;Node1</title>
<path fill="none" stroke="#9a32cd" stroke-dasharray="5,2" d="M252.8102,-75.0657C245.7168,-61.5711 236.2048,-43.4749 229.533,-30.7824"/>
<polygon fill="#9a32cd" stroke="#9a32cd" points="249.7217,-76.7125 257.4726,-83.9357 255.9178,-73.4555 249.7217,-76.7125"/>
<text text-anchor="middle" x="278.5" y="-52" font-family="Helvetica,sans-Serif" font-size="10.00" fill="#000000"> program_shape</text>
</g>
<!-- Node5 -->
<g id="node5" class="node">
<title>Node5</title>
<polygon fill="#ffffff" stroke="#bfbfbf" points="339,-84 339,-103 368,-103 368,-84 339,-84"/>
<text text-anchor="middle" x="353.5" y="-91" font-family="Helvetica,sans-Serif" font-size="10.00" fill="#000000">int</text>
</g>
<!-- Node5&#45;&gt;Node1 -->
<g id="edge4" class="edge">
<title>Node5&#45;&gt;Node1</title>
<path fill="none" stroke="#9a32cd" stroke-dasharray="5,2" d="M342.307,-75.3103C335.9848,-66.3247 327.3742,-55.948 317.5,-49 304.9402,-40.1623 289.8298,-33.4624 275.3529,-28.468"/>
<polygon fill="#9a32cd" stroke="#9a32cd" points="339.391,-77.2461 347.8284,-83.6538 345.2285,-73.383 339.391,-77.2461"/>
<text text-anchor="middle" x="356.5" y="-52" font-family="Helvetica,sans-Serif" font-size="10.00" fill="#000000"> pointer_size</text>
</g>
</g>
</svg>
