<?xml version="1.0" encoding="UTF-8" standalone="no"?>
<!DOCTYPE svg PUBLIC "-//W3C//DTD SVG 1.1//EN"
 "http://www.w3.org/Graphics/SVG/1.1/DTD/svg11.dtd">
<!-- Generated by graphviz version 2.40.1 (20161225.0304)
 -->
<!-- Title: tensorflow/tensorflow/compiler/xla/client/compile_only_client.h Pages: 1 -->
<!--zoomable 563 -->
<svg id="main" version="1.1" xmlns="http://www.w3.org/2000/svg" xmlns:xlink="http://www.w3.org/1999/xlink" xml:space="preserve" onload="init(evt)">
<style type="text/css"><![CDATA[
.edge:hover path { stroke: red; }
.edge:hover polygon { stroke: red; fill: red; }
]]></style>
<script type="text/javascript"><![CDATA[
var edges = document.getElementsByTagName('g');
if (edges && edges.length) {
  for (var i=0;i<edges.length;i++) {
    if (edges[i].id.substr(0,4)=='edge') {
      edges[i].setAttribute('class','edge');
    }
  }
}
]]></script>
        <defs>
                <circle id="rim" cx="0" cy="0" r="7"/>
                <circle id="rim2" cx="0" cy="0" r="3.5"/>
                <g id="zoomPlus">
                        <use xlink:href="#rim" fill="#404040">
                                <set attributeName="fill" to="#808080" begin="zoomplus.mouseover" end="zoomplus.mouseout"/>
                        </use>
                        <path d="M-4,0h8M0,-4v8" fill="none" stroke="white" stroke-width="1.5" pointer-events="none"/>
                </g>
                <g id="zoomMin">
                        <use xlink:href="#rim" fill="#404040">
                                <set attributeName="fill" to="#808080" begin="zoomminus.mouseover" end="zoomminus.mouseout"/>
                        </use>
                        <path d="M-4,0h8" fill="none" stroke="white" stroke-width="1.5" pointer-events="none"/>
                </g>
                <g id="dirArrow">
                        <path fill="none" stroke="white" stroke-width="1.5" d="M0,-3.0v7 M-2.5,-0.5L0,-3.0L2.5,-0.5"/>
                </g>
               <g id="resetDef">
                       <use xlink:href="#rim2" fill="#404040">
                               <set attributeName="fill" to="#808080" begin="reset.mouseover" end="reset.mouseout"/>
                       </use>
               </g>
        </defs>

<script type="text/javascript">
var viewWidth = 3980;
var viewHeight = 563;
var sectionId = 'dynsection-0';
</script>
<script xlink:href="../../svgpan.js"/>
<svg id="graph" class="graph">
<g id="viewport">
<title>tensorflow/tensorflow/compiler/xla/client/compile_only_client.h</title>
<polygon fill="#ffffff" stroke="transparent" points="-4,4 -4,-559 3976,-559 3976,4 -4,4"/>
<!-- Node0 -->
<g id="node1" class="node">
<title>Node0</title>
<polygon fill="#bfbfbf" stroke="#000000" points="348.5,-513.5 348.5,-554.5 474.5,-554.5 474.5,-513.5 348.5,-513.5"/>
<text text-anchor="start" x="356.5" y="-542.5" font-family="Helvetica,sans-Serif" font-size="10.00" fill="#000000">tensorflow/tensorflow</text>
<text text-anchor="start" x="356.5" y="-531.5" font-family="Helvetica,sans-Serif" font-size="10.00" fill="#000000">/compiler/xla/client</text>
<text text-anchor="middle" x="411.5" y="-520.5" font-family="Helvetica,sans-Serif" font-size="10.00" fill="#000000">/compile_only_client.h</text>
</g>
<!-- Node1 -->
<g id="node2" class="node">
<title>Node1</title>
<polygon fill="#ffffff" stroke="#bfbfbf" points="0,-441 0,-471 113,-471 113,-441 0,-441"/>
<text text-anchor="start" x="8" y="-459" font-family="Helvetica,sans-Serif" font-size="10.00" fill="#000000">tensorflow/compiler</text>
<text text-anchor="middle" x="56.5" y="-448" font-family="Helvetica,sans-Serif" font-size="10.00" fill="#000000">/xla/client/client.h</text>
</g>
<!-- Node0&#45;&gt;Node1 -->
<g id="edge1" class="edge">
<title>Node0&#45;&gt;Node1</title>
<path fill="none" stroke="#191970" d="M348.4629,-523.6893C289.6052,-513.5624 199.5233,-496.7816 122.5,-477 118.7422,-476.0349 114.8832,-474.9795 111.0083,-473.8719"/>
<polygon fill="#191970" stroke="#191970" points="111.9735,-470.5075 101.3917,-471.0327 109.9914,-477.2211 111.9735,-470.5075"/>
</g>
<!-- Node2 -->
<g id="node3" class="node">
<title>Node2</title>
<polygon fill="#ffffff" stroke="#bfbfbf" points="131.5,-441 131.5,-471 269.5,-471 269.5,-441 131.5,-441"/>
<text text-anchor="start" x="139.5" y="-459" font-family="Helvetica,sans-Serif" font-size="10.00" fill="#000000">tensorflow/compiler</text>
<text text-anchor="middle" x="200.5" y="-448" font-family="Helvetica,sans-Serif" font-size="10.00" fill="#000000">/xla/client/computation.h</text>
</g>
<!-- Node0&#45;&gt;Node2 -->
<g id="edge2" class="edge">
<title>Node0&#45;&gt;Node2</title>
<path fill="none" stroke="#191970" d="M355.7862,-513.4044C323.1446,-501.3378 282.2528,-486.2214 250.6261,-474.53"/>
<polygon fill="#191970" stroke="#191970" points="251.721,-471.2033 241.1278,-471.0188 249.2938,-477.7691 251.721,-471.2033"/>
</g>
<!-- Node3 -->
<g id="node4" class="node">
<title>Node3</title>
<g id="a_node4"><a xlink:href="../../d2/d89/compile__only__service_8h.html" target="_top" xlink:title="tensorflow/compiler\l/xla/service/compile\l_only_service.h">
<polygon fill="#ffffff" stroke="#000000" points="445,-435.5 445,-476.5 560,-476.5 560,-435.5 445,-435.5"/>
<text text-anchor="start" x="453" y="-464.5" font-family="Helvetica,sans-Serif" font-size="10.00" fill="#000000">tensorflow/compiler</text>
<text text-anchor="start" x="453" y="-453.5" font-family="Helvetica,sans-Serif" font-size="10.00" fill="#000000">/xla/service/compile</text>
<text text-anchor="middle" x="502.5" y="-442.5" font-family="Helvetica,sans-Serif" font-size="10.00" fill="#000000">_only_service.h</text>
</a>
</g>
</g>
<!-- Node0&#45;&gt;Node3 -->
<g id="edge3" class="edge">
<title>Node0&#45;&gt;Node3</title>
<path fill="none" stroke="#191970" d="M435.8863,-513.0974C446.5803,-503.9312 459.2736,-493.0512 470.6967,-483.26"/>
<polygon fill="#191970" stroke="#191970" points="473.0471,-485.8552 478.3619,-476.6898 468.4915,-480.5403 473.0471,-485.8552"/>
</g>
<!-- Node5 -->
<g id="node6" class="node">
<title>Node5</title>
<g id="a_node6"><a xlink:href="../../d4/dd1/compiler_8h.html" target="_top" xlink:title="tensorflow/compiler\l/xla/service/compiler.h">
<polygon fill="#ffffff" stroke="#000000" points="2490,-296 2490,-326 2617,-326 2617,-296 2490,-296"/>
<text text-anchor="start" x="2498" y="-314" font-family="Helvetica,sans-Serif" font-size="10.00" fill="#000000">tensorflow/compiler</text>
<text text-anchor="middle" x="2553.5" y="-303" font-family="Helvetica,sans-Serif" font-size="10.00" fill="#000000">/xla/service/compiler.h</text>
</a>
</g>
</g>
<!-- Node0&#45;&gt;Node5 -->
<g id="edge135" class="edge">
<title>Node0&#45;&gt;Node5</title>
<path fill="none" stroke="#191970" d="M474.6452,-531.9308C700.3289,-523.9228 1487.7817,-490.7156 2130.5,-399 2255.9098,-381.1041 2399.9471,-348.5216 2483.4547,-328.4187"/>
<polygon fill="#191970" stroke="#191970" points="2484.4355,-331.7825 2493.3332,-326.0308 2482.7907,-324.9784 2484.4355,-331.7825"/>
</g>
<!-- Node34 -->
<g id="node25" class="node">
<title>Node34</title>
<polygon fill="#ffffff" stroke="#bfbfbf" points="1057,-.5 1057,-30.5 1170,-30.5 1170,-.5 1057,-.5"/>
<text text-anchor="start" x="1065" y="-18.5" font-family="Helvetica,sans-Serif" font-size="10.00" fill="#000000">tensorflow/compiler</text>
<text text-anchor="middle" x="1113.5" y="-7.5" font-family="Helvetica,sans-Serif" font-size="10.00" fill="#000000">/xla/xla_data.pb.h</text>
</g>
<!-- Node0&#45;&gt;Node34 -->
<g id="edge137" class="edge">
<title>Node0&#45;&gt;Node34</title>
<path fill="none" stroke="#191970" d="M381.5478,-513.3235C347.7716,-487.3061 297.5,-439.2229 297.5,-383.5 297.5,-383.5 297.5,-383.5 297.5,-155 297.5,-112.3532 251.055,-123.5363 462.5,-67 571.2891,-37.9119 903.2469,-22.9567 1046.511,-17.7161"/>
<polygon fill="#191970" stroke="#191970" points="1047.0384,-21.1994 1056.9056,-17.3408 1046.7858,-14.204 1047.0384,-21.1994"/>
</g>
<!-- Node46 -->
<g id="node30" class="node">
<title>Node46</title>
<polygon fill="#ffffff" stroke="#bfbfbf" points="1256,-67.5 1256,-97.5 1369,-97.5 1369,-67.5 1256,-67.5"/>
<text text-anchor="start" x="1264" y="-85.5" font-family="Helvetica,sans-Serif" font-size="10.00" fill="#000000">tensorflow/compiler</text>
<text text-anchor="middle" x="1312.5" y="-74.5" font-family="Helvetica,sans-Serif" font-size="10.00" fill="#000000">/xla/statusor.h</text>
</g>
<!-- Node0&#45;&gt;Node46 -->
<g id="edge136" class="edge">
<title>Node0&#45;&gt;Node46</title>
<path fill="none" stroke="#191970" d="M405.9058,-513.3559C394.7539,-467.1928 375.3014,-354.6103 430.5,-290 484.4513,-226.8497 1049.709,-126.6653 1245.8848,-93.5367"/>
<polygon fill="#191970" stroke="#191970" points="1246.4985,-96.9827 1255.7781,-91.8701 1245.3356,-90.08 1246.4985,-96.9827"/>
</g>
<!-- Node53 -->
<g id="node35" class="node">
<title>Node53</title>
<polygon fill="#ffffff" stroke="#bfbfbf" points="3815,-218 3815,-248 3972,-248 3972,-218 3815,-218"/>
<text text-anchor="start" x="3823" y="-236" font-family="Helvetica,sans-Serif" font-size="10.00" fill="#000000">tensorflow/core/platform</text>
<text text-anchor="middle" x="3893.5" y="-225" font-family="Helvetica,sans-Serif" font-size="10.00" fill="#000000">/stream_executor_no_cuda.h</text>
</g>
<!-- Node0&#45;&gt;Node53 -->
<g id="edge138" class="edge">
<title>Node0&#45;&gt;Node53</title>
<path fill="none" stroke="#191970" d="M474.5687,-531.5128C655.9576,-524.2656 1194.6208,-502.0855 1641.5,-477 2130.4581,-449.5524 3428.8744,-597.3257 3840.5,-332 3866.3623,-315.3297 3880.4804,-281.5853 3887.5053,-258.156"/>
<polygon fill="#191970" stroke="#191970" points="3890.9622,-258.7863 3890.2505,-248.2154 3884.2147,-256.9228 3890.9622,-258.7863"/>
</g>
<!-- Node4 -->
<g id="node5" class="node">
<title>Node4</title>
<polygon fill="#ffffff" stroke="#bfbfbf" points="439.5,-296 439.5,-326 565.5,-326 565.5,-296 439.5,-296"/>
<text text-anchor="start" x="447.5" y="-314" font-family="Helvetica,sans-Serif" font-size="10.00" fill="#000000">tensorflow/compiler</text>
<text text-anchor="middle" x="502.5" y="-303" font-family="Helvetica,sans-Serif" font-size="10.00" fill="#000000">/xla/service/backend.h</text>
</g>
<!-- Node3&#45;&gt;Node4 -->
<g id="edge4" class="edge">
<title>Node3&#45;&gt;Node4</title>
<path fill="none" stroke="#191970" d="M502.5,-435.225C502.5,-409.2316 502.5,-364.7287 502.5,-336.6416"/>
<polygon fill="#191970" stroke="#191970" points="506.0001,-336.4059 502.5,-326.406 499.0001,-336.406 506.0001,-336.4059"/>
</g>
<!-- Node3&#45;&gt;Node5 -->
<g id="edge5" class="edge">
<title>Node3&#45;&gt;Node5</title>
<path fill="none" stroke="#191970" d="M560.3835,-454.7301C799.8753,-449.3318 1714.1338,-427.2665 2001.5,-399 2173.8831,-382.0437 2374.2306,-345.9524 2479.7452,-325.6524"/>
<polygon fill="#191970" stroke="#191970" points="2480.5013,-329.0711 2489.6562,-323.7384 2479.1739,-322.1981 2480.5013,-329.0711"/>
</g>
<!-- Node3&#45;&gt;Node34 -->
<g id="edge133" class="edge">
<title>Node3&#45;&gt;Node34</title>
<path fill="none" stroke="#191970" d="M448.2799,-435.4061C399.517,-412.9409 335.5,-371.8588 335.5,-311 335.5,-311 335.5,-311 335.5,-155 335.5,-82.996 858.4692,-35.2892 1046.8677,-20.4391"/>
<polygon fill="#191970" stroke="#191970" points="1047.2248,-23.922 1056.9215,-19.6529 1046.679,-16.9433 1047.2248,-23.922"/>
</g>
<!-- Node3&#45;&gt;Node46 -->
<g id="edge132" class="edge">
<title>Node3&#45;&gt;Node46</title>
<path fill="none" stroke="#191970" d="M480.6858,-435.2634C448.5584,-402.1866 395.8786,-336.481 430.5,-290 528.9975,-157.762 1057.6641,-102.9532 1245.899,-87.4395"/>
<polygon fill="#191970" stroke="#191970" points="1246.2551,-90.9222 1255.9384,-86.6229 1245.6875,-83.9453 1246.2551,-90.9222"/>
</g>
<!-- Node3&#45;&gt;Node53 -->
<g id="edge134" class="edge">
<title>Node3&#45;&gt;Node53</title>
<path fill="none" stroke="#191970" d="M560.2859,-455.0787C987.7995,-448.1079 3647.1524,-402.0258 3800.5,-332 3835.3084,-316.1048 3863.3552,-280.5837 3879.2267,-256.7035"/>
<polygon fill="#191970" stroke="#191970" points="3882.2386,-258.4908 3884.7022,-248.1863 3876.3504,-254.7053 3882.2386,-258.4908"/>
</g>
<!-- Node55 -->
<g id="node37" class="node">
<title>Node55</title>
<g id="a_node37"><a xlink:href="../../d5/d83/service_8h.html" target="_top" xlink:title="tensorflow/compiler\l/xla/service/service.h">
<polygon fill="#ffffff" stroke="#000000" points="1872.5,-368.5 1872.5,-398.5 1992.5,-398.5 1992.5,-368.5 1872.5,-368.5"/>
<text text-anchor="start" x="1880.5" y="-386.5" font-family="Helvetica,sans-Serif" font-size="10.00" fill="#000000">tensorflow/compiler</text>
<text text-anchor="middle" x="1932.5" y="-375.5" font-family="Helvetica,sans-Serif" font-size="10.00" fill="#000000">/xla/service/service.h</text>
</a>
</g>
</g>
<!-- Node3&#45;&gt;Node55 -->
<g id="edge71" class="edge">
<title>Node3&#45;&gt;Node55</title>
<path fill="none" stroke="#191970" d="M560.3288,-453.0681C786.9821,-441.577 1614.4784,-399.6235 1862.0597,-387.0713"/>
<polygon fill="#191970" stroke="#191970" points="1862.5558,-390.5507 1872.3657,-386.5488 1862.2013,-383.5597 1862.5558,-390.5507"/>
</g>
<!-- Node6 -->
<g id="node7" class="node">
<title>Node6</title>
<polygon fill="#ffffff" stroke="#bfbfbf" points="3820,-6 3820,-25 3885,-25 3885,-6 3820,-6"/>
<text text-anchor="middle" x="3852.5" y="-13" font-family="Helvetica,sans-Serif" font-size="10.00" fill="#000000">functional</text>
</g>
<!-- Node5&#45;&gt;Node6 -->
<g id="edge6" class="edge">
<title>Node5&#45;&gt;Node6</title>
<path fill="none" stroke="#191970" d="M2596.9051,-295.9976C2605.3072,-293.6057 2614.109,-291.4461 2622.5,-290 2966.2442,-230.7592 3065.0308,-325.1923 3406.5,-254 3501.5249,-234.1884 3524.1961,-220.4282 3610.5,-176 3697.3598,-131.2856 3791.3837,-62.3009 3831.9564,-31.4098"/>
<polygon fill="#191970" stroke="#191970" points="3834.1888,-34.1086 3840.0002,-25.2498 3829.9328,-28.551 3834.1888,-34.1086"/>
</g>
<!-- Node7 -->
<g id="node8" class="node">
<title>Node7</title>
<polygon fill="#ffffff" stroke="#bfbfbf" points="2158.5,-145.5 2158.5,-164.5 2196.5,-164.5 2196.5,-145.5 2158.5,-145.5"/>
<text text-anchor="middle" x="2177.5" y="-152.5" font-family="Helvetica,sans-Serif" font-size="10.00" fill="#000000">map</text>
</g>
<!-- Node5&#45;&gt;Node7 -->
<g id="edge7" class="edge">
<title>Node5&#45;&gt;Node7</title>
<path fill="none" stroke="#191970" d="M2540.9502,-295.5607C2531.6713,-284.1184 2518.7484,-268.1257 2507.5,-254 2492.712,-235.4293 2494.7991,-224.3087 2474.5,-212 2400.2615,-166.9842 2367.7354,-192.5137 2282.5,-176 2256.8947,-171.0392 2227.8187,-165.2086 2206.7664,-160.9515"/>
<polygon fill="#191970" stroke="#191970" points="2207.3345,-157.4955 2196.8386,-158.9403 2205.9446,-164.3562 2207.3345,-157.4955"/>
</g>
<!-- Node8 -->
<g id="node9" class="node">
<title>Node8</title>
<polygon fill="#ffffff" stroke="#bfbfbf" points="1894.5,-6 1894.5,-25 1952.5,-25 1952.5,-6 1894.5,-6"/>
<text text-anchor="middle" x="1923.5" y="-13" font-family="Helvetica,sans-Serif" font-size="10.00" fill="#000000">memory</text>
</g>
<!-- Node5&#45;&gt;Node8 -->
<g id="edge8" class="edge">
<title>Node5&#45;&gt;Node8</title>
<path fill="none" stroke="#191970" d="M2489.7078,-307.8409C2316.5082,-299.048 1845.9353,-273.6452 1778.5,-254 1708.2436,-233.533 1671.0371,-238.8159 1633.5,-176 1623.9247,-159.9763 1623.0923,-149.4959 1633.5,-134 1635.4091,-131.1576 1813.9004,-59.4059 1889.8746,-28.9592"/>
<polygon fill="#191970" stroke="#191970" points="1891.4815,-32.0859 1899.4626,-25.118 1888.8782,-25.588 1891.4815,-32.0859"/>
</g>
<!-- Node9 -->
<g id="node10" class="node">
<title>Node9</title>
<polygon fill="#ffffff" stroke="#bfbfbf" points="2562.5,-6 2562.5,-25 2606.5,-25 2606.5,-6 2562.5,-6"/>
<text text-anchor="middle" x="2584.5" y="-13" font-family="Helvetica,sans-Serif" font-size="10.00" fill="#000000">string</text>
</g>
<!-- Node5&#45;&gt;Node9 -->
<g id="edge9" class="edge">
<title>Node5&#45;&gt;Node9</title>
<path fill="none" stroke="#191970" d="M2581.2468,-295.9012C2596.1624,-286.1182 2613.1624,-271.8682 2621.5,-254 2644.0519,-205.6693 2646.0367,-181.3539 2621.5,-134 2608.7356,-109.3657 2583.2644,-122.6343 2570.5,-98 2560.108,-77.9442 2567.5038,-51.8174 2574.9136,-34.3925"/>
<polygon fill="#191970" stroke="#191970" points="2578.1209,-35.7956 2579.1437,-25.2503 2571.768,-32.8561 2578.1209,-35.7956"/>
</g>
<!-- Node10 -->
<g id="node11" class="node">
<title>Node10</title>
<polygon fill="#ffffff" stroke="#bfbfbf" points="2326,-218 2326,-248 2465,-248 2465,-218 2326,-218"/>
<text text-anchor="start" x="2334" y="-236" font-family="Helvetica,sans-Serif" font-size="10.00" fill="#000000">tensorflow/compiler</text>
<text text-anchor="middle" x="2395.5" y="-225" font-family="Helvetica,sans-Serif" font-size="10.00" fill="#000000">/xla/service/executable.h</text>
</g>
<!-- Node5&#45;&gt;Node10 -->
<g id="edge10" class="edge">
<title>Node5&#45;&gt;Node10</title>
<path fill="none" stroke="#191970" d="M2523.036,-295.9608C2498.0888,-283.6451 2462.5987,-266.1247 2435.3882,-252.6916"/>
<polygon fill="#191970" stroke="#191970" points="2436.6558,-249.4142 2426.1396,-248.1259 2433.5571,-255.691 2436.6558,-249.4142"/>
</g>
<!-- Node11 -->
<g id="node12" class="node">
<title>Node11</title>
<g id="a_node12"><a xlink:href="../../db/da0/hlo__module_8h.html" target="_top" xlink:title="tensorflow/compiler\l/xla/service/hlo_module.h">
<polygon fill="#ffffff" stroke="#000000" points="3123.5,-218 3123.5,-248 3265.5,-248 3265.5,-218 3123.5,-218"/>
<text text-anchor="start" x="3131.5" y="-236" font-family="Helvetica,sans-Serif" font-size="10.00" fill="#000000">tensorflow/compiler</text>
<text text-anchor="middle" x="3194.5" y="-225" font-family="Helvetica,sans-Serif" font-size="10.00" fill="#000000">/xla/service/hlo_module.h</text>
</a>
</g>
</g>
<!-- Node5&#45;&gt;Node11 -->
<g id="edge11" class="edge">
<title>Node5&#45;&gt;Node11</title>
<path fill="none" stroke="#191970" d="M2604.8373,-295.9154C2613.6745,-293.6823 2622.8108,-291.5987 2631.5,-290 2801.324,-258.7555 3003.3436,-243.5454 3113.2972,-237.0803"/>
<polygon fill="#191970" stroke="#191970" points="3113.541,-240.5722 3123.322,-236.5002 3113.1365,-233.5838 3113.541,-240.5722"/>
</g>
<!-- Node33 -->
<g id="node24" class="node">
<title>Node33</title>
<polygon fill="#ffffff" stroke="#bfbfbf" points="2083,-.5 2083,-30.5 2196,-30.5 2196,-.5 2083,-.5"/>
<text text-anchor="start" x="2091" y="-18.5" font-family="Helvetica,sans-Serif" font-size="10.00" fill="#000000">tensorflow/compiler</text>
<text text-anchor="middle" x="2139.5" y="-7.5" font-family="Helvetica,sans-Serif" font-size="10.00" fill="#000000">/xla/types.h</text>
</g>
<!-- Node5&#45;&gt;Node33 -->
<g id="edge66" class="edge">
<title>Node5&#45;&gt;Node33</title>
<path fill="none" stroke="#191970" d="M2563.5904,-295.9273C2584.2906,-262.9452 2626.5402,-183.3823 2588.5,-134 2582.5572,-126.2853 2329.6829,-62.6807 2206.104,-31.9708"/>
<polygon fill="#191970" stroke="#191970" points="2206.9047,-28.5634 2196.3559,-29.55 2205.2175,-35.3571 2206.9047,-28.5634"/>
</g>
<!-- Node37 -->
<g id="node26" class="node">
<title>Node37</title>
<polygon fill="#ffffff" stroke="#bfbfbf" points="3695,-.5 3695,-30.5 3802,-30.5 3802,-.5 3695,-.5"/>
<text text-anchor="start" x="3703" y="-18.5" font-family="Helvetica,sans-Serif" font-size="10.00" fill="#000000">tensorflow/core/lib</text>
<text text-anchor="middle" x="3748.5" y="-7.5" font-family="Helvetica,sans-Serif" font-size="10.00" fill="#000000">/gtl/array_slice.h</text>
</g>
<!-- Node5&#45;&gt;Node37 -->
<g id="edge67" class="edge">
<title>Node5&#45;&gt;Node37</title>
<path fill="none" stroke="#191970" d="M2597.287,-295.9549C2605.5759,-293.5989 2614.239,-291.4632 2622.5,-290 3035.1515,-216.9121 3176.2261,-347.726 3558.5,-176 3616.5241,-149.9343 3630.7524,-140.0284 3678.5,-98 3698.6715,-80.2446 3718.1588,-56.5693 3731.4271,-39.1355"/>
<polygon fill="#191970" stroke="#191970" points="3734.5847,-40.7571 3737.7693,-30.6522 3728.9783,-36.5657 3734.5847,-40.7571"/>
</g>
<!-- Node5&#45;&gt;Node46 -->
<g id="edge65" class="edge">
<title>Node5&#45;&gt;Node46</title>
<path fill="none" stroke="#191970" d="M2489.6669,-307.4655C2279.64,-295.7999 1622.208,-258.9815 1600.5,-254 1511.9298,-233.6751 1487.8028,-225.3524 1411.5,-176 1380.6567,-156.0507 1350.7846,-125.8747 1332.0665,-105.2346"/>
<polygon fill="#191970" stroke="#191970" points="1334.4943,-102.6984 1325.2258,-97.5654 1329.2704,-107.3579 1334.4943,-102.6984"/>
</g>
<!-- Node48 -->
<g id="node31" class="node">
<title>Node48</title>
<polygon fill="#ffffff" stroke="#bfbfbf" points="2446,-134.5 2446,-175.5 2579,-175.5 2579,-134.5 2446,-134.5"/>
<text text-anchor="start" x="2454" y="-163.5" font-family="Helvetica,sans-Serif" font-size="10.00" fill="#000000">tensorflow/compiler</text>
<text text-anchor="start" x="2454" y="-152.5" font-family="Helvetica,sans-Serif" font-size="10.00" fill="#000000">/xla/service/hlo_module</text>
<text text-anchor="middle" x="2512.5" y="-141.5" font-family="Helvetica,sans-Serif" font-size="10.00" fill="#000000">_config.h</text>
</g>
<!-- Node5&#45;&gt;Node48 -->
<g id="edge63" class="edge">
<title>Node5&#45;&gt;Node48</title>
<path fill="none" stroke="#191970" d="M2554.3165,-295.8501C2554.9259,-276.0827 2554.4445,-240.6395 2545.5,-212 2542.5146,-202.4411 2537.7098,-192.7515 2532.6797,-184.1394"/>
<polygon fill="#191970" stroke="#191970" points="2535.6477,-182.2841 2527.4231,-175.6053 2529.6875,-185.9553 2535.6477,-182.2841"/>
</g>
<!-- Node51 -->
<g id="node33" class="node">
<title>Node51</title>
<polygon fill="#ffffff" stroke="#bfbfbf" points="2291,-140 2291,-170 2428,-170 2428,-140 2291,-140"/>
<text text-anchor="start" x="2299" y="-158" font-family="Helvetica,sans-Serif" font-size="10.00" fill="#000000">tensorflow/core/platform</text>
<text text-anchor="middle" x="2359.5" y="-147" font-family="Helvetica,sans-Serif" font-size="10.00" fill="#000000">/mutex.h</text>
</g>
<!-- Node5&#45;&gt;Node51 -->
<g id="edge68" class="edge">
<title>Node5&#45;&gt;Node51</title>
<path fill="none" stroke="#191970" d="M2550.2448,-295.8062C2544.8978,-274.3383 2532.2822,-235.1671 2507.5,-212 2494.1246,-199.4963 2454.7019,-184.6002 2419.9059,-173.1722"/>
<polygon fill="#191970" stroke="#191970" points="2420.8317,-169.7932 2410.2398,-170.0458 2418.6774,-176.4535 2420.8317,-169.7932"/>
</g>
<!-- Node52 -->
<g id="node34" class="node">
<title>Node52</title>
<polygon fill="#ffffff" stroke="#bfbfbf" points="2674,-212.5 2674,-253.5 2787,-253.5 2787,-212.5 2674,-212.5"/>
<text text-anchor="start" x="2682" y="-241.5" font-family="Helvetica,sans-Serif" font-size="10.00" fill="#000000">tensorflow/compiler</text>
<text text-anchor="start" x="2682" y="-230.5" font-family="Helvetica,sans-Serif" font-size="10.00" fill="#000000">/xla/service/logical</text>
<text text-anchor="middle" x="2730.5" y="-219.5" font-family="Helvetica,sans-Serif" font-size="10.00" fill="#000000">_buffer.h</text>
</g>
<!-- Node5&#45;&gt;Node52 -->
<g id="edge64" class="edge">
<title>Node5&#45;&gt;Node52</title>
<path fill="none" stroke="#191970" d="M2587.6274,-295.9608C2612.1766,-285.1425 2645.8393,-270.3081 2674.3232,-257.7559"/>
<polygon fill="#191970" stroke="#191970" points="2676.0244,-260.8311 2683.7638,-253.5956 2673.2015,-254.4254 2676.0244,-260.8311"/>
</g>
<!-- Node5&#45;&gt;Node53 -->
<g id="edge69" class="edge">
<title>Node5&#45;&gt;Node53</title>
<path fill="none" stroke="#191970" d="M2602.6532,-295.9325C2612.1433,-293.5465 2622.068,-291.4058 2631.5,-290 3112.2307,-218.3475 3239.9471,-292.0064 3724.5,-254 3750.6514,-251.9488 3778.9751,-248.797 3804.8243,-245.5539"/>
<polygon fill="#191970" stroke="#191970" points="3805.4993,-248.9962 3814.9765,-244.2599 3804.6142,-242.0524 3805.4993,-248.9962"/>
</g>
<!-- Node54 -->
<g id="node36" class="node">
<title>Node54</title>
<polygon fill="#ffffff" stroke="#bfbfbf" points="1643,-140 1643,-170 1780,-170 1780,-140 1643,-140"/>
<text text-anchor="start" x="1651" y="-158" font-family="Helvetica,sans-Serif" font-size="10.00" fill="#000000">tensorflow/core/platform</text>
<text text-anchor="middle" x="1711.5" y="-147" font-family="Helvetica,sans-Serif" font-size="10.00" fill="#000000">/thread_annotations.h</text>
</g>
<!-- Node5&#45;&gt;Node54 -->
<g id="edge70" class="edge">
<title>Node5&#45;&gt;Node54</title>
<path fill="none" stroke="#191970" d="M2489.8869,-307.6236C2329.5021,-298.8498 1917.1931,-274.5814 1858.5,-254 1810.3465,-237.1144 1762.8903,-200.5584 1735.4371,-176.9046"/>
<polygon fill="#191970" stroke="#191970" points="1737.4066,-173.9765 1727.5806,-170.014 1732.7909,-179.2392 1737.4066,-173.9765"/>
</g>
<!-- Node11&#45;&gt;Node8 -->
<g id="edge14" class="edge">
<title>Node11&#45;&gt;Node8</title>
<path fill="none" stroke="#191970" d="M3123.1322,-230.4877C3025.6941,-225.7798 2846.1503,-212.533 2697.5,-176 2647.0839,-163.6095 2638.5068,-147.9511 2588.5,-134 2355.618,-69.0296 2066.528,-31.8493 1962.8085,-19.8366"/>
<polygon fill="#191970" stroke="#191970" points="1963.1216,-16.3497 1952.788,-18.6879 1962.3243,-23.3041 1963.1216,-16.3497"/>
</g>
<!-- Node11&#45;&gt;Node9 -->
<g id="edge16" class="edge">
<title>Node11&#45;&gt;Node9</title>
<path fill="none" stroke="#191970" d="M3123.3846,-228.1517C3027.884,-220.6727 2864.0987,-204.1602 2811.5,-176 2789.3074,-164.1186 2792.7908,-150.1724 2773.5,-134 2720.9685,-89.9603 2650.7282,-50.1712 2612.3793,-29.8078"/>
<polygon fill="#191970" stroke="#191970" points="2613.8268,-26.6146 2603.3469,-25.0584 2610.569,-32.8103 2613.8268,-26.6146"/>
</g>
<!-- Node12 -->
<g id="node13" class="node">
<title>Node12</title>
<polygon fill="#ffffff" stroke="#bfbfbf" points="3123.5,-145.5 3123.5,-164.5 3173.5,-164.5 3173.5,-145.5 3123.5,-145.5"/>
<text text-anchor="middle" x="3148.5" y="-152.5" font-family="Helvetica,sans-Serif" font-size="10.00" fill="#000000">atomic</text>
</g>
<!-- Node11&#45;&gt;Node12 -->
<g id="edge12" class="edge">
<title>Node11&#45;&gt;Node12</title>
<path fill="none" stroke="#191970" d="M3185.6307,-217.9608C3178.1517,-205.279 3167.4181,-187.0785 3159.4131,-173.5048"/>
<polygon fill="#191970" stroke="#191970" points="3162.2467,-171.4196 3154.152,-164.5839 3156.2171,-174.9755 3162.2467,-171.4196"/>
</g>
<!-- Node13 -->
<g id="node14" class="node">
<title>Node13</title>
<polygon fill="#ffffff" stroke="#bfbfbf" points="2745.5,-6 2745.5,-25 2777.5,-25 2777.5,-6 2745.5,-6"/>
<text text-anchor="middle" x="2761.5" y="-13" font-family="Helvetica,sans-Serif" font-size="10.00" fill="#000000">list</text>
</g>
<!-- Node11&#45;&gt;Node13 -->
<g id="edge13" class="edge">
<title>Node11&#45;&gt;Node13</title>
<path fill="none" stroke="#191970" d="M3123.124,-228.1461C3036.5564,-221.0578 2896.9337,-205.3974 2854.5,-176 2804.0982,-141.0824 2777.2256,-69.3255 2766.7624,-34.8402"/>
<polygon fill="#191970" stroke="#191970" points="2770.0712,-33.6828 2763.9328,-25.0473 2763.3463,-35.6259 2770.0712,-33.6828"/>
</g>
<!-- Node14 -->
<g id="node15" class="node">
<title>Node14</title>
<polygon fill="#ffffff" stroke="#bfbfbf" points="3191.5,-145.5 3191.5,-164.5 3245.5,-164.5 3245.5,-145.5 3191.5,-145.5"/>
<text text-anchor="middle" x="3218.5" y="-152.5" font-family="Helvetica,sans-Serif" font-size="10.00" fill="#000000">random</text>
</g>
<!-- Node11&#45;&gt;Node14 -->
<g id="edge15" class="edge">
<title>Node11&#45;&gt;Node14</title>
<path fill="none" stroke="#191970" d="M3199.1274,-217.9608C3202.9538,-205.5253 3208.4129,-187.7832 3212.5613,-174.3007"/>
<polygon fill="#191970" stroke="#191970" points="3215.9554,-175.171 3215.5511,-164.5839 3209.265,-173.1123 3215.9554,-175.171"/>
</g>
<!-- Node15 -->
<g id="node16" class="node">
<title>Node15</title>
<polygon fill="#ffffff" stroke="#bfbfbf" points="3034,-6 3034,-25 3127,-25 3127,-6 3034,-6"/>
<text text-anchor="middle" x="3080.5" y="-13" font-family="Helvetica,sans-Serif" font-size="10.00" fill="#000000">unordered_map</text>
</g>
<!-- Node11&#45;&gt;Node15 -->
<g id="edge17" class="edge">
<title>Node11&#45;&gt;Node15</title>
<path fill="none" stroke="#191970" d="M3264.8184,-217.984C3305.6629,-207.6788 3351.3995,-192.8515 3363.5,-176 3374.3877,-160.8375 3373.6376,-149.6739 3363.5,-134 3349.3405,-112.1078 3191.3038,-54.3878 3117.7493,-28.4483"/>
<polygon fill="#191970" stroke="#191970" points="3118.5497,-25.0198 3107.9549,-25.0061 3116.2287,-31.6238 3118.5497,-25.0198"/>
</g>
<!-- Node16 -->
<g id="node17" class="node">
<title>Node16</title>
<polygon fill="#ffffff" stroke="#bfbfbf" points="2796,-6 2796,-25 2843,-25 2843,-6 2796,-6"/>
<text text-anchor="middle" x="2819.5" y="-13" font-family="Helvetica,sans-Serif" font-size="10.00" fill="#000000">vector</text>
</g>
<!-- Node11&#45;&gt;Node16 -->
<g id="edge18" class="edge">
<title>Node11&#45;&gt;Node16</title>
<path fill="none" stroke="#191970" d="M3218.1347,-217.8724C3231.5376,-207.8158 3247.0749,-193.2954 3254.5,-176 3261.8639,-158.8472 3266.6453,-148.1752 3254.5,-134 3186.609,-54.7617 3119.2516,-137.0772 3022.5,-98 3000.3192,-89.0413 3000.0813,-77.3196 2978.5,-67 2925.9571,-41.8754 2907.034,-51.4462 2852.5,-31 2850.9109,-30.4042 2849.2926,-29.7632 2847.6688,-29.0929"/>
<polygon fill="#191970" stroke="#191970" points="2849.0341,-25.8699 2838.4713,-25.0462 2846.2149,-32.2771 2849.0341,-25.8699"/>
</g>
<!-- Node17 -->
<g id="node18" class="node">
<title>Node17</title>
<polygon fill="#ffffff" stroke="#bfbfbf" points="3145,-.5 3145,-30.5 3258,-30.5 3258,-.5 3145,-.5"/>
<text text-anchor="start" x="3153" y="-18.5" font-family="Helvetica,sans-Serif" font-size="10.00" fill="#000000">tensorflow/compiler</text>
<text text-anchor="middle" x="3201.5" y="-7.5" font-family="Helvetica,sans-Serif" font-size="10.00" fill="#000000">/xla/iterator_util.h</text>
</g>
<!-- Node11&#45;&gt;Node17 -->
<g id="edge19" class="edge">
<title>Node11&#45;&gt;Node17</title>
<path fill="none" stroke="#191970" d="M3265.5538,-222.7464C3318.6597,-213.4584 3384.8403,-197.8672 3401.5,-176 3431.301,-136.8838 3417.2567,-101.7872 3382.5,-67 3378.2109,-62.7071 3317.9192,-46.0467 3268.0828,-32.8223"/>
<polygon fill="#191970" stroke="#191970" points="3268.8372,-29.4016 3258.2746,-30.2279 3267.0471,-36.1688 3268.8372,-29.4016"/>
</g>
<!-- Node18 -->
<g id="node19" class="node">
<title>Node18</title>
<polygon fill="#ffffff" stroke="#bfbfbf" points="3276,-.5 3276,-30.5 3391,-30.5 3391,-.5 3276,-.5"/>
<text text-anchor="start" x="3284" y="-18.5" font-family="Helvetica,sans-Serif" font-size="10.00" fill="#000000">tensorflow/compiler</text>
<text text-anchor="middle" x="3333.5" y="-7.5" font-family="Helvetica,sans-Serif" font-size="10.00" fill="#000000">/xla/service/hlo.pb.h</text>
</g>
<!-- Node11&#45;&gt;Node18 -->
<g id="edge20" class="edge">
<title>Node11&#45;&gt;Node18</title>
<path fill="none" stroke="#191970" d="M3265.6322,-224.8605C3325.4052,-216.3831 3404.1044,-200.8151 3423.5,-176 3438.9108,-156.2831 3409.6143,-68.6476 3408.5,-67 3399.9443,-54.3498 3387.1528,-43.9089 3374.5456,-35.8129"/>
<polygon fill="#191970" stroke="#191970" points="3376.2693,-32.7651 3365.9013,-30.5844 3372.6465,-38.7547 3376.2693,-32.7651"/>
</g>
<!-- Node19 -->
<g id="node20" class="node">
<title>Node19</title>
<g id="a_node20"><a xlink:href="../../d2/d31/hlo__computation_8h.html" target="_top" xlink:title="tensorflow/compiler\l/xla/service/hlo_computation.h">
<polygon fill="#ffffff" stroke="#ff0000" points="2863,-140 2863,-170 3030,-170 3030,-140 2863,-140"/>
<text text-anchor="start" x="2871" y="-158" font-family="Helvetica,sans-Serif" font-size="10.00" fill="#000000">tensorflow/compiler</text>
<text text-anchor="middle" x="2946.5" y="-147" font-family="Helvetica,sans-Serif" font-size="10.00" fill="#000000">/xla/service/hlo_computation.h</text>
</a>
</g>
</g>
<!-- Node11&#45;&gt;Node19 -->
<g id="edge21" class="edge">
<title>Node11&#45;&gt;Node19</title>
<path fill="none" stroke="#191970" d="M3146.6831,-217.9608C3105.9866,-205.1611 3047.4153,-186.7395 3004.1356,-173.1273"/>
<polygon fill="#191970" stroke="#191970" points="3005.182,-169.7875 2994.5926,-170.1259 3003.0817,-176.465 3005.182,-169.7875"/>
</g>
<!-- Node25 -->
<g id="node21" class="node">
<title>Node25</title>
<g id="a_node21"><a xlink:href="../../dd/d66/hlo__instruction_8h.html" target="_top" xlink:title="tensorflow/compiler\l/xla/service/hlo_instruction.h">
<polygon fill="#ffffff" stroke="#ff0000" points="3031,-67.5 3031,-97.5 3188,-97.5 3188,-67.5 3031,-67.5"/>
<text text-anchor="start" x="3039" y="-85.5" font-family="Helvetica,sans-Serif" font-size="10.00" fill="#000000">tensorflow/compiler</text>
<text text-anchor="middle" x="3109.5" y="-74.5" font-family="Helvetica,sans-Serif" font-size="10.00" fill="#000000">/xla/service/hlo_instruction.h</text>
</a>
</g>
</g>
<!-- Node11&#45;&gt;Node25 -->
<g id="edge52" class="edge">
<title>Node11&#45;&gt;Node25</title>
<path fill="none" stroke="#191970" d="M3237.4049,-217.9332C3256.3187,-208.8992 3276.6746,-195.3318 3287.5,-176 3296.6203,-159.7131 3298.7161,-148.9212 3287.5,-134 3276.0063,-118.7094 3236.7794,-106.5115 3198.0659,-97.8325"/>
<polygon fill="#191970" stroke="#191970" points="3198.7667,-94.4032 3188.2518,-95.7021 3197.2816,-101.2439 3198.7667,-94.4032"/>
</g>
<!-- Node32 -->
<g id="node23" class="node">
<title>Node32</title>
<polygon fill="#ffffff" stroke="#bfbfbf" points="2861.5,-.5 2861.5,-30.5 3015.5,-30.5 3015.5,-.5 2861.5,-.5"/>
<text text-anchor="start" x="2869.5" y="-18.5" font-family="Helvetica,sans-Serif" font-size="10.00" fill="#000000">tensorflow/compiler</text>
<text text-anchor="middle" x="2938.5" y="-7.5" font-family="Helvetica,sans-Serif" font-size="10.00" fill="#000000">/xla/service/name_uniquer.h</text>
</g>
<!-- Node11&#45;&gt;Node32 -->
<g id="edge54" class="edge">
<title>Node11&#45;&gt;Node32</title>
<path fill="none" stroke="#191970" d="M3249.8952,-217.8962C3270.768,-209.2164 3292.3746,-195.9398 3304.5,-176 3314.1988,-160.0507 3314.3998,-149.8252 3304.5,-134 3285.103,-102.993 3260.6143,-118.756 3230.5,-98 3213.9312,-86.5801 3215.3933,-76.207 3197.5,-67 3189.6645,-62.9682 3097.7983,-45.1994 3025.6752,-31.6505"/>
<polygon fill="#191970" stroke="#191970" points="3026.1139,-28.1719 3015.6401,-29.7686 3024.8236,-35.052 3026.1139,-28.1719"/>
</g>
<!-- Node11&#45;&gt;Node33 -->
<g id="edge58" class="edge">
<title>Node11&#45;&gt;Node33</title>
<path fill="none" stroke="#191970" d="M3123.16,-226.5509C3020.5758,-216.7319 2836.7801,-196.9505 2773.5,-176 2736.8632,-163.8704 2733.6584,-147.4889 2697.5,-134 2526.4853,-70.2031 2312.4922,-36.8459 2206.0437,-23.1657"/>
<polygon fill="#191970" stroke="#191970" points="2206.4438,-19.6885 2196.083,-21.9029 2205.5634,-26.6329 2206.4438,-19.6885"/>
</g>
<!-- Node11&#45;&gt;Node37 -->
<g id="edge59" class="edge">
<title>Node11&#45;&gt;Node37</title>
<path fill="none" stroke="#191970" d="M3265.6785,-228.0194C3330.0005,-221.6501 3426.2977,-207.4015 3504.5,-176 3591.8411,-140.9289 3680.8076,-72.3322 3723.1213,-37.2678"/>
<polygon fill="#191970" stroke="#191970" points="3725.5225,-39.8223 3730.9477,-30.7219 3721.0315,-34.4528 3725.5225,-39.8223"/>
</g>
<!-- Node40 -->
<g id="node27" class="node">
<title>Node40</title>
<polygon fill="#ffffff" stroke="#bfbfbf" points="3409,-.5 3409,-30.5 3522,-30.5 3522,-.5 3409,-.5"/>
<text text-anchor="start" x="3417" y="-18.5" font-family="Helvetica,sans-Serif" font-size="10.00" fill="#000000">tensorflow/core/lib</text>
<text text-anchor="middle" x="3465.5" y="-7.5" font-family="Helvetica,sans-Serif" font-size="10.00" fill="#000000">/gtl/iterator_range.h</text>
</g>
<!-- Node11&#45;&gt;Node40 -->
<g id="edge60" class="edge">
<title>Node11&#45;&gt;Node40</title>
<path fill="none" stroke="#191970" d="M3265.5817,-225.2589C3329.2515,-216.8135 3416.0972,-201.0506 3439.5,-176 3473.755,-139.3332 3472.9742,-76.2003 3469.2975,-41.0359"/>
<polygon fill="#191970" stroke="#191970" points="3472.7192,-40.1775 3468.0427,-30.6706 3465.7699,-41.0188 3472.7192,-40.1775"/>
</g>
<!-- Node41 -->
<g id="node28" class="node">
<title>Node41</title>
<polygon fill="#ffffff" stroke="#bfbfbf" points="3540,-.5 3540,-30.5 3677,-30.5 3677,-.5 3540,-.5"/>
<text text-anchor="start" x="3548" y="-18.5" font-family="Helvetica,sans-Serif" font-size="10.00" fill="#000000">tensorflow/core/platform</text>
<text text-anchor="middle" x="3608.5" y="-7.5" font-family="Helvetica,sans-Serif" font-size="10.00" fill="#000000">/logging.h</text>
</g>
<!-- Node11&#45;&gt;Node41 -->
<g id="edge61" class="edge">
<title>Node11&#45;&gt;Node41</title>
<path fill="none" stroke="#191970" d="M3265.609,-223.1008C3333.8364,-212.6975 3431.2601,-195.1997 3464.5,-176 3523.4198,-141.9673 3571.2631,-75.3543 3594.0577,-39.58"/>
<polygon fill="#191970" stroke="#191970" points="3597.2292,-41.1091 3599.5585,-30.7735 3591.2922,-37.4007 3597.2292,-41.1091"/>
</g>
<!-- Node11&#45;&gt;Node48 -->
<g id="edge53" class="edge">
<title>Node11&#45;&gt;Node48</title>
<path fill="none" stroke="#191970" d="M3123.1054,-225.8159C3022.0401,-215.5172 2831.5085,-195.6266 2669.5,-176 2643.3506,-172.8321 2614.7899,-169.0949 2589.2832,-165.6579"/>
<polygon fill="#191970" stroke="#191970" points="2589.6789,-162.1796 2579.2999,-164.3071 2588.7403,-169.1164 2589.6789,-162.1796"/>
</g>
<!-- Node49 -->
<g id="node32" class="node">
<title>Node49</title>
<g id="a_node32"><a xlink:href="../../d3/d4d/versioned__computation__handle_8h.html" target="_top" xlink:title="tensorflow/compiler\l/xla/service/versioned\l_computation_handle.h">
<polygon fill="#ffffff" stroke="#ff0000" points="1455,-134.5 1455,-175.5 1586,-175.5 1586,-134.5 1455,-134.5"/>
<text text-anchor="start" x="1463" y="-163.5" font-family="Helvetica,sans-Serif" font-size="10.00" fill="#000000">tensorflow/compiler</text>
<text text-anchor="start" x="1463" y="-152.5" font-family="Helvetica,sans-Serif" font-size="10.00" fill="#000000">/xla/service/versioned</text>
<text text-anchor="middle" x="1520.5" y="-141.5" font-family="Helvetica,sans-Serif" font-size="10.00" fill="#000000">_computation_handle.h</text>
</a>
</g>
</g>
<!-- Node11&#45;&gt;Node49 -->
<g id="edge55" class="edge">
<title>Node11&#45;&gt;Node49</title>
<path fill="none" stroke="#191970" d="M3123.3456,-228.7776C3043.7358,-224.1626 2910.9148,-216.7887 2796.5,-212 2279.8159,-190.3746 2147.6599,-231.4052 1633.5,-176 1621.3679,-174.6927 1608.584,-172.8116 1596.1519,-170.7055"/>
<polygon fill="#191970" stroke="#191970" points="1596.7303,-167.2536 1586.2762,-168.9749 1595.522,-174.1486 1596.7303,-167.2536"/>
</g>
<!-- Node11&#45;&gt;Node51 -->
<g id="edge62" class="edge">
<title>Node11&#45;&gt;Node51</title>
<path fill="none" stroke="#191970" d="M3123.3747,-229.3559C2961.2466,-220.7716 2568.2283,-198.316 2437.5,-176 2431.7436,-175.0174 2425.7962,-173.7988 2419.8722,-172.447"/>
<polygon fill="#191970" stroke="#191970" points="2420.5035,-168.9991 2409.9624,-170.0645 2418.8671,-175.8052 2420.5035,-168.9991"/>
</g>
<!-- Node19&#45;&gt;Node8 -->
<g id="edge23" class="edge">
<title>Node19&#45;&gt;Node8</title>
<path fill="none" stroke="#191970" d="M2862.919,-147.8919C2766.1132,-138.7497 2613.1815,-121.2393 2560.5,-98 2540.5582,-89.2031 2542.7237,-75.1281 2522.5,-67 2429.6226,-29.6718 2173.1794,-40.1449 2073.5,-31 2035.8363,-27.5446 1992.9125,-23.053 1962.6598,-19.7951"/>
<polygon fill="#191970" stroke="#191970" points="1962.8353,-16.2937 1952.5169,-18.6979 1962.0824,-23.2531 1962.8353,-16.2937"/>
</g>
<!-- Node19&#45;&gt;Node9 -->
<g id="edge24" class="edge">
<title>Node19&#45;&gt;Node9</title>
<path fill="none" stroke="#191970" d="M2907.4157,-139.9385C2835.2489,-112.1284 2682.4198,-53.2343 2616.2002,-27.716"/>
<polygon fill="#191970" stroke="#191970" points="2617.2992,-24.3886 2606.7095,-24.0586 2614.7821,-30.9204 2617.2992,-24.3886"/>
</g>
<!-- Node19&#45;&gt;Node13 -->
<g id="edge22" class="edge">
<title>Node19&#45;&gt;Node13</title>
<path fill="none" stroke="#191970" d="M2923.896,-139.9727C2907.2398,-128.7352 2884.1605,-112.8183 2864.5,-98 2847.0943,-84.8812 2843.4867,-80.657 2826.5,-67 2811.7308,-55.1258 2794.9656,-41.8475 2782.1614,-31.7481"/>
<polygon fill="#191970" stroke="#191970" points="2784.0239,-28.7597 2774.0029,-25.3203 2779.6919,-34.2582 2784.0239,-28.7597"/>
</g>
<!-- Node19&#45;&gt;Node15 -->
<g id="edge25" class="edge">
<title>Node19&#45;&gt;Node15</title>
<path fill="none" stroke="#191970" d="M3015.2281,-139.929C3089.0368,-123.6658 3196.0406,-99.8279 3197.5,-98 3222.5325,-66.6455 3169.4743,-42.0299 3126.8552,-28.1216"/>
<polygon fill="#191970" stroke="#191970" points="3127.7169,-24.7238 3117.1276,-25.0683 3125.6204,-31.4025 3127.7169,-24.7238"/>
</g>
<!-- Node19&#45;&gt;Node16 -->
<g id="edge26" class="edge">
<title>Node19&#45;&gt;Node16</title>
<path fill="none" stroke="#191970" d="M2932.667,-139.8055C2908.8964,-113.6953 2860.4389,-60.4684 2835.3477,-32.9075"/>
<polygon fill="#191970" stroke="#191970" points="2837.6843,-30.275 2828.3642,-25.2366 2832.5081,-34.9875 2837.6843,-30.275"/>
</g>
<!-- Node19&#45;&gt;Node17 -->
<g id="edge27" class="edge">
<title>Node19&#45;&gt;Node17</title>
<path fill="none" stroke="#191970" d="M3015.6391,-139.9812C3025.0014,-137.9623 3034.4849,-135.9248 3043.5,-134 3119.454,-117.7832 3165.5646,-158.3103 3214.5,-98 3227.6043,-81.8497 3221.9426,-57.8975 3214.4303,-39.9565"/>
<polygon fill="#191970" stroke="#191970" points="3217.5302,-38.32 3210.1738,-30.6955 3211.1698,-41.2434 3217.5302,-38.32"/>
</g>
<!-- Node19&#45;&gt;Node18 -->
<g id="edge28" class="edge">
<title>Node19&#45;&gt;Node18</title>
<path fill="none" stroke="#191970" d="M3014.8191,-139.994C3024.4415,-137.9433 3034.2144,-135.8939 3043.5,-134 3126.8575,-116.9983 3154.3366,-133.8238 3231.5,-98 3263.0502,-83.3525 3293.259,-56.8189 3312.4977,-37.7947"/>
<polygon fill="#191970" stroke="#191970" points="3315.0108,-40.231 3319.5567,-30.661 3310.035,-35.3074 3315.0108,-40.231"/>
</g>
<!-- Node19&#45;&gt;Node25 -->
<g id="edge29" class="edge">
<title>Node19&#45;&gt;Node25</title>
<path fill="none" stroke="#191970" d="M2980.2737,-139.978C3005.2981,-128.8475 3039.5912,-113.5944 3066.5622,-101.5981"/>
<polygon fill="#191970" stroke="#191970" points="3068.055,-104.7648 3075.7696,-97.5028 3065.2102,-98.3689 3068.055,-104.7648"/>
</g>
<!-- Node19&#45;&gt;Node32 -->
<g id="edge46" class="edge">
<title>Node19&#45;&gt;Node32</title>
<path fill="none" stroke="#191970" d="M2945.6286,-139.8055C2944.2641,-116.0113 2941.6081,-69.6975 2939.9515,-40.8105"/>
<polygon fill="#191970" stroke="#191970" points="2943.4372,-40.4589 2939.3703,-30.6758 2936.4487,-40.8598 2943.4372,-40.4589"/>
</g>
<!-- Node19&#45;&gt;Node33 -->
<g id="edge48" class="edge">
<title>Node19&#45;&gt;Node33</title>
<path fill="none" stroke="#191970" d="M2888.999,-139.9492C2813.905,-120.742 2678.1428,-87.5499 2560.5,-67 2494.0534,-55.3931 2307.0917,-34.0228 2206.1411,-22.8083"/>
<polygon fill="#191970" stroke="#191970" points="2206.3778,-19.3132 2196.0529,-21.6896 2205.6062,-26.2705 2206.3778,-19.3132"/>
</g>
<!-- Node19&#45;&gt;Node34 -->
<g id="edge49" class="edge">
<title>Node19&#45;&gt;Node34</title>
<path fill="none" stroke="#191970" d="M2862.9767,-148.6435C2551.6584,-124.9507 1462.2625,-42.0425 1180.4584,-20.5959"/>
<polygon fill="#191970" stroke="#191970" points="1180.6207,-17.0982 1170.3839,-19.8291 1180.0894,-24.078 1180.6207,-17.0982"/>
</g>
<!-- Node19&#45;&gt;Node37 -->
<g id="edge50" class="edge">
<title>Node19&#45;&gt;Node37</title>
<path fill="none" stroke="#191970" d="M3013.4543,-139.9998C3023.5059,-137.8945 3033.7626,-135.8281 3043.5,-134 3143.4643,-115.2322 3169.0663,-114.0675 3269.5,-98 3451.5952,-68.8681 3500.8903,-68.684 3684.7935,-31.2696"/>
<polygon fill="#191970" stroke="#191970" points="3685.6993,-34.6569 3694.7959,-29.2251 3684.2975,-27.7987 3685.6993,-34.6569"/>
</g>
<!-- Node42 -->
<g id="node29" class="node">
<title>Node42</title>
<polygon fill="#ffffff" stroke="#bfbfbf" points="1739,-.5 1739,-30.5 1876,-30.5 1876,-.5 1739,-.5"/>
<text text-anchor="start" x="1747" y="-18.5" font-family="Helvetica,sans-Serif" font-size="10.00" fill="#000000">tensorflow/core/platform</text>
<text text-anchor="middle" x="1807.5" y="-7.5" font-family="Helvetica,sans-Serif" font-size="10.00" fill="#000000">/macros.h</text>
</g>
<!-- Node19&#45;&gt;Node42 -->
<g id="edge51" class="edge">
<title>Node19&#45;&gt;Node42</title>
<path fill="none" stroke="#191970" d="M2862.9801,-145.4617C2777.2854,-135.2793 2640.2251,-117.8946 2522.5,-98 2454.5177,-86.5115 2438.7942,-76.4598 2370.5,-67 2159.6365,-37.7922 2101.4313,-59.4412 1886.3559,-30.9979"/>
<polygon fill="#191970" stroke="#191970" points="1886.7039,-27.5133 1876.3269,-29.6506 1885.7718,-34.451 1886.7039,-27.5133"/>
</g>
<!-- Node19&#45;&gt;Node46 -->
<g id="edge47" class="edge">
<title>Node19&#45;&gt;Node46</title>
<path fill="none" stroke="#191970" d="M2862.9752,-149.6681C2790.4353,-145.1408 2682.5525,-138.6561 2588.5,-134 2125.9041,-111.0989 1568.5856,-91.2792 1379.1923,-84.7622"/>
<polygon fill="#191970" stroke="#191970" points="1379.2292,-81.2615 1369.1149,-84.4161 1378.9889,-88.2574 1379.2292,-81.2615"/>
</g>
<!-- Node25&#45;&gt;Node6 -->
<g id="edge30" class="edge">
<title>Node25&#45;&gt;Node6</title>
<path fill="none" stroke="#191970" d="M3188.1401,-79.5826C3345.6298,-73.2721 3694.6334,-56.8069 3811.5,-31 3814.6952,-30.2944 3817.9738,-29.3886 3821.2176,-28.3696"/>
<polygon fill="#191970" stroke="#191970" points="3822.4322,-31.6529 3830.7264,-25.0607 3820.1316,-25.0417 3822.4322,-31.6529"/>
</g>
<!-- Node25&#45;&gt;Node8 -->
<g id="edge32" class="edge">
<title>Node25&#45;&gt;Node8</title>
<path fill="none" stroke="#191970" d="M3030.7811,-80.0195C2857.5621,-74.2469 2430.3735,-58.2891 2073.5,-31 2035.905,-28.1252 1993.1363,-23.5794 1962.9136,-20.1525"/>
<polygon fill="#191970" stroke="#191970" points="1963.109,-16.6521 1952.7757,-18.9916 1962.3126,-23.6067 1963.109,-16.6521"/>
</g>
<!-- Node25&#45;&gt;Node9 -->
<g id="edge34" class="edge">
<title>Node25&#45;&gt;Node9</title>
<path fill="none" stroke="#191970" d="M3030.9022,-72.4694C2913.7336,-57.5165 2698.3286,-30.0267 2616.8603,-19.6298"/>
<polygon fill="#191970" stroke="#191970" points="2617.0807,-16.1296 2606.718,-18.3354 2616.1945,-23.0733 2617.0807,-16.1296"/>
</g>
<!-- Node25&#45;&gt;Node13 -->
<g id="edge31" class="edge">
<title>Node25&#45;&gt;Node13</title>
<path fill="none" stroke="#191970" d="M3030.9898,-78.2497C2964.4794,-72.7113 2867.4599,-60.0148 2787.5,-31 2786.4626,-30.6236 2785.4205,-30.2046 2784.3813,-29.7526"/>
<polygon fill="#191970" stroke="#191970" points="2785.8077,-26.5496 2775.3195,-25.0495 2782.5831,-32.7627 2785.8077,-26.5496"/>
</g>
<!-- Node25&#45;&gt;Node15 -->
<g id="edge35" class="edge">
<title>Node25&#45;&gt;Node15</title>
<path fill="none" stroke="#191970" d="M3102.9195,-67.2967C3098.7082,-57.5672 3093.2113,-44.8675 3088.7145,-34.4784"/>
<polygon fill="#191970" stroke="#191970" points="3091.8201,-32.8419 3084.6357,-25.055 3085.396,-35.6225 3091.8201,-32.8419"/>
</g>
<!-- Node25&#45;&gt;Node16 -->
<g id="edge36" class="edge">
<title>Node25&#45;&gt;Node16</title>
<path fill="none" stroke="#191970" d="M3030.7884,-68.8756C2967.8516,-57.5827 2884.967,-41.7031 2852.5,-31 2850.8469,-30.455 2849.1681,-29.8483 2847.4882,-29.1993"/>
<polygon fill="#191970" stroke="#191970" points="2848.598,-25.8674 2838.027,-25.157 2845.8477,-32.3045 2848.598,-25.8674"/>
</g>
<!-- Node25&#45;&gt;Node17 -->
<g id="edge37" class="edge">
<title>Node25&#45;&gt;Node17</title>
<path fill="none" stroke="#191970" d="M3130.3762,-67.2967C3142.8448,-58.2163 3158.8658,-46.5488 3172.5447,-36.587"/>
<polygon fill="#191970" stroke="#191970" points="3174.6833,-39.3594 3180.7064,-30.6432 3170.5624,-33.7009 3174.6833,-39.3594"/>
</g>
<!-- Node25&#45;&gt;Node18 -->
<g id="edge38" class="edge">
<title>Node25&#45;&gt;Node18</title>
<path fill="none" stroke="#191970" d="M3159.77,-67.4639C3193.3728,-57.4131 3237.7566,-44.1375 3273.2515,-33.5208"/>
<polygon fill="#191970" stroke="#191970" points="3274.4332,-36.8206 3283.0108,-30.6017 3272.4272,-30.1142 3274.4332,-36.8206"/>
</g>
<!-- Node27 -->
<g id="node22" class="node">
<title>Node27</title>
<polygon fill="#ffffff" stroke="#bfbfbf" points="2288.5,-6 2288.5,-25 2320.5,-25 2320.5,-6 2288.5,-6"/>
<text text-anchor="middle" x="2304.5" y="-13" font-family="Helvetica,sans-Serif" font-size="10.00" fill="#000000">set</text>
</g>
<!-- Node25&#45;&gt;Node27 -->
<g id="edge33" class="edge">
<title>Node25&#45;&gt;Node27</title>
<path fill="none" stroke="#191970" d="M3030.8475,-75.9538C2855.4773,-61.3577 2439.3245,-26.7214 2330.7671,-17.6862"/>
<polygon fill="#191970" stroke="#191970" points="2330.9489,-14.1893 2320.6931,-16.8477 2330.3683,-21.1652 2330.9489,-14.1893"/>
</g>
<!-- Node25&#45;&gt;Node32 -->
<g id="edge39" class="edge">
<title>Node25&#45;&gt;Node32</title>
<path fill="none" stroke="#191970" d="M3071.1243,-67.4639C3046.1299,-57.6708 3013.322,-44.8162 2986.5908,-34.3426"/>
<polygon fill="#191970" stroke="#191970" points="2987.6308,-30.9911 2977.0431,-30.6017 2985.0771,-37.5086 2987.6308,-30.9911"/>
</g>
<!-- Node25&#45;&gt;Node33 -->
<g id="edge40" class="edge">
<title>Node25&#45;&gt;Node33</title>
<path fill="none" stroke="#191970" d="M3030.7305,-78.8822C2883.1766,-71.8231 2555.1321,-54.7955 2279.5,-31 2255.6243,-28.9388 2229.5125,-26.1843 2206.3754,-23.5694"/>
<polygon fill="#191970" stroke="#191970" points="2206.6487,-20.0779 2196.316,-22.4203 2205.8542,-27.0327 2206.6487,-20.0779"/>
</g>
<!-- Node25&#45;&gt;Node34 -->
<g id="edge41" class="edge">
<title>Node25&#45;&gt;Node34</title>
<path fill="none" stroke="#191970" d="M3030.9473,-79.8632C2707.4284,-69.0036 1481.0402,-27.8373 1180.3577,-17.7442"/>
<polygon fill="#191970" stroke="#191970" points="1180.1669,-14.2359 1170.055,-17.3984 1179.932,-21.232 1180.1669,-14.2359"/>
</g>
<!-- Node25&#45;&gt;Node37 -->
<g id="edge42" class="edge">
<title>Node25&#45;&gt;Node37</title>
<path fill="none" stroke="#191970" d="M3188.3915,-79.3579C3297.9566,-74.1276 3502.4169,-61.234 3684.796,-31.1379"/>
<polygon fill="#191970" stroke="#191970" points="3685.5534,-34.5599 3694.8396,-29.4592 3684.3993,-27.6557 3685.5534,-34.5599"/>
</g>
<!-- Node25&#45;&gt;Node40 -->
<g id="edge43" class="edge">
<title>Node25&#45;&gt;Node40</title>
<path fill="none" stroke="#191970" d="M3188.1679,-69.8675C3244.4505,-60.5299 3322.2225,-47.0195 3398.982,-31.2575"/>
<polygon fill="#191970" stroke="#191970" points="3399.7394,-34.675 3408.8237,-29.2229 3398.3222,-27.82 3399.7394,-34.675"/>
</g>
<!-- Node25&#45;&gt;Node41 -->
<g id="edge44" class="edge">
<title>Node25&#45;&gt;Node41</title>
<path fill="none" stroke="#191970" d="M3188.31,-74.7199C3271.033,-66.1365 3405.0696,-51.0524 3529.6053,-31.2427"/>
<polygon fill="#191970" stroke="#191970" points="3530.3817,-34.663 3539.7009,-29.6229 3529.2727,-27.7514 3530.3817,-34.663"/>
</g>
<!-- Node25&#45;&gt;Node42 -->
<g id="edge45" class="edge">
<title>Node25&#45;&gt;Node42</title>
<path fill="none" stroke="#191970" d="M3030.8197,-80.7762C2800.2748,-75.4775 2127.9648,-58.1932 1886.4493,-30.9516"/>
<polygon fill="#191970" stroke="#191970" points="1886.649,-27.4513 1876.3114,-29.7716 1885.8397,-34.4044 1886.649,-27.4513"/>
</g>
<!-- Node49&#45;&gt;Node33 -->
<g id="edge56" class="edge">
<title>Node49&#45;&gt;Node33</title>
<path fill="none" stroke="#191970" d="M1586.1578,-140.2031C1704.6731,-113.4941 1953.0986,-57.5081 2072.5506,-30.5879"/>
<polygon fill="#191970" stroke="#191970" points="2073.6743,-33.9226 2082.6601,-28.3096 2072.1353,-27.0938 2073.6743,-33.9226"/>
</g>
<!-- Node49&#45;&gt;Node34 -->
<g id="edge57" class="edge">
<title>Node49&#45;&gt;Node34</title>
<path fill="none" stroke="#191970" d="M1504.6113,-134.2099C1487.6412,-113.6112 1458.7857,-82.9059 1426.5,-67 1384.304,-46.2117 1259.0456,-30.2349 1180.3704,-21.9051"/>
<polygon fill="#191970" stroke="#191970" points="1180.3761,-18.3868 1170.0668,-20.8296 1179.6493,-25.349 1180.3761,-18.3868"/>
</g>
<!-- Node55&#45;&gt;Node4 -->
<g id="edge79" class="edge">
<title>Node55&#45;&gt;Node4</title>
<path fill="none" stroke="#191970" d="M1872.2153,-383.0319C1644.13,-380.9773 834.0689,-371.034 579.5,-332 573.3881,-331.0628 567.0672,-329.8143 560.796,-328.3914"/>
<polygon fill="#191970" stroke="#191970" points="561.5613,-324.9757 551.0192,-326.0316 559.9188,-331.7803 561.5613,-324.9757"/>
</g>
<!-- Node55&#45;&gt;Node6 -->
<g id="edge72" class="edge">
<title>Node55&#45;&gt;Node6</title>
<path fill="none" stroke="#191970" d="M1992.6479,-382.2928C2280.9037,-376.423 3510.3485,-350.4001 3589.5,-332 3671.2576,-312.994 3703.9923,-315.1424 3761.5,-254 3822.3913,-189.2601 3843.7256,-79.5906 3850.1114,-35.1135"/>
<polygon fill="#191970" stroke="#191970" points="3853.6003,-35.4286 3851.4554,-25.0531 3846.6619,-34.5016 3853.6003,-35.4286"/>
</g>
<!-- Node55&#45;&gt;Node8 -->
<g id="edge73" class="edge">
<title>Node55&#45;&gt;Node8</title>
<path fill="none" stroke="#191970" d="M1910.1737,-368.4606C1895.8925,-358.5625 1877.1742,-345.0646 1861.5,-332 1840.7333,-314.6908 1842.3984,-300.5325 1817.5,-290 1721.1354,-249.2358 949.058,-329.387 876.5,-254 839.5155,-215.5735 842.3915,-175.0007 876.5,-134 981.1415,-8.214 1076.0424,-86.4804 1238.5,-67 1524.0113,-32.7641 1603.6861,-92.9061 1884.5,-31 1887.3683,-30.3677 1890.3003,-29.5501 1893.2049,-28.6214"/>
<polygon fill="#191970" stroke="#191970" points="1894.6241,-31.8302 1902.8419,-25.143 1892.2475,-25.246 1894.6241,-31.8302"/>
</g>
<!-- Node55&#45;&gt;Node9 -->
<g id="edge74" class="edge">
<title>Node55&#45;&gt;Node9</title>
<path fill="none" stroke="#191970" d="M1992.7465,-382.1507C2184.3831,-377.5684 2768.9516,-361.2393 2796.5,-332 2833.0732,-293.1819 2817.8404,-260.8777 2796.5,-212 2793.8727,-205.9824 2653.7725,-78.402 2602.7951,-32.1005"/>
<polygon fill="#191970" stroke="#191970" points="2604.9054,-29.2892 2595.149,-25.1584 2600.2,-34.4718 2604.9054,-29.2892"/>
</g>
<!-- Node55&#45;&gt;Node10 -->
<g id="edge115" class="edge">
<title>Node55&#45;&gt;Node10</title>
<path fill="none" stroke="#191970" d="M1992.8603,-380.5348C2085.5695,-375.1136 2257.9204,-361.3486 2311.5,-332 2343.2636,-314.6013 2368.2446,-280.0449 2382.4448,-256.7216"/>
<polygon fill="#191970" stroke="#191970" points="2385.4666,-258.4877 2387.5205,-248.0938 2379.4332,-254.9382 2385.4666,-258.4877"/>
</g>
<!-- Node55&#45;&gt;Node11 -->
<g id="edge118" class="edge">
<title>Node55&#45;&gt;Node11</title>
<path fill="none" stroke="#191970" d="M1992.7796,-382.1902C2226.0284,-376.9511 3058.9144,-356.5939 3109.5,-332 3142.4138,-315.9979 3167.6371,-280.7657 3181.7684,-256.9475"/>
<polygon fill="#191970" stroke="#191970" points="3184.88,-258.5566 3186.8016,-248.1374 3178.802,-255.0841 3184.88,-258.5566"/>
</g>
<!-- Node55&#45;&gt;Node16 -->
<g id="edge75" class="edge">
<title>Node55&#45;&gt;Node16</title>
<path fill="none" stroke="#191970" d="M1992.679,-381.94C2179.7013,-376.8241 2742.933,-359.3024 2820.5,-332 2944.273,-288.4338 3106.7784,-246.6561 3039.5,-134 3036.7345,-129.3692 2905.4281,-60.3834 2847.017,-29.8533"/>
<polygon fill="#191970" stroke="#191970" points="2848.4584,-26.6575 2837.9743,-25.1297 2845.2174,-32.862 2848.4584,-26.6575"/>
</g>
<!-- Node55&#45;&gt;Node33 -->
<g id="edge125" class="edge">
<title>Node55&#45;&gt;Node33</title>
<path fill="none" stroke="#191970" d="M1919.6803,-368.1718C1897.5999,-341.7919 1854.6313,-290.5588 1853.5,-290 1779.1951,-253.2993 1173.6555,-305.2145 1108.5,-254 1065.8063,-220.4413 1064.9075,-184.2482 1085.5,-134 1101.3505,-95.3229 1113.311,-83.9931 1151.5,-67 1233.8081,-30.3751 1871.6051,-36.909 1961.5,-31 1998.2469,-28.5846 2039.192,-25.076 2072.5388,-22.0076"/>
<polygon fill="#191970" stroke="#191970" points="2072.9969,-25.4802 2082.6308,-21.0712 2072.3501,-18.5102 2072.9969,-25.4802"/>
</g>
<!-- Node55&#45;&gt;Node34 -->
<g id="edge127" class="edge">
<title>Node55&#45;&gt;Node34</title>
<path fill="none" stroke="#191970" d="M1872.0815,-382.9323C1622.634,-380.3558 683.5733,-368.2739 632.5,-332 593.9439,-304.6162 593.5,-280.2911 593.5,-233 593.5,-233 593.5,-233 593.5,-155 593.5,-62.2163 906.2399,-29.4443 1046.651,-19.4064"/>
<polygon fill="#191970" stroke="#191970" points="1047.1285,-22.8817 1056.861,-18.6949 1046.6419,-15.8986 1047.1285,-22.8817"/>
</g>
<!-- Node55&#45;&gt;Node37 -->
<g id="edge128" class="edge">
<title>Node55&#45;&gt;Node37</title>
<path fill="none" stroke="#191970" d="M1992.7312,-382.3055C2253.3572,-377.0156 3277.2477,-354.9461 3419.5,-332 3570.2502,-307.6831 3748.5,-385.6988 3748.5,-233 3748.5,-233 3748.5,-233 3748.5,-155 3748.5,-115.0182 3748.5,-68.5908 3748.5,-40.6574"/>
<polygon fill="#191970" stroke="#191970" points="3752.0001,-40.5694 3748.5,-30.5694 3745.0001,-40.5695 3752.0001,-40.5694"/>
</g>
<!-- Node55&#45;&gt;Node41 -->
<g id="edge129" class="edge">
<title>Node55&#45;&gt;Node41</title>
<path fill="none" stroke="#191970" d="M1992.6585,-382.0986C2205.1573,-376.9691 2919.9239,-358.1425 3147.5,-332 3383.3943,-304.902 3672.5,-470.4457 3672.5,-233 3672.5,-233 3672.5,-233 3672.5,-155 3672.5,-110.951 3645.8123,-65.6206 3626.9041,-39.0319"/>
<polygon fill="#191970" stroke="#191970" points="3629.5759,-36.7567 3620.8398,-30.7623 3623.931,-40.8962 3629.5759,-36.7567"/>
</g>
<!-- Node55&#45;&gt;Node42 -->
<g id="edge130" class="edge">
<title>Node55&#45;&gt;Node42</title>
<path fill="none" stroke="#191970" d="M1872.0955,-383.3722C1623.8574,-382.5559 693.2739,-376.5267 650.5,-332 599.9677,-279.397 685.2865,-214.4124 849.5,-134 959.3791,-80.1942 995.7193,-86.5071 1116.5,-67 1336.4817,-31.471 1599.894,-20.3945 1728.7149,-16.9855"/>
<polygon fill="#191970" stroke="#191970" points="1728.9741,-20.4802 1738.8812,-16.7251 1728.7948,-13.4824 1728.9741,-20.4802"/>
</g>
<!-- Node55&#45;&gt;Node46 -->
<g id="edge124" class="edge">
<title>Node55&#45;&gt;Node46</title>
<path fill="none" stroke="#191970" d="M1930.4217,-368.439C1926.5698,-346.9319 1916.1294,-308.0326 1889.5,-290 1758.8737,-201.5437 1325.2695,-316.6861 1180.5,-254 1121.4517,-228.4317 1059.7043,-184.5643 1099.5,-134 1117.525,-111.0975 1190.2693,-97.162 1245.7784,-89.6637"/>
<polygon fill="#191970" stroke="#191970" points="1246.4634,-93.104 1255.9256,-88.3378 1245.5563,-86.163 1246.4634,-93.104"/>
</g>
<!-- Node55&#45;&gt;Node48 -->
<g id="edge119" class="edge">
<title>Node55&#45;&gt;Node48</title>
<path fill="none" stroke="#191970" d="M1992.6742,-369.0159C1994.2986,-368.6683 1995.9095,-368.329 1997.5,-368 2088.0878,-349.2628 2120.8906,-375.5562 2202.5,-332 2267.6692,-297.2182 2254.3519,-250.3289 2317.5,-212 2320.2365,-210.3391 2382.6106,-192.2224 2436.0849,-176.8529"/>
<polygon fill="#191970" stroke="#191970" points="2437.3046,-180.1442 2445.9498,-174.0197 2435.3722,-173.4162 2437.3046,-180.1442"/>
</g>
<!-- Node55&#45;&gt;Node49 -->
<g id="edge122" class="edge">
<title>Node55&#45;&gt;Node49</title>
<path fill="none" stroke="#191970" d="M1946.0915,-368.4117C1962.5693,-348.268 1985.7672,-312.5195 1965.5,-290 1914.5261,-233.3614 1693.6673,-285.9712 1624.5,-254 1590.4947,-238.2817 1560.5745,-206.9013 1541.6618,-183.6639"/>
<polygon fill="#191970" stroke="#191970" points="1544.3991,-181.4828 1535.4425,-175.8232 1538.9148,-185.8329 1544.3991,-181.4828"/>
</g>
<!-- Node55&#45;&gt;Node53 -->
<g id="edge131" class="edge">
<title>Node55&#45;&gt;Node53</title>
<path fill="none" stroke="#191970" d="M1992.5641,-381.5501C2150.67,-376.0653 2570.1197,-359.1129 2626.5,-332 2649.4568,-320.9603 2642.3266,-300.5774 2665.5,-290 2772.6049,-241.1126 3607.1307,-263.2684 3724.5,-254 3750.6503,-251.935 3778.9736,-248.779 3804.8229,-245.5362"/>
<polygon fill="#191970" stroke="#191970" points="3805.4978,-248.9786 3814.9751,-244.2426 3804.6129,-242.0347 3805.4978,-248.9786"/>
</g>
<!-- Node56 -->
<g id="node38" class="node">
<title>Node56</title>
<polygon fill="#ffffff" stroke="#bfbfbf" points="2674,-290.5 2674,-331.5 2787,-331.5 2787,-290.5 2674,-290.5"/>
<text text-anchor="start" x="2682" y="-319.5" font-family="Helvetica,sans-Serif" font-size="10.00" fill="#000000">tensorflow/compiler</text>
<text text-anchor="start" x="2682" y="-308.5" font-family="Helvetica,sans-Serif" font-size="10.00" fill="#000000">/xla/executable_run</text>
<text text-anchor="middle" x="2730.5" y="-297.5" font-family="Helvetica,sans-Serif" font-size="10.00" fill="#000000">_options.h</text>
</g>
<!-- Node55&#45;&gt;Node56 -->
<g id="edge76" class="edge">
<title>Node55&#45;&gt;Node56</title>
<path fill="none" stroke="#191970" d="M1992.6435,-380.9219C2142.9373,-374.2092 2531.9586,-355.0964 2659.5,-332 2660.9625,-331.7352 2662.4377,-331.4514 2663.9215,-331.151"/>
<polygon fill="#191970" stroke="#191970" points="2664.7964,-334.5419 2673.7955,-328.9501 2663.2735,-327.7096 2664.7964,-334.5419"/>
</g>
<!-- Node57 -->
<g id="node39" class="node">
<title>Node57</title>
<polygon fill="#ffffff" stroke="#bfbfbf" points="660,-290.5 660,-331.5 791,-331.5 791,-290.5 660,-290.5"/>
<text text-anchor="start" x="668" y="-319.5" font-family="Helvetica,sans-Serif" font-size="10.00" fill="#000000">tensorflow/compiler</text>
<text text-anchor="start" x="668" y="-308.5" font-family="Helvetica,sans-Serif" font-size="10.00" fill="#000000">/xla/legacy_flags/debug</text>
<text text-anchor="middle" x="725.5" y="-297.5" font-family="Helvetica,sans-Serif" font-size="10.00" fill="#000000">_options_flags.h</text>
</g>
<!-- Node55&#45;&gt;Node57 -->
<g id="edge77" class="edge">
<title>Node55&#45;&gt;Node57</title>
<path fill="none" stroke="#191970" d="M1872.1835,-382.5647C1671.8607,-379.1794 1029.0073,-366.0059 801.0503,-331.8344"/>
<polygon fill="#191970" stroke="#191970" points="801.5807,-328.3749 791.1616,-330.2964 800.5049,-335.2917 801.5807,-328.3749"/>
</g>
<!-- Node58 -->
<g id="node40" class="node">
<title>Node58</title>
<polygon fill="#ffffff" stroke="#bfbfbf" points="809.5,-290.5 809.5,-331.5 933.5,-331.5 933.5,-290.5 809.5,-290.5"/>
<text text-anchor="start" x="817.5" y="-319.5" font-family="Helvetica,sans-Serif" font-size="10.00" fill="#000000">tensorflow/compiler</text>
<text text-anchor="start" x="817.5" y="-308.5" font-family="Helvetica,sans-Serif" font-size="10.00" fill="#000000">/xla/service/allocation</text>
<text text-anchor="middle" x="871.5" y="-297.5" font-family="Helvetica,sans-Serif" font-size="10.00" fill="#000000">_tracker.h</text>
</g>
<!-- Node55&#45;&gt;Node58 -->
<g id="edge78" class="edge">
<title>Node55&#45;&gt;Node58</title>
<path fill="none" stroke="#191970" d="M1872.4004,-382.2281C1689.7299,-378.0751 1141.9982,-363.4275 943.6665,-331.9383"/>
<polygon fill="#191970" stroke="#191970" points="944.0791,-328.4591 933.642,-330.2805 942.9369,-335.3653 944.0791,-328.4591"/>
</g>
<!-- Node59 -->
<g id="node41" class="node">
<title>Node59</title>
<polygon fill="#ffffff" stroke="#bfbfbf" points="951.5,-290.5 951.5,-331.5 1065.5,-331.5 1065.5,-290.5 951.5,-290.5"/>
<text text-anchor="start" x="959.5" y="-319.5" font-family="Helvetica,sans-Serif" font-size="10.00" fill="#000000">tensorflow/compiler</text>
<text text-anchor="start" x="959.5" y="-308.5" font-family="Helvetica,sans-Serif" font-size="10.00" fill="#000000">/xla/service/channel</text>
<text text-anchor="middle" x="1008.5" y="-297.5" font-family="Helvetica,sans-Serif" font-size="10.00" fill="#000000">_tracker.h</text>
</g>
<!-- Node55&#45;&gt;Node59 -->
<g id="edge80" class="edge">
<title>Node55&#45;&gt;Node59</title>
<path fill="none" stroke="#191970" d="M1872.4667,-381.8328C1707.0974,-376.9387 1246.4618,-361.1975 1075.3898,-331.864"/>
<polygon fill="#191970" stroke="#191970" points="1075.9763,-328.4134 1065.5157,-330.0948 1074.7416,-335.3037 1075.9763,-328.4134"/>
</g>
<!-- Node60 -->
<g id="node42" class="node">
<title>Node60</title>
<polygon fill="#ffffff" stroke="#bfbfbf" points="1083.5,-290.5 1083.5,-331.5 1217.5,-331.5 1217.5,-290.5 1083.5,-290.5"/>
<text text-anchor="start" x="1091.5" y="-319.5" font-family="Helvetica,sans-Serif" font-size="10.00" fill="#000000">tensorflow/compiler</text>
<text text-anchor="start" x="1091.5" y="-308.5" font-family="Helvetica,sans-Serif" font-size="10.00" fill="#000000">/xla/service/compilation</text>
<text text-anchor="middle" x="1150.5" y="-297.5" font-family="Helvetica,sans-Serif" font-size="10.00" fill="#000000">_cache.h</text>
</g>
<!-- Node55&#45;&gt;Node60 -->
<g id="edge81" class="edge">
<title>Node55&#45;&gt;Node60</title>
<path fill="none" stroke="#191970" d="M1872.2349,-380.632C1728.5917,-373.556 1368.1941,-354.3262 1227.9938,-332.0399"/>
<polygon fill="#191970" stroke="#191970" points="1228.3272,-328.5474 1217.8888,-330.3612 1227.1799,-335.4528 1228.3272,-328.5474"/>
</g>
<!-- Node61 -->
<g id="node43" class="node">
<title>Node61</title>
<g id="a_node43"><a xlink:href="../../d1/dc5/computation__tracker_8h.html" target="_top" xlink:title="tensorflow/compiler\l/xla/service/computation\l_tracker.h">
<polygon fill="#ffffff" stroke="#ff0000" points="2018,-290.5 2018,-331.5 2155,-331.5 2155,-290.5 2018,-290.5"/>
<text text-anchor="start" x="2026" y="-319.5" font-family="Helvetica,sans-Serif" font-size="10.00" fill="#000000">tensorflow/compiler</text>
<text text-anchor="start" x="2026" y="-308.5" font-family="Helvetica,sans-Serif" font-size="10.00" fill="#000000">/xla/service/computation</text>
<text text-anchor="middle" x="2086.5" y="-297.5" font-family="Helvetica,sans-Serif" font-size="10.00" fill="#000000">_tracker.h</text>
</a>
</g>
</g>
<!-- Node55&#45;&gt;Node61 -->
<g id="edge82" class="edge">
<title>Node55&#45;&gt;Node61</title>
<path fill="none" stroke="#191970" d="M1964.4089,-368.478C1984.3864,-359.073 2010.6164,-346.7244 2033.6419,-335.8845"/>
<polygon fill="#191970" stroke="#191970" points="2035.3952,-338.9276 2042.952,-331.5015 2032.4136,-332.5943 2035.3952,-338.9276"/>
</g>
<!-- Node62 -->
<g id="node44" class="node">
<title>Node62</title>
<polygon fill="#ffffff" stroke="#bfbfbf" points="1109,-140 1109,-170 1246,-170 1246,-140 1109,-140"/>
<text text-anchor="start" x="1117" y="-158" font-family="Helvetica,sans-Serif" font-size="10.00" fill="#000000">tensorflow/compiler</text>
<text text-anchor="middle" x="1177.5" y="-147" font-family="Helvetica,sans-Serif" font-size="10.00" fill="#000000">/xla/service/session.pb.h</text>
</g>
<!-- Node55&#45;&gt;Node62 -->
<g id="edge120" class="edge">
<title>Node55&#45;&gt;Node62</title>
<path fill="none" stroke="#191970" d="M1937.0981,-368.4381C1942.4061,-347.6508 1947.9944,-310.4263 1927.5,-290 1870.9238,-233.6118 1272.8894,-302.6033 1209.5,-254 1186.9781,-236.7315 1180.0477,-203.3688 1178.0541,-180.1718"/>
<polygon fill="#191970" stroke="#191970" points="1181.5373,-179.7887 1177.436,-170.0199 1174.5503,-180.2141 1181.5373,-179.7887"/>
</g>
<!-- Node63 -->
<g id="node45" class="node">
<title>Node63</title>
<g id="a_node45"><a xlink:href="../../d6/d38/user__computation_8h.html" target="_top" xlink:title="tensorflow/compiler\l/xla/service/user_computation.h">
<polygon fill="#ffffff" stroke="#ff0000" points="1868,-218 1868,-248 2041,-248 2041,-218 1868,-218"/>
<text text-anchor="start" x="1876" y="-236" font-family="Helvetica,sans-Serif" font-size="10.00" fill="#000000">tensorflow/compiler</text>
<text text-anchor="middle" x="1954.5" y="-225" font-family="Helvetica,sans-Serif" font-size="10.00" fill="#000000">/xla/service/user_computation.h</text>
</a>
</g>
</g>
<!-- Node55&#45;&gt;Node63 -->
<g id="edge121" class="edge">
<title>Node55&#45;&gt;Node63</title>
<path fill="none" stroke="#191970" d="M1992.6732,-378.4829C2053.8218,-371.9889 2142.4587,-358.2489 2163.5,-332 2201.2746,-284.8764 2122.4953,-258.9504 2051.093,-245.5811"/>
<polygon fill="#191970" stroke="#191970" points="2051.5419,-242.1057 2041.0797,-243.7771 2050.3007,-248.9948 2051.5419,-242.1057"/>
</g>
<!-- Node64 -->
<g id="node46" class="node">
<title>Node64</title>
<polygon fill="#ffffff" stroke="#bfbfbf" points="2027,-140 2027,-170 2140,-170 2140,-140 2027,-140"/>
<text text-anchor="start" x="2035" y="-158" font-family="Helvetica,sans-Serif" font-size="10.00" fill="#000000">tensorflow/compiler</text>
<text text-anchor="middle" x="2083.5" y="-147" font-family="Helvetica,sans-Serif" font-size="10.00" fill="#000000">/xla/xla.pb.h</text>
</g>
<!-- Node55&#45;&gt;Node64 -->
<g id="edge126" class="edge">
<title>Node55&#45;&gt;Node64</title>
<path fill="none" stroke="#191970" d="M1992.6825,-369.055C1994.3044,-368.6959 1995.9126,-368.3436 1997.5,-368 2079.369,-350.2812 2129.2259,-396.6403 2182.5,-332 2223.9621,-281.6919 2153.6596,-211.5648 2111.5742,-176.6045"/>
<polygon fill="#191970" stroke="#191970" points="2113.5411,-173.6927 2103.5748,-170.0976 2109.1239,-179.1231 2113.5411,-173.6927"/>
</g>
<!-- Node65 -->
<g id="node47" class="node">
<title>Node65</title>
<polygon fill="#ffffff" stroke="#bfbfbf" points="1236,-290.5 1236,-331.5 1355,-331.5 1355,-290.5 1236,-290.5"/>
<text text-anchor="start" x="1244" y="-319.5" font-family="Helvetica,sans-Serif" font-size="10.00" fill="#000000">tensorflow/compiler</text>
<text text-anchor="start" x="1244" y="-308.5" font-family="Helvetica,sans-Serif" font-size="10.00" fill="#000000">/xla/service/device</text>
<text text-anchor="middle" x="1295.5" y="-297.5" font-family="Helvetica,sans-Serif" font-size="10.00" fill="#000000">_memory_allocator.h</text>
</g>
<!-- Node55&#45;&gt;Node65 -->
<g id="edge114" class="edge">
<title>Node55&#45;&gt;Node65</title>
<path fill="none" stroke="#191970" d="M1872.2331,-382.0842C1769.6665,-378.7927 1554.7047,-368.0669 1365.0202,-331.8828"/>
<polygon fill="#191970" stroke="#191970" points="1365.6326,-328.4364 1355.1497,-329.9722 1364.3023,-335.3088 1365.6326,-328.4364"/>
</g>
<!-- Node66 -->
<g id="node48" class="node">
<title>Node66</title>
<polygon fill="#ffffff" stroke="#bfbfbf" points="1373.5,-290.5 1373.5,-331.5 1497.5,-331.5 1497.5,-290.5 1373.5,-290.5"/>
<text text-anchor="start" x="1381.5" y="-319.5" font-family="Helvetica,sans-Serif" font-size="10.00" fill="#000000">tensorflow/compiler</text>
<text text-anchor="start" x="1381.5" y="-308.5" font-family="Helvetica,sans-Serif" font-size="10.00" fill="#000000">/xla/service/execution</text>
<text text-anchor="middle" x="1435.5" y="-297.5" font-family="Helvetica,sans-Serif" font-size="10.00" fill="#000000">_tracker.h</text>
</g>
<!-- Node55&#45;&gt;Node66 -->
<g id="edge116" class="edge">
<title>Node55&#45;&gt;Node66</title>
<path fill="none" stroke="#191970" d="M1872.3726,-379.4165C1791.4315,-373.2161 1642.9197,-359.3659 1507.8059,-332.1057"/>
<polygon fill="#191970" stroke="#191970" points="1508.1875,-328.6113 1497.6886,-330.0339 1506.7831,-335.469 1508.1875,-328.6113"/>
</g>
<!-- Node67 -->
<g id="node49" class="node">
<title>Node67</title>
<polygon fill="#ffffff" stroke="#bfbfbf" points="1515.5,-290.5 1515.5,-331.5 1659.5,-331.5 1659.5,-290.5 1515.5,-290.5"/>
<text text-anchor="start" x="1523.5" y="-319.5" font-family="Helvetica,sans-Serif" font-size="10.00" fill="#000000">tensorflow/compiler</text>
<text text-anchor="start" x="1523.5" y="-308.5" font-family="Helvetica,sans-Serif" font-size="10.00" fill="#000000">/xla/service/hlo_execution</text>
<text text-anchor="middle" x="1587.5" y="-297.5" font-family="Helvetica,sans-Serif" font-size="10.00" fill="#000000">_profile.h</text>
</g>
<!-- Node55&#45;&gt;Node67 -->
<g id="edge117" class="edge">
<title>Node55&#45;&gt;Node67</title>
<path fill="none" stroke="#191970" d="M1872.254,-372.8293C1820.9073,-363.4888 1744.9331,-349.0898 1669.9601,-332.2752"/>
<polygon fill="#191970" stroke="#191970" points="1670.3955,-328.7855 1659.8701,-329.9961 1668.8531,-335.6134 1670.3955,-328.7855"/>
</g>
<!-- Node68 -->
<g id="node50" class="node">
<title>Node68</title>
<polygon fill="#ffffff" stroke="#bfbfbf" points="1678,-296 1678,-326 1809,-326 1809,-296 1678,-296"/>
<text text-anchor="start" x="1686" y="-314" font-family="Helvetica,sans-Serif" font-size="10.00" fill="#000000">tensorflow/compiler</text>
<text text-anchor="middle" x="1743.5" y="-303" font-family="Helvetica,sans-Serif" font-size="10.00" fill="#000000">/xla/service_interface.h</text>
</g>
<!-- Node55&#45;&gt;Node68 -->
<g id="edge123" class="edge">
<title>Node55&#45;&gt;Node68</title>
<path fill="none" stroke="#191970" d="M1893.3391,-368.478C1863.943,-357.2017 1823.5162,-341.694 1792.0621,-329.6283"/>
<polygon fill="#191970" stroke="#191970" points="1793.2009,-326.3166 1782.6108,-326.0028 1790.6938,-332.8522 1793.2009,-326.3166"/>
</g>
<!-- Node61&#45;&gt;Node7 -->
<g id="edge84" class="edge">
<title>Node61&#45;&gt;Node7</title>
<path fill="none" stroke="#191970" d="M2082.9217,-290.495C2080.3179,-269.3218 2079.367,-236.0709 2093.5,-212 2108.2922,-186.8063 2124.4398,-192.5721 2148.5,-176 2151.0789,-174.2237 2153.7657,-172.3334 2156.4182,-170.4426"/>
<polygon fill="#191970" stroke="#191970" points="2158.5381,-173.2291 2164.6005,-164.5401 2154.4428,-167.552 2158.5381,-173.2291"/>
</g>
<!-- Node61&#45;&gt;Node8 -->
<g id="edge85" class="edge">
<title>Node61&#45;&gt;Node8</title>
<path fill="none" stroke="#191970" d="M2017.6743,-299.1277C1995.9234,-295.7315 1971.7571,-292.3244 1949.5,-290 1878.4411,-282.5789 1365.3545,-295.9202 1307.5,-254 1277.3581,-232.1598 1253.3972,-134.5781 1246.5,-98 1243.947,-84.4608 1237.036,-77.013 1246.5,-67 1295.271,-15.3994 1815.1685,-46.3096 1884.5,-31 1887.3681,-30.3667 1890.2999,-29.5485 1893.2044,-28.6193"/>
<polygon fill="#191970" stroke="#191970" points="1894.624,-31.828 1902.8412,-25.1402 1892.2469,-25.2439 1894.624,-31.828"/>
</g>
<!-- Node61&#45;&gt;Node9 -->
<g id="edge87" class="edge">
<title>Node61&#45;&gt;Node9</title>
<path fill="none" stroke="#191970" d="M2091.3869,-290.4252C2097.5028,-268.5704 2109.8941,-234.1784 2131.5,-212 2157.0216,-185.8021 2175.5893,-197.0482 2205.5,-176 2227.3475,-160.6258 2225.8141,-148.1077 2248.5,-134 2350.0424,-70.8537 2489.8275,-35.5028 2552.1944,-21.977"/>
<polygon fill="#191970" stroke="#191970" points="2553.1643,-25.3491 2562.2187,-19.8475 2551.7096,-18.5019 2553.1643,-25.3491"/>
</g>
<!-- Node61&#45;&gt;Node11 -->
<g id="edge88" class="edge">
<title>Node61&#45;&gt;Node11</title>
<path fill="none" stroke="#191970" d="M2155.3917,-306.1502C2350.1832,-292.4375 2904.334,-253.4268 3113.3633,-238.7118"/>
<polygon fill="#191970" stroke="#191970" points="3113.6229,-242.2023 3123.3524,-238.0086 3113.1313,-235.2196 3113.6229,-242.2023"/>
</g>
<!-- Node61&#45;&gt;Node13 -->
<g id="edge83" class="edge">
<title>Node61&#45;&gt;Node13</title>
<path fill="none" stroke="#191970" d="M2102.4488,-290.3516C2122.2376,-265.0734 2155.2306,-224.1246 2170.5,-212 2197.8976,-190.2452 2212.2359,-196.6166 2240.5,-176 2261.8277,-160.443 2259.5119,-146.9783 2282.5,-134 2362.8846,-88.6174 2647.3924,-35.6642 2735.3768,-20.0493"/>
<polygon fill="#191970" stroke="#191970" points="2736.0912,-23.4774 2745.3313,-18.2936 2734.8753,-16.5838 2736.0912,-23.4774"/>
</g>
<!-- Node61&#45;&gt;Node27 -->
<g id="edge86" class="edge">
<title>Node61&#45;&gt;Node27</title>
<path fill="none" stroke="#191970" d="M2017.7506,-302.7629C1979.9472,-298.4625 1932.1866,-293.4027 1889.5,-290 1738.6558,-277.9757 1352.4184,-303.7283 1209.5,-254 1141.168,-230.2239 1060.3617,-194.8503 1099.5,-134 1118.9201,-103.8065 1211.5669,-75.2747 1246.5,-67 1454.0188,-17.8443 1993.2292,-51.5294 2205.5,-31 2230.4528,-28.5867 2258.6823,-23.9791 2278.5933,-20.4121"/>
<polygon fill="#191970" stroke="#191970" points="2279.2481,-23.8505 2288.4553,-18.6086 2277.9888,-16.9647 2279.2481,-23.8505"/>
</g>
<!-- Node61&#45;&gt;Node33 -->
<g id="edge109" class="edge">
<title>Node61&#45;&gt;Node33</title>
<path fill="none" stroke="#191970" d="M2017.9383,-299.9158C1996.0923,-296.5383 1971.8051,-292.9436 1949.5,-290 1717.0308,-259.3214 1297.3206,-315.7305 1445.5,-134 1485.1019,-85.4313 1906.6342,-38.6308 2072.7544,-21.9349"/>
<polygon fill="#191970" stroke="#191970" points="2073.2447,-25.4034 2082.847,-20.9261 2072.5484,-18.4381 2073.2447,-25.4034"/>
</g>
<!-- Node61&#45;&gt;Node34 -->
<g id="edge110" class="edge">
<title>Node61&#45;&gt;Node34</title>
<path fill="none" stroke="#191970" d="M2017.9891,-305.1076C1963.6491,-300.5654 1885.7532,-294.3462 1817.5,-290 1776.9772,-287.4196 1117.4858,-281.3789 1087.5,-254 1027.232,-198.9716 1074.4509,-88.4634 1099.9254,-39.6378"/>
<polygon fill="#191970" stroke="#191970" points="1103.06,-41.1982 1104.6921,-30.7298 1096.888,-37.8956 1103.06,-41.1982"/>
</g>
<!-- Node61&#45;&gt;Node42 -->
<g id="edge111" class="edge">
<title>Node61&#45;&gt;Node42</title>
<path fill="none" stroke="#191970" d="M2017.759,-302.6566C1979.958,-298.3245 1932.1971,-293.2683 1889.5,-290 1803.8795,-283.446 1187.6847,-303.4766 1117.5,-254 1086.8742,-232.4104 1092.748,-212.763 1085.5,-176 1081.8893,-157.6859 1075.2855,-149.624 1085.5,-134 1126.1213,-71.8661 1166.6014,-85.4743 1238.5,-67 1329.0857,-43.7241 1594.9928,-26.7934 1728.7551,-19.4907"/>
<polygon fill="#191970" stroke="#191970" points="1729.1388,-22.9751 1738.9349,-18.9396 1728.7603,-15.9854 1729.1388,-22.9751"/>
</g>
<!-- Node61&#45;&gt;Node46 -->
<g id="edge108" class="edge">
<title>Node61&#45;&gt;Node46</title>
<path fill="none" stroke="#191970" d="M2017.6706,-299.1635C1995.9194,-295.7689 1971.754,-292.3539 1949.5,-290 1881.65,-282.8234 1386.6443,-300.2675 1336.5,-254 1296.2788,-216.8885 1301.1224,-145.8426 1307.2794,-107.8848"/>
<polygon fill="#191970" stroke="#191970" points="1310.7899,-108.1349 1309.099,-97.6758 1303.8985,-106.9065 1310.7899,-108.1349"/>
</g>
<!-- Node61&#45;&gt;Node48 -->
<g id="edge89" class="edge">
<title>Node61&#45;&gt;Node48</title>
<path fill="none" stroke="#191970" d="M2143.775,-290.3743C2168.8308,-280.543 2198.2141,-267.8959 2223.5,-254 2252.0269,-238.323 2253.7807,-225.2784 2283.5,-212 2344.7926,-184.6149 2367.3794,-192.6463 2435.9016,-176.2901"/>
<polygon fill="#191970" stroke="#191970" points="2437.0208,-179.6186 2445.8841,-173.8141 2435.3356,-172.8245 2437.0208,-179.6186"/>
</g>
<!-- Node61&#45;&gt;Node49 -->
<g id="edge107" class="edge">
<title>Node61&#45;&gt;Node49</title>
<path fill="none" stroke="#191970" d="M2017.7977,-292.9498C2012.9731,-291.8881 2008.1721,-290.8914 2003.5,-290 1881.5532,-266.7336 1845.5116,-289.3353 1726.5,-254 1667.2657,-236.4129 1603.871,-203.5902 1563.2952,-180.5747"/>
<polygon fill="#191970" stroke="#191970" points="1564.909,-177.4656 1554.4921,-175.5318 1561.4295,-183.5396 1564.909,-177.4656"/>
</g>
<!-- Node61&#45;&gt;Node51 -->
<g id="edge112" class="edge">
<title>Node61&#45;&gt;Node51</title>
<path fill="none" stroke="#191970" d="M2117.6553,-290.3963C2149.3403,-269.7305 2200.0996,-237.4115 2245.5,-212 2269.1534,-198.7607 2296.2732,-185.1402 2318.1258,-174.5347"/>
<polygon fill="#191970" stroke="#191970" points="2319.6576,-177.6817 2327.1432,-170.184 2316.6158,-171.3772 2319.6576,-177.6817"/>
</g>
<!-- Node61&#45;&gt;Node54 -->
<g id="edge113" class="edge">
<title>Node61&#45;&gt;Node54</title>
<path fill="none" stroke="#191970" d="M2017.7784,-293.0486C2012.9584,-291.9634 2008.1637,-290.9344 2003.5,-290 1896.88,-268.6373 1849.6582,-317.658 1761.5,-254 1736.9972,-236.3068 1723.7448,-203.0933 1717.1582,-180.0427"/>
<polygon fill="#191970" stroke="#191970" points="1720.5135,-179.0398 1714.5845,-170.2593 1713.7438,-180.8207 1720.5135,-179.0398"/>
</g>
<!-- Node61&#45;&gt;Node62 -->
<g id="edge90" class="edge">
<title>Node61&#45;&gt;Node62</title>
<path fill="none" stroke="#191970" d="M2017.9181,-297.6145C2000.8512,-294.6933 1982.5569,-291.9086 1965.5,-290 1887.5511,-281.278 1330.7106,-288.9654 1260.5,-254 1228.0648,-237.8471 1203.5126,-202.6544 1189.8113,-178.8859"/>
<polygon fill="#191970" stroke="#191970" points="1192.8468,-177.1429 1184.9355,-170.0958 1186.7255,-180.5383 1192.8468,-177.1429"/>
</g>
<!-- Node61&#45;&gt;Node63 -->
<g id="edge91" class="edge">
<title>Node61&#45;&gt;Node63</title>
<path fill="none" stroke="#191970" d="M2051.473,-290.3022C2032.0878,-278.8474 2008.0924,-264.6682 1988.8209,-253.2805"/>
<polygon fill="#191970" stroke="#191970" points="1990.4471,-250.1761 1980.0573,-248.102 1986.886,-256.2026 1990.4471,-250.1761"/>
</g>
<!-- Node63&#45;&gt;Node6 -->
<g id="edge92" class="edge">
<title>Node63&#45;&gt;Node6</title>
<path fill="none" stroke="#191970" d="M2041.0355,-227.7995C2114.5727,-223.4267 2222.9477,-217.0922 2317.5,-212 2477.9113,-203.361 2885.1193,-220.4186 3039.5,-176 3076.2147,-165.4364 3078.2449,-146.0467 3114.5,-134 3230.6401,-95.4092 3266.3815,-115.5524 3387.5,-98 3576.3103,-70.6378 3627.0846,-79.8772 3811.5,-31 3814.3274,-30.2506 3817.23,-29.3769 3820.1216,-28.433"/>
<polygon fill="#191970" stroke="#191970" points="3821.5135,-31.6536 3829.7845,-25.0323 3819.1897,-25.0506 3821.5135,-31.6536"/>
</g>
<!-- Node63&#45;&gt;Node7 -->
<g id="edge93" class="edge">
<title>Node63&#45;&gt;Node7</title>
<path fill="none" stroke="#191970" d="M2027.1752,-217.8927C2064.5677,-208.5857 2110.2113,-194.792 2148.5,-176 2151.7226,-174.4184 2154.9671,-172.4816 2158.0595,-170.4305"/>
<polygon fill="#191970" stroke="#191970" points="2160.1594,-173.2315 2166.228,-164.5468 2156.0681,-167.5515 2160.1594,-173.2315"/>
</g>
<!-- Node63&#45;&gt;Node8 -->
<g id="edge94" class="edge">
<title>Node63&#45;&gt;Node8</title>
<path fill="none" stroke="#191970" d="M1937.4499,-217.9177C1926.8818,-207.3748 1914.2593,-192.3071 1908.5,-176 1891.326,-127.3729 1906.6484,-65.5899 1916.5827,-34.7864"/>
<polygon fill="#191970" stroke="#191970" points="1919.9179,-35.8494 1919.8098,-25.2551 1913.2876,-33.6044 1919.9179,-35.8494"/>
</g>
<!-- Node63&#45;&gt;Node9 -->
<g id="edge95" class="edge">
<title>Node63&#45;&gt;Node9</title>
<path fill="none" stroke="#191970" d="M1954.526,-217.7413C1955.4397,-195.8264 1960.5358,-155.6965 1984.5,-134 2069.7113,-56.852 2439.9755,-25.4369 2552.1644,-17.5816"/>
<polygon fill="#191970" stroke="#191970" points="2552.4602,-21.0696 2562.1975,-16.8942 2551.9817,-14.086 2552.4602,-21.0696"/>
</g>
<!-- Node63&#45;&gt;Node16 -->
<g id="edge96" class="edge">
<title>Node63&#45;&gt;Node16</title>
<path fill="none" stroke="#191970" d="M1962.0581,-217.9382C1974.9509,-192.8694 2001.3631,-144.3116 2017.5,-134 2090.1429,-87.5808 2703.7974,-55.3314 2786.5,-31 2788.4128,-30.4373 2790.3545,-29.7783 2792.289,-29.0554"/>
<polygon fill="#191970" stroke="#191970" points="2793.8907,-32.1781 2801.735,-25.0564 2791.1617,-25.732 2793.8907,-32.1781"/>
</g>
<!-- Node63&#45;&gt;Node19 -->
<g id="edge97" class="edge">
<title>Node63&#45;&gt;Node19</title>
<path fill="none" stroke="#191970" d="M2041.2306,-226.1805C2226.8612,-211.5845 2661.3096,-177.4242 2852.9047,-162.3593"/>
<polygon fill="#191970" stroke="#191970" points="2853.2582,-165.8424 2862.9531,-161.5692 2852.7095,-158.8639 2853.2582,-165.8424"/>
</g>
<!-- Node63&#45;&gt;Node33 -->
<g id="edge101" class="edge">
<title>Node63&#45;&gt;Node33</title>
<path fill="none" stroke="#191970" d="M1948.3035,-217.798C1941.0203,-197.3464 1931.6825,-160.4854 1946.5,-134 1974.7277,-83.5448 2034.2014,-51.9559 2079.7145,-34.2063"/>
<polygon fill="#191970" stroke="#191970" points="2081.0783,-37.4326 2089.1983,-30.6269 2078.6066,-30.8835 2081.0783,-37.4326"/>
</g>
<!-- Node63&#45;&gt;Node34 -->
<g id="edge103" class="edge">
<title>Node63&#45;&gt;Node34</title>
<path fill="none" stroke="#191970" d="M1867.8917,-227.4141C1731.9707,-218.0366 1480.3883,-197.9837 1445.5,-176 1397.1919,-145.5602 1424.5338,-99.3739 1377.5,-67 1346.1261,-45.4049 1247.5418,-30.4201 1180.1405,-22.3898"/>
<polygon fill="#191970" stroke="#191970" points="1180.3588,-18.8915 1170.0203,-21.2081 1179.5469,-25.8443 1180.3588,-18.8915"/>
</g>
<!-- Node63&#45;&gt;Node42 -->
<g id="edge104" class="edge">
<title>Node63&#45;&gt;Node42</title>
<path fill="none" stroke="#191970" d="M1937.0247,-217.8819C1925.0402,-206.9787 1909.2451,-191.5069 1897.5,-176 1863.7633,-131.4579 1834.1143,-72.8592 1818.7156,-40.2039"/>
<polygon fill="#191970" stroke="#191970" points="1821.7994,-38.5348 1814.4055,-30.9466 1815.4535,-41.4895 1821.7994,-38.5348"/>
</g>
<!-- Node63&#45;&gt;Node46 -->
<g id="edge100" class="edge">
<title>Node63&#45;&gt;Node46</title>
<path fill="none" stroke="#191970" d="M1914.0093,-217.9783C1889.3764,-207.9142 1857.8796,-193.3486 1832.5,-176 1810.1815,-160.7439 1813.0172,-145.3916 1788.5,-134 1717.4108,-100.9692 1492.6901,-88.6549 1379.3074,-84.4606"/>
<polygon fill="#191970" stroke="#191970" points="1379.1413,-80.9525 1369.022,-84.0911 1378.8899,-87.948 1379.1413,-80.9525"/>
</g>
<!-- Node63&#45;&gt;Node49 -->
<g id="edge99" class="edge">
<title>Node63&#45;&gt;Node49</title>
<path fill="none" stroke="#191970" d="M1868.6321,-217.9448C1803.9638,-206.5598 1713.1354,-190.4699 1633.5,-176 1621.4168,-173.8045 1608.6122,-171.4508 1596.1314,-169.1419"/>
<polygon fill="#191970" stroke="#191970" points="1596.6818,-165.6844 1586.2115,-167.3038 1595.4064,-172.5673 1596.6818,-165.6844"/>
</g>
<!-- Node63&#45;&gt;Node51 -->
<g id="edge105" class="edge">
<title>Node63&#45;&gt;Node51</title>
<path fill="none" stroke="#191970" d="M2032.5881,-217.9608C2104.0465,-204.1985 2209.2513,-183.9368 2280.8774,-170.1421"/>
<polygon fill="#191970" stroke="#191970" points="2281.5967,-173.568 2290.7543,-168.2399 2280.2728,-166.6943 2281.5967,-173.568"/>
</g>
<!-- Node63&#45;&gt;Node54 -->
<g id="edge106" class="edge">
<title>Node63&#45;&gt;Node54</title>
<path fill="none" stroke="#191970" d="M1907.6472,-217.9608C1867.8549,-205.188 1810.6218,-186.8169 1768.241,-173.2132"/>
<polygon fill="#191970" stroke="#191970" points="1769.2142,-169.8497 1758.6229,-170.1259 1767.0747,-176.5148 1769.2142,-169.8497"/>
</g>
<!-- Node63&#45;&gt;Node62 -->
<g id="edge98" class="edge">
<title>Node63&#45;&gt;Node62</title>
<path fill="none" stroke="#191970" d="M1867.6299,-224.2795C1715.4535,-209.0031 1402.9476,-177.6318 1256.503,-162.9308"/>
<polygon fill="#191970" stroke="#191970" points="1256.5501,-159.418 1246.2504,-161.9016 1255.8508,-166.383 1256.5501,-159.418"/>
</g>
<!-- Node63&#45;&gt;Node64 -->
<g id="edge102" class="edge">
<title>Node63&#45;&gt;Node64</title>
<path fill="none" stroke="#191970" d="M1979.3725,-217.9608C1999.3206,-205.8992 2027.5252,-188.8452 2049.5499,-175.528"/>
<polygon fill="#191970" stroke="#191970" points="2051.5174,-178.4285 2058.2637,-170.2592 2047.8954,-172.4383 2051.5174,-178.4285"/>
</g>
</g>
</svg>
        <g id="navigator" transform="translate(0 0)" fill="#404254">
                <rect fill="#f2f5e9" fill-opacity="0.5" stroke="#606060" stroke-width=".5" x="0" y="0" width="60" height="60"/>
                <use id="zoomplus" xlink:href="#zoomPlus" x="17" y="9" onmousedown="handleZoom(evt,'in')"/>
                <use id="zoomminus" xlink:href="#zoomMin" x="42" y="9" onmousedown="handleZoom(evt,'out')"/>
                <use id="reset" xlink:href="#resetDef" x="30" y="36" onmousedown="handleReset()"/>
                <g id="arrowUp" xlink:href="#dirArrow" transform="translate(30 24)" onmousedown="handlePan(0,-1)">
                  <use xlink:href="#rim" fill="#404040">
                        <set attributeName="fill" to="#808080" begin="arrowUp.mouseover" end="arrowUp.mouseout"/>
                  </use>
                  <path fill="none" stroke="white" stroke-width="1.5" d="M0,-3.0v7 M-2.5,-0.5L0,-3.0L2.5,-0.5"/>
                </g>
                <g id="arrowRight" xlink:href="#dirArrow" transform="rotate(90) translate(36 -43)" onmousedown="handlePan(1,0)">
                  <use xlink:href="#rim" fill="#404040">
                        <set attributeName="fill" to="#808080" begin="arrowRight.mouseover" end="arrowRight.mouseout"/>
                  </use>
                  <path fill="none" stroke="white" stroke-width="1.5" d="M0,-3.0v7 M-2.5,-0.5L0,-3.0L2.5,-0.5"/>
                </g>
                <g id="arrowDown" xlink:href="#dirArrow" transform="rotate(180) translate(-30 -48)" onmousedown="handlePan(0,1)">
                  <use xlink:href="#rim" fill="#404040">
                        <set attributeName="fill" to="#808080" begin="arrowDown.mouseover" end="arrowDown.mouseout"/>
                  </use>
                  <path fill="none" stroke="white" stroke-width="1.5" d="M0,-3.0v7 M-2.5,-0.5L0,-3.0L2.5,-0.5"/>
                </g>
                <g id="arrowLeft" xlink:href="#dirArrow" transform="rotate(270) translate(-36 17)" onmousedown="handlePan(-1,0)">
                  <use xlink:href="#rim" fill="#404040">
                        <set attributeName="fill" to="#808080" begin="arrowLeft.mouseover" end="arrowLeft.mouseout"/>
                  </use>
                  <path fill="none" stroke="white" stroke-width="1.5" d="M0,-3.0v7 M-2.5,-0.5L0,-3.0L2.5,-0.5"/>
                </g>
        </g>
        <svg viewBox="0 0 15 15" width="100%" height="30px" preserveAspectRatio="xMaxYMin meet">
         <g id="arrow_out" transform="scale(0.3 0.3)">
          <a xlink:href="compile__only__client_8h__incl_org.svg" target="_base">
           <rect id="button" ry="5" rx="5" y="6" x="6" height="38" width="38"
                fill="#f2f5e9" fill-opacity="0.5" stroke="#606060" stroke-width="1.0"/>
           <path id="arrow"
             d="M 11.500037,31.436501 C 11.940474,20.09759 22.043105,11.32322 32.158766,21.979434 L 37.068811,17.246167 C 37.068811,17.246167 37.088388,32 37.088388,32 L 22.160133,31.978069 C 22.160133,31.978069 26.997745,27.140456 26.997745,27.140456 C 18.528582,18.264221 13.291696,25.230495 11.500037,31.436501 z"
             style="fill:#404040;"/>
          </a>
         </g>
        </svg>
</svg>
