<?xml version="1.0" encoding="UTF-8" standalone="no"?>
<!DOCTYPE svg PUBLIC "-//W3C//DTD SVG 1.1//EN"
 "http://www.w3.org/Graphics/SVG/1.1/DTD/svg11.dtd">
<!-- Generated by graphviz version 2.40.1 (20161225.0304)
 -->
<!-- Title: xla::anonymous_namespace{user_computation::cc}::PureFunctionalVisitor Pages: 1 -->
<svg width="487pt" height="66pt"
 viewBox="0.00 0.00 487.00 66.00" xmlns="http://www.w3.org/2000/svg" xmlns:xlink="http://www.w3.org/1999/xlink">
<g id="graph0" class="graph" transform="scale(1 1) rotate(0) translate(4 62)">
<title>xla::anonymous_namespace{user_computation::cc}::PureFunctionalVisitor</title>
<polygon fill="#ffffff" stroke="transparent" points="-4,4 -4,-62 483,-62 483,4 -4,4"/>
<!-- Node83 -->
<g id="node1" class="node">
<title>Node83</title>
<polygon fill="#bfbfbf" stroke="#000000" points="0,-8.5 0,-49.5 141,-49.5 141,-8.5 0,-8.5"/>
<text text-anchor="start" x="8" y="-37.5" font-family="Helvetica,sans-Serif" font-size="10.00" fill="#000000">xla::anonymous_namespace</text>
<text text-anchor="start" x="8" y="-26.5" font-family="Helvetica,sans-Serif" font-size="10.00" fill="#000000">{user_computation::cc}</text>
<text text-anchor="middle" x="70.5" y="-15.5" font-family="Helvetica,sans-Serif" font-size="10.00" fill="#000000">::PureFunctionalVisitor</text>
</g>
<!-- Node84 -->
<g id="node2" class="node">
<title>Node84</title>
<g id="a_node2"><a xlink:href="../../db/dbb/classxla_1_1UserComputation.html#aed26b1fc0c4c9c7178f980eb3c8ab03a" target="_top" xlink:title="xla::UserComputation\l::IsConstant">
<polygon fill="#ffffff" stroke="#000000" points="177,-14 177,-44 289,-44 289,-14 177,-14"/>
<text text-anchor="start" x="185" y="-32" font-family="Helvetica,sans-Serif" font-size="10.00" fill="#000000">xla::UserComputation</text>
<text text-anchor="middle" x="233" y="-21" font-family="Helvetica,sans-Serif" font-size="10.00" fill="#000000">::IsConstant</text>
</a>
</g>
</g>
<!-- Node83&#45;&gt;Node84 -->
<g id="edge1" class="edge">
<title>Node83&#45;&gt;Node84</title>
<path fill="none" stroke="#191970" d="M151.3091,-29C159.8555,-29 168.4083,-29 176.5894,-29"/>
<polygon fill="#191970" stroke="#191970" points="151.3022,-25.5001 141.3022,-29 151.3021,-32.5001 151.3022,-25.5001"/>
</g>
<!-- Node85 -->
<g id="node3" class="node">
<title>Node85</title>
<g id="a_node3"><a xlink:href="../../d1/d10/classxla_1_1Service.html#a9b3d2a6d1f80e13f474c584bc467bc5b" target="_top" xlink:title="xla::Service::IsConstant">
<polygon fill="#ffffff" stroke="#000000" points="341,-38.5 341,-57.5 463,-57.5 463,-38.5 341,-38.5"/>
<text text-anchor="middle" x="402" y="-45.5" font-family="Helvetica,sans-Serif" font-size="10.00" fill="#000000">xla::Service::IsConstant</text>
</a>
</g>
</g>
<!-- Node84&#45;&gt;Node85 -->
<g id="edge2" class="edge">
<title>Node84&#45;&gt;Node85</title>
<path fill="none" stroke="#191970" d="M299.515,-36.478C313.1047,-38.0059 327.3452,-39.6069 340.7407,-41.1129"/>
<polygon fill="#191970" stroke="#191970" points="299.603,-32.9659 289.2746,-35.3267 298.8209,-39.9221 299.603,-32.9659"/>
</g>
<!-- Node86 -->
<g id="node4" class="node">
<title>Node86</title>
<g id="a_node4"><a xlink:href="../../d1/d10/classxla_1_1Service.html#a18b542fa30535934fbe3f425088b6537" target="_top" xlink:title="xla::Service::ComputeConstant">
<polygon fill="#ffffff" stroke="#000000" points="325,-.5 325,-19.5 479,-19.5 479,-.5 325,-.5"/>
<text text-anchor="middle" x="402" y="-7.5" font-family="Helvetica,sans-Serif" font-size="10.00" fill="#000000">xla::Service::ComputeConstant</text>
</a>
</g>
</g>
<!-- Node84&#45;&gt;Node86 -->
<g id="edge3" class="edge">
<title>Node84&#45;&gt;Node86</title>
<path fill="none" stroke="#191970" d="M299.3547,-21.54C307.7398,-20.5973 316.375,-19.6265 324.9086,-18.6671"/>
<polygon fill="#191970" stroke="#191970" points="298.8209,-18.0779 289.2746,-22.6733 299.603,-25.0341 298.8209,-18.0779"/>
</g>
</g>
</svg>
