<?xml version="1.0" encoding="UTF-8" standalone="no"?>
<!DOCTYPE svg PUBLIC "-//W3C//DTD SVG 1.1//EN"
 "http://www.w3.org/Graphics/SVG/1.1/DTD/svg11.dtd">
<!-- Generated by graphviz version 2.40.1 (20161225.0304)
 -->
<!-- Title: xla::anonymous_namespace{user_computation::cc}::UnaryOperationToHloOpcode Pages: 1 -->
<svg width="334pt" height="50pt"
 viewBox="0.00 0.00 334.00 50.00" xmlns="http://www.w3.org/2000/svg" xmlns:xlink="http://www.w3.org/1999/xlink">
<g id="graph0" class="graph" transform="scale(1 1) rotate(0) translate(4 46)">
<title>xla::anonymous_namespace{user_computation::cc}::UnaryOperationToHloOpcode</title>
<polygon fill="#ffffff" stroke="transparent" points="-4,4 -4,-46 330,-46 330,4 -4,4"/>
<!-- Node91 -->
<g id="node1" class="node">
<title>Node91</title>
<polygon fill="#bfbfbf" stroke="#000000" points="0,-.5 0,-41.5 149,-41.5 149,-.5 0,-.5"/>
<text text-anchor="start" x="8" y="-29.5" font-family="Helvetica,sans-Serif" font-size="10.00" fill="#000000">xla::anonymous_namespace</text>
<text text-anchor="start" x="8" y="-18.5" font-family="Helvetica,sans-Serif" font-size="10.00" fill="#000000">{user_computation::cc}</text>
<text text-anchor="middle" x="74.5" y="-7.5" font-family="Helvetica,sans-Serif" font-size="10.00" fill="#000000">::UnaryOperationToHloOpcode</text>
</g>
<!-- Node92 -->
<g id="node2" class="node">
<title>Node92</title>
<g id="a_node2"><a xlink:href="../../d0/dee/classxla_1_1anonymous__namespace_02user__computation_8cc_03_1_1ComputationLowerer.html#a83c367ffd434f6e9e178fb33db76ed9f" target="_top" xlink:title="xla::anonymous_namespace\l\{user_computation::cc\}\l::ComputationLowerer::Visit">
<polygon fill="#ffffff" stroke="#000000" points="185,-.5 185,-41.5 326,-41.5 326,-.5 185,-.5"/>
<text text-anchor="start" x="193" y="-29.5" font-family="Helvetica,sans-Serif" font-size="10.00" fill="#000000">xla::anonymous_namespace</text>
<text text-anchor="start" x="193" y="-18.5" font-family="Helvetica,sans-Serif" font-size="10.00" fill="#000000">{user_computation::cc}</text>
<text text-anchor="middle" x="255.5" y="-7.5" font-family="Helvetica,sans-Serif" font-size="10.00" fill="#000000">::ComputationLowerer::Visit</text>
</a>
</g>
</g>
<!-- Node91&#45;&gt;Node92 -->
<g id="edge1" class="edge">
<title>Node91&#45;&gt;Node92</title>
<path fill="none" stroke="#191970" d="M159.1757,-21C167.7468,-21 176.3879,-21 184.7896,-21"/>
<polygon fill="#191970" stroke="#191970" points="159.1647,-17.5001 149.1646,-21 159.1646,-24.5001 159.1647,-17.5001"/>
</g>
</g>
</svg>
