<?xml version="1.0" encoding="UTF-8" standalone="no"?>
<!DOCTYPE svg PUBLIC "-//W3C//DTD SVG 1.1//EN"
 "http://www.w3.org/Graphics/SVG/1.1/DTD/svg11.dtd">
<!-- Generated by graphviz version 2.40.1 (20161225.0304)
 -->
<!-- Title: xla::anonymous_namespace{user_computation::cc}::ForEachOperand Pages: 1 -->
<svg width="383pt" height="50pt"
 viewBox="0.00 0.00 383.00 50.00" xmlns="http://www.w3.org/2000/svg" xmlns:xlink="http://www.w3.org/1999/xlink">
<g id="graph0" class="graph" transform="scale(1 1) rotate(0) translate(4 46)">
<title>xla::anonymous_namespace{user_computation::cc}::ForEachOperand</title>
<polygon fill="#ffffff" stroke="transparent" points="-4,4 -4,-46 379,-46 379,4 -4,4"/>
<!-- Node29 -->
<g id="node1" class="node">
<title>Node29</title>
<polygon fill="#bfbfbf" stroke="#000000" points="0,-.5 0,-41.5 141,-41.5 141,-.5 0,-.5"/>
<text text-anchor="start" x="8" y="-29.5" font-family="Helvetica,sans-Serif" font-size="10.00" fill="#000000">xla::anonymous_namespace</text>
<text text-anchor="start" x="8" y="-18.5" font-family="Helvetica,sans-Serif" font-size="10.00" fill="#000000">{user_computation::cc}</text>
<text text-anchor="middle" x="70.5" y="-7.5" font-family="Helvetica,sans-Serif" font-size="10.00" fill="#000000">::ForEachOperand</text>
</g>
<!-- Node30 -->
<g id="node2" class="node">
<title>Node30</title>
<g id="a_node2"><a xlink:href="../../d0/dee/classxla_1_1anonymous__namespace_02user__computation_8cc_03_1_1ComputationLowerer.html#a6bd9a8d705ba69e8a24c79cfc12ae27b" target="_top" xlink:title="xla::anonymous_namespace\l\{user_computation::cc\}\l::ComputationLowerer::TraversePostorder">
<polygon fill="#ffffff" stroke="#000000" points="177,-.5 177,-41.5 375,-41.5 375,-.5 177,-.5"/>
<text text-anchor="start" x="185" y="-29.5" font-family="Helvetica,sans-Serif" font-size="10.00" fill="#000000">xla::anonymous_namespace</text>
<text text-anchor="start" x="185" y="-18.5" font-family="Helvetica,sans-Serif" font-size="10.00" fill="#000000">{user_computation::cc}</text>
<text text-anchor="middle" x="276" y="-7.5" font-family="Helvetica,sans-Serif" font-size="10.00" fill="#000000">::ComputationLowerer::TraversePostorder</text>
</a>
</g>
</g>
<!-- Node29&#45;&gt;Node30 -->
<g id="edge1" class="edge">
<title>Node29&#45;&gt;Node30</title>
<path fill="none" stroke="#191970" d="M151.3219,-21C159.6985,-21 168.2789,-21 176.8264,-21"/>
<polygon fill="#191970" stroke="#191970" points="151.2215,-17.5001 141.2214,-21 151.2214,-24.5001 151.2215,-17.5001"/>
</g>
</g>
</svg>
