<?xml version="1.0" encoding="UTF-8" standalone="no"?>
<!DOCTYPE svg PUBLIC "-//W3C//DTD SVG 1.1//EN"
 "http://www.w3.org/Graphics/SVG/1.1/DTD/svg11.dtd">
<!-- Generated by graphviz version 2.40.1 (20161225.0304)
 -->
<!-- Title: xla::anonymous_namespace{user_computation::cc}::LookUpRequest Pages: 1 -->
<!--zoomable 557 -->
<svg id="main" version="1.1" xmlns="http://www.w3.org/2000/svg" xmlns:xlink="http://www.w3.org/1999/xlink" xml:space="preserve" onload="init(evt)">
<style type="text/css"><![CDATA[
.edge:hover path { stroke: red; }
.edge:hover polygon { stroke: red; fill: red; }
]]></style>
<script type="text/javascript"><![CDATA[
var edges = document.getElementsByTagName('g');
if (edges && edges.length) {
  for (var i=0;i<edges.length;i++) {
    if (edges[i].id.substr(0,4)=='edge') {
      edges[i].setAttribute('class','edge');
    }
  }
}
]]></script>
        <defs>
                <circle id="rim" cx="0" cy="0" r="7"/>
                <circle id="rim2" cx="0" cy="0" r="3.5"/>
                <g id="zoomPlus">
                        <use xlink:href="#rim" fill="#404040">
                                <set attributeName="fill" to="#808080" begin="zoomplus.mouseover" end="zoomplus.mouseout"/>
                        </use>
                        <path d="M-4,0h8M0,-4v8" fill="none" stroke="white" stroke-width="1.5" pointer-events="none"/>
                </g>
                <g id="zoomMin">
                        <use xlink:href="#rim" fill="#404040">
                                <set attributeName="fill" to="#808080" begin="zoomminus.mouseover" end="zoomminus.mouseout"/>
                        </use>
                        <path d="M-4,0h8" fill="none" stroke="white" stroke-width="1.5" pointer-events="none"/>
                </g>
                <g id="dirArrow">
                        <path fill="none" stroke="white" stroke-width="1.5" d="M0,-3.0v7 M-2.5,-0.5L0,-3.0L2.5,-0.5"/>
                </g>
               <g id="resetDef">
                       <use xlink:href="#rim2" fill="#404040">
                               <set attributeName="fill" to="#808080" begin="reset.mouseover" end="reset.mouseout"/>
                       </use>
               </g>
        </defs>

<script type="text/javascript">
var viewWidth = 1420;
var viewHeight = 557;
var sectionId = 'dynsection-5';
</script>
<script xlink:href="../../svgpan.js"/>
<svg id="graph" class="graph">
<g id="viewport">
<title>xla::anonymous_namespace{user_computation::cc}::LookUpRequest</title>
<polygon fill="#ffffff" stroke="transparent" points="-4,4 -4,-552.5 1416,-552.5 1416,4 -4,4"/>
<!-- Node58 -->
<g id="node1" class="node">
<title>Node58</title>
<polygon fill="#bfbfbf" stroke="#000000" points="0,-233 0,-274 141,-274 141,-233 0,-233"/>
<text text-anchor="start" x="8" y="-262" font-family="Helvetica,sans-Serif" font-size="10.00" fill="#000000">xla::anonymous_namespace</text>
<text text-anchor="start" x="8" y="-251" font-family="Helvetica,sans-Serif" font-size="10.00" fill="#000000">{user_computation::cc}</text>
<text text-anchor="middle" x="70.5" y="-240" font-family="Helvetica,sans-Serif" font-size="10.00" fill="#000000">::LookUpRequest</text>
</g>
<!-- Node59 -->
<g id="node2" class="node">
<title>Node59</title>
<g id="a_node2"><a xlink:href="../../dc/d9d/namespacexla_1_1anonymous__namespace_02user__computation_8cc_03.html#a5ee0643c24e2ef217ab180c717d5de36" target="_top" xlink:title="xla::anonymous_namespace\l\{user_computation::cc\}\l::GetRoot">
<polygon fill="#ffffff" stroke="#000000" points="177,-258 177,-299 318,-299 318,-258 177,-258"/>
<text text-anchor="start" x="185" y="-287" font-family="Helvetica,sans-Serif" font-size="10.00" fill="#000000">xla::anonymous_namespace</text>
<text text-anchor="start" x="185" y="-276" font-family="Helvetica,sans-Serif" font-size="10.00" fill="#000000">{user_computation::cc}</text>
<text text-anchor="middle" x="247.5" y="-265" font-family="Helvetica,sans-Serif" font-size="10.00" fill="#000000">::GetRoot</text>
</a>
</g>
</g>
<!-- Node58&#45;&gt;Node59 -->
<g id="edge1" class="edge">
<title>Node58&#45;&gt;Node59</title>
<path fill="none" stroke="#191970" d="M151.2142,-264.9003C159.7843,-266.1108 168.4526,-267.3351 176.8942,-268.5274"/>
<polygon fill="#191970" stroke="#191970" points="151.6094,-261.4215 141.2182,-263.4884 150.6304,-268.3527 151.6094,-261.4215"/>
</g>
<!-- Node81 -->
<g id="node24" class="node">
<title>Node81</title>
<g id="a_node24"><a xlink:href="../../d0/dee/classxla_1_1anonymous__namespace_02user__computation_8cc_03_1_1ComputationLowerer.html#af443b4eed16c921348adb096713d6e85" target="_top" xlink:title="xla::anonymous_namespace\l\{user_computation::cc\}\l::ComputationLowerer::Lower">
<polygon fill="#ffffff" stroke="#000000" points="354,-209 354,-250 499,-250 499,-209 354,-209"/>
<text text-anchor="start" x="362" y="-238" font-family="Helvetica,sans-Serif" font-size="10.00" fill="#000000">xla::anonymous_namespace</text>
<text text-anchor="start" x="362" y="-227" font-family="Helvetica,sans-Serif" font-size="10.00" fill="#000000">{user_computation::cc}</text>
<text text-anchor="middle" x="426.5" y="-216" font-family="Helvetica,sans-Serif" font-size="10.00" fill="#000000">::ComputationLowerer::Lower</text>
</a>
</g>
</g>
<!-- Node58&#45;&gt;Node81 -->
<g id="edge31" class="edge">
<title>Node58&#45;&gt;Node81</title>
<path fill="none" stroke="#191970" d="M151.5923,-248.0331C212.4354,-243.9313 295.0081,-238.3646 353.7356,-234.4055"/>
<polygon fill="#191970" stroke="#191970" points="151.0017,-244.5649 141.2598,-248.7297 151.4726,-251.549 151.0017,-244.5649"/>
</g>
<!-- Node60 -->
<g id="node3" class="node">
<title>Node60</title>
<g id="a_node3"><a xlink:href="../../db/dbb/classxla_1_1UserComputation.html#a186a2daf1d487b8f35cf85f0dba034bf" target="_top" xlink:title="xla::UserComputation\l::ComputeProgramShape">
<polygon fill="#ffffff" stroke="#000000" points="363,-269.5 363,-299.5 490,-299.5 490,-269.5 363,-269.5"/>
<text text-anchor="start" x="371" y="-287.5" font-family="Helvetica,sans-Serif" font-size="10.00" fill="#000000">xla::UserComputation</text>
<text text-anchor="middle" x="426.5" y="-276.5" font-family="Helvetica,sans-Serif" font-size="10.00" fill="#000000">::ComputeProgramShape</text>
</a>
</g>
</g>
<!-- Node59&#45;&gt;Node60 -->
<g id="edge2" class="edge">
<title>Node59&#45;&gt;Node60</title>
<path fill="none" stroke="#191970" d="M328.3649,-281.2106C339.9596,-281.5992 351.7495,-281.9944 362.9464,-282.3697"/>
<polygon fill="#191970" stroke="#191970" points="328.3572,-277.7084 318.2455,-280.8714 328.1226,-284.7045 328.3572,-277.7084"/>
</g>
<!-- Node59&#45;&gt;Node81 -->
<g id="edge30" class="edge">
<title>Node59&#45;&gt;Node81</title>
<path fill="none" stroke="#191970" d="M327.9484,-256.4778C336.6008,-254.1093 345.3672,-251.7095 353.9196,-249.3684"/>
<polygon fill="#191970" stroke="#191970" points="326.9666,-253.1177 318.2455,-259.1339 328.8148,-259.8693 326.9666,-253.1177"/>
</g>
<!-- Node61 -->
<g id="node4" class="node">
<title>Node61</title>
<g id="a_node4"><a xlink:href="../../dc/d07/classxla_1_1CompileOnlyService.html#aceb67616a89167b9af1bf23d17ec37c9" target="_top" xlink:title="xla::CompileOnlyService\l::CompileAheadOfTime">
<polygon fill="#ffffff" stroke="#000000" points="553.5,-509.5 553.5,-539.5 678.5,-539.5 678.5,-509.5 553.5,-509.5"/>
<text text-anchor="start" x="561.5" y="-527.5" font-family="Helvetica,sans-Serif" font-size="10.00" fill="#000000">xla::CompileOnlyService</text>
<text text-anchor="middle" x="616" y="-516.5" font-family="Helvetica,sans-Serif" font-size="10.00" fill="#000000">::CompileAheadOfTime</text>
</a>
</g>
</g>
<!-- Node60&#45;&gt;Node61 -->
<g id="edge3" class="edge">
<title>Node60&#45;&gt;Node61</title>
<path fill="none" stroke="#191970" d="M432.529,-309.5226C444.4691,-353.796 475.2872,-446.1016 535,-497.5 540.5049,-502.2384 546.87,-506.1521 553.5643,-509.3831"/>
<polygon fill="#191970" stroke="#191970" points="435.8541,-308.4013 429.9549,-299.6007 429.0784,-310.1592 435.8541,-308.4013"/>
</g>
<!-- Node67 -->
<g id="node10" class="node">
<title>Node67</title>
<g id="a_node10"><a xlink:href="../../d1/d10/classxla_1_1Service.html#aa0f93c81ca82a50f0ff7f044745bf227" target="_top" xlink:title="xla::Service::ExecuteParallel">
<polygon fill="#ffffff" stroke="#000000" points="544.5,-469 544.5,-488 687.5,-488 687.5,-469 544.5,-469"/>
<text text-anchor="middle" x="616" y="-476" font-family="Helvetica,sans-Serif" font-size="10.00" fill="#000000">xla::Service::ExecuteParallel</text>
</a>
</g>
</g>
<!-- Node60&#45;&gt;Node67 -->
<g id="edge9" class="edge">
<title>Node60&#45;&gt;Node67</title>
<path fill="none" stroke="#191970" d="M435.608,-309.0765C450.6003,-346.1441 483.9945,-416.0947 535,-454.5 543.4361,-460.8521 553.5341,-465.5295 563.6919,-468.9719"/>
<polygon fill="#191970" stroke="#191970" points="438.7795,-307.5772 431.8681,-299.5471 432.2634,-310.1346 438.7795,-307.5772"/>
</g>
<!-- Node69 -->
<g id="node12" class="node">
<title>Node69</title>
<g id="a_node12"><a xlink:href="../../d1/d10/classxla_1_1Service.html#ac3f89822d1f6faab8382f1902e54eea3" target="_top" xlink:title="xla::Service::Execute">
<polygon fill="#ffffff" stroke="#000000" points="928.5,-431 928.5,-450 1038.5,-450 1038.5,-431 928.5,-431"/>
<text text-anchor="middle" x="983.5" y="-438" font-family="Helvetica,sans-Serif" font-size="10.00" fill="#000000">xla::Service::Execute</text>
</a>
</g>
</g>
<!-- Node60&#45;&gt;Node69 -->
<g id="edge13" class="edge">
<title>Node60&#45;&gt;Node69</title>
<path fill="none" stroke="#191970" d="M437.5303,-308.7708C453.7133,-341.127 487.2369,-397.1385 535,-421.5 602.1691,-455.7595 824.0359,-449.0834 928.3658,-443.7816"/>
<polygon fill="#191970" stroke="#191970" points="440.5746,-307.0267 433.0681,-299.5499 434.2736,-310.0759 440.5746,-307.0267"/>
</g>
<!-- Node71 -->
<g id="node14" class="node">
<title>Node71</title>
<g id="a_node14"><a xlink:href="../../d1/d10/classxla_1_1Service.html#ad940842d8a31741ccd025d883744223c" target="_top" xlink:title="xla::Service::ExecuteAsync">
<polygon fill="#ffffff" stroke="#000000" points="547,-393 547,-412 685,-412 685,-393 547,-393"/>
<text text-anchor="middle" x="616" y="-400" font-family="Helvetica,sans-Serif" font-size="10.00" fill="#000000">xla::Service::ExecuteAsync</text>
</a>
</g>
</g>
<!-- Node60&#45;&gt;Node71 -->
<g id="edge14" class="edge">
<title>Node60&#45;&gt;Node71</title>
<path fill="none" stroke="#191970" d="M445.4863,-307.6661C465.4165,-330.4291 498.8356,-364.4409 535,-383.5 542.4114,-387.4059 550.6223,-390.5172 558.8899,-392.9935"/>
<polygon fill="#191970" stroke="#191970" points="447.9399,-305.1506 438.7738,-299.8372 442.6258,-309.707 447.9399,-305.1506"/>
</g>
<!-- Node72 -->
<g id="node15" class="node">
<title>Node72</title>
<g id="a_node15"><a xlink:href="../../d1/d10/classxla_1_1Service.html#ad55b315cdda90b1755884acfe3d7e934" target="_top" xlink:title="xla::Service::GetComputation\lShape">
<polygon fill="#ffffff" stroke="#000000" points="543,-343.5 543,-373.5 689,-373.5 689,-343.5 543,-343.5"/>
<text text-anchor="start" x="551" y="-361.5" font-family="Helvetica,sans-Serif" font-size="10.00" fill="#000000">xla::Service::GetComputation</text>
<text text-anchor="middle" x="616" y="-350.5" font-family="Helvetica,sans-Serif" font-size="10.00" fill="#000000">Shape</text>
</a>
</g>
</g>
<!-- Node60&#45;&gt;Node72 -->
<g id="edge15" class="edge">
<title>Node60&#45;&gt;Node72</title>
<path fill="none" stroke="#191970" d="M466.6304,-304.0685C486.8784,-313.5696 511.9708,-324.7849 535,-333.5 544.2221,-336.99 554.1653,-340.3656 563.8204,-343.4477"/>
<polygon fill="#191970" stroke="#191970" points="467.9382,-300.8153 457.4022,-299.7001 464.9432,-307.1422 467.9382,-300.8153"/>
</g>
<!-- Node73 -->
<g id="node16" class="node">
<title>Node73</title>
<g id="a_node16"><a xlink:href="../../db/dbb/classxla_1_1UserComputation.html#a44a8a04b7f51d0e7e9f130d42466bc05" target="_top" xlink:title="xla::UserComputation\l::AddMapInstruction">
<polygon fill="#ffffff" stroke="#000000" points="560,-294.5 560,-324.5 672,-324.5 672,-294.5 560,-294.5"/>
<text text-anchor="start" x="568" y="-312.5" font-family="Helvetica,sans-Serif" font-size="10.00" fill="#000000">xla::UserComputation</text>
<text text-anchor="middle" x="616" y="-301.5" font-family="Helvetica,sans-Serif" font-size="10.00" fill="#000000">::AddMapInstruction</text>
</a>
</g>
</g>
<!-- Node60&#45;&gt;Node73 -->
<g id="edge16" class="edge">
<title>Node60&#45;&gt;Node73</title>
<path fill="none" stroke="#191970" d="M500.0666,-294.2054C519.9321,-296.8261 541.107,-299.6197 559.8509,-302.0925"/>
<polygon fill="#191970" stroke="#191970" points="500.4998,-290.7323 490.1279,-292.8942 499.5842,-297.6721 500.4998,-290.7323"/>
</g>
<!-- Node75 -->
<g id="node18" class="node">
<title>Node75</title>
<g id="a_node18"><a xlink:href="../../db/dbb/classxla_1_1UserComputation.html#ab29b088bfa67570c822cc9fea0fe6911" target="_top" xlink:title="xla::UserComputation\l::AddReduceInstruction">
<polygon fill="#ffffff" stroke="#000000" points="556.5,-245.5 556.5,-275.5 675.5,-275.5 675.5,-245.5 556.5,-245.5"/>
<text text-anchor="start" x="564.5" y="-263.5" font-family="Helvetica,sans-Serif" font-size="10.00" fill="#000000">xla::UserComputation</text>
<text text-anchor="middle" x="616" y="-252.5" font-family="Helvetica,sans-Serif" font-size="10.00" fill="#000000">::AddReduceInstruction</text>
</a>
</g>
</g>
<!-- Node60&#45;&gt;Node75 -->
<g id="edge18" class="edge">
<title>Node60&#45;&gt;Node75</title>
<path fill="none" stroke="#191970" d="M500.0549,-275.1843C518.7075,-272.822 538.5151,-270.3134 556.3813,-268.0506"/>
<polygon fill="#191970" stroke="#191970" points="499.6089,-271.7128 490.1279,-276.4416 500.4885,-278.6573 499.6089,-271.7128"/>
</g>
<!-- Node76 -->
<g id="node19" class="node">
<title>Node76</title>
<g id="a_node19"><a xlink:href="../../db/dbb/classxla_1_1UserComputation.html#adcf0ea851e63303e0959b6e8b15b525f" target="_top" xlink:title="xla::UserComputation\l::AddReduceWindowInstruction">
<polygon fill="#ffffff" stroke="#000000" points="538.5,-196.5 538.5,-226.5 693.5,-226.5 693.5,-196.5 538.5,-196.5"/>
<text text-anchor="start" x="546.5" y="-214.5" font-family="Helvetica,sans-Serif" font-size="10.00" fill="#000000">xla::UserComputation</text>
<text text-anchor="middle" x="616" y="-203.5" font-family="Helvetica,sans-Serif" font-size="10.00" fill="#000000">::AddReduceWindowInstruction</text>
</a>
</g>
</g>
<!-- Node60&#45;&gt;Node76 -->
<g id="edge20" class="edge">
<title>Node60&#45;&gt;Node76</title>
<path fill="none" stroke="#191970" d="M485.5028,-265.5936C490.1297,-263.6765 494.6791,-261.6409 499,-259.5 516.2305,-250.9625 517.5859,-243.6563 535,-235.5 542.0395,-232.2029 549.636,-229.2423 557.2572,-226.6202"/>
<polygon fill="#191970" stroke="#191970" points="483.9668,-262.4369 475.9454,-269.3583 486.5323,-268.9498 483.9668,-262.4369"/>
</g>
<!-- Node77 -->
<g id="node20" class="node">
<title>Node77</title>
<g id="a_node20"><a xlink:href="../../db/dbb/classxla_1_1UserComputation.html#a5d5027c8fb2d74cf8af3ef15b845f26c" target="_top" xlink:title="xla::UserComputation\l::AddSelectAndScatterInstruction">
<polygon fill="#ffffff" stroke="#000000" points="535,-147.5 535,-177.5 697,-177.5 697,-147.5 535,-147.5"/>
<text text-anchor="start" x="543" y="-165.5" font-family="Helvetica,sans-Serif" font-size="10.00" fill="#000000">xla::UserComputation</text>
<text text-anchor="middle" x="616" y="-154.5" font-family="Helvetica,sans-Serif" font-size="10.00" fill="#000000">::AddSelectAndScatterInstruction</text>
</a>
</g>
</g>
<!-- Node60&#45;&gt;Node77 -->
<g id="edge22" class="edge">
<title>Node60&#45;&gt;Node77</title>
<path fill="none" stroke="#191970" d="M492.8981,-264.2506C495.0335,-262.7755 497.0771,-261.1945 499,-259.5 526.1405,-235.5828 507.3399,-209.8143 535,-186.5 539.0372,-183.0971 543.5408,-180.1766 548.2997,-177.6702"/>
<polygon fill="#191970" stroke="#191970" points="491.0414,-261.2829 484.2686,-269.4302 494.6439,-267.2847 491.0414,-261.2829"/>
</g>
<!-- Node78 -->
<g id="node21" class="node">
<title>Node78</title>
<g id="a_node21"><a xlink:href="../../db/dbb/classxla_1_1UserComputation.html#a5f18d96af49a4ec1530d6ca695d8bc1e" target="_top" xlink:title="xla::UserComputation\l::AddWhileInstruction">
<polygon fill="#ffffff" stroke="#000000" points="560,-98.5 560,-128.5 672,-128.5 672,-98.5 560,-98.5"/>
<text text-anchor="start" x="568" y="-116.5" font-family="Helvetica,sans-Serif" font-size="10.00" fill="#000000">xla::UserComputation</text>
<text text-anchor="middle" x="616" y="-105.5" font-family="Helvetica,sans-Serif" font-size="10.00" fill="#000000">::AddWhileInstruction</text>
</a>
</g>
</g>
<!-- Node60&#45;&gt;Node78 -->
<g id="edge24" class="edge">
<title>Node60&#45;&gt;Node78</title>
<path fill="none" stroke="#191970" d="M494.6135,-263.5858C496.1529,-262.304 497.62,-260.9437 499,-259.5 538.0633,-218.6331 495.047,-177.4976 535,-137.5 541.841,-130.6513 550.5385,-125.7388 559.6805,-122.2193"/>
<polygon fill="#191970" stroke="#191970" points="492.5578,-260.7525 486.3838,-269.3625 496.5795,-266.4819 492.5578,-260.7525"/>
</g>
<!-- Node79 -->
<g id="node22" class="node">
<title>Node79</title>
<g id="a_node22"><a xlink:href="../../db/dbb/classxla_1_1UserComputation.html#a539f0d9ae9d0ce303f22d0eea26f7d9a" target="_top" xlink:title="xla::UserComputation\l::AddConditionalInstruction">
<polygon fill="#ffffff" stroke="#000000" points="549,-49.5 549,-79.5 683,-79.5 683,-49.5 549,-49.5"/>
<text text-anchor="start" x="557" y="-67.5" font-family="Helvetica,sans-Serif" font-size="10.00" fill="#000000">xla::UserComputation</text>
<text text-anchor="middle" x="616" y="-56.5" font-family="Helvetica,sans-Serif" font-size="10.00" fill="#000000">::AddConditionalInstruction</text>
</a>
</g>
</g>
<!-- Node60&#45;&gt;Node79 -->
<g id="edge26" class="edge">
<title>Node60&#45;&gt;Node79</title>
<path fill="none" stroke="#191970" d="M495.2424,-263.3037C496.5626,-262.1049 497.8189,-260.8382 499,-259.5 550.3935,-201.2702 482.3379,-145.5851 535,-88.5 538.978,-84.1879 543.6904,-80.6374 548.8106,-77.7158"/>
<polygon fill="#191970" stroke="#191970" points="492.9488,-260.6492 487.0583,-269.4556 497.1548,-266.2447 492.9488,-260.6492"/>
</g>
<!-- Node80 -->
<g id="node23" class="node">
<title>Node80</title>
<g id="a_node23"><a xlink:href="../../db/dbb/classxla_1_1UserComputation.html#a0d52767dd2326bc3e6353935d3c3f1b3" target="_top" xlink:title="xla::UserComputation\l::AddCallInstruction">
<polygon fill="#ffffff" stroke="#000000" points="560,-.5 560,-30.5 672,-30.5 672,-.5 560,-.5"/>
<text text-anchor="start" x="568" y="-18.5" font-family="Helvetica,sans-Serif" font-size="10.00" fill="#000000">xla::UserComputation</text>
<text text-anchor="middle" x="616" y="-7.5" font-family="Helvetica,sans-Serif" font-size="10.00" fill="#000000">::AddCallInstruction</text>
</a>
</g>
</g>
<!-- Node60&#45;&gt;Node80 -->
<g id="edge28" class="edge">
<title>Node60&#45;&gt;Node80</title>
<path fill="none" stroke="#191970" d="M495.7662,-262.9541C496.9003,-261.8592 497.9809,-260.7088 499,-259.5 562.8634,-183.7507 469.4856,-113.826 535,-39.5 541.5948,-32.0182 550.4012,-26.8177 559.779,-23.2145"/>
<polygon fill="#191970" stroke="#191970" points="493.2723,-260.4634 487.5874,-269.4039 497.6068,-265.9599 493.2723,-260.4634"/>
</g>
<!-- Node62 -->
<g id="node5" class="node">
<title>Node62</title>
<g id="a_node5"><a xlink:href="../../d1/dd1/classxla_1_1CompileOnlyClient.html#a5a585d21f617b77a1cecc1b587d18d7a" target="_top" xlink:title="Compiles a list of computations for ahead&#45;of&#45;time execution. This is intended for use in static compi...">
<polygon fill="#ffffff" stroke="#000000" points="746.5,-511.5 746.5,-541.5 865.5,-541.5 865.5,-511.5 746.5,-511.5"/>
<text text-anchor="start" x="754.5" y="-529.5" font-family="Helvetica,sans-Serif" font-size="10.00" fill="#000000">xla::CompileOnlyClient</text>
<text text-anchor="middle" x="806" y="-518.5" font-family="Helvetica,sans-Serif" font-size="10.00" fill="#000000">::CompileAheadOfTime</text>
</a>
</g>
</g>
<!-- Node61&#45;&gt;Node62 -->
<g id="edge4" class="edge">
<title>Node61&#45;&gt;Node62</title>
<path fill="none" stroke="#191970" d="M688.8282,-525.2666C707.7991,-525.4663 728.0194,-525.6792 746.2281,-525.8708"/>
<polygon fill="#191970" stroke="#191970" points="688.776,-521.766 678.7397,-525.1604 688.7022,-528.7656 688.776,-521.766"/>
</g>
<!-- Node63 -->
<g id="node6" class="node">
<title>Node63</title>
<g id="a_node6"><a xlink:href="../../d4/df4/namespacetensorflow_1_1tfcompile_1_1anonymous__namespace_02compile_8cc_03.html#a40f8a019f31fa8cbe2fff5d90e69c21b" target="_top" xlink:title="Compiles the XLA computation into executable code. ">
<polygon fill="#ffffff" stroke="#000000" points="919,-507 919,-548 1048,-548 1048,-507 919,-507"/>
<text text-anchor="start" x="927" y="-536" font-family="Helvetica,sans-Serif" font-size="10.00" fill="#000000">tensorflow::tfcompile</text>
<text text-anchor="start" x="927" y="-525" font-family="Helvetica,sans-Serif" font-size="10.00" fill="#000000">::anonymous_namespace</text>
<text text-anchor="middle" x="983.5" y="-514" font-family="Helvetica,sans-Serif" font-size="10.00" fill="#000000">{compile::cc}::CompileXla</text>
</a>
</g>
</g>
<!-- Node62&#45;&gt;Node63 -->
<g id="edge5" class="edge">
<title>Node62&#45;&gt;Node63</title>
<path fill="none" stroke="#191970" d="M875.795,-526.8932C889.9931,-526.9732 904.8701,-527.057 918.879,-527.1359"/>
<polygon fill="#191970" stroke="#191970" points="875.6183,-523.3923 865.5987,-526.8358 875.5788,-530.3921 875.6183,-523.3923"/>
</g>
<!-- Node64 -->
<g id="node7" class="node">
<title>Node64</title>
<g id="a_node7"><a xlink:href="../../d7/d38/namespacetensorflow_1_1tfcompile.html#a021cb1c58d938b16dcd998aa8d1fc191" target="_top" xlink:title="Converts the graph into an XLA computation, and compiles the computation. Called by tensorflow::tfcom...">
<polygon fill="#ffffff" stroke="#000000" points="1088,-512.5 1088,-542.5 1195,-542.5 1195,-512.5 1088,-512.5"/>
<text text-anchor="start" x="1096" y="-530.5" font-family="Helvetica,sans-Serif" font-size="10.00" fill="#000000">tensorflow::tfcompile</text>
<text text-anchor="middle" x="1141.5" y="-519.5" font-family="Helvetica,sans-Serif" font-size="10.00" fill="#000000">::CompileGraph</text>
</a>
</g>
</g>
<!-- Node63&#45;&gt;Node64 -->
<g id="edge6" class="edge">
<title>Node63&#45;&gt;Node64</title>
<path fill="none" stroke="#191970" d="M1058.4538,-527.5C1068.3279,-527.5 1078.2865,-527.5 1087.7104,-527.5"/>
<polygon fill="#191970" stroke="#191970" points="1058.2206,-524.0001 1048.2205,-527.5 1058.2205,-531.0001 1058.2206,-524.0001"/>
</g>
<!-- Node65 -->
<g id="node8" class="node">
<title>Node65</title>
<g id="a_node8"><a xlink:href="../../d7/d38/namespacetensorflow_1_1tfcompile.html#a460964a5bb277865d1275fe3746132c1" target="_top" xlink:title="tensorflow::tfcompile\l::Main">
<polygon fill="#ffffff" stroke="#000000" points="1231,-512.5 1231,-542.5 1338,-542.5 1338,-512.5 1231,-512.5"/>
<text text-anchor="start" x="1239" y="-530.5" font-family="Helvetica,sans-Serif" font-size="10.00" fill="#000000">tensorflow::tfcompile</text>
<text text-anchor="middle" x="1284.5" y="-519.5" font-family="Helvetica,sans-Serif" font-size="10.00" fill="#000000">::Main</text>
</a>
</g>
</g>
<!-- Node64&#45;&gt;Node65 -->
<g id="edge7" class="edge">
<title>Node64&#45;&gt;Node65</title>
<path fill="none" stroke="#191970" d="M1205.3238,-527.5C1213.7452,-527.5 1222.3103,-527.5 1230.5445,-527.5"/>
<polygon fill="#191970" stroke="#191970" points="1205.1548,-524.0001 1195.1548,-527.5 1205.1547,-531.0001 1205.1548,-524.0001"/>
</g>
<!-- Node66 -->
<g id="node9" class="node">
<title>Node66</title>
<g id="a_node9"><a xlink:href="../../d4/d8d/tfcompile__main_8cc.html#a3c04138a5bfe5d72780bb7e82a18e627" target="_top" xlink:title="main">
<polygon fill="#ffffff" stroke="#000000" points="1374,-518 1374,-537 1412,-537 1412,-518 1374,-518"/>
<text text-anchor="middle" x="1393" y="-525" font-family="Helvetica,sans-Serif" font-size="10.00" fill="#000000">main</text>
</a>
</g>
</g>
<!-- Node65&#45;&gt;Node66 -->
<g id="edge8" class="edge">
<title>Node65&#45;&gt;Node66</title>
<path fill="none" stroke="#191970" d="M1348.2814,-527.5C1357.5615,-527.5 1366.4574,-527.5 1373.8366,-527.5"/>
<polygon fill="#191970" stroke="#191970" points="1348.1143,-524.0001 1338.1143,-527.5 1348.1142,-531.0001 1348.1143,-524.0001"/>
</g>
<!-- Node68 -->
<g id="node11" class="node">
<title>Node68</title>
<g id="a_node11"><a xlink:href="../../d1/d10/classxla_1_1Service.html#a170f36c8fd2b964f57d00d9b720c6912" target="_top" xlink:title="xla::Service::ExecuteOneToN">
<polygon fill="#ffffff" stroke="#000000" points="733,-469 733,-488 879,-488 879,-469 733,-469"/>
<text text-anchor="middle" x="806" y="-476" font-family="Helvetica,sans-Serif" font-size="10.00" fill="#000000">xla::Service::ExecuteOneToN</text>
</a>
</g>
</g>
<!-- Node67&#45;&gt;Node68 -->
<g id="edge10" class="edge">
<title>Node67&#45;&gt;Node68</title>
<path fill="none" stroke="#191970" d="M697.7484,-478.5C709.4428,-478.5 721.4105,-478.5 732.9237,-478.5"/>
<polygon fill="#191970" stroke="#191970" points="697.5601,-475.0001 687.5601,-478.5 697.5601,-482.0001 697.5601,-475.0001"/>
</g>
<!-- Node68&#45;&gt;Node69 -->
<g id="edge11" class="edge">
<title>Node68&#45;&gt;Node69</title>
<path fill="none" stroke="#191970" d="M860.8969,-466.7474C885.9954,-461.3742 915.3428,-455.0914 939.0313,-450.0201"/>
<polygon fill="#191970" stroke="#191970" points="859.8365,-463.3951 850.7907,-468.911 861.3019,-470.24 859.8365,-463.3951"/>
</g>
<!-- Node70 -->
<g id="node13" class="node">
<title>Node70</title>
<g id="a_node13"><a xlink:href="../../d1/d10/classxla_1_1Service.html#a6d2eb2712a109ab9484080dfd1e2e446" target="_top" xlink:title="xla::Service::ExecuteGraph">
<polygon fill="#ffffff" stroke="#000000" points="915,-469 915,-488 1052,-488 1052,-469 915,-469"/>
<text text-anchor="middle" x="983.5" y="-476" font-family="Helvetica,sans-Serif" font-size="10.00" fill="#000000">xla::Service::ExecuteGraph</text>
</a>
</g>
</g>
<!-- Node68&#45;&gt;Node70 -->
<g id="edge12" class="edge">
<title>Node68&#45;&gt;Node70</title>
<path fill="none" stroke="#191970" d="M889.4801,-478.5C897.9338,-478.5 906.4516,-478.5 914.725,-478.5"/>
<polygon fill="#191970" stroke="#191970" points="889.2209,-475.0001 879.2208,-478.5 889.2208,-482.0001 889.2209,-475.0001"/>
</g>
<!-- Node74 -->
<g id="node17" class="node">
<title>Node74</title>
<g id="a_node17"><a xlink:href="../../d1/d10/classxla_1_1Service.html#a8aa08872316b8fa3297972486b4b339e" target="_top" xlink:title="xla::Service::Op">
<polygon fill="#ffffff" stroke="#000000" points="762.5,-153 762.5,-172 849.5,-172 849.5,-153 762.5,-153"/>
<text text-anchor="middle" x="806" y="-160" font-family="Helvetica,sans-Serif" font-size="10.00" fill="#000000">xla::Service::Op</text>
</a>
</g>
</g>
<!-- Node73&#45;&gt;Node74 -->
<g id="edge17" class="edge">
<title>Node73&#45;&gt;Node74</title>
<path fill="none" stroke="#191970" d="M681.8841,-292.5827C687.1654,-290.2122 692.2777,-287.5301 697,-284.5 745.5268,-253.3622 785.6323,-194.8935 800.1585,-172.0184"/>
<polygon fill="#191970" stroke="#191970" points="680.1768,-289.4993 672.2429,-296.5209 682.8239,-295.9795 680.1768,-289.4993"/>
</g>
<!-- Node75&#45;&gt;Node74 -->
<g id="edge19" class="edge">
<title>Node75&#45;&gt;Node74</title>
<path fill="none" stroke="#191970" d="M682.329,-241.7857C687.3615,-239.8343 692.3044,-237.7378 697,-235.5 735.0359,-217.3726 775.0213,-187.322 794.275,-172.0477"/>
<polygon fill="#191970" stroke="#191970" points="680.7665,-238.6307 672.5822,-245.3588 683.1759,-245.203 680.7665,-238.6307"/>
</g>
<!-- Node76&#45;&gt;Node74 -->
<g id="edge21" class="edge">
<title>Node76&#45;&gt;Node74</title>
<path fill="none" stroke="#191970" d="M684.2502,-193.8986C712.8571,-186.5211 744.9873,-178.2348 769.0549,-172.028"/>
<polygon fill="#191970" stroke="#191970" points="683.1066,-190.579 674.2975,-196.4654 684.8547,-197.3572 683.1066,-190.579"/>
</g>
<!-- Node77&#45;&gt;Node74 -->
<g id="edge23" class="edge">
<title>Node77&#45;&gt;Node74</title>
<path fill="none" stroke="#191970" d="M707.1521,-162.5C726.3893,-162.5 745.8373,-162.5 762.3338,-162.5"/>
<polygon fill="#191970" stroke="#191970" points="707.1283,-159.0001 697.1282,-162.5 707.1282,-166.0001 707.1283,-159.0001"/>
</g>
<!-- Node78&#45;&gt;Node74 -->
<g id="edge25" class="edge">
<title>Node78&#45;&gt;Node74</title>
<path fill="none" stroke="#191970" d="M681.9621,-130.5113C711.1553,-138.04 744.396,-146.6127 769.1135,-152.9872"/>
<polygon fill="#191970" stroke="#191970" points="682.7923,-127.1109 672.2351,-128.0027 681.0442,-133.8892 682.7923,-127.1109"/>
</g>
<!-- Node79&#45;&gt;Node74 -->
<g id="edge27" class="edge">
<title>Node79&#45;&gt;Node74</title>
<path fill="none" stroke="#191970" d="M684.3539,-83.0796C688.6886,-84.77 692.9383,-86.5767 697,-88.5 735.2434,-106.609 775.1364,-137.19 794.3229,-152.76"/>
<polygon fill="#191970" stroke="#191970" points="685.3628,-79.7216 674.7691,-79.5643 682.9524,-86.2936 685.3628,-79.7216"/>
</g>
<!-- Node80&#45;&gt;Node74 -->
<g id="edge29" class="edge">
<title>Node80&#45;&gt;Node74</title>
<path fill="none" stroke="#191970" d="M681.8954,-31.5369C687.1743,-33.8567 692.2829,-36.4973 697,-39.5 745.8615,-70.6029 785.7709,-129.7209 800.2015,-152.8663"/>
<polygon fill="#191970" stroke="#191970" points="682.8427,-28.1469 672.2573,-27.6988 680.2529,-34.6502 682.8427,-28.1469"/>
</g>
</g>
</svg>
        <g id="navigator" transform="translate(0 0)" fill="#404254">
                <rect fill="#f2f5e9" fill-opacity="0.5" stroke="#606060" stroke-width=".5" x="0" y="0" width="60" height="60"/>
                <use id="zoomplus" xlink:href="#zoomPlus" x="17" y="9" onmousedown="handleZoom(evt,'in')"/>
                <use id="zoomminus" xlink:href="#zoomMin" x="42" y="9" onmousedown="handleZoom(evt,'out')"/>
                <use id="reset" xlink:href="#resetDef" x="30" y="36" onmousedown="handleReset()"/>
                <g id="arrowUp" xlink:href="#dirArrow" transform="translate(30 24)" onmousedown="handlePan(0,-1)">
                  <use xlink:href="#rim" fill="#404040">
                        <set attributeName="fill" to="#808080" begin="arrowUp.mouseover" end="arrowUp.mouseout"/>
                  </use>
                  <path fill="none" stroke="white" stroke-width="1.5" d="M0,-3.0v7 M-2.5,-0.5L0,-3.0L2.5,-0.5"/>
                </g>
                <g id="arrowRight" xlink:href="#dirArrow" transform="rotate(90) translate(36 -43)" onmousedown="handlePan(1,0)">
                  <use xlink:href="#rim" fill="#404040">
                        <set attributeName="fill" to="#808080" begin="arrowRight.mouseover" end="arrowRight.mouseout"/>
                  </use>
                  <path fill="none" stroke="white" stroke-width="1.5" d="M0,-3.0v7 M-2.5,-0.5L0,-3.0L2.5,-0.5"/>
                </g>
                <g id="arrowDown" xlink:href="#dirArrow" transform="rotate(180) translate(-30 -48)" onmousedown="handlePan(0,1)">
                  <use xlink:href="#rim" fill="#404040">
                        <set attributeName="fill" to="#808080" begin="arrowDown.mouseover" end="arrowDown.mouseout"/>
                  </use>
                  <path fill="none" stroke="white" stroke-width="1.5" d="M0,-3.0v7 M-2.5,-0.5L0,-3.0L2.5,-0.5"/>
                </g>
                <g id="arrowLeft" xlink:href="#dirArrow" transform="rotate(270) translate(-36 17)" onmousedown="handlePan(-1,0)">
                  <use xlink:href="#rim" fill="#404040">
                        <set attributeName="fill" to="#808080" begin="arrowLeft.mouseover" end="arrowLeft.mouseout"/>
                  </use>
                  <path fill="none" stroke="white" stroke-width="1.5" d="M0,-3.0v7 M-2.5,-0.5L0,-3.0L2.5,-0.5"/>
                </g>
        </g>
        <svg viewBox="0 0 15 15" width="100%" height="30px" preserveAspectRatio="xMaxYMin meet">
         <g id="arrow_out" transform="scale(0.3 0.3)">
          <a xlink:href="namespacexla_1_1anonymous__namespace_02user__computation_8cc_03_a48377f566f973539c09065de3f43058e_icgraph_org.svg" target="_base">
           <rect id="button" ry="5" rx="5" y="6" x="6" height="38" width="38"
                fill="#f2f5e9" fill-opacity="0.5" stroke="#606060" stroke-width="1.0"/>
           <path id="arrow"
             d="M 11.500037,31.436501 C 11.940474,20.09759 22.043105,11.32322 32.158766,21.979434 L 37.068811,17.246167 C 37.068811,17.246167 37.088388,32 37.088388,32 L 22.160133,31.978069 C 22.160133,31.978069 26.997745,27.140456 26.997745,27.140456 C 18.528582,18.264221 13.291696,25.230495 11.500037,31.436501 z"
             style="fill:#404040;"/>
          </a>
         </g>
        </svg>
</svg>
