<?xml version="1.0" encoding="UTF-8" standalone="no"?>
<!DOCTYPE svg PUBLIC "-//W3C//DTD SVG 1.1//EN"
 "http://www.w3.org/Graphics/SVG/1.1/DTD/svg11.dtd">
<!-- Generated by graphviz version 2.40.1 (20161225.0304)
 -->
<!-- Title: xla::anonymous_namespace{user_computation::cc}::VariadicOperationToHloOpcode Pages: 1 -->
<svg width="343pt" height="50pt"
 viewBox="0.00 0.00 343.00 50.00" xmlns="http://www.w3.org/2000/svg" xmlns:xlink="http://www.w3.org/1999/xlink">
<g id="graph0" class="graph" transform="scale(1 1) rotate(0) translate(4 46)">
<title>xla::anonymous_namespace{user_computation::cc}::VariadicOperationToHloOpcode</title>
<polygon fill="#ffffff" stroke="transparent" points="-4,4 -4,-46 339,-46 339,4 -4,4"/>
<!-- Node94 -->
<g id="node1" class="node">
<title>Node94</title>
<polygon fill="#bfbfbf" stroke="#000000" points="0,-.5 0,-41.5 158,-41.5 158,-.5 0,-.5"/>
<text text-anchor="start" x="8" y="-29.5" font-family="Helvetica,sans-Serif" font-size="10.00" fill="#000000">xla::anonymous_namespace</text>
<text text-anchor="start" x="8" y="-18.5" font-family="Helvetica,sans-Serif" font-size="10.00" fill="#000000">{user_computation::cc}</text>
<text text-anchor="middle" x="79" y="-7.5" font-family="Helvetica,sans-Serif" font-size="10.00" fill="#000000">::VariadicOperationToHloOpcode</text>
</g>
<!-- Node95 -->
<g id="node2" class="node">
<title>Node95</title>
<g id="a_node2"><a xlink:href="../../d0/dee/classxla_1_1anonymous__namespace_02user__computation_8cc_03_1_1ComputationLowerer.html#a83c367ffd434f6e9e178fb33db76ed9f" target="_top" xlink:title="xla::anonymous_namespace\l\{user_computation::cc\}\l::ComputationLowerer::Visit">
<polygon fill="#ffffff" stroke="#000000" points="194,-.5 194,-41.5 335,-41.5 335,-.5 194,-.5"/>
<text text-anchor="start" x="202" y="-29.5" font-family="Helvetica,sans-Serif" font-size="10.00" fill="#000000">xla::anonymous_namespace</text>
<text text-anchor="start" x="202" y="-18.5" font-family="Helvetica,sans-Serif" font-size="10.00" fill="#000000">{user_computation::cc}</text>
<text text-anchor="middle" x="264.5" y="-7.5" font-family="Helvetica,sans-Serif" font-size="10.00" fill="#000000">::ComputationLowerer::Visit</text>
</a>
</g>
</g>
<!-- Node94&#45;&gt;Node95 -->
<g id="edge1" class="edge">
<title>Node94&#45;&gt;Node95</title>
<path fill="none" stroke="#191970" d="M168.2308,-21C176.8004,-21 185.4101,-21 193.7668,-21"/>
<polygon fill="#191970" stroke="#191970" points="168.2068,-17.5001 158.2068,-21 168.2067,-24.5001 168.2068,-17.5001"/>
</g>
</g>
</svg>
