<?xml version="1.0" encoding="UTF-8" standalone="no"?>
<!DOCTYPE svg PUBLIC "-//W3C//DTD SVG 1.1//EN"
 "http://www.w3.org/Graphics/SVG/1.1/DTD/svg11.dtd">
<!-- Generated by graphviz version 2.40.1 (20161225.0304)
 -->
<!-- Title: tensorflow/tensorflow/compiler/xla/service/hlo_pass_fix.h Pages: 1 -->
<svg width="130pt" height="128pt"
 viewBox="0.00 0.00 130.00 128.00" xmlns="http://www.w3.org/2000/svg" xmlns:xlink="http://www.w3.org/1999/xlink">
<g id="graph0" class="graph" transform="scale(1 1) rotate(0) translate(4 124)">
<title>tensorflow/tensorflow/compiler/xla/service/hlo_pass_fix.h</title>
<polygon fill="#ffffff" stroke="transparent" points="-4,4 -4,-124 126,-124 126,4 -4,4"/>
<!-- Node46 -->
<g id="node1" class="node">
<title>Node46</title>
<polygon fill="#bfbfbf" stroke="#000000" points="0,-78.5 0,-119.5 122,-119.5 122,-78.5 0,-78.5"/>
<text text-anchor="start" x="8" y="-107.5" font-family="Helvetica,sans-Serif" font-size="10.00" fill="#000000">tensorflow/tensorflow</text>
<text text-anchor="start" x="8" y="-96.5" font-family="Helvetica,sans-Serif" font-size="10.00" fill="#000000">/compiler/xla/service</text>
<text text-anchor="middle" x="61" y="-85.5" font-family="Helvetica,sans-Serif" font-size="10.00" fill="#000000">/hlo_pass_fix.h</text>
</g>
<!-- Node47 -->
<g id="node2" class="node">
<title>Node47</title>
<g id="a_node2"><a xlink:href="../../d4/dcb/cpu__compiler_8cc.html" target="_top" xlink:title="tensorflow/tensorflow\l/compiler/xla/service\l/cpu/cpu_compiler.cc">
<polygon fill="#ffffff" stroke="#000000" points="0,-.5 0,-41.5 122,-41.5 122,-.5 0,-.5"/>
<text text-anchor="start" x="8" y="-29.5" font-family="Helvetica,sans-Serif" font-size="10.00" fill="#000000">tensorflow/tensorflow</text>
<text text-anchor="start" x="8" y="-18.5" font-family="Helvetica,sans-Serif" font-size="10.00" fill="#000000">/compiler/xla/service</text>
<text text-anchor="middle" x="61" y="-7.5" font-family="Helvetica,sans-Serif" font-size="10.00" fill="#000000">/cpu/cpu_compiler.cc</text>
</a>
</g>
</g>
<!-- Node46&#45;&gt;Node47 -->
<g id="edge1" class="edge">
<title>Node46&#45;&gt;Node47</title>
<path fill="none" stroke="#191970" d="M61,-68.0789C61,-59.2178 61,-49.7747 61,-41.6898"/>
<polygon fill="#191970" stroke="#191970" points="57.5001,-68.0974 61,-78.0974 64.5001,-68.0975 57.5001,-68.0974"/>
</g>
</g>
</svg>
