<?xml version="1.0" encoding="UTF-8" standalone="no"?>
<!DOCTYPE svg PUBLIC "-//W3C//DTD SVG 1.1//EN"
 "http://www.w3.org/Graphics/SVG/1.1/DTD/svg11.dtd">
<!-- Generated by graphviz version 2.40.1 (20161225.0304)
 -->
<!-- Title: tensorflow::XlaOpRegistrar::XlaOpRegistrar Pages: 1 -->
<svg width="476pt" height="88pt"
 viewBox="0.00 0.00 476.00 88.00" xmlns="http://www.w3.org/2000/svg" xmlns:xlink="http://www.w3.org/1999/xlink">
<g id="graph0" class="graph" transform="scale(1 1) rotate(0) translate(4 84)">
<title>tensorflow::XlaOpRegistrar::XlaOpRegistrar</title>
<polygon fill="#ffffff" stroke="transparent" points="-4,4 -4,-84 472,-84 472,4 -4,4"/>
<!-- Node0 -->
<g id="node1" class="node">
<title>Node0</title>
<polygon fill="#bfbfbf" stroke="#000000" points="0,-24.5 0,-54.5 134,-54.5 134,-24.5 0,-24.5"/>
<text text-anchor="start" x="8" y="-42.5" font-family="Helvetica,sans-Serif" font-size="10.00" fill="#000000">tensorflow::XlaOpRegistrar</text>
<text text-anchor="middle" x="67" y="-31.5" font-family="Helvetica,sans-Serif" font-size="10.00" fill="#000000">::XlaOpRegistrar</text>
</g>
<!-- Node1 -->
<g id="node2" class="node">
<title>Node1</title>
<g id="a_node2"><a xlink:href="../../d9/de9/classtensorflow_1_1XlaOpRegistry.html#a6df4a46abd7f1d52ab601ee4f694d4fe" target="_top" xlink:title="tensorflow::XlaOpRegistry\l::Instance">
<polygon fill="#ffffff" stroke="#000000" points="170,-49.5 170,-79.5 301,-79.5 301,-49.5 170,-49.5"/>
<text text-anchor="start" x="178" y="-67.5" font-family="Helvetica,sans-Serif" font-size="10.00" fill="#000000">tensorflow::XlaOpRegistry</text>
<text text-anchor="middle" x="235.5" y="-56.5" font-family="Helvetica,sans-Serif" font-size="10.00" fill="#000000">::Instance</text>
</a>
</g>
</g>
<!-- Node0&#45;&gt;Node1 -->
<g id="edge1" class="edge">
<title>Node0&#45;&gt;Node1</title>
<path fill="none" stroke="#191970" d="M134.0798,-49.4525C142.5232,-50.7052 151.2068,-51.9936 159.7718,-53.2644"/>
<polygon fill="#191970" stroke="#191970" points="159.3449,-56.7393 169.7503,-54.7449 160.3723,-49.8151 159.3449,-56.7393"/>
</g>
<!-- Node3 -->
<g id="node4" class="node">
<title>Node3</title>
<g id="a_node4"><a xlink:href="../../d9/de9/classtensorflow_1_1XlaOpRegistry.html#aae048afc4e7b8573ec00ee715339fd14" target="_top" xlink:title="tensorflow::XlaOpRegistry\l::IsCompatible">
<polygon fill="#ffffff" stroke="#000000" points="170,-.5 170,-30.5 301,-30.5 301,-.5 170,-.5"/>
<text text-anchor="start" x="178" y="-18.5" font-family="Helvetica,sans-Serif" font-size="10.00" fill="#000000">tensorflow::XlaOpRegistry</text>
<text text-anchor="middle" x="235.5" y="-7.5" font-family="Helvetica,sans-Serif" font-size="10.00" fill="#000000">::IsCompatible</text>
</a>
</g>
</g>
<!-- Node0&#45;&gt;Node3 -->
<g id="edge3" class="edge">
<title>Node0&#45;&gt;Node3</title>
<path fill="none" stroke="#191970" d="M134.0798,-29.9456C142.5232,-28.743 151.2068,-27.5061 159.7718,-26.2862"/>
<polygon fill="#191970" stroke="#191970" points="160.3438,-29.7402 169.7503,-24.8649 159.3567,-22.8101 160.3438,-29.7402"/>
</g>
<!-- Node2 -->
<g id="node3" class="node">
<title>Node2</title>
<g id="a_node3"><a xlink:href="../../d9/de9/classtensorflow_1_1XlaOpRegistry.html#a2be34fb36eb475b48d2d319d2a53e15b" target="_top" xlink:title="tensorflow::XlaOpRegistry\l::XlaOpRegistry">
<polygon fill="#ffffff" stroke="#000000" points="337,-49.5 337,-79.5 468,-79.5 468,-49.5 337,-49.5"/>
<text text-anchor="start" x="345" y="-67.5" font-family="Helvetica,sans-Serif" font-size="10.00" fill="#000000">tensorflow::XlaOpRegistry</text>
<text text-anchor="middle" x="402.5" y="-56.5" font-family="Helvetica,sans-Serif" font-size="10.00" fill="#000000">::XlaOpRegistry</text>
</a>
</g>
</g>
<!-- Node1&#45;&gt;Node2 -->
<g id="edge2" class="edge">
<title>Node1&#45;&gt;Node2</title>
<path fill="none" stroke="#191970" d="M301.0235,-64.5C309.496,-64.5 318.2278,-64.5 326.8471,-64.5"/>
<polygon fill="#191970" stroke="#191970" points="326.8914,-68.0001 336.8913,-64.5 326.8913,-61.0001 326.8914,-68.0001"/>
</g>
</g>
</svg>
