<?xml version="1.0" encoding="UTF-8" standalone="no"?>
<!DOCTYPE svg PUBLIC "-//W3C//DTD SVG 1.1//EN"
 "http://www.w3.org/Graphics/SVG/1.1/DTD/svg11.dtd">
<!-- Generated by graphviz version 2.40.1 (20161225.0304)
 -->
<!-- Title: tensorflow/tensorflow/compiler/xla/service/hlo_dce.cc Pages: 1 -->
<svg width="2790pt" height="351pt"
 viewBox="0.00 0.00 2790.00 351.00" xmlns="http://www.w3.org/2000/svg" xmlns:xlink="http://www.w3.org/1999/xlink">
<g id="graph0" class="graph" transform="scale(1 1) rotate(0) translate(4 347)">
<title>tensorflow/tensorflow/compiler/xla/service/hlo_dce.cc</title>
<polygon fill="#ffffff" stroke="transparent" points="-4,4 -4,-347 2786,-347 2786,4 -4,4"/>
<!-- Node0 -->
<g id="node1" class="node">
<title>Node0</title>
<polygon fill="#bfbfbf" stroke="#000000" points="1626.5,-301.5 1626.5,-342.5 1736.5,-342.5 1736.5,-301.5 1626.5,-301.5"/>
<text text-anchor="start" x="1634.5" y="-330.5" font-family="Helvetica,sans-Serif" font-size="10.00" fill="#000000">tensorflow/tensorflow</text>
<text text-anchor="start" x="1634.5" y="-319.5" font-family="Helvetica,sans-Serif" font-size="10.00" fill="#000000">/compiler/xla/service</text>
<text text-anchor="middle" x="1681.5" y="-308.5" font-family="Helvetica,sans-Serif" font-size="10.00" fill="#000000">/hlo_dce.cc</text>
</g>
<!-- Node1 -->
<g id="node2" class="node">
<title>Node1</title>
<g id="a_node2"><a xlink:href="../../da/d99/hlo__dce_8h.html" target="_top" xlink:title="tensorflow/compiler\l/xla/service/hlo_dce.h">
<polygon fill="#ffffff" stroke="#000000" points="1443.5,-234.5 1443.5,-264.5 1555.5,-264.5 1555.5,-234.5 1443.5,-234.5"/>
<text text-anchor="start" x="1451.5" y="-252.5" font-family="Helvetica,sans-Serif" font-size="10.00" fill="#000000">tensorflow/compiler</text>
<text text-anchor="middle" x="1499.5" y="-241.5" font-family="Helvetica,sans-Serif" font-size="10.00" fill="#000000">/xla/service/hlo_dce.h</text>
</a>
</g>
</g>
<!-- Node0&#45;&gt;Node1 -->
<g id="edge1" class="edge">
<title>Node0&#45;&gt;Node1</title>
<path fill="none" stroke="#191970" d="M1629.8329,-301.4183C1603.7405,-291.0244 1572.3058,-278.5023 1546.8457,-268.3602"/>
<polygon fill="#191970" stroke="#191970" points="1547.9893,-265.0484 1537.404,-264.5991 1545.3987,-271.5514 1547.9893,-265.0484"/>
</g>
<!-- Node2 -->
<g id="node3" class="node">
<title>Node2</title>
<g id="a_node3"><a xlink:href="../../d2/d31/hlo__computation_8h.html" target="_top" xlink:title="tensorflow/compiler\l/xla/service/hlo_computation.h">
<polygon fill="#ffffff" stroke="#000000" points="1206,-84 1206,-114 1355,-114 1355,-84 1206,-84"/>
<text text-anchor="start" x="1214" y="-102" font-family="Helvetica,sans-Serif" font-size="10.00" fill="#000000">tensorflow/compiler</text>
<text text-anchor="middle" x="1280.5" y="-91" font-family="Helvetica,sans-Serif" font-size="10.00" fill="#000000">/xla/service/hlo_computation.h</text>
</a>
</g>
</g>
<!-- Node0&#45;&gt;Node2 -->
<g id="edge55" class="edge">
<title>Node0&#45;&gt;Node2</title>
<path fill="none" stroke="#191970" d="M1626.233,-317.3109C1574.2659,-311.0868 1495.5496,-296.8837 1434.5,-265 1370.2538,-231.4468 1318.6685,-160.1189 1294.8321,-122.8324"/>
<polygon fill="#191970" stroke="#191970" points="1297.6547,-120.7454 1289.379,-114.1299 1291.723,-124.4622 1297.6547,-120.7454"/>
</g>
<!-- Node4 -->
<g id="node5" class="node">
<title>Node4</title>
<polygon fill="#ffffff" stroke="#bfbfbf" points="181.5,-11.5 181.5,-30.5 233.5,-30.5 233.5,-11.5 181.5,-11.5"/>
<text text-anchor="middle" x="207.5" y="-18.5" font-family="Helvetica,sans-Serif" font-size="10.00" fill="#000000">memory</text>
</g>
<!-- Node0&#45;&gt;Node4 -->
<g id="edge51" class="edge">
<title>Node0&#45;&gt;Node4</title>
<path fill="none" stroke="#191970" d="M1626.3678,-316.6426C1532.3056,-307.3302 1334.8429,-287.0337 1168.5,-265 748.5704,-209.3762 531.5014,-413.9541 226.5,-120 205.2634,-99.5326 203.7532,-63.1091 205.2007,-40.6077"/>
<polygon fill="#191970" stroke="#191970" points="208.6963,-40.8126 206.1067,-30.5391 201.7245,-40.1852 208.6963,-40.8126"/>
</g>
<!-- Node7 -->
<g id="node8" class="node">
<title>Node7</title>
<polygon fill="#ffffff" stroke="#bfbfbf" points="2526.5,-11.5 2526.5,-30.5 2604.5,-30.5 2604.5,-11.5 2526.5,-11.5"/>
<text text-anchor="middle" x="2565.5" y="-18.5" font-family="Helvetica,sans-Serif" font-size="10.00" fill="#000000">unordered_set</text>
</g>
<!-- Node0&#45;&gt;Node7 -->
<g id="edge52" class="edge">
<title>Node0&#45;&gt;Node7</title>
<path fill="none" stroke="#191970" d="M1681.9591,-301.4479C1683.6188,-248.0992 1691.1362,-107.3133 1724.5,-78 1790.7605,-19.7839 2431.5985,-62.0126 2517.5,-42 2524.5233,-40.3638 2531.8001,-37.7269 2538.4999,-34.8661"/>
<polygon fill="#191970" stroke="#191970" points="2540.171,-37.9504 2547.806,-30.6049 2537.2567,-31.5859 2540.171,-37.9504"/>
</g>
<!-- Node8 -->
<g id="node9" class="node">
<title>Node8</title>
<polygon fill="#ffffff" stroke="#bfbfbf" points="2622.5,-11.5 2622.5,-30.5 2662.5,-30.5 2662.5,-11.5 2622.5,-11.5"/>
<text text-anchor="middle" x="2642.5" y="-18.5" font-family="Helvetica,sans-Serif" font-size="10.00" fill="#000000">utility</text>
</g>
<!-- Node0&#45;&gt;Node8 -->
<g id="edge53" class="edge">
<title>Node0&#45;&gt;Node8</title>
<path fill="none" stroke="#191970" d="M1688.5633,-301.1541C1707.3359,-247.0864 1759.813,-104.6942 1800.5,-78 1876.1027,-28.3981 2528.1195,-71.7704 2613.5,-42 2617.1795,-40.717 2620.7959,-38.8032 2624.1595,-36.6443"/>
<polygon fill="#191970" stroke="#191970" points="2626.3625,-39.3688 2632.3422,-30.6227 2622.2135,-33.7308 2626.3625,-39.3688"/>
</g>
<!-- Node9 -->
<g id="node10" class="node">
<title>Node9</title>
<polygon fill="#ffffff" stroke="#bfbfbf" points="119.5,-11.5 119.5,-30.5 163.5,-30.5 163.5,-11.5 119.5,-11.5"/>
<text text-anchor="middle" x="141.5" y="-18.5" font-family="Helvetica,sans-Serif" font-size="10.00" fill="#000000">vector</text>
</g>
<!-- Node0&#45;&gt;Node9 -->
<g id="edge54" class="edge">
<title>Node0&#45;&gt;Node9</title>
<path fill="none" stroke="#191970" d="M1626.2831,-321.0132C1394.7888,-316.6798 508.8892,-298.0652 388.5,-265 277.7147,-234.5725 238.0809,-215.6906 174.5,-120 158.0971,-95.3133 149.182,-61.7483 144.8833,-40.7342"/>
<polygon fill="#191970" stroke="#191970" points="148.2917,-39.9211 142.9962,-30.7446 141.4133,-41.2205 148.2917,-39.9211"/>
</g>
<!-- Node15 -->
<g id="node16" class="node">
<title>Node15</title>
<polygon fill="#ffffff" stroke="#bfbfbf" points="2367,-6 2367,-36 2508,-36 2508,-6 2367,-6"/>
<text text-anchor="start" x="2375" y="-24" font-family="Helvetica,sans-Serif" font-size="10.00" fill="#000000">tensorflow/compiler</text>
<text text-anchor="middle" x="2437.5" y="-13" font-family="Helvetica,sans-Serif" font-size="10.00" fill="#000000">/xla/service/hlo_instruction.h</text>
</g>
<!-- Node0&#45;&gt;Node15 -->
<g id="edge56" class="edge">
<title>Node0&#45;&gt;Node15</title>
<path fill="none" stroke="#191970" d="M1673.7745,-301.177C1657.8217,-254.1449 1627.4326,-139.0562 1686.5,-78 1738.4133,-24.3387 2283.7341,-53.5378 2357.5,-42 2363.7378,-41.0243 2370.1928,-39.7643 2376.6064,-38.3465"/>
<polygon fill="#191970" stroke="#191970" points="2377.6732,-41.6915 2386.6137,-36.0066 2376.0794,-34.8753 2377.6732,-41.6915"/>
</g>
<!-- Node19 -->
<g id="node20" class="node">
<title>Node19</title>
<polygon fill="#ffffff" stroke="#bfbfbf" points="2681,-6 2681,-36 2782,-36 2782,-6 2681,-6"/>
<text text-anchor="start" x="2689" y="-24" font-family="Helvetica,sans-Serif" font-size="10.00" fill="#000000">tensorflow/compiler</text>
<text text-anchor="middle" x="2731.5" y="-13" font-family="Helvetica,sans-Serif" font-size="10.00" fill="#000000">/xla/statusor.h</text>
</g>
<!-- Node0&#45;&gt;Node19 -->
<g id="edge61" class="edge">
<title>Node0&#45;&gt;Node19</title>
<path fill="none" stroke="#191970" d="M1702.2766,-301.2924C1723.78,-281.0614 1759.2483,-250.9153 1795.5,-234 2156.6905,-65.4662 2288.0335,-150.7 2671.5,-42 2674.6323,-41.1121 2677.8394,-40.15 2681.0625,-39.1425"/>
<polygon fill="#191970" stroke="#191970" points="2682.2868,-42.4251 2690.7211,-36.0131 2680.1291,-35.7659 2682.2868,-42.4251"/>
</g>
<!-- Node20 -->
<g id="node21" class="node">
<title>Node20</title>
<polygon fill="#ffffff" stroke="#bfbfbf" points="0,-6 0,-36 101,-36 101,-6 0,-6"/>
<text text-anchor="start" x="8" y="-24" font-family="Helvetica,sans-Serif" font-size="10.00" fill="#000000">tensorflow/compiler</text>
<text text-anchor="middle" x="50.5" y="-13" font-family="Helvetica,sans-Serif" font-size="10.00" fill="#000000">/xla/types.h</text>
</g>
<!-- Node0&#45;&gt;Node20 -->
<g id="edge62" class="edge">
<title>Node0&#45;&gt;Node20</title>
<path fill="none" stroke="#191970" d="M1626.1526,-321.5923C1383.3878,-319.553 419.164,-308.7443 291.5,-265 192.3414,-231.0231 172.0048,-201.0184 105.5,-120 86.5459,-96.9094 70.7168,-66.355 60.9799,-45.33"/>
<polygon fill="#191970" stroke="#191970" points="64.129,-43.7991 56.8239,-36.1253 57.7491,-46.6796 64.129,-43.7991"/>
</g>
<!-- Node28 -->
<g id="node29" class="node">
<title>Node28</title>
<g id="a_node29"><a xlink:href="../../db/da0/hlo__module_8h.html" target="_top" xlink:title="tensorflow/compiler\l/xla/service/hlo_module.h">
<polygon fill="#ffffff" stroke="#000000" points="920.5,-162 920.5,-192 1048.5,-192 1048.5,-162 920.5,-162"/>
<text text-anchor="start" x="928.5" y="-180" font-family="Helvetica,sans-Serif" font-size="10.00" fill="#000000">tensorflow/compiler</text>
<text text-anchor="middle" x="984.5" y="-169" font-family="Helvetica,sans-Serif" font-size="10.00" fill="#000000">/xla/service/hlo_module.h</text>
</a>
</g>
</g>
<!-- Node0&#45;&gt;Node28 -->
<g id="edge57" class="edge">
<title>Node0&#45;&gt;Node28</title>
<path fill="none" stroke="#191970" d="M1626.1851,-316.2803C1550.2156,-307.889 1409.5673,-290.4298 1291.5,-265 1202.1619,-245.758 1100.601,-214.8146 1039.5903,-195.214"/>
<polygon fill="#191970" stroke="#191970" points="1040.3787,-191.7907 1029.787,-192.0499 1038.2285,-198.4523 1040.3787,-191.7907"/>
</g>
<!-- Node34 -->
<g id="node35" class="node">
<title>Node34</title>
<polygon fill="#ffffff" stroke="#bfbfbf" points="1499.5,-84 1499.5,-114 1621.5,-114 1621.5,-84 1499.5,-84"/>
<text text-anchor="start" x="1507.5" y="-102" font-family="Helvetica,sans-Serif" font-size="10.00" fill="#000000">tensorflow/core/platform</text>
<text text-anchor="middle" x="1560.5" y="-91" font-family="Helvetica,sans-Serif" font-size="10.00" fill="#000000">/logging.h</text>
</g>
<!-- Node0&#45;&gt;Node34 -->
<g id="edge65" class="edge">
<title>Node0&#45;&gt;Node34</title>
<path fill="none" stroke="#191970" d="M1668.5113,-301.2914C1662.096,-290.6504 1654.4718,-277.3539 1648.5,-265 1625.8351,-218.1129 1631.4677,-201.1417 1605.5,-156 1598.6238,-144.0466 1589.409,-131.9026 1581.1091,-121.9127"/>
<polygon fill="#191970" stroke="#191970" points="1583.5778,-119.4138 1574.4238,-114.0794 1578.2533,-123.958 1583.5778,-119.4138"/>
</g>
<!-- Node37 -->
<g id="node38" class="node">
<title>Node37</title>
<polygon fill="#ffffff" stroke="#bfbfbf" points="1804.5,-234.5 1804.5,-264.5 1932.5,-264.5 1932.5,-234.5 1804.5,-234.5"/>
<text text-anchor="start" x="1812.5" y="-252.5" font-family="Helvetica,sans-Serif" font-size="10.00" fill="#000000">tensorflow/compiler</text>
<text text-anchor="middle" x="1868.5" y="-241.5" font-family="Helvetica,sans-Serif" font-size="10.00" fill="#000000">/xla/service/hlo_opcode.h</text>
</g>
<!-- Node0&#45;&gt;Node37 -->
<g id="edge58" class="edge">
<title>Node0&#45;&gt;Node37</title>
<path fill="none" stroke="#191970" d="M1734.5865,-301.4183C1761.5138,-290.9786 1793.9787,-278.3919 1820.199,-268.2263"/>
<polygon fill="#191970" stroke="#191970" points="1821.4961,-271.4773 1829.5547,-264.5991 1818.9657,-264.9507 1821.4961,-271.4773"/>
</g>
<!-- Node38 -->
<g id="node39" class="node">
<title>Node38</title>
<polygon fill="#ffffff" stroke="#bfbfbf" points="1951,-234.5 1951,-264.5 2052,-264.5 2052,-234.5 1951,-234.5"/>
<text text-anchor="start" x="1959" y="-252.5" font-family="Helvetica,sans-Serif" font-size="10.00" fill="#000000">tensorflow/compiler</text>
<text text-anchor="middle" x="2001.5" y="-241.5" font-family="Helvetica,sans-Serif" font-size="10.00" fill="#000000">/xla/status.h</text>
</g>
<!-- Node0&#45;&gt;Node38 -->
<g id="edge59" class="edge">
<title>Node0&#45;&gt;Node38</title>
<path fill="none" stroke="#191970" d="M1736.6674,-310.524C1787.228,-299.8663 1864.3943,-283.2499 1940.9734,-265.0793"/>
<polygon fill="#191970" stroke="#191970" points="1941.8773,-268.462 1950.7938,-262.7397 1940.2549,-261.6526 1941.8773,-268.462"/>
</g>
<!-- Node39 -->
<g id="node40" class="node">
<title>Node39</title>
<polygon fill="#ffffff" stroke="#bfbfbf" points="2070.5,-234.5 2070.5,-264.5 2178.5,-264.5 2178.5,-234.5 2070.5,-234.5"/>
<text text-anchor="start" x="2078.5" y="-252.5" font-family="Helvetica,sans-Serif" font-size="10.00" fill="#000000">tensorflow/compiler</text>
<text text-anchor="middle" x="2124.5" y="-241.5" font-family="Helvetica,sans-Serif" font-size="10.00" fill="#000000">/xla/status_macros.h</text>
</g>
<!-- Node0&#45;&gt;Node39 -->
<g id="edge60" class="edge">
<title>Node0&#45;&gt;Node39</title>
<path fill="none" stroke="#191970" d="M1736.5219,-315.3677C1808.6483,-306.3148 1939.2543,-288.6907 2060.107,-265.1754"/>
<polygon fill="#191970" stroke="#191970" points="2061.1368,-268.5401 2070.2747,-263.1782 2059.7876,-261.6713 2061.1368,-268.5401"/>
</g>
<!-- Node40 -->
<g id="node41" class="node">
<title>Node40</title>
<polygon fill="#ffffff" stroke="#bfbfbf" points="2197,-234.5 2197,-264.5 2298,-264.5 2298,-234.5 2197,-234.5"/>
<text text-anchor="start" x="2205" y="-252.5" font-family="Helvetica,sans-Serif" font-size="10.00" fill="#000000">tensorflow/compiler</text>
<text text-anchor="middle" x="2247.5" y="-241.5" font-family="Helvetica,sans-Serif" font-size="10.00" fill="#000000">/xla/util.h</text>
</g>
<!-- Node0&#45;&gt;Node40 -->
<g id="edge63" class="edge">
<title>Node0&#45;&gt;Node40</title>
<path fill="none" stroke="#191970" d="M1736.5323,-318.348C1828.0943,-311.7155 2017.5396,-295.6291 2187.0256,-264.9179"/>
<polygon fill="#191970" stroke="#191970" points="2187.6677,-268.3586 2196.8727,-263.1127 2186.4055,-261.4733 2187.6677,-268.3586"/>
</g>
<!-- Node41 -->
<g id="node42" class="node">
<title>Node41</title>
<polygon fill="#ffffff" stroke="#bfbfbf" points="2316.5,-234.5 2316.5,-264.5 2412.5,-264.5 2412.5,-234.5 2316.5,-234.5"/>
<text text-anchor="start" x="2324.5" y="-252.5" font-family="Helvetica,sans-Serif" font-size="10.00" fill="#000000">tensorflow/core/lib</text>
<text text-anchor="middle" x="2364.5" y="-241.5" font-family="Helvetica,sans-Serif" font-size="10.00" fill="#000000">/core/errors.h</text>
</g>
<!-- Node0&#45;&gt;Node41 -->
<g id="edge64" class="edge">
<title>Node0&#45;&gt;Node41</title>
<path fill="none" stroke="#191970" d="M1736.7802,-320.2079C1844.7663,-316.0062 2091.2603,-302.97 2306.5298,-264.9748"/>
<polygon fill="#191970" stroke="#191970" points="2307.2044,-268.4098 2316.4327,-263.2052 2305.973,-261.5189 2307.2044,-268.4098"/>
</g>
<!-- Node1&#45;&gt;Node2 -->
<g id="edge2" class="edge">
<title>Node1&#45;&gt;Node2</title>
<path fill="none" stroke="#191970" d="M1477.2959,-234.241C1437.8428,-207.1283 1355.485,-150.5308 1310.8396,-119.8498"/>
<polygon fill="#191970" stroke="#191970" points="1312.6611,-116.8548 1302.4372,-114.0756 1308.6965,-122.6239 1312.6611,-116.8548"/>
</g>
<!-- Node1&#45;&gt;Node15 -->
<g id="edge28" class="edge">
<title>Node1&#45;&gt;Node15</title>
<path fill="none" stroke="#191970" d="M1492.1323,-234.4331C1476.7026,-200.4812 1445.9467,-117.8573 1490.5,-78 1526.4292,-45.8578 2309.8267,-49.1614 2357.5,-42 2363.7436,-41.0621 2370.2024,-39.8269 2376.6184,-38.4242"/>
<polygon fill="#191970" stroke="#191970" points="2377.6785,-41.7712 2386.6281,-36.1007 2376.0957,-34.9525 2377.6785,-41.7712"/>
</g>
<!-- Node1&#45;&gt;Node19 -->
<g id="edge50" class="edge">
<title>Node1&#45;&gt;Node19</title>
<path fill="none" stroke="#191970" d="M1532.8755,-234.3253C1553.9663,-224.4817 1581.6452,-211.0927 1605.5,-198 1694.709,-149.0377 1703.1776,-107.7306 1800.5,-78 1985.7688,-21.4031 2481.2285,-78.394 2671.5,-42 2675.6462,-41.2069 2679.8929,-40.182 2684.1174,-39.0123"/>
<polygon fill="#191970" stroke="#191970" points="2685.3182,-42.3058 2693.8769,-36.061 2683.2919,-35.6055 2685.3182,-42.3058"/>
</g>
<!-- Node1&#45;&gt;Node28 -->
<g id="edge29" class="edge">
<title>Node1&#45;&gt;Node28</title>
<path fill="none" stroke="#191970" d="M1443.4056,-241.6032C1350.0563,-228.4618 1162.8204,-202.1034 1058.6789,-187.4427"/>
<polygon fill="#191970" stroke="#191970" points="1058.9485,-183.9462 1048.5582,-186.0179 1057.9726,-190.8778 1058.9485,-183.9462"/>
</g>
<!-- Node36 -->
<g id="node37" class="node">
<title>Node36</title>
<polygon fill="#ffffff" stroke="#bfbfbf" points="1487,-156.5 1487,-197.5 1596,-197.5 1596,-156.5 1487,-156.5"/>
<text text-anchor="start" x="1495" y="-185.5" font-family="Helvetica,sans-Serif" font-size="10.00" fill="#000000">tensorflow/compiler</text>
<text text-anchor="start" x="1495" y="-174.5" font-family="Helvetica,sans-Serif" font-size="10.00" fill="#000000">/xla/service/hlo_pass</text>
<text text-anchor="middle" x="1541.5" y="-163.5" font-family="Helvetica,sans-Serif" font-size="10.00" fill="#000000">_interface.h</text>
</g>
<!-- Node1&#45;&gt;Node36 -->
<g id="edge49" class="edge">
<title>Node1&#45;&gt;Node36</title>
<path fill="none" stroke="#191970" d="M1508.2024,-234.478C1512.9002,-226.3688 1518.8656,-216.0713 1524.4455,-206.4393"/>
<polygon fill="#191970" stroke="#191970" points="1527.639,-207.9089 1529.6233,-197.5015 1521.582,-204.4 1527.639,-207.9089"/>
</g>
<!-- Node3 -->
<g id="node4" class="node">
<title>Node3</title>
<polygon fill="#ffffff" stroke="#bfbfbf" points="654,-11.5 654,-30.5 683,-30.5 683,-11.5 654,-11.5"/>
<text text-anchor="middle" x="668.5" y="-18.5" font-family="Helvetica,sans-Serif" font-size="10.00" fill="#000000">list</text>
</g>
<!-- Node2&#45;&gt;Node3 -->
<g id="edge3" class="edge">
<title>Node2&#45;&gt;Node3</title>
<path fill="none" stroke="#191970" d="M1205.7224,-89.0211C1176.6495,-85.307 1143.0474,-81.2172 1112.5,-78 1019.3397,-68.1886 778.7016,-78.6659 692.5,-42 689.7297,-40.8217 687.0535,-39.1965 684.5564,-37.3674"/>
<polygon fill="#191970" stroke="#191970" points="686.7299,-34.6196 676.88,-30.7168 682.1462,-39.9102 686.7299,-34.6196"/>
</g>
<!-- Node2&#45;&gt;Node4 -->
<g id="edge4" class="edge">
<title>Node2&#45;&gt;Node4</title>
<path fill="none" stroke="#191970" d="M1205.7689,-94.492C1133.35,-90.1529 1020.4066,-83.4632 922.5,-78 771.4123,-69.5693 387.2129,-86.2352 242.5,-42 237.877,-40.5869 233.2325,-38.4356 228.9062,-36.04"/>
<polygon fill="#191970" stroke="#191970" points="230.4249,-32.8647 220.0755,-30.5971 226.7519,-38.8237 230.4249,-32.8647"/>
</g>
<!-- Node5 -->
<g id="node6" class="node">
<title>Node5</title>
<polygon fill="#ffffff" stroke="#bfbfbf" points="252,-11.5 252,-30.5 293,-30.5 293,-11.5 252,-11.5"/>
<text text-anchor="middle" x="272.5" y="-18.5" font-family="Helvetica,sans-Serif" font-size="10.00" fill="#000000">string</text>
</g>
<!-- Node2&#45;&gt;Node5 -->
<g id="edge5" class="edge">
<title>Node2&#45;&gt;Node5</title>
<path fill="none" stroke="#191970" d="M1205.8347,-93.8679C1140.9906,-89.4663 1044.5567,-83.0539 960.5,-78 814.1016,-69.1978 439.7348,-91.0012 301.5,-42 297.8272,-40.6981 294.2142,-38.7745 290.852,-36.6119"/>
<polygon fill="#191970" stroke="#191970" points="292.7979,-33.6984 282.6688,-30.5915 288.6496,-39.3368 292.7979,-33.6984"/>
</g>
<!-- Node6 -->
<g id="node7" class="node">
<title>Node6</title>
<polygon fill="#ffffff" stroke="#bfbfbf" points="311,-11.5 311,-30.5 394,-30.5 394,-11.5 311,-11.5"/>
<text text-anchor="middle" x="352.5" y="-18.5" font-family="Helvetica,sans-Serif" font-size="10.00" fill="#000000">unordered_map</text>
</g>
<!-- Node2&#45;&gt;Node6 -->
<g id="edge6" class="edge">
<title>Node2&#45;&gt;Node6</title>
<path fill="none" stroke="#191970" d="M1205.7092,-93.1439C1148.8864,-88.7643 1068.7901,-82.7398 998.5,-78 733.7296,-60.146 660.9451,-102.2349 402.5,-42 395.0614,-40.2663 387.3161,-37.5225 380.2057,-34.583"/>
<polygon fill="#191970" stroke="#191970" points="381.5542,-31.3526 370.9914,-30.5296 378.7355,-37.76 381.5542,-31.3526"/>
</g>
<!-- Node2&#45;&gt;Node7 -->
<g id="edge7" class="edge">
<title>Node2&#45;&gt;Node7</title>
<path fill="none" stroke="#191970" d="M1355.2392,-90.3412C1395.2998,-85.9995 1445.5348,-81.0332 1490.5,-78 1718.3446,-62.6305 2294.8289,-92.6652 2517.5,-42 2524.5317,-40.4001 2531.8117,-37.777 2538.5118,-34.918"/>
<polygon fill="#191970" stroke="#191970" points="2540.1853,-38.0011 2547.8169,-30.652 2537.268,-31.6379 2540.1853,-38.0011"/>
</g>
<!-- Node2&#45;&gt;Node8 -->
<g id="edge8" class="edge">
<title>Node2&#45;&gt;Node8</title>
<path fill="none" stroke="#191970" d="M1355.2355,-90.2867C1395.2951,-85.9296 1445.5303,-80.9659 1490.5,-78 1615.0712,-69.7842 2495.3698,-82.3826 2613.5,-42 2617.1873,-40.7395 2620.8076,-38.8371 2624.1727,-36.6828"/>
<polygon fill="#191970" stroke="#191970" points="2626.3766,-39.4066 2632.3549,-30.6596 2622.2267,-33.7693 2626.3766,-39.4066"/>
</g>
<!-- Node2&#45;&gt;Node9 -->
<g id="edge9" class="edge">
<title>Node2&#45;&gt;Node9</title>
<path fill="none" stroke="#191970" d="M1205.9108,-94.9164C1127.2355,-90.6272 999.6486,-83.7232 889.5,-78 730.1809,-69.722 323.7948,-92.6062 172.5,-42 168.5217,-40.6693 164.5793,-38.6751 160.9075,-36.4365"/>
<polygon fill="#191970" stroke="#191970" points="162.6877,-33.4123 152.471,-30.6068 158.7082,-39.1711 162.6877,-33.4123"/>
</g>
<!-- Node10 -->
<g id="node11" class="node">
<title>Node10</title>
<polygon fill="#ffffff" stroke="#bfbfbf" points="412,-6 412,-36 513,-36 513,-6 412,-6"/>
<text text-anchor="start" x="420" y="-24" font-family="Helvetica,sans-Serif" font-size="10.00" fill="#000000">tensorflow/compiler</text>
<text text-anchor="middle" x="462.5" y="-13" font-family="Helvetica,sans-Serif" font-size="10.00" fill="#000000">/xla/iterator_util.h</text>
</g>
<!-- Node2&#45;&gt;Node10 -->
<g id="edge10" class="edge">
<title>Node2&#45;&gt;Node10</title>
<path fill="none" stroke="#191970" d="M1205.7724,-92.2582C1157.4912,-87.9791 1093.301,-82.4332 1036.5,-78 808.1902,-60.181 746.7879,-88.2364 522.5,-42 518.5986,-41.1957 514.6047,-40.2008 510.6218,-39.085"/>
<polygon fill="#191970" stroke="#191970" points="511.3888,-35.6601 500.8032,-36.102 509.3539,-42.3578 511.3888,-35.6601"/>
</g>
<!-- Node11 -->
<g id="node12" class="node">
<title>Node11</title>
<polygon fill="#ffffff" stroke="#bfbfbf" points="2014,-6 2014,-36 2115,-36 2115,-6 2014,-6"/>
<text text-anchor="start" x="2022" y="-24" font-family="Helvetica,sans-Serif" font-size="10.00" fill="#000000">tensorflow/compiler</text>
<text text-anchor="middle" x="2064.5" y="-13" font-family="Helvetica,sans-Serif" font-size="10.00" fill="#000000">/xla/map_util.h</text>
</g>
<!-- Node2&#45;&gt;Node11 -->
<g id="edge11" class="edge">
<title>Node2&#45;&gt;Node11</title>
<path fill="none" stroke="#191970" d="M1337.0185,-83.9498C1347.4255,-81.6253 1358.2429,-79.502 1368.5,-78 1648.6317,-36.9796 1726.8353,-97.3059 2004.5,-42 2008.5792,-41.1875 2012.7576,-40.1591 2016.9178,-38.996"/>
<polygon fill="#191970" stroke="#191970" points="2017.9844,-42.33 2026.5362,-36.0757 2015.9507,-35.6319 2017.9844,-42.33"/>
</g>
<!-- Node12 -->
<g id="node13" class="node">
<title>Node12</title>
<polygon fill="#ffffff" stroke="#bfbfbf" points="2133,-.5 2133,-41.5 2234,-41.5 2234,-.5 2133,-.5"/>
<text text-anchor="start" x="2141" y="-29.5" font-family="Helvetica,sans-Serif" font-size="10.00" fill="#000000">tensorflow/compiler</text>
<text text-anchor="start" x="2141" y="-18.5" font-family="Helvetica,sans-Serif" font-size="10.00" fill="#000000">/xla/service/dfs_hlo</text>
<text text-anchor="middle" x="2183.5" y="-7.5" font-family="Helvetica,sans-Serif" font-size="10.00" fill="#000000">_visitor.h</text>
</g>
<!-- Node2&#45;&gt;Node12 -->
<g id="edge12" class="edge">
<title>Node2&#45;&gt;Node12</title>
<path fill="none" stroke="#191970" d="M1336.5347,-83.9793C1347.0877,-81.6209 1358.0808,-79.4781 1368.5,-78 1698.2939,-31.2156 1792.6413,-105.6229 2123.0727,-41.9924"/>
<polygon fill="#191970" stroke="#191970" points="2123.7746,-45.4215 2132.9181,-40.0693 2122.4326,-38.5514 2123.7746,-45.4215"/>
</g>
<!-- Node13 -->
<g id="node14" class="node">
<title>Node13</title>
<polygon fill="#ffffff" stroke="#bfbfbf" points="857.5,-.5 857.5,-41.5 971.5,-41.5 971.5,-.5 857.5,-.5"/>
<text text-anchor="start" x="865.5" y="-29.5" font-family="Helvetica,sans-Serif" font-size="10.00" fill="#000000">tensorflow/compiler</text>
<text text-anchor="start" x="865.5" y="-18.5" font-family="Helvetica,sans-Serif" font-size="10.00" fill="#000000">/xla/service/dfs_hlo</text>
<text text-anchor="middle" x="914.5" y="-7.5" font-family="Helvetica,sans-Serif" font-size="10.00" fill="#000000">_visitor_with_default.h</text>
</g>
<!-- Node2&#45;&gt;Node13 -->
<g id="edge13" class="edge">
<title>Node2&#45;&gt;Node13</title>
<path fill="none" stroke="#191970" d="M1205.9832,-87.4051C1147.3314,-77.6904 1063.4268,-62.4971 981.5849,-42.1441"/>
<polygon fill="#191970" stroke="#191970" points="982.168,-38.6818 971.6162,-39.6365 980.4603,-45.4704 982.168,-38.6818"/>
</g>
<!-- Node14 -->
<g id="node15" class="node">
<title>Node14</title>
<polygon fill="#ffffff" stroke="#bfbfbf" points="531.5,-6 531.5,-36 635.5,-36 635.5,-6 531.5,-6"/>
<text text-anchor="start" x="539.5" y="-24" font-family="Helvetica,sans-Serif" font-size="10.00" fill="#000000">tensorflow/compiler</text>
<text text-anchor="middle" x="583.5" y="-13" font-family="Helvetica,sans-Serif" font-size="10.00" fill="#000000">/xla/service/hlo.pb.h</text>
</g>
<!-- Node2&#45;&gt;Node14 -->
<g id="edge14" class="edge">
<title>Node2&#45;&gt;Node14</title>
<path fill="none" stroke="#191970" d="M1205.6765,-91.044C1166.6022,-86.9724 1117.9914,-82.037 1074.5,-78 883.5412,-60.2745 832.1643,-81.5169 644.5,-42 640.4311,-41.1432 636.2595,-40.0933 632.1005,-38.9242"/>
<polygon fill="#191970" stroke="#191970" points="633.0584,-35.5574 622.4735,-36.0152 631.0335,-42.2582 633.0584,-35.5574"/>
</g>
<!-- Node2&#45;&gt;Node15 -->
<g id="edge15" class="edge">
<title>Node2&#45;&gt;Node15</title>
<path fill="none" stroke="#191970" d="M1355.2435,-84.9323C1372.0513,-82.2188 1389.8427,-79.6964 1406.5,-78 1827.2928,-35.1453 1939.1093,-104.0669 2357.5,-42 2363.8385,-41.0597 2370.3981,-39.8091 2376.9091,-38.385"/>
<polygon fill="#191970" stroke="#191970" points="2378.1147,-41.6981 2387.062,-36.0239 2376.5291,-34.88 2378.1147,-41.6981"/>
</g>
<!-- Node16 -->
<g id="node17" class="node">
<title>Node16</title>
<polygon fill="#ffffff" stroke="#bfbfbf" points="990,-6 990,-36 1135,-36 1135,-6 990,-6"/>
<text text-anchor="start" x="998" y="-24" font-family="Helvetica,sans-Serif" font-size="10.00" fill="#000000">tensorflow/compiler</text>
<text text-anchor="middle" x="1062.5" y="-13" font-family="Helvetica,sans-Serif" font-size="10.00" fill="#000000">/xla/service/hlo_reachability.h</text>
</g>
<!-- Node2&#45;&gt;Node16 -->
<g id="edge16" class="edge">
<title>Node2&#45;&gt;Node16</title>
<path fill="none" stroke="#191970" d="M1238.4674,-83.9608C1203.1448,-71.3224 1152.5033,-53.203 1114.6085,-39.6443"/>
<polygon fill="#191970" stroke="#191970" points="1115.3695,-36.1994 1104.7749,-36.1259 1113.0113,-42.7902 1115.3695,-36.1994"/>
</g>
<!-- Node17 -->
<g id="node18" class="node">
<title>Node17</title>
<polygon fill="#ffffff" stroke="#bfbfbf" points="701.5,-6 701.5,-36 839.5,-36 839.5,-6 701.5,-6"/>
<text text-anchor="start" x="709.5" y="-24" font-family="Helvetica,sans-Serif" font-size="10.00" fill="#000000">tensorflow/compiler</text>
<text text-anchor="middle" x="770.5" y="-13" font-family="Helvetica,sans-Serif" font-size="10.00" fill="#000000">/xla/service/name_uniquer.h</text>
</g>
<!-- Node2&#45;&gt;Node17 -->
<g id="edge17" class="edge">
<title>Node2&#45;&gt;Node17</title>
<path fill="none" stroke="#191970" d="M1205.9919,-86.4192C1187.856,-83.5076 1168.499,-80.5254 1150.5,-78 1016.6387,-59.2179 981.219,-67.6374 848.5,-42 843.1644,-40.9693 837.6569,-39.7695 832.1518,-38.4754"/>
<polygon fill="#191970" stroke="#191970" points="832.8284,-35.0377 822.283,-36.0603 831.1644,-41.8371 832.8284,-35.0377"/>
</g>
<!-- Node18 -->
<g id="node19" class="node">
<title>Node18</title>
<polygon fill="#ffffff" stroke="#bfbfbf" points="1153,-6 1153,-36 1254,-36 1254,-6 1153,-6"/>
<text text-anchor="start" x="1161" y="-24" font-family="Helvetica,sans-Serif" font-size="10.00" fill="#000000">tensorflow/compiler</text>
<text text-anchor="middle" x="1203.5" y="-13" font-family="Helvetica,sans-Serif" font-size="10.00" fill="#000000">/xla/shape_tree.h</text>
</g>
<!-- Node2&#45;&gt;Node18 -->
<g id="edge18" class="edge">
<title>Node2&#45;&gt;Node18</title>
<path fill="none" stroke="#191970" d="M1265.6536,-83.9608C1254.3287,-72.4888 1238.5457,-56.5008 1225.7184,-43.507"/>
<polygon fill="#191970" stroke="#191970" points="1228.0797,-40.9169 1218.5635,-36.2592 1223.0981,-45.8346 1228.0797,-40.9169"/>
</g>
<!-- Node2&#45;&gt;Node19 -->
<g id="edge19" class="edge">
<title>Node2&#45;&gt;Node19</title>
<path fill="none" stroke="#191970" d="M1355.2336,-90.258C1395.2927,-85.8928 1445.528,-80.9305 1490.5,-78 1752.5107,-60.9266 2413.3454,-89.9301 2671.5,-42 2675.7115,-41.2181 2680.0251,-40.1905 2684.3131,-39.0099"/>
<polygon fill="#191970" stroke="#191970" points="2685.6507,-42.2621 2694.2118,-36.0204 2683.6269,-35.561 2685.6507,-42.2621"/>
</g>
<!-- Node2&#45;&gt;Node20 -->
<g id="edge20" class="edge">
<title>Node2&#45;&gt;Node20</title>
<path fill="none" stroke="#191970" d="M1205.9153,-94.828C1127.2437,-90.4664 999.6598,-83.5036 889.5,-78 716.42,-69.3529 280.6304,-74.9714 110.5,-42 106.3557,-41.1968 102.1104,-40.1649 97.8868,-38.9904"/>
<polygon fill="#191970" stroke="#191970" points="98.714,-35.5839 88.1287,-36.0319 96.683,-42.2828 98.714,-35.5839"/>
</g>
<!-- Node21 -->
<g id="node22" class="node">
<title>Node21</title>
<polygon fill="#ffffff" stroke="#bfbfbf" points="1272,-6 1272,-36 1373,-36 1373,-6 1272,-6"/>
<text text-anchor="start" x="1280" y="-24" font-family="Helvetica,sans-Serif" font-size="10.00" fill="#000000">tensorflow/compiler</text>
<text text-anchor="middle" x="1322.5" y="-13" font-family="Helvetica,sans-Serif" font-size="10.00" fill="#000000">/xla/xla_data.pb.h</text>
</g>
<!-- Node2&#45;&gt;Node21 -->
<g id="edge21" class="edge">
<title>Node2&#45;&gt;Node21</title>
<path fill="none" stroke="#191970" d="M1288.598,-83.9608C1294.4866,-73.0249 1302.5849,-57.9851 1309.3899,-45.3474"/>
<polygon fill="#191970" stroke="#191970" points="1312.6241,-46.7232 1314.2835,-36.2592 1306.4608,-43.4045 1312.6241,-46.7232"/>
</g>
<!-- Node22 -->
<g id="node23" class="node">
<title>Node22</title>
<polygon fill="#ffffff" stroke="#bfbfbf" points="1391.5,-6 1391.5,-36 1487.5,-36 1487.5,-6 1391.5,-6"/>
<text text-anchor="start" x="1399.5" y="-24" font-family="Helvetica,sans-Serif" font-size="10.00" fill="#000000">tensorflow/core/lib</text>
<text text-anchor="middle" x="1439.5" y="-13" font-family="Helvetica,sans-Serif" font-size="10.00" fill="#000000">/core/status.h</text>
</g>
<!-- Node2&#45;&gt;Node22 -->
<g id="edge22" class="edge">
<title>Node2&#45;&gt;Node22</title>
<path fill="none" stroke="#191970" d="M1311.1568,-83.9608C1336.2619,-71.6451 1371.9766,-54.1247 1399.3594,-40.6916"/>
<polygon fill="#191970" stroke="#191970" points="1401.2301,-43.6725 1408.6665,-36.1259 1398.1471,-37.3879 1401.2301,-43.6725"/>
</g>
<!-- Node23 -->
<g id="node24" class="node">
<title>Node23</title>
<polygon fill="#ffffff" stroke="#bfbfbf" points="2252.5,-6 2252.5,-36 2348.5,-36 2348.5,-6 2252.5,-6"/>
<text text-anchor="start" x="2260.5" y="-24" font-family="Helvetica,sans-Serif" font-size="10.00" fill="#000000">tensorflow/core/lib</text>
<text text-anchor="middle" x="2300.5" y="-13" font-family="Helvetica,sans-Serif" font-size="10.00" fill="#000000">/gtl/array_slice.h</text>
</g>
<!-- Node2&#45;&gt;Node23 -->
<g id="edge23" class="edge">
<title>Node2&#45;&gt;Node23</title>
<path fill="none" stroke="#191970" d="M1336.527,-83.9242C1347.0807,-81.5712 1358.0761,-79.4444 1368.5,-78 1754.0344,-24.5788 1861.8145,-118.2019 2243.5,-42 2247.3459,-41.2322 2251.2773,-40.2443 2255.1881,-39.1165"/>
<polygon fill="#191970" stroke="#191970" points="2256.33,-42.4263 2264.8067,-36.0705 2254.2167,-35.7529 2256.33,-42.4263"/>
</g>
<!-- Node24 -->
<g id="node25" class="node">
<title>Node24</title>
<polygon fill="#ffffff" stroke="#bfbfbf" points="1505.5,-6 1505.5,-36 1601.5,-36 1601.5,-6 1505.5,-6"/>
<text text-anchor="start" x="1513.5" y="-24" font-family="Helvetica,sans-Serif" font-size="10.00" fill="#000000">tensorflow/core/lib</text>
<text text-anchor="middle" x="1553.5" y="-13" font-family="Helvetica,sans-Serif" font-size="10.00" fill="#000000">/gtl/flatmap.h</text>
</g>
<!-- Node2&#45;&gt;Node24 -->
<g id="edge24" class="edge">
<title>Node2&#45;&gt;Node24</title>
<path fill="none" stroke="#191970" d="M1343.8067,-83.9771C1387.1032,-73.2926 1445.6416,-58.0393 1496.5,-42 1499.0977,-41.1807 1501.7515,-40.3131 1504.4235,-39.415"/>
<polygon fill="#191970" stroke="#191970" points="1505.8059,-42.6404 1514.1117,-36.0628 1503.5169,-36.0252 1505.8059,-42.6404"/>
</g>
<!-- Node25 -->
<g id="node26" class="node">
<title>Node25</title>
<polygon fill="#ffffff" stroke="#bfbfbf" points="1619.5,-6 1619.5,-36 1715.5,-36 1715.5,-6 1619.5,-6"/>
<text text-anchor="start" x="1627.5" y="-24" font-family="Helvetica,sans-Serif" font-size="10.00" fill="#000000">tensorflow/core/lib</text>
<text text-anchor="middle" x="1667.5" y="-13" font-family="Helvetica,sans-Serif" font-size="10.00" fill="#000000">/gtl/flatset.h</text>
</g>
<!-- Node2&#45;&gt;Node25 -->
<g id="edge25" class="edge">
<title>Node2&#45;&gt;Node25</title>
<path fill="none" stroke="#191970" d="M1340.4681,-83.957C1349.8226,-81.8226 1359.4015,-79.7589 1368.5,-78 1475.2624,-57.3605 1505.1503,-68.9377 1610.5,-42 1613.819,-41.1513 1617.2136,-40.1799 1620.6109,-39.1305"/>
<polygon fill="#191970" stroke="#191970" points="1621.7238,-42.4491 1630.1328,-36.0041 1619.54,-35.7984 1621.7238,-42.4491"/>
</g>
<!-- Node26 -->
<g id="node27" class="node">
<title>Node26</title>
<polygon fill="#ffffff" stroke="#bfbfbf" points="1733.5,-6 1733.5,-36 1855.5,-36 1855.5,-6 1733.5,-6"/>
<text text-anchor="start" x="1741.5" y="-24" font-family="Helvetica,sans-Serif" font-size="10.00" fill="#000000">tensorflow/core/platform</text>
<text text-anchor="middle" x="1794.5" y="-13" font-family="Helvetica,sans-Serif" font-size="10.00" fill="#000000">/macros.h</text>
</g>
<!-- Node2&#45;&gt;Node26 -->
<g id="edge26" class="edge">
<title>Node2&#45;&gt;Node26</title>
<path fill="none" stroke="#191970" d="M1338.9728,-83.896C1348.7855,-81.6927 1358.8981,-79.6237 1368.5,-78 1525.303,-51.4842 1568.5194,-72.9891 1724.5,-42 1729.229,-41.0605 1734.0964,-39.9372 1738.9569,-38.7053"/>
<polygon fill="#191970" stroke="#191970" points="1740.1235,-42.0163 1748.8777,-36.0485 1738.3127,-35.2546 1740.1235,-42.0163"/>
</g>
<!-- Node27 -->
<g id="node28" class="node">
<title>Node27</title>
<polygon fill="#ffffff" stroke="#bfbfbf" points="1873.5,-6 1873.5,-36 1995.5,-36 1995.5,-6 1873.5,-6"/>
<text text-anchor="start" x="1881.5" y="-24" font-family="Helvetica,sans-Serif" font-size="10.00" fill="#000000">tensorflow/core/platform</text>
<text text-anchor="middle" x="1934.5" y="-13" font-family="Helvetica,sans-Serif" font-size="10.00" fill="#000000">/types.h</text>
</g>
<!-- Node2&#45;&gt;Node27 -->
<g id="edge27" class="edge">
<title>Node2&#45;&gt;Node27</title>
<path fill="none" stroke="#191970" d="M1337.512,-83.9784C1347.7712,-81.6809 1358.4104,-79.5595 1368.5,-78 1586.9304,-44.2376 1647.1244,-81.995 1864.5,-42 1869.5187,-41.0766 1874.6881,-39.925 1879.8372,-38.6398"/>
<polygon fill="#191970" stroke="#191970" points="1880.9026,-41.9782 1889.6689,-36.0282 1879.1055,-35.2128 1880.9026,-41.9782"/>
</g>
<!-- Node28&#45;&gt;Node2 -->
<g id="edge39" class="edge">
<title>Node28&#45;&gt;Node2</title>
<path fill="none" stroke="#191970" d="M1041.5718,-161.9608C1090.7342,-149.0059 1161.7517,-130.2918 1213.5806,-116.6342"/>
<polygon fill="#191970" stroke="#191970" points="1214.5735,-119.9921 1223.3515,-114.0594 1212.7897,-113.2232 1214.5735,-119.9921"/>
</g>
<!-- Node28&#45;&gt;Node3 -->
<g id="edge31" class="edge">
<title>Node28&#45;&gt;Node3</title>
<path fill="none" stroke="#191970" d="M1025.5894,-161.835C1044.0336,-152.724 1063.9773,-139.1199 1074.5,-120 1083.5002,-103.6464 1087.0649,-91.8047 1074.5,-78 1017.1066,-14.9435 770.8203,-75.7054 692.5,-42 689.7347,-40.8099 687.0614,-39.178 684.5657,-37.3456"/>
<polygon fill="#191970" stroke="#191970" points="686.7392,-34.5978 676.8896,-30.6944 682.1552,-39.8881 686.7392,-34.5978"/>
</g>
<!-- Node28&#45;&gt;Node4 -->
<g id="edge32" class="edge">
<title>Node28&#45;&gt;Node4</title>
<path fill="none" stroke="#191970" d="M966.6836,-161.9873C953.8889,-150.8861 936.5027,-135.1313 922.5,-120 906.3761,-102.5766 910.5544,-88.9667 889.5,-78 761.7863,-11.4775 380.1534,-84.28 242.5,-42 237.8789,-40.5806 233.2353,-38.4265 228.9093,-36.03"/>
<polygon fill="#191970" stroke="#191970" points="230.4279,-32.8546 220.0784,-30.5877 226.7553,-38.8139 230.4279,-32.8546"/>
</g>
<!-- Node28&#45;&gt;Node5 -->
<g id="edge34" class="edge">
<title>Node28&#45;&gt;Node5</title>
<path fill="none" stroke="#191970" d="M977.1725,-161.8114C964.6512,-136.5511 938.9032,-87.7125 922.5,-78 803.5553,-7.5716 431.7111,-88.4013 301.5,-42 297.8294,-40.6919 294.2175,-38.7653 290.8557,-36.6014"/>
<polygon fill="#191970" stroke="#191970" points="292.8016,-33.6879 282.6723,-30.5815 288.6536,-39.3265 292.8016,-33.6879"/>
</g>
<!-- Node28&#45;&gt;Node6 -->
<g id="edge35" class="edge">
<title>Node28&#45;&gt;Node6</title>
<path fill="none" stroke="#191970" d="M985.8383,-161.7888C986.8587,-139.5537 985.0099,-98.5897 960.5,-78 912.929,-38.0376 462.9782,-56.2261 402.5,-42 395.0649,-40.2511 387.321,-37.5017 380.2106,-34.5617"/>
<polygon fill="#191970" stroke="#191970" points="381.5589,-31.3311 370.9959,-30.5103 378.7415,-37.7391 381.5589,-31.3311"/>
</g>
<!-- Node28&#45;&gt;Node9 -->
<g id="edge36" class="edge">
<title>Node28&#45;&gt;Node9</title>
<path fill="none" stroke="#191970" d="M920.3883,-174.9851C748.7526,-169.1981 287.6651,-150.9312 226.5,-120 191.2997,-102.1992 164.6599,-62.8125 151.2203,-39.4396"/>
<polygon fill="#191970" stroke="#191970" points="154.1854,-37.569 146.2822,-30.5127 148.0601,-40.9573 154.1854,-37.569"/>
</g>
<!-- Node28&#45;&gt;Node10 -->
<g id="edge37" class="edge">
<title>Node28&#45;&gt;Node10</title>
<path fill="none" stroke="#191970" d="M993.2716,-161.7024C1004.3641,-140.108 1019.6263,-100.7844 998.5,-78 962.437,-39.1066 574.4176,-52.8533 522.5,-42 518.6009,-41.1849 514.6085,-40.1822 510.6268,-39.061"/>
<polygon fill="#191970" stroke="#191970" points="511.396,-35.6365 500.81,-36.0692 509.3553,-42.3325 511.396,-35.6365"/>
</g>
<!-- Node28&#45;&gt;Node14 -->
<g id="edge38" class="edge">
<title>Node28&#45;&gt;Node14</title>
<path fill="none" stroke="#191970" d="M1002.9164,-161.7877C1025.9363,-140.9936 1059.6607,-103.3852 1036.5,-78 977.5402,-13.3774 730.0272,-60.3696 644.5,-42 640.6074,-41.1639 636.6197,-40.1552 632.6384,-39.0378"/>
<polygon fill="#191970" stroke="#191970" points="633.3975,-35.611 622.8127,-36.073 631.3753,-42.3126 633.3975,-35.611"/>
</g>
<!-- Node28&#45;&gt;Node15 -->
<g id="edge40" class="edge">
<title>Node28&#45;&gt;Node15</title>
<path fill="none" stroke="#191970" d="M1048.5382,-172.9428C1149.0729,-165.786 1338.7436,-148.879 1399.5,-120 1424.2085,-108.2555 1419.2507,-88.5318 1444.5,-78 1538.199,-38.9171 2257.0875,-56.9766 2357.5,-42 2363.8378,-41.0547 2370.3969,-39.8009 2376.9076,-38.3748"/>
<polygon fill="#191970" stroke="#191970" points="2378.114,-41.6876 2387.0601,-36.0116 2376.527,-34.8699 2378.114,-41.6876"/>
</g>
<!-- Node28&#45;&gt;Node17 -->
<g id="edge42" class="edge">
<title>Node28&#45;&gt;Node17</title>
<path fill="none" stroke="#191970" d="M1048.6962,-164.0836C1072.9432,-155.7474 1098.1257,-142.1361 1112.5,-120 1122.666,-104.3445 1124.7753,-92.0628 1112.5,-78 1073.5635,-33.3936 906.538,-53.7203 848.5,-42 843.2592,-40.9417 837.8494,-39.7328 832.4372,-38.4417"/>
<polygon fill="#191970" stroke="#191970" points="833.2762,-35.0438 822.7287,-36.0437 831.5976,-41.8396 833.2762,-35.0438"/>
</g>
<!-- Node28&#45;&gt;Node20 -->
<g id="edge44" class="edge">
<title>Node28&#45;&gt;Node20</title>
<path fill="none" stroke="#191970" d="M920.2013,-174.6734C740.7653,-167.8729 243.2021,-146.8057 174.5,-120 132.3063,-103.5372 93.1628,-67.3855 70.5555,-43.6256"/>
<polygon fill="#191970" stroke="#191970" points="72.9168,-41.0254 63.542,-36.0893 67.7924,-45.7942 72.9168,-41.0254"/>
</g>
<!-- Node28&#45;&gt;Node23 -->
<g id="edge45" class="edge">
<title>Node28&#45;&gt;Node23</title>
<path fill="none" stroke="#191970" d="M1048.7591,-172.1261C1141.9854,-164.252 1309.5065,-146.849 1363.5,-120 1387.4206,-108.1052 1381.9814,-88.6073 1406.5,-78 1577.3674,-4.0789 2060.965,-78.6193 2243.5,-42 2247.3452,-41.2286 2251.2761,-40.2382 2255.1865,-39.1086"/>
<polygon fill="#191970" stroke="#191970" points="2256.3297,-42.418 2264.8046,-36.0599 2254.2145,-35.7452 2256.3297,-42.418"/>
</g>
<!-- Node29 -->
<g id="node30" class="node">
<title>Node29</title>
<polygon fill="#ffffff" stroke="#bfbfbf" points="235.5,-89.5 235.5,-108.5 281.5,-108.5 281.5,-89.5 235.5,-89.5"/>
<text text-anchor="middle" x="258.5" y="-96.5" font-family="Helvetica,sans-Serif" font-size="10.00" fill="#000000">atomic</text>
</g>
<!-- Node28&#45;&gt;Node29 -->
<g id="edge30" class="edge">
<title>Node28&#45;&gt;Node29</title>
<path fill="none" stroke="#191970" d="M920.3013,-175.7636C771.3072,-172.2471 405.9588,-159.7221 290.5,-120 286.3293,-118.5651 282.1701,-116.4626 278.2969,-114.1351"/>
<polygon fill="#191970" stroke="#191970" points="280.1611,-111.1711 269.9074,-108.5042 276.26,-116.9833 280.1611,-111.1711"/>
</g>
<!-- Node30 -->
<g id="node31" class="node">
<title>Node30</title>
<polygon fill="#ffffff" stroke="#bfbfbf" points="300,-89.5 300,-108.5 349,-108.5 349,-89.5 300,-89.5"/>
<text text-anchor="middle" x="324.5" y="-96.5" font-family="Helvetica,sans-Serif" font-size="10.00" fill="#000000">random</text>
</g>
<!-- Node28&#45;&gt;Node30 -->
<g id="edge33" class="edge">
<title>Node28&#45;&gt;Node30</title>
<path fill="none" stroke="#191970" d="M920.3992,-175.0024C782.211,-170.0768 460.4342,-155.1075 357.5,-120 353.3062,-118.5696 349.1064,-116.5041 345.1761,-114.2202"/>
<polygon fill="#191970" stroke="#191970" points="346.9221,-111.1813 336.6242,-108.6907 343.1213,-117.0596 346.9221,-111.1813"/>
</g>
<!-- Node31 -->
<g id="node32" class="node">
<title>Node31</title>
<polygon fill="#ffffff" stroke="#bfbfbf" points="367,-78.5 367,-119.5 486,-119.5 486,-78.5 367,-78.5"/>
<text text-anchor="start" x="375" y="-107.5" font-family="Helvetica,sans-Serif" font-size="10.00" fill="#000000">tensorflow/compiler</text>
<text text-anchor="start" x="375" y="-96.5" font-family="Helvetica,sans-Serif" font-size="10.00" fill="#000000">/xla/service/hlo_module</text>
<text text-anchor="middle" x="426.5" y="-85.5" font-family="Helvetica,sans-Serif" font-size="10.00" fill="#000000">_config.h</text>
</g>
<!-- Node28&#45;&gt;Node31 -->
<g id="edge41" class="edge">
<title>Node28&#45;&gt;Node31</title>
<path fill="none" stroke="#191970" d="M920.4678,-173.3156C828.2439,-167.1802 652.7313,-152.4066 495.8687,-120.1171"/>
<polygon fill="#191970" stroke="#191970" points="496.5456,-116.683 486.0414,-118.0658 495.1152,-123.5353 496.5456,-116.683"/>
</g>
<!-- Node32 -->
<g id="node33" class="node">
<title>Node32</title>
<polygon fill="#ffffff" stroke="#bfbfbf" points="504,-78.5 504,-119.5 621,-119.5 621,-78.5 504,-78.5"/>
<text text-anchor="start" x="512" y="-107.5" font-family="Helvetica,sans-Serif" font-size="10.00" fill="#000000">tensorflow/compiler</text>
<text text-anchor="start" x="512" y="-96.5" font-family="Helvetica,sans-Serif" font-size="10.00" fill="#000000">/xla/service/versioned</text>
<text text-anchor="middle" x="562.5" y="-85.5" font-family="Helvetica,sans-Serif" font-size="10.00" fill="#000000">_computation_handle.h</text>
</g>
<!-- Node28&#45;&gt;Node32 -->
<g id="edge43" class="edge">
<title>Node28&#45;&gt;Node32</title>
<path fill="none" stroke="#191970" d="M920.4702,-169.5515C851.1277,-160.8506 737.2084,-144.7143 631.1056,-120.2401"/>
<polygon fill="#191970" stroke="#191970" points="631.7271,-116.7911 621.193,-117.9235 630.1341,-123.6074 631.7271,-116.7911"/>
</g>
<!-- Node33 -->
<g id="node34" class="node">
<title>Node33</title>
<polygon fill="#ffffff" stroke="#bfbfbf" points="639,-84 639,-114 740,-114 740,-84 639,-84"/>
<text text-anchor="start" x="647" y="-102" font-family="Helvetica,sans-Serif" font-size="10.00" fill="#000000">tensorflow/core/lib</text>
<text text-anchor="middle" x="689.5" y="-91" font-family="Helvetica,sans-Serif" font-size="10.00" fill="#000000">/gtl/iterator_range.h</text>
</g>
<!-- Node28&#45;&gt;Node33 -->
<g id="edge46" class="edge">
<title>Node28&#45;&gt;Node33</title>
<path fill="none" stroke="#191970" d="M920.2116,-163.2072C872.7216,-152.5833 806.6702,-136.8933 749.5,-120 746.5779,-119.1365 743.5881,-118.215 740.5794,-117.2581"/>
<polygon fill="#191970" stroke="#191970" points="741.5575,-113.8956 730.9648,-114.1088 739.3784,-120.5478 741.5575,-113.8956"/>
</g>
<!-- Node28&#45;&gt;Node34 -->
<g id="edge47" class="edge">
<title>Node28&#45;&gt;Node34</title>
<path fill="none" stroke="#191970" d="M1048.6945,-169.6699C1136.0967,-159.507 1297.3673,-140.1049 1434.5,-120 1452.2003,-117.405 1471.2566,-114.3602 1489.0567,-111.4068"/>
<polygon fill="#191970" stroke="#191970" points="1490.0862,-114.7834 1499.3723,-109.6825 1488.9321,-107.8792 1490.0862,-114.7834"/>
</g>
<!-- Node35 -->
<g id="node36" class="node">
<title>Node35</title>
<polygon fill="#ffffff" stroke="#bfbfbf" points="758.5,-84 758.5,-114 880.5,-114 880.5,-84 758.5,-84"/>
<text text-anchor="start" x="766.5" y="-102" font-family="Helvetica,sans-Serif" font-size="10.00" fill="#000000">tensorflow/core/platform</text>
<text text-anchor="middle" x="819.5" y="-91" font-family="Helvetica,sans-Serif" font-size="10.00" fill="#000000">/mutex.h</text>
</g>
<!-- Node28&#45;&gt;Node35 -->
<g id="edge48" class="edge">
<title>Node28&#45;&gt;Node35</title>
<path fill="none" stroke="#191970" d="M952.6863,-161.9608C926.5202,-149.5913 889.2475,-131.9716 860.7836,-118.5159"/>
<polygon fill="#191970" stroke="#191970" points="862.0336,-115.2355 851.4971,-114.1259 859.0419,-121.564 862.0336,-115.2355"/>
</g>
</g>
</svg>
