<?xml version="1.0" encoding="UTF-8" standalone="no"?>
<!DOCTYPE svg PUBLIC "-//W3C//DTD SVG 1.1//EN"
 "http://www.w3.org/Graphics/SVG/1.1/DTD/svg11.dtd">
<!-- Generated by graphviz version 2.40.1 (20161225.0304)
 -->
<!-- Title: tensorflow/tensorflow/compiler/xla/service/hlo_dce.cc Pages: 1 -->
<!--zoomable 195 -->
<svg id="main" version="1.1" xmlns="http://www.w3.org/2000/svg" xmlns:xlink="http://www.w3.org/1999/xlink" xml:space="preserve" onload="init(evt)">
<style type="text/css"><![CDATA[
.edge:hover path { stroke: red; }
.edge:hover polygon { stroke: red; fill: red; }
]]></style>
<script type="text/javascript"><![CDATA[
var edges = document.getElementsByTagName('g');
if (edges && edges.length) {
  for (var i=0;i<edges.length;i++) {
    if (edges[i].id.substr(0,4)=='edge') {
      edges[i].setAttribute('class','edge');
    }
  }
}
]]></script>
        <defs>
                <circle id="rim" cx="0" cy="0" r="7"/>
                <circle id="rim2" cx="0" cy="0" r="3.5"/>
                <g id="zoomPlus">
                        <use xlink:href="#rim" fill="#404040">
                                <set attributeName="fill" to="#808080" begin="zoomplus.mouseover" end="zoomplus.mouseout"/>
                        </use>
                        <path d="M-4,0h8M0,-4v8" fill="none" stroke="white" stroke-width="1.5" pointer-events="none"/>
                </g>
                <g id="zoomMin">
                        <use xlink:href="#rim" fill="#404040">
                                <set attributeName="fill" to="#808080" begin="zoomminus.mouseover" end="zoomminus.mouseout"/>
                        </use>
                        <path d="M-4,0h8" fill="none" stroke="white" stroke-width="1.5" pointer-events="none"/>
                </g>
                <g id="dirArrow">
                        <path fill="none" stroke="white" stroke-width="1.5" d="M0,-3.0v7 M-2.5,-0.5L0,-3.0L2.5,-0.5"/>
                </g>
               <g id="resetDef">
                       <use xlink:href="#rim2" fill="#404040">
                               <set attributeName="fill" to="#808080" begin="reset.mouseover" end="reset.mouseout"/>
                       </use>
               </g>
        </defs>

<script type="text/javascript">
var viewWidth = 1692;
var viewHeight = 195;
var sectionId = 'dynsection-0';
</script>
<script xlink:href="../../svgpan.js"/>
<svg id="graph" class="graph">
<g id="viewport">
<title>tensorflow/tensorflow/compiler/xla/service/hlo_dce.cc</title>
<polygon fill="#ffffff" stroke="transparent" points="-4,4 -4,-191 1687.5,-191 1687.5,4 -4,4"/>
<!-- Node0 -->
<g id="node1" class="node">
<title>Node0</title>
<polygon fill="#bfbfbf" stroke="#000000" points="691.5,-145.5 691.5,-186.5 801.5,-186.5 801.5,-145.5 691.5,-145.5"/>
<text text-anchor="start" x="699.5" y="-174.5" font-family="Helvetica,sans-Serif" font-size="10.00" fill="#000000">tensorflow/tensorflow</text>
<text text-anchor="start" x="699.5" y="-163.5" font-family="Helvetica,sans-Serif" font-size="10.00" fill="#000000">/compiler/xla/service</text>
<text text-anchor="middle" x="746.5" y="-152.5" font-family="Helvetica,sans-Serif" font-size="10.00" fill="#000000">/hlo_dce.cc</text>
</g>
<!-- Node1 -->
<g id="node2" class="node">
<title>Node1</title>
<g id="a_node2"><a xlink:href="../../da/d99/hlo__dce_8h.html" target="_top" xlink:title="tensorflow/compiler\l/xla/service/hlo_dce.h">
<polygon fill="#ffffff" stroke="#000000" points="324.5,-78.5 324.5,-108.5 436.5,-108.5 436.5,-78.5 324.5,-78.5"/>
<text text-anchor="start" x="332.5" y="-96.5" font-family="Helvetica,sans-Serif" font-size="10.00" fill="#000000">tensorflow/compiler</text>
<text text-anchor="middle" x="380.5" y="-85.5" font-family="Helvetica,sans-Serif" font-size="10.00" fill="#000000">/xla/service/hlo_dce.h</text>
</a>
</g>
</g>
<!-- Node0&#45;&gt;Node1 -->
<g id="edge1" class="edge">
<title>Node0&#45;&gt;Node1</title>
<path fill="none" stroke="#191970" d="M691.3096,-155.8443C631.7895,-144.7818 534.2889,-126.3407 450.5,-109 449.2316,-108.7375 447.9506,-108.4707 446.6603,-108.2005"/>
<polygon fill="#191970" stroke="#191970" points="447.1433,-104.7251 436.6346,-106.0731 445.6903,-111.5726 447.1433,-104.7251"/>
</g>
<!-- Node2 -->
<g id="node3" class="node">
<title>Node2</title>
<polygon fill="#ffffff" stroke="#bfbfbf" points="0,-6 0,-36 149,-36 149,-6 0,-6"/>
<text text-anchor="start" x="8" y="-24" font-family="Helvetica,sans-Serif" font-size="10.00" fill="#000000">tensorflow/compiler</text>
<text text-anchor="middle" x="74.5" y="-13" font-family="Helvetica,sans-Serif" font-size="10.00" fill="#000000">/xla/service/hlo_computation.h</text>
</g>
<!-- Node0&#45;&gt;Node2 -->
<g id="edge11" class="edge">
<title>Node0&#45;&gt;Node2</title>
<path fill="none" stroke="#191970" d="M691.3438,-164.5732C602.1958,-161.1105 421.5752,-149.284 274.5,-109 214.7165,-92.6253 149.7696,-61.3023 110.6068,-40.7847"/>
<polygon fill="#191970" stroke="#191970" points="112.1767,-37.6557 101.701,-36.0717 108.9025,-43.8427 112.1767,-37.6557"/>
</g>
<!-- Node3 -->
<g id="node4" class="node">
<title>Node3</title>
<polygon fill="#ffffff" stroke="#bfbfbf" points="167,-6 167,-36 308,-36 308,-6 167,-6"/>
<text text-anchor="start" x="175" y="-24" font-family="Helvetica,sans-Serif" font-size="10.00" fill="#000000">tensorflow/compiler</text>
<text text-anchor="middle" x="237.5" y="-13" font-family="Helvetica,sans-Serif" font-size="10.00" fill="#000000">/xla/service/hlo_instruction.h</text>
</g>
<!-- Node0&#45;&gt;Node3 -->
<g id="edge12" class="edge">
<title>Node0&#45;&gt;Node3</title>
<path fill="none" stroke="#191970" d="M691.1531,-163.47C589.929,-158.0659 379.4829,-143.0068 315.5,-109 287.7049,-94.227 265.0969,-65.3277 251.5102,-44.6769"/>
<polygon fill="#191970" stroke="#191970" points="254.3962,-42.6924 246.0835,-36.1235 248.4854,-46.4425 254.3962,-42.6924"/>
</g>
<!-- Node4 -->
<g id="node5" class="node">
<title>Node4</title>
<polygon fill="#ffffff" stroke="#bfbfbf" points="453.5,-6 453.5,-36 581.5,-36 581.5,-6 453.5,-6"/>
<text text-anchor="start" x="461.5" y="-24" font-family="Helvetica,sans-Serif" font-size="10.00" fill="#000000">tensorflow/compiler</text>
<text text-anchor="middle" x="517.5" y="-13" font-family="Helvetica,sans-Serif" font-size="10.00" fill="#000000">/xla/service/hlo_module.h</text>
</g>
<!-- Node0&#45;&gt;Node4 -->
<g id="edge13" class="edge">
<title>Node0&#45;&gt;Node4</title>
<path fill="none" stroke="#191970" d="M691.3987,-160.4201C629.102,-152.8406 533.4619,-136.9256 511.5,-109 497.6182,-91.3486 501.6091,-65.0439 507.5516,-45.7917"/>
<polygon fill="#191970" stroke="#191970" points="510.9126,-46.7807 510.8524,-36.186 504.2926,-44.5058 510.9126,-46.7807"/>
</g>
<!-- Node6 -->
<g id="node7" class="node">
<title>Node6</title>
<polygon fill="#ffffff" stroke="#bfbfbf" points="600,-6 600,-36 701,-36 701,-6 600,-6"/>
<text text-anchor="start" x="608" y="-24" font-family="Helvetica,sans-Serif" font-size="10.00" fill="#000000">tensorflow/compiler</text>
<text text-anchor="middle" x="650.5" y="-13" font-family="Helvetica,sans-Serif" font-size="10.00" fill="#000000">/xla/statusor.h</text>
</g>
<!-- Node0&#45;&gt;Node6 -->
<g id="edge17" class="edge">
<title>Node0&#45;&gt;Node6</title>
<path fill="none" stroke="#191970" d="M691.3182,-159.7505C631.6183,-151.7195 542.1655,-135.5536 521.5,-109 513.038,-98.127 513.9798,-89.5444 521.5,-78 526.3252,-70.5927 566.7621,-53.402 601.0944,-39.824"/>
<polygon fill="#191970" stroke="#191970" points="602.551,-43.0123 610.5814,-36.1012 599.9939,-36.4961 602.551,-43.0123"/>
</g>
<!-- Node7 -->
<g id="node8" class="node">
<title>Node7</title>
<polygon fill="#ffffff" stroke="#bfbfbf" points="530.5,-84 530.5,-103 582.5,-103 582.5,-84 530.5,-84"/>
<text text-anchor="middle" x="556.5" y="-91" font-family="Helvetica,sans-Serif" font-size="10.00" fill="#000000">memory</text>
</g>
<!-- Node0&#45;&gt;Node7 -->
<g id="edge7" class="edge">
<title>Node0&#45;&gt;Node7</title>
<path fill="none" stroke="#191970" d="M691.2926,-146.6757C661.5493,-136.0195 624.3221,-122.2867 591.5,-109 589.933,-108.3657 588.3319,-107.7044 586.7189,-107.0277"/>
<polygon fill="#191970" stroke="#191970" points="588.0746,-103.8009 577.5053,-103.0653 585.3091,-110.2314 588.0746,-103.8009"/>
</g>
<!-- Node8 -->
<g id="node9" class="node">
<title>Node8</title>
<polygon fill="#ffffff" stroke="#bfbfbf" points="600.5,-84 600.5,-103 678.5,-103 678.5,-84 600.5,-84"/>
<text text-anchor="middle" x="639.5" y="-91" font-family="Helvetica,sans-Serif" font-size="10.00" fill="#000000">unordered_set</text>
</g>
<!-- Node0&#45;&gt;Node8 -->
<g id="edge8" class="edge">
<title>Node0&#45;&gt;Node8</title>
<path fill="none" stroke="#191970" d="M716.1243,-145.4183C698.9771,-133.7999 677.9054,-119.5223 662.202,-108.8822"/>
<polygon fill="#191970" stroke="#191970" points="663.8886,-105.7972 653.6467,-103.0853 659.962,-111.5922 663.8886,-105.7972"/>
</g>
<!-- Node9 -->
<g id="node10" class="node">
<title>Node9</title>
<polygon fill="#ffffff" stroke="#bfbfbf" points="696.5,-84 696.5,-103 736.5,-103 736.5,-84 696.5,-84"/>
<text text-anchor="middle" x="716.5" y="-91" font-family="Helvetica,sans-Serif" font-size="10.00" fill="#000000">utility</text>
</g>
<!-- Node0&#45;&gt;Node9 -->
<g id="edge9" class="edge">
<title>Node0&#45;&gt;Node9</title>
<path fill="none" stroke="#191970" d="M737.9834,-145.4183C733.715,-135.1029 728.5792,-122.6913 724.3995,-112.5904"/>
<polygon fill="#191970" stroke="#191970" points="727.524,-110.9873 720.4664,-103.0853 721.0559,-113.6638 727.524,-110.9873"/>
</g>
<!-- Node10 -->
<g id="node11" class="node">
<title>Node10</title>
<polygon fill="#ffffff" stroke="#bfbfbf" points="754.5,-84 754.5,-103 798.5,-103 798.5,-84 754.5,-84"/>
<text text-anchor="middle" x="776.5" y="-91" font-family="Helvetica,sans-Serif" font-size="10.00" fill="#000000">vector</text>
</g>
<!-- Node0&#45;&gt;Node10 -->
<g id="edge10" class="edge">
<title>Node0&#45;&gt;Node10</title>
<path fill="none" stroke="#191970" d="M755.0166,-145.4183C759.285,-135.1029 764.4208,-122.6913 768.6005,-112.5904"/>
<polygon fill="#191970" stroke="#191970" points="771.9441,-113.6638 772.5336,-103.0853 765.476,-110.9873 771.9441,-113.6638"/>
</g>
<!-- Node11 -->
<g id="node12" class="node">
<title>Node11</title>
<polygon fill="#ffffff" stroke="#bfbfbf" points="816.5,-78.5 816.5,-108.5 944.5,-108.5 944.5,-78.5 816.5,-78.5"/>
<text text-anchor="start" x="824.5" y="-96.5" font-family="Helvetica,sans-Serif" font-size="10.00" fill="#000000">tensorflow/compiler</text>
<text text-anchor="middle" x="880.5" y="-85.5" font-family="Helvetica,sans-Serif" font-size="10.00" fill="#000000">/xla/service/hlo_opcode.h</text>
</g>
<!-- Node0&#45;&gt;Node11 -->
<g id="edge14" class="edge">
<title>Node0&#45;&gt;Node11</title>
<path fill="none" stroke="#191970" d="M784.5406,-145.4183C803.0744,-135.3907 825.2693,-123.3823 843.6432,-113.4412"/>
<polygon fill="#191970" stroke="#191970" points="845.463,-116.4361 852.5927,-108.5991 842.1319,-110.2794 845.463,-116.4361"/>
</g>
<!-- Node12 -->
<g id="node13" class="node">
<title>Node12</title>
<polygon fill="#ffffff" stroke="#bfbfbf" points="963,-78.5 963,-108.5 1064,-108.5 1064,-78.5 963,-78.5"/>
<text text-anchor="start" x="971" y="-96.5" font-family="Helvetica,sans-Serif" font-size="10.00" fill="#000000">tensorflow/compiler</text>
<text text-anchor="middle" x="1013.5" y="-85.5" font-family="Helvetica,sans-Serif" font-size="10.00" fill="#000000">/xla/status.h</text>
</g>
<!-- Node0&#45;&gt;Node12 -->
<g id="edge15" class="edge">
<title>Node0&#45;&gt;Node12</title>
<path fill="none" stroke="#191970" d="M801.8226,-150.978C845.9369,-138.9993 907.636,-122.2459 953.0448,-109.9157"/>
<polygon fill="#191970" stroke="#191970" points="954.0306,-113.2749 962.764,-107.2766 952.1963,-106.5195 954.0306,-113.2749"/>
</g>
<!-- Node13 -->
<g id="node14" class="node">
<title>Node13</title>
<polygon fill="#ffffff" stroke="#bfbfbf" points="1082.5,-78.5 1082.5,-108.5 1190.5,-108.5 1190.5,-78.5 1082.5,-78.5"/>
<text text-anchor="start" x="1090.5" y="-96.5" font-family="Helvetica,sans-Serif" font-size="10.00" fill="#000000">tensorflow/compiler</text>
<text text-anchor="middle" x="1136.5" y="-85.5" font-family="Helvetica,sans-Serif" font-size="10.00" fill="#000000">/xla/status_macros.h</text>
</g>
<!-- Node0&#45;&gt;Node13 -->
<g id="edge16" class="edge">
<title>Node0&#45;&gt;Node13</title>
<path fill="none" stroke="#191970" d="M801.6852,-157.5663C864.7706,-147.6604 971.3252,-130.1244 1072.2012,-109.1976"/>
<polygon fill="#191970" stroke="#191970" points="1073.1854,-112.5677 1082.258,-107.0959 1071.7534,-105.7157 1073.1854,-112.5677"/>
</g>
<!-- Node14 -->
<g id="node15" class="node">
<title>Node14</title>
<polygon fill="#ffffff" stroke="#bfbfbf" points="1209,-78.5 1209,-108.5 1310,-108.5 1310,-78.5 1209,-78.5"/>
<text text-anchor="start" x="1217" y="-96.5" font-family="Helvetica,sans-Serif" font-size="10.00" fill="#000000">tensorflow/compiler</text>
<text text-anchor="middle" x="1259.5" y="-85.5" font-family="Helvetica,sans-Serif" font-size="10.00" fill="#000000">/xla/types.h</text>
</g>
<!-- Node0&#45;&gt;Node14 -->
<g id="edge18" class="edge">
<title>Node0&#45;&gt;Node14</title>
<path fill="none" stroke="#191970" d="M801.5938,-161.3546C885.3033,-153.7948 1049.6268,-136.991 1198.6191,-109.0121"/>
<polygon fill="#191970" stroke="#191970" points="1199.6929,-112.3708 1208.8639,-107.0658 1198.3863,-105.4938 1199.6929,-112.3708"/>
</g>
<!-- Node15 -->
<g id="node16" class="node">
<title>Node15</title>
<polygon fill="#ffffff" stroke="#bfbfbf" points="1328,-78.5 1328,-108.5 1429,-108.5 1429,-78.5 1328,-78.5"/>
<text text-anchor="start" x="1336" y="-96.5" font-family="Helvetica,sans-Serif" font-size="10.00" fill="#000000">tensorflow/compiler</text>
<text text-anchor="middle" x="1378.5" y="-85.5" font-family="Helvetica,sans-Serif" font-size="10.00" fill="#000000">/xla/util.h</text>
</g>
<!-- Node0&#45;&gt;Node15 -->
<g id="edge19" class="edge">
<title>Node0&#45;&gt;Node15</title>
<path fill="none" stroke="#191970" d="M801.8133,-163.4032C902.7574,-158.0334 1123.6127,-143.3709 1317.6677,-109.1735"/>
<polygon fill="#191970" stroke="#191970" points="1318.535,-112.5742 1327.7647,-107.372 1317.3054,-105.683 1318.535,-112.5742"/>
</g>
<!-- Node16 -->
<g id="node17" class="node">
<title>Node16</title>
<polygon fill="#ffffff" stroke="#bfbfbf" points="1447.5,-78.5 1447.5,-108.5 1543.5,-108.5 1543.5,-78.5 1447.5,-78.5"/>
<text text-anchor="start" x="1455.5" y="-96.5" font-family="Helvetica,sans-Serif" font-size="10.00" fill="#000000">tensorflow/core/lib</text>
<text text-anchor="middle" x="1495.5" y="-85.5" font-family="Helvetica,sans-Serif" font-size="10.00" fill="#000000">/core/errors.h</text>
</g>
<!-- Node0&#45;&gt;Node16 -->
<g id="edge20" class="edge">
<title>Node0&#45;&gt;Node16</title>
<path fill="none" stroke="#191970" d="M801.6576,-164.8822C917.8503,-161.7896 1196.2613,-150.4956 1437.4312,-108.9788"/>
<polygon fill="#191970" stroke="#191970" points="1438.1874,-112.3999 1447.438,-107.2349 1436.9856,-105.5038 1438.1874,-112.3999"/>
</g>
<!-- Node17 -->
<g id="node18" class="node">
<title>Node17</title>
<polygon fill="#ffffff" stroke="#bfbfbf" points="1561.5,-78.5 1561.5,-108.5 1683.5,-108.5 1683.5,-78.5 1561.5,-78.5"/>
<text text-anchor="start" x="1569.5" y="-96.5" font-family="Helvetica,sans-Serif" font-size="10.00" fill="#000000">tensorflow/core/platform</text>
<text text-anchor="middle" x="1622.5" y="-85.5" font-family="Helvetica,sans-Serif" font-size="10.00" fill="#000000">/logging.h</text>
</g>
<!-- Node0&#45;&gt;Node17 -->
<g id="edge21" class="edge">
<title>Node0&#45;&gt;Node17</title>
<path fill="none" stroke="#191970" d="M801.5266,-164.899C930.8321,-161.7126 1264.1443,-150.0146 1550.9517,-109.0924"/>
<polygon fill="#191970" stroke="#191970" points="1551.7361,-112.5156 1561.1343,-107.6244 1550.7371,-105.5873 1551.7361,-112.5156"/>
</g>
<!-- Node1&#45;&gt;Node2 -->
<g id="edge2" class="edge">
<title>Node1&#45;&gt;Node2</title>
<path fill="none" stroke="#191970" d="M324.0586,-80.8072C278.9307,-70.5762 214.0783,-55.6891 157.5,-42 152.8679,-40.8793 148.0942,-39.7099 143.287,-38.5216"/>
<polygon fill="#191970" stroke="#191970" points="143.9561,-35.0814 133.407,-36.0654 142.2672,-41.8747 143.9561,-35.0814"/>
</g>
<!-- Node1&#45;&gt;Node3 -->
<g id="edge3" class="edge">
<title>Node1&#45;&gt;Node3</title>
<path fill="none" stroke="#191970" d="M350.8703,-78.478C329.204,-67.4933 299.6179,-52.4933 276.1026,-40.5712"/>
<polygon fill="#191970" stroke="#191970" points="277.5936,-37.4031 267.0917,-36.0028 274.4282,-43.6465 277.5936,-37.4031"/>
</g>
<!-- Node1&#45;&gt;Node4 -->
<g id="edge4" class="edge">
<title>Node1&#45;&gt;Node4</title>
<path fill="none" stroke="#191970" d="M408.8865,-78.478C429.5518,-67.5419 457.7378,-52.626 480.2177,-40.7297"/>
<polygon fill="#191970" stroke="#191970" points="481.9483,-43.7738 489.1499,-36.0028 478.6741,-37.5867 481.9483,-43.7738"/>
</g>
<!-- Node5 -->
<g id="node6" class="node">
<title>Node5</title>
<polygon fill="#ffffff" stroke="#bfbfbf" points="326,-.5 326,-41.5 435,-41.5 435,-.5 326,-.5"/>
<text text-anchor="start" x="334" y="-29.5" font-family="Helvetica,sans-Serif" font-size="10.00" fill="#000000">tensorflow/compiler</text>
<text text-anchor="start" x="334" y="-18.5" font-family="Helvetica,sans-Serif" font-size="10.00" fill="#000000">/xla/service/hlo_pass</text>
<text text-anchor="middle" x="380.5" y="-7.5" font-family="Helvetica,sans-Serif" font-size="10.00" fill="#000000">_interface.h</text>
</g>
<!-- Node1&#45;&gt;Node5 -->
<g id="edge5" class="edge">
<title>Node1&#45;&gt;Node5</title>
<path fill="none" stroke="#191970" d="M380.5,-78.478C380.5,-70.7032 380.5,-60.9168 380.5,-51.634"/>
<polygon fill="#191970" stroke="#191970" points="384.0001,-51.5015 380.5,-41.5015 377.0001,-51.5015 384.0001,-51.5015"/>
</g>
<!-- Node1&#45;&gt;Node6 -->
<g id="edge6" class="edge">
<title>Node1&#45;&gt;Node6</title>
<path fill="none" stroke="#191970" d="M436.6027,-81.2862C479.1282,-71.6561 538.8596,-57.3305 590.5,-42 593.421,-41.1328 596.4099,-40.2084 599.418,-39.2493"/>
<polygon fill="#191970" stroke="#191970" points="600.6208,-42.5383 609.0311,-36.0949 598.4383,-35.8872 600.6208,-42.5383"/>
</g>
</g>
</svg>
        <g id="navigator" transform="translate(0 0)" fill="#404254">
                <rect fill="#f2f5e9" fill-opacity="0.5" stroke="#606060" stroke-width=".5" x="0" y="0" width="60" height="60"/>
                <use id="zoomplus" xlink:href="#zoomPlus" x="17" y="9" onmousedown="handleZoom(evt,'in')"/>
                <use id="zoomminus" xlink:href="#zoomMin" x="42" y="9" onmousedown="handleZoom(evt,'out')"/>
                <use id="reset" xlink:href="#resetDef" x="30" y="36" onmousedown="handleReset()"/>
                <g id="arrowUp" xlink:href="#dirArrow" transform="translate(30 24)" onmousedown="handlePan(0,-1)">
                  <use xlink:href="#rim" fill="#404040">
                        <set attributeName="fill" to="#808080" begin="arrowUp.mouseover" end="arrowUp.mouseout"/>
                  </use>
                  <path fill="none" stroke="white" stroke-width="1.5" d="M0,-3.0v7 M-2.5,-0.5L0,-3.0L2.5,-0.5"/>
                </g>
                <g id="arrowRight" xlink:href="#dirArrow" transform="rotate(90) translate(36 -43)" onmousedown="handlePan(1,0)">
                  <use xlink:href="#rim" fill="#404040">
                        <set attributeName="fill" to="#808080" begin="arrowRight.mouseover" end="arrowRight.mouseout"/>
                  </use>
                  <path fill="none" stroke="white" stroke-width="1.5" d="M0,-3.0v7 M-2.5,-0.5L0,-3.0L2.5,-0.5"/>
                </g>
                <g id="arrowDown" xlink:href="#dirArrow" transform="rotate(180) translate(-30 -48)" onmousedown="handlePan(0,1)">
                  <use xlink:href="#rim" fill="#404040">
                        <set attributeName="fill" to="#808080" begin="arrowDown.mouseover" end="arrowDown.mouseout"/>
                  </use>
                  <path fill="none" stroke="white" stroke-width="1.5" d="M0,-3.0v7 M-2.5,-0.5L0,-3.0L2.5,-0.5"/>
                </g>
                <g id="arrowLeft" xlink:href="#dirArrow" transform="rotate(270) translate(-36 17)" onmousedown="handlePan(-1,0)">
                  <use xlink:href="#rim" fill="#404040">
                        <set attributeName="fill" to="#808080" begin="arrowLeft.mouseover" end="arrowLeft.mouseout"/>
                  </use>
                  <path fill="none" stroke="white" stroke-width="1.5" d="M0,-3.0v7 M-2.5,-0.5L0,-3.0L2.5,-0.5"/>
                </g>
        </g>
        <svg viewBox="0 0 15 15" width="100%" height="30px" preserveAspectRatio="xMaxYMin meet">
         <g id="arrow_out" transform="scale(0.3 0.3)">
          <a xlink:href="hlo__dce_8cc__incl_org.svg" target="_base">
           <rect id="button" ry="5" rx="5" y="6" x="6" height="38" width="38"
                fill="#f2f5e9" fill-opacity="0.5" stroke="#606060" stroke-width="1.0"/>
           <path id="arrow"
             d="M 11.500037,31.436501 C 11.940474,20.09759 22.043105,11.32322 32.158766,21.979434 L 37.068811,17.246167 C 37.068811,17.246167 37.088388,32 37.088388,32 L 22.160133,31.978069 C 22.160133,31.978069 26.997745,27.140456 26.997745,27.140456 C 18.528582,18.264221 13.291696,25.230495 11.500037,31.436501 z"
             style="fill:#404040;"/>
          </a>
         </g>
        </svg>
</svg>
