<?xml version="1.0" encoding="UTF-8" standalone="no"?>
<!DOCTYPE svg PUBLIC "-//W3C//DTD SVG 1.1//EN"
 "http://www.w3.org/Graphics/SVG/1.1/DTD/svg11.dtd">
<!-- Generated by graphviz version 2.40.1 (20161225.0304)
 -->
<!-- Title: tensorflow/tensorflow/compiler/xla/service/computation_tracker.h Pages: 1 -->
<svg width="1794pt" height="206pt"
 viewBox="0.00 0.00 1793.50 206.00" xmlns="http://www.w3.org/2000/svg" xmlns:xlink="http://www.w3.org/1999/xlink">
<g id="graph0" class="graph" transform="scale(1 1) rotate(0) translate(4 202)">
<title>tensorflow/tensorflow/compiler/xla/service/computation_tracker.h</title>
<polygon fill="#ffffff" stroke="transparent" points="-4,4 -4,-202 1789.5,-202 1789.5,4 -4,4"/>
<!-- Node0 -->
<g id="node1" class="node">
<title>Node0</title>
<polygon fill="#bfbfbf" stroke="#000000" points="912.5,-156.5 912.5,-197.5 1028.5,-197.5 1028.5,-156.5 912.5,-156.5"/>
<text text-anchor="start" x="920.5" y="-185.5" font-family="Helvetica,sans-Serif" font-size="10.00" fill="#000000">tensorflow/tensorflow</text>
<text text-anchor="start" x="920.5" y="-174.5" font-family="Helvetica,sans-Serif" font-size="10.00" fill="#000000">/compiler/xla/service</text>
<text text-anchor="middle" x="970.5" y="-163.5" font-family="Helvetica,sans-Serif" font-size="10.00" fill="#000000">/computation_tracker.h</text>
</g>
<!-- Node1 -->
<g id="node2" class="node">
<title>Node1</title>
<polygon fill="#ffffff" stroke="#bfbfbf" points="505,-89.5 505,-108.5 534,-108.5 534,-89.5 505,-89.5"/>
<text text-anchor="middle" x="519.5" y="-96.5" font-family="Helvetica,sans-Serif" font-size="10.00" fill="#000000">list</text>
</g>
<!-- Node0&#45;&gt;Node1 -->
<g id="edge1" class="edge">
<title>Node0&#45;&gt;Node1</title>
<path fill="none" stroke="#191970" d="M912.2429,-172.6624C812.4685,-164.6496 613.3664,-145.9461 548.5,-120 544.9433,-118.5773 541.4184,-116.6227 538.1163,-114.4747"/>
<polygon fill="#191970" stroke="#191970" points="540.1669,-111.6383 530.0262,-108.5695 536.0399,-117.2923 540.1669,-111.6383"/>
</g>
<!-- Node2 -->
<g id="node3" class="node">
<title>Node2</title>
<polygon fill="#ffffff" stroke="#bfbfbf" points="0,-11.5 0,-30.5 35,-30.5 35,-11.5 0,-11.5"/>
<text text-anchor="middle" x="17.5" y="-18.5" font-family="Helvetica,sans-Serif" font-size="10.00" fill="#000000">map</text>
</g>
<!-- Node0&#45;&gt;Node2 -->
<g id="edge2" class="edge">
<title>Node0&#45;&gt;Node2</title>
<path fill="none" stroke="#191970" d="M912.3041,-173.7705C817.0155,-167.6318 632.6775,-151.9398 576.5,-120 555.622,-108.1298 563.7889,-89.1163 542.5,-78 444.1456,-26.6431 148.0825,-81.7716 44.5,-42 41.2846,-40.7654 38.1402,-39.0123 35.1998,-37.039"/>
<polygon fill="#191970" stroke="#191970" points="37.1653,-34.1337 27.123,-30.7568 32.8676,-39.6591 37.1653,-34.1337"/>
</g>
<!-- Node3 -->
<g id="node4" class="node">
<title>Node3</title>
<polygon fill="#ffffff" stroke="#bfbfbf" points="53.5,-11.5 53.5,-30.5 105.5,-30.5 105.5,-11.5 53.5,-11.5"/>
<text text-anchor="middle" x="79.5" y="-18.5" font-family="Helvetica,sans-Serif" font-size="10.00" fill="#000000">memory</text>
</g>
<!-- Node0&#45;&gt;Node3 -->
<g id="edge3" class="edge">
<title>Node0&#45;&gt;Node3</title>
<path fill="none" stroke="#191970" d="M912.4463,-172.4007C825.1271,-164.7023 664.8417,-147.31 614.5,-120 592.3733,-107.9964 599.0946,-89.0979 576.5,-78 391.6394,12.7984 310.6955,-104.6505 114.5,-42 109.895,-40.5295 105.2588,-38.3515 100.9352,-35.9474"/>
<polygon fill="#191970" stroke="#191970" points="102.4533,-32.772 92.1026,-30.5105 98.7839,-38.7332 102.4533,-32.772"/>
</g>
<!-- Node4 -->
<g id="node5" class="node">
<title>Node4</title>
<polygon fill="#ffffff" stroke="#bfbfbf" points="1188.5,-89.5 1188.5,-108.5 1218.5,-108.5 1218.5,-89.5 1188.5,-89.5"/>
<text text-anchor="middle" x="1203.5" y="-96.5" font-family="Helvetica,sans-Serif" font-size="10.00" fill="#000000">set</text>
</g>
<!-- Node0&#45;&gt;Node4 -->
<g id="edge4" class="edge">
<title>Node0&#45;&gt;Node4</title>
<path fill="none" stroke="#191970" d="M1028.7442,-166.4691C1070.6599,-157.5374 1127.8027,-142.5345 1174.5,-120 1177.7331,-118.4398 1180.9832,-116.5149 1184.0783,-114.4692"/>
<polygon fill="#191970" stroke="#191970" points="1186.1777,-117.2704 1192.2472,-108.5864 1182.087,-111.5901 1186.1777,-117.2704"/>
</g>
<!-- Node5 -->
<g id="node6" class="node">
<title>Node5</title>
<polygon fill="#ffffff" stroke="#bfbfbf" points="124,-11.5 124,-30.5 165,-30.5 165,-11.5 124,-11.5"/>
<text text-anchor="middle" x="144.5" y="-18.5" font-family="Helvetica,sans-Serif" font-size="10.00" fill="#000000">string</text>
</g>
<!-- Node0&#45;&gt;Node5 -->
<g id="edge5" class="edge">
<title>Node0&#45;&gt;Node5</title>
<path fill="none" stroke="#191970" d="M912.417,-171.1295C833.2262,-162.3612 696.2159,-144.2443 652.5,-120 630.4858,-107.7912 637.0741,-89.1395 614.5,-78 438.1504,9.022 357.9517,-110.1879 173.5,-42 169.845,-40.6488 166.2411,-38.7002 162.8824,-36.5277"/>
<polygon fill="#191970" stroke="#191970" points="164.8282,-33.6141 154.698,-30.5107 160.6819,-39.254 164.8282,-33.6141"/>
</g>
<!-- Node6 -->
<g id="node7" class="node">
<title>Node6</title>
<polygon fill="#ffffff" stroke="#bfbfbf" points="1236.5,-84 1236.5,-114 1364.5,-114 1364.5,-84 1236.5,-84"/>
<text text-anchor="start" x="1244.5" y="-102" font-family="Helvetica,sans-Serif" font-size="10.00" fill="#000000">tensorflow/compiler</text>
<text text-anchor="middle" x="1300.5" y="-91" font-family="Helvetica,sans-Serif" font-size="10.00" fill="#000000">/xla/service/hlo_module.h</text>
</g>
<!-- Node0&#45;&gt;Node6 -->
<g id="edge6" class="edge">
<title>Node0&#45;&gt;Node6</title>
<path fill="none" stroke="#191970" d="M1028.6669,-165.1712C1080.9151,-154.2917 1159.6244,-137.2724 1227.5,-120 1231.5258,-118.9756 1235.6661,-117.8853 1239.8318,-116.7608"/>
<polygon fill="#191970" stroke="#191970" points="1240.84,-120.1136 1249.556,-114.0902 1238.9861,-113.3636 1240.84,-120.1136"/>
</g>
<!-- Node7 -->
<g id="node8" class="node">
<title>Node7</title>
<polygon fill="#ffffff" stroke="#bfbfbf" points="1383,-78.5 1383,-119.5 1502,-119.5 1502,-78.5 1383,-78.5"/>
<text text-anchor="start" x="1391" y="-107.5" font-family="Helvetica,sans-Serif" font-size="10.00" fill="#000000">tensorflow/compiler</text>
<text text-anchor="start" x="1391" y="-96.5" font-family="Helvetica,sans-Serif" font-size="10.00" fill="#000000">/xla/service/hlo_module</text>
<text text-anchor="middle" x="1442.5" y="-85.5" font-family="Helvetica,sans-Serif" font-size="10.00" fill="#000000">_config.h</text>
</g>
<!-- Node0&#45;&gt;Node7 -->
<g id="edge7" class="edge">
<title>Node0&#45;&gt;Node7</title>
<path fill="none" stroke="#191970" d="M1028.7324,-171.6252C1105.5416,-163.9035 1244.9448,-147.7056 1372.8402,-119.9755"/>
<polygon fill="#191970" stroke="#191970" points="1373.7953,-123.3492 1382.8112,-117.7847 1372.2931,-116.5123 1373.7953,-123.3492"/>
</g>
<!-- Node8 -->
<g id="node9" class="node">
<title>Node8</title>
<polygon fill="#ffffff" stroke="#bfbfbf" points="183,-6 183,-36 308,-36 308,-6 183,-6"/>
<text text-anchor="start" x="191" y="-24" font-family="Helvetica,sans-Serif" font-size="10.00" fill="#000000">tensorflow/compiler</text>
<text text-anchor="middle" x="245.5" y="-13" font-family="Helvetica,sans-Serif" font-size="10.00" fill="#000000">/xla/service/session.pb.h</text>
</g>
<!-- Node0&#45;&gt;Node8 -->
<g id="edge8" class="edge">
<title>Node0&#45;&gt;Node8</title>
<path fill="none" stroke="#191970" d="M912.4304,-169.5263C841.8813,-159.7031 727.6719,-141.1891 690.5,-120 668.6306,-107.5338 674.9315,-89.424 652.5,-78 518.6683,-9.8419 463.7785,-71.419 316.5,-42 311.7849,-41.0581 306.9318,-39.9432 302.0817,-38.7258"/>
<polygon fill="#191970" stroke="#191970" points="302.7383,-35.2792 292.1757,-36.1057 300.9483,-42.0465 302.7383,-35.2792"/>
</g>
<!-- Node9 -->
<g id="node10" class="node">
<title>Node9</title>
<g id="a_node10"><a xlink:href="../../d6/d38/user__computation_8h.html" target="_top" xlink:title="tensorflow/compiler\l/xla/service/user_computation.h">
<polygon fill="#ffffff" stroke="#000000" points="743,-84 743,-114 898,-114 898,-84 743,-84"/>
<text text-anchor="start" x="751" y="-102" font-family="Helvetica,sans-Serif" font-size="10.00" fill="#000000">tensorflow/compiler</text>
<text text-anchor="middle" x="820.5" y="-91" font-family="Helvetica,sans-Serif" font-size="10.00" fill="#000000">/xla/service/user_computation.h</text>
</a>
</g>
</g>
<!-- Node0&#45;&gt;Node9 -->
<g id="edge9" class="edge">
<title>Node0&#45;&gt;Node9</title>
<path fill="none" stroke="#191970" d="M930.6966,-156.3022C908.369,-144.6919 880.6591,-130.2828 858.6122,-118.8183"/>
<polygon fill="#191970" stroke="#191970" points="860.0293,-115.6103 849.5424,-114.102 856.7998,-121.8209 860.0293,-115.6103"/>
</g>
<!-- Node13 -->
<g id="node14" class="node">
<title>Node13</title>
<polygon fill="#ffffff" stroke="#bfbfbf" points="326,-.5 326,-41.5 443,-41.5 443,-.5 326,-.5"/>
<text text-anchor="start" x="334" y="-29.5" font-family="Helvetica,sans-Serif" font-size="10.00" fill="#000000">tensorflow/compiler</text>
<text text-anchor="start" x="334" y="-18.5" font-family="Helvetica,sans-Serif" font-size="10.00" fill="#000000">/xla/service/versioned</text>
<text text-anchor="middle" x="384.5" y="-7.5" font-family="Helvetica,sans-Serif" font-size="10.00" fill="#000000">_computation_handle.h</text>
</g>
<!-- Node0&#45;&gt;Node13 -->
<g id="edge26" class="edge">
<title>Node0&#45;&gt;Node13</title>
<path fill="none" stroke="#191970" d="M912.3188,-171.7615C862.3162,-165.2787 789.6158,-151.009 733.5,-120 710.1177,-107.0792 714.4192,-89.8975 690.5,-78 597.2322,-31.6082 558.5368,-64.0343 453.2449,-42.1672"/>
<polygon fill="#191970" stroke="#191970" points="453.7035,-38.6845 443.1853,-39.9564 452.2009,-45.5214 453.7035,-38.6845"/>
</g>
<!-- Node14 -->
<g id="node15" class="node">
<title>Node14</title>
<polygon fill="#ffffff" stroke="#bfbfbf" points="886,-6 886,-36 987,-36 987,-6 886,-6"/>
<text text-anchor="start" x="894" y="-24" font-family="Helvetica,sans-Serif" font-size="10.00" fill="#000000">tensorflow/compiler</text>
<text text-anchor="middle" x="936.5" y="-13" font-family="Helvetica,sans-Serif" font-size="10.00" fill="#000000">/xla/statusor.h</text>
</g>
<!-- Node0&#45;&gt;Node14 -->
<g id="edge27" class="edge">
<title>Node0&#45;&gt;Node14</title>
<path fill="none" stroke="#191970" d="M965.239,-156.4695C962.5209,-145.6459 959.2141,-132.1319 956.5,-120 950.8862,-94.9066 945.1412,-66.0764 941.2574,-46.0245"/>
<polygon fill="#191970" stroke="#191970" points="944.6814,-45.2952 939.3553,-36.1364 937.8074,-46.6176 944.6814,-45.2952"/>
</g>
<!-- Node15 -->
<g id="node16" class="node">
<title>Node15</title>
<polygon fill="#ffffff" stroke="#bfbfbf" points="1005,-6 1005,-36 1106,-36 1106,-6 1005,-6"/>
<text text-anchor="start" x="1013" y="-24" font-family="Helvetica,sans-Serif" font-size="10.00" fill="#000000">tensorflow/compiler</text>
<text text-anchor="middle" x="1055.5" y="-13" font-family="Helvetica,sans-Serif" font-size="10.00" fill="#000000">/xla/types.h</text>
</g>
<!-- Node0&#45;&gt;Node15 -->
<g id="edge28" class="edge">
<title>Node0&#45;&gt;Node15</title>
<path fill="none" stroke="#191970" d="M972.0301,-156.3764C974.3505,-135.4055 980.1411,-102.5878 994.5,-78 1002.3815,-64.504 1014.4457,-52.2646 1025.7708,-42.6176"/>
<polygon fill="#191970" stroke="#191970" points="1028.2691,-45.097 1033.8163,-36.0704 1023.8508,-39.6676 1028.2691,-45.097"/>
</g>
<!-- Node17 -->
<g id="node18" class="node">
<title>Node17</title>
<polygon fill="#ffffff" stroke="#bfbfbf" points="1124,-6 1124,-36 1225,-36 1225,-6 1124,-6"/>
<text text-anchor="start" x="1132" y="-24" font-family="Helvetica,sans-Serif" font-size="10.00" fill="#000000">tensorflow/compiler</text>
<text text-anchor="middle" x="1174.5" y="-13" font-family="Helvetica,sans-Serif" font-size="10.00" fill="#000000">/xla/xla_data.pb.h</text>
</g>
<!-- Node0&#45;&gt;Node17 -->
<g id="edge29" class="edge">
<title>Node0&#45;&gt;Node17</title>
<path fill="none" stroke="#191970" d="M978.8818,-156.0992C988.718,-133.9656 1006.9874,-99.3369 1032.5,-78 1040.0377,-71.696 1086.2976,-53.6381 1124.0011,-39.519"/>
<polygon fill="#191970" stroke="#191970" points="1125.2268,-42.7974 1133.3735,-36.0238 1122.7809,-36.2387 1125.2268,-42.7974"/>
</g>
<!-- Node18 -->
<g id="node19" class="node">
<title>Node18</title>
<polygon fill="#ffffff" stroke="#bfbfbf" points="1243.5,-6 1243.5,-36 1365.5,-36 1365.5,-6 1243.5,-6"/>
<text text-anchor="start" x="1251.5" y="-24" font-family="Helvetica,sans-Serif" font-size="10.00" fill="#000000">tensorflow/core/platform</text>
<text text-anchor="middle" x="1304.5" y="-13" font-family="Helvetica,sans-Serif" font-size="10.00" fill="#000000">/macros.h</text>
</g>
<!-- Node0&#45;&gt;Node18 -->
<g id="edge30" class="edge">
<title>Node0&#45;&gt;Node18</title>
<path fill="none" stroke="#191970" d="M992.2248,-156.3043C1003.4336,-145.5529 1017.2826,-132.1542 1029.5,-120 1047.9936,-101.6022 1047.6923,-90.661 1070.5,-78 1135.7455,-41.781 1162.2657,-60.7349 1234.5,-42 1238.3284,-41.0071 1242.2623,-39.9446 1246.2193,-38.8442"/>
<polygon fill="#191970" stroke="#191970" points="1247.3935,-42.1492 1256.0559,-36.0489 1245.48,-35.4158 1247.3935,-42.1492"/>
</g>
<!-- Node19 -->
<g id="node20" class="node">
<title>Node19</title>
<polygon fill="#ffffff" stroke="#bfbfbf" points="1383.5,-6 1383.5,-36 1505.5,-36 1505.5,-6 1383.5,-6"/>
<text text-anchor="start" x="1391.5" y="-24" font-family="Helvetica,sans-Serif" font-size="10.00" fill="#000000">tensorflow/core/platform</text>
<text text-anchor="middle" x="1444.5" y="-13" font-family="Helvetica,sans-Serif" font-size="10.00" fill="#000000">/mutex.h</text>
</g>
<!-- Node0&#45;&gt;Node19 -->
<g id="edge31" class="edge">
<title>Node0&#45;&gt;Node19</title>
<path fill="none" stroke="#191970" d="M1008.778,-156.319C1026.337,-146.2039 1047.0756,-133.346 1064.5,-120 1085.9623,-103.5612 1084.1373,-89.7185 1108.5,-78 1216.0097,-26.2877 1257.8957,-67.2179 1374.5,-42 1378.945,-41.0387 1383.5176,-39.9349 1388.0949,-38.7473"/>
<polygon fill="#191970" stroke="#191970" points="1389.3422,-42.0354 1398.0752,-36.0366 1387.5074,-35.2801 1389.3422,-42.0354"/>
</g>
<!-- Node20 -->
<g id="node21" class="node">
<title>Node20</title>
<polygon fill="#ffffff" stroke="#bfbfbf" points="1523.5,-6 1523.5,-36 1645.5,-36 1645.5,-6 1523.5,-6"/>
<text text-anchor="start" x="1531.5" y="-24" font-family="Helvetica,sans-Serif" font-size="10.00" fill="#000000">tensorflow/core/platform</text>
<text text-anchor="middle" x="1584.5" y="-13" font-family="Helvetica,sans-Serif" font-size="10.00" fill="#000000">/thread_annotations.h</text>
</g>
<!-- Node0&#45;&gt;Node20 -->
<g id="edge32" class="edge">
<title>Node0&#45;&gt;Node20</title>
<path fill="none" stroke="#191970" d="M1028.2384,-156.4235C1051.5645,-146.9218 1078.1879,-134.5098 1100.5,-120 1123.7084,-104.9073 1121.2076,-89.2568 1146.5,-78 1296.6376,-11.1785 1353.2619,-73.7601 1514.5,-42 1519.2305,-41.0682 1524.099,-39.9503 1528.9603,-38.7221"/>
<polygon fill="#191970" stroke="#191970" points="1530.1248,-42.0338 1538.8821,-36.0705 1528.3174,-35.2712 1530.1248,-42.0338"/>
</g>
<!-- Node21 -->
<g id="node22" class="node">
<title>Node21</title>
<polygon fill="#ffffff" stroke="#bfbfbf" points="1663.5,-6 1663.5,-36 1785.5,-36 1785.5,-6 1663.5,-6"/>
<text text-anchor="start" x="1671.5" y="-24" font-family="Helvetica,sans-Serif" font-size="10.00" fill="#000000">tensorflow/core/platform</text>
<text text-anchor="middle" x="1724.5" y="-13" font-family="Helvetica,sans-Serif" font-size="10.00" fill="#000000">/types.h</text>
</g>
<!-- Node0&#45;&gt;Node21 -->
<g id="edge33" class="edge">
<title>Node0&#45;&gt;Node21</title>
<path fill="none" stroke="#191970" d="M1028.6466,-164.1573C1062.141,-155.0963 1104.0873,-140.816 1137.5,-120 1159.9061,-106.041 1155.5103,-89.0173 1179.5,-78 1275.6985,-33.8206 1550.42,-61.3215 1654.5,-42 1659.5172,-41.0686 1664.6857,-39.9116 1669.834,-38.6227"/>
<polygon fill="#191970" stroke="#191970" points="1670.9013,-41.9606 1679.6649,-36.0065 1669.1011,-35.196 1670.9013,-41.9606"/>
</g>
<!-- Node9&#45;&gt;Node2 -->
<g id="edge11" class="edge">
<title>Node9&#45;&gt;Node2</title>
<path fill="none" stroke="#191970" d="M742.7836,-91.9464C694.8646,-87.688 632.1404,-82.2766 576.5,-78 458.3559,-68.9193 155.2161,-84.2189 44.5,-42 41.2818,-40.7728 38.1359,-39.0237 35.1947,-37.0523"/>
<polygon fill="#191970" stroke="#191970" points="37.1602,-34.147 27.118,-30.7701 32.8625,-39.6724 37.1602,-34.147"/>
</g>
<!-- Node9&#45;&gt;Node3 -->
<g id="edge12" class="edge">
<title>Node9&#45;&gt;Node3</title>
<path fill="none" stroke="#191970" d="M742.7841,-90.5269C704.2287,-86.4637 656.9397,-81.6902 614.5,-78 503.52,-68.3501 220.7189,-75.5742 114.5,-42 109.8906,-40.5431 105.2525,-38.3714 100.9282,-35.9693"/>
<polygon fill="#191970" stroke="#191970" points="102.4464,-32.7939 92.0961,-30.531 98.7762,-38.7546 102.4464,-32.7939"/>
</g>
<!-- Node9&#45;&gt;Node5 -->
<g id="edge13" class="edge">
<title>Node9&#45;&gt;Node5</title>
<path fill="none" stroke="#191970" d="M742.8037,-88.4763C714.4214,-84.8465 682.0402,-80.9545 652.5,-78 546.2853,-67.3767 273.7408,-78.6907 173.5,-42 169.8407,-40.6606 166.2346,-38.7179 162.875,-36.5478"/>
<polygon fill="#191970" stroke="#191970" points="164.8208,-33.6342 154.6909,-30.53 160.6741,-39.2738 164.8208,-33.6342"/>
</g>
<!-- Node9&#45;&gt;Node8 -->
<g id="edge16" class="edge">
<title>Node9&#45;&gt;Node8</title>
<path fill="none" stroke="#191970" d="M742.9398,-85.6351C725.7057,-82.8989 707.5061,-80.1898 690.5,-78 524.8769,-56.6739 480.4293,-73.8276 316.5,-42 311.5787,-41.0445 306.5091,-39.8928 301.4505,-38.6267"/>
<polygon fill="#191970" stroke="#191970" points="302.3403,-35.2418 291.7781,-36.0728 300.5532,-42.0098 302.3403,-35.2418"/>
</g>
<!-- Node10 -->
<g id="node11" class="node">
<title>Node10</title>
<polygon fill="#ffffff" stroke="#bfbfbf" points="461,-11.5 461,-30.5 520,-30.5 520,-11.5 461,-11.5"/>
<text text-anchor="middle" x="490.5" y="-18.5" font-family="Helvetica,sans-Serif" font-size="10.00" fill="#000000">functional</text>
</g>
<!-- Node9&#45;&gt;Node10 -->
<g id="edge10" class="edge">
<title>Node9&#45;&gt;Node10</title>
<path fill="none" stroke="#191970" d="M756.2395,-83.9403C746.9469,-81.8766 737.4885,-79.8379 728.5,-78 640.4419,-59.9945 614.3405,-71.6733 529.5,-42 524.4574,-40.2363 519.2796,-37.8835 514.4115,-35.391"/>
<polygon fill="#191970" stroke="#191970" points="516.0014,-32.2714 505.5483,-30.5443 512.6429,-38.4131 516.0014,-32.2714"/>
</g>
<!-- Node11 -->
<g id="node12" class="node">
<title>Node11</title>
<polygon fill="#ffffff" stroke="#bfbfbf" points="538.5,-11.5 538.5,-30.5 582.5,-30.5 582.5,-11.5 538.5,-11.5"/>
<text text-anchor="middle" x="560.5" y="-18.5" font-family="Helvetica,sans-Serif" font-size="10.00" fill="#000000">vector</text>
</g>
<!-- Node9&#45;&gt;Node11 -->
<g id="edge14" class="edge">
<title>Node9&#45;&gt;Node11</title>
<path fill="none" stroke="#191970" d="M754.6308,-83.9742C692.1169,-69.5035 605.5259,-48.8336 590.5,-42 587.1579,-40.48 583.797,-38.5772 580.5958,-36.5415"/>
<polygon fill="#191970" stroke="#191970" points="582.3526,-33.5 572.1453,-30.6604 578.3539,-39.2455 582.3526,-33.5"/>
</g>
<!-- Node12 -->
<g id="node13" class="node">
<title>Node12</title>
<polygon fill="#ffffff" stroke="#bfbfbf" points="600,-6 600,-36 749,-36 749,-6 600,-6"/>
<text text-anchor="start" x="608" y="-24" font-family="Helvetica,sans-Serif" font-size="10.00" fill="#000000">tensorflow/compiler</text>
<text text-anchor="middle" x="674.5" y="-13" font-family="Helvetica,sans-Serif" font-size="10.00" fill="#000000">/xla/service/hlo_computation.h</text>
</g>
<!-- Node9&#45;&gt;Node12 -->
<g id="edge15" class="edge">
<title>Node9&#45;&gt;Node12</title>
<path fill="none" stroke="#191970" d="M792.3497,-83.9608C769.3979,-71.6989 736.7888,-54.2776 711.6885,-40.8678"/>
<polygon fill="#191970" stroke="#191970" points="713.282,-37.751 702.8126,-36.1259 709.9835,-43.9252 713.282,-37.751"/>
</g>
<!-- Node9&#45;&gt;Node13 -->
<g id="edge17" class="edge">
<title>Node9&#45;&gt;Node13</title>
<path fill="none" stroke="#191970" d="M758.3088,-83.9607C748.3709,-81.8013 738.1765,-79.7291 728.5,-78 609.5117,-56.7375 574.579,-68.0311 453.2228,-42.2064"/>
<polygon fill="#191970" stroke="#191970" points="453.6846,-38.7253 443.1698,-40.0253 452.2003,-45.5661 453.6846,-38.7253"/>
</g>
<!-- Node9&#45;&gt;Node14 -->
<g id="edge18" class="edge">
<title>Node9&#45;&gt;Node14</title>
<path fill="none" stroke="#191970" d="M842.866,-83.9608C860.6444,-72.0064 885.7158,-55.148 905.4417,-41.884"/>
<polygon fill="#191970" stroke="#191970" points="907.4615,-44.7436 913.8069,-36.2592 903.5554,-38.9347 907.4615,-44.7436"/>
</g>
<!-- Node9&#45;&gt;Node15 -->
<g id="edge19" class="edge">
<title>Node9&#45;&gt;Node15</title>
<path fill="none" stroke="#191970" d="M867.7568,-83.9155C903.0252,-72.5831 952.362,-56.5726 995.5,-42 998.0584,-41.1357 1000.6759,-40.2448 1003.3178,-39.3403"/>
<polygon fill="#191970" stroke="#191970" points="1004.6148,-42.5954 1012.9289,-36.0284 1002.3342,-35.9773 1004.6148,-42.5954"/>
</g>
<!-- Node16 -->
<g id="node17" class="node">
<title>Node16</title>
<polygon fill="#ffffff" stroke="#bfbfbf" points="767,-6 767,-36 868,-36 868,-6 767,-6"/>
<text text-anchor="start" x="775" y="-24" font-family="Helvetica,sans-Serif" font-size="10.00" fill="#000000">tensorflow/compiler</text>
<text text-anchor="middle" x="817.5" y="-13" font-family="Helvetica,sans-Serif" font-size="10.00" fill="#000000">/xla/xla.pb.h</text>
</g>
<!-- Node9&#45;&gt;Node16 -->
<g id="edge20" class="edge">
<title>Node9&#45;&gt;Node16</title>
<path fill="none" stroke="#191970" d="M819.9216,-83.9608C819.5133,-73.3466 818.9564,-58.8663 818.4796,-46.4685"/>
<polygon fill="#191970" stroke="#191970" points="821.9687,-46.1172 818.0869,-36.2592 814.9739,-46.3863 821.9687,-46.1172"/>
</g>
<!-- Node9&#45;&gt;Node17 -->
<g id="edge21" class="edge">
<title>Node9&#45;&gt;Node17</title>
<path fill="none" stroke="#191970" d="M898.27,-87.0893C957.946,-77.1893 1042.1015,-61.5768 1114.5,-42 1117.6961,-41.1358 1120.9671,-40.1857 1124.2515,-39.1818"/>
<polygon fill="#191970" stroke="#191970" points="1125.6233,-42.4179 1134.0837,-36.0404 1123.4928,-35.7499 1125.6233,-42.4179"/>
</g>
<!-- Node9&#45;&gt;Node18 -->
<g id="edge22" class="edge">
<title>Node9&#45;&gt;Node18</title>
<path fill="none" stroke="#191970" d="M898.1919,-91.9259C981.8621,-83.4674 1118.5852,-67.2084 1234.5,-42 1238.9439,-41.0336 1243.5157,-39.9261 1248.0925,-38.736"/>
<polygon fill="#191970" stroke="#191970" points="1249.3412,-42.0235 1258.0719,-36.0214 1247.5038,-35.269 1249.3412,-42.0235"/>
</g>
<!-- Node9&#45;&gt;Node19 -->
<g id="edge23" class="edge">
<title>Node9&#45;&gt;Node19</title>
<path fill="none" stroke="#191970" d="M898.1335,-92.8366C1028.3742,-82.1906 1285.3708,-59.7884 1374.5,-42 1379.2281,-41.0564 1384.095,-39.9301 1388.9552,-38.6964"/>
<polygon fill="#191970" stroke="#191970" points="1390.1228,-42.007 1398.8754,-36.0368 1388.3101,-35.2458 1390.1228,-42.007"/>
</g>
<!-- Node9&#45;&gt;Node20 -->
<g id="edge24" class="edge">
<title>Node9&#45;&gt;Node20</title>
<path fill="none" stroke="#191970" d="M898.0509,-93.0684C1072.8225,-79.6409 1484.6167,-47.645 1514.5,-42 1519.4383,-41.0672 1524.5241,-39.9202 1529.5938,-38.6478"/>
<polygon fill="#191970" stroke="#191970" points="1530.5166,-42.0241 1539.2798,-36.0696 1528.716,-35.2597 1530.5166,-42.0241"/>
</g>
<!-- Node9&#45;&gt;Node21 -->
<g id="edge25" class="edge">
<title>Node9&#45;&gt;Node21</title>
<path fill="none" stroke="#191970" d="M898.0684,-93.9279C1101.4941,-80.5962 1636.0156,-45.3607 1654.5,-42 1659.5206,-41.0872 1664.6914,-39.9429 1669.8413,-38.6623"/>
<polygon fill="#191970" stroke="#191970" points="1670.9042,-42.0016 1679.6741,-36.0569 1669.1112,-35.2351 1670.9042,-42.0016"/>
</g>
</g>
</svg>
