<?xml version="1.0" encoding="UTF-8" standalone="no"?>
<!DOCTYPE svg PUBLIC "-//W3C//DTD SVG 1.1//EN"
 "http://www.w3.org/Graphics/SVG/1.1/DTD/svg11.dtd">
<!-- Generated by graphviz version 2.38.0 (20140413.2041)
 -->
<!-- Title: tensorflow/tensorflow/core/framework/graph_def_util.h Pages: 1 -->
<svg width="324pt" height="117pt"
 viewBox="0.00 0.00 324.00 117.00" xmlns="http://www.w3.org/2000/svg" xmlns:xlink="http://www.w3.org/1999/xlink">
<g id="graph0" class="graph" transform="scale(1 1) rotate(0) translate(4 113)">
<title>tensorflow/tensorflow/core/framework/graph_def_util.h</title>
<polygon fill="white" stroke="none" points="-4,4 -4,-113 320,-113 320,4 -4,4"/>
<!-- Node1 -->
<g id="node1" class="node"><title>Node1</title>
<polygon fill="#bfbfbf" stroke="black" points="68,-67.5 68,-108.5 182,-108.5 182,-67.5 68,-67.5"/>
<text text-anchor="start" x="76" y="-96.5" font-family="Helvetica,sans-Serif" font-size="10.00">tensorflow/tensorflow</text>
<text text-anchor="start" x="76" y="-85.5" font-family="Helvetica,sans-Serif" font-size="10.00">/core/framework/graph</text>
<text text-anchor="middle" x="125" y="-74.5" font-family="Helvetica,sans-Serif" font-size="10.00">_def_util.h</text>
</g>
<!-- Node2 -->
<g id="node2" class="node"><title>Node2</title>
<polygon fill="white" stroke="#bfbfbf" points="0,-6 0,-25 30,-25 30,-6 0,-6"/>
<text text-anchor="middle" x="15" y="-13" font-family="Helvetica,sans-Serif" font-size="10.00">set</text>
</g>
<!-- Node1&#45;&gt;Node2 -->
<g id="edge1" class="edge"><title>Node1&#45;&gt;Node2</title>
<path fill="none" stroke="midnightblue" d="M94.3589,-67.3618C76.1221,-55.6737 53.4077,-41.1158 36.9585,-30.5734"/>
<polygon fill="midnightblue" stroke="midnightblue" points="38.8408,-27.6227 28.5329,-25.1734 35.0636,-33.5161 38.8408,-27.6227"/>
</g>
<!-- Node3 -->
<g id="node3" class="node"><title>Node3</title>
<polygon fill="white" stroke="#bfbfbf" points="48,-6 48,-25 202,-25 202,-6 48,-6"/>
<text text-anchor="middle" x="125" y="-13" font-family="Helvetica,sans-Serif" font-size="10.00">tensorflow/core/framework/op.h</text>
</g>
<!-- Node1&#45;&gt;Node3 -->
<g id="edge2" class="edge"><title>Node1&#45;&gt;Node3</title>
<path fill="none" stroke="midnightblue" d="M125,-67.3618C125,-57.297 125,-45.1043 125,-35.18"/>
<polygon fill="midnightblue" stroke="midnightblue" points="128.5,-35.1733 125,-25.1734 121.5,-35.1734 128.5,-35.1733"/>
</g>
<!-- Node4 -->
<g id="node4" class="node"><title>Node4</title>
<polygon fill="white" stroke="#bfbfbf" points="220,-0.5 220,-30.5 316,-30.5 316,-0.5 220,-0.5"/>
<text text-anchor="start" x="228" y="-18.5" font-family="Helvetica,sans-Serif" font-size="10.00">tensorflow/core/lib</text>
<text text-anchor="middle" x="268" y="-7.5" font-family="Helvetica,sans-Serif" font-size="10.00">/core/status.h</text>
</g>
<!-- Node1&#45;&gt;Node4 -->
<g id="edge3" class="edge"><title>Node1&#45;&gt;Node4</title>
<path fill="none" stroke="midnightblue" d="M164.833,-67.3618C185.238,-57.3025 209.953,-45.1174 230.078,-35.196"/>
<polygon fill="midnightblue" stroke="midnightblue" points="231.836,-38.2312 239.258,-30.67 228.741,-31.9527 231.836,-38.2312"/>
</g>
</g>
</svg>
