<?xml version="1.0" encoding="UTF-8" standalone="no"?>
<!DOCTYPE svg PUBLIC "-//W3C//DTD SVG 1.1//EN"
 "http://www.w3.org/Graphics/SVG/1.1/DTD/svg11.dtd">
<!-- Generated by graphviz version 2.40.1 (20161225.0304)
 -->
<!-- Title: tensorflow/tensorflow/core/framework/graph_def_util.h Pages: 1 -->
<svg width="356pt" height="117pt"
 viewBox="0.00 0.00 355.50 117.00" xmlns="http://www.w3.org/2000/svg" xmlns:xlink="http://www.w3.org/1999/xlink">
<g id="graph0" class="graph" transform="scale(1 1) rotate(0) translate(4 113)">
<title>tensorflow/tensorflow/core/framework/graph_def_util.h</title>
<polygon fill="#ffffff" stroke="transparent" points="-4,4 -4,-113 351.5,-113 351.5,4 -4,4"/>
<!-- Node0 -->
<g id="node1" class="node">
<title>Node0</title>
<polygon fill="#bfbfbf" stroke="#000000" points="72,-67.5 72,-108.5 200,-108.5 200,-67.5 72,-67.5"/>
<text text-anchor="start" x="80" y="-96.5" font-family="Helvetica,sans-Serif" font-size="10.00" fill="#000000">tensorflow/tensorflow</text>
<text text-anchor="start" x="80" y="-85.5" font-family="Helvetica,sans-Serif" font-size="10.00" fill="#000000">/core/framework/graph</text>
<text text-anchor="middle" x="136" y="-74.5" font-family="Helvetica,sans-Serif" font-size="10.00" fill="#000000">_def_util.h</text>
</g>
<!-- Node1 -->
<g id="node2" class="node">
<title>Node1</title>
<polygon fill="#ffffff" stroke="#bfbfbf" points="0,-6 0,-25 32,-25 32,-6 0,-6"/>
<text text-anchor="middle" x="16" y="-13" font-family="Helvetica,sans-Serif" font-size="10.00" fill="#000000">set</text>
</g>
<!-- Node0&#45;&gt;Node1 -->
<g id="edge1" class="edge">
<title>Node0&#45;&gt;Node1</title>
<path fill="none" stroke="#191970" d="M101.1834,-67.2751C83.1787,-56.5159 60.8688,-43.1191 41,-31 40.7057,-30.8205 40.4096,-30.6397 40.1119,-30.4578"/>
<polygon fill="#191970" stroke="#191970" points="41.6658,-27.3044 31.3149,-25.0441 37.997,-33.266 41.6658,-27.3044"/>
</g>
<!-- Node2 -->
<g id="node3" class="node">
<title>Node2</title>
<polygon fill="#ffffff" stroke="#bfbfbf" points="50,-6 50,-25 222,-25 222,-6 50,-6"/>
<text text-anchor="middle" x="136" y="-13" font-family="Helvetica,sans-Serif" font-size="10.00" fill="#000000">tensorflow/core/framework/op.h</text>
</g>
<!-- Node0&#45;&gt;Node2 -->
<g id="edge2" class="edge">
<title>Node0&#45;&gt;Node2</title>
<path fill="none" stroke="#191970" d="M136,-67.4183C136,-57.32 136,-45.213 136,-35.2314"/>
<polygon fill="#191970" stroke="#191970" points="139.5001,-35.0853 136,-25.0853 132.5001,-35.0854 139.5001,-35.0853"/>
</g>
<!-- Node3 -->
<g id="node4" class="node">
<title>Node3</title>
<polygon fill="#ffffff" stroke="#bfbfbf" points="240.5,-.5 240.5,-30.5 347.5,-30.5 347.5,-.5 240.5,-.5"/>
<text text-anchor="start" x="248.5" y="-18.5" font-family="Helvetica,sans-Serif" font-size="10.00" fill="#000000">tensorflow/core/lib</text>
<text text-anchor="middle" x="294" y="-7.5" font-family="Helvetica,sans-Serif" font-size="10.00" fill="#000000">/core/status.h</text>
</g>
<!-- Node0&#45;&gt;Node3 -->
<g id="edge3" class="edge">
<title>Node0&#45;&gt;Node3</title>
<path fill="none" stroke="#191970" d="M180.8538,-67.4183C203.1063,-57.2075 229.8347,-44.943 251.7245,-34.8986"/>
<polygon fill="#191970" stroke="#191970" points="253.4652,-37.9508 261.0944,-30.5991 250.5458,-31.5886 253.4652,-37.9508"/>
</g>
</g>
</svg>
