<?xml version="1.0" encoding="UTF-8" standalone="no"?>
<!DOCTYPE svg PUBLIC "-//W3C//DTD SVG 1.1//EN"
 "http://www.w3.org/Graphics/SVG/1.1/DTD/svg11.dtd">
<!-- Generated by graphviz version 2.40.1 (20161225.0304)
 -->
<!-- Title: tensorflow/tensorflow/core/graph/graph_constructor.h Pages: 1 -->
<svg width="438pt" height="117pt"
 viewBox="0.00 0.00 437.50 117.00" xmlns="http://www.w3.org/2000/svg" xmlns:xlink="http://www.w3.org/1999/xlink">
<g id="graph0" class="graph" transform="scale(1 1) rotate(0) translate(4 113)">
<title>tensorflow/tensorflow/core/graph/graph_constructor.h</title>
<polygon fill="#ffffff" stroke="transparent" points="-4,4 -4,-113 433.5,-113 433.5,4 -4,4"/>
<!-- Node5 -->
<g id="node1" class="node">
<title>Node5</title>
<polygon fill="#bfbfbf" stroke="#000000" points="120,-78.5 120,-108.5 274,-108.5 274,-78.5 120,-78.5"/>
<text text-anchor="start" x="128" y="-96.5" font-family="Helvetica,sans-Serif" font-size="10.00" fill="#000000">tensorflow/tensorflow</text>
<text text-anchor="middle" x="197" y="-85.5" font-family="Helvetica,sans-Serif" font-size="10.00" fill="#000000">/core/graph/graph_constructor.h</text>
</g>
<!-- Node6 -->
<g id="node2" class="node">
<title>Node6</title>
<g id="a_node2"><a xlink:href="../../d8/db8/tf2xla_8cc.html" target="_top" xlink:title="tensorflow/tensorflow\l/compiler/tf2xla/tf2xla.cc">
<polygon fill="#ffffff" stroke="#000000" points="0,-6 0,-36 124,-36 124,-6 0,-6"/>
<text text-anchor="start" x="8" y="-24" font-family="Helvetica,sans-Serif" font-size="10.00" fill="#000000">tensorflow/tensorflow</text>
<text text-anchor="middle" x="62" y="-13" font-family="Helvetica,sans-Serif" font-size="10.00" fill="#000000">/compiler/tf2xla/tf2xla.cc</text>
</a>
</g>
</g>
<!-- Node5&#45;&gt;Node6 -->
<g id="edge1" class="edge">
<title>Node5&#45;&gt;Node6</title>
<path fill="none" stroke="#191970" d="M159.9272,-73.5905C137.8179,-61.717 110.2008,-46.8856 89.9363,-36.0028"/>
<polygon fill="#191970" stroke="#191970" points="158.562,-76.8301 169.0279,-78.478 161.8739,-70.6632 158.562,-76.8301"/>
</g>
<!-- Node7 -->
<g id="node3" class="node">
<title>Node7</title>
<g id="a_node3"><a xlink:href="../../d5/d88/xla__compiler_8cc.html" target="_top" xlink:title="tensorflow/tensorflow\l/compiler/tf2xla/xla\l_compiler.cc">
<polygon fill="#ffffff" stroke="#000000" points="142,-.5 142,-41.5 252,-41.5 252,-.5 142,-.5"/>
<text text-anchor="start" x="150" y="-29.5" font-family="Helvetica,sans-Serif" font-size="10.00" fill="#000000">tensorflow/tensorflow</text>
<text text-anchor="start" x="150" y="-18.5" font-family="Helvetica,sans-Serif" font-size="10.00" fill="#000000">/compiler/tf2xla/xla</text>
<text text-anchor="middle" x="197" y="-7.5" font-family="Helvetica,sans-Serif" font-size="10.00" fill="#000000">_compiler.cc</text>
</a>
</g>
</g>
<!-- Node5&#45;&gt;Node7 -->
<g id="edge2" class="edge">
<title>Node5&#45;&gt;Node7</title>
<path fill="none" stroke="#191970" d="M197,-68.4016C197,-59.6173 197,-49.8652 197,-41.5015"/>
<polygon fill="#191970" stroke="#191970" points="193.5001,-68.4779 197,-78.478 200.5001,-68.478 193.5001,-68.4779"/>
</g>
<!-- Node8 -->
<g id="node4" class="node">
<title>Node8</title>
<g id="a_node4"><a xlink:href="../../d7/d7a/graph__constructor_8cc.html" target="_top" xlink:title="tensorflow/tensorflow\l/core/graph/graph_constructor.cc">
<polygon fill="#ffffff" stroke="#000000" points="270.5,-6 270.5,-36 429.5,-36 429.5,-6 270.5,-6"/>
<text text-anchor="start" x="278.5" y="-24" font-family="Helvetica,sans-Serif" font-size="10.00" fill="#000000">tensorflow/tensorflow</text>
<text text-anchor="middle" x="350" y="-13" font-family="Helvetica,sans-Serif" font-size="10.00" fill="#000000">/core/graph/graph_constructor.cc</text>
</a>
</g>
</g>
<!-- Node5&#45;&gt;Node8 -->
<g id="edge3" class="edge">
<title>Node5&#45;&gt;Node8</title>
<path fill="none" stroke="#191970" d="M238.0125,-74.066C263.2332,-62.115 295.0649,-47.0313 318.3389,-36.0028"/>
<polygon fill="#191970" stroke="#191970" points="236.2397,-71.0329 228.7017,-78.478 239.2373,-77.3586 236.2397,-71.0329"/>
</g>
</g>
</svg>
