<?xml version="1.0" encoding="UTF-8" standalone="no"?>
<!DOCTYPE svg PUBLIC "-//W3C//DTD SVG 1.1//EN"
 "http://www.w3.org/Graphics/SVG/1.1/DTD/svg11.dtd">
<!-- Generated by graphviz version 2.40.1 (20161225.0304)
 -->
<!-- Title: tensorflow/tensorflow/core/graph/graph_constructor.h Pages: 1 -->
<svg width="162pt" height="106pt"
 viewBox="0.00 0.00 162.00 106.00" xmlns="http://www.w3.org/2000/svg" xmlns:xlink="http://www.w3.org/1999/xlink">
<g id="graph0" class="graph" transform="scale(1 1) rotate(0) translate(4 102)">
<title>tensorflow/tensorflow/core/graph/graph_constructor.h</title>
<polygon fill="#ffffff" stroke="transparent" points="-4,4 -4,-102 158,-102 158,4 -4,4"/>
<!-- Node1 -->
<g id="node1" class="node">
<title>Node1</title>
<polygon fill="#bfbfbf" stroke="#000000" points="0,-67.5 0,-97.5 154,-97.5 154,-67.5 0,-67.5"/>
<text text-anchor="start" x="8" y="-85.5" font-family="Helvetica,sans-Serif" font-size="10.00" fill="#000000">tensorflow/tensorflow</text>
<text text-anchor="middle" x="77" y="-74.5" font-family="Helvetica,sans-Serif" font-size="10.00" fill="#000000">/core/graph/graph_constructor.h</text>
</g>
<!-- Node2 -->
<g id="node2" class="node">
<title>Node2</title>
<g id="a_node2"><a xlink:href="../../d8/db8/tf2xla_8cc.html" target="_top" xlink:title="tensorflow/tensorflow\l/compiler/tf2xla/tf2xla.cc">
<polygon fill="#ffffff" stroke="#000000" points="15,-.5 15,-30.5 139,-30.5 139,-.5 15,-.5"/>
<text text-anchor="start" x="23" y="-18.5" font-family="Helvetica,sans-Serif" font-size="10.00" fill="#000000">tensorflow/tensorflow</text>
<text text-anchor="middle" x="77" y="-7.5" font-family="Helvetica,sans-Serif" font-size="10.00" fill="#000000">/compiler/tf2xla/tf2xla.cc</text>
</a>
</g>
</g>
<!-- Node1&#45;&gt;Node2 -->
<g id="edge1" class="edge">
<title>Node1&#45;&gt;Node2</title>
<path fill="none" stroke="#191970" d="M77,-57.0249C77,-48.128 77,-38.4287 77,-30.6432"/>
<polygon fill="#191970" stroke="#191970" points="73.5001,-57.2966 77,-67.2967 80.5001,-57.2967 73.5001,-57.2966"/>
</g>
</g>
</svg>
