<?xml version="1.0" encoding="UTF-8" standalone="no"?>
<!DOCTYPE svg PUBLIC "-//W3C//DTD SVG 1.1//EN"
 "http://www.w3.org/Graphics/SVG/1.1/DTD/svg11.dtd">
<!-- Generated by graphviz version 2.38.0 (20140413.2041)
 -->
<!-- Title: tensorflow/tensorflow/core/graph/graph_constructor.h Pages: 1 -->
<svg width="310pt" height="106pt"
 viewBox="0.00 0.00 310.00 106.00" xmlns="http://www.w3.org/2000/svg" xmlns:xlink="http://www.w3.org/1999/xlink">
<g id="graph0" class="graph" transform="scale(1 1) rotate(0) translate(4 102)">
<title>tensorflow/tensorflow/core/graph/graph_constructor.h</title>
<polygon fill="white" stroke="none" points="-4,4 -4,-102 306,-102 306,4 -4,4"/>
<!-- Node1 -->
<g id="node1" class="node"><title>Node1</title>
<polygon fill="#bfbfbf" stroke="black" points="64.5,-67.5 64.5,-97.5 219.5,-97.5 219.5,-67.5 64.5,-67.5"/>
<text text-anchor="start" x="72.5" y="-85.5" font-family="Helvetica,sans-Serif" font-size="10.00">tensorflow/tensorflow</text>
<text text-anchor="middle" x="142" y="-74.5" font-family="Helvetica,sans-Serif" font-size="10.00">/core/graph/graph_constructor.h</text>
</g>
<!-- Node2 -->
<g id="node2" class="node"><title>Node2</title>
<g id="a_node2"><a xlink:href="../../d8/db8/tf2xla_8cc.html" target="_top" xlink:title="tensorflow/tensorflow\l/compiler/tf2xla/tf2xla.cc">
<polygon fill="white" stroke="black" points="0,-0.5 0,-30.5 124,-30.5 124,-0.5 0,-0.5"/>
<text text-anchor="start" x="8" y="-18.5" font-family="Helvetica,sans-Serif" font-size="10.00">tensorflow/tensorflow</text>
<text text-anchor="middle" x="62" y="-7.5" font-family="Helvetica,sans-Serif" font-size="10.00">/compiler/tf2xla/tf2xla.cc</text>
</a>
</g>
</g>
<!-- Node1&#45;&gt;Node2 -->
<g id="edge1" class="edge"><title>Node1&#45;&gt;Node2</title>
<path fill="none" stroke="midnightblue" d="M116.625,-60.8832C104.468,-51.0054 90.2207,-39.4293 79.3249,-30.5765"/>
<polygon fill="midnightblue" stroke="midnightblue" points="114.673,-63.8064 124.641,-67.396 119.087,-58.3736 114.673,-63.8064"/>
</g>
<!-- Node3 -->
<g id="node3" class="node"><title>Node3</title>
<g id="a_node3"><a xlink:href="../../d7/d7a/graph__constructor_8cc.html" target="_top" xlink:title="tensorflow/tensorflow\l/core/graph/graph_constructor.cc">
<polygon fill="white" stroke="black" points="142,-0.5 142,-30.5 302,-30.5 302,-0.5 142,-0.5"/>
<text text-anchor="start" x="150" y="-18.5" font-family="Helvetica,sans-Serif" font-size="10.00">tensorflow/tensorflow</text>
<text text-anchor="middle" x="222" y="-7.5" font-family="Helvetica,sans-Serif" font-size="10.00">/core/graph/graph_constructor.cc</text>
</a>
</g>
</g>
<!-- Node1&#45;&gt;Node3 -->
<g id="edge2" class="edge"><title>Node1&#45;&gt;Node3</title>
<path fill="none" stroke="midnightblue" d="M167.375,-60.8832C179.532,-51.0054 193.779,-39.4293 204.675,-30.5765"/>
<polygon fill="midnightblue" stroke="midnightblue" points="164.913,-58.3736 159.359,-67.396 169.327,-63.8064 164.913,-58.3736"/>
</g>
</g>
</svg>
