<?xml version="1.0" encoding="UTF-8" standalone="no"?>
<!DOCTYPE svg PUBLIC "-//W3C//DTD SVG 1.1//EN"
 "http://www.w3.org/Graphics/SVG/1.1/DTD/svg11.dtd">
<!-- Generated by graphviz version 2.40.1 (20161225.0304)
 -->
<!-- Title: tensorflow/tensorflow/compiler/xla/client/compile_only_client.h Pages: 1 -->
<svg width="566pt" height="206pt"
 viewBox="0.00 0.00 565.50 206.00" xmlns="http://www.w3.org/2000/svg" xmlns:xlink="http://www.w3.org/1999/xlink">
<g id="graph0" class="graph" transform="scale(1 1) rotate(0) translate(4 202)">
<title>tensorflow/tensorflow/compiler/xla/client/compile_only_client.h</title>
<polygon fill="#ffffff" stroke="transparent" points="-4,4 -4,-202 561.5,-202 561.5,4 -4,4"/>
<!-- Node69 -->
<g id="node1" class="node">
<title>Node69</title>
<polygon fill="#bfbfbf" stroke="#000000" points="153.5,-156.5 153.5,-197.5 279.5,-197.5 279.5,-156.5 153.5,-156.5"/>
<text text-anchor="start" x="161.5" y="-185.5" font-family="Helvetica,sans-Serif" font-size="10.00" fill="#000000">tensorflow/tensorflow</text>
<text text-anchor="start" x="161.5" y="-174.5" font-family="Helvetica,sans-Serif" font-size="10.00" fill="#000000">/compiler/xla/client</text>
<text text-anchor="middle" x="216.5" y="-163.5" font-family="Helvetica,sans-Serif" font-size="10.00" fill="#000000">/compile_only_client.h</text>
</g>
<!-- Node70 -->
<g id="node2" class="node">
<title>Node70</title>
<g id="a_node2"><a xlink:href="../../d6/d17/compile_8cc.html" target="_top" xlink:title="tensorflow/tensorflow\l/compiler/aot/compile.cc">
<polygon fill="#ffffff" stroke="#000000" points="0,-6 0,-36 137,-36 137,-6 0,-6"/>
<text text-anchor="start" x="8" y="-24" font-family="Helvetica,sans-Serif" font-size="10.00" fill="#000000">tensorflow/tensorflow</text>
<text text-anchor="middle" x="68.5" y="-13" font-family="Helvetica,sans-Serif" font-size="10.00" fill="#000000">/compiler/aot/compile.cc</text>
</a>
</g>
</g>
<!-- Node69&#45;&gt;Node70 -->
<g id="edge1" class="edge">
<title>Node69&#45;&gt;Node70</title>
<path fill="none" stroke="#191970" d="M180.3496,-150.0692C169.0539,-141.0078 156.8492,-130.517 146.5,-120 119.642,-92.7065 93.0545,-56.4656 78.9184,-36.2643"/>
<polygon fill="#191970" stroke="#191970" points="178.3541,-152.9529 188.3744,-156.3946 182.6874,-147.4554 178.3541,-152.9529"/>
</g>
<!-- Node71 -->
<g id="node3" class="node">
<title>Node71</title>
<g id="a_node3"><a xlink:href="../../db/d47/client__library_8h.html" target="_top" xlink:title="tensorflow/tensorflow\l/compiler/xla/client\l/client_library.h">
<polygon fill="#ffffff" stroke="#000000" points="155.5,-78.5 155.5,-119.5 277.5,-119.5 277.5,-78.5 155.5,-78.5"/>
<text text-anchor="start" x="163.5" y="-107.5" font-family="Helvetica,sans-Serif" font-size="10.00" fill="#000000">tensorflow/tensorflow</text>
<text text-anchor="start" x="163.5" y="-96.5" font-family="Helvetica,sans-Serif" font-size="10.00" fill="#000000">/compiler/xla/client</text>
<text text-anchor="middle" x="216.5" y="-85.5" font-family="Helvetica,sans-Serif" font-size="10.00" fill="#000000">/client_library.h</text>
</a>
</g>
</g>
<!-- Node69&#45;&gt;Node71 -->
<g id="edge2" class="edge">
<title>Node69&#45;&gt;Node71</title>
<path fill="none" stroke="#191970" d="M216.5,-146.0789C216.5,-137.2178 216.5,-127.7747 216.5,-119.6898"/>
<polygon fill="#191970" stroke="#191970" points="213.0001,-146.0974 216.5,-156.0974 220.0001,-146.0975 213.0001,-146.0974"/>
</g>
<!-- Node75 -->
<g id="node7" class="node">
<title>Node75</title>
<g id="a_node7"><a xlink:href="../../d8/d93/compile__only__client_8cc.html" target="_top" xlink:title="tensorflow/tensorflow\l/compiler/xla/client\l/compile_only_client.cc">
<polygon fill="#ffffff" stroke="#000000" points="296,-78.5 296,-119.5 427,-119.5 427,-78.5 296,-78.5"/>
<text text-anchor="start" x="304" y="-107.5" font-family="Helvetica,sans-Serif" font-size="10.00" fill="#000000">tensorflow/tensorflow</text>
<text text-anchor="start" x="304" y="-96.5" font-family="Helvetica,sans-Serif" font-size="10.00" fill="#000000">/compiler/xla/client</text>
<text text-anchor="middle" x="361.5" y="-85.5" font-family="Helvetica,sans-Serif" font-size="10.00" fill="#000000">/compile_only_client.cc</text>
</a>
</g>
</g>
<!-- Node69&#45;&gt;Node75 -->
<g id="edge7" class="edge">
<title>Node69&#45;&gt;Node75</title>
<path fill="none" stroke="#191970" d="M263.9029,-151.5005C283.1717,-141.1352 305.1386,-129.3185 323.3467,-119.5239"/>
<polygon fill="#191970" stroke="#191970" points="262.1252,-148.4825 254.9767,-156.3022 265.4414,-154.6471 262.1252,-148.4825"/>
</g>
<!-- Node71&#45;&gt;Node70 -->
<g id="edge3" class="edge">
<title>Node71&#45;&gt;Node70</title>
<path fill="none" stroke="#191970" d="M168.1164,-73.5005C144.6519,-61.1341 117.2674,-46.7017 97.1551,-36.102"/>
<polygon fill="#191970" stroke="#191970" points="166.7488,-76.7361 177.2273,-78.3022 170.0125,-70.5435 166.7488,-76.7361"/>
</g>
<!-- Node72 -->
<g id="node4" class="node">
<title>Node72</title>
<g id="a_node4"><a xlink:href="../../d5/d88/xla__compiler_8cc.html" target="_top" xlink:title="tensorflow/tensorflow\l/compiler/tf2xla/xla\l_compiler.cc">
<polygon fill="#ffffff" stroke="#000000" points="155.5,-.5 155.5,-41.5 277.5,-41.5 277.5,-.5 155.5,-.5"/>
<text text-anchor="start" x="163.5" y="-29.5" font-family="Helvetica,sans-Serif" font-size="10.00" fill="#000000">tensorflow/tensorflow</text>
<text text-anchor="start" x="163.5" y="-18.5" font-family="Helvetica,sans-Serif" font-size="10.00" fill="#000000">/compiler/tf2xla/xla</text>
<text text-anchor="middle" x="216.5" y="-7.5" font-family="Helvetica,sans-Serif" font-size="10.00" fill="#000000">_compiler.cc</text>
</a>
</g>
</g>
<!-- Node71&#45;&gt;Node72 -->
<g id="edge4" class="edge">
<title>Node71&#45;&gt;Node72</title>
<path fill="none" stroke="#191970" d="M216.5,-68.0789C216.5,-59.2178 216.5,-49.7747 216.5,-41.6898"/>
<polygon fill="#191970" stroke="#191970" points="213.0001,-68.0974 216.5,-78.0974 220.0001,-68.0975 213.0001,-68.0974"/>
</g>
<!-- Node73 -->
<g id="node5" class="node">
<title>Node73</title>
<g id="a_node5"><a xlink:href="../../d2/d10/xla__op__registry_8cc.html" target="_top" xlink:title="tensorflow/tensorflow\l/compiler/tf2xla/xla\l_op_registry.cc">
<polygon fill="#ffffff" stroke="#000000" points="295.5,-.5 295.5,-41.5 417.5,-41.5 417.5,-.5 295.5,-.5"/>
<text text-anchor="start" x="303.5" y="-29.5" font-family="Helvetica,sans-Serif" font-size="10.00" fill="#000000">tensorflow/tensorflow</text>
<text text-anchor="start" x="303.5" y="-18.5" font-family="Helvetica,sans-Serif" font-size="10.00" fill="#000000">/compiler/tf2xla/xla</text>
<text text-anchor="middle" x="356.5" y="-7.5" font-family="Helvetica,sans-Serif" font-size="10.00" fill="#000000">_op_registry.cc</text>
</a>
</g>
</g>
<!-- Node71&#45;&gt;Node73 -->
<g id="edge5" class="edge">
<title>Node71&#45;&gt;Node73</title>
<path fill="none" stroke="#191970" d="M262.521,-73.3597C281.0645,-63.0283 302.1617,-51.2742 319.6623,-41.5239"/>
<polygon fill="#191970" stroke="#191970" points="260.6821,-70.3776 253.6499,-78.3022 264.089,-76.4926 260.6821,-70.3776"/>
</g>
<!-- Node74 -->
<g id="node6" class="node">
<title>Node74</title>
<g id="a_node6"><a xlink:href="../../d3/dba/client__library_8cc.html" target="_top" xlink:title="tensorflow/tensorflow\l/compiler/xla/client\l/client_library.cc">
<polygon fill="#ffffff" stroke="#000000" points="435.5,-.5 435.5,-41.5 557.5,-41.5 557.5,-.5 435.5,-.5"/>
<text text-anchor="start" x="443.5" y="-29.5" font-family="Helvetica,sans-Serif" font-size="10.00" fill="#000000">tensorflow/tensorflow</text>
<text text-anchor="start" x="443.5" y="-18.5" font-family="Helvetica,sans-Serif" font-size="10.00" fill="#000000">/compiler/xla/client</text>
<text text-anchor="middle" x="496.5" y="-7.5" font-family="Helvetica,sans-Serif" font-size="10.00" fill="#000000">/client_library.cc</text>
</a>
</g>
</g>
<!-- Node71&#45;&gt;Node74 -->
<g id="edge6" class="edge">
<title>Node71&#45;&gt;Node74</title>
<path fill="none" stroke="#191970" d="M287.1978,-78.0838C287.2986,-78.0559 287.3994,-78.0279 287.5,-78 348.9956,-60.9475 365.0376,-59.1718 426.5,-42 429.4328,-41.1806 432.4309,-40.3303 435.4563,-39.462"/>
<polygon fill="#191970" stroke="#191970" points="286.3317,-74.6916 277.6528,-80.7684 288.227,-81.4301 286.3317,-74.6916"/>
</g>
</g>
</svg>
