<?xml version="1.0" encoding="UTF-8" standalone="no"?>
<!DOCTYPE svg PUBLIC "-//W3C//DTD SVG 1.1//EN"
 "http://www.w3.org/Graphics/SVG/1.1/DTD/svg11.dtd">
<!-- Generated by graphviz version 2.40.1 (20161225.0304)
 -->
<!-- Title: tensorflow/tensorflow/compiler/xla/client/compile_only_client.h Pages: 1 -->
<!--zoomable 197 -->
<svg id="main" version="1.1" xmlns="http://www.w3.org/2000/svg" xmlns:xlink="http://www.w3.org/1999/xlink" xml:space="preserve" onload="init(evt)">
<style type="text/css"><![CDATA[
.edge:hover path { stroke: red; }
.edge:hover polygon { stroke: red; fill: red; }
]]></style>
<script type="text/javascript"><![CDATA[
var edges = document.getElementsByTagName('g');
if (edges && edges.length) {
  for (var i=0;i<edges.length;i++) {
    if (edges[i].id.substr(0,4)=='edge') {
      edges[i].setAttribute('class','edge');
    }
  }
}
]]></script>
        <defs>
                <circle id="rim" cx="0" cy="0" r="7"/>
                <circle id="rim2" cx="0" cy="0" r="3.5"/>
                <g id="zoomPlus">
                        <use xlink:href="#rim" fill="#404040">
                                <set attributeName="fill" to="#808080" begin="zoomplus.mouseover" end="zoomplus.mouseout"/>
                        </use>
                        <path d="M-4,0h8M0,-4v8" fill="none" stroke="white" stroke-width="1.5" pointer-events="none"/>
                </g>
                <g id="zoomMin">
                        <use xlink:href="#rim" fill="#404040">
                                <set attributeName="fill" to="#808080" begin="zoomminus.mouseover" end="zoomminus.mouseout"/>
                        </use>
                        <path d="M-4,0h8" fill="none" stroke="white" stroke-width="1.5" pointer-events="none"/>
                </g>
                <g id="dirArrow">
                        <path fill="none" stroke="white" stroke-width="1.5" d="M0,-3.0v7 M-2.5,-0.5L0,-3.0L2.5,-0.5"/>
                </g>
               <g id="resetDef">
                       <use xlink:href="#rim2" fill="#404040">
                               <set attributeName="fill" to="#808080" begin="reset.mouseover" end="reset.mouseout"/>
                       </use>
               </g>
        </defs>

<script type="text/javascript">
var viewWidth = 516;
var viewHeight = 197;
var sectionId = 'dynsection-1';
</script>
<script xlink:href="../../svgpan.js"/>
<svg id="graph" class="graph">
<g id="viewport">
<title>tensorflow/tensorflow/compiler/xla/client/compile_only_client.h</title>
<polygon fill="#ffffff" stroke="transparent" points="-4,4 -4,-193 511.5957,-193 511.5957,4 -4,4"/>
<!-- Node43 -->
<g id="node1" class="node">
<title>Node43</title>
<polygon fill="#bfbfbf" stroke="#000000" points="139.436,-150.5 139.436,-188.5 253.8247,-188.5 253.8247,-150.5 139.436,-150.5"/>
<text text-anchor="start" x="147.436" y="-176.5" font-family="Helvetica,sans-Serif" font-size="10.00" fill="#000000">tensorflow/tensorflow</text>
<text text-anchor="start" x="147.436" y="-166.5" font-family="Helvetica,sans-Serif" font-size="10.00" fill="#000000">/compiler/xla/client</text>
<text text-anchor="middle" x="196.6304" y="-156.5" font-family="Helvetica,sans-Serif" font-size="10.00" fill="#000000">/compile_only_client.h</text>
</g>
<!-- Node44 -->
<g id="node2" class="node">
<title>Node44</title>
<g id="a_node2"><a xlink:href="../../d6/d17/compile_8cc.html" target="_top" xlink:title="tensorflow/tensorflow\l/compiler/aot/compile.cc">
<polygon fill="#ffffff" stroke="#000000" points="0,-5.5 0,-33.5 123.2607,-33.5 123.2607,-5.5 0,-5.5"/>
<text text-anchor="start" x="8" y="-21.5" font-family="Helvetica,sans-Serif" font-size="10.00" fill="#000000">tensorflow/tensorflow</text>
<text text-anchor="middle" x="61.6304" y="-11.5" font-family="Helvetica,sans-Serif" font-size="10.00" fill="#000000">/compiler/aot/compile.cc</text>
</a>
</g>
</g>
<!-- Node43&#45;&gt;Node44 -->
<g id="edge1" class="edge">
<title>Node43&#45;&gt;Node44</title>
<path fill="none" stroke="#191970" d="M164.3013,-143.7803C153.7654,-134.8046 142.3005,-124.3723 132.6304,-114 108.0019,-87.5831 83.679,-52.8234 70.8823,-33.6784"/>
<polygon fill="#191970" stroke="#191970" points="162.2172,-146.6002 172.132,-150.335 166.7103,-141.2324 162.2172,-146.6002"/>
</g>
<!-- Node45 -->
<g id="node3" class="node">
<title>Node45</title>
<g id="a_node3"><a xlink:href="../../db/d47/client__library_8h.html" target="_top" xlink:title="tensorflow/tensorflow\l/compiler/xla/client\l/client_library.h">
<polygon fill="#ffffff" stroke="#000000" points="141.665,-75.5 141.665,-113.5 251.5957,-113.5 251.5957,-75.5 141.665,-75.5"/>
<text text-anchor="start" x="149.665" y="-101.5" font-family="Helvetica,sans-Serif" font-size="10.00" fill="#000000">tensorflow/tensorflow</text>
<text text-anchor="start" x="149.665" y="-91.5" font-family="Helvetica,sans-Serif" font-size="10.00" fill="#000000">/compiler/xla/client</text>
<text text-anchor="middle" x="196.6304" y="-81.5" font-family="Helvetica,sans-Serif" font-size="10.00" fill="#000000">/client_library.h</text>
</a>
</g>
</g>
<!-- Node43&#45;&gt;Node45 -->
<g id="edge2" class="edge">
<title>Node43&#45;&gt;Node45</title>
<path fill="none" stroke="#191970" d="M196.6304,-139.8977C196.6304,-131.1033 196.6304,-121.7019 196.6304,-113.7489"/>
<polygon fill="#191970" stroke="#191970" points="193.1305,-140.1856 196.6304,-150.1856 200.1305,-140.1857 193.1305,-140.1856"/>
</g>
<!-- Node49 -->
<g id="node7" class="node">
<title>Node49</title>
<g id="a_node7"><a xlink:href="../../d8/d93/compile__only__client_8cc.html" target="_top" xlink:title="tensorflow/tensorflow\l/compiler/xla/client\l/compile_only_client.cc">
<polygon fill="#ffffff" stroke="#000000" points="269.2168,-75.5 269.2168,-113.5 388.0439,-113.5 388.0439,-75.5 269.2168,-75.5"/>
<text text-anchor="start" x="277.2168" y="-101.5" font-family="Helvetica,sans-Serif" font-size="10.00" fill="#000000">tensorflow/tensorflow</text>
<text text-anchor="start" x="277.2168" y="-91.5" font-family="Helvetica,sans-Serif" font-size="10.00" fill="#000000">/compiler/xla/client</text>
<text text-anchor="middle" x="328.6304" y="-81.5" font-family="Helvetica,sans-Serif" font-size="10.00" fill="#000000">/compile_only_client.cc</text>
</a>
</g>
</g>
<!-- Node43&#45;&gt;Node49 -->
<g id="edge7" class="edge">
<title>Node43&#45;&gt;Node49</title>
<path fill="none" stroke="#191970" d="M239.434,-145.1797C257.4633,-134.9359 278.1385,-123.1886 295.0411,-113.5848"/>
<polygon fill="#191970" stroke="#191970" points="237.2466,-142.397 230.2811,-150.3803 240.7047,-148.4832 237.2466,-142.397"/>
</g>
<!-- Node45&#45;&gt;Node44 -->
<g id="edge3" class="edge">
<title>Node45&#45;&gt;Node44</title>
<path fill="none" stroke="#191970" d="M153.4191,-70.4937C131.5269,-58.3314 105.7016,-43.984 87.0303,-33.6111"/>
<polygon fill="#191970" stroke="#191970" points="151.7735,-73.5834 162.2149,-75.3803 155.1731,-67.4642 151.7735,-73.5834"/>
</g>
<!-- Node46 -->
<g id="node4" class="node">
<title>Node46</title>
<g id="a_node4"><a xlink:href="../../d5/d88/xla__compiler_8cc.html" target="_top" xlink:title="tensorflow/tensorflow\l/compiler/tf2xla/xla\l_compiler.cc">
<polygon fill="#ffffff" stroke="#000000" points="141.665,-.5 141.665,-38.5 251.5957,-38.5 251.5957,-.5 141.665,-.5"/>
<text text-anchor="start" x="149.665" y="-26.5" font-family="Helvetica,sans-Serif" font-size="10.00" fill="#000000">tensorflow/tensorflow</text>
<text text-anchor="start" x="149.665" y="-16.5" font-family="Helvetica,sans-Serif" font-size="10.00" fill="#000000">/compiler/tf2xla/xla</text>
<text text-anchor="middle" x="196.6304" y="-6.5" font-family="Helvetica,sans-Serif" font-size="10.00" fill="#000000">_compiler.cc</text>
</a>
</g>
</g>
<!-- Node45&#45;&gt;Node46 -->
<g id="edge4" class="edge">
<title>Node45&#45;&gt;Node46</title>
<path fill="none" stroke="#191970" d="M196.6304,-64.8977C196.6304,-56.1033 196.6304,-46.7019 196.6304,-38.7489"/>
<polygon fill="#191970" stroke="#191970" points="193.1305,-65.1856 196.6304,-75.1856 200.1305,-65.1857 193.1305,-65.1856"/>
</g>
<!-- Node47 -->
<g id="node5" class="node">
<title>Node47</title>
<g id="a_node5"><a xlink:href="../../d2/d10/xla__op__registry_8cc.html" target="_top" xlink:title="tensorflow/tensorflow\l/compiler/tf2xla/xla\l_op_registry.cc">
<polygon fill="#ffffff" stroke="#000000" points="269.665,-.5 269.665,-38.5 379.5957,-38.5 379.5957,-.5 269.665,-.5"/>
<text text-anchor="start" x="277.665" y="-26.5" font-family="Helvetica,sans-Serif" font-size="10.00" fill="#000000">tensorflow/tensorflow</text>
<text text-anchor="start" x="277.665" y="-16.5" font-family="Helvetica,sans-Serif" font-size="10.00" fill="#000000">/compiler/tf2xla/xla</text>
<text text-anchor="middle" x="324.6304" y="-6.5" font-family="Helvetica,sans-Serif" font-size="10.00" fill="#000000">_op_registry.cc</text>
</a>
</g>
</g>
<!-- Node45&#45;&gt;Node47 -->
<g id="edge5" class="edge">
<title>Node45&#45;&gt;Node47</title>
<path fill="none" stroke="#191970" d="M238.137,-70.1797C255.6198,-59.9359 275.6685,-48.1886 292.059,-38.5848"/>
<polygon fill="#191970" stroke="#191970" points="236.1199,-67.305 229.2614,-75.3803 239.6588,-73.3446 236.1199,-67.305"/>
</g>
<!-- Node48 -->
<g id="node6" class="node">
<title>Node48</title>
<g id="a_node6"><a xlink:href="../../d3/dba/client__library_8cc.html" target="_top" xlink:title="tensorflow/tensorflow\l/compiler/xla/client\l/client_library.cc">
<polygon fill="#ffffff" stroke="#000000" points="397.665,-.5 397.665,-38.5 507.5957,-38.5 507.5957,-.5 397.665,-.5"/>
<text text-anchor="start" x="405.665" y="-26.5" font-family="Helvetica,sans-Serif" font-size="10.00" fill="#000000">tensorflow/tensorflow</text>
<text text-anchor="start" x="405.665" y="-16.5" font-family="Helvetica,sans-Serif" font-size="10.00" fill="#000000">/compiler/xla/client</text>
<text text-anchor="middle" x="452.6304" y="-6.5" font-family="Helvetica,sans-Serif" font-size="10.00" fill="#000000">/client_library.cc</text>
</a>
</g>
</g>
<!-- Node45&#45;&gt;Node48 -->
<g id="edge6" class="edge">
<title>Node45&#45;&gt;Node48</title>
<path fill="none" stroke="#191970" d="M261.3737,-74.812C318.9321,-58.0696 334.7974,-54.7694 388.6304,-39 391.5286,-38.151 394.4983,-37.2733 397.495,-36.3816"/>
<polygon fill="#191970" stroke="#191970" points="260.3833,-71.455 251.7658,-77.6184 262.346,-78.1742 260.3833,-71.455"/>
</g>
</g>
</svg>
        <g id="navigator" transform="translate(0 0)" fill="#404254">
                <rect fill="#f2f5e9" fill-opacity="0.5" stroke="#606060" stroke-width=".5" x="0" y="0" width="60" height="60"/>
                <use id="zoomplus" xlink:href="#zoomPlus" x="17" y="9" onmousedown="handleZoom(evt,'in')"/>
                <use id="zoomminus" xlink:href="#zoomMin" x="42" y="9" onmousedown="handleZoom(evt,'out')"/>
                <use id="reset" xlink:href="#resetDef" x="30" y="36" onmousedown="handleReset()"/>
                <g id="arrowUp" xlink:href="#dirArrow" transform="translate(30 24)" onmousedown="handlePan(0,-1)">
                  <use xlink:href="#rim" fill="#404040">
                        <set attributeName="fill" to="#808080" begin="arrowUp.mouseover" end="arrowUp.mouseout"/>
                  </use>
                  <path fill="none" stroke="white" stroke-width="1.5" d="M0,-3.0v7 M-2.5,-0.5L0,-3.0L2.5,-0.5"/>
                </g>
                <g id="arrowRight" xlink:href="#dirArrow" transform="rotate(90) translate(36 -43)" onmousedown="handlePan(1,0)">
                  <use xlink:href="#rim" fill="#404040">
                        <set attributeName="fill" to="#808080" begin="arrowRight.mouseover" end="arrowRight.mouseout"/>
                  </use>
                  <path fill="none" stroke="white" stroke-width="1.5" d="M0,-3.0v7 M-2.5,-0.5L0,-3.0L2.5,-0.5"/>
                </g>
                <g id="arrowDown" xlink:href="#dirArrow" transform="rotate(180) translate(-30 -48)" onmousedown="handlePan(0,1)">
                  <use xlink:href="#rim" fill="#404040">
                        <set attributeName="fill" to="#808080" begin="arrowDown.mouseover" end="arrowDown.mouseout"/>
                  </use>
                  <path fill="none" stroke="white" stroke-width="1.5" d="M0,-3.0v7 M-2.5,-0.5L0,-3.0L2.5,-0.5"/>
                </g>
                <g id="arrowLeft" xlink:href="#dirArrow" transform="rotate(270) translate(-36 17)" onmousedown="handlePan(-1,0)">
                  <use xlink:href="#rim" fill="#404040">
                        <set attributeName="fill" to="#808080" begin="arrowLeft.mouseover" end="arrowLeft.mouseout"/>
                  </use>
                  <path fill="none" stroke="white" stroke-width="1.5" d="M0,-3.0v7 M-2.5,-0.5L0,-3.0L2.5,-0.5"/>
                </g>
        </g>
        <svg viewBox="0 0 15 15" width="100%" height="30px" preserveAspectRatio="xMaxYMin meet">
         <g id="arrow_out" transform="scale(0.3 0.3)">
          <a xlink:href="compile__only__client_8h__dep__incl_org.svg" target="_base">
           <rect id="button" ry="5" rx="5" y="6" x="6" height="38" width="38"
                fill="#f2f5e9" fill-opacity="0.5" stroke="#606060" stroke-width="1.0"/>
           <path id="arrow"
             d="M 11.500037,31.436501 C 11.940474,20.09759 22.043105,11.32322 32.158766,21.979434 L 37.068811,17.246167 C 37.068811,17.246167 37.088388,32 37.088388,32 L 22.160133,31.978069 C 22.160133,31.978069 26.997745,27.140456 26.997745,27.140456 C 18.528582,18.264221 13.291696,25.230495 11.500037,31.436501 z"
             style="fill:#404040;"/>
          </a>
         </g>
        </svg>
</svg>
