<?xml version="1.0" encoding="UTF-8" standalone="no"?>
<!DOCTYPE svg PUBLIC "-//W3C//DTD SVG 1.1//EN"
 "http://www.w3.org/Graphics/SVG/1.1/DTD/svg11.dtd">
<!-- Generated by graphviz version 2.40.1 (20161225.0304)
 -->
<!-- Title: tensorflow/tensorflow/compiler/xla/service/cpu/cpu_parallelization_preparation.h Pages: 1 -->
<svg width="280pt" height="150pt"
 viewBox="0.00 0.00 280.00 150.00" xmlns="http://www.w3.org/2000/svg" xmlns:xlink="http://www.w3.org/1999/xlink">
<g id="graph0" class="graph" transform="scale(1 1) rotate(0) translate(4 146)">
<title>tensorflow/tensorflow/compiler/xla/service/cpu/cpu_parallelization_preparation.h</title>
<polygon fill="#ffffff" stroke="transparent" points="-4,4 -4,-146 276,-146 276,4 -4,4"/>
<!-- Node47 -->
<g id="node1" class="node">
<title>Node47</title>
<polygon fill="#bfbfbf" stroke="#000000" points="67,-89.5 67,-141.5 199,-141.5 199,-89.5 67,-89.5"/>
<text text-anchor="start" x="75" y="-129.5" font-family="Helvetica,sans-Serif" font-size="10.00" fill="#000000">tensorflow/tensorflow</text>
<text text-anchor="start" x="75" y="-118.5" font-family="Helvetica,sans-Serif" font-size="10.00" fill="#000000">/compiler/xla/service</text>
<text text-anchor="start" x="75" y="-107.5" font-family="Helvetica,sans-Serif" font-size="10.00" fill="#000000">/cpu/cpu_parallelization</text>
<text text-anchor="middle" x="133" y="-96.5" font-family="Helvetica,sans-Serif" font-size="10.00" fill="#000000">_preparation.h</text>
</g>
<!-- Node48 -->
<g id="node2" class="node">
<title>Node48</title>
<g id="a_node2"><a xlink:href="../../d4/dcb/cpu__compiler_8cc.html" target="_top" xlink:title="tensorflow/tensorflow\l/compiler/xla/service\l/cpu/cpu_compiler.cc">
<polygon fill="#ffffff" stroke="#000000" points="0,-6 0,-47 122,-47 122,-6 0,-6"/>
<text text-anchor="start" x="8" y="-35" font-family="Helvetica,sans-Serif" font-size="10.00" fill="#000000">tensorflow/tensorflow</text>
<text text-anchor="start" x="8" y="-24" font-family="Helvetica,sans-Serif" font-size="10.00" fill="#000000">/compiler/xla/service</text>
<text text-anchor="middle" x="61" y="-13" font-family="Helvetica,sans-Serif" font-size="10.00" fill="#000000">/cpu/cpu_compiler.cc</text>
</a>
</g>
</g>
<!-- Node47&#45;&gt;Node48 -->
<g id="edge1" class="edge">
<title>Node47&#45;&gt;Node48</title>
<path fill="none" stroke="#191970" d="M105.4777,-81.4794C96.1293,-69.9238 85.9723,-57.3685 77.7276,-47.1771"/>
<polygon fill="#191970" stroke="#191970" points="102.7765,-83.7053 111.787,-89.2784 108.2186,-79.3026 102.7765,-83.7053"/>
</g>
<!-- Node49 -->
<g id="node3" class="node">
<title>Node49</title>
<g id="a_node3"><a xlink:href="../../d8/d10/cpu__parallelization__preparation_8cc.html" target="_top" xlink:title="tensorflow/tensorflow\l/compiler/xla/service\l/cpu/cpu_parallelization\l_preparation.cc">
<polygon fill="#ffffff" stroke="#000000" points="140,-.5 140,-52.5 272,-52.5 272,-.5 140,-.5"/>
<text text-anchor="start" x="148" y="-40.5" font-family="Helvetica,sans-Serif" font-size="10.00" fill="#000000">tensorflow/tensorflow</text>
<text text-anchor="start" x="148" y="-29.5" font-family="Helvetica,sans-Serif" font-size="10.00" fill="#000000">/compiler/xla/service</text>
<text text-anchor="start" x="148" y="-18.5" font-family="Helvetica,sans-Serif" font-size="10.00" fill="#000000">/cpu/cpu_parallelization</text>
<text text-anchor="middle" x="206" y="-7.5" font-family="Helvetica,sans-Serif" font-size="10.00" fill="#000000">_preparation.cc</text>
</a>
</g>
</g>
<!-- Node47&#45;&gt;Node49 -->
<g id="edge2" class="edge">
<title>Node47&#45;&gt;Node49</title>
<path fill="none" stroke="#191970" d="M160.9463,-81.4285C168.8097,-71.8416 177.2344,-61.5704 184.6461,-52.5341"/>
<polygon fill="#191970" stroke="#191970" points="158.1433,-79.3269 154.5076,-89.2784 163.5556,-83.7662 158.1433,-79.3269"/>
</g>
</g>
</svg>
