<?xml version="1.0" encoding="UTF-8" standalone="no"?>
<!DOCTYPE svg PUBLIC "-//W3C//DTD SVG 1.1//EN"
 "http://www.w3.org/Graphics/SVG/1.1/DTD/svg11.dtd">
<!-- Generated by graphviz version 2.40.1 (20161225.0304)
 -->
<!-- Title: xla::HloModule Pages: 1 -->
<svg width="244pt" height="262pt"
 viewBox="0.00 0.00 244.50 262.00" xmlns="http://www.w3.org/2000/svg" xmlns:xlink="http://www.w3.org/1999/xlink">
<g id="graph0" class="graph" transform="scale(1 1) rotate(0) translate(4 258)">
<title>xla::HloModule</title>
<polygon fill="#ffffff" stroke="transparent" points="-4,4 -4,-258 240.5,-258 240.5,4 -4,4"/>
<!-- Node1 -->
<g id="node1" class="node">
<title>Node1</title>
<polygon fill="#bfbfbf" stroke="#000000" points="30,-156.5 30,-175.5 119,-175.5 119,-156.5 30,-156.5"/>
<text text-anchor="middle" x="74.5" y="-163.5" font-family="Helvetica,sans-Serif" font-size="10.00" fill="#000000">xla::HloModule</text>
</g>
<!-- Node3 -->
<g id="node3" class="node">
<title>Node3</title>
<g id="a_node3"><a xlink:href="../../d4/d36/classxla_1_1HloComputation.html" target="_top" xlink:title="xla::HloComputation">
<polygon fill="#ffffff" stroke="#000000" points="16,-89.5 16,-108.5 133,-108.5 133,-89.5 16,-89.5"/>
<text text-anchor="middle" x="74.5" y="-96.5" font-family="Helvetica,sans-Serif" font-size="10.00" fill="#000000">xla::HloComputation</text>
</a>
</g>
</g>
<!-- Node1&#45;&gt;Node3 -->
<g id="edge6" class="edge">
<title>Node1&#45;&gt;Node3</title>
<path fill="none" stroke="#9a32cd" stroke-dasharray="5,2" d="M49.5578,-150.0555C45.8884,-146.5511 42.6315,-142.5166 40.5,-138 35.1329,-126.6272 45.8045,-116.0296 56.5777,-108.7606"/>
<polygon fill="#9a32cd" stroke="#9a32cd" points="47.4802,-152.8776 57.4406,-156.4889 51.9063,-147.4544 47.4802,-152.8776"/>
<text text-anchor="middle" x="60.5" y="-130" font-family="Helvetica,sans-Serif" font-size="10.00" fill="#000000"> parent_</text>
</g>
<!-- Node2 -->
<g id="node2" class="node">
<title>Node2</title>
<g id="a_node2"><a xlink:href="../../db/df3/structxla_1_1VersionedComputationHandle.html" target="_top" xlink:title="xla::VersionedComputation\lHandle">
<polygon fill="#ffffff" stroke="#000000" points="0,-223.5 0,-253.5 149,-253.5 149,-223.5 0,-223.5"/>
<text text-anchor="start" x="8" y="-241.5" font-family="Helvetica,sans-Serif" font-size="10.00" fill="#000000">xla::VersionedComputation</text>
<text text-anchor="middle" x="74.5" y="-230.5" font-family="Helvetica,sans-Serif" font-size="10.00" fill="#000000">Handle</text>
</a>
</g>
</g>
<!-- Node2&#45;&gt;Node1 -->
<g id="edge1" class="edge">
<title>Node2&#45;&gt;Node1</title>
<path fill="none" stroke="#9a32cd" stroke-dasharray="5,2" d="M74.5,-213.305C74.5,-200.424 74.5,-185.4836 74.5,-175.8957"/>
<polygon fill="#9a32cd" stroke="#9a32cd" points="71.0001,-213.4779 74.5,-223.478 78.0001,-213.478 71.0001,-213.4779"/>
<text text-anchor="middle" x="144" y="-197" font-family="Helvetica,sans-Serif" font-size="10.00" fill="#000000"> entry_computation_handle_</text>
</g>
<!-- Node3&#45;&gt;Node1 -->
<g id="edge2" class="edge">
<title>Node3&#45;&gt;Node1</title>
<path fill="none" stroke="#9a32cd" stroke-dasharray="5,2" d="M82.3616,-118.3227C83.2456,-121.1901 84.005,-124.1423 84.5,-127 86.2656,-137.1932 82.6474,-148.6354 79.2804,-156.4756"/>
<polygon fill="#9a32cd" stroke="#9a32cd" points="85.5491,-116.8444 78.863,-108.6257 78.9646,-119.2201 85.5491,-116.8444"/>
<text text-anchor="middle" x="135" y="-130" font-family="Helvetica,sans-Serif" font-size="10.00" fill="#000000"> entry_computation_</text>
</g>
<!-- Node4 -->
<g id="node4" class="node">
<title>Node4</title>
<g id="a_node4"><a xlink:href="../../d7/d59/classxla_1_1HloInstruction.html" target="_top" xlink:title="xla::HloInstruction">
<polygon fill="#ffffff" stroke="#000000" points="21.5,-.5 21.5,-19.5 127.5,-19.5 127.5,-.5 21.5,-.5"/>
<text text-anchor="middle" x="74.5" y="-7.5" font-family="Helvetica,sans-Serif" font-size="10.00" fill="#000000">xla::HloInstruction</text>
</a>
</g>
</g>
<!-- Node3&#45;&gt;Node4 -->
<g id="edge5" class="edge">
<title>Node3&#45;&gt;Node4</title>
<path fill="none" stroke="#9a32cd" stroke-dasharray="5,2" d="M49.5578,-83.0555C45.8884,-79.5511 42.6315,-75.5166 40.5,-71 34.2405,-57.7362 34.2405,-51.2638 40.5,-38 44.0899,-30.3931 50.8722,-24.1537 57.4406,-19.5111"/>
<polygon fill="#9a32cd" stroke="#9a32cd" points="47.4802,-85.8776 57.4406,-89.4889 51.9063,-80.4544 47.4802,-85.8776"/>
<text text-anchor="middle" x="60.5" y="-52" font-family="Helvetica,sans-Serif" font-size="10.00" fill="#000000"> parent_</text>
</g>
<!-- Node4&#45;&gt;Node3 -->
<g id="edge3" class="edge">
<title>Node4&#45;&gt;Node3</title>
<path fill="none" stroke="#9a32cd" stroke-dasharray="5,2" d="M82.3616,-29.3227C83.2456,-32.1901 84.005,-35.1423 84.5,-38 87.0032,-52.4515 87.0032,-56.5485 84.5,-71 83.4076,-77.3068 81.0273,-84.0732 78.863,-89.3743"/>
<polygon fill="#9a32cd" stroke="#9a32cd" points="85.5491,-27.8444 78.863,-19.6257 78.9646,-30.2201 85.5491,-27.8444"/>
<text text-anchor="start" x="85.5" y="-63" font-family="Helvetica,sans-Serif" font-size="10.00" fill="#000000"> fusion_instruction</text>
<text text-anchor="middle" x="131" y="-52" font-family="Helvetica,sans-Serif" font-size="10.00" fill="#000000">_</text>
<text text-anchor="middle" x="131" y="-41" font-family="Helvetica,sans-Serif" font-size="10.00" fill="#000000">root_instruction_</text>
</g>
<!-- Node4&#45;&gt;Node4 -->
<g id="edge4" class="edge">
<title>Node4&#45;&gt;Node4</title>
<path fill="none" stroke="#9a32cd" stroke-dasharray="5,2" d="M137.9305,-16.1307C142.622,-14.756 145.5,-12.7124 145.5,-10 145.5,-5.6602 138.1323,-3.0325 127.7572,-2.1171"/>
<polygon fill="#9a32cd" stroke="#9a32cd" points="137.018,-12.7363 127.7572,-17.8829 138.2062,-19.6347 137.018,-12.7363"/>
<text text-anchor="middle" x="191" y="-7.5" font-family="Helvetica,sans-Serif" font-size="10.00" fill="#000000"> trace_instruction_</text>
</g>
</g>
</svg>
