<?xml version="1.0" encoding="UTF-8" standalone="no"?>
<!DOCTYPE svg PUBLIC "-//W3C//DTD SVG 1.1//EN"
 "http://www.w3.org/Graphics/SVG/1.1/DTD/svg11.dtd">
<!-- Generated by graphviz version 2.40.1 (20161225.0304)
 -->
<!-- Title: tensorflow/tensorflow/compiler/xla/client/compile_only_client.cc Pages: 1 -->
<svg width="3439pt" height="574pt"
 viewBox="0.00 0.00 3439.50 574.00" xmlns="http://www.w3.org/2000/svg" xmlns:xlink="http://www.w3.org/1999/xlink">
<g id="graph0" class="graph" transform="scale(1 1) rotate(0) translate(4 570)">
<title>tensorflow/tensorflow/compiler/xla/client/compile_only_client.cc</title>
<polygon fill="#ffffff" stroke="transparent" points="-4,4 -4,-570 3435.5,-570 3435.5,4 -4,4"/>
<!-- Node0 -->
<g id="node1" class="node">
<title>Node0</title>
<polygon fill="#bfbfbf" stroke="#000000" points="2299,-524.5 2299,-565.5 2430,-565.5 2430,-524.5 2299,-524.5"/>
<text text-anchor="start" x="2307" y="-553.5" font-family="Helvetica,sans-Serif" font-size="10.00" fill="#000000">tensorflow/tensorflow</text>
<text text-anchor="start" x="2307" y="-542.5" font-family="Helvetica,sans-Serif" font-size="10.00" fill="#000000">/compiler/xla/client</text>
<text text-anchor="middle" x="2364.5" y="-531.5" font-family="Helvetica,sans-Serif" font-size="10.00" fill="#000000">/compile_only_client.cc</text>
</g>
<!-- Node1 -->
<g id="node2" class="node">
<title>Node1</title>
<g id="a_node2"><a xlink:href="../../d4/dab/compile__only__client_8h.html" target="_top" xlink:title="tensorflow/compiler\l/xla/client/compile\l_only_client.h">
<polygon fill="#ffffff" stroke="#000000" points="2121,-446.5 2121,-487.5 2234,-487.5 2234,-446.5 2121,-446.5"/>
<text text-anchor="start" x="2129" y="-475.5" font-family="Helvetica,sans-Serif" font-size="10.00" fill="#000000">tensorflow/compiler</text>
<text text-anchor="start" x="2129" y="-464.5" font-family="Helvetica,sans-Serif" font-size="10.00" fill="#000000">/xla/client/compile</text>
<text text-anchor="middle" x="2177.5" y="-453.5" font-family="Helvetica,sans-Serif" font-size="10.00" fill="#000000">_only_client.h</text>
</a>
</g>
</g>
<!-- Node0&#45;&gt;Node1 -->
<g id="edge1" class="edge">
<title>Node0&#45;&gt;Node1</title>
<path fill="none" stroke="#191970" d="M2314.8784,-524.3022C2290.7002,-514.2172 2261.4594,-502.0205 2236.1803,-491.4763"/>
<polygon fill="#191970" stroke="#191970" points="2237.2813,-488.1433 2226.7046,-487.5239 2234.5865,-494.6038 2237.2813,-488.1433"/>
</g>
<!-- Node70 -->
<g id="node48" class="node">
<title>Node70</title>
<polygon fill="#ffffff" stroke="#bfbfbf" points="2252.5,-457.5 2252.5,-476.5 2352.5,-476.5 2352.5,-457.5 2252.5,-457.5"/>
<text text-anchor="middle" x="2302.5" y="-464.5" font-family="Helvetica,sans-Serif" font-size="10.00" fill="#000000">llvm/ADT/Triple.h</text>
</g>
<!-- Node0&#45;&gt;Node70 -->
<g id="edge118" class="edge">
<title>Node0&#45;&gt;Node70</title>
<path fill="none" stroke="#191970" d="M2347.8851,-524.0974C2338.1668,-511.8711 2326.0248,-496.5957 2316.7457,-484.922"/>
<polygon fill="#191970" stroke="#191970" points="2319.2578,-482.4576 2310.2954,-476.8072 2313.778,-486.8133 2319.2578,-482.4576"/>
</g>
<!-- Node71 -->
<g id="node49" class="node">
<title>Node71</title>
<polygon fill="#ffffff" stroke="#bfbfbf" points="2371,-452 2371,-482 2484,-482 2484,-452 2371,-452"/>
<text text-anchor="start" x="2379" y="-470" font-family="Helvetica,sans-Serif" font-size="10.00" fill="#000000">tensorflow/compiler</text>
<text text-anchor="middle" x="2427.5" y="-459" font-family="Helvetica,sans-Serif" font-size="10.00" fill="#000000">/xla/ptr_util.h</text>
</g>
<!-- Node0&#45;&gt;Node71 -->
<g id="edge119" class="edge">
<title>Node0&#45;&gt;Node71</title>
<path fill="none" stroke="#191970" d="M2381.3828,-524.0974C2389.8638,-513.5972 2400.1612,-500.848 2408.8724,-490.0628"/>
<polygon fill="#191970" stroke="#191970" points="2411.6077,-492.2465 2415.1683,-482.2679 2406.1621,-487.8481 2411.6077,-492.2465"/>
</g>
<!-- Node72 -->
<g id="node50" class="node">
<title>Node72</title>
<polygon fill="#ffffff" stroke="#bfbfbf" points="2502.5,-452 2502.5,-482 2620.5,-482 2620.5,-452 2502.5,-452"/>
<text text-anchor="start" x="2510.5" y="-470" font-family="Helvetica,sans-Serif" font-size="10.00" fill="#000000">tensorflow/compiler</text>
<text text-anchor="middle" x="2561.5" y="-459" font-family="Helvetica,sans-Serif" font-size="10.00" fill="#000000">/xla/status_macros.h</text>
</g>
<!-- Node0&#45;&gt;Node72 -->
<g id="edge120" class="edge">
<title>Node0&#45;&gt;Node72</title>
<path fill="none" stroke="#191970" d="M2416.5171,-524.4044C2446.7302,-512.4419 2484.5139,-497.4818 2513.9342,-485.8332"/>
<polygon fill="#191970" stroke="#191970" points="2515.5587,-488.9544 2523.5679,-482.0188 2512.9817,-482.446 2515.5587,-488.9544"/>
</g>
<!-- Node2 -->
<g id="node3" class="node">
<title>Node2</title>
<polygon fill="#ffffff" stroke="#bfbfbf" points="0,-374 0,-404 113,-404 113,-374 0,-374"/>
<text text-anchor="start" x="8" y="-392" font-family="Helvetica,sans-Serif" font-size="10.00" fill="#000000">tensorflow/compiler</text>
<text text-anchor="middle" x="56.5" y="-381" font-family="Helvetica,sans-Serif" font-size="10.00" fill="#000000">/xla/client/client.h</text>
</g>
<!-- Node1&#45;&gt;Node2 -->
<g id="edge2" class="edge">
<title>Node1&#45;&gt;Node2</title>
<path fill="none" stroke="#191970" d="M2120.9757,-466.3768C1810.9994,-462.8333 324.0668,-444.1629 122.5,-410 117.5152,-409.1551 112.3874,-408.0213 107.2981,-406.7162"/>
<polygon fill="#191970" stroke="#191970" points="108.1779,-403.3282 97.6061,-404.0263 106.3058,-410.0732 108.1779,-403.3282"/>
</g>
<!-- Node3 -->
<g id="node4" class="node">
<title>Node3</title>
<polygon fill="#ffffff" stroke="#bfbfbf" points="131.5,-374 131.5,-404 269.5,-404 269.5,-374 131.5,-374"/>
<text text-anchor="start" x="139.5" y="-392" font-family="Helvetica,sans-Serif" font-size="10.00" fill="#000000">tensorflow/compiler</text>
<text text-anchor="middle" x="200.5" y="-381" font-family="Helvetica,sans-Serif" font-size="10.00" fill="#000000">/xla/client/computation.h</text>
</g>
<!-- Node1&#45;&gt;Node3 -->
<g id="edge3" class="edge">
<title>Node1&#45;&gt;Node3</title>
<path fill="none" stroke="#191970" d="M2120.6623,-466.0271C1824.9802,-460.8669 469.1029,-435.9566 283.5,-410 276.7746,-409.0594 269.8061,-407.7858 262.8955,-406.3278"/>
<polygon fill="#191970" stroke="#191970" points="263.3704,-402.8475 252.8472,-404.0772 261.8404,-409.6783 263.3704,-402.8475"/>
</g>
<!-- Node4 -->
<g id="node5" class="node">
<title>Node4</title>
<g id="a_node5"><a xlink:href="../../d2/d89/compile__only__service_8h.html" target="_top" xlink:title="tensorflow/compiler\l/xla/service/compile\l_only_service.h">
<polygon fill="#ffffff" stroke="#000000" points="2120,-368.5 2120,-409.5 2235,-409.5 2235,-368.5 2120,-368.5"/>
<text text-anchor="start" x="2128" y="-397.5" font-family="Helvetica,sans-Serif" font-size="10.00" fill="#000000">tensorflow/compiler</text>
<text text-anchor="start" x="2128" y="-386.5" font-family="Helvetica,sans-Serif" font-size="10.00" fill="#000000">/xla/service/compile</text>
<text text-anchor="middle" x="2177.5" y="-375.5" font-family="Helvetica,sans-Serif" font-size="10.00" fill="#000000">_only_service.h</text>
</a>
</g>
</g>
<!-- Node1&#45;&gt;Node4 -->
<g id="edge4" class="edge">
<title>Node1&#45;&gt;Node4</title>
<path fill="none" stroke="#191970" d="M2177.5,-446.0974C2177.5,-438.077 2177.5,-428.7444 2177.5,-419.9772"/>
<polygon fill="#191970" stroke="#191970" points="2181.0001,-419.6898 2177.5,-409.6898 2174.0001,-419.6898 2181.0001,-419.6898"/>
</g>
<!-- Node6 -->
<g id="node7" class="node">
<title>Node6</title>
<g id="a_node7"><a xlink:href="../../d4/dd1/compiler_8h.html" target="_top" xlink:title="tensorflow/compiler\l/xla/service/compiler.h">
<polygon fill="#ffffff" stroke="#000000" points="2533,-229 2533,-259 2660,-259 2660,-229 2533,-229"/>
<text text-anchor="start" x="2541" y="-247" font-family="Helvetica,sans-Serif" font-size="10.00" fill="#000000">tensorflow/compiler</text>
<text text-anchor="middle" x="2596.5" y="-236" font-family="Helvetica,sans-Serif" font-size="10.00" fill="#000000">/xla/service/compiler.h</text>
</a>
</g>
</g>
<!-- Node1&#45;&gt;Node6 -->
<g id="edge114" class="edge">
<title>Node1&#45;&gt;Node6</title>
<path fill="none" stroke="#191970" d="M2216.1675,-446.4204C2296.3749,-403.7325 2479.9501,-306.0301 2559.0762,-263.9177"/>
<polygon fill="#191970" stroke="#191970" points="2561.0107,-266.853 2568.1939,-259.065 2557.7219,-260.6737 2561.0107,-266.853"/>
</g>
<!-- Node47 -->
<g id="node22" class="node">
<title>Node47</title>
<polygon fill="#ffffff" stroke="#bfbfbf" points="3047,-.5 3047,-30.5 3160,-30.5 3160,-.5 3047,-.5"/>
<text text-anchor="start" x="3055" y="-18.5" font-family="Helvetica,sans-Serif" font-size="10.00" fill="#000000">tensorflow/compiler</text>
<text text-anchor="middle" x="3103.5" y="-7.5" font-family="Helvetica,sans-Serif" font-size="10.00" fill="#000000">/xla/statusor.h</text>
</g>
<!-- Node1&#45;&gt;Node47 -->
<g id="edge115" class="edge">
<title>Node1&#45;&gt;Node47</title>
<path fill="none" stroke="#191970" d="M2234.1414,-447.9267C2237.2877,-447.1967 2240.4216,-446.5454 2243.5,-446 2612.7566,-380.573 2715.9108,-467.4002 3086.5,-410 3243.4926,-385.6836 3431.5,-475.3646 3431.5,-316.5 3431.5,-316.5 3431.5,-316.5 3431.5,-166 3431.5,-107.4243 3395.0343,-96.6208 3344.5,-67 3315.3918,-49.9381 3230.6739,-34.3518 3169.9163,-24.899"/>
<polygon fill="#191970" stroke="#191970" points="3170.4209,-21.4356 3160.0057,-23.3781 3169.3591,-28.3546 3170.4209,-21.4356"/>
</g>
<!-- Node35 -->
<g id="node24" class="node">
<title>Node35</title>
<polygon fill="#ffffff" stroke="#bfbfbf" points="387,-.5 387,-30.5 500,-30.5 500,-.5 387,-.5"/>
<text text-anchor="start" x="395" y="-18.5" font-family="Helvetica,sans-Serif" font-size="10.00" fill="#000000">tensorflow/compiler</text>
<text text-anchor="middle" x="443.5" y="-7.5" font-family="Helvetica,sans-Serif" font-size="10.00" fill="#000000">/xla/xla_data.pb.h</text>
</g>
<!-- Node1&#45;&gt;Node35 -->
<g id="edge116" class="edge">
<title>Node1&#45;&gt;Node35</title>
<path fill="none" stroke="#191970" d="M2120.6142,-465.6755C1832.2872,-458.57 540.0397,-421.8877 387.5,-332 314.8554,-289.1924 332.4861,-226.1178 355.5,-145 365.7738,-108.7876 366.9596,-97.8691 388.5,-67 396.1026,-56.1048 406.3296,-45.7487 415.9019,-37.2188"/>
<polygon fill="#191970" stroke="#191970" points="418.4079,-39.6803 423.7167,-30.5114 413.8489,-34.3685 418.4079,-39.6803"/>
</g>
<!-- Node54 -->
<g id="node32" class="node">
<title>Node54</title>
<polygon fill="#ffffff" stroke="#bfbfbf" points="3208,-151 3208,-181 3365,-181 3365,-151 3208,-151"/>
<text text-anchor="start" x="3216" y="-169" font-family="Helvetica,sans-Serif" font-size="10.00" fill="#000000">tensorflow/core/platform</text>
<text text-anchor="middle" x="3286.5" y="-158" font-family="Helvetica,sans-Serif" font-size="10.00" fill="#000000">/stream_executor_no_cuda.h</text>
</g>
<!-- Node1&#45;&gt;Node54 -->
<g id="edge117" class="edge">
<title>Node1&#45;&gt;Node54</title>
<path fill="none" stroke="#191970" d="M2234.2461,-448.4208C2237.3654,-447.5634 2240.4648,-446.7495 2243.5,-446 2689.2147,-335.9376 2923.0347,-576.2756 3260.5,-265 3280.7055,-246.3626 3285.9858,-214.1019 3287.0005,-191.4865"/>
<polygon fill="#191970" stroke="#191970" points="3290.5042,-191.3284 3287.2027,-181.2612 3283.5056,-191.19 3290.5042,-191.3284"/>
</g>
<!-- Node5 -->
<g id="node6" class="node">
<title>Node5</title>
<polygon fill="#ffffff" stroke="#bfbfbf" points="363.5,-229 363.5,-259 489.5,-259 489.5,-229 363.5,-229"/>
<text text-anchor="start" x="371.5" y="-247" font-family="Helvetica,sans-Serif" font-size="10.00" fill="#000000">tensorflow/compiler</text>
<text text-anchor="middle" x="426.5" y="-236" font-family="Helvetica,sans-Serif" font-size="10.00" fill="#000000">/xla/service/backend.h</text>
</g>
<!-- Node4&#45;&gt;Node5 -->
<g id="edge5" class="edge">
<title>Node4&#45;&gt;Node5</title>
<path fill="none" stroke="#191970" d="M2119.7922,-386.2197C1863.2552,-373.6307 824.8225,-320.1888 503.5,-265 497.8134,-264.0233 491.9395,-262.8087 486.0897,-261.4595"/>
<polygon fill="#191970" stroke="#191970" points="486.8488,-258.0422 476.305,-259.0799 485.1947,-264.8439 486.8488,-258.0422"/>
</g>
<!-- Node4&#45;&gt;Node6 -->
<g id="edge6" class="edge">
<title>Node4&#45;&gt;Node6</title>
<path fill="none" stroke="#191970" d="M2235.3202,-368.9906C2316.8073,-340.791 2464.2818,-289.7557 2543.2272,-262.4357"/>
<polygon fill="#191970" stroke="#191970" points="2544.6646,-265.642 2552.9701,-259.064 2542.3753,-259.0269 2544.6646,-265.642"/>
</g>
<!-- Node4&#45;&gt;Node47 -->
<g id="edge111" class="edge">
<title>Node4&#45;&gt;Node47</title>
<path fill="none" stroke="#191970" d="M2235.1662,-386.3087C2396.0772,-378.5867 2847.7721,-355.4081 2994.5,-332 3114.8923,-312.7933 3149.3506,-315.0901 3260.5,-265 3316.4703,-239.7767 3345.8586,-241.3006 3374.5,-187 3421.7913,-97.3413 3264.7611,-48.47 3170.1026,-27.7182"/>
<polygon fill="#191970" stroke="#191970" points="3170.8102,-24.2905 3160.2991,-25.6201 3169.3452,-31.1355 3170.8102,-24.2905"/>
</g>
<!-- Node4&#45;&gt;Node35 -->
<g id="edge112" class="edge">
<title>Node4&#45;&gt;Node35</title>
<path fill="none" stroke="#191970" d="M2119.9389,-388.6992C1932.0021,-387.2668 1319.477,-379.044 815.5,-332 609.3547,-312.7573 489.9639,-421.5749 354.5,-265 324.1355,-229.9034 396.965,-95.0721 429.1499,-39.5767"/>
<polygon fill="#191970" stroke="#191970" points="432.2697,-41.1751 434.2997,-30.7765 426.2282,-37.6396 432.2697,-41.1751"/>
</g>
<!-- Node4&#45;&gt;Node54 -->
<g id="edge113" class="edge">
<title>Node4&#45;&gt;Node54</title>
<path fill="none" stroke="#191970" d="M2235.3404,-385.213C2443.4048,-371.18 3145.9171,-320.1033 3229.5,-265 3255.7512,-247.6935 3271.3489,-213.8537 3279.4204,-190.596"/>
<polygon fill="#191970" stroke="#191970" points="3282.7593,-191.646 3282.5194,-181.0539 3276.1016,-189.4837 3282.7593,-191.646"/>
</g>
<!-- Node56 -->
<g id="node34" class="node">
<title>Node56</title>
<g id="a_node34"><a xlink:href="../../d5/d83/service_8h.html" target="_top" xlink:title="tensorflow/compiler\l/xla/service/service.h">
<polygon fill="#ffffff" stroke="#000000" points="1652.5,-301.5 1652.5,-331.5 1772.5,-331.5 1772.5,-301.5 1652.5,-301.5"/>
<text text-anchor="start" x="1660.5" y="-319.5" font-family="Helvetica,sans-Serif" font-size="10.00" fill="#000000">tensorflow/compiler</text>
<text text-anchor="middle" x="1712.5" y="-308.5" font-family="Helvetica,sans-Serif" font-size="10.00" fill="#000000">/xla/service/service.h</text>
</a>
</g>
</g>
<!-- Node4&#45;&gt;Node56 -->
<g id="edge51" class="edge">
<title>Node4&#45;&gt;Node56</title>
<path fill="none" stroke="#191970" d="M2119.5476,-379.9644C2034.1303,-366.6467 1874.6413,-341.7801 1782.7049,-327.4459"/>
<polygon fill="#191970" stroke="#191970" points="1783.0777,-323.9618 1772.6578,-325.8794 1781.9992,-330.8783 1783.0777,-323.9618"/>
</g>
<!-- Node7 -->
<g id="node8" class="node">
<title>Node7</title>
<polygon fill="#ffffff" stroke="#bfbfbf" points="2934,-78.5 2934,-97.5 2999,-97.5 2999,-78.5 2934,-78.5"/>
<text text-anchor="middle" x="2966.5" y="-85.5" font-family="Helvetica,sans-Serif" font-size="10.00" fill="#000000">functional</text>
</g>
<!-- Node6&#45;&gt;Node7 -->
<g id="edge7" class="edge">
<title>Node6&#45;&gt;Node7</title>
<path fill="none" stroke="#191970" d="M2660.1974,-233.2011C2700.6718,-224.5782 2753.213,-210.041 2795.5,-187 2820.3919,-173.4372 2819.7328,-160.4492 2843.5,-145 2851.7617,-139.6297 2901.8514,-116.8928 2935.5079,-101.809"/>
<polygon fill="#191970" stroke="#191970" points="2937.2396,-104.8687 2944.9384,-97.59 2934.381,-98.479 2937.2396,-104.8687"/>
</g>
<!-- Node8 -->
<g id="node9" class="node">
<title>Node8</title>
<polygon fill="#ffffff" stroke="#bfbfbf" points="1250.5,-78.5 1250.5,-97.5 1288.5,-97.5 1288.5,-78.5 1250.5,-78.5"/>
<text text-anchor="middle" x="1269.5" y="-85.5" font-family="Helvetica,sans-Serif" font-size="10.00" fill="#000000">map</text>
</g>
<!-- Node6&#45;&gt;Node8 -->
<g id="edge8" class="edge">
<title>Node6&#45;&gt;Node8</title>
<path fill="none" stroke="#191970" d="M2532.7428,-230.4701C2517.3365,-227.6079 2500.8788,-224.886 2485.5,-223 2207.1288,-188.8607 2134.6116,-214.436 1855.5,-187 1606.2899,-162.5032 1528.9939,-204.4797 1297.5,-109 1294.1401,-107.6142 1290.8218,-105.7296 1287.709,-103.655"/>
<polygon fill="#191970" stroke="#191970" points="1289.7104,-100.7807 1279.6166,-97.5609 1285.4994,-106.3725 1289.7104,-100.7807"/>
</g>
<!-- Node9 -->
<g id="node10" class="node">
<title>Node9</title>
<polygon fill="#ffffff" stroke="#bfbfbf" points="2754.5,-6 2754.5,-25 2812.5,-25 2812.5,-6 2754.5,-6"/>
<text text-anchor="middle" x="2783.5" y="-13" font-family="Helvetica,sans-Serif" font-size="10.00" fill="#000000">memory</text>
</g>
<!-- Node6&#45;&gt;Node9 -->
<g id="edge9" class="edge">
<title>Node6&#45;&gt;Node9</title>
<path fill="none" stroke="#191970" d="M2632.079,-228.952C2656.9627,-218.081 2690.7546,-202.6188 2719.5,-187 2726.651,-183.1145 2839.565,-116.1239 2843.5,-109 2852.5254,-92.6603 2851.2942,-83.9616 2843.5,-67 2836.5142,-51.7977 2822.5812,-39.3979 2809.8989,-30.5778"/>
<polygon fill="#191970" stroke="#191970" points="2811.7087,-27.5796 2801.4195,-25.0531 2807.8874,-33.4446 2811.7087,-27.5796"/>
</g>
<!-- Node10 -->
<g id="node11" class="node">
<title>Node10</title>
<polygon fill="#ffffff" stroke="#bfbfbf" points="1710.5,-6 1710.5,-25 1754.5,-25 1754.5,-6 1710.5,-6"/>
<text text-anchor="middle" x="1732.5" y="-13" font-family="Helvetica,sans-Serif" font-size="10.00" fill="#000000">string</text>
</g>
<!-- Node6&#45;&gt;Node10 -->
<g id="edge10" class="edge">
<title>Node6&#45;&gt;Node10</title>
<path fill="none" stroke="#191970" d="M2532.6292,-229.8948C2441.7251,-209.9942 2269.7143,-172.9825 2122.5,-145 2029.4709,-127.317 1995.779,-154.0745 1912.5,-109 1890.0976,-96.8748 1894.719,-81.0941 1873.5,-67 1839.5169,-44.4278 1794.3711,-30.204 1764.4217,-22.5589"/>
<polygon fill="#191970" stroke="#191970" points="1765.0512,-19.1096 1754.5052,-20.1262 1763.3833,-25.908 1765.0512,-19.1096"/>
</g>
<!-- Node11 -->
<g id="node12" class="node">
<title>Node11</title>
<polygon fill="#ffffff" stroke="#bfbfbf" points="1865,-151 1865,-181 2004,-181 2004,-151 1865,-151"/>
<text text-anchor="start" x="1873" y="-169" font-family="Helvetica,sans-Serif" font-size="10.00" fill="#000000">tensorflow/compiler</text>
<text text-anchor="middle" x="1934.5" y="-158" font-family="Helvetica,sans-Serif" font-size="10.00" fill="#000000">/xla/service/executable.h</text>
</g>
<!-- Node6&#45;&gt;Node11 -->
<g id="edge11" class="edge">
<title>Node6&#45;&gt;Node11</title>
<path fill="none" stroke="#191970" d="M2532.7148,-230.6889C2517.3096,-227.8189 2500.8593,-225.0386 2485.5,-223 2279.1384,-195.6099 2223.9806,-220.3622 2018.5,-187 2012.1707,-185.9724 2005.6185,-184.7041 1999.0934,-183.304"/>
<polygon fill="#191970" stroke="#191970" points="1999.4221,-179.7906 1988.8978,-181.011 1997.886,-186.62 1999.4221,-179.7906"/>
</g>
<!-- Node12 -->
<g id="node13" class="node">
<title>Node12</title>
<g id="a_node13"><a xlink:href="../../db/da0/hlo__module_8h.html" target="_top" xlink:title="tensorflow/compiler\l/xla/service/hlo_module.h">
<polygon fill="#ffffff" stroke="#ff0000" points="2352.5,-151 2352.5,-181 2494.5,-181 2494.5,-151 2352.5,-151"/>
<text text-anchor="start" x="2360.5" y="-169" font-family="Helvetica,sans-Serif" font-size="10.00" fill="#000000">tensorflow/compiler</text>
<text text-anchor="middle" x="2423.5" y="-158" font-family="Helvetica,sans-Serif" font-size="10.00" fill="#000000">/xla/service/hlo_module.h</text>
</a>
</g>
</g>
<!-- Node6&#45;&gt;Node12 -->
<g id="edge12" class="edge">
<title>Node6&#45;&gt;Node12</title>
<path fill="none" stroke="#191970" d="M2563.1439,-228.9608C2535.5897,-216.5376 2496.2892,-198.8182 2466.3965,-185.3406"/>
<polygon fill="#191970" stroke="#191970" points="2467.6033,-182.0455 2457.0484,-181.1259 2464.7261,-188.4269 2467.6033,-182.0455"/>
</g>
<!-- Node6&#45;&gt;Node47 -->
<g id="edge45" class="edge">
<title>Node6&#45;&gt;Node47</title>
<path fill="none" stroke="#191970" d="M2660.0534,-242.0485C2761.2395,-237.8283 2953.1953,-224.934 3008.5,-187 3059.9417,-151.7156 3086.4178,-79.0561 3097.3096,-40.6184"/>
<polygon fill="#191970" stroke="#191970" points="3100.7479,-41.3106 3099.9761,-30.744 3093.99,-39.4856 3100.7479,-41.3106"/>
</g>
<!-- Node34 -->
<g id="node23" class="node">
<title>Node34</title>
<polygon fill="#ffffff" stroke="#bfbfbf" points="1014,-.5 1014,-30.5 1127,-30.5 1127,-.5 1014,-.5"/>
<text text-anchor="start" x="1022" y="-18.5" font-family="Helvetica,sans-Serif" font-size="10.00" fill="#000000">tensorflow/compiler</text>
<text text-anchor="middle" x="1070.5" y="-7.5" font-family="Helvetica,sans-Serif" font-size="10.00" fill="#000000">/xla/types.h</text>
</g>
<!-- Node6&#45;&gt;Node34 -->
<g id="edge46" class="edge">
<title>Node6&#45;&gt;Node34</title>
<path fill="none" stroke="#191970" d="M2532.7824,-230.1246C2517.3747,-227.2748 2500.9064,-224.6452 2485.5,-223 2408.3572,-214.7624 1146.6279,-239.4907 1089.5,-187 1049.3461,-150.1055 1056.6893,-78.968 1064.2852,-40.9392"/>
<polygon fill="#191970" stroke="#191970" points="1067.8044,-41.2239 1066.4965,-30.7101 1060.9624,-39.7447 1067.8044,-41.2239"/>
</g>
<!-- Node38 -->
<g id="node25" class="node">
<title>Node38</title>
<polygon fill="#ffffff" stroke="#bfbfbf" points="2862,-.5 2862,-30.5 2969,-30.5 2969,-.5 2862,-.5"/>
<text text-anchor="start" x="2870" y="-18.5" font-family="Helvetica,sans-Serif" font-size="10.00" fill="#000000">tensorflow/core/lib</text>
<text text-anchor="middle" x="2915.5" y="-7.5" font-family="Helvetica,sans-Serif" font-size="10.00" fill="#000000">/gtl/array_slice.h</text>
</g>
<!-- Node6&#45;&gt;Node38 -->
<g id="edge47" class="edge">
<title>Node6&#45;&gt;Node38</title>
<path fill="none" stroke="#191970" d="M2660.1203,-237.8519C2709.7937,-230.9532 2779.2507,-216.5721 2833.5,-187 2857.2369,-174.0607 2853.9743,-158.3194 2877.5,-145 2930.0439,-115.2516 2971.8958,-157.0204 3008.5,-109 3019.8162,-94.1545 3017.9774,-83.0818 3008.5,-67 3000.4289,-53.3045 2987.2611,-42.995 2973.3399,-35.3433"/>
<polygon fill="#191970" stroke="#191970" points="2974.6327,-32.0752 2964.1288,-30.69 2971.4763,-38.3232 2974.6327,-32.0752"/>
</g>
<!-- Node49 -->
<g id="node27" class="node">
<title>Node49</title>
<polygon fill="#ffffff" stroke="#bfbfbf" points="1732,-67.5 1732,-108.5 1865,-108.5 1865,-67.5 1732,-67.5"/>
<text text-anchor="start" x="1740" y="-96.5" font-family="Helvetica,sans-Serif" font-size="10.00" fill="#000000">tensorflow/compiler</text>
<text text-anchor="start" x="1740" y="-85.5" font-family="Helvetica,sans-Serif" font-size="10.00" fill="#000000">/xla/service/hlo_module</text>
<text text-anchor="middle" x="1798.5" y="-74.5" font-family="Helvetica,sans-Serif" font-size="10.00" fill="#000000">_config.h</text>
</g>
<!-- Node6&#45;&gt;Node49 -->
<g id="edge43" class="edge">
<title>Node6&#45;&gt;Node49</title>
<path fill="none" stroke="#191970" d="M2532.9694,-231.0153C2517.4813,-228.117 2500.93,-225.2422 2485.5,-223 2329.4365,-200.3216 2277.1179,-249.8951 2132.5,-187 2106.5049,-175.6946 2110.0701,-157.2363 2084.5,-145 2001.0569,-105.069 1969.9,-128.6233 1879.5,-109 1878.036,-108.6822 1876.5584,-108.3559 1875.0709,-108.0224"/>
<polygon fill="#191970" stroke="#191970" points="1875.6756,-104.5699 1865.1443,-105.7281 1874.0992,-111.3901 1875.6756,-104.5699"/>
</g>
<!-- Node52 -->
<g id="node30" class="node">
<title>Node52</title>
<polygon fill="#ffffff" stroke="#bfbfbf" points="1577,-73 1577,-103 1714,-103 1714,-73 1577,-73"/>
<text text-anchor="start" x="1585" y="-91" font-family="Helvetica,sans-Serif" font-size="10.00" fill="#000000">tensorflow/core/platform</text>
<text text-anchor="middle" x="1645.5" y="-80" font-family="Helvetica,sans-Serif" font-size="10.00" fill="#000000">/mutex.h</text>
</g>
<!-- Node6&#45;&gt;Node52 -->
<g id="edge48" class="edge">
<title>Node6&#45;&gt;Node52</title>
<path fill="none" stroke="#191970" d="M2532.9883,-230.8822C2517.4996,-227.9883 2500.9433,-225.1489 2485.5,-223 2396.8843,-210.6696 2164.572,-226.9158 2084.5,-187 2061.9711,-175.7694 2068.9091,-156.4679 2046.5,-145 1917.522,-78.9949 1864.8209,-136.1431 1722.5,-109 1717.1407,-107.9779 1711.6084,-106.7734 1706.0831,-105.4668"/>
<polygon fill="#191970" stroke="#191970" points="1706.7316,-102.0219 1696.1841,-103.022 1705.0532,-108.8177 1706.7316,-102.0219"/>
</g>
<!-- Node53 -->
<g id="node31" class="node">
<title>Node53</title>
<polygon fill="#ffffff" stroke="#bfbfbf" points="2886,-145.5 2886,-186.5 2999,-186.5 2999,-145.5 2886,-145.5"/>
<text text-anchor="start" x="2894" y="-174.5" font-family="Helvetica,sans-Serif" font-size="10.00" fill="#000000">tensorflow/compiler</text>
<text text-anchor="start" x="2894" y="-163.5" font-family="Helvetica,sans-Serif" font-size="10.00" fill="#000000">/xla/service/logical</text>
<text text-anchor="middle" x="2942.5" y="-152.5" font-family="Helvetica,sans-Serif" font-size="10.00" fill="#000000">_buffer.h</text>
</g>
<!-- Node6&#45;&gt;Node53 -->
<g id="edge44" class="edge">
<title>Node6&#45;&gt;Node53</title>
<path fill="none" stroke="#191970" d="M2660.1917,-232.3569C2716.1483,-221.7576 2799.6189,-205.0466 2871.5,-187 2872.9415,-186.6381 2874.3977,-186.266 2875.8642,-185.8855"/>
<polygon fill="#191970" stroke="#191970" points="2876.8925,-189.2336 2885.6483,-183.2681 2875.0834,-182.4713 2876.8925,-189.2336"/>
</g>
<!-- Node6&#45;&gt;Node54 -->
<g id="edge49" class="edge">
<title>Node6&#45;&gt;Node54</title>
<path fill="none" stroke="#191970" d="M2660.1768,-236.8018C2783.8196,-222.8247 3056.6249,-191.9859 3197.8718,-176.0188"/>
<polygon fill="#191970" stroke="#191970" points="3198.2668,-179.4966 3207.8103,-174.8954 3197.4804,-172.5409 3198.2668,-179.4966"/>
</g>
<!-- Node55 -->
<g id="node33" class="node">
<title>Node55</title>
<polygon fill="#ffffff" stroke="#bfbfbf" points="1307,-73 1307,-103 1444,-103 1444,-73 1307,-73"/>
<text text-anchor="start" x="1315" y="-91" font-family="Helvetica,sans-Serif" font-size="10.00" fill="#000000">tensorflow/core/platform</text>
<text text-anchor="middle" x="1375.5" y="-80" font-family="Helvetica,sans-Serif" font-size="10.00" fill="#000000">/thread_annotations.h</text>
</g>
<!-- Node6&#45;&gt;Node55 -->
<g id="edge50" class="edge">
<title>Node6&#45;&gt;Node55</title>
<path fill="none" stroke="#191970" d="M2532.7076,-230.7427C2517.3026,-227.8707 2500.8543,-225.0761 2485.5,-223 2388.4997,-209.8841 2133.0468,-232.7246 2046.5,-187 2025.265,-175.7811 2033.7412,-156.2073 2012.5,-145 1924.7528,-98.7028 1666.2662,-118.3944 1567.5,-109 1530.2816,-105.4599 1489.0635,-101.0201 1454.3891,-97.1357"/>
<polygon fill="#191970" stroke="#191970" points="1454.6509,-93.6432 1444.3222,-96.0031 1453.8682,-100.5993 1454.6509,-93.6432"/>
</g>
<!-- Node12&#45;&gt;Node9 -->
<g id="edge15" class="edge">
<title>Node12&#45;&gt;Node9</title>
<path fill="none" stroke="#191970" d="M2494.8019,-157.924C2568.5474,-148.5372 2677.8227,-131.4233 2713.5,-109 2742.5495,-90.7423 2763.7783,-55.7735 2774.8342,-34.16"/>
<polygon fill="#191970" stroke="#191970" points="2778.0576,-35.5358 2779.3122,-25.0155 2771.7709,-32.4572 2778.0576,-35.5358"/>
</g>
<!-- Node12&#45;&gt;Node10 -->
<g id="edge17" class="edge">
<title>Node12&#45;&gt;Node10</title>
<path fill="none" stroke="#191970" d="M2352.381,-159.3671C2302.3709,-152.3401 2235.2388,-138.013 2182.5,-109 2159.0933,-96.1234 2163.5581,-78.614 2139.5,-67 2073.2233,-35.0051 1848.7172,-21.1055 1764.641,-16.9362"/>
<polygon fill="#191970" stroke="#191970" points="1764.8043,-13.4401 1754.6472,-16.454 1764.4669,-20.4319 1764.8043,-13.4401"/>
</g>
<!-- Node13 -->
<g id="node14" class="node">
<title>Node13</title>
<polygon fill="#ffffff" stroke="#bfbfbf" points="2565.5,-78.5 2565.5,-97.5 2615.5,-97.5 2615.5,-78.5 2565.5,-78.5"/>
<text text-anchor="middle" x="2590.5" y="-85.5" font-family="Helvetica,sans-Serif" font-size="10.00" fill="#000000">atomic</text>
</g>
<!-- Node12&#45;&gt;Node13 -->
<g id="edge13" class="edge">
<title>Node12&#45;&gt;Node13</title>
<path fill="none" stroke="#191970" d="M2459.1446,-150.9791C2485.0086,-139.874 2520.7118,-124.1179 2551.5,-109 2555.6503,-106.9621 2560.0023,-104.7231 2564.2324,-102.4898"/>
<polygon fill="#191970" stroke="#191970" points="2566.0173,-105.5042 2573.1724,-97.6904 2562.7062,-99.3367 2566.0173,-105.5042"/>
</g>
<!-- Node14 -->
<g id="node15" class="node">
<title>Node14</title>
<polygon fill="#ffffff" stroke="#bfbfbf" points="2258.5,-6 2258.5,-25 2290.5,-25 2290.5,-6 2258.5,-6"/>
<text text-anchor="middle" x="2274.5" y="-13" font-family="Helvetica,sans-Serif" font-size="10.00" fill="#000000">list</text>
</g>
<!-- Node12&#45;&gt;Node14 -->
<g id="edge14" class="edge">
<title>Node12&#45;&gt;Node14</title>
<path fill="none" stroke="#191970" d="M2417.9033,-150.8781C2409.4903,-129.8491 2391.8261,-91.5935 2366.5,-67 2342.2487,-43.4503 2328.768,-47.9145 2299.5,-31 2299.2015,-30.8275 2298.9015,-30.6534 2298.6,-30.4777"/>
<polygon fill="#191970" stroke="#191970" points="2300.1207,-27.3083 2289.7459,-25.1601 2296.5166,-33.3093 2300.1207,-27.3083"/>
</g>
<!-- Node15 -->
<g id="node16" class="node">
<title>Node15</title>
<polygon fill="#ffffff" stroke="#bfbfbf" points="2633.5,-78.5 2633.5,-97.5 2687.5,-97.5 2687.5,-78.5 2633.5,-78.5"/>
<text text-anchor="middle" x="2660.5" y="-85.5" font-family="Helvetica,sans-Serif" font-size="10.00" fill="#000000">random</text>
</g>
<!-- Node12&#45;&gt;Node15 -->
<g id="edge16" class="edge">
<title>Node12&#45;&gt;Node15</title>
<path fill="none" stroke="#191970" d="M2492.887,-150.9022C2532.3116,-141.2011 2582.1107,-127.032 2624.5,-109 2628.7342,-107.1988 2633.0863,-104.9966 2637.2364,-102.7038"/>
<polygon fill="#191970" stroke="#191970" points="2639.0037,-105.7248 2645.8748,-97.6601 2635.4742,-99.6798 2639.0037,-105.7248"/>
</g>
<!-- Node16 -->
<g id="node17" class="node">
<title>Node16</title>
<polygon fill="#ffffff" stroke="#bfbfbf" points="2624,-6 2624,-25 2717,-25 2717,-6 2624,-6"/>
<text text-anchor="middle" x="2670.5" y="-13" font-family="Helvetica,sans-Serif" font-size="10.00" fill="#000000">unordered_map</text>
</g>
<!-- Node12&#45;&gt;Node16 -->
<g id="edge18" class="edge">
<title>Node12&#45;&gt;Node16</title>
<path fill="none" stroke="#191970" d="M2494.5607,-161.1134C2566.7822,-154.4923 2671.4969,-139.7627 2696.5,-109 2714.2857,-87.1173 2697.7025,-53.8832 2684.0876,-33.4934"/>
<polygon fill="#191970" stroke="#191970" points="2686.8009,-31.268 2678.1752,-25.1159 2681.0818,-35.3043 2686.8009,-31.268"/>
</g>
<!-- Node17 -->
<g id="node18" class="node">
<title>Node17</title>
<polygon fill="#ffffff" stroke="#bfbfbf" points="1483,-6 1483,-25 1530,-25 1530,-6 1483,-6"/>
<text text-anchor="middle" x="1506.5" y="-13" font-family="Helvetica,sans-Serif" font-size="10.00" fill="#000000">vector</text>
</g>
<!-- Node12&#45;&gt;Node17 -->
<g id="edge19" class="edge">
<title>Node12&#45;&gt;Node17</title>
<path fill="none" stroke="#191970" d="M2352.3991,-156.9146C2280.5274,-146.8197 2175.1346,-129.2479 2139.5,-109 2117.6134,-96.5639 2124.0468,-78.1946 2101.5,-67 2095.1551,-63.8497 1665.6889,-28.5191 1540.4331,-18.2708"/>
<polygon fill="#191970" stroke="#191970" points="1540.5264,-14.7668 1530.2744,-17.44 1539.9558,-21.7435 1540.5264,-14.7668"/>
</g>
<!-- Node18 -->
<g id="node19" class="node">
<title>Node18</title>
<polygon fill="#ffffff" stroke="#bfbfbf" points="2309,-.5 2309,-30.5 2422,-30.5 2422,-.5 2309,-.5"/>
<text text-anchor="start" x="2317" y="-18.5" font-family="Helvetica,sans-Serif" font-size="10.00" fill="#000000">tensorflow/compiler</text>
<text text-anchor="middle" x="2365.5" y="-7.5" font-family="Helvetica,sans-Serif" font-size="10.00" fill="#000000">/xla/iterator_util.h</text>
</g>
<!-- Node12&#45;&gt;Node18 -->
<g id="edge20" class="edge">
<title>Node12&#45;&gt;Node18</title>
<path fill="none" stroke="#191970" d="M2430.84,-150.9984C2439.6145,-130.7739 2451.4706,-94.1695 2437.5,-67 2430.9399,-54.2423 2419.5913,-43.9411 2407.8184,-36.0012"/>
<polygon fill="#191970" stroke="#191970" points="2409.5683,-32.9676 2399.2333,-30.6358 2405.8584,-38.9037 2409.5683,-32.9676"/>
</g>
<!-- Node19 -->
<g id="node20" class="node">
<title>Node19</title>
<polygon fill="#ffffff" stroke="#bfbfbf" points="2441,-.5 2441,-30.5 2556,-30.5 2556,-.5 2441,-.5"/>
<text text-anchor="start" x="2449" y="-18.5" font-family="Helvetica,sans-Serif" font-size="10.00" fill="#000000">tensorflow/compiler</text>
<text text-anchor="middle" x="2498.5" y="-7.5" font-family="Helvetica,sans-Serif" font-size="10.00" fill="#000000">/xla/service/hlo.pb.h</text>
</g>
<!-- Node12&#45;&gt;Node19 -->
<g id="edge21" class="edge">
<title>Node12&#45;&gt;Node19</title>
<path fill="none" stroke="#191970" d="M2432.1661,-150.6458C2438.523,-139.2458 2447.2703,-123.2688 2454.5,-109 2466.3074,-85.6966 2478.9187,-58.6517 2487.5989,-39.6617"/>
<polygon fill="#191970" stroke="#191970" points="2490.799,-41.0795 2491.7547,-30.5279 2484.4275,-38.1805 2490.799,-41.0795"/>
</g>
<!-- Node20 -->
<g id="node21" class="node">
<title>Node20</title>
<g id="a_node21"><a xlink:href="../../d2/d31/hlo__computation_8h.html" target="_top" xlink:title="tensorflow/compiler\l/xla/service/hlo_computation.h">
<polygon fill="#ffffff" stroke="#ff0000" points="2191,-73 2191,-103 2358,-103 2358,-73 2191,-73"/>
<text text-anchor="start" x="2199" y="-91" font-family="Helvetica,sans-Serif" font-size="10.00" fill="#000000">tensorflow/compiler</text>
<text text-anchor="middle" x="2274.5" y="-80" font-family="Helvetica,sans-Serif" font-size="10.00" fill="#000000">/xla/service/hlo_computation.h</text>
</a>
</g>
</g>
<!-- Node12&#45;&gt;Node20 -->
<g id="edge22" class="edge">
<title>Node12&#45;&gt;Node20</title>
<path fill="none" stroke="#191970" d="M2394.7713,-150.9608C2371.3479,-138.6989 2338.0687,-121.2776 2312.4527,-107.8678"/>
<polygon fill="#191970" stroke="#191970" points="2313.8771,-104.663 2303.3943,-103.1259 2310.6305,-110.8646 2313.8771,-104.663"/>
</g>
<!-- Node12&#45;&gt;Node34 -->
<g id="edge39" class="edge">
<title>Node12&#45;&gt;Node34</title>
<path fill="none" stroke="#191970" d="M2352.2511,-159.2446C2270.6699,-150.5022 2142.9465,-133.437 2101.5,-109 2080.8118,-96.8022 2088.9021,-77.8969 2067.5,-67 2046.737,-56.4285 1357.0795,-27.267 1137.1669,-18.2158"/>
<polygon fill="#191970" stroke="#191970" points="1137.1899,-14.7139 1127.0545,-17.8001 1136.9023,-21.708 1137.1899,-14.7139"/>
</g>
<!-- Node12&#45;&gt;Node38 -->
<g id="edge40" class="edge">
<title>Node12&#45;&gt;Node38</title>
<path fill="none" stroke="#191970" d="M2494.7544,-160.3423C2561.587,-153.4451 2663.5326,-138.7969 2747.5,-109 2798.8262,-90.7863 2852.9704,-57.8089 2885.4914,-36.2856"/>
<polygon fill="#191970" stroke="#191970" points="2887.7089,-39.0129 2894.0703,-30.5404 2883.8138,-33.1967 2887.7089,-39.0129"/>
</g>
<!-- Node12&#45;&gt;Node49 -->
<g id="edge35" class="edge">
<title>Node12&#45;&gt;Node49</title>
<path fill="none" stroke="#191970" d="M2352.2009,-159.6608C2253.2489,-150.4957 2068.8045,-132.0842 1912.5,-109 1900.4039,-107.2136 1887.6281,-105.0922 1875.1765,-102.8955"/>
<polygon fill="#191970" stroke="#191970" points="1875.7398,-99.4408 1865.2793,-101.1226 1874.5055,-106.3311 1875.7398,-99.4408"/>
</g>
<!-- Node50 -->
<g id="node28" class="node">
<title>Node50</title>
<g id="a_node28"><a xlink:href="../../d3/d4d/versioned__computation__handle_8h.html" target="_top" xlink:title="tensorflow/compiler\l/xla/service/versioned\l_computation_handle.h">
<polygon fill="#ffffff" stroke="#ff0000" points="586,-67.5 586,-108.5 717,-108.5 717,-67.5 586,-67.5"/>
<text text-anchor="start" x="594" y="-96.5" font-family="Helvetica,sans-Serif" font-size="10.00" fill="#000000">tensorflow/compiler</text>
<text text-anchor="start" x="594" y="-85.5" font-family="Helvetica,sans-Serif" font-size="10.00" fill="#000000">/xla/service/versioned</text>
<text text-anchor="middle" x="651.5" y="-74.5" font-family="Helvetica,sans-Serif" font-size="10.00" fill="#000000">_computation_handle.h</text>
</a>
</g>
</g>
<!-- Node12&#45;&gt;Node50 -->
<g id="edge36" class="edge">
<title>Node12&#45;&gt;Node50</title>
<path fill="none" stroke="#191970" d="M2352.2427,-161.878C2270.2984,-157.2496 2131.7217,-149.7648 2012.5,-145 1458.0452,-122.8409 1316.2658,-167.8698 764.5,-109 752.3666,-107.7054 739.5819,-105.8311 727.1495,-103.7277"/>
<polygon fill="#191970" stroke="#191970" points="727.7275,-100.2758 717.2737,-101.9985 726.5201,-107.1709 727.7275,-100.2758"/>
</g>
<!-- Node42 -->
<g id="node29" class="node">
<title>Node42</title>
<polygon fill="#ffffff" stroke="#bfbfbf" points="1922,-73 1922,-103 2059,-103 2059,-73 1922,-73"/>
<text text-anchor="start" x="1930" y="-91" font-family="Helvetica,sans-Serif" font-size="10.00" fill="#000000">tensorflow/core/platform</text>
<text text-anchor="middle" x="1990.5" y="-80" font-family="Helvetica,sans-Serif" font-size="10.00" fill="#000000">/logging.h</text>
</g>
<!-- Node12&#45;&gt;Node42 -->
<g id="edge41" class="edge">
<title>Node12&#45;&gt;Node42</title>
<path fill="none" stroke="#191970" d="M2352.4472,-156.2661C2281.4994,-146.1157 2169.4959,-128.9221 2073.5,-109 2068.1333,-107.8863 2062.5906,-106.6576 2057.0339,-105.3704"/>
<polygon fill="#191970" stroke="#191970" points="2057.5896,-101.9051 2047.0517,-103.0021 2055.9736,-108.7161 2057.5896,-101.9051"/>
</g>
<!-- Node12&#45;&gt;Node52 -->
<g id="edge42" class="edge">
<title>Node12&#45;&gt;Node52</title>
<path fill="none" stroke="#191970" d="M2352.2264,-161.8865C2198.928,-152.7644 1842.0893,-129.9833 1722.5,-109 1716.817,-108.0028 1710.9455,-106.7745 1705.0972,-105.4165"/>
<polygon fill="#191970" stroke="#191970" points="1705.8592,-101.9998 1695.3142,-103.0266 1704.198,-108.7998 1705.8592,-101.9998"/>
</g>
<!-- Node20&#45;&gt;Node9 -->
<g id="edge24" class="edge">
<title>Node20&#45;&gt;Node9</title>
<path fill="none" stroke="#191970" d="M2339.0092,-72.9788C2349.8188,-70.7655 2360.9488,-68.6717 2371.5,-67 2528.1332,-42.1831 2570.5694,-59.9043 2726.5,-31 2732.3783,-29.9104 2738.5353,-28.5132 2744.5391,-27.0051"/>
<polygon fill="#191970" stroke="#191970" points="2745.6464,-30.3328 2754.4223,-24.397 2743.8603,-23.5645 2745.6464,-30.3328"/>
</g>
<!-- Node20&#45;&gt;Node10 -->
<g id="edge25" class="edge">
<title>Node20&#45;&gt;Node10</title>
<path fill="none" stroke="#191970" d="M2209.4468,-72.9996C2198.8042,-70.8099 2187.8692,-68.7182 2177.5,-67 2023.9274,-41.5525 1838.4684,-24.4156 1764.8643,-18.15"/>
<polygon fill="#191970" stroke="#191970" points="1765.092,-14.6568 1754.8334,-17.3047 1764.5042,-21.6321 1765.092,-14.6568"/>
</g>
<!-- Node20&#45;&gt;Node14 -->
<g id="edge23" class="edge">
<title>Node20&#45;&gt;Node14</title>
<path fill="none" stroke="#191970" d="M2274.5,-72.978C2274.5,-62.1657 2274.5,-47.4631 2274.5,-35.6348"/>
<polygon fill="#191970" stroke="#191970" points="2278.0001,-35.3956 2274.5,-25.3957 2271.0001,-35.3957 2278.0001,-35.3956"/>
</g>
<!-- Node20&#45;&gt;Node16 -->
<g id="edge26" class="edge">
<title>Node20&#45;&gt;Node16</title>
<path fill="none" stroke="#191970" d="M2341.9999,-72.9998C2351.8804,-70.9166 2361.9435,-68.8566 2371.5,-67 2455.5729,-50.6666 2553.4654,-34.3062 2613.7086,-24.5419"/>
<polygon fill="#191970" stroke="#191970" points="2614.4626,-27.9655 2623.776,-22.9148 2613.3457,-21.0552 2614.4626,-27.9655"/>
</g>
<!-- Node20&#45;&gt;Node17 -->
<g id="edge27" class="edge">
<title>Node20&#45;&gt;Node17</title>
<path fill="none" stroke="#191970" d="M2190.734,-73.9951C2173.8047,-71.4396 2156.1064,-68.9645 2139.5,-67 2109.51,-63.4523 1667.1299,-28.2494 1540.2702,-18.1785"/>
<polygon fill="#191970" stroke="#191970" points="1540.2457,-14.6656 1530.0001,-17.3634 1539.6918,-21.6437 1540.2457,-14.6656"/>
</g>
<!-- Node20&#45;&gt;Node18 -->
<g id="edge28" class="edge">
<title>Node20&#45;&gt;Node18</title>
<path fill="none" stroke="#191970" d="M2293.3553,-72.978C2306.4108,-62.5766 2323.9853,-48.5749 2338.5197,-36.9953"/>
<polygon fill="#191970" stroke="#191970" points="2341.0286,-39.4715 2346.6689,-30.5028 2336.6667,-33.9966 2341.0286,-39.4715"/>
</g>
<!-- Node20&#45;&gt;Node19 -->
<g id="edge29" class="edge">
<title>Node20&#45;&gt;Node19</title>
<path fill="none" stroke="#191970" d="M2320.9129,-72.978C2356.2033,-61.5559 2404.9073,-45.7923 2442.3856,-33.662"/>
<polygon fill="#191970" stroke="#191970" points="2443.7102,-36.9121 2452.1465,-30.5028 2441.5546,-30.2523 2443.7102,-36.9121"/>
</g>
<!-- Node20&#45;&gt;Node47 -->
<g id="edge30" class="edge">
<title>Node20&#45;&gt;Node47</title>
<path fill="none" stroke="#191970" d="M2358.0591,-80.8441C2406.391,-76.7323 2468.371,-71.5056 2523.5,-67 2725.6801,-50.4761 2776.6829,-51.4864 2978.5,-31 2997.4947,-29.0719 3018.0724,-26.656 3036.9441,-24.3094"/>
<polygon fill="#191970" stroke="#191970" points="3037.4491,-27.7736 3046.9347,-23.0541 3036.5764,-20.8282 3037.4491,-27.7736"/>
</g>
<!-- Node20&#45;&gt;Node34 -->
<g id="edge31" class="edge">
<title>Node20&#45;&gt;Node34</title>
<path fill="none" stroke="#191970" d="M2190.591,-76.6008C2162.331,-73.0855 2130.59,-69.489 2101.5,-67 1913.1374,-50.8835 1335.0115,-26.3533 1137.4783,-18.2232"/>
<polygon fill="#191970" stroke="#191970" points="1137.3803,-14.7163 1127.245,-17.8027 1137.0929,-21.7104 1137.3803,-14.7163"/>
</g>
<!-- Node20&#45;&gt;Node35 -->
<g id="edge32" class="edge">
<title>Node20&#45;&gt;Node35</title>
<path fill="none" stroke="#191970" d="M2190.7643,-78.1709C2153.1329,-74.0979 2108.1378,-69.7024 2067.5,-67 1910.7613,-56.5769 797.2743,-25.3023 510.6498,-17.3534"/>
<polygon fill="#191970" stroke="#191970" points="510.4989,-13.848 500.4058,-17.0695 510.3049,-20.8453 510.4989,-13.848"/>
</g>
<!-- Node20&#45;&gt;Node38 -->
<g id="edge33" class="edge">
<title>Node20&#45;&gt;Node38</title>
<path fill="none" stroke="#191970" d="M2358.088,-80.85C2465.5421,-71.3008 2657.793,-53.0067 2821.5,-31 2831.3354,-29.6778 2841.7241,-28.124 2851.8663,-26.5197"/>
<polygon fill="#191970" stroke="#191970" points="2852.5801,-29.95 2861.8969,-24.9053 2851.4677,-23.0389 2852.5801,-29.95"/>
</g>
<!-- Node43 -->
<g id="node26" class="node">
<title>Node43</title>
<polygon fill="#ffffff" stroke="#bfbfbf" points="228,-.5 228,-30.5 365,-30.5 365,-.5 228,-.5"/>
<text text-anchor="start" x="236" y="-18.5" font-family="Helvetica,sans-Serif" font-size="10.00" fill="#000000">tensorflow/core/platform</text>
<text text-anchor="middle" x="296.5" y="-7.5" font-family="Helvetica,sans-Serif" font-size="10.00" fill="#000000">/macros.h</text>
</g>
<!-- Node20&#45;&gt;Node43 -->
<g id="edge34" class="edge">
<title>Node20&#45;&gt;Node43</title>
<path fill="none" stroke="#191970" d="M2190.777,-77.9724C2153.148,-73.8613 2108.1513,-69.491 2067.5,-67 1317.625,-21.0495 1124.6293,-109.8782 377.5,-31 376.7525,-30.9211 376.0015,-30.8389 375.2477,-30.7536"/>
<polygon fill="#191970" stroke="#191970" points="375.6813,-27.2806 365.3179,-29.4827 374.7926,-34.224 375.6813,-27.2806"/>
</g>
<!-- Node50&#45;&gt;Node34 -->
<g id="edge37" class="edge">
<title>Node50&#45;&gt;Node34</title>
<path fill="none" stroke="#191970" d="M717.2907,-70.1394C722.0858,-69.0193 726.8594,-67.9588 731.5,-67 825.2132,-47.6386 934.9003,-32.2863 1003.5506,-23.5423"/>
<polygon fill="#191970" stroke="#191970" points="1004.3087,-26.9745 1013.7909,-22.2483 1003.431,-20.0297 1004.3087,-26.9745"/>
</g>
<!-- Node50&#45;&gt;Node35 -->
<g id="edge38" class="edge">
<title>Node50&#45;&gt;Node35</title>
<path fill="none" stroke="#191970" d="M592.4519,-67.4183C562.2379,-56.887 525.756,-44.171 496.4593,-33.9594"/>
<polygon fill="#191970" stroke="#191970" points="497.4136,-30.5856 486.8188,-30.5991 495.1096,-37.1955 497.4136,-30.5856"/>
</g>
<!-- Node56&#45;&gt;Node5 -->
<g id="edge59" class="edge">
<title>Node56&#45;&gt;Node5</title>
<path fill="none" stroke="#191970" d="M1652.3339,-314.7274C1423.887,-307.8887 617.3483,-282.7206 503.5,-265 497.6234,-264.0853 491.5528,-262.887 485.5185,-261.5259"/>
<polygon fill="#191970" stroke="#191970" points="485.9792,-258.037 475.4381,-259.1029 484.3431,-264.8431 485.9792,-258.037"/>
</g>
<!-- Node56&#45;&gt;Node7 -->
<g id="edge52" class="edge">
<title>Node56&#45;&gt;Node7</title>
<path fill="none" stroke="#191970" d="M1772.7586,-314.6185C1954.4409,-308.7305 2495.0611,-289.5747 2669.5,-265 2822.5917,-243.4327 2912.2123,-307.9583 3008.5,-187 3028.4146,-161.9829 3002.8853,-126.1296 2983.8034,-105.136"/>
<polygon fill="#191970" stroke="#191970" points="2986.091,-102.4621 2976.6667,-97.6213 2981.0152,-107.2826 2986.091,-102.4621"/>
</g>
<!-- Node56&#45;&gt;Node9 -->
<g id="edge53" class="edge">
<title>Node56&#45;&gt;Node9</title>
<path fill="none" stroke="#191970" d="M1772.8406,-314.9336C1990.9097,-309.1074 2730.7738,-287.8456 2834.5,-265 2924.0484,-245.2771 2974.3671,-263.1139 3025.5,-187 3042.0396,-162.38 3013.2957,-71.8459 3008.5,-67 3006.8479,-65.3306 2886.8418,-38.4633 2822.7928,-24.2168"/>
<polygon fill="#191970" stroke="#191970" points="2823.1675,-20.7147 2812.6462,-21.9613 2821.6485,-27.5479 2823.1675,-20.7147"/>
</g>
<!-- Node56&#45;&gt;Node10 -->
<g id="edge54" class="edge">
<title>Node56&#45;&gt;Node10</title>
<path fill="none" stroke="#191970" d="M1724.3065,-301.2129C1737.5285,-282.0848 1755.3965,-248.718 1741.5,-223 1692.1255,-131.6233 1505.9636,-150.671 1567.5,-67 1583.3092,-45.5042 1656.7786,-29.0211 1700.1688,-20.9595"/>
<polygon fill="#191970" stroke="#191970" points="1701.0212,-24.3623 1710.239,-19.1391 1699.7759,-17.4739 1701.0212,-24.3623"/>
</g>
<!-- Node56&#45;&gt;Node11 -->
<g id="edge94" class="edge">
<title>Node56&#45;&gt;Node11</title>
<path fill="none" stroke="#191970" d="M1772.4638,-301.4599C1797.9782,-293.267 1827.165,-281.3852 1850.5,-265 1865.9964,-254.1189 1897.332,-214.8802 1917.0425,-189.1915"/>
<polygon fill="#191970" stroke="#191970" points="1919.9624,-191.1343 1923.2416,-181.0597 1914.3955,-186.8905 1919.9624,-191.1343"/>
</g>
<!-- Node56&#45;&gt;Node12 -->
<g id="edge97" class="edge">
<title>Node56&#45;&gt;Node12</title>
<path fill="none" stroke="#191970" d="M1772.5635,-314.7165C1950.0402,-309.1574 2461.221,-290.9503 2485.5,-265 2507.5037,-241.4815 2478.3464,-209.043 2453.0365,-187.8027"/>
<polygon fill="#191970" stroke="#191970" points="2455.0011,-184.8903 2445.024,-181.3256 2450.6005,-190.3341 2455.0011,-184.8903"/>
</g>
<!-- Node56&#45;&gt;Node17 -->
<g id="edge55" class="edge">
<title>Node56&#45;&gt;Node17</title>
<path fill="none" stroke="#191970" d="M1652.4732,-316.0209C1450.5311,-314.0478 803.6803,-304.6647 719.5,-265 634.4166,-224.9098 610.5972,-196.6573 576.5,-109 569.7329,-91.6031 563.6708,-80.5593 576.5,-67 584.3673,-58.6849 1306.4946,-24.7612 1472.6693,-17.0601"/>
<polygon fill="#191970" stroke="#191970" points="1472.97,-20.55 1482.7975,-16.5913 1472.6463,-13.5575 1472.97,-20.55"/>
</g>
<!-- Node56&#45;&gt;Node47 -->
<g id="edge103" class="edge">
<title>Node56&#45;&gt;Node47</title>
<path fill="none" stroke="#191970" d="M1772.5993,-315.3459C2017.5096,-310.4791 2929.9081,-290.6913 2985.5,-265 3072.1749,-224.9439 3095.4113,-96.0721 3101.4534,-40.9242"/>
<polygon fill="#191970" stroke="#191970" points="3104.9703,-40.9253 3102.4724,-30.6291 3098.0043,-40.2357 3104.9703,-40.9253"/>
</g>
<!-- Node56&#45;&gt;Node34 -->
<g id="edge104" class="edge">
<title>Node56&#45;&gt;Node34</title>
<path fill="none" stroke="#191970" d="M1652.2679,-315.0261C1433.3058,-309.4827 690.0216,-288.975 645.5,-265 561.9346,-219.9998 501.8829,-137.4348 565.5,-67 594.3284,-35.0822 872.8409,-21.8958 1003.4798,-17.4333"/>
<polygon fill="#191970" stroke="#191970" points="1003.8827,-20.9219 1013.7602,-17.0897 1003.6488,-13.9258 1003.8827,-20.9219"/>
</g>
<!-- Node56&#45;&gt;Node35 -->
<g id="edge106" class="edge">
<title>Node56&#45;&gt;Node35</title>
<path fill="none" stroke="#191970" d="M1652.2987,-315.3068C1425.1769,-310.6049 630.7907,-292.2709 584.5,-265 499.6771,-215.0289 461.7425,-93.2518 448.8882,-40.5228"/>
<polygon fill="#191970" stroke="#191970" points="452.2657,-39.5949 446.5815,-30.654 445.4495,-41.1882 452.2657,-39.5949"/>
</g>
<!-- Node56&#45;&gt;Node38 -->
<g id="edge107" class="edge">
<title>Node56&#45;&gt;Node38</title>
<path fill="none" stroke="#191970" d="M1772.8502,-315.8884C2002.9183,-313.2915 2817.5695,-301.577 2927.5,-265 2985.7514,-245.6181 3012.8586,-241.3006 3041.5,-187 3050.2087,-170.4893 3043.0396,-163.6031 3041.5,-145 3038.6012,-109.9749 3049.8854,-94.8895 3028.5,-67 3016.0428,-50.7541 2997.2798,-39.4745 2978.6029,-31.7123"/>
<polygon fill="#191970" stroke="#191970" points="2979.7642,-28.4089 2969.1747,-28.0722 2977.2429,-34.9391 2979.7642,-28.4089"/>
</g>
<!-- Node56&#45;&gt;Node43 -->
<g id="edge109" class="edge">
<title>Node56&#45;&gt;Node43</title>
<path fill="none" stroke="#191970" d="M1652.4435,-315.2457C1419.0714,-310.196 582.8823,-290.3992 532.5,-265 511.0546,-254.1887 515.0095,-240.4421 498.5,-223 446.5863,-168.154 424.4684,-163.7941 372.5,-109 350.9319,-86.2592 328.5772,-58.1101 313.7445,-38.6728"/>
<polygon fill="#191970" stroke="#191970" points="316.5067,-36.5228 307.6807,-30.6618 310.9253,-40.7476 316.5067,-36.5228"/>
</g>
<!-- Node56&#45;&gt;Node49 -->
<g id="edge98" class="edge">
<title>Node56&#45;&gt;Node49</title>
<path fill="none" stroke="#191970" d="M1738.5581,-301.4308C1751.5161,-292.5296 1766.1548,-280.0528 1774.5,-265 1800.0909,-218.8397 1802.2624,-155.8216 1800.8433,-118.7646"/>
<polygon fill="#191970" stroke="#191970" points="1804.3298,-118.4045 1800.3371,-108.5908 1797.3384,-118.7523 1804.3298,-118.4045"/>
</g>
<!-- Node56&#45;&gt;Node50 -->
<g id="edge101" class="edge">
<title>Node56&#45;&gt;Node50</title>
<path fill="none" stroke="#191970" d="M1652.4357,-314.5837C1465.7542,-308.4098 903.4228,-288.0922 824.5,-265 756.5108,-245.1068 730.8714,-241.4032 685.5,-187 669.2699,-167.5391 660.6332,-139.9063 656.133,-118.7778"/>
<polygon fill="#191970" stroke="#191970" points="659.5193,-117.8533 654.1897,-108.6966 652.6459,-119.1783 659.5193,-117.8533"/>
</g>
<!-- Node56&#45;&gt;Node42 -->
<g id="edge108" class="edge">
<title>Node56&#45;&gt;Node42</title>
<path fill="none" stroke="#191970" d="M1747.1826,-301.3068C1764.0197,-292.5891 1783.5672,-280.3159 1797.5,-265 1837.3611,-221.1818 1812.5652,-185.811 1855.5,-145 1873.6517,-127.7462 1897.8046,-115.3335 1920.6597,-106.59"/>
<polygon fill="#191970" stroke="#191970" points="1922.1527,-109.7713 1930.354,-103.064 1919.7599,-103.1929 1922.1527,-109.7713"/>
</g>
<!-- Node56&#45;&gt;Node54 -->
<g id="edge110" class="edge">
<title>Node56&#45;&gt;Node54</title>
<path fill="none" stroke="#191970" d="M1772.6099,-315.6879C2041.9966,-311.8858 3127.8561,-294.7646 3193.5,-265 3211.7169,-256.74 3246.6285,-215.9546 3268.1096,-189.3773"/>
<polygon fill="#191970" stroke="#191970" points="3271.054,-191.2999 3274.5739,-181.3069 3265.5905,-186.9238 3271.054,-191.2999"/>
</g>
<!-- Node57 -->
<g id="node35" class="node">
<title>Node57</title>
<polygon fill="#ffffff" stroke="#bfbfbf" points="1044,-223.5 1044,-264.5 1157,-264.5 1157,-223.5 1044,-223.5"/>
<text text-anchor="start" x="1052" y="-252.5" font-family="Helvetica,sans-Serif" font-size="10.00" fill="#000000">tensorflow/compiler</text>
<text text-anchor="start" x="1052" y="-241.5" font-family="Helvetica,sans-Serif" font-size="10.00" fill="#000000">/xla/executable_run</text>
<text text-anchor="middle" x="1100.5" y="-230.5" font-family="Helvetica,sans-Serif" font-size="10.00" fill="#000000">_options.h</text>
</g>
<!-- Node56&#45;&gt;Node57 -->
<g id="edge56" class="edge">
<title>Node56&#45;&gt;Node57</title>
<path fill="none" stroke="#191970" d="M1652.3754,-315.1241C1552.8125,-311.912 1347.5564,-301.3364 1166.9669,-265.0926"/>
<polygon fill="#191970" stroke="#191970" points="1167.5225,-261.6339 1157.0249,-263.0658 1166.1243,-268.4928 1167.5225,-261.6339"/>
</g>
<!-- Node58 -->
<g id="node36" class="node">
<title>Node58</title>
<polygon fill="#ffffff" stroke="#bfbfbf" points="1175,-223.5 1175,-264.5 1306,-264.5 1306,-223.5 1175,-223.5"/>
<text text-anchor="start" x="1183" y="-252.5" font-family="Helvetica,sans-Serif" font-size="10.00" fill="#000000">tensorflow/compiler</text>
<text text-anchor="start" x="1183" y="-241.5" font-family="Helvetica,sans-Serif" font-size="10.00" fill="#000000">/xla/legacy_flags/debug</text>
<text text-anchor="middle" x="1240.5" y="-230.5" font-family="Helvetica,sans-Serif" font-size="10.00" fill="#000000">_options_flags.h</text>
</g>
<!-- Node56&#45;&gt;Node58 -->
<g id="edge57" class="edge">
<title>Node56&#45;&gt;Node58</title>
<path fill="none" stroke="#191970" d="M1652.1964,-311.4027C1576.0688,-304.3631 1441.0147,-289.8659 1316.3255,-265.0202"/>
<polygon fill="#191970" stroke="#191970" points="1316.7145,-261.5282 1306.2195,-262.9788 1315.3285,-268.3896 1316.7145,-261.5282"/>
</g>
<!-- Node59 -->
<g id="node37" class="node">
<title>Node59</title>
<polygon fill="#ffffff" stroke="#bfbfbf" points="1324.5,-223.5 1324.5,-264.5 1448.5,-264.5 1448.5,-223.5 1324.5,-223.5"/>
<text text-anchor="start" x="1332.5" y="-252.5" font-family="Helvetica,sans-Serif" font-size="10.00" fill="#000000">tensorflow/compiler</text>
<text text-anchor="start" x="1332.5" y="-241.5" font-family="Helvetica,sans-Serif" font-size="10.00" fill="#000000">/xla/service/allocation</text>
<text text-anchor="middle" x="1386.5" y="-230.5" font-family="Helvetica,sans-Serif" font-size="10.00" fill="#000000">_tracker.h</text>
</g>
<!-- Node56&#45;&gt;Node59 -->
<g id="edge58" class="edge">
<title>Node56&#45;&gt;Node59</title>
<path fill="none" stroke="#191970" d="M1652.3994,-305.9117C1602.8441,-296.8291 1530.5399,-282.7714 1458.8607,-265.2467"/>
<polygon fill="#191970" stroke="#191970" points="1459.3004,-261.7502 1448.753,-262.751 1457.6224,-268.5461 1459.3004,-261.7502"/>
</g>
<!-- Node60 -->
<g id="node38" class="node">
<title>Node60</title>
<polygon fill="#ffffff" stroke="#bfbfbf" points="1466.5,-223.5 1466.5,-264.5 1580.5,-264.5 1580.5,-223.5 1466.5,-223.5"/>
<text text-anchor="start" x="1474.5" y="-252.5" font-family="Helvetica,sans-Serif" font-size="10.00" fill="#000000">tensorflow/compiler</text>
<text text-anchor="start" x="1474.5" y="-241.5" font-family="Helvetica,sans-Serif" font-size="10.00" fill="#000000">/xla/service/channel</text>
<text text-anchor="middle" x="1523.5" y="-230.5" font-family="Helvetica,sans-Serif" font-size="10.00" fill="#000000">_tracker.h</text>
</g>
<!-- Node56&#45;&gt;Node60 -->
<g id="edge60" class="edge">
<title>Node56&#45;&gt;Node60</title>
<path fill="none" stroke="#191970" d="M1673.3391,-301.478C1648.2764,-291.864 1615.1954,-279.1742 1586.4933,-268.1641"/>
<polygon fill="#191970" stroke="#191970" points="1587.5355,-264.8153 1576.9453,-264.5015 1585.0284,-271.3509 1587.5355,-264.8153"/>
</g>
<!-- Node61 -->
<g id="node39" class="node">
<title>Node61</title>
<polygon fill="#ffffff" stroke="#bfbfbf" points="1598.5,-223.5 1598.5,-264.5 1732.5,-264.5 1732.5,-223.5 1598.5,-223.5"/>
<text text-anchor="start" x="1606.5" y="-252.5" font-family="Helvetica,sans-Serif" font-size="10.00" fill="#000000">tensorflow/compiler</text>
<text text-anchor="start" x="1606.5" y="-241.5" font-family="Helvetica,sans-Serif" font-size="10.00" fill="#000000">/xla/service/compilation</text>
<text text-anchor="middle" x="1665.5" y="-230.5" font-family="Helvetica,sans-Serif" font-size="10.00" fill="#000000">_cache.h</text>
</g>
<!-- Node56&#45;&gt;Node61 -->
<g id="edge61" class="edge">
<title>Node56&#45;&gt;Node61</title>
<path fill="none" stroke="#191970" d="M1702.7616,-301.478C1697.4504,-293.2852 1690.6912,-282.8587 1684.3918,-273.1416"/>
<polygon fill="#191970" stroke="#191970" points="1687.1673,-270.9887 1678.7906,-264.5015 1681.2935,-274.7965 1687.1673,-270.9887"/>
</g>
<!-- Node62 -->
<g id="node40" class="node">
<title>Node62</title>
<g id="a_node40"><a xlink:href="../../d1/dc5/computation__tracker_8h.html" target="_top" xlink:title="tensorflow/compiler\l/xla/service/computation\l_tracker.h">
<polygon fill="#ffffff" stroke="#ff0000" points="889,-223.5 889,-264.5 1026,-264.5 1026,-223.5 889,-223.5"/>
<text text-anchor="start" x="897" y="-252.5" font-family="Helvetica,sans-Serif" font-size="10.00" fill="#000000">tensorflow/compiler</text>
<text text-anchor="start" x="897" y="-241.5" font-family="Helvetica,sans-Serif" font-size="10.00" fill="#000000">/xla/service/computation</text>
<text text-anchor="middle" x="957.5" y="-230.5" font-family="Helvetica,sans-Serif" font-size="10.00" fill="#000000">_tracker.h</text>
</a>
</g>
</g>
<!-- Node56&#45;&gt;Node62 -->
<g id="edge62" class="edge">
<title>Node56&#45;&gt;Node62</title>
<path fill="none" stroke="#191970" d="M1652.1687,-315.7597C1534.8559,-313.4879 1267.8712,-304.2448 1036.1632,-265.1367"/>
<polygon fill="#191970" stroke="#191970" points="1036.648,-261.6689 1026.2011,-263.433 1035.468,-268.5687 1036.648,-261.6689"/>
</g>
<!-- Node63 -->
<g id="node41" class="node">
<title>Node63</title>
<polygon fill="#ffffff" stroke="#bfbfbf" points="774,-73 774,-103 911,-103 911,-73 774,-73"/>
<text text-anchor="start" x="782" y="-91" font-family="Helvetica,sans-Serif" font-size="10.00" fill="#000000">tensorflow/compiler</text>
<text text-anchor="middle" x="842.5" y="-80" font-family="Helvetica,sans-Serif" font-size="10.00" fill="#000000">/xla/service/session.pb.h</text>
</g>
<!-- Node56&#45;&gt;Node63 -->
<g id="edge99" class="edge">
<title>Node56&#45;&gt;Node63</title>
<path fill="none" stroke="#191970" d="M1652.2495,-313.9828C1458.5556,-305.7537 863.5683,-279.3537 849.5,-265 810.0487,-224.7485 823.4959,-151.4149 834.3211,-112.9952"/>
<polygon fill="#191970" stroke="#191970" points="837.7558,-113.7243 837.2586,-103.1412 831.0476,-111.7245 837.7558,-113.7243"/>
</g>
<!-- Node64 -->
<g id="node42" class="node">
<title>Node64</title>
<g id="a_node42"><a xlink:href="../../d6/d38/user__computation_8h.html" target="_top" xlink:title="tensorflow/compiler\l/xla/service/user_computation.h">
<polygon fill="#ffffff" stroke="#ff0000" points="1099,-151 1099,-181 1272,-181 1272,-151 1099,-151"/>
<text text-anchor="start" x="1107" y="-169" font-family="Helvetica,sans-Serif" font-size="10.00" fill="#000000">tensorflow/compiler</text>
<text text-anchor="middle" x="1185.5" y="-158" font-family="Helvetica,sans-Serif" font-size="10.00" fill="#000000">/xla/service/user_computation.h</text>
</a>
</g>
</g>
<!-- Node56&#45;&gt;Node64 -->
<g id="edge100" class="edge">
<title>Node56&#45;&gt;Node64</title>
<path fill="none" stroke="#191970" d="M1652.4551,-315.0168C1465.6991,-310.1146 905.9393,-293.1244 879.5,-265 866.7144,-251.3995 867.5703,-237.3571 879.5,-223 905.8298,-191.3127 1009.3518,-177.1511 1088.7708,-170.8794"/>
<polygon fill="#191970" stroke="#191970" points="1089.1142,-174.3635 1098.8208,-170.1172 1088.5848,-167.3835 1089.1142,-174.3635"/>
</g>
<!-- Node65 -->
<g id="node43" class="node">
<title>Node65</title>
<polygon fill="#ffffff" stroke="#bfbfbf" points="929,-73 929,-103 1042,-103 1042,-73 929,-73"/>
<text text-anchor="start" x="937" y="-91" font-family="Helvetica,sans-Serif" font-size="10.00" fill="#000000">tensorflow/compiler</text>
<text text-anchor="middle" x="985.5" y="-80" font-family="Helvetica,sans-Serif" font-size="10.00" fill="#000000">/xla/xla.pb.h</text>
</g>
<!-- Node56&#45;&gt;Node65 -->
<g id="edge105" class="edge">
<title>Node56&#45;&gt;Node65</title>
<path fill="none" stroke="#191970" d="M1652.1849,-315.0694C1463.1859,-310.296 893.3954,-293.5824 866.5,-265 819.2227,-214.7572 903.7922,-143.8942 953.3373,-109.0376"/>
<polygon fill="#191970" stroke="#191970" points="955.6073,-111.7235 961.8467,-103.1607 951.6293,-105.9636 955.6073,-111.7235"/>
</g>
<!-- Node66 -->
<g id="node44" class="node">
<title>Node66</title>
<polygon fill="#ffffff" stroke="#bfbfbf" points="1903,-223.5 1903,-264.5 2022,-264.5 2022,-223.5 1903,-223.5"/>
<text text-anchor="start" x="1911" y="-252.5" font-family="Helvetica,sans-Serif" font-size="10.00" fill="#000000">tensorflow/compiler</text>
<text text-anchor="start" x="1911" y="-241.5" font-family="Helvetica,sans-Serif" font-size="10.00" fill="#000000">/xla/service/device</text>
<text text-anchor="middle" x="1962.5" y="-230.5" font-family="Helvetica,sans-Serif" font-size="10.00" fill="#000000">_memory_allocator.h</text>
</g>
<!-- Node56&#45;&gt;Node66 -->
<g id="edge93" class="edge">
<title>Node56&#45;&gt;Node66</title>
<path fill="none" stroke="#191970" d="M1764.3002,-301.478C1801.6386,-290.6498 1852.4312,-275.9199 1893.2494,-264.0827"/>
<polygon fill="#191970" stroke="#191970" points="1894.2326,-267.4418 1902.862,-261.295 1892.2828,-260.7188 1894.2326,-267.4418"/>
</g>
<!-- Node67 -->
<g id="node45" class="node">
<title>Node67</title>
<polygon fill="#ffffff" stroke="#bfbfbf" points="2040.5,-223.5 2040.5,-264.5 2164.5,-264.5 2164.5,-223.5 2040.5,-223.5"/>
<text text-anchor="start" x="2048.5" y="-252.5" font-family="Helvetica,sans-Serif" font-size="10.00" fill="#000000">tensorflow/compiler</text>
<text text-anchor="start" x="2048.5" y="-241.5" font-family="Helvetica,sans-Serif" font-size="10.00" fill="#000000">/xla/service/execution</text>
<text text-anchor="middle" x="2102.5" y="-230.5" font-family="Helvetica,sans-Serif" font-size="10.00" fill="#000000">_tracker.h</text>
</g>
<!-- Node56&#45;&gt;Node67 -->
<g id="edge95" class="edge">
<title>Node56&#45;&gt;Node67</title>
<path fill="none" stroke="#191970" d="M1772.7048,-309.0014C1834.8386,-300.7568 1934.6766,-286.1019 2030.3418,-264.8944"/>
<polygon fill="#191970" stroke="#191970" points="2031.1909,-268.291 2040.1818,-262.6862 2029.6581,-261.4609 2031.1909,-268.291"/>
</g>
<!-- Node68 -->
<g id="node46" class="node">
<title>Node68</title>
<polygon fill="#ffffff" stroke="#bfbfbf" points="2182.5,-223.5 2182.5,-264.5 2326.5,-264.5 2326.5,-223.5 2182.5,-223.5"/>
<text text-anchor="start" x="2190.5" y="-252.5" font-family="Helvetica,sans-Serif" font-size="10.00" fill="#000000">tensorflow/compiler</text>
<text text-anchor="start" x="2190.5" y="-241.5" font-family="Helvetica,sans-Serif" font-size="10.00" fill="#000000">/xla/service/hlo_execution</text>
<text text-anchor="middle" x="2254.5" y="-230.5" font-family="Helvetica,sans-Serif" font-size="10.00" fill="#000000">_profile.h</text>
</g>
<!-- Node56&#45;&gt;Node68 -->
<g id="edge96" class="edge">
<title>Node56&#45;&gt;Node68</title>
<path fill="none" stroke="#191970" d="M1772.5748,-312.5328C1858.9632,-306.2233 2023.3522,-291.9626 2171.9722,-265.1589"/>
<polygon fill="#191970" stroke="#191970" points="2172.9829,-268.5322 2182.1906,-263.2914 2171.7243,-261.6463 2172.9829,-268.5322"/>
</g>
<!-- Node69 -->
<g id="node47" class="node">
<title>Node69</title>
<polygon fill="#ffffff" stroke="#bfbfbf" points="2345,-229 2345,-259 2476,-259 2476,-229 2345,-229"/>
<text text-anchor="start" x="2353" y="-247" font-family="Helvetica,sans-Serif" font-size="10.00" fill="#000000">tensorflow/compiler</text>
<text text-anchor="middle" x="2410.5" y="-236" font-family="Helvetica,sans-Serif" font-size="10.00" fill="#000000">/xla/service_interface.h</text>
</g>
<!-- Node56&#45;&gt;Node69 -->
<g id="edge102" class="edge">
<title>Node56&#45;&gt;Node69</title>
<path fill="none" stroke="#191970" d="M1772.6975,-315.3259C1884.4524,-312.3072 2131.209,-301.6985 2335.5,-265 2340.9066,-264.0288 2346.486,-262.8369 2352.0471,-261.519"/>
<polygon fill="#191970" stroke="#191970" points="2353.1442,-264.8525 2361.9962,-259.0309 2351.4458,-258.0616 2353.1442,-264.8525"/>
</g>
<!-- Node62&#45;&gt;Node8 -->
<g id="edge64" class="edge">
<title>Node62&#45;&gt;Node8</title>
<path fill="none" stroke="#191970" d="M1026.2471,-224.8082C1029.0283,-224.1722 1031.7872,-223.5663 1034.5,-223 1088.5833,-211.7109 1244.3721,-228.7997 1280.5,-187 1299.6339,-164.8622 1288.6693,-128.7397 1279.0347,-106.7899"/>
<polygon fill="#191970" stroke="#191970" points="1282.1066,-105.0978 1274.6821,-97.5396 1275.7728,-108.0781 1282.1066,-105.0978"/>
</g>
<!-- Node62&#45;&gt;Node9 -->
<g id="edge65" class="edge">
<title>Node62&#45;&gt;Node9</title>
<path fill="none" stroke="#191970" d="M1026.1726,-224.388C1028.9744,-223.8684 1031.758,-223.4015 1034.5,-223 1357.5979,-175.6953 2181.4979,-241.2645 2503.5,-187 2615.7676,-168.0804 2664.69,-187.1312 2747.5,-109 2768.3054,-89.3702 2777.2362,-56.3782 2780.9631,-35.2908"/>
<polygon fill="#191970" stroke="#191970" points="2784.451,-35.6363 2782.507,-25.2213 2777.5319,-34.5753 2784.451,-35.6363"/>
</g>
<!-- Node62&#45;&gt;Node10 -->
<g id="edge66" class="edge">
<title>Node62&#45;&gt;Node10</title>
<path fill="none" stroke="#191970" d="M1026.2285,-224.7159C1029.0148,-224.1054 1031.7799,-223.53 1034.5,-223 1167.1771,-197.1465 1209.7705,-234.0237 1336.5,-187 1394.7464,-165.3873 1404.0771,-147.9227 1452.5,-109 1473.5712,-92.0628 1472.6275,-79.6873 1496.5,-67 1563.1494,-31.5784 1652.7327,-20.5077 1700.0594,-17.0563"/>
<polygon fill="#191970" stroke="#191970" points="1700.5705,-20.5303 1710.3188,-16.3805 1700.1104,-13.5454 1700.5705,-20.5303"/>
</g>
<!-- Node62&#45;&gt;Node12 -->
<g id="edge67" class="edge">
<title>Node62&#45;&gt;Node12</title>
<path fill="none" stroke="#191970" d="M1026.179,-224.431C1028.9791,-223.8994 1031.7605,-223.4183 1034.5,-223 1464.4774,-157.3455 1577.9584,-206.0982 2012.5,-187 2126.9291,-181.9708 2259.2182,-175.0051 2342.1243,-170.5005"/>
<polygon fill="#191970" stroke="#191970" points="2342.4406,-173.9886 2352.2355,-169.9501 2342.06,-166.999 2342.4406,-173.9886"/>
</g>
<!-- Node62&#45;&gt;Node14 -->
<g id="edge63" class="edge">
<title>Node62&#45;&gt;Node14</title>
<path fill="none" stroke="#191970" d="M1026.2172,-224.6568C1029.0067,-224.0627 1031.7755,-223.5069 1034.5,-223 1189.5423,-194.1552 1239.0802,-240.3074 1387.5,-187 1477.9885,-154.4996 1476.5511,-98.1887 1567.5,-67 1697.0612,-22.5702 2135.8133,-16.4683 2248.1347,-15.6323"/>
<polygon fill="#191970" stroke="#191970" points="2248.2696,-19.1316 2258.2461,-15.5651 2248.223,-12.1317 2248.2696,-19.1316"/>
</g>
<!-- Node62&#45;&gt;Node47 -->
<g id="edge87" class="edge">
<title>Node62&#45;&gt;Node47</title>
<path fill="none" stroke="#191970" d="M1026.1717,-224.382C1028.9738,-223.864 1031.7576,-223.3991 1034.5,-223 1382.2614,-172.3925 2270.8076,-255.4563 2615.5,-187 2760.41,-158.2207 2785.5168,-114.2426 2925.5,-67 2962.1202,-54.6411 3003.5718,-42.5398 3037.2547,-33.1763"/>
<polygon fill="#191970" stroke="#191970" points="3038.2839,-36.5231 3046.9903,-30.4858 3036.4193,-29.776 3038.2839,-36.5231"/>
</g>
<!-- Node62&#45;&gt;Node34 -->
<g id="edge88" class="edge">
<title>Node62&#45;&gt;Node34</title>
<path fill="none" stroke="#191970" d="M903.5202,-223.3746C829.5154,-192.1238 711.4329,-129.7446 764.5,-67 779.7942,-48.9167 918.4656,-31.3762 1003.7969,-22.1656"/>
<polygon fill="#191970" stroke="#191970" points="1004.3549,-25.626 1013.9268,-21.0841 1003.6118,-18.6655 1004.3549,-25.626"/>
</g>
<!-- Node62&#45;&gt;Node35 -->
<g id="edge89" class="edge">
<title>Node62&#45;&gt;Node35</title>
<path fill="none" stroke="#191970" d="M888.9149,-237.4864C832.4473,-230.3001 751.2763,-215.7096 685.5,-187 597.0098,-148.3764 508.325,-74.3306 467.2005,-37.4699"/>
<polygon fill="#191970" stroke="#191970" points="469.3875,-34.7287 459.6239,-30.615 464.6912,-39.9195 469.3875,-34.7287"/>
</g>
<!-- Node62&#45;&gt;Node43 -->
<g id="edge90" class="edge">
<title>Node62&#45;&gt;Node43</title>
<path fill="none" stroke="#191970" d="M888.9721,-239.9264C816.7634,-234.03 700.5527,-219.942 605.5,-187 495.396,-148.8417 378.5855,-72.9062 325.6229,-36.2504"/>
<polygon fill="#191970" stroke="#191970" points="327.5885,-33.3541 317.3834,-30.507 323.5856,-39.0967 327.5885,-33.3541"/>
</g>
<!-- Node62&#45;&gt;Node49 -->
<g id="edge68" class="edge">
<title>Node62&#45;&gt;Node49</title>
<path fill="none" stroke="#191970" d="M1026.1939,-224.5242C1028.9898,-223.9668 1031.7663,-223.4549 1034.5,-223 1283.1452,-181.6264 1357.1417,-252.6731 1600.5,-187 1658.5535,-171.3336 1719.6033,-137.8384 1758.3031,-114.1585"/>
<polygon fill="#191970" stroke="#191970" points="1760.5094,-116.909 1767.1666,-108.6669 1756.8226,-110.9585 1760.5094,-116.909"/>
</g>
<!-- Node62&#45;&gt;Node50 -->
<g id="edge86" class="edge">
<title>Node62&#45;&gt;Node50</title>
<path fill="none" stroke="#191970" d="M888.9759,-238.1936C841.6623,-231.5605 778.966,-217.3642 731.5,-187 704.3413,-169.6264 682.1546,-139.9002 668.0939,-117.5443"/>
<polygon fill="#191970" stroke="#191970" points="670.9441,-115.4953 662.7532,-108.7751 664.9656,-119.1364 670.9441,-115.4953"/>
</g>
<!-- Node62&#45;&gt;Node52 -->
<g id="edge91" class="edge">
<title>Node62&#45;&gt;Node52</title>
<path fill="none" stroke="#191970" d="M1026.1965,-224.5401C1028.9917,-223.9783 1031.7674,-223.4611 1034.5,-223 1150.4664,-203.432 1457.6774,-240.3229 1562.5,-187 1594.7962,-170.571 1619.3849,-135.4508 1633.132,-111.7732"/>
<polygon fill="#191970" stroke="#191970" points="1636.2011,-113.456 1638.0261,-103.0195 1630.0911,-110.04 1636.2011,-113.456"/>
</g>
<!-- Node62&#45;&gt;Node55 -->
<g id="edge92" class="edge">
<title>Node62&#45;&gt;Node55</title>
<path fill="none" stroke="#191970" d="M1026.2394,-224.7709C1029.0228,-224.1452 1031.7842,-223.5516 1034.5,-223 1151.4128,-199.2536 1197.4763,-247.1549 1300.5,-187 1330.1538,-169.6853 1351.937,-135.6024 1364.1665,-112.3135"/>
<polygon fill="#191970" stroke="#191970" points="1367.4475,-113.5796 1368.8179,-103.0738 1361.1951,-110.432 1367.4475,-113.5796"/>
</g>
<!-- Node62&#45;&gt;Node63 -->
<g id="edge69" class="edge">
<title>Node62&#45;&gt;Node63</title>
<path fill="none" stroke="#191970" d="M942.2289,-223.2844C920.8751,-194.3175 882.2039,-141.8593 859.8078,-111.4784"/>
<polygon fill="#191970" stroke="#191970" points="862.4346,-109.1432 853.6836,-103.1708 856.8001,-113.2969 862.4346,-109.1432"/>
</g>
<!-- Node62&#45;&gt;Node64 -->
<g id="edge70" class="edge">
<title>Node62&#45;&gt;Node64</title>
<path fill="none" stroke="#191970" d="M1017.7026,-223.4044C1053.1261,-211.2858 1097.5416,-196.091 1131.7767,-184.379"/>
<polygon fill="#191970" stroke="#191970" points="1133.2702,-187.5673 1141.5989,-181.0188 1131.0043,-180.9442 1133.2702,-187.5673"/>
</g>
<!-- Node64&#45;&gt;Node7 -->
<g id="edge71" class="edge">
<title>Node64&#45;&gt;Node7</title>
<path fill="none" stroke="#191970" d="M1272.0096,-163.192C1549.6258,-154.109 2416.2418,-125.1786 2696.5,-109 2776.8087,-104.364 2870.3725,-96.5447 2923.6021,-91.8679"/>
<polygon fill="#191970" stroke="#191970" points="2924.0412,-95.3428 2933.6944,-90.9763 2923.4251,-88.37 2924.0412,-95.3428"/>
</g>
<!-- Node64&#45;&gt;Node8 -->
<g id="edge72" class="edge">
<title>Node64&#45;&gt;Node8</title>
<path fill="none" stroke="#191970" d="M1201.696,-150.9608C1216.0163,-137.6634 1236.8709,-118.2984 1251.6641,-104.5619"/>
<polygon fill="#191970" stroke="#191970" points="1254.2325,-106.9532 1259.1789,-97.5839 1249.4694,-101.8236 1254.2325,-106.9532"/>
</g>
<!-- Node64&#45;&gt;Node9 -->
<g id="edge73" class="edge">
<title>Node64&#45;&gt;Node9</title>
<path fill="none" stroke="#191970" d="M1272.2288,-162.8832C1526.591,-153.592 2259.5133,-125.6963 2366.5,-109 2437.8676,-97.8624 2452.9852,-82.6541 2523.5,-67 2612.9522,-47.1418 2637.0888,-51.0422 2726.5,-31 2732.3337,-29.6923 2738.4663,-28.1764 2744.4592,-26.615"/>
<polygon fill="#191970" stroke="#191970" points="2745.5798,-29.9384 2754.3355,-23.9728 2743.7707,-23.1762 2745.5798,-29.9384"/>
</g>
<!-- Node64&#45;&gt;Node10 -->
<g id="edge74" class="edge">
<title>Node64&#45;&gt;Node10</title>
<path fill="none" stroke="#191970" d="M1191.9686,-150.9095C1203.0519,-125.7976 1225.9763,-77.1764 1241.5,-67 1260.7528,-54.379 1593.5904,-26.6634 1700.0419,-18.0835"/>
<polygon fill="#191970" stroke="#191970" points="1700.4991,-21.5582 1710.1867,-17.2686 1699.9386,-14.5806 1700.4991,-21.5582"/>
</g>
<!-- Node64&#45;&gt;Node17 -->
<g id="edge75" class="edge">
<title>Node64&#45;&gt;Node17</title>
<path fill="none" stroke="#191970" d="M1184.2723,-150.7708C1183.4188,-128.8926 1185.4088,-88.8079 1208.5,-67 1246.1684,-31.4249 1402.8838,-20.0932 1472.6931,-16.7686"/>
<polygon fill="#191970" stroke="#191970" points="1472.8963,-20.2631 1482.7291,-16.3177 1472.5821,-13.2702 1472.8963,-20.2631"/>
</g>
<!-- Node64&#45;&gt;Node20 -->
<g id="edge76" class="edge">
<title>Node64&#45;&gt;Node20</title>
<path fill="none" stroke="#191970" d="M1272.272,-161.4474C1430.4823,-152.9117 1776.3814,-133.1656 2067.5,-109 2104.5233,-105.9267 2145.2086,-101.9334 2180.638,-98.2553"/>
<polygon fill="#191970" stroke="#191970" points="2181.3854,-101.6963 2190.9677,-97.1764 2180.6582,-94.7342 2181.3854,-101.6963"/>
</g>
<!-- Node64&#45;&gt;Node47 -->
<g id="edge79" class="edge">
<title>Node64&#45;&gt;Node47</title>
<path fill="none" stroke="#191970" d="M1272.3926,-162.966C1550.0091,-153.16 2400.8107,-122.1927 2458.5,-109 2504.6945,-98.436 2510.528,-78.4939 2556.5,-67 2739.1157,-21.3425 2791.2849,-50.5856 2978.5,-31 2997.4887,-29.0135 3018.0645,-26.5791 3036.9363,-24.2334"/>
<polygon fill="#191970" stroke="#191970" points="3037.4404,-27.6977 3046.9271,-22.9804 3036.5693,-20.7521 3037.4404,-27.6977"/>
</g>
<!-- Node64&#45;&gt;Node34 -->
<g id="edge80" class="edge">
<title>Node64&#45;&gt;Node34</title>
<path fill="none" stroke="#191970" d="M1177.2901,-150.8746C1166.0994,-130.8271 1144.8755,-94.756 1122.5,-67 1114.2764,-56.7989 1104.24,-46.4594 1095.1859,-37.7483"/>
<polygon fill="#191970" stroke="#191970" points="1097.5496,-35.1666 1087.8727,-30.8528 1092.7474,-40.2596 1097.5496,-35.1666"/>
</g>
<!-- Node64&#45;&gt;Node35 -->
<g id="edge82" class="edge">
<title>Node64&#45;&gt;Node35</title>
<path fill="none" stroke="#191970" d="M1167.3996,-150.7856C1136.8966,-125.4865 1076.0815,-76.5909 1050.5,-67 953.1404,-30.4986 647.246,-19.6869 510.5942,-16.6353"/>
<polygon fill="#191970" stroke="#191970" points="510.3386,-13.1291 500.2653,-16.4123 510.1874,-20.1275 510.3386,-13.1291"/>
</g>
<!-- Node64&#45;&gt;Node43 -->
<g id="edge83" class="edge">
<title>Node64&#45;&gt;Node43</title>
<path fill="none" stroke="#191970" d="M1098.8427,-164.1106C979.8911,-160.1116 759.8953,-147.6687 576.5,-109 491.8208,-91.1455 397.0273,-56.1641 342.3057,-34.4185"/>
<polygon fill="#191970" stroke="#191970" points="343.4779,-31.1177 332.8933,-30.6513 340.8768,-37.6166 343.4779,-31.1177"/>
</g>
<!-- Node64&#45;&gt;Node50 -->
<g id="edge78" class="edge">
<title>Node64&#45;&gt;Node50</title>
<path fill="none" stroke="#191970" d="M1098.6393,-155.5063C1013.3851,-144.9083 879.7454,-127.4988 764.5,-109 752.3742,-107.0536 739.5474,-104.8293 727.0576,-102.5732"/>
<polygon fill="#191970" stroke="#191970" points="727.5991,-99.1143 717.1331,-100.7617 726.3421,-106.0005 727.5991,-99.1143"/>
</g>
<!-- Node64&#45;&gt;Node52 -->
<g id="edge84" class="edge">
<title>Node64&#45;&gt;Node52</title>
<path fill="none" stroke="#191970" d="M1272.0225,-151.3288C1356.8415,-136.9464 1485.0049,-115.2144 1566.9652,-101.3168"/>
<polygon fill="#191970" stroke="#191970" points="1567.6989,-104.7424 1576.973,-99.6198 1566.5286,-97.8409 1567.6989,-104.7424"/>
</g>
<!-- Node64&#45;&gt;Node55 -->
<g id="edge85" class="edge">
<title>Node64&#45;&gt;Node55</title>
<path fill="none" stroke="#191970" d="M1222.1339,-150.9608C1252.6577,-138.43 1296.3065,-120.511 1329.2387,-106.9915"/>
<polygon fill="#191970" stroke="#191970" points="1330.7333,-110.1614 1338.6549,-103.1259 1328.0749,-103.6859 1330.7333,-110.1614"/>
</g>
<!-- Node64&#45;&gt;Node63 -->
<g id="edge77" class="edge">
<title>Node64&#45;&gt;Node63</title>
<path fill="none" stroke="#191970" d="M1109.8612,-150.949C1056.4887,-140.0464 983.402,-124.548 919.5,-109 915.1412,-107.9395 910.6534,-106.8113 906.1389,-105.6496"/>
<polygon fill="#191970" stroke="#191970" points="906.813,-102.2083 896.2529,-103.066 905.043,-108.9808 906.813,-102.2083"/>
</g>
<!-- Node64&#45;&gt;Node65 -->
<g id="edge81" class="edge">
<title>Node64&#45;&gt;Node65</title>
<path fill="none" stroke="#191970" d="M1146.938,-150.9608C1114.6698,-138.3762 1068.467,-120.3571 1033.7504,-106.8177"/>
<polygon fill="#191970" stroke="#191970" points="1034.8726,-103.4986 1024.2843,-103.1259 1032.3291,-110.0202 1034.8726,-103.4986"/>
</g>
</g>
</svg>
