<?xml version="1.0" encoding="UTF-8" standalone="no"?>
<!DOCTYPE svg PUBLIC "-//W3C//DTD SVG 1.1//EN"
 "http://www.w3.org/Graphics/SVG/1.1/DTD/svg11.dtd">
<!-- Generated by graphviz version 2.40.1 (20161225.0304)
 -->
<!-- Title: tensorflow/tensorflow/compiler/xla/client/compile_only_client.cc Pages: 1 -->
<svg width="3065pt" height="487pt"
 viewBox="0.00 0.00 3065.07 487.00" xmlns="http://www.w3.org/2000/svg" xmlns:xlink="http://www.w3.org/1999/xlink">
<g id="graph0" class="graph" transform="scale(1 1) rotate(0) translate(4 483)">
<title>tensorflow/tensorflow/compiler/xla/client/compile_only_client.cc</title>
<polygon fill="#ffffff" stroke="transparent" points="-4,4 -4,-483 3061.0713,-483 3061.0713,4 -4,4"/>
<!-- Node0 -->
<g id="node1" class="node">
<title>Node0</title>
<polygon fill="#bfbfbf" stroke="#000000" points="536.6577,-440.5 536.6577,-478.5 655.4849,-478.5 655.4849,-440.5 536.6577,-440.5"/>
<text text-anchor="start" x="544.6577" y="-466.5" font-family="Helvetica,sans-Serif" font-size="10.00" fill="#000000">tensorflow/tensorflow</text>
<text text-anchor="start" x="544.6577" y="-456.5" font-family="Helvetica,sans-Serif" font-size="10.00" fill="#000000">/compiler/xla/client</text>
<text text-anchor="middle" x="596.0713" y="-446.5" font-family="Helvetica,sans-Serif" font-size="10.00" fill="#000000">/compile_only_client.cc</text>
</g>
<!-- Node1 -->
<g id="node2" class="node">
<title>Node1</title>
<g id="a_node2"><a xlink:href="../../d4/dab/compile__only__client_8h.html" target="_top" xlink:title="tensorflow/compiler\l/xla/client/compile\l_only_client.h">
<polygon fill="#ffffff" stroke="#000000" points="373,-365.5 373,-403.5 475.1426,-403.5 475.1426,-365.5 373,-365.5"/>
<text text-anchor="start" x="381" y="-391.5" font-family="Helvetica,sans-Serif" font-size="10.00" fill="#000000">tensorflow/compiler</text>
<text text-anchor="start" x="381" y="-381.5" font-family="Helvetica,sans-Serif" font-size="10.00" fill="#000000">/xla/client/compile</text>
<text text-anchor="middle" x="424.0713" y="-371.5" font-family="Helvetica,sans-Serif" font-size="10.00" fill="#000000">_only_client.h</text>
</a>
</g>
</g>
<!-- Node0&#45;&gt;Node1 -->
<g id="edge1" class="edge">
<title>Node0&#45;&gt;Node1</title>
<path fill="none" stroke="#191970" d="M552.2234,-440.3803C529.3782,-430.4187 501.2607,-418.1582 477.1893,-407.6619"/>
<polygon fill="#191970" stroke="#191970" points="478.4046,-404.3736 467.8391,-403.5848 475.6066,-410.7901 478.4046,-404.3736"/>
</g>
<!-- Node44 -->
<g id="node45" class="node">
<title>Node44</title>
<polygon fill="#ffffff" stroke="#bfbfbf" points="492.917,-375.5 492.917,-393.5 585.2256,-393.5 585.2256,-375.5 492.917,-375.5"/>
<text text-anchor="middle" x="539.0713" y="-381.5" font-family="Helvetica,sans-Serif" font-size="10.00" fill="#000000">llvm/ADT/Triple.h</text>
</g>
<!-- Node0&#45;&gt;Node44 -->
<g id="edge91" class="edge">
<title>Node0&#45;&gt;Node44</title>
<path fill="none" stroke="#191970" d="M581.3924,-440.1856C572.4388,-428.4046 561.0839,-413.464 552.3904,-402.0251"/>
<polygon fill="#191970" stroke="#191970" points="554.923,-399.5732 546.0856,-393.7294 549.3499,-403.8088 554.923,-399.5732"/>
</g>
<!-- Node45 -->
<g id="node46" class="node">
<title>Node45</title>
<polygon fill="#ffffff" stroke="#bfbfbf" points="603,-370.5 603,-398.5 705.1426,-398.5 705.1426,-370.5 603,-370.5"/>
<text text-anchor="start" x="611" y="-386.5" font-family="Helvetica,sans-Serif" font-size="10.00" fill="#000000">tensorflow/compiler</text>
<text text-anchor="middle" x="654.0713" y="-376.5" font-family="Helvetica,sans-Serif" font-size="10.00" fill="#000000">/xla/ptr_util.h</text>
</g>
<!-- Node0&#45;&gt;Node45 -->
<g id="edge92" class="edge">
<title>Node0&#45;&gt;Node45</title>
<path fill="none" stroke="#191970" d="M611.0077,-440.1856C618.9531,-429.9115 628.7567,-417.2343 637.002,-406.5724"/>
<polygon fill="#191970" stroke="#191970" points="639.8663,-408.5899 643.2151,-398.5382 634.3289,-404.3076 639.8663,-408.5899"/>
</g>
<!-- Node46 -->
<g id="node47" class="node">
<title>Node46</title>
<polygon fill="#ffffff" stroke="#bfbfbf" points="723.2192,-370.5 723.2192,-398.5 830.9233,-398.5 830.9233,-370.5 723.2192,-370.5"/>
<text text-anchor="start" x="731.2192" y="-386.5" font-family="Helvetica,sans-Serif" font-size="10.00" fill="#000000">tensorflow/compiler</text>
<text text-anchor="middle" x="777.0713" y="-376.5" font-family="Helvetica,sans-Serif" font-size="10.00" fill="#000000">/xla/status_macros.h</text>
</g>
<!-- Node0&#45;&gt;Node46 -->
<g id="edge93" class="edge">
<title>Node0&#45;&gt;Node46</title>
<path fill="none" stroke="#191970" d="M642.2136,-440.3803C670.3209,-428.7336 706.0124,-413.9443 733.6159,-402.5064"/>
<polygon fill="#191970" stroke="#191970" points="735.1181,-405.6725 743.0166,-398.6111 732.4385,-399.2057 735.1181,-405.6725"/>
</g>
<!-- Node2 -->
<g id="node3" class="node">
<title>Node2</title>
<polygon fill="#ffffff" stroke="#bfbfbf" points="0,-295.5 0,-323.5 102.1426,-323.5 102.1426,-295.5 0,-295.5"/>
<text text-anchor="start" x="8" y="-311.5" font-family="Helvetica,sans-Serif" font-size="10.00" fill="#000000">tensorflow/compiler</text>
<text text-anchor="middle" x="51.0713" y="-301.5" font-family="Helvetica,sans-Serif" font-size="10.00" fill="#000000">/xla/client/client.h</text>
</g>
<!-- Node1&#45;&gt;Node2 -->
<g id="edge2" class="edge">
<title>Node1&#45;&gt;Node2</title>
<path fill="none" stroke="#191970" d="M372.9254,-377.6573C310.5705,-368.8054 202.2261,-351.7774 111.0713,-329 107.9365,-328.2167 104.7275,-327.355 101.503,-326.4433"/>
<polygon fill="#191970" stroke="#191970" points="102.4234,-323.0658 91.8414,-323.587 100.4388,-329.7786 102.4234,-323.0658"/>
</g>
<!-- Node3 -->
<g id="node4" class="node">
<title>Node3</title>
<polygon fill="#ffffff" stroke="#bfbfbf" points="120.4312,-295.5 120.4312,-323.5 243.7114,-323.5 243.7114,-295.5 120.4312,-295.5"/>
<text text-anchor="start" x="128.4312" y="-311.5" font-family="Helvetica,sans-Serif" font-size="10.00" fill="#000000">tensorflow/compiler</text>
<text text-anchor="middle" x="182.0713" y="-301.5" font-family="Helvetica,sans-Serif" font-size="10.00" fill="#000000">/xla/client/computation.h</text>
</g>
<!-- Node1&#45;&gt;Node3 -->
<g id="edge3" class="edge">
<title>Node1&#45;&gt;Node3</title>
<path fill="none" stroke="#191970" d="M372.7493,-368.5944C333.0149,-356.28 278.0736,-339.2528 237.3691,-326.6377"/>
<polygon fill="#191970" stroke="#191970" points="238.1953,-323.2296 227.6074,-323.6124 236.1231,-329.9159 238.1953,-323.2296"/>
</g>
<!-- Node4 -->
<g id="node5" class="node">
<title>Node4</title>
<g id="a_node5"><a xlink:href="../../d2/d89/compile__only__service_8h.html" target="_top" xlink:title="tensorflow/compiler\l/xla/service/compile\l_only_service.h">
<polygon fill="#ffffff" stroke="#000000" points="1597.4458,-290.5 1597.4458,-328.5 1700.6968,-328.5 1700.6968,-290.5 1597.4458,-290.5"/>
<text text-anchor="start" x="1605.4458" y="-316.5" font-family="Helvetica,sans-Serif" font-size="10.00" fill="#000000">tensorflow/compiler</text>
<text text-anchor="start" x="1605.4458" y="-306.5" font-family="Helvetica,sans-Serif" font-size="10.00" fill="#000000">/xla/service/compile</text>
<text text-anchor="middle" x="1649.0713" y="-296.5" font-family="Helvetica,sans-Serif" font-size="10.00" fill="#000000">_only_service.h</text>
</a>
</g>
</g>
<!-- Node1&#45;&gt;Node4 -->
<g id="edge4" class="edge">
<title>Node1&#45;&gt;Node4</title>
<path fill="none" stroke="#191970" d="M475.2265,-366.8824C478.1994,-366.1689 481.1622,-365.5321 484.0713,-365 698.7991,-325.7225 1378.2162,-313.2374 1587.2585,-310.2755"/>
<polygon fill="#191970" stroke="#191970" points="1587.4887,-313.7727 1597.4389,-310.1336 1587.3911,-306.7734 1587.4887,-313.7727"/>
</g>
<!-- Node6 -->
<g id="node7" class="node">
<title>Node6</title>
<g id="a_node7"><a xlink:href="../../d4/dd1/compiler_8h.html" target="_top" xlink:title="tensorflow/compiler\l/xla/service/compiler.h">
<polygon fill="#ffffff" stroke="#000000" points="2008.8843,-155.5 2008.8843,-183.5 2123.2583,-183.5 2123.2583,-155.5 2008.8843,-155.5"/>
<text text-anchor="start" x="2016.8843" y="-171.5" font-family="Helvetica,sans-Serif" font-size="10.00" fill="#000000">tensorflow/compiler</text>
<text text-anchor="middle" x="2066.0713" y="-161.5" font-family="Helvetica,sans-Serif" font-size="10.00" fill="#000000">/xla/service/compiler.h</text>
</a>
</g>
</g>
<!-- Node1&#45;&gt;Node6 -->
<g id="edge87" class="edge">
<title>Node1&#45;&gt;Node6</title>
<path fill="none" stroke="#191970" d="M475.2151,-366.8186C478.1909,-366.1214 481.1575,-365.5056 484.0713,-365 752.621,-318.4056 1444.397,-389.8864 1710.0713,-329 1836.9082,-299.9319 1973.8896,-224.6504 2034.3405,-188.8991"/>
<polygon fill="#191970" stroke="#191970" points="2036.2357,-191.844 2043.0334,-183.7174 2032.6515,-185.8312 2036.2357,-191.844"/>
</g>
<!-- Node15 -->
<g id="node16" class="node">
<title>Node15</title>
<polygon fill="#ffffff" stroke="#bfbfbf" points="727,-5.5 727,-33.5 829.1426,-33.5 829.1426,-5.5 727,-5.5"/>
<text text-anchor="start" x="735" y="-21.5" font-family="Helvetica,sans-Serif" font-size="10.00" fill="#000000">tensorflow/compiler</text>
<text text-anchor="middle" x="778.0713" y="-11.5" font-family="Helvetica,sans-Serif" font-size="10.00" fill="#000000">/xla/statusor.h</text>
</g>
<!-- Node1&#45;&gt;Node15 -->
<g id="edge88" class="edge">
<title>Node1&#45;&gt;Node15</title>
<path fill="none" stroke="#191970" d="M380.1066,-365.3712C335.2152,-342.5174 272.0713,-299.676 272.0713,-239.5 272.0713,-239.5 272.0713,-239.5 272.0713,-169.5 272.0713,-98.7869 334.6915,-101.9413 400.0713,-75 456.1519,-51.8906 625.0358,-33.4736 716.9191,-24.8394"/>
<polygon fill="#191970" stroke="#191970" points="717.2847,-28.3206 726.9178,-23.9099 716.6367,-21.3507 717.2847,-28.3206"/>
</g>
<!-- Node19 -->
<g id="node20" class="node">
<title>Node19</title>
<polygon fill="#ffffff" stroke="#bfbfbf" points="478.3081,-80.5 478.3081,-108.5 623.8345,-108.5 623.8345,-80.5 478.3081,-80.5"/>
<text text-anchor="start" x="486.3081" y="-96.5" font-family="Helvetica,sans-Serif" font-size="10.00" fill="#000000">tensorflow/core/platform</text>
<text text-anchor="middle" x="551.0713" y="-86.5" font-family="Helvetica,sans-Serif" font-size="10.00" fill="#000000">/stream_executor_no_cuda.h</text>
</g>
<!-- Node1&#45;&gt;Node19 -->
<g id="edge90" class="edge">
<title>Node1&#45;&gt;Node19</title>
<path fill="none" stroke="#191970" d="M432.4041,-365.4723C454.7947,-314.3442 516.222,-174.0772 540.7533,-118.0607"/>
<polygon fill="#191970" stroke="#191970" points="544.0813,-119.1863 544.8868,-108.6221 537.6692,-116.3782 544.0813,-119.1863"/>
</g>
<!-- Node36 -->
<g id="node37" class="node">
<title>Node36</title>
<polygon fill="#ffffff" stroke="#bfbfbf" points="2939,-5.5 2939,-33.5 3041.1426,-33.5 3041.1426,-5.5 2939,-5.5"/>
<text text-anchor="start" x="2947" y="-21.5" font-family="Helvetica,sans-Serif" font-size="10.00" fill="#000000">tensorflow/compiler</text>
<text text-anchor="middle" x="2990.0713" y="-11.5" font-family="Helvetica,sans-Serif" font-size="10.00" fill="#000000">/xla/xla_data.pb.h</text>
</g>
<!-- Node1&#45;&gt;Node36 -->
<g id="edge89" class="edge">
<title>Node1&#45;&gt;Node36</title>
<path fill="none" stroke="#191970" d="M475.2141,-366.8129C478.1902,-366.1171 481.1571,-365.5032 484.0713,-365 768.4191,-315.9029 1493.8575,-343.0353 1782.0713,-329 2260.8864,-305.6829 2379.9021,-288.0855 2858.0713,-254 2946.5258,-247.6947 3057.0713,-328.1789 3057.0713,-239.5 3057.0713,-239.5 3057.0713,-239.5 3057.0713,-169.5 3057.0713,-125.6952 3048.1366,-114.4383 3029.0713,-75 3023.442,-63.3554 3015.4647,-51.4872 3008.1902,-41.7305"/>
<polygon fill="#191970" stroke="#191970" points="3010.9277,-39.5488 3002.0549,-33.7587 3005.3803,-43.8181 3010.9277,-39.5488"/>
</g>
<!-- Node5 -->
<g id="node6" class="node">
<title>Node5</title>
<polygon fill="#ffffff" stroke="#bfbfbf" points="2876.6011,-155.5 2876.6011,-183.5 2991.5415,-183.5 2991.5415,-155.5 2876.6011,-155.5"/>
<text text-anchor="start" x="2884.6011" y="-171.5" font-family="Helvetica,sans-Serif" font-size="10.00" fill="#000000">tensorflow/compiler</text>
<text text-anchor="middle" x="2934.0713" y="-161.5" font-family="Helvetica,sans-Serif" font-size="10.00" fill="#000000">/xla/service/backend.h</text>
</g>
<!-- Node4&#45;&gt;Node5 -->
<g id="edge5" class="edge">
<title>Node4&#45;&gt;Node5</title>
<path fill="none" stroke="#191970" d="M1700.9845,-307.4867C1869.7943,-300.2732 2417.9493,-271.6031 2863.0713,-189 2867.7726,-188.1276 2872.6159,-187.0937 2877.4593,-185.9643"/>
<polygon fill="#191970" stroke="#191970" points="2878.4797,-189.3178 2887.3558,-183.5329 2876.8095,-182.52 2878.4797,-189.3178"/>
</g>
<!-- Node4&#45;&gt;Node6 -->
<g id="edge6" class="edge">
<title>Node4&#45;&gt;Node6</title>
<path fill="none" stroke="#191970" d="M1701.0415,-292.052C1781.2316,-265.1296 1934.2196,-213.7668 2014.2932,-186.8835"/>
<polygon fill="#191970" stroke="#191970" points="2015.7899,-190.0731 2024.1559,-183.5723 2013.5619,-183.4371 2015.7899,-190.0731"/>
</g>
<!-- Node4&#45;&gt;Node15 -->
<g id="edge84" class="edge">
<title>Node4&#45;&gt;Node15</title>
<path fill="none" stroke="#191970" d="M1597.1549,-308.2978C1418.0592,-303.8922 826.848,-287.1333 640.0713,-254 542.6163,-236.712 487.0205,-267.7556 427.0713,-189 396.3782,-148.6783 392.139,-113.5145 425.0713,-75 443.7674,-53.1348 620.6982,-33.8176 716.7423,-24.8353"/>
<polygon fill="#191970" stroke="#191970" points="717.2722,-28.3013 726.9073,-23.895 716.6274,-21.3311 717.2722,-28.3013"/>
</g>
<!-- Node4&#45;&gt;Node19 -->
<g id="edge86" class="edge">
<title>Node4&#45;&gt;Node19</title>
<path fill="none" stroke="#191970" d="M1597.3634,-307.8418C1388.3206,-300.6161 613.4752,-268.5982 542.0713,-189 524.9707,-169.937 531.946,-139.1985 540.07,-117.982"/>
<polygon fill="#191970" stroke="#191970" points="543.3207,-119.28 543.9251,-108.7024 536.8563,-116.5944 543.3207,-119.28"/>
</g>
<!-- Node21 -->
<g id="node22" class="node">
<title>Node21</title>
<g id="a_node22"><a xlink:href="../../d5/d83/service_8h.html" target="_top" xlink:title="tensorflow/compiler\l/xla/service/service.h">
<polygon fill="#ffffff" stroke="#000000" points="1594.6675,-225.5 1594.6675,-253.5 1703.4751,-253.5 1703.4751,-225.5 1594.6675,-225.5"/>
<text text-anchor="start" x="1602.6675" y="-241.5" font-family="Helvetica,sans-Serif" font-size="10.00" fill="#000000">tensorflow/compiler</text>
<text text-anchor="middle" x="1649.0713" y="-231.5" font-family="Helvetica,sans-Serif" font-size="10.00" fill="#000000">/xla/service/service.h</text>
</a>
</g>
</g>
<!-- Node4&#45;&gt;Node21 -->
<g id="edge21" class="edge">
<title>Node4&#45;&gt;Node21</title>
<path fill="none" stroke="#191970" d="M1649.0713,-290.3722C1649.0713,-282.2889 1649.0713,-272.7725 1649.0713,-264.1705"/>
<polygon fill="#191970" stroke="#191970" points="1652.5714,-263.9403 1649.0713,-253.9404 1645.5714,-263.9404 1652.5714,-263.9403"/>
</g>
<!-- Node4&#45;&gt;Node36 -->
<g id="edge85" class="edge">
<title>Node4&#45;&gt;Node36</title>
<path fill="none" stroke="#191970" d="M1701.0722,-309.0159C1938.6982,-306.2635 2913.4451,-288.912 3000.0713,-189 3035.3738,-148.2832 3015.1569,-79.2817 3000.712,-43.1561"/>
<polygon fill="#191970" stroke="#191970" points="3003.9254,-41.7681 2996.8418,-33.8894 2997.4661,-44.4658 3003.9254,-41.7681"/>
</g>
<!-- Node7 -->
<g id="node8" class="node">
<title>Node7</title>
<polygon fill="#ffffff" stroke="#bfbfbf" points="1366.6675,-10.5 1366.6675,-28.5 1425.4751,-28.5 1425.4751,-10.5 1366.6675,-10.5"/>
<text text-anchor="middle" x="1396.0713" y="-16.5" font-family="Helvetica,sans-Serif" font-size="10.00" fill="#000000">functional</text>
</g>
<!-- Node6&#45;&gt;Node7 -->
<g id="edge7" class="edge">
<title>Node6&#45;&gt;Node7</title>
<path fill="none" stroke="#191970" d="M2022.7796,-155.4546C2014.9563,-153.3316 2006.8221,-151.3902 1999.0713,-150 1889.2042,-130.2938 1600.4633,-158.4408 1498.0713,-114 1459.3402,-97.1897 1425.9208,-59.2388 1408.6339,-36.881"/>
<polygon fill="#191970" stroke="#191970" points="1411.2381,-34.5202 1402.4356,-28.6239 1405.6399,-38.7226 1411.2381,-34.5202"/>
</g>
<!-- Node8 -->
<g id="node9" class="node">
<title>Node8</title>
<polygon fill="#ffffff" stroke="#bfbfbf" points="1563.3447,-10.5 1563.3447,-28.5 1598.7979,-28.5 1598.7979,-10.5 1563.3447,-10.5"/>
<text text-anchor="middle" x="1581.0713" y="-16.5" font-family="Helvetica,sans-Serif" font-size="10.00" fill="#000000">map</text>
</g>
<!-- Node6&#45;&gt;Node8 -->
<g id="edge8" class="edge">
<title>Node6&#45;&gt;Node8</title>
<path fill="none" stroke="#191970" d="M2022.7754,-155.4779C2014.9526,-153.3524 2006.8196,-151.4041 1999.0713,-150 1946.7724,-140.5224 1558.2127,-152.9718 1522.0713,-114 1499.1484,-89.2818 1534.7891,-54.4165 1559.8736,-34.6795"/>
<polygon fill="#191970" stroke="#191970" points="1562.0288,-37.4378 1567.876,-28.6026 1557.7953,-31.863 1562.0288,-37.4378"/>
</g>
<!-- Node9 -->
<g id="node10" class="node">
<title>Node9</title>
<polygon fill="#ffffff" stroke="#bfbfbf" points="2585.0146,-10.5 2585.0146,-28.5 2637.1279,-28.5 2637.1279,-10.5 2585.0146,-10.5"/>
<text text-anchor="middle" x="2611.0713" y="-16.5" font-family="Helvetica,sans-Serif" font-size="10.00" fill="#000000">memory</text>
</g>
<!-- Node6&#45;&gt;Node9 -->
<g id="edge9" class="edge">
<title>Node6&#45;&gt;Node9</title>
<path fill="none" stroke="#191970" d="M2123.5493,-158.1482C2172.2732,-148.0511 2243.7955,-132.1092 2305.0713,-114 2354.0125,-99.5361 2364.0527,-89.1993 2413.0713,-75 2484.3321,-54.3578 2506.7113,-65.3324 2576.0713,-39 2579.9832,-37.5148 2583.9893,-35.6509 2587.8293,-33.6682"/>
<polygon fill="#191970" stroke="#191970" points="2589.8387,-36.556 2596.8841,-28.6432 2586.442,-30.4353 2589.8387,-36.556"/>
</g>
<!-- Node10 -->
<g id="node11" class="node">
<title>Node10</title>
<polygon fill="#ffffff" stroke="#bfbfbf" points="1504.8447,-10.5 1504.8447,-28.5 1545.2979,-28.5 1545.2979,-10.5 1504.8447,-10.5"/>
<text text-anchor="middle" x="1525.0713" y="-16.5" font-family="Helvetica,sans-Serif" font-size="10.00" fill="#000000">string</text>
</g>
<!-- Node6&#45;&gt;Node10 -->
<g id="edge10" class="edge">
<title>Node6&#45;&gt;Node10</title>
<path fill="none" stroke="#191970" d="M2022.7774,-155.4669C2014.9543,-153.3426 2006.8208,-151.3976 1999.0713,-150 1945.5649,-140.3503 1548.0751,-153.8342 1511.0713,-114 1491.9717,-93.4396 1504.2358,-58.7752 1514.7477,-37.6328"/>
<polygon fill="#191970" stroke="#191970" points="1517.8841,-39.1891 1519.4787,-28.715 1511.7003,-35.9086 1517.8841,-39.1891"/>
</g>
<!-- Node11 -->
<g id="node12" class="node">
<title>Node11</title>
<polygon fill="#ffffff" stroke="#bfbfbf" points="979.3203,-80.5 979.3203,-108.5 1104.8223,-108.5 1104.8223,-80.5 979.3203,-80.5"/>
<text text-anchor="start" x="987.3203" y="-96.5" font-family="Helvetica,sans-Serif" font-size="10.00" fill="#000000">tensorflow/compiler</text>
<text text-anchor="middle" x="1042.0713" y="-86.5" font-family="Helvetica,sans-Serif" font-size="10.00" fill="#000000">/xla/service/executable.h</text>
</g>
<!-- Node6&#45;&gt;Node11 -->
<g id="edge11" class="edge">
<title>Node6&#45;&gt;Node11</title>
<path fill="none" stroke="#191970" d="M2023.5314,-155.4739C2015.4848,-153.2916 2007.0792,-151.3246 1999.0713,-150 1645.2991,-91.4817 1550.309,-144.9898 1193.0713,-114 1167.6116,-111.7914 1139.8457,-108.4698 1115.1467,-105.1909"/>
<polygon fill="#191970" stroke="#191970" points="1115.5043,-101.7076 1105.1265,-103.8411 1114.5697,-108.6449 1115.5043,-101.7076"/>
</g>
<!-- Node12 -->
<g id="node13" class="node">
<title>Node12</title>
<polygon fill="#ffffff" stroke="#bfbfbf" points="1581.6528,-80.5 1581.6528,-108.5 1710.4897,-108.5 1710.4897,-80.5 1581.6528,-80.5"/>
<text text-anchor="start" x="1589.6528" y="-96.5" font-family="Helvetica,sans-Serif" font-size="10.00" fill="#000000">tensorflow/compiler</text>
<text text-anchor="middle" x="1646.0713" y="-86.5" font-family="Helvetica,sans-Serif" font-size="10.00" fill="#000000">/xla/service/hlo_module.h</text>
</g>
<!-- Node6&#45;&gt;Node12 -->
<g id="edge12" class="edge">
<title>Node6&#45;&gt;Node12</title>
<path fill="none" stroke="#191970" d="M2021.2626,-155.4221C2013.896,-153.4074 2006.3053,-151.5099 1999.0713,-150 1876.6809,-124.4539 1842.7782,-137.9796 1720.0713,-114 1715.3487,-113.0771 1710.4812,-112.025 1705.6042,-110.8988"/>
<polygon fill="#191970" stroke="#191970" points="1706.165,-107.434 1695.624,-108.5005 1704.5294,-114.2402 1706.165,-107.434"/>
</g>
<!-- Node13 -->
<g id="node14" class="node">
<title>Node13</title>
<polygon fill="#ffffff" stroke="#bfbfbf" points="1728.8228,-75.5 1728.8228,-113.5 1849.3198,-113.5 1849.3198,-75.5 1728.8228,-75.5"/>
<text text-anchor="start" x="1736.8228" y="-101.5" font-family="Helvetica,sans-Serif" font-size="10.00" fill="#000000">tensorflow/compiler</text>
<text text-anchor="start" x="1736.8228" y="-91.5" font-family="Helvetica,sans-Serif" font-size="10.00" fill="#000000">/xla/service/hlo_module</text>
<text text-anchor="middle" x="1789.0713" y="-81.5" font-family="Helvetica,sans-Serif" font-size="10.00" fill="#000000">_config.h</text>
</g>
<!-- Node6&#45;&gt;Node13 -->
<g id="edge13" class="edge">
<title>Node6&#45;&gt;Node13</title>
<path fill="none" stroke="#191970" d="M2018.1681,-155.4013C2011.7548,-153.5597 2005.258,-151.7176 1999.0713,-150 1992.0835,-148.06 1917.6488,-128.4068 1859.3587,-113.0315"/>
<polygon fill="#191970" stroke="#191970" points="1859.9825,-109.5764 1849.4206,-110.4102 1858.1973,-116.3449 1859.9825,-109.5764"/>
</g>
<!-- Node14 -->
<g id="node15" class="node">
<title>Node14</title>
<polygon fill="#ffffff" stroke="#bfbfbf" points="1272,-75.5 1272,-113.5 1374.1426,-113.5 1374.1426,-75.5 1272,-75.5"/>
<text text-anchor="start" x="1280" y="-101.5" font-family="Helvetica,sans-Serif" font-size="10.00" fill="#000000">tensorflow/compiler</text>
<text text-anchor="start" x="1280" y="-91.5" font-family="Helvetica,sans-Serif" font-size="10.00" fill="#000000">/xla/service/logical</text>
<text text-anchor="middle" x="1323.0713" y="-81.5" font-family="Helvetica,sans-Serif" font-size="10.00" fill="#000000">_buffer.h</text>
</g>
<!-- Node6&#45;&gt;Node14 -->
<g id="edge14" class="edge">
<title>Node6&#45;&gt;Node14</title>
<path fill="none" stroke="#191970" d="M2023.1552,-155.4689C2015.2199,-153.3162 2006.9503,-151.3609 1999.0713,-150 1731.0139,-103.7001 1655.9357,-161.4034 1388.0713,-114 1386.7988,-113.7748 1385.516,-113.5331 1384.2261,-113.2767"/>
<polygon fill="#191970" stroke="#191970" points="1384.7742,-109.8131 1374.2524,-111.0542 1383.2517,-116.6455 1384.7742,-109.8131"/>
</g>
<!-- Node6&#45;&gt;Node15 -->
<g id="edge15" class="edge">
<title>Node6&#45;&gt;Node15</title>
<path fill="none" stroke="#191970" d="M2023.1662,-155.4039C2015.2299,-153.2578 2006.9569,-151.3216 1999.0713,-150 1676.0737,-95.8686 1586.7757,-163.7306 1263.0713,-114 1195.412,-103.6055 1181.0227,-89.2598 1114.0713,-75 1018.7784,-54.7039 906.9409,-37.5402 839.345,-27.8862"/>
<polygon fill="#191970" stroke="#191970" points="839.6856,-24.3995 829.2929,-26.4594 838.7018,-31.33 839.6856,-24.3995"/>
</g>
<!-- Node16 -->
<g id="node17" class="node">
<title>Node16</title>
<polygon fill="#ffffff" stroke="#bfbfbf" points="2465,-5.5 2465,-33.5 2567.1426,-33.5 2567.1426,-5.5 2465,-5.5"/>
<text text-anchor="start" x="2473" y="-21.5" font-family="Helvetica,sans-Serif" font-size="10.00" fill="#000000">tensorflow/compiler</text>
<text text-anchor="middle" x="2516.0713" y="-11.5" font-family="Helvetica,sans-Serif" font-size="10.00" fill="#000000">/xla/types.h</text>
</g>
<!-- Node6&#45;&gt;Node16 -->
<g id="edge16" class="edge">
<title>Node6&#45;&gt;Node16</title>
<path fill="none" stroke="#191970" d="M2108.4062,-155.3884C2191.179,-127.7974 2374.2053,-66.7887 2464.138,-36.8111"/>
<polygon fill="#191970" stroke="#191970" points="2465.4694,-40.0567 2473.8494,-33.574 2463.2557,-33.4159 2465.4694,-40.0567"/>
</g>
<!-- Node17 -->
<g id="node18" class="node">
<title>Node17</title>
<polygon fill="#ffffff" stroke="#bfbfbf" points="716.7759,-80.5 716.7759,-108.5 813.3667,-108.5 813.3667,-80.5 716.7759,-80.5"/>
<text text-anchor="start" x="724.7759" y="-96.5" font-family="Helvetica,sans-Serif" font-size="10.00" fill="#000000">tensorflow/core/lib</text>
<text text-anchor="middle" x="765.0713" y="-86.5" font-family="Helvetica,sans-Serif" font-size="10.00" fill="#000000">/gtl/array_slice.h</text>
</g>
<!-- Node6&#45;&gt;Node17 -->
<g id="edge17" class="edge">
<title>Node6&#45;&gt;Node17</title>
<path fill="none" stroke="#191970" d="M2023.5417,-155.4106C2015.4941,-153.2344 2007.0856,-151.2859 1999.0713,-150 1547.2374,-77.5023 1426.7209,-143.68 970.0713,-114 920.5741,-110.7829 864.515,-105.3253 823.545,-101.0007"/>
<polygon fill="#191970" stroke="#191970" points="823.7815,-97.5062 813.4672,-99.9277 823.0404,-104.4668 823.7815,-97.5062"/>
</g>
<!-- Node18 -->
<g id="node19" class="node">
<title>Node18</title>
<polygon fill="#ffffff" stroke="#bfbfbf" points="1616.7168,-5.5 1616.7168,-33.5 1739.4258,-33.5 1739.4258,-5.5 1616.7168,-5.5"/>
<text text-anchor="start" x="1624.7168" y="-21.5" font-family="Helvetica,sans-Serif" font-size="10.00" fill="#000000">tensorflow/core/platform</text>
<text text-anchor="middle" x="1678.0713" y="-11.5" font-family="Helvetica,sans-Serif" font-size="10.00" fill="#000000">/mutex.h</text>
</g>
<!-- Node6&#45;&gt;Node18 -->
<g id="edge18" class="edge">
<title>Node6&#45;&gt;Node18</title>
<path fill="none" stroke="#191970" d="M2022.7731,-155.4904C2014.9505,-153.3636 2006.8182,-151.4116 1999.0713,-150 1948.0895,-140.7101 1569.2719,-152.0311 1534.0713,-114 1522.2973,-101.2792 1524.2632,-89.2915 1534.0713,-75 1539.6268,-66.905 1586.029,-49.8849 1624.6814,-36.8141"/>
<polygon fill="#191970" stroke="#191970" points="1625.9439,-40.0824 1634.3117,-33.584 1623.7178,-33.4458 1625.9439,-40.0824"/>
</g>
<!-- Node6&#45;&gt;Node19 -->
<g id="edge19" class="edge">
<title>Node6&#45;&gt;Node19</title>
<path fill="none" stroke="#191970" d="M2023.9092,-155.4615C2015.7519,-153.2503 2007.2097,-151.2762 1999.0713,-150 1715.536,-105.537 994.2492,-135.7122 708.0713,-114 683.9873,-112.1728 657.9238,-109.2999 634.0827,-106.3154"/>
<polygon fill="#191970" stroke="#191970" points="634.3756,-102.8245 624.0134,-105.0323 633.4907,-109.7684 634.3756,-102.8245"/>
</g>
<!-- Node20 -->
<g id="node21" class="node">
<title>Node20</title>
<polygon fill="#ffffff" stroke="#bfbfbf" points="1757.7168,-5.5 1757.7168,-33.5 1880.4258,-33.5 1880.4258,-5.5 1757.7168,-5.5"/>
<text text-anchor="start" x="1765.7168" y="-21.5" font-family="Helvetica,sans-Serif" font-size="10.00" fill="#000000">tensorflow/core/platform</text>
<text text-anchor="middle" x="1819.0713" y="-11.5" font-family="Helvetica,sans-Serif" font-size="10.00" fill="#000000">/thread_annotations.h</text>
</g>
<!-- Node6&#45;&gt;Node20 -->
<g id="edge20" class="edge">
<title>Node6&#45;&gt;Node20</title>
<path fill="none" stroke="#191970" d="M2022.4035,-155.4377C2014.693,-153.3439 2006.6941,-151.4168 1999.0713,-150 1952.369,-141.3199 1605.215,-148.9747 1573.0713,-114 1472.7124,-4.8023 1538.624,-89.2488 1748.0713,-39 1751.878,-38.0867 1755.79,-37.1129 1759.7277,-36.1061"/>
<polygon fill="#191970" stroke="#191970" points="1760.7302,-39.4618 1769.523,-33.5511 1758.9634,-32.6884 1760.7302,-39.4618"/>
</g>
<!-- Node21&#45;&gt;Node5 -->
<g id="edge29" class="edge">
<title>Node21&#45;&gt;Node5</title>
<path fill="none" stroke="#191970" d="M1703.5173,-238.8722C1908.6626,-236.2524 2634.8475,-224.6155 2863.0713,-189 2868.2279,-188.1953 2873.5456,-187.1513 2878.8418,-185.9647"/>
<polygon fill="#191970" stroke="#191970" points="2880.0483,-189.2744 2888.9525,-183.5328 2878.4112,-182.4685 2880.0483,-189.2744"/>
</g>
<!-- Node21&#45;&gt;Node7 -->
<g id="edge22" class="edge">
<title>Node21&#45;&gt;Node7</title>
<path fill="none" stroke="#191970" d="M1594.5089,-238.8301C1370.2376,-235.8608 529.0745,-222.5214 484.0713,-189 455.7781,-167.9254 463.9304,-148.7895 458.0713,-114 455.1926,-96.9074 446.1822,-87.6133 458.0713,-75 473.7311,-58.3862 1179.6742,-28.3729 1356.3248,-21.113"/>
<polygon fill="#191970" stroke="#191970" points="1356.6297,-24.6035 1366.4779,-20.6968 1356.3429,-17.6094 1356.6297,-24.6035"/>
</g>
<!-- Node21&#45;&gt;Node9 -->
<g id="edge23" class="edge">
<title>Node21&#45;&gt;Node9</title>
<path fill="none" stroke="#191970" d="M1703.7508,-237.7575C1888.7437,-231.6748 2481.5797,-210.5796 2516.0713,-189 2571.5334,-154.3002 2597.4843,-74.8977 2606.8072,-38.4377"/>
<polygon fill="#191970" stroke="#191970" points="2610.2381,-39.1401 2609.181,-28.5982 2603.4333,-37.4984 2610.2381,-39.1401"/>
</g>
<!-- Node21&#45;&gt;Node10 -->
<g id="edge24" class="edge">
<title>Node21&#45;&gt;Node10</title>
<path fill="none" stroke="#191970" d="M1594.4421,-238.8035C1390.1178,-235.9358 680.8941,-223.5205 648.0713,-189 604.9127,-143.6092 692.611,-82.8699 708.0713,-75 864.2898,4.5216 1329.6109,-93.9439 1496.0713,-39 1499.5173,-37.8626 1502.9361,-36.1922 1506.1523,-34.2999"/>
<polygon fill="#191970" stroke="#191970" points="1508.207,-37.1358 1514.5345,-28.6379 1504.2887,-31.3351 1508.207,-37.1358"/>
</g>
<!-- Node21&#45;&gt;Node11 -->
<g id="edge67" class="edge">
<title>Node21&#45;&gt;Node11</title>
<path fill="none" stroke="#191970" d="M1594.6663,-238.7394C1393.6914,-235.6682 703.0671,-222.6905 671.0713,-189 659.135,-176.4314 659.7577,-163.1319 671.0713,-150 690.2521,-127.7364 866.8027,-109.2783 969.2853,-100.3264"/>
<polygon fill="#191970" stroke="#191970" points="969.6067,-103.8118 979.2683,-99.464 969.0041,-96.8378 969.6067,-103.8118"/>
</g>
<!-- Node21&#45;&gt;Node12 -->
<g id="edge70" class="edge">
<title>Node21&#45;&gt;Node12</title>
<path fill="none" stroke="#191970" d="M1703.7942,-237.8199C1824.2292,-233.5583 2103.8199,-220.3592 2132.0713,-189 2143.6731,-176.122 2143.7822,-162.7788 2132.0713,-150 2101.0246,-116.1222 1765.3422,-121.8833 1720.0713,-114 1715.0464,-113.125 1709.8644,-112.0739 1704.6855,-110.9192"/>
<polygon fill="#191970" stroke="#191970" points="1705.3074,-107.47 1694.7719,-108.59 1703.7063,-114.2845 1705.3074,-107.47"/>
</g>
<!-- Node21&#45;&gt;Node13 -->
<g id="edge71" class="edge">
<title>Node21&#45;&gt;Node13</title>
<path fill="none" stroke="#191970" d="M1703.5068,-238.0494C1827.105,-234.1944 2120.5346,-221.6636 2150.0713,-189 2220.9587,-110.6081 2188.8851,-177.0728 1863.0713,-114 1861.824,-113.7585 1860.5666,-113.5079 1859.3017,-113.2491"/>
<polygon fill="#191970" stroke="#191970" points="1860.0116,-109.8218 1849.4969,-111.1226 1858.5278,-116.6628 1860.0116,-109.8218"/>
</g>
<!-- Node21&#45;&gt;Node15 -->
<g id="edge76" class="edge">
<title>Node21&#45;&gt;Node15</title>
<path fill="none" stroke="#191970" d="M1594.628,-239.1349C1366.8631,-237.3611 500.2622,-228.0591 458.0713,-189 420.7755,-154.4727 416.258,-113.8123 449.0713,-75 466.1535,-54.7948 626.4367,-35.1604 716.8132,-25.5741"/>
<polygon fill="#191970" stroke="#191970" points="717.3588,-29.0361 726.9387,-24.511 716.6278,-22.0744 717.3588,-29.0361"/>
</g>
<!-- Node21&#45;&gt;Node16 -->
<g id="edge77" class="edge">
<title>Node21&#45;&gt;Node16</title>
<path fill="none" stroke="#191970" d="M1703.4964,-238.6677C1877.0624,-235.6721 2410.128,-223.7137 2479.0713,-189 2517.9535,-169.4224 2527.1714,-154.9036 2542.0713,-114 2550.7404,-90.2014 2540.5379,-62.1291 2530.4788,-42.7991"/>
<polygon fill="#191970" stroke="#191970" points="2533.4017,-40.8533 2525.4843,-33.813 2527.2832,-44.254 2533.4017,-40.8533"/>
</g>
<!-- Node21&#45;&gt;Node17 -->
<g id="edge80" class="edge">
<title>Node21&#45;&gt;Node17</title>
<path fill="none" stroke="#191970" d="M1594.3478,-238.7702C1391.3603,-235.8001 691.4878,-223.1122 659.0713,-189 647.131,-176.4352 650.0968,-164.8291 659.0713,-150 669.8822,-132.1365 688.5455,-119.7445 707.2281,-111.2814"/>
<polygon fill="#191970" stroke="#191970" points="708.7959,-114.4192 716.6613,-107.3209 706.086,-107.965 708.7959,-114.4192"/>
</g>
<!-- Node21&#45;&gt;Node19 -->
<g id="edge83" class="edge">
<title>Node21&#45;&gt;Node19</title>
<path fill="none" stroke="#191970" d="M1594.3565,-238.9051C1379.0616,-236.3162 600.1471,-224.519 562.0713,-189 543.3701,-171.5546 543.2673,-140.6412 546.1062,-118.9341"/>
<polygon fill="#191970" stroke="#191970" points="549.599,-119.2566 547.7215,-108.8295 542.6868,-118.1516 549.599,-119.2566"/>
</g>
<!-- Node22 -->
<g id="node23" class="node">
<title>Node22</title>
<polygon fill="#ffffff" stroke="#bfbfbf" points="1443.4556,-10.5 1443.4556,-28.5 1486.687,-28.5 1486.687,-10.5 1443.4556,-10.5"/>
<text text-anchor="middle" x="1465.0713" y="-16.5" font-family="Helvetica,sans-Serif" font-size="10.00" fill="#000000">vector</text>
</g>
<!-- Node21&#45;&gt;Node22 -->
<g id="edge25" class="edge">
<title>Node21&#45;&gt;Node22</title>
<path fill="none" stroke="#191970" d="M1594.5674,-239.3545C1385.0654,-238.4776 638.4811,-232.3143 542.0713,-189 499.6407,-169.9371 486.5815,-157.0946 469.0713,-114 462.5465,-97.9416 457.0454,-87.4829 469.0713,-75 506.2926,-36.3642 1382.8094,-54.823 1434.0713,-39 1437.8152,-37.8444 1441.553,-36.1151 1445.0707,-34.1554"/>
<polygon fill="#191970" stroke="#191970" points="1447.1534,-36.979 1453.721,-28.6653 1443.4024,-31.0688 1447.1534,-36.979"/>
</g>
<!-- Node23 -->
<g id="node24" class="node">
<title>Node23</title>
<polygon fill="#ffffff" stroke="#bfbfbf" points="679.7095,-150.5 679.7095,-188.5 782.4331,-188.5 782.4331,-150.5 679.7095,-150.5"/>
<text text-anchor="start" x="687.7095" y="-176.5" font-family="Helvetica,sans-Serif" font-size="10.00" fill="#000000">tensorflow/compiler</text>
<text text-anchor="start" x="687.7095" y="-166.5" font-family="Helvetica,sans-Serif" font-size="10.00" fill="#000000">/xla/executable_run</text>
<text text-anchor="middle" x="731.0713" y="-156.5" font-family="Helvetica,sans-Serif" font-size="10.00" fill="#000000">_options.h</text>
</g>
<!-- Node21&#45;&gt;Node23 -->
<g id="edge26" class="edge">
<title>Node21&#45;&gt;Node23</title>
<path fill="none" stroke="#191970" d="M1594.4339,-238.0687C1434.0881,-233.5911 965.7988,-218.4647 792.7445,-188.7858"/>
<polygon fill="#191970" stroke="#191970" points="793.2197,-185.3153 782.7589,-186.9948 791.9839,-192.2053 793.2197,-185.3153"/>
</g>
<!-- Node24 -->
<g id="node25" class="node">
<title>Node24</title>
<polygon fill="#ffffff" stroke="#bfbfbf" points="800.813,-150.5 800.813,-188.5 921.3296,-188.5 921.3296,-150.5 800.813,-150.5"/>
<text text-anchor="start" x="808.813" y="-176.5" font-family="Helvetica,sans-Serif" font-size="10.00" fill="#000000">tensorflow/compiler</text>
<text text-anchor="start" x="808.813" y="-166.5" font-family="Helvetica,sans-Serif" font-size="10.00" fill="#000000">/xla/legacy_flags/debug</text>
<text text-anchor="middle" x="861.0713" y="-156.5" font-family="Helvetica,sans-Serif" font-size="10.00" fill="#000000">_options_flags.h</text>
</g>
<!-- Node21&#45;&gt;Node24 -->
<g id="edge27" class="edge">
<title>Node21&#45;&gt;Node24</title>
<path fill="none" stroke="#191970" d="M1594.416,-237.1169C1452.8815,-230.7184 1075.9614,-212.1759 931.4853,-189.0088"/>
<polygon fill="#191970" stroke="#191970" points="931.9323,-185.5349 921.4911,-187.3328 930.7746,-192.4385 931.9323,-185.5349"/>
</g>
<!-- Node25 -->
<g id="node26" class="node">
<title>Node25</title>
<polygon fill="#ffffff" stroke="#bfbfbf" points="939.5493,-150.5 939.5493,-188.5 1050.5933,-188.5 1050.5933,-150.5 939.5493,-150.5"/>
<text text-anchor="start" x="947.5493" y="-176.5" font-family="Helvetica,sans-Serif" font-size="10.00" fill="#000000">tensorflow/compiler</text>
<text text-anchor="start" x="947.5493" y="-166.5" font-family="Helvetica,sans-Serif" font-size="10.00" fill="#000000">/xla/service/allocation</text>
<text text-anchor="middle" x="995.0713" y="-156.5" font-family="Helvetica,sans-Serif" font-size="10.00" fill="#000000">_tracker.h</text>
</g>
<!-- Node21&#45;&gt;Node25 -->
<g id="edge28" class="edge">
<title>Node21&#45;&gt;Node25</title>
<path fill="none" stroke="#191970" d="M1594.4525,-238.6489C1491.3769,-236.2157 1261.2137,-226.8431 1060.5782,-189.0945"/>
<polygon fill="#191970" stroke="#191970" points="1061.2241,-185.6547 1050.7451,-187.217 1059.9111,-192.5305 1061.2241,-185.6547"/>
</g>
<!-- Node26 -->
<g id="node27" class="node">
<title>Node26</title>
<polygon fill="#ffffff" stroke="#bfbfbf" points="1068.1602,-150.5 1068.1602,-188.5 1171.9824,-188.5 1171.9824,-150.5 1068.1602,-150.5"/>
<text text-anchor="start" x="1076.1602" y="-176.5" font-family="Helvetica,sans-Serif" font-size="10.00" fill="#000000">tensorflow/compiler</text>
<text text-anchor="start" x="1076.1602" y="-166.5" font-family="Helvetica,sans-Serif" font-size="10.00" fill="#000000">/xla/service/channel</text>
<text text-anchor="middle" x="1120.0713" y="-156.5" font-family="Helvetica,sans-Serif" font-size="10.00" fill="#000000">_tracker.h</text>
</g>
<!-- Node21&#45;&gt;Node26 -->
<g id="edge30" class="edge">
<title>Node21&#45;&gt;Node26</title>
<path fill="none" stroke="#191970" d="M1594.4634,-237.1843C1508.4448,-232.7568 1336.1896,-220.7335 1182.2412,-189.0212"/>
<polygon fill="#191970" stroke="#191970" points="1182.6336,-185.5275 1172.1285,-186.9037 1181.1989,-192.3789 1182.6336,-185.5275"/>
</g>
<!-- Node27 -->
<g id="node28" class="node">
<title>Node27</title>
<polygon fill="#ffffff" stroke="#bfbfbf" points="1190.3843,-150.5 1190.3843,-188.5 1309.7583,-188.5 1309.7583,-150.5 1190.3843,-150.5"/>
<text text-anchor="start" x="1198.3843" y="-176.5" font-family="Helvetica,sans-Serif" font-size="10.00" fill="#000000">tensorflow/compiler</text>
<text text-anchor="start" x="1198.3843" y="-166.5" font-family="Helvetica,sans-Serif" font-size="10.00" fill="#000000">/xla/service/compilation</text>
<text text-anchor="middle" x="1250.0713" y="-156.5" font-family="Helvetica,sans-Serif" font-size="10.00" fill="#000000">_cache.h</text>
</g>
<!-- Node21&#45;&gt;Node27 -->
<g id="edge31" class="edge">
<title>Node21&#45;&gt;Node27</title>
<path fill="none" stroke="#191970" d="M1594.3869,-233.2335C1530.6742,-225.4648 1422.1274,-210.783 1319.6893,-188.9972"/>
<polygon fill="#191970" stroke="#191970" points="1320.3095,-185.5506 1309.7967,-186.8667 1318.8357,-192.3937 1320.3095,-185.5506"/>
</g>
<!-- Node28 -->
<g id="node29" class="node">
<title>Node28</title>
<g id="a_node29"><a xlink:href="../../d1/dc5/computation__tracker_8h.html" target="_top" xlink:title="tensorflow/compiler\l/xla/service/computation\l_tracker.h">
<polygon fill="#ffffff" stroke="#000000" points="2293.436,-150.5 2293.436,-188.5 2416.7065,-188.5 2416.7065,-150.5 2293.436,-150.5"/>
<text text-anchor="start" x="2301.436" y="-176.5" font-family="Helvetica,sans-Serif" font-size="10.00" fill="#000000">tensorflow/compiler</text>
<text text-anchor="start" x="2301.436" y="-166.5" font-family="Helvetica,sans-Serif" font-size="10.00" fill="#000000">/xla/service/computation</text>
<text text-anchor="middle" x="2355.0713" y="-156.5" font-family="Helvetica,sans-Serif" font-size="10.00" fill="#000000">_tracker.h</text>
</a>
</g>
</g>
<!-- Node21&#45;&gt;Node28 -->
<g id="edge32" class="edge">
<title>Node21&#45;&gt;Node28</title>
<path fill="none" stroke="#191970" d="M1703.81,-238.2593C1813.6162,-235.0793 2068.3027,-224.2203 2279.0713,-189 2280.3561,-188.7853 2281.6509,-188.5594 2282.9532,-188.3236"/>
<polygon fill="#191970" stroke="#191970" points="2283.9071,-191.703 2293.0427,-186.3373 2282.555,-184.8349 2283.9071,-191.703"/>
</g>
<!-- Node31 -->
<g id="node32" class="node">
<title>Node31</title>
<polygon fill="#ffffff" stroke="#bfbfbf" points="2795.6011,-5.5 2795.6011,-33.5 2920.5415,-33.5 2920.5415,-5.5 2795.6011,-5.5"/>
<text text-anchor="start" x="2803.6011" y="-21.5" font-family="Helvetica,sans-Serif" font-size="10.00" fill="#000000">tensorflow/compiler</text>
<text text-anchor="middle" x="2858.0713" y="-11.5" font-family="Helvetica,sans-Serif" font-size="10.00" fill="#000000">/xla/service/session.pb.h</text>
</g>
<!-- Node21&#45;&gt;Node31 -->
<g id="edge72" class="edge">
<title>Node21&#45;&gt;Node31</title>
<path fill="none" stroke="#191970" d="M1703.7859,-238.192C1892.2607,-233.4629 2507.6234,-216.09 2592.0713,-189 2691.7562,-157.0221 2790.901,-78.2761 2834.7184,-40.448"/>
<polygon fill="#191970" stroke="#191970" points="2837.2542,-42.8803 2842.4862,-33.6674 2832.651,-37.6068 2837.2542,-42.8803"/>
</g>
<!-- Node32 -->
<g id="node33" class="node">
<title>Node32</title>
<g id="a_node33"><a xlink:href="../../d6/d38/user__computation_8h.html" target="_top" xlink:title="tensorflow/compiler\l/xla/service/user_computation.h">
<polygon fill="#ffffff" stroke="#000000" points="2056.7588,-80.5 2056.7588,-108.5 2213.3838,-108.5 2213.3838,-80.5 2056.7588,-80.5"/>
<text text-anchor="start" x="2064.7588" y="-96.5" font-family="Helvetica,sans-Serif" font-size="10.00" fill="#000000">tensorflow/compiler</text>
<text text-anchor="middle" x="2135.0713" y="-86.5" font-family="Helvetica,sans-Serif" font-size="10.00" fill="#000000">/xla/service/user_computation.h</text>
</a>
</g>
</g>
<!-- Node21&#45;&gt;Node32 -->
<g id="edge73" class="edge">
<title>Node21&#45;&gt;Node32</title>
<path fill="none" stroke="#191970" d="M1703.7578,-238.3655C1832.741,-235.1252 2147.5142,-223.7068 2179.0713,-189 2198.2875,-167.8658 2177.0826,-136.8698 2157.995,-116.2062"/>
<polygon fill="#191970" stroke="#191970" points="2160.3377,-113.5938 2150.8718,-108.8347 2155.3038,-118.458 2160.3377,-113.5938"/>
</g>
<!-- Node34 -->
<g id="node35" class="node">
<title>Node34</title>
<polygon fill="#ffffff" stroke="#bfbfbf" points="2067.0864,-.5 2067.0864,-38.5 2187.0562,-38.5 2187.0562,-.5 2067.0864,-.5"/>
<text text-anchor="start" x="2075.0864" y="-26.5" font-family="Helvetica,sans-Serif" font-size="10.00" fill="#000000">tensorflow/compiler</text>
<text text-anchor="start" x="2075.0864" y="-16.5" font-family="Helvetica,sans-Serif" font-size="10.00" fill="#000000">/xla/service/versioned</text>
<text text-anchor="middle" x="2127.0713" y="-6.5" font-family="Helvetica,sans-Serif" font-size="10.00" fill="#000000">_computation_handle.h</text>
</g>
<!-- Node21&#45;&gt;Node34 -->
<g id="edge74" class="edge">
<title>Node21&#45;&gt;Node34</title>
<path fill="none" stroke="#191970" d="M1703.8323,-237.7749C1834.7564,-233.1841 2157.8782,-218.923 2196.0713,-189 2236.9791,-156.9501 2247.9396,-120.0718 2222.0713,-75 2214.5776,-61.9434 2202.694,-51.6658 2189.8337,-43.6936"/>
<polygon fill="#191970" stroke="#191970" points="2191.2346,-40.4629 2180.8163,-38.5369 2187.7596,-46.5395 2191.2346,-40.4629"/>
</g>
<!-- Node35 -->
<g id="node36" class="node">
<title>Node35</title>
<polygon fill="#ffffff" stroke="#bfbfbf" points="2345,-5.5 2345,-33.5 2447.1426,-33.5 2447.1426,-5.5 2345,-5.5"/>
<text text-anchor="start" x="2353" y="-21.5" font-family="Helvetica,sans-Serif" font-size="10.00" fill="#000000">tensorflow/compiler</text>
<text text-anchor="middle" x="2396.0713" y="-11.5" font-family="Helvetica,sans-Serif" font-size="10.00" fill="#000000">/xla/xla.pb.h</text>
</g>
<!-- Node21&#45;&gt;Node35 -->
<g id="edge78" class="edge">
<title>Node21&#45;&gt;Node35</title>
<path fill="none" stroke="#191970" d="M1703.5105,-237.7879C1869.0006,-232.3294 2358.9157,-214.2058 2426.0713,-189 2488.6249,-165.5215 2560.734,-130.8574 2524.0713,-75 2519.1967,-67.5733 2477.8721,-50.4317 2443.4755,-37.149"/>
<polygon fill="#191970" stroke="#191970" points="2444.584,-33.8256 2433.9937,-33.5162 2442.0795,-40.3623 2444.584,-33.8256"/>
</g>
<!-- Node21&#45;&gt;Node36 -->
<g id="edge79" class="edge">
<title>Node21&#45;&gt;Node36</title>
<path fill="none" stroke="#191970" d="M1703.5232,-238.0445C1898.7202,-232.6485 2556.6528,-212.8617 2648.0713,-189 2771.9274,-156.6715 2903.5898,-76.6249 2960.7601,-39.2784"/>
<polygon fill="#191970" stroke="#191970" points="2962.857,-42.0883 2969.2833,-33.665 2959.0067,-36.2423 2962.857,-42.0883"/>
</g>
<!-- Node37 -->
<g id="node38" class="node">
<title>Node37</title>
<polygon fill="#ffffff" stroke="#bfbfbf" points="2654.7168,-5.5 2654.7168,-33.5 2777.4258,-33.5 2777.4258,-5.5 2654.7168,-5.5"/>
<text text-anchor="start" x="2662.7168" y="-21.5" font-family="Helvetica,sans-Serif" font-size="10.00" fill="#000000">tensorflow/core/platform</text>
<text text-anchor="middle" x="2716.0713" y="-11.5" font-family="Helvetica,sans-Serif" font-size="10.00" fill="#000000">/macros.h</text>
</g>
<!-- Node21&#45;&gt;Node37 -->
<g id="edge82" class="edge">
<title>Node21&#45;&gt;Node37</title>
<path fill="none" stroke="#191970" d="M1703.4973,-238.7315C1886.6024,-235.833 2473.1617,-223.8923 2550.0713,-189 2620.4389,-157.0756 2676.819,-80.9154 2701.9231,-42.4971"/>
<polygon fill="#191970" stroke="#191970" points="2705.1791,-43.9024 2707.6211,-33.5928 2699.283,-40.1293 2705.1791,-43.9024"/>
</g>
<!-- Node39 -->
<g id="node40" class="node">
<title>Node39</title>
<polygon fill="#ffffff" stroke="#bfbfbf" points="1327.6577,-150.5 1327.6577,-188.5 1436.4849,-188.5 1436.4849,-150.5 1327.6577,-150.5"/>
<text text-anchor="start" x="1335.6577" y="-176.5" font-family="Helvetica,sans-Serif" font-size="10.00" fill="#000000">tensorflow/compiler</text>
<text text-anchor="start" x="1335.6577" y="-166.5" font-family="Helvetica,sans-Serif" font-size="10.00" fill="#000000">/xla/service/device</text>
<text text-anchor="middle" x="1382.0713" y="-156.5" font-family="Helvetica,sans-Serif" font-size="10.00" fill="#000000">_memory_allocator.h</text>
</g>
<!-- Node21&#45;&gt;Node39 -->
<g id="edge66" class="edge">
<title>Node21&#45;&gt;Node39</title>
<path fill="none" stroke="#191970" d="M1594.2994,-226.8444C1555.4325,-217.6577 1501.8261,-204.5733 1446.6106,-189.3657"/>
<polygon fill="#191970" stroke="#191970" points="1447.222,-185.9033 1436.6503,-186.6039 1445.3515,-192.6488 1447.222,-185.9033"/>
</g>
<!-- Node40 -->
<g id="node41" class="node">
<title>Node40</title>
<polygon fill="#ffffff" stroke="#bfbfbf" points="1454.271,-150.5 1454.271,-188.5 1565.8716,-188.5 1565.8716,-150.5 1454.271,-150.5"/>
<text text-anchor="start" x="1462.271" y="-176.5" font-family="Helvetica,sans-Serif" font-size="10.00" fill="#000000">tensorflow/compiler</text>
<text text-anchor="start" x="1462.271" y="-166.5" font-family="Helvetica,sans-Serif" font-size="10.00" fill="#000000">/xla/service/execution</text>
<text text-anchor="middle" x="1510.0713" y="-156.5" font-family="Helvetica,sans-Serif" font-size="10.00" fill="#000000">_tracker.h</text>
</g>
<!-- Node21&#45;&gt;Node40 -->
<g id="edge68" class="edge">
<title>Node21&#45;&gt;Node40</title>
<path fill="none" stroke="#191970" d="M1620.9426,-225.3345C1602.6304,-216.1125 1578.2934,-203.8565 1557.0867,-193.1768"/>
<polygon fill="#191970" stroke="#191970" points="1558.413,-189.926 1547.9073,-188.5541 1555.2645,-196.178 1558.413,-189.926"/>
</g>
<!-- Node41 -->
<g id="node42" class="node">
<title>Node41</title>
<polygon fill="#ffffff" stroke="#bfbfbf" points="1583.8179,-150.5 1583.8179,-188.5 1714.3247,-188.5 1714.3247,-150.5 1583.8179,-150.5"/>
<text text-anchor="start" x="1591.8179" y="-176.5" font-family="Helvetica,sans-Serif" font-size="10.00" fill="#000000">tensorflow/compiler</text>
<text text-anchor="start" x="1591.8179" y="-166.5" font-family="Helvetica,sans-Serif" font-size="10.00" fill="#000000">/xla/service/hlo_execution</text>
<text text-anchor="middle" x="1649.0713" y="-156.5" font-family="Helvetica,sans-Serif" font-size="10.00" fill="#000000">_profile.h</text>
</g>
<!-- Node21&#45;&gt;Node41 -->
<g id="edge69" class="edge">
<title>Node21&#45;&gt;Node41</title>
<path fill="none" stroke="#191970" d="M1649.0713,-225.3345C1649.0713,-217.6716 1649.0713,-207.9139 1649.0713,-198.7064"/>
<polygon fill="#191970" stroke="#191970" points="1652.5714,-198.6856 1649.0713,-188.6857 1645.5714,-198.6857 1652.5714,-198.6856"/>
</g>
<!-- Node42 -->
<g id="node43" class="node">
<title>Node42</title>
<polygon fill="#ffffff" stroke="#bfbfbf" points="1731.936,-155.5 1731.936,-183.5 1850.2065,-183.5 1850.2065,-155.5 1731.936,-155.5"/>
<text text-anchor="start" x="1739.936" y="-171.5" font-family="Helvetica,sans-Serif" font-size="10.00" fill="#000000">tensorflow/compiler</text>
<text text-anchor="middle" x="1791.0713" y="-161.5" font-family="Helvetica,sans-Serif" font-size="10.00" fill="#000000">/xla/service_interface.h</text>
</g>
<!-- Node21&#45;&gt;Node42 -->
<g id="edge75" class="edge">
<title>Node21&#45;&gt;Node42</title>
<path fill="none" stroke="#191970" d="M1677.8071,-225.3345C1699.5564,-214.613 1729.6248,-199.7905 1753.3154,-188.112"/>
<polygon fill="#191970" stroke="#191970" points="1754.9564,-191.2054 1762.3782,-183.6445 1751.8612,-184.9268 1754.9564,-191.2054"/>
</g>
<!-- Node43 -->
<g id="node44" class="node">
<title>Node43</title>
<polygon fill="#ffffff" stroke="#bfbfbf" points="1867.7168,-155.5 1867.7168,-183.5 1990.4258,-183.5 1990.4258,-155.5 1867.7168,-155.5"/>
<text text-anchor="start" x="1875.7168" y="-171.5" font-family="Helvetica,sans-Serif" font-size="10.00" fill="#000000">tensorflow/core/platform</text>
<text text-anchor="middle" x="1929.0713" y="-161.5" font-family="Helvetica,sans-Serif" font-size="10.00" fill="#000000">/logging.h</text>
</g>
<!-- Node21&#45;&gt;Node43 -->
<g id="edge81" class="edge">
<title>Node21&#45;&gt;Node43</title>
<path fill="none" stroke="#191970" d="M1703.5928,-226.9517C1746.0604,-217.0417 1806.442,-202.6539 1859.0713,-189 1862.4714,-188.1179 1865.9599,-187.197 1869.4774,-186.2562"/>
<polygon fill="#191970" stroke="#191970" points="1870.6786,-189.5571 1879.418,-183.5677 1868.851,-182.7999 1870.6786,-189.5571"/>
</g>
<!-- Node28&#45;&gt;Node8 -->
<g id="edge34" class="edge">
<title>Node28&#45;&gt;Node8</title>
<path fill="none" stroke="#191970" d="M2293.1141,-162.8549C2190.9479,-151.5682 1995.5441,-128.4715 1967.0713,-114 1945.4971,-103.0348 1950.8096,-85.6361 1929.0713,-75 1800.1181,-11.906 1741.9906,-90.7243 1608.0713,-39 1605.2395,-37.9063 1602.4337,-36.441 1599.7622,-34.8027"/>
<polygon fill="#191970" stroke="#191970" points="1601.5398,-31.7729 1591.355,-28.8538 1597.4965,-37.4871 1601.5398,-31.7729"/>
</g>
<!-- Node28&#45;&gt;Node9 -->
<g id="edge35" class="edge">
<title>Node28&#45;&gt;Node9</title>
<path fill="none" stroke="#191970" d="M2417.0438,-157.1899C2450.5602,-148.6181 2491.6136,-134.8961 2524.0713,-114 2556.0848,-93.3898 2584.094,-58.2375 2599.2006,-37.1075"/>
<polygon fill="#191970" stroke="#191970" points="2602.1852,-38.9464 2605.0307,-28.7408 2596.442,-34.9444 2602.1852,-38.9464"/>
</g>
<!-- Node28&#45;&gt;Node10 -->
<g id="edge37" class="edge">
<title>Node28&#45;&gt;Node10</title>
<path fill="none" stroke="#191970" d="M2293.2946,-162.5337C2179.1187,-149.5079 1945.1623,-122.052 1929.0713,-114 1907.4289,-103.1701 1912.8375,-85.5788 1891.0713,-75 1755.5948,-9.1554 1695.6104,-90.5369 1554.0713,-39 1550.8218,-37.8168 1547.5816,-36.1938 1544.5077,-34.3854"/>
<polygon fill="#191970" stroke="#191970" points="1546.2005,-31.307 1535.9419,-28.6589 1542.3101,-37.1263 1546.2005,-31.307"/>
</g>
<!-- Node28&#45;&gt;Node12 -->
<g id="edge38" class="edge">
<title>Node28&#45;&gt;Node12</title>
<path fill="none" stroke="#191970" d="M2293.0652,-162.7955C2255.9518,-158.8675 2207.8331,-153.9236 2165.0713,-150 1967.4774,-131.8699 1915.662,-147.4113 1720.0713,-114 1714.9638,-113.1275 1709.6951,-112.0683 1704.4328,-110.8995"/>
<polygon fill="#191970" stroke="#191970" points="1704.9002,-107.4142 1694.365,-108.537 1703.301,-114.2291 1704.9002,-107.4142"/>
</g>
<!-- Node28&#45;&gt;Node13 -->
<g id="edge39" class="edge">
<title>Node28&#45;&gt;Node13</title>
<path fill="none" stroke="#191970" d="M2293.3566,-161.2683C2265.753,-157.6675 2232.7991,-153.4803 2203.0713,-150 2052.1462,-132.331 2012.5291,-141.4397 1863.0713,-114 1861.8217,-113.7706 1860.5623,-113.5311 1859.2954,-113.2826"/>
<polygon fill="#191970" stroke="#191970" points="1859.9849,-109.8511 1849.4787,-111.2192 1858.5449,-116.7014 1859.9849,-109.8511"/>
</g>
<!-- Node28&#45;&gt;Node15 -->
<g id="edge59" class="edge">
<title>Node28&#45;&gt;Node15</title>
<path fill="none" stroke="#191970" d="M2293.423,-162.7171C2169.2114,-148.9713 1899.8559,-118.7285 1891.0713,-114 1871.0778,-103.2381 1878.4175,-85.079 1858.0713,-75 1812.2445,-52.2985 1061.8683,-28.0303 839.6223,-21.3122"/>
<polygon fill="#191970" stroke="#191970" points="839.5441,-17.8083 829.4432,-21.0056 839.3333,-24.8051 839.5441,-17.8083"/>
</g>
<!-- Node28&#45;&gt;Node16 -->
<g id="edge60" class="edge">
<title>Node28&#45;&gt;Node16</title>
<path fill="none" stroke="#191970" d="M2363.0975,-150.4377C2372.567,-129.7692 2389.9893,-96.819 2413.0713,-75 2429.4357,-59.531 2450.9424,-47.0518 2470.069,-37.8737"/>
<polygon fill="#191970" stroke="#191970" points="2471.6272,-41.0093 2479.2342,-33.6347 2468.6887,-34.656 2471.6272,-41.0093"/>
</g>
<!-- Node28&#45;&gt;Node18 -->
<g id="edge63" class="edge">
<title>Node28&#45;&gt;Node18</title>
<path fill="none" stroke="#191970" d="M2293.1698,-161.8388C2199.5568,-149.9293 2030.168,-126.9963 2005.0713,-114 1983.581,-102.8713 1988.5258,-86.1974 1967.0713,-75 1880.0138,-29.5637 1844.9936,-60.0325 1749.0713,-39 1744.9274,-38.0914 1740.6647,-37.0906 1736.3837,-36.0369"/>
<polygon fill="#191970" stroke="#191970" points="1736.9626,-32.5728 1726.4084,-33.5005 1735.2375,-39.3569 1736.9626,-32.5728"/>
</g>
<!-- Node28&#45;&gt;Node20 -->
<g id="edge64" class="edge">
<title>Node28&#45;&gt;Node20</title>
<path fill="none" stroke="#191970" d="M2293.4346,-162.4338C2216.6133,-152.9282 2090.2807,-134.7946 2048.0713,-114 2024.9268,-102.5978 2027.5469,-87.6699 2005.0713,-75 1993.891,-68.6974 1930.1481,-50.2416 1880.3612,-36.3291"/>
<polygon fill="#191970" stroke="#191970" points="1881.1822,-32.9245 1870.6097,-33.6121 1879.3033,-39.6677 1881.1822,-32.9245"/>
</g>
<!-- Node29 -->
<g id="node30" class="node">
<title>Node29</title>
<polygon fill="#ffffff" stroke="#bfbfbf" points="2421.5713,-85.5 2421.5713,-103.5 2450.5713,-103.5 2450.5713,-85.5 2421.5713,-85.5"/>
<text text-anchor="middle" x="2435.6821" y="-91.5" font-family="Helvetica,sans-Serif" font-size="10.00" fill="#000000">list</text>
</g>
<!-- Node28&#45;&gt;Node29 -->
<g id="edge33" class="edge">
<title>Node28&#45;&gt;Node29</title>
<path fill="none" stroke="#191970" d="M2375.9308,-150.1856C2389.1582,-137.9381 2406.0736,-122.2757 2418.5937,-110.6829"/>
<polygon fill="#191970" stroke="#191970" points="2421.1439,-113.0916 2426.1036,-103.7294 2416.388,-107.9553 2421.1439,-113.0916"/>
</g>
<!-- Node30 -->
<g id="node31" class="node">
<title>Node30</title>
<polygon fill="#ffffff" stroke="#bfbfbf" points="2468.4014,-85.5 2468.4014,-103.5 2497.7412,-103.5 2497.7412,-85.5 2468.4014,-85.5"/>
<text text-anchor="middle" x="2483.0713" y="-91.5" font-family="Helvetica,sans-Serif" font-size="10.00" fill="#000000">set</text>
</g>
<!-- Node28&#45;&gt;Node30 -->
<g id="edge36" class="edge">
<title>Node28&#45;&gt;Node30</title>
<path fill="none" stroke="#191970" d="M2396.1426,-150.3887C2416.0354,-140.4888 2439.9185,-127.6321 2460.0713,-114 2461.7624,-112.8561 2463.472,-111.6081 2465.1553,-110.3144"/>
<polygon fill="#191970" stroke="#191970" points="2467.6509,-112.7933 2473.1442,-103.7338 2463.2003,-107.3902 2467.6509,-112.7933"/>
</g>
<!-- Node28&#45;&gt;Node31 -->
<g id="edge40" class="edge">
<title>Node28&#45;&gt;Node31</title>
<path fill="none" stroke="#191970" d="M2416.7976,-158.5636C2468.4204,-148.7987 2543.7335,-133.1062 2608.0713,-114 2682.7145,-91.8334 2766.9237,-58.121 2816.0831,-37.5248"/>
<polygon fill="#191970" stroke="#191970" points="2817.576,-40.6939 2825.4344,-33.5878 2814.8598,-34.2424 2817.576,-40.6939"/>
</g>
<!-- Node28&#45;&gt;Node32 -->
<g id="edge41" class="edge">
<title>Node28&#45;&gt;Node32</title>
<path fill="none" stroke="#191970" d="M2299.2716,-150.4774C2264.397,-138.5883 2219.8324,-123.3958 2185.9321,-111.8389"/>
<polygon fill="#191970" stroke="#191970" points="2186.8187,-108.4434 2176.2242,-108.5294 2184.56,-115.069 2186.8187,-108.4434"/>
</g>
<!-- Node28&#45;&gt;Node34 -->
<g id="edge58" class="edge">
<title>Node28&#45;&gt;Node34</title>
<path fill="none" stroke="#191970" d="M2338.6186,-150.3935C2320.003,-129.6862 2287.9711,-96.7023 2255.0713,-75 2235.697,-62.2198 2212.8927,-51.2311 2191.9407,-42.4833"/>
<polygon fill="#191970" stroke="#191970" points="2193.045,-39.154 2182.4634,-38.6234 2190.4045,-45.6369 2193.045,-39.154"/>
</g>
<!-- Node28&#45;&gt;Node36 -->
<g id="edge61" class="edge">
<title>Node28&#45;&gt;Node36</title>
<path fill="none" stroke="#191970" d="M2416.9379,-161.0634C2482.0905,-151.6606 2587.4549,-134.9809 2677.0713,-114 2790.8498,-87.3623 2817.4125,-73.4592 2929.0713,-39 2931.6227,-38.2126 2934.2322,-37.4014 2936.8665,-36.5776"/>
<polygon fill="#191970" stroke="#191970" points="2937.9657,-39.901 2946.454,-33.5607 2935.8646,-33.2238 2937.9657,-39.901"/>
</g>
<!-- Node28&#45;&gt;Node37 -->
<g id="edge62" class="edge">
<title>Node28&#45;&gt;Node37</title>
<path fill="none" stroke="#191970" d="M2416.8083,-157.3762C2458.0595,-148.154 2512.9983,-133.682 2559.0713,-114 2607.0007,-93.5249 2657.8828,-60.5544 2688.3094,-39.4669"/>
<polygon fill="#191970" stroke="#191970" points="2690.5148,-42.1954 2696.6993,-33.5929 2686.5001,-36.4611 2690.5148,-42.1954"/>
</g>
<!-- Node38 -->
<g id="node39" class="node">
<title>Node38</title>
<polygon fill="#ffffff" stroke="#bfbfbf" points="2204.7168,-5.5 2204.7168,-33.5 2327.4258,-33.5 2327.4258,-5.5 2204.7168,-5.5"/>
<text text-anchor="start" x="2212.7168" y="-21.5" font-family="Helvetica,sans-Serif" font-size="10.00" fill="#000000">tensorflow/core/platform</text>
<text text-anchor="middle" x="2266.0713" y="-11.5" font-family="Helvetica,sans-Serif" font-size="10.00" fill="#000000">/types.h</text>
</g>
<!-- Node28&#45;&gt;Node38 -->
<g id="edge65" class="edge">
<title>Node28&#45;&gt;Node38</title>
<path fill="none" stroke="#191970" d="M2416.7381,-154.667C2453.908,-144.3392 2496.1222,-129.6541 2507.0713,-114 2517.006,-99.7963 2517.9926,-88.4599 2507.0713,-75 2458.1359,-14.6897 2411.5187,-57.4305 2336.0713,-39 2332.4254,-38.1094 2328.6815,-37.1624 2324.9117,-36.1842"/>
<polygon fill="#191970" stroke="#191970" points="2325.4843,-32.7153 2314.9216,-33.5392 2323.6927,-39.4821 2325.4843,-32.7153"/>
</g>
<!-- Node32&#45;&gt;Node7 -->
<g id="edge42" class="edge">
<title>Node32&#45;&gt;Node7</title>
<path fill="none" stroke="#191970" d="M2056.504,-88.1983C2008.6814,-84.3682 1946.355,-79.3866 1891.0713,-75 1687.9693,-58.8846 1630.0804,-94.5927 1434.0713,-39 1429.1579,-37.6065 1424.1377,-35.5513 1419.4239,-33.2913"/>
<polygon fill="#191970" stroke="#191970" points="1420.7922,-30.0568 1410.3107,-28.5113 1417.5407,-36.2558 1420.7922,-30.0568"/>
</g>
<!-- Node32&#45;&gt;Node8 -->
<g id="edge43" class="edge">
<title>Node32&#45;&gt;Node8</title>
<path fill="none" stroke="#191970" d="M2056.4689,-85.1195C2028.284,-81.8239 1996.2635,-78.1577 1967.0713,-75 1807.6455,-57.7552 1757.9938,-95.8964 1608.0713,-39 1605.2331,-37.9229 1602.4235,-36.4675 1599.7501,-34.8342"/>
<polygon fill="#191970" stroke="#191970" points="1601.5275,-31.8044 1591.3421,-28.8875 1597.4855,-37.5194 1601.5275,-31.8044"/>
</g>
<!-- Node32&#45;&gt;Node9 -->
<g id="edge44" class="edge">
<title>Node32&#45;&gt;Node9</title>
<path fill="none" stroke="#191970" d="M2213.4028,-88.2572C2321.5129,-79.0234 2510.5348,-60.4821 2576.0713,-39 2580.3098,-37.6107 2584.621,-35.6938 2588.7025,-33.6009"/>
<polygon fill="#191970" stroke="#191970" points="2590.6637,-36.5137 2597.6669,-28.5634 2587.2344,-30.4112 2590.6637,-36.5137"/>
</g>
<!-- Node32&#45;&gt;Node10 -->
<g id="edge45" class="edge">
<title>Node32&#45;&gt;Node10</title>
<path fill="none" stroke="#191970" d="M2056.6478,-87.0702C1898.3682,-72.0667 1555.5387,-39.525 1554.0713,-39 1550.8152,-37.835 1547.5714,-36.222 1544.4958,-34.4184"/>
<polygon fill="#191970" stroke="#191970" points="1546.1885,-31.3399 1535.9297,-28.6925 1542.2984,-37.1595 1546.1885,-31.3399"/>
</g>
<!-- Node32&#45;&gt;Node15 -->
<g id="edge50" class="edge">
<title>Node32&#45;&gt;Node15</title>
<path fill="none" stroke="#191970" d="M2056.5454,-87.6242C2008.7377,-83.5875 1946.4125,-78.5904 1891.0713,-75 1490.407,-49.0061 1007.9142,-28.6836 839.5705,-21.9198"/>
<polygon fill="#191970" stroke="#191970" points="839.5455,-18.4161 829.4134,-21.5129 839.2652,-25.4105 839.5455,-18.4161"/>
</g>
<!-- Node32&#45;&gt;Node16 -->
<g id="edge51" class="edge">
<title>Node32&#45;&gt;Node16</title>
<path fill="none" stroke="#191970" d="M2213.5576,-84.1324C2278.9509,-74.7317 2374.2729,-59.2533 2456.0713,-39 2459.2609,-38.2103 2462.5269,-37.3378 2465.8076,-36.4129"/>
<polygon fill="#191970" stroke="#191970" points="2467.0332,-39.7005 2475.6321,-33.511 2465.0502,-32.9872 2467.0332,-39.7005"/>
</g>
<!-- Node32&#45;&gt;Node18 -->
<g id="edge55" class="edge">
<title>Node32&#45;&gt;Node18</title>
<path fill="none" stroke="#191970" d="M2056.7202,-82.6285C2039.6971,-80.0824 2021.784,-77.4285 2005.0713,-75 1891.3682,-58.4779 1861.589,-62.2626 1749.0713,-39 1744.7291,-38.1023 1740.26,-37.0898 1735.7783,-36.0102"/>
<polygon fill="#191970" stroke="#191970" points="1736.5417,-32.5933 1725.9909,-33.5579 1734.8403,-39.3834 1736.5417,-32.5933"/>
</g>
<!-- Node32&#45;&gt;Node20 -->
<g id="edge56" class="edge">
<title>Node32&#45;&gt;Node20</title>
<path fill="none" stroke="#191970" d="M2069.3677,-80.4621C2019.9256,-69.6936 1950.5685,-54.1517 1890.0713,-39 1886.4482,-38.0926 1882.7273,-37.1383 1878.978,-36.1596"/>
<polygon fill="#191970" stroke="#191970" points="1879.5977,-32.7032 1869.035,-33.5276 1877.8064,-39.4701 1879.5977,-32.7032"/>
</g>
<!-- Node32&#45;&gt;Node22 -->
<g id="edge46" class="edge">
<title>Node32&#45;&gt;Node22</title>
<path fill="none" stroke="#191970" d="M2056.7265,-88.1781C1888.9944,-74.5786 1509.2167,-43.4156 1496.0713,-39 1492.357,-37.7523 1488.6346,-35.9754 1485.1232,-33.9963"/>
<polygon fill="#191970" stroke="#191970" points="1486.7911,-30.9096 1476.4716,-28.5099 1483.0423,-36.8212 1486.7911,-30.9096"/>
</g>
<!-- Node32&#45;&gt;Node31 -->
<g id="edge48" class="edge">
<title>Node32&#45;&gt;Node31</title>
<path fill="none" stroke="#191970" d="M2213.4894,-88.6093C2374.3017,-76.4135 2730.9878,-48.7261 2786.0713,-39 2791.045,-38.1218 2796.1743,-37.0586 2801.2963,-35.8872"/>
<polygon fill="#191970" stroke="#191970" points="2802.1955,-39.2707 2811.0946,-33.5212 2800.5524,-32.4663 2802.1955,-39.2707"/>
</g>
<!-- Node33 -->
<g id="node34" class="node">
<title>Node33</title>
<polygon fill="#ffffff" stroke="#bfbfbf" points="1898.813,-5.5 1898.813,-33.5 2049.3296,-33.5 2049.3296,-5.5 1898.813,-5.5"/>
<text text-anchor="start" x="1906.813" y="-21.5" font-family="Helvetica,sans-Serif" font-size="10.00" fill="#000000">tensorflow/compiler</text>
<text text-anchor="middle" x="1974.0713" y="-11.5" font-family="Helvetica,sans-Serif" font-size="10.00" fill="#000000">/xla/service/hlo_computation.h</text>
</g>
<!-- Node32&#45;&gt;Node33 -->
<g id="edge47" class="edge">
<title>Node32&#45;&gt;Node33</title>
<path fill="none" stroke="#191970" d="M2104.7884,-80.3931C2078.9276,-68.3461 2041.5544,-50.9362 2013.3877,-37.8151"/>
<polygon fill="#191970" stroke="#191970" points="2014.761,-34.5938 2004.2184,-33.5437 2011.8051,-40.9391 2014.761,-34.5938"/>
</g>
<!-- Node32&#45;&gt;Node34 -->
<g id="edge49" class="edge">
<title>Node32&#45;&gt;Node34</title>
<path fill="none" stroke="#191970" d="M2133.5666,-80.3931C2132.613,-71.4536 2131.3445,-59.5612 2130.1816,-48.6594"/>
<polygon fill="#191970" stroke="#191970" points="2133.6538,-48.2118 2129.1128,-38.6395 2126.6933,-48.9543 2133.6538,-48.2118"/>
</g>
<!-- Node32&#45;&gt;Node35 -->
<g id="edge52" class="edge">
<title>Node32&#45;&gt;Node35</title>
<path fill="none" stroke="#191970" d="M2188.5808,-80.4247C2229.1862,-69.5746 2286.3182,-53.9456 2336.0713,-39 2338.638,-38.229 2341.2623,-37.4272 2343.9095,-36.6075"/>
<polygon fill="#191970" stroke="#191970" points="2345.0428,-39.9203 2353.5346,-33.5847 2342.9454,-33.2419 2345.0428,-39.9203"/>
</g>
<!-- Node32&#45;&gt;Node36 -->
<g id="edge53" class="edge">
<title>Node32&#45;&gt;Node36</title>
<path fill="none" stroke="#191970" d="M2213.5585,-88.9867C2269.2421,-85.0772 2345.7423,-79.71 2413.0713,-75 2642.4016,-58.957 2703.2972,-82.3108 2929.0713,-39 2932.9527,-38.2554 2936.9323,-37.3416 2940.9081,-36.32"/>
<polygon fill="#191970" stroke="#191970" points="2942.026,-39.6421 2950.7245,-33.5933 2940.1525,-32.8974 2942.026,-39.6421"/>
</g>
<!-- Node32&#45;&gt;Node37 -->
<g id="edge54" class="edge">
<title>Node32&#45;&gt;Node37</title>
<path fill="none" stroke="#191970" d="M2213.5772,-89.9722C2314.4021,-83.2452 2494.4676,-68.1462 2646.0713,-39 2650.5118,-38.1463 2655.0812,-37.1494 2659.6562,-36.0661"/>
<polygon fill="#191970" stroke="#191970" points="2660.7768,-39.3939 2669.6331,-33.5786 2659.0834,-32.6018 2660.7768,-39.3939"/>
</g>
<!-- Node32&#45;&gt;Node38 -->
<g id="edge57" class="edge">
<title>Node32&#45;&gt;Node38</title>
<path fill="none" stroke="#191970" d="M2159.7114,-80.3931C2180.296,-68.608 2209.845,-51.6906 2232.5758,-38.6768"/>
<polygon fill="#191970" stroke="#191970" points="2234.6023,-41.5497 2241.5417,-33.5437 2231.1243,-35.4748 2234.6023,-41.5497"/>
</g>
</g>
</svg>
