<?xml version="1.0" encoding="UTF-8" standalone="no"?>
<!DOCTYPE svg PUBLIC "-//W3C//DTD SVG 1.1//EN"
 "http://www.w3.org/Graphics/SVG/1.1/DTD/svg11.dtd">
<!-- Generated by graphviz version 2.40.1 (20161225.0304)
 -->
<!-- Title: tensorflow/tensorflow/compiler/xla/service/flatten_call_graph.h Pages: 1 -->
<svg width="236pt" height="128pt"
 viewBox="0.00 0.00 236.00 128.00" xmlns="http://www.w3.org/2000/svg" xmlns:xlink="http://www.w3.org/1999/xlink">
<g id="graph0" class="graph" transform="scale(1 1) rotate(0) translate(4 124)">
<title>tensorflow/tensorflow/compiler/xla/service/flatten_call_graph.h</title>
<polygon fill="#ffffff" stroke="transparent" points="-4,4 -4,-124 232,-124 232,4 -4,4"/>
<!-- Node0 -->
<g id="node1" class="node">
<title>Node0</title>
<polygon fill="#bfbfbf" stroke="#000000" points="60.5,-78.5 60.5,-119.5 170.5,-119.5 170.5,-78.5 60.5,-78.5"/>
<text text-anchor="start" x="68.5" y="-107.5" font-family="Helvetica,sans-Serif" font-size="10.00" fill="#000000">tensorflow/tensorflow</text>
<text text-anchor="start" x="68.5" y="-96.5" font-family="Helvetica,sans-Serif" font-size="10.00" fill="#000000">/compiler/xla/service</text>
<text text-anchor="middle" x="115.5" y="-85.5" font-family="Helvetica,sans-Serif" font-size="10.00" fill="#000000">/flatten_call_graph.h</text>
</g>
<!-- Node1 -->
<g id="node2" class="node">
<title>Node1</title>
<polygon fill="#ffffff" stroke="#bfbfbf" points="0,-.5 0,-41.5 109,-41.5 109,-.5 0,-.5"/>
<text text-anchor="start" x="8" y="-29.5" font-family="Helvetica,sans-Serif" font-size="10.00" fill="#000000">tensorflow/compiler</text>
<text text-anchor="start" x="8" y="-18.5" font-family="Helvetica,sans-Serif" font-size="10.00" fill="#000000">/xla/service/hlo_pass</text>
<text text-anchor="middle" x="54.5" y="-7.5" font-family="Helvetica,sans-Serif" font-size="10.00" fill="#000000">_interface.h</text>
</g>
<!-- Node0&#45;&gt;Node1 -->
<g id="edge1" class="edge">
<title>Node0&#45;&gt;Node1</title>
<path fill="none" stroke="#191970" d="M99.1531,-78.0974C92.3293,-69.3719 84.291,-59.0934 76.9288,-49.6794"/>
<polygon fill="#191970" stroke="#191970" points="79.5979,-47.4109 70.6805,-41.6898 74.0839,-51.7231 79.5979,-47.4109"/>
</g>
<!-- Node2 -->
<g id="node3" class="node">
<title>Node2</title>
<polygon fill="#ffffff" stroke="#bfbfbf" points="127,-6 127,-36 228,-36 228,-6 127,-6"/>
<text text-anchor="start" x="135" y="-24" font-family="Helvetica,sans-Serif" font-size="10.00" fill="#000000">tensorflow/compiler</text>
<text text-anchor="middle" x="177.5" y="-13" font-family="Helvetica,sans-Serif" font-size="10.00" fill="#000000">/xla/statusor.h</text>
</g>
<!-- Node0&#45;&gt;Node2 -->
<g id="edge2" class="edge">
<title>Node0&#45;&gt;Node2</title>
<path fill="none" stroke="#191970" d="M132.1149,-78.0974C140.3794,-67.7001 150.3966,-55.0978 158.9155,-44.3806"/>
<polygon fill="#191970" stroke="#191970" points="161.8814,-46.274 165.364,-36.2679 156.4016,-41.9182 161.8814,-46.274"/>
</g>
</g>
</svg>
