<?xml version="1.0" encoding="UTF-8" standalone="no"?>
<!DOCTYPE svg PUBLIC "-//W3C//DTD SVG 1.1//EN"
 "http://www.w3.org/Graphics/SVG/1.1/DTD/svg11.dtd">
<!-- Generated by graphviz version 2.40.1 (20161225.0304)
 -->
<!-- Title: tensorflow/tensorflow/core/framework/graph_def_util.h Pages: 1 -->
<svg width="392pt" height="122pt"
 viewBox="0.00 0.00 392.37 122.00" xmlns="http://www.w3.org/2000/svg" xmlns:xlink="http://www.w3.org/1999/xlink">
<g id="graph0" class="graph" transform="scale(1 1) rotate(0) translate(4 118)">
<title>tensorflow/tensorflow/core/framework/graph_def_util.h</title>
<polygon fill="#ffffff" stroke="transparent" points="-4,4 -4,-118 388.3716,-118 388.3716,4 -4,4"/>
<!-- Node4 -->
<g id="node1" class="node">
<title>Node4</title>
<polygon fill="#bfbfbf" stroke="#000000" points="137.3325,-75.5 137.3325,-113.5 253.3716,-113.5 253.3716,-75.5 137.3325,-75.5"/>
<text text-anchor="start" x="145.3325" y="-101.5" font-family="Helvetica,sans-Serif" font-size="10.00" fill="#000000">tensorflow/tensorflow</text>
<text text-anchor="start" x="145.3325" y="-91.5" font-family="Helvetica,sans-Serif" font-size="10.00" fill="#000000">/core/framework/graph</text>
<text text-anchor="middle" x="195.3521" y="-81.5" font-family="Helvetica,sans-Serif" font-size="10.00" fill="#000000">_def_util.h</text>
</g>
<!-- Node5 -->
<g id="node2" class="node">
<title>Node5</title>
<g id="a_node2"><a xlink:href="../../d8/db8/tf2xla_8cc.html" target="_top" xlink:title="tensorflow/tensorflow\l/compiler/tf2xla/tf2xla.cc">
<polygon fill="#ffffff" stroke="#000000" points="0,-5.5 0,-33.5 122.7041,-33.5 122.7041,-5.5 0,-5.5"/>
<text text-anchor="start" x="8" y="-21.5" font-family="Helvetica,sans-Serif" font-size="10.00" fill="#000000">tensorflow/tensorflow</text>
<text text-anchor="middle" x="61.3521" y="-11.5" font-family="Helvetica,sans-Serif" font-size="10.00" fill="#000000">/compiler/tf2xla/tf2xla.cc</text>
</a>
</g>
</g>
<!-- Node4&#45;&gt;Node5 -->
<g id="edge1" class="edge">
<title>Node4&#45;&gt;Node5</title>
<path fill="none" stroke="#191970" d="M152.4609,-70.4937C130.7309,-58.3314 105.0969,-43.984 86.5638,-33.6111"/>
<polygon fill="#191970" stroke="#191970" points="150.7559,-73.5503 161.1915,-75.3803 154.1747,-67.442 150.7559,-73.5503"/>
</g>
<!-- Node6 -->
<g id="node3" class="node">
<title>Node6</title>
<g id="a_node3"><a xlink:href="../../d1/d60/tf2xla__util_8cc.html" target="_top" xlink:title="tensorflow/tensorflow\l/compiler/tf2xla/tf2xla\l_util.cc">
<polygon fill="#ffffff" stroke="#000000" points="140.3867,-.5 140.3867,-38.5 250.3174,-38.5 250.3174,-.5 140.3867,-.5"/>
<text text-anchor="start" x="148.3867" y="-26.5" font-family="Helvetica,sans-Serif" font-size="10.00" fill="#000000">tensorflow/tensorflow</text>
<text text-anchor="start" x="148.3867" y="-16.5" font-family="Helvetica,sans-Serif" font-size="10.00" fill="#000000">/compiler/tf2xla/tf2xla</text>
<text text-anchor="middle" x="195.3521" y="-6.5" font-family="Helvetica,sans-Serif" font-size="10.00" fill="#000000">_util.cc</text>
</a>
</g>
</g>
<!-- Node4&#45;&gt;Node6 -->
<g id="edge2" class="edge">
<title>Node4&#45;&gt;Node6</title>
<path fill="none" stroke="#191970" d="M195.3521,-64.8977C195.3521,-56.1033 195.3521,-46.7019 195.3521,-38.7489"/>
<polygon fill="#191970" stroke="#191970" points="191.8521,-65.1856 195.3521,-75.1856 198.8521,-65.1857 191.8521,-65.1856"/>
</g>
<!-- Node7 -->
<g id="node4" class="node">
<title>Node7</title>
<g id="a_node4"><a xlink:href="../../d3/d4f/graph__def__util_8cc.html" target="_top" xlink:title="tensorflow/tensorflow\l/core/framework/graph\l_def_util.cc">
<polygon fill="#ffffff" stroke="#000000" points="268.3325,-.5 268.3325,-38.5 384.3716,-38.5 384.3716,-.5 268.3325,-.5"/>
<text text-anchor="start" x="276.3325" y="-26.5" font-family="Helvetica,sans-Serif" font-size="10.00" fill="#000000">tensorflow/tensorflow</text>
<text text-anchor="start" x="276.3325" y="-16.5" font-family="Helvetica,sans-Serif" font-size="10.00" fill="#000000">/core/framework/graph</text>
<text text-anchor="middle" x="326.3521" y="-6.5" font-family="Helvetica,sans-Serif" font-size="10.00" fill="#000000">_def_util.cc</text>
</a>
</g>
</g>
<!-- Node4&#45;&gt;Node7 -->
<g id="edge3" class="edge">
<title>Node4&#45;&gt;Node7</title>
<path fill="none" stroke="#191970" d="M237.8314,-70.1797C255.7241,-59.9359 276.2427,-48.1886 293.0172,-38.5848"/>
<polygon fill="#191970" stroke="#191970" points="235.6872,-67.3743 228.7478,-75.3803 239.1652,-73.4491 235.6872,-67.3743"/>
</g>
</g>
</svg>
