<?xml version="1.0" encoding="UTF-8" standalone="no"?>
<!DOCTYPE svg PUBLIC "-//W3C//DTD SVG 1.1//EN"
 "http://www.w3.org/Graphics/SVG/1.1/DTD/svg11.dtd">
<!-- Generated by graphviz version 2.40.1 (20161225.0304)
 -->
<!-- Title: main Pages: 1 -->
<svg width="1498pt" height="428pt"
 viewBox="0.00 0.00 1498.00 428.50" xmlns="http://www.w3.org/2000/svg" xmlns:xlink="http://www.w3.org/1999/xlink">
<g id="graph0" class="graph" transform="scale(1 1) rotate(0) translate(4 424.5)">
<title>main</title>
<polygon fill="#ffffff" stroke="transparent" points="-4,4 -4,-424.5 1494,-424.5 1494,4 -4,4"/>
<!-- Node0 -->
<g id="node1" class="node">
<title>Node0</title>
<polygon fill="#bfbfbf" stroke="#000000" points="0,-286 0,-305 41,-305 41,-286 0,-286"/>
<text text-anchor="middle" x="20.5" y="-293" font-family="Helvetica,sans-Serif" font-size="10.00" fill="#000000">main</text>
</g>
<!-- Node1 -->
<g id="node2" class="node">
<title>Node1</title>
<g id="a_node2"><a xlink:href="../../d7/d38/namespacetensorflow_1_1tfcompile.html#a460964a5bb277865d1275fe3746132c1" target="_top" xlink:title="tensorflow::tfcompile\l::Main">
<polygon fill="#ffffff" stroke="#000000" points="77,-280.5 77,-310.5 196,-310.5 196,-280.5 77,-280.5"/>
<text text-anchor="start" x="85" y="-298.5" font-family="Helvetica,sans-Serif" font-size="10.00" fill="#000000">tensorflow::tfcompile</text>
<text text-anchor="middle" x="136.5" y="-287.5" font-family="Helvetica,sans-Serif" font-size="10.00" fill="#000000">::Main</text>
</a>
</g>
</g>
<!-- Node0&#45;&gt;Node1 -->
<g id="edge1" class="edge">
<title>Node0&#45;&gt;Node1</title>
<path fill="none" stroke="#191970" d="M41.2385,-295.5C48.6085,-295.5 57.3705,-295.5 66.55,-295.5"/>
<polygon fill="#191970" stroke="#191970" points="66.6285,-299.0001 76.6285,-295.5 66.6285,-292.0001 66.6285,-299.0001"/>
</g>
<!-- Node2 -->
<g id="node3" class="node">
<title>Node2</title>
<g id="a_node3"><a xlink:href="../../de/d86/namespacetensorflow.html#aaeeec358e2be013353667dd7c0a6dbaa" target="_top" xlink:title="tensorflow::ValidateConfig">
<polygon fill="#ffffff" stroke="#000000" points="780.5,-401 780.5,-420 923.5,-420 923.5,-401 780.5,-401"/>
<text text-anchor="middle" x="852" y="-408" font-family="Helvetica,sans-Serif" font-size="10.00" fill="#000000">tensorflow::ValidateConfig</text>
</a>
</g>
</g>
<!-- Node1&#45;&gt;Node2 -->
<g id="edge2" class="edge">
<title>Node1&#45;&gt;Node2</title>
<path fill="none" stroke="#191970" d="M196.2725,-305.107C327.9121,-326.2651 642.2696,-376.7907 782.4581,-399.3228"/>
<polygon fill="#191970" stroke="#191970" points="782.2212,-402.8295 792.6499,-400.9609 783.3321,-395.9182 782.2212,-402.8295"/>
</g>
<!-- Node3 -->
<g id="node4" class="node">
<title>Node3</title>
<g id="a_node4"><a xlink:href="../../d7/d38/namespacetensorflow_1_1tfcompile.html#a021cb1c58d938b16dcd998aa8d1fc191" target="_top" xlink:title="Converts the graph into an XLA computation, and compiles the computation. Called by tensorflow::tfcom...">
<polygon fill="#ffffff" stroke="#000000" points="232,-250.5 232,-280.5 351,-280.5 351,-250.5 232,-250.5"/>
<text text-anchor="start" x="240" y="-268.5" font-family="Helvetica,sans-Serif" font-size="10.00" fill="#000000">tensorflow::tfcompile</text>
<text text-anchor="middle" x="291.5" y="-257.5" font-family="Helvetica,sans-Serif" font-size="10.00" fill="#000000">::CompileGraph</text>
</a>
</g>
</g>
<!-- Node1&#45;&gt;Node3 -->
<g id="edge3" class="edge">
<title>Node1&#45;&gt;Node3</title>
<path fill="none" stroke="#191970" d="M196.427,-283.9012C204.8155,-282.2776 213.494,-280.5979 222.0406,-278.9438"/>
<polygon fill="#191970" stroke="#191970" points="222.835,-282.355 231.9877,-277.0185 221.5048,-275.4826 222.835,-282.355"/>
</g>
<!-- Node4 -->
<g id="node5" class="node">
<title>Node4</title>
<g id="a_node5"><a xlink:href="../../d5/ddb/classxla_1_1ClientLibrary.html#a5e940d153e6cfd72b34b2b8b89220f50" target="_top" xlink:title="xla::ClientLibrary\l::GetOrCreateCompileOnlyClient">
<polygon fill="#ffffff" stroke="#000000" points="387,-274.5 387,-304.5 562,-304.5 562,-274.5 387,-274.5"/>
<text text-anchor="start" x="395" y="-292.5" font-family="Helvetica,sans-Serif" font-size="10.00" fill="#000000">xla::ClientLibrary</text>
<text text-anchor="middle" x="474.5" y="-281.5" font-family="Helvetica,sans-Serif" font-size="10.00" fill="#000000">::GetOrCreateCompileOnlyClient</text>
</a>
</g>
</g>
<!-- Node3&#45;&gt;Node4 -->
<g id="edge4" class="edge">
<title>Node3&#45;&gt;Node4</title>
<path fill="none" stroke="#191970" d="M351.1678,-273.3253C359.3393,-274.397 367.8977,-275.5194 376.5333,-276.6519"/>
<polygon fill="#191970" stroke="#191970" points="376.3174,-280.1535 386.6876,-277.9836 377.2277,-273.2129 376.3174,-280.1535"/>
</g>
<!-- Node5 -->
<g id="node6" class="node">
<title>Node5</title>
<g id="a_node6"><a xlink:href="../../de/d86/namespacetensorflow.html#a6f8fce5955ec6d67cd1762891d4830e9" target="_top" xlink:title="Convert tensorflow graph_def to XLA UserComputation. ">
<polygon fill="#ffffff" stroke="#000000" points="404.5,-225.5 404.5,-255.5 544.5,-255.5 544.5,-225.5 404.5,-225.5"/>
<text text-anchor="start" x="412.5" y="-243.5" font-family="Helvetica,sans-Serif" font-size="10.00" fill="#000000">tensorflow::ConvertGraph</text>
<text text-anchor="middle" x="474.5" y="-232.5" font-family="Helvetica,sans-Serif" font-size="10.00" fill="#000000">DefToXla</text>
</a>
</g>
</g>
<!-- Node3&#45;&gt;Node5 -->
<g id="edge5" class="edge">
<title>Node3&#45;&gt;Node5</title>
<path fill="none" stroke="#191970" d="M351.1678,-257.3487C364.9814,-255.4616 379.9007,-253.4234 394.4295,-251.4386"/>
<polygon fill="#191970" stroke="#191970" points="394.9729,-254.897 404.4071,-250.0755 394.0254,-247.9614 394.9729,-254.897"/>
</g>
<!-- Node14 -->
<g id="node15" class="node">
<title>Node14</title>
<g id="a_node15"><a xlink:href="../../d4/df4/namespacetensorflow_1_1tfcompile_1_1anonymous__namespace_02compile_8cc_03.html#a40f8a019f31fa8cbe2fff5d90e69c21b" target="_top" xlink:title="Compiles the XLA computation into executable code. ">
<polygon fill="#ffffff" stroke="#000000" points="401.5,-165 401.5,-206 547.5,-206 547.5,-165 401.5,-165"/>
<text text-anchor="start" x="409.5" y="-194" font-family="Helvetica,sans-Serif" font-size="10.00" fill="#000000">tensorflow::tfcompile</text>
<text text-anchor="start" x="409.5" y="-183" font-family="Helvetica,sans-Serif" font-size="10.00" fill="#000000">::anonymous_namespace</text>
<text text-anchor="middle" x="474.5" y="-172" font-family="Helvetica,sans-Serif" font-size="10.00" fill="#000000">{compile::cc}::CompileXla</text>
</a>
</g>
</g>
<!-- Node3&#45;&gt;Node14 -->
<g id="edge16" class="edge">
<title>Node3&#45;&gt;Node14</title>
<path fill="none" stroke="#191970" d="M318.6152,-250.358C337.4809,-240.1294 363.3873,-226.6864 387,-216.5 392.3088,-214.2098 397.848,-211.9527 403.4488,-209.7644"/>
<polygon fill="#191970" stroke="#191970" points="404.8103,-212.9911 412.9029,-206.1529 402.3122,-206.452 404.8103,-212.9911"/>
</g>
<!-- Node6 -->
<g id="node7" class="node">
<title>Node6</title>
<g id="a_node7"><a xlink:href="../../d3/dfa/namespacetensorflow_1_1anonymous__namespace_02tf2xla_8cc_03.html#aeef0cda05958b2b855b0e2fbe07b1314" target="_top" xlink:title="InitGraph creates a graph based on the graph_def, that may then be convert to an xla::Computation via...">
<polygon fill="#ffffff" stroke="#000000" points="598,-264 598,-305 733,-305 733,-264 598,-264"/>
<text text-anchor="start" x="606" y="-293" font-family="Helvetica,sans-Serif" font-size="10.00" fill="#000000">tensorflow::anonymous</text>
<text text-anchor="start" x="606" y="-282" font-family="Helvetica,sans-Serif" font-size="10.00" fill="#000000">_namespace{tf2xla::cc}</text>
<text text-anchor="middle" x="665.5" y="-271" font-family="Helvetica,sans-Serif" font-size="10.00" fill="#000000">::InitGraph</text>
</a>
</g>
</g>
<!-- Node5&#45;&gt;Node6 -->
<g id="edge6" class="edge">
<title>Node5&#45;&gt;Node6</title>
<path fill="none" stroke="#191970" d="M539.6972,-255.5192C555.2692,-259.1065 572.0404,-262.97 588.1025,-266.6702"/>
<polygon fill="#191970" stroke="#191970" points="587.4642,-270.1148 597.9947,-268.949 589.0356,-263.2934 587.4642,-270.1148"/>
</g>
<!-- Node12 -->
<g id="node13" class="node">
<title>Node12</title>
<g id="a_node13"><a xlink:href="../../d3/dfa/namespacetensorflow_1_1anonymous__namespace_02tf2xla_8cc_03.html#a8bea171341441170c6d6c7dbb0b3227d" target="_top" xlink:title="Converts the TensorFlow graph into an XLA computation, by executing the graph symbolically, with each op building up the XLA HLO. ">
<polygon fill="#ffffff" stroke="#000000" points="598,-182 598,-223 733,-223 733,-182 598,-182"/>
<text text-anchor="start" x="606" y="-211" font-family="Helvetica,sans-Serif" font-size="10.00" fill="#000000">tensorflow::anonymous</text>
<text text-anchor="start" x="606" y="-200" font-family="Helvetica,sans-Serif" font-size="10.00" fill="#000000">_namespace{tf2xla::cc}</text>
<text text-anchor="middle" x="665.5" y="-189" font-family="Helvetica,sans-Serif" font-size="10.00" fill="#000000">::ConvertGraphToXla</text>
</a>
</g>
</g>
<!-- Node5&#45;&gt;Node12 -->
<g id="edge14" class="edge">
<title>Node5&#45;&gt;Node12</title>
<path fill="none" stroke="#191970" d="M544.5368,-226.566C558.6371,-223.7607 573.5363,-220.7964 587.8777,-217.9432"/>
<polygon fill="#191970" stroke="#191970" points="588.5757,-221.373 597.7005,-215.9889 587.2098,-214.5075 588.5757,-221.373"/>
</g>
<!-- Node6&#45;&gt;Node2 -->
<g id="edge7" class="edge">
<title>Node6&#45;&gt;Node2</title>
<path fill="none" stroke="#191970" d="M684.3224,-305.1911C711.2925,-334.6451 758.8136,-385.7549 769,-391.5 772.9452,-393.7251 777.135,-395.6898 781.4544,-397.4244"/>
<polygon fill="#191970" stroke="#191970" points="780.4781,-400.7923 791.0726,-400.8664 782.8366,-394.2016 780.4781,-400.7923"/>
</g>
<!-- Node7 -->
<g id="node8" class="node">
<title>Node7</title>
<g id="a_node8"><a xlink:href="../../de/d86/namespacetensorflow.html#ac287ab9f1996e3d9086f8500c777ee9b" target="_top" xlink:title="Generate corresponding placeholder for each feed tensor. Traverse each inputs of each nodes...">
<polygon fill="#ffffff" stroke="#000000" points="775,-351.5 775,-381.5 929,-381.5 929,-351.5 775,-351.5"/>
<text text-anchor="start" x="783" y="-369.5" font-family="Helvetica,sans-Serif" font-size="10.00" fill="#000000">tensorflow::AddPlaceholders</text>
<text text-anchor="middle" x="852" y="-358.5" font-family="Helvetica,sans-Serif" font-size="10.00" fill="#000000">ForFeeds</text>
</a>
</g>
</g>
<!-- Node6&#45;&gt;Node7 -->
<g id="edge8" class="edge">
<title>Node6&#45;&gt;Node7</title>
<path fill="none" stroke="#191970" d="M703.8121,-305.1139C723.1075,-315.1437 747.0174,-327.0447 769,-336.5 778.1841,-340.4504 788.0786,-344.3359 797.7247,-347.9331"/>
<polygon fill="#191970" stroke="#191970" points="796.6588,-351.27 807.2525,-351.4258 799.0681,-344.6977 796.6588,-351.27"/>
</g>
<!-- Node8 -->
<g id="node9" class="node">
<title>Node8</title>
<g id="a_node9"><a xlink:href="../../de/d86/namespacetensorflow.html#a491706512ccc1517e499cbdb810aa6ab" target="_top" xlink:title="Assign each NodeDefs of GraphDef default values. ">
<polygon fill="#ffffff" stroke="#000000" points="971,-329.5 971,-359.5 1122,-359.5 1122,-329.5 971,-329.5"/>
<text text-anchor="start" x="979" y="-347.5" font-family="Helvetica,sans-Serif" font-size="10.00" fill="#000000">tensorflow::AddDefaultAttrs</text>
<text text-anchor="middle" x="1046.5" y="-336.5" font-family="Helvetica,sans-Serif" font-size="10.00" fill="#000000">ToGraphDef</text>
</a>
</g>
</g>
<!-- Node6&#45;&gt;Node8 -->
<g id="edge11" class="edge">
<title>Node6&#45;&gt;Node8</title>
<path fill="none" stroke="#191970" d="M733.0847,-297.2575C745.0374,-299.4135 757.3748,-301.5748 769,-303.5 833.1142,-314.1179 905.7893,-324.8068 960.6792,-332.6076"/>
<polygon fill="#191970" stroke="#191970" points="960.323,-336.092 970.7153,-334.0298 961.3053,-329.1612 960.323,-336.092"/>
</g>
<!-- Node9 -->
<g id="node10" class="node">
<title>Node9</title>
<g id="a_node10"><a xlink:href="../../de/d86/namespacetensorflow.html#ac09f7fb26bddd7564249fd5d1b255435" target="_top" xlink:title="Remove source nodes of feed tensor. Because they are removed at tensorflow::AddPlaceholdersForFeeds ...">
<polygon fill="#ffffff" stroke="#000000" points="769,-275 769,-294 935,-294 935,-275 769,-275"/>
<text text-anchor="middle" x="852" y="-282" font-family="Helvetica,sans-Serif" font-size="10.00" fill="#000000">tensorflow::PruneGraphDefInto</text>
</a>
</g>
</g>
<!-- Node6&#45;&gt;Node9 -->
<g id="edge10" class="edge">
<title>Node6&#45;&gt;Node9</title>
<path fill="none" stroke="#191970" d="M733.0945,-284.5C741.4112,-284.5 750.0232,-284.5 758.6365,-284.5"/>
<polygon fill="#191970" stroke="#191970" points="758.7307,-288.0001 768.7307,-284.5 758.7306,-281.0001 758.7307,-288.0001"/>
</g>
<!-- Node10 -->
<g id="node11" class="node">
<title>Node10</title>
<g id="a_node11"><a xlink:href="../../de/d86/namespacetensorflow.html#a43875c6284c3af69e7a420b67c7eec6b" target="_top" xlink:title="Convert GraphDef defined protobuf to type Graph ">
<polygon fill="#ffffff" stroke="#000000" points="782,-225.5 782,-255.5 922,-255.5 922,-225.5 782,-225.5"/>
<text text-anchor="start" x="790" y="-243.5" font-family="Helvetica,sans-Serif" font-size="10.00" fill="#000000">tensorflow::ConvertGraph</text>
<text text-anchor="middle" x="852" y="-232.5" font-family="Helvetica,sans-Serif" font-size="10.00" fill="#000000">DefToGraph</text>
</a>
</g>
</g>
<!-- Node6&#45;&gt;Node10 -->
<g id="edge12" class="edge">
<title>Node6&#45;&gt;Node10</title>
<path fill="none" stroke="#191970" d="M733.0945,-268.5528C747.8882,-265.0626 763.6161,-261.352 778.6238,-257.8113"/>
<polygon fill="#191970" stroke="#191970" points="779.4358,-261.2159 788.3649,-255.5131 777.8284,-254.4029 779.4358,-261.2159"/>
</g>
<!-- Node11 -->
<g id="node12" class="node">
<title>Node11</title>
<g id="a_node12"><a xlink:href="../../d3/dfa/namespacetensorflow_1_1anonymous__namespace_02tf2xla_8cc_03.html#af0d9ad360ae01cf7c15abe04de99b230" target="_top" xlink:title="tensorflow::anonymous\l_namespace\{tf2xla::cc\}\l::RewriteAndPruneGraph">
<polygon fill="#ffffff" stroke="#000000" points="784.5,-165 784.5,-206 919.5,-206 919.5,-165 784.5,-165"/>
<text text-anchor="start" x="792.5" y="-194" font-family="Helvetica,sans-Serif" font-size="10.00" fill="#000000">tensorflow::anonymous</text>
<text text-anchor="start" x="792.5" y="-183" font-family="Helvetica,sans-Serif" font-size="10.00" fill="#000000">_namespace{tf2xla::cc}</text>
<text text-anchor="middle" x="852" y="-172" font-family="Helvetica,sans-Serif" font-size="10.00" fill="#000000">::RewriteAndPruneGraph</text>
</a>
</g>
</g>
<!-- Node6&#45;&gt;Node11 -->
<g id="edge13" class="edge">
<title>Node6&#45;&gt;Node11</title>
<path fill="none" stroke="#191970" d="M693.0256,-263.9631C713.3116,-249.4479 741.9635,-230.2121 769,-216.5 773.317,-214.3105 777.8269,-212.1909 782.417,-210.1571"/>
<polygon fill="#191970" stroke="#191970" points="784.0888,-213.2492 791.9152,-206.1079 781.3437,-206.8099 784.0888,-213.2492"/>
</g>
<!-- Node7&#45;&gt;Node8 -->
<g id="edge9" class="edge">
<title>Node7&#45;&gt;Node8</title>
<path fill="none" stroke="#191970" d="M929.1509,-357.7734C939.5192,-356.6007 950.2062,-355.3918 960.7122,-354.2035"/>
<polygon fill="#191970" stroke="#191970" points="961.17,-357.6741 970.7133,-353.0723 960.3832,-350.7185 961.17,-357.6741"/>
</g>
<!-- Node13 -->
<g id="node14" class="node">
<title>Node13</title>
<g id="a_node14"><a xlink:href="../../d9/de9/classtensorflow_1_1XlaOpRegistry.html#a504bd86e27f0fedc9c5dcb82af983bfb" target="_top" xlink:title="tensorflow::XlaOpRegistry\l::RegisterCompilationKernels">
<polygon fill="#ffffff" stroke="#000000" points="773,-115.5 773,-145.5 931,-145.5 931,-115.5 773,-115.5"/>
<text text-anchor="start" x="781" y="-133.5" font-family="Helvetica,sans-Serif" font-size="10.00" fill="#000000">tensorflow::XlaOpRegistry</text>
<text text-anchor="middle" x="852" y="-122.5" font-family="Helvetica,sans-Serif" font-size="10.00" fill="#000000">::RegisterCompilationKernels</text>
</a>
</g>
</g>
<!-- Node12&#45;&gt;Node13 -->
<g id="edge15" class="edge">
<title>Node12&#45;&gt;Node13</title>
<path fill="none" stroke="#191970" d="M707.2627,-181.996C725.9126,-173.242 748.3095,-163.2741 769,-155.5 775.247,-153.1528 781.8201,-150.8687 788.419,-148.6961"/>
<polygon fill="#191970" stroke="#191970" points="789.6185,-151.9871 798.0707,-145.5987 787.4794,-145.3219 789.6185,-151.9871"/>
</g>
<!-- Node15 -->
<g id="node16" class="node">
<title>Node15</title>
<g id="a_node16"><a xlink:href="../../d1/dd1/classxla_1_1CompileOnlyClient.html#a5a585d21f617b77a1cecc1b587d18d7a" target="_top" xlink:title="Compiles a list of computations for ahead&#45;of&#45;time execution. This is intended for use in static compi...">
<polygon fill="#ffffff" stroke="#000000" points="600.5,-88.5 600.5,-118.5 730.5,-118.5 730.5,-88.5 600.5,-88.5"/>
<text text-anchor="start" x="608.5" y="-106.5" font-family="Helvetica,sans-Serif" font-size="10.00" fill="#000000">xla::CompileOnlyClient</text>
<text text-anchor="middle" x="665.5" y="-95.5" font-family="Helvetica,sans-Serif" font-size="10.00" fill="#000000">::CompileAheadOfTime</text>
</a>
</g>
</g>
<!-- Node14&#45;&gt;Node15 -->
<g id="edge17" class="edge">
<title>Node14&#45;&gt;Node15</title>
<path fill="none" stroke="#191970" d="M522.6974,-164.8079C552.9125,-151.836 591.5793,-135.2356 621.0551,-122.581"/>
<polygon fill="#191970" stroke="#191970" points="622.4717,-125.7819 630.2799,-118.6207 619.7101,-119.3496 622.4717,-125.7819"/>
</g>
<!-- Node16 -->
<g id="node17" class="node">
<title>Node16</title>
<g id="a_node17"><a xlink:href="../../dc/d07/classxla_1_1CompileOnlyService.html#aceb67616a89167b9af1bf23d17ec37c9" target="_top" xlink:title="xla::CompileOnlyService\l::CompileAheadOfTime">
<polygon fill="#ffffff" stroke="#000000" points="783.5,-66.5 783.5,-96.5 920.5,-96.5 920.5,-66.5 783.5,-66.5"/>
<text text-anchor="start" x="791.5" y="-84.5" font-family="Helvetica,sans-Serif" font-size="10.00" fill="#000000">xla::CompileOnlyService</text>
<text text-anchor="middle" x="852" y="-73.5" font-family="Helvetica,sans-Serif" font-size="10.00" fill="#000000">::CompileAheadOfTime</text>
</a>
</g>
</g>
<!-- Node15&#45;&gt;Node16 -->
<g id="edge18" class="edge">
<title>Node15&#45;&gt;Node16</title>
<path fill="none" stroke="#191970" d="M730.7286,-95.8055C744.4218,-94.1902 759.0036,-92.4701 773.1339,-90.8032"/>
<polygon fill="#191970" stroke="#191970" points="773.8029,-94.2487 783.324,-89.6012 772.9828,-87.2969 773.8029,-94.2487"/>
</g>
<!-- Node17 -->
<g id="node18" class="node">
<title>Node17</title>
<g id="a_node18"><a xlink:href="../../d8/d42/classxla_1_1ComputationTracker.html#add84b3f565b288fdcfdfad55bab8f3ee" target="_top" xlink:title="xla::ComputationTracker\l::Resolve">
<polygon fill="#ffffff" stroke="#000000" points="1158,-123.5 1158,-153.5 1294,-153.5 1294,-123.5 1158,-123.5"/>
<text text-anchor="start" x="1166" y="-141.5" font-family="Helvetica,sans-Serif" font-size="10.00" fill="#000000">xla::ComputationTracker</text>
<text text-anchor="middle" x="1226" y="-130.5" font-family="Helvetica,sans-Serif" font-size="10.00" fill="#000000">::Resolve</text>
</a>
</g>
</g>
<!-- Node16&#45;&gt;Node17 -->
<g id="edge19" class="edge">
<title>Node16&#45;&gt;Node17</title>
<path fill="none" stroke="#191970" d="M908.964,-96.5411C917.819,-99.4818 926.7573,-102.8135 935,-106.5 952.1172,-114.1555 953.0527,-123.0685 971,-128.5 1028.4462,-145.8852 1096.5008,-147.6711 1147.8501,-145.4988"/>
<polygon fill="#191970" stroke="#191970" points="1148.0692,-148.9924 1157.8891,-145.015 1147.7322,-142.0005 1148.0692,-148.9924"/>
</g>
<!-- Node18 -->
<g id="node19" class="node">
<title>Node18</title>
<g id="a_node19"><a xlink:href="../../db/dbb/classxla_1_1UserComputation.html#a4fef8fc438e3b3b2c396de862820af3e" target="_top" xlink:title="Lock mutex and call GetVersionedHandleInternal() ">
<polygon fill="#ffffff" stroke="#000000" points="1164.5,-66.5 1164.5,-96.5 1287.5,-96.5 1287.5,-66.5 1164.5,-66.5"/>
<text text-anchor="start" x="1172.5" y="-84.5" font-family="Helvetica,sans-Serif" font-size="10.00" fill="#000000">xla::UserComputation</text>
<text text-anchor="middle" x="1226" y="-73.5" font-family="Helvetica,sans-Serif" font-size="10.00" fill="#000000">::GetVersionedHandle</text>
</a>
</g>
</g>
<!-- Node16&#45;&gt;Node18 -->
<g id="edge20" class="edge">
<title>Node16&#45;&gt;Node18</title>
<path fill="none" stroke="#191970" d="M920.5879,-80.1505C937.0961,-79.8801 954.6771,-79.6372 971,-79.5 1038.1087,-78.9361 1054.892,-78.8548 1122,-79.5 1132.4003,-79.6 1143.3849,-79.7562 1154.1643,-79.9383"/>
<polygon fill="#191970" stroke="#191970" points="1154.3503,-83.4421 1164.4107,-80.1199 1154.4743,-76.4432 1154.3503,-83.4421"/>
</g>
<!-- Node20 -->
<g id="node21" class="node">
<title>Node20</title>
<g id="a_node21"><a xlink:href="../../d8/d42/classxla_1_1ComputationTracker.html#a1acead58332b1b2c6beaeac5505b1b8a" target="_top" xlink:title="xla::ComputationTracker\l::SnapshotComputation">
<polygon fill="#ffffff" stroke="#000000" points="978.5,-88.5 978.5,-118.5 1114.5,-118.5 1114.5,-88.5 978.5,-88.5"/>
<text text-anchor="start" x="986.5" y="-106.5" font-family="Helvetica,sans-Serif" font-size="10.00" fill="#000000">xla::ComputationTracker</text>
<text text-anchor="middle" x="1046.5" y="-95.5" font-family="Helvetica,sans-Serif" font-size="10.00" fill="#000000">::SnapshotComputation</text>
</a>
</g>
</g>
<!-- Node16&#45;&gt;Node20 -->
<g id="edge22" class="edge">
<title>Node16&#45;&gt;Node20</title>
<path fill="none" stroke="#191970" d="M920.5734,-89.2564C935.9152,-90.9917 952.3027,-92.8453 968.0113,-94.6221"/>
<polygon fill="#191970" stroke="#191970" points="967.8882,-98.1304 978.2182,-95.7766 968.675,-91.1748 967.8882,-98.1304"/>
</g>
<!-- Node21 -->
<g id="node22" class="node">
<title>Node21</title>
<g id="a_node22"><a xlink:href="../../d8/d42/classxla_1_1ComputationTracker.html#abaeb463c7038bcc61515a19e18fe0714" target="_top" xlink:title="Build a HLO module (which is basically a set of HLO instructions) using the specified computation as ...">
<polygon fill="#ffffff" stroke="#000000" points="978.5,-.5 978.5,-30.5 1114.5,-30.5 1114.5,-.5 978.5,-.5"/>
<text text-anchor="start" x="986.5" y="-18.5" font-family="Helvetica,sans-Serif" font-size="10.00" fill="#000000">xla::ComputationTracker</text>
<text text-anchor="middle" x="1046.5" y="-7.5" font-family="Helvetica,sans-Serif" font-size="10.00" fill="#000000">::BuildHloModule</text>
</a>
</g>
</g>
<!-- Node16&#45;&gt;Node21 -->
<g id="edge25" class="edge">
<title>Node16&#45;&gt;Node21</title>
<path fill="none" stroke="#191970" d="M896.6222,-66.3583C925.1611,-56.6741 962.353,-44.0537 992.5476,-33.8077"/>
<polygon fill="#191970" stroke="#191970" points="993.7404,-37.0991 1002.0854,-30.5713 991.491,-30.4703 993.7404,-37.0991"/>
</g>
<!-- Node19 -->
<g id="node20" class="node">
<title>Node19</title>
<g id="a_node20"><a xlink:href="../../db/dbb/classxla_1_1UserComputation.html#af44a77b35aaed6ff22d5fbb266dd824e" target="_top" xlink:title="Get the VersionedComputationHandle recorded in UserComputation object. ">
<polygon fill="#ffffff" stroke="#000000" points="1330,-66.5 1330,-96.5 1490,-96.5 1490,-66.5 1330,-66.5"/>
<text text-anchor="start" x="1338" y="-84.5" font-family="Helvetica,sans-Serif" font-size="10.00" fill="#000000">xla::UserComputation</text>
<text text-anchor="middle" x="1410" y="-73.5" font-family="Helvetica,sans-Serif" font-size="10.00" fill="#000000">::GetVersionedHandleInternal</text>
</a>
</g>
</g>
<!-- Node18&#45;&gt;Node19 -->
<g id="edge21" class="edge">
<title>Node18&#45;&gt;Node19</title>
<path fill="none" stroke="#191970" d="M1287.5252,-81.5C1297.9235,-81.5 1308.9073,-81.5 1319.8561,-81.5"/>
<polygon fill="#191970" stroke="#191970" points="1319.8835,-85.0001 1329.8835,-81.5 1319.8834,-78.0001 1319.8835,-85.0001"/>
</g>
<!-- Node20&#45;&gt;Node17 -->
<g id="edge23" class="edge">
<title>Node20&#45;&gt;Node17</title>
<path fill="none" stroke="#191970" d="M1114.6172,-116.7819C1125.4757,-118.8992 1136.7833,-121.104 1147.8516,-123.2622"/>
<polygon fill="#191970" stroke="#191970" points="1147.4443,-126.7486 1157.9293,-125.2272 1148.784,-119.878 1147.4443,-126.7486"/>
</g>
<!-- Node20&#45;&gt;Node18 -->
<g id="edge24" class="edge">
<title>Node20&#45;&gt;Node18</title>
<path fill="none" stroke="#191970" d="M1114.6172,-95.1514C1127.5297,-93.5688 1141.0775,-91.9083 1154.1025,-90.3119"/>
<polygon fill="#191970" stroke="#191970" points="1154.9142,-93.7387 1164.4142,-89.0481 1154.0626,-86.7907 1154.9142,-93.7387"/>
</g>
<!-- Node22 -->
<g id="node23" class="node">
<title>Node22</title>
<g id="a_node23"><a xlink:href="../../db/dbb/classxla_1_1UserComputation.html#a7ab95fda9f35270dfbf0868b96f636c6" target="_top" xlink:title="Build a HLO computation from the UserComputation ">
<polygon fill="#ffffff" stroke="#000000" points="1162.5,-.5 1162.5,-30.5 1289.5,-30.5 1289.5,-.5 1162.5,-.5"/>
<text text-anchor="start" x="1170.5" y="-18.5" font-family="Helvetica,sans-Serif" font-size="10.00" fill="#000000">xla::UserComputation</text>
<text text-anchor="middle" x="1226" y="-7.5" font-family="Helvetica,sans-Serif" font-size="10.00" fill="#000000">::BuildHloComputation</text>
</a>
</g>
</g>
<!-- Node21&#45;&gt;Node22 -->
<g id="edge26" class="edge">
<title>Node21&#45;&gt;Node22</title>
<path fill="none" stroke="#191970" d="M1114.6172,-15.5C1126.8595,-15.5 1139.6728,-15.5 1152.0703,-15.5"/>
<polygon fill="#191970" stroke="#191970" points="1152.3647,-19.0001 1162.3647,-15.5 1152.3646,-12.0001 1152.3647,-19.0001"/>
</g>
</g>
</svg>
