<?xml version="1.0" encoding="UTF-8" standalone="no"?>
<!DOCTYPE svg PUBLIC "-//W3C//DTD SVG 1.1//EN"
 "http://www.w3.org/Graphics/SVG/1.1/DTD/svg11.dtd">
<!-- Generated by graphviz version 2.40.1 (20161225.0304)
 -->
<!-- Title: main Pages: 1 -->
<svg width="1044pt" height="387pt"
 viewBox="0.00 0.00 1044.00 386.50" xmlns="http://www.w3.org/2000/svg" xmlns:xlink="http://www.w3.org/1999/xlink">
<g id="graph0" class="graph" transform="scale(1 1) rotate(0) translate(4 382.5)">
<title>main</title>
<polygon fill="#ffffff" stroke="transparent" points="-4,4 -4,-382.5 1040,-382.5 1040,4 -4,4"/>
<!-- Node0 -->
<g id="node1" class="node">
<title>Node0</title>
<polygon fill="#bfbfbf" stroke="#000000" points="0,-244 0,-263 38,-263 38,-244 0,-244"/>
<text text-anchor="middle" x="19" y="-251" font-family="Helvetica,sans-Serif" font-size="10.00" fill="#000000">main</text>
</g>
<!-- Node1 -->
<g id="node2" class="node">
<title>Node1</title>
<g id="a_node2"><a xlink:href="../../d7/d38/namespacetensorflow_1_1tfcompile.html#a460964a5bb277865d1275fe3746132c1" target="_top" xlink:title="tensorflow::tfcompile\l::Main">
<polygon fill="#ffffff" stroke="#000000" points="74,-238.5 74,-268.5 181,-268.5 181,-238.5 74,-238.5"/>
<text text-anchor="start" x="82" y="-256.5" font-family="Helvetica,sans-Serif" font-size="10.00" fill="#000000">tensorflow::tfcompile</text>
<text text-anchor="middle" x="127.5" y="-245.5" font-family="Helvetica,sans-Serif" font-size="10.00" fill="#000000">::Main</text>
</a>
</g>
</g>
<!-- Node0&#45;&gt;Node1 -->
<g id="edge1" class="edge">
<title>Node0&#45;&gt;Node1</title>
<path fill="none" stroke="#191970" d="M38.1479,-253.5C45.4748,-253.5 54.2989,-253.5 63.5103,-253.5"/>
<polygon fill="#191970" stroke="#191970" points="63.6052,-257.0001 73.6051,-253.5 63.6051,-250.0001 63.6052,-257.0001"/>
</g>
<!-- Node2 -->
<g id="node3" class="node">
<title>Node2</title>
<g id="a_node3"><a xlink:href="../../de/d86/namespacetensorflow.html#aaeeec358e2be013353667dd7c0a6dbaa" target="_top" xlink:title="tensorflow::ValidateConfig">
<polygon fill="#ffffff" stroke="#000000" points="721.5,-359 721.5,-378 852.5,-378 852.5,-359 721.5,-359"/>
<text text-anchor="middle" x="787" y="-366" font-family="Helvetica,sans-Serif" font-size="10.00" fill="#000000">tensorflow::ValidateConfig</text>
</a>
</g>
</g>
<!-- Node1&#45;&gt;Node2 -->
<g id="edge2" class="edge">
<title>Node1&#45;&gt;Node2</title>
<path fill="none" stroke="#191970" d="M181.19,-262.8622C301.4054,-283.8247 591.8517,-334.4711 722.0089,-357.1672"/>
<polygon fill="#191970" stroke="#191970" points="721.7715,-360.6786 732.2241,-358.9485 722.974,-353.7826 721.7715,-360.6786"/>
</g>
<!-- Node3 -->
<g id="node4" class="node">
<title>Node3</title>
<g id="a_node4"><a xlink:href="../../d7/d38/namespacetensorflow_1_1tfcompile.html#a021cb1c58d938b16dcd998aa8d1fc191" target="_top" xlink:title="Converts the graph into an XLA computation, and compiles the computation. Called by tensorflow::tfcom...">
<polygon fill="#ffffff" stroke="#000000" points="217,-208.5 217,-238.5 324,-238.5 324,-208.5 217,-208.5"/>
<text text-anchor="start" x="225" y="-226.5" font-family="Helvetica,sans-Serif" font-size="10.00" fill="#000000">tensorflow::tfcompile</text>
<text text-anchor="middle" x="270.5" y="-215.5" font-family="Helvetica,sans-Serif" font-size="10.00" fill="#000000">::CompileGraph</text>
</a>
</g>
</g>
<!-- Node1&#45;&gt;Node3 -->
<g id="edge3" class="edge">
<title>Node1&#45;&gt;Node3</title>
<path fill="none" stroke="#191970" d="M181.1548,-242.2438C189.4712,-240.499 198.1318,-238.6821 206.6461,-236.8959"/>
<polygon fill="#191970" stroke="#191970" points="207.4762,-240.2981 216.5445,-234.8193 206.0389,-233.4472 207.4762,-240.2981"/>
</g>
<!-- Node4 -->
<g id="node5" class="node">
<title>Node4</title>
<g id="a_node5"><a xlink:href="../../d5/ddb/classxla_1_1ClientLibrary.html#a5e940d153e6cfd72b34b2b8b89220f50" target="_top" xlink:title="xla::ClientLibrary\l::GetOrCreateCompileOnlyClient">
<polygon fill="#ffffff" stroke="#000000" points="360,-232.5 360,-262.5 520,-262.5 520,-232.5 360,-232.5"/>
<text text-anchor="start" x="368" y="-250.5" font-family="Helvetica,sans-Serif" font-size="10.00" fill="#000000">xla::ClientLibrary</text>
<text text-anchor="middle" x="440" y="-239.5" font-family="Helvetica,sans-Serif" font-size="10.00" fill="#000000">::GetOrCreateCompileOnlyClient</text>
</a>
</g>
</g>
<!-- Node3&#45;&gt;Node4 -->
<g id="edge4" class="edge">
<title>Node3&#45;&gt;Node4</title>
<path fill="none" stroke="#191970" d="M324.1309,-231.0938C332.3757,-232.2612 341.0767,-233.4932 349.8553,-234.7362"/>
<polygon fill="#191970" stroke="#191970" points="349.3874,-238.2047 359.7794,-236.1413 350.3689,-231.2739 349.3874,-238.2047"/>
</g>
<!-- Node5 -->
<g id="node6" class="node">
<title>Node5</title>
<g id="a_node6"><a xlink:href="../../de/d86/namespacetensorflow.html#a6f8fce5955ec6d67cd1762891d4830e9" target="_top" xlink:title="Convert tensorflow graph_def to XLA UserComputation. ">
<polygon fill="#ffffff" stroke="#000000" points="376,-183.5 376,-213.5 504,-213.5 504,-183.5 376,-183.5"/>
<text text-anchor="start" x="384" y="-201.5" font-family="Helvetica,sans-Serif" font-size="10.00" fill="#000000">tensorflow::ConvertGraph</text>
<text text-anchor="middle" x="440" y="-190.5" font-family="Helvetica,sans-Serif" font-size="10.00" fill="#000000">DefToXla</text>
</a>
</g>
</g>
<!-- Node3&#45;&gt;Node5 -->
<g id="edge5" class="edge">
<title>Node3&#45;&gt;Node5</title>
<path fill="none" stroke="#191970" d="M324.1309,-215.5898C337.3206,-213.6445 351.678,-211.5268 365.6524,-209.4657"/>
<polygon fill="#191970" stroke="#191970" points="366.3558,-212.8999 375.7381,-207.9782 365.3344,-205.9748 366.3558,-212.8999"/>
</g>
<!-- Node14 -->
<g id="node15" class="node">
<title>Node14</title>
<g id="a_node15"><a xlink:href="../../d4/df4/namespacetensorflow_1_1tfcompile_1_1anonymous__namespace_02compile_8cc_03.html#a40f8a019f31fa8cbe2fff5d90e69c21b" target="_top" xlink:title="Compiles the XLA computation into executable code. ">
<polygon fill="#ffffff" stroke="#000000" points="375.5,-123 375.5,-164 504.5,-164 504.5,-123 375.5,-123"/>
<text text-anchor="start" x="383.5" y="-152" font-family="Helvetica,sans-Serif" font-size="10.00" fill="#000000">tensorflow::tfcompile</text>
<text text-anchor="start" x="383.5" y="-141" font-family="Helvetica,sans-Serif" font-size="10.00" fill="#000000">::anonymous_namespace</text>
<text text-anchor="middle" x="440" y="-130" font-family="Helvetica,sans-Serif" font-size="10.00" fill="#000000">{compile::cc}::CompileXla</text>
</a>
</g>
</g>
<!-- Node3&#45;&gt;Node14 -->
<g id="edge16" class="edge">
<title>Node3&#45;&gt;Node14</title>
<path fill="none" stroke="#191970" d="M295.888,-208.4357C313.5578,-198.2419 337.8337,-184.8084 360,-174.5 364.6913,-172.3183 369.5823,-170.158 374.5324,-168.0534"/>
<polygon fill="#191970" stroke="#191970" points="376.1958,-171.1524 384.0878,-164.0837 373.5102,-164.6881 376.1958,-171.1524"/>
</g>
<!-- Node6 -->
<g id="node7" class="node">
<title>Node6</title>
<g id="a_node7"><a xlink:href="../../d3/dfa/namespacetensorflow_1_1anonymous__namespace_02tf2xla_8cc_03.html#aeef0cda05958b2b855b0e2fbe07b1314" target="_top" xlink:title="InitGraph creates a graph based on the graph_def, that may then be convert to an xla::Computation via...">
<polygon fill="#ffffff" stroke="#000000" points="556,-222 556,-263 675,-263 675,-222 556,-222"/>
<text text-anchor="start" x="564" y="-251" font-family="Helvetica,sans-Serif" font-size="10.00" fill="#000000">tensorflow::anonymous</text>
<text text-anchor="start" x="564" y="-240" font-family="Helvetica,sans-Serif" font-size="10.00" fill="#000000">_namespace{tf2xla::cc}</text>
<text text-anchor="middle" x="615.5" y="-229" font-family="Helvetica,sans-Serif" font-size="10.00" fill="#000000">::InitGraph</text>
</a>
</g>
</g>
<!-- Node5&#45;&gt;Node6 -->
<g id="edge6" class="edge">
<title>Node5&#45;&gt;Node6</title>
<path fill="none" stroke="#191970" d="M499.9063,-213.5192C514.7313,-217.2361 530.7392,-221.2494 545.9796,-225.0704"/>
<polygon fill="#191970" stroke="#191970" points="545.3127,-228.5114 555.8637,-227.5484 547.0151,-221.7216 545.3127,-228.5114"/>
</g>
<!-- Node12 -->
<g id="node13" class="node">
<title>Node12</title>
<g id="a_node13"><a xlink:href="../../d3/dfa/namespacetensorflow_1_1anonymous__namespace_02tf2xla_8cc_03.html#a8bea171341441170c6d6c7dbb0b3227d" target="_top" xlink:title="Converts the TensorFlow graph into an XLA computation, by executing the graph symbolically, with each op building up the XLA HLO. ">
<polygon fill="#ffffff" stroke="#000000" points="556,-140 556,-181 675,-181 675,-140 556,-140"/>
<text text-anchor="start" x="564" y="-169" font-family="Helvetica,sans-Serif" font-size="10.00" fill="#000000">tensorflow::anonymous</text>
<text text-anchor="start" x="564" y="-158" font-family="Helvetica,sans-Serif" font-size="10.00" fill="#000000">_namespace{tf2xla::cc}</text>
<text text-anchor="middle" x="615.5" y="-147" font-family="Helvetica,sans-Serif" font-size="10.00" fill="#000000">::ConvertGraphToXla</text>
</a>
</g>
</g>
<!-- Node5&#45;&gt;Node12 -->
<g id="edge14" class="edge">
<title>Node5&#45;&gt;Node12</title>
<path fill="none" stroke="#191970" d="M504.3532,-184.566C517.8931,-181.6343 532.2348,-178.5289 545.9553,-175.5581"/>
<polygon fill="#191970" stroke="#191970" points="546.783,-178.9601 555.8158,-173.4231 545.3016,-172.1186 546.783,-178.9601"/>
</g>
<!-- Node6&#45;&gt;Node2 -->
<g id="edge7" class="edge">
<title>Node6&#45;&gt;Node2</title>
<path fill="none" stroke="#191970" d="M631.4123,-263.0549C653.2719,-290.7859 692.0335,-338.0391 711,-349.5 714.6012,-351.6761 718.442,-353.6038 722.4118,-355.3112"/>
<polygon fill="#191970" stroke="#191970" points="721.266,-358.62 731.8569,-358.9089 723.7578,-352.0785 721.266,-358.62"/>
</g>
<!-- Node7 -->
<g id="node8" class="node">
<title>Node7</title>
<g id="a_node8"><a xlink:href="../../de/d86/namespacetensorflow.html#ac287ab9f1996e3d9086f8500c777ee9b" target="_top" xlink:title="Generate corresponding placeholder for each feed tensor. Traverse each inputs of each nodes...">
<polygon fill="#ffffff" stroke="#000000" points="716.5,-309.5 716.5,-339.5 857.5,-339.5 857.5,-309.5 716.5,-309.5"/>
<text text-anchor="start" x="724.5" y="-327.5" font-family="Helvetica,sans-Serif" font-size="10.00" fill="#000000">tensorflow::AddPlaceholders</text>
<text text-anchor="middle" x="787" y="-316.5" font-family="Helvetica,sans-Serif" font-size="10.00" fill="#000000">ForFeeds</text>
</a>
</g>
</g>
<!-- Node6&#45;&gt;Node7 -->
<g id="edge8" class="edge">
<title>Node6&#45;&gt;Node7</title>
<path fill="none" stroke="#191970" d="M650.7924,-263.0638C668.5821,-273.0813 690.6486,-284.9863 711,-294.5 719.1229,-298.2972 727.868,-302.0483 736.4328,-305.5445"/>
<polygon fill="#191970" stroke="#191970" points="735.3991,-308.9007 745.9834,-309.3724 738.0033,-302.4032 735.3991,-308.9007"/>
</g>
<!-- Node8 -->
<g id="node9" class="node">
<title>Node8</title>
<g id="a_node9"><a xlink:href="../../de/d86/namespacetensorflow.html#a491706512ccc1517e499cbdb810aa6ab" target="_top" xlink:title="Assign each NodeDefs of GraphDef default values. ">
<polygon fill="#ffffff" stroke="#000000" points="899,-287.5 899,-317.5 1036,-317.5 1036,-287.5 899,-287.5"/>
<text text-anchor="start" x="907" y="-305.5" font-family="Helvetica,sans-Serif" font-size="10.00" fill="#000000">tensorflow::AddDefaultAttrs</text>
<text text-anchor="middle" x="967.5" y="-294.5" font-family="Helvetica,sans-Serif" font-size="10.00" fill="#000000">ToGraphDef</text>
</a>
</g>
</g>
<!-- Node6&#45;&gt;Node8 -->
<g id="edge11" class="edge">
<title>Node6&#45;&gt;Node8</title>
<path fill="none" stroke="#191970" d="M675.0378,-254.7071C686.9343,-257.0441 699.3524,-259.4112 711,-261.5 770.5082,-272.1717 838.0329,-282.9102 888.8582,-290.7189"/>
<polygon fill="#191970" stroke="#191970" points="888.3787,-294.1862 898.7933,-292.2407 889.4386,-287.2669 888.3787,-294.1862"/>
</g>
<!-- Node9 -->
<g id="node10" class="node">
<title>Node9</title>
<g id="a_node10"><a xlink:href="../../de/d86/namespacetensorflow.html#ac09f7fb26bddd7564249fd5d1b255435" target="_top" xlink:title="Remove source nodes of feed tensor. Because they are removed at tensorflow::AddPlaceholdersForFeeds ...">
<polygon fill="#ffffff" stroke="#000000" points="711,-233 711,-252 863,-252 863,-233 711,-233"/>
<text text-anchor="middle" x="787" y="-240" font-family="Helvetica,sans-Serif" font-size="10.00" fill="#000000">tensorflow::PruneGraphDefInto</text>
</a>
</g>
</g>
<!-- Node6&#45;&gt;Node9 -->
<g id="edge10" class="edge">
<title>Node6&#45;&gt;Node9</title>
<path fill="none" stroke="#191970" d="M675.0011,-242.5C683.3453,-242.5 692.0565,-242.5 700.7743,-242.5"/>
<polygon fill="#191970" stroke="#191970" points="700.9897,-246.0001 710.9896,-242.5 700.9896,-239.0001 700.9897,-246.0001"/>
</g>
<!-- Node10 -->
<g id="node11" class="node">
<title>Node10</title>
<g id="a_node11"><a xlink:href="../../de/d86/namespacetensorflow.html#a43875c6284c3af69e7a420b67c7eec6b" target="_top" xlink:title="Convert GraphDef defined protobuf to type Graph ">
<polygon fill="#ffffff" stroke="#000000" points="723,-183.5 723,-213.5 851,-213.5 851,-183.5 723,-183.5"/>
<text text-anchor="start" x="731" y="-201.5" font-family="Helvetica,sans-Serif" font-size="10.00" fill="#000000">tensorflow::ConvertGraph</text>
<text text-anchor="middle" x="787" y="-190.5" font-family="Helvetica,sans-Serif" font-size="10.00" fill="#000000">DefToGraph</text>
</a>
</g>
</g>
<!-- Node6&#45;&gt;Node10 -->
<g id="edge12" class="edge">
<title>Node6&#45;&gt;Node10</title>
<path fill="none" stroke="#191970" d="M675.0011,-227.2344C689.0714,-223.6245 704.1852,-219.747 718.6143,-216.045"/>
<polygon fill="#191970" stroke="#191970" points="719.6567,-219.391 728.4731,-213.5156 717.917,-212.6106 719.6567,-219.391"/>
</g>
<!-- Node11 -->
<g id="node12" class="node">
<title>Node11</title>
<g id="a_node12"><a xlink:href="../../d3/dfa/namespacetensorflow_1_1anonymous__namespace_02tf2xla_8cc_03.html#af0d9ad360ae01cf7c15abe04de99b230" target="_top" xlink:title="tensorflow::anonymous\l_namespace\{tf2xla::cc\}\l::RewriteAndPruneGraph">
<polygon fill="#ffffff" stroke="#000000" points="724.5,-123 724.5,-164 849.5,-164 849.5,-123 724.5,-123"/>
<text text-anchor="start" x="732.5" y="-152" font-family="Helvetica,sans-Serif" font-size="10.00" fill="#000000">tensorflow::anonymous</text>
<text text-anchor="start" x="732.5" y="-141" font-family="Helvetica,sans-Serif" font-size="10.00" fill="#000000">_namespace{tf2xla::cc}</text>
<text text-anchor="middle" x="787" y="-130" font-family="Helvetica,sans-Serif" font-size="10.00" fill="#000000">::RewriteAndPruneGraph</text>
</a>
</g>
</g>
<!-- Node6&#45;&gt;Node11 -->
<g id="edge13" class="edge">
<title>Node6&#45;&gt;Node11</title>
<path fill="none" stroke="#191970" d="M641.1772,-221.7287C659.814,-207.2859 686.0349,-188.2368 711,-174.5 714.8976,-172.3554 718.9748,-170.2729 723.1298,-168.2691"/>
<polygon fill="#191970" stroke="#191970" points="724.709,-171.3949 732.3108,-164.0149 721.766,-165.0436 724.709,-171.3949"/>
</g>
<!-- Node7&#45;&gt;Node8 -->
<g id="edge9" class="edge">
<title>Node7&#45;&gt;Node8</title>
<path fill="none" stroke="#191970" d="M857.5615,-315.8997C867.7211,-314.6614 878.2306,-313.3805 888.5405,-312.1239"/>
<polygon fill="#191970" stroke="#191970" points="889.2603,-315.5621 898.7634,-310.8779 888.4134,-308.6135 889.2603,-315.5621"/>
</g>
<!-- Node13 -->
<g id="node14" class="node">
<title>Node13</title>
<g id="a_node14"><a xlink:href="../../d9/de9/classtensorflow_1_1XlaOpRegistry.html#a504bd86e27f0fedc9c5dcb82af983bfb" target="_top" xlink:title="tensorflow::XlaOpRegistry\l::RegisterCompilationKernels">
<polygon fill="#ffffff" stroke="#000000" points="715,-73.5 715,-103.5 859,-103.5 859,-73.5 715,-73.5"/>
<text text-anchor="start" x="723" y="-91.5" font-family="Helvetica,sans-Serif" font-size="10.00" fill="#000000">tensorflow::XlaOpRegistry</text>
<text text-anchor="middle" x="787" y="-80.5" font-family="Helvetica,sans-Serif" font-size="10.00" fill="#000000">::RegisterCompilationKernels</text>
</a>
</g>
</g>
<!-- Node12&#45;&gt;Node13 -->
<g id="edge15" class="edge">
<title>Node12&#45;&gt;Node13</title>
<path fill="none" stroke="#191970" d="M654.4296,-139.807C671.5332,-131.118 692.0097,-121.2522 711,-113.5 716.5196,-111.2468 722.3248,-109.0463 728.1647,-106.9443"/>
<polygon fill="#191970" stroke="#191970" points="729.6992,-110.1155 737.9811,-103.5078 727.3863,-103.5086 729.6992,-110.1155"/>
</g>
<!-- Node15 -->
<g id="node16" class="node">
<title>Node15</title>
<g id="a_node16"><a xlink:href="../../d1/dd1/classxla_1_1CompileOnlyClient.html#a5a585d21f617b77a1cecc1b587d18d7a" target="_top" xlink:title="Compiles a list of computations for ahead&#45;of&#45;time execution. This is intended for use in static compi...">
<polygon fill="#ffffff" stroke="#000000" points="556,-46.5 556,-76.5 675,-76.5 675,-46.5 556,-46.5"/>
<text text-anchor="start" x="564" y="-64.5" font-family="Helvetica,sans-Serif" font-size="10.00" fill="#000000">xla::CompileOnlyClient</text>
<text text-anchor="middle" x="615.5" y="-53.5" font-family="Helvetica,sans-Serif" font-size="10.00" fill="#000000">::CompileAheadOfTime</text>
</a>
</g>
</g>
<!-- Node14&#45;&gt;Node15 -->
<g id="edge17" class="edge">
<title>Node14&#45;&gt;Node15</title>
<path fill="none" stroke="#191970" d="M484.2861,-122.8079C511.8088,-109.9483 546.9634,-93.5228 573.9565,-80.9106"/>
<polygon fill="#191970" stroke="#191970" points="575.5598,-84.0248 583.1381,-76.6207 572.5966,-77.6829 575.5598,-84.0248"/>
</g>
<!-- Node16 -->
<g id="node17" class="node">
<title>Node16</title>
<g id="a_node17"><a xlink:href="../../dc/d07/classxla_1_1CompileOnlyService.html#aceb67616a89167b9af1bf23d17ec37c9" target="_top" xlink:title="xla::CompileOnlyService\l::CompileAheadOfTime">
<polygon fill="#ffffff" stroke="#000000" points="724.5,-24.5 724.5,-54.5 849.5,-54.5 849.5,-24.5 724.5,-24.5"/>
<text text-anchor="start" x="732.5" y="-42.5" font-family="Helvetica,sans-Serif" font-size="10.00" fill="#000000">xla::CompileOnlyService</text>
<text text-anchor="middle" x="787" y="-31.5" font-family="Helvetica,sans-Serif" font-size="10.00" fill="#000000">::CompileAheadOfTime</text>
</a>
</g>
</g>
<!-- Node15&#45;&gt;Node16 -->
<g id="edge18" class="edge">
<title>Node15&#45;&gt;Node16</title>
<path fill="none" stroke="#191970" d="M675.0011,-53.8672C687.7215,-52.2354 701.2948,-50.4943 714.444,-48.8075"/>
<polygon fill="#191970" stroke="#191970" points="714.9221,-52.2749 724.3955,-47.5309 714.0314,-45.3318 714.9221,-52.2749"/>
</g>
<!-- Node17 -->
<g id="node18" class="node">
<title>Node17</title>
<g id="a_node18"><a xlink:href="../../dd/d3d/classComputationTracker.html#a1a3946ea7b82135df39842f6e5ed4b08" target="_top" xlink:title="ComputationTracker\l::Resolve">
<polygon fill="#ffffff" stroke="#000000" points="915.5,-49.5 915.5,-79.5 1019.5,-79.5 1019.5,-49.5 915.5,-49.5"/>
<text text-anchor="start" x="923.5" y="-67.5" font-family="Helvetica,sans-Serif" font-size="10.00" fill="#000000">ComputationTracker</text>
<text text-anchor="middle" x="967.5" y="-56.5" font-family="Helvetica,sans-Serif" font-size="10.00" fill="#000000">::Resolve</text>
</a>
</g>
</g>
<!-- Node16&#45;&gt;Node17 -->
<g id="edge19" class="edge">
<title>Node16&#45;&gt;Node17</title>
<path fill="none" stroke="#191970" d="M849.6236,-48.1736C867.6671,-50.6727 887.3411,-53.3977 905.3555,-55.8927"/>
<polygon fill="#191970" stroke="#191970" points="905.0718,-59.3868 915.4575,-57.2919 906.0323,-52.453 905.0718,-59.3868"/>
</g>
<!-- Node18 -->
<g id="node19" class="node">
<title>Node18</title>
<g id="a_node19"><a xlink:href="../../dd/d3d/classComputationTracker.html#addb407ae0007ec874f2b9d8a81364a3c" target="_top" xlink:title="ComputationTracker\l::SnapshotComputation">
<polygon fill="#ffffff" stroke="#000000" points="908,-.5 908,-30.5 1027,-30.5 1027,-.5 908,-.5"/>
<text text-anchor="start" x="916" y="-18.5" font-family="Helvetica,sans-Serif" font-size="10.00" fill="#000000">ComputationTracker</text>
<text text-anchor="middle" x="967.5" y="-7.5" font-family="Helvetica,sans-Serif" font-size="10.00" fill="#000000">::SnapshotComputation</text>
</a>
</g>
</g>
<!-- Node16&#45;&gt;Node18 -->
<g id="edge20" class="edge">
<title>Node16&#45;&gt;Node18</title>
<path fill="none" stroke="#191970" d="M849.6236,-31.1733C865.0758,-29.1187 881.7238,-26.9051 897.5012,-24.8073"/>
<polygon fill="#191970" stroke="#191970" points="898.2708,-28.2359 907.7222,-23.4483 897.3481,-21.297 898.2708,-28.2359"/>
</g>
</g>
</svg>
