<?xml version="1.0" encoding="UTF-8" standalone="no"?>
<!DOCTYPE svg PUBLIC "-//W3C//DTD SVG 1.1//EN"
 "http://www.w3.org/Graphics/SVG/1.1/DTD/svg11.dtd">
<!-- Generated by graphviz version 2.40.1 (20161225.0304)
 -->
<!-- Title: main Pages: 1 -->
<svg width="1048pt" height="348pt"
 viewBox="0.00 0.00 1048.16 348.00" xmlns="http://www.w3.org/2000/svg" xmlns:xlink="http://www.w3.org/1999/xlink">
<g id="graph0" class="graph" transform="scale(1 1) rotate(0) translate(4 344)">
<title>main</title>
<polygon fill="#ffffff" stroke="transparent" points="-4,4 -4,-344 1044.1582,-344 1044.1582,4 -4,4"/>
<!-- Node0 -->
<g id="node1" class="node">
<title>Node0</title>
<polygon fill="#bfbfbf" stroke="#000000" points="0,-209.5 0,-227.5 37.6748,-227.5 37.6748,-209.5 0,-209.5"/>
<text text-anchor="middle" x="18.8374" y="-215.5" font-family="Helvetica,sans-Serif" font-size="10.00" fill="#000000">main</text>
</g>
<!-- Node1 -->
<g id="node2" class="node">
<title>Node1</title>
<g id="a_node2"><a xlink:href="../../d7/d38/namespacetensorflow_1_1tfcompile.html#a460964a5bb277865d1275fe3746132c1" target="_top" xlink:title="tensorflow::tfcompile\l::Main">
<polygon fill="#ffffff" stroke="#000000" points="73.6748,-204.5 73.6748,-232.5 180.8223,-232.5 180.8223,-204.5 73.6748,-204.5"/>
<text text-anchor="start" x="81.6748" y="-220.5" font-family="Helvetica,sans-Serif" font-size="10.00" fill="#000000">tensorflow::tfcompile</text>
<text text-anchor="middle" x="127.2485" y="-210.5" font-family="Helvetica,sans-Serif" font-size="10.00" fill="#000000">::Main</text>
</a>
</g>
</g>
<!-- Node0&#45;&gt;Node1 -->
<g id="edge1" class="edge">
<title>Node0&#45;&gt;Node1</title>
<path fill="none" stroke="#191970" d="M37.7212,-218.5C45.1166,-218.5 54.0658,-218.5 63.4095,-218.5"/>
<polygon fill="#191970" stroke="#191970" points="63.6484,-222.0001 73.6484,-218.5 63.6484,-215.0001 63.6484,-222.0001"/>
</g>
<!-- Node2 -->
<g id="node3" class="node">
<title>Node2</title>
<g id="a_node3"><a xlink:href="../../de/d86/namespacetensorflow.html#aaeeec358e2be013353667dd7c0a6dbaa" target="_top" xlink:title="tensorflow::ValidateConfig">
<polygon fill="#ffffff" stroke="#000000" points="724.3457,-321.5 724.3457,-339.5 855.7852,-339.5 855.7852,-321.5 724.3457,-321.5"/>
<text text-anchor="middle" x="790.0654" y="-327.5" font-family="Helvetica,sans-Serif" font-size="10.00" fill="#000000">tensorflow::ValidateConfig</text>
</a>
</g>
</g>
<!-- Node1&#45;&gt;Node2 -->
<g id="edge2" class="edge">
<title>Node1&#45;&gt;Node2</title>
<path fill="none" stroke="#191970" d="M180.9282,-227.5706C302.0044,-248.0295 595.9106,-297.6925 726.1349,-319.6973"/>
<polygon fill="#191970" stroke="#191970" points="725.9046,-323.2079 736.348,-321.4231 727.071,-316.3058 725.9046,-323.2079"/>
</g>
<!-- Node3 -->
<g id="node4" class="node">
<title>Node3</title>
<g id="a_node4"><a xlink:href="../../d7/d38/namespacetensorflow_1_1tfcompile.html#a021cb1c58d938b16dcd998aa8d1fc191" target="_top" xlink:title="Converts the graph into an XLA computation, and compiles the computation. Called by tensorflow::tfcom...">
<polygon fill="#ffffff" stroke="#000000" points="216.8223,-175.5 216.8223,-203.5 323.9697,-203.5 323.9697,-175.5 216.8223,-175.5"/>
<text text-anchor="start" x="224.8223" y="-191.5" font-family="Helvetica,sans-Serif" font-size="10.00" fill="#000000">tensorflow::tfcompile</text>
<text text-anchor="middle" x="270.396" y="-181.5" font-family="Helvetica,sans-Serif" font-size="10.00" fill="#000000">::CompileGraph</text>
</a>
</g>
</g>
<!-- Node1&#45;&gt;Node3 -->
<g id="edge3" class="edge">
<title>Node1&#45;&gt;Node3</title>
<path fill="none" stroke="#191970" d="M180.9586,-207.619C189.2837,-205.9324 197.9532,-204.1761 206.4762,-202.4494"/>
<polygon fill="#191970" stroke="#191970" points="207.2789,-205.858 216.3849,-200.442 205.889,-198.9973 207.2789,-205.858"/>
</g>
<!-- Node4 -->
<g id="node5" class="node">
<title>Node4</title>
<g id="a_node5"><a xlink:href="../../d5/ddb/classxla_1_1ClientLibrary.html#a5e940d153e6cfd72b34b2b8b89220f50" target="_top" xlink:title="xla::ClientLibrary\l::GetOrCreateCompileOnlyClient">
<polygon fill="#ffffff" stroke="#000000" points="359.9697,-198.5 359.9697,-226.5 521.5752,-226.5 521.5752,-198.5 359.9697,-198.5"/>
<text text-anchor="start" x="367.9697" y="-214.5" font-family="Helvetica,sans-Serif" font-size="10.00" fill="#000000">xla::ClientLibrary</text>
<text text-anchor="middle" x="440.7725" y="-204.5" font-family="Helvetica,sans-Serif" font-size="10.00" fill="#000000">::GetOrCreateCompileOnlyClient</text>
</a>
</g>
</g>
<!-- Node3&#45;&gt;Node4 -->
<g id="edge4" class="edge">
<title>Node3&#45;&gt;Node4</title>
<path fill="none" stroke="#191970" d="M324.3042,-196.7773C332.4324,-197.8746 341.0019,-199.0315 349.6533,-200.1994"/>
<polygon fill="#191970" stroke="#191970" points="349.4471,-203.7032 359.8254,-201.5725 350.3836,-196.7661 349.4471,-203.7032"/>
</g>
<!-- Node5 -->
<g id="node6" class="node">
<title>Node5</title>
<g id="a_node6"><a xlink:href="../../de/d86/namespacetensorflow.html#a6f8fce5955ec6d67cd1762891d4830e9" target="_top" xlink:title="Convert tensorflow graph_def to XLA UserComputation. ">
<polygon fill="#ffffff" stroke="#000000" points="375.8022,-151.5 375.8022,-179.5 505.7427,-179.5 505.7427,-151.5 375.8022,-151.5"/>
<text text-anchor="start" x="383.8022" y="-167.5" font-family="Helvetica,sans-Serif" font-size="10.00" fill="#000000">tensorflow::ConvertGraph</text>
<text text-anchor="middle" x="440.7725" y="-157.5" font-family="Helvetica,sans-Serif" font-size="10.00" fill="#000000">DefToXla</text>
</a>
</g>
</g>
<!-- Node3&#45;&gt;Node5 -->
<g id="edge5" class="edge">
<title>Node3&#45;&gt;Node5</title>
<path fill="none" stroke="#191970" d="M324.3042,-181.9063C337.4052,-180.0608 351.6524,-178.0539 365.5416,-176.0974"/>
<polygon fill="#191970" stroke="#191970" points="366.1563,-179.5454 375.5703,-174.6847 365.1798,-172.6138 366.1563,-179.5454"/>
</g>
<!-- Node14 -->
<g id="node15" class="node">
<title>Node14</title>
<g id="a_node15"><a xlink:href="../../d4/df4/namespacetensorflow_1_1tfcompile_1_1anonymous__namespace_02compile_8cc_03.html#a40f8a019f31fa8cbe2fff5d90e69c21b" target="_top" xlink:title="Compiles the XLA computation into executable code. ">
<polygon fill="#ffffff" stroke="#000000" points="375.5142,-94.5 375.5142,-132.5 506.0308,-132.5 506.0308,-94.5 375.5142,-94.5"/>
<text text-anchor="start" x="383.5142" y="-120.5" font-family="Helvetica,sans-Serif" font-size="10.00" fill="#000000">tensorflow::tfcompile</text>
<text text-anchor="start" x="383.5142" y="-110.5" font-family="Helvetica,sans-Serif" font-size="10.00" fill="#000000">::anonymous_namespace</text>
<text text-anchor="middle" x="440.7725" y="-100.5" font-family="Helvetica,sans-Serif" font-size="10.00" fill="#000000">{compile::cc}::CompileXla</text>
</a>
</g>
</g>
<!-- Node3&#45;&gt;Node14 -->
<g id="edge16" class="edge">
<title>Node3&#45;&gt;Node14</title>
<path fill="none" stroke="#191970" d="M295.0375,-175.3858C312.7807,-165.5176 337.4594,-152.3882 359.9697,-142.5 364.7095,-140.4179 369.6506,-138.367 374.6512,-136.377"/>
<polygon fill="#191970" stroke="#191970" points="376.2459,-139.5126 384.3036,-132.6333 373.7146,-132.9863 376.2459,-139.5126"/>
</g>
<!-- Node6 -->
<g id="node7" class="node">
<title>Node6</title>
<g id="a_node7"><a xlink:href="../../d3/dfa/namespacetensorflow_1_1anonymous__namespace_02tf2xla_8cc_03.html#aeef0cda05958b2b855b0e2fbe07b1314" target="_top" xlink:title="InitGraph creates a graph based on the graph_def, that may then be convert to an xla::Computation via...">
<polygon fill="#ffffff" stroke="#000000" points="557.6582,-188.5 557.6582,-226.5 677.0566,-226.5 677.0566,-188.5 557.6582,-188.5"/>
<text text-anchor="start" x="565.6582" y="-214.5" font-family="Helvetica,sans-Serif" font-size="10.00" fill="#000000">tensorflow::anonymous</text>
<text text-anchor="start" x="565.6582" y="-204.5" font-family="Helvetica,sans-Serif" font-size="10.00" fill="#000000">_namespace{tf2xla::cc}</text>
<text text-anchor="middle" x="617.3574" y="-194.5" font-family="Helvetica,sans-Serif" font-size="10.00" fill="#000000">::InitGraph</text>
</a>
</g>
</g>
<!-- Node5&#45;&gt;Node6 -->
<g id="edge6" class="edge">
<title>Node5&#45;&gt;Node6</title>
<path fill="none" stroke="#191970" d="M500.0639,-179.6022C515.2693,-183.2188 531.7656,-187.1423 547.4517,-190.8732"/>
<polygon fill="#191970" stroke="#191970" points="547.0824,-194.383 557.6209,-193.2919 548.7022,-187.5729 547.0824,-194.383"/>
</g>
<!-- Node12 -->
<g id="node13" class="node">
<title>Node12</title>
<g id="a_node13"><a xlink:href="../../d3/dfa/namespacetensorflow_1_1anonymous__namespace_02tf2xla_8cc_03.html#a8bea171341441170c6d6c7dbb0b3227d" target="_top" xlink:title="Converts the TensorFlow graph into an XLA computation, by executing the graph symbolically, with each op building up the XLA HLO. ">
<polygon fill="#ffffff" stroke="#000000" points="557.6582,-110.5 557.6582,-148.5 677.0566,-148.5 677.0566,-110.5 557.6582,-110.5"/>
<text text-anchor="start" x="565.6582" y="-136.5" font-family="Helvetica,sans-Serif" font-size="10.00" fill="#000000">tensorflow::anonymous</text>
<text text-anchor="start" x="565.6582" y="-126.5" font-family="Helvetica,sans-Serif" font-size="10.00" fill="#000000">_namespace{tf2xla::cc}</text>
<text text-anchor="middle" x="617.3574" y="-116.5" font-family="Helvetica,sans-Serif" font-size="10.00" fill="#000000">::ConvertGraphToXla</text>
</a>
</g>
</g>
<!-- Node5&#45;&gt;Node12 -->
<g id="edge14" class="edge">
<title>Node5&#45;&gt;Node12</title>
<path fill="none" stroke="#191970" d="M505.7739,-152.2483C519.3848,-149.4735 533.791,-146.5365 547.5678,-143.7279"/>
<polygon fill="#191970" stroke="#191970" points="548.3687,-147.1367 557.468,-141.7095 546.9703,-140.2777 548.3687,-147.1367"/>
</g>
<!-- Node6&#45;&gt;Node2 -->
<g id="edge7" class="edge">
<title>Node6&#45;&gt;Node2</title>
<path fill="none" stroke="#191970" d="M633.9057,-226.8512C658.6419,-255.5871 703.4031,-306.7878 713.1396,-312.5 716.5686,-314.5117 720.2072,-316.2986 723.964,-317.8858"/>
<polygon fill="#191970" stroke="#191970" points="722.901,-321.2247 733.4938,-321.4342 725.3436,-314.6647 722.901,-321.2247"/>
</g>
<!-- Node7 -->
<g id="node8" class="node">
<title>Node7</title>
<g id="a_node8"><a xlink:href="../../de/d86/namespacetensorflow.html#ac287ab9f1996e3d9086f8500c777ee9b" target="_top" xlink:title="Generate corresponding placeholder for each feed tensor. Traverse each inputs of each nodes...">
<polygon fill="#ffffff" stroke="#000000" points="718.6963,-274.5 718.6963,-302.5 861.4346,-302.5 861.4346,-274.5 718.6963,-274.5"/>
<text text-anchor="start" x="726.6963" y="-290.5" font-family="Helvetica,sans-Serif" font-size="10.00" fill="#000000">tensorflow::AddPlaceholders</text>
<text text-anchor="middle" x="790.0654" y="-280.5" font-family="Helvetica,sans-Serif" font-size="10.00" fill="#000000">ForFeeds</text>
</a>
</g>
</g>
<!-- Node6&#45;&gt;Node7 -->
<g id="edge8" class="edge">
<title>Node6&#45;&gt;Node7</title>
<path fill="none" stroke="#191970" d="M650.0351,-226.6863C668.2902,-237.0347 691.6306,-249.663 713.1396,-259.5 721.8096,-263.4652 731.1925,-267.3355 740.3258,-270.8905"/>
<polygon fill="#191970" stroke="#191970" points="739.1224,-274.1774 749.7132,-274.4718 741.6176,-267.6372 739.1224,-274.1774"/>
</g>
<!-- Node8 -->
<g id="node9" class="node">
<title>Node8</title>
<g id="a_node9"><a xlink:href="../../de/d86/namespacetensorflow.html#a491706512ccc1517e499cbdb810aa6ab" target="_top" xlink:title="Assign each NodeDefs of GraphDef default values. ">
<polygon fill="#ffffff" stroke="#000000" points="902.9912,-252.5 902.9912,-280.5 1040.1582,-280.5 1040.1582,-252.5 902.9912,-252.5"/>
<text text-anchor="start" x="910.9912" y="-268.5" font-family="Helvetica,sans-Serif" font-size="10.00" fill="#000000">tensorflow::AddDefaultAttrs</text>
<text text-anchor="middle" x="971.5747" y="-258.5" font-family="Helvetica,sans-Serif" font-size="10.00" fill="#000000">ToGraphDef</text>
</a>
</g>
</g>
<!-- Node6&#45;&gt;Node8 -->
<g id="edge11" class="edge">
<title>Node6&#45;&gt;Node8</title>
<path fill="none" stroke="#191970" d="M677.0642,-219.7487C688.9964,-222.0823 701.4533,-224.4375 713.1396,-226.5 773.2892,-237.1158 841.5904,-247.6207 892.8645,-255.1995"/>
<polygon fill="#191970" stroke="#191970" points="892.4815,-258.6808 902.8849,-256.6754 893.5016,-251.7555 892.4815,-258.6808"/>
</g>
<!-- Node9 -->
<g id="node10" class="node">
<title>Node9</title>
<g id="a_node10"><a xlink:href="../../de/d86/namespacetensorflow.html#ac09f7fb26bddd7564249fd5d1b255435" target="_top" xlink:title="Remove source nodes of feed tensor. Because they are removed at tensorflow::AddPlaceholdersForFeeds ...">
<polygon fill="#ffffff" stroke="#000000" points="713.1396,-198.5 713.1396,-216.5 866.9912,-216.5 866.9912,-198.5 713.1396,-198.5"/>
<text text-anchor="middle" x="790.0654" y="-204.5" font-family="Helvetica,sans-Serif" font-size="10.00" fill="#000000">tensorflow::PruneGraphDefInto</text>
</a>
</g>
</g>
<!-- Node6&#45;&gt;Node9 -->
<g id="edge10" class="edge">
<title>Node6&#45;&gt;Node9</title>
<path fill="none" stroke="#191970" d="M677.2776,-207.5C685.5406,-207.5 694.1609,-207.5 702.7934,-207.5"/>
<polygon fill="#191970" stroke="#191970" points="702.9123,-211.0001 712.9122,-207.5 702.9122,-204.0001 702.9123,-211.0001"/>
</g>
<!-- Node10 -->
<g id="node11" class="node">
<title>Node10</title>
<g id="a_node11"><a xlink:href="../../de/d86/namespacetensorflow.html#a43875c6284c3af69e7a420b67c7eec6b" target="_top" xlink:title="Convert GraphDef defined protobuf to type Graph ">
<polygon fill="#ffffff" stroke="#000000" points="725.0952,-151.5 725.0952,-179.5 855.0356,-179.5 855.0356,-151.5 725.0952,-151.5"/>
<text text-anchor="start" x="733.0952" y="-167.5" font-family="Helvetica,sans-Serif" font-size="10.00" fill="#000000">tensorflow::ConvertGraph</text>
<text text-anchor="middle" x="790.0654" y="-157.5" font-family="Helvetica,sans-Serif" font-size="10.00" fill="#000000">DefToGraph</text>
</a>
</g>
</g>
<!-- Node6&#45;&gt;Node10 -->
<g id="edge12" class="edge">
<title>Node6&#45;&gt;Node10</title>
<path fill="none" stroke="#191970" d="M677.2776,-192.9283C691.7637,-189.4055 707.348,-185.6156 722.1712,-182.0109"/>
<polygon fill="#191970" stroke="#191970" points="723.3991,-185.3143 732.2888,-179.5504 721.745,-178.5126 723.3991,-185.3143"/>
</g>
<!-- Node11 -->
<g id="node12" class="node">
<title>Node11</title>
<g id="a_node12"><a xlink:href="../../d3/dfa/namespacetensorflow_1_1anonymous__namespace_02tf2xla_8cc_03.html#af0d9ad360ae01cf7c15abe04de99b230" target="_top" xlink:title="tensorflow::anonymous\l_namespace\{tf2xla::cc\}\l::RewriteAndPruneGraph">
<polygon fill="#ffffff" stroke="#000000" points="726.2036,-94.5 726.2036,-132.5 853.9272,-132.5 853.9272,-94.5 726.2036,-94.5"/>
<text text-anchor="start" x="734.2036" y="-120.5" font-family="Helvetica,sans-Serif" font-size="10.00" fill="#000000">tensorflow::anonymous</text>
<text text-anchor="start" x="734.2036" y="-110.5" font-family="Helvetica,sans-Serif" font-size="10.00" fill="#000000">_namespace{tf2xla::cc}</text>
<text text-anchor="middle" x="790.0654" y="-100.5" font-family="Helvetica,sans-Serif" font-size="10.00" fill="#000000">::RewriteAndPruneGraph</text>
</a>
</g>
</g>
<!-- Node6&#45;&gt;Node11 -->
<g id="edge13" class="edge">
<title>Node6&#45;&gt;Node11</title>
<path fill="none" stroke="#191970" d="M641.9566,-188.4193C660.7308,-174.4605 687.6278,-155.729 713.1396,-142.5 717.0952,-140.4489 721.23,-138.4667 725.4415,-136.5672"/>
<polygon fill="#191970" stroke="#191970" points="726.9535,-139.7267 734.744,-132.5463 724.1761,-133.3013 726.9535,-139.7267"/>
</g>
<!-- Node7&#45;&gt;Node8 -->
<g id="edge9" class="edge">
<title>Node7&#45;&gt;Node8</title>
<path fill="none" stroke="#191970" d="M861.5422,-279.8366C871.7355,-278.6011 882.269,-277.3244 892.5956,-276.0727"/>
<polygon fill="#191970" stroke="#191970" points="893.3269,-279.5098 902.833,-274.8319 892.4845,-272.5607 893.3269,-279.5098"/>
</g>
<!-- Node13 -->
<g id="node14" class="node">
<title>Node13</title>
<g id="a_node14"><a xlink:href="../../d9/de9/classtensorflow_1_1XlaOpRegistry.html#a504bd86e27f0fedc9c5dcb82af983bfb" target="_top" xlink:title="tensorflow::XlaOpRegistry\l::RegisterCompilationKernels">
<polygon fill="#ffffff" stroke="#000000" points="717.3145,-47.5 717.3145,-75.5 862.8164,-75.5 862.8164,-47.5 717.3145,-47.5"/>
<text text-anchor="start" x="725.3145" y="-63.5" font-family="Helvetica,sans-Serif" font-size="10.00" fill="#000000">tensorflow::XlaOpRegistry</text>
<text text-anchor="middle" x="790.0654" y="-53.5" font-family="Helvetica,sans-Serif" font-size="10.00" fill="#000000">::RegisterCompilationKernels</text>
</a>
</g>
</g>
<!-- Node12&#45;&gt;Node13 -->
<g id="edge15" class="edge">
<title>Node12&#45;&gt;Node13</title>
<path fill="none" stroke="#191970" d="M656.0189,-110.3684C673.2804,-102.1849 694.0055,-92.8449 713.1396,-85.5 719.1395,-83.1969 725.463,-80.9475 731.801,-78.8068"/>
<polygon fill="#191970" stroke="#191970" points="733.3231,-81.9906 741.7279,-75.5401 731.135,-75.3414 733.3231,-81.9906"/>
</g>
<!-- Node15 -->
<g id="node16" class="node">
<title>Node15</title>
<g id="a_node16"><a xlink:href="../../d1/dd1/classxla_1_1CompileOnlyClient.html#a5a585d21f617b77a1cecc1b587d18d7a" target="_top" xlink:title="Compiles a list of computations for ahead&#45;of&#45;time execution. This is intended for use in static compi...">
<polygon fill="#ffffff" stroke="#000000" points="557.5752,-21.5 557.5752,-49.5 677.1396,-49.5 677.1396,-21.5 557.5752,-21.5"/>
<text text-anchor="start" x="565.5752" y="-37.5" font-family="Helvetica,sans-Serif" font-size="10.00" fill="#000000">xla::CompileOnlyClient</text>
<text text-anchor="middle" x="617.3574" y="-27.5" font-family="Helvetica,sans-Serif" font-size="10.00" fill="#000000">::CompileAheadOfTime</text>
</a>
</g>
</g>
<!-- Node14&#45;&gt;Node15 -->
<g id="edge17" class="edge">
<title>Node14&#45;&gt;Node15</title>
<path fill="none" stroke="#191970" d="M483.97,-94.4191C512.0102,-82.0333 548.3451,-65.9837 576.0097,-53.7639"/>
<polygon fill="#191970" stroke="#191970" points="577.6724,-56.8557 585.4056,-49.6136 574.844,-50.4526 577.6724,-56.8557"/>
</g>
<!-- Node16 -->
<g id="node17" class="node">
<title>Node16</title>
<g id="a_node17"><a xlink:href="../../dc/d07/classxla_1_1CompileOnlyService.html#aceb67616a89167b9af1bf23d17ec37c9" target="_top" xlink:title="xla::CompileOnlyService\l::CompileAheadOfTime">
<polygon fill="#ffffff" stroke="#000000" points="727.6025,-.5 727.6025,-28.5 852.5283,-28.5 852.5283,-.5 727.6025,-.5"/>
<text text-anchor="start" x="735.6025" y="-16.5" font-family="Helvetica,sans-Serif" font-size="10.00" fill="#000000">xla::CompileOnlyService</text>
<text text-anchor="middle" x="790.0654" y="-6.5" font-family="Helvetica,sans-Serif" font-size="10.00" fill="#000000">::CompileAheadOfTime</text>
</a>
</g>
</g>
<!-- Node15&#45;&gt;Node16 -->
<g id="edge18" class="edge">
<title>Node15&#45;&gt;Node16</title>
<path fill="none" stroke="#191970" d="M677.2776,-28.2142C690.1653,-26.6471 703.9222,-24.9744 717.2391,-23.3551"/>
<polygon fill="#191970" stroke="#191970" points="717.8107,-26.8115 727.3151,-22.13 716.9657,-19.8627 717.8107,-26.8115"/>
</g>
</g>
</svg>
