<?xml version="1.0" encoding="UTF-8" standalone="no"?>
<!DOCTYPE svg PUBLIC "-//W3C//DTD SVG 1.1//EN"
 "http://www.w3.org/Graphics/SVG/1.1/DTD/svg11.dtd">
<!-- Generated by graphviz version 2.38.0 (20140413.2041)
 -->
<!-- Title: main Pages: 1 -->
<!--zoomable 361 -->
<svg id="main" version="1.1" xmlns="http://www.w3.org/2000/svg" xmlns:xlink="http://www.w3.org/1999/xlink" xml:space="preserve" onload="init(evt)">
<style type="text/css"><![CDATA[
.edge:hover path { stroke: red; }
.edge:hover polygon { stroke: red; fill: red; }
]]></style>
<script type="text/javascript"><![CDATA[
var edges = document.getElementsByTagName('g');
if (edges && edges.length) {
  for (var i=0;i<edges.length;i++) {
    if (edges[i].id.substr(0,4)=='edge') {
      edges[i].setAttribute('class','edge');
    }
  }
}
]]></script>
        <defs>
                <circle id="rim" cx="0" cy="0" r="7"/>
                <circle id="rim2" cx="0" cy="0" r="3.5"/>
                <g id="zoomPlus">
                        <use xlink:href="#rim" fill="#404040">
                                <set attributeName="fill" to="#808080" begin="zoomplus.mouseover" end="zoomplus.mouseout"/>
                        </use>
                        <path d="M-4,0h8M0,-4v8" fill="none" stroke="white" stroke-width="1.5" pointer-events="none"/>
                </g>
                <g id="zoomMin">
                        <use xlink:href="#rim" fill="#404040">
                                <set attributeName="fill" to="#808080" begin="zoomminus.mouseover" end="zoomminus.mouseout"/>
                        </use>
                        <path d="M-4,0h8" fill="none" stroke="white" stroke-width="1.5" pointer-events="none"/>
                </g>
                <g id="dirArrow">
                        <path fill="none" stroke="white" stroke-width="1.5" d="M0,-3.0v7 M-2.5,-0.5L0,-3.0L2.5,-0.5"/>
                </g>
               <g id="resetDef">
                       <use xlink:href="#rim2" fill="#404040">
                               <set attributeName="fill" to="#808080" begin="reset.mouseover" end="reset.mouseout"/>
                       </use>
               </g>
        </defs>

<script type="text/javascript">
var viewWidth = 1044;
var viewHeight = 361;
var sectionId = 'dynsection-1';
</script>
<script xlink:href="../../svgpan.js"/>
<svg id="graph" class="graph">
<g id="viewport">
<title>main</title>
<polygon fill="white" stroke="none" points="-4,4 -4,-356.5 1040,-356.5 1040,4 -4,4"/>
<!-- Node1 -->
<g id="node1" class="node"><title>Node1</title>
<polygon fill="#bfbfbf" stroke="black" points="0,-235 0,-254 38,-254 38,-235 0,-235"/>
<text text-anchor="middle" x="19" y="-242" font-family="Helvetica,sans-Serif" font-size="10.00">main</text>
</g>
<!-- Node2 -->
<g id="node2" class="node"><title>Node2</title>
<g id="a_node2"><a xlink:href="../../d7/d38/namespacetensorflow_1_1tfcompile.html#a460964a5bb277865d1275fe3746132c1" target="_top" xlink:title="tensorflow::tfcompile\l::Main">
<polygon fill="white" stroke="black" points="74,-229.5 74,-259.5 181,-259.5 181,-229.5 74,-229.5"/>
<text text-anchor="start" x="82" y="-247.5" font-family="Helvetica,sans-Serif" font-size="10.00">tensorflow::tfcompile</text>
<text text-anchor="middle" x="127.5" y="-236.5" font-family="Helvetica,sans-Serif" font-size="10.00">::Main</text>
</a>
</g>
</g>
<!-- Node1&#45;&gt;Node2 -->
<g id="edge1" class="edge"><title>Node1&#45;&gt;Node2</title>
<path fill="none" stroke="midnightblue" d="M38.0663,-244.5C45.388,-244.5 54.3161,-244.5 63.6512,-244.5"/>
<polygon fill="midnightblue" stroke="midnightblue" points="63.8838,-248 73.8838,-244.5 63.8837,-241 63.8838,-248"/>
</g>
<!-- Node3 -->
<g id="node3" class="node"><title>Node3</title>
<g id="a_node3"><a xlink:href="../../de/d86/namespacetensorflow.html#aaeeec358e2be013353667dd7c0a6dbaa" target="_top" xlink:title="tensorflow::ValidateConfig">
<polygon fill="white" stroke="black" points="721.5,-333 721.5,-352 852.5,-352 852.5,-333 721.5,-333"/>
<text text-anchor="middle" x="787" y="-340" font-family="Helvetica,sans-Serif" font-size="10.00">tensorflow::ValidateConfig</text>
</a>
</g>
</g>
<!-- Node2&#45;&gt;Node3 -->
<g id="edge2" class="edge"><title>Node2&#45;&gt;Node3</title>
<path fill="none" stroke="midnightblue" d="M181.195,-252.354C297.765,-269.729 577.758,-311.462 711.904,-331.456"/>
<polygon fill="midnightblue" stroke="midnightblue" points="711.679,-334.961 722.086,-332.974 712.711,-328.038 711.679,-334.961"/>
</g>
<!-- Node4 -->
<g id="node4" class="node"><title>Node4</title>
<g id="a_node4"><a xlink:href="../../d7/d38/namespacetensorflow_1_1tfcompile.html#a021cb1c58d938b16dcd998aa8d1fc191" target="_top" xlink:title="Converts the graph into an XLA computation, and compiles the computation. Called by tensorflow::tfcom...">
<polygon fill="white" stroke="black" points="217,-163.5 217,-193.5 324,-193.5 324,-163.5 217,-163.5"/>
<text text-anchor="start" x="225" y="-181.5" font-family="Helvetica,sans-Serif" font-size="10.00">tensorflow::tfcompile</text>
<text text-anchor="middle" x="270.5" y="-170.5" font-family="Helvetica,sans-Serif" font-size="10.00">::CompileGraph</text>
</a>
</g>
</g>
<!-- Node2&#45;&gt;Node4 -->
<g id="edge3" class="edge"><title>Node2&#45;&gt;Node4</title>
<path fill="none" stroke="midnightblue" d="M160.848,-229.358C180.821,-220.009 206.639,-207.924 228.096,-197.881"/>
<polygon fill="midnightblue" stroke="midnightblue" points="229.729,-200.981 237.302,-193.571 226.762,-194.641 229.729,-200.981"/>
</g>
<!-- Node5 -->
<g id="node5" class="node"><title>Node5</title>
<g id="a_node5"><a xlink:href="../../d5/ddb/classxla_1_1ClientLibrary.html#a5e940d153e6cfd72b34b2b8b89220f50" target="_top" xlink:title="xla::ClientLibrary\l::GetOrCreateCompileOnlyClient">
<polygon fill="white" stroke="black" points="360,-188.5 360,-218.5 520,-218.5 520,-188.5 360,-188.5"/>
<text text-anchor="start" x="368" y="-206.5" font-family="Helvetica,sans-Serif" font-size="10.00">xla::ClientLibrary</text>
<text text-anchor="middle" x="440" y="-195.5" font-family="Helvetica,sans-Serif" font-size="10.00">::GetOrCreateCompileOnlyClient</text>
</a>
</g>
</g>
<!-- Node4&#45;&gt;Node5 -->
<g id="edge4" class="edge"><title>Node4&#45;&gt;Node5</title>
<path fill="none" stroke="midnightblue" d="M324.038,-186.342C332.334,-187.58 341.106,-188.889 349.957,-190.21"/>
<polygon fill="midnightblue" stroke="midnightblue" points="349.555,-193.689 359.962,-191.703 350.589,-186.765 349.555,-193.689"/>
</g>
<!-- Node6 -->
<g id="node6" class="node"><title>Node6</title>
<g id="a_node6"><a xlink:href="../../de/d86/namespacetensorflow.html#a6f8fce5955ec6d67cd1762891d4830e9" target="_top" xlink:title="Convert tensorflow graph_def to XLA UserComputation. ">
<polygon fill="white" stroke="black" points="376,-139.5 376,-169.5 504,-169.5 504,-139.5 376,-139.5"/>
<text text-anchor="start" x="384" y="-157.5" font-family="Helvetica,sans-Serif" font-size="10.00">tensorflow::ConvertGraph</text>
<text text-anchor="middle" x="440" y="-146.5" font-family="Helvetica,sans-Serif" font-size="10.00">DefToXla</text>
</a>
</g>
</g>
<!-- Node4&#45;&gt;Node6 -->
<g id="edge5" class="edge"><title>Node4&#45;&gt;Node6</title>
<path fill="none" stroke="midnightblue" d="M324.038,-170.972C337.24,-169.081 351.649,-167.016 365.664,-165.008"/>
<polygon fill="midnightblue" stroke="midnightblue" points="366.373,-168.442 375.775,-163.559 365.38,-161.513 366.373,-168.442"/>
</g>
<!-- Node15 -->
<g id="node15" class="node"><title>Node15</title>
<g id="a_node15"><a xlink:href="../../d4/df4/namespacetensorflow_1_1tfcompile_1_1anonymous__namespace_02compile_8cc_03.html#a40f8a019f31fa8cbe2fff5d90e69c21b" target="_top" xlink:title="Compiles the XLA computation into executable code. ">
<polygon fill="white" stroke="black" points="375.5,-48 375.5,-89 504.5,-89 504.5,-48 375.5,-48"/>
<text text-anchor="start" x="383.5" y="-77" font-family="Helvetica,sans-Serif" font-size="10.00">tensorflow::tfcompile</text>
<text text-anchor="start" x="383.5" y="-66" font-family="Helvetica,sans-Serif" font-size="10.00">::anonymous_namespace</text>
<text text-anchor="middle" x="440" y="-55" font-family="Helvetica,sans-Serif" font-size="10.00">{compile::cc}::CompileXla</text>
</a>
</g>
</g>
<!-- Node4&#45;&gt;Node15 -->
<g id="edge16" class="edge"><title>Node4&#45;&gt;Node15</title>
<path fill="none" stroke="midnightblue" d="M294.439,-163.436C321.334,-145.773 366.382,-116.189 399.053,-94.7336"/>
<polygon fill="midnightblue" stroke="midnightblue" points="401.056,-97.6055 407.494,-89.1907 397.214,-91.7544 401.056,-97.6055"/>
</g>
<!-- Node7 -->
<g id="node7" class="node"><title>Node7</title>
<g id="a_node7"><a xlink:href="../../d3/dfa/namespacetensorflow_1_1anonymous__namespace_02tf2xla_8cc_03.html#aeef0cda05958b2b855b0e2fbe07b1314" target="_top" xlink:title="InitGraph creates a graph based on the graph_def, that may then be convert to an xla::Computation via...">
<polygon fill="white" stroke="black" points="556,-196 556,-237 675,-237 675,-196 556,-196"/>
<text text-anchor="start" x="564" y="-225" font-family="Helvetica,sans-Serif" font-size="10.00">tensorflow::anonymous</text>
<text text-anchor="start" x="564" y="-214" font-family="Helvetica,sans-Serif" font-size="10.00">_namespace{tf2xla::cc}</text>
<text text-anchor="middle" x="615.5" y="-203" font-family="Helvetica,sans-Serif" font-size="10.00">::InitGraph</text>
</a>
</g>
</g>
<!-- Node6&#45;&gt;Node7 -->
<g id="edge6" class="edge"><title>Node6&#45;&gt;Node7</title>
<path fill="none" stroke="midnightblue" d="M493.054,-169.607C502.083,-172.429 511.347,-175.452 520,-178.5 531.845,-182.672 544.39,-187.453 556.335,-192.185"/>
<polygon fill="midnightblue" stroke="midnightblue" points="555.177,-195.491 565.762,-195.957 557.778,-188.992 555.177,-195.491"/>
</g>
<!-- Node13 -->
<g id="node13" class="node"><title>Node13</title>
<g id="a_node13"><a xlink:href="../../d3/dfa/namespacetensorflow_1_1anonymous__namespace_02tf2xla_8cc_03.html#a8bea171341441170c6d6c7dbb0b3227d" target="_top" xlink:title="Converts the TensorFlow graph into an XLA computation, by executing the graph symbolically, with each op building up the XLA HLO. ">
<polygon fill="white" stroke="black" points="556,-93 556,-134 675,-134 675,-93 556,-93"/>
<text text-anchor="start" x="564" y="-122" font-family="Helvetica,sans-Serif" font-size="10.00">tensorflow::anonymous</text>
<text text-anchor="start" x="564" y="-111" font-family="Helvetica,sans-Serif" font-size="10.00">_namespace{tf2xla::cc}</text>
<text text-anchor="middle" x="615.5" y="-100" font-family="Helvetica,sans-Serif" font-size="10.00">::ConvertGraphToXla</text>
</a>
</g>
</g>
<!-- Node6&#45;&gt;Node13 -->
<g id="edge14" class="edge"><title>Node6&#45;&gt;Node13</title>
<path fill="none" stroke="midnightblue" d="M504.128,-139.582C517.694,-136.376 532.095,-132.973 545.859,-129.721"/>
<polygon fill="midnightblue" stroke="midnightblue" points="546.821,-133.09 555.748,-127.384 545.211,-126.278 546.821,-133.09"/>
</g>
<!-- Node7&#45;&gt;Node3 -->
<g id="edge7" class="edge"><title>Node7&#45;&gt;Node3</title>
<path fill="none" stroke="midnightblue" d="M639.366,-237.017C650.57,-247.501 663.985,-260.716 675,-273.5 692.874,-294.245 688.36,-308.096 711,-323.5 713.92,-325.487 717.032,-327.266 720.265,-328.859"/>
<polygon fill="midnightblue" stroke="midnightblue" points="719.069,-332.155 729.639,-332.875 721.825,-325.72 719.069,-332.155"/>
</g>
<!-- Node8 -->
<g id="node8" class="node"><title>Node8</title>
<g id="a_node8"><a xlink:href="../../de/d86/namespacetensorflow.html#ac287ab9f1996e3d9086f8500c777ee9b" target="_top" xlink:title="Generate corresponding placeholder for each feed tensor. Traverse each inputs of each nodes...">
<polygon fill="white" stroke="black" points="716.5,-283.5 716.5,-313.5 857.5,-313.5 857.5,-283.5 716.5,-283.5"/>
<text text-anchor="start" x="724.5" y="-301.5" font-family="Helvetica,sans-Serif" font-size="10.00">tensorflow::AddPlaceholders</text>
<text text-anchor="middle" x="787" y="-290.5" font-family="Helvetica,sans-Serif" font-size="10.00">ForFeeds</text>
</a>
</g>
</g>
<!-- Node7&#45;&gt;Node8 -->
<g id="edge8" class="edge"><title>Node7&#45;&gt;Node8</title>
<path fill="none" stroke="midnightblue" d="M651.417,-237.052C669.019,-247.067 690.855,-258.973 711,-268.5 719.014,-272.29 727.642,-276.037 736.094,-279.532"/>
<polygon fill="midnightblue" stroke="midnightblue" points="734.937,-282.84 745.519,-283.359 737.57,-276.354 734.937,-282.84"/>
</g>
<!-- Node9 -->
<g id="node9" class="node"><title>Node9</title>
<g id="a_node9"><a xlink:href="../../de/d86/namespacetensorflow.html#a491706512ccc1517e499cbdb810aa6ab" target="_top" xlink:title="Assign each NodeDefs of GraphDef default values. ">
<polygon fill="white" stroke="black" points="899,-261.5 899,-291.5 1036,-291.5 1036,-261.5 899,-261.5"/>
<text text-anchor="start" x="907" y="-279.5" font-family="Helvetica,sans-Serif" font-size="10.00">tensorflow::AddDefaultAttrs</text>
<text text-anchor="middle" x="967.5" y="-268.5" font-family="Helvetica,sans-Serif" font-size="10.00">ToGraphDef</text>
</a>
</g>
</g>
<!-- Node7&#45;&gt;Node9 -->
<g id="edge11" class="edge"><title>Node7&#45;&gt;Node9</title>
<path fill="none" stroke="midnightblue" d="M675.159,-228.666C687.008,-231.019 699.39,-233.402 711,-235.5 770.579,-246.265 838.236,-257.059 888.954,-264.867"/>
<polygon fill="midnightblue" stroke="midnightblue" points="888.45,-268.33 898.865,-266.388 889.512,-261.411 888.45,-268.33"/>
</g>
<!-- Node10 -->
<g id="node10" class="node"><title>Node10</title>
<g id="a_node10"><a xlink:href="../../de/d86/namespacetensorflow.html#ac09f7fb26bddd7564249fd5d1b255435" target="_top" xlink:title="Remove source nodes of feed tensor. Because they are removed at tensorflow::AddPlaceholdersForFeeds ...">
<polygon fill="white" stroke="black" points="711,-207 711,-226 863,-226 863,-207 711,-207"/>
<text text-anchor="middle" x="787" y="-214" font-family="Helvetica,sans-Serif" font-size="10.00">tensorflow::PruneGraphDefInto</text>
</a>
</g>
</g>
<!-- Node7&#45;&gt;Node10 -->
<g id="edge10" class="edge"><title>Node7&#45;&gt;Node10</title>
<path fill="none" stroke="midnightblue" d="M675.307,-216.5C683.554,-216.5 692.164,-216.5 700.78,-216.5"/>
<polygon fill="midnightblue" stroke="midnightblue" points="700.876,-220 710.876,-216.5 700.876,-213 700.876,-220"/>
</g>
<!-- Node11 -->
<g id="node11" class="node"><title>Node11</title>
<g id="a_node11"><a xlink:href="../../de/d86/namespacetensorflow.html#a43875c6284c3af69e7a420b67c7eec6b" target="_top" xlink:title="Convert GraphDef defined protobuf to type Graph ">
<polygon fill="white" stroke="black" points="723,-157.5 723,-187.5 851,-187.5 851,-157.5 723,-157.5"/>
<text text-anchor="start" x="731" y="-175.5" font-family="Helvetica,sans-Serif" font-size="10.00">tensorflow::ConvertGraph</text>
<text text-anchor="middle" x="787" y="-164.5" font-family="Helvetica,sans-Serif" font-size="10.00">DefToGraph</text>
</a>
</g>
</g>
<!-- Node7&#45;&gt;Node11 -->
<g id="edge12" class="edge"><title>Node7&#45;&gt;Node11</title>
<path fill="none" stroke="midnightblue" d="M675.307,-201.234C689.213,-197.625 704.151,-193.747 718.412,-190.045"/>
<polygon fill="midnightblue" stroke="midnightblue" points="719.356,-193.416 728.156,-187.516 717.597,-186.641 719.356,-193.416"/>
</g>
<!-- Node12 -->
<g id="node12" class="node"><title>Node12</title>
<g id="a_node12"><a xlink:href="../../d3/dfa/namespacetensorflow_1_1anonymous__namespace_02tf2xla_8cc_03.html#af0d9ad360ae01cf7c15abe04de99b230" target="_top" xlink:title="tensorflow::anonymous\l_namespace\{tf2xla::cc\}\l::RewriteAndPruneGraph">
<polygon fill="white" stroke="black" points="724.5,-98 724.5,-139 849.5,-139 849.5,-98 724.5,-98"/>
<text text-anchor="start" x="732.5" y="-127" font-family="Helvetica,sans-Serif" font-size="10.00">tensorflow::anonymous</text>
<text text-anchor="start" x="732.5" y="-116" font-family="Helvetica,sans-Serif" font-size="10.00">_namespace{tf2xla::cc}</text>
<text text-anchor="middle" x="787" y="-105" font-family="Helvetica,sans-Serif" font-size="10.00">::RewriteAndPruneGraph</text>
</a>
</g>
</g>
<!-- Node7&#45;&gt;Node12 -->
<g id="edge13" class="edge"><title>Node7&#45;&gt;Node12</title>
<path fill="none" stroke="midnightblue" d="M640.967,-195.862C659.376,-181.043 685.683,-161.325 711,-147.5 713.527,-146.12 716.134,-144.774 718.791,-143.466"/>
<polygon fill="midnightblue" stroke="midnightblue" points="720.403,-146.576 727.977,-139.168 717.436,-140.236 720.403,-146.576"/>
</g>
<!-- Node8&#45;&gt;Node9 -->
<g id="edge9" class="edge"><title>Node8&#45;&gt;Node9</title>
<path fill="none" stroke="midnightblue" d="M857.524,-289.931C867.835,-288.66 878.516,-287.344 888.979,-286.054"/>
<polygon fill="midnightblue" stroke="midnightblue" points="889.427,-289.526 898.923,-284.829 888.57,-282.578 889.427,-289.526"/>
</g>
<!-- Node14 -->
<g id="node14" class="node"><title>Node14</title>
<g id="a_node14"><a xlink:href="../../d9/de9/classtensorflow_1_1XlaOpRegistry.html#a504bd86e27f0fedc9c5dcb82af983bfb" target="_top" xlink:title="tensorflow::XlaOpRegistry\l::RegisterCompilationKernels">
<polygon fill="white" stroke="black" points="715,-49.5 715,-79.5 859,-79.5 859,-49.5 715,-49.5"/>
<text text-anchor="start" x="723" y="-67.5" font-family="Helvetica,sans-Serif" font-size="10.00">tensorflow::XlaOpRegistry</text>
<text text-anchor="middle" x="787" y="-56.5" font-family="Helvetica,sans-Serif" font-size="10.00">::RegisterCompilationKernels</text>
</a>
</g>
</g>
<!-- Node13&#45;&gt;Node14 -->
<g id="edge15" class="edge"><title>Node13&#45;&gt;Node14</title>
<path fill="none" stroke="midnightblue" d="M675.307,-96.4997C691.144,-91.9216 708.318,-86.9568 724.307,-82.3347"/>
<polygon fill="midnightblue" stroke="midnightblue" points="725.452,-85.647 734.086,-79.5075 723.508,-78.9224 725.452,-85.647"/>
</g>
<!-- Node16 -->
<g id="node16" class="node"><title>Node16</title>
<g id="a_node16"><a xlink:href="../../d1/dd1/classxla_1_1CompileOnlyClient.html#a5a585d21f617b77a1cecc1b587d18d7a" target="_top" xlink:title="Compiles a list of computations for ahead&#45;of&#45;time execution. This is intended for use in static compi...">
<polygon fill="white" stroke="black" points="556,-22.5 556,-52.5 675,-52.5 675,-22.5 556,-22.5"/>
<text text-anchor="start" x="564" y="-40.5" font-family="Helvetica,sans-Serif" font-size="10.00">xla::CompileOnlyClient</text>
<text text-anchor="middle" x="615.5" y="-29.5" font-family="Helvetica,sans-Serif" font-size="10.00">::CompileAheadOfTime</text>
</a>
</g>
</g>
<!-- Node15&#45;&gt;Node16 -->
<g id="edge17" class="edge"><title>Node15&#45;&gt;Node16</title>
<path fill="none" stroke="midnightblue" d="M504.62,-57.1328C517.953,-54.7506 532.072,-52.2278 545.587,-49.813"/>
<polygon fill="midnightblue" stroke="midnightblue" points="546.553,-53.1959 555.782,-47.9915 545.322,-46.305 546.553,-53.1959"/>
</g>
<!-- Node17 -->
<g id="node17" class="node"><title>Node17</title>
<g id="a_node17"><a xlink:href="../../dc/d07/classxla_1_1CompileOnlyService.html#aceb67616a89167b9af1bf23d17ec37c9" target="_top" xlink:title="xla::CompileOnlyService\l::CompileAheadOfTime">
<polygon fill="white" stroke="black" points="724.5,-0.5 724.5,-30.5 849.5,-30.5 849.5,-0.5 724.5,-0.5"/>
<text text-anchor="start" x="732.5" y="-18.5" font-family="Helvetica,sans-Serif" font-size="10.00">xla::CompileOnlyService</text>
<text text-anchor="middle" x="787" y="-7.5" font-family="Helvetica,sans-Serif" font-size="10.00">::CompileAheadOfTime</text>
</a>
</g>
</g>
<!-- Node16&#45;&gt;Node17 -->
<g id="edge18" class="edge"><title>Node16&#45;&gt;Node17</title>
<path fill="none" stroke="midnightblue" d="M675.307,-29.8672C687.831,-28.2416 701.192,-26.5075 714.142,-24.8267"/>
<polygon fill="midnightblue" stroke="midnightblue" points="714.949,-28.2514 724.415,-23.4933 714.048,-21.3096 714.949,-28.2514"/>
</g>
</g>
</svg>
        <g id="navigator" transform="translate(0 0)" fill="#404254">
                <rect fill="#f2f5e9" fill-opacity="0.5" stroke="#606060" stroke-width=".5" x="0" y="0" width="60" height="60"/>
                <use id="zoomplus" xlink:href="#zoomPlus" x="17" y="9" onmousedown="handleZoom(evt,'in')"/>
                <use id="zoomminus" xlink:href="#zoomMin" x="42" y="9" onmousedown="handleZoom(evt,'out')"/>
                <use id="reset" xlink:href="#resetDef" x="30" y="36" onmousedown="handleReset()"/>
                <g id="arrowUp" xlink:href="#dirArrow" transform="translate(30 24)" onmousedown="handlePan(0,-1)">
                  <use xlink:href="#rim" fill="#404040">
                        <set attributeName="fill" to="#808080" begin="arrowUp.mouseover" end="arrowUp.mouseout"/>
                  </use>
                  <path fill="none" stroke="white" stroke-width="1.5" d="M0,-3.0v7 M-2.5,-0.5L0,-3.0L2.5,-0.5"/>
                </g>
                <g id="arrowRight" xlink:href="#dirArrow" transform="rotate(90) translate(36 -43)" onmousedown="handlePan(1,0)">
                  <use xlink:href="#rim" fill="#404040">
                        <set attributeName="fill" to="#808080" begin="arrowRight.mouseover" end="arrowRight.mouseout"/>
                  </use>
                  <path fill="none" stroke="white" stroke-width="1.5" d="M0,-3.0v7 M-2.5,-0.5L0,-3.0L2.5,-0.5"/>
                </g>
                <g id="arrowDown" xlink:href="#dirArrow" transform="rotate(180) translate(-30 -48)" onmousedown="handlePan(0,1)">
                  <use xlink:href="#rim" fill="#404040">
                        <set attributeName="fill" to="#808080" begin="arrowDown.mouseover" end="arrowDown.mouseout"/>
                  </use>
                  <path fill="none" stroke="white" stroke-width="1.5" d="M0,-3.0v7 M-2.5,-0.5L0,-3.0L2.5,-0.5"/>
                </g>
                <g id="arrowLeft" xlink:href="#dirArrow" transform="rotate(270) translate(-36 17)" onmousedown="handlePan(-1,0)">
                  <use xlink:href="#rim" fill="#404040">
                        <set attributeName="fill" to="#808080" begin="arrowLeft.mouseover" end="arrowLeft.mouseout"/>
                  </use>
                  <path fill="none" stroke="white" stroke-width="1.5" d="M0,-3.0v7 M-2.5,-0.5L0,-3.0L2.5,-0.5"/>
                </g>
        </g>
        <svg viewBox="0 0 15 15" width="100%" height="30px" preserveAspectRatio="xMaxYMin meet">
         <g id="arrow_out" transform="scale(0.3 0.3)">
          <a xlink:href="tfcompile__main_8cc_a3c04138a5bfe5d72780bb7e82a18e627_cgraph_org.svg" target="_base">
           <rect id="button" ry="5" rx="5" y="6" x="6" height="38" width="38"
                fill="#f2f5e9" fill-opacity="0.5" stroke="#606060" stroke-width="1.0"/>
           <path id="arrow"
             d="M 11.500037,31.436501 C 11.940474,20.09759 22.043105,11.32322 32.158766,21.979434 L 37.068811,17.246167 C 37.068811,17.246167 37.088388,32 37.088388,32 L 22.160133,31.978069 C 22.160133,31.978069 26.997745,27.140456 26.997745,27.140456 C 18.528582,18.264221 13.291696,25.230495 11.500037,31.436501 z"
             style="fill:#404040;"/>
          </a>
         </g>
        </svg>
</svg>
