<?xml version="1.0" encoding="UTF-8" standalone="no"?>
<!DOCTYPE svg PUBLIC "-//W3C//DTD SVG 1.1//EN"
 "http://www.w3.org/Graphics/SVG/1.1/DTD/svg11.dtd">
<!-- Generated by graphviz version 2.40.1 (20161225.0304)
 -->
<!-- Title: tensorflow/tensorflow/compiler/xla/service/hlo_instruction.h Pages: 1 -->
<!--zoomable 128 -->
<svg id="main" version="1.1" xmlns="http://www.w3.org/2000/svg" xmlns:xlink="http://www.w3.org/1999/xlink" xml:space="preserve" onload="init(evt)">
<style type="text/css"><![CDATA[
.edge:hover path { stroke: red; }
.edge:hover polygon { stroke: red; fill: red; }
]]></style>
<script type="text/javascript"><![CDATA[
var edges = document.getElementsByTagName('g');
if (edges && edges.length) {
  for (var i=0;i<edges.length;i++) {
    if (edges[i].id.substr(0,4)=='edge') {
      edges[i].setAttribute('class','edge');
    }
  }
}
]]></script>
        <defs>
                <circle id="rim" cx="0" cy="0" r="7"/>
                <circle id="rim2" cx="0" cy="0" r="3.5"/>
                <g id="zoomPlus">
                        <use xlink:href="#rim" fill="#404040">
                                <set attributeName="fill" to="#808080" begin="zoomplus.mouseover" end="zoomplus.mouseout"/>
                        </use>
                        <path d="M-4,0h8M0,-4v8" fill="none" stroke="white" stroke-width="1.5" pointer-events="none"/>
                </g>
                <g id="zoomMin">
                        <use xlink:href="#rim" fill="#404040">
                                <set attributeName="fill" to="#808080" begin="zoomminus.mouseover" end="zoomminus.mouseout"/>
                        </use>
                        <path d="M-4,0h8" fill="none" stroke="white" stroke-width="1.5" pointer-events="none"/>
                </g>
                <g id="dirArrow">
                        <path fill="none" stroke="white" stroke-width="1.5" d="M0,-3.0v7 M-2.5,-0.5L0,-3.0L2.5,-0.5"/>
                </g>
               <g id="resetDef">
                       <use xlink:href="#rim2" fill="#404040">
                               <set attributeName="fill" to="#808080" begin="reset.mouseover" end="reset.mouseout"/>
                       </use>
               </g>
        </defs>

<script type="text/javascript">
var viewWidth = 3362;
var viewHeight = 128;
var sectionId = 'dynsection-0';
</script>
<script xlink:href="../../svgpan.js"/>
<svg id="graph" class="graph">
<g id="viewport">
<title>tensorflow/tensorflow/compiler/xla/service/hlo_instruction.h</title>
<polygon fill="#ffffff" stroke="transparent" points="-4,4 -4,-124 3358,-124 3358,4 -4,4"/>
<!-- Node0 -->
<g id="node1" class="node">
<title>Node0</title>
<polygon fill="#bfbfbf" stroke="#000000" points="1249.5,-78.5 1249.5,-119.5 1371.5,-119.5 1371.5,-78.5 1249.5,-78.5"/>
<text text-anchor="start" x="1257.5" y="-107.5" font-family="Helvetica,sans-Serif" font-size="10.00" fill="#000000">tensorflow/tensorflow</text>
<text text-anchor="start" x="1257.5" y="-96.5" font-family="Helvetica,sans-Serif" font-size="10.00" fill="#000000">/compiler/xla/service</text>
<text text-anchor="middle" x="1310.5" y="-85.5" font-family="Helvetica,sans-Serif" font-size="10.00" fill="#000000">/hlo_instruction.h</text>
</g>
<!-- Node1 -->
<g id="node2" class="node">
<title>Node1</title>
<polygon fill="#ffffff" stroke="#bfbfbf" points="0,-11.5 0,-30.5 65,-30.5 65,-11.5 0,-11.5"/>
<text text-anchor="middle" x="32.5" y="-18.5" font-family="Helvetica,sans-Serif" font-size="10.00" fill="#000000">functional</text>
</g>
<!-- Node0&#45;&gt;Node1 -->
<g id="edge1" class="edge">
<title>Node0&#45;&gt;Node1</title>
<path fill="none" stroke="#191970" d="M1249.1849,-97.7018C1015.4207,-92.5435 187.5169,-72.2945 73.5,-42 67.7997,-40.4854 61.981,-38.1006 56.5852,-35.4727"/>
<polygon fill="#191970" stroke="#191970" points="57.9194,-32.2182 47.4465,-30.6154 54.634,-38.3994 57.9194,-32.2182"/>
</g>
<!-- Node2 -->
<g id="node3" class="node">
<title>Node2</title>
<polygon fill="#ffffff" stroke="#bfbfbf" points="83,-11.5 83,-30.5 132,-30.5 132,-11.5 83,-11.5"/>
<text text-anchor="middle" x="107.5" y="-18.5" font-family="Helvetica,sans-Serif" font-size="10.00" fill="#000000">iosfwd</text>
</g>
<!-- Node0&#45;&gt;Node2 -->
<g id="edge2" class="edge">
<title>Node0&#45;&gt;Node2</title>
<path fill="none" stroke="#191970" d="M1249.4205,-97.8074C1024.1592,-93.1648 247.5034,-74.9078 141.5,-42 136.9798,-40.5968 132.4543,-38.4501 128.2474,-36.056"/>
<polygon fill="#191970" stroke="#191970" points="129.9904,-33.0169 119.6721,-30.612 126.2386,-38.9265 129.9904,-33.0169"/>
</g>
<!-- Node3 -->
<g id="node4" class="node">
<title>Node3</title>
<polygon fill="#ffffff" stroke="#bfbfbf" points="150.5,-11.5 150.5,-30.5 182.5,-30.5 182.5,-11.5 150.5,-11.5"/>
<text text-anchor="middle" x="166.5" y="-18.5" font-family="Helvetica,sans-Serif" font-size="10.00" fill="#000000">list</text>
</g>
<!-- Node0&#45;&gt;Node3 -->
<g id="edge3" class="edge">
<title>Node0&#45;&gt;Node3</title>
<path fill="none" stroke="#191970" d="M1249.2435,-98.1532C1029.69,-94.8069 289.9866,-80.7416 191.5,-42 188.5362,-40.8341 185.669,-39.1684 182.9989,-37.2784"/>
<polygon fill="#191970" stroke="#191970" points="185.1802,-34.54 175.2627,-30.8127 180.6912,-39.9111 185.1802,-34.54"/>
</g>
<!-- Node4 -->
<g id="node5" class="node">
<title>Node4</title>
<polygon fill="#ffffff" stroke="#bfbfbf" points="200.5,-11.5 200.5,-30.5 258.5,-30.5 258.5,-11.5 200.5,-11.5"/>
<text text-anchor="middle" x="229.5" y="-18.5" font-family="Helvetica,sans-Serif" font-size="10.00" fill="#000000">memory</text>
</g>
<!-- Node0&#45;&gt;Node4 -->
<g id="edge4" class="edge">
<title>Node0&#45;&gt;Node4</title>
<path fill="none" stroke="#191970" d="M1249.3227,-97.2511C1040.2238,-91.0537 361.6752,-69.0528 267.5,-42 262.2907,-40.5036 257.0097,-38.191 252.1084,-35.6388"/>
<polygon fill="#191970" stroke="#191970" points="253.6884,-32.5105 243.2696,-30.5872 250.215,-38.588 253.6884,-32.5105"/>
</g>
<!-- Node5 -->
<g id="node6" class="node">
<title>Node5</title>
<polygon fill="#ffffff" stroke="#bfbfbf" points="276.5,-11.5 276.5,-30.5 308.5,-30.5 308.5,-11.5 276.5,-11.5"/>
<text text-anchor="middle" x="292.5" y="-18.5" font-family="Helvetica,sans-Serif" font-size="10.00" fill="#000000">set</text>
</g>
<!-- Node0&#45;&gt;Node5 -->
<g id="edge5" class="edge">
<title>Node0&#45;&gt;Node5</title>
<path fill="none" stroke="#191970" d="M1249.2393,-97.726C1046.2777,-93.1961 403.8131,-76.2745 317.5,-42 314.5399,-40.8246 311.6749,-39.1535 309.0058,-37.261"/>
<polygon fill="#191970" stroke="#191970" points="311.1871,-34.5226 301.2697,-30.795 306.698,-39.8936 311.1871,-34.5226"/>
</g>
<!-- Node6 -->
<g id="node7" class="node">
<title>Node6</title>
<polygon fill="#ffffff" stroke="#bfbfbf" points="326.5,-11.5 326.5,-30.5 370.5,-30.5 370.5,-11.5 326.5,-11.5"/>
<text text-anchor="middle" x="348.5" y="-18.5" font-family="Helvetica,sans-Serif" font-size="10.00" fill="#000000">string</text>
</g>
<!-- Node0&#45;&gt;Node6 -->
<g id="edge6" class="edge">
<title>Node0&#45;&gt;Node6</title>
<path fill="none" stroke="#191970" d="M1249.4882,-97.1346C1055.5934,-90.9472 461.4128,-69.8997 379.5,-42 375.5291,-40.6475 371.5904,-38.6425 367.9198,-36.3999"/>
<polygon fill="#191970" stroke="#191970" points="369.6999,-33.3757 359.4828,-30.572 365.7215,-39.1352 369.6999,-33.3757"/>
</g>
<!-- Node7 -->
<g id="node8" class="node">
<title>Node7</title>
<polygon fill="#ffffff" stroke="#bfbfbf" points="389,-11.5 389,-30.5 430,-30.5 430,-11.5 389,-11.5"/>
<text text-anchor="middle" x="409.5" y="-18.5" font-family="Helvetica,sans-Serif" font-size="10.00" fill="#000000">tuple</text>
</g>
<!-- Node0&#45;&gt;Node7 -->
<g id="edge7" class="edge">
<title>Node0&#45;&gt;Node7</title>
<path fill="none" stroke="#191970" d="M1249.4367,-96.9669C1063.8057,-90.5141 514.2311,-69.302 438.5,-42 434.8342,-40.6784 431.2248,-38.7449 427.864,-36.5783"/>
<polygon fill="#191970" stroke="#191970" points="429.8098,-33.6647 419.6803,-30.5593 425.6623,-39.3038 429.8098,-33.6647"/>
</g>
<!-- Node8 -->
<g id="node9" class="node">
<title>Node8</title>
<polygon fill="#ffffff" stroke="#bfbfbf" points="448,-11.5 448,-30.5 541,-30.5 541,-11.5 448,-11.5"/>
<text text-anchor="middle" x="494.5" y="-18.5" font-family="Helvetica,sans-Serif" font-size="10.00" fill="#000000">unordered_map</text>
</g>
<!-- Node0&#45;&gt;Node8 -->
<g id="edge8" class="edge">
<title>Node0&#45;&gt;Node8</title>
<path fill="none" stroke="#191970" d="M1249.2295,-96.6467C1093.1109,-90.2916 683.3514,-71.2642 550.5,-42 542.0654,-40.142 533.1998,-37.2744 525.0738,-34.2494"/>
<polygon fill="#191970" stroke="#191970" points="526.195,-30.9297 515.6074,-30.5388 523.6404,-37.4469 526.195,-30.9297"/>
</g>
<!-- Node9 -->
<g id="node10" class="node">
<title>Node9</title>
<polygon fill="#ffffff" stroke="#bfbfbf" points="559.5,-11.5 559.5,-30.5 645.5,-30.5 645.5,-11.5 559.5,-11.5"/>
<text text-anchor="middle" x="602.5" y="-18.5" font-family="Helvetica,sans-Serif" font-size="10.00" fill="#000000">unordered_set</text>
</g>
<!-- Node0&#45;&gt;Node9 -->
<g id="edge9" class="edge">
<title>Node0&#45;&gt;Node9</title>
<path fill="none" stroke="#191970" d="M1249.4548,-96.0134C1109.0324,-88.7687 766.5726,-68.8619 654.5,-42 646.9493,-40.1902 639.0566,-37.47 631.7677,-34.5823"/>
<polygon fill="#191970" stroke="#191970" points="632.8671,-31.2482 622.2915,-30.6104 630.1612,-37.704 632.8671,-31.2482"/>
</g>
<!-- Node10 -->
<g id="node11" class="node">
<title>Node10</title>
<polygon fill="#ffffff" stroke="#bfbfbf" points="664,-11.5 664,-30.5 711,-30.5 711,-11.5 664,-11.5"/>
<text text-anchor="middle" x="687.5" y="-18.5" font-family="Helvetica,sans-Serif" font-size="10.00" fill="#000000">vector</text>
</g>
<!-- Node0&#45;&gt;Node10 -->
<g id="edge10" class="edge">
<title>Node0&#45;&gt;Node10</title>
<path fill="none" stroke="#191970" d="M1249.0526,-96.8061C1118.1784,-91.5296 816.0032,-75.9689 719.5,-42 715.5237,-40.6004 711.5531,-38.6049 707.8295,-36.3948"/>
<polygon fill="#191970" stroke="#191970" points="709.4862,-33.2935 699.2198,-30.6759 705.6131,-39.1244 709.4862,-33.2935"/>
</g>
<!-- Node11 -->
<g id="node12" class="node">
<title>Node11</title>
<polygon fill="#ffffff" stroke="#bfbfbf" points="729,-6 729,-36 842,-36 842,-6 729,-6"/>
<text text-anchor="start" x="737" y="-24" font-family="Helvetica,sans-Serif" font-size="10.00" fill="#000000">tensorflow/compiler</text>
<text text-anchor="middle" x="785.5" y="-13" font-family="Helvetica,sans-Serif" font-size="10.00" fill="#000000">/xla/iterator_util.h</text>
</g>
<!-- Node0&#45;&gt;Node11 -->
<g id="edge11" class="edge">
<title>Node0&#45;&gt;Node11</title>
<path fill="none" stroke="#191970" d="M1249.2292,-95.11C1160.472,-88.6422 991.3353,-73.1814 850.5,-42 846.3968,-41.0915 842.1841,-40.0322 837.9707,-38.8811"/>
<polygon fill="#191970" stroke="#191970" points="838.7683,-35.4685 828.1898,-36.0567 836.8262,-42.1937 838.7683,-35.4685"/>
</g>
<!-- Node12 -->
<g id="node13" class="node">
<title>Node12</title>
<polygon fill="#ffffff" stroke="#bfbfbf" points="860,-6 860,-36 973,-36 973,-6 860,-6"/>
<text text-anchor="start" x="868" y="-24" font-family="Helvetica,sans-Serif" font-size="10.00" fill="#000000">tensorflow/compiler</text>
<text text-anchor="middle" x="916.5" y="-13" font-family="Helvetica,sans-Serif" font-size="10.00" fill="#000000">/xla/literal_util.h</text>
</g>
<!-- Node0&#45;&gt;Node12 -->
<g id="edge12" class="edge">
<title>Node0&#45;&gt;Node12</title>
<path fill="none" stroke="#191970" d="M1249.3297,-91.0344C1182.8612,-81.7693 1073.7984,-64.7847 981.5,-42 977.7222,-41.0674 973.8449,-40.0289 969.9558,-38.9269"/>
<polygon fill="#191970" stroke="#191970" points="970.8957,-35.5551 960.3139,-36.0812 968.9141,-42.2688 970.8957,-35.5551"/>
</g>
<!-- Node13 -->
<g id="node14" class="node">
<title>Node13</title>
<polygon fill="#ffffff" stroke="#bfbfbf" points="991,-6 991,-36 1104,-36 1104,-6 991,-6"/>
<text text-anchor="start" x="999" y="-24" font-family="Helvetica,sans-Serif" font-size="10.00" fill="#000000">tensorflow/compiler</text>
<text text-anchor="middle" x="1047.5" y="-13" font-family="Helvetica,sans-Serif" font-size="10.00" fill="#000000">/xla/map_util.h</text>
</g>
<!-- Node0&#45;&gt;Node13 -->
<g id="edge13" class="edge">
<title>Node0&#45;&gt;Node13</title>
<path fill="none" stroke="#191970" d="M1249.2505,-81.917C1210.0549,-70.8494 1158.172,-55.9478 1112.5,-42 1109.5334,-41.094 1106.4944,-40.1539 1103.4289,-39.1962"/>
<polygon fill="#191970" stroke="#191970" points="1104.1934,-35.7674 1093.6037,-36.0974 1102.0878,-42.4433 1104.1934,-35.7674"/>
</g>
<!-- Node14 -->
<g id="node15" class="node">
<title>Node14</title>
<polygon fill="#ffffff" stroke="#bfbfbf" points="1122,-.5 1122,-41.5 1235,-41.5 1235,-.5 1122,-.5"/>
<text text-anchor="start" x="1130" y="-29.5" font-family="Helvetica,sans-Serif" font-size="10.00" fill="#000000">tensorflow/compiler</text>
<text text-anchor="start" x="1130" y="-18.5" font-family="Helvetica,sans-Serif" font-size="10.00" fill="#000000">/xla/service/dfs_hlo</text>
<text text-anchor="middle" x="1178.5" y="-7.5" font-family="Helvetica,sans-Serif" font-size="10.00" fill="#000000">_visitor.h</text>
</g>
<!-- Node0&#45;&gt;Node14 -->
<g id="edge14" class="edge">
<title>Node0&#45;&gt;Node14</title>
<path fill="none" stroke="#191970" d="M1275.473,-78.3022C1259.0827,-68.617 1239.3966,-56.9843 1222.0566,-46.738"/>
<polygon fill="#191970" stroke="#191970" points="1223.6225,-43.5979 1213.2327,-41.5239 1220.0614,-49.6244 1223.6225,-43.5979"/>
</g>
<!-- Node15 -->
<g id="node16" class="node">
<title>Node15</title>
<polygon fill="#ffffff" stroke="#bfbfbf" points="1253,-6 1253,-36 1368,-36 1368,-6 1253,-6"/>
<text text-anchor="start" x="1261" y="-24" font-family="Helvetica,sans-Serif" font-size="10.00" fill="#000000">tensorflow/compiler</text>
<text text-anchor="middle" x="1310.5" y="-13" font-family="Helvetica,sans-Serif" font-size="10.00" fill="#000000">/xla/service/hlo.pb.h</text>
</g>
<!-- Node0&#45;&gt;Node15 -->
<g id="edge15" class="edge">
<title>Node0&#45;&gt;Node15</title>
<path fill="none" stroke="#191970" d="M1310.5,-78.0974C1310.5,-68.3178 1310.5,-56.5873 1310.5,-46.3097"/>
<polygon fill="#191970" stroke="#191970" points="1314.0001,-46.2678 1310.5,-36.2679 1307.0001,-46.2679 1314.0001,-46.2678"/>
</g>
<!-- Node16 -->
<g id="node17" class="node">
<title>Node16</title>
<polygon fill="#ffffff" stroke="#bfbfbf" points="1386.5,-6 1386.5,-36 1526.5,-36 1526.5,-6 1386.5,-6"/>
<text text-anchor="start" x="1394.5" y="-24" font-family="Helvetica,sans-Serif" font-size="10.00" fill="#000000">tensorflow/compiler</text>
<text text-anchor="middle" x="1456.5" y="-13" font-family="Helvetica,sans-Serif" font-size="10.00" fill="#000000">/xla/service/hlo_opcode.h</text>
</g>
<!-- Node0&#45;&gt;Node16 -->
<g id="edge16" class="edge">
<title>Node0&#45;&gt;Node16</title>
<path fill="none" stroke="#191970" d="M1349.242,-78.3022C1370.9742,-66.6919 1397.9451,-52.2828 1419.4042,-40.8183"/>
<polygon fill="#191970" stroke="#191970" points="1421.0612,-43.9013 1428.2321,-36.102 1417.7626,-37.7272 1421.0612,-43.9013"/>
</g>
<!-- Node17 -->
<g id="node18" class="node">
<title>Node17</title>
<polygon fill="#ffffff" stroke="#bfbfbf" points="1545,-6 1545,-36 1692,-36 1692,-6 1545,-6"/>
<text text-anchor="start" x="1553" y="-24" font-family="Helvetica,sans-Serif" font-size="10.00" fill="#000000">tensorflow/compiler</text>
<text text-anchor="middle" x="1618.5" y="-13" font-family="Helvetica,sans-Serif" font-size="10.00" fill="#000000">/xla/service/hlo_sharding.h</text>
</g>
<!-- Node0&#45;&gt;Node17 -->
<g id="edge17" class="edge">
<title>Node0&#45;&gt;Node17</title>
<path fill="none" stroke="#191970" d="M1371.7191,-83.4965C1422.9996,-70.5098 1496.1626,-51.9816 1549.5078,-38.4721"/>
<polygon fill="#191970" stroke="#191970" points="1550.3934,-41.8583 1559.2281,-36.0104 1548.6749,-35.0726 1550.3934,-41.8583"/>
</g>
<!-- Node18 -->
<g id="node19" class="node">
<title>Node18</title>
<polygon fill="#ffffff" stroke="#bfbfbf" points="1710.5,-6 1710.5,-36 1864.5,-36 1864.5,-6 1710.5,-6"/>
<text text-anchor="start" x="1718.5" y="-24" font-family="Helvetica,sans-Serif" font-size="10.00" fill="#000000">tensorflow/compiler</text>
<text text-anchor="middle" x="1787.5" y="-13" font-family="Helvetica,sans-Serif" font-size="10.00" fill="#000000">/xla/service/name_uniquer.h</text>
</g>
<!-- Node0&#45;&gt;Node18 -->
<g id="edge18" class="edge">
<title>Node0&#45;&gt;Node18</title>
<path fill="none" stroke="#191970" d="M1371.7562,-91.8938C1448.9895,-82.5163 1585.68,-64.5304 1701.5,-42 1707.2022,-40.8908 1713.0953,-39.6513 1718.9986,-38.3442"/>
<polygon fill="#191970" stroke="#191970" points="1719.9354,-41.7207 1728.9113,-36.0918 1718.3843,-34.8947 1719.9354,-41.7207"/>
</g>
<!-- Node19 -->
<g id="node20" class="node">
<title>Node19</title>
<polygon fill="#ffffff" stroke="#bfbfbf" points="1883,-6 1883,-36 1996,-36 1996,-6 1883,-6"/>
<text text-anchor="start" x="1891" y="-24" font-family="Helvetica,sans-Serif" font-size="10.00" fill="#000000">tensorflow/compiler</text>
<text text-anchor="middle" x="1939.5" y="-13" font-family="Helvetica,sans-Serif" font-size="10.00" fill="#000000">/xla/types.h</text>
</g>
<!-- Node0&#45;&gt;Node19 -->
<g id="edge19" class="edge">
<title>Node0&#45;&gt;Node19</title>
<path fill="none" stroke="#191970" d="M1371.5312,-96.9573C1475.5401,-92.5588 1693.3728,-79.3538 1873.5,-42 1877.8563,-41.0966 1882.3321,-40.0157 1886.8018,-38.8274"/>
<polygon fill="#191970" stroke="#191970" points="1887.8552,-42.1669 1896.5283,-36.0818 1885.9535,-35.4301 1887.8552,-42.1669"/>
</g>
<!-- Node20 -->
<g id="node21" class="node">
<title>Node20</title>
<polygon fill="#ffffff" stroke="#bfbfbf" points="2014,-6 2014,-36 2127,-36 2127,-6 2014,-6"/>
<text text-anchor="start" x="2022" y="-24" font-family="Helvetica,sans-Serif" font-size="10.00" fill="#000000">tensorflow/compiler</text>
<text text-anchor="middle" x="2070.5" y="-13" font-family="Helvetica,sans-Serif" font-size="10.00" fill="#000000">/xla/xla_data.pb.h</text>
</g>
<!-- Node0&#45;&gt;Node20 -->
<g id="edge20" class="edge">
<title>Node0&#45;&gt;Node20</title>
<path fill="none" stroke="#191970" d="M1371.7675,-95.7921C1518.1384,-87.8351 1884.9256,-66.0855 2005.5,-42 2009.8701,-41.127 2014.3577,-40.0579 2018.8343,-38.8689"/>
<polygon fill="#191970" stroke="#191970" points="2019.9037,-42.2037 2028.5667,-36.1044 2017.9909,-35.4701 2019.9037,-42.2037"/>
</g>
<!-- Node21 -->
<g id="node22" class="node">
<title>Node21</title>
<polygon fill="#ffffff" stroke="#bfbfbf" points="2145,-6 2145,-36 2252,-36 2252,-6 2145,-6"/>
<text text-anchor="start" x="2153" y="-24" font-family="Helvetica,sans-Serif" font-size="10.00" fill="#000000">tensorflow/core/lib</text>
<text text-anchor="middle" x="2198.5" y="-13" font-family="Helvetica,sans-Serif" font-size="10.00" fill="#000000">/core/status.h</text>
</g>
<!-- Node0&#45;&gt;Node21 -->
<g id="edge21" class="edge">
<title>Node0&#45;&gt;Node21</title>
<path fill="none" stroke="#191970" d="M1371.5656,-96.826C1536.7885,-90.6189 1990.0077,-71.3509 2136.5,-42 2140.6369,-41.1711 2144.8778,-40.141 2149.1056,-38.9855"/>
<polygon fill="#191970" stroke="#191970" points="2150.2913,-42.2849 2158.8915,-36.0972 2148.3097,-35.5712 2150.2913,-42.2849"/>
</g>
<!-- Node22 -->
<g id="node23" class="node">
<title>Node22</title>
<polygon fill="#ffffff" stroke="#bfbfbf" points="2270,-6 2270,-36 2377,-36 2377,-6 2270,-6"/>
<text text-anchor="start" x="2278" y="-24" font-family="Helvetica,sans-Serif" font-size="10.00" fill="#000000">tensorflow/core/lib</text>
<text text-anchor="middle" x="2323.5" y="-13" font-family="Helvetica,sans-Serif" font-size="10.00" fill="#000000">/core/stringpiece.h</text>
</g>
<!-- Node0&#45;&gt;Node22 -->
<g id="edge22" class="edge">
<title>Node0&#45;&gt;Node22</title>
<path fill="none" stroke="#191970" d="M1371.8017,-97.459C1553.9775,-92.5424 2090.0469,-75.5473 2261.5,-42 2265.7033,-41.1776 2270.0127,-40.1421 2274.306,-38.9743"/>
<polygon fill="#191970" stroke="#191970" points="2275.6342,-42.2317 2284.2364,-36.0468 2273.6548,-35.5174 2275.6342,-42.2317"/>
</g>
<!-- Node23 -->
<g id="node24" class="node">
<title>Node23</title>
<polygon fill="#ffffff" stroke="#bfbfbf" points="2395,-6 2395,-36 2502,-36 2502,-6 2395,-6"/>
<text text-anchor="start" x="2403" y="-24" font-family="Helvetica,sans-Serif" font-size="10.00" fill="#000000">tensorflow/core/lib</text>
<text text-anchor="middle" x="2448.5" y="-13" font-family="Helvetica,sans-Serif" font-size="10.00" fill="#000000">/gtl/array_slice.h</text>
</g>
<!-- Node0&#45;&gt;Node23 -->
<g id="edge23" class="edge">
<title>Node0&#45;&gt;Node23</title>
<path fill="none" stroke="#191970" d="M1371.6637,-97.9558C1569.3767,-94.236 2189.8157,-79.7759 2386.5,-42 2390.7061,-41.1922 2395.0176,-40.167 2399.3121,-39.0061"/>
<polygon fill="#191970" stroke="#191970" points="2400.636,-42.2652 2409.2446,-36.0892 2398.6636,-35.5488 2400.636,-42.2652"/>
</g>
<!-- Node24 -->
<g id="node25" class="node">
<title>Node24</title>
<polygon fill="#ffffff" stroke="#bfbfbf" points="2520,-6 2520,-36 2627,-36 2627,-6 2520,-6"/>
<text text-anchor="start" x="2528" y="-24" font-family="Helvetica,sans-Serif" font-size="10.00" fill="#000000">tensorflow/core/lib</text>
<text text-anchor="middle" x="2573.5" y="-13" font-family="Helvetica,sans-Serif" font-size="10.00" fill="#000000">/gtl/flatmap.h</text>
</g>
<!-- Node0&#45;&gt;Node24 -->
<g id="edge24" class="edge">
<title>Node0&#45;&gt;Node24</title>
<path fill="none" stroke="#191970" d="M1371.5975,-98.3481C1584.0132,-95.7312 2289.4767,-84.0099 2511.5,-42 2515.8898,-41.1694 2520.3935,-40.0987 2524.8725,-38.8811"/>
<polygon fill="#191970" stroke="#191970" points="2525.9828,-42.2028 2534.5847,-36.0176 2524.0031,-35.4886 2525.9828,-42.2028"/>
</g>
<!-- Node25 -->
<g id="node26" class="node">
<title>Node25</title>
<polygon fill="#ffffff" stroke="#bfbfbf" points="2645,-6 2645,-36 2758,-36 2758,-6 2645,-6"/>
<text text-anchor="start" x="2653" y="-24" font-family="Helvetica,sans-Serif" font-size="10.00" fill="#000000">tensorflow/core/lib</text>
<text text-anchor="middle" x="2701.5" y="-13" font-family="Helvetica,sans-Serif" font-size="10.00" fill="#000000">/gtl/inlined_vector.h</text>
</g>
<!-- Node0&#45;&gt;Node25 -->
<g id="edge25" class="edge">
<title>Node0&#45;&gt;Node25</title>
<path fill="none" stroke="#191970" d="M1371.5731,-98.554C1597.9349,-96.5623 2388.7304,-86.5046 2636.5,-42 2641.2127,-41.1535 2646.0556,-40.0517 2650.8706,-38.7961"/>
<polygon fill="#191970" stroke="#191970" points="2651.9885,-42.1174 2660.6638,-36.0355 2650.0892,-35.38 2651.9885,-42.1174"/>
</g>
<!-- Node26 -->
<g id="node27" class="node">
<title>Node26</title>
<polygon fill="#ffffff" stroke="#bfbfbf" points="2776,-6 2776,-36 2889,-36 2889,-6 2776,-6"/>
<text text-anchor="start" x="2784" y="-24" font-family="Helvetica,sans-Serif" font-size="10.00" fill="#000000">tensorflow/core/lib</text>
<text text-anchor="middle" x="2832.5" y="-13" font-family="Helvetica,sans-Serif" font-size="10.00" fill="#000000">/gtl/iterator_range.h</text>
</g>
<!-- Node0&#45;&gt;Node26 -->
<g id="edge26" class="edge">
<title>Node0&#45;&gt;Node26</title>
<path fill="none" stroke="#191970" d="M1371.7475,-98.8281C1612.3604,-97.809 2493.0208,-90.7558 2767.5,-42 2772.2143,-41.1626 2777.0584,-40.067 2781.874,-38.8154"/>
<polygon fill="#191970" stroke="#191970" points="2782.9897,-42.1375 2791.6682,-36.0602 2781.094,-35.3991 2782.9897,-42.1375"/>
</g>
<!-- Node27 -->
<g id="node28" class="node">
<title>Node27</title>
<polygon fill="#ffffff" stroke="#bfbfbf" points="2907,-6 2907,-36 3044,-36 3044,-6 2907,-6"/>
<text text-anchor="start" x="2915" y="-24" font-family="Helvetica,sans-Serif" font-size="10.00" fill="#000000">tensorflow/core/platform</text>
<text text-anchor="middle" x="2975.5" y="-13" font-family="Helvetica,sans-Serif" font-size="10.00" fill="#000000">/logging.h</text>
</g>
<!-- Node0&#45;&gt;Node27 -->
<g id="edge27" class="edge">
<title>Node0&#45;&gt;Node27</title>
<path fill="none" stroke="#191970" d="M1371.5005,-98.6867C1624.983,-97.0955 2595.94,-88.0572 2898.5,-42 2904.613,-41.0695 2910.9345,-39.8252 2917.2061,-38.4049"/>
<polygon fill="#191970" stroke="#191970" points="2918.082,-41.7941 2926.9833,-36.0479 2916.4415,-34.9891 2918.082,-41.7941"/>
</g>
<!-- Node28 -->
<g id="node29" class="node">
<title>Node28</title>
<polygon fill="#ffffff" stroke="#bfbfbf" points="3062,-6 3062,-36 3199,-36 3199,-6 3062,-6"/>
<text text-anchor="start" x="3070" y="-24" font-family="Helvetica,sans-Serif" font-size="10.00" fill="#000000">tensorflow/core/platform</text>
<text text-anchor="middle" x="3130.5" y="-13" font-family="Helvetica,sans-Serif" font-size="10.00" fill="#000000">/macros.h</text>
</g>
<!-- Node0&#45;&gt;Node28 -->
<g id="edge28" class="edge">
<title>Node0&#45;&gt;Node28</title>
<path fill="none" stroke="#191970" d="M1371.6404,-97.8479C1660.8658,-92.2836 2884.7188,-67.4175 3053.5,-42 3059.6144,-41.0792 3065.9369,-39.8413 3072.2091,-38.4249"/>
<polygon fill="#191970" stroke="#191970" points="3073.0833,-41.8145 3081.9869,-36.0719 3071.4455,-35.0088 3073.0833,-41.8145"/>
</g>
<!-- Node29 -->
<g id="node30" class="node">
<title>Node29</title>
<polygon fill="#ffffff" stroke="#bfbfbf" points="3217,-6 3217,-36 3354,-36 3354,-6 3217,-6"/>
<text text-anchor="start" x="3225" y="-24" font-family="Helvetica,sans-Serif" font-size="10.00" fill="#000000">tensorflow/core/platform</text>
<text text-anchor="middle" x="3285.5" y="-13" font-family="Helvetica,sans-Serif" font-size="10.00" fill="#000000">/types.h</text>
</g>
<!-- Node0&#45;&gt;Node29 -->
<g id="edge29" class="edge">
<title>Node0&#45;&gt;Node29</title>
<path fill="none" stroke="#191970" d="M1371.6811,-98.022C1676.4655,-93.0347 3023.6184,-69.59 3208.5,-42 3214.6157,-41.0874 3220.9389,-39.8548 3227.2116,-38.4415"/>
<polygon fill="#191970" stroke="#191970" points="3228.0844,-41.8315 3236.9899,-36.0921 3226.4489,-35.0253 3228.0844,-41.8315"/>
</g>
</g>
</svg>
        <g id="navigator" transform="translate(0 0)" fill="#404254">
                <rect fill="#f2f5e9" fill-opacity="0.5" stroke="#606060" stroke-width=".5" x="0" y="0" width="60" height="60"/>
                <use id="zoomplus" xlink:href="#zoomPlus" x="17" y="9" onmousedown="handleZoom(evt,'in')"/>
                <use id="zoomminus" xlink:href="#zoomMin" x="42" y="9" onmousedown="handleZoom(evt,'out')"/>
                <use id="reset" xlink:href="#resetDef" x="30" y="36" onmousedown="handleReset()"/>
                <g id="arrowUp" xlink:href="#dirArrow" transform="translate(30 24)" onmousedown="handlePan(0,-1)">
                  <use xlink:href="#rim" fill="#404040">
                        <set attributeName="fill" to="#808080" begin="arrowUp.mouseover" end="arrowUp.mouseout"/>
                  </use>
                  <path fill="none" stroke="white" stroke-width="1.5" d="M0,-3.0v7 M-2.5,-0.5L0,-3.0L2.5,-0.5"/>
                </g>
                <g id="arrowRight" xlink:href="#dirArrow" transform="rotate(90) translate(36 -43)" onmousedown="handlePan(1,0)">
                  <use xlink:href="#rim" fill="#404040">
                        <set attributeName="fill" to="#808080" begin="arrowRight.mouseover" end="arrowRight.mouseout"/>
                  </use>
                  <path fill="none" stroke="white" stroke-width="1.5" d="M0,-3.0v7 M-2.5,-0.5L0,-3.0L2.5,-0.5"/>
                </g>
                <g id="arrowDown" xlink:href="#dirArrow" transform="rotate(180) translate(-30 -48)" onmousedown="handlePan(0,1)">
                  <use xlink:href="#rim" fill="#404040">
                        <set attributeName="fill" to="#808080" begin="arrowDown.mouseover" end="arrowDown.mouseout"/>
                  </use>
                  <path fill="none" stroke="white" stroke-width="1.5" d="M0,-3.0v7 M-2.5,-0.5L0,-3.0L2.5,-0.5"/>
                </g>
                <g id="arrowLeft" xlink:href="#dirArrow" transform="rotate(270) translate(-36 17)" onmousedown="handlePan(-1,0)">
                  <use xlink:href="#rim" fill="#404040">
                        <set attributeName="fill" to="#808080" begin="arrowLeft.mouseover" end="arrowLeft.mouseout"/>
                  </use>
                  <path fill="none" stroke="white" stroke-width="1.5" d="M0,-3.0v7 M-2.5,-0.5L0,-3.0L2.5,-0.5"/>
                </g>
        </g>
        <svg viewBox="0 0 15 15" width="100%" height="30px" preserveAspectRatio="xMaxYMin meet">
         <g id="arrow_out" transform="scale(0.3 0.3)">
          <a xlink:href="hlo__instruction_8h__incl_org.svg" target="_base">
           <rect id="button" ry="5" rx="5" y="6" x="6" height="38" width="38"
                fill="#f2f5e9" fill-opacity="0.5" stroke="#606060" stroke-width="1.0"/>
           <path id="arrow"
             d="M 11.500037,31.436501 C 11.940474,20.09759 22.043105,11.32322 32.158766,21.979434 L 37.068811,17.246167 C 37.068811,17.246167 37.088388,32 37.088388,32 L 22.160133,31.978069 C 22.160133,31.978069 26.997745,27.140456 26.997745,27.140456 C 18.528582,18.264221 13.291696,25.230495 11.500037,31.436501 z"
             style="fill:#404040;"/>
          </a>
         </g>
        </svg>
</svg>
