<?xml version="1.0" encoding="UTF-8" standalone="no"?>
<!DOCTYPE svg PUBLIC "-//W3C//DTD SVG 1.1//EN"
 "http://www.w3.org/Graphics/SVG/1.1/DTD/svg11.dtd">
<!-- Generated by graphviz version 2.40.1 (20161225.0304)
 -->
<!-- Title: tensorflow/tensorflow/compiler/xla/service/call_inliner.h Pages: 1 -->
<svg width="528pt" height="128pt"
 viewBox="0.00 0.00 528.00 128.00" xmlns="http://www.w3.org/2000/svg" xmlns:xlink="http://www.w3.org/1999/xlink">
<g id="graph0" class="graph" transform="scale(1 1) rotate(0) translate(4 124)">
<title>tensorflow/tensorflow/compiler/xla/service/call_inliner.h</title>
<polygon fill="#ffffff" stroke="transparent" points="-4,4 -4,-124 524,-124 524,4 -4,4"/>
<!-- Node4 -->
<g id="node1" class="node">
<title>Node4</title>
<polygon fill="#bfbfbf" stroke="#000000" points="202,-78.5 202,-119.5 312,-119.5 312,-78.5 202,-78.5"/>
<text text-anchor="start" x="210" y="-107.5" font-family="Helvetica,sans-Serif" font-size="10.00" fill="#000000">tensorflow/tensorflow</text>
<text text-anchor="start" x="210" y="-96.5" font-family="Helvetica,sans-Serif" font-size="10.00" fill="#000000">/compiler/xla/service</text>
<text text-anchor="middle" x="257" y="-85.5" font-family="Helvetica,sans-Serif" font-size="10.00" fill="#000000">/call_inliner.h</text>
</g>
<!-- Node5 -->
<g id="node2" class="node">
<title>Node5</title>
<g id="a_node2"><a xlink:href="../../d9/da7/call__inliner_8cc.html" target="_top" xlink:title="tensorflow/tensorflow\l/compiler/xla/service\l/call_inliner.cc">
<polygon fill="#ffffff" stroke="#000000" points="0,-.5 0,-41.5 110,-41.5 110,-.5 0,-.5"/>
<text text-anchor="start" x="8" y="-29.5" font-family="Helvetica,sans-Serif" font-size="10.00" fill="#000000">tensorflow/tensorflow</text>
<text text-anchor="start" x="8" y="-18.5" font-family="Helvetica,sans-Serif" font-size="10.00" fill="#000000">/compiler/xla/service</text>
<text text-anchor="middle" x="55" y="-7.5" font-family="Helvetica,sans-Serif" font-size="10.00" fill="#000000">/call_inliner.cc</text>
</a>
</g>
</g>
<!-- Node4&#45;&gt;Node5 -->
<g id="edge1" class="edge">
<title>Node4&#45;&gt;Node5</title>
<path fill="none" stroke="#191970" d="M194.1249,-74.7215C166.5914,-64.0897 134.6275,-51.7473 108.2857,-41.5757"/>
<polygon fill="#191970" stroke="#191970" points="193.0732,-78.0672 203.6626,-78.4044 195.5947,-71.5371 193.0732,-78.0672"/>
</g>
<!-- Node6 -->
<g id="node3" class="node">
<title>Node6</title>
<g id="a_node3"><a xlink:href="../../da/d97/conditional__simplifier_8cc.html" target="_top" xlink:title="tensorflow/tensorflow\l/compiler/xla/service\l/conditional_simplifier.cc">
<polygon fill="#ffffff" stroke="#000000" points="128.5,-.5 128.5,-41.5 251.5,-41.5 251.5,-.5 128.5,-.5"/>
<text text-anchor="start" x="136.5" y="-29.5" font-family="Helvetica,sans-Serif" font-size="10.00" fill="#000000">tensorflow/tensorflow</text>
<text text-anchor="start" x="136.5" y="-18.5" font-family="Helvetica,sans-Serif" font-size="10.00" fill="#000000">/compiler/xla/service</text>
<text text-anchor="middle" x="190" y="-7.5" font-family="Helvetica,sans-Serif" font-size="10.00" fill="#000000">/conditional_simplifier.cc</text>
</a>
</g>
</g>
<!-- Node4&#45;&gt;Node6 -->
<g id="edge2" class="edge">
<title>Node4&#45;&gt;Node6</title>
<path fill="none" stroke="#191970" d="M232.4127,-70.376C224.2476,-60.8703 215.3207,-50.4778 207.772,-41.6898"/>
<polygon fill="#191970" stroke="#191970" points="229.8743,-72.7923 239.0452,-78.0974 235.1843,-68.2311 229.8743,-72.7923"/>
</g>
<!-- Node7 -->
<g id="node4" class="node">
<title>Node7</title>
<g id="a_node4"><a xlink:href="../../d4/dcb/cpu__compiler_8cc.html" target="_top" xlink:title="tensorflow/tensorflow\l/compiler/xla/service\l/cpu/cpu_compiler.cc">
<polygon fill="#ffffff" stroke="#000000" points="270,-.5 270,-41.5 380,-41.5 380,-.5 270,-.5"/>
<text text-anchor="start" x="278" y="-29.5" font-family="Helvetica,sans-Serif" font-size="10.00" fill="#000000">tensorflow/tensorflow</text>
<text text-anchor="start" x="278" y="-18.5" font-family="Helvetica,sans-Serif" font-size="10.00" fill="#000000">/compiler/xla/service</text>
<text text-anchor="middle" x="325" y="-7.5" font-family="Helvetica,sans-Serif" font-size="10.00" fill="#000000">/cpu/cpu_compiler.cc</text>
</a>
</g>
</g>
<!-- Node4&#45;&gt;Node7 -->
<g id="edge3" class="edge">
<title>Node4&#45;&gt;Node7</title>
<path fill="none" stroke="#191970" d="M281.9543,-70.376C290.2413,-60.8703 299.3014,-50.4778 306.9627,-41.6898"/>
<polygon fill="#191970" stroke="#191970" points="279.1559,-68.2597 275.2228,-78.0974 284.4324,-72.8597 279.1559,-68.2597"/>
</g>
<!-- Node8 -->
<g id="node5" class="node">
<title>Node8</title>
<g id="a_node5"><a xlink:href="../../d5/d0e/while__loop__simplifier_8cc.html" target="_top" xlink:title="tensorflow/tensorflow\l/compiler/xla/service\l/while_loop_simplifier.cc">
<polygon fill="#ffffff" stroke="#000000" points="398,-.5 398,-41.5 520,-41.5 520,-.5 398,-.5"/>
<text text-anchor="start" x="406" y="-29.5" font-family="Helvetica,sans-Serif" font-size="10.00" fill="#000000">tensorflow/tensorflow</text>
<text text-anchor="start" x="406" y="-18.5" font-family="Helvetica,sans-Serif" font-size="10.00" fill="#000000">/compiler/xla/service</text>
<text text-anchor="middle" x="459" y="-7.5" font-family="Helvetica,sans-Serif" font-size="10.00" fill="#000000">/while_loop_simplifier.cc</text>
</a>
</g>
</g>
<!-- Node4&#45;&gt;Node8 -->
<g id="edge4" class="edge">
<title>Node4&#45;&gt;Node8</title>
<path fill="none" stroke="#191970" d="M319.8751,-74.7215C347.4086,-64.0897 379.3725,-51.7473 405.7143,-41.5757"/>
<polygon fill="#191970" stroke="#191970" points="318.4053,-71.5371 310.3374,-78.4044 320.9268,-78.0672 318.4053,-71.5371"/>
</g>
</g>
</svg>
