<?xml version="1.0" encoding="UTF-8" standalone="no"?>
<!DOCTYPE svg PUBLIC "-//W3C//DTD SVG 1.1//EN"
 "http://www.w3.org/Graphics/SVG/1.1/DTD/svg11.dtd">
<!-- Generated by graphviz version 2.40.1 (20161225.0304)
 -->
<!-- Title: tensorflow/tensorflow/compiler/xla/client/client_library.h Pages: 1 -->
<svg width="3465pt" height="574pt"
 viewBox="0.00 0.00 3464.50 574.00" xmlns="http://www.w3.org/2000/svg" xmlns:xlink="http://www.w3.org/1999/xlink">
<g id="graph0" class="graph" transform="scale(1 1) rotate(0) translate(4 570)">
<title>tensorflow/tensorflow/compiler/xla/client/client_library.h</title>
<polygon fill="#ffffff" stroke="transparent" points="-4,4 -4,-570 3460.5,-570 3460.5,4 -4,4"/>
<!-- Node0 -->
<g id="node1" class="node">
<title>Node0</title>
<polygon fill="#bfbfbf" stroke="#000000" points="2797,-524.5 2797,-565.5 2907,-565.5 2907,-524.5 2797,-524.5"/>
<text text-anchor="start" x="2805" y="-553.5" font-family="Helvetica,sans-Serif" font-size="10.00" fill="#000000">tensorflow/tensorflow</text>
<text text-anchor="start" x="2805" y="-542.5" font-family="Helvetica,sans-Serif" font-size="10.00" fill="#000000">/compiler/xla/client</text>
<text text-anchor="middle" x="2852" y="-531.5" font-family="Helvetica,sans-Serif" font-size="10.00" fill="#000000">/client_library.h</text>
</g>
<!-- Node1 -->
<g id="node2" class="node">
<title>Node1</title>
<polygon fill="#ffffff" stroke="#bfbfbf" points="180.5,-78.5 180.5,-97.5 239.5,-97.5 239.5,-78.5 180.5,-78.5"/>
<text text-anchor="middle" x="210" y="-85.5" font-family="Helvetica,sans-Serif" font-size="10.00" fill="#000000">functional</text>
</g>
<!-- Node0&#45;&gt;Node1 -->
<g id="edge1" class="edge">
<title>Node0&#45;&gt;Node1</title>
<path fill="none" stroke="#191970" d="M2796.7414,-544.3238C2441.6427,-539.9048 491.5503,-514.4965 369,-488 265.3869,-465.5979 152,-495.0072 152,-389 152,-389 152,-389 152,-244 152,-199.197 153.7664,-186.3559 171,-145 176.9094,-130.8192 186.6726,-116.5552 194.9519,-105.8434"/>
<polygon fill="#191970" stroke="#191970" points="197.9096,-107.75 201.4403,-97.7608 192.4509,-103.368 197.9096,-107.75"/>
</g>
<!-- Node2 -->
<g id="node3" class="node">
<title>Node2</title>
<polygon fill="#ffffff" stroke="#bfbfbf" points="1250,-6 1250,-25 1302,-25 1302,-6 1250,-6"/>
<text text-anchor="middle" x="1276" y="-13" font-family="Helvetica,sans-Serif" font-size="10.00" fill="#000000">memory</text>
</g>
<!-- Node0&#45;&gt;Node2 -->
<g id="edge2" class="edge">
<title>Node0&#45;&gt;Node2</title>
<path fill="none" stroke="#191970" d="M2796.9525,-544.5865C2419.5325,-541.6602 227.3406,-523.1673 169,-488 125.892,-462.0148 114,-439.3342 114,-389 114,-389 114,-389 114,-166 114,-115.2282 127.5547,-93.2733 171,-67 257.8731,-14.4639 982.6593,-37.0859 1084,-31 1138.313,-27.7383 1201.1433,-22.3616 1239.7255,-18.8758"/>
<polygon fill="#191970" stroke="#191970" points="1240.296,-22.3385 1249.9375,-17.9461 1239.6613,-15.3673 1240.296,-22.3385"/>
</g>
<!-- Node3 -->
<g id="node4" class="node">
<title>Node3</title>
<polygon fill="#ffffff" stroke="#bfbfbf" points="354.5,-6 354.5,-25 395.5,-25 395.5,-6 354.5,-6"/>
<text text-anchor="middle" x="375" y="-13" font-family="Helvetica,sans-Serif" font-size="10.00" fill="#000000">string</text>
</g>
<!-- Node0&#45;&gt;Node3 -->
<g id="edge3" class="edge">
<title>Node0&#45;&gt;Node3</title>
<path fill="none" stroke="#191970" d="M2796.7424,-544.5074C2411.7379,-540.9976 143.2766,-519.0242 80,-488 29.2064,-463.0961 0,-445.5703 0,-389 0,-389 0,-389 0,-166 0,-4.2387 183.0409,-77.4154 338,-31 340.1683,-30.3505 342.3824,-29.6161 344.5956,-28.8289"/>
<polygon fill="#191970" stroke="#191970" points="346.0827,-32.0066 354.1497,-25.1381 343.5602,-25.4768 346.0827,-32.0066"/>
</g>
<!-- Node4 -->
<g id="node5" class="node">
<title>Node4</title>
<polygon fill="#ffffff" stroke="#bfbfbf" points="414,-6 414,-25 458,-25 458,-6 414,-6"/>
<text text-anchor="middle" x="436" y="-13" font-family="Helvetica,sans-Serif" font-size="10.00" fill="#000000">vector</text>
</g>
<!-- Node0&#45;&gt;Node4 -->
<g id="edge4" class="edge">
<title>Node0&#45;&gt;Node4</title>
<path fill="none" stroke="#191970" d="M2796.8791,-544.6532C2415.3075,-542.1554 180.0867,-525.92 122,-488 81.3729,-461.478 76,-437.5178 76,-389 76,-389 76,-389 76,-166 76,-117.2933 83.5716,-95.5963 123,-67 224.9245,6.9231 283.3207,-66.913 404,-31 405.8637,-30.4454 407.7533,-29.7926 409.6341,-29.0741"/>
<polygon fill="#191970" stroke="#191970" points="411.0308,-32.2834 418.8054,-25.0858 408.2392,-25.8641 411.0308,-32.2834"/>
</g>
<!-- Node5 -->
<g id="node6" class="node">
<title>Node5</title>
<g id="a_node6"><a xlink:href="../../d4/dab/compile__only__client_8h.html" target="_top" xlink:title="tensorflow/compiler\l/xla/client/compile\l_only_client.h">
<polygon fill="#ffffff" stroke="#000000" points="2324.5,-446.5 2324.5,-487.5 2425.5,-487.5 2425.5,-446.5 2324.5,-446.5"/>
<text text-anchor="start" x="2332.5" y="-475.5" font-family="Helvetica,sans-Serif" font-size="10.00" fill="#000000">tensorflow/compiler</text>
<text text-anchor="start" x="2332.5" y="-464.5" font-family="Helvetica,sans-Serif" font-size="10.00" fill="#000000">/xla/client/compile</text>
<text text-anchor="middle" x="2375" y="-453.5" font-family="Helvetica,sans-Serif" font-size="10.00" fill="#000000">_only_client.h</text>
</a>
</g>
</g>
<!-- Node0&#45;&gt;Node5 -->
<g id="edge5" class="edge">
<title>Node0&#45;&gt;Node5</title>
<path fill="none" stroke="#191970" d="M2796.8161,-535.9762C2706.8752,-521.2689 2529.3509,-492.2398 2435.8661,-476.953"/>
<polygon fill="#191970" stroke="#191970" points="2436.1498,-473.4529 2425.716,-475.2932 2435.0201,-480.3612 2436.1498,-473.4529"/>
</g>
<!-- Node8 -->
<g id="node9" class="node">
<title>Node8</title>
<g id="a_node9"><a xlink:href="../../d2/d89/compile__only__service_8h.html" target="_top" xlink:title="tensorflow/compiler\l/xla/service/compile\l_only_service.h">
<polygon fill="#ffffff" stroke="#000000" points="1655,-368.5 1655,-409.5 1759,-409.5 1759,-368.5 1655,-368.5"/>
<text text-anchor="start" x="1663" y="-397.5" font-family="Helvetica,sans-Serif" font-size="10.00" fill="#000000">tensorflow/compiler</text>
<text text-anchor="start" x="1663" y="-386.5" font-family="Helvetica,sans-Serif" font-size="10.00" fill="#000000">/xla/service/compile</text>
<text text-anchor="middle" x="1707" y="-375.5" font-family="Helvetica,sans-Serif" font-size="10.00" fill="#000000">_only_service.h</text>
</a>
</g>
</g>
<!-- Node0&#45;&gt;Node8 -->
<g id="edge123" class="edge">
<title>Node0&#45;&gt;Node8</title>
<path fill="none" stroke="#191970" d="M2796.7094,-540.1352C2699.3542,-531.3429 2491.0599,-511.519 2316,-488 2115.5062,-461.064 1879.3964,-419.9924 1769.3319,-400.3002"/>
<polygon fill="#191970" stroke="#191970" points="1769.8578,-396.8388 1759.3971,-398.5195 1768.6228,-403.729 1769.8578,-396.8388"/>
</g>
<!-- Node30 -->
<g id="node23" class="node">
<title>Node30</title>
<polygon fill="#ffffff" stroke="#bfbfbf" points="2535.5,-.5 2535.5,-30.5 2636.5,-30.5 2636.5,-.5 2535.5,-.5"/>
<text text-anchor="start" x="2543.5" y="-18.5" font-family="Helvetica,sans-Serif" font-size="10.00" fill="#000000">tensorflow/compiler</text>
<text text-anchor="middle" x="2586" y="-7.5" font-family="Helvetica,sans-Serif" font-size="10.00" fill="#000000">/xla/statusor.h</text>
</g>
<!-- Node0&#45;&gt;Node30 -->
<g id="edge126" class="edge">
<title>Node0&#45;&gt;Node30</title>
<path fill="none" stroke="#191970" d="M2907.049,-538.7421C2970.0845,-530.4604 3068.0108,-513.8204 3094,-488 3126.118,-456.0906 3118,-434.2745 3118,-389 3118,-389 3118,-389 3118,-244 3118,-83.4122 2956.8584,-113.0005 2803,-67 2750.8588,-51.4109 2690.5606,-37.4157 2646.7794,-27.9633"/>
<polygon fill="#191970" stroke="#191970" points="2647.372,-24.5109 2636.8607,-25.8385 2645.9057,-31.3556 2647.372,-24.5109"/>
</g>
<!-- Node31 -->
<g id="node24" class="node">
<title>Node31</title>
<polygon fill="#ffffff" stroke="#bfbfbf" points="2192.5,-.5 2192.5,-30.5 2293.5,-30.5 2293.5,-.5 2192.5,-.5"/>
<text text-anchor="start" x="2200.5" y="-18.5" font-family="Helvetica,sans-Serif" font-size="10.00" fill="#000000">tensorflow/compiler</text>
<text text-anchor="middle" x="2243" y="-7.5" font-family="Helvetica,sans-Serif" font-size="10.00" fill="#000000">/xla/types.h</text>
</g>
<!-- Node0&#45;&gt;Node31 -->
<g id="edge127" class="edge">
<title>Node0&#45;&gt;Node31</title>
<path fill="none" stroke="#191970" d="M2907.1924,-532.9238C2974.6697,-514.5307 3080,-472.4538 3080,-389 3080,-389 3080,-389 3080,-316.5 3080,-239.0706 2999.6917,-262.3386 2933,-223 2808.2884,-149.438 2784.7528,-111.5926 2647,-67 2584.6104,-46.8036 2400.529,-28.8368 2303.8607,-20.4719"/>
<polygon fill="#191970" stroke="#191970" points="2303.9146,-16.9638 2293.652,-19.5962 2303.3162,-23.9382 2303.9146,-16.9638"/>
</g>
<!-- Node37 -->
<g id="node27" class="node">
<title>Node37</title>
<polygon fill="#ffffff" stroke="#bfbfbf" points="2900,-.5 2900,-30.5 3022,-30.5 3022,-.5 2900,-.5"/>
<text text-anchor="start" x="2908" y="-18.5" font-family="Helvetica,sans-Serif" font-size="10.00" fill="#000000">tensorflow/core/platform</text>
<text text-anchor="middle" x="2961" y="-7.5" font-family="Helvetica,sans-Serif" font-size="10.00" fill="#000000">/macros.h</text>
</g>
<!-- Node0&#45;&gt;Node37 -->
<g id="edge128" class="edge">
<title>Node0&#45;&gt;Node37</title>
<path fill="none" stroke="#191970" d="M2907.1172,-540.7121C2979.3238,-533.9626 3100.4759,-518.3785 3132,-488 3164.6008,-456.584 3156,-434.2745 3156,-389 3156,-389 3156,-389 3156,-166 3156,-97.3772 3079.383,-55.6506 3022.1997,-34.0642"/>
<polygon fill="#191970" stroke="#191970" points="3023.0829,-30.6608 3012.489,-30.5187 3020.6821,-37.2362 3023.0829,-30.6608"/>
</g>
<!-- Node43 -->
<g id="node31" class="node">
<title>Node43</title>
<polygon fill="#ffffff" stroke="#bfbfbf" points="1480,-73 1480,-103 1602,-103 1602,-73 1480,-73"/>
<text text-anchor="start" x="1488" y="-91" font-family="Helvetica,sans-Serif" font-size="10.00" fill="#000000">tensorflow/core/platform</text>
<text text-anchor="middle" x="1541" y="-80" font-family="Helvetica,sans-Serif" font-size="10.00" fill="#000000">/mutex.h</text>
</g>
<!-- Node0&#45;&gt;Node43 -->
<g id="edge129" class="edge">
<title>Node0&#45;&gt;Node43</title>
<path fill="none" stroke="#191970" d="M2821.3753,-524.3986C2761.2017,-485.2278 2621.9777,-400.9802 2491,-368 2283.9788,-315.8721 1743.0684,-356.5377 1531,-332 1492.426,-327.5367 1212.686,-294.9746 1188,-265 1176.1332,-250.5909 1175.7004,-237.0415 1188,-223 1228.0294,-177.3014 1405.8484,-216.4215 1459,-187 1490.2337,-169.7109 1514.4504,-135.3749 1528.2245,-112.0457"/>
<polygon fill="#191970" stroke="#191970" points="1531.4095,-113.5254 1533.3142,-103.1031 1525.3258,-110.0628 1531.4095,-113.5254"/>
</g>
<!-- Node45 -->
<g id="node33" class="node">
<title>Node45</title>
<polygon fill="#ffffff" stroke="#bfbfbf" points="180.5,-151 180.5,-181 323.5,-181 323.5,-151 180.5,-151"/>
<text text-anchor="start" x="188.5" y="-169" font-family="Helvetica,sans-Serif" font-size="10.00" fill="#000000">tensorflow/core/platform</text>
<text text-anchor="middle" x="252" y="-158" font-family="Helvetica,sans-Serif" font-size="10.00" fill="#000000">/stream_executor_no_cuda.h</text>
</g>
<!-- Node0&#45;&gt;Node45 -->
<g id="edge130" class="edge">
<title>Node0&#45;&gt;Node45</title>
<path fill="none" stroke="#191970" d="M2796.7063,-544.7436C2415.3166,-542.6232 190,-524.4478 190,-389 190,-389 190,-389 190,-316.5 190,-268.8166 216.9364,-218.6069 235.2998,-189.9176"/>
<polygon fill="#191970" stroke="#191970" points="238.3389,-191.6663 240.9156,-181.3895 232.4927,-187.8164 238.3389,-191.6663"/>
</g>
<!-- Node46 -->
<g id="node34" class="node">
<title>Node46</title>
<polygon fill="#ffffff" stroke="#bfbfbf" points="2271,-73 2271,-103 2393,-103 2393,-73 2271,-73"/>
<text text-anchor="start" x="2279" y="-91" font-family="Helvetica,sans-Serif" font-size="10.00" fill="#000000">tensorflow/core/platform</text>
<text text-anchor="middle" x="2332" y="-80" font-family="Helvetica,sans-Serif" font-size="10.00" fill="#000000">/thread_annotations.h</text>
</g>
<!-- Node0&#45;&gt;Node46 -->
<g id="edge131" class="edge">
<title>Node0&#45;&gt;Node46</title>
<path fill="none" stroke="#191970" d="M2869.627,-524.3523C2892.0781,-495.8734 2928,-442.0225 2928,-389 2928,-389 2928,-389 2928,-316.5 2928,-274.0951 2938.5414,-253.4216 2909,-223 2873.6327,-186.5789 2549.7719,-126.0634 2403.3272,-100.2621"/>
<polygon fill="#191970" stroke="#191970" points="2403.5509,-96.7478 2393.0962,-98.4652 2402.34,-103.6423 2403.5509,-96.7478"/>
</g>
<!-- Node58 -->
<g id="node45" class="node">
<title>Node58</title>
<polygon fill="#ffffff" stroke="#bfbfbf" points="2792.5,-223.5 2792.5,-264.5 2899.5,-264.5 2899.5,-223.5 2792.5,-223.5"/>
<text text-anchor="start" x="2800.5" y="-252.5" font-family="Helvetica,sans-Serif" font-size="10.00" fill="#000000">tensorflow/compiler</text>
<text text-anchor="start" x="2800.5" y="-241.5" font-family="Helvetica,sans-Serif" font-size="10.00" fill="#000000">/xla/service/device</text>
<text text-anchor="middle" x="2846" y="-230.5" font-family="Helvetica,sans-Serif" font-size="10.00" fill="#000000">_memory_allocator.h</text>
</g>
<!-- Node0&#45;&gt;Node58 -->
<g id="edge124" class="edge">
<title>Node0&#45;&gt;Node58</title>
<path fill="none" stroke="#191970" d="M2858.3379,-524.3764C2861.3101,-513.644 2864.5188,-500.2405 2866,-488 2872.4071,-435.0529 2870.2598,-421.1629 2866,-368 2863.4245,-335.8574 2857.1511,-299.4739 2852.3113,-274.4738"/>
<polygon fill="#191970" stroke="#191970" points="2855.7129,-273.6332 2850.3398,-264.5019 2848.8458,-274.9909 2855.7129,-273.6332"/>
</g>
<!-- Node62 -->
<g id="node49" class="node">
<title>Node62</title>
<polygon fill="#ffffff" stroke="#bfbfbf" points="3184.5,-452 3184.5,-482 3303.5,-482 3303.5,-452 3184.5,-452"/>
<text text-anchor="start" x="3192.5" y="-470" font-family="Helvetica,sans-Serif" font-size="10.00" fill="#000000">tensorflow/compiler</text>
<text text-anchor="middle" x="3244" y="-459" font-family="Helvetica,sans-Serif" font-size="10.00" fill="#000000">/xla/client/local_client.h</text>
</g>
<!-- Node0&#45;&gt;Node62 -->
<g id="edge122" class="edge">
<title>Node0&#45;&gt;Node62</title>
<path fill="none" stroke="#191970" d="M2907.2024,-536.8081C2970.8942,-526.9634 3078.5977,-509.1062 3170,-488 3174.4383,-486.9751 3179.0077,-485.8505 3183.5943,-484.671"/>
<polygon fill="#191970" stroke="#191970" points="3184.8467,-487.9601 3193.6187,-482.0185 3183.0561,-481.193 3184.8467,-487.9601"/>
</g>
<!-- Node63 -->
<g id="node50" class="node">
<title>Node63</title>
<polygon fill="#ffffff" stroke="#bfbfbf" points="3321.5,-452 3321.5,-482 3456.5,-482 3456.5,-452 3321.5,-452"/>
<text text-anchor="start" x="3329.5" y="-470" font-family="Helvetica,sans-Serif" font-size="10.00" fill="#000000">tensorflow/compiler</text>
<text text-anchor="middle" x="3389" y="-459" font-family="Helvetica,sans-Serif" font-size="10.00" fill="#000000">/xla/service/local_service.h</text>
</g>
<!-- Node0&#45;&gt;Node63 -->
<g id="edge125" class="edge">
<title>Node0&#45;&gt;Node63</title>
<path fill="none" stroke="#191970" d="M2907.0574,-540.8194C2993.9311,-533.6348 3167.8601,-516.8633 3313,-488 3318.0725,-486.9913 3323.3031,-485.8229 3328.5347,-484.5639"/>
<polygon fill="#191970" stroke="#191970" points="3329.7077,-487.8781 3338.5552,-482.0494 3328.004,-481.0886 3329.7077,-487.8781"/>
</g>
<!-- Node6 -->
<g id="node7" class="node">
<title>Node6</title>
<polygon fill="#ffffff" stroke="#bfbfbf" points="2380.5,-374 2380.5,-404 2481.5,-404 2481.5,-374 2380.5,-374"/>
<text text-anchor="start" x="2388.5" y="-392" font-family="Helvetica,sans-Serif" font-size="10.00" fill="#000000">tensorflow/compiler</text>
<text text-anchor="middle" x="2431" y="-381" font-family="Helvetica,sans-Serif" font-size="10.00" fill="#000000">/xla/client/client.h</text>
</g>
<!-- Node5&#45;&gt;Node6 -->
<g id="edge6" class="edge">
<title>Node5&#45;&gt;Node6</title>
<path fill="none" stroke="#191970" d="M2390.007,-446.0974C2397.3978,-435.803 2406.3405,-423.3471 2413.985,-412.6994"/>
<polygon fill="#191970" stroke="#191970" points="2417.0495,-414.4324 2420.0385,-404.2679 2411.3632,-410.3499 2417.0495,-414.4324"/>
</g>
<!-- Node7 -->
<g id="node8" class="node">
<title>Node7</title>
<polygon fill="#ffffff" stroke="#bfbfbf" points="2239.5,-374 2239.5,-404 2362.5,-404 2362.5,-374 2239.5,-374"/>
<text text-anchor="start" x="2247.5" y="-392" font-family="Helvetica,sans-Serif" font-size="10.00" fill="#000000">tensorflow/compiler</text>
<text text-anchor="middle" x="2301" y="-381" font-family="Helvetica,sans-Serif" font-size="10.00" fill="#000000">/xla/client/computation.h</text>
</g>
<!-- Node5&#45;&gt;Node7 -->
<g id="edge7" class="edge">
<title>Node5&#45;&gt;Node7</title>
<path fill="none" stroke="#191970" d="M2355.1694,-446.0974C2345.1099,-435.4942 2332.8748,-422.5978 2322.5797,-411.7461"/>
<polygon fill="#191970" stroke="#191970" points="2324.9067,-409.1136 2315.4849,-404.2679 2319.8284,-413.9314 2324.9067,-409.1136"/>
</g>
<!-- Node5&#45;&gt;Node8 -->
<g id="edge8" class="edge">
<title>Node5&#45;&gt;Node8</title>
<path fill="none" stroke="#191970" d="M2324.2432,-461.0733C2203.7402,-447.0026 1900.7061,-411.6184 1769.3442,-396.2797"/>
<polygon fill="#191970" stroke="#191970" points="1769.3951,-392.762 1759.0567,-395.0785 1768.5832,-399.7147 1769.3951,-392.762"/>
</g>
<!-- Node10 -->
<g id="node11" class="node">
<title>Node10</title>
<g id="a_node11"><a xlink:href="../../d4/dd1/compiler_8h.html" target="_top" xlink:title="tensorflow/compiler\l/xla/service/compiler.h">
<polygon fill="#ffffff" stroke="#000000" points="926,-229 926,-259 1040,-259 1040,-229 926,-229"/>
<text text-anchor="start" x="934" y="-247" font-family="Helvetica,sans-Serif" font-size="10.00" fill="#000000">tensorflow/compiler</text>
<text text-anchor="middle" x="983" y="-236" font-family="Helvetica,sans-Serif" font-size="10.00" fill="#000000">/xla/service/compiler.h</text>
</a>
</g>
</g>
<!-- Node5&#45;&gt;Node10 -->
<g id="edge118" class="edge">
<title>Node5&#45;&gt;Node10</title>
<path fill="none" stroke="#191970" d="M2324.4468,-464.7665C2205.6794,-459.1446 1899.7309,-442.4833 1646,-410 1450.3054,-384.9466 1398.9335,-385.3791 1209,-332 1143.1014,-313.4798 1069.7583,-282.9931 1025.0016,-263.2073"/>
<polygon fill="#191970" stroke="#191970" points="1026.1845,-259.9029 1015.6254,-259.0338 1023.3379,-266.2979 1026.1845,-259.9029"/>
</g>
<!-- Node5&#45;&gt;Node30 -->
<g id="edge119" class="edge">
<title>Node5&#45;&gt;Node30</title>
<path fill="none" stroke="#191970" d="M2425.5433,-449.6246C2555.9186,-404.5756 2894.457,-286.0501 2909,-265 2987.3698,-151.5649 2760.005,-66.4287 2646.3921,-32.1058"/>
<polygon fill="#191970" stroke="#191970" points="2647.3415,-28.7366 2636.7583,-29.2347 2645.3422,-35.4451 2647.3415,-28.7366"/>
</g>
<!-- Node32 -->
<g id="node25" class="node">
<title>Node32</title>
<polygon fill="#ffffff" stroke="#bfbfbf" points="2780.5,-.5 2780.5,-30.5 2881.5,-30.5 2881.5,-.5 2780.5,-.5"/>
<text text-anchor="start" x="2788.5" y="-18.5" font-family="Helvetica,sans-Serif" font-size="10.00" fill="#000000">tensorflow/compiler</text>
<text text-anchor="middle" x="2831" y="-7.5" font-family="Helvetica,sans-Serif" font-size="10.00" fill="#000000">/xla/xla_data.pb.h</text>
</g>
<!-- Node5&#45;&gt;Node32 -->
<g id="edge120" class="edge">
<title>Node5&#45;&gt;Node32</title>
<path fill="none" stroke="#191970" d="M2425.5062,-457.0312C2552.1172,-430.83 2876.7314,-355.7507 2930,-265 2956.0224,-220.6672 2952.5728,-152.567 2899,-67 2891.4225,-54.8971 2879.9064,-44.6053 2868.4935,-36.4773"/>
<polygon fill="#191970" stroke="#191970" points="2870.1093,-33.3469 2859.8531,-30.6893 2866.2134,-39.1626 2870.1093,-33.3469"/>
</g>
<!-- Node5&#45;&gt;Node45 -->
<g id="edge121" class="edge">
<title>Node5&#45;&gt;Node45</title>
<path fill="none" stroke="#191970" d="M2324.2877,-465.5449C2174.9205,-460.9651 1723.7146,-445.0221 1351,-410 862.6767,-364.1147 589.435,-625.6273 257,-265 238.9756,-245.447 240.8892,-213.4276 245.2382,-191.1162"/>
<polygon fill="#191970" stroke="#191970" points="248.6591,-191.8561 247.4182,-181.3342 241.8267,-190.3334 248.6591,-191.8561"/>
</g>
<!-- Node9 -->
<g id="node10" class="node">
<title>Node9</title>
<polygon fill="#ffffff" stroke="#bfbfbf" points="294.5,-229 294.5,-259 409.5,-259 409.5,-229 294.5,-229"/>
<text text-anchor="start" x="302.5" y="-247" font-family="Helvetica,sans-Serif" font-size="10.00" fill="#000000">tensorflow/compiler</text>
<text text-anchor="middle" x="352" y="-236" font-family="Helvetica,sans-Serif" font-size="10.00" fill="#000000">/xla/service/backend.h</text>
</g>
<!-- Node8&#45;&gt;Node9 -->
<g id="edge9" class="edge">
<title>Node8&#45;&gt;Node9</title>
<path fill="none" stroke="#191970" d="M1654.9154,-388.3C1478.5416,-385.0237 888.3576,-366.6489 414,-265 409.9371,-264.1294 405.77,-263.0791 401.6114,-261.9182"/>
<polygon fill="#191970" stroke="#191970" points="402.5598,-258.5487 391.9765,-259.0412 400.557,-265.2561 402.5598,-258.5487"/>
</g>
<!-- Node8&#45;&gt;Node10 -->
<g id="edge10" class="edge">
<title>Node8&#45;&gt;Node10</title>
<path fill="none" stroke="#191970" d="M1654.9375,-381.1367C1543.7476,-363.9014 1275.1879,-319.9154 1054,-265 1049.9299,-263.9895 1045.744,-262.8955 1041.538,-261.7556"/>
<polygon fill="#191970" stroke="#191970" points="1042.3046,-258.3361 1031.7325,-259.0306 1040.4302,-265.0805 1042.3046,-258.3361"/>
</g>
<!-- Node8&#45;&gt;Node30 -->
<g id="edge115" class="edge">
<title>Node8&#45;&gt;Node30</title>
<path fill="none" stroke="#191970" d="M1759.2399,-387.8612C1933.005,-383.1914 2488.8204,-360.911 2635,-265 2709.6536,-216.0185 2718.6987,-141.1781 2669,-67 2660.1729,-53.8251 2646.7193,-43.4035 2633.197,-35.4817"/>
<polygon fill="#191970" stroke="#191970" points="2634.8006,-32.3694 2624.349,-30.6331 2631.4367,-38.5081 2634.8006,-32.3694"/>
</g>
<!-- Node8&#45;&gt;Node32 -->
<g id="edge116" class="edge">
<title>Node8&#45;&gt;Node32</title>
<path fill="none" stroke="#191970" d="M1759.1118,-386.8903C1886.1364,-381.3923 2221.7192,-364.7262 2500,-332 2545.735,-326.6215 2879.1856,-300.0958 2909,-265 2966.793,-196.9694 2889.7339,-86.1931 2850.926,-38.5158"/>
<polygon fill="#191970" stroke="#191970" points="2853.4655,-36.095 2844.387,-30.6332 2848.078,-40.5644 2853.4655,-36.095"/>
</g>
<!-- Node8&#45;&gt;Node45 -->
<g id="edge117" class="edge">
<title>Node8&#45;&gt;Node45</title>
<path fill="none" stroke="#191970" d="M1654.7028,-387.2787C1466.2595,-380.9179 822.3871,-357.7699 618,-332 468.2199,-313.1151 398.1182,-364.975 285,-265 264.0009,-246.4408 256.3303,-214.1639 253.5479,-191.5233"/>
<polygon fill="#191970" stroke="#191970" points="257.0028,-190.8932 252.5377,-181.2852 250.0366,-191.5806 257.0028,-190.8932"/>
</g>
<!-- Node47 -->
<g id="node35" class="node">
<title>Node47</title>
<g id="a_node35"><a xlink:href="../../d5/d83/service_8h.html" target="_top" xlink:title="tensorflow/compiler\l/xla/service/service.h">
<polygon fill="#ffffff" stroke="#000000" points="1540,-301.5 1540,-331.5 1650,-331.5 1650,-301.5 1540,-301.5"/>
<text text-anchor="start" x="1548" y="-319.5" font-family="Helvetica,sans-Serif" font-size="10.00" fill="#000000">tensorflow/compiler</text>
<text text-anchor="middle" x="1595" y="-308.5" font-family="Helvetica,sans-Serif" font-size="10.00" fill="#000000">/xla/service/service.h</text>
</a>
</g>
</g>
<!-- Node8&#45;&gt;Node47 -->
<g id="edge55" class="edge">
<title>Node8&#45;&gt;Node47</title>
<path fill="none" stroke="#191970" d="M1675.2049,-368.4183C1660.0676,-358.6196 1642.0085,-346.9296 1626.8625,-337.1253"/>
<polygon fill="#191970" stroke="#191970" points="1628.6222,-334.0951 1618.3255,-331.5991 1624.8183,-339.9714 1628.6222,-334.0951"/>
</g>
<!-- Node10&#45;&gt;Node1 -->
<g id="edge11" class="edge">
<title>Node10&#45;&gt;Node1</title>
<path fill="none" stroke="#191970" d="M925.8078,-241.0082C819.9549,-234.7899 597.9114,-218.3655 528,-187 502.1366,-175.3965 505.6664,-157.033 480,-145 387.9077,-101.8249 351.1188,-139.2162 254,-109 248.0975,-107.1636 241.9818,-104.6659 236.255,-102.0336"/>
<polygon fill="#191970" stroke="#191970" points="237.6134,-98.8022 227.0904,-97.5698 234.548,-105.0954 237.6134,-98.8022"/>
</g>
<!-- Node10&#45;&gt;Node2 -->
<g id="edge13" class="edge">
<title>Node10&#45;&gt;Node2</title>
<path fill="none" stroke="#191970" d="M1001.3374,-228.8104C1028.0769,-207.3476 1080.0404,-168.1826 1130,-145 1183.218,-120.3054 1217.1156,-152.0257 1257,-109 1275.5181,-89.0234 1278.0855,-56.1302 1277.5533,-35.1577"/>
<polygon fill="#191970" stroke="#191970" points="1281.0477,-34.9571 1277.0406,-25.1493 1274.0569,-35.3153 1281.0477,-34.9571"/>
</g>
<!-- Node10&#45;&gt;Node3 -->
<g id="edge14" class="edge">
<title>Node10&#45;&gt;Node3</title>
<path fill="none" stroke="#191970" d="M925.7213,-239.7379C833.3711,-232.161 656.236,-214.5088 600,-187 575.7153,-175.1207 580.0333,-157.3801 556,-145 480.3708,-106.0416 422.2049,-174.5695 368,-109 350.7872,-88.1783 358.8339,-55.0579 366.6235,-34.3356"/>
<polygon fill="#191970" stroke="#191970" points="369.8899,-35.5946 370.4266,-25.0134 363.4085,-32.9504 369.8899,-35.5946"/>
</g>
<!-- Node11 -->
<g id="node12" class="node">
<title>Node11</title>
<polygon fill="#ffffff" stroke="#bfbfbf" points="1734.5,-78.5 1734.5,-97.5 1769.5,-97.5 1769.5,-78.5 1734.5,-78.5"/>
<text text-anchor="middle" x="1752" y="-85.5" font-family="Helvetica,sans-Serif" font-size="10.00" fill="#000000">map</text>
</g>
<!-- Node10&#45;&gt;Node11 -->
<g id="edge12" class="edge">
<title>Node10&#45;&gt;Node11</title>
<path fill="none" stroke="#191970" d="M1040.2334,-235.2075C1091.8764,-226.2933 1169.4216,-210.4508 1234,-187 1272.4877,-173.0237 1276.8506,-156.9987 1316,-145 1442.2857,-106.2954 1480.1116,-126.7303 1611,-109 1650.362,-103.668 1695.7891,-96.7676 1724.2052,-92.3611"/>
<polygon fill="#191970" stroke="#191970" points="1724.8723,-95.7995 1734.2149,-90.8029 1723.7955,-88.8828 1724.8723,-95.7995"/>
</g>
<!-- Node12 -->
<g id="node13" class="node">
<title>Node12</title>
<polygon fill="#ffffff" stroke="#bfbfbf" points="1324.5,-151 1324.5,-181 1449.5,-181 1449.5,-151 1324.5,-151"/>
<text text-anchor="start" x="1332.5" y="-169" font-family="Helvetica,sans-Serif" font-size="10.00" fill="#000000">tensorflow/compiler</text>
<text text-anchor="middle" x="1387" y="-158" font-family="Helvetica,sans-Serif" font-size="10.00" fill="#000000">/xla/service/executable.h</text>
</g>
<!-- Node10&#45;&gt;Node12 -->
<g id="edge15" class="edge">
<title>Node10&#45;&gt;Node12</title>
<path fill="none" stroke="#191970" d="M1030.9086,-228.9541C1038.5893,-226.7955 1046.4829,-224.7254 1054,-223 1149.7123,-201.0315 1175.2503,-203.8209 1272,-187 1285.6766,-184.6222 1300.2543,-182.0159 1314.2753,-179.4729"/>
<polygon fill="#191970" stroke="#191970" points="1315.1538,-182.8706 1324.3655,-177.6366 1313.9004,-175.9837 1315.1538,-182.8706"/>
</g>
<!-- Node13 -->
<g id="node14" class="node">
<title>Node13</title>
<g id="a_node14"><a xlink:href="../../db/da0/hlo__module_8h.html" target="_top" xlink:title="tensorflow/compiler\l/xla/service/hlo_module.h">
<polygon fill="#ffffff" stroke="#ff0000" points="864,-151 864,-181 992,-181 992,-151 864,-151"/>
<text text-anchor="start" x="872" y="-169" font-family="Helvetica,sans-Serif" font-size="10.00" fill="#000000">tensorflow/compiler</text>
<text text-anchor="middle" x="928" y="-158" font-family="Helvetica,sans-Serif" font-size="10.00" fill="#000000">/xla/service/hlo_module.h</text>
</a>
</g>
</g>
<!-- Node10&#45;&gt;Node13 -->
<g id="edge16" class="edge">
<title>Node10&#45;&gt;Node13</title>
<path fill="none" stroke="#191970" d="M972.3954,-228.9608C964.533,-217.8105 953.6623,-202.3938 944.6458,-189.6068"/>
<polygon fill="#191970" stroke="#191970" points="947.3828,-187.4148 938.7597,-181.2592 941.662,-191.4487 947.3828,-187.4148"/>
</g>
<!-- Node10&#45;&gt;Node30 -->
<g id="edge49" class="edge">
<title>Node10&#45;&gt;Node30</title>
<path fill="none" stroke="#191970" d="M1023.2643,-228.8991C1048.4868,-218.6609 1081.1782,-203.9375 1108,-187 1132.5388,-171.5042 1132.4313,-158.7301 1158,-145 1207.8068,-118.2543 1229.699,-134.8043 1280,-109 1307.0527,-95.1221 1305.4292,-77.3997 1334,-67 1435.2425,-30.1481 2195.3727,-35.9463 2303,-31 2379.5828,-27.4804 2467.7714,-22.5037 2525.0728,-19.1472"/>
<polygon fill="#191970" stroke="#191970" points="2525.6257,-22.6208 2535.4031,-18.54 2525.2149,-15.6329 2525.6257,-22.6208"/>
</g>
<!-- Node10&#45;&gt;Node31 -->
<g id="edge50" class="edge">
<title>Node10&#45;&gt;Node31</title>
<path fill="none" stroke="#191970" d="M1040.1118,-237.7231C1084.266,-233.0644 1146.9439,-226.8728 1202,-223 1557.9239,-197.963 1653.8068,-255.3621 2004,-187 2105.8194,-167.1236 2155.9636,-187.3155 2224,-109 2240.2068,-90.3446 2243.9768,-61.6787 2244.3014,-41.0055"/>
<polygon fill="#191970" stroke="#191970" points="2247.7985,-40.7011 2244.1947,-30.7381 2240.7989,-40.7739 2247.7985,-40.7011"/>
</g>
<!-- Node34 -->
<g id="node26" class="node">
<title>Node34</title>
<polygon fill="#ffffff" stroke="#bfbfbf" points="233,-.5 233,-30.5 329,-30.5 329,-.5 233,-.5"/>
<text text-anchor="start" x="241" y="-18.5" font-family="Helvetica,sans-Serif" font-size="10.00" fill="#000000">tensorflow/core/lib</text>
<text text-anchor="middle" x="281" y="-7.5" font-family="Helvetica,sans-Serif" font-size="10.00" fill="#000000">/gtl/array_slice.h</text>
</g>
<!-- Node10&#45;&gt;Node34 -->
<g id="edge51" class="edge">
<title>Node10&#45;&gt;Node34</title>
<path fill="none" stroke="#191970" d="M925.828,-241.2255C824.715,-235.5271 619.0538,-220.1502 556,-187 533.7187,-175.2857 539.8773,-157.4523 518,-145 447.854,-105.0737 406.4453,-154.8213 340,-109 315.7191,-92.2557 299.3297,-61.9248 290.1065,-40.3511"/>
<polygon fill="#191970" stroke="#191970" points="293.2568,-38.8053 286.2608,-30.8488 286.768,-41.4315 293.2568,-38.8053"/>
</g>
<!-- Node39 -->
<g id="node28" class="node">
<title>Node39</title>
<polygon fill="#ffffff" stroke="#bfbfbf" points="1342.5,-67.5 1342.5,-108.5 1461.5,-108.5 1461.5,-67.5 1342.5,-67.5"/>
<text text-anchor="start" x="1350.5" y="-96.5" font-family="Helvetica,sans-Serif" font-size="10.00" fill="#000000">tensorflow/compiler</text>
<text text-anchor="start" x="1350.5" y="-85.5" font-family="Helvetica,sans-Serif" font-size="10.00" fill="#000000">/xla/service/hlo_module</text>
<text text-anchor="middle" x="1402" y="-74.5" font-family="Helvetica,sans-Serif" font-size="10.00" fill="#000000">_config.h</text>
</g>
<!-- Node10&#45;&gt;Node39 -->
<g id="edge47" class="edge">
<title>Node10&#45;&gt;Node39</title>
<path fill="none" stroke="#191970" d="M1032.7925,-228.9029C1080.485,-214.2616 1146.8189,-193.3553 1158,-187 1182.6443,-172.9924 1181.1356,-158.6132 1206,-145 1208.9506,-143.3845 1277.3895,-123.6227 1332.5717,-107.815"/>
<polygon fill="#191970" stroke="#191970" points="1333.7006,-111.1325 1342.351,-105.0152 1331.7738,-104.4029 1333.7006,-111.1325"/>
</g>
<!-- Node10&#45;&gt;Node43 -->
<g id="edge52" class="edge">
<title>Node10&#45;&gt;Node43</title>
<path fill="none" stroke="#191970" d="M1032.968,-228.9529C1040.017,-226.9084 1047.1824,-224.8717 1054,-223 1116.7847,-205.7635 1138.3572,-217.2708 1196,-187 1221.0969,-173.8205 1218.3295,-157.0242 1244,-145 1336.5046,-101.6702 1371.4107,-131.7274 1471,-109 1475.2908,-108.0208 1479.704,-106.9214 1484.1276,-105.7524"/>
<polygon fill="#191970" stroke="#191970" points="1485.0681,-109.1237 1493.785,-103.1015 1483.2152,-102.3734 1485.0681,-109.1237"/>
</g>
<!-- Node44 -->
<g id="node32" class="node">
<title>Node44</title>
<polygon fill="#ffffff" stroke="#bfbfbf" points="608.5,-145.5 608.5,-186.5 709.5,-186.5 709.5,-145.5 608.5,-145.5"/>
<text text-anchor="start" x="616.5" y="-174.5" font-family="Helvetica,sans-Serif" font-size="10.00" fill="#000000">tensorflow/compiler</text>
<text text-anchor="start" x="616.5" y="-163.5" font-family="Helvetica,sans-Serif" font-size="10.00" fill="#000000">/xla/service/logical</text>
<text text-anchor="middle" x="659" y="-152.5" font-family="Helvetica,sans-Serif" font-size="10.00" fill="#000000">_buffer.h</text>
</g>
<!-- Node10&#45;&gt;Node44 -->
<g id="edge48" class="edge">
<title>Node10&#45;&gt;Node44</title>
<path fill="none" stroke="#191970" d="M925.7766,-233.0469C873.0396,-222.5653 792.7701,-205.6303 724,-187 722.5334,-186.6027 721.0508,-186.1926 719.5575,-185.7719"/>
<polygon fill="#191970" stroke="#191970" points="720.1819,-182.3081 709.6017,-182.8663 718.2207,-189.0278 720.1819,-182.3081"/>
</g>
<!-- Node10&#45;&gt;Node45 -->
<g id="edge53" class="edge">
<title>Node10&#45;&gt;Node45</title>
<path fill="none" stroke="#191970" d="M925.9441,-237.912C797.1027,-224.1642 483.2533,-190.6755 333.765,-174.7246"/>
<polygon fill="#191970" stroke="#191970" points="334.0401,-171.2342 323.7251,-173.6533 333.2973,-178.1946 334.0401,-171.2342"/>
</g>
<!-- Node10&#45;&gt;Node46 -->
<g id="edge54" class="edge">
<title>Node10&#45;&gt;Node46</title>
<path fill="none" stroke="#191970" d="M1040.1013,-237.5676C1084.2499,-232.8264 1146.9254,-226.5997 1202,-223 1316.2705,-215.5312 2128.1575,-235.2728 2232,-187 2254.8271,-176.3885 2252.2711,-162.8707 2270,-145 2281.881,-133.024 2295.646,-120.2652 2307.1837,-109.8616"/>
<polygon fill="#191970" stroke="#191970" points="2309.6492,-112.352 2314.7649,-103.0741 2304.9799,-107.1368 2309.6492,-112.352"/>
</g>
<!-- Node13&#45;&gt;Node2 -->
<g id="edge19" class="edge">
<title>Node13&#45;&gt;Node2</title>
<path fill="none" stroke="#191970" d="M930.9885,-150.8311C936.2024,-128.65 949.1765,-87.754 977,-67 1018.0639,-36.3698 1169.3471,-22.5541 1239.6479,-17.6846"/>
<polygon fill="#191970" stroke="#191970" points="1240.0646,-21.1646 1249.8084,-17.0043 1239.5969,-14.1803 1240.0646,-21.1646"/>
</g>
<!-- Node13&#45;&gt;Node3 -->
<g id="edge21" class="edge">
<title>Node13&#45;&gt;Node3</title>
<path fill="none" stroke="#191970" d="M863.8895,-158.3388C742.1206,-143.7203 488.664,-112.9425 480,-109 441.5577,-91.5071 407.1132,-54.9462 388.8244,-33.0851"/>
<polygon fill="#191970" stroke="#191970" points="391.4558,-30.7737 382.4238,-25.2354 386.0307,-35.1973 391.4558,-30.7737"/>
</g>
<!-- Node13&#45;&gt;Node4 -->
<g id="edge23" class="edge">
<title>Node13&#45;&gt;Node4</title>
<path fill="none" stroke="#191970" d="M863.7207,-158.4084C762.225,-146.126 573.3971,-121.9676 545,-109 505.758,-91.08 469.7674,-54.6694 450.5605,-32.9505"/>
<polygon fill="#191970" stroke="#191970" points="453.015,-30.4376 443.8307,-25.1556 447.7165,-35.0122 453.015,-30.4376"/>
</g>
<!-- Node14 -->
<g id="node15" class="node">
<title>Node14</title>
<polygon fill="#ffffff" stroke="#bfbfbf" points="986,-78.5 986,-97.5 1032,-97.5 1032,-78.5 986,-78.5"/>
<text text-anchor="middle" x="1009" y="-85.5" font-family="Helvetica,sans-Serif" font-size="10.00" fill="#000000">atomic</text>
</g>
<!-- Node13&#45;&gt;Node14 -->
<g id="edge17" class="edge">
<title>Node13&#45;&gt;Node14</title>
<path fill="none" stroke="#191970" d="M943.6176,-150.9608C957.4265,-137.6634 977.5362,-118.2984 991.8011,-104.5619"/>
<polygon fill="#191970" stroke="#191970" points="994.2721,-107.0414 999.0475,-97.5839 989.4165,-101.9992 994.2721,-107.0414"/>
</g>
<!-- Node15 -->
<g id="node16" class="node">
<title>Node15</title>
<polygon fill="#ffffff" stroke="#bfbfbf" points="1045.5,-6 1045.5,-25 1074.5,-25 1074.5,-6 1045.5,-6"/>
<text text-anchor="middle" x="1060" y="-13" font-family="Helvetica,sans-Serif" font-size="10.00" fill="#000000">list</text>
</g>
<!-- Node13&#45;&gt;Node15 -->
<g id="edge18" class="edge">
<title>Node13&#45;&gt;Node15</title>
<path fill="none" stroke="#191970" d="M980.2826,-150.9869C1002.1509,-142.1538 1025.9334,-128.7352 1041,-109 1057.3683,-87.5598 1060.6006,-55.5629 1060.7856,-35.1152"/>
<polygon fill="#191970" stroke="#191970" points="1064.2848,-35.0316 1060.6389,-25.0839 1057.2856,-35.134 1064.2848,-35.0316"/>
</g>
<!-- Node16 -->
<g id="node17" class="node">
<title>Node16</title>
<polygon fill="#ffffff" stroke="#bfbfbf" points="638.5,-78.5 638.5,-97.5 687.5,-97.5 687.5,-78.5 638.5,-78.5"/>
<text text-anchor="middle" x="663" y="-85.5" font-family="Helvetica,sans-Serif" font-size="10.00" fill="#000000">random</text>
</g>
<!-- Node13&#45;&gt;Node16 -->
<g id="edge20" class="edge">
<title>Node13&#45;&gt;Node16</title>
<path fill="none" stroke="#191970" d="M863.8627,-154.2324C817.894,-144.7443 754.9953,-129.5855 702,-109 697.3183,-107.1814 692.4869,-104.9239 687.887,-102.5698"/>
<polygon fill="#191970" stroke="#191970" points="689.3542,-99.3844 678.8922,-97.7116 686.0276,-105.5434 689.3542,-99.3844"/>
</g>
<!-- Node17 -->
<g id="node18" class="node">
<title>Node17</title>
<polygon fill="#ffffff" stroke="#bfbfbf" points="476.5,-6 476.5,-25 559.5,-25 559.5,-6 476.5,-6"/>
<text text-anchor="middle" x="518" y="-13" font-family="Helvetica,sans-Serif" font-size="10.00" fill="#000000">unordered_map</text>
</g>
<!-- Node13&#45;&gt;Node17 -->
<g id="edge22" class="edge">
<title>Node13&#45;&gt;Node17</title>
<path fill="none" stroke="#191970" d="M863.7334,-157.6802C772.5376,-145.489 614.0293,-122.7334 591,-109 560.9363,-91.0716 538.614,-55.7336 527.006,-34.007"/>
<polygon fill="#191970" stroke="#191970" points="530.1134,-32.3963 522.4372,-25.0938 523.8841,-35.5894 530.1134,-32.3963"/>
</g>
<!-- Node18 -->
<g id="node19" class="node">
<title>Node18</title>
<polygon fill="#ffffff" stroke="#bfbfbf" points="577.5,-.5 577.5,-30.5 678.5,-30.5 678.5,-.5 577.5,-.5"/>
<text text-anchor="start" x="585.5" y="-18.5" font-family="Helvetica,sans-Serif" font-size="10.00" fill="#000000">tensorflow/compiler</text>
<text text-anchor="middle" x="628" y="-7.5" font-family="Helvetica,sans-Serif" font-size="10.00" fill="#000000">/xla/iterator_util.h</text>
</g>
<!-- Node13&#45;&gt;Node18 -->
<g id="edge24" class="edge">
<title>Node13&#45;&gt;Node18</title>
<path fill="none" stroke="#191970" d="M863.657,-159.1166C773.9919,-148.8679 620.5243,-128.6851 604,-109 587.4807,-89.3209 599.3552,-59.6784 611.5393,-39.0642"/>
<polygon fill="#191970" stroke="#191970" points="614.5214,-40.8967 616.8778,-30.5673 608.5942,-37.1728 614.5214,-40.8967"/>
</g>
<!-- Node19 -->
<g id="node20" class="node">
<title>Node19</title>
<polygon fill="#ffffff" stroke="#bfbfbf" points="697,-.5 697,-30.5 801,-30.5 801,-.5 697,-.5"/>
<text text-anchor="start" x="705" y="-18.5" font-family="Helvetica,sans-Serif" font-size="10.00" fill="#000000">tensorflow/compiler</text>
<text text-anchor="middle" x="749" y="-7.5" font-family="Helvetica,sans-Serif" font-size="10.00" fill="#000000">/xla/service/hlo.pb.h</text>
</g>
<!-- Node13&#45;&gt;Node19 -->
<g id="edge25" class="edge">
<title>Node13&#45;&gt;Node19</title>
<path fill="none" stroke="#191970" d="M863.6983,-158.6205C777.291,-148.049 632.6603,-127.7914 617,-109 605.0495,-94.6602 606.4692,-82.4125 617,-67 625.6404,-54.3542 657.1068,-41.8256 687.1489,-32.2922"/>
<polygon fill="#191970" stroke="#191970" points="688.2995,-35.6001 696.822,-29.3059 686.2345,-28.9116 688.2995,-35.6001"/>
</g>
<!-- Node20 -->
<g id="node21" class="node">
<title>Node20</title>
<g id="a_node21"><a xlink:href="../../d2/d31/hlo__computation_8h.html" target="_top" xlink:title="tensorflow/compiler\l/xla/service/hlo_computation.h">
<polygon fill="#ffffff" stroke="#ff0000" points="781.5,-73 781.5,-103 930.5,-103 930.5,-73 781.5,-73"/>
<text text-anchor="start" x="789.5" y="-91" font-family="Helvetica,sans-Serif" font-size="10.00" fill="#000000">tensorflow/compiler</text>
<text text-anchor="middle" x="856" y="-80" font-family="Helvetica,sans-Serif" font-size="10.00" fill="#000000">/xla/service/hlo_computation.h</text>
</a>
</g>
</g>
<!-- Node13&#45;&gt;Node20 -->
<g id="edge26" class="edge">
<title>Node13&#45;&gt;Node20</title>
<path fill="none" stroke="#191970" d="M914.1177,-150.9608C903.6271,-139.5961 889.0455,-123.7992 877.1127,-110.8721"/>
<polygon fill="#191970" stroke="#191970" points="879.44,-108.2332 870.0854,-103.2592 874.2964,-112.9812 879.44,-108.2332"/>
</g>
<!-- Node26 -->
<g id="node22" class="node">
<title>Node26</title>
<polygon fill="#ffffff" stroke="#bfbfbf" points="819.5,-.5 819.5,-30.5 960.5,-30.5 960.5,-.5 819.5,-.5"/>
<text text-anchor="start" x="827.5" y="-18.5" font-family="Helvetica,sans-Serif" font-size="10.00" fill="#000000">tensorflow/compiler</text>
<text text-anchor="middle" x="890" y="-7.5" font-family="Helvetica,sans-Serif" font-size="10.00" fill="#000000">/xla/service/hlo_instruction.h</text>
</g>
<!-- Node13&#45;&gt;Node26 -->
<g id="edge40" class="edge">
<title>Node13&#45;&gt;Node26</title>
<path fill="none" stroke="#191970" d="M863.9178,-158.1054C780.8519,-147.2199 644.8108,-126.9123 630,-109 618.105,-94.6141 618.1522,-81.4248 630,-67 630.7337,-66.1067 733.1026,-46.0213 809.1529,-31.2035"/>
<polygon fill="#191970" stroke="#191970" points="810.0792,-34.5889 819.2256,-29.2417 808.7409,-27.718 810.0792,-34.5889"/>
</g>
<!-- Node13&#45;&gt;Node31 -->
<g id="edge43" class="edge">
<title>Node13&#45;&gt;Node31</title>
<path fill="none" stroke="#191970" d="M971.6385,-150.906C998.7777,-140.7195 1033.9201,-126.0493 1063,-109 1089.2291,-93.6221 1088.474,-77.522 1117,-67 1217.0228,-30.1059 1962.6596,-18.7059 2182.2961,-16.1306"/>
<polygon fill="#191970" stroke="#191970" points="2182.3938,-19.6298 2192.3527,-16.0146 2182.313,-12.6303 2182.3938,-19.6298"/>
</g>
<!-- Node13&#45;&gt;Node34 -->
<g id="edge44" class="edge">
<title>Node13&#45;&gt;Node34</title>
<path fill="none" stroke="#191970" d="M863.7581,-159.6539C731.3413,-146.4583 438.6358,-116.6518 418,-109 374.1467,-92.739 330.7918,-59.4744 304.9555,-37.3282"/>
<polygon fill="#191970" stroke="#191970" points="307.0402,-34.502 297.2043,-30.5642 302.4377,-39.7763 307.0402,-34.502"/>
</g>
<!-- Node13&#45;&gt;Node39 -->
<g id="edge41" class="edge">
<title>Node13&#45;&gt;Node39</title>
<path fill="none" stroke="#191970" d="M992.419,-155.3994C1081.2276,-140.7853 1240.6497,-114.5513 1332.2081,-99.4848"/>
<polygon fill="#191970" stroke="#191970" points="1332.9125,-102.916 1342.2115,-97.8386 1331.7759,-96.0089 1332.9125,-102.916"/>
</g>
<!-- Node40 -->
<g id="node29" class="node">
<title>Node40</title>
<polygon fill="#ffffff" stroke="#bfbfbf" points="2097.5,-67.5 2097.5,-108.5 2214.5,-108.5 2214.5,-67.5 2097.5,-67.5"/>
<text text-anchor="start" x="2105.5" y="-96.5" font-family="Helvetica,sans-Serif" font-size="10.00" fill="#000000">tensorflow/compiler</text>
<text text-anchor="start" x="2105.5" y="-85.5" font-family="Helvetica,sans-Serif" font-size="10.00" fill="#000000">/xla/service/versioned</text>
<text text-anchor="middle" x="2156" y="-74.5" font-family="Helvetica,sans-Serif" font-size="10.00" fill="#000000">_computation_handle.h</text>
</g>
<!-- Node13&#45;&gt;Node40 -->
<g id="edge42" class="edge">
<title>Node13&#45;&gt;Node40</title>
<path fill="none" stroke="#191970" d="M992.2483,-162.4144C1179.2039,-151.9504 1720.8846,-121.4105 1898,-109 1962.1978,-104.5016 2035.3046,-98.4647 2087.2648,-94.0182"/>
<polygon fill="#191970" stroke="#191970" points="2087.702,-97.4936 2097.366,-93.151 2087.1032,-90.5193 2087.702,-97.4936"/>
</g>
<!-- Node42 -->
<g id="node30" class="node">
<title>Node42</title>
<polygon fill="#ffffff" stroke="#bfbfbf" points="1126,-73 1126,-103 1248,-103 1248,-73 1126,-73"/>
<text text-anchor="start" x="1134" y="-91" font-family="Helvetica,sans-Serif" font-size="10.00" fill="#000000">tensorflow/core/platform</text>
<text text-anchor="middle" x="1187" y="-80" font-family="Helvetica,sans-Serif" font-size="10.00" fill="#000000">/logging.h</text>
</g>
<!-- Node13&#45;&gt;Node42 -->
<g id="edge45" class="edge">
<title>Node13&#45;&gt;Node42</title>
<path fill="none" stroke="#191970" d="M977.9378,-150.9608C1020.5287,-138.1342 1081.8657,-119.6621 1127.0927,-106.0416"/>
<polygon fill="#191970" stroke="#191970" points="1128.2084,-109.3609 1136.7743,-103.1259 1126.1898,-102.6583 1128.2084,-109.3609"/>
</g>
<!-- Node13&#45;&gt;Node43 -->
<g id="edge46" class="edge">
<title>Node13&#45;&gt;Node43</title>
<path fill="none" stroke="#191970" d="M992.2586,-160.7724C1115.5005,-150.4956 1380.8517,-127.0885 1471,-109 1475.7272,-108.0515 1480.5933,-106.9218 1485.453,-105.6858"/>
<polygon fill="#191970" stroke="#191970" points="1486.622,-108.996 1495.3726,-103.023 1484.8071,-102.2353 1486.622,-108.996"/>
</g>
<!-- Node20&#45;&gt;Node2 -->
<g id="edge28" class="edge">
<title>Node20&#45;&gt;Node2</title>
<path fill="none" stroke="#191970" d="M916.4536,-72.8984C925.6555,-70.7957 935.0611,-68.7569 944,-67 1050.854,-45.998 1178.4327,-28.238 1239.675,-20.1616"/>
<polygon fill="#191970" stroke="#191970" points="1240.1604,-23.628 1249.6209,-18.8583 1239.2509,-16.6873 1240.1604,-23.628"/>
</g>
<!-- Node20&#45;&gt;Node3 -->
<g id="edge29" class="edge">
<title>Node20&#45;&gt;Node3</title>
<path fill="none" stroke="#191970" d="M781.4822,-74.8857C764.5819,-72.105 746.6947,-69.3141 730,-67 586.0484,-47.0466 544.1088,-73.0587 405,-31 403.527,-30.5546 402.0406,-30.0376 400.5591,-29.4684"/>
<polygon fill="#191970" stroke="#191970" points="401.5994,-26.0973 391.0462,-25.1587 398.7107,-32.4735 401.5994,-26.0973"/>
</g>
<!-- Node20&#45;&gt;Node4 -->
<g id="edge31" class="edge">
<title>Node20&#45;&gt;Node4</title>
<path fill="none" stroke="#191970" d="M797.0261,-72.9395C787.3656,-70.7573 777.432,-68.6837 768,-67 635.3654,-43.3239 596.0535,-69.6999 467,-31 465.3358,-30.5009 463.6525,-29.9173 461.9758,-29.2744"/>
<polygon fill="#191970" stroke="#191970" points="463.181,-25.9801 452.6209,-25.1226 460.3413,-32.3783 463.181,-25.9801"/>
</g>
<!-- Node20&#45;&gt;Node15 -->
<g id="edge27" class="edge">
<title>Node20&#45;&gt;Node15</title>
<path fill="none" stroke="#191970" d="M898.2689,-72.978C939.7283,-58.2436 1001.516,-36.2847 1035.463,-24.2203"/>
<polygon fill="#191970" stroke="#191970" points="1036.8005,-27.4595 1045.0511,-20.8127 1034.4564,-20.8636 1036.8005,-27.4595"/>
</g>
<!-- Node20&#45;&gt;Node17 -->
<g id="edge30" class="edge">
<title>Node20&#45;&gt;Node17</title>
<path fill="none" stroke="#191970" d="M795.0297,-72.9891C785.9855,-70.8965 776.7624,-68.8366 768,-67 680.0316,-48.5615 656.3674,-52.1036 569,-31 565.1137,-30.0613 561.0866,-28.9979 557.077,-27.8788"/>
<polygon fill="#191970" stroke="#191970" points="557.8153,-24.4487 547.2359,-25.0211 555.8632,-31.171 557.8153,-24.4487"/>
</g>
<!-- Node20&#45;&gt;Node18 -->
<g id="edge32" class="edge">
<title>Node20&#45;&gt;Node18</title>
<path fill="none" stroke="#191970" d="M808.7583,-72.978C772.8377,-61.5559 723.264,-45.7923 685.1164,-33.662"/>
<polygon fill="#191970" stroke="#191970" points="685.7717,-30.1977 675.1812,-30.5028 683.6504,-36.8686 685.7717,-30.1977"/>
</g>
<!-- Node20&#45;&gt;Node19 -->
<g id="edge33" class="edge">
<title>Node20&#45;&gt;Node19</title>
<path fill="none" stroke="#191970" d="M833.8295,-72.978C818.1916,-62.3821 797.0397,-48.0502 779.7696,-36.3486"/>
<polygon fill="#191970" stroke="#191970" points="781.384,-33.2147 771.1421,-30.5028 777.4574,-39.0097 781.384,-33.2147"/>
</g>
<!-- Node20&#45;&gt;Node26 -->
<g id="edge34" class="edge">
<title>Node20&#45;&gt;Node26</title>
<path fill="none" stroke="#191970" d="M863.0448,-72.978C867.558,-63.3542 873.5166,-50.6485 878.6835,-39.6307"/>
<polygon fill="#191970" stroke="#191970" points="881.8871,-41.0427 882.9642,-30.5028 875.5494,-38.0706 881.8871,-41.0427"/>
</g>
<!-- Node20&#45;&gt;Node30 -->
<g id="edge35" class="edge">
<title>Node20&#45;&gt;Node30</title>
<path fill="none" stroke="#191970" d="M930.6416,-73.3057C945.922,-70.7885 961.937,-68.5036 977,-67 1563.635,-8.441 1713.9432,-55.1231 2303,-31 2379.5994,-27.8631 2467.7844,-22.8033 2525.0805,-19.323"/>
<polygon fill="#191970" stroke="#191970" points="2525.6416,-22.7954 2535.4097,-18.6924 2525.2149,-15.8084 2525.6416,-22.7954"/>
</g>
<!-- Node20&#45;&gt;Node31 -->
<g id="edge36" class="edge">
<title>Node20&#45;&gt;Node31</title>
<path fill="none" stroke="#191970" d="M930.6581,-73.4651C945.9371,-70.9356 961.9475,-68.6054 977,-67 1215.058,-41.6109 1963.5603,-22.1645 2182.3653,-16.9103"/>
<polygon fill="#191970" stroke="#191970" points="2182.4666,-20.409 2192.38,-16.6709 2182.2992,-13.411 2182.4666,-20.409"/>
</g>
<!-- Node20&#45;&gt;Node32 -->
<g id="edge37" class="edge">
<title>Node20&#45;&gt;Node32</title>
<path fill="none" stroke="#191970" d="M930.6352,-73.2398C945.916,-70.7278 961.9328,-68.4616 977,-67 1715.4838,4.638 1905.075,-69.9919 2646,-31 2687.4515,-28.8186 2734.0171,-24.9092 2770.0606,-21.5625"/>
<polygon fill="#191970" stroke="#191970" points="2770.7831,-25.0101 2780.4118,-20.5901 2770.1283,-18.0408 2770.7831,-25.0101"/>
</g>
<!-- Node20&#45;&gt;Node34 -->
<g id="edge38" class="edge">
<title>Node20&#45;&gt;Node34</title>
<path fill="none" stroke="#191970" d="M781.2376,-77.6652C754.6627,-74.1136 724.5165,-70.2235 697,-67 540.8076,-48.7023 499.9998,-57.5693 345,-31 343.0563,-30.6668 341.0839,-30.3082 339.0956,-29.929"/>
<polygon fill="#191970" stroke="#191970" points="339.5777,-26.4553 329.0797,-27.8848 338.1778,-33.3139 339.5777,-26.4553"/>
</g>
<!-- Node20&#45;&gt;Node37 -->
<g id="edge39" class="edge">
<title>Node20&#45;&gt;Node37</title>
<path fill="none" stroke="#191970" d="M930.632,-73.2073C945.9131,-70.6978 961.9308,-68.4408 977,-67 1397.1688,-26.8259 2451.9182,-80.3844 2889.4387,-30.993"/>
<polygon fill="#191970" stroke="#191970" points="2890.1285,-34.4365 2899.6584,-29.807 2889.3216,-27.4832 2890.1285,-34.4365"/>
</g>
<!-- Node47&#45;&gt;Node1 -->
<g id="edge56" class="edge">
<title>Node47&#45;&gt;Node1</title>
<path fill="none" stroke="#191970" d="M1539.8278,-315.6119C1341.2789,-311.5804 665.1414,-290.3846 480,-187 458.0215,-174.727 463.6152,-157.9021 442,-145 437.8166,-142.5029 314.7294,-112.9498 249.5824,-97.4135"/>
<polygon fill="#191970" stroke="#191970" points="250.1903,-93.9604 239.6513,-95.0467 248.5674,-100.7697 250.1903,-93.9604"/>
</g>
<!-- Node47&#45;&gt;Node2 -->
<g id="edge57" class="edge">
<title>Node47&#45;&gt;Node2</title>
<path fill="none" stroke="#191970" d="M1539.7649,-311.1887C1434.1586,-300.77 1213.0346,-277.575 1202,-265 1189.688,-250.9693 1189.5415,-236.9007 1202,-223 1250.9396,-168.395 1463.593,-218.095 1530,-187 1575.2615,-165.8063 1591.4396,-154.991 1611,-109 1618.3058,-91.8224 1623.1552,-81.1667 1611,-67 1591.6824,-44.4858 1394.9218,-25.4849 1312.2622,-18.4329"/>
<polygon fill="#191970" stroke="#191970" points="1312.3332,-14.9265 1302.0748,-17.5751 1311.7458,-21.9019 1312.3332,-14.9265"/>
</g>
<!-- Node47&#45;&gt;Node3 -->
<g id="edge58" class="edge">
<title>Node47&#45;&gt;Node3</title>
<path fill="none" stroke="#191970" d="M1539.9771,-316.3024C1334.5754,-315.2306 619.7372,-308.3892 528,-265 505.244,-254.237 510.5476,-237.5422 490,-223 456.1777,-199.0628 437.8223,-210.9372 404,-187 383.4524,-172.4578 388.0506,-157.1429 366,-145 283.8182,-99.7438 218.4188,-180.7742 158,-109 145.9788,-94.7194 146.1655,-81.4357 158,-67 209.7235,-3.9074 259.9888,-54.8799 338,-31 340.1643,-30.3375 342.3755,-29.5934 344.5866,-28.799"/>
<polygon fill="#191970" stroke="#191970" points="346.0799,-31.9739 354.1359,-25.0926 343.547,-25.4482 346.0799,-31.9739"/>
</g>
<!-- Node47&#45;&gt;Node4 -->
<g id="edge59" class="edge">
<title>Node47&#45;&gt;Node4</title>
<path fill="none" stroke="#191970" d="M1539.7473,-315.8899C1340.1129,-313.388 663.2213,-302.217 574,-265 548.4495,-254.3421 551.3342,-237.8975 528,-223 493.075,-200.7024 475.8223,-210.9372 442,-187 421.4524,-172.4578 426.1595,-156.943 404,-145 311.7595,-95.2863 239.2027,-188.5497 171,-109 158.8501,-94.8287 158.8501,-81.1713 171,-67 205.1013,-27.2252 353.9818,-46.5921 404,-31 405.6612,-30.4822 407.3445,-29.8905 409.0249,-29.2474"/>
<polygon fill="#191970" stroke="#191970" points="410.6636,-32.3517 418.4438,-25.1601 407.8769,-25.9303 410.6636,-32.3517"/>
</g>
<!-- Node47&#45;&gt;Node9 -->
<g id="edge63" class="edge">
<title>Node47&#45;&gt;Node9</title>
<path fill="none" stroke="#191970" d="M1539.7209,-315.8246C1338.1284,-313.0884 642.8381,-301.1861 424,-265 418.5403,-264.0972 412.909,-262.9154 407.3135,-261.5721"/>
<polygon fill="#191970" stroke="#191970" points="407.8816,-258.1044 397.3251,-259.005 406.1392,-264.8841 407.8816,-258.1044"/>
</g>
<!-- Node47&#45;&gt;Node12 -->
<g id="edge98" class="edge">
<title>Node47&#45;&gt;Node12</title>
<path fill="none" stroke="#191970" d="M1562.356,-301.3812C1543.6413,-292.05 1520.1413,-279.175 1501,-265 1479.5311,-249.1014 1477.9952,-240.7164 1458,-223 1444.1852,-210.7596 1428.2018,-197.827 1414.902,-187.38"/>
<polygon fill="#191970" stroke="#191970" points="1417.0488,-184.6157 1407.0112,-181.2249 1412.7435,-190.1352 1417.0488,-184.6157"/>
</g>
<!-- Node47&#45;&gt;Node13 -->
<g id="edge101" class="edge">
<title>Node47&#45;&gt;Node13</title>
<path fill="none" stroke="#191970" d="M1539.7992,-314.3336C1381.8598,-307.87 938.0904,-287.7531 917,-265 898.6694,-245.2242 906.7494,-212.8112 915.8678,-190.4918"/>
<polygon fill="#191970" stroke="#191970" points="919.0795,-191.8828 919.9019,-181.32 912.6719,-189.0645 919.0795,-191.8828"/>
</g>
<!-- Node47&#45;&gt;Node30 -->
<g id="edge107" class="edge">
<title>Node47&#45;&gt;Node30</title>
<path fill="none" stroke="#191970" d="M1650.1466,-314.9526C1853.9369,-309.0682 2554.9381,-287.2885 2597,-265 2677.1987,-222.5029 2689.896,-146.986 2647,-67 2640.6425,-55.1455 2630.3379,-44.8774 2619.9928,-36.6966"/>
<polygon fill="#191970" stroke="#191970" points="2621.8793,-33.7383 2611.7621,-30.5929 2617.7096,-39.3609 2621.8793,-33.7383"/>
</g>
<!-- Node47&#45;&gt;Node31 -->
<g id="edge108" class="edge">
<title>Node47&#45;&gt;Node31</title>
<path fill="none" stroke="#191970" d="M1650.0208,-315.1957C1849.1984,-310.2639 2522.8684,-291.672 2560,-265 2634.8943,-211.2026 2682.6563,-136.4559 2622,-67 2601.4136,-43.427 2405.6067,-26.6439 2303.8182,-19.4343"/>
<polygon fill="#191970" stroke="#191970" points="2303.8941,-15.9312 2293.6745,-18.7255 2303.4061,-22.9142 2303.8941,-15.9312"/>
</g>
<!-- Node47&#45;&gt;Node32 -->
<g id="edge110" class="edge">
<title>Node47&#45;&gt;Node32</title>
<path fill="none" stroke="#191970" d="M1650.0654,-315.0374C1858.6917,-309.333 2590.9656,-287.7682 2635,-265 2732.2204,-214.7318 2796.5977,-92.194 2820.5478,-39.8527"/>
<polygon fill="#191970" stroke="#191970" points="2823.7782,-41.2025 2824.6727,-30.6455 2817.39,-38.3405 2823.7782,-41.2025"/>
</g>
<!-- Node47&#45;&gt;Node34 -->
<g id="edge111" class="edge">
<title>Node47&#45;&gt;Node34</title>
<path fill="none" stroke="#191970" d="M1539.8901,-315.1439C1322.9754,-309.6505 537.5626,-288.2323 490,-265 467.9091,-254.2095 473.9344,-237.3898 454,-223 419.7369,-198.267 399.9121,-212.212 366,-187 346.7264,-172.671 352.5901,-157.3628 332,-145 259.8118,-101.6566 199.5843,-173.9499 146,-109 134.1208,-94.6011 135.4111,-82.3727 146,-67 155.3494,-53.4268 190.6708,-40.2186 222.8376,-30.577"/>
<polygon fill="#191970" stroke="#191970" points="224.0677,-33.8641 232.6869,-27.7029 222.1068,-27.1444 224.0677,-33.8641"/>
</g>
<!-- Node47&#45;&gt;Node37 -->
<g id="edge113" class="edge">
<title>Node47&#45;&gt;Node37</title>
<path fill="none" stroke="#191970" d="M1650.3443,-316.0094C1857.8226,-313.8782 2582.4879,-303.7084 2678,-265 2799.3677,-215.8129 2903.7762,-91.2735 2943.6876,-39.0822"/>
<polygon fill="#191970" stroke="#191970" points="2946.7244,-40.8687 2949.9576,-30.7792 2941.1382,-36.6502 2946.7244,-40.8687"/>
</g>
<!-- Node47&#45;&gt;Node39 -->
<g id="edge102" class="edge">
<title>Node47&#45;&gt;Node39</title>
<path fill="none" stroke="#191970" d="M1539.6276,-313.8507C1429.6776,-308.0212 1192.2732,-292.3767 1168,-265 1155.6161,-251.0328 1158.6641,-239.1643 1168,-223 1187.69,-188.9085 1282.1888,-141.4727 1344.911,-112.8561"/>
<polygon fill="#191970" stroke="#191970" points="1346.6391,-115.9157 1354.3048,-108.6021 1343.7515,-109.539 1346.6391,-115.9157"/>
</g>
<!-- Node47&#45;&gt;Node40 -->
<g id="edge105" class="edge">
<title>Node47&#45;&gt;Node40</title>
<path fill="none" stroke="#191970" d="M1650.2586,-315.4849C1844.68,-311.6479 2487.1029,-296.6136 2517,-265 2529.826,-251.4376 2527.6394,-238.3378 2517,-223 2482.7899,-173.6828 2319.2404,-127.1886 2224.4305,-103.7805"/>
<polygon fill="#191970" stroke="#191970" points="2225.1771,-100.36 2214.6318,-101.3829 2223.5134,-107.1594 2225.1771,-100.36"/>
</g>
<!-- Node47&#45;&gt;Node42 -->
<g id="edge112" class="edge">
<title>Node47&#45;&gt;Node42</title>
<path fill="none" stroke="#191970" d="M1539.6719,-314.0637C1427.1645,-308.5408 1180.1791,-293.2981 1155,-265 1116.7276,-221.9867 1150.1826,-149.1195 1171.899,-111.7122"/>
<polygon fill="#191970" stroke="#191970" points="1174.9783,-113.3825 1177.1164,-103.0056 1168.9739,-109.7843 1174.9783,-113.3825"/>
</g>
<!-- Node47&#45;&gt;Node45 -->
<g id="edge114" class="edge">
<title>Node47&#45;&gt;Node45</title>
<path fill="none" stroke="#191970" d="M1539.9932,-316.2555C1326.7585,-315.0013 561.5882,-307.5503 462,-265 437.1396,-254.3781 441.0976,-237.0487 418,-223 389.9324,-205.9283 356.0638,-193.1263 326.2584,-184.0255"/>
<polygon fill="#191970" stroke="#191970" points="326.9028,-180.566 316.3205,-181.0802 324.9137,-187.2775 326.9028,-180.566"/>
</g>
<!-- Node48 -->
<g id="node36" class="node">
<title>Node48</title>
<polygon fill="#ffffff" stroke="#bfbfbf" points="1210.5,-223.5 1210.5,-264.5 1311.5,-264.5 1311.5,-223.5 1210.5,-223.5"/>
<text text-anchor="start" x="1218.5" y="-252.5" font-family="Helvetica,sans-Serif" font-size="10.00" fill="#000000">tensorflow/compiler</text>
<text text-anchor="start" x="1218.5" y="-241.5" font-family="Helvetica,sans-Serif" font-size="10.00" fill="#000000">/xla/executable_run</text>
<text text-anchor="middle" x="1261" y="-230.5" font-family="Helvetica,sans-Serif" font-size="10.00" fill="#000000">_options.h</text>
</g>
<!-- Node47&#45;&gt;Node48 -->
<g id="edge60" class="edge">
<title>Node47&#45;&gt;Node48</title>
<path fill="none" stroke="#191970" d="M1539.8678,-308.6432C1486.3203,-300.4513 1402.6672,-286.1724 1321.4603,-264.9282"/>
<polygon fill="#191970" stroke="#191970" points="1322.1346,-261.486 1311.5713,-262.3028 1320.3384,-268.2516 1322.1346,-261.486"/>
</g>
<!-- Node49 -->
<g id="node37" class="node">
<title>Node49</title>
<polygon fill="#ffffff" stroke="#bfbfbf" points="1329.5,-223.5 1329.5,-264.5 1448.5,-264.5 1448.5,-223.5 1329.5,-223.5"/>
<text text-anchor="start" x="1337.5" y="-252.5" font-family="Helvetica,sans-Serif" font-size="10.00" fill="#000000">tensorflow/compiler</text>
<text text-anchor="start" x="1337.5" y="-241.5" font-family="Helvetica,sans-Serif" font-size="10.00" fill="#000000">/xla/legacy_flags/debug</text>
<text text-anchor="middle" x="1389" y="-230.5" font-family="Helvetica,sans-Serif" font-size="10.00" fill="#000000">_options_flags.h</text>
</g>
<!-- Node47&#45;&gt;Node49 -->
<g id="edge61" class="edge">
<title>Node47&#45;&gt;Node49</title>
<path fill="none" stroke="#191970" d="M1552.3167,-301.478C1524.7621,-291.7804 1488.3154,-278.9532 1456.8444,-267.8773"/>
<polygon fill="#191970" stroke="#191970" points="1457.8474,-264.5199 1447.2526,-264.5015 1455.5235,-271.1229 1457.8474,-264.5199"/>
</g>
<!-- Node50 -->
<g id="node38" class="node">
<title>Node50</title>
<polygon fill="#ffffff" stroke="#bfbfbf" points="1581.5,-223.5 1581.5,-264.5 1692.5,-264.5 1692.5,-223.5 1581.5,-223.5"/>
<text text-anchor="start" x="1589.5" y="-252.5" font-family="Helvetica,sans-Serif" font-size="10.00" fill="#000000">tensorflow/compiler</text>
<text text-anchor="start" x="1589.5" y="-241.5" font-family="Helvetica,sans-Serif" font-size="10.00" fill="#000000">/xla/service/allocation</text>
<text text-anchor="middle" x="1637" y="-230.5" font-family="Helvetica,sans-Serif" font-size="10.00" fill="#000000">_tracker.h</text>
</g>
<!-- Node47&#45;&gt;Node50 -->
<g id="edge62" class="edge">
<title>Node47&#45;&gt;Node50</title>
<path fill="none" stroke="#191970" d="M1603.7024,-301.478C1608.4002,-293.3688 1614.3656,-283.0713 1619.9455,-273.4393"/>
<polygon fill="#191970" stroke="#191970" points="1623.139,-274.9089 1625.1233,-264.5015 1617.082,-271.4 1623.139,-274.9089"/>
</g>
<!-- Node51 -->
<g id="node39" class="node">
<title>Node51</title>
<polygon fill="#ffffff" stroke="#bfbfbf" points="1711,-223.5 1711,-264.5 1815,-264.5 1815,-223.5 1711,-223.5"/>
<text text-anchor="start" x="1719" y="-252.5" font-family="Helvetica,sans-Serif" font-size="10.00" fill="#000000">tensorflow/compiler</text>
<text text-anchor="start" x="1719" y="-241.5" font-family="Helvetica,sans-Serif" font-size="10.00" fill="#000000">/xla/service/channel</text>
<text text-anchor="middle" x="1763" y="-230.5" font-family="Helvetica,sans-Serif" font-size="10.00" fill="#000000">_tracker.h</text>
</g>
<!-- Node47&#45;&gt;Node51 -->
<g id="edge64" class="edge">
<title>Node47&#45;&gt;Node51</title>
<path fill="none" stroke="#191970" d="M1629.8097,-301.478C1651.7971,-291.9894 1680.7271,-279.5047 1706.0057,-268.5958"/>
<polygon fill="#191970" stroke="#191970" points="1707.6983,-271.6774 1715.4931,-264.5015 1704.9247,-265.2503 1707.6983,-271.6774"/>
</g>
<!-- Node52 -->
<g id="node40" class="node">
<title>Node52</title>
<polygon fill="#ffffff" stroke="#bfbfbf" points="1833.5,-223.5 1833.5,-264.5 1952.5,-264.5 1952.5,-223.5 1833.5,-223.5"/>
<text text-anchor="start" x="1841.5" y="-252.5" font-family="Helvetica,sans-Serif" font-size="10.00" fill="#000000">tensorflow/compiler</text>
<text text-anchor="start" x="1841.5" y="-241.5" font-family="Helvetica,sans-Serif" font-size="10.00" fill="#000000">/xla/service/compilation</text>
<text text-anchor="middle" x="1893" y="-230.5" font-family="Helvetica,sans-Serif" font-size="10.00" fill="#000000">_cache.h</text>
</g>
<!-- Node47&#45;&gt;Node52 -->
<g id="edge65" class="edge">
<title>Node47&#45;&gt;Node52</title>
<path fill="none" stroke="#191970" d="M1650.3415,-305.2572C1694.6228,-295.9882 1758.4913,-282.0105 1823.2593,-265.1104"/>
<polygon fill="#191970" stroke="#191970" points="1824.4582,-268.4142 1833.2385,-262.4849 1822.677,-261.6446 1824.4582,-268.4142"/>
</g>
<!-- Node53 -->
<g id="node41" class="node">
<title>Node53</title>
<g id="a_node41"><a xlink:href="../../d1/dc5/computation__tracker_8h.html" target="_top" xlink:title="tensorflow/compiler\l/xla/service/computation\l_tracker.h">
<polygon fill="#ffffff" stroke="#ff0000" points="1970.5,-223.5 1970.5,-264.5 2093.5,-264.5 2093.5,-223.5 1970.5,-223.5"/>
<text text-anchor="start" x="1978.5" y="-252.5" font-family="Helvetica,sans-Serif" font-size="10.00" fill="#000000">tensorflow/compiler</text>
<text text-anchor="start" x="1978.5" y="-241.5" font-family="Helvetica,sans-Serif" font-size="10.00" fill="#000000">/xla/service/computation</text>
<text text-anchor="middle" x="2032" y="-230.5" font-family="Helvetica,sans-Serif" font-size="10.00" fill="#000000">_tracker.h</text>
</a>
</g>
</g>
<!-- Node47&#45;&gt;Node53 -->
<g id="edge66" class="edge">
<title>Node47&#45;&gt;Node53</title>
<path fill="none" stroke="#191970" d="M1650.1785,-311.3996C1720.3494,-304.3293 1845.3067,-289.7863 1960.2717,-265.2377"/>
<polygon fill="#191970" stroke="#191970" points="1961.2647,-268.6039 1970.2969,-263.0657 1959.7825,-261.7626 1961.2647,-268.6039"/>
</g>
<!-- Node55 -->
<g id="node42" class="node">
<title>Node55</title>
<polygon fill="#ffffff" stroke="#bfbfbf" points="2487.5,-73 2487.5,-103 2612.5,-103 2612.5,-73 2487.5,-73"/>
<text text-anchor="start" x="2495.5" y="-91" font-family="Helvetica,sans-Serif" font-size="10.00" fill="#000000">tensorflow/compiler</text>
<text text-anchor="middle" x="2550" y="-80" font-family="Helvetica,sans-Serif" font-size="10.00" fill="#000000">/xla/service/session.pb.h</text>
</g>
<!-- Node47&#45;&gt;Node55 -->
<g id="edge103" class="edge">
<title>Node47&#45;&gt;Node55</title>
<path fill="none" stroke="#191970" d="M1650.2227,-315.4559C1846.8836,-311.4833 2503.1149,-295.9485 2535,-265 2575.6574,-225.5369 2565.6826,-151.5508 2556.81,-112.9209"/>
<polygon fill="#191970" stroke="#191970" points="2560.1629,-111.8981 2554.3797,-103.0209 2553.3648,-113.567 2560.1629,-111.8981"/>
</g>
<!-- Node56 -->
<g id="node43" class="node">
<title>Node56</title>
<g id="a_node43"><a xlink:href="../../d6/d38/user__computation_8h.html" target="_top" xlink:title="tensorflow/compiler\l/xla/service/user_computation.h">
<polygon fill="#ffffff" stroke="#ff0000" points="1839.5,-151 1839.5,-181 1994.5,-181 1994.5,-151 1839.5,-151"/>
<text text-anchor="start" x="1847.5" y="-169" font-family="Helvetica,sans-Serif" font-size="10.00" fill="#000000">tensorflow/compiler</text>
<text text-anchor="middle" x="1917" y="-158" font-family="Helvetica,sans-Serif" font-size="10.00" fill="#000000">/xla/service/user_computation.h</text>
</a>
</g>
</g>
<!-- Node47&#45;&gt;Node56 -->
<g id="edge104" class="edge">
<title>Node47&#45;&gt;Node56</title>
<path fill="none" stroke="#191970" d="M1584.3365,-301.3724C1571.535,-281.1842 1554.0186,-245.3854 1573,-223 1589.4722,-203.5737 1732.9546,-185.0552 1829.3354,-174.6464"/>
<polygon fill="#191970" stroke="#191970" points="1829.8121,-178.1155 1839.3833,-173.5721 1829.0678,-171.1552 1829.8121,-178.1155"/>
</g>
<!-- Node57 -->
<g id="node44" class="node">
<title>Node57</title>
<polygon fill="#ffffff" stroke="#bfbfbf" points="1787.5,-73 1787.5,-103 1888.5,-103 1888.5,-73 1787.5,-73"/>
<text text-anchor="start" x="1795.5" y="-91" font-family="Helvetica,sans-Serif" font-size="10.00" fill="#000000">tensorflow/compiler</text>
<text text-anchor="middle" x="1838" y="-80" font-family="Helvetica,sans-Serif" font-size="10.00" fill="#000000">/xla/xla.pb.h</text>
</g>
<!-- Node47&#45;&gt;Node57 -->
<g id="edge109" class="edge">
<title>Node47&#45;&gt;Node57</title>
<path fill="none" stroke="#191970" d="M1581.3305,-301.4025C1565.6661,-282.18 1544.0883,-248.4155 1560,-223 1573.3787,-201.6305 1716.9764,-138.8648 1792.3616,-107.0108"/>
<polygon fill="#191970" stroke="#191970" points="1793.7883,-110.2077 1801.6443,-103.099 1791.0699,-103.7571 1793.7883,-110.2077"/>
</g>
<!-- Node47&#45;&gt;Node58 -->
<g id="edge97" class="edge">
<title>Node47&#45;&gt;Node58</title>
<path fill="none" stroke="#191970" d="M1650.1659,-315.9685C1852.978,-313.7238 2556.9564,-303.2894 2778,-265 2779.4838,-264.743 2780.9804,-264.4628 2782.4852,-264.1624"/>
<polygon fill="#191970" stroke="#191970" points="2783.4996,-267.5218 2792.4884,-261.9135 2781.9641,-260.6922 2783.4996,-267.5218"/>
</g>
<!-- Node59 -->
<g id="node46" class="node">
<title>Node59</title>
<polygon fill="#ffffff" stroke="#bfbfbf" points="2112,-223.5 2112,-264.5 2224,-264.5 2224,-223.5 2112,-223.5"/>
<text text-anchor="start" x="2120" y="-252.5" font-family="Helvetica,sans-Serif" font-size="10.00" fill="#000000">tensorflow/compiler</text>
<text text-anchor="start" x="2120" y="-241.5" font-family="Helvetica,sans-Serif" font-size="10.00" fill="#000000">/xla/service/execution</text>
<text text-anchor="middle" x="2168" y="-230.5" font-family="Helvetica,sans-Serif" font-size="10.00" fill="#000000">_tracker.h</text>
</g>
<!-- Node47&#45;&gt;Node59 -->
<g id="edge99" class="edge">
<title>Node47&#45;&gt;Node59</title>
<path fill="none" stroke="#191970" d="M1650.0853,-314.7251C1742.17,-310.9296 1933.095,-299.5223 2102.0145,-264.989"/>
<polygon fill="#191970" stroke="#191970" points="2102.7468,-268.4117 2111.8263,-262.9516 2101.3235,-261.5579 2102.7468,-268.4117"/>
</g>
<!-- Node60 -->
<g id="node47" class="node">
<title>Node60</title>
<polygon fill="#ffffff" stroke="#bfbfbf" points="2242,-223.5 2242,-264.5 2372,-264.5 2372,-223.5 2242,-223.5"/>
<text text-anchor="start" x="2250" y="-252.5" font-family="Helvetica,sans-Serif" font-size="10.00" fill="#000000">tensorflow/compiler</text>
<text text-anchor="start" x="2250" y="-241.5" font-family="Helvetica,sans-Serif" font-size="10.00" fill="#000000">/xla/service/hlo_execution</text>
<text text-anchor="middle" x="2307" y="-230.5" font-family="Helvetica,sans-Serif" font-size="10.00" fill="#000000">_profile.h</text>
</g>
<!-- Node47&#45;&gt;Node60 -->
<g id="edge100" class="edge">
<title>Node47&#45;&gt;Node60</title>
<path fill="none" stroke="#191970" d="M1650.0865,-315.6759C1759.5147,-313.2568 2011.9585,-303.7741 2231.6854,-265.0595"/>
<polygon fill="#191970" stroke="#191970" points="2232.5642,-268.458 2241.7927,-263.2536 2231.333,-261.5671 2232.5642,-268.458"/>
</g>
<!-- Node61 -->
<g id="node48" class="node">
<title>Node61</title>
<polygon fill="#ffffff" stroke="#bfbfbf" points="2390,-229 2390,-259 2508,-259 2508,-229 2390,-229"/>
<text text-anchor="start" x="2398" y="-247" font-family="Helvetica,sans-Serif" font-size="10.00" fill="#000000">tensorflow/compiler</text>
<text text-anchor="middle" x="2449" y="-236" font-family="Helvetica,sans-Serif" font-size="10.00" fill="#000000">/xla/service_interface.h</text>
</g>
<!-- Node47&#45;&gt;Node61 -->
<g id="edge106" class="edge">
<title>Node47&#45;&gt;Node61</title>
<path fill="none" stroke="#191970" d="M1650.2639,-314.5623C1804.9939,-308.8694 2240.3839,-290.9483 2381,-265 2385.7615,-264.1213 2390.6586,-263.0196 2395.5383,-261.7837"/>
<polygon fill="#191970" stroke="#191970" points="2396.746,-265.0827 2405.481,-259.0868 2394.9135,-258.3268 2396.746,-265.0827"/>
</g>
<!-- Node53&#45;&gt;Node2 -->
<g id="edge69" class="edge">
<title>Node53&#45;&gt;Node2</title>
<path fill="none" stroke="#191970" d="M1970.2488,-225.1391C1967.4669,-224.3953 1964.7076,-223.6784 1962,-223 1883.7073,-203.383 1853.5198,-228.0068 1784,-187 1723.7101,-151.4375 1743.5538,-100.3269 1682,-67 1618.4971,-32.6178 1399.8642,-20.3667 1312.4946,-16.7786"/>
<polygon fill="#191970" stroke="#191970" points="1312.3988,-13.2721 1302.2681,-16.3738 1312.1219,-20.2667 1312.3988,-13.2721"/>
</g>
<!-- Node53&#45;&gt;Node3 -->
<g id="edge70" class="edge">
<title>Node53&#45;&gt;Node3</title>
<path fill="none" stroke="#191970" d="M1970.367,-224.567C1967.5531,-223.9781 1964.7548,-223.4502 1962,-223 1476.1839,-143.6106 1340.4916,-268.3503 855,-187 792.6087,-176.5455 780.8808,-158.1431 719,-145 653.1043,-131.0042 472.4574,-148.6549 418,-109 393.893,-91.4457 382.9423,-57.037 378.2398,-35.2131"/>
<polygon fill="#191970" stroke="#191970" points="381.6236,-34.2719 376.3138,-25.1037 374.7473,-35.582 381.6236,-34.2719"/>
</g>
<!-- Node53&#45;&gt;Node11 -->
<g id="edge68" class="edge">
<title>Node53&#45;&gt;Node11</title>
<path fill="none" stroke="#191970" d="M1970.1865,-225.371C1967.4214,-224.5644 1964.6828,-223.7709 1962,-223 1903.9679,-206.3237 1881.4154,-220.2283 1831,-187 1799.4933,-166.2343 1774.7282,-128.8231 1761.8239,-106.4135"/>
<polygon fill="#191970" stroke="#191970" points="1764.8132,-104.5876 1756.8908,-97.5529 1758.6972,-107.9927 1764.8132,-104.5876"/>
</g>
<!-- Node53&#45;&gt;Node13 -->
<g id="edge71" class="edge">
<title>Node53&#45;&gt;Node13</title>
<path fill="none" stroke="#191970" d="M1970.3539,-224.6448C1967.5435,-224.0348 1964.7495,-223.4812 1962,-223 1956.0833,-221.9645 1238.7062,-182.8942 1002.4759,-170.0478"/>
<polygon fill="#191970" stroke="#191970" points="1002.4386,-166.5407 992.2633,-169.4924 1002.0584,-173.5303 1002.4386,-166.5407"/>
</g>
<!-- Node53&#45;&gt;Node15 -->
<g id="edge67" class="edge">
<title>Node53&#45;&gt;Node15</title>
<path fill="none" stroke="#191970" d="M1970.2811,-225.0047C1967.4904,-224.2973 1964.7205,-223.6248 1962,-223 1864.1532,-200.5275 1829.1094,-231.264 1739,-187 1669.0091,-152.6188 1682.1009,-99.0227 1611,-67 1598.798,-61.5044 1190.2534,-26.5469 1084.6927,-17.589"/>
<polygon fill="#191970" stroke="#191970" points="1084.9149,-14.0954 1074.655,-16.7381 1084.3236,-21.0704 1084.9149,-14.0954"/>
</g>
<!-- Node53&#45;&gt;Node30 -->
<g id="edge91" class="edge">
<title>Node53&#45;&gt;Node30</title>
<path fill="none" stroke="#191970" d="M2093.8597,-225.3176C2096.9432,-224.5076 2100.0026,-223.73 2103,-223 2185.2338,-202.9735 2210.9475,-217.2352 2290,-187 2352.9339,-162.9297 2363.622,-145.8994 2420,-109 2446.9321,-91.373 2451.2872,-83.3722 2479,-67 2498.9825,-55.1947 2522.0826,-43.8129 2541.6938,-34.7651"/>
<polygon fill="#191970" stroke="#191970" points="2543.3633,-37.8507 2551.0119,-30.5194 2540.4608,-31.4808 2543.3633,-37.8507"/>
</g>
<!-- Node53&#45;&gt;Node31 -->
<g id="edge92" class="edge">
<title>Node53&#45;&gt;Node31</title>
<path fill="none" stroke="#191970" d="M2093.7864,-225.719C2194.2752,-195.3733 2383.8095,-135.3385 2402,-109 2412.608,-93.6405 2412.979,-82.0966 2402,-67 2390.0038,-50.5046 2343.232,-36.5952 2303.4974,-27.4061"/>
<polygon fill="#191970" stroke="#191970" points="2304.0969,-23.9536 2293.5725,-25.1729 2302.5602,-30.7828 2304.0969,-23.9536"/>
</g>
<!-- Node53&#45;&gt;Node32 -->
<g id="edge93" class="edge">
<title>Node53&#45;&gt;Node32</title>
<path fill="none" stroke="#191970" d="M2093.7778,-224.9398C2096.8829,-224.2296 2099.9693,-223.5766 2103,-223 2280.9603,-189.1423 2335.3557,-238.6127 2509,-187 2624.884,-152.5555 2746.9682,-74.1342 2801.5844,-36.4628"/>
<polygon fill="#191970" stroke="#191970" points="2803.8541,-39.1476 2810.0659,-30.5648 2799.8576,-33.4006 2803.8541,-39.1476"/>
</g>
<!-- Node53&#45;&gt;Node37 -->
<g id="edge94" class="edge">
<title>Node53&#45;&gt;Node37</title>
<path fill="none" stroke="#191970" d="M2093.7691,-224.8932C2096.8765,-224.1954 2099.9658,-223.5577 2103,-223 2310.3569,-184.8881 2371.595,-238.6525 2576,-187 2712.5265,-152.5001 2861.36,-72.9512 2926.8418,-35.5814"/>
<polygon fill="#191970" stroke="#191970" points="2928.5905,-38.6133 2935.5184,-30.5974 2925.1038,-32.5434 2928.5905,-38.6133"/>
</g>
<!-- Node53&#45;&gt;Node39 -->
<g id="edge72" class="edge">
<title>Node53&#45;&gt;Node39</title>
<path fill="none" stroke="#191970" d="M1970.331,-224.7688C1967.5268,-224.1253 1964.7404,-223.5307 1962,-223 1789.3667,-189.5687 1735.2192,-241.3843 1568,-187 1518.6419,-170.9474 1468.3276,-138.1512 1436.2316,-114.705"/>
<polygon fill="#191970" stroke="#191970" points="1438.1956,-111.8041 1428.0773,-108.662 1434.0277,-117.4281 1438.1956,-111.8041"/>
</g>
<!-- Node53&#45;&gt;Node40 -->
<g id="edge90" class="edge">
<title>Node53&#45;&gt;Node40</title>
<path fill="none" stroke="#191970" d="M2048.4662,-223.2844C2070.2374,-195.8948 2108.7031,-147.5026 2133.2425,-116.6304"/>
<polygon fill="#191970" stroke="#191970" points="2135.9831,-118.8074 2139.4657,-108.8013 2130.5033,-114.4517 2135.9831,-118.8074"/>
</g>
<!-- Node53&#45;&gt;Node43 -->
<g id="edge95" class="edge">
<title>Node53&#45;&gt;Node43</title>
<path fill="none" stroke="#191970" d="M1970.3225,-224.8119C1967.5206,-224.1567 1964.737,-223.5479 1962,-223 1886.1998,-207.8266 1683.3505,-224.9449 1616,-187 1585.9491,-170.0695 1564.1701,-135.644 1552.0585,-112.1971"/>
<polygon fill="#191970" stroke="#191970" points="1555.1804,-110.6141 1547.6066,-103.2054 1548.9071,-113.7201 1555.1804,-110.6141"/>
</g>
<!-- Node53&#45;&gt;Node46 -->
<g id="edge96" class="edge">
<title>Node53&#45;&gt;Node46</title>
<path fill="none" stroke="#191970" d="M2071.5283,-223.4453C2129.4036,-193.3501 2236.5139,-137.6527 2293.6895,-107.9215"/>
<polygon fill="#191970" stroke="#191970" points="2295.4996,-110.9252 2302.757,-103.2063 2292.2701,-104.7147 2295.4996,-110.9252"/>
</g>
<!-- Node53&#45;&gt;Node55 -->
<g id="edge73" class="edge">
<title>Node53&#45;&gt;Node55</title>
<path fill="none" stroke="#191970" d="M2093.7839,-224.9717C2096.8874,-224.2531 2099.9718,-223.5896 2103,-223 2184.088,-207.213 2400.6365,-226.8499 2473,-187 2503.5099,-170.1985 2525.9552,-135.7408 2538.502,-112.2516"/>
<polygon fill="#191970" stroke="#191970" points="2541.6732,-113.7379 2543.1196,-103.2422 2535.4437,-110.545 2541.6732,-113.7379"/>
</g>
<!-- Node53&#45;&gt;Node56 -->
<g id="edge74" class="edge">
<title>Node53&#45;&gt;Node56</title>
<path fill="none" stroke="#191970" d="M2001.484,-223.3022C1984.8247,-212.0028 1964.2571,-198.0527 1947.5868,-186.7458"/>
<polygon fill="#191970" stroke="#191970" points="1949.5064,-183.8187 1939.2658,-181.102 1945.5771,-189.6119 1949.5064,-183.8187"/>
</g>
<!-- Node56&#45;&gt;Node1 -->
<g id="edge75" class="edge">
<title>Node56&#45;&gt;Node1</title>
<path fill="none" stroke="#191970" d="M1839.2063,-162.3756C1748.0877,-158.1437 1592.5906,-150.9633 1459,-145 1090.5752,-128.554 998.39,-126.2084 630,-109 490.2855,-102.4736 324.4693,-93.9546 249.8624,-90.0804"/>
<polygon fill="#191970" stroke="#191970" points="249.6988,-86.5672 239.5306,-89.5433 249.3354,-93.5578 249.6988,-86.5672"/>
</g>
<!-- Node56&#45;&gt;Node2 -->
<g id="edge77" class="edge">
<title>Node56&#45;&gt;Node2</title>
<path fill="none" stroke="#191970" d="M1919.131,-150.938C1921.3055,-128.8933 1921.5649,-88.1692 1898,-67 1854.3344,-27.7736 1438.9662,-18.0552 1312.415,-15.9954"/>
<polygon fill="#191970" stroke="#191970" points="1312.1556,-12.491 1302.1021,-15.8342 1312.0462,-19.4901 1312.1556,-12.491"/>
</g>
<!-- Node56&#45;&gt;Node3 -->
<g id="edge78" class="edge">
<title>Node56&#45;&gt;Node3</title>
<path fill="none" stroke="#191970" d="M1839.3442,-162.377C1576.0088,-150.078 733.0939,-110.5966 730,-109 708.9041,-98.1134 717.6748,-78.6666 697,-67 583.1197,-2.7385 529.9286,-69.6149 405,-31 403.5297,-30.5456 402.0456,-30.0213 400.5658,-29.4464"/>
<polygon fill="#191970" stroke="#191970" points="401.6098,-26.0762 391.0582,-25.1193 398.7101,-32.4473 401.6098,-26.0762"/>
</g>
<!-- Node56&#45;&gt;Node4 -->
<g id="edge79" class="edge">
<title>Node56&#45;&gt;Node4</title>
<path fill="none" stroke="#191970" d="M1839.3104,-162.4936C1583.8281,-150.9168 785.2443,-114.3466 773,-109 748.5176,-98.3094 753.9988,-78.7362 730,-67 624.0156,-15.1702 579.715,-65.8473 467,-31 465.3401,-30.4868 463.6602,-29.8922 461.986,-29.241"/>
<polygon fill="#191970" stroke="#191970" points="463.1959,-25.9483 452.6378,-25.0669 460.3419,-32.34 463.1959,-25.9483"/>
</g>
<!-- Node56&#45;&gt;Node11 -->
<g id="edge76" class="edge">
<title>Node56&#45;&gt;Node11</title>
<path fill="none" stroke="#191970" d="M1872.0568,-150.9351C1844.3502,-140.8077 1808.5848,-126.1904 1779,-109 1776.4006,-107.4896 1773.7734,-105.7554 1771.2311,-103.9449"/>
<polygon fill="#191970" stroke="#191970" points="1773.1478,-101.0045 1763.0781,-97.7101 1768.8955,-106.565 1773.1478,-101.0045"/>
</g>
<!-- Node56&#45;&gt;Node20 -->
<g id="edge80" class="edge">
<title>Node56&#45;&gt;Node20</title>
<path fill="none" stroke="#191970" d="M1839.4078,-162.4113C1645.4832,-153.2625 1143.3499,-128.4178 977,-109 965.2533,-107.6288 952.9163,-105.8659 940.7963,-103.9455"/>
<polygon fill="#191970" stroke="#191970" points="941.1166,-100.4516 930.6843,-102.3003 939.9925,-107.3608 941.1166,-100.4516"/>
</g>
<!-- Node56&#45;&gt;Node30 -->
<g id="edge83" class="edge">
<title>Node56&#45;&gt;Node30</title>
<path fill="none" stroke="#191970" d="M1932.7912,-150.5538C1944.4745,-139.108 1960.7626,-123.1141 1975,-109 1993.7476,-90.4147 1993.0914,-78.1924 2017,-67 2062.1437,-45.8667 2387.2107,-26.1691 2524.7717,-18.6823"/>
<polygon fill="#191970" stroke="#191970" points="2525.3364,-22.157 2535.1329,-18.1222 2524.9585,-15.1672 2525.3364,-22.157"/>
</g>
<!-- Node56&#45;&gt;Node31 -->
<g id="edge84" class="edge">
<title>Node56&#45;&gt;Node31</title>
<path fill="none" stroke="#191970" d="M1922.0562,-150.8393C1930.2795,-128.6686 1948.7458,-87.7858 1979,-67 2011.3079,-44.8033 2114.7769,-29.5713 2182.1795,-21.7151"/>
<polygon fill="#191970" stroke="#191970" points="2182.722,-25.176 2192.2602,-20.5636 2181.9275,-18.2212 2182.722,-25.176"/>
</g>
<!-- Node56&#45;&gt;Node32 -->
<g id="edge86" class="edge">
<title>Node56&#45;&gt;Node32</title>
<path fill="none" stroke="#191970" d="M1944.8054,-150.9189C1963.8021,-140.1509 1989.2019,-124.8236 2010,-109 2031.7726,-92.435 2029.865,-77.8017 2055,-67 2175.8867,-15.0494 2514.7662,-40.4934 2646,-31 2687.4007,-28.0051 2733.9666,-24.1007 2770.023,-20.9599"/>
<polygon fill="#191970" stroke="#191970" points="2770.7215,-24.4122 2780.3783,-20.0537 2770.1113,-17.4389 2770.7215,-24.4122"/>
</g>
<!-- Node56&#45;&gt;Node37 -->
<g id="edge87" class="edge">
<title>Node56&#45;&gt;Node37</title>
<path fill="none" stroke="#191970" d="M1961.4295,-150.9023C1987.2885,-141.0351 2019.84,-126.6999 2046,-109 2068.1261,-94.0295 2064.4913,-77.6303 2089,-67 2168.3573,-32.58 2764.8224,-42.0518 2889.3902,-30.8287"/>
<polygon fill="#191970" stroke="#191970" points="2890.0831,-34.2741 2899.6469,-29.7151 2889.3275,-27.315 2890.0831,-34.2741"/>
</g>
<!-- Node56&#45;&gt;Node40 -->
<g id="edge82" class="edge">
<title>Node56&#45;&gt;Node40</title>
<path fill="none" stroke="#191970" d="M1963.0816,-150.9608C1998.42,-139.4278 2047.7437,-123.3305 2087.6712,-110.2998"/>
<polygon fill="#191970" stroke="#191970" points="2088.9221,-113.5733 2097.3428,-107.1434 2086.7503,-106.9187 2088.9221,-113.5733"/>
</g>
<!-- Node56&#45;&gt;Node43 -->
<g id="edge88" class="edge">
<title>Node56&#45;&gt;Node43</title>
<path fill="none" stroke="#191970" d="M1844.5034,-150.9608C1777.5197,-137.0653 1678.5966,-116.544 1612.0709,-102.7434"/>
<polygon fill="#191970" stroke="#191970" points="1612.593,-99.2773 1602.0905,-100.673 1611.1711,-106.1314 1612.593,-99.2773"/>
</g>
<!-- Node56&#45;&gt;Node46 -->
<g id="edge89" class="edge">
<title>Node56&#45;&gt;Node46</title>
<path fill="none" stroke="#191970" d="M1994.6304,-151.7743C2056.7172,-140.3517 2145.9796,-123.828 2224,-109 2235.8749,-106.7431 2248.4783,-104.3189 2260.7244,-101.9478"/>
<polygon fill="#191970" stroke="#191970" points="2261.7526,-105.3137 2270.9032,-99.9735 2260.4197,-98.4418 2261.7526,-105.3137"/>
</g>
<!-- Node56&#45;&gt;Node55 -->
<g id="edge81" class="edge">
<title>Node56&#45;&gt;Node55</title>
<path fill="none" stroke="#191970" d="M1994.77,-157.441C2090.6199,-146.7582 2258.4389,-127.6184 2402,-109 2426.546,-105.8166 2453.3447,-102.0905 2477.3107,-98.6678"/>
<polygon fill="#191970" stroke="#191970" points="2477.9916,-102.106 2487.3935,-97.2219 2476.9979,-95.1769 2477.9916,-102.106"/>
</g>
<!-- Node56&#45;&gt;Node57 -->
<g id="edge85" class="edge">
<title>Node56&#45;&gt;Node57</title>
<path fill="none" stroke="#191970" d="M1901.768,-150.9608C1890.1489,-139.4888 1873.9559,-123.5008 1860.7955,-110.507"/>
<polygon fill="#191970" stroke="#191970" points="1863.0298,-107.7945 1853.4548,-103.2592 1858.1117,-112.7757 1863.0298,-107.7945"/>
</g>
</g>
</svg>
