<?xml version="1.0" encoding="UTF-8" standalone="no"?>
<!DOCTYPE svg PUBLIC "-//W3C//DTD SVG 1.1//EN"
 "http://www.w3.org/Graphics/SVG/1.1/DTD/svg11.dtd">
<!-- Generated by graphviz version 2.40.1 (20161225.0304)
 -->
<!-- Title: tensorflow/tensorflow/compiler/xla/client/client_library.h Pages: 1 -->
<svg width="3316pt" height="507pt"
 viewBox="0.00 0.00 3315.50 507.00" xmlns="http://www.w3.org/2000/svg" xmlns:xlink="http://www.w3.org/1999/xlink">
<g id="graph0" class="graph" transform="scale(1 1) rotate(0) translate(4 503)">
<title>tensorflow/tensorflow/compiler/xla/client/client_library.h</title>
<polygon fill="#ffffff" stroke="transparent" points="-4,4 -4,-503 3311.5,-503 3311.5,4 -4,4"/>
<!-- Node0 -->
<g id="node1" class="node">
<title>Node0</title>
<polygon fill="#bfbfbf" stroke="#000000" points="2705,-457.5 2705,-498.5 2815,-498.5 2815,-457.5 2705,-457.5"/>
<text text-anchor="start" x="2713" y="-486.5" font-family="Helvetica,sans-Serif" font-size="10.00" fill="#000000">tensorflow/tensorflow</text>
<text text-anchor="start" x="2713" y="-475.5" font-family="Helvetica,sans-Serif" font-size="10.00" fill="#000000">/compiler/xla/client</text>
<text text-anchor="middle" x="2760" y="-464.5" font-family="Helvetica,sans-Serif" font-size="10.00" fill="#000000">/client_library.h</text>
</g>
<!-- Node1 -->
<g id="node2" class="node">
<title>Node1</title>
<polygon fill="#ffffff" stroke="#bfbfbf" points="293.5,-11.5 293.5,-30.5 352.5,-30.5 352.5,-11.5 293.5,-11.5"/>
<text text-anchor="middle" x="323" y="-18.5" font-family="Helvetica,sans-Serif" font-size="10.00" fill="#000000">functional</text>
</g>
<!-- Node0&#45;&gt;Node1 -->
<g id="edge1" class="edge">
<title>Node0&#45;&gt;Node1</title>
<path fill="none" stroke="#191970" d="M2704.7897,-477.3195C2351.0753,-472.8855 413.7496,-447.4585 292,-421 188.8057,-398.5739 76,-427.603 76,-322 76,-322 76,-322 76,-249.5 76,-144.6485 153.0657,-139.4817 238,-78 258.2802,-63.3197 281.9867,-47.5314 299.2036,-36.3023"/>
<polygon fill="#191970" stroke="#191970" points="301.555,-38.9488 308.038,-30.5689 297.7443,-33.0769 301.555,-38.9488"/>
</g>
<!-- Node2 -->
<g id="node3" class="node">
<title>Node2</title>
<polygon fill="#ffffff" stroke="#bfbfbf" points="582,-11.5 582,-30.5 634,-30.5 634,-11.5 582,-11.5"/>
<text text-anchor="middle" x="608" y="-18.5" font-family="Helvetica,sans-Serif" font-size="10.00" fill="#000000">memory</text>
</g>
<!-- Node0&#45;&gt;Node2 -->
<g id="edge2" class="edge">
<title>Node0&#45;&gt;Node2</title>
<path fill="none" stroke="#191970" d="M2704.8021,-477.4808C2369.4463,-473.7392 614.9363,-445.5776 471,-265 434.7155,-219.4786 412.3202,-228.5043 527,-78 540.7176,-59.9972 561.7423,-45.4385 578.9337,-35.5415"/>
<polygon fill="#191970" stroke="#191970" points="580.9532,-38.4248 588.0194,-30.5305 577.5725,-32.2952 580.9532,-38.4248"/>
</g>
<!-- Node3 -->
<g id="node4" class="node">
<title>Node3</title>
<polygon fill="#ffffff" stroke="#bfbfbf" points="1990.5,-11.5 1990.5,-30.5 2031.5,-30.5 2031.5,-11.5 1990.5,-11.5"/>
<text text-anchor="middle" x="2011" y="-18.5" font-family="Helvetica,sans-Serif" font-size="10.00" fill="#000000">string</text>
</g>
<!-- Node0&#45;&gt;Node3 -->
<g id="edge3" class="edge">
<title>Node0&#45;&gt;Node3</title>
<path fill="none" stroke="#191970" d="M2704.8577,-471.6604C2631.9539,-462.5268 2508.145,-444.1858 2469,-421 2416.8126,-390.0891 2365.4959,-347.8663 2404,-301 2456.3436,-237.2885 2507.0752,-288.8723 2586,-265 2660.578,-242.4425 2682.0498,-239.4884 2748,-198 2803.7595,-162.9225 2880.4366,-125.6977 2835,-78 2778.1447,-18.3154 2175.5271,-54.1697 2094,-42 2076.2728,-39.3538 2056.8301,-34.5411 2041.2214,-30.1901"/>
<polygon fill="#191970" stroke="#191970" points="2042.1518,-26.8158 2031.5744,-27.4249 2040.2229,-33.5449 2042.1518,-26.8158"/>
</g>
<!-- Node4 -->
<g id="node5" class="node">
<title>Node4</title>
<polygon fill="#ffffff" stroke="#bfbfbf" points="92,-11.5 92,-30.5 136,-30.5 136,-11.5 92,-11.5"/>
<text text-anchor="middle" x="114" y="-18.5" font-family="Helvetica,sans-Serif" font-size="10.00" fill="#000000">vector</text>
</g>
<!-- Node0&#45;&gt;Node4 -->
<g id="edge4" class="edge">
<title>Node0&#45;&gt;Node4</title>
<path fill="none" stroke="#191970" d="M2704.7649,-477.4102C2328.4527,-473.3207 154.8235,-448.5348 93,-421 37.853,-396.4388 0,-382.3692 0,-322 0,-322 0,-322 0,-177 0,-115.7228 58.0479,-62.4636 91.3005,-36.9814"/>
<polygon fill="#191970" stroke="#191970" points="93.6317,-39.6093 99.5618,-30.8295 89.4509,-33.9949 93.6317,-39.6093"/>
</g>
<!-- Node5 -->
<g id="node6" class="node">
<title>Node5</title>
<g id="a_node6"><a xlink:href="../../d4/dab/compile__only__client_8h.html" target="_top" xlink:title="tensorflow/compiler\l/xla/client/compile\l_only_client.h">
<polygon fill="#ffffff" stroke="#000000" points="2478.5,-379.5 2478.5,-420.5 2579.5,-420.5 2579.5,-379.5 2478.5,-379.5"/>
<text text-anchor="start" x="2486.5" y="-408.5" font-family="Helvetica,sans-Serif" font-size="10.00" fill="#000000">tensorflow/compiler</text>
<text text-anchor="start" x="2486.5" y="-397.5" font-family="Helvetica,sans-Serif" font-size="10.00" fill="#000000">/xla/client/compile</text>
<text text-anchor="middle" x="2529" y="-386.5" font-family="Helvetica,sans-Serif" font-size="10.00" fill="#000000">_only_client.h</text>
</a>
</g>
</g>
<!-- Node0&#45;&gt;Node5 -->
<g id="edge5" class="edge">
<title>Node0&#45;&gt;Node5</title>
<path fill="none" stroke="#191970" d="M2704.9632,-459.4162C2670.1992,-447.6776 2625.2576,-432.5026 2589.4951,-420.4269"/>
<polygon fill="#191970" stroke="#191970" points="2590.2619,-416.9917 2579.6677,-417.1086 2588.0224,-423.6239 2590.2619,-416.9917"/>
</g>
<!-- Node8 -->
<g id="node9" class="node">
<title>Node8</title>
<g id="a_node9"><a xlink:href="../../d2/d89/compile__only__service_8h.html" target="_top" xlink:title="tensorflow/compiler\l/xla/service/compile\l_only_service.h">
<polygon fill="#ffffff" stroke="#000000" points="2219,-301.5 2219,-342.5 2323,-342.5 2323,-301.5 2219,-301.5"/>
<text text-anchor="start" x="2227" y="-330.5" font-family="Helvetica,sans-Serif" font-size="10.00" fill="#000000">tensorflow/compiler</text>
<text text-anchor="start" x="2227" y="-319.5" font-family="Helvetica,sans-Serif" font-size="10.00" fill="#000000">/xla/service/compile</text>
<text text-anchor="middle" x="2271" y="-308.5" font-family="Helvetica,sans-Serif" font-size="10.00" fill="#000000">_only_service.h</text>
</a>
</g>
</g>
<!-- Node0&#45;&gt;Node8 -->
<g id="edge96" class="edge">
<title>Node0&#45;&gt;Node8</title>
<path fill="none" stroke="#191970" d="M2704.7637,-474.1648C2611.7746,-467.0081 2428.4837,-449.6906 2371,-421 2338.2942,-404.6763 2309.6588,-373.6149 2291.5084,-350.6196"/>
<polygon fill="#191970" stroke="#191970" points="2294.1777,-348.3492 2285.3077,-342.5549 2288.6283,-352.6159 2294.1777,-348.3492"/>
</g>
<!-- Node16 -->
<g id="node17" class="node">
<title>Node16</title>
<polygon fill="#ffffff" stroke="#bfbfbf" points="370.5,-6 370.5,-36 471.5,-36 471.5,-6 370.5,-6"/>
<text text-anchor="start" x="378.5" y="-24" font-family="Helvetica,sans-Serif" font-size="10.00" fill="#000000">tensorflow/compiler</text>
<text text-anchor="middle" x="421" y="-13" font-family="Helvetica,sans-Serif" font-size="10.00" fill="#000000">/xla/statusor.h</text>
</g>
<!-- Node0&#45;&gt;Node16 -->
<g id="edge99" class="edge">
<title>Node0&#45;&gt;Node16</title>
<path fill="none" stroke="#191970" d="M2704.7345,-477.7239C2324.7601,-475.4741 114,-456.6005 114,-322 114,-322 114,-322 114,-249.5 114,-183.6849 297.862,-82.8881 381.0097,-40.6699"/>
<polygon fill="#191970" stroke="#191970" points="382.8061,-43.6838 390.158,-36.055 379.6533,-37.434 382.8061,-43.6838"/>
</g>
<!-- Node17 -->
<g id="node18" class="node">
<title>Node17</title>
<polygon fill="#ffffff" stroke="#bfbfbf" points="2296.5,-6 2296.5,-36 2397.5,-36 2397.5,-6 2296.5,-6"/>
<text text-anchor="start" x="2304.5" y="-24" font-family="Helvetica,sans-Serif" font-size="10.00" fill="#000000">tensorflow/compiler</text>
<text text-anchor="middle" x="2347" y="-13" font-family="Helvetica,sans-Serif" font-size="10.00" fill="#000000">/xla/types.h</text>
</g>
<!-- Node0&#45;&gt;Node17 -->
<g id="edge100" class="edge">
<title>Node0&#45;&gt;Node17</title>
<path fill="none" stroke="#191970" d="M2815.099,-469.5331C2846.3011,-461.9377 2883.6437,-447.6642 2907,-421 2936.8316,-386.9434 2931,-367.2745 2931,-322 2931,-322 2931,-322 2931,-177 2931,-131.7255 2941.5572,-107.2503 2907,-78 2864.4857,-42.0146 2461.5413,-53.299 2407,-42 2403.0994,-41.1919 2399.106,-40.1943 2395.1235,-39.0766"/>
<polygon fill="#191970" stroke="#191970" points="2395.8913,-35.6519 2385.3056,-36.0905 2393.8544,-42.349 2395.8913,-35.6519"/>
</g>
<!-- Node19 -->
<g id="node20" class="node">
<title>Node19</title>
<polygon fill="#ffffff" stroke="#bfbfbf" points="2556,-6 2556,-36 2678,-36 2678,-6 2556,-6"/>
<text text-anchor="start" x="2564" y="-24" font-family="Helvetica,sans-Serif" font-size="10.00" fill="#000000">tensorflow/core/platform</text>
<text text-anchor="middle" x="2617" y="-13" font-family="Helvetica,sans-Serif" font-size="10.00" fill="#000000">/mutex.h</text>
</g>
<!-- Node0&#45;&gt;Node19 -->
<g id="edge102" class="edge">
<title>Node0&#45;&gt;Node19</title>
<path fill="none" stroke="#191970" d="M2815.1911,-470.4866C2873.3702,-461.4566 2959.7637,-444.5265 2983,-421 3014.8146,-388.7881 3007,-367.2745 3007,-322 3007,-322 3007,-322 3007,-177 3007,-131.7255 3016.3197,-108.6525 2983,-78 2941.161,-39.5102 2782.5311,-26.9975 2688.3921,-22.9393"/>
<polygon fill="#191970" stroke="#191970" points="2688.5022,-19.4409 2678.3673,-22.5285 2688.2155,-26.4351 2688.5022,-19.4409"/>
</g>
<!-- Node20 -->
<g id="node21" class="node">
<title>Node20</title>
<polygon fill="#ffffff" stroke="#bfbfbf" points="2683.5,-84 2683.5,-114 2826.5,-114 2826.5,-84 2683.5,-84"/>
<text text-anchor="start" x="2691.5" y="-102" font-family="Helvetica,sans-Serif" font-size="10.00" fill="#000000">tensorflow/core/platform</text>
<text text-anchor="middle" x="2755" y="-91" font-family="Helvetica,sans-Serif" font-size="10.00" fill="#000000">/stream_executor_no_cuda.h</text>
</g>
<!-- Node0&#45;&gt;Node20 -->
<g id="edge103" class="edge">
<title>Node0&#45;&gt;Node20</title>
<path fill="none" stroke="#191970" d="M2782.9969,-457.2198C2811.1124,-429.4149 2855,-377.1755 2855,-322 2855,-322 2855,-322 2855,-249.5 2855,-196.5133 2811.4677,-147.9307 2781.8475,-121.007"/>
<polygon fill="#191970" stroke="#191970" points="2784.092,-118.3197 2774.281,-114.3203 2779.4566,-123.565 2784.092,-118.3197"/>
</g>
<!-- Node21 -->
<g id="node22" class="node">
<title>Node21</title>
<polygon fill="#ffffff" stroke="#bfbfbf" points="2416,-6 2416,-36 2538,-36 2538,-6 2416,-6"/>
<text text-anchor="start" x="2424" y="-24" font-family="Helvetica,sans-Serif" font-size="10.00" fill="#000000">tensorflow/core/platform</text>
<text text-anchor="middle" x="2477" y="-13" font-family="Helvetica,sans-Serif" font-size="10.00" fill="#000000">/thread_annotations.h</text>
</g>
<!-- Node0&#45;&gt;Node21 -->
<g id="edge104" class="edge">
<title>Node0&#45;&gt;Node21</title>
<path fill="none" stroke="#191970" d="M2815.3327,-467.2426C2863.0981,-456.865 2927.1532,-439.9709 2945,-421 2976.022,-388.0241 2969,-367.2745 2969,-322 2969,-322 2969,-322 2969,-177 2969,-131.7255 2979.2877,-107.5658 2945,-78 2877.745,-20.007 2634.1934,-58.8442 2547,-42 2542.0656,-41.0468 2536.9824,-39.8858 2531.9146,-38.6042"/>
<polygon fill="#191970" stroke="#191970" points="2532.7957,-35.2169 2522.2309,-36.0137 2530.9867,-41.9791 2532.7957,-35.2169"/>
</g>
<!-- Node37 -->
<g id="node38" class="node">
<title>Node37</title>
<polygon fill="#ffffff" stroke="#bfbfbf" points="2103,-6 2103,-36 2225,-36 2225,-6 2103,-6"/>
<text text-anchor="start" x="2111" y="-24" font-family="Helvetica,sans-Serif" font-size="10.00" fill="#000000">tensorflow/core/platform</text>
<text text-anchor="middle" x="2164" y="-13" font-family="Helvetica,sans-Serif" font-size="10.00" fill="#000000">/macros.h</text>
</g>
<!-- Node0&#45;&gt;Node37 -->
<g id="edge101" class="edge">
<title>Node0&#45;&gt;Node37</title>
<path fill="none" stroke="#191970" d="M2797.7423,-457.2607C2812.8312,-447.6569 2829.5457,-435.2136 2842,-421 2874.6187,-383.7737 2893,-371.4952 2893,-322 2893,-322 2893,-322 2893,-177 2893,-131.7255 2903.7045,-107.0754 2869,-78 2819.336,-36.3915 2351.359,-49.4627 2287,-42 2270.2488,-40.0576 2252.312,-37.3548 2235.4595,-34.5336"/>
<polygon fill="#191970" stroke="#191970" points="2235.5736,-31.0024 2225.1268,-32.7674 2234.3941,-37.9023 2235.5736,-31.0024"/>
</g>
<!-- Node39 -->
<g id="node40" class="node">
<title>Node39</title>
<polygon fill="#ffffff" stroke="#bfbfbf" points="2605.5,-156.5 2605.5,-197.5 2712.5,-197.5 2712.5,-156.5 2605.5,-156.5"/>
<text text-anchor="start" x="2613.5" y="-185.5" font-family="Helvetica,sans-Serif" font-size="10.00" fill="#000000">tensorflow/compiler</text>
<text text-anchor="start" x="2613.5" y="-174.5" font-family="Helvetica,sans-Serif" font-size="10.00" fill="#000000">/xla/service/device</text>
<text text-anchor="middle" x="2659" y="-163.5" font-family="Helvetica,sans-Serif" font-size="10.00" fill="#000000">_memory_allocator.h</text>
</g>
<!-- Node0&#45;&gt;Node39 -->
<g id="edge97" class="edge">
<title>Node0&#45;&gt;Node39</title>
<path fill="none" stroke="#191970" d="M2753.0579,-457.3111C2735.5798,-405.2228 2689.6942,-268.4748 2669.1729,-207.3172"/>
<polygon fill="#191970" stroke="#191970" points="2672.4901,-206.2008 2665.9907,-197.8337 2665.8538,-208.4277 2672.4901,-206.2008"/>
</g>
<!-- Node44 -->
<g id="node45" class="node">
<title>Node44</title>
<polygon fill="#ffffff" stroke="#bfbfbf" points="3035.5,-385 3035.5,-415 3154.5,-415 3154.5,-385 3035.5,-385"/>
<text text-anchor="start" x="3043.5" y="-403" font-family="Helvetica,sans-Serif" font-size="10.00" fill="#000000">tensorflow/compiler</text>
<text text-anchor="middle" x="3095" y="-392" font-family="Helvetica,sans-Serif" font-size="10.00" fill="#000000">/xla/client/local_client.h</text>
</g>
<!-- Node0&#45;&gt;Node44 -->
<g id="edge95" class="edge">
<title>Node0&#45;&gt;Node44</title>
<path fill="none" stroke="#191970" d="M2815.2211,-466.9683C2868.2069,-456.141 2950.3707,-438.7163 3021,-421 3025.0803,-419.9765 3029.2768,-418.887 3033.4992,-417.7631"/>
<polygon fill="#191970" stroke="#191970" points="3034.6188,-421.086 3043.356,-415.0934 3032.7887,-414.3295 3034.6188,-421.086"/>
</g>
<!-- Node45 -->
<g id="node46" class="node">
<title>Node45</title>
<polygon fill="#ffffff" stroke="#bfbfbf" points="3172.5,-385 3172.5,-415 3307.5,-415 3307.5,-385 3172.5,-385"/>
<text text-anchor="start" x="3180.5" y="-403" font-family="Helvetica,sans-Serif" font-size="10.00" fill="#000000">tensorflow/compiler</text>
<text text-anchor="middle" x="3240" y="-392" font-family="Helvetica,sans-Serif" font-size="10.00" fill="#000000">/xla/service/local_service.h</text>
</g>
<!-- Node0&#45;&gt;Node45 -->
<g id="edge98" class="edge">
<title>Node0&#45;&gt;Node45</title>
<path fill="none" stroke="#191970" d="M2815.2803,-472.4938C2893.457,-464.1884 3040.5532,-446.6513 3164,-421 3168.982,-419.9648 3174.1196,-418.7874 3179.2625,-417.5311"/>
<polygon fill="#191970" stroke="#191970" points="3180.2854,-420.8826 3189.1197,-415.0342 3178.5665,-414.0969 3180.2854,-420.8826"/>
</g>
<!-- Node6 -->
<g id="node7" class="node">
<title>Node6</title>
<polygon fill="#ffffff" stroke="#bfbfbf" points="2413.5,-307 2413.5,-337 2514.5,-337 2514.5,-307 2413.5,-307"/>
<text text-anchor="start" x="2421.5" y="-325" font-family="Helvetica,sans-Serif" font-size="10.00" fill="#000000">tensorflow/compiler</text>
<text text-anchor="middle" x="2464" y="-314" font-family="Helvetica,sans-Serif" font-size="10.00" fill="#000000">/xla/client/client.h</text>
</g>
<!-- Node5&#45;&gt;Node6 -->
<g id="edge6" class="edge">
<title>Node5&#45;&gt;Node6</title>
<path fill="none" stroke="#191970" d="M2511.5812,-379.0974C2502.831,-368.5972 2492.2067,-355.848 2483.219,-345.0628"/>
<polygon fill="#191970" stroke="#191970" points="2485.8139,-342.7094 2476.7232,-337.2679 2480.4363,-347.1908 2485.8139,-342.7094"/>
</g>
<!-- Node7 -->
<g id="node8" class="node">
<title>Node7</title>
<polygon fill="#ffffff" stroke="#bfbfbf" points="2532.5,-307 2532.5,-337 2655.5,-337 2655.5,-307 2532.5,-307"/>
<text text-anchor="start" x="2540.5" y="-325" font-family="Helvetica,sans-Serif" font-size="10.00" fill="#000000">tensorflow/compiler</text>
<text text-anchor="middle" x="2594" y="-314" font-family="Helvetica,sans-Serif" font-size="10.00" fill="#000000">/xla/client/computation.h</text>
</g>
<!-- Node5&#45;&gt;Node7 -->
<g id="edge7" class="edge">
<title>Node5&#45;&gt;Node7</title>
<path fill="none" stroke="#191970" d="M2546.4188,-379.0974C2555.169,-368.5972 2565.7933,-355.848 2574.781,-345.0628"/>
<polygon fill="#191970" stroke="#191970" points="2577.5637,-347.1908 2581.2768,-337.2679 2572.1861,-342.7094 2577.5637,-347.1908"/>
</g>
<!-- Node5&#45;&gt;Node8 -->
<g id="edge8" class="edge">
<title>Node5&#45;&gt;Node8</title>
<path fill="none" stroke="#191970" d="M2478.3353,-384.6828C2436.7234,-372.1024 2377.6097,-354.2308 2333.1427,-340.7873"/>
<polygon fill="#191970" stroke="#191970" points="2333.9038,-337.361 2323.3188,-337.8173 2331.878,-344.0615 2333.9038,-337.361"/>
</g>
<!-- Node10 -->
<g id="node11" class="node">
<title>Node10</title>
<g id="a_node11"><a xlink:href="../../d4/dd1/compiler_8h.html" target="_top" xlink:title="tensorflow/compiler\l/xla/service/compiler.h">
<polygon fill="#ffffff" stroke="#000000" points="2302,-162 2302,-192 2416,-192 2416,-162 2302,-162"/>
<text text-anchor="start" x="2310" y="-180" font-family="Helvetica,sans-Serif" font-size="10.00" fill="#000000">tensorflow/compiler</text>
<text text-anchor="middle" x="2359" y="-169" font-family="Helvetica,sans-Serif" font-size="10.00" fill="#000000">/xla/service/compiler.h</text>
</a>
</g>
</g>
<!-- Node5&#45;&gt;Node10 -->
<g id="edge91" class="edge">
<title>Node5&#45;&gt;Node10</title>
<path fill="none" stroke="#191970" d="M2579.5945,-392.6976C2609.5898,-385.4815 2645.2974,-371.1979 2664,-343 2674.3177,-327.444 2674.4214,-316.4867 2664,-301 2611.0436,-222.3045 2498.5837,-193.5295 2426.0151,-183.0231"/>
<polygon fill="#191970" stroke="#191970" points="2426.4329,-179.5477 2416.0505,-181.6586 2425.4831,-186.483 2426.4329,-179.5477"/>
</g>
<!-- Node5&#45;&gt;Node16 -->
<g id="edge92" class="edge">
<title>Node5&#45;&gt;Node16</title>
<path fill="none" stroke="#191970" d="M2478.3143,-398.7859C2211.0062,-392.0332 963.1753,-356.067 589,-265 516.0793,-247.2525 482.0487,-255.6517 434,-198 398.181,-155.0223 406.6335,-83.9659 414.5754,-46.2835"/>
<polygon fill="#191970" stroke="#191970" points="418.073,-46.6853 416.8693,-36.159 411.246,-45.1384 418.073,-46.6853"/>
</g>
<!-- Node5&#45;&gt;Node20 -->
<g id="edge94" class="edge">
<title>Node5&#45;&gt;Node20</title>
<path fill="none" stroke="#191970" d="M2579.7463,-391.4925C2612.3786,-383.7257 2653.7966,-369.2813 2682,-343 2744.8547,-284.4289 2754.3499,-174.2043 2755.2759,-124.4784"/>
<polygon fill="#191970" stroke="#191970" points="2758.7772,-124.3107 2755.3583,-114.2827 2751.7775,-124.2541 2758.7772,-124.3107"/>
</g>
<!-- Node36 -->
<g id="node37" class="node">
<title>Node36</title>
<polygon fill="#ffffff" stroke="#bfbfbf" points="174.5,-6 174.5,-36 275.5,-36 275.5,-6 174.5,-6"/>
<text text-anchor="start" x="182.5" y="-24" font-family="Helvetica,sans-Serif" font-size="10.00" fill="#000000">tensorflow/compiler</text>
<text text-anchor="middle" x="225" y="-13" font-family="Helvetica,sans-Serif" font-size="10.00" fill="#000000">/xla/xla_data.pb.h</text>
</g>
<!-- Node5&#45;&gt;Node36 -->
<g id="edge93" class="edge">
<title>Node5&#45;&gt;Node36</title>
<path fill="none" stroke="#191970" d="M2478.4073,-399.4158C2231.0356,-396.392 1147.235,-381.1646 812,-343 571.4843,-315.6187 462.9646,-364.2347 287,-198 257.5789,-170.2057 253.739,-158.0705 240,-120 231.2965,-95.8829 227.6428,-66.6935 226.1092,-46.282"/>
<polygon fill="#191970" stroke="#191970" points="229.5963,-45.9663 225.4707,-36.2077 222.6103,-46.4091 229.5963,-45.9663"/>
</g>
<!-- Node9 -->
<g id="node10" class="node">
<title>Node9</title>
<polygon fill="#ffffff" stroke="#bfbfbf" points="2168.5,-162 2168.5,-192 2283.5,-192 2283.5,-162 2168.5,-162"/>
<text text-anchor="start" x="2176.5" y="-180" font-family="Helvetica,sans-Serif" font-size="10.00" fill="#000000">tensorflow/compiler</text>
<text text-anchor="middle" x="2226" y="-169" font-family="Helvetica,sans-Serif" font-size="10.00" fill="#000000">/xla/service/backend.h</text>
</g>
<!-- Node8&#45;&gt;Node9 -->
<g id="edge9" class="edge">
<title>Node8&#45;&gt;Node9</title>
<path fill="none" stroke="#191970" d="M2264.5526,-301.225C2256.45,-275.1166 2242.5521,-230.3345 2233.8423,-202.2697"/>
<polygon fill="#191970" stroke="#191970" points="2237.0879,-200.9192 2230.7812,-192.406 2230.4025,-202.994 2237.0879,-200.9192"/>
</g>
<!-- Node8&#45;&gt;Node10 -->
<g id="edge10" class="edge">
<title>Node8&#45;&gt;Node10</title>
<path fill="none" stroke="#191970" d="M2283.6083,-301.225C2299.6628,-274.7715 2327.3518,-229.1476 2344.3338,-201.1659"/>
<polygon fill="#191970" stroke="#191970" points="2347.454,-202.7707 2349.6502,-192.406 2341.4698,-199.1389 2347.454,-202.7707"/>
</g>
<!-- Node8&#45;&gt;Node16 -->
<g id="edge88" class="edge">
<title>Node8&#45;&gt;Node16</title>
<path fill="none" stroke="#191970" d="M2218.7644,-321.4561C1938.4818,-318.1367 619.9712,-297.306 471,-198 421.7155,-165.1464 417.6014,-86.9745 419.0736,-46.4069"/>
<polygon fill="#191970" stroke="#191970" points="422.5771,-46.4255 419.589,-36.2608 415.5861,-46.0704 422.5771,-46.4255"/>
</g>
<!-- Node8&#45;&gt;Node20 -->
<g id="edge90" class="edge">
<title>Node8&#45;&gt;Node20</title>
<path fill="none" stroke="#191970" d="M2323.2009,-310.4966C2435.3572,-285.3741 2691.5866,-225.646 2721,-198 2741.4835,-178.7474 2749.6267,-146.615 2752.864,-124.1975"/>
<polygon fill="#191970" stroke="#191970" points="2756.3625,-124.4205 2754.0916,-114.0719 2749.4134,-123.5779 2756.3625,-124.4205"/>
</g>
<!-- Node22 -->
<g id="node23" class="node">
<title>Node22</title>
<g id="a_node23"><a xlink:href="../../d5/d83/service_8h.html" target="_top" xlink:title="tensorflow/compiler\l/xla/service/service.h">
<polygon fill="#ffffff" stroke="#000000" points="1455,-234.5 1455,-264.5 1565,-264.5 1565,-234.5 1455,-234.5"/>
<text text-anchor="start" x="1463" y="-252.5" font-family="Helvetica,sans-Serif" font-size="10.00" fill="#000000">tensorflow/compiler</text>
<text text-anchor="middle" x="1510" y="-241.5" font-family="Helvetica,sans-Serif" font-size="10.00" fill="#000000">/xla/service/service.h</text>
</a>
</g>
</g>
<!-- Node8&#45;&gt;Node22 -->
<g id="edge25" class="edge">
<title>Node8&#45;&gt;Node22</title>
<path fill="none" stroke="#191970" d="M2218.9929,-317.0453C2084.2214,-304.2057 1723.846,-269.873 1575.3469,-255.7256"/>
<polygon fill="#191970" stroke="#191970" points="1575.314,-252.2067 1565.0271,-254.7424 1574.6501,-259.1751 1575.314,-252.2067"/>
</g>
<!-- Node8&#45;&gt;Node36 -->
<g id="edge89" class="edge">
<title>Node8&#45;&gt;Node36</title>
<path fill="none" stroke="#191970" d="M2218.9359,-321.8533C1971.71,-320.9094 914.766,-314.0276 589,-265 476.5219,-248.0721 440.2337,-255.3413 342,-198 299.93,-173.4428 291.7555,-160.7073 265,-120 249.7573,-96.809 238.663,-66.8855 232.0778,-46.0348"/>
<polygon fill="#191970" stroke="#191970" points="235.3825,-44.8714 229.128,-36.3197 228.6844,-46.9052 235.3825,-44.8714"/>
</g>
<!-- Node10&#45;&gt;Node1 -->
<g id="edge11" class="edge">
<title>Node10&#45;&gt;Node1</title>
<path fill="none" stroke="#191970" d="M2317.2547,-161.9938C2308.9842,-159.5694 2300.2939,-157.399 2292,-156 2162.5455,-134.164 1228.1873,-179.1811 1111,-120 1089.8096,-109.2986 1099.084,-88.9096 1078,-78 936.3102,-4.6849 514.4302,-85.7069 361,-42 355.7874,-40.5151 350.505,-38.2076 345.6033,-35.6567"/>
<polygon fill="#191970" stroke="#191970" points="347.1834,-32.5285 336.7649,-30.6037 343.7092,-38.6054 347.1834,-32.5285"/>
</g>
<!-- Node10&#45;&gt;Node2 -->
<g id="edge13" class="edge">
<title>Node10&#45;&gt;Node2</title>
<path fill="none" stroke="#191970" d="M2316.8924,-161.9034C2308.7301,-159.5201 2300.1721,-157.3879 2292,-156 2171.4386,-135.525 1304.4826,-167.9784 1192,-120 1167.4272,-109.5187 1173.3081,-89.0814 1149,-78 1059.9352,-37.3977 806.8918,-55.8947 710,-42 688.0032,-38.8456 663.6162,-33.8794 644.2046,-29.5682"/>
<polygon fill="#191970" stroke="#191970" points="644.789,-26.1121 634.2634,-27.3216 643.2459,-32.9399 644.789,-26.1121"/>
</g>
<!-- Node10&#45;&gt;Node3 -->
<g id="edge14" class="edge">
<title>Node10&#45;&gt;Node3</title>
<path fill="none" stroke="#191970" d="M2357.7939,-161.8876C2355.1682,-139.7785 2346.894,-98.9733 2321,-78 2241.6219,-13.7062 2194.0615,-62.5488 2094,-42 2076.4428,-38.3944 2057.01,-33.5261 2041.3641,-29.3847"/>
<polygon fill="#191970" stroke="#191970" points="2042.2525,-25.9994 2031.6871,-26.7888 2040.4388,-32.7603 2042.2525,-25.9994"/>
</g>
<!-- Node11 -->
<g id="node12" class="node">
<title>Node11</title>
<polygon fill="#ffffff" stroke="#bfbfbf" points="1540.5,-11.5 1540.5,-30.5 1575.5,-30.5 1575.5,-11.5 1540.5,-11.5"/>
<text text-anchor="middle" x="1558" y="-18.5" font-family="Helvetica,sans-Serif" font-size="10.00" fill="#000000">map</text>
</g>
<!-- Node10&#45;&gt;Node11 -->
<g id="edge12" class="edge">
<title>Node10&#45;&gt;Node11</title>
<path fill="none" stroke="#191970" d="M2348.7354,-161.9986C2330.1485,-134.9338 2292.422,-80.4926 2288,-78 2256.8283,-60.4293 1715.6519,-29.666 1585.827,-22.5149"/>
<polygon fill="#191970" stroke="#191970" points="1585.7234,-19.004 1575.5466,-21.9507 1585.3397,-25.9935 1585.7234,-19.004"/>
</g>
<!-- Node12 -->
<g id="node13" class="node">
<title>Node12</title>
<polygon fill="#ffffff" stroke="#bfbfbf" points="2039.5,-84 2039.5,-114 2164.5,-114 2164.5,-84 2039.5,-84"/>
<text text-anchor="start" x="2047.5" y="-102" font-family="Helvetica,sans-Serif" font-size="10.00" fill="#000000">tensorflow/compiler</text>
<text text-anchor="middle" x="2102" y="-91" font-family="Helvetica,sans-Serif" font-size="10.00" fill="#000000">/xla/service/executable.h</text>
</g>
<!-- Node10&#45;&gt;Node12 -->
<g id="edge15" class="edge">
<title>Node10&#45;&gt;Node12</title>
<path fill="none" stroke="#191970" d="M2311.0778,-161.9012C2304.6676,-159.9045 2298.1767,-157.8944 2292,-156 2248.7798,-142.7442 2199.9262,-128.0955 2162.5806,-116.9678"/>
<polygon fill="#191970" stroke="#191970" points="2163.4397,-113.5718 2152.8567,-114.0725 2161.4421,-120.2808 2163.4397,-113.5718"/>
</g>
<!-- Node13 -->
<g id="node14" class="node">
<title>Node13</title>
<polygon fill="#ffffff" stroke="#bfbfbf" points="1717,-84 1717,-114 1845,-114 1845,-84 1717,-84"/>
<text text-anchor="start" x="1725" y="-102" font-family="Helvetica,sans-Serif" font-size="10.00" fill="#000000">tensorflow/compiler</text>
<text text-anchor="middle" x="1781" y="-91" font-family="Helvetica,sans-Serif" font-size="10.00" fill="#000000">/xla/service/hlo_module.h</text>
</g>
<!-- Node10&#45;&gt;Node13 -->
<g id="edge16" class="edge">
<title>Node10&#45;&gt;Node13</title>
<path fill="none" stroke="#191970" d="M2315.7513,-161.9103C2307.9234,-159.6201 2299.7765,-157.5187 2292,-156 2100.2986,-118.561 2046.1303,-155.1718 1854,-120 1848.7301,-119.0353 1843.2944,-117.8479 1837.8783,-116.5328"/>
<polygon fill="#191970" stroke="#191970" points="1838.7465,-113.1423 1828.1904,-114.0483 1837.0075,-119.9228 1838.7465,-113.1423"/>
</g>
<!-- Node14 -->
<g id="node15" class="node">
<title>Node14</title>
<polygon fill="#ffffff" stroke="#bfbfbf" points="1863.5,-78.5 1863.5,-119.5 1982.5,-119.5 1982.5,-78.5 1863.5,-78.5"/>
<text text-anchor="start" x="1871.5" y="-107.5" font-family="Helvetica,sans-Serif" font-size="10.00" fill="#000000">tensorflow/compiler</text>
<text text-anchor="start" x="1871.5" y="-96.5" font-family="Helvetica,sans-Serif" font-size="10.00" fill="#000000">/xla/service/hlo_module</text>
<text text-anchor="middle" x="1923" y="-85.5" font-family="Helvetica,sans-Serif" font-size="10.00" fill="#000000">_config.h</text>
</g>
<!-- Node10&#45;&gt;Node14 -->
<g id="edge17" class="edge">
<title>Node10&#45;&gt;Node14</title>
<path fill="none" stroke="#191970" d="M2314.5926,-161.9419C2307.1081,-159.7331 2299.3754,-157.6504 2292,-156 2177.2981,-130.3333 2145.9388,-139.3262 2030,-120 2017.8442,-117.9737 2004.9517,-115.6201 1992.4832,-113.2365"/>
<polygon fill="#191970" stroke="#191970" points="1993.0795,-109.7871 1982.5968,-111.3243 1991.7501,-116.6597 1993.0795,-109.7871"/>
</g>
<!-- Node15 -->
<g id="node16" class="node">
<title>Node15</title>
<polygon fill="#ffffff" stroke="#bfbfbf" points="2373.5,-78.5 2373.5,-119.5 2474.5,-119.5 2474.5,-78.5 2373.5,-78.5"/>
<text text-anchor="start" x="2381.5" y="-107.5" font-family="Helvetica,sans-Serif" font-size="10.00" fill="#000000">tensorflow/compiler</text>
<text text-anchor="start" x="2381.5" y="-96.5" font-family="Helvetica,sans-Serif" font-size="10.00" fill="#000000">/xla/service/logical</text>
<text text-anchor="middle" x="2424" y="-85.5" font-family="Helvetica,sans-Serif" font-size="10.00" fill="#000000">_buffer.h</text>
</g>
<!-- Node10&#45;&gt;Node15 -->
<g id="edge18" class="edge">
<title>Node10&#45;&gt;Node15</title>
<path fill="none" stroke="#191970" d="M2371.5327,-161.9608C2379.6856,-152.1773 2390.5756,-139.1092 2400.3209,-127.4149"/>
<polygon fill="#191970" stroke="#191970" points="2403.1239,-129.5185 2406.837,-119.5956 2397.7463,-125.0372 2403.1239,-129.5185"/>
</g>
<!-- Node10&#45;&gt;Node16 -->
<g id="edge19" class="edge">
<title>Node10&#45;&gt;Node16</title>
<path fill="none" stroke="#191970" d="M2316.8937,-161.8953C2308.7314,-159.5127 2300.173,-157.3828 2292,-156 2166.7176,-134.8025 1264.314,-173.3637 1149,-120 1126.1547,-109.4279 1133.655,-88.974 1111,-78 1003.1625,-25.764 692.1995,-54.2069 573,-42 542.7889,-38.9062 509.3425,-34.4034 481.5332,-30.3601"/>
<polygon fill="#191970" stroke="#191970" points="481.9617,-26.8855 471.5591,-28.8947 480.9441,-33.8112 481.9617,-26.8855"/>
</g>
<!-- Node10&#45;&gt;Node17 -->
<g id="edge20" class="edge">
<title>Node10&#45;&gt;Node17</title>
<path fill="none" stroke="#191970" d="M2416.0647,-165.3715C2441.0875,-157.1317 2468.1056,-143.2393 2483,-120 2493.0725,-104.2841 2493.3382,-93.5424 2483,-78 2477.8751,-70.2953 2435.1603,-53.1125 2398.9492,-39.615"/>
<polygon fill="#191970" stroke="#191970" points="2400.0221,-36.2801 2389.4289,-36.0942 2397.594,-42.8456 2400.0221,-36.2801"/>
</g>
<!-- Node18 -->
<g id="node19" class="node">
<title>Node18</title>
<polygon fill="#ffffff" stroke="#bfbfbf" points="2183,-84 2183,-114 2279,-114 2279,-84 2183,-84"/>
<text text-anchor="start" x="2191" y="-102" font-family="Helvetica,sans-Serif" font-size="10.00" fill="#000000">tensorflow/core/lib</text>
<text text-anchor="middle" x="2231" y="-91" font-family="Helvetica,sans-Serif" font-size="10.00" fill="#000000">/gtl/array_slice.h</text>
</g>
<!-- Node10&#45;&gt;Node18 -->
<g id="edge21" class="edge">
<title>Node10&#45;&gt;Node18</title>
<path fill="none" stroke="#191970" d="M2334.3203,-161.9608C2314.5268,-149.8992 2286.5409,-132.8452 2264.687,-119.528"/>
<polygon fill="#191970" stroke="#191970" points="2266.4014,-116.4741 2256.0407,-114.2592 2262.7588,-122.4517 2266.4014,-116.4741"/>
</g>
<!-- Node10&#45;&gt;Node19 -->
<g id="edge22" class="edge">
<title>Node10&#45;&gt;Node19</title>
<path fill="none" stroke="#191970" d="M2416.2412,-163.364C2448.0852,-154.1673 2487.5221,-140.0148 2519,-120 2551.3926,-99.4037 2581.2901,-66.2903 2599.3344,-44.0988"/>
<polygon fill="#191970" stroke="#191970" points="2602.1528,-46.1783 2605.6502,-36.1774 2596.6795,-41.8144 2602.1528,-46.1783"/>
</g>
<!-- Node10&#45;&gt;Node20 -->
<g id="edge23" class="edge">
<title>Node10&#45;&gt;Node20</title>
<path fill="none" stroke="#191970" d="M2416.1589,-165.7414C2483.7015,-152.4376 2596.5792,-130.2041 2673.3268,-115.0871"/>
<polygon fill="#191970" stroke="#191970" points="2674.3033,-118.4621 2683.4384,-113.0955 2672.9505,-111.5941 2674.3033,-118.4621"/>
</g>
<!-- Node10&#45;&gt;Node21 -->
<g id="edge24" class="edge">
<title>Node10&#45;&gt;Node21</title>
<path fill="none" stroke="#191970" d="M2416.076,-169.5414C2446.7312,-162.3067 2482.0285,-148.0582 2501,-120 2516.2735,-97.4111 2504.4434,-66.1205 2492.6172,-44.8039"/>
<polygon fill="#191970" stroke="#191970" points="2495.5517,-42.8897 2487.4552,-36.0562 2489.5231,-46.4473 2495.5517,-42.8897"/>
</g>
<!-- Node22&#45;&gt;Node1 -->
<g id="edge26" class="edge">
<title>Node22&#45;&gt;Node1</title>
<path fill="none" stroke="#191970" d="M1454.6518,-247.9847C1245.8264,-242.109 515.3084,-220.0608 471,-198 400.8596,-163.0776 351.4982,-78.1826 332.1127,-40.0723"/>
<polygon fill="#191970" stroke="#191970" points="335.0195,-38.0548 327.4475,-30.6443 328.7455,-41.1593 335.0195,-38.0548"/>
</g>
<!-- Node22&#45;&gt;Node2 -->
<g id="edge27" class="edge">
<title>Node22&#45;&gt;Node2</title>
<path fill="none" stroke="#191970" d="M1454.7254,-248.6593C1253.0382,-245.3261 566.8251,-231.5505 535,-198 490.3141,-150.8914 556.3265,-72.6185 590.1193,-38.1694"/>
<polygon fill="#191970" stroke="#191970" points="592.9357,-40.3041 597.5518,-30.7677 587.9962,-35.3441 592.9357,-40.3041"/>
</g>
<!-- Node22&#45;&gt;Node3 -->
<g id="edge28" class="edge">
<title>Node22&#45;&gt;Node3</title>
<path fill="none" stroke="#191970" d="M1565.0844,-247.7705C1687.8406,-243.3579 1975.4262,-229.713 2005,-198 2025.7452,-175.7542 2018.0071,-82.1634 2013.4222,-40.7997"/>
<polygon fill="#191970" stroke="#191970" points="2016.8953,-40.3642 2012.2651,-30.8347 2009.942,-41.1718 2016.8953,-40.3642"/>
</g>
<!-- Node22&#45;&gt;Node4 -->
<g id="edge29" class="edge">
<title>Node22&#45;&gt;Node4</title>
<path fill="none" stroke="#191970" d="M1454.9066,-249.0297C1237.6512,-246.9091 447.0256,-236.5872 342,-198 248.4187,-163.6175 162.5857,-75.7722 128.9787,-38.3288"/>
<polygon fill="#191970" stroke="#191970" points="131.516,-35.9146 122.269,-30.7431 126.2727,-40.5523 131.516,-35.9146"/>
</g>
<!-- Node22&#45;&gt;Node9 -->
<g id="edge33" class="edge">
<title>Node22&#45;&gt;Node9</title>
<path fill="none" stroke="#191970" d="M1565.4865,-246.5215C1700.1805,-239.0559 2041.6175,-218.6589 2154,-198 2159.0725,-197.0675 2164.2989,-195.9209 2169.5103,-194.6487"/>
<polygon fill="#191970" stroke="#191970" points="2170.6653,-197.9651 2179.469,-192.0706 2168.9109,-191.1885 2170.6653,-197.9651"/>
</g>
<!-- Node22&#45;&gt;Node12 -->
<g id="edge71" class="edge">
<title>Node22&#45;&gt;Node12</title>
<path fill="none" stroke="#191970" d="M1565.0583,-248.1C1700.1209,-244.1657 2039.6663,-231.0618 2078,-198 2098.9261,-179.9518 2103.2482,-147.0534 2103.4393,-124.1568"/>
<polygon fill="#191970" stroke="#191970" points="2106.9384,-124.0686 2103.2688,-114.1296 2099.9394,-124.1877 2106.9384,-124.0686"/>
</g>
<!-- Node22&#45;&gt;Node13 -->
<g id="edge74" class="edge">
<title>Node22&#45;&gt;Node13</title>
<path fill="none" stroke="#191970" d="M1565.3711,-247.334C1681.4056,-242.2254 1941.5711,-227.5673 1968,-198 1980.44,-184.0827 1979.1097,-171.0007 1968,-156 1966.0271,-153.3361 1896.779,-132.684 1843.1263,-116.9979"/>
<polygon fill="#191970" stroke="#191970" points="1843.8896,-113.5747 1833.3094,-114.1322 1841.928,-120.2942 1843.8896,-113.5747"/>
</g>
<!-- Node22&#45;&gt;Node14 -->
<g id="edge75" class="edge">
<title>Node22&#45;&gt;Node14</title>
<path fill="none" stroke="#191970" d="M1565.3923,-247.5987C1685.0655,-242.9207 1959.2462,-228.9116 1987,-198 1999.4708,-184.1103 1994.6387,-173.0322 1987,-156 1981.9102,-144.6512 1973.3203,-134.6363 1964.0589,-126.2942"/>
<polygon fill="#191970" stroke="#191970" points="1966.0941,-123.4331 1956.1834,-119.6877 1961.5954,-128.7961 1966.0941,-123.4331"/>
</g>
<!-- Node22&#45;&gt;Node16 -->
<g id="edge80" class="edge">
<title>Node22&#45;&gt;Node16</title>
<path fill="none" stroke="#191970" d="M1454.828,-248.1352C1251.7963,-242.9202 555.8618,-223.269 516,-198 461.3616,-163.3639 436.0263,-85.9927 426.2154,-46.0013"/>
<polygon fill="#191970" stroke="#191970" points="429.5662,-44.9568 423.8978,-36.0059 422.7471,-46.538 429.5662,-44.9568"/>
</g>
<!-- Node22&#45;&gt;Node17 -->
<g id="edge81" class="edge">
<title>Node22&#45;&gt;Node17</title>
<path fill="none" stroke="#191970" d="M1565.1155,-248.0561C1763.0326,-242.6744 2428.1695,-222.8115 2466,-198 2512.8934,-167.2445 2537.2309,-123.8918 2505,-78 2504.1785,-76.8304 2445.0559,-55.6981 2399.3793,-39.5033"/>
<polygon fill="#191970" stroke="#191970" points="2400.457,-36.172 2389.8623,-36.1314 2398.1193,-42.7701 2400.457,-36.172"/>
</g>
<!-- Node22&#45;&gt;Node18 -->
<g id="edge84" class="edge">
<title>Node22&#45;&gt;Node18</title>
<path fill="none" stroke="#191970" d="M1565.048,-248.6625C1692.7739,-246.0894 2005.7848,-235.984 2103,-198 2108.814,-195.7284 2168.2633,-148.8831 2204.0632,-120.4576"/>
<polygon fill="#191970" stroke="#191970" points="2206.5265,-122.9707 2212.1775,-114.0087 2202.1712,-117.4906 2206.5265,-122.9707"/>
</g>
<!-- Node22&#45;&gt;Node20 -->
<g id="edge87" class="edge">
<title>Node22&#45;&gt;Node20</title>
<path fill="none" stroke="#191970" d="M1565.0883,-249.0551C1767.3899,-247.1109 2462.285,-237.5879 2553,-198 2577.4848,-187.3149 2573.3506,-170.1662 2596,-156 2623.1393,-139.0256 2656.0437,-126.1633 2684.862,-116.9926"/>
<polygon fill="#191970" stroke="#191970" points="2685.9446,-120.3214 2694.4643,-114.0234 2683.8767,-113.6338 2685.9446,-120.3214"/>
</g>
<!-- Node23 -->
<g id="node24" class="node">
<title>Node23</title>
<polygon fill="#ffffff" stroke="#bfbfbf" points="598.5,-156.5 598.5,-197.5 699.5,-197.5 699.5,-156.5 598.5,-156.5"/>
<text text-anchor="start" x="606.5" y="-185.5" font-family="Helvetica,sans-Serif" font-size="10.00" fill="#000000">tensorflow/compiler</text>
<text text-anchor="start" x="606.5" y="-174.5" font-family="Helvetica,sans-Serif" font-size="10.00" fill="#000000">/xla/executable_run</text>
<text text-anchor="middle" x="649" y="-163.5" font-family="Helvetica,sans-Serif" font-size="10.00" fill="#000000">_options.h</text>
</g>
<!-- Node22&#45;&gt;Node23 -->
<g id="edge30" class="edge">
<title>Node22&#45;&gt;Node23</title>
<path fill="none" stroke="#191970" d="M1454.9614,-247.9537C1301.5453,-243.3352 870.3859,-228.1765 709.7751,-198.0218"/>
<polygon fill="#191970" stroke="#191970" points="710.0813,-194.5148 699.593,-196.0138 708.7269,-201.3825 710.0813,-194.5148"/>
</g>
<!-- Node24 -->
<g id="node25" class="node">
<title>Node24</title>
<polygon fill="#ffffff" stroke="#bfbfbf" points="717.5,-156.5 717.5,-197.5 836.5,-197.5 836.5,-156.5 717.5,-156.5"/>
<text text-anchor="start" x="725.5" y="-185.5" font-family="Helvetica,sans-Serif" font-size="10.00" fill="#000000">tensorflow/compiler</text>
<text text-anchor="start" x="725.5" y="-174.5" font-family="Helvetica,sans-Serif" font-size="10.00" fill="#000000">/xla/legacy_flags/debug</text>
<text text-anchor="middle" x="777" y="-163.5" font-family="Helvetica,sans-Serif" font-size="10.00" fill="#000000">_options_flags.h</text>
</g>
<!-- Node22&#45;&gt;Node24 -->
<g id="edge31" class="edge">
<title>Node22&#45;&gt;Node24</title>
<path fill="none" stroke="#191970" d="M1454.9684,-246.8167C1320.9433,-240.0347 979.4543,-221.2064 846.4758,-198.0201"/>
<polygon fill="#191970" stroke="#191970" points="846.981,-194.5545 836.5146,-196.1992 845.7222,-201.4404 846.981,-194.5545"/>
</g>
<!-- Node25 -->
<g id="node26" class="node">
<title>Node25</title>
<polygon fill="#ffffff" stroke="#bfbfbf" points="854.5,-156.5 854.5,-197.5 965.5,-197.5 965.5,-156.5 854.5,-156.5"/>
<text text-anchor="start" x="862.5" y="-185.5" font-family="Helvetica,sans-Serif" font-size="10.00" fill="#000000">tensorflow/compiler</text>
<text text-anchor="start" x="862.5" y="-174.5" font-family="Helvetica,sans-Serif" font-size="10.00" fill="#000000">/xla/service/allocation</text>
<text text-anchor="middle" x="910" y="-163.5" font-family="Helvetica,sans-Serif" font-size="10.00" fill="#000000">_tracker.h</text>
</g>
<!-- Node22&#45;&gt;Node25 -->
<g id="edge32" class="edge">
<title>Node22&#45;&gt;Node25</title>
<path fill="none" stroke="#191970" d="M1454.7313,-248.1136C1358.7664,-244.8526 1155.2197,-234.1634 975.6972,-197.9071"/>
<polygon fill="#191970" stroke="#191970" points="976.3127,-194.4606 965.8134,-195.8799 974.9062,-201.3179 976.3127,-194.4606"/>
</g>
<!-- Node26 -->
<g id="node27" class="node">
<title>Node26</title>
<polygon fill="#ffffff" stroke="#bfbfbf" points="984,-156.5 984,-197.5 1088,-197.5 1088,-156.5 984,-156.5"/>
<text text-anchor="start" x="992" y="-185.5" font-family="Helvetica,sans-Serif" font-size="10.00" fill="#000000">tensorflow/compiler</text>
<text text-anchor="start" x="992" y="-174.5" font-family="Helvetica,sans-Serif" font-size="10.00" fill="#000000">/xla/service/channel</text>
<text text-anchor="middle" x="1036" y="-163.5" font-family="Helvetica,sans-Serif" font-size="10.00" fill="#000000">_tracker.h</text>
</g>
<!-- Node22&#45;&gt;Node26 -->
<g id="edge34" class="edge">
<title>Node22&#45;&gt;Node26</title>
<path fill="none" stroke="#191970" d="M1454.9162,-246.2761C1377.0857,-240.9222 1230.551,-227.9071 1097.9622,-197.9871"/>
<polygon fill="#191970" stroke="#191970" points="1098.5651,-194.5346 1088.0356,-195.709 1096.9993,-201.3572 1098.5651,-194.5346"/>
</g>
<!-- Node27 -->
<g id="node28" class="node">
<title>Node27</title>
<polygon fill="#ffffff" stroke="#bfbfbf" points="1106.5,-156.5 1106.5,-197.5 1225.5,-197.5 1225.5,-156.5 1106.5,-156.5"/>
<text text-anchor="start" x="1114.5" y="-185.5" font-family="Helvetica,sans-Serif" font-size="10.00" fill="#000000">tensorflow/compiler</text>
<text text-anchor="start" x="1114.5" y="-174.5" font-family="Helvetica,sans-Serif" font-size="10.00" fill="#000000">/xla/service/compilation</text>
<text text-anchor="middle" x="1166" y="-163.5" font-family="Helvetica,sans-Serif" font-size="10.00" fill="#000000">_cache.h</text>
</g>
<!-- Node22&#45;&gt;Node27 -->
<g id="edge35" class="edge">
<title>Node22&#45;&gt;Node27</title>
<path fill="none" stroke="#191970" d="M1454.8331,-241.0077C1401.2146,-232.3407 1317.3521,-217.6955 1235.6751,-198.0403"/>
<polygon fill="#191970" stroke="#191970" points="1236.2716,-194.5834 1225.7275,-195.6186 1234.6158,-201.3847 1236.2716,-194.5834"/>
</g>
<!-- Node28 -->
<g id="node29" class="node">
<title>Node28</title>
<g id="a_node29"><a xlink:href="../../d1/dc5/computation__tracker_8h.html" target="_top" xlink:title="tensorflow/compiler\l/xla/service/computation\l_tracker.h">
<polygon fill="#ffffff" stroke="#000000" points="1836.5,-156.5 1836.5,-197.5 1959.5,-197.5 1959.5,-156.5 1836.5,-156.5"/>
<text text-anchor="start" x="1844.5" y="-185.5" font-family="Helvetica,sans-Serif" font-size="10.00" fill="#000000">tensorflow/compiler</text>
<text text-anchor="start" x="1844.5" y="-174.5" font-family="Helvetica,sans-Serif" font-size="10.00" fill="#000000">/xla/service/computation</text>
<text text-anchor="middle" x="1898" y="-163.5" font-family="Helvetica,sans-Serif" font-size="10.00" fill="#000000">_tracker.h</text>
</a>
</g>
</g>
<!-- Node22&#45;&gt;Node28 -->
<g id="edge36" class="edge">
<title>Node22&#45;&gt;Node28</title>
<path fill="none" stroke="#191970" d="M1565.0053,-242.2202C1627.6007,-233.52 1732.7278,-217.6435 1822,-198 1823.4622,-197.6782 1824.9383,-197.3457 1826.4242,-197.0037"/>
<polygon fill="#191970" stroke="#191970" points="1827.4264,-200.3627 1836.3349,-194.6278 1825.7944,-193.5556 1827.4264,-200.3627"/>
</g>
<!-- Node31 -->
<g id="node32" class="node">
<title>Node31</title>
<polygon fill="#ffffff" stroke="#bfbfbf" points="1256.5,-6 1256.5,-36 1381.5,-36 1381.5,-6 1256.5,-6"/>
<text text-anchor="start" x="1264.5" y="-24" font-family="Helvetica,sans-Serif" font-size="10.00" fill="#000000">tensorflow/compiler</text>
<text text-anchor="middle" x="1319" y="-13" font-family="Helvetica,sans-Serif" font-size="10.00" fill="#000000">/xla/service/session.pb.h</text>
</g>
<!-- Node22&#45;&gt;Node31 -->
<g id="edge76" class="edge">
<title>Node22&#45;&gt;Node31</title>
<path fill="none" stroke="#191970" d="M1565.0333,-247.4031C1638.0683,-243.3312 1761.0744,-231.5521 1789,-198 1800.9414,-183.6526 1801.5682,-169.8016 1789,-156 1731.2933,-92.6303 1481.2381,-159.1604 1405,-120 1396.2824,-115.5221 1360.3854,-72.2803 1337.8149,-44.4461"/>
<polygon fill="#191970" stroke="#191970" points="1340.2904,-41.9409 1331.283,-36.3626 1334.8458,-46.3404 1340.2904,-41.9409"/>
</g>
<!-- Node32 -->
<g id="node33" class="node">
<title>Node32</title>
<g id="a_node33"><a xlink:href="../../d6/d38/user__computation_8h.html" target="_top" xlink:title="tensorflow/compiler\l/xla/service/user_computation.h">
<polygon fill="#ffffff" stroke="#000000" points="1201.5,-84 1201.5,-114 1356.5,-114 1356.5,-84 1201.5,-84"/>
<text text-anchor="start" x="1209.5" y="-102" font-family="Helvetica,sans-Serif" font-size="10.00" fill="#000000">tensorflow/compiler</text>
<text text-anchor="middle" x="1279" y="-91" font-family="Helvetica,sans-Serif" font-size="10.00" fill="#000000">/xla/service/user_computation.h</text>
</a>
</g>
</g>
<!-- Node22&#45;&gt;Node32 -->
<g id="edge77" class="edge">
<title>Node22&#45;&gt;Node32</title>
<path fill="none" stroke="#191970" d="M1454.8013,-248.4826C1260.5905,-244.6378 618.8638,-229.5804 589,-198 529.0774,-134.6331 546.0962,-167.3541 1078,-120 1115.056,-116.701 1155.898,-112.5322 1191.0325,-108.78"/>
<polygon fill="#191970" stroke="#191970" points="1191.6918,-112.2295 1201.2612,-107.6823 1190.9448,-105.2694 1191.6918,-112.2295"/>
</g>
<!-- Node34 -->
<g id="node35" class="node">
<title>Node34</title>
<polygon fill="#ffffff" stroke="#bfbfbf" points="904.5,-.5 904.5,-41.5 1021.5,-41.5 1021.5,-.5 904.5,-.5"/>
<text text-anchor="start" x="912.5" y="-29.5" font-family="Helvetica,sans-Serif" font-size="10.00" fill="#000000">tensorflow/compiler</text>
<text text-anchor="start" x="912.5" y="-18.5" font-family="Helvetica,sans-Serif" font-size="10.00" fill="#000000">/xla/service/versioned</text>
<text text-anchor="middle" x="963" y="-7.5" font-family="Helvetica,sans-Serif" font-size="10.00" fill="#000000">_computation_handle.h</text>
</g>
<!-- Node22&#45;&gt;Node34 -->
<g id="edge78" class="edge">
<title>Node22&#45;&gt;Node34</title>
<path fill="none" stroke="#191970" d="M1454.8995,-248.5759C1257.0937,-244.9936 592.8509,-230.5724 562,-198 549.1637,-184.4474 551.1081,-171.1595 562,-156 601.3031,-101.2976 790.0872,-55.6887 894.0118,-34.2176"/>
<polygon fill="#191970" stroke="#191970" points="895.0071,-37.5866 904.1029,-32.1536 893.6043,-30.7286 895.0071,-37.5866"/>
</g>
<!-- Node35 -->
<g id="node36" class="node">
<title>Node35</title>
<polygon fill="#ffffff" stroke="#bfbfbf" points="719.5,-6 719.5,-36 820.5,-36 820.5,-6 719.5,-6"/>
<text text-anchor="start" x="727.5" y="-24" font-family="Helvetica,sans-Serif" font-size="10.00" fill="#000000">tensorflow/compiler</text>
<text text-anchor="middle" x="770" y="-13" font-family="Helvetica,sans-Serif" font-size="10.00" fill="#000000">/xla/xla.pb.h</text>
</g>
<!-- Node22&#45;&gt;Node35 -->
<g id="edge82" class="edge">
<title>Node22&#45;&gt;Node35</title>
<path fill="none" stroke="#191970" d="M1454.8907,-248.6147C1255.4408,-245.1457 581.2874,-231.0108 550,-198 507.0913,-152.7277 599.0107,-85.3099 609,-78 638.7091,-56.2595 677.4702,-42.1997 709.5152,-33.484"/>
<polygon fill="#191970" stroke="#191970" points="710.4358,-36.8611 719.2271,-30.9482 708.6673,-30.0882 710.4358,-36.8611"/>
</g>
<!-- Node22&#45;&gt;Node36 -->
<g id="edge83" class="edge">
<title>Node22&#45;&gt;Node36</title>
<path fill="none" stroke="#191970" d="M1454.6719,-249.1333C1245.5279,-247.4431 510.1776,-238.6393 414,-198 335.8485,-164.9775 270.2073,-84.4477 241.1049,-44.4038"/>
<polygon fill="#191970" stroke="#191970" points="243.7994,-42.1544 235.1392,-36.051 238.1031,-46.2229 243.7994,-42.1544"/>
</g>
<!-- Node22&#45;&gt;Node37 -->
<g id="edge86" class="edge">
<title>Node22&#45;&gt;Node37</title>
<path fill="none" stroke="#191970" d="M1565.1404,-249.0977C1751.344,-247.3697 2349.4351,-238.6767 2425,-198 2477.1593,-169.9225 2521.0245,-123.4211 2483,-78 2480.9965,-75.6068 2328.3594,-49.1206 2234.9754,-33.1085"/>
<polygon fill="#191970" stroke="#191970" points="2235.4611,-29.6408 2225.0136,-31.4016 2234.2789,-36.5402 2235.4611,-29.6408"/>
</g>
<!-- Node22&#45;&gt;Node39 -->
<g id="edge70" class="edge">
<title>Node22&#45;&gt;Node39</title>
<path fill="none" stroke="#191970" d="M1565.2891,-248.7035C1756.7657,-245.6582 2390.7845,-233.1043 2591,-198 2592.4832,-197.7399 2593.9793,-197.457 2595.4838,-197.1541"/>
<polygon fill="#191970" stroke="#191970" points="2596.503,-200.5121 2605.4847,-194.8925 2594.959,-193.6845 2596.503,-200.5121"/>
</g>
<!-- Node40 -->
<g id="node41" class="node">
<title>Node40</title>
<polygon fill="#ffffff" stroke="#bfbfbf" points="1244,-156.5 1244,-197.5 1356,-197.5 1356,-156.5 1244,-156.5"/>
<text text-anchor="start" x="1252" y="-185.5" font-family="Helvetica,sans-Serif" font-size="10.00" fill="#000000">tensorflow/compiler</text>
<text text-anchor="start" x="1252" y="-174.5" font-family="Helvetica,sans-Serif" font-size="10.00" fill="#000000">/xla/service/execution</text>
<text text-anchor="middle" x="1300" y="-163.5" font-family="Helvetica,sans-Serif" font-size="10.00" fill="#000000">_tracker.h</text>
</g>
<!-- Node22&#45;&gt;Node40 -->
<g id="edge72" class="edge">
<title>Node22&#45;&gt;Node40</title>
<path fill="none" stroke="#191970" d="M1466.4879,-234.478C1437.4024,-224.4366 1398.5981,-211.0398 1365.7694,-199.7061"/>
<polygon fill="#191970" stroke="#191970" points="1366.8321,-196.3703 1356.2373,-196.4153 1364.5477,-202.9871 1366.8321,-196.3703"/>
</g>
<!-- Node41 -->
<g id="node42" class="node">
<title>Node41</title>
<polygon fill="#ffffff" stroke="#bfbfbf" points="1374,-156.5 1374,-197.5 1504,-197.5 1504,-156.5 1374,-156.5"/>
<text text-anchor="start" x="1382" y="-185.5" font-family="Helvetica,sans-Serif" font-size="10.00" fill="#000000">tensorflow/compiler</text>
<text text-anchor="start" x="1382" y="-174.5" font-family="Helvetica,sans-Serif" font-size="10.00" fill="#000000">/xla/service/hlo_execution</text>
<text text-anchor="middle" x="1439" y="-163.5" font-family="Helvetica,sans-Serif" font-size="10.00" fill="#000000">_profile.h</text>
</g>
<!-- Node22&#45;&gt;Node41 -->
<g id="edge73" class="edge">
<title>Node22&#45;&gt;Node41</title>
<path fill="none" stroke="#191970" d="M1495.2888,-234.478C1486.8561,-225.8672 1476.0071,-214.789 1466.0879,-204.6602"/>
<polygon fill="#191970" stroke="#191970" points="1468.5748,-202.1972 1459.0773,-197.5015 1463.5735,-207.095 1468.5748,-202.1972"/>
</g>
<!-- Node42 -->
<g id="node43" class="node">
<title>Node42</title>
<polygon fill="#ffffff" stroke="#bfbfbf" points="1522,-162 1522,-192 1640,-192 1640,-162 1522,-162"/>
<text text-anchor="start" x="1530" y="-180" font-family="Helvetica,sans-Serif" font-size="10.00" fill="#000000">tensorflow/compiler</text>
<text text-anchor="middle" x="1581" y="-169" font-family="Helvetica,sans-Serif" font-size="10.00" fill="#000000">/xla/service_interface.h</text>
</g>
<!-- Node22&#45;&gt;Node42 -->
<g id="edge79" class="edge">
<title>Node22&#45;&gt;Node42</title>
<path fill="none" stroke="#191970" d="M1524.7112,-234.478C1534.6118,-224.3682 1547.8433,-210.8572 1558.9901,-199.4749"/>
<polygon fill="#191970" stroke="#191970" points="1561.8114,-201.5963 1566.3076,-192.0028 1556.8102,-196.6985 1561.8114,-201.5963"/>
</g>
<!-- Node43 -->
<g id="node44" class="node">
<title>Node43</title>
<polygon fill="#ffffff" stroke="#bfbfbf" points="1658,-162 1658,-192 1780,-192 1780,-162 1658,-162"/>
<text text-anchor="start" x="1666" y="-180" font-family="Helvetica,sans-Serif" font-size="10.00" fill="#000000">tensorflow/core/platform</text>
<text text-anchor="middle" x="1719" y="-169" font-family="Helvetica,sans-Serif" font-size="10.00" fill="#000000">/logging.h</text>
</g>
<!-- Node22&#45;&gt;Node43 -->
<g id="edge85" class="edge">
<title>Node22&#45;&gt;Node43</title>
<path fill="none" stroke="#191970" d="M1553.3049,-234.478C1586.092,-223.1045 1631.2882,-207.4263 1666.1963,-195.3171"/>
<polygon fill="#191970" stroke="#191970" points="1667.4499,-198.5869 1675.7505,-192.0028 1665.1557,-191.9735 1667.4499,-198.5869"/>
</g>
<!-- Node28&#45;&gt;Node2 -->
<g id="edge39" class="edge">
<title>Node28&#45;&gt;Node2</title>
<path fill="none" stroke="#191970" d="M1836.2797,-163.4728C1820.9037,-160.5555 1804.4079,-157.8081 1789,-156 1421.8395,-112.9153 1322.9888,-178.7052 958,-120 840.473,-101.0968 706.2537,-56.3533 643.6496,-34.0741"/>
<polygon fill="#191970" stroke="#191970" points="644.4697,-30.6501 633.8752,-30.5705 642.1077,-37.2396 644.4697,-30.6501"/>
</g>
<!-- Node28&#45;&gt;Node3 -->
<g id="edge41" class="edge">
<title>Node28&#45;&gt;Node3</title>
<path fill="none" stroke="#191970" d="M1836.3645,-159.2333C1831.5223,-158.0629 1826.6924,-156.9675 1822,-156 1703.4247,-131.5525 1480.9505,-168.8287 1561,-78 1588.7909,-46.4669 1883.2066,-27.8853 1980.2037,-22.5843"/>
<polygon fill="#191970" stroke="#191970" points="1980.4576,-26.0758 1990.2554,-22.0441 1980.082,-19.0859 1980.4576,-26.0758"/>
</g>
<!-- Node28&#45;&gt;Node11 -->
<g id="edge38" class="edge">
<title>Node28&#45;&gt;Node11</title>
<path fill="none" stroke="#191970" d="M1836.3748,-159.1827C1831.5303,-158.0238 1826.697,-156.9448 1822,-156 1760.2815,-143.5851 1582.5913,-167.2596 1541,-120 1521.4176,-97.7488 1535.3322,-61.4037 1546.896,-39.4884"/>
<polygon fill="#191970" stroke="#191970" points="1550.0771,-40.9713 1551.9149,-30.537 1543.9714,-37.5478 1550.0771,-40.9713"/>
</g>
<!-- Node28&#45;&gt;Node13 -->
<g id="edge42" class="edge">
<title>Node28&#45;&gt;Node13</title>
<path fill="none" stroke="#191970" d="M1866.9533,-156.3022C1850.0043,-145.0028 1829.079,-131.0527 1812.1187,-119.7458"/>
<polygon fill="#191970" stroke="#191970" points="1813.915,-116.7369 1803.653,-114.102 1810.0321,-122.5613 1813.915,-116.7369"/>
</g>
<!-- Node28&#45;&gt;Node14 -->
<g id="edge43" class="edge">
<title>Node28&#45;&gt;Node14</title>
<path fill="none" stroke="#191970" d="M1904.6995,-156.0974C1907.3267,-147.9007 1910.3931,-138.3336 1913.2564,-129.4"/>
<polygon fill="#191970" stroke="#191970" points="1916.6494,-130.2809 1916.3687,-119.6898 1909.9834,-128.1443 1916.6494,-130.2809"/>
</g>
<!-- Node28&#45;&gt;Node16 -->
<g id="edge63" class="edge">
<title>Node28&#45;&gt;Node16</title>
<path fill="none" stroke="#191970" d="M1836.2892,-163.3899C1820.913,-160.4749 1804.4147,-157.7493 1789,-156 1343.1319,-105.4031 1223.5308,-188.1091 780,-120 668.3856,-102.8604 541.9628,-63.0251 472.8932,-39.4414"/>
<polygon fill="#191970" stroke="#191970" points="473.722,-36.0253 463.1273,-36.0844 471.4464,-42.6451 473.722,-36.0253"/>
</g>
<!-- Node28&#45;&gt;Node17 -->
<g id="edge64" class="edge">
<title>Node28&#45;&gt;Node17</title>
<path fill="none" stroke="#191970" d="M1836.3009,-159.5216C1831.4732,-158.2856 1826.664,-157.0964 1822,-156 1735.1364,-135.5798 1575.8322,-142.9674 1637,-78 1682.5538,-29.6165 2168.04,-50.0864 2234,-42 2250.9756,-39.9189 2269.251,-36.8773 2286.0529,-33.7516"/>
<polygon fill="#191970" stroke="#191970" points="2287.1295,-37.1097 2296.2992,-31.8025 2285.8213,-30.233 2287.1295,-37.1097"/>
</g>
<!-- Node28&#45;&gt;Node19 -->
<g id="edge67" class="edge">
<title>Node28&#45;&gt;Node19</title>
<path fill="none" stroke="#191970" d="M1836.4194,-159.4609C1781.7018,-143.7348 1710.0268,-122.7241 1708,-120 1696.8573,-105.0239 1695.0867,-91.4793 1708,-78 1740.2745,-44.311 2500.9964,-49.7628 2547,-42 2552.3172,-41.1028 2557.7982,-39.9246 2563.242,-38.5836"/>
<polygon fill="#191970" stroke="#191970" points="2564.1818,-41.9555 2572.9575,-36.0194 2562.3954,-35.1873 2564.1818,-41.9555"/>
</g>
<!-- Node28&#45;&gt;Node21 -->
<g id="edge68" class="edge">
<title>Node28&#45;&gt;Node21</title>
<path fill="none" stroke="#191970" d="M1836.2391,-159.771C1831.4255,-158.4782 1826.6363,-157.208 1822,-156 1756.9091,-139.0408 1716.5224,-172.9182 1675,-120 1663.477,-105.3145 1662.1294,-91.5201 1675,-78 1731.0703,-19.1004 2325.8296,-55.6291 2406,-42 2411.3066,-41.0979 2416.7768,-39.929 2422.2152,-38.6047"/>
<polygon fill="#191970" stroke="#191970" points="2423.1314,-41.983 2431.9277,-36.0774 2421.3686,-35.2086 2423.1314,-41.983"/>
</g>
<!-- Node29 -->
<g id="node30" class="node">
<title>Node29</title>
<polygon fill="#ffffff" stroke="#bfbfbf" points="991.5,-89.5 991.5,-108.5 1020.5,-108.5 1020.5,-89.5 991.5,-89.5"/>
<text text-anchor="middle" x="1006" y="-96.5" font-family="Helvetica,sans-Serif" font-size="10.00" fill="#000000">list</text>
</g>
<!-- Node28&#45;&gt;Node29 -->
<g id="edge37" class="edge">
<title>Node28&#45;&gt;Node29</title>
<path fill="none" stroke="#191970" d="M1836.2744,-163.5173C1820.8986,-160.5988 1804.4042,-157.8396 1789,-156 1621.3351,-135.9766 1186.6151,-183.12 1030,-120 1027.2078,-118.8747 1024.5189,-117.2799 1022.0155,-115.466"/>
<polygon fill="#191970" stroke="#191970" points="1024.189,-112.7182 1014.338,-108.8182 1019.6068,-118.0101 1024.189,-112.7182"/>
</g>
<!-- Node30 -->
<g id="node31" class="node">
<title>Node30</title>
<polygon fill="#ffffff" stroke="#bfbfbf" points="1039,-89.5 1039,-108.5 1069,-108.5 1069,-89.5 1039,-89.5"/>
<text text-anchor="middle" x="1054" y="-96.5" font-family="Helvetica,sans-Serif" font-size="10.00" fill="#000000">set</text>
</g>
<!-- Node28&#45;&gt;Node30 -->
<g id="edge40" class="edge">
<title>Node28&#45;&gt;Node30</title>
<path fill="none" stroke="#191970" d="M1836.2697,-163.5559C1820.8941,-160.6363 1804.4009,-157.867 1789,-156 1633.049,-137.0946 1231.1603,-172.2173 1083,-120 1079.3248,-118.7047 1075.7106,-116.7846 1072.3479,-114.6233"/>
<polygon fill="#191970" stroke="#191970" points="1074.2939,-111.7098 1064.1649,-108.6025 1070.1454,-117.348 1074.2939,-111.7098"/>
</g>
<!-- Node28&#45;&gt;Node31 -->
<g id="edge44" class="edge">
<title>Node28&#45;&gt;Node31</title>
<path fill="none" stroke="#191970" d="M1836.3964,-159.0723C1831.547,-157.9386 1826.7067,-156.8955 1822,-156 1674.0243,-127.8473 1627.884,-167.6818 1485,-120 1457.1836,-110.7174 1389.9719,-67.9628 1350.1244,-41.7685"/>
<polygon fill="#191970" stroke="#191970" points="1351.856,-38.7178 1341.5818,-36.131 1348.0004,-44.5603 1351.856,-38.7178"/>
</g>
<!-- Node28&#45;&gt;Node32 -->
<g id="edge45" class="edge">
<title>Node28&#45;&gt;Node32</title>
<path fill="none" stroke="#191970" d="M1836.4937,-164.0822C1821.0381,-161.131 1804.452,-158.2152 1789,-156 1621.0718,-131.9255 1577.2723,-141.5384 1409,-120 1395.3141,-118.2482 1380.856,-116.1553 1366.7504,-113.9794"/>
<polygon fill="#191970" stroke="#191970" points="1366.9787,-110.4726 1356.5577,-112.3841 1365.8962,-117.3884 1366.9787,-110.4726"/>
</g>
<!-- Node28&#45;&gt;Node34 -->
<g id="edge62" class="edge">
<title>Node28&#45;&gt;Node34</title>
<path fill="none" stroke="#191970" d="M1836.278,-163.4867C1820.9021,-160.5691 1804.4068,-157.818 1789,-156 1744.4313,-150.741 1015.9493,-149.3509 982,-120 962.9132,-103.4985 959.2983,-74.1855 959.7825,-51.7241"/>
<polygon fill="#191970" stroke="#191970" points="963.2826,-51.8052 960.2757,-41.6461 956.291,-51.463 963.2826,-51.8052"/>
</g>
<!-- Node28&#45;&gt;Node36 -->
<g id="edge65" class="edge">
<title>Node28&#45;&gt;Node36</title>
<path fill="none" stroke="#191970" d="M1836.2959,-163.3307C1820.9195,-160.4173 1804.4194,-157.7073 1789,-156 1262.6415,-97.7204 1122.624,-192.2455 598,-120 455.5475,-100.383 421.6803,-83.4929 284,-42 281.2186,-41.1618 278.375,-40.2697 275.5126,-39.3443"/>
<polygon fill="#191970" stroke="#191970" points="276.3646,-35.939 265.771,-36.0986 274.1519,-42.5801 276.3646,-35.939"/>
</g>
<!-- Node28&#45;&gt;Node37 -->
<g id="edge66" class="edge">
<title>Node28&#45;&gt;Node37</title>
<path fill="none" stroke="#191970" d="M1836.3389,-159.3537C1831.5026,-158.1559 1826.681,-157.0213 1822,-156 1719.4145,-133.617 1527.8389,-155.2068 1599,-78 1632.3193,-41.85 1991.2182,-48.1102 2040,-42 2057.2051,-39.845 2075.6684,-37.0061 2092.9536,-34.1151"/>
<polygon fill="#191970" stroke="#191970" points="2093.7042,-37.5378 2102.9764,-32.4116 2092.5313,-30.6367 2093.7042,-37.5378"/>
</g>
<!-- Node38 -->
<g id="node39" class="node">
<title>Node38</title>
<polygon fill="#ffffff" stroke="#bfbfbf" points="1400,-6 1400,-36 1522,-36 1522,-6 1400,-6"/>
<text text-anchor="start" x="1408" y="-24" font-family="Helvetica,sans-Serif" font-size="10.00" fill="#000000">tensorflow/core/platform</text>
<text text-anchor="middle" x="1461" y="-13" font-family="Helvetica,sans-Serif" font-size="10.00" fill="#000000">/types.h</text>
</g>
<!-- Node28&#45;&gt;Node38 -->
<g id="edge69" class="edge">
<title>Node28&#45;&gt;Node38</title>
<path fill="none" stroke="#191970" d="M1836.3806,-159.1534C1831.5348,-158.0012 1826.6996,-156.9317 1822,-156 1692.8706,-130.3996 1640.3084,-188.6774 1528,-120 1499.8039,-102.7579 1480.7606,-68.6572 1470.3939,-45.3446"/>
<polygon fill="#191970" stroke="#191970" points="1473.6004,-43.9408 1466.4808,-36.0946 1467.1535,-46.668 1473.6004,-43.9408"/>
</g>
<!-- Node32&#45;&gt;Node1 -->
<g id="edge46" class="edge">
<title>Node32&#45;&gt;Node1</title>
<path fill="none" stroke="#191970" d="M1201.3447,-88.0366C1172.9665,-84.3623 1140.5775,-80.5547 1111,-78 944.7604,-63.6414 521.5247,-87.5367 361,-42 355.7857,-40.5208 350.5026,-38.2158 345.6008,-35.6656"/>
<polygon fill="#191970" stroke="#191970" points="347.181,-32.5374 336.7626,-30.6119 343.7063,-38.6141 347.181,-32.5374"/>
</g>
<!-- Node32&#45;&gt;Node2 -->
<g id="edge48" class="edge">
<title>Node32&#45;&gt;Node2</title>
<path fill="none" stroke="#191970" d="M1218.8703,-83.9231C1208.3014,-81.6608 1197.3676,-79.5656 1187,-78 976.7803,-46.2558 920.5469,-71.4961 710,-42 687.9931,-38.917 663.6056,-33.9536 644.1964,-29.6261"/>
<polygon fill="#191970" stroke="#191970" points="644.7835,-26.1704 634.2567,-27.3691 643.2334,-32.9967 644.7835,-26.1704"/>
</g>
<!-- Node32&#45;&gt;Node3 -->
<g id="edge49" class="edge">
<title>Node32&#45;&gt;Node3</title>
<path fill="none" stroke="#191970" d="M1356.6438,-90.7265C1515.8332,-73.7637 1873.2216,-35.6813 1980.1855,-24.2835"/>
<polygon fill="#191970" stroke="#191970" points="1980.7289,-27.7455 1990.3017,-23.2056 1979.9871,-20.7849 1980.7289,-27.7455"/>
</g>
<!-- Node32&#45;&gt;Node4 -->
<g id="edge50" class="edge">
<title>Node32&#45;&gt;Node4</title>
<path fill="none" stroke="#191970" d="M1201.311,-89.6993C1164.059,-85.5428 1118.7697,-80.9305 1078,-78 875.4759,-63.4429 363.3713,-85.3212 165,-42 157.4108,-40.3426 149.51,-37.6268 142.2573,-34.6898"/>
<polygon fill="#191970" stroke="#191970" points="143.4268,-31.3824 132.8589,-30.6264 140.6488,-37.8076 143.4268,-31.3824"/>
</g>
<!-- Node32&#45;&gt;Node11 -->
<g id="edge47" class="edge">
<title>Node32&#45;&gt;Node11</title>
<path fill="none" stroke="#191970" d="M1356.5681,-90.4028C1407.9295,-82.5899 1475.7514,-68.1278 1531,-42 1533.9123,-40.6227 1536.8029,-38.8861 1539.55,-37.0043"/>
<polygon fill="#191970" stroke="#191970" points="1541.8859,-39.6236 1547.6892,-30.7595 1537.6248,-34.0699 1541.8859,-39.6236"/>
</g>
<!-- Node32&#45;&gt;Node16 -->
<g id="edge54" class="edge">
<title>Node32&#45;&gt;Node16</title>
<path fill="none" stroke="#191970" d="M1201.4913,-85.207C1184.2542,-82.4952 1166.0404,-79.9042 1149,-78 894.0872,-49.5139 828.2218,-67.5699 573,-42 542.7822,-38.9726 509.335,-34.4771 481.5269,-30.4214"/>
<polygon fill="#191970" stroke="#191970" points="481.9571,-26.947 471.5534,-28.9506 480.9358,-33.8721 481.9571,-26.947"/>
</g>
<!-- Node32&#45;&gt;Node17 -->
<g id="edge55" class="edge">
<title>Node32&#45;&gt;Node17</title>
<path fill="none" stroke="#191970" d="M1356.5827,-93.7148C1421.3801,-89.3471 1516.1989,-83.0639 1599,-78 1881.1482,-60.7445 1953.3638,-75.8926 2234,-42 2250.9793,-39.9494 2269.256,-36.9179 2286.0578,-33.7922"/>
<polygon fill="#191970" stroke="#191970" points="2287.135,-37.1501 2296.304,-31.8417 2285.8259,-30.2735 2287.135,-37.1501"/>
</g>
<!-- Node32&#45;&gt;Node19 -->
<g id="edge59" class="edge">
<title>Node32&#45;&gt;Node19</title>
<path fill="none" stroke="#191970" d="M1356.7564,-94.6068C1436.5956,-90.1594 1564.4519,-83.213 1675,-78 2062.4551,-59.7293 2164.4694,-106.231 2547,-42 2552.3179,-41.1071 2557.7994,-39.9318 2563.2435,-38.5926"/>
<polygon fill="#191970" stroke="#191970" points="2564.1824,-41.9648 2572.9594,-36.0306 2562.3974,-35.1962 2564.1824,-41.9648"/>
</g>
<!-- Node32&#45;&gt;Node21 -->
<g id="edge60" class="edge">
<title>Node32&#45;&gt;Node21</title>
<path fill="none" stroke="#191970" d="M1356.502,-94.189C1429.0034,-89.7512 1540.3206,-83.0984 1637,-78 1978.6773,-59.9817 2068.6181,-98.9342 2406,-42 2411.3077,-41.1043 2416.7787,-39.9398 2422.2175,-38.6183"/>
<polygon fill="#191970" stroke="#191970" points="2423.1323,-41.9969 2431.9306,-36.0943 2421.3717,-35.2219 2423.1323,-41.9969"/>
</g>
<!-- Node32&#45;&gt;Node31 -->
<g id="edge52" class="edge">
<title>Node32&#45;&gt;Node31</title>
<path fill="none" stroke="#191970" d="M1286.7124,-83.9608C1292.3206,-73.0249 1300.0333,-57.9851 1306.5142,-45.3474"/>
<polygon fill="#191970" stroke="#191970" points="1309.7259,-46.7545 1311.1748,-36.2592 1303.4972,-43.5602 1309.7259,-46.7545"/>
</g>
<!-- Node33 -->
<g id="node34" class="node">
<title>Node33</title>
<polygon fill="#ffffff" stroke="#bfbfbf" points="1089.5,-6 1089.5,-36 1238.5,-36 1238.5,-6 1089.5,-6"/>
<text text-anchor="start" x="1097.5" y="-24" font-family="Helvetica,sans-Serif" font-size="10.00" fill="#000000">tensorflow/compiler</text>
<text text-anchor="middle" x="1164" y="-13" font-family="Helvetica,sans-Serif" font-size="10.00" fill="#000000">/xla/service/hlo_computation.h</text>
</g>
<!-- Node32&#45;&gt;Node33 -->
<g id="edge51" class="edge">
<title>Node32&#45;&gt;Node33</title>
<path fill="none" stroke="#191970" d="M1256.8268,-83.9608C1239.2017,-72.0064 1214.3464,-55.148 1194.7905,-41.884"/>
<polygon fill="#191970" stroke="#191970" points="1196.7381,-38.9759 1186.4975,-36.2592 1192.8088,-44.769 1196.7381,-38.9759"/>
</g>
<!-- Node32&#45;&gt;Node34 -->
<g id="edge53" class="edge">
<title>Node32&#45;&gt;Node34</title>
<path fill="none" stroke="#191970" d="M1218.072,-83.9608C1164.6082,-70.7641 1086.9337,-51.5912 1031.3645,-37.8748"/>
<polygon fill="#191970" stroke="#191970" points="1032.1516,-34.4641 1021.6043,-35.4656 1030.4741,-41.2601 1032.1516,-34.4641"/>
</g>
<!-- Node32&#45;&gt;Node35 -->
<g id="edge56" class="edge">
<title>Node32&#45;&gt;Node35</title>
<path fill="none" stroke="#191970" d="M1216.8187,-83.9048C1206.8795,-81.7526 1196.6822,-79.6973 1187,-78 1058.2038,-55.4213 1024.3965,-60.8366 895,-42 874.0427,-38.9492 851.1765,-35.2243 830.7986,-31.7633"/>
<polygon fill="#191970" stroke="#191970" points="831.1514,-28.2729 820.7043,-30.0362 829.9708,-35.1726 831.1514,-28.2729"/>
</g>
<!-- Node32&#45;&gt;Node36 -->
<g id="edge57" class="edge">
<title>Node32&#45;&gt;Node36</title>
<path fill="none" stroke="#191970" d="M1201.3031,-89.8064C1164.0493,-85.6738 1118.7609,-81.0507 1078,-78 725.7338,-51.6351 630.65,-109.9733 284,-42 279.919,-41.1998 275.7403,-40.1698 271.5843,-38.9967"/>
<polygon fill="#191970" stroke="#191970" points="272.5719,-35.6387 261.9847,-36.0404 270.5116,-42.3287 272.5719,-35.6387"/>
</g>
<!-- Node32&#45;&gt;Node37 -->
<g id="edge58" class="edge">
<title>Node32&#45;&gt;Node37</title>
<path fill="none" stroke="#191970" d="M1356.7193,-93.2022C1549.7376,-78.8 2035.7848,-42.5137 2040,-42 2057.2122,-39.9025 2075.6782,-37.0855 2092.9638,-34.1972"/>
<polygon fill="#191970" stroke="#191970" points="2093.7145,-37.6199 2102.9864,-32.4933 2092.5413,-30.7189 2093.7145,-37.6199"/>
</g>
<!-- Node32&#45;&gt;Node38 -->
<g id="edge61" class="edge">
<title>Node32&#45;&gt;Node38</title>
<path fill="none" stroke="#191970" d="M1314.0914,-83.9608C1343.2045,-71.4838 1384.7823,-53.6647 1416.2798,-40.1658"/>
<polygon fill="#191970" stroke="#191970" points="1417.8936,-43.2821 1425.7063,-36.1259 1415.1361,-36.8481 1417.8936,-43.2821"/>
</g>
</g>
</svg>
