<?xml version="1.0" encoding="UTF-8" standalone="no"?>
<!DOCTYPE svg PUBLIC "-//W3C//DTD SVG 1.1//EN"
 "http://www.w3.org/Graphics/SVG/1.1/DTD/svg11.dtd">
<!-- Generated by graphviz version 2.40.1 (20161225.0304)
 -->
<!-- Title: tensorflow/tensorflow/compiler/xla/service/compiler.h Pages: 1 -->
<!--zoomable 362 -->
<svg id="main" version="1.1" xmlns="http://www.w3.org/2000/svg" xmlns:xlink="http://www.w3.org/1999/xlink" xml:space="preserve" onload="init(evt)">
<style type="text/css"><![CDATA[
.edge:hover path { stroke: red; }
.edge:hover polygon { stroke: red; fill: red; }
]]></style>
<script type="text/javascript"><![CDATA[
var edges = document.getElementsByTagName('g');
if (edges && edges.length) {
  for (var i=0;i<edges.length;i++) {
    if (edges[i].id.substr(0,4)=='edge') {
      edges[i].setAttribute('class','edge');
    }
  }
}
]]></script>
        <defs>
                <circle id="rim" cx="0" cy="0" r="7"/>
                <circle id="rim2" cx="0" cy="0" r="3.5"/>
                <g id="zoomPlus">
                        <use xlink:href="#rim" fill="#404040">
                                <set attributeName="fill" to="#808080" begin="zoomplus.mouseover" end="zoomplus.mouseout"/>
                        </use>
                        <path d="M-4,0h8M0,-4v8" fill="none" stroke="white" stroke-width="1.5" pointer-events="none"/>
                </g>
                <g id="zoomMin">
                        <use xlink:href="#rim" fill="#404040">
                                <set attributeName="fill" to="#808080" begin="zoomminus.mouseover" end="zoomminus.mouseout"/>
                        </use>
                        <path d="M-4,0h8" fill="none" stroke="white" stroke-width="1.5" pointer-events="none"/>
                </g>
                <g id="dirArrow">
                        <path fill="none" stroke="white" stroke-width="1.5" d="M0,-3.0v7 M-2.5,-0.5L0,-3.0L2.5,-0.5"/>
                </g>
               <g id="resetDef">
                       <use xlink:href="#rim2" fill="#404040">
                               <set attributeName="fill" to="#808080" begin="reset.mouseover" end="reset.mouseout"/>
                       </use>
               </g>
        </defs>

<script type="text/javascript">
var viewWidth = 900;
var viewHeight = 362;
var sectionId = 'dynsection-1';
</script>
<script xlink:href="../../svgpan.js"/>
<svg id="graph" class="graph">
<g id="viewport">
<title>tensorflow/tensorflow/compiler/xla/service/compiler.h</title>
<polygon fill="#ffffff" stroke="transparent" points="-4,4 -4,-358 896,-358 896,4 -4,4"/>
<!-- Node41 -->
<g id="node1" class="node">
<title>Node41</title>
<polygon fill="#bfbfbf" stroke="#000000" points="406,-312.5 406,-353.5 516,-353.5 516,-312.5 406,-312.5"/>
<text text-anchor="start" x="414" y="-341.5" font-family="Helvetica,sans-Serif" font-size="10.00" fill="#000000">tensorflow/tensorflow</text>
<text text-anchor="start" x="414" y="-330.5" font-family="Helvetica,sans-Serif" font-size="10.00" fill="#000000">/compiler/xla/service</text>
<text text-anchor="middle" x="461" y="-319.5" font-family="Helvetica,sans-Serif" font-size="10.00" fill="#000000">/compiler.h</text>
</g>
<!-- Node42 -->
<g id="node2" class="node">
<title>Node42</title>
<g id="a_node2"><a xlink:href="../../d4/d8d/tfcompile__main_8cc.html" target="_top" xlink:title="tensorflow/tensorflow\l/compiler/aot/tfcompile\l_main.cc">
<polygon fill="#ffffff" stroke="#000000" points="0,-.5 0,-41.5 116,-41.5 116,-.5 0,-.5"/>
<text text-anchor="start" x="8" y="-29.5" font-family="Helvetica,sans-Serif" font-size="10.00" fill="#000000">tensorflow/tensorflow</text>
<text text-anchor="start" x="8" y="-18.5" font-family="Helvetica,sans-Serif" font-size="10.00" fill="#000000">/compiler/aot/tfcompile</text>
<text text-anchor="middle" x="58" y="-7.5" font-family="Helvetica,sans-Serif" font-size="10.00" fill="#000000">_main.cc</text>
</a>
</g>
</g>
<!-- Node41&#45;&gt;Node42 -->
<g id="edge1" class="edge">
<title>Node41&#45;&gt;Node42</title>
<path fill="none" stroke="#191970" d="M396.1774,-314.7383C324.7055,-293.0071 207.8193,-252.6707 117,-198 71.0726,-170.353 47.5312,-168.6418 25,-120 12.8925,-93.8616 28.5548,-62.002 42.1621,-41.6111"/>
<polygon fill="#191970" stroke="#191970" points="395.3691,-318.15 405.9535,-317.6807 397.3866,-311.4471 395.3691,-318.15"/>
</g>
<!-- Node43 -->
<g id="node3" class="node">
<title>Node43</title>
<g id="a_node3"><a xlink:href="../../d4/dab/compile__only__client_8h.html" target="_top" xlink:title="tensorflow/tensorflow\l/compiler/xla/client\l/compile_only_client.h">
<polygon fill="#ffffff" stroke="#000000" points="473.5,-156.5 473.5,-197.5 586.5,-197.5 586.5,-156.5 473.5,-156.5"/>
<text text-anchor="start" x="481.5" y="-185.5" font-family="Helvetica,sans-Serif" font-size="10.00" fill="#000000">tensorflow/tensorflow</text>
<text text-anchor="start" x="481.5" y="-174.5" font-family="Helvetica,sans-Serif" font-size="10.00" fill="#000000">/compiler/xla/client</text>
<text text-anchor="middle" x="530" y="-163.5" font-family="Helvetica,sans-Serif" font-size="10.00" fill="#000000">/compile_only_client.h</text>
</a>
</g>
</g>
<!-- Node41&#45;&gt;Node43 -->
<g id="edge2" class="edge">
<title>Node41&#45;&gt;Node43</title>
<path fill="none" stroke="#191970" d="M462.7354,-302.0614C464.8607,-281.8391 469.5723,-255.3227 480,-234 486.5926,-220.5192 497.2289,-207.7415 507,-197.7139"/>
<polygon fill="#191970" stroke="#191970" points="459.2256,-302.0163 461.8219,-312.288 466.1978,-302.6391 459.2256,-302.0163"/>
</g>
<!-- Node50 -->
<g id="node10" class="node">
<title>Node50</title>
<g id="a_node10"><a xlink:href="../../d2/d89/compile__only__service_8h.html" target="_top" xlink:title="tensorflow/tensorflow\l/compiler/xla/service\l/compile_only_service.h">
<polygon fill="#ffffff" stroke="#000000" points="489,-234.5 489,-275.5 611,-275.5 611,-234.5 489,-234.5"/>
<text text-anchor="start" x="497" y="-263.5" font-family="Helvetica,sans-Serif" font-size="10.00" fill="#000000">tensorflow/tensorflow</text>
<text text-anchor="start" x="497" y="-252.5" font-family="Helvetica,sans-Serif" font-size="10.00" fill="#000000">/compiler/xla/service</text>
<text text-anchor="middle" x="550" y="-241.5" font-family="Helvetica,sans-Serif" font-size="10.00" fill="#000000">/compile_only_service.h</text>
</a>
</g>
</g>
<!-- Node41&#45;&gt;Node50 -->
<g id="edge10" class="edge">
<title>Node41&#45;&gt;Node50</title>
<path fill="none" stroke="#191970" d="M492.6874,-305.229C503.7938,-295.4953 516.0643,-284.7414 526.3924,-275.6898"/>
<polygon fill="#191970" stroke="#191970" points="490.064,-302.8742 484.8504,-312.0974 494.6778,-308.1386 490.064,-302.8742"/>
</g>
<!-- Node52 -->
<g id="node12" class="node">
<title>Node52</title>
<g id="a_node12"><a xlink:href="../../d8/d1e/llvm__compiler_8h.html" target="_top" xlink:title="tensorflow/tensorflow\l/compiler/xla/service\l/llvm_compiler.h">
<polygon fill="#ffffff" stroke="#000000" points="321,-234.5 321,-275.5 431,-275.5 431,-234.5 321,-234.5"/>
<text text-anchor="start" x="329" y="-263.5" font-family="Helvetica,sans-Serif" font-size="10.00" fill="#000000">tensorflow/tensorflow</text>
<text text-anchor="start" x="329" y="-252.5" font-family="Helvetica,sans-Serif" font-size="10.00" fill="#000000">/compiler/xla/service</text>
<text text-anchor="middle" x="376" y="-241.5" font-family="Helvetica,sans-Serif" font-size="10.00" fill="#000000">/llvm_compiler.h</text>
</a>
</g>
</g>
<!-- Node41&#45;&gt;Node52 -->
<g id="edge14" class="edge">
<title>Node41&#45;&gt;Node52</title>
<path fill="none" stroke="#191970" d="M430.7367,-305.229C420.1295,-295.4953 408.4105,-284.7414 398.5466,-275.6898"/>
<polygon fill="#191970" stroke="#191970" points="428.4872,-307.915 438.2216,-312.0974 433.22,-302.7574 428.4872,-307.915"/>
</g>
<!-- Node58 -->
<g id="node18" class="node">
<title>Node58</title>
<g id="a_node18"><a xlink:href="../../d9/d1a/service_8cc.html" target="_top" xlink:title="tensorflow/tensorflow\l/compiler/xla/service\l/service.cc">
<polygon fill="#ffffff" stroke="#000000" points="629,-234.5 629,-275.5 739,-275.5 739,-234.5 629,-234.5"/>
<text text-anchor="start" x="637" y="-263.5" font-family="Helvetica,sans-Serif" font-size="10.00" fill="#000000">tensorflow/tensorflow</text>
<text text-anchor="start" x="637" y="-252.5" font-family="Helvetica,sans-Serif" font-size="10.00" fill="#000000">/compiler/xla/service</text>
<text text-anchor="middle" x="684" y="-241.5" font-family="Helvetica,sans-Serif" font-size="10.00" fill="#000000">/service.cc</text>
</a>
</g>
</g>
<!-- Node41&#45;&gt;Node58 -->
<g id="edge24" class="edge">
<title>Node41&#45;&gt;Node58</title>
<path fill="none" stroke="#191970" d="M525.5907,-310.4077C558.2551,-298.9825 597.4882,-285.2597 628.7377,-274.3294"/>
<polygon fill="#191970" stroke="#191970" points="524.4073,-307.1137 516.1236,-313.7191 526.7184,-313.7211 524.4073,-307.1137"/>
</g>
<!-- Node44 -->
<g id="node4" class="node">
<title>Node44</title>
<g id="a_node4"><a xlink:href="../../d6/d17/compile_8cc.html" target="_top" xlink:title="tensorflow/tensorflow\l/compiler/aot/compile.cc">
<polygon fill="#ffffff" stroke="#000000" points="152.5,-6 152.5,-36 275.5,-36 275.5,-6 152.5,-6"/>
<text text-anchor="start" x="160.5" y="-24" font-family="Helvetica,sans-Serif" font-size="10.00" fill="#000000">tensorflow/tensorflow</text>
<text text-anchor="middle" x="214" y="-13" font-family="Helvetica,sans-Serif" font-size="10.00" fill="#000000">/compiler/aot/compile.cc</text>
</a>
</g>
</g>
<!-- Node43&#45;&gt;Node44 -->
<g id="edge3" class="edge">
<title>Node43&#45;&gt;Node44</title>
<path fill="none" stroke="#191970" d="M518.9045,-146.7015C509.1511,-124.3328 492.7719,-94.9439 469,-78 438.4321,-56.212 340.8123,-38.7725 275.6122,-29.1652"/>
<polygon fill="#191970" stroke="#191970" points="515.7405,-148.209 522.8017,-156.1077 522.2074,-145.5296 515.7405,-148.209"/>
</g>
<!-- Node45 -->
<g id="node5" class="node">
<title>Node45</title>
<g id="a_node5"><a xlink:href="../../db/d47/client__library_8h.html" target="_top" xlink:title="tensorflow/tensorflow\l/compiler/xla/client\l/client_library.h">
<polygon fill="#ffffff" stroke="#000000" points="654,-78.5 654,-119.5 764,-119.5 764,-78.5 654,-78.5"/>
<text text-anchor="start" x="662" y="-107.5" font-family="Helvetica,sans-Serif" font-size="10.00" fill="#000000">tensorflow/tensorflow</text>
<text text-anchor="start" x="662" y="-96.5" font-family="Helvetica,sans-Serif" font-size="10.00" fill="#000000">/compiler/xla/client</text>
<text text-anchor="middle" x="709" y="-85.5" font-family="Helvetica,sans-Serif" font-size="10.00" fill="#000000">/client_library.h</text>
</a>
</g>
</g>
<!-- Node43&#45;&gt;Node45 -->
<g id="edge4" class="edge">
<title>Node43&#45;&gt;Node45</title>
<path fill="none" stroke="#191970" d="M586.9087,-152.2018C611.0756,-141.671 638.9143,-129.5401 661.9004,-119.5239"/>
<polygon fill="#191970" stroke="#191970" points="585.268,-149.0988 577.4988,-156.3022 588.0644,-155.516 585.268,-149.0988"/>
</g>
<!-- Node49 -->
<g id="node9" class="node">
<title>Node49</title>
<g id="a_node9"><a xlink:href="../../d8/d93/compile__only__client_8cc.html" target="_top" xlink:title="tensorflow/tensorflow\l/compiler/xla/client\l/compile_only_client.cc">
<polygon fill="#ffffff" stroke="#000000" points="516.5,-78.5 516.5,-119.5 635.5,-119.5 635.5,-78.5 516.5,-78.5"/>
<text text-anchor="start" x="524.5" y="-107.5" font-family="Helvetica,sans-Serif" font-size="10.00" fill="#000000">tensorflow/tensorflow</text>
<text text-anchor="start" x="524.5" y="-96.5" font-family="Helvetica,sans-Serif" font-size="10.00" fill="#000000">/compiler/xla/client</text>
<text text-anchor="middle" x="576" y="-85.5" font-family="Helvetica,sans-Serif" font-size="10.00" fill="#000000">/compile_only_client.cc</text>
</a>
</g>
</g>
<!-- Node43&#45;&gt;Node49 -->
<g id="edge9" class="edge">
<title>Node43&#45;&gt;Node49</title>
<path fill="none" stroke="#191970" d="M547.556,-147.2312C552.9755,-138.0415 558.823,-128.1263 563.7983,-119.6898"/>
<polygon fill="#191970" stroke="#191970" points="544.3923,-145.7058 542.3272,-156.0974 550.4218,-149.2617 544.3923,-145.7058"/>
</g>
<!-- Node45&#45;&gt;Node44 -->
<g id="edge5" class="edge">
<title>Node45&#45;&gt;Node44</title>
<path fill="none" stroke="#191970" d="M643.9179,-77.9445C508.0563,-47.6758 357.9236,-32.3846 275.6608,-25.535"/>
<polygon fill="#191970" stroke="#191970" points="643.1485,-81.3589 653.6741,-80.1499 644.6919,-74.5311 643.1485,-81.3589"/>
</g>
<!-- Node46 -->
<g id="node6" class="node">
<title>Node46</title>
<g id="a_node6"><a xlink:href="../../d5/d88/xla__compiler_8cc.html" target="_top" xlink:title="tensorflow/tensorflow\l/compiler/tf2xla/xla\l_compiler.cc">
<polygon fill="#ffffff" stroke="#000000" points="654,-.5 654,-41.5 764,-41.5 764,-.5 654,-.5"/>
<text text-anchor="start" x="662" y="-29.5" font-family="Helvetica,sans-Serif" font-size="10.00" fill="#000000">tensorflow/tensorflow</text>
<text text-anchor="start" x="662" y="-18.5" font-family="Helvetica,sans-Serif" font-size="10.00" fill="#000000">/compiler/tf2xla/xla</text>
<text text-anchor="middle" x="709" y="-7.5" font-family="Helvetica,sans-Serif" font-size="10.00" fill="#000000">_compiler.cc</text>
</a>
</g>
</g>
<!-- Node45&#45;&gt;Node46 -->
<g id="edge6" class="edge">
<title>Node45&#45;&gt;Node46</title>
<path fill="none" stroke="#191970" d="M709,-68.0789C709,-59.2178 709,-49.7747 709,-41.6898"/>
<polygon fill="#191970" stroke="#191970" points="705.5001,-68.0974 709,-78.0974 712.5001,-68.0975 705.5001,-68.0974"/>
</g>
<!-- Node47 -->
<g id="node7" class="node">
<title>Node47</title>
<g id="a_node7"><a xlink:href="../../d2/d10/xla__op__registry_8cc.html" target="_top" xlink:title="tensorflow/tensorflow\l/compiler/tf2xla/xla\l_op_registry.cc">
<polygon fill="#ffffff" stroke="#000000" points="782,-.5 782,-41.5 892,-41.5 892,-.5 782,-.5"/>
<text text-anchor="start" x="790" y="-29.5" font-family="Helvetica,sans-Serif" font-size="10.00" fill="#000000">tensorflow/tensorflow</text>
<text text-anchor="start" x="790" y="-18.5" font-family="Helvetica,sans-Serif" font-size="10.00" fill="#000000">/compiler/tf2xla/xla</text>
<text text-anchor="middle" x="837" y="-7.5" font-family="Helvetica,sans-Serif" font-size="10.00" fill="#000000">_op_registry.cc</text>
</a>
</g>
</g>
<!-- Node45&#45;&gt;Node47 -->
<g id="edge7" class="edge">
<title>Node45&#45;&gt;Node47</title>
<path fill="none" stroke="#191970" d="M751.5393,-73.0776C768.3809,-62.8148 787.4647,-51.1856 803.3198,-41.5239"/>
<polygon fill="#191970" stroke="#191970" points="749.6837,-70.1097 742.9656,-78.3022 753.3263,-76.0873 749.6837,-70.1097"/>
</g>
<!-- Node48 -->
<g id="node8" class="node">
<title>Node48</title>
<g id="a_node8"><a xlink:href="../../d3/dba/client__library_8cc.html" target="_top" xlink:title="tensorflow/tensorflow\l/compiler/xla/client\l/client_library.cc">
<polygon fill="#ffffff" stroke="#000000" points="526,-.5 526,-41.5 636,-41.5 636,-.5 526,-.5"/>
<text text-anchor="start" x="534" y="-29.5" font-family="Helvetica,sans-Serif" font-size="10.00" fill="#000000">tensorflow/tensorflow</text>
<text text-anchor="start" x="534" y="-18.5" font-family="Helvetica,sans-Serif" font-size="10.00" fill="#000000">/compiler/xla/client</text>
<text text-anchor="middle" x="581" y="-7.5" font-family="Helvetica,sans-Serif" font-size="10.00" fill="#000000">/client_library.cc</text>
</a>
</g>
</g>
<!-- Node45&#45;&gt;Node48 -->
<g id="edge8" class="edge">
<title>Node45&#45;&gt;Node48</title>
<path fill="none" stroke="#191970" d="M666.4607,-73.0776C649.6191,-62.8148 630.5353,-51.1856 614.6802,-41.5239"/>
<polygon fill="#191970" stroke="#191970" points="664.6737,-76.0873 675.0344,-78.3022 668.3163,-70.1097 664.6737,-76.0873"/>
</g>
<!-- Node50&#45;&gt;Node43 -->
<g id="edge12" class="edge">
<title>Node50&#45;&gt;Node43</title>
<path fill="none" stroke="#191970" d="M542.1455,-224.3676C539.8521,-215.4232 537.4007,-205.8626 535.3051,-197.6898"/>
<polygon fill="#191970" stroke="#191970" points="538.7662,-225.2801 544.6404,-234.0974 545.5469,-223.5414 538.7662,-225.2801"/>
</g>
<!-- Node50&#45;&gt;Node45 -->
<g id="edge11" class="edge">
<title>Node50&#45;&gt;Node45</title>
<path fill="none" stroke="#191970" d="M573.4893,-226.3461C593.9595,-201.6208 622.299,-168.0437 635,-156 648.7677,-142.9447 665.4078,-129.9167 679.419,-119.6181"/>
<polygon fill="#191970" stroke="#191970" points="570.5506,-224.4082 566.883,-234.348 575.9486,-228.8648 570.5506,-224.4082"/>
</g>
<!-- Node51 -->
<g id="node11" class="node">
<title>Node51</title>
<g id="a_node11"><a xlink:href="../../df/d69/compile__only__service_8cc.html" target="_top" xlink:title="tensorflow/tensorflow\l/compiler/xla/service\l/compile_only_service.cc">
<polygon fill="#ffffff" stroke="#000000" points="643.5,-156.5 643.5,-197.5 770.5,-197.5 770.5,-156.5 643.5,-156.5"/>
<text text-anchor="start" x="651.5" y="-185.5" font-family="Helvetica,sans-Serif" font-size="10.00" fill="#000000">tensorflow/tensorflow</text>
<text text-anchor="start" x="651.5" y="-174.5" font-family="Helvetica,sans-Serif" font-size="10.00" fill="#000000">/compiler/xla/service</text>
<text text-anchor="middle" x="707" y="-163.5" font-family="Helvetica,sans-Serif" font-size="10.00" fill="#000000">/compile_only_service.cc</text>
</a>
</g>
</g>
<!-- Node50&#45;&gt;Node51 -->
<g id="edge13" class="edge">
<title>Node50&#45;&gt;Node51</title>
<path fill="none" stroke="#191970" d="M600.7601,-229.7816C621.7585,-219.3493 645.7958,-207.4072 665.6892,-197.5239"/>
<polygon fill="#191970" stroke="#191970" points="599.0593,-226.7184 591.6609,-234.3022 602.1739,-232.9873 599.0593,-226.7184"/>
</g>
<!-- Node53 -->
<g id="node13" class="node">
<title>Node53</title>
<g id="a_node13"><a xlink:href="../../d7/d3d/compiler__functor_8h.html" target="_top" xlink:title="tensorflow/tensorflow\l/compiler/xla/service\l/cpu/compiler_functor.h">
<polygon fill="#ffffff" stroke="#000000" points="317,-156.5 317,-197.5 435,-197.5 435,-156.5 317,-156.5"/>
<text text-anchor="start" x="325" y="-185.5" font-family="Helvetica,sans-Serif" font-size="10.00" fill="#000000">tensorflow/tensorflow</text>
<text text-anchor="start" x="325" y="-174.5" font-family="Helvetica,sans-Serif" font-size="10.00" fill="#000000">/compiler/xla/service</text>
<text text-anchor="middle" x="376" y="-163.5" font-family="Helvetica,sans-Serif" font-size="10.00" fill="#000000">/cpu/compiler_functor.h</text>
</a>
</g>
</g>
<!-- Node52&#45;&gt;Node53 -->
<g id="edge15" class="edge">
<title>Node52&#45;&gt;Node53</title>
<path fill="none" stroke="#191970" d="M376,-224.0789C376,-215.2178 376,-205.7747 376,-197.6898"/>
<polygon fill="#191970" stroke="#191970" points="372.5001,-224.0974 376,-234.0974 379.5001,-224.0975 372.5001,-224.0974"/>
</g>
<!-- Node56 -->
<g id="node16" class="node">
<title>Node56</title>
<g id="a_node16"><a xlink:href="../../db/de2/cpu__compiler_8h.html" target="_top" xlink:title="tensorflow/tensorflow\l/compiler/xla/service\l/cpu/cpu_compiler.h">
<polygon fill="#ffffff" stroke="#000000" points="126,-156.5 126,-197.5 236,-197.5 236,-156.5 126,-156.5"/>
<text text-anchor="start" x="134" y="-185.5" font-family="Helvetica,sans-Serif" font-size="10.00" fill="#000000">tensorflow/tensorflow</text>
<text text-anchor="start" x="134" y="-174.5" font-family="Helvetica,sans-Serif" font-size="10.00" fill="#000000">/compiler/xla/service</text>
<text text-anchor="middle" x="181" y="-163.5" font-family="Helvetica,sans-Serif" font-size="10.00" fill="#000000">/cpu/cpu_compiler.h</text>
</a>
</g>
</g>
<!-- Node52&#45;&gt;Node56 -->
<g id="edge18" class="edge">
<title>Node52&#45;&gt;Node56</title>
<path fill="none" stroke="#191970" d="M314.9553,-230.5821C288.455,-219.982 257.7571,-207.7028 232.4392,-197.5757"/>
<polygon fill="#191970" stroke="#191970" points="313.9263,-233.9401 324.511,-234.4044 316.5261,-227.4408 313.9263,-233.9401"/>
</g>
<!-- Node54 -->
<g id="node14" class="node">
<title>Node54</title>
<g id="a_node14"><a xlink:href="../../de/ded/compiler__functor_8cc.html" target="_top" xlink:title="tensorflow/tensorflow\l/compiler/xla/service\l/cpu/compiler_functor.cc">
<polygon fill="#ffffff" stroke="#000000" points="336.5,-78.5 336.5,-119.5 459.5,-119.5 459.5,-78.5 336.5,-78.5"/>
<text text-anchor="start" x="344.5" y="-107.5" font-family="Helvetica,sans-Serif" font-size="10.00" fill="#000000">tensorflow/tensorflow</text>
<text text-anchor="start" x="344.5" y="-96.5" font-family="Helvetica,sans-Serif" font-size="10.00" fill="#000000">/compiler/xla/service</text>
<text text-anchor="middle" x="398" y="-85.5" font-family="Helvetica,sans-Serif" font-size="10.00" fill="#000000">/cpu/compiler_functor.cc</text>
</a>
</g>
</g>
<!-- Node53&#45;&gt;Node54 -->
<g id="edge16" class="edge">
<title>Node53&#45;&gt;Node54</title>
<path fill="none" stroke="#191970" d="M384.6399,-146.3676C387.1627,-137.4232 389.8593,-127.8626 392.1644,-119.6898"/>
<polygon fill="#191970" stroke="#191970" points="381.2417,-145.5228 381.8956,-156.0974 387.9788,-147.4231 381.2417,-145.5228"/>
</g>
<!-- Node55 -->
<g id="node15" class="node">
<title>Node55</title>
<g id="a_node15"><a xlink:href="../../d4/dcb/cpu__compiler_8cc.html" target="_top" xlink:title="tensorflow/tensorflow\l/compiler/xla/service\l/cpu/cpu_compiler.cc">
<polygon fill="#ffffff" stroke="#000000" points="208,-78.5 208,-119.5 318,-119.5 318,-78.5 208,-78.5"/>
<text text-anchor="start" x="216" y="-107.5" font-family="Helvetica,sans-Serif" font-size="10.00" fill="#000000">tensorflow/tensorflow</text>
<text text-anchor="start" x="216" y="-96.5" font-family="Helvetica,sans-Serif" font-size="10.00" fill="#000000">/compiler/xla/service</text>
<text text-anchor="middle" x="263" y="-85.5" font-family="Helvetica,sans-Serif" font-size="10.00" fill="#000000">/cpu/cpu_compiler.cc</text>
</a>
</g>
</g>
<!-- Node53&#45;&gt;Node55 -->
<g id="edge17" class="edge">
<title>Node53&#45;&gt;Node55</title>
<path fill="none" stroke="#191970" d="M337.6254,-150.5113C322.9605,-140.3887 306.4735,-129.0083 292.7333,-119.5239"/>
<polygon fill="#191970" stroke="#191970" points="335.7967,-153.5019 346.0147,-156.3022 339.7732,-147.741 335.7967,-153.5019"/>
</g>
<!-- Node56&#45;&gt;Node44 -->
<g id="edge19" class="edge">
<title>Node56&#45;&gt;Node44</title>
<path fill="none" stroke="#191970" d="M185.9142,-146.5167C189.2349,-126.878 193.9264,-100.8398 199,-78 202.151,-63.8153 206.4215,-47.8291 209.6001,-36.4042"/>
<polygon fill="#191970" stroke="#191970" points="182.4538,-145.9902 184.2625,-156.4296 189.3586,-147.1409 182.4538,-145.9902"/>
</g>
<!-- Node56&#45;&gt;Node55 -->
<g id="edge23" class="edge">
<title>Node56&#45;&gt;Node55</title>
<path fill="none" stroke="#191970" d="M210.4935,-148.9452C220.6474,-139.2866 231.8258,-128.6535 241.2492,-119.6898"/>
<polygon fill="#191970" stroke="#191970" points="207.8078,-146.6693 202.9745,-156.0974 212.6324,-151.7412 207.8078,-146.6693"/>
</g>
<!-- Node57 -->
<g id="node17" class="node">
<title>Node57</title>
<g id="a_node17"><a xlink:href="../../d4/d03/compile_8h.html" target="_top" xlink:title="tensorflow/tensorflow\l/compiler/aot/compile.h">
<polygon fill="#ffffff" stroke="#000000" points="34,-84 34,-114 152,-114 152,-84 34,-84"/>
<text text-anchor="start" x="42" y="-102" font-family="Helvetica,sans-Serif" font-size="10.00" fill="#000000">tensorflow/tensorflow</text>
<text text-anchor="middle" x="93" y="-91" font-family="Helvetica,sans-Serif" font-size="10.00" fill="#000000">/compiler/aot/compile.h</text>
</a>
</g>
</g>
<!-- Node56&#45;&gt;Node57 -->
<g id="edge20" class="edge">
<title>Node56&#45;&gt;Node57</title>
<path fill="none" stroke="#191970" d="M149.7658,-149.3152C136.3583,-137.4312 121.2194,-124.0126 109.9494,-114.0233"/>
<polygon fill="#191970" stroke="#191970" points="147.6125,-152.0835 157.4176,-156.0974 152.2557,-146.8451 147.6125,-152.0835"/>
</g>
<!-- Node57&#45;&gt;Node42 -->
<g id="edge22" class="edge">
<title>Node57&#45;&gt;Node42</title>
<path fill="none" stroke="#191970" d="M82.1348,-74.7862C77.3607,-64.1468 71.8133,-51.784 67.2416,-41.5956"/>
<polygon fill="#191970" stroke="#191970" points="78.9644,-76.2701 86.2516,-83.9608 85.3509,-73.4043 78.9644,-76.2701"/>
</g>
<!-- Node57&#45;&gt;Node44 -->
<g id="edge21" class="edge">
<title>Node57&#45;&gt;Node44</title>
<path fill="none" stroke="#191970" d="M124.7444,-78.5367C145.2926,-65.2907 171.6079,-48.3272 190.3287,-36.2592"/>
<polygon fill="#191970" stroke="#191970" points="122.8387,-75.6009 116.33,-83.9608 126.6314,-81.4844 122.8387,-75.6009"/>
</g>
</g>
</svg>
        <g id="navigator" transform="translate(0 0)" fill="#404254">
                <rect fill="#f2f5e9" fill-opacity="0.5" stroke="#606060" stroke-width=".5" x="0" y="0" width="60" height="60"/>
                <use id="zoomplus" xlink:href="#zoomPlus" x="17" y="9" onmousedown="handleZoom(evt,'in')"/>
                <use id="zoomminus" xlink:href="#zoomMin" x="42" y="9" onmousedown="handleZoom(evt,'out')"/>
                <use id="reset" xlink:href="#resetDef" x="30" y="36" onmousedown="handleReset()"/>
                <g id="arrowUp" xlink:href="#dirArrow" transform="translate(30 24)" onmousedown="handlePan(0,-1)">
                  <use xlink:href="#rim" fill="#404040">
                        <set attributeName="fill" to="#808080" begin="arrowUp.mouseover" end="arrowUp.mouseout"/>
                  </use>
                  <path fill="none" stroke="white" stroke-width="1.5" d="M0,-3.0v7 M-2.5,-0.5L0,-3.0L2.5,-0.5"/>
                </g>
                <g id="arrowRight" xlink:href="#dirArrow" transform="rotate(90) translate(36 -43)" onmousedown="handlePan(1,0)">
                  <use xlink:href="#rim" fill="#404040">
                        <set attributeName="fill" to="#808080" begin="arrowRight.mouseover" end="arrowRight.mouseout"/>
                  </use>
                  <path fill="none" stroke="white" stroke-width="1.5" d="M0,-3.0v7 M-2.5,-0.5L0,-3.0L2.5,-0.5"/>
                </g>
                <g id="arrowDown" xlink:href="#dirArrow" transform="rotate(180) translate(-30 -48)" onmousedown="handlePan(0,1)">
                  <use xlink:href="#rim" fill="#404040">
                        <set attributeName="fill" to="#808080" begin="arrowDown.mouseover" end="arrowDown.mouseout"/>
                  </use>
                  <path fill="none" stroke="white" stroke-width="1.5" d="M0,-3.0v7 M-2.5,-0.5L0,-3.0L2.5,-0.5"/>
                </g>
                <g id="arrowLeft" xlink:href="#dirArrow" transform="rotate(270) translate(-36 17)" onmousedown="handlePan(-1,0)">
                  <use xlink:href="#rim" fill="#404040">
                        <set attributeName="fill" to="#808080" begin="arrowLeft.mouseover" end="arrowLeft.mouseout"/>
                  </use>
                  <path fill="none" stroke="white" stroke-width="1.5" d="M0,-3.0v7 M-2.5,-0.5L0,-3.0L2.5,-0.5"/>
                </g>
        </g>
        <svg viewBox="0 0 15 15" width="100%" height="30px" preserveAspectRatio="xMaxYMin meet">
         <g id="arrow_out" transform="scale(0.3 0.3)">
          <a xlink:href="compiler_8h__dep__incl_org.svg" target="_base">
           <rect id="button" ry="5" rx="5" y="6" x="6" height="38" width="38"
                fill="#f2f5e9" fill-opacity="0.5" stroke="#606060" stroke-width="1.0"/>
           <path id="arrow"
             d="M 11.500037,31.436501 C 11.940474,20.09759 22.043105,11.32322 32.158766,21.979434 L 37.068811,17.246167 C 37.068811,17.246167 37.088388,32 37.088388,32 L 22.160133,31.978069 C 22.160133,31.978069 26.997745,27.140456 26.997745,27.140456 C 18.528582,18.264221 13.291696,25.230495 11.500037,31.436501 z"
             style="fill:#404040;"/>
          </a>
         </g>
        </svg>
</svg>
