<?xml version="1.0" encoding="UTF-8" standalone="no"?>
<!DOCTYPE svg PUBLIC "-//W3C//DTD SVG 1.1//EN"
 "http://www.w3.org/Graphics/SVG/1.1/DTD/svg11.dtd">
<!-- Generated by graphviz version 2.40.1 (20161225.0304)
 -->
<!-- Title: tensorflow/tensorflow/compiler/xla/service/tuple_points_to_analysis.h Pages: 1 -->
<svg width="2890pt" height="284pt"
 viewBox="0.00 0.00 2890.00 284.00" xmlns="http://www.w3.org/2000/svg" xmlns:xlink="http://www.w3.org/1999/xlink">
<g id="graph0" class="graph" transform="scale(1 1) rotate(0) translate(4 280)">
<title>tensorflow/tensorflow/compiler/xla/service/tuple_points_to_analysis.h</title>
<polygon fill="#ffffff" stroke="transparent" points="-4,4 -4,-280 2886,-280 2886,4 -4,4"/>
<!-- Node0 -->
<g id="node1" class="node">
<title>Node0</title>
<polygon fill="#bfbfbf" stroke="#000000" points="1764.5,-234.5 1764.5,-275.5 1899.5,-275.5 1899.5,-234.5 1764.5,-234.5"/>
<text text-anchor="start" x="1772.5" y="-263.5" font-family="Helvetica,sans-Serif" font-size="10.00" fill="#000000">tensorflow/tensorflow</text>
<text text-anchor="start" x="1772.5" y="-252.5" font-family="Helvetica,sans-Serif" font-size="10.00" fill="#000000">/compiler/xla/service</text>
<text text-anchor="middle" x="1832" y="-241.5" font-family="Helvetica,sans-Serif" font-size="10.00" fill="#000000">/tuple_points_to_analysis.h</text>
</g>
<!-- Node1 -->
<g id="node2" class="node">
<title>Node1</title>
<polygon fill="#ffffff" stroke="#bfbfbf" points="0,-167.5 0,-186.5 52,-186.5 52,-167.5 0,-167.5"/>
<text text-anchor="middle" x="26" y="-174.5" font-family="Helvetica,sans-Serif" font-size="10.00" fill="#000000">stddef.h</text>
</g>
<!-- Node0&#45;&gt;Node1 -->
<g id="edge1" class="edge">
<title>Node0&#45;&gt;Node1</title>
<path fill="none" stroke="#191970" d="M1764.4138,-254.8338C1460.2995,-253.8149 226.396,-246.69 61,-198 56.3626,-196.6348 51.7114,-194.506 47.383,-192.1175"/>
<polygon fill="#191970" stroke="#191970" points="48.9021,-188.9421 38.5538,-186.6694 45.2261,-194.8993 48.9021,-188.9421"/>
</g>
<!-- Node2 -->
<g id="node3" class="node">
<title>Node2</title>
<polygon fill="#ffffff" stroke="#bfbfbf" points="70.5,-167.5 70.5,-186.5 115.5,-186.5 115.5,-167.5 70.5,-167.5"/>
<text text-anchor="middle" x="93" y="-174.5" font-family="Helvetica,sans-Serif" font-size="10.00" fill="#000000">iosfwd</text>
</g>
<!-- Node0&#45;&gt;Node2 -->
<g id="edge2" class="edge">
<title>Node0&#45;&gt;Node2</title>
<path fill="none" stroke="#191970" d="M1764.3587,-254.6451C1467.6526,-252.8299 288.9948,-242.8351 130,-198 125.0193,-196.5955 119.9935,-194.3868 115.3204,-191.9194"/>
<polygon fill="#191970" stroke="#191970" points="116.7486,-188.6997 106.3508,-186.6658 113.2107,-194.74 116.7486,-188.6997"/>
</g>
<!-- Node3 -->
<g id="node4" class="node">
<title>Node3</title>
<polygon fill="#ffffff" stroke="#bfbfbf" points="100,-11.5 100,-30.5 152,-30.5 152,-11.5 100,-11.5"/>
<text text-anchor="middle" x="126" y="-18.5" font-family="Helvetica,sans-Serif" font-size="10.00" fill="#000000">memory</text>
</g>
<!-- Node0&#45;&gt;Node3 -->
<g id="edge3" class="edge">
<title>Node0&#45;&gt;Node3</title>
<path fill="none" stroke="#191970" d="M1764.3403,-253.8221C1455.6033,-248.3075 194.1462,-224.2038 163,-198 116.6291,-158.9874 119.1515,-78.1731 123.1979,-40.7774"/>
<polygon fill="#191970" stroke="#191970" points="126.6952,-41.0144 124.4501,-30.6601 119.7482,-40.1544 126.6952,-41.0144"/>
</g>
<!-- Node4 -->
<g id="node5" class="node">
<title>Node4</title>
<polygon fill="#ffffff" stroke="#bfbfbf" points="172,-167.5 172,-186.5 202,-186.5 202,-167.5 172,-167.5"/>
<text text-anchor="middle" x="187" y="-174.5" font-family="Helvetica,sans-Serif" font-size="10.00" fill="#000000">set</text>
</g>
<!-- Node0&#45;&gt;Node4 -->
<g id="edge4" class="edge">
<title>Node0&#45;&gt;Node4</title>
<path fill="none" stroke="#191970" d="M1764.0637,-253.7096C1466.5654,-247.9177 290.1716,-223.4886 216,-198 212.3148,-196.7336 208.6955,-194.8282 205.3307,-192.6727"/>
<polygon fill="#191970" stroke="#191970" points="207.2767,-189.7592 197.1484,-186.6498 203.1271,-195.3966 207.2767,-189.7592"/>
</g>
<!-- Node5 -->
<g id="node6" class="node">
<title>Node5</title>
<polygon fill="#ffffff" stroke="#bfbfbf" points="170.5,-11.5 170.5,-30.5 211.5,-30.5 211.5,-11.5 170.5,-11.5"/>
<text text-anchor="middle" x="191" y="-18.5" font-family="Helvetica,sans-Serif" font-size="10.00" fill="#000000">string</text>
</g>
<!-- Node0&#45;&gt;Node5 -->
<g id="edge5" class="edge">
<title>Node0&#45;&gt;Node5</title>
<path fill="none" stroke="#191970" d="M1764.0697,-254.4847C1493.8682,-252.1451 503.5187,-240.7089 370,-198 309.7686,-178.7337 294.9187,-165.499 251,-120 227.7296,-95.8923 209.3215,-61.1967 199.312,-39.9285"/>
<polygon fill="#191970" stroke="#191970" points="202.4236,-38.3165 195.0884,-30.6715 196.0552,-41.2222 202.4236,-38.3165"/>
</g>
<!-- Node6 -->
<g id="node7" class="node">
<title>Node6</title>
<polygon fill="#ffffff" stroke="#bfbfbf" points="230,-11.5 230,-30.5 274,-30.5 274,-11.5 230,-11.5"/>
<text text-anchor="middle" x="252" y="-18.5" font-family="Helvetica,sans-Serif" font-size="10.00" fill="#000000">vector</text>
</g>
<!-- Node0&#45;&gt;Node6 -->
<g id="edge6" class="edge">
<title>Node0&#45;&gt;Node6</title>
<path fill="none" stroke="#191970" d="M1764.3823,-253.7598C1508.7311,-248.8492 609.3726,-229.4853 485,-198 408.3082,-178.5852 385.7863,-170.6319 325,-120 297.2532,-96.8883 274.3108,-61.1129 261.9324,-39.4883"/>
<polygon fill="#191970" stroke="#191970" points="264.9313,-37.6795 257.0091,-30.6447 258.8152,-41.0844 264.9313,-37.6795"/>
</g>
<!-- Node7 -->
<g id="node8" class="node">
<title>Node7</title>
<polygon fill="#ffffff" stroke="#bfbfbf" points="452,-.5 452,-41.5 566,-41.5 566,-.5 452,-.5"/>
<text text-anchor="start" x="460" y="-29.5" font-family="Helvetica,sans-Serif" font-size="10.00" fill="#000000">tensorflow/compiler</text>
<text text-anchor="start" x="460" y="-18.5" font-family="Helvetica,sans-Serif" font-size="10.00" fill="#000000">/xla/service/dfs_hlo</text>
<text text-anchor="middle" x="509" y="-7.5" font-family="Helvetica,sans-Serif" font-size="10.00" fill="#000000">_visitor_with_default.h</text>
</g>
<!-- Node0&#45;&gt;Node7 -->
<g id="edge7" class="edge">
<title>Node0&#45;&gt;Node7</title>
<path fill="none" stroke="#191970" d="M1764.4437,-253.6034C1501.7212,-247.4722 558.3609,-218.682 473,-120 455.783,-100.0962 469.296,-71.2884 484.4321,-49.8752"/>
<polygon fill="#191970" stroke="#191970" points="487.3001,-51.8841 490.4774,-41.7769 481.6907,-47.6967 487.3001,-51.8841"/>
</g>
<!-- Node8 -->
<g id="node9" class="node">
<title>Node8</title>
<polygon fill="#ffffff" stroke="#bfbfbf" points="292.5,-6 292.5,-36 433.5,-36 433.5,-6 292.5,-6"/>
<text text-anchor="start" x="300.5" y="-24" font-family="Helvetica,sans-Serif" font-size="10.00" fill="#000000">tensorflow/compiler</text>
<text text-anchor="middle" x="363" y="-13" font-family="Helvetica,sans-Serif" font-size="10.00" fill="#000000">/xla/service/hlo_instruction.h</text>
</g>
<!-- Node0&#45;&gt;Node8 -->
<g id="edge8" class="edge">
<title>Node0&#45;&gt;Node8</title>
<path fill="none" stroke="#191970" d="M1764.1296,-254.3854C1516.8917,-251.8145 672.9839,-240.0179 560,-198 478.297,-167.6153 409.5627,-85.1577 379.3992,-44.4205"/>
<polygon fill="#191970" stroke="#191970" points="382.1058,-42.1915 373.3925,-36.1641 376.4453,-46.3096 382.1058,-42.1915"/>
</g>
<!-- Node9 -->
<g id="node10" class="node">
<title>Node9</title>
<g id="a_node10"><a xlink:href="../../db/da0/hlo__module_8h.html" target="_top" xlink:title="tensorflow/compiler\l/xla/service/hlo_module.h">
<polygon fill="#ffffff" stroke="#000000" points="1018,-162 1018,-192 1146,-192 1146,-162 1018,-162"/>
<text text-anchor="start" x="1026" y="-180" font-family="Helvetica,sans-Serif" font-size="10.00" fill="#000000">tensorflow/compiler</text>
<text text-anchor="middle" x="1082" y="-169" font-family="Helvetica,sans-Serif" font-size="10.00" fill="#000000">/xla/service/hlo_module.h</text>
</a>
</g>
</g>
<!-- Node0&#45;&gt;Node9 -->
<g id="edge9" class="edge">
<title>Node0&#45;&gt;Node9</title>
<path fill="none" stroke="#191970" d="M1764.4514,-247.9749C1624.1519,-233.3838 1302.142,-199.8948 1156.2538,-184.7224"/>
<polygon fill="#191970" stroke="#191970" points="1156.3675,-181.2154 1146.0591,-183.6621 1155.6434,-188.1779 1156.3675,-181.2154"/>
</g>
<!-- Node23 -->
<g id="node24" class="node">
<title>Node23</title>
<polygon fill="#ffffff" stroke="#bfbfbf" points="1920.5,-6 1920.5,-36 2021.5,-36 2021.5,-6 1920.5,-6"/>
<text text-anchor="start" x="1928.5" y="-24" font-family="Helvetica,sans-Serif" font-size="10.00" fill="#000000">tensorflow/compiler</text>
<text text-anchor="middle" x="1971" y="-13" font-family="Helvetica,sans-Serif" font-size="10.00" fill="#000000">/xla/shape_tree.h</text>
</g>
<!-- Node0&#45;&gt;Node23 -->
<g id="edge56" class="edge">
<title>Node0&#45;&gt;Node23</title>
<path fill="none" stroke="#191970" d="M1834.9428,-234.4955C1841.1579,-193.435 1856.5759,-102.9192 1875,-78 1886.7647,-62.0879 1904.414,-49.8019 1921.3833,-40.7805"/>
<polygon fill="#191970" stroke="#191970" points="1923.3333,-43.7178 1930.699,-36.1022 1920.1918,-37.4623 1923.3333,-43.7178"/>
</g>
<!-- Node24 -->
<g id="node25" class="node">
<title>Node24</title>
<polygon fill="#ffffff" stroke="#bfbfbf" points="2039.5,-6 2039.5,-36 2140.5,-36 2140.5,-6 2039.5,-6"/>
<text text-anchor="start" x="2047.5" y="-24" font-family="Helvetica,sans-Serif" font-size="10.00" fill="#000000">tensorflow/compiler</text>
<text text-anchor="middle" x="2090" y="-13" font-family="Helvetica,sans-Serif" font-size="10.00" fill="#000000">/xla/statusor.h</text>
</g>
<!-- Node0&#45;&gt;Node24 -->
<g id="edge57" class="edge">
<title>Node0&#45;&gt;Node24</title>
<path fill="none" stroke="#191970" d="M1842.4444,-234.2518C1847.7994,-223.4864 1854.3629,-210.0912 1860,-198 1884.636,-145.1571 1869.4254,-116.7372 1913,-78 1953.6615,-41.8525 1978.3149,-58.9896 2030,-42 2032.703,-41.1115 2035.4701,-40.189 2038.261,-39.2483"/>
<polygon fill="#191970" stroke="#191970" points="2039.4466,-42.5419 2047.7828,-36.003 2037.1884,-35.9162 2039.4466,-42.5419"/>
</g>
<!-- Node25 -->
<g id="node26" class="node">
<title>Node25</title>
<polygon fill="#ffffff" stroke="#bfbfbf" points="1686.5,-6 1686.5,-36 1787.5,-36 1787.5,-6 1686.5,-6"/>
<text text-anchor="start" x="1694.5" y="-24" font-family="Helvetica,sans-Serif" font-size="10.00" fill="#000000">tensorflow/compiler</text>
<text text-anchor="middle" x="1737" y="-13" font-family="Helvetica,sans-Serif" font-size="10.00" fill="#000000">/xla/types.h</text>
</g>
<!-- Node0&#45;&gt;Node25 -->
<g id="edge58" class="edge">
<title>Node0&#45;&gt;Node25</title>
<path fill="none" stroke="#191970" d="M1823.5694,-234.2341C1806.0492,-191.079 1765.7758,-91.8794 1746.9896,-45.6059"/>
<polygon fill="#191970" stroke="#191970" points="1750.1197,-44.0112 1743.115,-36.0623 1743.6338,-46.6444 1750.1197,-44.0112"/>
</g>
<!-- Node26 -->
<g id="node27" class="node">
<title>Node26</title>
<polygon fill="#ffffff" stroke="#bfbfbf" points="2158.5,-6 2158.5,-36 2259.5,-36 2259.5,-6 2158.5,-6"/>
<text text-anchor="start" x="2166.5" y="-24" font-family="Helvetica,sans-Serif" font-size="10.00" fill="#000000">tensorflow/compiler</text>
<text text-anchor="middle" x="2209" y="-13" font-family="Helvetica,sans-Serif" font-size="10.00" fill="#000000">/xla/xla_data.pb.h</text>
</g>
<!-- Node0&#45;&gt;Node26 -->
<g id="edge59" class="edge">
<title>Node0&#45;&gt;Node26</title>
<path fill="none" stroke="#191970" d="M1851.802,-234.4454C1861.4413,-223.9528 1872.8861,-210.7404 1882,-198 1917.7938,-147.9631 1900.7299,-113.4656 1951,-78 2024.085,-26.4385 2062.5237,-64.8439 2149,-42 2152.2011,-41.1544 2155.4759,-40.2186 2158.7631,-39.2253"/>
<polygon fill="#191970" stroke="#191970" points="2160.1268,-42.4648 2168.6012,-36.106 2158.011,-35.7921 2160.1268,-42.4648"/>
</g>
<!-- Node27 -->
<g id="node28" class="node">
<title>Node27</title>
<polygon fill="#ffffff" stroke="#bfbfbf" points="2278,-6 2278,-36 2374,-36 2374,-6 2278,-6"/>
<text text-anchor="start" x="2286" y="-24" font-family="Helvetica,sans-Serif" font-size="10.00" fill="#000000">tensorflow/core/lib</text>
<text text-anchor="middle" x="2326" y="-13" font-family="Helvetica,sans-Serif" font-size="10.00" fill="#000000">/core/status.h</text>
</g>
<!-- Node0&#45;&gt;Node27 -->
<g id="edge60" class="edge">
<title>Node0&#45;&gt;Node27</title>
<path fill="none" stroke="#191970" d="M1863.7697,-234.3145C1877.8752,-224.2926 1894.1531,-211.5115 1907,-198 1951.5104,-151.1869 1933.9247,-111.7543 1989,-78 2095.6003,-12.6672 2146.4921,-71.4589 2268,-42 2271.3809,-41.1803 2274.8376,-40.2305 2278.2965,-39.1969"/>
<polygon fill="#191970" stroke="#191970" points="2279.5288,-42.4775 2287.9891,-36.1 2277.3983,-35.8096 2279.5288,-42.4775"/>
</g>
<!-- Node28 -->
<g id="node29" class="node">
<title>Node28</title>
<polygon fill="#ffffff" stroke="#bfbfbf" points="1806,-6 1806,-36 1902,-36 1902,-6 1806,-6"/>
<text text-anchor="start" x="1814" y="-24" font-family="Helvetica,sans-Serif" font-size="10.00" fill="#000000">tensorflow/core/lib</text>
<text text-anchor="middle" x="1854" y="-13" font-family="Helvetica,sans-Serif" font-size="10.00" fill="#000000">/gtl/array_slice.h</text>
</g>
<!-- Node0&#45;&gt;Node28 -->
<g id="edge61" class="edge">
<title>Node0&#45;&gt;Node28</title>
<path fill="none" stroke="#191970" d="M1830.8501,-234.3967C1829.3853,-201.2185 1828.0173,-134.0021 1837,-78 1838.7236,-67.2541 1841.9093,-55.6955 1845.061,-45.8146"/>
<polygon fill="#191970" stroke="#191970" points="1848.4143,-46.8232 1848.2706,-36.2294 1841.7765,-44.6006 1848.4143,-46.8232"/>
</g>
<!-- Node29 -->
<g id="node30" class="node">
<title>Node29</title>
<polygon fill="#ffffff" stroke="#bfbfbf" points="2392,-6 2392,-36 2488,-36 2488,-6 2392,-6"/>
<text text-anchor="start" x="2400" y="-24" font-family="Helvetica,sans-Serif" font-size="10.00" fill="#000000">tensorflow/core/lib</text>
<text text-anchor="middle" x="2440" y="-13" font-family="Helvetica,sans-Serif" font-size="10.00" fill="#000000">/gtl/flatmap.h</text>
</g>
<!-- Node0&#45;&gt;Node29 -->
<g id="edge63" class="edge">
<title>Node0&#45;&gt;Node29</title>
<path fill="none" stroke="#191970" d="M1878.4452,-234.4511C1897.1378,-224.9161 1918.1992,-212.4724 1935,-198 1985.9174,-154.1393 1968.3072,-110.7338 2027,-78 2096.4445,-39.2698 2305.5232,-59.8863 2383,-42 2386.444,-41.2049 2389.9632,-40.2581 2393.4789,-39.2128"/>
<polygon fill="#191970" stroke="#191970" points="2394.8637,-42.4441 2403.3122,-36.0509 2392.7208,-35.7802 2394.8637,-42.4441"/>
</g>
<!-- Node30 -->
<g id="node31" class="node">
<title>Node30</title>
<polygon fill="#ffffff" stroke="#bfbfbf" points="2506,-6 2506,-36 2602,-36 2602,-6 2506,-6"/>
<text text-anchor="start" x="2514" y="-24" font-family="Helvetica,sans-Serif" font-size="10.00" fill="#000000">tensorflow/core/lib</text>
<text text-anchor="middle" x="2554" y="-13" font-family="Helvetica,sans-Serif" font-size="10.00" fill="#000000">/gtl/flatset.h</text>
</g>
<!-- Node0&#45;&gt;Node30 -->
<g id="edge64" class="edge">
<title>Node0&#45;&gt;Node30</title>
<path fill="none" stroke="#191970" d="M1897.3873,-234.4222C1920.3708,-225.3771 1945.5436,-213.2813 1966,-198 1993.6959,-177.3106 2034.3693,-94.0273 2065,-78 2150.3545,-33.3389 2402.9486,-62.8408 2497,-42 2500.6101,-41.2 2504.3006,-40.2253 2507.9817,-39.1386"/>
<polygon fill="#191970" stroke="#191970" points="2509.1867,-42.4278 2517.6423,-36.0439 2507.0512,-35.7615 2509.1867,-42.4278"/>
</g>
<!-- Node31 -->
<g id="node32" class="node">
<title>Node31</title>
<polygon fill="#ffffff" stroke="#bfbfbf" points="2620,-6 2620,-36 2742,-36 2742,-6 2620,-6"/>
<text text-anchor="start" x="2628" y="-24" font-family="Helvetica,sans-Serif" font-size="10.00" fill="#000000">tensorflow/core/platform</text>
<text text-anchor="middle" x="2681" y="-13" font-family="Helvetica,sans-Serif" font-size="10.00" fill="#000000">/macros.h</text>
</g>
<!-- Node0&#45;&gt;Node31 -->
<g id="edge65" class="edge">
<title>Node0&#45;&gt;Node31</title>
<path fill="none" stroke="#191970" d="M1899.8565,-240.0515C1931.1693,-231.0947 1967.7863,-217.5578 1997,-198 2026.5665,-178.2061 2071.1023,-93.7642 2103,-78 2204.4579,-27.8582 2499.6788,-62.3839 2611,-42 2616.0194,-41.0809 2621.1895,-39.9323 2626.3389,-38.6489"/>
<polygon fill="#191970" stroke="#191970" points="2627.4033,-41.9877 2636.171,-36.0398 2625.6078,-35.2218 2627.4033,-41.9877"/>
</g>
<!-- Node32 -->
<g id="node33" class="node">
<title>Node32</title>
<polygon fill="#ffffff" stroke="#bfbfbf" points="2760,-6 2760,-36 2882,-36 2882,-6 2760,-6"/>
<text text-anchor="start" x="2768" y="-24" font-family="Helvetica,sans-Serif" font-size="10.00" fill="#000000">tensorflow/core/platform</text>
<text text-anchor="middle" x="2821" y="-13" font-family="Helvetica,sans-Serif" font-size="10.00" fill="#000000">/types.h</text>
</g>
<!-- Node0&#45;&gt;Node32 -->
<g id="edge66" class="edge">
<title>Node0&#45;&gt;Node32</title>
<path fill="none" stroke="#191970" d="M1899.8629,-237.2153C1938.3248,-226.6998 1987.1733,-212.6106 2030,-198 2077.9603,-181.6381 2087.3028,-170.0172 2136,-156 2403.1429,-79.1046 2480.8054,-107.3688 2751,-42 2755.0927,-41.0098 2759.3007,-39.9235 2763.5253,-38.7825"/>
<polygon fill="#191970" stroke="#191970" points="2764.6727,-42.0962 2773.3665,-36.0406 2762.794,-35.353 2764.6727,-42.0962"/>
</g>
<!-- Node38 -->
<g id="node39" class="node">
<title>Node38</title>
<polygon fill="#ffffff" stroke="#bfbfbf" points="2145.5,-156.5 2145.5,-197.5 2246.5,-197.5 2246.5,-156.5 2145.5,-156.5"/>
<text text-anchor="start" x="2153.5" y="-185.5" font-family="Helvetica,sans-Serif" font-size="10.00" fill="#000000">tensorflow/compiler</text>
<text text-anchor="start" x="2153.5" y="-174.5" font-family="Helvetica,sans-Serif" font-size="10.00" fill="#000000">/xla/service/logical</text>
<text text-anchor="middle" x="2196" y="-163.5" font-family="Helvetica,sans-Serif" font-size="10.00" fill="#000000">_buffer.h</text>
</g>
<!-- Node0&#45;&gt;Node38 -->
<g id="edge54" class="edge">
<title>Node0&#45;&gt;Node38</title>
<path fill="none" stroke="#191970" d="M1899.6212,-244.572C1960.5699,-234.5911 2052.414,-218.1026 2131,-198 2132.472,-197.6234 2133.9596,-197.232 2135.4573,-196.828"/>
<polygon fill="#191970" stroke="#191970" points="2136.7648,-200.0956 2145.4353,-194.0068 2134.8602,-193.3597 2136.7648,-200.0956"/>
</g>
<!-- Node39 -->
<g id="node40" class="node">
<title>Node39</title>
<polygon fill="#ffffff" stroke="#bfbfbf" points="2264.5,-156.5 2264.5,-197.5 2365.5,-197.5 2365.5,-156.5 2264.5,-156.5"/>
<text text-anchor="start" x="2272.5" y="-185.5" font-family="Helvetica,sans-Serif" font-size="10.00" fill="#000000">tensorflow/compiler</text>
<text text-anchor="start" x="2272.5" y="-174.5" font-family="Helvetica,sans-Serif" font-size="10.00" fill="#000000">/xla/service/logical</text>
<text text-anchor="middle" x="2315" y="-163.5" font-family="Helvetica,sans-Serif" font-size="10.00" fill="#000000">_buffer_analysis.h</text>
</g>
<!-- Node0&#45;&gt;Node39 -->
<g id="edge55" class="edge">
<title>Node0&#45;&gt;Node39</title>
<path fill="none" stroke="#191970" d="M1899.8104,-250.1226C1981.9519,-243.2673 2124.4299,-228.3379 2254.7193,-197.8135"/>
<polygon fill="#191970" stroke="#191970" points="2255.5582,-201.2117 2264.4768,-195.4925 2253.9383,-194.4017 2255.5582,-201.2117"/>
</g>
<!-- Node40 -->
<g id="node41" class="node">
<title>Node40</title>
<polygon fill="#ffffff" stroke="#bfbfbf" points="2384,-162 2384,-192 2488,-192 2488,-162 2384,-162"/>
<text text-anchor="start" x="2392" y="-180" font-family="Helvetica,sans-Serif" font-size="10.00" fill="#000000">tensorflow/core/lib</text>
<text text-anchor="middle" x="2436" y="-169" font-family="Helvetica,sans-Serif" font-size="10.00" fill="#000000">/gtl/compactptrset.h</text>
</g>
<!-- Node0&#45;&gt;Node40 -->
<g id="edge62" class="edge">
<title>Node0&#45;&gt;Node40</title>
<path fill="none" stroke="#191970" d="M1899.5159,-252.7033C2002.8084,-248.1155 2205.7884,-234.8533 2374,-198 2377.8854,-197.1487 2381.8674,-196.1377 2385.8468,-195.0265"/>
<polygon fill="#191970" stroke="#191970" points="2387.0959,-198.3063 2395.6769,-192.092 2385.0935,-191.5988 2387.0959,-198.3063"/>
</g>
<!-- Node9&#45;&gt;Node3 -->
<g id="edge12" class="edge">
<title>Node9&#45;&gt;Node3</title>
<path fill="none" stroke="#191970" d="M1017.6818,-174.782C835.0245,-168.1762 321.7632,-147.3784 251,-120 205.0406,-102.2182 162.5573,-61.2971 140.9383,-38.0148"/>
<polygon fill="#191970" stroke="#191970" points="143.5033,-35.6331 134.19,-30.582 138.3206,-40.3384 143.5033,-35.6331"/>
</g>
<!-- Node9&#45;&gt;Node5 -->
<g id="edge14" class="edge">
<title>Node9&#45;&gt;Node5</title>
<path fill="none" stroke="#191970" d="M1017.993,-174.2154C847.1736,-166.4976 389.1273,-143.8253 325,-120 276.524,-101.9896 230.3996,-60.8482 206.9865,-37.6696"/>
<polygon fill="#191970" stroke="#191970" points="209.4688,-35.2021 199.9465,-30.557 204.4937,-40.1264 209.4688,-35.2021"/>
</g>
<!-- Node9&#45;&gt;Node6 -->
<g id="edge16" class="edge">
<title>Node9&#45;&gt;Node6</title>
<path fill="none" stroke="#191970" d="M1017.7528,-175.3275C872.2996,-170.9333 521.7824,-156.7581 410,-120 354.5433,-101.7639 298.8101,-60.0901 270.7117,-37.0509"/>
<polygon fill="#191970" stroke="#191970" points="272.8316,-34.2614 262.9096,-30.5456 268.3488,-39.6377 272.8316,-34.2614"/>
</g>
<!-- Node9&#45;&gt;Node8 -->
<g id="edge45" class="edge">
<title>Node9&#45;&gt;Node8</title>
<path fill="none" stroke="#191970" d="M1017.9837,-176.0629C882.1186,-173.2618 569.4696,-162.2812 473,-120 434.6892,-103.2089 400.618,-67.7351 380.8884,-44.1323"/>
<polygon fill="#191970" stroke="#191970" points="383.5569,-41.8665 374.5244,-36.3288 378.1322,-46.2905 383.5569,-41.8665"/>
</g>
<!-- Node10 -->
<g id="node11" class="node">
<title>Node10</title>
<polygon fill="#ffffff" stroke="#bfbfbf" points="1269,-89.5 1269,-108.5 1315,-108.5 1315,-89.5 1269,-89.5"/>
<text text-anchor="middle" x="1292" y="-96.5" font-family="Helvetica,sans-Serif" font-size="10.00" fill="#000000">atomic</text>
</g>
<!-- Node9&#45;&gt;Node10 -->
<g id="edge10" class="edge">
<title>Node9&#45;&gt;Node10</title>
<path fill="none" stroke="#191970" d="M1136.8056,-161.9731C1171.3569,-151.7635 1216.5499,-137.0443 1255,-120 1259.2161,-118.1311 1263.5765,-115.9246 1267.7601,-113.6564"/>
<polygon fill="#191970" stroke="#191970" points="1269.5354,-116.6734 1276.5116,-108.6995 1266.0854,-110.5826 1269.5354,-116.6734"/>
</g>
<!-- Node11 -->
<g id="node12" class="node">
<title>Node11</title>
<polygon fill="#ffffff" stroke="#bfbfbf" points="740.5,-11.5 740.5,-30.5 769.5,-30.5 769.5,-11.5 740.5,-11.5"/>
<text text-anchor="middle" x="755" y="-18.5" font-family="Helvetica,sans-Serif" font-size="10.00" fill="#000000">list</text>
</g>
<!-- Node9&#45;&gt;Node11 -->
<g id="edge11" class="edge">
<title>Node9&#45;&gt;Node11</title>
<path fill="none" stroke="#191970" d="M1017.7089,-172.2819C911.3519,-163.8179 708.319,-144.6163 687,-120 674.7796,-105.8895 679.0064,-94.8685 687,-78 697.8201,-55.167 711.7119,-58.3214 731,-42 732.717,-40.5471 734.4934,-39.0265 736.2672,-37.4962"/>
<polygon fill="#191970" stroke="#191970" points="738.5914,-40.1133 743.8336,-30.9062 733.994,-34.8347 738.5914,-40.1133"/>
</g>
<!-- Node12 -->
<g id="node13" class="node">
<title>Node12</title>
<polygon fill="#ffffff" stroke="#bfbfbf" points="1371.5,-89.5 1371.5,-108.5 1420.5,-108.5 1420.5,-89.5 1371.5,-89.5"/>
<text text-anchor="middle" x="1396" y="-96.5" font-family="Helvetica,sans-Serif" font-size="10.00" fill="#000000">random</text>
</g>
<!-- Node9&#45;&gt;Node12 -->
<g id="edge13" class="edge">
<title>Node9&#45;&gt;Node12</title>
<path fill="none" stroke="#191970" d="M1146.243,-169.0565C1202.9172,-160.7959 1287.1309,-145.4377 1357,-120 1361.8053,-118.2505 1366.7457,-115.9929 1371.4269,-113.6092"/>
<polygon fill="#191970" stroke="#191970" points="1373.4247,-116.5072 1380.5449,-108.6616 1370.0862,-110.3546 1373.4247,-116.5072"/>
</g>
<!-- Node13 -->
<g id="node14" class="node">
<title>Node13</title>
<polygon fill="#ffffff" stroke="#bfbfbf" points="787.5,-11.5 787.5,-30.5 870.5,-30.5 870.5,-11.5 787.5,-11.5"/>
<text text-anchor="middle" x="829" y="-18.5" font-family="Helvetica,sans-Serif" font-size="10.00" fill="#000000">unordered_map</text>
</g>
<!-- Node9&#45;&gt;Node13 -->
<g id="edge15" class="edge">
<title>Node9&#45;&gt;Node13</title>
<path fill="none" stroke="#191970" d="M1146.2088,-167.2687C1174.4114,-159.4527 1204.9378,-145.369 1222,-120 1232.4175,-104.5107 1234.4915,-91.8711 1222,-78 1170.7131,-21.0485 953.2374,-61.043 879,-42 871.8922,-40.1768 864.478,-37.5173 857.6027,-34.6997"/>
<polygon fill="#191970" stroke="#191970" points="858.5804,-31.3086 848.0137,-30.5375 855.7932,-37.7298 858.5804,-31.3086"/>
</g>
<!-- Node14 -->
<g id="node15" class="node">
<title>Node14</title>
<polygon fill="#ffffff" stroke="#bfbfbf" points="888.5,-6 888.5,-36 989.5,-36 989.5,-6 888.5,-6"/>
<text text-anchor="start" x="896.5" y="-24" font-family="Helvetica,sans-Serif" font-size="10.00" fill="#000000">tensorflow/compiler</text>
<text text-anchor="middle" x="939" y="-13" font-family="Helvetica,sans-Serif" font-size="10.00" fill="#000000">/xla/iterator_util.h</text>
</g>
<!-- Node9&#45;&gt;Node14 -->
<g id="edge17" class="edge">
<title>Node9&#45;&gt;Node14</title>
<path fill="none" stroke="#191970" d="M1146.2547,-172.2488C1235.1389,-163.356 1378.8062,-139.2122 1324,-78 1275.5297,-23.8642 1069.8567,-58.1053 999,-42 995.341,-41.1683 991.5956,-40.1871 987.8512,-39.1108"/>
<polygon fill="#191970" stroke="#191970" points="988.5895,-35.676 978.0023,-36.077 986.5288,-42.3658 988.5895,-35.676"/>
</g>
<!-- Node15 -->
<g id="node16" class="node">
<title>Node15</title>
<polygon fill="#ffffff" stroke="#bfbfbf" points="1008,-6 1008,-36 1112,-36 1112,-6 1008,-6"/>
<text text-anchor="start" x="1016" y="-24" font-family="Helvetica,sans-Serif" font-size="10.00" fill="#000000">tensorflow/compiler</text>
<text text-anchor="middle" x="1060" y="-13" font-family="Helvetica,sans-Serif" font-size="10.00" fill="#000000">/xla/service/hlo.pb.h</text>
</g>
<!-- Node9&#45;&gt;Node15 -->
<g id="edge18" class="edge">
<title>Node9&#45;&gt;Node15</title>
<path fill="none" stroke="#191970" d="M1146.1459,-170.9323C1241.372,-161.2693 1410.9215,-141.2905 1429,-120 1441.0823,-105.7711 1441.4095,-91.9445 1429,-78 1383.1887,-26.5222 1188.1895,-57.3041 1121,-42 1117.1778,-41.1294 1113.2605,-40.1043 1109.3456,-38.9833"/>
<polygon fill="#191970" stroke="#191970" points="1110.2607,-35.6032 1099.6745,-36.0323 1108.2177,-42.2985 1110.2607,-35.6032"/>
</g>
<!-- Node16 -->
<g id="node17" class="node">
<title>Node16</title>
<g id="a_node17"><a xlink:href="../../d2/d31/hlo__computation_8h.html" target="_top" xlink:title="tensorflow/compiler\l/xla/service/hlo_computation.h">
<polygon fill="#ffffff" stroke="#000000" points="1476.5,-84 1476.5,-114 1625.5,-114 1625.5,-84 1476.5,-84"/>
<text text-anchor="start" x="1484.5" y="-102" font-family="Helvetica,sans-Serif" font-size="10.00" fill="#000000">tensorflow/compiler</text>
<text text-anchor="middle" x="1551" y="-91" font-family="Helvetica,sans-Serif" font-size="10.00" fill="#000000">/xla/service/hlo_computation.h</text>
</a>
</g>
</g>
<!-- Node9&#45;&gt;Node16 -->
<g id="edge19" class="edge">
<title>Node9&#45;&gt;Node16</title>
<path fill="none" stroke="#191970" d="M1146.328,-169.0879C1222.307,-159.348 1352.3614,-141.4364 1463,-120 1468.8283,-118.8708 1474.8538,-117.6172 1480.8913,-116.3006"/>
<polygon fill="#191970" stroke="#191970" points="1482.0339,-119.6318 1491.0306,-114.0363 1480.5082,-112.8001 1482.0339,-119.6318"/>
</g>
<!-- Node22 -->
<g id="node23" class="node">
<title>Node22</title>
<polygon fill="#ffffff" stroke="#bfbfbf" points="584,-6 584,-36 722,-36 722,-6 584,-6"/>
<text text-anchor="start" x="592" y="-24" font-family="Helvetica,sans-Serif" font-size="10.00" fill="#000000">tensorflow/compiler</text>
<text text-anchor="middle" x="653" y="-13" font-family="Helvetica,sans-Serif" font-size="10.00" fill="#000000">/xla/service/name_uniquer.h</text>
</g>
<!-- Node9&#45;&gt;Node22 -->
<g id="edge47" class="edge">
<title>Node9&#45;&gt;Node22</title>
<path fill="none" stroke="#191970" d="M1017.7976,-171.9598C909.7282,-162.8979 700.7801,-142.672 676,-120 655.862,-101.5751 651.663,-69.2702 651.4935,-46.5864"/>
<polygon fill="#191970" stroke="#191970" points="654.9976,-46.3891 651.6818,-36.3266 647.9988,-46.2606 654.9976,-46.3891"/>
</g>
<!-- Node9&#45;&gt;Node25 -->
<g id="edge49" class="edge">
<title>Node9&#45;&gt;Node25</title>
<path fill="none" stroke="#191970" d="M1146.087,-175.579C1272.4032,-171.9381 1548.6748,-159.5715 1634,-120 1670.4722,-103.0852 1702.0518,-67.9 1720.3124,-44.3626"/>
<polygon fill="#191970" stroke="#191970" points="1723.1879,-46.3626 1726.4217,-36.2734 1717.602,-42.1439 1723.1879,-46.3626"/>
</g>
<!-- Node9&#45;&gt;Node28 -->
<g id="edge50" class="edge">
<title>Node9&#45;&gt;Node28</title>
<path fill="none" stroke="#191970" d="M1146.0784,-174.1676C1278.5734,-167.7713 1578.4383,-150.3527 1676,-120 1732.5655,-102.4017 1791.3261,-65.4393 1825.1843,-41.9935"/>
<polygon fill="#191970" stroke="#191970" points="1827.4706,-44.6649 1833.6453,-36.0553 1823.4493,-38.9352 1827.4706,-44.6649"/>
</g>
<!-- Node33 -->
<g id="node34" class="node">
<title>Node33</title>
<polygon fill="#ffffff" stroke="#bfbfbf" points="482.5,-78.5 482.5,-119.5 601.5,-119.5 601.5,-78.5 482.5,-78.5"/>
<text text-anchor="start" x="490.5" y="-107.5" font-family="Helvetica,sans-Serif" font-size="10.00" fill="#000000">tensorflow/compiler</text>
<text text-anchor="start" x="490.5" y="-96.5" font-family="Helvetica,sans-Serif" font-size="10.00" fill="#000000">/xla/service/hlo_module</text>
<text text-anchor="middle" x="542" y="-85.5" font-family="Helvetica,sans-Serif" font-size="10.00" fill="#000000">_config.h</text>
</g>
<!-- Node9&#45;&gt;Node33 -->
<g id="edge46" class="edge">
<title>Node9&#45;&gt;Node33</title>
<path fill="none" stroke="#191970" d="M1017.8059,-172.3112C927.4769,-164.9984 758.014,-148.6566 616,-120 614.5273,-119.7028 613.0411,-119.3912 611.5455,-119.067"/>
<polygon fill="#191970" stroke="#191970" points="612.1115,-115.6056 601.5802,-116.764 610.5353,-122.4259 612.1115,-115.6056"/>
</g>
<!-- Node34 -->
<g id="node35" class="node">
<title>Node34</title>
<polygon fill="#ffffff" stroke="#bfbfbf" points="696.5,-78.5 696.5,-119.5 813.5,-119.5 813.5,-78.5 696.5,-78.5"/>
<text text-anchor="start" x="704.5" y="-107.5" font-family="Helvetica,sans-Serif" font-size="10.00" fill="#000000">tensorflow/compiler</text>
<text text-anchor="start" x="704.5" y="-96.5" font-family="Helvetica,sans-Serif" font-size="10.00" fill="#000000">/xla/service/versioned</text>
<text text-anchor="middle" x="755" y="-85.5" font-family="Helvetica,sans-Serif" font-size="10.00" fill="#000000">_computation_handle.h</text>
</g>
<!-- Node9&#45;&gt;Node34 -->
<g id="edge48" class="edge">
<title>Node9&#45;&gt;Node34</title>
<path fill="none" stroke="#191970" d="M1017.7801,-164.559C967.302,-154.4062 895.0536,-139.0529 823.7879,-120.3877"/>
<polygon fill="#191970" stroke="#191970" points="824.3033,-116.9038 813.7409,-117.7322 822.5145,-123.6714 824.3033,-116.9038"/>
</g>
<!-- Node35 -->
<g id="node36" class="node">
<title>Node35</title>
<polygon fill="#ffffff" stroke="#bfbfbf" points="831.5,-84 831.5,-114 932.5,-114 932.5,-84 831.5,-84"/>
<text text-anchor="start" x="839.5" y="-102" font-family="Helvetica,sans-Serif" font-size="10.00" fill="#000000">tensorflow/core/lib</text>
<text text-anchor="middle" x="882" y="-91" font-family="Helvetica,sans-Serif" font-size="10.00" fill="#000000">/gtl/iterator_range.h</text>
</g>
<!-- Node9&#45;&gt;Node35 -->
<g id="edge51" class="edge">
<title>Node9&#45;&gt;Node35</title>
<path fill="none" stroke="#191970" d="M1043.438,-161.9608C1011.1698,-149.3762 964.967,-131.3571 930.2504,-117.8177"/>
<polygon fill="#191970" stroke="#191970" points="931.3726,-114.4986 920.7843,-114.1259 928.8291,-121.0202 931.3726,-114.4986"/>
</g>
<!-- Node36 -->
<g id="node37" class="node">
<title>Node36</title>
<polygon fill="#ffffff" stroke="#bfbfbf" points="951,-84 951,-114 1073,-114 1073,-84 951,-84"/>
<text text-anchor="start" x="959" y="-102" font-family="Helvetica,sans-Serif" font-size="10.00" fill="#000000">tensorflow/core/platform</text>
<text text-anchor="middle" x="1012" y="-91" font-family="Helvetica,sans-Serif" font-size="10.00" fill="#000000">/logging.h</text>
</g>
<!-- Node9&#45;&gt;Node36 -->
<g id="edge52" class="edge">
<title>Node9&#45;&gt;Node36</title>
<path fill="none" stroke="#191970" d="M1068.5033,-161.9608C1058.3041,-150.5961 1044.1275,-134.7992 1032.5262,-121.8721"/>
<polygon fill="#191970" stroke="#191970" points="1034.9781,-119.3639 1025.6941,-114.2592 1029.7684,-124.0393 1034.9781,-119.3639"/>
</g>
<!-- Node37 -->
<g id="node38" class="node">
<title>Node37</title>
<polygon fill="#ffffff" stroke="#bfbfbf" points="1091,-84 1091,-114 1213,-114 1213,-84 1091,-84"/>
<text text-anchor="start" x="1099" y="-102" font-family="Helvetica,sans-Serif" font-size="10.00" fill="#000000">tensorflow/core/platform</text>
<text text-anchor="middle" x="1152" y="-91" font-family="Helvetica,sans-Serif" font-size="10.00" fill="#000000">/mutex.h</text>
</g>
<!-- Node9&#45;&gt;Node37 -->
<g id="edge53" class="edge">
<title>Node9&#45;&gt;Node37</title>
<path fill="none" stroke="#191970" d="M1095.4967,-161.9608C1105.6959,-150.5961 1119.8725,-134.7992 1131.4738,-121.8721"/>
<polygon fill="#191970" stroke="#191970" points="1134.2316,-124.0393 1138.3059,-114.2592 1129.0219,-119.3639 1134.2316,-124.0393"/>
</g>
<!-- Node16&#45;&gt;Node3 -->
<g id="edge21" class="edge">
<title>Node16&#45;&gt;Node3</title>
<path fill="none" stroke="#191970" d="M1476.3865,-84.4294C1460.7848,-81.8691 1444.3979,-79.536 1429,-78 1288.7504,-64.01 296.2838,-81.547 161,-42 156.3601,-40.6436 151.7076,-38.5189 147.3788,-36.1317"/>
<polygon fill="#191970" stroke="#191970" points="148.898,-32.9563 138.5499,-30.6827 145.2215,-38.9132 148.898,-32.9563"/>
</g>
<!-- Node16&#45;&gt;Node5 -->
<g id="edge22" class="edge">
<title>Node16&#45;&gt;Node5</title>
<path fill="none" stroke="#191970" d="M1476.3848,-84.4462C1460.7832,-81.8847 1444.3968,-79.5468 1429,-78 1295.3907,-64.5773 348.4541,-84.2736 221,-42 217.106,-40.7084 213.2689,-38.7336 209.7074,-36.5021"/>
<polygon fill="#191970" stroke="#191970" points="211.7176,-33.6368 201.5468,-30.6691 207.647,-39.3316 211.7176,-33.6368"/>
</g>
<!-- Node16&#45;&gt;Node6 -->
<g id="edge26" class="edge">
<title>Node16&#45;&gt;Node6</title>
<path fill="none" stroke="#191970" d="M1476.3829,-84.4655C1460.7815,-81.9025 1444.3955,-79.5592 1429,-78 1302.2522,-65.1635 404.1905,-81.2764 283,-42 279.0094,-40.7067 275.0609,-38.731 271.3868,-36.4992"/>
<polygon fill="#191970" stroke="#191970" points="273.1672,-33.4751 262.9514,-30.6663 269.1859,-39.2327 273.1672,-33.4751"/>
</g>
<!-- Node16&#45;&gt;Node7 -->
<g id="edge30" class="edge">
<title>Node16&#45;&gt;Node7</title>
<path fill="none" stroke="#191970" d="M1476.3696,-84.5934C1460.7691,-82.0211 1444.3869,-79.6417 1429,-78 1054.5715,-38.0495 950.9015,-106.9461 576.0401,-41.9207"/>
<polygon fill="#191970" stroke="#191970" points="576.4586,-38.4407 566.004,-40.1592 575.2484,-45.3353 576.4586,-38.4407"/>
</g>
<!-- Node16&#45;&gt;Node8 -->
<g id="edge32" class="edge">
<title>Node16&#45;&gt;Node8</title>
<path fill="none" stroke="#191970" d="M1476.3766,-84.5262C1460.7757,-81.9588 1444.3915,-79.5984 1429,-78 992.8314,-32.7044 876.8104,-106.0569 443,-42 436.6608,-41.064 430.1008,-39.8161 423.5896,-38.3937"/>
<polygon fill="#191970" stroke="#191970" points="423.9692,-34.8887 413.4365,-36.0343 422.3847,-41.707 423.9692,-34.8887"/>
</g>
<!-- Node16&#45;&gt;Node11 -->
<g id="edge20" class="edge">
<title>Node16&#45;&gt;Node11</title>
<path fill="none" stroke="#191970" d="M1476.3524,-84.7497C1460.7532,-82.1661 1444.3758,-79.7426 1429,-78 1285.0339,-61.6838 911.5849,-98.1027 778,-42 775.47,-40.9374 773.0392,-39.4709 770.7677,-37.8022"/>
<polygon fill="#191970" stroke="#191970" points="772.7127,-34.8465 762.9239,-30.7932 768.0485,-40.0662 772.7127,-34.8465"/>
</g>
<!-- Node16&#45;&gt;Node13 -->
<g id="edge23" class="edge">
<title>Node16&#45;&gt;Node13</title>
<path fill="none" stroke="#191970" d="M1476.3384,-84.8702C1460.7402,-82.2779 1444.3668,-79.8204 1429,-78 1185.7334,-49.1825 1117.4329,-98.2035 879,-42 871.5657,-40.2476 863.8221,-37.497 856.7118,-34.5568"/>
<polygon fill="#191970" stroke="#191970" points="858.06,-31.3262 847.4969,-30.5059 855.2429,-37.7344 858.06,-31.3262"/>
</g>
<!-- Node16&#45;&gt;Node14 -->
<g id="edge27" class="edge">
<title>Node16&#45;&gt;Node14</title>
<path fill="none" stroke="#191970" d="M1476.3118,-85.0864C1460.7155,-82.4784 1444.3497,-79.9599 1429,-78 1238.7647,-53.7106 1186.5625,-81.9972 999,-42 995.1042,-41.1692 991.1142,-40.1553 987.1341,-39.0263"/>
<polygon fill="#191970" stroke="#191970" points="987.9066,-35.6025 977.32,-36.0219 985.8574,-42.2959 987.9066,-35.6025"/>
</g>
<!-- Node16&#45;&gt;Node15 -->
<g id="edge31" class="edge">
<title>Node16&#45;&gt;Node15</title>
<path fill="none" stroke="#191970" d="M1492.5214,-83.9299C1482.7094,-81.7225 1472.5985,-79.6434 1463,-78 1312.3522,-52.2076 1270.2152,-75.088 1121,-42 1117.1729,-41.1513 1113.252,-40.1422 1109.3346,-39.0323"/>
<polygon fill="#191970" stroke="#191970" points="1110.2446,-35.651 1099.6593,-36.1 1108.2143,-42.3501 1110.2446,-35.651"/>
</g>
<!-- Node17 -->
<g id="node18" class="node">
<title>Node17</title>
<polygon fill="#ffffff" stroke="#bfbfbf" points="1294,-11.5 1294,-30.5 1372,-30.5 1372,-11.5 1294,-11.5"/>
<text text-anchor="middle" x="1333" y="-18.5" font-family="Helvetica,sans-Serif" font-size="10.00" fill="#000000">unordered_set</text>
</g>
<!-- Node16&#45;&gt;Node17 -->
<g id="edge24" class="edge">
<title>Node16&#45;&gt;Node17</title>
<path fill="none" stroke="#191970" d="M1502.2288,-83.918C1468.0216,-73.0314 1421.3726,-57.5645 1381,-42 1375.2367,-39.7781 1369.1536,-37.2574 1363.3258,-34.7527"/>
<polygon fill="#191970" stroke="#191970" points="1364.4249,-31.4132 1353.8606,-30.6082 1361.6171,-37.8254 1364.4249,-31.4132"/>
</g>
<!-- Node18 -->
<g id="node19" class="node">
<title>Node18</title>
<polygon fill="#ffffff" stroke="#bfbfbf" points="1390,-11.5 1390,-30.5 1430,-30.5 1430,-11.5 1390,-11.5"/>
<text text-anchor="middle" x="1410" y="-18.5" font-family="Helvetica,sans-Serif" font-size="10.00" fill="#000000">utility</text>
</g>
<!-- Node16&#45;&gt;Node18 -->
<g id="edge25" class="edge">
<title>Node16&#45;&gt;Node18</title>
<path fill="none" stroke="#191970" d="M1517.9223,-83.8435C1495.2269,-73.0419 1464.6878,-57.7053 1439,-42 1436.277,-40.3352 1433.4797,-38.4934 1430.7475,-36.6127"/>
<polygon fill="#191970" stroke="#191970" points="1432.5788,-33.6192 1422.4113,-30.6403 1428.502,-39.3095 1432.5788,-33.6192"/>
</g>
<!-- Node19 -->
<g id="node20" class="node">
<title>Node19</title>
<polygon fill="#ffffff" stroke="#bfbfbf" points="1448.5,-6 1448.5,-36 1549.5,-36 1549.5,-6 1448.5,-6"/>
<text text-anchor="start" x="1456.5" y="-24" font-family="Helvetica,sans-Serif" font-size="10.00" fill="#000000">tensorflow/compiler</text>
<text text-anchor="middle" x="1499" y="-13" font-family="Helvetica,sans-Serif" font-size="10.00" fill="#000000">/xla/map_util.h</text>
</g>
<!-- Node16&#45;&gt;Node19 -->
<g id="edge28" class="edge">
<title>Node16&#45;&gt;Node19</title>
<path fill="none" stroke="#191970" d="M1540.9739,-83.9608C1533.5403,-72.8105 1523.2625,-57.3938 1514.7379,-44.6068"/>
<polygon fill="#191970" stroke="#191970" points="1517.632,-42.6382 1509.1728,-36.2592 1511.8076,-46.5211 1517.632,-42.6382"/>
</g>
<!-- Node20 -->
<g id="node21" class="node">
<title>Node20</title>
<polygon fill="#ffffff" stroke="#bfbfbf" points="1567.5,-.5 1567.5,-41.5 1668.5,-41.5 1668.5,-.5 1567.5,-.5"/>
<text text-anchor="start" x="1575.5" y="-29.5" font-family="Helvetica,sans-Serif" font-size="10.00" fill="#000000">tensorflow/compiler</text>
<text text-anchor="start" x="1575.5" y="-18.5" font-family="Helvetica,sans-Serif" font-size="10.00" fill="#000000">/xla/service/dfs_hlo</text>
<text text-anchor="middle" x="1618" y="-7.5" font-family="Helvetica,sans-Serif" font-size="10.00" fill="#000000">_visitor.h</text>
</g>
<!-- Node16&#45;&gt;Node20 -->
<g id="edge29" class="edge">
<title>Node16&#45;&gt;Node20</title>
<path fill="none" stroke="#191970" d="M1563.9183,-83.9608C1572.3221,-74.1773 1583.5472,-61.1092 1593.5923,-49.4149"/>
<polygon fill="#191970" stroke="#191970" points="1596.4479,-51.4619 1600.3089,-41.5956 1591.1379,-46.9007 1596.4479,-51.4619"/>
</g>
<!-- Node21 -->
<g id="node22" class="node">
<title>Node21</title>
<polygon fill="#ffffff" stroke="#bfbfbf" points="1130.5,-6 1130.5,-36 1275.5,-36 1275.5,-6 1130.5,-6"/>
<text text-anchor="start" x="1138.5" y="-24" font-family="Helvetica,sans-Serif" font-size="10.00" fill="#000000">tensorflow/compiler</text>
<text text-anchor="middle" x="1203" y="-13" font-family="Helvetica,sans-Serif" font-size="10.00" fill="#000000">/xla/service/hlo_reachability.h</text>
</g>
<!-- Node16&#45;&gt;Node21 -->
<g id="edge33" class="edge">
<title>Node16&#45;&gt;Node21</title>
<path fill="none" stroke="#191970" d="M1489.0425,-83.9297C1480.3095,-81.8887 1471.4363,-79.8591 1463,-78 1384.1784,-60.6299 1363.676,-60.018 1285,-42 1280.1117,-40.8805 1275.0696,-39.6863 1270.0015,-38.4572"/>
<polygon fill="#191970" stroke="#191970" points="1270.8033,-35.0502 1260.2568,-36.0611 1269.1318,-41.8477 1270.8033,-35.0502"/>
</g>
<!-- Node16&#45;&gt;Node22 -->
<g id="edge34" class="edge">
<title>Node16&#45;&gt;Node22</title>
<path fill="none" stroke="#191970" d="M1476.3573,-84.7055C1460.7578,-82.1251 1444.379,-79.714 1429,-78 1120.277,-43.5917 1037.8012,-90.6501 731,-42 724.91,-41.0343 718.611,-39.7808 712.3544,-38.3669"/>
<polygon fill="#191970" stroke="#191970" points="713.1338,-34.9547 702.5938,-36.0314 711.5048,-41.7625 713.1338,-34.9547"/>
</g>
<!-- Node16&#45;&gt;Node23 -->
<g id="edge35" class="edge">
<title>Node16&#45;&gt;Node23</title>
<path fill="none" stroke="#191970" d="M1625.5595,-91.1586C1698.9175,-82.5181 1813.7438,-66.5077 1911,-42 1914.4212,-41.1379 1917.9236,-40.1636 1921.4336,-39.1186"/>
<polygon fill="#191970" stroke="#191970" points="1922.7949,-42.3596 1931.2844,-36.0208 1920.6949,-35.682 1922.7949,-42.3596"/>
</g>
<!-- Node16&#45;&gt;Node24 -->
<g id="edge36" class="edge">
<title>Node16&#45;&gt;Node24</title>
<path fill="none" stroke="#191970" d="M1625.7176,-95.1653C1720.7029,-89.1408 1889.2616,-74.5906 2030,-42 2033.6556,-41.1535 2037.3985,-40.1614 2041.1411,-39.0773"/>
<polygon fill="#191970" stroke="#191970" points="2042.469,-42.3302 2050.9869,-36.0298 2040.3991,-35.6432 2042.469,-42.3302"/>
</g>
<!-- Node16&#45;&gt;Node25 -->
<g id="edge37" class="edge">
<title>Node16&#45;&gt;Node25</title>
<path fill="none" stroke="#191970" d="M1586.8627,-83.9608C1616.6156,-71.4838 1659.1072,-53.6647 1691.2969,-40.1658"/>
<polygon fill="#191970" stroke="#191970" points="1693.0622,-43.2209 1700.9306,-36.1259 1690.3551,-36.7655 1693.0622,-43.2209"/>
</g>
<!-- Node16&#45;&gt;Node26 -->
<g id="edge38" class="edge">
<title>Node16&#45;&gt;Node26</title>
<path fill="none" stroke="#191970" d="M1625.5641,-94.1508C1762.9785,-84.8398 2051.0776,-63.4713 2149,-42 2152.832,-41.1598 2156.7567,-40.148 2160.6744,-39.0285"/>
<polygon fill="#191970" stroke="#191970" points="2161.8095,-42.3413 2170.3417,-36.0602 2159.7548,-35.6496 2161.8095,-42.3413"/>
</g>
<!-- Node16&#45;&gt;Node27 -->
<g id="edge39" class="edge">
<title>Node16&#45;&gt;Node27</title>
<path fill="none" stroke="#191970" d="M1625.5316,-95.608C1783.4234,-88.0088 2147.0274,-68.2094 2268,-42 2271.6698,-41.2049 2275.4223,-40.2337 2279.1661,-39.1495"/>
<polygon fill="#191970" stroke="#191970" points="2280.5035,-42.398 2288.9928,-36.0591 2278.4034,-35.7204 2280.5035,-42.398"/>
</g>
<!-- Node16&#45;&gt;Node28 -->
<g id="edge40" class="edge">
<title>Node16&#45;&gt;Node28</title>
<path fill="none" stroke="#191970" d="M1625.5758,-84.058C1674.4314,-73.6801 1739.4725,-58.7446 1796,-42 1798.7916,-41.1731 1801.6445,-40.2849 1804.5141,-39.3579"/>
<polygon fill="#191970" stroke="#191970" points="1805.9006,-42.5846 1814.2703,-36.0886 1803.6764,-35.9473 1805.9006,-42.5846"/>
</g>
<!-- Node16&#45;&gt;Node29 -->
<g id="edge41" class="edge">
<title>Node16&#45;&gt;Node29</title>
<path fill="none" stroke="#191970" d="M1625.8195,-95.0924C1816.3793,-84.967 2310.1299,-57.5848 2383,-42 2386.6707,-41.2149 2390.4226,-40.2422 2394.1621,-39.1492"/>
<polygon fill="#191970" stroke="#191970" points="2395.5044,-42.3949 2403.9677,-36.0212 2393.377,-35.726 2395.5044,-42.3949"/>
</g>
<!-- Node16&#45;&gt;Node30 -->
<g id="edge42" class="edge">
<title>Node16&#45;&gt;Node30</title>
<path fill="none" stroke="#191970" d="M1625.6939,-95.7579C1834.1956,-86.5307 2412.7583,-59.655 2497,-42 2500.6739,-41.23 2504.4281,-40.2682 2508.1692,-39.1828"/>
<polygon fill="#191970" stroke="#191970" points="2509.5061,-42.4305 2517.9775,-36.0677 2507.3872,-35.7589 2509.5061,-42.4305"/>
</g>
<!-- Node16&#45;&gt;Node31 -->
<g id="edge43" class="edge">
<title>Node16&#45;&gt;Node31</title>
<path fill="none" stroke="#191970" d="M1625.6487,-96.0139C1850.9843,-86.8562 2514.7755,-58.7742 2611,-42 2616.1033,-41.1104 2621.3592,-39.9704 2626.5894,-38.6825"/>
<polygon fill="#191970" stroke="#191970" points="2627.7918,-41.9851 2636.5685,-36.0505 2626.0065,-35.2166 2627.7918,-41.9851"/>
</g>
<!-- Node16&#45;&gt;Node32 -->
<g id="edge44" class="edge">
<title>Node16&#45;&gt;Node32</title>
<path fill="none" stroke="#191970" d="M1625.6699,-95.9557C1879.3573,-85.547 2695.4932,-51.4973 2751,-42 2756.106,-41.1264 2761.3639,-39.9972 2766.5952,-38.7163"/>
<polygon fill="#191970" stroke="#191970" points="2767.7939,-42.0202 2776.5759,-36.0933 2766.0146,-35.2501 2767.7939,-42.0202"/>
</g>
</g>
</svg>
