<?xml version="1.0" encoding="UTF-8" standalone="no"?>
<!DOCTYPE svg PUBLIC "-//W3C//DTD SVG 1.1//EN"
 "http://www.w3.org/Graphics/SVG/1.1/DTD/svg11.dtd">
<!-- Generated by graphviz version 2.40.1 (20161225.0304)
 -->
<!-- Title: xla::ComputationBuilder::RunOpAndParseResponse Pages: 1 -->
<svg width="619pt" height="110pt"
 viewBox="0.00 0.00 619.00 110.00" xmlns="http://www.w3.org/2000/svg" xmlns:xlink="http://www.w3.org/1999/xlink">
<g id="graph0" class="graph" transform="scale(1 1) rotate(0) translate(4 106)">
<title>xla::ComputationBuilder::RunOpAndParseResponse</title>
<polygon fill="#ffffff" stroke="transparent" points="-4,4 -4,-106 615,-106 615,4 -4,4"/>
<!-- Node1430 -->
<g id="node1" class="node">
<title>Node1430</title>
<polygon fill="#bfbfbf" stroke="#000000" points="0,-.5 0,-30.5 140,-30.5 140,-.5 0,-.5"/>
<text text-anchor="start" x="8" y="-18.5" font-family="Helvetica,sans-Serif" font-size="10.00" fill="#000000">xla::ComputationBuilder</text>
<text text-anchor="middle" x="70" y="-7.5" font-family="Helvetica,sans-Serif" font-size="10.00" fill="#000000">::RunOpAndParseResponse</text>
</g>
<!-- Node1431 -->
<g id="node2" class="node">
<title>Node1431</title>
<g id="a_node2"><a xlink:href="../../df/d1b/classxla_1_1ComputationBuilder.html#a7d2ff8c5c638378bb6fb998a71661d22" target="_top" xlink:title="Run the given parameter op_request and fill in op_response. ">
<polygon fill="#ffffff" stroke="#000000" points="176,-22.5 176,-52.5 297,-52.5 297,-22.5 176,-22.5"/>
<text text-anchor="start" x="184" y="-40.5" font-family="Helvetica,sans-Serif" font-size="10.00" fill="#000000">xla::ComputationBuilder</text>
<text text-anchor="middle" x="236.5" y="-29.5" font-family="Helvetica,sans-Serif" font-size="10.00" fill="#000000">::RunOp</text>
</a>
</g>
</g>
<!-- Node1430&#45;&gt;Node1431 -->
<g id="edge1" class="edge">
<title>Node1430&#45;&gt;Node1431</title>
<path fill="none" stroke="#191970" d="M140.1284,-24.7662C148.6881,-25.8972 157.4375,-27.0533 166.0026,-28.185"/>
<polygon fill="#191970" stroke="#191970" points="165.5776,-31.6592 175.95,-29.4994 166.4947,-24.7195 165.5776,-31.6592"/>
</g>
<!-- Node1433 -->
<g id="node4" class="node">
<title>Node1433</title>
<g id="a_node4"><a xlink:href="../../df/d1b/classxla_1_1ComputationBuilder.html#a787b5fd4e96b9c918b7d0d73704f0d57" target="_top" xlink:title="xla::ComputationBuilder\l::NoteError">
<polygon fill="#ffffff" stroke="#000000" points="490,-24.5 490,-54.5 611,-54.5 611,-24.5 490,-24.5"/>
<text text-anchor="start" x="498" y="-42.5" font-family="Helvetica,sans-Serif" font-size="10.00" fill="#000000">xla::ComputationBuilder</text>
<text text-anchor="middle" x="550.5" y="-31.5" font-family="Helvetica,sans-Serif" font-size="10.00" fill="#000000">::NoteError</text>
</a>
</g>
</g>
<!-- Node1430&#45;&gt;Node1433 -->
<g id="edge5" class="edge">
<title>Node1430&#45;&gt;Node1433</title>
<path fill="none" stroke="#191970" d="M140.1081,-8.9352C217.3874,-3.0946 345.1836,2.4362 454,-12.5 468.0077,-14.4227 482.8475,-17.8459 496.5791,-21.6231"/>
<polygon fill="#191970" stroke="#191970" points="495.7773,-25.0341 506.3543,-24.4197 497.7027,-18.3041 495.7773,-25.0341"/>
</g>
<!-- Node1432 -->
<g id="node3" class="node">
<title>Node1432</title>
<g id="a_node3"><a xlink:href="../../df/d1b/classxla_1_1ComputationBuilder.html#af5ca3f8bbbe525f593293b55df772f1a" target="_top" xlink:title="Populates computation_ with a valid object. Used before any given operation is enqueued. ">
<polygon fill="#ffffff" stroke="#000000" points="333,-71.5 333,-101.5 454,-101.5 454,-71.5 333,-71.5"/>
<text text-anchor="start" x="341" y="-89.5" font-family="Helvetica,sans-Serif" font-size="10.00" fill="#000000">xla::ComputationBuilder</text>
<text text-anchor="middle" x="393.5" y="-78.5" font-family="Helvetica,sans-Serif" font-size="10.00" fill="#000000">::PrepareComputation</text>
</a>
</g>
</g>
<!-- Node1431&#45;&gt;Node1432 -->
<g id="edge2" class="edge">
<title>Node1431&#45;&gt;Node1432</title>
<path fill="none" stroke="#191970" d="M284.8862,-52.6014C300.9287,-57.6083 318.9488,-63.2324 335.631,-68.439"/>
<polygon fill="#191970" stroke="#191970" points="334.6849,-71.8101 345.2735,-71.4484 336.7704,-65.128 334.6849,-71.8101"/>
</g>
<!-- Node1434 -->
<g id="node5" class="node">
<title>Node1434</title>
<g id="a_node5"><a xlink:href="../../df/d1b/classxla_1_1ComputationBuilder.html#a2def8246d1c1829a85e095a84e364bca" target="_top" xlink:title="xla::ComputationBuilder\l::name">
<polygon fill="#ffffff" stroke="#000000" points="333,-22.5 333,-52.5 454,-52.5 454,-22.5 333,-22.5"/>
<text text-anchor="start" x="341" y="-40.5" font-family="Helvetica,sans-Serif" font-size="10.00" fill="#000000">xla::ComputationBuilder</text>
<text text-anchor="middle" x="393.5" y="-29.5" font-family="Helvetica,sans-Serif" font-size="10.00" fill="#000000">::name</text>
</a>
</g>
</g>
<!-- Node1431&#45;&gt;Node1434 -->
<g id="edge4" class="edge">
<title>Node1431&#45;&gt;Node1434</title>
<path fill="none" stroke="#191970" d="M297.2003,-37.5C305.635,-37.5 314.3591,-37.5 322.9547,-37.5"/>
<polygon fill="#191970" stroke="#191970" points="322.9612,-41.0001 332.9611,-37.5 322.9611,-34.0001 322.9612,-41.0001"/>
</g>
<!-- Node1432&#45;&gt;Node1433 -->
<g id="edge3" class="edge">
<title>Node1432&#45;&gt;Node1433</title>
<path fill="none" stroke="#191970" d="M443.6074,-71.4997C458.4777,-67.0481 474.919,-62.1262 490.3568,-57.5047"/>
<polygon fill="#191970" stroke="#191970" points="491.7539,-60.7399 500.3301,-54.519 489.7464,-54.034 491.7539,-60.7399"/>
</g>
</g>
</svg>
