<?xml version="1.0" encoding="UTF-8" standalone="no"?>
<!DOCTYPE svg PUBLIC "-//W3C//DTD SVG 1.1//EN"
 "http://www.w3.org/Graphics/SVG/1.1/DTD/svg11.dtd">
<!-- Generated by graphviz version 2.40.1 (20161225.0304)
 -->
<!-- Title: xla::ComputationBuilder::ReduceWindow Pages: 1 -->
<!--zoomable 302 -->
<svg id="main" version="1.1" xmlns="http://www.w3.org/2000/svg" xmlns:xlink="http://www.w3.org/1999/xlink" xml:space="preserve" onload="init(evt)">
<style type="text/css"><![CDATA[
.edge:hover path { stroke: red; }
.edge:hover polygon { stroke: red; fill: red; }
]]></style>
<script type="text/javascript"><![CDATA[
var edges = document.getElementsByTagName('g');
if (edges && edges.length) {
  for (var i=0;i<edges.length;i++) {
    if (edges[i].id.substr(0,4)=='edge') {
      edges[i].setAttribute('class','edge');
    }
  }
}
]]></script>
        <defs>
                <circle id="rim" cx="0" cy="0" r="7"/>
                <circle id="rim2" cx="0" cy="0" r="3.5"/>
                <g id="zoomPlus">
                        <use xlink:href="#rim" fill="#404040">
                                <set attributeName="fill" to="#808080" begin="zoomplus.mouseover" end="zoomplus.mouseout"/>
                        </use>
                        <path d="M-4,0h8M0,-4v8" fill="none" stroke="white" stroke-width="1.5" pointer-events="none"/>
                </g>
                <g id="zoomMin">
                        <use xlink:href="#rim" fill="#404040">
                                <set attributeName="fill" to="#808080" begin="zoomminus.mouseover" end="zoomminus.mouseout"/>
                        </use>
                        <path d="M-4,0h8" fill="none" stroke="white" stroke-width="1.5" pointer-events="none"/>
                </g>
                <g id="dirArrow">
                        <path fill="none" stroke="white" stroke-width="1.5" d="M0,-3.0v7 M-2.5,-0.5L0,-3.0L2.5,-0.5"/>
                </g>
               <g id="resetDef">
                       <use xlink:href="#rim2" fill="#404040">
                               <set attributeName="fill" to="#808080" begin="reset.mouseover" end="reset.mouseout"/>
                       </use>
               </g>
        </defs>

<script type="text/javascript">
var viewWidth = 995;
var viewHeight = 302;
var sectionId = 'dynsection-112';
</script>
<script xlink:href="../../svgpan.js"/>
<svg id="graph" class="graph">
<g id="viewport">
<title>xla::ComputationBuilder::ReduceWindow</title>
<polygon fill="#ffffff" stroke="transparent" points="-4,4 -4,-298 991,-298 991,4 -4,4"/>
<!-- Node1207 -->
<g id="node1" class="node">
<title>Node1207</title>
<polygon fill="#bfbfbf" stroke="#000000" points="0,-181.5 0,-211.5 121,-211.5 121,-181.5 0,-181.5"/>
<text text-anchor="start" x="8" y="-199.5" font-family="Helvetica,sans-Serif" font-size="10.00" fill="#000000">xla::ComputationBuilder</text>
<text text-anchor="middle" x="60.5" y="-188.5" font-family="Helvetica,sans-Serif" font-size="10.00" fill="#000000">::ReduceWindow</text>
</g>
<!-- Node1208 -->
<g id="node2" class="node">
<title>Node1208</title>
<g id="a_node2"><a xlink:href="../../df/d1b/classxla_1_1ComputationBuilder.html#a802577eb94272bfc6b2b7684b8a2ad85" target="_top" xlink:title="xla::ComputationBuilder\l::GetShape">
<polygon fill="#ffffff" stroke="#000000" points="187,-219.5 187,-249.5 308,-249.5 308,-219.5 187,-219.5"/>
<text text-anchor="start" x="195" y="-237.5" font-family="Helvetica,sans-Serif" font-size="10.00" fill="#000000">xla::ComputationBuilder</text>
<text text-anchor="middle" x="247.5" y="-226.5" font-family="Helvetica,sans-Serif" font-size="10.00" fill="#000000">::GetShape</text>
</a>
</g>
</g>
<!-- Node1207&#45;&gt;Node1208 -->
<g id="edge1" class="edge">
<title>Node1207&#45;&gt;Node1208</title>
<path fill="none" stroke="#191970" d="M121.2135,-208.8375C138.9401,-212.4397 158.4669,-216.4077 176.7568,-220.1244"/>
<polygon fill="#191970" stroke="#191970" points="176.2746,-223.5978 186.7713,-222.1594 177.6686,-216.738 176.2746,-223.5978"/>
</g>
<!-- Node1211 -->
<g id="node5" class="node">
<title>Node1211</title>
<g id="a_node5"><a xlink:href="../../df/d1b/classxla_1_1ComputationBuilder.html#a1a37819f3dee2f2df05b615d46817db5" target="_top" xlink:title="xla::ComputationBuilder\l::ReduceWindowWithGeneralPadding">
<polygon fill="#ffffff" stroke="#000000" points="157,-157.5 157,-187.5 338,-187.5 338,-157.5 157,-157.5"/>
<text text-anchor="start" x="165" y="-175.5" font-family="Helvetica,sans-Serif" font-size="10.00" fill="#000000">xla::ComputationBuilder</text>
<text text-anchor="middle" x="247.5" y="-164.5" font-family="Helvetica,sans-Serif" font-size="10.00" fill="#000000">::ReduceWindowWithGeneralPadding</text>
</a>
</g>
</g>
<!-- Node1207&#45;&gt;Node1211 -->
<g id="edge4" class="edge">
<title>Node1207&#45;&gt;Node1211</title>
<path fill="none" stroke="#191970" d="M121.2135,-188.7079C129.4153,-187.6553 138.0024,-186.5532 146.6741,-185.4402"/>
<polygon fill="#191970" stroke="#191970" points="147.4017,-188.8756 156.8747,-184.131 146.5105,-181.9326 147.4017,-188.8756"/>
</g>
<!-- Node1209 -->
<g id="node3" class="node">
<title>Node1209</title>
<g id="a_node3"><a xlink:href="../../df/d1b/classxla_1_1ComputationBuilder.html#a3cc9e4cb9e38733572e7153a1931b19f" target="_top" xlink:title="xla::ComputationBuilder\l::GetShapeWithoutNoteError">
<polygon fill="#ffffff" stroke="#000000" points="374,-263.5 374,-293.5 516,-293.5 516,-263.5 374,-263.5"/>
<text text-anchor="start" x="382" y="-281.5" font-family="Helvetica,sans-Serif" font-size="10.00" fill="#000000">xla::ComputationBuilder</text>
<text text-anchor="middle" x="445" y="-270.5" font-family="Helvetica,sans-Serif" font-size="10.00" fill="#000000">::GetShapeWithoutNoteError</text>
</a>
</g>
</g>
<!-- Node1208&#45;&gt;Node1209 -->
<g id="edge2" class="edge">
<title>Node1208&#45;&gt;Node1209</title>
<path fill="none" stroke="#191970" d="M308.0987,-248.0005C326.9171,-252.1929 347.9198,-256.872 367.7136,-261.2818"/>
<polygon fill="#191970" stroke="#191970" points="367.1043,-264.7318 377.6261,-263.4901 368.6265,-257.8993 367.1043,-264.7318"/>
</g>
<!-- Node1210 -->
<g id="node4" class="node">
<title>Node1210</title>
<g id="a_node4"><a xlink:href="../../df/d1b/classxla_1_1ComputationBuilder.html#a787b5fd4e96b9c918b7d0d73704f0d57" target="_top" xlink:title="xla::ComputationBuilder\l::NoteError">
<polygon fill="#ffffff" stroke="#000000" points="866,-137.5 866,-167.5 987,-167.5 987,-137.5 866,-137.5"/>
<text text-anchor="start" x="874" y="-155.5" font-family="Helvetica,sans-Serif" font-size="10.00" fill="#000000">xla::ComputationBuilder</text>
<text text-anchor="middle" x="926.5" y="-144.5" font-family="Helvetica,sans-Serif" font-size="10.00" fill="#000000">::NoteError</text>
</a>
</g>
</g>
<!-- Node1208&#45;&gt;Node1210 -->
<g id="edge3" class="edge">
<title>Node1208&#45;&gt;Node1210</title>
<path fill="none" stroke="#191970" d="M308.1609,-234.2716C414.8442,-232.7931 642.5239,-224.8152 830,-185.5 846.6467,-182.0091 864.3883,-176.4913 880.059,-170.9595"/>
<polygon fill="#191970" stroke="#191970" points="881.3108,-174.2287 889.5203,-167.5313 878.9261,-167.6474 881.3108,-174.2287"/>
</g>
<!-- Node1211&#45;&gt;Node1210 -->
<g id="edge7" class="edge">
<title>Node1211&#45;&gt;Node1210</title>
<path fill="none" stroke="#191970" d="M338.0189,-174.7837C350.1157,-175.0488 362.3587,-175.2966 374,-175.5 576.6752,-179.0417 628.4534,-188.1504 830,-166.5 838.3476,-165.6033 847.0826,-164.5286 855.7415,-163.3785"/>
<polygon fill="#191970" stroke="#191970" points="856.4087,-166.82 865.8436,-162 855.4621,-159.8843 856.4087,-166.82"/>
</g>
<!-- Node1212 -->
<g id="node6" class="node">
<title>Node1212</title>
<g id="a_node6"><a xlink:href="../../df/d1b/classxla_1_1ComputationBuilder.html#ac7d7dca366ed62647e192ad629aad835" target="_top" xlink:title="xla::ComputationBuilder\l::MakeWindow">
<polygon fill="#ffffff" stroke="#000000" points="552,-137.5 552,-167.5 673,-167.5 673,-137.5 552,-137.5"/>
<text text-anchor="start" x="560" y="-155.5" font-family="Helvetica,sans-Serif" font-size="10.00" fill="#000000">xla::ComputationBuilder</text>
<text text-anchor="middle" x="612.5" y="-144.5" font-family="Helvetica,sans-Serif" font-size="10.00" fill="#000000">::MakeWindow</text>
</a>
</g>
</g>
<!-- Node1211&#45;&gt;Node1212 -->
<g id="edge5" class="edge">
<title>Node1211&#45;&gt;Node1212</title>
<path fill="none" stroke="#191970" d="M338.1937,-167.5305C401.0328,-164.0872 483.5075,-159.5681 541.5546,-156.3874"/>
<polygon fill="#191970" stroke="#191970" points="541.9431,-159.8715 551.7366,-155.8295 541.5601,-152.882 541.9431,-159.8715"/>
</g>
<!-- Node1213 -->
<g id="node7" class="node">
<title>Node1213</title>
<g id="a_node7"><a xlink:href="../../df/d1b/classxla_1_1ComputationBuilder.html#a584f43dacccc04122c79a7e4ad2770d0" target="_top" xlink:title="Call RunOp() and either return the output ComputationDataHandle (on success) or an empty ComputationD...">
<polygon fill="#ffffff" stroke="#000000" points="375,-93.5 375,-123.5 515,-123.5 515,-93.5 375,-93.5"/>
<text text-anchor="start" x="383" y="-111.5" font-family="Helvetica,sans-Serif" font-size="10.00" fill="#000000">xla::ComputationBuilder</text>
<text text-anchor="middle" x="445" y="-100.5" font-family="Helvetica,sans-Serif" font-size="10.00" fill="#000000">::RunOpAndParseResponse</text>
</a>
</g>
</g>
<!-- Node1211&#45;&gt;Node1213 -->
<g id="edge8" class="edge">
<title>Node1211&#45;&gt;Node1213</title>
<path fill="none" stroke="#191970" d="M293.805,-157.4948C322.3026,-148.2602 359.0093,-136.3654 389.1183,-126.6085"/>
<polygon fill="#191970" stroke="#191970" points="390.2093,-129.9342 398.6434,-123.5219 388.0514,-123.2751 390.2093,-129.9342"/>
</g>
<!-- Node1212&#45;&gt;Node1210 -->
<g id="edge6" class="edge">
<title>Node1212&#45;&gt;Node1210</title>
<path fill="none" stroke="#191970" d="M673.0424,-152.5C725.3028,-152.5 800.8438,-152.5 855.8539,-152.5"/>
<polygon fill="#191970" stroke="#191970" points="855.8763,-156.0001 865.8763,-152.5 855.8762,-149.0001 855.8763,-156.0001"/>
</g>
<!-- Node1213&#45;&gt;Node1210 -->
<g id="edge13" class="edge">
<title>Node1213&#45;&gt;Node1210</title>
<path fill="none" stroke="#191970" d="M515.115,-114.5246C560.2151,-118.4308 620.0736,-123.6733 673,-128.5 734.6775,-134.1247 804.7691,-140.7809 855.5935,-145.655"/>
<polygon fill="#191970" stroke="#191970" points="855.5259,-149.1645 865.8146,-146.6361 856.1948,-142.1966 855.5259,-149.1645"/>
</g>
<!-- Node1214 -->
<g id="node8" class="node">
<title>Node1214</title>
<g id="a_node8"><a xlink:href="../../df/d1b/classxla_1_1ComputationBuilder.html#a7d2ff8c5c638378bb6fb998a71661d22" target="_top" xlink:title="Run the given parameter op_request and fill in op_response. ">
<polygon fill="#ffffff" stroke="#000000" points="552,-49.5 552,-79.5 673,-79.5 673,-49.5 552,-49.5"/>
<text text-anchor="start" x="560" y="-67.5" font-family="Helvetica,sans-Serif" font-size="10.00" fill="#000000">xla::ComputationBuilder</text>
<text text-anchor="middle" x="612.5" y="-56.5" font-family="Helvetica,sans-Serif" font-size="10.00" fill="#000000">::RunOp</text>
</a>
</g>
</g>
<!-- Node1213&#45;&gt;Node1214 -->
<g id="edge9" class="edge">
<title>Node1213&#45;&gt;Node1214</title>
<path fill="none" stroke="#191970" d="M502.1755,-93.4808C516.113,-89.8196 531.1459,-85.8706 545.495,-82.1013"/>
<polygon fill="#191970" stroke="#191970" points="546.5154,-85.4521 555.298,-79.5262 544.7368,-78.6818 546.5154,-85.4521"/>
</g>
<!-- Node1215 -->
<g id="node9" class="node">
<title>Node1215</title>
<g id="a_node9"><a xlink:href="../../df/d1b/classxla_1_1ComputationBuilder.html#af5ca3f8bbbe525f593293b55df772f1a" target="_top" xlink:title="Populates computation_ with a valid object. Used before any given operation is enqueued. ">
<polygon fill="#ffffff" stroke="#000000" points="709,-49.5 709,-79.5 830,-79.5 830,-49.5 709,-49.5"/>
<text text-anchor="start" x="717" y="-67.5" font-family="Helvetica,sans-Serif" font-size="10.00" fill="#000000">xla::ComputationBuilder</text>
<text text-anchor="middle" x="769.5" y="-56.5" font-family="Helvetica,sans-Serif" font-size="10.00" fill="#000000">::PrepareComputation</text>
</a>
</g>
</g>
<!-- Node1214&#45;&gt;Node1215 -->
<g id="edge10" class="edge">
<title>Node1214&#45;&gt;Node1215</title>
<path fill="none" stroke="#191970" d="M673.2003,-64.5C681.635,-64.5 690.3591,-64.5 698.9547,-64.5"/>
<polygon fill="#191970" stroke="#191970" points="698.9612,-68.0001 708.9611,-64.5 698.9611,-61.0001 698.9612,-68.0001"/>
</g>
<!-- Node1216 -->
<g id="node10" class="node">
<title>Node1216</title>
<g id="a_node10"><a xlink:href="../../df/d1b/classxla_1_1ComputationBuilder.html#a2def8246d1c1829a85e095a84e364bca" target="_top" xlink:title="xla::ComputationBuilder\l::name">
<polygon fill="#ffffff" stroke="#000000" points="709,-.5 709,-30.5 830,-30.5 830,-.5 709,-.5"/>
<text text-anchor="start" x="717" y="-18.5" font-family="Helvetica,sans-Serif" font-size="10.00" fill="#000000">xla::ComputationBuilder</text>
<text text-anchor="middle" x="769.5" y="-7.5" font-family="Helvetica,sans-Serif" font-size="10.00" fill="#000000">::name</text>
</a>
</g>
</g>
<!-- Node1214&#45;&gt;Node1216 -->
<g id="edge12" class="edge">
<title>Node1214&#45;&gt;Node1216</title>
<path fill="none" stroke="#191970" d="M660.8862,-49.3986C676.9287,-44.3917 694.9488,-38.7676 711.631,-33.561"/>
<polygon fill="#191970" stroke="#191970" points="712.7704,-36.872 721.2735,-30.5516 710.6849,-30.1899 712.7704,-36.872"/>
</g>
<!-- Node1215&#45;&gt;Node1210 -->
<g id="edge11" class="edge">
<title>Node1215&#45;&gt;Node1210</title>
<path fill="none" stroke="#191970" d="M801.1493,-79.5935C810.5186,-84.2226 820.744,-89.4343 830,-94.5 851.6611,-106.3549 875.4429,-120.6334 893.9777,-132.0568"/>
<polygon fill="#191970" stroke="#191970" points="892.2786,-135.1214 902.6228,-137.4121 895.9649,-129.1706 892.2786,-135.1214"/>
</g>
</g>
</svg>
        <g id="navigator" transform="translate(0 0)" fill="#404254">
                <rect fill="#f2f5e9" fill-opacity="0.5" stroke="#606060" stroke-width=".5" x="0" y="0" width="60" height="60"/>
                <use id="zoomplus" xlink:href="#zoomPlus" x="17" y="9" onmousedown="handleZoom(evt,'in')"/>
                <use id="zoomminus" xlink:href="#zoomMin" x="42" y="9" onmousedown="handleZoom(evt,'out')"/>
                <use id="reset" xlink:href="#resetDef" x="30" y="36" onmousedown="handleReset()"/>
                <g id="arrowUp" xlink:href="#dirArrow" transform="translate(30 24)" onmousedown="handlePan(0,-1)">
                  <use xlink:href="#rim" fill="#404040">
                        <set attributeName="fill" to="#808080" begin="arrowUp.mouseover" end="arrowUp.mouseout"/>
                  </use>
                  <path fill="none" stroke="white" stroke-width="1.5" d="M0,-3.0v7 M-2.5,-0.5L0,-3.0L2.5,-0.5"/>
                </g>
                <g id="arrowRight" xlink:href="#dirArrow" transform="rotate(90) translate(36 -43)" onmousedown="handlePan(1,0)">
                  <use xlink:href="#rim" fill="#404040">
                        <set attributeName="fill" to="#808080" begin="arrowRight.mouseover" end="arrowRight.mouseout"/>
                  </use>
                  <path fill="none" stroke="white" stroke-width="1.5" d="M0,-3.0v7 M-2.5,-0.5L0,-3.0L2.5,-0.5"/>
                </g>
                <g id="arrowDown" xlink:href="#dirArrow" transform="rotate(180) translate(-30 -48)" onmousedown="handlePan(0,1)">
                  <use xlink:href="#rim" fill="#404040">
                        <set attributeName="fill" to="#808080" begin="arrowDown.mouseover" end="arrowDown.mouseout"/>
                  </use>
                  <path fill="none" stroke="white" stroke-width="1.5" d="M0,-3.0v7 M-2.5,-0.5L0,-3.0L2.5,-0.5"/>
                </g>
                <g id="arrowLeft" xlink:href="#dirArrow" transform="rotate(270) translate(-36 17)" onmousedown="handlePan(-1,0)">
                  <use xlink:href="#rim" fill="#404040">
                        <set attributeName="fill" to="#808080" begin="arrowLeft.mouseover" end="arrowLeft.mouseout"/>
                  </use>
                  <path fill="none" stroke="white" stroke-width="1.5" d="M0,-3.0v7 M-2.5,-0.5L0,-3.0L2.5,-0.5"/>
                </g>
        </g>
        <svg viewBox="0 0 15 15" width="100%" height="30px" preserveAspectRatio="xMaxYMin meet">
         <g id="arrow_out" transform="scale(0.3 0.3)">
          <a xlink:href="classxla_1_1ComputationBuilder_aeee4ce84a296f1c3eab536180dc4af0d_cgraph_org.svg" target="_base">
           <rect id="button" ry="5" rx="5" y="6" x="6" height="38" width="38"
                fill="#f2f5e9" fill-opacity="0.5" stroke="#606060" stroke-width="1.0"/>
           <path id="arrow"
             d="M 11.500037,31.436501 C 11.940474,20.09759 22.043105,11.32322 32.158766,21.979434 L 37.068811,17.246167 C 37.068811,17.246167 37.088388,32 37.088388,32 L 22.160133,31.978069 C 22.160133,31.978069 26.997745,27.140456 26.997745,27.140456 C 18.528582,18.264221 13.291696,25.230495 11.500037,31.436501 z"
             style="fill:#404040;"/>
          </a>
         </g>
        </svg>
</svg>
