<?xml version="1.0" encoding="UTF-8" standalone="no"?>
<!DOCTYPE svg PUBLIC "-//W3C//DTD SVG 1.1//EN"
 "http://www.w3.org/Graphics/SVG/1.1/DTD/svg11.dtd">
<!-- Generated by graphviz version 2.40.1 (20161225.0304)
 -->
<!-- Title: xla::ComputationBuilder::ConvertElementType Pages: 1 -->
<!--zoomable 172 -->
<svg id="main" version="1.1" xmlns="http://www.w3.org/2000/svg" xmlns:xlink="http://www.w3.org/1999/xlink" xml:space="preserve" onload="init(evt)">
<style type="text/css"><![CDATA[
.edge:hover path { stroke: red; }
.edge:hover polygon { stroke: red; fill: red; }
]]></style>
<script type="text/javascript"><![CDATA[
var edges = document.getElementsByTagName('g');
if (edges && edges.length) {
  for (var i=0;i<edges.length;i++) {
    if (edges[i].id.substr(0,4)=='edge') {
      edges[i].setAttribute('class','edge');
    }
  }
}
]]></script>
        <defs>
                <circle id="rim" cx="0" cy="0" r="7"/>
                <circle id="rim2" cx="0" cy="0" r="3.5"/>
                <g id="zoomPlus">
                        <use xlink:href="#rim" fill="#404040">
                                <set attributeName="fill" to="#808080" begin="zoomplus.mouseover" end="zoomplus.mouseout"/>
                        </use>
                        <path d="M-4,0h8M0,-4v8" fill="none" stroke="white" stroke-width="1.5" pointer-events="none"/>
                </g>
                <g id="zoomMin">
                        <use xlink:href="#rim" fill="#404040">
                                <set attributeName="fill" to="#808080" begin="zoomminus.mouseover" end="zoomminus.mouseout"/>
                        </use>
                        <path d="M-4,0h8" fill="none" stroke="white" stroke-width="1.5" pointer-events="none"/>
                </g>
                <g id="dirArrow">
                        <path fill="none" stroke="white" stroke-width="1.5" d="M0,-3.0v7 M-2.5,-0.5L0,-3.0L2.5,-0.5"/>
                </g>
               <g id="resetDef">
                       <use xlink:href="#rim2" fill="#404040">
                               <set attributeName="fill" to="#808080" begin="reset.mouseover" end="reset.mouseout"/>
                       </use>
               </g>
        </defs>

<script type="text/javascript">
var viewWidth = 797;
var viewHeight = 172;
var sectionId = 'dynsection-44';
</script>
<script xlink:href="../../svgpan.js"/>
<svg id="graph" class="graph">
<g id="viewport">
<title>xla::ComputationBuilder::ConvertElementType</title>
<polygon fill="#ffffff" stroke="transparent" points="-4,4 -4,-168.1014 793,-168.1014 793,4 -4,4"/>
<!-- Node356 -->
<g id="node1" class="node">
<title>Node356</title>
<polygon fill="#bfbfbf" stroke="#000000" points="0,-59.4294 0,-89.4294 121,-89.4294 121,-59.4294 0,-59.4294"/>
<text text-anchor="start" x="8" y="-77.4294" font-family="Helvetica,sans-Serif" font-size="10.00" fill="#000000">xla::ComputationBuilder</text>
<text text-anchor="middle" x="60.5" y="-66.4294" font-family="Helvetica,sans-Serif" font-size="10.00" fill="#000000">::ConvertElementType</text>
</g>
<!-- Node357 -->
<g id="node2" class="node">
<title>Node357</title>
<g id="a_node2"><a xlink:href="../../df/d1b/classxla_1_1ComputationBuilder.html#af5ca3f8bbbe525f593293b55df772f1a" target="_top" xlink:title="Populates computation_ with a valid object. Used before any given operation is enqueued. ">
<polygon fill="#ffffff" stroke="#000000" points="511,-54.4294 511,-84.4294 632,-84.4294 632,-54.4294 511,-54.4294"/>
<text text-anchor="start" x="519" y="-72.4294" font-family="Helvetica,sans-Serif" font-size="10.00" fill="#000000">xla::ComputationBuilder</text>
<text text-anchor="middle" x="571.5" y="-61.4294" font-family="Helvetica,sans-Serif" font-size="10.00" fill="#000000">::PrepareComputation</text>
</a>
</g>
</g>
<!-- Node356&#45;&gt;Node357 -->
<g id="edge1" class="edge">
<title>Node356&#45;&gt;Node357</title>
<path fill="none" stroke="#191970" d="M121.1251,-73.8362C216.2061,-72.9059 399.9339,-71.1082 500.8558,-70.1207"/>
<polygon fill="#191970" stroke="#191970" points="500.9886,-73.6196 510.9538,-70.0219 500.92,-66.62 500.9886,-73.6196"/>
</g>
<!-- Node359 -->
<g id="node4" class="node">
<title>Node359</title>
<g id="a_node4"><a xlink:href="../../df/d1b/classxla_1_1ComputationBuilder.html#a802577eb94272bfc6b2b7684b8a2ad85" target="_top" xlink:title="xla::ComputationBuilder\l::GetShape">
<polygon fill="#ffffff" stroke="#000000" points="166.5,-15.4294 166.5,-45.4294 287.5,-45.4294 287.5,-15.4294 166.5,-15.4294"/>
<text text-anchor="start" x="174.5" y="-33.4294" font-family="Helvetica,sans-Serif" font-size="10.00" fill="#000000">xla::ComputationBuilder</text>
<text text-anchor="middle" x="227" y="-22.4294" font-family="Helvetica,sans-Serif" font-size="10.00" fill="#000000">::GetShape</text>
</a>
</g>
</g>
<!-- Node356&#45;&gt;Node359 -->
<g id="edge3" class="edge">
<title>Node356&#45;&gt;Node359</title>
<path fill="none" stroke="#191970" d="M117.3342,-59.4102C131.1884,-55.749 146.1316,-51.8001 160.3951,-48.0308"/>
<polygon fill="#191970" stroke="#191970" points="161.3656,-51.3945 170.1395,-45.4557 159.5771,-44.6268 161.3656,-51.3945"/>
</g>
<!-- Node361 -->
<g id="node6" class="node">
<title>Node361</title>
<g id="a_node6"><a xlink:href="../../df/d1b/classxla_1_1ComputationBuilder.html#a584f43dacccc04122c79a7e4ad2770d0" target="_top" xlink:title="Call RunOp() and either return the output ComputationDataHandle (on success) or an empty ComputationD...">
<polygon fill="#ffffff" stroke="#000000" points="157,-103.4294 157,-133.4294 297,-133.4294 297,-103.4294 157,-103.4294"/>
<text text-anchor="start" x="165" y="-121.4294" font-family="Helvetica,sans-Serif" font-size="10.00" fill="#000000">xla::ComputationBuilder</text>
<text text-anchor="middle" x="227" y="-110.4294" font-family="Helvetica,sans-Serif" font-size="10.00" fill="#000000">::RunOpAndParseResponse</text>
</a>
</g>
</g>
<!-- Node356&#45;&gt;Node361 -->
<g id="edge6" class="edge">
<title>Node356&#45;&gt;Node361</title>
<path fill="none" stroke="#191970" d="M117.3342,-89.4487C131.1884,-93.1099 146.1316,-97.0588 160.3951,-100.8281"/>
<polygon fill="#191970" stroke="#191970" points="159.5771,-104.2321 170.1395,-103.4032 161.3656,-97.4644 159.5771,-104.2321"/>
</g>
<!-- Node358 -->
<g id="node3" class="node">
<title>Node358</title>
<g id="a_node3"><a xlink:href="../../df/d1b/classxla_1_1ComputationBuilder.html#a787b5fd4e96b9c918b7d0d73704f0d57" target="_top" xlink:title="xla::ComputationBuilder\l::NoteError">
<polygon fill="#ffffff" stroke="#000000" points="668,-54.4294 668,-84.4294 789,-84.4294 789,-54.4294 668,-54.4294"/>
<text text-anchor="start" x="676" y="-72.4294" font-family="Helvetica,sans-Serif" font-size="10.00" fill="#000000">xla::ComputationBuilder</text>
<text text-anchor="middle" x="728.5" y="-61.4294" font-family="Helvetica,sans-Serif" font-size="10.00" fill="#000000">::NoteError</text>
</a>
</g>
</g>
<!-- Node357&#45;&gt;Node358 -->
<g id="edge2" class="edge">
<title>Node357&#45;&gt;Node358</title>
<path fill="none" stroke="#191970" d="M632.2003,-69.4294C640.635,-69.4294 649.3591,-69.4294 657.9547,-69.4294"/>
<polygon fill="#191970" stroke="#191970" points="657.9612,-72.9295 667.9611,-69.4294 657.9611,-65.9295 657.9612,-72.9295"/>
</g>
<!-- Node359&#45;&gt;Node358 -->
<g id="edge5" class="edge">
<title>Node359&#45;&gt;Node358</title>
<path fill="none" stroke="#191970" d="M279.9534,-15.4015C296.7685,-11.3162 315.5336,-7.4613 333,-5.4294 466.1169,10.0559 502.1016,-11.4702 632,-44.4294 641.4359,-46.8236 651.3842,-49.3727 661.1641,-51.8929"/>
<polygon fill="#191970" stroke="#191970" points="660.3052,-55.2859 670.8627,-54.3968 662.0551,-48.5081 660.3052,-55.2859"/>
</g>
<!-- Node360 -->
<g id="node5" class="node">
<title>Node360</title>
<g id="a_node5"><a xlink:href="../../df/d1b/classxla_1_1ComputationBuilder.html#a3cc9e4cb9e38733572e7153a1931b19f" target="_top" xlink:title="xla::ComputationBuilder\l::GetShapeWithoutNoteError">
<polygon fill="#ffffff" stroke="#000000" points="333,-15.4294 333,-45.4294 475,-45.4294 475,-15.4294 333,-15.4294"/>
<text text-anchor="start" x="341" y="-33.4294" font-family="Helvetica,sans-Serif" font-size="10.00" fill="#000000">xla::ComputationBuilder</text>
<text text-anchor="middle" x="404" y="-22.4294" font-family="Helvetica,sans-Serif" font-size="10.00" fill="#000000">::GetShapeWithoutNoteError</text>
</a>
</g>
</g>
<!-- Node359&#45;&gt;Node360 -->
<g id="edge4" class="edge">
<title>Node359&#45;&gt;Node360</title>
<path fill="none" stroke="#191970" d="M287.9134,-30.4294C299.1282,-30.4294 310.9996,-30.4294 322.7021,-30.4294"/>
<polygon fill="#191970" stroke="#191970" points="322.9218,-33.9295 332.9217,-30.4294 322.9217,-26.9295 322.9218,-33.9295"/>
</g>
<!-- Node361&#45;&gt;Node358 -->
<g id="edge10" class="edge">
<title>Node361&#45;&gt;Node358</title>
<path fill="none" stroke="#191970" d="M277.2341,-133.4728C355.4197,-154.2769 509.9185,-184.8497 632,-143.4294 661.9144,-133.28 689.8257,-109.7157 707.8564,-91.8849"/>
<polygon fill="#191970" stroke="#191970" points="710.4501,-94.2389 714.956,-84.65 705.4538,-89.3361 710.4501,-94.2389"/>
</g>
<!-- Node362 -->
<g id="node7" class="node">
<title>Node362</title>
<g id="a_node7"><a xlink:href="../../df/d1b/classxla_1_1ComputationBuilder.html#a7d2ff8c5c638378bb6fb998a71661d22" target="_top" xlink:title="Run the given parameter op_request and fill in op_response. ">
<polygon fill="#ffffff" stroke="#000000" points="343.5,-103.4294 343.5,-133.4294 464.5,-133.4294 464.5,-103.4294 343.5,-103.4294"/>
<text text-anchor="start" x="351.5" y="-121.4294" font-family="Helvetica,sans-Serif" font-size="10.00" fill="#000000">xla::ComputationBuilder</text>
<text text-anchor="middle" x="404" y="-110.4294" font-family="Helvetica,sans-Serif" font-size="10.00" fill="#000000">::RunOp</text>
</a>
</g>
</g>
<!-- Node361&#45;&gt;Node362 -->
<g id="edge7" class="edge">
<title>Node361&#45;&gt;Node362</title>
<path fill="none" stroke="#191970" d="M297.2093,-118.4294C309.0041,-118.4294 321.2522,-118.4294 333.0652,-118.4294"/>
<polygon fill="#191970" stroke="#191970" points="333.3121,-121.9295 343.312,-118.4294 333.312,-114.9295 333.3121,-121.9295"/>
</g>
<!-- Node362&#45;&gt;Node357 -->
<g id="edge8" class="edge">
<title>Node362&#45;&gt;Node357</title>
<path fill="none" stroke="#191970" d="M455.6223,-103.328C472.8976,-98.2743 492.3225,-92.5918 510.2594,-87.3446"/>
<polygon fill="#191970" stroke="#191970" points="511.4331,-90.648 520.0482,-84.481 509.4677,-83.9296 511.4331,-90.648"/>
</g>
<!-- Node363 -->
<g id="node8" class="node">
<title>Node363</title>
<g id="a_node8"><a xlink:href="../../df/d1b/classxla_1_1ComputationBuilder.html#a2def8246d1c1829a85e095a84e364bca" target="_top" xlink:title="xla::ComputationBuilder\l::name">
<polygon fill="#ffffff" stroke="#000000" points="511,-103.4294 511,-133.4294 632,-133.4294 632,-103.4294 511,-103.4294"/>
<text text-anchor="start" x="519" y="-121.4294" font-family="Helvetica,sans-Serif" font-size="10.00" fill="#000000">xla::ComputationBuilder</text>
<text text-anchor="middle" x="571.5" y="-110.4294" font-family="Helvetica,sans-Serif" font-size="10.00" fill="#000000">::name</text>
</a>
</g>
</g>
<!-- Node362&#45;&gt;Node363 -->
<g id="edge9" class="edge">
<title>Node362&#45;&gt;Node363</title>
<path fill="none" stroke="#191970" d="M464.9452,-118.4294C476.5207,-118.4294 488.7254,-118.4294 500.579,-118.4294"/>
<polygon fill="#191970" stroke="#191970" points="500.8807,-121.9295 510.8807,-118.4294 500.8806,-114.9295 500.8807,-121.9295"/>
</g>
</g>
</svg>
        <g id="navigator" transform="translate(0 0)" fill="#404254">
                <rect fill="#f2f5e9" fill-opacity="0.5" stroke="#606060" stroke-width=".5" x="0" y="0" width="60" height="60"/>
                <use id="zoomplus" xlink:href="#zoomPlus" x="17" y="9" onmousedown="handleZoom(evt,'in')"/>
                <use id="zoomminus" xlink:href="#zoomMin" x="42" y="9" onmousedown="handleZoom(evt,'out')"/>
                <use id="reset" xlink:href="#resetDef" x="30" y="36" onmousedown="handleReset()"/>
                <g id="arrowUp" xlink:href="#dirArrow" transform="translate(30 24)" onmousedown="handlePan(0,-1)">
                  <use xlink:href="#rim" fill="#404040">
                        <set attributeName="fill" to="#808080" begin="arrowUp.mouseover" end="arrowUp.mouseout"/>
                  </use>
                  <path fill="none" stroke="white" stroke-width="1.5" d="M0,-3.0v7 M-2.5,-0.5L0,-3.0L2.5,-0.5"/>
                </g>
                <g id="arrowRight" xlink:href="#dirArrow" transform="rotate(90) translate(36 -43)" onmousedown="handlePan(1,0)">
                  <use xlink:href="#rim" fill="#404040">
                        <set attributeName="fill" to="#808080" begin="arrowRight.mouseover" end="arrowRight.mouseout"/>
                  </use>
                  <path fill="none" stroke="white" stroke-width="1.5" d="M0,-3.0v7 M-2.5,-0.5L0,-3.0L2.5,-0.5"/>
                </g>
                <g id="arrowDown" xlink:href="#dirArrow" transform="rotate(180) translate(-30 -48)" onmousedown="handlePan(0,1)">
                  <use xlink:href="#rim" fill="#404040">
                        <set attributeName="fill" to="#808080" begin="arrowDown.mouseover" end="arrowDown.mouseout"/>
                  </use>
                  <path fill="none" stroke="white" stroke-width="1.5" d="M0,-3.0v7 M-2.5,-0.5L0,-3.0L2.5,-0.5"/>
                </g>
                <g id="arrowLeft" xlink:href="#dirArrow" transform="rotate(270) translate(-36 17)" onmousedown="handlePan(-1,0)">
                  <use xlink:href="#rim" fill="#404040">
                        <set attributeName="fill" to="#808080" begin="arrowLeft.mouseover" end="arrowLeft.mouseout"/>
                  </use>
                  <path fill="none" stroke="white" stroke-width="1.5" d="M0,-3.0v7 M-2.5,-0.5L0,-3.0L2.5,-0.5"/>
                </g>
        </g>
        <svg viewBox="0 0 15 15" width="100%" height="30px" preserveAspectRatio="xMaxYMin meet">
         <g id="arrow_out" transform="scale(0.3 0.3)">
          <a xlink:href="classxla_1_1ComputationBuilder_af6144c2a08127864b6e3671cfaf17035_cgraph_org.svg" target="_base">
           <rect id="button" ry="5" rx="5" y="6" x="6" height="38" width="38"
                fill="#f2f5e9" fill-opacity="0.5" stroke="#606060" stroke-width="1.0"/>
           <path id="arrow"
             d="M 11.500037,31.436501 C 11.940474,20.09759 22.043105,11.32322 32.158766,21.979434 L 37.068811,17.246167 C 37.068811,17.246167 37.088388,32 37.088388,32 L 22.160133,31.978069 C 22.160133,31.978069 26.997745,27.140456 26.997745,27.140456 C 18.528582,18.264221 13.291696,25.230495 11.500037,31.436501 z"
             style="fill:#404040;"/>
          </a>
         </g>
        </svg>
</svg>
