<?xml version="1.0" encoding="UTF-8" standalone="no"?>
<!DOCTYPE svg PUBLIC "-//W3C//DTD SVG 1.1//EN"
 "http://www.w3.org/Graphics/SVG/1.1/DTD/svg11.dtd">
<!-- Generated by graphviz version 2.40.1 (20161225.0304)
 -->
<!-- Title: xla::ComputationBuilder::Collapse Pages: 1 -->
<svg width="935pt" height="193pt"
 viewBox="0.00 0.00 935.00 192.50" xmlns="http://www.w3.org/2000/svg" xmlns:xlink="http://www.w3.org/1999/xlink">
<g id="graph0" class="graph" transform="scale(1 1) rotate(0) translate(4 188.5)">
<title>xla::ComputationBuilder::Collapse</title>
<polygon fill="#ffffff" stroke="transparent" points="-4,4 -4,-188.5 931,-188.5 931,4 -4,4"/>
<!-- Node165 -->
<g id="node1" class="node">
<title>Node165</title>
<polygon fill="#bfbfbf" stroke="#000000" points="0,-106.5 0,-136.5 121,-136.5 121,-106.5 0,-106.5"/>
<text text-anchor="start" x="8" y="-124.5" font-family="Helvetica,sans-Serif" font-size="10.00" fill="#000000">xla::ComputationBuilder</text>
<text text-anchor="middle" x="60.5" y="-113.5" font-family="Helvetica,sans-Serif" font-size="10.00" fill="#000000">::Collapse</text>
</g>
<!-- Node166 -->
<g id="node2" class="node">
<title>Node166</title>
<g id="a_node2"><a xlink:href="../../df/d1b/classxla_1_1ComputationBuilder.html#a787b5fd4e96b9c918b7d0d73704f0d57" target="_top" xlink:title="xla::ComputationBuilder\l::NoteError">
<polygon fill="#ffffff" stroke="#000000" points="806,-112.5 806,-142.5 927,-142.5 927,-112.5 806,-112.5"/>
<text text-anchor="start" x="814" y="-130.5" font-family="Helvetica,sans-Serif" font-size="10.00" fill="#000000">xla::ComputationBuilder</text>
<text text-anchor="middle" x="866.5" y="-119.5" font-family="Helvetica,sans-Serif" font-size="10.00" fill="#000000">::NoteError</text>
</a>
</g>
</g>
<!-- Node165&#45;&gt;Node166 -->
<g id="edge1" class="edge">
<title>Node165&#45;&gt;Node166</title>
<path fill="none" stroke="#191970" d="M107.5073,-136.51C170.1354,-155.1441 284.7132,-184.5 385,-184.5 385,-184.5 385,-184.5 552.5,-184.5 641.7737,-184.5 743.0619,-161.9188 805.8737,-145.1822"/>
<polygon fill="#191970" stroke="#191970" points="806.8751,-148.5372 815.6165,-142.5506 805.0498,-141.7794 806.8751,-148.5372"/>
</g>
<!-- Node167 -->
<g id="node3" class="node">
<title>Node167</title>
<g id="a_node3"><a xlink:href="../../df/d1b/classxla_1_1ComputationBuilder.html#a802577eb94272bfc6b2b7684b8a2ad85" target="_top" xlink:title="xla::ComputationBuilder\l::GetShape">
<polygon fill="#ffffff" stroke="#000000" points="157,-106.5 157,-136.5 278,-136.5 278,-106.5 157,-106.5"/>
<text text-anchor="start" x="165" y="-124.5" font-family="Helvetica,sans-Serif" font-size="10.00" fill="#000000">xla::ComputationBuilder</text>
<text text-anchor="middle" x="217.5" y="-113.5" font-family="Helvetica,sans-Serif" font-size="10.00" fill="#000000">::GetShape</text>
</a>
</g>
</g>
<!-- Node165&#45;&gt;Node167 -->
<g id="edge2" class="edge">
<title>Node165&#45;&gt;Node167</title>
<path fill="none" stroke="#191970" d="M121.2003,-121.5C129.635,-121.5 138.3591,-121.5 146.9547,-121.5"/>
<polygon fill="#191970" stroke="#191970" points="146.9612,-125.0001 156.9611,-121.5 146.9611,-118.0001 146.9612,-125.0001"/>
</g>
<!-- Node169 -->
<g id="node5" class="node">
<title>Node169</title>
<g id="a_node5"><a xlink:href="../../df/d1b/classxla_1_1ComputationBuilder.html#a87f767638d41fa46bd3be83e7e269c29" target="_top" xlink:title="xla::ComputationBuilder\l::Reshape">
<polygon fill="#ffffff" stroke="#000000" points="157,-57.5 157,-87.5 278,-87.5 278,-57.5 157,-57.5"/>
<text text-anchor="start" x="165" y="-75.5" font-family="Helvetica,sans-Serif" font-size="10.00" fill="#000000">xla::ComputationBuilder</text>
<text text-anchor="middle" x="217.5" y="-64.5" font-family="Helvetica,sans-Serif" font-size="10.00" fill="#000000">::Reshape</text>
</a>
</g>
</g>
<!-- Node165&#45;&gt;Node169 -->
<g id="edge5" class="edge">
<title>Node165&#45;&gt;Node169</title>
<path fill="none" stroke="#191970" d="M108.8862,-106.3986C124.9287,-101.3917 142.9488,-95.7676 159.631,-90.561"/>
<polygon fill="#191970" stroke="#191970" points="160.7704,-93.872 169.2735,-87.5516 158.6849,-87.1899 160.7704,-93.872"/>
</g>
<!-- Node167&#45;&gt;Node166 -->
<g id="edge4" class="edge">
<title>Node167&#45;&gt;Node166</title>
<path fill="none" stroke="#191970" d="M278.2164,-125.8518C290.0768,-126.5388 302.4234,-127.1405 314,-127.5 487.0426,-132.8744 690.7179,-130.6705 795.8157,-128.9028"/>
<polygon fill="#191970" stroke="#191970" points="796.0439,-132.3994 805.9822,-128.7279 795.9234,-125.4005 796.0439,-132.3994"/>
</g>
<!-- Node168 -->
<g id="node4" class="node">
<title>Node168</title>
<g id="a_node4"><a xlink:href="../../df/d1b/classxla_1_1ComputationBuilder.html#a3cc9e4cb9e38733572e7153a1931b19f" target="_top" xlink:title="xla::ComputationBuilder\l::GetShapeWithoutNoteError">
<polygon fill="#ffffff" stroke="#000000" points="314,-87.5 314,-117.5 456,-117.5 456,-87.5 314,-87.5"/>
<text text-anchor="start" x="322" y="-105.5" font-family="Helvetica,sans-Serif" font-size="10.00" fill="#000000">xla::ComputationBuilder</text>
<text text-anchor="middle" x="385" y="-94.5" font-family="Helvetica,sans-Serif" font-size="10.00" fill="#000000">::GetShapeWithoutNoteError</text>
</a>
</g>
</g>
<!-- Node167&#45;&gt;Node168 -->
<g id="edge3" class="edge">
<title>Node167&#45;&gt;Node168</title>
<path fill="none" stroke="#191970" d="M278.4452,-114.5868C286.7147,-113.6488 295.3053,-112.6743 303.8596,-111.704"/>
<polygon fill="#191970" stroke="#191970" points="304.3217,-115.1741 313.8634,-110.5692 303.5326,-108.2187 304.3217,-115.1741"/>
</g>
<!-- Node170 -->
<g id="node6" class="node">
<title>Node170</title>
<g id="a_node6"><a xlink:href="../../df/d1b/classxla_1_1ComputationBuilder.html#a584f43dacccc04122c79a7e4ad2770d0" target="_top" xlink:title="Call RunOp() and either return the output ComputationDataHandle (on success) or an empty ComputationD...">
<polygon fill="#ffffff" stroke="#000000" points="315,-38.5 315,-68.5 455,-68.5 455,-38.5 315,-38.5"/>
<text text-anchor="start" x="323" y="-56.5" font-family="Helvetica,sans-Serif" font-size="10.00" fill="#000000">xla::ComputationBuilder</text>
<text text-anchor="middle" x="385" y="-45.5" font-family="Helvetica,sans-Serif" font-size="10.00" fill="#000000">::RunOpAndParseResponse</text>
</a>
</g>
</g>
<!-- Node169&#45;&gt;Node170 -->
<g id="edge6" class="edge">
<title>Node169&#45;&gt;Node170</title>
<path fill="none" stroke="#191970" d="M278.4452,-65.5868C287.0084,-64.6155 295.916,-63.605 304.7711,-62.6006"/>
<polygon fill="#191970" stroke="#191970" points="305.1834,-66.0764 314.7252,-61.4715 304.3944,-59.121 305.1834,-66.0764"/>
</g>
<!-- Node170&#45;&gt;Node166 -->
<g id="edge11" class="edge">
<title>Node170&#45;&gt;Node166</title>
<path fill="none" stroke="#191970" d="M447.6164,-68.5132C462.1389,-71.7255 477.569,-74.9234 492,-77.5 597.1513,-96.2746 720.0597,-111.3953 795.5885,-119.9139"/>
<polygon fill="#191970" stroke="#191970" points="795.5972,-123.4367 805.9247,-121.0718 796.3765,-116.4802 795.5972,-123.4367"/>
</g>
<!-- Node171 -->
<g id="node7" class="node">
<title>Node171</title>
<g id="a_node7"><a xlink:href="../../df/d1b/classxla_1_1ComputationBuilder.html#a7d2ff8c5c638378bb6fb998a71661d22" target="_top" xlink:title="Run the given parameter op_request and fill in op_response. ">
<polygon fill="#ffffff" stroke="#000000" points="492,-38.5 492,-68.5 613,-68.5 613,-38.5 492,-38.5"/>
<text text-anchor="start" x="500" y="-56.5" font-family="Helvetica,sans-Serif" font-size="10.00" fill="#000000">xla::ComputationBuilder</text>
<text text-anchor="middle" x="552.5" y="-45.5" font-family="Helvetica,sans-Serif" font-size="10.00" fill="#000000">::RunOp</text>
</a>
</g>
</g>
<!-- Node170&#45;&gt;Node171 -->
<g id="edge7" class="edge">
<title>Node170&#45;&gt;Node171</title>
<path fill="none" stroke="#191970" d="M455.0646,-53.5C463.8276,-53.5 472.796,-53.5 481.5721,-53.5"/>
<polygon fill="#191970" stroke="#191970" points="481.7622,-57.0001 491.7622,-53.5 481.7622,-50.0001 481.7622,-57.0001"/>
</g>
<!-- Node172 -->
<g id="node8" class="node">
<title>Node172</title>
<g id="a_node8"><a xlink:href="../../df/d1b/classxla_1_1ComputationBuilder.html#af5ca3f8bbbe525f593293b55df772f1a" target="_top" xlink:title="Populates computation_ with a valid object. Used before any given operation is enqueued. ">
<polygon fill="#ffffff" stroke="#000000" points="649,-49.5 649,-79.5 770,-79.5 770,-49.5 649,-49.5"/>
<text text-anchor="start" x="657" y="-67.5" font-family="Helvetica,sans-Serif" font-size="10.00" fill="#000000">xla::ComputationBuilder</text>
<text text-anchor="middle" x="709.5" y="-56.5" font-family="Helvetica,sans-Serif" font-size="10.00" fill="#000000">::PrepareComputation</text>
</a>
</g>
</g>
<!-- Node171&#45;&gt;Node172 -->
<g id="edge8" class="edge">
<title>Node171&#45;&gt;Node172</title>
<path fill="none" stroke="#191970" d="M613.2003,-57.7529C621.635,-58.3439 630.3591,-58.9551 638.9547,-59.5573"/>
<polygon fill="#191970" stroke="#191970" points="638.7409,-63.0508 648.9611,-60.2584 639.2302,-56.068 638.7409,-63.0508"/>
</g>
<!-- Node173 -->
<g id="node9" class="node">
<title>Node173</title>
<g id="a_node9"><a xlink:href="../../df/d1b/classxla_1_1ComputationBuilder.html#a2def8246d1c1829a85e095a84e364bca" target="_top" xlink:title="xla::ComputationBuilder\l::name">
<polygon fill="#ffffff" stroke="#000000" points="649,-.5 649,-30.5 770,-30.5 770,-.5 649,-.5"/>
<text text-anchor="start" x="657" y="-18.5" font-family="Helvetica,sans-Serif" font-size="10.00" fill="#000000">xla::ComputationBuilder</text>
<text text-anchor="middle" x="709.5" y="-7.5" font-family="Helvetica,sans-Serif" font-size="10.00" fill="#000000">::name</text>
</a>
</g>
</g>
<!-- Node171&#45;&gt;Node173 -->
<g id="edge10" class="edge">
<title>Node171&#45;&gt;Node173</title>
<path fill="none" stroke="#191970" d="M613.2003,-38.8082C621.7267,-36.7445 630.5488,-34.6092 639.235,-32.5068"/>
<polygon fill="#191970" stroke="#191970" points="640.0652,-35.907 648.9611,-30.1527 638.4184,-29.1035 640.0652,-35.907"/>
</g>
<!-- Node172&#45;&gt;Node166 -->
<g id="edge9" class="edge">
<title>Node172&#45;&gt;Node166</title>
<path fill="none" stroke="#191970" d="M747.1054,-79.5901C768.8722,-88.3245 796.4589,-99.3943 819.6304,-108.6924"/>
<polygon fill="#191970" stroke="#191970" points="818.3455,-111.9481 828.9297,-112.424 820.9524,-105.4516 818.3455,-111.9481"/>
</g>
</g>
</svg>
