<?xml version="1.0" encoding="UTF-8" standalone="no"?>
<!DOCTYPE svg PUBLIC "-//W3C//DTD SVG 1.1//EN"
 "http://www.w3.org/Graphics/SVG/1.1/DTD/svg11.dtd">
<!-- Generated by graphviz version 2.40.1 (20161225.0304)
 -->
<!-- Title: xla::ComputationBuilder::PrepareComputation Pages: 1 -->
<svg width="940pt" height="37pt"
 viewBox="0.00 0.00 939.88 37.00" xmlns="http://www.w3.org/2000/svg" xmlns:xlink="http://www.w3.org/1999/xlink">
<g id="graph0" class="graph" transform="scale(1 1) rotate(0) translate(4 33)">
<title>xla::ComputationBuilder::PrepareComputation</title>
<polygon fill="#ffffff" stroke="transparent" points="-4,4 -4,-33 935.8789,-33 935.8789,4 -4,4"/>
<!-- Node8 -->
<g id="node1" class="node">
<title>Node8</title>
<polygon fill="#bfbfbf" stroke="#000000" points="0,-.5 0,-28.5 122.167,-28.5 122.167,-.5 0,-.5"/>
<text text-anchor="start" x="8" y="-16.5" font-family="Helvetica,sans-Serif" font-size="10.00" fill="#000000">xla::ComputationBuilder</text>
<text text-anchor="middle" x="61.0835" y="-6.5" font-family="Helvetica,sans-Serif" font-size="10.00" fill="#000000">::PrepareComputation</text>
</g>
<!-- Node9 -->
<g id="node2" class="node">
<title>Node9</title>
<g id="a_node2"><a xlink:href="../../df/d1b/classxla_1_1ComputationBuilder.html#a7d2ff8c5c638378bb6fb998a71661d22" target="_top" xlink:title="Run the given parameter op_request and fill in op_response. ">
<polygon fill="#ffffff" stroke="#000000" points="158.167,-.5 158.167,-28.5 280.334,-28.5 280.334,-.5 158.167,-.5"/>
<text text-anchor="start" x="166.167" y="-16.5" font-family="Helvetica,sans-Serif" font-size="10.00" fill="#000000">xla::ComputationBuilder</text>
<text text-anchor="middle" x="219.2505" y="-6.5" font-family="Helvetica,sans-Serif" font-size="10.00" fill="#000000">::RunOp</text>
</a>
</g>
</g>
<!-- Node8&#45;&gt;Node9 -->
<g id="edge1" class="edge">
<title>Node8&#45;&gt;Node9</title>
<path fill="none" stroke="#191970" d="M132.2442,-14.5C140.8409,-14.5 149.5637,-14.5 158.0009,-14.5"/>
<polygon fill="#191970" stroke="#191970" points="132.235,-11.0001 122.235,-14.5 132.2349,-18.0001 132.235,-11.0001"/>
</g>
<!-- Node10 -->
<g id="node3" class="node">
<title>Node10</title>
<g id="a_node3"><a xlink:href="../../df/d1b/classxla_1_1ComputationBuilder.html#a584f43dacccc04122c79a7e4ad2770d0" target="_top" xlink:title="Call RunOp() and either return the output ComputationDataHandle (on success) or an empty ComputationD...">
<polygon fill="#ffffff" stroke="#000000" points="316.334,-.5 316.334,-28.5 458.5205,-28.5 458.5205,-.5 316.334,-.5"/>
<text text-anchor="start" x="324.334" y="-16.5" font-family="Helvetica,sans-Serif" font-size="10.00" fill="#000000">xla::ComputationBuilder</text>
<text text-anchor="middle" x="387.4272" y="-6.5" font-family="Helvetica,sans-Serif" font-size="10.00" fill="#000000">::RunOpAndParseResponse</text>
</a>
</g>
</g>
<!-- Node9&#45;&gt;Node10 -->
<g id="edge2" class="edge">
<title>Node9&#45;&gt;Node10</title>
<path fill="none" stroke="#191970" d="M290.6761,-14.5C299.1574,-14.5 307.8146,-14.5 316.2918,-14.5"/>
<polygon fill="#191970" stroke="#191970" points="290.4419,-11.0001 280.4419,-14.5 290.4419,-18.0001 290.4419,-11.0001"/>
</g>
<!-- Node11 -->
<g id="node4" class="node">
<title>Node11</title>
<g id="a_node4"><a xlink:href="../../df/d1b/classxla_1_1ComputationBuilder.html#a7312b57426afbc7bcb728307fc020869" target="_top" xlink:title="Enqueues a &quot;retrieve parameter value&quot; instruction to the UserComputation. ">
<polygon fill="#ffffff" stroke="#000000" points="494.5205,-.5 494.5205,-28.5 616.6875,-28.5 616.6875,-.5 494.5205,-.5"/>
<text text-anchor="start" x="502.5205" y="-16.5" font-family="Helvetica,sans-Serif" font-size="10.00" fill="#000000">xla::ComputationBuilder</text>
<text text-anchor="middle" x="555.604" y="-6.5" font-family="Helvetica,sans-Serif" font-size="10.00" fill="#000000">::Parameter</text>
</a>
</g>
</g>
<!-- Node10&#45;&gt;Node11 -->
<g id="edge3" class="edge">
<title>Node10&#45;&gt;Node11</title>
<path fill="none" stroke="#191970" d="M468.7804,-14.5C477.3586,-14.5 485.9747,-14.5 494.2712,-14.5"/>
<polygon fill="#191970" stroke="#191970" points="468.7494,-11.0001 458.7493,-14.5 468.7493,-18.0001 468.7494,-11.0001"/>
</g>
<!-- Node12 -->
<g id="node5" class="node">
<title>Node12</title>
<g id="a_node5"><a xlink:href="../../d7/dbf/classtensorflow_1_1XlaCompiler.html#af976233791194ab48c2512fdfac123ea" target="_top" xlink:title="Build XLA computations for each of the arguments to the UserComputation. ">
<polygon fill="#ffffff" stroke="#000000" points="652.6875,-.5 652.6875,-28.5 774.2832,-28.5 774.2832,-.5 652.6875,-.5"/>
<text text-anchor="start" x="660.6875" y="-16.5" font-family="Helvetica,sans-Serif" font-size="10.00" fill="#000000">tensorflow::XlaCompiler</text>
<text text-anchor="middle" x="713.4854" y="-6.5" font-family="Helvetica,sans-Serif" font-size="10.00" fill="#000000">::BuildArguments</text>
</a>
</g>
</g>
<!-- Node11&#45;&gt;Node12 -->
<g id="edge4" class="edge">
<title>Node11&#45;&gt;Node12</title>
<path fill="none" stroke="#191970" d="M627.3416,-14.5C635.8073,-14.5 644.3843,-14.5 652.679,-14.5"/>
<polygon fill="#191970" stroke="#191970" points="627.0972,-11.0001 617.0971,-14.5 627.0971,-18.0001 627.0972,-11.0001"/>
</g>
<!-- Node13 -->
<g id="node6" class="node">
<title>Node13</title>
<g id="a_node6"><a xlink:href="../../d7/dbf/classtensorflow_1_1XlaCompiler.html#ade5be3e41d2892412acb844070182858" target="_top" xlink:title="Compiles a tensorflow::Graph into an xla::Computation. ">
<polygon fill="#ffffff" stroke="#000000" points="810.2832,-.5 810.2832,-28.5 931.8789,-28.5 931.8789,-.5 810.2832,-.5"/>
<text text-anchor="start" x="818.2832" y="-16.5" font-family="Helvetica,sans-Serif" font-size="10.00" fill="#000000">tensorflow::XlaCompiler</text>
<text text-anchor="middle" x="871.0811" y="-6.5" font-family="Helvetica,sans-Serif" font-size="10.00" fill="#000000">::CompileGraph</text>
</a>
</g>
</g>
<!-- Node12&#45;&gt;Node13 -->
<g id="edge5" class="edge">
<title>Node12&#45;&gt;Node13</title>
<path fill="none" stroke="#191970" d="M784.6683,-14.5C793.1435,-14.5 801.7374,-14.5 810.0527,-14.5"/>
<polygon fill="#191970" stroke="#191970" points="784.416,-11.0001 774.416,-14.5 784.4159,-18.0001 784.416,-11.0001"/>
</g>
</g>
</svg>
