<?xml version="1.0" encoding="UTF-8" standalone="no"?>
<!DOCTYPE svg PUBLIC "-//W3C//DTD SVG 1.1//EN"
 "http://www.w3.org/Graphics/SVG/1.1/DTD/svg11.dtd">
<!-- Generated by graphviz version 2.40.1 (20161225.0304)
 -->
<!-- Title: xla::ComputationBuilder::Reshape Pages: 1 -->
<!--zoomable 214 -->
<svg id="main" version="1.1" xmlns="http://www.w3.org/2000/svg" xmlns:xlink="http://www.w3.org/1999/xlink" xml:space="preserve" onload="init(evt)">
<style type="text/css"><![CDATA[
.edge:hover path { stroke: red; }
.edge:hover polygon { stroke: red; fill: red; }
]]></style>
<script type="text/javascript"><![CDATA[
var edges = document.getElementsByTagName('g');
if (edges && edges.length) {
  for (var i=0;i<edges.length;i++) {
    if (edges[i].id.substr(0,4)=='edge') {
      edges[i].setAttribute('class','edge');
    }
  }
}
]]></script>
        <defs>
                <circle id="rim" cx="0" cy="0" r="7"/>
                <circle id="rim2" cx="0" cy="0" r="3.5"/>
                <g id="zoomPlus">
                        <use xlink:href="#rim" fill="#404040">
                                <set attributeName="fill" to="#808080" begin="zoomplus.mouseover" end="zoomplus.mouseout"/>
                        </use>
                        <path d="M-4,0h8M0,-4v8" fill="none" stroke="white" stroke-width="1.5" pointer-events="none"/>
                </g>
                <g id="zoomMin">
                        <use xlink:href="#rim" fill="#404040">
                                <set attributeName="fill" to="#808080" begin="zoomminus.mouseover" end="zoomminus.mouseout"/>
                        </use>
                        <path d="M-4,0h8" fill="none" stroke="white" stroke-width="1.5" pointer-events="none"/>
                </g>
                <g id="dirArrow">
                        <path fill="none" stroke="white" stroke-width="1.5" d="M0,-3.0v7 M-2.5,-0.5L0,-3.0L2.5,-0.5"/>
                </g>
               <g id="resetDef">
                       <use xlink:href="#rim2" fill="#404040">
                               <set attributeName="fill" to="#808080" begin="reset.mouseover" end="reset.mouseout"/>
                       </use>
               </g>
        </defs>

<script type="text/javascript">
var viewWidth = 935;
var viewHeight = 214;
var sectionId = 'dynsection-118';
</script>
<script xlink:href="../../svgpan.js"/>
<svg id="graph" class="graph">
<g id="viewport">
<title>xla::ComputationBuilder::Reshape</title>
<polygon fill="#ffffff" stroke="transparent" points="-4,4 -4,-210 931,-210 931,4 -4,4"/>
<!-- Node1244 -->
<g id="node1" class="node">
<title>Node1244</title>
<polygon fill="#bfbfbf" stroke="#000000" points="0,-109.5 0,-139.5 121,-139.5 121,-109.5 0,-109.5"/>
<text text-anchor="start" x="8" y="-127.5" font-family="Helvetica,sans-Serif" font-size="10.00" fill="#000000">xla::ComputationBuilder</text>
<text text-anchor="middle" x="60.5" y="-116.5" font-family="Helvetica,sans-Serif" font-size="10.00" fill="#000000">::Reshape</text>
</g>
<!-- Node1245 -->
<g id="node2" class="node">
<title>Node1245</title>
<g id="a_node2"><a xlink:href="../../df/d1b/classxla_1_1ComputationBuilder.html#a802577eb94272bfc6b2b7684b8a2ad85" target="_top" xlink:title="xla::ComputationBuilder\l::GetShape">
<polygon fill="#ffffff" stroke="#000000" points="157,-134.5 157,-164.5 278,-164.5 278,-134.5 157,-134.5"/>
<text text-anchor="start" x="165" y="-152.5" font-family="Helvetica,sans-Serif" font-size="10.00" fill="#000000">xla::ComputationBuilder</text>
<text text-anchor="middle" x="217.5" y="-141.5" font-family="Helvetica,sans-Serif" font-size="10.00" fill="#000000">::GetShape</text>
</a>
</g>
</g>
<!-- Node1244&#45;&gt;Node1245 -->
<g id="edge1" class="edge">
<title>Node1244&#45;&gt;Node1245</title>
<path fill="none" stroke="#191970" d="M121.2003,-134.1657C129.635,-135.5088 138.3591,-136.898 146.9547,-138.2667"/>
<polygon fill="#191970" stroke="#191970" points="146.5351,-141.7439 156.9611,-139.8601 147.636,-134.831 146.5351,-141.7439"/>
</g>
<!-- Node1248 -->
<g id="node5" class="node">
<title>Node1248</title>
<g id="a_node5"><a xlink:href="../../df/d1b/classxla_1_1ComputationBuilder.html#a87f767638d41fa46bd3be83e7e269c29" target="_top" xlink:title="xla::ComputationBuilder\l::Reshape">
<polygon fill="#ffffff" stroke="#000000" points="157,-85.5 157,-115.5 278,-115.5 278,-85.5 157,-85.5"/>
<text text-anchor="start" x="165" y="-103.5" font-family="Helvetica,sans-Serif" font-size="10.00" fill="#000000">xla::ComputationBuilder</text>
<text text-anchor="middle" x="217.5" y="-92.5" font-family="Helvetica,sans-Serif" font-size="10.00" fill="#000000">::Reshape</text>
</a>
</g>
</g>
<!-- Node1244&#45;&gt;Node1248 -->
<g id="edge4" class="edge">
<title>Node1244&#45;&gt;Node1248</title>
<path fill="none" stroke="#191970" d="M121.2003,-115.221C129.635,-113.9316 138.3591,-112.598 146.9547,-111.284"/>
<polygon fill="#191970" stroke="#191970" points="147.6049,-114.7254 156.9611,-109.7543 146.547,-107.8057 147.6049,-114.7254"/>
</g>
<!-- Node1246 -->
<g id="node3" class="node">
<title>Node1246</title>
<g id="a_node3"><a xlink:href="../../df/d1b/classxla_1_1ComputationBuilder.html#a3cc9e4cb9e38733572e7153a1931b19f" target="_top" xlink:title="xla::ComputationBuilder\l::GetShapeWithoutNoteError">
<polygon fill="#ffffff" stroke="#000000" points="314,-175.5 314,-205.5 456,-205.5 456,-175.5 314,-175.5"/>
<text text-anchor="start" x="322" y="-193.5" font-family="Helvetica,sans-Serif" font-size="10.00" fill="#000000">xla::ComputationBuilder</text>
<text text-anchor="middle" x="385" y="-182.5" font-family="Helvetica,sans-Serif" font-size="10.00" fill="#000000">::GetShapeWithoutNoteError</text>
</a>
</g>
</g>
<!-- Node1245&#45;&gt;Node1246 -->
<g id="edge2" class="edge">
<title>Node1245&#45;&gt;Node1246</title>
<path fill="none" stroke="#191970" d="M278.4452,-164.4179C289.9184,-167.2263 302.0098,-170.186 313.7646,-173.0633"/>
<polygon fill="#191970" stroke="#191970" points="312.9931,-176.4777 323.5386,-175.4557 314.6575,-169.6784 312.9931,-176.4777"/>
</g>
<!-- Node1247 -->
<g id="node4" class="node">
<title>Node1247</title>
<g id="a_node4"><a xlink:href="../../df/d1b/classxla_1_1ComputationBuilder.html#a787b5fd4e96b9c918b7d0d73704f0d57" target="_top" xlink:title="xla::ComputationBuilder\l::NoteError">
<polygon fill="#ffffff" stroke="#000000" points="806,-93.5 806,-123.5 927,-123.5 927,-93.5 806,-93.5"/>
<text text-anchor="start" x="814" y="-111.5" font-family="Helvetica,sans-Serif" font-size="10.00" fill="#000000">xla::ComputationBuilder</text>
<text text-anchor="middle" x="866.5" y="-100.5" font-family="Helvetica,sans-Serif" font-size="10.00" fill="#000000">::NoteError</text>
</a>
</g>
</g>
<!-- Node1245&#45;&gt;Node1247 -->
<g id="edge3" class="edge">
<title>Node1245&#45;&gt;Node1247</title>
<path fill="none" stroke="#191970" d="M278.0978,-147.7326C379.88,-144.4473 591.5571,-136.2578 770,-120.5 778.3402,-119.7635 787.0706,-118.862 795.727,-117.8871"/>
<polygon fill="#191970" stroke="#191970" points="796.2975,-121.3444 805.8271,-116.7143 795.4901,-114.3912 796.2975,-121.3444"/>
</g>
<!-- Node1249 -->
<g id="node6" class="node">
<title>Node1249</title>
<g id="a_node6"><a xlink:href="../../df/d1b/classxla_1_1ComputationBuilder.html#a584f43dacccc04122c79a7e4ad2770d0" target="_top" xlink:title="Call RunOp() and either return the output ComputationDataHandle (on success) or an empty ComputationD...">
<polygon fill="#ffffff" stroke="#000000" points="315,-85.5 315,-115.5 455,-115.5 455,-85.5 315,-85.5"/>
<text text-anchor="start" x="323" y="-103.5" font-family="Helvetica,sans-Serif" font-size="10.00" fill="#000000">xla::ComputationBuilder</text>
<text text-anchor="middle" x="385" y="-92.5" font-family="Helvetica,sans-Serif" font-size="10.00" fill="#000000">::RunOpAndParseResponse</text>
</a>
</g>
</g>
<!-- Node1248&#45;&gt;Node1249 -->
<g id="edge5" class="edge">
<title>Node1248&#45;&gt;Node1249</title>
<path fill="none" stroke="#191970" d="M278.4452,-100.5C286.9164,-100.5 295.7245,-100.5 304.4854,-100.5"/>
<polygon fill="#191970" stroke="#191970" points="304.7252,-104.0001 314.7252,-100.5 304.7251,-97.0001 304.7252,-104.0001"/>
</g>
<!-- Node1249&#45;&gt;Node1247 -->
<g id="edge10" class="edge">
<title>Node1249&#45;&gt;Node1247</title>
<path fill="none" stroke="#191970" d="M455.0142,-101.6633C546.055,-103.1759 704.2072,-105.8035 795.6544,-107.3229"/>
<polygon fill="#191970" stroke="#191970" points="795.8657,-110.8268 805.9225,-107.4935 795.9821,-103.8278 795.8657,-110.8268"/>
</g>
<!-- Node1250 -->
<g id="node7" class="node">
<title>Node1250</title>
<g id="a_node7"><a xlink:href="../../df/d1b/classxla_1_1ComputationBuilder.html#a7d2ff8c5c638378bb6fb998a71661d22" target="_top" xlink:title="Run the given parameter op_request and fill in op_response. ">
<polygon fill="#ffffff" stroke="#000000" points="492,-49.5 492,-79.5 613,-79.5 613,-49.5 492,-49.5"/>
<text text-anchor="start" x="500" y="-67.5" font-family="Helvetica,sans-Serif" font-size="10.00" fill="#000000">xla::ComputationBuilder</text>
<text text-anchor="middle" x="552.5" y="-56.5" font-family="Helvetica,sans-Serif" font-size="10.00" fill="#000000">::RunOp</text>
</a>
</g>
</g>
<!-- Node1249&#45;&gt;Node1250 -->
<g id="edge6" class="edge">
<title>Node1249&#45;&gt;Node1250</title>
<path fill="none" stroke="#191970" d="M455.0646,-85.4413C463.9228,-83.5375 472.991,-81.5885 481.8582,-79.6827"/>
<polygon fill="#191970" stroke="#191970" points="482.7209,-83.0773 491.7622,-77.5541 481.25,-76.2336 482.7209,-83.0773"/>
</g>
<!-- Node1251 -->
<g id="node8" class="node">
<title>Node1251</title>
<g id="a_node8"><a xlink:href="../../df/d1b/classxla_1_1ComputationBuilder.html#af5ca3f8bbbe525f593293b55df772f1a" target="_top" xlink:title="Populates computation_ with a valid object. Used before any given operation is enqueued. ">
<polygon fill="#ffffff" stroke="#000000" points="649,-49.5 649,-79.5 770,-79.5 770,-49.5 649,-49.5"/>
<text text-anchor="start" x="657" y="-67.5" font-family="Helvetica,sans-Serif" font-size="10.00" fill="#000000">xla::ComputationBuilder</text>
<text text-anchor="middle" x="709.5" y="-56.5" font-family="Helvetica,sans-Serif" font-size="10.00" fill="#000000">::PrepareComputation</text>
</a>
</g>
</g>
<!-- Node1250&#45;&gt;Node1251 -->
<g id="edge7" class="edge">
<title>Node1250&#45;&gt;Node1251</title>
<path fill="none" stroke="#191970" d="M613.2003,-64.5C621.635,-64.5 630.3591,-64.5 638.9547,-64.5"/>
<polygon fill="#191970" stroke="#191970" points="638.9612,-68.0001 648.9611,-64.5 638.9611,-61.0001 638.9612,-68.0001"/>
</g>
<!-- Node1252 -->
<g id="node9" class="node">
<title>Node1252</title>
<g id="a_node9"><a xlink:href="../../df/d1b/classxla_1_1ComputationBuilder.html#a2def8246d1c1829a85e095a84e364bca" target="_top" xlink:title="xla::ComputationBuilder\l::name">
<polygon fill="#ffffff" stroke="#000000" points="649,-.5 649,-30.5 770,-30.5 770,-.5 649,-.5"/>
<text text-anchor="start" x="657" y="-18.5" font-family="Helvetica,sans-Serif" font-size="10.00" fill="#000000">xla::ComputationBuilder</text>
<text text-anchor="middle" x="709.5" y="-7.5" font-family="Helvetica,sans-Serif" font-size="10.00" fill="#000000">::name</text>
</a>
</g>
</g>
<!-- Node1250&#45;&gt;Node1252 -->
<g id="edge9" class="edge">
<title>Node1250&#45;&gt;Node1252</title>
<path fill="none" stroke="#191970" d="M600.8862,-49.3986C616.9287,-44.3917 634.9488,-38.7676 651.631,-33.561"/>
<polygon fill="#191970" stroke="#191970" points="652.7704,-36.872 661.2735,-30.5516 650.6849,-30.1899 652.7704,-36.872"/>
</g>
<!-- Node1251&#45;&gt;Node1247 -->
<g id="edge8" class="edge">
<title>Node1251&#45;&gt;Node1247</title>
<path fill="none" stroke="#191970" d="M763.0914,-79.5192C775.9039,-83.11 789.7041,-86.9776 802.9187,-90.681"/>
<polygon fill="#191970" stroke="#191970" points="802.3102,-94.1453 812.8838,-93.4738 804.1993,-87.405 802.3102,-94.1453"/>
</g>
</g>
</svg>
        <g id="navigator" transform="translate(0 0)" fill="#404254">
                <rect fill="#f2f5e9" fill-opacity="0.5" stroke="#606060" stroke-width=".5" x="0" y="0" width="60" height="60"/>
                <use id="zoomplus" xlink:href="#zoomPlus" x="17" y="9" onmousedown="handleZoom(evt,'in')"/>
                <use id="zoomminus" xlink:href="#zoomMin" x="42" y="9" onmousedown="handleZoom(evt,'out')"/>
                <use id="reset" xlink:href="#resetDef" x="30" y="36" onmousedown="handleReset()"/>
                <g id="arrowUp" xlink:href="#dirArrow" transform="translate(30 24)" onmousedown="handlePan(0,-1)">
                  <use xlink:href="#rim" fill="#404040">
                        <set attributeName="fill" to="#808080" begin="arrowUp.mouseover" end="arrowUp.mouseout"/>
                  </use>
                  <path fill="none" stroke="white" stroke-width="1.5" d="M0,-3.0v7 M-2.5,-0.5L0,-3.0L2.5,-0.5"/>
                </g>
                <g id="arrowRight" xlink:href="#dirArrow" transform="rotate(90) translate(36 -43)" onmousedown="handlePan(1,0)">
                  <use xlink:href="#rim" fill="#404040">
                        <set attributeName="fill" to="#808080" begin="arrowRight.mouseover" end="arrowRight.mouseout"/>
                  </use>
                  <path fill="none" stroke="white" stroke-width="1.5" d="M0,-3.0v7 M-2.5,-0.5L0,-3.0L2.5,-0.5"/>
                </g>
                <g id="arrowDown" xlink:href="#dirArrow" transform="rotate(180) translate(-30 -48)" onmousedown="handlePan(0,1)">
                  <use xlink:href="#rim" fill="#404040">
                        <set attributeName="fill" to="#808080" begin="arrowDown.mouseover" end="arrowDown.mouseout"/>
                  </use>
                  <path fill="none" stroke="white" stroke-width="1.5" d="M0,-3.0v7 M-2.5,-0.5L0,-3.0L2.5,-0.5"/>
                </g>
                <g id="arrowLeft" xlink:href="#dirArrow" transform="rotate(270) translate(-36 17)" onmousedown="handlePan(-1,0)">
                  <use xlink:href="#rim" fill="#404040">
                        <set attributeName="fill" to="#808080" begin="arrowLeft.mouseover" end="arrowLeft.mouseout"/>
                  </use>
                  <path fill="none" stroke="white" stroke-width="1.5" d="M0,-3.0v7 M-2.5,-0.5L0,-3.0L2.5,-0.5"/>
                </g>
        </g>
        <svg viewBox="0 0 15 15" width="100%" height="30px" preserveAspectRatio="xMaxYMin meet">
         <g id="arrow_out" transform="scale(0.3 0.3)">
          <a xlink:href="classxla_1_1ComputationBuilder_ad18750c7d0a37ad374b60fd3ac97f530_cgraph_org.svg" target="_base">
           <rect id="button" ry="5" rx="5" y="6" x="6" height="38" width="38"
                fill="#f2f5e9" fill-opacity="0.5" stroke="#606060" stroke-width="1.0"/>
           <path id="arrow"
             d="M 11.500037,31.436501 C 11.940474,20.09759 22.043105,11.32322 32.158766,21.979434 L 37.068811,17.246167 C 37.068811,17.246167 37.088388,32 37.088388,32 L 22.160133,31.978069 C 22.160133,31.978069 26.997745,27.140456 26.997745,27.140456 C 18.528582,18.264221 13.291696,25.230495 11.500037,31.436501 z"
             style="fill:#404040;"/>
          </a>
         </g>
        </svg>
</svg>
