<?xml version="1.0" encoding="UTF-8" standalone="no"?>
<!DOCTYPE svg PUBLIC "-//W3C//DTD SVG 1.1//EN"
 "http://www.w3.org/Graphics/SVG/1.1/DTD/svg11.dtd">
<!-- Generated by graphviz version 2.40.1 (20161225.0304)
 -->
<!-- Title: xla::ComputationBuilder::ConvGeneralDilated Pages: 1 -->
<svg width="631pt" height="88pt"
 viewBox="0.00 0.00 631.00 88.00" xmlns="http://www.w3.org/2000/svg" xmlns:xlink="http://www.w3.org/1999/xlink">
<g id="graph0" class="graph" transform="scale(1 1) rotate(0) translate(4 84)">
<title>xla::ComputationBuilder::ConvGeneralDilated</title>
<polygon fill="#ffffff" stroke="transparent" points="-4,4 -4,-84 627,-84 627,4 -4,4"/>
<!-- Node390 -->
<g id="node1" class="node">
<title>Node390</title>
<polygon fill="#bfbfbf" stroke="#000000" points="0,-24.5 0,-54.5 121,-54.5 121,-24.5 0,-24.5"/>
<text text-anchor="start" x="8" y="-42.5" font-family="Helvetica,sans-Serif" font-size="10.00" fill="#000000">xla::ComputationBuilder</text>
<text text-anchor="middle" x="60.5" y="-31.5" font-family="Helvetica,sans-Serif" font-size="10.00" fill="#000000">::ConvGeneralDilated</text>
</g>
<!-- Node391 -->
<g id="node2" class="node">
<title>Node391</title>
<g id="a_node2"><a xlink:href="../../df/d1b/classxla_1_1ComputationBuilder.html#a012fb04362bae1bd7d7ecdb469cbd6c1" target="_top" xlink:title="xla::ComputationBuilder\l::ConvGeneral">
<polygon fill="#ffffff" stroke="#000000" points="157,-24.5 157,-54.5 278,-54.5 278,-24.5 157,-24.5"/>
<text text-anchor="start" x="165" y="-42.5" font-family="Helvetica,sans-Serif" font-size="10.00" fill="#000000">xla::ComputationBuilder</text>
<text text-anchor="middle" x="217.5" y="-31.5" font-family="Helvetica,sans-Serif" font-size="10.00" fill="#000000">::ConvGeneral</text>
</a>
</g>
</g>
<!-- Node390&#45;&gt;Node391 -->
<g id="edge1" class="edge">
<title>Node390&#45;&gt;Node391</title>
<path fill="none" stroke="#191970" d="M131.2098,-39.5C139.807,-39.5 148.5301,-39.5 156.9611,-39.5"/>
<polygon fill="#191970" stroke="#191970" points="131.2003,-36.0001 121.2003,-39.5 131.2003,-43.0001 131.2003,-36.0001"/>
</g>
<!-- Node392 -->
<g id="node3" class="node">
<title>Node392</title>
<g id="a_node3"><a xlink:href="../../df/d1b/classxla_1_1ComputationBuilder.html#aa55e6967d685a12315126f80a2daf1f7" target="_top" xlink:title="xla::ComputationBuilder\l::ConvWithGeneralPadding">
<polygon fill="#ffffff" stroke="#000000" points="322.5,-49.5 322.5,-79.5 457.5,-79.5 457.5,-49.5 322.5,-49.5"/>
<text text-anchor="start" x="330.5" y="-67.5" font-family="Helvetica,sans-Serif" font-size="10.00" fill="#000000">xla::ComputationBuilder</text>
<text text-anchor="middle" x="390" y="-56.5" font-family="Helvetica,sans-Serif" font-size="10.00" fill="#000000">::ConvWithGeneralPadding</text>
</a>
</g>
</g>
<!-- Node391&#45;&gt;Node392 -->
<g id="edge2" class="edge">
<title>Node391&#45;&gt;Node392</title>
<path fill="none" stroke="#191970" d="M288.488,-49.7881C299.6965,-51.4125 311.2602,-53.0884 322.3891,-54.7013"/>
<polygon fill="#191970" stroke="#191970" points="288.7157,-46.2846 278.317,-48.3141 287.7116,-53.2123 288.7157,-46.2846"/>
</g>
<!-- Node393 -->
<g id="node4" class="node">
<title>Node393</title>
<g id="a_node4"><a xlink:href="../../df/d1b/classxla_1_1ComputationBuilder.html#a2e01c5667c341089ea9128d44e77ebf9" target="_top" xlink:title="xla::ComputationBuilder\l::ConvWithGeneralDimensions">
<polygon fill="#ffffff" stroke="#000000" points="314,-.5 314,-30.5 466,-30.5 466,-.5 314,-.5"/>
<text text-anchor="start" x="322" y="-18.5" font-family="Helvetica,sans-Serif" font-size="10.00" fill="#000000">xla::ComputationBuilder</text>
<text text-anchor="middle" x="390" y="-7.5" font-family="Helvetica,sans-Serif" font-size="10.00" fill="#000000">::ConvWithGeneralDimensions</text>
</a>
</g>
</g>
<!-- Node391&#45;&gt;Node393 -->
<g id="edge3" class="edge">
<title>Node391&#45;&gt;Node393</title>
<path fill="none" stroke="#191970" d="M288.3853,-29.6377C296.7384,-28.4755 305.29,-27.2857 313.7132,-26.1138"/>
<polygon fill="#191970" stroke="#191970" points="287.7393,-26.1938 278.317,-31.0385 288.704,-33.127 287.7393,-26.1938"/>
</g>
<!-- Node394 -->
<g id="node5" class="node">
<title>Node394</title>
<g id="a_node5"><a xlink:href="../../df/d1b/classxla_1_1ComputationBuilder.html#a13498be4f12312e0026157948442eb96" target="_top" xlink:title="xla::ComputationBuilder\l::Conv">
<polygon fill="#ffffff" stroke="#000000" points="502,-.5 502,-30.5 623,-30.5 623,-.5 502,-.5"/>
<text text-anchor="start" x="510" y="-18.5" font-family="Helvetica,sans-Serif" font-size="10.00" fill="#000000">xla::ComputationBuilder</text>
<text text-anchor="middle" x="562.5" y="-7.5" font-family="Helvetica,sans-Serif" font-size="10.00" fill="#000000">::Conv</text>
</a>
</g>
</g>
<!-- Node393&#45;&gt;Node394 -->
<g id="edge4" class="edge">
<title>Node393&#45;&gt;Node394</title>
<path fill="none" stroke="#191970" d="M476.2564,-15.5C484.8719,-15.5 493.4873,-15.5 501.7588,-15.5"/>
<polygon fill="#191970" stroke="#191970" points="476.1632,-12.0001 466.1631,-15.5 476.1631,-19.0001 476.1632,-12.0001"/>
</g>
</g>
</svg>
