<?xml version="1.0" encoding="UTF-8" standalone="no"?>
<!DOCTYPE svg PUBLIC "-//W3C//DTD SVG 1.1//EN"
 "http://www.w3.org/Graphics/SVG/1.1/DTD/svg11.dtd">
<!-- Generated by graphviz version 2.40.1 (20161225.0304)
 -->
<!-- Title: xla::ComputationBuilder::ReduceWindowWithGeneralPadding Pages: 1 -->
<svg width="836pt" height="214pt"
 viewBox="0.00 0.00 836.00 214.00" xmlns="http://www.w3.org/2000/svg" xmlns:xlink="http://www.w3.org/1999/xlink">
<g id="graph0" class="graph" transform="scale(1 1) rotate(0) translate(4 210)">
<title>xla::ComputationBuilder::ReduceWindowWithGeneralPadding</title>
<polygon fill="#ffffff" stroke="transparent" points="-4,4 -4,-210 832,-210 832,4 -4,4"/>
<!-- Node1218 -->
<g id="node1" class="node">
<title>Node1218</title>
<polygon fill="#bfbfbf" stroke="#000000" points="0,-131.5 0,-161.5 181,-161.5 181,-131.5 0,-131.5"/>
<text text-anchor="start" x="8" y="-149.5" font-family="Helvetica,sans-Serif" font-size="10.00" fill="#000000">xla::ComputationBuilder</text>
<text text-anchor="middle" x="90.5" y="-138.5" font-family="Helvetica,sans-Serif" font-size="10.00" fill="#000000">::ReduceWindowWithGeneralPadding</text>
</g>
<!-- Node1219 -->
<g id="node2" class="node">
<title>Node1219</title>
<g id="a_node2"><a xlink:href="../../df/d1b/classxla_1_1ComputationBuilder.html#ac7d7dca366ed62647e192ad629aad835" target="_top" xlink:title="xla::ComputationBuilder\l::MakeWindow">
<polygon fill="#ffffff" stroke="#000000" points="393,-175.5 393,-205.5 514,-205.5 514,-175.5 393,-175.5"/>
<text text-anchor="start" x="401" y="-193.5" font-family="Helvetica,sans-Serif" font-size="10.00" fill="#000000">xla::ComputationBuilder</text>
<text text-anchor="middle" x="453.5" y="-182.5" font-family="Helvetica,sans-Serif" font-size="10.00" fill="#000000">::MakeWindow</text>
</a>
</g>
</g>
<!-- Node1218&#45;&gt;Node1219 -->
<g id="edge1" class="edge">
<title>Node1218&#45;&gt;Node1219</title>
<path fill="none" stroke="#191970" d="M181.1638,-157.4896C243.5659,-165.0534 325.2695,-174.9569 382.8498,-181.9363"/>
<polygon fill="#191970" stroke="#191970" points="382.6026,-185.4319 392.9511,-183.1607 383.445,-178.4828 382.6026,-185.4319"/>
</g>
<!-- Node1220 -->
<g id="node3" class="node">
<title>Node1220</title>
<g id="a_node3"><a xlink:href="../../df/d1b/classxla_1_1ComputationBuilder.html#a787b5fd4e96b9c918b7d0d73704f0d57" target="_top" xlink:title="xla::ComputationBuilder\l::NoteError">
<polygon fill="#ffffff" stroke="#000000" points="707,-112.5 707,-142.5 828,-142.5 828,-112.5 707,-112.5"/>
<text text-anchor="start" x="715" y="-130.5" font-family="Helvetica,sans-Serif" font-size="10.00" fill="#000000">xla::ComputationBuilder</text>
<text text-anchor="middle" x="767.5" y="-119.5" font-family="Helvetica,sans-Serif" font-size="10.00" fill="#000000">::NoteError</text>
</a>
</g>
</g>
<!-- Node1218&#45;&gt;Node1220 -->
<g id="edge3" class="edge">
<title>Node1218&#45;&gt;Node1220</title>
<path fill="none" stroke="#191970" d="M181.019,-145.0916C295.245,-143.136 497.7306,-139.077 671,-132.5 679.3138,-132.1844 688.0281,-131.8035 696.6756,-131.3943"/>
<polygon fill="#191970" stroke="#191970" points="696.9502,-134.8852 706.7683,-130.9033 696.61,-127.8935 696.9502,-134.8852"/>
</g>
<!-- Node1221 -->
<g id="node4" class="node">
<title>Node1221</title>
<g id="a_node4"><a xlink:href="../../df/d1b/classxla_1_1ComputationBuilder.html#a584f43dacccc04122c79a7e4ad2770d0" target="_top" xlink:title="Call RunOp() and either return the output ComputationDataHandle (on success) or an empty ComputationD...">
<polygon fill="#ffffff" stroke="#000000" points="217,-87.5 217,-117.5 357,-117.5 357,-87.5 217,-87.5"/>
<text text-anchor="start" x="225" y="-105.5" font-family="Helvetica,sans-Serif" font-size="10.00" fill="#000000">xla::ComputationBuilder</text>
<text text-anchor="middle" x="287" y="-94.5" font-family="Helvetica,sans-Serif" font-size="10.00" fill="#000000">::RunOpAndParseResponse</text>
</a>
</g>
</g>
<!-- Node1218&#45;&gt;Node1221 -->
<g id="edge4" class="edge">
<title>Node1218&#45;&gt;Node1221</title>
<path fill="none" stroke="#191970" d="M157.5746,-131.4808C174.3967,-127.714 192.5792,-123.6426 209.8489,-119.7756"/>
<polygon fill="#191970" stroke="#191970" points="210.9008,-123.1268 219.8943,-117.5262 209.3712,-116.2959 210.9008,-123.1268"/>
</g>
<!-- Node1219&#45;&gt;Node1220 -->
<g id="edge2" class="edge">
<title>Node1219&#45;&gt;Node1220</title>
<path fill="none" stroke="#191970" d="M514.0834,-185.2991C558.0395,-180.7637 618.7096,-172.9247 671,-160.5 686.968,-156.7058 704.0244,-151.3327 719.2874,-146.0215"/>
<polygon fill="#191970" stroke="#191970" points="720.7796,-149.2057 729.029,-142.5575 718.4342,-142.6103 720.7796,-149.2057"/>
</g>
<!-- Node1221&#45;&gt;Node1220 -->
<g id="edge9" class="edge">
<title>Node1221&#45;&gt;Node1220</title>
<path fill="none" stroke="#191970" d="M357.1259,-106.1486C447.9199,-110.8725 605.2901,-119.0604 696.5061,-123.8062"/>
<polygon fill="#191970" stroke="#191970" points="696.5816,-127.3148 706.75,-124.3392 696.9453,-120.3243 696.5816,-127.3148"/>
</g>
<!-- Node1222 -->
<g id="node5" class="node">
<title>Node1222</title>
<g id="a_node5"><a xlink:href="../../df/d1b/classxla_1_1ComputationBuilder.html#a7d2ff8c5c638378bb6fb998a71661d22" target="_top" xlink:title="Run the given parameter op_request and fill in op_response. ">
<polygon fill="#ffffff" stroke="#000000" points="393,-49.5 393,-79.5 514,-79.5 514,-49.5 393,-49.5"/>
<text text-anchor="start" x="401" y="-67.5" font-family="Helvetica,sans-Serif" font-size="10.00" fill="#000000">xla::ComputationBuilder</text>
<text text-anchor="middle" x="453.5" y="-56.5" font-family="Helvetica,sans-Serif" font-size="10.00" fill="#000000">::RunOp</text>
</a>
</g>
</g>
<!-- Node1221&#45;&gt;Node1222 -->
<g id="edge5" class="edge">
<title>Node1221&#45;&gt;Node1222</title>
<path fill="none" stroke="#191970" d="M352.8052,-87.4814C362.6903,-85.2253 372.919,-82.8909 382.8994,-80.6131"/>
<polygon fill="#191970" stroke="#191970" points="383.8045,-83.9966 392.775,-78.3592 382.2469,-77.172 383.8045,-83.9966"/>
</g>
<!-- Node1223 -->
<g id="node6" class="node">
<title>Node1223</title>
<g id="a_node6"><a xlink:href="../../df/d1b/classxla_1_1ComputationBuilder.html#af5ca3f8bbbe525f593293b55df772f1a" target="_top" xlink:title="Populates computation_ with a valid object. Used before any given operation is enqueued. ">
<polygon fill="#ffffff" stroke="#000000" points="550,-49.5 550,-79.5 671,-79.5 671,-49.5 550,-49.5"/>
<text text-anchor="start" x="558" y="-67.5" font-family="Helvetica,sans-Serif" font-size="10.00" fill="#000000">xla::ComputationBuilder</text>
<text text-anchor="middle" x="610.5" y="-56.5" font-family="Helvetica,sans-Serif" font-size="10.00" fill="#000000">::PrepareComputation</text>
</a>
</g>
</g>
<!-- Node1222&#45;&gt;Node1223 -->
<g id="edge6" class="edge">
<title>Node1222&#45;&gt;Node1223</title>
<path fill="none" stroke="#191970" d="M514.2003,-64.5C522.635,-64.5 531.3591,-64.5 539.9547,-64.5"/>
<polygon fill="#191970" stroke="#191970" points="539.9612,-68.0001 549.9611,-64.5 539.9611,-61.0001 539.9612,-68.0001"/>
</g>
<!-- Node1224 -->
<g id="node7" class="node">
<title>Node1224</title>
<g id="a_node7"><a xlink:href="../../df/d1b/classxla_1_1ComputationBuilder.html#a2def8246d1c1829a85e095a84e364bca" target="_top" xlink:title="xla::ComputationBuilder\l::name">
<polygon fill="#ffffff" stroke="#000000" points="550,-.5 550,-30.5 671,-30.5 671,-.5 550,-.5"/>
<text text-anchor="start" x="558" y="-18.5" font-family="Helvetica,sans-Serif" font-size="10.00" fill="#000000">xla::ComputationBuilder</text>
<text text-anchor="middle" x="610.5" y="-7.5" font-family="Helvetica,sans-Serif" font-size="10.00" fill="#000000">::name</text>
</a>
</g>
</g>
<!-- Node1222&#45;&gt;Node1224 -->
<g id="edge8" class="edge">
<title>Node1222&#45;&gt;Node1224</title>
<path fill="none" stroke="#191970" d="M501.8862,-49.3986C517.9287,-44.3917 535.9488,-38.7676 552.631,-33.561"/>
<polygon fill="#191970" stroke="#191970" points="553.7704,-36.872 562.2735,-30.5516 551.6849,-30.1899 553.7704,-36.872"/>
</g>
<!-- Node1223&#45;&gt;Node1220 -->
<g id="edge7" class="edge">
<title>Node1223&#45;&gt;Node1220</title>
<path fill="none" stroke="#191970" d="M648.1054,-79.5901C669.8722,-88.3245 697.4589,-99.3943 720.6304,-108.6924"/>
<polygon fill="#191970" stroke="#191970" points="719.3455,-111.9481 729.9297,-112.424 721.9524,-105.4516 719.3455,-111.9481"/>
</g>
</g>
</svg>
