<?xml version="1.0" encoding="UTF-8" standalone="no"?>
<!DOCTYPE svg PUBLIC "-//W3C//DTD SVG 1.1//EN"
 "http://www.w3.org/Graphics/SVG/1.1/DTD/svg11.dtd">
<!-- Generated by graphviz version 2.40.1 (20161225.0304)
 -->
<!-- Title: xla::ComputationBuilder::ConvGeneral Pages: 1 -->
<svg width="474pt" height="88pt"
 viewBox="0.00 0.00 474.00 88.00" xmlns="http://www.w3.org/2000/svg" xmlns:xlink="http://www.w3.org/1999/xlink">
<g id="graph0" class="graph" transform="scale(1 1) rotate(0) translate(4 84)">
<title>xla::ComputationBuilder::ConvGeneral</title>
<polygon fill="#ffffff" stroke="transparent" points="-4,4 -4,-84 470,-84 470,4 -4,4"/>
<!-- Node376 -->
<g id="node1" class="node">
<title>Node376</title>
<polygon fill="#bfbfbf" stroke="#000000" points="0,-24.5 0,-54.5 121,-54.5 121,-24.5 0,-24.5"/>
<text text-anchor="start" x="8" y="-42.5" font-family="Helvetica,sans-Serif" font-size="10.00" fill="#000000">xla::ComputationBuilder</text>
<text text-anchor="middle" x="60.5" y="-31.5" font-family="Helvetica,sans-Serif" font-size="10.00" fill="#000000">::ConvGeneral</text>
</g>
<!-- Node377 -->
<g id="node2" class="node">
<title>Node377</title>
<g id="a_node2"><a xlink:href="../../df/d1b/classxla_1_1ComputationBuilder.html#aa55e6967d685a12315126f80a2daf1f7" target="_top" xlink:title="xla::ComputationBuilder\l::ConvWithGeneralPadding">
<polygon fill="#ffffff" stroke="#000000" points="165.5,-49.5 165.5,-79.5 300.5,-79.5 300.5,-49.5 165.5,-49.5"/>
<text text-anchor="start" x="173.5" y="-67.5" font-family="Helvetica,sans-Serif" font-size="10.00" fill="#000000">xla::ComputationBuilder</text>
<text text-anchor="middle" x="233" y="-56.5" font-family="Helvetica,sans-Serif" font-size="10.00" fill="#000000">::ConvWithGeneralPadding</text>
</a>
</g>
</g>
<!-- Node376&#45;&gt;Node377 -->
<g id="edge1" class="edge">
<title>Node376&#45;&gt;Node377</title>
<path fill="none" stroke="#191970" d="M131.488,-49.7881C142.6965,-51.4125 154.2602,-53.0884 165.3891,-54.7013"/>
<polygon fill="#191970" stroke="#191970" points="131.7157,-46.2846 121.317,-48.3141 130.7116,-53.2123 131.7157,-46.2846"/>
</g>
<!-- Node378 -->
<g id="node3" class="node">
<title>Node378</title>
<g id="a_node3"><a xlink:href="../../df/d1b/classxla_1_1ComputationBuilder.html#a2e01c5667c341089ea9128d44e77ebf9" target="_top" xlink:title="xla::ComputationBuilder\l::ConvWithGeneralDimensions">
<polygon fill="#ffffff" stroke="#000000" points="157,-.5 157,-30.5 309,-30.5 309,-.5 157,-.5"/>
<text text-anchor="start" x="165" y="-18.5" font-family="Helvetica,sans-Serif" font-size="10.00" fill="#000000">xla::ComputationBuilder</text>
<text text-anchor="middle" x="233" y="-7.5" font-family="Helvetica,sans-Serif" font-size="10.00" fill="#000000">::ConvWithGeneralDimensions</text>
</a>
</g>
</g>
<!-- Node376&#45;&gt;Node378 -->
<g id="edge2" class="edge">
<title>Node376&#45;&gt;Node378</title>
<path fill="none" stroke="#191970" d="M131.3853,-29.6377C139.7384,-28.4755 148.29,-27.2857 156.7132,-26.1138"/>
<polygon fill="#191970" stroke="#191970" points="130.7393,-26.1938 121.317,-31.0385 131.704,-33.127 130.7393,-26.1938"/>
</g>
<!-- Node379 -->
<g id="node4" class="node">
<title>Node379</title>
<g id="a_node4"><a xlink:href="../../df/d1b/classxla_1_1ComputationBuilder.html#a13498be4f12312e0026157948442eb96" target="_top" xlink:title="xla::ComputationBuilder\l::Conv">
<polygon fill="#ffffff" stroke="#000000" points="345,-.5 345,-30.5 466,-30.5 466,-.5 345,-.5"/>
<text text-anchor="start" x="353" y="-18.5" font-family="Helvetica,sans-Serif" font-size="10.00" fill="#000000">xla::ComputationBuilder</text>
<text text-anchor="middle" x="405.5" y="-7.5" font-family="Helvetica,sans-Serif" font-size="10.00" fill="#000000">::Conv</text>
</a>
</g>
</g>
<!-- Node378&#45;&gt;Node379 -->
<g id="edge3" class="edge">
<title>Node378&#45;&gt;Node379</title>
<path fill="none" stroke="#191970" d="M319.2564,-15.5C327.8719,-15.5 336.4873,-15.5 344.7588,-15.5"/>
<polygon fill="#191970" stroke="#191970" points="319.1632,-12.0001 309.1631,-15.5 319.1631,-19.0001 319.1632,-12.0001"/>
</g>
</g>
</svg>
