<?xml version="1.0" encoding="UTF-8" standalone="no"?>
<!DOCTYPE svg PUBLIC "-//W3C//DTD SVG 1.1//EN"
 "http://www.w3.org/Graphics/SVG/1.1/DTD/svg11.dtd">
<!-- Generated by graphviz version 2.40.1 (20161225.0304)
 -->
<!-- Title: xla::ComputationBuilder::Parameter Pages: 1 -->
<svg width="481pt" height="39pt"
 viewBox="0.00 0.00 481.00 39.00" xmlns="http://www.w3.org/2000/svg" xmlns:xlink="http://www.w3.org/1999/xlink">
<g id="graph0" class="graph" transform="scale(1 1) rotate(0) translate(4 35)">
<title>xla::ComputationBuilder::Parameter</title>
<polygon fill="#ffffff" stroke="transparent" points="-4,4 -4,-35 477,-35 477,4 -4,4"/>
<!-- Node4 -->
<g id="node1" class="node">
<title>Node4</title>
<polygon fill="#bfbfbf" stroke="#000000" points="0,-.5 0,-30.5 135,-30.5 135,-.5 0,-.5"/>
<text text-anchor="start" x="8" y="-18.5" font-family="Helvetica,sans-Serif" font-size="10.00" fill="#000000">xla::ComputationBuilder</text>
<text text-anchor="middle" x="67.5" y="-7.5" font-family="Helvetica,sans-Serif" font-size="10.00" fill="#000000">::Parameter</text>
</g>
<!-- Node5 -->
<g id="node2" class="node">
<title>Node5</title>
<g id="a_node2"><a xlink:href="../../d7/dbf/classtensorflow_1_1XlaCompiler.html#af976233791194ab48c2512fdfac123ea" target="_top" xlink:title="Build XLA computations for each of the arguments to the UserComputation. ">
<polygon fill="#ffffff" stroke="#000000" points="171,-.5 171,-30.5 304,-30.5 304,-.5 171,-.5"/>
<text text-anchor="start" x="179" y="-18.5" font-family="Helvetica,sans-Serif" font-size="10.00" fill="#000000">tensorflow::XlaCompiler</text>
<text text-anchor="middle" x="237.5" y="-7.5" font-family="Helvetica,sans-Serif" font-size="10.00" fill="#000000">::BuildArguments</text>
</a>
</g>
</g>
<!-- Node4&#45;&gt;Node5 -->
<g id="edge1" class="edge">
<title>Node4&#45;&gt;Node5</title>
<path fill="none" stroke="#191970" d="M145.1873,-15.5C153.7719,-15.5 162.4567,-15.5 170.888,-15.5"/>
<polygon fill="#191970" stroke="#191970" points="145.177,-12.0001 135.177,-15.5 145.1769,-19.0001 145.177,-12.0001"/>
</g>
<!-- Node6 -->
<g id="node3" class="node">
<title>Node6</title>
<g id="a_node3"><a xlink:href="../../d7/dbf/classtensorflow_1_1XlaCompiler.html#ade5be3e41d2892412acb844070182858" target="_top" xlink:title="Compiles a tensorflow::Graph into an xla::Computation. ">
<polygon fill="#ffffff" stroke="#000000" points="340,-.5 340,-30.5 473,-30.5 473,-.5 340,-.5"/>
<text text-anchor="start" x="348" y="-18.5" font-family="Helvetica,sans-Serif" font-size="10.00" fill="#000000">tensorflow::XlaCompiler</text>
<text text-anchor="middle" x="406.5" y="-7.5" font-family="Helvetica,sans-Serif" font-size="10.00" fill="#000000">::CompileGraph</text>
</a>
</g>
</g>
<!-- Node5&#45;&gt;Node6 -->
<g id="edge2" class="edge">
<title>Node5&#45;&gt;Node6</title>
<path fill="none" stroke="#191970" d="M314.5505,-15.5C323.0194,-15.5 331.589,-15.5 339.9152,-15.5"/>
<polygon fill="#191970" stroke="#191970" points="314.2933,-12.0001 304.2933,-15.5 314.2932,-19.0001 314.2933,-12.0001"/>
</g>
</g>
</svg>
