<?xml version="1.0" encoding="UTF-8" standalone="no"?>
<!DOCTYPE svg PUBLIC "-//W3C//DTD SVG 1.1//EN"
 "http://www.w3.org/Graphics/SVG/1.1/DTD/svg11.dtd">
<!-- Generated by graphviz version 2.40.1 (20161225.0304)
 -->
<!-- Title: xla::ComputationBuilder::PrepareComputation Pages: 1 -->
<svg width="933pt" height="39pt"
 viewBox="0.00 0.00 933.00 39.00" xmlns="http://www.w3.org/2000/svg" xmlns:xlink="http://www.w3.org/1999/xlink">
<g id="graph0" class="graph" transform="scale(1 1) rotate(0) translate(4 35)">
<title>xla::ComputationBuilder::PrepareComputation</title>
<polygon fill="#ffffff" stroke="transparent" points="-4,4 -4,-35 929,-35 929,4 -4,4"/>
<!-- Node8 -->
<g id="node1" class="node">
<title>Node8</title>
<polygon fill="#bfbfbf" stroke="#000000" points="0,-.5 0,-30.5 121,-30.5 121,-.5 0,-.5"/>
<text text-anchor="start" x="8" y="-18.5" font-family="Helvetica,sans-Serif" font-size="10.00" fill="#000000">xla::ComputationBuilder</text>
<text text-anchor="middle" x="60.5" y="-7.5" font-family="Helvetica,sans-Serif" font-size="10.00" fill="#000000">::PrepareComputation</text>
</g>
<!-- Node9 -->
<g id="node2" class="node">
<title>Node9</title>
<g id="a_node2"><a xlink:href="../../df/d1b/classxla_1_1ComputationBuilder.html#a7d2ff8c5c638378bb6fb998a71661d22" target="_top" xlink:title="Run the given parameter op_request and fill in op_response. ">
<polygon fill="#ffffff" stroke="#000000" points="157,-.5 157,-30.5 278,-30.5 278,-.5 157,-.5"/>
<text text-anchor="start" x="165" y="-18.5" font-family="Helvetica,sans-Serif" font-size="10.00" fill="#000000">xla::ComputationBuilder</text>
<text text-anchor="middle" x="217.5" y="-7.5" font-family="Helvetica,sans-Serif" font-size="10.00" fill="#000000">::RunOp</text>
</a>
</g>
</g>
<!-- Node8&#45;&gt;Node9 -->
<g id="edge1" class="edge">
<title>Node8&#45;&gt;Node9</title>
<path fill="none" stroke="#191970" d="M131.2098,-15.5C139.807,-15.5 148.5301,-15.5 156.9611,-15.5"/>
<polygon fill="#191970" stroke="#191970" points="131.2003,-12.0001 121.2003,-15.5 131.2003,-19.0001 131.2003,-12.0001"/>
</g>
<!-- Node10 -->
<g id="node3" class="node">
<title>Node10</title>
<g id="a_node3"><a xlink:href="../../df/d1b/classxla_1_1ComputationBuilder.html#a584f43dacccc04122c79a7e4ad2770d0" target="_top" xlink:title="Call RunOp() and either return the output ComputationDataHandle (on success) or an empty ComputationD...">
<polygon fill="#ffffff" stroke="#000000" points="314,-.5 314,-30.5 454,-30.5 454,-.5 314,-.5"/>
<text text-anchor="start" x="322" y="-18.5" font-family="Helvetica,sans-Serif" font-size="10.00" fill="#000000">xla::ComputationBuilder</text>
<text text-anchor="middle" x="384" y="-7.5" font-family="Helvetica,sans-Serif" font-size="10.00" fill="#000000">::RunOpAndParseResponse</text>
</a>
</g>
</g>
<!-- Node9&#45;&gt;Node10 -->
<g id="edge2" class="edge">
<title>Node9&#45;&gt;Node10</title>
<path fill="none" stroke="#191970" d="M288.2961,-15.5C296.7617,-15.5 305.403,-15.5 313.8593,-15.5"/>
<polygon fill="#191970" stroke="#191970" points="288.0814,-12.0001 278.0813,-15.5 288.0813,-19.0001 288.0814,-12.0001"/>
</g>
<!-- Node11 -->
<g id="node4" class="node">
<title>Node11</title>
<g id="a_node4"><a xlink:href="../../df/d1b/classxla_1_1ComputationBuilder.html#a7312b57426afbc7bcb728307fc020869" target="_top" xlink:title="Enqueues a &quot;retrieve parameter value&quot; instruction to the UserComputation. ">
<polygon fill="#ffffff" stroke="#000000" points="490,-.5 490,-30.5 611,-30.5 611,-.5 490,-.5"/>
<text text-anchor="start" x="498" y="-18.5" font-family="Helvetica,sans-Serif" font-size="10.00" fill="#000000">xla::ComputationBuilder</text>
<text text-anchor="middle" x="550.5" y="-7.5" font-family="Helvetica,sans-Serif" font-size="10.00" fill="#000000">::Parameter</text>
</a>
</g>
</g>
<!-- Node10&#45;&gt;Node11 -->
<g id="edge3" class="edge">
<title>Node10&#45;&gt;Node11</title>
<path fill="none" stroke="#191970" d="M464.2415,-15.5C472.8924,-15.5 481.5866,-15.5 489.95,-15.5"/>
<polygon fill="#191970" stroke="#191970" points="464.1285,-12.0001 454.1284,-15.5 464.1284,-19.0001 464.1285,-12.0001"/>
</g>
<!-- Node12 -->
<g id="node5" class="node">
<title>Node12</title>
<g id="a_node5"><a xlink:href="../../d7/dbf/classtensorflow_1_1XlaCompiler.html#af976233791194ab48c2512fdfac123ea" target="_top" xlink:title="Build XLA computations for each of the arguments to the UserComputation. ">
<polygon fill="#ffffff" stroke="#000000" points="647,-.5 647,-30.5 768,-30.5 768,-.5 647,-.5"/>
<text text-anchor="start" x="655" y="-18.5" font-family="Helvetica,sans-Serif" font-size="10.00" fill="#000000">tensorflow::XlaCompiler</text>
<text text-anchor="middle" x="707.5" y="-7.5" font-family="Helvetica,sans-Serif" font-size="10.00" fill="#000000">::BuildArguments</text>
</a>
</g>
</g>
<!-- Node11&#45;&gt;Node12 -->
<g id="edge4" class="edge">
<title>Node11&#45;&gt;Node12</title>
<path fill="none" stroke="#191970" d="M621.2098,-15.5C629.807,-15.5 638.5301,-15.5 646.9611,-15.5"/>
<polygon fill="#191970" stroke="#191970" points="621.2003,-12.0001 611.2003,-15.5 621.2003,-19.0001 621.2003,-12.0001"/>
</g>
<!-- Node13 -->
<g id="node6" class="node">
<title>Node13</title>
<g id="a_node6"><a xlink:href="../../d7/dbf/classtensorflow_1_1XlaCompiler.html#ade5be3e41d2892412acb844070182858" target="_top" xlink:title="Compiles a tensorflow::Graph into an xla::Computation. ">
<polygon fill="#ffffff" stroke="#000000" points="804,-.5 804,-30.5 925,-30.5 925,-.5 804,-.5"/>
<text text-anchor="start" x="812" y="-18.5" font-family="Helvetica,sans-Serif" font-size="10.00" fill="#000000">tensorflow::XlaCompiler</text>
<text text-anchor="middle" x="864.5" y="-7.5" font-family="Helvetica,sans-Serif" font-size="10.00" fill="#000000">::CompileGraph</text>
</a>
</g>
</g>
<!-- Node12&#45;&gt;Node13 -->
<g id="edge5" class="edge">
<title>Node12&#45;&gt;Node13</title>
<path fill="none" stroke="#191970" d="M778.2098,-15.5C786.807,-15.5 795.5301,-15.5 803.9611,-15.5"/>
<polygon fill="#191970" stroke="#191970" points="778.2003,-12.0001 768.2003,-15.5 778.2003,-19.0001 778.2003,-12.0001"/>
</g>
</g>
</svg>
