<?xml version="1.0" encoding="UTF-8" standalone="no"?>
<!DOCTYPE svg PUBLIC "-//W3C//DTD SVG 1.1//EN"
 "http://www.w3.org/Graphics/SVG/1.1/DTD/svg11.dtd">
<!-- Generated by graphviz version 2.40.1 (20161225.0304)
 -->
<!-- Title: xla::ComputationBuilder::VerifyConvolution Pages: 1 -->
<!--zoomable 88 -->
<svg id="main" version="1.1" xmlns="http://www.w3.org/2000/svg" xmlns:xlink="http://www.w3.org/1999/xlink" xml:space="preserve" onload="init(evt)">
<style type="text/css"><![CDATA[
.edge:hover path { stroke: red; }
.edge:hover polygon { stroke: red; fill: red; }
]]></style>
<script type="text/javascript"><![CDATA[
var edges = document.getElementsByTagName('g');
if (edges && edges.length) {
  for (var i=0;i<edges.length;i++) {
    if (edges[i].id.substr(0,4)=='edge') {
      edges[i].setAttribute('class','edge');
    }
  }
}
]]></script>
        <defs>
                <circle id="rim" cx="0" cy="0" r="7"/>
                <circle id="rim2" cx="0" cy="0" r="3.5"/>
                <g id="zoomPlus">
                        <use xlink:href="#rim" fill="#404040">
                                <set attributeName="fill" to="#808080" begin="zoomplus.mouseover" end="zoomplus.mouseout"/>
                        </use>
                        <path d="M-4,0h8M0,-4v8" fill="none" stroke="white" stroke-width="1.5" pointer-events="none"/>
                </g>
                <g id="zoomMin">
                        <use xlink:href="#rim" fill="#404040">
                                <set attributeName="fill" to="#808080" begin="zoomminus.mouseover" end="zoomminus.mouseout"/>
                        </use>
                        <path d="M-4,0h8" fill="none" stroke="white" stroke-width="1.5" pointer-events="none"/>
                </g>
                <g id="dirArrow">
                        <path fill="none" stroke="white" stroke-width="1.5" d="M0,-3.0v7 M-2.5,-0.5L0,-3.0L2.5,-0.5"/>
                </g>
               <g id="resetDef">
                       <use xlink:href="#rim2" fill="#404040">
                               <set attributeName="fill" to="#808080" begin="reset.mouseover" end="reset.mouseout"/>
                       </use>
               </g>
        </defs>

<script type="text/javascript">
var viewWidth = 788;
var viewHeight = 88;
var sectionId = 'dynsection-163';
</script>
<script xlink:href="../../svgpan.js"/>
<svg id="graph" class="graph">
<g id="viewport">
<title>xla::ComputationBuilder::VerifyConvolution</title>
<polygon fill="#ffffff" stroke="transparent" points="-4,4 -4,-84 784,-84 784,4 -4,4"/>
<!-- Node1783 -->
<g id="node1" class="node">
<title>Node1783</title>
<polygon fill="#bfbfbf" stroke="#000000" points="0,-27.5 0,-57.5 121,-57.5 121,-27.5 0,-27.5"/>
<text text-anchor="start" x="8" y="-45.5" font-family="Helvetica,sans-Serif" font-size="10.00" fill="#000000">xla::ComputationBuilder</text>
<text text-anchor="middle" x="60.5" y="-34.5" font-family="Helvetica,sans-Serif" font-size="10.00" fill="#000000">::VerifyConvolution</text>
</g>
<!-- Node1784 -->
<g id="node2" class="node">
<title>Node1784</title>
<g id="a_node2"><a xlink:href="../../df/d1b/classxla_1_1ComputationBuilder.html#a2e01c5667c341089ea9128d44e77ebf9" target="_top" xlink:title="xla::ComputationBuilder\l::ConvWithGeneralDimensions">
<polygon fill="#ffffff" stroke="#000000" points="471,-49.5 471,-79.5 623,-79.5 623,-49.5 471,-49.5"/>
<text text-anchor="start" x="479" y="-67.5" font-family="Helvetica,sans-Serif" font-size="10.00" fill="#000000">xla::ComputationBuilder</text>
<text text-anchor="middle" x="547" y="-56.5" font-family="Helvetica,sans-Serif" font-size="10.00" fill="#000000">::ConvWithGeneralDimensions</text>
</a>
</g>
</g>
<!-- Node1783&#45;&gt;Node1784 -->
<g id="edge1" class="edge">
<title>Node1783&#45;&gt;Node1784</title>
<path fill="none" stroke="#191970" d="M131.2927,-45.7013C221.7642,-49.7925 377.7691,-56.8472 470.7765,-61.0531"/>
<polygon fill="#191970" stroke="#191970" points="131.2798,-42.1972 121.1319,-45.2418 130.9635,-49.1901 131.2798,-42.1972"/>
</g>
<!-- Node1786 -->
<g id="node4" class="node">
<title>Node1786</title>
<g id="a_node4"><a xlink:href="../../df/d1b/classxla_1_1ComputationBuilder.html#ac0905f4579b318824ca65f112f3f1408" target="_top" xlink:title="xla::ComputationBuilder\l::ConvGeneralDilated">
<polygon fill="#ffffff" stroke="#000000" points="157,-5.5 157,-35.5 278,-35.5 278,-5.5 157,-5.5"/>
<text text-anchor="start" x="165" y="-23.5" font-family="Helvetica,sans-Serif" font-size="10.00" fill="#000000">xla::ComputationBuilder</text>
<text text-anchor="middle" x="217.5" y="-12.5" font-family="Helvetica,sans-Serif" font-size="10.00" fill="#000000">::ConvGeneralDilated</text>
</a>
</g>
</g>
<!-- Node1783&#45;&gt;Node1786 -->
<g id="edge3" class="edge">
<title>Node1783&#45;&gt;Node1786</title>
<path fill="none" stroke="#191970" d="M131.2098,-32.5916C139.807,-31.3869 148.5301,-30.1646 156.9611,-28.9832"/>
<polygon fill="#191970" stroke="#191970" points="130.6178,-29.1403 121.2003,-33.9942 131.5893,-36.0726 130.6178,-29.1403"/>
</g>
<!-- Node1785 -->
<g id="node3" class="node">
<title>Node1785</title>
<g id="a_node3"><a xlink:href="../../df/d1b/classxla_1_1ComputationBuilder.html#a13498be4f12312e0026157948442eb96" target="_top" xlink:title="xla::ComputationBuilder\l::Conv">
<polygon fill="#ffffff" stroke="#000000" points="659,-49.5 659,-79.5 780,-79.5 780,-49.5 659,-49.5"/>
<text text-anchor="start" x="667" y="-67.5" font-family="Helvetica,sans-Serif" font-size="10.00" fill="#000000">xla::ComputationBuilder</text>
<text text-anchor="middle" x="719.5" y="-56.5" font-family="Helvetica,sans-Serif" font-size="10.00" fill="#000000">::Conv</text>
</a>
</g>
</g>
<!-- Node1784&#45;&gt;Node1785 -->
<g id="edge2" class="edge">
<title>Node1784&#45;&gt;Node1785</title>
<path fill="none" stroke="#191970" d="M633.2564,-64.5C641.8719,-64.5 650.4873,-64.5 658.7588,-64.5"/>
<polygon fill="#191970" stroke="#191970" points="633.1632,-61.0001 623.1631,-64.5 633.1631,-68.0001 633.1632,-61.0001"/>
</g>
<!-- Node1787 -->
<g id="node5" class="node">
<title>Node1787</title>
<g id="a_node5"><a xlink:href="../../df/d1b/classxla_1_1ComputationBuilder.html#a012fb04362bae1bd7d7ecdb469cbd6c1" target="_top" xlink:title="xla::ComputationBuilder\l::ConvGeneral">
<polygon fill="#ffffff" stroke="#000000" points="314,-5.5 314,-35.5 435,-35.5 435,-5.5 314,-5.5"/>
<text text-anchor="start" x="322" y="-23.5" font-family="Helvetica,sans-Serif" font-size="10.00" fill="#000000">xla::ComputationBuilder</text>
<text text-anchor="middle" x="374.5" y="-12.5" font-family="Helvetica,sans-Serif" font-size="10.00" fill="#000000">::ConvGeneral</text>
</a>
</g>
</g>
<!-- Node1786&#45;&gt;Node1787 -->
<g id="edge4" class="edge">
<title>Node1786&#45;&gt;Node1787</title>
<path fill="none" stroke="#191970" d="M288.2098,-20.5C296.807,-20.5 305.5301,-20.5 313.9611,-20.5"/>
<polygon fill="#191970" stroke="#191970" points="288.2003,-17.0001 278.2003,-20.5 288.2003,-24.0001 288.2003,-17.0001"/>
</g>
<!-- Node1787&#45;&gt;Node1784 -->
<g id="edge6" class="edge">
<title>Node1787&#45;&gt;Node1784</title>
<path fill="none" stroke="#191970" d="M443.477,-38.0941C458.2536,-41.8632 473.7355,-45.8122 488.0904,-49.4738"/>
<polygon fill="#191970" stroke="#191970" points="443.9371,-34.5995 433.3822,-35.5192 442.2069,-41.3823 443.9371,-34.5995"/>
</g>
<!-- Node1788 -->
<g id="node6" class="node">
<title>Node1788</title>
<g id="a_node6"><a xlink:href="../../df/d1b/classxla_1_1ComputationBuilder.html#aa55e6967d685a12315126f80a2daf1f7" target="_top" xlink:title="xla::ComputationBuilder\l::ConvWithGeneralPadding">
<polygon fill="#ffffff" stroke="#000000" points="479.5,-.5 479.5,-30.5 614.5,-30.5 614.5,-.5 479.5,-.5"/>
<text text-anchor="start" x="487.5" y="-18.5" font-family="Helvetica,sans-Serif" font-size="10.00" fill="#000000">xla::ComputationBuilder</text>
<text text-anchor="middle" x="547" y="-7.5" font-family="Helvetica,sans-Serif" font-size="10.00" fill="#000000">::ConvWithGeneralPadding</text>
</a>
</g>
</g>
<!-- Node1787&#45;&gt;Node1788 -->
<g id="edge5" class="edge">
<title>Node1787&#45;&gt;Node1788</title>
<path fill="none" stroke="#191970" d="M445.488,-18.4424C456.6965,-18.1175 468.2602,-17.7823 479.3891,-17.4597"/>
<polygon fill="#191970" stroke="#191970" points="445.2114,-14.9488 435.317,-18.7372 445.4143,-21.9459 445.2114,-14.9488"/>
</g>
</g>
</svg>
        <g id="navigator" transform="translate(0 0)" fill="#404254">
                <rect fill="#f2f5e9" fill-opacity="0.5" stroke="#606060" stroke-width=".5" x="0" y="0" width="60" height="60"/>
                <use id="zoomplus" xlink:href="#zoomPlus" x="17" y="9" onmousedown="handleZoom(evt,'in')"/>
                <use id="zoomminus" xlink:href="#zoomMin" x="42" y="9" onmousedown="handleZoom(evt,'out')"/>
                <use id="reset" xlink:href="#resetDef" x="30" y="36" onmousedown="handleReset()"/>
                <g id="arrowUp" xlink:href="#dirArrow" transform="translate(30 24)" onmousedown="handlePan(0,-1)">
                  <use xlink:href="#rim" fill="#404040">
                        <set attributeName="fill" to="#808080" begin="arrowUp.mouseover" end="arrowUp.mouseout"/>
                  </use>
                  <path fill="none" stroke="white" stroke-width="1.5" d="M0,-3.0v7 M-2.5,-0.5L0,-3.0L2.5,-0.5"/>
                </g>
                <g id="arrowRight" xlink:href="#dirArrow" transform="rotate(90) translate(36 -43)" onmousedown="handlePan(1,0)">
                  <use xlink:href="#rim" fill="#404040">
                        <set attributeName="fill" to="#808080" begin="arrowRight.mouseover" end="arrowRight.mouseout"/>
                  </use>
                  <path fill="none" stroke="white" stroke-width="1.5" d="M0,-3.0v7 M-2.5,-0.5L0,-3.0L2.5,-0.5"/>
                </g>
                <g id="arrowDown" xlink:href="#dirArrow" transform="rotate(180) translate(-30 -48)" onmousedown="handlePan(0,1)">
                  <use xlink:href="#rim" fill="#404040">
                        <set attributeName="fill" to="#808080" begin="arrowDown.mouseover" end="arrowDown.mouseout"/>
                  </use>
                  <path fill="none" stroke="white" stroke-width="1.5" d="M0,-3.0v7 M-2.5,-0.5L0,-3.0L2.5,-0.5"/>
                </g>
                <g id="arrowLeft" xlink:href="#dirArrow" transform="rotate(270) translate(-36 17)" onmousedown="handlePan(-1,0)">
                  <use xlink:href="#rim" fill="#404040">
                        <set attributeName="fill" to="#808080" begin="arrowLeft.mouseover" end="arrowLeft.mouseout"/>
                  </use>
                  <path fill="none" stroke="white" stroke-width="1.5" d="M0,-3.0v7 M-2.5,-0.5L0,-3.0L2.5,-0.5"/>
                </g>
        </g>
        <svg viewBox="0 0 15 15" width="100%" height="30px" preserveAspectRatio="xMaxYMin meet">
         <g id="arrow_out" transform="scale(0.3 0.3)">
          <a xlink:href="classxla_1_1ComputationBuilder_a318ddf58896882c677aac1548c183f25_icgraph_org.svg" target="_base">
           <rect id="button" ry="5" rx="5" y="6" x="6" height="38" width="38"
                fill="#f2f5e9" fill-opacity="0.5" stroke="#606060" stroke-width="1.0"/>
           <path id="arrow"
             d="M 11.500037,31.436501 C 11.940474,20.09759 22.043105,11.32322 32.158766,21.979434 L 37.068811,17.246167 C 37.068811,17.246167 37.088388,32 37.088388,32 L 22.160133,31.978069 C 22.160133,31.978069 26.997745,27.140456 26.997745,27.140456 C 18.528582,18.264221 13.291696,25.230495 11.500037,31.436501 z"
             style="fill:#404040;"/>
          </a>
         </g>
        </svg>
</svg>
