<?xml version="1.0" encoding="UTF-8" standalone="no"?>
<!DOCTYPE svg PUBLIC "-//W3C//DTD SVG 1.1//EN"
 "http://www.w3.org/Graphics/SVG/1.1/DTD/svg11.dtd">
<!-- Generated by graphviz version 2.40.1 (20161225.0304)
 -->
<!-- Title: xla::ComputationBuilder::RngNormal Pages: 1 -->
<!--zoomable 110 -->
<svg id="main" version="1.1" xmlns="http://www.w3.org/2000/svg" xmlns:xlink="http://www.w3.org/1999/xlink" xml:space="preserve" onload="init(evt)">
<style type="text/css"><![CDATA[
.edge:hover path { stroke: red; }
.edge:hover polygon { stroke: red; fill: red; }
]]></style>
<script type="text/javascript"><![CDATA[
var edges = document.getElementsByTagName('g');
if (edges && edges.length) {
  for (var i=0;i<edges.length;i++) {
    if (edges[i].id.substr(0,4)=='edge') {
      edges[i].setAttribute('class','edge');
    }
  }
}
]]></script>
        <defs>
                <circle id="rim" cx="0" cy="0" r="7"/>
                <circle id="rim2" cx="0" cy="0" r="3.5"/>
                <g id="zoomPlus">
                        <use xlink:href="#rim" fill="#404040">
                                <set attributeName="fill" to="#808080" begin="zoomplus.mouseover" end="zoomplus.mouseout"/>
                        </use>
                        <path d="M-4,0h8M0,-4v8" fill="none" stroke="white" stroke-width="1.5" pointer-events="none"/>
                </g>
                <g id="zoomMin">
                        <use xlink:href="#rim" fill="#404040">
                                <set attributeName="fill" to="#808080" begin="zoomminus.mouseover" end="zoomminus.mouseout"/>
                        </use>
                        <path d="M-4,0h8" fill="none" stroke="white" stroke-width="1.5" pointer-events="none"/>
                </g>
                <g id="dirArrow">
                        <path fill="none" stroke="white" stroke-width="1.5" d="M0,-3.0v7 M-2.5,-0.5L0,-3.0L2.5,-0.5"/>
                </g>
               <g id="resetDef">
                       <use xlink:href="#rim2" fill="#404040">
                               <set attributeName="fill" to="#808080" begin="reset.mouseover" end="reset.mouseout"/>
                       </use>
               </g>
        </defs>

<script type="text/javascript">
var viewWidth = 933;
var viewHeight = 110;
var sectionId = 'dynsection-120';
</script>
<script xlink:href="../../svgpan.js"/>
<svg id="graph" class="graph">
<g id="viewport">
<title>xla::ComputationBuilder::RngNormal</title>
<polygon fill="#ffffff" stroke="transparent" points="-4,4 -4,-106 929,-106 929,4 -4,4"/>
<!-- Node1261 -->
<g id="node1" class="node">
<title>Node1261</title>
<polygon fill="#bfbfbf" stroke="#000000" points="0,-.5 0,-30.5 121,-30.5 121,-.5 0,-.5"/>
<text text-anchor="start" x="8" y="-18.5" font-family="Helvetica,sans-Serif" font-size="10.00" fill="#000000">xla::ComputationBuilder</text>
<text text-anchor="middle" x="60.5" y="-7.5" font-family="Helvetica,sans-Serif" font-size="10.00" fill="#000000">::RngNormal</text>
</g>
<!-- Node1262 -->
<g id="node2" class="node">
<title>Node1262</title>
<g id="a_node2"><a xlink:href="../../df/d1b/classxla_1_1ComputationBuilder.html#a15a2ca51bc68216750ff2e96847bf21f" target="_top" xlink:title="xla::ComputationBuilder\l::RngOp">
<polygon fill="#ffffff" stroke="#000000" points="157,-.5 157,-30.5 278,-30.5 278,-.5 157,-.5"/>
<text text-anchor="start" x="165" y="-18.5" font-family="Helvetica,sans-Serif" font-size="10.00" fill="#000000">xla::ComputationBuilder</text>
<text text-anchor="middle" x="217.5" y="-7.5" font-family="Helvetica,sans-Serif" font-size="10.00" fill="#000000">::RngOp</text>
</a>
</g>
</g>
<!-- Node1261&#45;&gt;Node1262 -->
<g id="edge1" class="edge">
<title>Node1261&#45;&gt;Node1262</title>
<path fill="none" stroke="#191970" d="M121.2003,-15.5C129.635,-15.5 138.3591,-15.5 146.9547,-15.5"/>
<polygon fill="#191970" stroke="#191970" points="146.9612,-19.0001 156.9611,-15.5 146.9611,-12.0001 146.9612,-19.0001"/>
</g>
<!-- Node1263 -->
<g id="node3" class="node">
<title>Node1263</title>
<g id="a_node3"><a xlink:href="../../df/d1b/classxla_1_1ComputationBuilder.html#a584f43dacccc04122c79a7e4ad2770d0" target="_top" xlink:title="Call RunOp() and either return the output ComputationDataHandle (on success) or an empty ComputationD...">
<polygon fill="#ffffff" stroke="#000000" points="314,-.5 314,-30.5 454,-30.5 454,-.5 314,-.5"/>
<text text-anchor="start" x="322" y="-18.5" font-family="Helvetica,sans-Serif" font-size="10.00" fill="#000000">xla::ComputationBuilder</text>
<text text-anchor="middle" x="384" y="-7.5" font-family="Helvetica,sans-Serif" font-size="10.00" fill="#000000">::RunOpAndParseResponse</text>
</a>
</g>
</g>
<!-- Node1262&#45;&gt;Node1263 -->
<g id="edge2" class="edge">
<title>Node1262&#45;&gt;Node1263</title>
<path fill="none" stroke="#191970" d="M278.0813,-15.5C286.4351,-15.5 295.1186,-15.5 303.7587,-15.5"/>
<polygon fill="#191970" stroke="#191970" points="303.8594,-19.0001 313.8593,-15.5 303.8593,-12.0001 303.8594,-19.0001"/>
</g>
<!-- Node1264 -->
<g id="node4" class="node">
<title>Node1264</title>
<g id="a_node4"><a xlink:href="../../df/d1b/classxla_1_1ComputationBuilder.html#a7d2ff8c5c638378bb6fb998a71661d22" target="_top" xlink:title="Run the given parameter op_request and fill in op_response. ">
<polygon fill="#ffffff" stroke="#000000" points="490,-22.5 490,-52.5 611,-52.5 611,-22.5 490,-22.5"/>
<text text-anchor="start" x="498" y="-40.5" font-family="Helvetica,sans-Serif" font-size="10.00" fill="#000000">xla::ComputationBuilder</text>
<text text-anchor="middle" x="550.5" y="-29.5" font-family="Helvetica,sans-Serif" font-size="10.00" fill="#000000">::RunOp</text>
</a>
</g>
</g>
<!-- Node1263&#45;&gt;Node1264 -->
<g id="edge3" class="edge">
<title>Node1263&#45;&gt;Node1264</title>
<path fill="none" stroke="#191970" d="M454.1284,-24.7662C462.6881,-25.8972 471.4375,-27.0533 480.0026,-28.185"/>
<polygon fill="#191970" stroke="#191970" points="479.5776,-31.6592 489.95,-29.4994 480.4947,-24.7195 479.5776,-31.6592"/>
</g>
<!-- Node1266 -->
<g id="node6" class="node">
<title>Node1266</title>
<g id="a_node6"><a xlink:href="../../df/d1b/classxla_1_1ComputationBuilder.html#a787b5fd4e96b9c918b7d0d73704f0d57" target="_top" xlink:title="xla::ComputationBuilder\l::NoteError">
<polygon fill="#ffffff" stroke="#000000" points="804,-24.5 804,-54.5 925,-54.5 925,-24.5 804,-24.5"/>
<text text-anchor="start" x="812" y="-42.5" font-family="Helvetica,sans-Serif" font-size="10.00" fill="#000000">xla::ComputationBuilder</text>
<text text-anchor="middle" x="864.5" y="-31.5" font-family="Helvetica,sans-Serif" font-size="10.00" fill="#000000">::NoteError</text>
</a>
</g>
</g>
<!-- Node1263&#45;&gt;Node1266 -->
<g id="edge7" class="edge">
<title>Node1263&#45;&gt;Node1266</title>
<path fill="none" stroke="#191970" d="M454.1081,-8.9352C531.3874,-3.0946 659.1836,2.4362 768,-12.5 782.0077,-14.4227 796.8475,-17.8459 810.5791,-21.6231"/>
<polygon fill="#191970" stroke="#191970" points="809.7773,-25.0341 820.3543,-24.4197 811.7027,-18.3041 809.7773,-25.0341"/>
</g>
<!-- Node1265 -->
<g id="node5" class="node">
<title>Node1265</title>
<g id="a_node5"><a xlink:href="../../df/d1b/classxla_1_1ComputationBuilder.html#af5ca3f8bbbe525f593293b55df772f1a" target="_top" xlink:title="Populates computation_ with a valid object. Used before any given operation is enqueued. ">
<polygon fill="#ffffff" stroke="#000000" points="647,-71.5 647,-101.5 768,-101.5 768,-71.5 647,-71.5"/>
<text text-anchor="start" x="655" y="-89.5" font-family="Helvetica,sans-Serif" font-size="10.00" fill="#000000">xla::ComputationBuilder</text>
<text text-anchor="middle" x="707.5" y="-78.5" font-family="Helvetica,sans-Serif" font-size="10.00" fill="#000000">::PrepareComputation</text>
</a>
</g>
</g>
<!-- Node1264&#45;&gt;Node1265 -->
<g id="edge4" class="edge">
<title>Node1264&#45;&gt;Node1265</title>
<path fill="none" stroke="#191970" d="M598.8862,-52.6014C614.9287,-57.6083 632.9488,-63.2324 649.631,-68.439"/>
<polygon fill="#191970" stroke="#191970" points="648.6849,-71.8101 659.2735,-71.4484 650.7704,-65.128 648.6849,-71.8101"/>
</g>
<!-- Node1267 -->
<g id="node7" class="node">
<title>Node1267</title>
<g id="a_node7"><a xlink:href="../../df/d1b/classxla_1_1ComputationBuilder.html#a2def8246d1c1829a85e095a84e364bca" target="_top" xlink:title="xla::ComputationBuilder\l::name">
<polygon fill="#ffffff" stroke="#000000" points="647,-22.5 647,-52.5 768,-52.5 768,-22.5 647,-22.5"/>
<text text-anchor="start" x="655" y="-40.5" font-family="Helvetica,sans-Serif" font-size="10.00" fill="#000000">xla::ComputationBuilder</text>
<text text-anchor="middle" x="707.5" y="-29.5" font-family="Helvetica,sans-Serif" font-size="10.00" fill="#000000">::name</text>
</a>
</g>
</g>
<!-- Node1264&#45;&gt;Node1267 -->
<g id="edge6" class="edge">
<title>Node1264&#45;&gt;Node1267</title>
<path fill="none" stroke="#191970" d="M611.2003,-37.5C619.635,-37.5 628.3591,-37.5 636.9547,-37.5"/>
<polygon fill="#191970" stroke="#191970" points="636.9612,-41.0001 646.9611,-37.5 636.9611,-34.0001 636.9612,-41.0001"/>
</g>
<!-- Node1265&#45;&gt;Node1266 -->
<g id="edge5" class="edge">
<title>Node1265&#45;&gt;Node1266</title>
<path fill="none" stroke="#191970" d="M757.6074,-71.4997C772.4777,-67.0481 788.919,-62.1262 804.3568,-57.5047"/>
<polygon fill="#191970" stroke="#191970" points="805.7539,-60.7399 814.3301,-54.519 803.7464,-54.034 805.7539,-60.7399"/>
</g>
</g>
</svg>
        <g id="navigator" transform="translate(0 0)" fill="#404254">
                <rect fill="#f2f5e9" fill-opacity="0.5" stroke="#606060" stroke-width=".5" x="0" y="0" width="60" height="60"/>
                <use id="zoomplus" xlink:href="#zoomPlus" x="17" y="9" onmousedown="handleZoom(evt,'in')"/>
                <use id="zoomminus" xlink:href="#zoomMin" x="42" y="9" onmousedown="handleZoom(evt,'out')"/>
                <use id="reset" xlink:href="#resetDef" x="30" y="36" onmousedown="handleReset()"/>
                <g id="arrowUp" xlink:href="#dirArrow" transform="translate(30 24)" onmousedown="handlePan(0,-1)">
                  <use xlink:href="#rim" fill="#404040">
                        <set attributeName="fill" to="#808080" begin="arrowUp.mouseover" end="arrowUp.mouseout"/>
                  </use>
                  <path fill="none" stroke="white" stroke-width="1.5" d="M0,-3.0v7 M-2.5,-0.5L0,-3.0L2.5,-0.5"/>
                </g>
                <g id="arrowRight" xlink:href="#dirArrow" transform="rotate(90) translate(36 -43)" onmousedown="handlePan(1,0)">
                  <use xlink:href="#rim" fill="#404040">
                        <set attributeName="fill" to="#808080" begin="arrowRight.mouseover" end="arrowRight.mouseout"/>
                  </use>
                  <path fill="none" stroke="white" stroke-width="1.5" d="M0,-3.0v7 M-2.5,-0.5L0,-3.0L2.5,-0.5"/>
                </g>
                <g id="arrowDown" xlink:href="#dirArrow" transform="rotate(180) translate(-30 -48)" onmousedown="handlePan(0,1)">
                  <use xlink:href="#rim" fill="#404040">
                        <set attributeName="fill" to="#808080" begin="arrowDown.mouseover" end="arrowDown.mouseout"/>
                  </use>
                  <path fill="none" stroke="white" stroke-width="1.5" d="M0,-3.0v7 M-2.5,-0.5L0,-3.0L2.5,-0.5"/>
                </g>
                <g id="arrowLeft" xlink:href="#dirArrow" transform="rotate(270) translate(-36 17)" onmousedown="handlePan(-1,0)">
                  <use xlink:href="#rim" fill="#404040">
                        <set attributeName="fill" to="#808080" begin="arrowLeft.mouseover" end="arrowLeft.mouseout"/>
                  </use>
                  <path fill="none" stroke="white" stroke-width="1.5" d="M0,-3.0v7 M-2.5,-0.5L0,-3.0L2.5,-0.5"/>
                </g>
        </g>
        <svg viewBox="0 0 15 15" width="100%" height="30px" preserveAspectRatio="xMaxYMin meet">
         <g id="arrow_out" transform="scale(0.3 0.3)">
          <a xlink:href="classxla_1_1ComputationBuilder_a754f94bdd26fdd06122b018b4fd07676_cgraph_org.svg" target="_base">
           <rect id="button" ry="5" rx="5" y="6" x="6" height="38" width="38"
                fill="#f2f5e9" fill-opacity="0.5" stroke="#606060" stroke-width="1.0"/>
           <path id="arrow"
             d="M 11.500037,31.436501 C 11.940474,20.09759 22.043105,11.32322 32.158766,21.979434 L 37.068811,17.246167 C 37.068811,17.246167 37.088388,32 37.088388,32 L 22.160133,31.978069 C 22.160133,31.978069 26.997745,27.140456 26.997745,27.140456 C 18.528582,18.264221 13.291696,25.230495 11.500037,31.436501 z"
             style="fill:#404040;"/>
          </a>
         </g>
        </svg>
</svg>
