<?xml version="1.0" encoding="UTF-8" standalone="no"?>
<!DOCTYPE svg PUBLIC "-//W3C//DTD SVG 1.1//EN"
 "http://www.w3.org/Graphics/SVG/1.1/DTD/svg11.dtd">
<!-- Generated by graphviz version 2.40.1 (20161225.0304)
 -->
<!-- Title: xla::ComputationBuilder::ConstantFromArrayWithLayout Pages: 1 -->
<svg width="385pt" height="39pt"
 viewBox="0.00 0.00 385.00 39.00" xmlns="http://www.w3.org/2000/svg" xmlns:xlink="http://www.w3.org/1999/xlink">
<g id="graph0" class="graph" transform="scale(1 1) rotate(0) translate(4 35)">
<title>xla::ComputationBuilder::ConstantFromArrayWithLayout</title>
<polygon fill="#ffffff" stroke="transparent" points="-4,4 -4,-35 381,-35 381,4 -4,4"/>
<!-- Node230 -->
<g id="node1" class="node">
<title>Node230</title>
<polygon fill="#bfbfbf" stroke="#000000" points="0,-.5 0,-30.5 158,-30.5 158,-.5 0,-.5"/>
<text text-anchor="start" x="8" y="-18.5" font-family="Helvetica,sans-Serif" font-size="10.00" fill="#000000">xla::ComputationBuilder</text>
<text text-anchor="middle" x="79" y="-7.5" font-family="Helvetica,sans-Serif" font-size="10.00" fill="#000000">::ConstantFromArrayWithLayout</text>
</g>
<!-- Node231 -->
<g id="node2" class="node">
<title>Node231</title>
<g id="a_node2"><a xlink:href="../../df/d1b/classxla_1_1ComputationBuilder.html#a0eb37b2e939a72df4a79ecd7836c7da4" target="_top" xlink:title="xla::ComputationBuilder\l::ConstantR4FromArray4DWithLayout">
<polygon fill="#ffffff" stroke="#000000" points="194,-.5 194,-30.5 377,-30.5 377,-.5 194,-.5"/>
<text text-anchor="start" x="202" y="-18.5" font-family="Helvetica,sans-Serif" font-size="10.00" fill="#000000">xla::ComputationBuilder</text>
<text text-anchor="middle" x="285.5" y="-7.5" font-family="Helvetica,sans-Serif" font-size="10.00" fill="#000000">::ConstantR4FromArray4DWithLayout</text>
</a>
</g>
</g>
<!-- Node230&#45;&gt;Node231 -->
<g id="edge1" class="edge">
<title>Node230&#45;&gt;Node231</title>
<path fill="none" stroke="#191970" d="M168.4003,-15.5C176.7865,-15.5 185.2969,-15.5 193.7047,-15.5"/>
<polygon fill="#191970" stroke="#191970" points="168.2477,-12.0001 158.2477,-15.5 168.2477,-19.0001 168.2477,-12.0001"/>
</g>
</g>
</svg>
