<?xml version="1.0" encoding="UTF-8" standalone="no"?>
<!DOCTYPE svg PUBLIC "-//W3C//DTD SVG 1.1//EN"
 "http://www.w3.org/Graphics/SVG/1.1/DTD/svg11.dtd">
<!-- Generated by graphviz version 2.40.1 (20161225.0304)
 -->
<!-- Title: xla::ComputationBuilder::Build Pages: 1 -->
<svg width="1133pt" height="155pt"
 viewBox="0.00 0.00 1133.00 154.50" xmlns="http://www.w3.org/2000/svg" xmlns:xlink="http://www.w3.org/1999/xlink">
<g id="graph0" class="graph" transform="scale(1 1) rotate(0) translate(4 150.5)">
<title>xla::ComputationBuilder::Build</title>
<polygon fill="#ffffff" stroke="transparent" points="-4,4 -4,-150.5 1129,-150.5 1129,4 -4,4"/>
<!-- Node108 -->
<g id="node1" class="node">
<title>Node108</title>
<polygon fill="#bfbfbf" stroke="#000000" points="0,-27.5 0,-57.5 121,-57.5 121,-27.5 0,-27.5"/>
<text text-anchor="start" x="8" y="-45.5" font-family="Helvetica,sans-Serif" font-size="10.00" fill="#000000">xla::ComputationBuilder</text>
<text text-anchor="middle" x="60.5" y="-34.5" font-family="Helvetica,sans-Serif" font-size="10.00" fill="#000000">::Build</text>
</g>
<!-- Node109 -->
<g id="node2" class="node">
<title>Node109</title>
<g id="a_node2"><a xlink:href="../../de/d61/namespacetensorflow_1_1anonymous__namespace_02xla__compiler_8cc_03.html#a3550e13c6c31e2a093c4032a38eefd57" target="_top" xlink:title="tensorflow::anonymous\l_namespace\{xla_compiler\l::cc\}::BuildComputation">
<polygon fill="#ffffff" stroke="#000000" points="157,-50 157,-91 287,-91 287,-50 157,-50"/>
<text text-anchor="start" x="165" y="-79" font-family="Helvetica,sans-Serif" font-size="10.00" fill="#000000">tensorflow::anonymous</text>
<text text-anchor="start" x="165" y="-68" font-family="Helvetica,sans-Serif" font-size="10.00" fill="#000000">_namespace{xla_compiler</text>
<text text-anchor="middle" x="222" y="-57" font-family="Helvetica,sans-Serif" font-size="10.00" fill="#000000">::cc}::BuildComputation</text>
</a>
</g>
</g>
<!-- Node108&#45;&gt;Node109 -->
<g id="edge1" class="edge">
<title>Node108&#45;&gt;Node109</title>
<path fill="none" stroke="#191970" d="M131.0317,-54.7284C139.5761,-56.2098 148.2755,-57.718 156.7391,-59.1854"/>
<polygon fill="#191970" stroke="#191970" points="131.5471,-51.2656 121.0961,-53.0058 130.3512,-58.1627 131.5471,-51.2656"/>
</g>
<!-- Node118 -->
<g id="node11" class="node">
<title>Node118</title>
<g id="a_node11"><a xlink:href="../../df/d1b/classxla_1_1ComputationBuilder.html#abd240d0a7c37d060d59becef3ab41d7d" target="_top" xlink:title="xla::ComputationBuilder\l::BuildAndNoteError">
<polygon fill="#ffffff" stroke="#000000" points="161.5,-.5 161.5,-30.5 282.5,-30.5 282.5,-.5 161.5,-.5"/>
<text text-anchor="start" x="169.5" y="-18.5" font-family="Helvetica,sans-Serif" font-size="10.00" fill="#000000">xla::ComputationBuilder</text>
<text text-anchor="middle" x="222" y="-7.5" font-family="Helvetica,sans-Serif" font-size="10.00" fill="#000000">::BuildAndNoteError</text>
</a>
</g>
</g>
<!-- Node108&#45;&gt;Node118 -->
<g id="edge10" class="edge">
<title>Node108&#45;&gt;Node118</title>
<path fill="none" stroke="#191970" d="M131.0832,-30.6997C141.1657,-29.0141 151.463,-27.2926 161.3329,-25.6425"/>
<polygon fill="#191970" stroke="#191970" points="130.3821,-27.2683 121.0961,-32.3694 131.5364,-34.1724 130.3821,-27.2683"/>
</g>
<!-- Node110 -->
<g id="node3" class="node">
<title>Node110</title>
<g id="a_node3"><a xlink:href="../../d7/dbf/classtensorflow_1_1XlaCompiler.html#ade5be3e41d2892412acb844070182858" target="_top" xlink:title="Compiles a tensorflow::Graph into an xla::Computation. ">
<polygon fill="#ffffff" stroke="#000000" points="323,-55.5 323,-85.5 444,-85.5 444,-55.5 323,-55.5"/>
<text text-anchor="start" x="331" y="-73.5" font-family="Helvetica,sans-Serif" font-size="10.00" fill="#000000">tensorflow::XlaCompiler</text>
<text text-anchor="middle" x="383.5" y="-62.5" font-family="Helvetica,sans-Serif" font-size="10.00" fill="#000000">::CompileGraph</text>
</a>
</g>
</g>
<!-- Node109&#45;&gt;Node110 -->
<g id="edge2" class="edge">
<title>Node109&#45;&gt;Node110</title>
<path fill="none" stroke="#191970" d="M297.2802,-70.5C305.9005,-70.5 314.6044,-70.5 322.9964,-70.5"/>
<polygon fill="#191970" stroke="#191970" points="297.2227,-67.0001 287.2227,-70.5 297.2227,-74.0001 297.2227,-67.0001"/>
</g>
<!-- Node111 -->
<g id="node4" class="node">
<title>Node111</title>
<g id="a_node4"><a xlink:href="../../d3/dfa/namespacetensorflow_1_1anonymous__namespace_02tf2xla_8cc_03.html#a8bea171341441170c6d6c7dbb0b3227d" target="_top" xlink:title="Converts the TensorFlow graph into an XLA computation, by executing the graph symbolically, with each op building up the XLA HLO. ">
<polygon fill="#ffffff" stroke="#000000" points="481,-105 481,-146 600,-146 600,-105 481,-105"/>
<text text-anchor="start" x="489" y="-134" font-family="Helvetica,sans-Serif" font-size="10.00" fill="#000000">tensorflow::anonymous</text>
<text text-anchor="start" x="489" y="-123" font-family="Helvetica,sans-Serif" font-size="10.00" fill="#000000">_namespace{tf2xla::cc}</text>
<text text-anchor="middle" x="540.5" y="-112" font-family="Helvetica,sans-Serif" font-size="10.00" fill="#000000">::ConvertGraphToXla</text>
</a>
</g>
</g>
<!-- Node110&#45;&gt;Node111 -->
<g id="edge3" class="edge">
<title>Node110&#45;&gt;Node111</title>
<path fill="none" stroke="#191970" d="M435.8525,-88.84C450.5775,-93.9985 466.6884,-99.6424 481.7599,-104.9223"/>
<polygon fill="#191970" stroke="#191970" points="436.9958,-85.5321 426.4009,-85.529 434.6814,-92.1384 436.9958,-85.5321"/>
</g>
<!-- Node116 -->
<g id="node9" class="node">
<title>Node116</title>
<g id="a_node9"><a xlink:href="../../d7/dbf/classtensorflow_1_1XlaCompiler.html#a7dc00dad25b347e8ab8b15f68cba4be0" target="_top" xlink:title="tensorflow::XlaCompiler\l::CompileFunction">
<polygon fill="#ffffff" stroke="#000000" points="480,-55.5 480,-85.5 601,-85.5 601,-55.5 480,-55.5"/>
<text text-anchor="start" x="488" y="-73.5" font-family="Helvetica,sans-Serif" font-size="10.00" fill="#000000">tensorflow::XlaCompiler</text>
<text text-anchor="middle" x="540.5" y="-62.5" font-family="Helvetica,sans-Serif" font-size="10.00" fill="#000000">::CompileFunction</text>
</a>
</g>
</g>
<!-- Node110&#45;&gt;Node116 -->
<g id="edge8" class="edge">
<title>Node110&#45;&gt;Node116</title>
<path fill="none" stroke="#191970" d="M454.2098,-70.5C462.807,-70.5 471.5301,-70.5 479.9611,-70.5"/>
<polygon fill="#191970" stroke="#191970" points="454.2003,-67.0001 444.2003,-70.5 454.2003,-74.0001 454.2003,-67.0001"/>
</g>
<!-- Node117 -->
<g id="node10" class="node">
<title>Node117</title>
<g id="a_node10"><a xlink:href="../../d7/dbf/classtensorflow_1_1XlaCompiler.html#ab941b14046527727c11c728908d36d92" target="_top" xlink:title="tensorflow::XlaCompiler\l::CompileSingleOp">
<polygon fill="#ffffff" stroke="#000000" points="480,-6.5 480,-36.5 601,-36.5 601,-6.5 480,-6.5"/>
<text text-anchor="start" x="488" y="-24.5" font-family="Helvetica,sans-Serif" font-size="10.00" fill="#000000">tensorflow::XlaCompiler</text>
<text text-anchor="middle" x="540.5" y="-13.5" font-family="Helvetica,sans-Serif" font-size="10.00" fill="#000000">::CompileSingleOp</text>
</a>
</g>
</g>
<!-- Node110&#45;&gt;Node117 -->
<g id="edge9" class="edge">
<title>Node110&#45;&gt;Node117</title>
<path fill="none" stroke="#191970" d="M441.5353,-52.3871C458.2263,-47.1778 476.2443,-41.5543 492.2735,-36.5516"/>
<polygon fill="#191970" stroke="#191970" points="440.3894,-49.0781 431.8862,-55.3986 442.4749,-55.7603 440.3894,-49.0781"/>
</g>
<!-- Node112 -->
<g id="node5" class="node">
<title>Node112</title>
<g id="a_node5"><a xlink:href="../../de/d86/namespacetensorflow.html#a6f8fce5955ec6d67cd1762891d4830e9" target="_top" xlink:title="Convert tensorflow graph_def to XLA UserComputation. ">
<polygon fill="#ffffff" stroke="#000000" points="637,-110.5 637,-140.5 765,-140.5 765,-110.5 637,-110.5"/>
<text text-anchor="start" x="645" y="-128.5" font-family="Helvetica,sans-Serif" font-size="10.00" fill="#000000">tensorflow::ConvertGraph</text>
<text text-anchor="middle" x="701" y="-117.5" font-family="Helvetica,sans-Serif" font-size="10.00" fill="#000000">DefToXla</text>
</a>
</g>
</g>
<!-- Node111&#45;&gt;Node112 -->
<g id="edge4" class="edge">
<title>Node111&#45;&gt;Node112</title>
<path fill="none" stroke="#191970" d="M610.4693,-125.5C619.2496,-125.5 628.197,-125.5 636.8814,-125.5"/>
<polygon fill="#191970" stroke="#191970" points="610.2643,-122.0001 600.2643,-125.5 610.2642,-129.0001 610.2643,-122.0001"/>
</g>
<!-- Node113 -->
<g id="node6" class="node">
<title>Node113</title>
<g id="a_node6"><a xlink:href="../../d7/d38/namespacetensorflow_1_1tfcompile.html#a021cb1c58d938b16dcd998aa8d1fc191" target="_top" xlink:title="Converts the graph into an XLA computation, and compiles the computation. Called by tensorflow::tfcom...">
<polygon fill="#ffffff" stroke="#000000" points="801,-110.5 801,-140.5 908,-140.5 908,-110.5 801,-110.5"/>
<text text-anchor="start" x="809" y="-128.5" font-family="Helvetica,sans-Serif" font-size="10.00" fill="#000000">tensorflow::tfcompile</text>
<text text-anchor="middle" x="854.5" y="-117.5" font-family="Helvetica,sans-Serif" font-size="10.00" fill="#000000">::CompileGraph</text>
</a>
</g>
</g>
<!-- Node112&#45;&gt;Node113 -->
<g id="edge5" class="edge">
<title>Node112&#45;&gt;Node113</title>
<path fill="none" stroke="#191970" d="M775.2612,-125.5C783.8631,-125.5 792.5067,-125.5 800.7592,-125.5"/>
<polygon fill="#191970" stroke="#191970" points="775.2084,-122.0001 765.2084,-125.5 775.2084,-129.0001 775.2084,-122.0001"/>
</g>
<!-- Node114 -->
<g id="node7" class="node">
<title>Node114</title>
<g id="a_node7"><a xlink:href="../../d7/d38/namespacetensorflow_1_1tfcompile.html#a460964a5bb277865d1275fe3746132c1" target="_top" xlink:title="tensorflow::tfcompile\l::Main">
<polygon fill="#ffffff" stroke="#000000" points="944,-110.5 944,-140.5 1051,-140.5 1051,-110.5 944,-110.5"/>
<text text-anchor="start" x="952" y="-128.5" font-family="Helvetica,sans-Serif" font-size="10.00" fill="#000000">tensorflow::tfcompile</text>
<text text-anchor="middle" x="997.5" y="-117.5" font-family="Helvetica,sans-Serif" font-size="10.00" fill="#000000">::Main</text>
</a>
</g>
</g>
<!-- Node113&#45;&gt;Node114 -->
<g id="edge6" class="edge">
<title>Node113&#45;&gt;Node114</title>
<path fill="none" stroke="#191970" d="M918.3238,-125.5C926.7452,-125.5 935.3103,-125.5 943.5445,-125.5"/>
<polygon fill="#191970" stroke="#191970" points="918.1548,-122.0001 908.1548,-125.5 918.1547,-129.0001 918.1548,-122.0001"/>
</g>
<!-- Node115 -->
<g id="node8" class="node">
<title>Node115</title>
<g id="a_node8"><a xlink:href="../../d4/d8d/tfcompile__main_8cc.html#a3c04138a5bfe5d72780bb7e82a18e627" target="_top" xlink:title="main">
<polygon fill="#ffffff" stroke="#000000" points="1087,-116 1087,-135 1125,-135 1125,-116 1087,-116"/>
<text text-anchor="middle" x="1106" y="-123" font-family="Helvetica,sans-Serif" font-size="10.00" fill="#000000">main</text>
</a>
</g>
</g>
<!-- Node114&#45;&gt;Node115 -->
<g id="edge7" class="edge">
<title>Node114&#45;&gt;Node115</title>
<path fill="none" stroke="#191970" d="M1061.2814,-125.5C1070.5615,-125.5 1079.4574,-125.5 1086.8366,-125.5"/>
<polygon fill="#191970" stroke="#191970" points="1061.1143,-122.0001 1051.1143,-125.5 1061.1142,-129.0001 1061.1143,-122.0001"/>
</g>
</g>
</svg>
