<?xml version="1.0" encoding="UTF-8" standalone="no"?>
<!DOCTYPE svg PUBLIC "-//W3C//DTD SVG 1.1//EN"
 "http://www.w3.org/Graphics/SVG/1.1/DTD/svg11.dtd">
<!-- Generated by graphviz version 2.40.1 (20161225.0304)
 -->
<!-- Title: xla::ComputationBuilder::Parameter Pages: 1 -->
<svg width="1124pt" height="149pt"
 viewBox="0.00 0.00 1124.00 148.50" xmlns="http://www.w3.org/2000/svg" xmlns:xlink="http://www.w3.org/1999/xlink">
<g id="graph0" class="graph" transform="scale(1 1) rotate(0) translate(4 144.5)">
<title>xla::ComputationBuilder::Parameter</title>
<polygon fill="#ffffff" stroke="transparent" points="-4,4 -4,-144.5 1120,-144.5 1120,4 -4,4"/>
<!-- Node1014 -->
<g id="node1" class="node">
<title>Node1014</title>
<polygon fill="#bfbfbf" stroke="#000000" points="0,-49.5 0,-79.5 121,-79.5 121,-49.5 0,-49.5"/>
<text text-anchor="start" x="8" y="-67.5" font-family="Helvetica,sans-Serif" font-size="10.00" fill="#000000">xla::ComputationBuilder</text>
<text text-anchor="middle" x="60.5" y="-56.5" font-family="Helvetica,sans-Serif" font-size="10.00" fill="#000000">::Parameter</text>
</g>
<!-- Node1015 -->
<g id="node2" class="node">
<title>Node1015</title>
<g id="a_node2"><a xlink:href="../../d7/dbf/classtensorflow_1_1XlaCompiler.html#af976233791194ab48c2512fdfac123ea" target="_top" xlink:title="Build XLA computations for each of the arguments to the UserComputation. ">
<polygon fill="#ffffff" stroke="#000000" points="157,-49.5 157,-79.5 278,-79.5 278,-49.5 157,-49.5"/>
<text text-anchor="start" x="165" y="-67.5" font-family="Helvetica,sans-Serif" font-size="10.00" fill="#000000">tensorflow::XlaCompiler</text>
<text text-anchor="middle" x="217.5" y="-56.5" font-family="Helvetica,sans-Serif" font-size="10.00" fill="#000000">::BuildArguments</text>
</a>
</g>
</g>
<!-- Node1014&#45;&gt;Node1015 -->
<g id="edge1" class="edge">
<title>Node1014&#45;&gt;Node1015</title>
<path fill="none" stroke="#191970" d="M131.2098,-64.5C139.807,-64.5 148.5301,-64.5 156.9611,-64.5"/>
<polygon fill="#191970" stroke="#191970" points="131.2003,-61.0001 121.2003,-64.5 131.2003,-68.0001 131.2003,-61.0001"/>
</g>
<!-- Node1016 -->
<g id="node3" class="node">
<title>Node1016</title>
<g id="a_node3"><a xlink:href="../../d7/dbf/classtensorflow_1_1XlaCompiler.html#ade5be3e41d2892412acb844070182858" target="_top" xlink:title="Compiles a tensorflow::Graph into an xla::Computation. ">
<polygon fill="#ffffff" stroke="#000000" points="314,-49.5 314,-79.5 435,-79.5 435,-49.5 314,-49.5"/>
<text text-anchor="start" x="322" y="-67.5" font-family="Helvetica,sans-Serif" font-size="10.00" fill="#000000">tensorflow::XlaCompiler</text>
<text text-anchor="middle" x="374.5" y="-56.5" font-family="Helvetica,sans-Serif" font-size="10.00" fill="#000000">::CompileGraph</text>
</a>
</g>
</g>
<!-- Node1015&#45;&gt;Node1016 -->
<g id="edge2" class="edge">
<title>Node1015&#45;&gt;Node1016</title>
<path fill="none" stroke="#191970" d="M288.2098,-64.5C296.807,-64.5 305.5301,-64.5 313.9611,-64.5"/>
<polygon fill="#191970" stroke="#191970" points="288.2003,-61.0001 278.2003,-64.5 288.2003,-68.0001 288.2003,-61.0001"/>
</g>
<!-- Node1017 -->
<g id="node4" class="node">
<title>Node1017</title>
<g id="a_node4"><a xlink:href="../../d3/dfa/namespacetensorflow_1_1anonymous__namespace_02tf2xla_8cc_03.html#a8bea171341441170c6d6c7dbb0b3227d" target="_top" xlink:title="Converts the TensorFlow graph into an XLA computation, by executing the graph symbolically, with each op building up the XLA HLO. ">
<polygon fill="#ffffff" stroke="#000000" points="472,-99 472,-140 591,-140 591,-99 472,-99"/>
<text text-anchor="start" x="480" y="-128" font-family="Helvetica,sans-Serif" font-size="10.00" fill="#000000">tensorflow::anonymous</text>
<text text-anchor="start" x="480" y="-117" font-family="Helvetica,sans-Serif" font-size="10.00" fill="#000000">_namespace{tf2xla::cc}</text>
<text text-anchor="middle" x="531.5" y="-106" font-family="Helvetica,sans-Serif" font-size="10.00" fill="#000000">::ConvertGraphToXla</text>
</a>
</g>
</g>
<!-- Node1016&#45;&gt;Node1017 -->
<g id="edge3" class="edge">
<title>Node1016&#45;&gt;Node1017</title>
<path fill="none" stroke="#191970" d="M426.8525,-82.84C441.5775,-87.9985 457.6884,-93.6424 472.7599,-98.9223"/>
<polygon fill="#191970" stroke="#191970" points="427.9958,-79.5321 417.4009,-79.529 425.6814,-86.1384 427.9958,-79.5321"/>
</g>
<!-- Node1022 -->
<g id="node9" class="node">
<title>Node1022</title>
<g id="a_node9"><a xlink:href="../../d7/dbf/classtensorflow_1_1XlaCompiler.html#a7dc00dad25b347e8ab8b15f68cba4be0" target="_top" xlink:title="tensorflow::XlaCompiler\l::CompileFunction">
<polygon fill="#ffffff" stroke="#000000" points="471,-49.5 471,-79.5 592,-79.5 592,-49.5 471,-49.5"/>
<text text-anchor="start" x="479" y="-67.5" font-family="Helvetica,sans-Serif" font-size="10.00" fill="#000000">tensorflow::XlaCompiler</text>
<text text-anchor="middle" x="531.5" y="-56.5" font-family="Helvetica,sans-Serif" font-size="10.00" fill="#000000">::CompileFunction</text>
</a>
</g>
</g>
<!-- Node1016&#45;&gt;Node1022 -->
<g id="edge8" class="edge">
<title>Node1016&#45;&gt;Node1022</title>
<path fill="none" stroke="#191970" d="M445.2098,-64.5C453.807,-64.5 462.5301,-64.5 470.9611,-64.5"/>
<polygon fill="#191970" stroke="#191970" points="445.2003,-61.0001 435.2003,-64.5 445.2003,-68.0001 445.2003,-61.0001"/>
</g>
<!-- Node1023 -->
<g id="node10" class="node">
<title>Node1023</title>
<g id="a_node10"><a xlink:href="../../d7/dbf/classtensorflow_1_1XlaCompiler.html#ab941b14046527727c11c728908d36d92" target="_top" xlink:title="tensorflow::XlaCompiler\l::CompileSingleOp">
<polygon fill="#ffffff" stroke="#000000" points="471,-.5 471,-30.5 592,-30.5 592,-.5 471,-.5"/>
<text text-anchor="start" x="479" y="-18.5" font-family="Helvetica,sans-Serif" font-size="10.00" fill="#000000">tensorflow::XlaCompiler</text>
<text text-anchor="middle" x="531.5" y="-7.5" font-family="Helvetica,sans-Serif" font-size="10.00" fill="#000000">::CompileSingleOp</text>
</a>
</g>
</g>
<!-- Node1016&#45;&gt;Node1023 -->
<g id="edge9" class="edge">
<title>Node1016&#45;&gt;Node1023</title>
<path fill="none" stroke="#191970" d="M432.5353,-46.3871C449.2263,-41.1778 467.2443,-35.5543 483.2735,-30.5516"/>
<polygon fill="#191970" stroke="#191970" points="431.3894,-43.0781 422.8862,-49.3986 433.4749,-49.7603 431.3894,-43.0781"/>
</g>
<!-- Node1018 -->
<g id="node5" class="node">
<title>Node1018</title>
<g id="a_node5"><a xlink:href="../../de/d86/namespacetensorflow.html#a6f8fce5955ec6d67cd1762891d4830e9" target="_top" xlink:title="Convert tensorflow graph_def to XLA UserComputation. ">
<polygon fill="#ffffff" stroke="#000000" points="628,-104.5 628,-134.5 756,-134.5 756,-104.5 628,-104.5"/>
<text text-anchor="start" x="636" y="-122.5" font-family="Helvetica,sans-Serif" font-size="10.00" fill="#000000">tensorflow::ConvertGraph</text>
<text text-anchor="middle" x="692" y="-111.5" font-family="Helvetica,sans-Serif" font-size="10.00" fill="#000000">DefToXla</text>
</a>
</g>
</g>
<!-- Node1017&#45;&gt;Node1018 -->
<g id="edge4" class="edge">
<title>Node1017&#45;&gt;Node1018</title>
<path fill="none" stroke="#191970" d="M601.4693,-119.5C610.2496,-119.5 619.197,-119.5 627.8814,-119.5"/>
<polygon fill="#191970" stroke="#191970" points="601.2643,-116.0001 591.2643,-119.5 601.2642,-123.0001 601.2643,-116.0001"/>
</g>
<!-- Node1019 -->
<g id="node6" class="node">
<title>Node1019</title>
<g id="a_node6"><a xlink:href="../../d7/d38/namespacetensorflow_1_1tfcompile.html#a021cb1c58d938b16dcd998aa8d1fc191" target="_top" xlink:title="Converts the graph into an XLA computation, and compiles the computation. Called by tensorflow::tfcom...">
<polygon fill="#ffffff" stroke="#000000" points="792,-104.5 792,-134.5 899,-134.5 899,-104.5 792,-104.5"/>
<text text-anchor="start" x="800" y="-122.5" font-family="Helvetica,sans-Serif" font-size="10.00" fill="#000000">tensorflow::tfcompile</text>
<text text-anchor="middle" x="845.5" y="-111.5" font-family="Helvetica,sans-Serif" font-size="10.00" fill="#000000">::CompileGraph</text>
</a>
</g>
</g>
<!-- Node1018&#45;&gt;Node1019 -->
<g id="edge5" class="edge">
<title>Node1018&#45;&gt;Node1019</title>
<path fill="none" stroke="#191970" d="M766.2612,-119.5C774.8631,-119.5 783.5067,-119.5 791.7592,-119.5"/>
<polygon fill="#191970" stroke="#191970" points="766.2084,-116.0001 756.2084,-119.5 766.2084,-123.0001 766.2084,-116.0001"/>
</g>
<!-- Node1020 -->
<g id="node7" class="node">
<title>Node1020</title>
<g id="a_node7"><a xlink:href="../../d7/d38/namespacetensorflow_1_1tfcompile.html#a460964a5bb277865d1275fe3746132c1" target="_top" xlink:title="tensorflow::tfcompile\l::Main">
<polygon fill="#ffffff" stroke="#000000" points="935,-104.5 935,-134.5 1042,-134.5 1042,-104.5 935,-104.5"/>
<text text-anchor="start" x="943" y="-122.5" font-family="Helvetica,sans-Serif" font-size="10.00" fill="#000000">tensorflow::tfcompile</text>
<text text-anchor="middle" x="988.5" y="-111.5" font-family="Helvetica,sans-Serif" font-size="10.00" fill="#000000">::Main</text>
</a>
</g>
</g>
<!-- Node1019&#45;&gt;Node1020 -->
<g id="edge6" class="edge">
<title>Node1019&#45;&gt;Node1020</title>
<path fill="none" stroke="#191970" d="M909.3238,-119.5C917.7452,-119.5 926.3103,-119.5 934.5445,-119.5"/>
<polygon fill="#191970" stroke="#191970" points="909.1548,-116.0001 899.1548,-119.5 909.1547,-123.0001 909.1548,-116.0001"/>
</g>
<!-- Node1021 -->
<g id="node8" class="node">
<title>Node1021</title>
<g id="a_node8"><a xlink:href="../../d4/d8d/tfcompile__main_8cc.html#a3c04138a5bfe5d72780bb7e82a18e627" target="_top" xlink:title="main">
<polygon fill="#ffffff" stroke="#000000" points="1078,-110 1078,-129 1116,-129 1116,-110 1078,-110"/>
<text text-anchor="middle" x="1097" y="-117" font-family="Helvetica,sans-Serif" font-size="10.00" fill="#000000">main</text>
</a>
</g>
</g>
<!-- Node1020&#45;&gt;Node1021 -->
<g id="edge7" class="edge">
<title>Node1020&#45;&gt;Node1021</title>
<path fill="none" stroke="#191970" d="M1052.2814,-119.5C1061.5615,-119.5 1070.4574,-119.5 1077.8366,-119.5"/>
<polygon fill="#191970" stroke="#191970" points="1052.1143,-116.0001 1042.1143,-119.5 1052.1142,-123.0001 1052.1143,-116.0001"/>
</g>
</g>
</svg>
