<?xml version="1.0" encoding="UTF-8" standalone="no"?>
<!DOCTYPE svg PUBLIC "-//W3C//DTD SVG 1.1//EN"
 "http://www.w3.org/Graphics/SVG/1.1/DTD/svg11.dtd">
<!-- Generated by graphviz version 2.40.1 (20161225.0304)
 -->
<!-- Title: xla::ComputationBuilder::UnaryOp Pages: 1 -->
<svg width="488pt" height="700pt"
 viewBox="0.00 0.00 488.00 700.00" xmlns="http://www.w3.org/2000/svg" xmlns:xlink="http://www.w3.org/1999/xlink">
<g id="graph0" class="graph" transform="scale(1 1) rotate(0) translate(4 696)">
<title>xla::ComputationBuilder::UnaryOp</title>
<polygon fill="#ffffff" stroke="transparent" points="-4,4 -4,-696 484,-696 484,4 -4,4"/>
<!-- Node1762 -->
<g id="node1" class="node">
<title>Node1762</title>
<polygon fill="#bfbfbf" stroke="#000000" points="0,-339 0,-369 121,-369 121,-339 0,-339"/>
<text text-anchor="start" x="8" y="-357" font-family="Helvetica,sans-Serif" font-size="10.00" fill="#000000">xla::ComputationBuilder</text>
<text text-anchor="middle" x="60.5" y="-346" font-family="Helvetica,sans-Serif" font-size="10.00" fill="#000000">::UnaryOp</text>
</g>
<!-- Node1763 -->
<g id="node2" class="node">
<title>Node1763</title>
<g id="a_node2"><a xlink:href="../../df/d1b/classxla_1_1ComputationBuilder.html#a9549b0c26748cf3b69e19b4fb7459930" target="_top" xlink:title="xla::ComputationBuilder::Not">
<polygon fill="#ffffff" stroke="#000000" points="158,-672.5 158,-691.5 301,-691.5 301,-672.5 158,-672.5"/>
<text text-anchor="middle" x="229.5" y="-679.5" font-family="Helvetica,sans-Serif" font-size="10.00" fill="#000000">xla::ComputationBuilder::Not</text>
</a>
</g>
</g>
<!-- Node1762&#45;&gt;Node1763 -->
<g id="edge1" class="edge">
<title>Node1762&#45;&gt;Node1763</title>
<path fill="none" stroke="#191970" d="M65.1326,-379.2352C77.8076,-445.6309 114.9305,-622.8385 157,-663 161.047,-666.8635 165.78,-669.9652 170.8543,-672.4519"/>
<polygon fill="#191970" stroke="#191970" points="68.5368,-378.399 63.2465,-369.2195 61.6577,-379.6945 68.5368,-378.399"/>
</g>
<!-- Node1765 -->
<g id="node4" class="node">
<title>Node1765</title>
<g id="a_node4"><a xlink:href="../../df/d1b/classxla_1_1ComputationBuilder.html#a3f50c780344022b55132627a41a70882" target="_top" xlink:title="xla::ComputationBuilder::Abs">
<polygon fill="#ffffff" stroke="#000000" points="157.5,-634.5 157.5,-653.5 301.5,-653.5 301.5,-634.5 157.5,-634.5"/>
<text text-anchor="middle" x="229.5" y="-641.5" font-family="Helvetica,sans-Serif" font-size="10.00" fill="#000000">xla::ComputationBuilder::Abs</text>
</a>
</g>
</g>
<!-- Node1762&#45;&gt;Node1765 -->
<g id="edge3" class="edge">
<title>Node1762&#45;&gt;Node1765</title>
<path fill="none" stroke="#191970" d="M61.9051,-379.2394C66.2837,-432.7573 84.1916,-558.184 157,-625 161.2182,-628.871 166.1281,-631.9727 171.3674,-634.4551"/>
<polygon fill="#191970" stroke="#191970" points="65.3945,-378.9651 61.1792,-369.2449 58.4128,-379.4722 65.3945,-378.9651"/>
</g>
<!-- Node1766 -->
<g id="node5" class="node">
<title>Node1766</title>
<g id="a_node5"><a xlink:href="../../df/d1b/classxla_1_1ComputationBuilder.html#abbbce36b9495b9bb765c552cb4586dd6" target="_top" xlink:title="xla::ComputationBuilder::Exp">
<polygon fill="#ffffff" stroke="#000000" points="157.5,-596.5 157.5,-615.5 301.5,-615.5 301.5,-596.5 157.5,-596.5"/>
<text text-anchor="middle" x="229.5" y="-603.5" font-family="Helvetica,sans-Serif" font-size="10.00" fill="#000000">xla::ComputationBuilder::Exp</text>
</a>
</g>
</g>
<!-- Node1762&#45;&gt;Node1766 -->
<g id="edge4" class="edge">
<title>Node1762&#45;&gt;Node1766</title>
<path fill="none" stroke="#191970" d="M63.5893,-379.3196C70.8148,-427.265 93.3266,-531.4662 157,-587 161.4128,-590.8487 166.5144,-593.9314 171.9263,-596.3985"/>
<polygon fill="#191970" stroke="#191970" points="67.0234,-378.6053 62.1669,-369.1891 60.0914,-379.5787 67.0234,-378.6053"/>
</g>
<!-- Node1767 -->
<g id="node6" class="node">
<title>Node1767</title>
<g id="a_node6"><a xlink:href="../../df/d1b/classxla_1_1ComputationBuilder.html#ae6f4ad2d0515638fe62e53ce27ae26b1" target="_top" xlink:title="xla::ComputationBuilder\l::Floor">
<polygon fill="#ffffff" stroke="#000000" points="169,-547 169,-577 290,-577 290,-547 169,-547"/>
<text text-anchor="start" x="177" y="-565" font-family="Helvetica,sans-Serif" font-size="10.00" fill="#000000">xla::ComputationBuilder</text>
<text text-anchor="middle" x="229.5" y="-554" font-family="Helvetica,sans-Serif" font-size="10.00" fill="#000000">::Floor</text>
</a>
</g>
</g>
<!-- Node1762&#45;&gt;Node1767 -->
<g id="edge5" class="edge">
<title>Node1762&#45;&gt;Node1767</title>
<path fill="none" stroke="#191970" d="M66.9892,-378.9151C78.5099,-418.3093 106.2378,-494.9191 157,-538 161.0435,-541.4317 165.5934,-544.3768 170.3928,-546.9038"/>
<polygon fill="#191970" stroke="#191970" points="70.2983,-377.7531 64.2238,-369.0726 63.5592,-379.6466 70.2983,-377.7531"/>
</g>
<!-- Node1768 -->
<g id="node7" class="node">
<title>Node1768</title>
<g id="a_node7"><a xlink:href="../../df/d1b/classxla_1_1ComputationBuilder.html#ac500b9e08933f88ce6fe461621a1ac4a" target="_top" xlink:title="xla::ComputationBuilder\l::Ceil">
<polygon fill="#ffffff" stroke="#000000" points="169,-498 169,-528 290,-528 290,-498 169,-498"/>
<text text-anchor="start" x="177" y="-516" font-family="Helvetica,sans-Serif" font-size="10.00" fill="#000000">xla::ComputationBuilder</text>
<text text-anchor="middle" x="229.5" y="-505" font-family="Helvetica,sans-Serif" font-size="10.00" fill="#000000">::Ceil</text>
</a>
</g>
</g>
<!-- Node1762&#45;&gt;Node1768 -->
<g id="edge6" class="edge">
<title>Node1762&#45;&gt;Node1768</title>
<path fill="none" stroke="#191970" d="M71.8724,-378.3901C87.1365,-408.5654 117.0242,-459.5496 157,-489 161.5901,-492.3815 166.6836,-495.3042 171.982,-497.8267"/>
<polygon fill="#191970" stroke="#191970" points="74.9928,-376.804 67.4361,-369.3778 68.7124,-379.8955 74.9928,-376.804"/>
</g>
<!-- Node1769 -->
<g id="node8" class="node">
<title>Node1769</title>
<g id="a_node8"><a xlink:href="../../df/d1b/classxla_1_1ComputationBuilder.html#a8914ce31b6d7019791ad2c35f9f6c025" target="_top" xlink:title="xla::ComputationBuilder\l::Round">
<polygon fill="#ffffff" stroke="#000000" points="169,-449 169,-479 290,-479 290,-449 169,-449"/>
<text text-anchor="start" x="177" y="-467" font-family="Helvetica,sans-Serif" font-size="10.00" fill="#000000">xla::ComputationBuilder</text>
<text text-anchor="middle" x="229.5" y="-456" font-family="Helvetica,sans-Serif" font-size="10.00" fill="#000000">::Round</text>
</a>
</g>
</g>
<!-- Node1762&#45;&gt;Node1769 -->
<g id="edge7" class="edge">
<title>Node1762&#45;&gt;Node1769</title>
<path fill="none" stroke="#191970" d="M81.1177,-376.5453C99.4606,-395.456 127.8303,-422.0228 157,-439 163.4439,-442.7505 170.5379,-446.0564 177.6891,-448.9328"/>
<polygon fill="#191970" stroke="#191970" points="83.5624,-374.0372 74.1312,-369.21 78.4936,-378.865 83.5624,-374.0372"/>
</g>
<!-- Node1770 -->
<g id="node9" class="node">
<title>Node1770</title>
<g id="a_node9"><a xlink:href="../../df/d1b/classxla_1_1ComputationBuilder.html#a61d5d0d5decc708a8e1e17321a43d5ea" target="_top" xlink:title="xla::ComputationBuilder::Log">
<polygon fill="#ffffff" stroke="#000000" points="158,-410.5 158,-429.5 301,-429.5 301,-410.5 158,-410.5"/>
<text text-anchor="middle" x="229.5" y="-417.5" font-family="Helvetica,sans-Serif" font-size="10.00" fill="#000000">xla::ComputationBuilder::Log</text>
</a>
</g>
</g>
<!-- Node1762&#45;&gt;Node1770 -->
<g id="edge8" class="edge">
<title>Node1762&#45;&gt;Node1770</title>
<path fill="none" stroke="#191970" d="M96.6371,-373.7026C114.448,-382.8658 136.4648,-393.3929 157,-401 166.6392,-404.5708 177.2334,-407.7471 187.2753,-410.4323"/>
<polygon fill="#191970" stroke="#191970" points="98.2214,-370.5815 87.7367,-369.0578 94.9828,-376.7873 98.2214,-370.5815"/>
</g>
<!-- Node1771 -->
<g id="node10" class="node">
<title>Node1771</title>
<g id="a_node10"><a xlink:href="../../df/d1b/classxla_1_1ComputationBuilder.html#a0c8e039f7ee77d7bce27f70349f80533" target="_top" xlink:title="xla::ComputationBuilder\l::Sign">
<polygon fill="#ffffff" stroke="#000000" points="169,-361 169,-391 290,-391 290,-361 169,-361"/>
<text text-anchor="start" x="177" y="-379" font-family="Helvetica,sans-Serif" font-size="10.00" fill="#000000">xla::ComputationBuilder</text>
<text text-anchor="middle" x="229.5" y="-368" font-family="Helvetica,sans-Serif" font-size="10.00" fill="#000000">::Sign</text>
</a>
</g>
</g>
<!-- Node1762&#45;&gt;Node1771 -->
<g id="edge9" class="edge">
<title>Node1762&#45;&gt;Node1771</title>
<path fill="none" stroke="#191970" d="M131.0001,-363.1775C143.5661,-364.8133 156.5569,-366.5045 168.8191,-368.1007"/>
<polygon fill="#191970" stroke="#191970" points="131.4037,-359.7006 121.0355,-361.8804 130.5,-366.6421 131.4037,-359.7006"/>
</g>
<!-- Node1772 -->
<g id="node11" class="node">
<title>Node1772</title>
<g id="a_node11"><a xlink:href="../../df/d1b/classxla_1_1ComputationBuilder.html#a4315131a7c36dcd5b69d0b208f756641" target="_top" xlink:title="xla::ComputationBuilder::Cos">
<polygon fill="#ffffff" stroke="#000000" points="157,-322.5 157,-341.5 302,-341.5 302,-322.5 157,-322.5"/>
<text text-anchor="middle" x="229.5" y="-329.5" font-family="Helvetica,sans-Serif" font-size="10.00" fill="#000000">xla::ComputationBuilder::Cos</text>
</a>
</g>
</g>
<!-- Node1762&#45;&gt;Node1772 -->
<g id="edge10" class="edge">
<title>Node1762&#45;&gt;Node1772</title>
<path fill="none" stroke="#191970" d="M131.0001,-344.8225C139.5848,-343.7049 148.3678,-342.5616 156.9812,-341.4403"/>
<polygon fill="#191970" stroke="#191970" points="130.5,-341.3579 121.0355,-346.1196 131.4037,-348.2994 130.5,-341.3579"/>
</g>
<!-- Node1773 -->
<g id="node12" class="node">
<title>Node1773</title>
<g id="a_node12"><a xlink:href="../../df/d1b/classxla_1_1ComputationBuilder.html#a7c4735624a023426201c1f1ef8d73719" target="_top" xlink:title="xla::ComputationBuilder::Sin">
<polygon fill="#ffffff" stroke="#000000" points="159,-284.5 159,-303.5 300,-303.5 300,-284.5 159,-284.5"/>
<text text-anchor="middle" x="229.5" y="-291.5" font-family="Helvetica,sans-Serif" font-size="10.00" fill="#000000">xla::ComputationBuilder::Sin</text>
</a>
</g>
</g>
<!-- Node1762&#45;&gt;Node1773 -->
<g id="edge11" class="edge">
<title>Node1762&#45;&gt;Node1773</title>
<path fill="none" stroke="#191970" d="M102.1818,-334.7226C118.9959,-327.3608 138.7117,-319.2444 157,-313 167.2205,-309.5103 178.4347,-306.2862 188.9238,-303.5223"/>
<polygon fill="#191970" stroke="#191970" points="100.3722,-331.6964 92.6499,-338.9501 103.2102,-338.0953 100.3722,-331.6964"/>
</g>
<!-- Node1774 -->
<g id="node13" class="node">
<title>Node1774</title>
<g id="a_node13"><a xlink:href="../../df/d1b/classxla_1_1ComputationBuilder.html#af5c5066f968e5e9bef55234090e1a4da" target="_top" xlink:title="xla::ComputationBuilder\l::Tanh">
<polygon fill="#ffffff" stroke="#000000" points="169,-235 169,-265 290,-265 290,-235 169,-235"/>
<text text-anchor="start" x="177" y="-253" font-family="Helvetica,sans-Serif" font-size="10.00" fill="#000000">xla::ComputationBuilder</text>
<text text-anchor="middle" x="229.5" y="-242" font-family="Helvetica,sans-Serif" font-size="10.00" fill="#000000">::Tanh</text>
</a>
</g>
</g>
<!-- Node1762&#45;&gt;Node1774 -->
<g id="edge12" class="edge">
<title>Node1762&#45;&gt;Node1774</title>
<path fill="none" stroke="#191970" d="M82.9703,-331.6662C101.5143,-314.2568 129.2076,-290.5108 157,-275 163.6269,-271.3016 170.897,-268.0107 178.1953,-265.1293"/>
<polygon fill="#191970" stroke="#191970" points="80.4234,-329.2588 75.6094,-338.6968 85.2583,-334.3208 80.4234,-329.2588"/>
</g>
<!-- Node1775 -->
<g id="node14" class="node">
<title>Node1775</title>
<g id="a_node14"><a xlink:href="../../df/d1b/classxla_1_1ComputationBuilder.html#a67fbe2371d5ebd66b445cdedb35de78a" target="_top" xlink:title="xla::ComputationBuilder\l::Real">
<polygon fill="#ffffff" stroke="#000000" points="169,-186 169,-216 290,-216 290,-186 169,-186"/>
<text text-anchor="start" x="177" y="-204" font-family="Helvetica,sans-Serif" font-size="10.00" fill="#000000">xla::ComputationBuilder</text>
<text text-anchor="middle" x="229.5" y="-193" font-family="Helvetica,sans-Serif" font-size="10.00" fill="#000000">::Real</text>
</a>
</g>
</g>
<!-- Node1762&#45;&gt;Node1775 -->
<g id="edge13" class="edge">
<title>Node1762&#45;&gt;Node1775</title>
<path fill="none" stroke="#191970" d="M72.9513,-329.6871C88.8003,-301.0234 118.7717,-253.781 157,-226 162.2775,-222.1648 168.1909,-218.8818 174.3033,-216.0802"/>
<polygon fill="#191970" stroke="#191970" points="69.7893,-328.1771 68.1264,-338.6406 75.9514,-331.4978 69.7893,-328.1771"/>
</g>
<!-- Node1777 -->
<g id="node16" class="node">
<title>Node1777</title>
<g id="a_node16"><a xlink:href="../../df/d1b/classxla_1_1ComputationBuilder.html#a51fb388e8929ae0cad11919874ad4f06" target="_top" xlink:title="xla::ComputationBuilder\l::Imag">
<polygon fill="#ffffff" stroke="#000000" points="169,-137 169,-167 290,-167 290,-137 169,-137"/>
<text text-anchor="start" x="177" y="-155" font-family="Helvetica,sans-Serif" font-size="10.00" fill="#000000">xla::ComputationBuilder</text>
<text text-anchor="middle" x="229.5" y="-144" font-family="Helvetica,sans-Serif" font-size="10.00" fill="#000000">::Imag</text>
</a>
</g>
</g>
<!-- Node1762&#45;&gt;Node1777 -->
<g id="edge15" class="edge">
<title>Node1762&#45;&gt;Node1777</title>
<path fill="none" stroke="#191970" d="M67.6713,-329.0009C79.8519,-290.8821 108.1393,-218.3098 157,-177 161.5753,-173.1318 166.7822,-169.851 172.2574,-167.0707"/>
<polygon fill="#191970" stroke="#191970" points="64.2568,-328.1969 64.6592,-338.7841 70.9469,-330.2568 64.2568,-328.1969"/>
</g>
<!-- Node1778 -->
<g id="node17" class="node">
<title>Node1778</title>
<g id="a_node17"><a xlink:href="../../df/d1b/classxla_1_1ComputationBuilder.html#a7a8bab33397cdb8f038d41e2db09bf7a" target="_top" xlink:title="xla::ComputationBuilder\l::IsFinite">
<polygon fill="#ffffff" stroke="#000000" points="169,-88 169,-118 290,-118 290,-88 169,-88"/>
<text text-anchor="start" x="177" y="-106" font-family="Helvetica,sans-Serif" font-size="10.00" fill="#000000">xla::ComputationBuilder</text>
<text text-anchor="middle" x="229.5" y="-95" font-family="Helvetica,sans-Serif" font-size="10.00" fill="#000000">::IsFinite</text>
</a>
</g>
</g>
<!-- Node1762&#45;&gt;Node1778 -->
<g id="edge17" class="edge">
<title>Node1762&#45;&gt;Node1778</title>
<path fill="none" stroke="#191970" d="M64.3845,-328.8903C72.8335,-282.6569 97.1588,-183.7088 157,-128 161.1903,-124.099 166.0185,-120.8032 171.1519,-118.0193"/>
<polygon fill="#191970" stroke="#191970" points="60.9012,-328.4942 62.6485,-338.9439 67.7991,-329.6854 60.9012,-328.4942"/>
</g>
<!-- Node1779 -->
<g id="node18" class="node">
<title>Node1779</title>
<g id="a_node18"><a xlink:href="../../df/d1b/classxla_1_1ComputationBuilder.html#aecd6236ec9c3213f428e827172ffb46f" target="_top" xlink:title="xla::ComputationBuilder\l::Sort">
<polygon fill="#ffffff" stroke="#000000" points="169,-39 169,-69 290,-69 290,-39 169,-39"/>
<text text-anchor="start" x="177" y="-57" font-family="Helvetica,sans-Serif" font-size="10.00" fill="#000000">xla::ComputationBuilder</text>
<text text-anchor="middle" x="229.5" y="-46" font-family="Helvetica,sans-Serif" font-size="10.00" fill="#000000">::Sort</text>
</a>
</g>
</g>
<!-- Node1762&#45;&gt;Node1779 -->
<g id="edge18" class="edge">
<title>Node1762&#45;&gt;Node1779</title>
<path fill="none" stroke="#191970" d="M62.1872,-328.8209C67.1121,-275.351 86.0157,-149.6003 157,-79 160.8704,-75.1505 165.3607,-71.8929 170.173,-69.1361"/>
<polygon fill="#191970" stroke="#191970" points="58.6982,-328.5451 61.3559,-338.8012 65.674,-329.1262 58.6982,-328.5451"/>
</g>
<!-- Node1780 -->
<g id="node19" class="node">
<title>Node1780</title>
<g id="a_node19"><a xlink:href="../../df/d1b/classxla_1_1ComputationBuilder.html#aa3a02b5617a6584c95cfcd841b50282e" target="_top" xlink:title="xla::ComputationBuilder::Neg">
<polygon fill="#ffffff" stroke="#000000" points="157,-.5 157,-19.5 302,-19.5 302,-.5 157,-.5"/>
<text text-anchor="middle" x="229.5" y="-7.5" font-family="Helvetica,sans-Serif" font-size="10.00" fill="#000000">xla::ComputationBuilder::Neg</text>
</a>
</g>
</g>
<!-- Node1762&#45;&gt;Node1780 -->
<g id="edge19" class="edge">
<title>Node1762&#45;&gt;Node1780</title>
<path fill="none" stroke="#191970" d="M64.7061,-328.8487C76.6801,-260.157 112.9474,-71.651 157,-29 160.9263,-25.1986 165.5157,-22.1332 170.445,-19.6645"/>
<polygon fill="#191970" stroke="#191970" points="61.2396,-328.3556 62.9954,-338.8039 68.1385,-329.5411 61.2396,-328.3556"/>
</g>
<!-- Node1764 -->
<g id="node3" class="node">
<title>Node1764</title>
<g id="a_node3"><a xlink:href="../../df/d1b/classxla_1_1ComputationBuilder.html#aee2be03677ccae79e7f5666a50213eda" target="_top" xlink:title="xla::ComputationBuilder::Xor">
<polygon fill="#ffffff" stroke="#000000" points="338,-672.5 338,-691.5 480,-691.5 480,-672.5 338,-672.5"/>
<text text-anchor="middle" x="409" y="-679.5" font-family="Helvetica,sans-Serif" font-size="10.00" fill="#000000">xla::ComputationBuilder::Xor</text>
</a>
</g>
</g>
<!-- Node1763&#45;&gt;Node1764 -->
<g id="edge2" class="edge">
<title>Node1763&#45;&gt;Node1764</title>
<path fill="none" stroke="#191970" d="M311.2335,-682C320.1622,-682 329.1976,-682 337.9823,-682"/>
<polygon fill="#191970" stroke="#191970" points="311.217,-678.5001 301.217,-682 311.217,-685.5001 311.217,-678.5001"/>
</g>
<!-- Node1776 -->
<g id="node15" class="node">
<title>Node1776</title>
<g id="a_node15"><a xlink:href="../../df/d1b/classxla_1_1ComputationBuilder.html#a84dd2247ffacea58bb6d2861cf21a8c1" target="_top" xlink:title="xla::ComputationBuilder\l::Conj">
<polygon fill="#ffffff" stroke="#000000" points="348.5,-137 348.5,-167 469.5,-167 469.5,-137 348.5,-137"/>
<text text-anchor="start" x="356.5" y="-155" font-family="Helvetica,sans-Serif" font-size="10.00" fill="#000000">xla::ComputationBuilder</text>
<text text-anchor="middle" x="409" y="-144" font-family="Helvetica,sans-Serif" font-size="10.00" fill="#000000">::Conj</text>
</a>
</g>
</g>
<!-- Node1775&#45;&gt;Node1776 -->
<g id="edge14" class="edge">
<title>Node1775&#45;&gt;Node1776</title>
<path fill="none" stroke="#191970" d="M294.5174,-183.2515C313.9716,-177.9409 335.1075,-172.1712 353.8621,-167.0516"/>
<polygon fill="#191970" stroke="#191970" points="293.5459,-179.8886 284.8206,-185.8986 295.3893,-186.6415 293.5459,-179.8886"/>
</g>
<!-- Node1777&#45;&gt;Node1776 -->
<g id="edge16" class="edge">
<title>Node1777&#45;&gt;Node1776</title>
<path fill="none" stroke="#191970" d="M300.5192,-152C316.326,-152 332.944,-152 348.2921,-152"/>
<polygon fill="#191970" stroke="#191970" points="300.2705,-148.5001 290.2705,-152 300.2705,-155.5001 300.2705,-148.5001"/>
</g>
<!-- Node1780&#45;&gt;Node1776 -->
<g id="edge20" class="edge">
<title>Node1780&#45;&gt;Node1776</title>
<path fill="none" stroke="#191970" d="M290.7365,-23.1293C294.6617,-24.8523 298.4555,-26.7996 302,-29 347.4478,-57.2143 384.1104,-110.8107 400.188,-136.9325"/>
<polygon fill="#191970" stroke="#191970" points="291.9838,-19.8591 281.395,-19.5023 289.4502,-26.3845 291.9838,-19.8591"/>
</g>
</g>
</svg>
