<?xml version="1.0" encoding="UTF-8" standalone="no"?>
<!DOCTYPE svg PUBLIC "-//W3C//DTD SVG 1.1//EN"
 "http://www.w3.org/Graphics/SVG/1.1/DTD/svg11.dtd">
<!-- Generated by graphviz version 2.40.1 (20161225.0304)
 -->
<!-- Title: xla::ComputationBuilder::Neg Pages: 1 -->
<!--zoomable 110 -->
<svg id="main" version="1.1" xmlns="http://www.w3.org/2000/svg" xmlns:xlink="http://www.w3.org/1999/xlink" xml:space="preserve" onload="init(evt)">
<style type="text/css"><![CDATA[
.edge:hover path { stroke: red; }
.edge:hover polygon { stroke: red; fill: red; }
]]></style>
<script type="text/javascript"><![CDATA[
var edges = document.getElementsByTagName('g');
if (edges && edges.length) {
  for (var i=0;i<edges.length;i++) {
    if (edges[i].id.substr(0,4)=='edge') {
      edges[i].setAttribute('class','edge');
    }
  }
}
]]></script>
        <defs>
                <circle id="rim" cx="0" cy="0" r="7"/>
                <circle id="rim2" cx="0" cy="0" r="3.5"/>
                <g id="zoomPlus">
                        <use xlink:href="#rim" fill="#404040">
                                <set attributeName="fill" to="#808080" begin="zoomplus.mouseover" end="zoomplus.mouseout"/>
                        </use>
                        <path d="M-4,0h8M0,-4v8" fill="none" stroke="white" stroke-width="1.5" pointer-events="none"/>
                </g>
                <g id="zoomMin">
                        <use xlink:href="#rim" fill="#404040">
                                <set attributeName="fill" to="#808080" begin="zoomminus.mouseover" end="zoomminus.mouseout"/>
                        </use>
                        <path d="M-4,0h8" fill="none" stroke="white" stroke-width="1.5" pointer-events="none"/>
                </g>
                <g id="dirArrow">
                        <path fill="none" stroke="white" stroke-width="1.5" d="M0,-3.0v7 M-2.5,-0.5L0,-3.0L2.5,-0.5"/>
                </g>
               <g id="resetDef">
                       <use xlink:href="#rim2" fill="#404040">
                               <set attributeName="fill" to="#808080" begin="reset.mouseover" end="reset.mouseout"/>
                       </use>
               </g>
        </defs>

<script type="text/javascript">
var viewWidth = 957;
var viewHeight = 110;
var sectionId = 'dynsection-90';
</script>
<script xlink:href="../../svgpan.js"/>
<svg id="graph" class="graph">
<g id="viewport">
<title>xla::ComputationBuilder::Neg</title>
<polygon fill="#ffffff" stroke="transparent" points="-4,4 -4,-106 953,-106 953,4 -4,4"/>
<!-- Node836 -->
<g id="node1" class="node">
<title>Node836</title>
<polygon fill="#bfbfbf" stroke="#000000" points="0,-6 0,-25 145,-25 145,-6 0,-6"/>
<text text-anchor="middle" x="72.5" y="-13" font-family="Helvetica,sans-Serif" font-size="10.00" fill="#000000">xla::ComputationBuilder::Neg</text>
</g>
<!-- Node837 -->
<g id="node2" class="node">
<title>Node837</title>
<g id="a_node2"><a xlink:href="../../df/d1b/classxla_1_1ComputationBuilder.html#a22d71fb878467b573c49e929b6ca7482" target="_top" xlink:title="xla::ComputationBuilder\l::UnaryOp">
<polygon fill="#ffffff" stroke="#000000" points="181,-.5 181,-30.5 302,-30.5 302,-.5 181,-.5"/>
<text text-anchor="start" x="189" y="-18.5" font-family="Helvetica,sans-Serif" font-size="10.00" fill="#000000">xla::ComputationBuilder</text>
<text text-anchor="middle" x="241.5" y="-7.5" font-family="Helvetica,sans-Serif" font-size="10.00" fill="#000000">::UnaryOp</text>
</a>
</g>
</g>
<!-- Node836&#45;&gt;Node837 -->
<g id="edge1" class="edge">
<title>Node836&#45;&gt;Node837</title>
<path fill="none" stroke="#191970" d="M145.152,-15.5C153.6111,-15.5 162.2318,-15.5 170.6659,-15.5"/>
<polygon fill="#191970" stroke="#191970" points="170.8378,-19.0001 180.8377,-15.5 170.8377,-12.0001 170.8378,-19.0001"/>
</g>
<!-- Node838 -->
<g id="node3" class="node">
<title>Node838</title>
<g id="a_node3"><a xlink:href="../../df/d1b/classxla_1_1ComputationBuilder.html#a584f43dacccc04122c79a7e4ad2770d0" target="_top" xlink:title="Call RunOp() and either return the output ComputationDataHandle (on success) or an empty ComputationD...">
<polygon fill="#ffffff" stroke="#000000" points="338,-.5 338,-30.5 478,-30.5 478,-.5 338,-.5"/>
<text text-anchor="start" x="346" y="-18.5" font-family="Helvetica,sans-Serif" font-size="10.00" fill="#000000">xla::ComputationBuilder</text>
<text text-anchor="middle" x="408" y="-7.5" font-family="Helvetica,sans-Serif" font-size="10.00" fill="#000000">::RunOpAndParseResponse</text>
</a>
</g>
</g>
<!-- Node837&#45;&gt;Node838 -->
<g id="edge2" class="edge">
<title>Node837&#45;&gt;Node838</title>
<path fill="none" stroke="#191970" d="M302.0813,-15.5C310.4351,-15.5 319.1186,-15.5 327.7587,-15.5"/>
<polygon fill="#191970" stroke="#191970" points="327.8594,-19.0001 337.8593,-15.5 327.8593,-12.0001 327.8594,-19.0001"/>
</g>
<!-- Node839 -->
<g id="node4" class="node">
<title>Node839</title>
<g id="a_node4"><a xlink:href="../../df/d1b/classxla_1_1ComputationBuilder.html#a7d2ff8c5c638378bb6fb998a71661d22" target="_top" xlink:title="Run the given parameter op_request and fill in op_response. ">
<polygon fill="#ffffff" stroke="#000000" points="514,-22.5 514,-52.5 635,-52.5 635,-22.5 514,-22.5"/>
<text text-anchor="start" x="522" y="-40.5" font-family="Helvetica,sans-Serif" font-size="10.00" fill="#000000">xla::ComputationBuilder</text>
<text text-anchor="middle" x="574.5" y="-29.5" font-family="Helvetica,sans-Serif" font-size="10.00" fill="#000000">::RunOp</text>
</a>
</g>
</g>
<!-- Node838&#45;&gt;Node839 -->
<g id="edge3" class="edge">
<title>Node838&#45;&gt;Node839</title>
<path fill="none" stroke="#191970" d="M478.1284,-24.7662C486.6881,-25.8972 495.4375,-27.0533 504.0026,-28.185"/>
<polygon fill="#191970" stroke="#191970" points="503.5776,-31.6592 513.95,-29.4994 504.4947,-24.7195 503.5776,-31.6592"/>
</g>
<!-- Node841 -->
<g id="node6" class="node">
<title>Node841</title>
<g id="a_node6"><a xlink:href="../../df/d1b/classxla_1_1ComputationBuilder.html#a787b5fd4e96b9c918b7d0d73704f0d57" target="_top" xlink:title="xla::ComputationBuilder\l::NoteError">
<polygon fill="#ffffff" stroke="#000000" points="828,-24.5 828,-54.5 949,-54.5 949,-24.5 828,-24.5"/>
<text text-anchor="start" x="836" y="-42.5" font-family="Helvetica,sans-Serif" font-size="10.00" fill="#000000">xla::ComputationBuilder</text>
<text text-anchor="middle" x="888.5" y="-31.5" font-family="Helvetica,sans-Serif" font-size="10.00" fill="#000000">::NoteError</text>
</a>
</g>
</g>
<!-- Node838&#45;&gt;Node841 -->
<g id="edge7" class="edge">
<title>Node838&#45;&gt;Node841</title>
<path fill="none" stroke="#191970" d="M478.1081,-8.9352C555.3874,-3.0946 683.1836,2.4362 792,-12.5 806.0077,-14.4227 820.8475,-17.8459 834.5791,-21.6231"/>
<polygon fill="#191970" stroke="#191970" points="833.7773,-25.0341 844.3543,-24.4197 835.7027,-18.3041 833.7773,-25.0341"/>
</g>
<!-- Node840 -->
<g id="node5" class="node">
<title>Node840</title>
<g id="a_node5"><a xlink:href="../../df/d1b/classxla_1_1ComputationBuilder.html#af5ca3f8bbbe525f593293b55df772f1a" target="_top" xlink:title="Populates computation_ with a valid object. Used before any given operation is enqueued. ">
<polygon fill="#ffffff" stroke="#000000" points="671,-71.5 671,-101.5 792,-101.5 792,-71.5 671,-71.5"/>
<text text-anchor="start" x="679" y="-89.5" font-family="Helvetica,sans-Serif" font-size="10.00" fill="#000000">xla::ComputationBuilder</text>
<text text-anchor="middle" x="731.5" y="-78.5" font-family="Helvetica,sans-Serif" font-size="10.00" fill="#000000">::PrepareComputation</text>
</a>
</g>
</g>
<!-- Node839&#45;&gt;Node840 -->
<g id="edge4" class="edge">
<title>Node839&#45;&gt;Node840</title>
<path fill="none" stroke="#191970" d="M622.8862,-52.6014C638.9287,-57.6083 656.9488,-63.2324 673.631,-68.439"/>
<polygon fill="#191970" stroke="#191970" points="672.6849,-71.8101 683.2735,-71.4484 674.7704,-65.128 672.6849,-71.8101"/>
</g>
<!-- Node842 -->
<g id="node7" class="node">
<title>Node842</title>
<g id="a_node7"><a xlink:href="../../df/d1b/classxla_1_1ComputationBuilder.html#a2def8246d1c1829a85e095a84e364bca" target="_top" xlink:title="xla::ComputationBuilder\l::name">
<polygon fill="#ffffff" stroke="#000000" points="671,-22.5 671,-52.5 792,-52.5 792,-22.5 671,-22.5"/>
<text text-anchor="start" x="679" y="-40.5" font-family="Helvetica,sans-Serif" font-size="10.00" fill="#000000">xla::ComputationBuilder</text>
<text text-anchor="middle" x="731.5" y="-29.5" font-family="Helvetica,sans-Serif" font-size="10.00" fill="#000000">::name</text>
</a>
</g>
</g>
<!-- Node839&#45;&gt;Node842 -->
<g id="edge6" class="edge">
<title>Node839&#45;&gt;Node842</title>
<path fill="none" stroke="#191970" d="M635.2003,-37.5C643.635,-37.5 652.3591,-37.5 660.9547,-37.5"/>
<polygon fill="#191970" stroke="#191970" points="660.9612,-41.0001 670.9611,-37.5 660.9611,-34.0001 660.9612,-41.0001"/>
</g>
<!-- Node840&#45;&gt;Node841 -->
<g id="edge5" class="edge">
<title>Node840&#45;&gt;Node841</title>
<path fill="none" stroke="#191970" d="M781.6074,-71.4997C796.4777,-67.0481 812.919,-62.1262 828.3568,-57.5047"/>
<polygon fill="#191970" stroke="#191970" points="829.7539,-60.7399 838.3301,-54.519 827.7464,-54.034 829.7539,-60.7399"/>
</g>
</g>
</svg>
        <g id="navigator" transform="translate(0 0)" fill="#404254">
                <rect fill="#f2f5e9" fill-opacity="0.5" stroke="#606060" stroke-width=".5" x="0" y="0" width="60" height="60"/>
                <use id="zoomplus" xlink:href="#zoomPlus" x="17" y="9" onmousedown="handleZoom(evt,'in')"/>
                <use id="zoomminus" xlink:href="#zoomMin" x="42" y="9" onmousedown="handleZoom(evt,'out')"/>
                <use id="reset" xlink:href="#resetDef" x="30" y="36" onmousedown="handleReset()"/>
                <g id="arrowUp" xlink:href="#dirArrow" transform="translate(30 24)" onmousedown="handlePan(0,-1)">
                  <use xlink:href="#rim" fill="#404040">
                        <set attributeName="fill" to="#808080" begin="arrowUp.mouseover" end="arrowUp.mouseout"/>
                  </use>
                  <path fill="none" stroke="white" stroke-width="1.5" d="M0,-3.0v7 M-2.5,-0.5L0,-3.0L2.5,-0.5"/>
                </g>
                <g id="arrowRight" xlink:href="#dirArrow" transform="rotate(90) translate(36 -43)" onmousedown="handlePan(1,0)">
                  <use xlink:href="#rim" fill="#404040">
                        <set attributeName="fill" to="#808080" begin="arrowRight.mouseover" end="arrowRight.mouseout"/>
                  </use>
                  <path fill="none" stroke="white" stroke-width="1.5" d="M0,-3.0v7 M-2.5,-0.5L0,-3.0L2.5,-0.5"/>
                </g>
                <g id="arrowDown" xlink:href="#dirArrow" transform="rotate(180) translate(-30 -48)" onmousedown="handlePan(0,1)">
                  <use xlink:href="#rim" fill="#404040">
                        <set attributeName="fill" to="#808080" begin="arrowDown.mouseover" end="arrowDown.mouseout"/>
                  </use>
                  <path fill="none" stroke="white" stroke-width="1.5" d="M0,-3.0v7 M-2.5,-0.5L0,-3.0L2.5,-0.5"/>
                </g>
                <g id="arrowLeft" xlink:href="#dirArrow" transform="rotate(270) translate(-36 17)" onmousedown="handlePan(-1,0)">
                  <use xlink:href="#rim" fill="#404040">
                        <set attributeName="fill" to="#808080" begin="arrowLeft.mouseover" end="arrowLeft.mouseout"/>
                  </use>
                  <path fill="none" stroke="white" stroke-width="1.5" d="M0,-3.0v7 M-2.5,-0.5L0,-3.0L2.5,-0.5"/>
                </g>
        </g>
        <svg viewBox="0 0 15 15" width="100%" height="30px" preserveAspectRatio="xMaxYMin meet">
         <g id="arrow_out" transform="scale(0.3 0.3)">
          <a xlink:href="classxla_1_1ComputationBuilder_aa3a02b5617a6584c95cfcd841b50282e_cgraph_org.svg" target="_base">
           <rect id="button" ry="5" rx="5" y="6" x="6" height="38" width="38"
                fill="#f2f5e9" fill-opacity="0.5" stroke="#606060" stroke-width="1.0"/>
           <path id="arrow"
             d="M 11.500037,31.436501 C 11.940474,20.09759 22.043105,11.32322 32.158766,21.979434 L 37.068811,17.246167 C 37.068811,17.246167 37.088388,32 37.088388,32 L 22.160133,31.978069 C 22.160133,31.978069 26.997745,27.140456 26.997745,27.140456 C 18.528582,18.264221 13.291696,25.230495 11.500037,31.436501 z"
             style="fill:#404040;"/>
          </a>
         </g>
        </svg>
</svg>
