<?xml version="1.0" encoding="UTF-8" standalone="no"?>
<!DOCTYPE svg PUBLIC "-//W3C//DTD SVG 1.1//EN"
 "http://www.w3.org/Graphics/SVG/1.1/DTD/svg11.dtd">
<!-- Generated by graphviz version 2.40.1 (20161225.0304)
 -->
<!-- Title: xla::ComputationBuilder::Cos Pages: 1 -->
<svg width="957pt" height="110pt"
 viewBox="0.00 0.00 957.00 110.00" xmlns="http://www.w3.org/2000/svg" xmlns:xlink="http://www.w3.org/1999/xlink">
<g id="graph0" class="graph" transform="scale(1 1) rotate(0) translate(4 106)">
<title>xla::ComputationBuilder::Cos</title>
<polygon fill="#ffffff" stroke="transparent" points="-4,4 -4,-106 953,-106 953,4 -4,4"/>
<!-- Node423 -->
<g id="node1" class="node">
<title>Node423</title>
<polygon fill="#bfbfbf" stroke="#000000" points="0,-6 0,-25 145,-25 145,-6 0,-6"/>
<text text-anchor="middle" x="72.5" y="-13" font-family="Helvetica,sans-Serif" font-size="10.00" fill="#000000">xla::ComputationBuilder::Cos</text>
</g>
<!-- Node424 -->
<g id="node2" class="node">
<title>Node424</title>
<g id="a_node2"><a xlink:href="../../df/d1b/classxla_1_1ComputationBuilder.html#a22d71fb878467b573c49e929b6ca7482" target="_top" xlink:title="xla::ComputationBuilder\l::UnaryOp">
<polygon fill="#ffffff" stroke="#000000" points="181,-.5 181,-30.5 302,-30.5 302,-.5 181,-.5"/>
<text text-anchor="start" x="189" y="-18.5" font-family="Helvetica,sans-Serif" font-size="10.00" fill="#000000">xla::ComputationBuilder</text>
<text text-anchor="middle" x="241.5" y="-7.5" font-family="Helvetica,sans-Serif" font-size="10.00" fill="#000000">::UnaryOp</text>
</a>
</g>
</g>
<!-- Node423&#45;&gt;Node424 -->
<g id="edge1" class="edge">
<title>Node423&#45;&gt;Node424</title>
<path fill="none" stroke="#191970" d="M145.152,-15.5C153.6111,-15.5 162.2318,-15.5 170.6659,-15.5"/>
<polygon fill="#191970" stroke="#191970" points="170.8378,-19.0001 180.8377,-15.5 170.8377,-12.0001 170.8378,-19.0001"/>
</g>
<!-- Node425 -->
<g id="node3" class="node">
<title>Node425</title>
<g id="a_node3"><a xlink:href="../../df/d1b/classxla_1_1ComputationBuilder.html#a584f43dacccc04122c79a7e4ad2770d0" target="_top" xlink:title="Call RunOp() and either return the output ComputationDataHandle (on success) or an empty ComputationD...">
<polygon fill="#ffffff" stroke="#000000" points="338,-.5 338,-30.5 478,-30.5 478,-.5 338,-.5"/>
<text text-anchor="start" x="346" y="-18.5" font-family="Helvetica,sans-Serif" font-size="10.00" fill="#000000">xla::ComputationBuilder</text>
<text text-anchor="middle" x="408" y="-7.5" font-family="Helvetica,sans-Serif" font-size="10.00" fill="#000000">::RunOpAndParseResponse</text>
</a>
</g>
</g>
<!-- Node424&#45;&gt;Node425 -->
<g id="edge2" class="edge">
<title>Node424&#45;&gt;Node425</title>
<path fill="none" stroke="#191970" d="M302.0813,-15.5C310.4351,-15.5 319.1186,-15.5 327.7587,-15.5"/>
<polygon fill="#191970" stroke="#191970" points="327.8594,-19.0001 337.8593,-15.5 327.8593,-12.0001 327.8594,-19.0001"/>
</g>
<!-- Node426 -->
<g id="node4" class="node">
<title>Node426</title>
<g id="a_node4"><a xlink:href="../../df/d1b/classxla_1_1ComputationBuilder.html#a7d2ff8c5c638378bb6fb998a71661d22" target="_top" xlink:title="Run the given parameter op_request and fill in op_response. ">
<polygon fill="#ffffff" stroke="#000000" points="514,-22.5 514,-52.5 635,-52.5 635,-22.5 514,-22.5"/>
<text text-anchor="start" x="522" y="-40.5" font-family="Helvetica,sans-Serif" font-size="10.00" fill="#000000">xla::ComputationBuilder</text>
<text text-anchor="middle" x="574.5" y="-29.5" font-family="Helvetica,sans-Serif" font-size="10.00" fill="#000000">::RunOp</text>
</a>
</g>
</g>
<!-- Node425&#45;&gt;Node426 -->
<g id="edge3" class="edge">
<title>Node425&#45;&gt;Node426</title>
<path fill="none" stroke="#191970" d="M478.1284,-24.7662C486.6881,-25.8972 495.4375,-27.0533 504.0026,-28.185"/>
<polygon fill="#191970" stroke="#191970" points="503.5776,-31.6592 513.95,-29.4994 504.4947,-24.7195 503.5776,-31.6592"/>
</g>
<!-- Node428 -->
<g id="node6" class="node">
<title>Node428</title>
<g id="a_node6"><a xlink:href="../../df/d1b/classxla_1_1ComputationBuilder.html#a787b5fd4e96b9c918b7d0d73704f0d57" target="_top" xlink:title="xla::ComputationBuilder\l::NoteError">
<polygon fill="#ffffff" stroke="#000000" points="828,-24.5 828,-54.5 949,-54.5 949,-24.5 828,-24.5"/>
<text text-anchor="start" x="836" y="-42.5" font-family="Helvetica,sans-Serif" font-size="10.00" fill="#000000">xla::ComputationBuilder</text>
<text text-anchor="middle" x="888.5" y="-31.5" font-family="Helvetica,sans-Serif" font-size="10.00" fill="#000000">::NoteError</text>
</a>
</g>
</g>
<!-- Node425&#45;&gt;Node428 -->
<g id="edge7" class="edge">
<title>Node425&#45;&gt;Node428</title>
<path fill="none" stroke="#191970" d="M478.1081,-8.9352C555.3874,-3.0946 683.1836,2.4362 792,-12.5 806.0077,-14.4227 820.8475,-17.8459 834.5791,-21.6231"/>
<polygon fill="#191970" stroke="#191970" points="833.7773,-25.0341 844.3543,-24.4197 835.7027,-18.3041 833.7773,-25.0341"/>
</g>
<!-- Node427 -->
<g id="node5" class="node">
<title>Node427</title>
<g id="a_node5"><a xlink:href="../../df/d1b/classxla_1_1ComputationBuilder.html#af5ca3f8bbbe525f593293b55df772f1a" target="_top" xlink:title="Populates computation_ with a valid object. Used before any given operation is enqueued. ">
<polygon fill="#ffffff" stroke="#000000" points="671,-71.5 671,-101.5 792,-101.5 792,-71.5 671,-71.5"/>
<text text-anchor="start" x="679" y="-89.5" font-family="Helvetica,sans-Serif" font-size="10.00" fill="#000000">xla::ComputationBuilder</text>
<text text-anchor="middle" x="731.5" y="-78.5" font-family="Helvetica,sans-Serif" font-size="10.00" fill="#000000">::PrepareComputation</text>
</a>
</g>
</g>
<!-- Node426&#45;&gt;Node427 -->
<g id="edge4" class="edge">
<title>Node426&#45;&gt;Node427</title>
<path fill="none" stroke="#191970" d="M622.8862,-52.6014C638.9287,-57.6083 656.9488,-63.2324 673.631,-68.439"/>
<polygon fill="#191970" stroke="#191970" points="672.6849,-71.8101 683.2735,-71.4484 674.7704,-65.128 672.6849,-71.8101"/>
</g>
<!-- Node429 -->
<g id="node7" class="node">
<title>Node429</title>
<g id="a_node7"><a xlink:href="../../df/d1b/classxla_1_1ComputationBuilder.html#a2def8246d1c1829a85e095a84e364bca" target="_top" xlink:title="xla::ComputationBuilder\l::name">
<polygon fill="#ffffff" stroke="#000000" points="671,-22.5 671,-52.5 792,-52.5 792,-22.5 671,-22.5"/>
<text text-anchor="start" x="679" y="-40.5" font-family="Helvetica,sans-Serif" font-size="10.00" fill="#000000">xla::ComputationBuilder</text>
<text text-anchor="middle" x="731.5" y="-29.5" font-family="Helvetica,sans-Serif" font-size="10.00" fill="#000000">::name</text>
</a>
</g>
</g>
<!-- Node426&#45;&gt;Node429 -->
<g id="edge6" class="edge">
<title>Node426&#45;&gt;Node429</title>
<path fill="none" stroke="#191970" d="M635.2003,-37.5C643.635,-37.5 652.3591,-37.5 660.9547,-37.5"/>
<polygon fill="#191970" stroke="#191970" points="660.9612,-41.0001 670.9611,-37.5 660.9611,-34.0001 660.9612,-41.0001"/>
</g>
<!-- Node427&#45;&gt;Node428 -->
<g id="edge5" class="edge">
<title>Node427&#45;&gt;Node428</title>
<path fill="none" stroke="#191970" d="M781.6074,-71.4997C796.4777,-67.0481 812.919,-62.1262 828.3568,-57.5047"/>
<polygon fill="#191970" stroke="#191970" points="829.7539,-60.7399 838.3301,-54.519 827.7464,-54.034 829.7539,-60.7399"/>
</g>
</g>
</svg>
