<?xml version="1.0" encoding="UTF-8" standalone="no"?>
<!DOCTYPE svg PUBLIC "-//W3C//DTD SVG 1.1//EN"
 "http://www.w3.org/Graphics/SVG/1.1/DTD/svg11.dtd">
<!-- Generated by graphviz version 2.40.1 (20161225.0304)
 -->
<!-- Title: xla::ComputationBuilder::ConvGeneral Pages: 1 -->
<!--zoomable 302 -->
<svg id="main" version="1.1" xmlns="http://www.w3.org/2000/svg" xmlns:xlink="http://www.w3.org/1999/xlink" xml:space="preserve" onload="init(evt)">
<style type="text/css"><![CDATA[
.edge:hover path { stroke: red; }
.edge:hover polygon { stroke: red; fill: red; }
]]></style>
<script type="text/javascript"><![CDATA[
var edges = document.getElementsByTagName('g');
if (edges && edges.length) {
  for (var i=0;i<edges.length;i++) {
    if (edges[i].id.substr(0,4)=='edge') {
      edges[i].setAttribute('class','edge');
    }
  }
}
]]></script>
        <defs>
                <circle id="rim" cx="0" cy="0" r="7"/>
                <circle id="rim2" cx="0" cy="0" r="3.5"/>
                <g id="zoomPlus">
                        <use xlink:href="#rim" fill="#404040">
                                <set attributeName="fill" to="#808080" begin="zoomplus.mouseover" end="zoomplus.mouseout"/>
                        </use>
                        <path d="M-4,0h8M0,-4v8" fill="none" stroke="white" stroke-width="1.5" pointer-events="none"/>
                </g>
                <g id="zoomMin">
                        <use xlink:href="#rim" fill="#404040">
                                <set attributeName="fill" to="#808080" begin="zoomminus.mouseover" end="zoomminus.mouseout"/>
                        </use>
                        <path d="M-4,0h8" fill="none" stroke="white" stroke-width="1.5" pointer-events="none"/>
                </g>
                <g id="dirArrow">
                        <path fill="none" stroke="white" stroke-width="1.5" d="M0,-3.0v7 M-2.5,-0.5L0,-3.0L2.5,-0.5"/>
                </g>
               <g id="resetDef">
                       <use xlink:href="#rim2" fill="#404040">
                               <set attributeName="fill" to="#808080" begin="reset.mouseover" end="reset.mouseout"/>
                       </use>
               </g>
        </defs>

<script type="text/javascript">
var viewWidth = 954;
var viewHeight = 302;
var sectionId = 'dynsection-45';
</script>
<script xlink:href="../../svgpan.js"/>
<svg id="graph" class="graph">
<g id="viewport">
<title>xla::ComputationBuilder::ConvGeneral</title>
<polygon fill="#ffffff" stroke="transparent" points="-4,4 -4,-298 950,-298 950,4 -4,4"/>
<!-- Node365 -->
<g id="node1" class="node">
<title>Node365</title>
<polygon fill="#bfbfbf" stroke="#000000" points="0,-88.5 0,-118.5 121,-118.5 121,-88.5 0,-88.5"/>
<text text-anchor="start" x="8" y="-106.5" font-family="Helvetica,sans-Serif" font-size="10.00" fill="#000000">xla::ComputationBuilder</text>
<text text-anchor="middle" x="60.5" y="-95.5" font-family="Helvetica,sans-Serif" font-size="10.00" fill="#000000">::ConvGeneral</text>
</g>
<!-- Node366 -->
<g id="node2" class="node">
<title>Node366</title>
<g id="a_node2"><a xlink:href="../../df/d1b/classxla_1_1ComputationBuilder.html#ac0905f4579b318824ca65f112f3f1408" target="_top" xlink:title="xla::ComputationBuilder\l::ConvGeneralDilated">
<polygon fill="#ffffff" stroke="#000000" points="157,-88.5 157,-118.5 278,-118.5 278,-88.5 157,-88.5"/>
<text text-anchor="start" x="165" y="-106.5" font-family="Helvetica,sans-Serif" font-size="10.00" fill="#000000">xla::ComputationBuilder</text>
<text text-anchor="middle" x="217.5" y="-95.5" font-family="Helvetica,sans-Serif" font-size="10.00" fill="#000000">::ConvGeneralDilated</text>
</a>
</g>
</g>
<!-- Node365&#45;&gt;Node366 -->
<g id="edge1" class="edge">
<title>Node365&#45;&gt;Node366</title>
<path fill="none" stroke="#191970" d="M121.2003,-103.5C129.635,-103.5 138.3591,-103.5 146.9547,-103.5"/>
<polygon fill="#191970" stroke="#191970" points="146.9612,-107.0001 156.9611,-103.5 146.9611,-100.0001 146.9612,-107.0001"/>
</g>
<!-- Node367 -->
<g id="node3" class="node">
<title>Node367</title>
<g id="a_node3"><a xlink:href="../../df/d1b/classxla_1_1ComputationBuilder.html#af5ca3f8bbbe525f593293b55df772f1a" target="_top" xlink:title="Populates computation_ with a valid object. Used before any given operation is enqueued. ">
<polygon fill="#ffffff" stroke="#000000" points="668,-88.5 668,-118.5 789,-118.5 789,-88.5 668,-88.5"/>
<text text-anchor="start" x="676" y="-106.5" font-family="Helvetica,sans-Serif" font-size="10.00" fill="#000000">xla::ComputationBuilder</text>
<text text-anchor="middle" x="728.5" y="-95.5" font-family="Helvetica,sans-Serif" font-size="10.00" fill="#000000">::PrepareComputation</text>
</a>
</g>
</g>
<!-- Node366&#45;&gt;Node367 -->
<g id="edge2" class="edge">
<title>Node366&#45;&gt;Node367</title>
<path fill="none" stroke="#191970" d="M278.1251,-103.5C373.2061,-103.5 556.9339,-103.5 657.8558,-103.5"/>
<polygon fill="#191970" stroke="#191970" points="657.9539,-107.0001 667.9538,-103.5 657.9538,-100.0001 657.9539,-107.0001"/>
</g>
<!-- Node369 -->
<g id="node5" class="node">
<title>Node369</title>
<g id="a_node5"><a xlink:href="../../df/d1b/classxla_1_1ComputationBuilder.html#a802577eb94272bfc6b2b7684b8a2ad85" target="_top" xlink:title="xla::ComputationBuilder\l::GetShape">
<polygon fill="#ffffff" stroke="#000000" points="323.5,-219.5 323.5,-249.5 444.5,-249.5 444.5,-219.5 323.5,-219.5"/>
<text text-anchor="start" x="331.5" y="-237.5" font-family="Helvetica,sans-Serif" font-size="10.00" fill="#000000">xla::ComputationBuilder</text>
<text text-anchor="middle" x="384" y="-226.5" font-family="Helvetica,sans-Serif" font-size="10.00" fill="#000000">::GetShape</text>
</a>
</g>
</g>
<!-- Node366&#45;&gt;Node369 -->
<g id="edge4" class="edge">
<title>Node366&#45;&gt;Node369</title>
<path fill="none" stroke="#191970" d="M236.5997,-118.5274C266.129,-141.7607 322.9812,-186.4912 356.7971,-213.0971"/>
<polygon fill="#191970" stroke="#191970" points="354.844,-216.0139 364.8673,-219.4467 359.1724,-210.5125 354.844,-216.0139"/>
</g>
<!-- Node371 -->
<g id="node7" class="node">
<title>Node371</title>
<g id="a_node7"><a xlink:href="../../df/d1b/classxla_1_1ComputationBuilder.html#a318ddf58896882c677aac1548c183f25" target="_top" xlink:title="xla::ComputationBuilder\l::VerifyConvolution">
<polygon fill="#ffffff" stroke="#000000" points="500.5,-44.5 500.5,-74.5 621.5,-74.5 621.5,-44.5 500.5,-44.5"/>
<text text-anchor="start" x="508.5" y="-62.5" font-family="Helvetica,sans-Serif" font-size="10.00" fill="#000000">xla::ComputationBuilder</text>
<text text-anchor="middle" x="561" y="-51.5" font-family="Helvetica,sans-Serif" font-size="10.00" fill="#000000">::VerifyConvolution</text>
</a>
</g>
</g>
<!-- Node366&#45;&gt;Node371 -->
<g id="edge7" class="edge">
<title>Node366&#45;&gt;Node371</title>
<path fill="none" stroke="#191970" d="M278.2133,-94.4726C290.074,-92.771 302.4214,-91.0428 314,-89.5 373.3872,-81.5867 440.9251,-73.4422 490.3506,-67.6398"/>
<polygon fill="#191970" stroke="#191970" points="490.7744,-71.1142 500.2994,-66.4747 489.9601,-64.1617 490.7744,-71.1142"/>
</g>
<!-- Node372 -->
<g id="node8" class="node">
<title>Node372</title>
<g id="a_node8"><a xlink:href="../../df/d1b/classxla_1_1ComputationBuilder.html#ac7d7dca366ed62647e192ad629aad835" target="_top" xlink:title="xla::ComputationBuilder\l::MakeWindow">
<polygon fill="#ffffff" stroke="#000000" points="668,-.5 668,-30.5 789,-30.5 789,-.5 668,-.5"/>
<text text-anchor="start" x="676" y="-18.5" font-family="Helvetica,sans-Serif" font-size="10.00" fill="#000000">xla::ComputationBuilder</text>
<text text-anchor="middle" x="728.5" y="-7.5" font-family="Helvetica,sans-Serif" font-size="10.00" fill="#000000">::MakeWindow</text>
</a>
</g>
</g>
<!-- Node366&#45;&gt;Node372 -->
<g id="edge9" class="edge">
<title>Node366&#45;&gt;Node372</title>
<path fill="none" stroke="#191970" d="M256.0719,-88.4922C273.5714,-82.0523 294.6419,-74.806 314,-69.5 390.9169,-48.4173 411.0032,-45.4632 490,-34.5 545.9627,-26.7335 609.7868,-21.8562 657.3198,-18.9905"/>
<polygon fill="#191970" stroke="#191970" points="657.7328,-22.4724 667.5103,-18.3918 657.3222,-15.4844 657.7328,-22.4724"/>
</g>
<!-- Node373 -->
<g id="node9" class="node">
<title>Node373</title>
<g id="a_node9"><a xlink:href="../../df/d1b/classxla_1_1ComputationBuilder.html#a584f43dacccc04122c79a7e4ad2770d0" target="_top" xlink:title="Call RunOp() and either return the output ComputationDataHandle (on success) or an empty ComputationD...">
<polygon fill="#ffffff" stroke="#000000" points="314,-135.5 314,-165.5 454,-165.5 454,-135.5 314,-135.5"/>
<text text-anchor="start" x="322" y="-153.5" font-family="Helvetica,sans-Serif" font-size="10.00" fill="#000000">xla::ComputationBuilder</text>
<text text-anchor="middle" x="384" y="-142.5" font-family="Helvetica,sans-Serif" font-size="10.00" fill="#000000">::RunOpAndParseResponse</text>
</a>
</g>
</g>
<!-- Node366&#45;&gt;Node373 -->
<g id="edge11" class="edge">
<title>Node366&#45;&gt;Node373</title>
<path fill="none" stroke="#191970" d="M270.6394,-118.5003C286.7099,-123.0367 304.5104,-128.0615 321.1519,-132.7591"/>
<polygon fill="#191970" stroke="#191970" points="320.2196,-136.1326 330.7943,-135.481 322.1213,-129.3959 320.2196,-136.1326"/>
</g>
<!-- Node368 -->
<g id="node4" class="node">
<title>Node368</title>
<g id="a_node4"><a xlink:href="../../df/d1b/classxla_1_1ComputationBuilder.html#a787b5fd4e96b9c918b7d0d73704f0d57" target="_top" xlink:title="xla::ComputationBuilder\l::NoteError">
<polygon fill="#ffffff" stroke="#000000" points="825,-88.5 825,-118.5 946,-118.5 946,-88.5 825,-88.5"/>
<text text-anchor="start" x="833" y="-106.5" font-family="Helvetica,sans-Serif" font-size="10.00" fill="#000000">xla::ComputationBuilder</text>
<text text-anchor="middle" x="885.5" y="-95.5" font-family="Helvetica,sans-Serif" font-size="10.00" fill="#000000">::NoteError</text>
</a>
</g>
</g>
<!-- Node367&#45;&gt;Node368 -->
<g id="edge3" class="edge">
<title>Node367&#45;&gt;Node368</title>
<path fill="none" stroke="#191970" d="M789.2003,-103.5C797.635,-103.5 806.3591,-103.5 814.9547,-103.5"/>
<polygon fill="#191970" stroke="#191970" points="814.9612,-107.0001 824.9611,-103.5 814.9611,-100.0001 814.9612,-107.0001"/>
</g>
<!-- Node369&#45;&gt;Node368 -->
<g id="edge6" class="edge">
<title>Node369&#45;&gt;Node368</title>
<path fill="none" stroke="#191970" d="M444.6022,-241.9434C526.7912,-249.3292 676.2656,-253.0052 789,-200.5 823.7514,-184.3148 853.0378,-149.9876 869.9391,-126.8239"/>
<polygon fill="#191970" stroke="#191970" points="872.8727,-128.7375 875.7958,-118.5539 867.1601,-124.6919 872.8727,-128.7375"/>
</g>
<!-- Node370 -->
<g id="node6" class="node">
<title>Node370</title>
<g id="a_node6"><a xlink:href="../../df/d1b/classxla_1_1ComputationBuilder.html#a3cc9e4cb9e38733572e7153a1931b19f" target="_top" xlink:title="xla::ComputationBuilder\l::GetShapeWithoutNoteError">
<polygon fill="#ffffff" stroke="#000000" points="490,-263.5 490,-293.5 632,-293.5 632,-263.5 490,-263.5"/>
<text text-anchor="start" x="498" y="-281.5" font-family="Helvetica,sans-Serif" font-size="10.00" fill="#000000">xla::ComputationBuilder</text>
<text text-anchor="middle" x="561" y="-270.5" font-family="Helvetica,sans-Serif" font-size="10.00" fill="#000000">::GetShapeWithoutNoteError</text>
</a>
</g>
</g>
<!-- Node369&#45;&gt;Node370 -->
<g id="edge5" class="edge">
<title>Node369&#45;&gt;Node370</title>
<path fill="none" stroke="#191970" d="M444.4183,-249.5192C459.2879,-253.2156 475.3374,-257.2053 490.6319,-261.0074"/>
<polygon fill="#191970" stroke="#191970" points="490.0046,-264.4579 500.5537,-263.4738 491.6934,-257.6646 490.0046,-264.4579"/>
</g>
<!-- Node371&#45;&gt;Node368 -->
<g id="edge8" class="edge">
<title>Node371&#45;&gt;Node368</title>
<path fill="none" stroke="#191970" d="M621.8381,-61.7507C667.9707,-64.1375 732.8065,-68.9513 789,-78.5 800.5968,-80.4706 812.8381,-83.1571 824.5642,-86.0404"/>
<polygon fill="#191970" stroke="#191970" points="823.7142,-89.4356 834.2675,-88.4973 825.4325,-82.6497 823.7142,-89.4356"/>
</g>
<!-- Node372&#45;&gt;Node368 -->
<g id="edge10" class="edge">
<title>Node372&#45;&gt;Node368</title>
<path fill="none" stroke="#191970" d="M760.1493,-30.5935C769.5186,-35.2226 779.744,-40.4343 789,-45.5 810.6611,-57.3549 834.4429,-71.6334 852.9777,-83.0568"/>
<polygon fill="#191970" stroke="#191970" points="851.2786,-86.1214 861.6228,-88.4121 854.9649,-80.1706 851.2786,-86.1214"/>
</g>
<!-- Node373&#45;&gt;Node368 -->
<g id="edge15" class="edge">
<title>Node373&#45;&gt;Node368</title>
<path fill="none" stroke="#191970" d="M432.6335,-165.5048C510.2858,-186.8978 666.0457,-219.2163 789,-177.5 818.9144,-167.3505 846.8257,-143.7862 864.8564,-125.9554"/>
<polygon fill="#191970" stroke="#191970" points="867.4501,-128.3095 871.956,-118.7205 862.4538,-123.4067 867.4501,-128.3095"/>
</g>
<!-- Node374 -->
<g id="node10" class="node">
<title>Node374</title>
<g id="a_node10"><a xlink:href="../../df/d1b/classxla_1_1ComputationBuilder.html#a7d2ff8c5c638378bb6fb998a71661d22" target="_top" xlink:title="Run the given parameter op_request and fill in op_response. ">
<polygon fill="#ffffff" stroke="#000000" points="500.5,-135.5 500.5,-165.5 621.5,-165.5 621.5,-135.5 500.5,-135.5"/>
<text text-anchor="start" x="508.5" y="-153.5" font-family="Helvetica,sans-Serif" font-size="10.00" fill="#000000">xla::ComputationBuilder</text>
<text text-anchor="middle" x="561" y="-142.5" font-family="Helvetica,sans-Serif" font-size="10.00" fill="#000000">::RunOp</text>
</a>
</g>
</g>
<!-- Node373&#45;&gt;Node374 -->
<g id="edge12" class="edge">
<title>Node373&#45;&gt;Node374</title>
<path fill="none" stroke="#191970" d="M454.2093,-150.5C466.0041,-150.5 478.2522,-150.5 490.0652,-150.5"/>
<polygon fill="#191970" stroke="#191970" points="490.3121,-154.0001 500.312,-150.5 490.312,-147.0001 490.3121,-154.0001"/>
</g>
<!-- Node374&#45;&gt;Node367 -->
<g id="edge13" class="edge">
<title>Node374&#45;&gt;Node367</title>
<path fill="none" stroke="#191970" d="M614.4586,-135.4997C630.6256,-130.9633 648.533,-125.9385 665.2744,-121.2409"/>
<polygon fill="#191970" stroke="#191970" points="666.2922,-124.5906 674.9748,-118.519 664.401,-117.8509 666.2922,-124.5906"/>
</g>
<!-- Node375 -->
<g id="node11" class="node">
<title>Node375</title>
<g id="a_node11"><a xlink:href="../../df/d1b/classxla_1_1ComputationBuilder.html#a2def8246d1c1829a85e095a84e364bca" target="_top" xlink:title="xla::ComputationBuilder\l::name">
<polygon fill="#ffffff" stroke="#000000" points="668,-137.5 668,-167.5 789,-167.5 789,-137.5 668,-137.5"/>
<text text-anchor="start" x="676" y="-155.5" font-family="Helvetica,sans-Serif" font-size="10.00" fill="#000000">xla::ComputationBuilder</text>
<text text-anchor="middle" x="728.5" y="-144.5" font-family="Helvetica,sans-Serif" font-size="10.00" fill="#000000">::name</text>
</a>
</g>
</g>
<!-- Node374&#45;&gt;Node375 -->
<g id="edge14" class="edge">
<title>Node374&#45;&gt;Node375</title>
<path fill="none" stroke="#191970" d="M621.9452,-151.2277C633.5207,-151.3659 645.7254,-151.5116 657.579,-151.6532"/>
<polygon fill="#191970" stroke="#191970" points="657.8396,-155.1564 667.8807,-151.7762 657.9232,-148.1569 657.8396,-155.1564"/>
</g>
</g>
</svg>
        <g id="navigator" transform="translate(0 0)" fill="#404254">
                <rect fill="#f2f5e9" fill-opacity="0.5" stroke="#606060" stroke-width=".5" x="0" y="0" width="60" height="60"/>
                <use id="zoomplus" xlink:href="#zoomPlus" x="17" y="9" onmousedown="handleZoom(evt,'in')"/>
                <use id="zoomminus" xlink:href="#zoomMin" x="42" y="9" onmousedown="handleZoom(evt,'out')"/>
                <use id="reset" xlink:href="#resetDef" x="30" y="36" onmousedown="handleReset()"/>
                <g id="arrowUp" xlink:href="#dirArrow" transform="translate(30 24)" onmousedown="handlePan(0,-1)">
                  <use xlink:href="#rim" fill="#404040">
                        <set attributeName="fill" to="#808080" begin="arrowUp.mouseover" end="arrowUp.mouseout"/>
                  </use>
                  <path fill="none" stroke="white" stroke-width="1.5" d="M0,-3.0v7 M-2.5,-0.5L0,-3.0L2.5,-0.5"/>
                </g>
                <g id="arrowRight" xlink:href="#dirArrow" transform="rotate(90) translate(36 -43)" onmousedown="handlePan(1,0)">
                  <use xlink:href="#rim" fill="#404040">
                        <set attributeName="fill" to="#808080" begin="arrowRight.mouseover" end="arrowRight.mouseout"/>
                  </use>
                  <path fill="none" stroke="white" stroke-width="1.5" d="M0,-3.0v7 M-2.5,-0.5L0,-3.0L2.5,-0.5"/>
                </g>
                <g id="arrowDown" xlink:href="#dirArrow" transform="rotate(180) translate(-30 -48)" onmousedown="handlePan(0,1)">
                  <use xlink:href="#rim" fill="#404040">
                        <set attributeName="fill" to="#808080" begin="arrowDown.mouseover" end="arrowDown.mouseout"/>
                  </use>
                  <path fill="none" stroke="white" stroke-width="1.5" d="M0,-3.0v7 M-2.5,-0.5L0,-3.0L2.5,-0.5"/>
                </g>
                <g id="arrowLeft" xlink:href="#dirArrow" transform="rotate(270) translate(-36 17)" onmousedown="handlePan(-1,0)">
                  <use xlink:href="#rim" fill="#404040">
                        <set attributeName="fill" to="#808080" begin="arrowLeft.mouseover" end="arrowLeft.mouseout"/>
                  </use>
                  <path fill="none" stroke="white" stroke-width="1.5" d="M0,-3.0v7 M-2.5,-0.5L0,-3.0L2.5,-0.5"/>
                </g>
        </g>
        <svg viewBox="0 0 15 15" width="100%" height="30px" preserveAspectRatio="xMaxYMin meet">
         <g id="arrow_out" transform="scale(0.3 0.3)">
          <a xlink:href="classxla_1_1ComputationBuilder_a012fb04362bae1bd7d7ecdb469cbd6c1_cgraph_org.svg" target="_base">
           <rect id="button" ry="5" rx="5" y="6" x="6" height="38" width="38"
                fill="#f2f5e9" fill-opacity="0.5" stroke="#606060" stroke-width="1.0"/>
           <path id="arrow"
             d="M 11.500037,31.436501 C 11.940474,20.09759 22.043105,11.32322 32.158766,21.979434 L 37.068811,17.246167 C 37.068811,17.246167 37.088388,32 37.088388,32 L 22.160133,31.978069 C 22.160133,31.978069 26.997745,27.140456 26.997745,27.140456 C 18.528582,18.264221 13.291696,25.230495 11.500037,31.436501 z"
             style="fill:#404040;"/>
          </a>
         </g>
        </svg>
</svg>
