<?xml version="1.0" encoding="UTF-8" standalone="no"?>
<!DOCTYPE svg PUBLIC "-//W3C//DTD SVG 1.1//EN"
 "http://www.w3.org/Graphics/SVG/1.1/DTD/svg11.dtd">
<!-- Generated by graphviz version 2.40.1 (20161225.0304)
 -->
<!-- Title: xla::ComputationBuilder::ConstantFromArrayWithLayout Pages: 1 -->
<!--zoomable 110 -->
<svg id="main" version="1.1" xmlns="http://www.w3.org/2000/svg" xmlns:xlink="http://www.w3.org/1999/xlink" xml:space="preserve" onload="init(evt)">
<style type="text/css"><![CDATA[
.edge:hover path { stroke: red; }
.edge:hover polygon { stroke: red; fill: red; }
]]></style>
<script type="text/javascript"><![CDATA[
var edges = document.getElementsByTagName('g');
if (edges && edges.length) {
  for (var i=0;i<edges.length;i++) {
    if (edges[i].id.substr(0,4)=='edge') {
      edges[i].setAttribute('class','edge');
    }
  }
}
]]></script>
        <defs>
                <circle id="rim" cx="0" cy="0" r="7"/>
                <circle id="rim2" cx="0" cy="0" r="3.5"/>
                <g id="zoomPlus">
                        <use xlink:href="#rim" fill="#404040">
                                <set attributeName="fill" to="#808080" begin="zoomplus.mouseover" end="zoomplus.mouseout"/>
                        </use>
                        <path d="M-4,0h8M0,-4v8" fill="none" stroke="white" stroke-width="1.5" pointer-events="none"/>
                </g>
                <g id="zoomMin">
                        <use xlink:href="#rim" fill="#404040">
                                <set attributeName="fill" to="#808080" begin="zoomminus.mouseover" end="zoomminus.mouseout"/>
                        </use>
                        <path d="M-4,0h8" fill="none" stroke="white" stroke-width="1.5" pointer-events="none"/>
                </g>
                <g id="dirArrow">
                        <path fill="none" stroke="white" stroke-width="1.5" d="M0,-3.0v7 M-2.5,-0.5L0,-3.0L2.5,-0.5"/>
                </g>
               <g id="resetDef">
                       <use xlink:href="#rim2" fill="#404040">
                               <set attributeName="fill" to="#808080" begin="reset.mouseover" end="reset.mouseout"/>
                       </use>
               </g>
        </defs>

<script type="text/javascript">
var viewWidth = 970;
var viewHeight = 110;
var sectionId = 'dynsection-28';
</script>
<script xlink:href="../../svgpan.js"/>
<svg id="graph" class="graph">
<g id="viewport">
<title>xla::ComputationBuilder::ConstantFromArrayWithLayout</title>
<polygon fill="#ffffff" stroke="transparent" points="-4,4 -4,-106 966,-106 966,4 -4,4"/>
<!-- Node223 -->
<g id="node1" class="node">
<title>Node223</title>
<polygon fill="#bfbfbf" stroke="#000000" points="0,-.5 0,-30.5 158,-30.5 158,-.5 0,-.5"/>
<text text-anchor="start" x="8" y="-18.5" font-family="Helvetica,sans-Serif" font-size="10.00" fill="#000000">xla::ComputationBuilder</text>
<text text-anchor="middle" x="79" y="-7.5" font-family="Helvetica,sans-Serif" font-size="10.00" fill="#000000">::ConstantFromArrayWithLayout</text>
</g>
<!-- Node224 -->
<g id="node2" class="node">
<title>Node224</title>
<g id="a_node2"><a xlink:href="../../df/d1b/classxla_1_1ComputationBuilder.html#a5f223ba66777e0b8699c138dc4d6a97e" target="_top" xlink:title="xla::ComputationBuilder\l::ConstantLiteral">
<polygon fill="#ffffff" stroke="#000000" points="194,-.5 194,-30.5 315,-30.5 315,-.5 194,-.5"/>
<text text-anchor="start" x="202" y="-18.5" font-family="Helvetica,sans-Serif" font-size="10.00" fill="#000000">xla::ComputationBuilder</text>
<text text-anchor="middle" x="254.5" y="-7.5" font-family="Helvetica,sans-Serif" font-size="10.00" fill="#000000">::ConstantLiteral</text>
</a>
</g>
</g>
<!-- Node223&#45;&gt;Node224 -->
<g id="edge1" class="edge">
<title>Node223&#45;&gt;Node224</title>
<path fill="none" stroke="#191970" d="M158.0221,-15.5C166.5601,-15.5 175.2094,-15.5 183.6424,-15.5"/>
<polygon fill="#191970" stroke="#191970" points="183.7995,-19.0001 193.7995,-15.5 183.7994,-12.0001 183.7995,-19.0001"/>
</g>
<!-- Node225 -->
<g id="node3" class="node">
<title>Node225</title>
<g id="a_node3"><a xlink:href="../../df/d1b/classxla_1_1ComputationBuilder.html#a584f43dacccc04122c79a7e4ad2770d0" target="_top" xlink:title="Call RunOp() and either return the output ComputationDataHandle (on success) or an empty ComputationD...">
<polygon fill="#ffffff" stroke="#000000" points="351,-.5 351,-30.5 491,-30.5 491,-.5 351,-.5"/>
<text text-anchor="start" x="359" y="-18.5" font-family="Helvetica,sans-Serif" font-size="10.00" fill="#000000">xla::ComputationBuilder</text>
<text text-anchor="middle" x="421" y="-7.5" font-family="Helvetica,sans-Serif" font-size="10.00" fill="#000000">::RunOpAndParseResponse</text>
</a>
</g>
</g>
<!-- Node224&#45;&gt;Node225 -->
<g id="edge2" class="edge">
<title>Node224&#45;&gt;Node225</title>
<path fill="none" stroke="#191970" d="M315.0813,-15.5C323.4351,-15.5 332.1186,-15.5 340.7587,-15.5"/>
<polygon fill="#191970" stroke="#191970" points="340.8594,-19.0001 350.8593,-15.5 340.8593,-12.0001 340.8594,-19.0001"/>
</g>
<!-- Node226 -->
<g id="node4" class="node">
<title>Node226</title>
<g id="a_node4"><a xlink:href="../../df/d1b/classxla_1_1ComputationBuilder.html#a7d2ff8c5c638378bb6fb998a71661d22" target="_top" xlink:title="Run the given parameter op_request and fill in op_response. ">
<polygon fill="#ffffff" stroke="#000000" points="527,-22.5 527,-52.5 648,-52.5 648,-22.5 527,-22.5"/>
<text text-anchor="start" x="535" y="-40.5" font-family="Helvetica,sans-Serif" font-size="10.00" fill="#000000">xla::ComputationBuilder</text>
<text text-anchor="middle" x="587.5" y="-29.5" font-family="Helvetica,sans-Serif" font-size="10.00" fill="#000000">::RunOp</text>
</a>
</g>
</g>
<!-- Node225&#45;&gt;Node226 -->
<g id="edge3" class="edge">
<title>Node225&#45;&gt;Node226</title>
<path fill="none" stroke="#191970" d="M491.1284,-24.7662C499.6881,-25.8972 508.4375,-27.0533 517.0026,-28.185"/>
<polygon fill="#191970" stroke="#191970" points="516.5776,-31.6592 526.95,-29.4994 517.4947,-24.7195 516.5776,-31.6592"/>
</g>
<!-- Node228 -->
<g id="node6" class="node">
<title>Node228</title>
<g id="a_node6"><a xlink:href="../../df/d1b/classxla_1_1ComputationBuilder.html#a787b5fd4e96b9c918b7d0d73704f0d57" target="_top" xlink:title="xla::ComputationBuilder\l::NoteError">
<polygon fill="#ffffff" stroke="#000000" points="841,-24.5 841,-54.5 962,-54.5 962,-24.5 841,-24.5"/>
<text text-anchor="start" x="849" y="-42.5" font-family="Helvetica,sans-Serif" font-size="10.00" fill="#000000">xla::ComputationBuilder</text>
<text text-anchor="middle" x="901.5" y="-31.5" font-family="Helvetica,sans-Serif" font-size="10.00" fill="#000000">::NoteError</text>
</a>
</g>
</g>
<!-- Node225&#45;&gt;Node228 -->
<g id="edge7" class="edge">
<title>Node225&#45;&gt;Node228</title>
<path fill="none" stroke="#191970" d="M491.1081,-8.9352C568.3874,-3.0946 696.1836,2.4362 805,-12.5 819.0077,-14.4227 833.8475,-17.8459 847.5791,-21.6231"/>
<polygon fill="#191970" stroke="#191970" points="846.7773,-25.0341 857.3543,-24.4197 848.7027,-18.3041 846.7773,-25.0341"/>
</g>
<!-- Node227 -->
<g id="node5" class="node">
<title>Node227</title>
<g id="a_node5"><a xlink:href="../../df/d1b/classxla_1_1ComputationBuilder.html#af5ca3f8bbbe525f593293b55df772f1a" target="_top" xlink:title="Populates computation_ with a valid object. Used before any given operation is enqueued. ">
<polygon fill="#ffffff" stroke="#000000" points="684,-71.5 684,-101.5 805,-101.5 805,-71.5 684,-71.5"/>
<text text-anchor="start" x="692" y="-89.5" font-family="Helvetica,sans-Serif" font-size="10.00" fill="#000000">xla::ComputationBuilder</text>
<text text-anchor="middle" x="744.5" y="-78.5" font-family="Helvetica,sans-Serif" font-size="10.00" fill="#000000">::PrepareComputation</text>
</a>
</g>
</g>
<!-- Node226&#45;&gt;Node227 -->
<g id="edge4" class="edge">
<title>Node226&#45;&gt;Node227</title>
<path fill="none" stroke="#191970" d="M635.8862,-52.6014C651.9287,-57.6083 669.9488,-63.2324 686.631,-68.439"/>
<polygon fill="#191970" stroke="#191970" points="685.6849,-71.8101 696.2735,-71.4484 687.7704,-65.128 685.6849,-71.8101"/>
</g>
<!-- Node229 -->
<g id="node7" class="node">
<title>Node229</title>
<g id="a_node7"><a xlink:href="../../df/d1b/classxla_1_1ComputationBuilder.html#a2def8246d1c1829a85e095a84e364bca" target="_top" xlink:title="xla::ComputationBuilder\l::name">
<polygon fill="#ffffff" stroke="#000000" points="684,-22.5 684,-52.5 805,-52.5 805,-22.5 684,-22.5"/>
<text text-anchor="start" x="692" y="-40.5" font-family="Helvetica,sans-Serif" font-size="10.00" fill="#000000">xla::ComputationBuilder</text>
<text text-anchor="middle" x="744.5" y="-29.5" font-family="Helvetica,sans-Serif" font-size="10.00" fill="#000000">::name</text>
</a>
</g>
</g>
<!-- Node226&#45;&gt;Node229 -->
<g id="edge6" class="edge">
<title>Node226&#45;&gt;Node229</title>
<path fill="none" stroke="#191970" d="M648.2003,-37.5C656.635,-37.5 665.3591,-37.5 673.9547,-37.5"/>
<polygon fill="#191970" stroke="#191970" points="673.9612,-41.0001 683.9611,-37.5 673.9611,-34.0001 673.9612,-41.0001"/>
</g>
<!-- Node227&#45;&gt;Node228 -->
<g id="edge5" class="edge">
<title>Node227&#45;&gt;Node228</title>
<path fill="none" stroke="#191970" d="M794.6074,-71.4997C809.4777,-67.0481 825.919,-62.1262 841.3568,-57.5047"/>
<polygon fill="#191970" stroke="#191970" points="842.7539,-60.7399 851.3301,-54.519 840.7464,-54.034 842.7539,-60.7399"/>
</g>
</g>
</svg>
        <g id="navigator" transform="translate(0 0)" fill="#404254">
                <rect fill="#f2f5e9" fill-opacity="0.5" stroke="#606060" stroke-width=".5" x="0" y="0" width="60" height="60"/>
                <use id="zoomplus" xlink:href="#zoomPlus" x="17" y="9" onmousedown="handleZoom(evt,'in')"/>
                <use id="zoomminus" xlink:href="#zoomMin" x="42" y="9" onmousedown="handleZoom(evt,'out')"/>
                <use id="reset" xlink:href="#resetDef" x="30" y="36" onmousedown="handleReset()"/>
                <g id="arrowUp" xlink:href="#dirArrow" transform="translate(30 24)" onmousedown="handlePan(0,-1)">
                  <use xlink:href="#rim" fill="#404040">
                        <set attributeName="fill" to="#808080" begin="arrowUp.mouseover" end="arrowUp.mouseout"/>
                  </use>
                  <path fill="none" stroke="white" stroke-width="1.5" d="M0,-3.0v7 M-2.5,-0.5L0,-3.0L2.5,-0.5"/>
                </g>
                <g id="arrowRight" xlink:href="#dirArrow" transform="rotate(90) translate(36 -43)" onmousedown="handlePan(1,0)">
                  <use xlink:href="#rim" fill="#404040">
                        <set attributeName="fill" to="#808080" begin="arrowRight.mouseover" end="arrowRight.mouseout"/>
                  </use>
                  <path fill="none" stroke="white" stroke-width="1.5" d="M0,-3.0v7 M-2.5,-0.5L0,-3.0L2.5,-0.5"/>
                </g>
                <g id="arrowDown" xlink:href="#dirArrow" transform="rotate(180) translate(-30 -48)" onmousedown="handlePan(0,1)">
                  <use xlink:href="#rim" fill="#404040">
                        <set attributeName="fill" to="#808080" begin="arrowDown.mouseover" end="arrowDown.mouseout"/>
                  </use>
                  <path fill="none" stroke="white" stroke-width="1.5" d="M0,-3.0v7 M-2.5,-0.5L0,-3.0L2.5,-0.5"/>
                </g>
                <g id="arrowLeft" xlink:href="#dirArrow" transform="rotate(270) translate(-36 17)" onmousedown="handlePan(-1,0)">
                  <use xlink:href="#rim" fill="#404040">
                        <set attributeName="fill" to="#808080" begin="arrowLeft.mouseover" end="arrowLeft.mouseout"/>
                  </use>
                  <path fill="none" stroke="white" stroke-width="1.5" d="M0,-3.0v7 M-2.5,-0.5L0,-3.0L2.5,-0.5"/>
                </g>
        </g>
        <svg viewBox="0 0 15 15" width="100%" height="30px" preserveAspectRatio="xMaxYMin meet">
         <g id="arrow_out" transform="scale(0.3 0.3)">
          <a xlink:href="classxla_1_1ComputationBuilder_ac3206c415c886f0edf233d1a449c536c_cgraph_org.svg" target="_base">
           <rect id="button" ry="5" rx="5" y="6" x="6" height="38" width="38"
                fill="#f2f5e9" fill-opacity="0.5" stroke="#606060" stroke-width="1.0"/>
           <path id="arrow"
             d="M 11.500037,31.436501 C 11.940474,20.09759 22.043105,11.32322 32.158766,21.979434 L 37.068811,17.246167 C 37.068811,17.246167 37.088388,32 37.088388,32 L 22.160133,31.978069 C 22.160133,31.978069 26.997745,27.140456 26.997745,27.140456 C 18.528582,18.264221 13.291696,25.230495 11.500037,31.436501 z"
             style="fill:#404040;"/>
          </a>
         </g>
        </svg>
</svg>
