<?xml version="1.0" encoding="UTF-8" standalone="no"?>
<!DOCTYPE svg PUBLIC "-//W3C//DTD SVG 1.1//EN"
 "http://www.w3.org/Graphics/SVG/1.1/DTD/svg11.dtd">
<!-- Generated by graphviz version 2.40.1 (20161225.0304)
 -->
<!-- Title: xla::ComputationBuilder::ConvWithGeneralPadding Pages: 1 -->
<svg width="1157pt" height="302pt"
 viewBox="0.00 0.00 1157.00 302.00" xmlns="http://www.w3.org/2000/svg" xmlns:xlink="http://www.w3.org/1999/xlink">
<g id="graph0" class="graph" transform="scale(1 1) rotate(0) translate(4 298)">
<title>xla::ComputationBuilder::ConvWithGeneralPadding</title>
<polygon fill="#ffffff" stroke="transparent" points="-4,4 -4,-298 1153,-298 1153,4 -4,4"/>
<!-- Node409 -->
<g id="node1" class="node">
<title>Node409</title>
<polygon fill="#bfbfbf" stroke="#000000" points="0,-60.5 0,-90.5 135,-90.5 135,-60.5 0,-60.5"/>
<text text-anchor="start" x="8" y="-78.5" font-family="Helvetica,sans-Serif" font-size="10.00" fill="#000000">xla::ComputationBuilder</text>
<text text-anchor="middle" x="67.5" y="-67.5" font-family="Helvetica,sans-Serif" font-size="10.00" fill="#000000">::ConvWithGeneralPadding</text>
</g>
<!-- Node410 -->
<g id="node2" class="node">
<title>Node410</title>
<g id="a_node2"><a xlink:href="../../df/d1b/classxla_1_1ComputationBuilder.html#a012fb04362bae1bd7d7ecdb469cbd6c1" target="_top" xlink:title="xla::ComputationBuilder\l::ConvGeneral">
<polygon fill="#ffffff" stroke="#000000" points="187,-88.5 187,-118.5 308,-118.5 308,-88.5 187,-88.5"/>
<text text-anchor="start" x="195" y="-106.5" font-family="Helvetica,sans-Serif" font-size="10.00" fill="#000000">xla::ComputationBuilder</text>
<text text-anchor="middle" x="247.5" y="-95.5" font-family="Helvetica,sans-Serif" font-size="10.00" fill="#000000">::ConvGeneral</text>
</a>
</g>
</g>
<!-- Node409&#45;&gt;Node410 -->
<g id="edge1" class="edge">
<title>Node409&#45;&gt;Node410</title>
<path fill="none" stroke="#191970" d="M135.0375,-86.0058C148.7642,-88.1411 163.2357,-90.3922 177.0602,-92.5427"/>
<polygon fill="#191970" stroke="#191970" points="176.5732,-96.009 186.9924,-94.0877 177.6492,-89.0921 176.5732,-96.009"/>
</g>
<!-- Node421 -->
<g id="node13" class="node">
<title>Node421</title>
<g id="a_node13"><a xlink:href="../../df/d1b/classxla_1_1ComputationBuilder.html#a3fdd55443e13dbeefab2f5c2bbb78147" target="_top" xlink:title="xla::ComputationBuilder\l::CreateDefaultConvDimension\lNumbers">
<polygon fill="#ffffff" stroke="#000000" points="171,-28 171,-69 324,-69 324,-28 171,-28"/>
<text text-anchor="start" x="179" y="-57" font-family="Helvetica,sans-Serif" font-size="10.00" fill="#000000">xla::ComputationBuilder</text>
<text text-anchor="start" x="179" y="-46" font-family="Helvetica,sans-Serif" font-size="10.00" fill="#000000">::CreateDefaultConvDimension</text>
<text text-anchor="middle" x="247.5" y="-35" font-family="Helvetica,sans-Serif" font-size="10.00" fill="#000000">Numbers</text>
</a>
</g>
</g>
<!-- Node409&#45;&gt;Node421 -->
<g id="edge17" class="edge">
<title>Node409&#45;&gt;Node421</title>
<path fill="none" stroke="#191970" d="M135.0375,-65.3694C143.4264,-64.111 152.0936,-62.811 160.7212,-61.5168"/>
<polygon fill="#191970" stroke="#191970" points="161.4419,-64.948 170.812,-60.0032 160.4034,-58.0254 161.4419,-64.948"/>
</g>
<!-- Node411 -->
<g id="node3" class="node">
<title>Node411</title>
<g id="a_node3"><a xlink:href="../../df/d1b/classxla_1_1ComputationBuilder.html#ac0905f4579b318824ca65f112f3f1408" target="_top" xlink:title="xla::ComputationBuilder\l::ConvGeneralDilated">
<polygon fill="#ffffff" stroke="#000000" points="360,-88.5 360,-118.5 481,-118.5 481,-88.5 360,-88.5"/>
<text text-anchor="start" x="368" y="-106.5" font-family="Helvetica,sans-Serif" font-size="10.00" fill="#000000">xla::ComputationBuilder</text>
<text text-anchor="middle" x="420.5" y="-95.5" font-family="Helvetica,sans-Serif" font-size="10.00" fill="#000000">::ConvGeneralDilated</text>
</a>
</g>
</g>
<!-- Node410&#45;&gt;Node411 -->
<g id="edge2" class="edge">
<title>Node410&#45;&gt;Node411</title>
<path fill="none" stroke="#191970" d="M308.007,-103.5C321.3621,-103.5 335.6285,-103.5 349.3612,-103.5"/>
<polygon fill="#191970" stroke="#191970" points="349.7348,-107.0001 359.7347,-103.5 349.7347,-100.0001 349.7348,-107.0001"/>
</g>
<!-- Node412 -->
<g id="node4" class="node">
<title>Node412</title>
<g id="a_node4"><a xlink:href="../../df/d1b/classxla_1_1ComputationBuilder.html#af5ca3f8bbbe525f593293b55df772f1a" target="_top" xlink:title="Populates computation_ with a valid object. Used before any given operation is enqueued. ">
<polygon fill="#ffffff" stroke="#000000" points="871,-88.5 871,-118.5 992,-118.5 992,-88.5 871,-88.5"/>
<text text-anchor="start" x="879" y="-106.5" font-family="Helvetica,sans-Serif" font-size="10.00" fill="#000000">xla::ComputationBuilder</text>
<text text-anchor="middle" x="931.5" y="-95.5" font-family="Helvetica,sans-Serif" font-size="10.00" fill="#000000">::PrepareComputation</text>
</a>
</g>
</g>
<!-- Node411&#45;&gt;Node412 -->
<g id="edge3" class="edge">
<title>Node411&#45;&gt;Node412</title>
<path fill="none" stroke="#191970" d="M481.1251,-103.5C576.2061,-103.5 759.9339,-103.5 860.8558,-103.5"/>
<polygon fill="#191970" stroke="#191970" points="860.9539,-107.0001 870.9538,-103.5 860.9538,-100.0001 860.9539,-107.0001"/>
</g>
<!-- Node414 -->
<g id="node6" class="node">
<title>Node414</title>
<g id="a_node6"><a xlink:href="../../df/d1b/classxla_1_1ComputationBuilder.html#a802577eb94272bfc6b2b7684b8a2ad85" target="_top" xlink:title="xla::ComputationBuilder\l::GetShape">
<polygon fill="#ffffff" stroke="#000000" points="526.5,-219.5 526.5,-249.5 647.5,-249.5 647.5,-219.5 526.5,-219.5"/>
<text text-anchor="start" x="534.5" y="-237.5" font-family="Helvetica,sans-Serif" font-size="10.00" fill="#000000">xla::ComputationBuilder</text>
<text text-anchor="middle" x="587" y="-226.5" font-family="Helvetica,sans-Serif" font-size="10.00" fill="#000000">::GetShape</text>
</a>
</g>
</g>
<!-- Node411&#45;&gt;Node414 -->
<g id="edge5" class="edge">
<title>Node411&#45;&gt;Node414</title>
<path fill="none" stroke="#191970" d="M439.5997,-118.5274C469.129,-141.7607 525.9812,-186.4912 559.7971,-213.0971"/>
<polygon fill="#191970" stroke="#191970" points="557.844,-216.0139 567.8673,-219.4467 562.1724,-210.5125 557.844,-216.0139"/>
</g>
<!-- Node416 -->
<g id="node8" class="node">
<title>Node416</title>
<g id="a_node8"><a xlink:href="../../df/d1b/classxla_1_1ComputationBuilder.html#a318ddf58896882c677aac1548c183f25" target="_top" xlink:title="xla::ComputationBuilder\l::VerifyConvolution">
<polygon fill="#ffffff" stroke="#000000" points="703.5,-44.5 703.5,-74.5 824.5,-74.5 824.5,-44.5 703.5,-44.5"/>
<text text-anchor="start" x="711.5" y="-62.5" font-family="Helvetica,sans-Serif" font-size="10.00" fill="#000000">xla::ComputationBuilder</text>
<text text-anchor="middle" x="764" y="-51.5" font-family="Helvetica,sans-Serif" font-size="10.00" fill="#000000">::VerifyConvolution</text>
</a>
</g>
</g>
<!-- Node411&#45;&gt;Node416 -->
<g id="edge8" class="edge">
<title>Node411&#45;&gt;Node416</title>
<path fill="none" stroke="#191970" d="M481.2133,-94.4726C493.074,-92.771 505.4214,-91.0428 517,-89.5 576.3872,-81.5867 643.9251,-73.4422 693.3506,-67.6398"/>
<polygon fill="#191970" stroke="#191970" points="693.7744,-71.1142 703.2994,-66.4747 692.9601,-64.1617 693.7744,-71.1142"/>
</g>
<!-- Node417 -->
<g id="node9" class="node">
<title>Node417</title>
<g id="a_node9"><a xlink:href="../../df/d1b/classxla_1_1ComputationBuilder.html#ac7d7dca366ed62647e192ad629aad835" target="_top" xlink:title="xla::ComputationBuilder\l::MakeWindow">
<polygon fill="#ffffff" stroke="#000000" points="871,-.5 871,-30.5 992,-30.5 992,-.5 871,-.5"/>
<text text-anchor="start" x="879" y="-18.5" font-family="Helvetica,sans-Serif" font-size="10.00" fill="#000000">xla::ComputationBuilder</text>
<text text-anchor="middle" x="931.5" y="-7.5" font-family="Helvetica,sans-Serif" font-size="10.00" fill="#000000">::MakeWindow</text>
</a>
</g>
</g>
<!-- Node411&#45;&gt;Node417 -->
<g id="edge10" class="edge">
<title>Node411&#45;&gt;Node417</title>
<path fill="none" stroke="#191970" d="M459.0719,-88.4922C476.5714,-82.0523 497.6419,-74.806 517,-69.5 593.9169,-48.4173 614.0032,-45.4632 693,-34.5 748.9627,-26.7335 812.7868,-21.8562 860.3198,-18.9905"/>
<polygon fill="#191970" stroke="#191970" points="860.7328,-22.4724 870.5103,-18.3918 860.3222,-15.4844 860.7328,-22.4724"/>
</g>
<!-- Node418 -->
<g id="node10" class="node">
<title>Node418</title>
<g id="a_node10"><a xlink:href="../../df/d1b/classxla_1_1ComputationBuilder.html#a584f43dacccc04122c79a7e4ad2770d0" target="_top" xlink:title="Call RunOp() and either return the output ComputationDataHandle (on success) or an empty ComputationD...">
<polygon fill="#ffffff" stroke="#000000" points="517,-135.5 517,-165.5 657,-165.5 657,-135.5 517,-135.5"/>
<text text-anchor="start" x="525" y="-153.5" font-family="Helvetica,sans-Serif" font-size="10.00" fill="#000000">xla::ComputationBuilder</text>
<text text-anchor="middle" x="587" y="-142.5" font-family="Helvetica,sans-Serif" font-size="10.00" fill="#000000">::RunOpAndParseResponse</text>
</a>
</g>
</g>
<!-- Node411&#45;&gt;Node418 -->
<g id="edge12" class="edge">
<title>Node411&#45;&gt;Node418</title>
<path fill="none" stroke="#191970" d="M473.6394,-118.5003C489.7099,-123.0367 507.5104,-128.0615 524.1519,-132.7591"/>
<polygon fill="#191970" stroke="#191970" points="523.2196,-136.1326 533.7943,-135.481 525.1213,-129.3959 523.2196,-136.1326"/>
</g>
<!-- Node413 -->
<g id="node5" class="node">
<title>Node413</title>
<g id="a_node5"><a xlink:href="../../df/d1b/classxla_1_1ComputationBuilder.html#a787b5fd4e96b9c918b7d0d73704f0d57" target="_top" xlink:title="xla::ComputationBuilder\l::NoteError">
<polygon fill="#ffffff" stroke="#000000" points="1028,-88.5 1028,-118.5 1149,-118.5 1149,-88.5 1028,-88.5"/>
<text text-anchor="start" x="1036" y="-106.5" font-family="Helvetica,sans-Serif" font-size="10.00" fill="#000000">xla::ComputationBuilder</text>
<text text-anchor="middle" x="1088.5" y="-95.5" font-family="Helvetica,sans-Serif" font-size="10.00" fill="#000000">::NoteError</text>
</a>
</g>
</g>
<!-- Node412&#45;&gt;Node413 -->
<g id="edge4" class="edge">
<title>Node412&#45;&gt;Node413</title>
<path fill="none" stroke="#191970" d="M992.2003,-103.5C1000.635,-103.5 1009.3591,-103.5 1017.9547,-103.5"/>
<polygon fill="#191970" stroke="#191970" points="1017.9612,-107.0001 1027.9611,-103.5 1017.9611,-100.0001 1017.9612,-107.0001"/>
</g>
<!-- Node414&#45;&gt;Node413 -->
<g id="edge7" class="edge">
<title>Node414&#45;&gt;Node413</title>
<path fill="none" stroke="#191970" d="M647.6022,-241.9434C729.7912,-249.3292 879.2656,-253.0052 992,-200.5 1026.7514,-184.3148 1056.0378,-149.9876 1072.9391,-126.8239"/>
<polygon fill="#191970" stroke="#191970" points="1075.8727,-128.7375 1078.7958,-118.5539 1070.1601,-124.6919 1075.8727,-128.7375"/>
</g>
<!-- Node415 -->
<g id="node7" class="node">
<title>Node415</title>
<g id="a_node7"><a xlink:href="../../df/d1b/classxla_1_1ComputationBuilder.html#a3cc9e4cb9e38733572e7153a1931b19f" target="_top" xlink:title="xla::ComputationBuilder\l::GetShapeWithoutNoteError">
<polygon fill="#ffffff" stroke="#000000" points="693,-263.5 693,-293.5 835,-293.5 835,-263.5 693,-263.5"/>
<text text-anchor="start" x="701" y="-281.5" font-family="Helvetica,sans-Serif" font-size="10.00" fill="#000000">xla::ComputationBuilder</text>
<text text-anchor="middle" x="764" y="-270.5" font-family="Helvetica,sans-Serif" font-size="10.00" fill="#000000">::GetShapeWithoutNoteError</text>
</a>
</g>
</g>
<!-- Node414&#45;&gt;Node415 -->
<g id="edge6" class="edge">
<title>Node414&#45;&gt;Node415</title>
<path fill="none" stroke="#191970" d="M647.4183,-249.5192C662.2879,-253.2156 678.3374,-257.2053 693.6319,-261.0074"/>
<polygon fill="#191970" stroke="#191970" points="693.0046,-264.4579 703.5537,-263.4738 694.6934,-257.6646 693.0046,-264.4579"/>
</g>
<!-- Node416&#45;&gt;Node413 -->
<g id="edge9" class="edge">
<title>Node416&#45;&gt;Node413</title>
<path fill="none" stroke="#191970" d="M824.8381,-61.7507C870.9707,-64.1375 935.8065,-68.9513 992,-78.5 1003.5968,-80.4706 1015.8381,-83.1571 1027.5642,-86.0404"/>
<polygon fill="#191970" stroke="#191970" points="1026.7142,-89.4356 1037.2675,-88.4973 1028.4325,-82.6497 1026.7142,-89.4356"/>
</g>
<!-- Node417&#45;&gt;Node413 -->
<g id="edge11" class="edge">
<title>Node417&#45;&gt;Node413</title>
<path fill="none" stroke="#191970" d="M963.1493,-30.5935C972.5186,-35.2226 982.744,-40.4343 992,-45.5 1013.6611,-57.3549 1037.4429,-71.6334 1055.9777,-83.0568"/>
<polygon fill="#191970" stroke="#191970" points="1054.2786,-86.1214 1064.6228,-88.4121 1057.9649,-80.1706 1054.2786,-86.1214"/>
</g>
<!-- Node418&#45;&gt;Node413 -->
<g id="edge16" class="edge">
<title>Node418&#45;&gt;Node413</title>
<path fill="none" stroke="#191970" d="M635.6335,-165.5048C713.2858,-186.8978 869.0457,-219.2163 992,-177.5 1021.9144,-167.3505 1049.8257,-143.7862 1067.8564,-125.9554"/>
<polygon fill="#191970" stroke="#191970" points="1070.4501,-128.3095 1074.956,-118.7205 1065.4538,-123.4067 1070.4501,-128.3095"/>
</g>
<!-- Node419 -->
<g id="node11" class="node">
<title>Node419</title>
<g id="a_node11"><a xlink:href="../../df/d1b/classxla_1_1ComputationBuilder.html#a7d2ff8c5c638378bb6fb998a71661d22" target="_top" xlink:title="Run the given parameter op_request and fill in op_response. ">
<polygon fill="#ffffff" stroke="#000000" points="703.5,-135.5 703.5,-165.5 824.5,-165.5 824.5,-135.5 703.5,-135.5"/>
<text text-anchor="start" x="711.5" y="-153.5" font-family="Helvetica,sans-Serif" font-size="10.00" fill="#000000">xla::ComputationBuilder</text>
<text text-anchor="middle" x="764" y="-142.5" font-family="Helvetica,sans-Serif" font-size="10.00" fill="#000000">::RunOp</text>
</a>
</g>
</g>
<!-- Node418&#45;&gt;Node419 -->
<g id="edge13" class="edge">
<title>Node418&#45;&gt;Node419</title>
<path fill="none" stroke="#191970" d="M657.2093,-150.5C669.0041,-150.5 681.2522,-150.5 693.0652,-150.5"/>
<polygon fill="#191970" stroke="#191970" points="693.3121,-154.0001 703.312,-150.5 693.312,-147.0001 693.3121,-154.0001"/>
</g>
<!-- Node419&#45;&gt;Node412 -->
<g id="edge14" class="edge">
<title>Node419&#45;&gt;Node412</title>
<path fill="none" stroke="#191970" d="M817.4586,-135.4997C833.6256,-130.9633 851.533,-125.9385 868.2744,-121.2409"/>
<polygon fill="#191970" stroke="#191970" points="869.2922,-124.5906 877.9748,-118.519 867.401,-117.8509 869.2922,-124.5906"/>
</g>
<!-- Node420 -->
<g id="node12" class="node">
<title>Node420</title>
<g id="a_node12"><a xlink:href="../../df/d1b/classxla_1_1ComputationBuilder.html#a2def8246d1c1829a85e095a84e364bca" target="_top" xlink:title="xla::ComputationBuilder\l::name">
<polygon fill="#ffffff" stroke="#000000" points="871,-137.5 871,-167.5 992,-167.5 992,-137.5 871,-137.5"/>
<text text-anchor="start" x="879" y="-155.5" font-family="Helvetica,sans-Serif" font-size="10.00" fill="#000000">xla::ComputationBuilder</text>
<text text-anchor="middle" x="931.5" y="-144.5" font-family="Helvetica,sans-Serif" font-size="10.00" fill="#000000">::name</text>
</a>
</g>
</g>
<!-- Node419&#45;&gt;Node420 -->
<g id="edge15" class="edge">
<title>Node419&#45;&gt;Node420</title>
<path fill="none" stroke="#191970" d="M824.9452,-151.2277C836.5207,-151.3659 848.7254,-151.5116 860.579,-151.6532"/>
<polygon fill="#191970" stroke="#191970" points="860.8396,-155.1564 870.8807,-151.7762 860.9232,-148.1569 860.8396,-155.1564"/>
</g>
</g>
</svg>
