<?xml version="1.0" encoding="UTF-8" standalone="no"?>
<!DOCTYPE svg PUBLIC "-//W3C//DTD SVG 1.1//EN"
 "http://www.w3.org/Graphics/SVG/1.1/DTD/svg11.dtd">
<!-- Generated by graphviz version 2.40.1 (20161225.0304)
 -->
<!-- Title: xla::ComputationBuilder::ConvGeneralDilated Pages: 1 -->
<!--zoomable 88 -->
<svg id="main" version="1.1" xmlns="http://www.w3.org/2000/svg" xmlns:xlink="http://www.w3.org/1999/xlink" xml:space="preserve" onload="init(evt)">
<style type="text/css"><![CDATA[
.edge:hover path { stroke: red; }
.edge:hover polygon { stroke: red; fill: red; }
]]></style>
<script type="text/javascript"><![CDATA[
var edges = document.getElementsByTagName('g');
if (edges && edges.length) {
  for (var i=0;i<edges.length;i++) {
    if (edges[i].id.substr(0,4)=='edge') {
      edges[i].setAttribute('class','edge');
    }
  }
}
]]></script>
        <defs>
                <circle id="rim" cx="0" cy="0" r="7"/>
                <circle id="rim2" cx="0" cy="0" r="3.5"/>
                <g id="zoomPlus">
                        <use xlink:href="#rim" fill="#404040">
                                <set attributeName="fill" to="#808080" begin="zoomplus.mouseover" end="zoomplus.mouseout"/>
                        </use>
                        <path d="M-4,0h8M0,-4v8" fill="none" stroke="white" stroke-width="1.5" pointer-events="none"/>
                </g>
                <g id="zoomMin">
                        <use xlink:href="#rim" fill="#404040">
                                <set attributeName="fill" to="#808080" begin="zoomminus.mouseover" end="zoomminus.mouseout"/>
                        </use>
                        <path d="M-4,0h8" fill="none" stroke="white" stroke-width="1.5" pointer-events="none"/>
                </g>
                <g id="dirArrow">
                        <path fill="none" stroke="white" stroke-width="1.5" d="M0,-3.0v7 M-2.5,-0.5L0,-3.0L2.5,-0.5"/>
                </g>
               <g id="resetDef">
                       <use xlink:href="#rim2" fill="#404040">
                               <set attributeName="fill" to="#808080" begin="reset.mouseover" end="reset.mouseout"/>
                       </use>
               </g>
        </defs>

<script type="text/javascript">
var viewWidth = 631;
var viewHeight = 88;
var sectionId = 'dynsection-48';
</script>
<script xlink:href="../../svgpan.js"/>
<svg id="graph" class="graph">
<g id="viewport">
<title>xla::ComputationBuilder::ConvGeneralDilated</title>
<polygon fill="#ffffff" stroke="transparent" points="-4,4 -4,-84 627,-84 627,4 -4,4"/>
<!-- Node390 -->
<g id="node1" class="node">
<title>Node390</title>
<polygon fill="#bfbfbf" stroke="#000000" points="0,-24.5 0,-54.5 121,-54.5 121,-24.5 0,-24.5"/>
<text text-anchor="start" x="8" y="-42.5" font-family="Helvetica,sans-Serif" font-size="10.00" fill="#000000">xla::ComputationBuilder</text>
<text text-anchor="middle" x="60.5" y="-31.5" font-family="Helvetica,sans-Serif" font-size="10.00" fill="#000000">::ConvGeneralDilated</text>
</g>
<!-- Node391 -->
<g id="node2" class="node">
<title>Node391</title>
<g id="a_node2"><a xlink:href="../../df/d1b/classxla_1_1ComputationBuilder.html#a012fb04362bae1bd7d7ecdb469cbd6c1" target="_top" xlink:title="xla::ComputationBuilder\l::ConvGeneral">
<polygon fill="#ffffff" stroke="#000000" points="157,-24.5 157,-54.5 278,-54.5 278,-24.5 157,-24.5"/>
<text text-anchor="start" x="165" y="-42.5" font-family="Helvetica,sans-Serif" font-size="10.00" fill="#000000">xla::ComputationBuilder</text>
<text text-anchor="middle" x="217.5" y="-31.5" font-family="Helvetica,sans-Serif" font-size="10.00" fill="#000000">::ConvGeneral</text>
</a>
</g>
</g>
<!-- Node390&#45;&gt;Node391 -->
<g id="edge1" class="edge">
<title>Node390&#45;&gt;Node391</title>
<path fill="none" stroke="#191970" d="M131.2098,-39.5C139.807,-39.5 148.5301,-39.5 156.9611,-39.5"/>
<polygon fill="#191970" stroke="#191970" points="131.2003,-36.0001 121.2003,-39.5 131.2003,-43.0001 131.2003,-36.0001"/>
</g>
<!-- Node392 -->
<g id="node3" class="node">
<title>Node392</title>
<g id="a_node3"><a xlink:href="../../df/d1b/classxla_1_1ComputationBuilder.html#aa55e6967d685a12315126f80a2daf1f7" target="_top" xlink:title="xla::ComputationBuilder\l::ConvWithGeneralPadding">
<polygon fill="#ffffff" stroke="#000000" points="322.5,-49.5 322.5,-79.5 457.5,-79.5 457.5,-49.5 322.5,-49.5"/>
<text text-anchor="start" x="330.5" y="-67.5" font-family="Helvetica,sans-Serif" font-size="10.00" fill="#000000">xla::ComputationBuilder</text>
<text text-anchor="middle" x="390" y="-56.5" font-family="Helvetica,sans-Serif" font-size="10.00" fill="#000000">::ConvWithGeneralPadding</text>
</a>
</g>
</g>
<!-- Node391&#45;&gt;Node392 -->
<g id="edge2" class="edge">
<title>Node391&#45;&gt;Node392</title>
<path fill="none" stroke="#191970" d="M288.488,-49.7881C299.6965,-51.4125 311.2602,-53.0884 322.3891,-54.7013"/>
<polygon fill="#191970" stroke="#191970" points="288.7157,-46.2846 278.317,-48.3141 287.7116,-53.2123 288.7157,-46.2846"/>
</g>
<!-- Node393 -->
<g id="node4" class="node">
<title>Node393</title>
<g id="a_node4"><a xlink:href="../../df/d1b/classxla_1_1ComputationBuilder.html#a2e01c5667c341089ea9128d44e77ebf9" target="_top" xlink:title="xla::ComputationBuilder\l::ConvWithGeneralDimensions">
<polygon fill="#ffffff" stroke="#000000" points="314,-.5 314,-30.5 466,-30.5 466,-.5 314,-.5"/>
<text text-anchor="start" x="322" y="-18.5" font-family="Helvetica,sans-Serif" font-size="10.00" fill="#000000">xla::ComputationBuilder</text>
<text text-anchor="middle" x="390" y="-7.5" font-family="Helvetica,sans-Serif" font-size="10.00" fill="#000000">::ConvWithGeneralDimensions</text>
</a>
</g>
</g>
<!-- Node391&#45;&gt;Node393 -->
<g id="edge3" class="edge">
<title>Node391&#45;&gt;Node393</title>
<path fill="none" stroke="#191970" d="M288.3853,-29.6377C296.7384,-28.4755 305.29,-27.2857 313.7132,-26.1138"/>
<polygon fill="#191970" stroke="#191970" points="287.7393,-26.1938 278.317,-31.0385 288.704,-33.127 287.7393,-26.1938"/>
</g>
<!-- Node394 -->
<g id="node5" class="node">
<title>Node394</title>
<g id="a_node5"><a xlink:href="../../df/d1b/classxla_1_1ComputationBuilder.html#a13498be4f12312e0026157948442eb96" target="_top" xlink:title="xla::ComputationBuilder\l::Conv">
<polygon fill="#ffffff" stroke="#000000" points="502,-.5 502,-30.5 623,-30.5 623,-.5 502,-.5"/>
<text text-anchor="start" x="510" y="-18.5" font-family="Helvetica,sans-Serif" font-size="10.00" fill="#000000">xla::ComputationBuilder</text>
<text text-anchor="middle" x="562.5" y="-7.5" font-family="Helvetica,sans-Serif" font-size="10.00" fill="#000000">::Conv</text>
</a>
</g>
</g>
<!-- Node393&#45;&gt;Node394 -->
<g id="edge4" class="edge">
<title>Node393&#45;&gt;Node394</title>
<path fill="none" stroke="#191970" d="M476.2564,-15.5C484.8719,-15.5 493.4873,-15.5 501.7588,-15.5"/>
<polygon fill="#191970" stroke="#191970" points="476.1632,-12.0001 466.1631,-15.5 476.1631,-19.0001 476.1632,-12.0001"/>
</g>
</g>
</svg>
        <g id="navigator" transform="translate(0 0)" fill="#404254">
                <rect fill="#f2f5e9" fill-opacity="0.5" stroke="#606060" stroke-width=".5" x="0" y="0" width="60" height="60"/>
                <use id="zoomplus" xlink:href="#zoomPlus" x="17" y="9" onmousedown="handleZoom(evt,'in')"/>
                <use id="zoomminus" xlink:href="#zoomMin" x="42" y="9" onmousedown="handleZoom(evt,'out')"/>
                <use id="reset" xlink:href="#resetDef" x="30" y="36" onmousedown="handleReset()"/>
                <g id="arrowUp" xlink:href="#dirArrow" transform="translate(30 24)" onmousedown="handlePan(0,-1)">
                  <use xlink:href="#rim" fill="#404040">
                        <set attributeName="fill" to="#808080" begin="arrowUp.mouseover" end="arrowUp.mouseout"/>
                  </use>
                  <path fill="none" stroke="white" stroke-width="1.5" d="M0,-3.0v7 M-2.5,-0.5L0,-3.0L2.5,-0.5"/>
                </g>
                <g id="arrowRight" xlink:href="#dirArrow" transform="rotate(90) translate(36 -43)" onmousedown="handlePan(1,0)">
                  <use xlink:href="#rim" fill="#404040">
                        <set attributeName="fill" to="#808080" begin="arrowRight.mouseover" end="arrowRight.mouseout"/>
                  </use>
                  <path fill="none" stroke="white" stroke-width="1.5" d="M0,-3.0v7 M-2.5,-0.5L0,-3.0L2.5,-0.5"/>
                </g>
                <g id="arrowDown" xlink:href="#dirArrow" transform="rotate(180) translate(-30 -48)" onmousedown="handlePan(0,1)">
                  <use xlink:href="#rim" fill="#404040">
                        <set attributeName="fill" to="#808080" begin="arrowDown.mouseover" end="arrowDown.mouseout"/>
                  </use>
                  <path fill="none" stroke="white" stroke-width="1.5" d="M0,-3.0v7 M-2.5,-0.5L0,-3.0L2.5,-0.5"/>
                </g>
                <g id="arrowLeft" xlink:href="#dirArrow" transform="rotate(270) translate(-36 17)" onmousedown="handlePan(-1,0)">
                  <use xlink:href="#rim" fill="#404040">
                        <set attributeName="fill" to="#808080" begin="arrowLeft.mouseover" end="arrowLeft.mouseout"/>
                  </use>
                  <path fill="none" stroke="white" stroke-width="1.5" d="M0,-3.0v7 M-2.5,-0.5L0,-3.0L2.5,-0.5"/>
                </g>
        </g>
        <svg viewBox="0 0 15 15" width="100%" height="30px" preserveAspectRatio="xMaxYMin meet">
         <g id="arrow_out" transform="scale(0.3 0.3)">
          <a xlink:href="classxla_1_1ComputationBuilder_ac0905f4579b318824ca65f112f3f1408_icgraph_org.svg" target="_base">
           <rect id="button" ry="5" rx="5" y="6" x="6" height="38" width="38"
                fill="#f2f5e9" fill-opacity="0.5" stroke="#606060" stroke-width="1.0"/>
           <path id="arrow"
             d="M 11.500037,31.436501 C 11.940474,20.09759 22.043105,11.32322 32.158766,21.979434 L 37.068811,17.246167 C 37.068811,17.246167 37.088388,32 37.088388,32 L 22.160133,31.978069 C 22.160133,31.978069 26.997745,27.140456 26.997745,27.140456 C 18.528582,18.264221 13.291696,25.230495 11.500037,31.436501 z"
             style="fill:#404040;"/>
          </a>
         </g>
        </svg>
</svg>
