<?xml version="1.0" encoding="UTF-8" standalone="no"?>
<!DOCTYPE svg PUBLIC "-//W3C//DTD SVG 1.1//EN"
 "http://www.w3.org/Graphics/SVG/1.1/DTD/svg11.dtd">
<!-- Generated by graphviz version 2.40.1 (20161225.0304)
 -->
<!-- Title: xla::ComputationBuilder::ConvertElementType Pages: 1 -->
<svg width="797pt" height="172pt"
 viewBox="0.00 0.00 797.00 172.10" xmlns="http://www.w3.org/2000/svg" xmlns:xlink="http://www.w3.org/1999/xlink">
<g id="graph0" class="graph" transform="scale(1 1) rotate(0) translate(4 168.1014)">
<title>xla::ComputationBuilder::ConvertElementType</title>
<polygon fill="#ffffff" stroke="transparent" points="-4,4 -4,-168.1014 793,-168.1014 793,4 -4,4"/>
<!-- Node356 -->
<g id="node1" class="node">
<title>Node356</title>
<polygon fill="#bfbfbf" stroke="#000000" points="0,-59.4294 0,-89.4294 121,-89.4294 121,-59.4294 0,-59.4294"/>
<text text-anchor="start" x="8" y="-77.4294" font-family="Helvetica,sans-Serif" font-size="10.00" fill="#000000">xla::ComputationBuilder</text>
<text text-anchor="middle" x="60.5" y="-66.4294" font-family="Helvetica,sans-Serif" font-size="10.00" fill="#000000">::ConvertElementType</text>
</g>
<!-- Node357 -->
<g id="node2" class="node">
<title>Node357</title>
<g id="a_node2"><a xlink:href="../../df/d1b/classxla_1_1ComputationBuilder.html#af5ca3f8bbbe525f593293b55df772f1a" target="_top" xlink:title="Populates computation_ with a valid object. Used before any given operation is enqueued. ">
<polygon fill="#ffffff" stroke="#000000" points="511,-54.4294 511,-84.4294 632,-84.4294 632,-54.4294 511,-54.4294"/>
<text text-anchor="start" x="519" y="-72.4294" font-family="Helvetica,sans-Serif" font-size="10.00" fill="#000000">xla::ComputationBuilder</text>
<text text-anchor="middle" x="571.5" y="-61.4294" font-family="Helvetica,sans-Serif" font-size="10.00" fill="#000000">::PrepareComputation</text>
</a>
</g>
</g>
<!-- Node356&#45;&gt;Node357 -->
<g id="edge1" class="edge">
<title>Node356&#45;&gt;Node357</title>
<path fill="none" stroke="#191970" d="M121.1251,-73.8362C216.2061,-72.9059 399.9339,-71.1082 500.8558,-70.1207"/>
<polygon fill="#191970" stroke="#191970" points="500.9886,-73.6196 510.9538,-70.0219 500.92,-66.62 500.9886,-73.6196"/>
</g>
<!-- Node359 -->
<g id="node4" class="node">
<title>Node359</title>
<g id="a_node4"><a xlink:href="../../df/d1b/classxla_1_1ComputationBuilder.html#a802577eb94272bfc6b2b7684b8a2ad85" target="_top" xlink:title="xla::ComputationBuilder\l::GetShape">
<polygon fill="#ffffff" stroke="#000000" points="166.5,-15.4294 166.5,-45.4294 287.5,-45.4294 287.5,-15.4294 166.5,-15.4294"/>
<text text-anchor="start" x="174.5" y="-33.4294" font-family="Helvetica,sans-Serif" font-size="10.00" fill="#000000">xla::ComputationBuilder</text>
<text text-anchor="middle" x="227" y="-22.4294" font-family="Helvetica,sans-Serif" font-size="10.00" fill="#000000">::GetShape</text>
</a>
</g>
</g>
<!-- Node356&#45;&gt;Node359 -->
<g id="edge3" class="edge">
<title>Node356&#45;&gt;Node359</title>
<path fill="none" stroke="#191970" d="M117.3342,-59.4102C131.1884,-55.749 146.1316,-51.8001 160.3951,-48.0308"/>
<polygon fill="#191970" stroke="#191970" points="161.3656,-51.3945 170.1395,-45.4557 159.5771,-44.6268 161.3656,-51.3945"/>
</g>
<!-- Node361 -->
<g id="node6" class="node">
<title>Node361</title>
<g id="a_node6"><a xlink:href="../../df/d1b/classxla_1_1ComputationBuilder.html#a584f43dacccc04122c79a7e4ad2770d0" target="_top" xlink:title="Call RunOp() and either return the output ComputationDataHandle (on success) or an empty ComputationD...">
<polygon fill="#ffffff" stroke="#000000" points="157,-103.4294 157,-133.4294 297,-133.4294 297,-103.4294 157,-103.4294"/>
<text text-anchor="start" x="165" y="-121.4294" font-family="Helvetica,sans-Serif" font-size="10.00" fill="#000000">xla::ComputationBuilder</text>
<text text-anchor="middle" x="227" y="-110.4294" font-family="Helvetica,sans-Serif" font-size="10.00" fill="#000000">::RunOpAndParseResponse</text>
</a>
</g>
</g>
<!-- Node356&#45;&gt;Node361 -->
<g id="edge6" class="edge">
<title>Node356&#45;&gt;Node361</title>
<path fill="none" stroke="#191970" d="M117.3342,-89.4487C131.1884,-93.1099 146.1316,-97.0588 160.3951,-100.8281"/>
<polygon fill="#191970" stroke="#191970" points="159.5771,-104.2321 170.1395,-103.4032 161.3656,-97.4644 159.5771,-104.2321"/>
</g>
<!-- Node358 -->
<g id="node3" class="node">
<title>Node358</title>
<g id="a_node3"><a xlink:href="../../df/d1b/classxla_1_1ComputationBuilder.html#a787b5fd4e96b9c918b7d0d73704f0d57" target="_top" xlink:title="xla::ComputationBuilder\l::NoteError">
<polygon fill="#ffffff" stroke="#000000" points="668,-54.4294 668,-84.4294 789,-84.4294 789,-54.4294 668,-54.4294"/>
<text text-anchor="start" x="676" y="-72.4294" font-family="Helvetica,sans-Serif" font-size="10.00" fill="#000000">xla::ComputationBuilder</text>
<text text-anchor="middle" x="728.5" y="-61.4294" font-family="Helvetica,sans-Serif" font-size="10.00" fill="#000000">::NoteError</text>
</a>
</g>
</g>
<!-- Node357&#45;&gt;Node358 -->
<g id="edge2" class="edge">
<title>Node357&#45;&gt;Node358</title>
<path fill="none" stroke="#191970" d="M632.2003,-69.4294C640.635,-69.4294 649.3591,-69.4294 657.9547,-69.4294"/>
<polygon fill="#191970" stroke="#191970" points="657.9612,-72.9295 667.9611,-69.4294 657.9611,-65.9295 657.9612,-72.9295"/>
</g>
<!-- Node359&#45;&gt;Node358 -->
<g id="edge5" class="edge">
<title>Node359&#45;&gt;Node358</title>
<path fill="none" stroke="#191970" d="M279.9534,-15.4015C296.7685,-11.3162 315.5336,-7.4613 333,-5.4294 466.1169,10.0559 502.1016,-11.4702 632,-44.4294 641.4359,-46.8236 651.3842,-49.3727 661.1641,-51.8929"/>
<polygon fill="#191970" stroke="#191970" points="660.3052,-55.2859 670.8627,-54.3968 662.0551,-48.5081 660.3052,-55.2859"/>
</g>
<!-- Node360 -->
<g id="node5" class="node">
<title>Node360</title>
<g id="a_node5"><a xlink:href="../../df/d1b/classxla_1_1ComputationBuilder.html#a3cc9e4cb9e38733572e7153a1931b19f" target="_top" xlink:title="xla::ComputationBuilder\l::GetShapeWithoutNoteError">
<polygon fill="#ffffff" stroke="#000000" points="333,-15.4294 333,-45.4294 475,-45.4294 475,-15.4294 333,-15.4294"/>
<text text-anchor="start" x="341" y="-33.4294" font-family="Helvetica,sans-Serif" font-size="10.00" fill="#000000">xla::ComputationBuilder</text>
<text text-anchor="middle" x="404" y="-22.4294" font-family="Helvetica,sans-Serif" font-size="10.00" fill="#000000">::GetShapeWithoutNoteError</text>
</a>
</g>
</g>
<!-- Node359&#45;&gt;Node360 -->
<g id="edge4" class="edge">
<title>Node359&#45;&gt;Node360</title>
<path fill="none" stroke="#191970" d="M287.9134,-30.4294C299.1282,-30.4294 310.9996,-30.4294 322.7021,-30.4294"/>
<polygon fill="#191970" stroke="#191970" points="322.9218,-33.9295 332.9217,-30.4294 322.9217,-26.9295 322.9218,-33.9295"/>
</g>
<!-- Node361&#45;&gt;Node358 -->
<g id="edge10" class="edge">
<title>Node361&#45;&gt;Node358</title>
<path fill="none" stroke="#191970" d="M277.2341,-133.4728C355.4197,-154.2769 509.9185,-184.8497 632,-143.4294 661.9144,-133.28 689.8257,-109.7157 707.8564,-91.8849"/>
<polygon fill="#191970" stroke="#191970" points="710.4501,-94.2389 714.956,-84.65 705.4538,-89.3361 710.4501,-94.2389"/>
</g>
<!-- Node362 -->
<g id="node7" class="node">
<title>Node362</title>
<g id="a_node7"><a xlink:href="../../df/d1b/classxla_1_1ComputationBuilder.html#a7d2ff8c5c638378bb6fb998a71661d22" target="_top" xlink:title="Run the given parameter op_request and fill in op_response. ">
<polygon fill="#ffffff" stroke="#000000" points="343.5,-103.4294 343.5,-133.4294 464.5,-133.4294 464.5,-103.4294 343.5,-103.4294"/>
<text text-anchor="start" x="351.5" y="-121.4294" font-family="Helvetica,sans-Serif" font-size="10.00" fill="#000000">xla::ComputationBuilder</text>
<text text-anchor="middle" x="404" y="-110.4294" font-family="Helvetica,sans-Serif" font-size="10.00" fill="#000000">::RunOp</text>
</a>
</g>
</g>
<!-- Node361&#45;&gt;Node362 -->
<g id="edge7" class="edge">
<title>Node361&#45;&gt;Node362</title>
<path fill="none" stroke="#191970" d="M297.2093,-118.4294C309.0041,-118.4294 321.2522,-118.4294 333.0652,-118.4294"/>
<polygon fill="#191970" stroke="#191970" points="333.3121,-121.9295 343.312,-118.4294 333.312,-114.9295 333.3121,-121.9295"/>
</g>
<!-- Node362&#45;&gt;Node357 -->
<g id="edge8" class="edge">
<title>Node362&#45;&gt;Node357</title>
<path fill="none" stroke="#191970" d="M455.6223,-103.328C472.8976,-98.2743 492.3225,-92.5918 510.2594,-87.3446"/>
<polygon fill="#191970" stroke="#191970" points="511.4331,-90.648 520.0482,-84.481 509.4677,-83.9296 511.4331,-90.648"/>
</g>
<!-- Node363 -->
<g id="node8" class="node">
<title>Node363</title>
<g id="a_node8"><a xlink:href="../../df/d1b/classxla_1_1ComputationBuilder.html#a2def8246d1c1829a85e095a84e364bca" target="_top" xlink:title="xla::ComputationBuilder\l::name">
<polygon fill="#ffffff" stroke="#000000" points="511,-103.4294 511,-133.4294 632,-133.4294 632,-103.4294 511,-103.4294"/>
<text text-anchor="start" x="519" y="-121.4294" font-family="Helvetica,sans-Serif" font-size="10.00" fill="#000000">xla::ComputationBuilder</text>
<text text-anchor="middle" x="571.5" y="-110.4294" font-family="Helvetica,sans-Serif" font-size="10.00" fill="#000000">::name</text>
</a>
</g>
</g>
<!-- Node362&#45;&gt;Node363 -->
<g id="edge9" class="edge">
<title>Node362&#45;&gt;Node363</title>
<path fill="none" stroke="#191970" d="M464.9452,-118.4294C476.5207,-118.4294 488.7254,-118.4294 500.579,-118.4294"/>
<polygon fill="#191970" stroke="#191970" points="500.8807,-121.9295 510.8807,-118.4294 500.8806,-114.9295 500.8807,-121.9295"/>
</g>
</g>
</svg>
