<?xml version="1.0" encoding="UTF-8" standalone="no"?>
<!DOCTYPE svg PUBLIC "-//W3C//DTD SVG 1.1//EN"
 "http://www.w3.org/Graphics/SVG/1.1/DTD/svg11.dtd">
<!-- Generated by graphviz version 2.40.1 (20161225.0304)
 -->
<!-- Title: xla::ComputationBuilder::ConvWithGeneralDimensions Pages: 1 -->
<!--zoomable 348 -->
<svg id="main" version="1.1" xmlns="http://www.w3.org/2000/svg" xmlns:xlink="http://www.w3.org/1999/xlink" xml:space="preserve" onload="init(evt)">
<style type="text/css"><![CDATA[
.edge:hover path { stroke: red; }
.edge:hover polygon { stroke: red; fill: red; }
]]></style>
<script type="text/javascript"><![CDATA[
var edges = document.getElementsByTagName('g');
if (edges && edges.length) {
  for (var i=0;i<edges.length;i++) {
    if (edges[i].id.substr(0,4)=='edge') {
      edges[i].setAttribute('class','edge');
    }
  }
}
]]></script>
        <defs>
                <circle id="rim" cx="0" cy="0" r="7"/>
                <circle id="rim2" cx="0" cy="0" r="3.5"/>
                <g id="zoomPlus">
                        <use xlink:href="#rim" fill="#404040">
                                <set attributeName="fill" to="#808080" begin="zoomplus.mouseover" end="zoomplus.mouseout"/>
                        </use>
                        <path d="M-4,0h8M0,-4v8" fill="none" stroke="white" stroke-width="1.5" pointer-events="none"/>
                </g>
                <g id="zoomMin">
                        <use xlink:href="#rim" fill="#404040">
                                <set attributeName="fill" to="#808080" begin="zoomminus.mouseover" end="zoomminus.mouseout"/>
                        </use>
                        <path d="M-4,0h8" fill="none" stroke="white" stroke-width="1.5" pointer-events="none"/>
                </g>
                <g id="dirArrow">
                        <path fill="none" stroke="white" stroke-width="1.5" d="M0,-3.0v7 M-2.5,-0.5L0,-3.0L2.5,-0.5"/>
                </g>
               <g id="resetDef">
                       <use xlink:href="#rim2" fill="#404040">
                               <set attributeName="fill" to="#808080" begin="reset.mouseover" end="reset.mouseout"/>
                       </use>
               </g>
        </defs>

<script type="text/javascript">
var viewWidth = 1142;
var viewHeight = 348;
var sectionId = 'dynsection-49';
</script>
<script xlink:href="../../svgpan.js"/>
<svg id="graph" class="graph">
<g id="viewport">
<title>xla::ComputationBuilder::ConvWithGeneralDimensions</title>
<polygon fill="#ffffff" stroke="transparent" points="-4,4 -4,-344 1138,-344 1138,4 -4,4"/>
<!-- Node395 -->
<g id="node1" class="node">
<title>Node395</title>
<polygon fill="#bfbfbf" stroke="#000000" points="0,-199 0,-229 152,-229 152,-199 0,-199"/>
<text text-anchor="start" x="8" y="-217" font-family="Helvetica,sans-Serif" font-size="10.00" fill="#000000">xla::ComputationBuilder</text>
<text text-anchor="middle" x="76" y="-206" font-family="Helvetica,sans-Serif" font-size="10.00" fill="#000000">::ConvWithGeneralDimensions</text>
</g>
<!-- Node396 -->
<g id="node2" class="node">
<title>Node396</title>
<g id="a_node2"><a xlink:href="../../df/d1b/classxla_1_1ComputationBuilder.html#af5ca3f8bbbe525f593293b55df772f1a" target="_top" xlink:title="Populates computation_ with a valid object. Used before any given operation is enqueued. ">
<polygon fill="#ffffff" stroke="#000000" points="856,-18 856,-48 977,-48 977,-18 856,-18"/>
<text text-anchor="start" x="864" y="-36" font-family="Helvetica,sans-Serif" font-size="10.00" fill="#000000">xla::ComputationBuilder</text>
<text text-anchor="middle" x="916.5" y="-25" font-family="Helvetica,sans-Serif" font-size="10.00" fill="#000000">::PrepareComputation</text>
</a>
</g>
</g>
<!-- Node395&#45;&gt;Node396 -->
<g id="edge1" class="edge">
<title>Node395&#45;&gt;Node396</title>
<path fill="none" stroke="#191970" d="M87.6348,-198.9519C126.7338,-150.241 259.1876,0 405.5,0 405.5,0 405.5,0 572,0 667.2054,0 776.5391,-12.6432 846.0352,-22.278"/>
<polygon fill="#191970" stroke="#191970" points="845.6037,-25.7517 855.9932,-23.6758 846.5769,-18.8196 845.6037,-25.7517"/>
</g>
<!-- Node397 -->
<g id="node3" class="node">
<title>Node397</title>
<g id="a_node3"><a xlink:href="../../df/d1b/classxla_1_1ComputationBuilder.html#a787b5fd4e96b9c918b7d0d73704f0d57" target="_top" xlink:title="xla::ComputationBuilder\l::NoteError">
<polygon fill="#ffffff" stroke="#000000" points="1013,-180 1013,-210 1134,-210 1134,-180 1013,-180"/>
<text text-anchor="start" x="1021" y="-198" font-family="Helvetica,sans-Serif" font-size="10.00" fill="#000000">xla::ComputationBuilder</text>
<text text-anchor="middle" x="1073.5" y="-187" font-family="Helvetica,sans-Serif" font-size="10.00" fill="#000000">::NoteError</text>
</a>
</g>
</g>
<!-- Node395&#45;&gt;Node397 -->
<g id="edge8" class="edge">
<title>Node395&#45;&gt;Node397</title>
<path fill="none" stroke="#191970" d="M98.4309,-229.1985C150.1389,-262.7107 282.7044,-340 405.5,-340 405.5,-340 405.5,-340 749,-340 855.0016,-340 882.942,-318.882 977,-270 1004.2251,-255.8511 1031.4828,-233.7571 1050.05,-217.2078"/>
<polygon fill="#191970" stroke="#191970" points="1052.6421,-219.5818 1057.6937,-210.2688 1047.937,-214.3989 1052.6421,-219.5818"/>
</g>
<!-- Node398 -->
<g id="node4" class="node">
<title>Node398</title>
<g id="a_node4"><a xlink:href="../../df/d1b/classxla_1_1ComputationBuilder.html#a802577eb94272bfc6b2b7684b8a2ad85" target="_top" xlink:title="xla::ComputationBuilder\l::GetShape">
<polygon fill="#ffffff" stroke="#000000" points="511.5,-199 511.5,-229 632.5,-229 632.5,-199 511.5,-199"/>
<text text-anchor="start" x="519.5" y="-217" font-family="Helvetica,sans-Serif" font-size="10.00" fill="#000000">xla::ComputationBuilder</text>
<text text-anchor="middle" x="572" y="-206" font-family="Helvetica,sans-Serif" font-size="10.00" fill="#000000">::GetShape</text>
</a>
</g>
</g>
<!-- Node395&#45;&gt;Node398 -->
<g id="edge3" class="edge">
<title>Node395&#45;&gt;Node398</title>
<path fill="none" stroke="#191970" d="M152.1421,-214C247.2873,-214 408.8253,-214 501.3354,-214"/>
<polygon fill="#191970" stroke="#191970" points="501.4412,-217.5001 511.4411,-214 501.4411,-210.5001 501.4412,-217.5001"/>
</g>
<!-- Node400 -->
<g id="node6" class="node">
<title>Node400</title>
<g id="a_node6"><a xlink:href="../../df/d1b/classxla_1_1ComputationBuilder.html#a318ddf58896882c677aac1548c183f25" target="_top" xlink:title="xla::ComputationBuilder\l::VerifyConvolution">
<polygon fill="#ffffff" stroke="#000000" points="511.5,-248 511.5,-278 632.5,-278 632.5,-248 511.5,-248"/>
<text text-anchor="start" x="519.5" y="-266" font-family="Helvetica,sans-Serif" font-size="10.00" fill="#000000">xla::ComputationBuilder</text>
<text text-anchor="middle" x="572" y="-255" font-family="Helvetica,sans-Serif" font-size="10.00" fill="#000000">::VerifyConvolution</text>
</a>
</g>
</g>
<!-- Node395&#45;&gt;Node400 -->
<g id="edge6" class="edge">
<title>Node395&#45;&gt;Node400</title>
<path fill="none" stroke="#191970" d="M152.1725,-223.869C164.1542,-225.321 176.408,-226.7476 188,-228 297.2384,-239.8024 424.2488,-250.8578 501.3396,-257.2727"/>
<polygon fill="#191970" stroke="#191970" points="501.1601,-260.7697 511.4152,-258.1083 501.7387,-253.7937 501.1601,-260.7697"/>
</g>
<!-- Node401 -->
<g id="node7" class="node">
<title>Node401</title>
<g id="a_node7"><a xlink:href="../../df/d1b/classxla_1_1ComputationBuilder.html#a012fb04362bae1bd7d7ecdb469cbd6c1" target="_top" xlink:title="xla::ComputationBuilder\l::ConvGeneral">
<polygon fill="#ffffff" stroke="#000000" points="188,-155 188,-185 309,-185 309,-155 188,-155"/>
<text text-anchor="start" x="196" y="-173" font-family="Helvetica,sans-Serif" font-size="10.00" fill="#000000">xla::ComputationBuilder</text>
<text text-anchor="middle" x="248.5" y="-162" font-family="Helvetica,sans-Serif" font-size="10.00" fill="#000000">::ConvGeneral</text>
</a>
</g>
</g>
<!-- Node395&#45;&gt;Node401 -->
<g id="edge9" class="edge">
<title>Node395&#45;&gt;Node401</title>
<path fill="none" stroke="#191970" d="M134.8822,-198.9808C149.2358,-195.3196 164.7174,-191.3706 179.4949,-187.6013"/>
<polygon fill="#191970" stroke="#191970" points="180.7658,-190.8893 189.5904,-185.0262 179.0356,-184.1065 180.7658,-190.8893"/>
</g>
<!-- Node396&#45;&gt;Node397 -->
<g id="edge2" class="edge">
<title>Node396&#45;&gt;Node397</title>
<path fill="none" stroke="#191970" d="M962.9911,-48.1222C967.9597,-50.6892 972.7456,-53.6357 977,-57 1016.7283,-88.4171 1046.8808,-140.5148 1062.2229,-170.9125"/>
<polygon fill="#191970" stroke="#191970" points="1059.122,-172.538 1066.6771,-179.9657 1065.4029,-169.4478 1059.122,-172.538"/>
</g>
<!-- Node398&#45;&gt;Node397 -->
<g id="edge5" class="edge">
<title>Node398&#45;&gt;Node397</title>
<path fill="none" stroke="#191970" d="M632.9924,-211.6892C726.2746,-208.1551 903.9331,-201.4243 1002.7443,-197.6807"/>
<polygon fill="#191970" stroke="#191970" points="1003.0711,-201.1709 1012.9314,-197.2947 1002.806,-194.1759 1003.0711,-201.1709"/>
</g>
<!-- Node399 -->
<g id="node5" class="node">
<title>Node399</title>
<g id="a_node5"><a xlink:href="../../df/d1b/classxla_1_1ComputationBuilder.html#a3cc9e4cb9e38733572e7153a1931b19f" target="_top" xlink:title="xla::ComputationBuilder\l::GetShapeWithoutNoteError">
<polygon fill="#ffffff" stroke="#000000" points="678,-243 678,-273 820,-273 820,-243 678,-243"/>
<text text-anchor="start" x="686" y="-261" font-family="Helvetica,sans-Serif" font-size="10.00" fill="#000000">xla::ComputationBuilder</text>
<text text-anchor="middle" x="749" y="-250" font-family="Helvetica,sans-Serif" font-size="10.00" fill="#000000">::GetShapeWithoutNoteError</text>
</a>
</g>
</g>
<!-- Node398&#45;&gt;Node399 -->
<g id="edge4" class="edge">
<title>Node398&#45;&gt;Node399</title>
<path fill="none" stroke="#191970" d="M632.4183,-229.0192C647.2879,-232.7156 663.3374,-236.7053 678.6319,-240.5074"/>
<polygon fill="#191970" stroke="#191970" points="678.0046,-243.9579 688.5537,-242.9738 679.6934,-237.1646 678.0046,-243.9579"/>
</g>
<!-- Node400&#45;&gt;Node397 -->
<g id="edge7" class="edge">
<title>Node400&#45;&gt;Node397</title>
<path fill="none" stroke="#191970" d="M632.5424,-276.4348C647.337,-279.1597 663.1763,-281.6138 678,-283 740.837,-288.8762 757.7676,-293.4945 820,-283 897.3053,-269.9637 982.5167,-236.0407 1031.8359,-214.3238"/>
<polygon fill="#191970" stroke="#191970" points="1033.4951,-217.4165 1041.2082,-210.153 1030.649,-211.0212 1033.4951,-217.4165"/>
</g>
<!-- Node402 -->
<g id="node8" class="node">
<title>Node402</title>
<g id="a_node8"><a xlink:href="../../df/d1b/classxla_1_1ComputationBuilder.html#ac0905f4579b318824ca65f112f3f1408" target="_top" xlink:title="xla::ComputationBuilder\l::ConvGeneralDilated">
<polygon fill="#ffffff" stroke="#000000" points="345,-155 345,-185 466,-185 466,-155 345,-155"/>
<text text-anchor="start" x="353" y="-173" font-family="Helvetica,sans-Serif" font-size="10.00" fill="#000000">xla::ComputationBuilder</text>
<text text-anchor="middle" x="405.5" y="-162" font-family="Helvetica,sans-Serif" font-size="10.00" fill="#000000">::ConvGeneralDilated</text>
</a>
</g>
</g>
<!-- Node401&#45;&gt;Node402 -->
<g id="edge10" class="edge">
<title>Node401&#45;&gt;Node402</title>
<path fill="none" stroke="#191970" d="M309.2003,-170C317.635,-170 326.3591,-170 334.9547,-170"/>
<polygon fill="#191970" stroke="#191970" points="334.9612,-173.5001 344.9611,-170 334.9611,-166.5001 334.9612,-173.5001"/>
</g>
<!-- Node402&#45;&gt;Node396 -->
<g id="edge11" class="edge">
<title>Node402&#45;&gt;Node396</title>
<path fill="none" stroke="#191970" d="M422.3877,-154.873C440.7361,-139.2047 471.5254,-115.0819 502,-101 614.5935,-48.9721 760.5438,-36.0618 845.8249,-33.2562"/>
<polygon fill="#191970" stroke="#191970" points="846.0242,-36.752 855.918,-32.9622 845.8203,-29.7549 846.0242,-36.752"/>
</g>
<!-- Node402&#45;&gt;Node398 -->
<g id="edge12" class="edge">
<title>Node402&#45;&gt;Node398</title>
<path fill="none" stroke="#191970" d="M462.3342,-185.0192C476.1884,-188.6804 491.1316,-192.6294 505.3951,-196.3987"/>
<polygon fill="#191970" stroke="#191970" points="504.5771,-199.8026 515.1395,-198.9738 506.3656,-193.0349 504.5771,-199.8026"/>
</g>
<!-- Node402&#45;&gt;Node400 -->
<g id="edge13" class="edge">
<title>Node402&#45;&gt;Node400</title>
<path fill="none" stroke="#191970" d="M423.325,-185.1824C441.9522,-200.4424 472.5199,-223.8199 502,-239 505.498,-240.8012 509.1608,-242.5149 512.8989,-244.1363"/>
<polygon fill="#191970" stroke="#191970" points="511.7142,-247.433 522.2953,-247.9737 514.3608,-240.9526 511.7142,-247.433"/>
</g>
<!-- Node403 -->
<g id="node9" class="node">
<title>Node403</title>
<g id="a_node9"><a xlink:href="../../df/d1b/classxla_1_1ComputationBuilder.html#ac7d7dca366ed62647e192ad629aad835" target="_top" xlink:title="xla::ComputationBuilder\l::MakeWindow">
<polygon fill="#ffffff" stroke="#000000" points="688.5,-155 688.5,-185 809.5,-185 809.5,-155 688.5,-155"/>
<text text-anchor="start" x="696.5" y="-173" font-family="Helvetica,sans-Serif" font-size="10.00" fill="#000000">xla::ComputationBuilder</text>
<text text-anchor="middle" x="749" y="-162" font-family="Helvetica,sans-Serif" font-size="10.00" fill="#000000">::MakeWindow</text>
</a>
</g>
</g>
<!-- Node402&#45;&gt;Node403 -->
<g id="edge14" class="edge">
<title>Node402&#45;&gt;Node403</title>
<path fill="none" stroke="#191970" d="M466.1202,-170C525.4148,-170 615.6784,-170 678.2301,-170"/>
<polygon fill="#191970" stroke="#191970" points="678.4091,-173.5001 688.4091,-170 678.409,-166.5001 678.4091,-173.5001"/>
</g>
<!-- Node404 -->
<g id="node10" class="node">
<title>Node404</title>
<g id="a_node10"><a xlink:href="../../df/d1b/classxla_1_1ComputationBuilder.html#a584f43dacccc04122c79a7e4ad2770d0" target="_top" xlink:title="Call RunOp() and either return the output ComputationDataHandle (on success) or an empty ComputationD...">
<polygon fill="#ffffff" stroke="#000000" points="502,-111 502,-141 642,-141 642,-111 502,-111"/>
<text text-anchor="start" x="510" y="-129" font-family="Helvetica,sans-Serif" font-size="10.00" fill="#000000">xla::ComputationBuilder</text>
<text text-anchor="middle" x="572" y="-118" font-family="Helvetica,sans-Serif" font-size="10.00" fill="#000000">::RunOpAndParseResponse</text>
</a>
</g>
</g>
<!-- Node402&#45;&gt;Node404 -->
<g id="edge16" class="edge">
<title>Node402&#45;&gt;Node404</title>
<path fill="none" stroke="#191970" d="M462.3342,-154.9808C476.1884,-151.3196 491.1316,-147.3706 505.3951,-143.6013"/>
<polygon fill="#191970" stroke="#191970" points="506.3656,-146.9651 515.1395,-141.0262 504.5771,-140.1974 506.3656,-146.9651"/>
</g>
<!-- Node403&#45;&gt;Node397 -->
<g id="edge15" class="edge">
<title>Node403&#45;&gt;Node397</title>
<path fill="none" stroke="#191970" d="M809.6553,-174.673C864.426,-178.8926 945.0419,-185.1034 1002.7341,-189.5481"/>
<polygon fill="#191970" stroke="#191970" points="1002.628,-193.0502 1012.8673,-190.3288 1003.1658,-186.0709 1002.628,-193.0502"/>
</g>
<!-- Node404&#45;&gt;Node397 -->
<g id="edge20" class="edge">
<title>Node404&#45;&gt;Node397</title>
<path fill="none" stroke="#191970" d="M642.2222,-129.3879C691.992,-132.2747 760.2663,-137.2174 820,-145 890.3635,-154.1676 907.4347,-160.0095 977,-174 985.4268,-175.6947 994.254,-177.5311 1003.0014,-179.3885"/>
<polygon fill="#191970" stroke="#191970" points="1002.3073,-182.8191 1012.8182,-181.4882 1003.7714,-175.974 1002.3073,-182.8191"/>
</g>
<!-- Node405 -->
<g id="node11" class="node">
<title>Node405</title>
<g id="a_node11"><a xlink:href="../../df/d1b/classxla_1_1ComputationBuilder.html#a7d2ff8c5c638378bb6fb998a71661d22" target="_top" xlink:title="Run the given parameter op_request and fill in op_response. ">
<polygon fill="#ffffff" stroke="#000000" points="688.5,-67 688.5,-97 809.5,-97 809.5,-67 688.5,-67"/>
<text text-anchor="start" x="696.5" y="-85" font-family="Helvetica,sans-Serif" font-size="10.00" fill="#000000">xla::ComputationBuilder</text>
<text text-anchor="middle" x="749" y="-74" font-family="Helvetica,sans-Serif" font-size="10.00" fill="#000000">::RunOp</text>
</a>
</g>
</g>
<!-- Node404&#45;&gt;Node405 -->
<g id="edge17" class="edge">
<title>Node404&#45;&gt;Node405</title>
<path fill="none" stroke="#191970" d="M632.4183,-110.9808C647.2879,-107.2844 663.3374,-103.2947 678.6319,-99.4926"/>
<polygon fill="#191970" stroke="#191970" points="679.6934,-102.8354 688.5537,-97.0262 678.0046,-96.0421 679.6934,-102.8354"/>
</g>
<!-- Node405&#45;&gt;Node396 -->
<g id="edge18" class="edge">
<title>Node405&#45;&gt;Node396</title>
<path fill="none" stroke="#191970" d="M800.6223,-66.8986C817.8976,-61.8449 837.3225,-56.1624 855.2594,-50.9152"/>
<polygon fill="#191970" stroke="#191970" points="856.4331,-54.2186 865.0482,-48.0516 854.4677,-47.5001 856.4331,-54.2186"/>
</g>
<!-- Node406 -->
<g id="node12" class="node">
<title>Node406</title>
<g id="a_node12"><a xlink:href="../../df/d1b/classxla_1_1ComputationBuilder.html#a2def8246d1c1829a85e095a84e364bca" target="_top" xlink:title="xla::ComputationBuilder\l::name">
<polygon fill="#ffffff" stroke="#000000" points="856,-67 856,-97 977,-97 977,-67 856,-67"/>
<text text-anchor="start" x="864" y="-85" font-family="Helvetica,sans-Serif" font-size="10.00" fill="#000000">xla::ComputationBuilder</text>
<text text-anchor="middle" x="916.5" y="-74" font-family="Helvetica,sans-Serif" font-size="10.00" fill="#000000">::name</text>
</a>
</g>
</g>
<!-- Node405&#45;&gt;Node406 -->
<g id="edge19" class="edge">
<title>Node405&#45;&gt;Node406</title>
<path fill="none" stroke="#191970" d="M809.9452,-82C821.5207,-82 833.7254,-82 845.579,-82"/>
<polygon fill="#191970" stroke="#191970" points="845.8807,-85.5001 855.8807,-82 845.8806,-78.5001 845.8807,-85.5001"/>
</g>
</g>
</svg>
        <g id="navigator" transform="translate(0 0)" fill="#404254">
                <rect fill="#f2f5e9" fill-opacity="0.5" stroke="#606060" stroke-width=".5" x="0" y="0" width="60" height="60"/>
                <use id="zoomplus" xlink:href="#zoomPlus" x="17" y="9" onmousedown="handleZoom(evt,'in')"/>
                <use id="zoomminus" xlink:href="#zoomMin" x="42" y="9" onmousedown="handleZoom(evt,'out')"/>
                <use id="reset" xlink:href="#resetDef" x="30" y="36" onmousedown="handleReset()"/>
                <g id="arrowUp" xlink:href="#dirArrow" transform="translate(30 24)" onmousedown="handlePan(0,-1)">
                  <use xlink:href="#rim" fill="#404040">
                        <set attributeName="fill" to="#808080" begin="arrowUp.mouseover" end="arrowUp.mouseout"/>
                  </use>
                  <path fill="none" stroke="white" stroke-width="1.5" d="M0,-3.0v7 M-2.5,-0.5L0,-3.0L2.5,-0.5"/>
                </g>
                <g id="arrowRight" xlink:href="#dirArrow" transform="rotate(90) translate(36 -43)" onmousedown="handlePan(1,0)">
                  <use xlink:href="#rim" fill="#404040">
                        <set attributeName="fill" to="#808080" begin="arrowRight.mouseover" end="arrowRight.mouseout"/>
                  </use>
                  <path fill="none" stroke="white" stroke-width="1.5" d="M0,-3.0v7 M-2.5,-0.5L0,-3.0L2.5,-0.5"/>
                </g>
                <g id="arrowDown" xlink:href="#dirArrow" transform="rotate(180) translate(-30 -48)" onmousedown="handlePan(0,1)">
                  <use xlink:href="#rim" fill="#404040">
                        <set attributeName="fill" to="#808080" begin="arrowDown.mouseover" end="arrowDown.mouseout"/>
                  </use>
                  <path fill="none" stroke="white" stroke-width="1.5" d="M0,-3.0v7 M-2.5,-0.5L0,-3.0L2.5,-0.5"/>
                </g>
                <g id="arrowLeft" xlink:href="#dirArrow" transform="rotate(270) translate(-36 17)" onmousedown="handlePan(-1,0)">
                  <use xlink:href="#rim" fill="#404040">
                        <set attributeName="fill" to="#808080" begin="arrowLeft.mouseover" end="arrowLeft.mouseout"/>
                  </use>
                  <path fill="none" stroke="white" stroke-width="1.5" d="M0,-3.0v7 M-2.5,-0.5L0,-3.0L2.5,-0.5"/>
                </g>
        </g>
        <svg viewBox="0 0 15 15" width="100%" height="30px" preserveAspectRatio="xMaxYMin meet">
         <g id="arrow_out" transform="scale(0.3 0.3)">
          <a xlink:href="classxla_1_1ComputationBuilder_a2e01c5667c341089ea9128d44e77ebf9_cgraph_org.svg" target="_base">
           <rect id="button" ry="5" rx="5" y="6" x="6" height="38" width="38"
                fill="#f2f5e9" fill-opacity="0.5" stroke="#606060" stroke-width="1.0"/>
           <path id="arrow"
             d="M 11.500037,31.436501 C 11.940474,20.09759 22.043105,11.32322 32.158766,21.979434 L 37.068811,17.246167 C 37.068811,17.246167 37.088388,32 37.088388,32 L 22.160133,31.978069 C 22.160133,31.978069 26.997745,27.140456 26.997745,27.140456 C 18.528582,18.264221 13.291696,25.230495 11.500037,31.436501 z"
             style="fill:#404040;"/>
          </a>
         </g>
        </svg>
</svg>
