<?xml version="1.0" encoding="UTF-8" standalone="no"?>
<!DOCTYPE svg PUBLIC "-//W3C//DTD SVG 1.1//EN"
 "http://www.w3.org/Graphics/SVG/1.1/DTD/svg11.dtd">
<!-- Generated by graphviz version 2.40.1 (20161225.0304)
 -->
<!-- Title: xla::ComputationBuilder::Div Pages: 1 -->
<svg width="954pt" height="110pt"
 viewBox="0.00 0.00 954.00 110.00" xmlns="http://www.w3.org/2000/svg" xmlns:xlink="http://www.w3.org/1999/xlink">
<g id="graph0" class="graph" transform="scale(1 1) rotate(0) translate(4 106)">
<title>xla::ComputationBuilder::Div</title>
<polygon fill="#ffffff" stroke="transparent" points="-4,4 -4,-106 950,-106 950,4 -4,4"/>
<!-- Node453 -->
<g id="node1" class="node">
<title>Node453</title>
<polygon fill="#bfbfbf" stroke="#000000" points="0,-6 0,-25 142,-25 142,-6 0,-6"/>
<text text-anchor="middle" x="71" y="-13" font-family="Helvetica,sans-Serif" font-size="10.00" fill="#000000">xla::ComputationBuilder::Div</text>
</g>
<!-- Node454 -->
<g id="node2" class="node">
<title>Node454</title>
<g id="a_node2"><a xlink:href="../../df/d1b/classxla_1_1ComputationBuilder.html#a0534929468ac066fad4a507026251490" target="_top" xlink:title="xla::ComputationBuilder\l::BinaryOp">
<polygon fill="#ffffff" stroke="#000000" points="178,-.5 178,-30.5 299,-30.5 299,-.5 178,-.5"/>
<text text-anchor="start" x="186" y="-18.5" font-family="Helvetica,sans-Serif" font-size="10.00" fill="#000000">xla::ComputationBuilder</text>
<text text-anchor="middle" x="238.5" y="-7.5" font-family="Helvetica,sans-Serif" font-size="10.00" fill="#000000">::BinaryOp</text>
</a>
</g>
</g>
<!-- Node453&#45;&gt;Node454 -->
<g id="edge1" class="edge">
<title>Node453&#45;&gt;Node454</title>
<path fill="none" stroke="#191970" d="M142.0351,-15.5C150.5294,-15.5 159.2023,-15.5 167.6934,-15.5"/>
<polygon fill="#191970" stroke="#191970" points="167.9362,-19.0001 177.9362,-15.5 167.9361,-12.0001 167.9362,-19.0001"/>
</g>
<!-- Node455 -->
<g id="node3" class="node">
<title>Node455</title>
<g id="a_node3"><a xlink:href="../../df/d1b/classxla_1_1ComputationBuilder.html#a584f43dacccc04122c79a7e4ad2770d0" target="_top" xlink:title="Call RunOp() and either return the output ComputationDataHandle (on success) or an empty ComputationD...">
<polygon fill="#ffffff" stroke="#000000" points="335,-.5 335,-30.5 475,-30.5 475,-.5 335,-.5"/>
<text text-anchor="start" x="343" y="-18.5" font-family="Helvetica,sans-Serif" font-size="10.00" fill="#000000">xla::ComputationBuilder</text>
<text text-anchor="middle" x="405" y="-7.5" font-family="Helvetica,sans-Serif" font-size="10.00" fill="#000000">::RunOpAndParseResponse</text>
</a>
</g>
</g>
<!-- Node454&#45;&gt;Node455 -->
<g id="edge2" class="edge">
<title>Node454&#45;&gt;Node455</title>
<path fill="none" stroke="#191970" d="M299.0813,-15.5C307.4351,-15.5 316.1186,-15.5 324.7587,-15.5"/>
<polygon fill="#191970" stroke="#191970" points="324.8594,-19.0001 334.8593,-15.5 324.8593,-12.0001 324.8594,-19.0001"/>
</g>
<!-- Node456 -->
<g id="node4" class="node">
<title>Node456</title>
<g id="a_node4"><a xlink:href="../../df/d1b/classxla_1_1ComputationBuilder.html#a7d2ff8c5c638378bb6fb998a71661d22" target="_top" xlink:title="Run the given parameter op_request and fill in op_response. ">
<polygon fill="#ffffff" stroke="#000000" points="511,-22.5 511,-52.5 632,-52.5 632,-22.5 511,-22.5"/>
<text text-anchor="start" x="519" y="-40.5" font-family="Helvetica,sans-Serif" font-size="10.00" fill="#000000">xla::ComputationBuilder</text>
<text text-anchor="middle" x="571.5" y="-29.5" font-family="Helvetica,sans-Serif" font-size="10.00" fill="#000000">::RunOp</text>
</a>
</g>
</g>
<!-- Node455&#45;&gt;Node456 -->
<g id="edge3" class="edge">
<title>Node455&#45;&gt;Node456</title>
<path fill="none" stroke="#191970" d="M475.1284,-24.7662C483.6881,-25.8972 492.4375,-27.0533 501.0026,-28.185"/>
<polygon fill="#191970" stroke="#191970" points="500.5776,-31.6592 510.95,-29.4994 501.4947,-24.7195 500.5776,-31.6592"/>
</g>
<!-- Node458 -->
<g id="node6" class="node">
<title>Node458</title>
<g id="a_node6"><a xlink:href="../../df/d1b/classxla_1_1ComputationBuilder.html#a787b5fd4e96b9c918b7d0d73704f0d57" target="_top" xlink:title="xla::ComputationBuilder\l::NoteError">
<polygon fill="#ffffff" stroke="#000000" points="825,-24.5 825,-54.5 946,-54.5 946,-24.5 825,-24.5"/>
<text text-anchor="start" x="833" y="-42.5" font-family="Helvetica,sans-Serif" font-size="10.00" fill="#000000">xla::ComputationBuilder</text>
<text text-anchor="middle" x="885.5" y="-31.5" font-family="Helvetica,sans-Serif" font-size="10.00" fill="#000000">::NoteError</text>
</a>
</g>
</g>
<!-- Node455&#45;&gt;Node458 -->
<g id="edge7" class="edge">
<title>Node455&#45;&gt;Node458</title>
<path fill="none" stroke="#191970" d="M475.1081,-8.9352C552.3874,-3.0946 680.1836,2.4362 789,-12.5 803.0077,-14.4227 817.8475,-17.8459 831.5791,-21.6231"/>
<polygon fill="#191970" stroke="#191970" points="830.7773,-25.0341 841.3543,-24.4197 832.7027,-18.3041 830.7773,-25.0341"/>
</g>
<!-- Node457 -->
<g id="node5" class="node">
<title>Node457</title>
<g id="a_node5"><a xlink:href="../../df/d1b/classxla_1_1ComputationBuilder.html#af5ca3f8bbbe525f593293b55df772f1a" target="_top" xlink:title="Populates computation_ with a valid object. Used before any given operation is enqueued. ">
<polygon fill="#ffffff" stroke="#000000" points="668,-71.5 668,-101.5 789,-101.5 789,-71.5 668,-71.5"/>
<text text-anchor="start" x="676" y="-89.5" font-family="Helvetica,sans-Serif" font-size="10.00" fill="#000000">xla::ComputationBuilder</text>
<text text-anchor="middle" x="728.5" y="-78.5" font-family="Helvetica,sans-Serif" font-size="10.00" fill="#000000">::PrepareComputation</text>
</a>
</g>
</g>
<!-- Node456&#45;&gt;Node457 -->
<g id="edge4" class="edge">
<title>Node456&#45;&gt;Node457</title>
<path fill="none" stroke="#191970" d="M619.8862,-52.6014C635.9287,-57.6083 653.9488,-63.2324 670.631,-68.439"/>
<polygon fill="#191970" stroke="#191970" points="669.6849,-71.8101 680.2735,-71.4484 671.7704,-65.128 669.6849,-71.8101"/>
</g>
<!-- Node459 -->
<g id="node7" class="node">
<title>Node459</title>
<g id="a_node7"><a xlink:href="../../df/d1b/classxla_1_1ComputationBuilder.html#a2def8246d1c1829a85e095a84e364bca" target="_top" xlink:title="xla::ComputationBuilder\l::name">
<polygon fill="#ffffff" stroke="#000000" points="668,-22.5 668,-52.5 789,-52.5 789,-22.5 668,-22.5"/>
<text text-anchor="start" x="676" y="-40.5" font-family="Helvetica,sans-Serif" font-size="10.00" fill="#000000">xla::ComputationBuilder</text>
<text text-anchor="middle" x="728.5" y="-29.5" font-family="Helvetica,sans-Serif" font-size="10.00" fill="#000000">::name</text>
</a>
</g>
</g>
<!-- Node456&#45;&gt;Node459 -->
<g id="edge6" class="edge">
<title>Node456&#45;&gt;Node459</title>
<path fill="none" stroke="#191970" d="M632.2003,-37.5C640.635,-37.5 649.3591,-37.5 657.9547,-37.5"/>
<polygon fill="#191970" stroke="#191970" points="657.9612,-41.0001 667.9611,-37.5 657.9611,-34.0001 657.9612,-41.0001"/>
</g>
<!-- Node457&#45;&gt;Node458 -->
<g id="edge5" class="edge">
<title>Node457&#45;&gt;Node458</title>
<path fill="none" stroke="#191970" d="M778.6074,-71.4997C793.4777,-67.0481 809.919,-62.1262 825.3568,-57.5047"/>
<polygon fill="#191970" stroke="#191970" points="826.7539,-60.7399 835.3301,-54.519 824.7464,-54.034 826.7539,-60.7399"/>
</g>
</g>
</svg>
