<?xml version="1.0" encoding="UTF-8" standalone="no"?>
<!DOCTYPE svg PUBLIC "-//W3C//DTD SVG 1.1//EN"
 "http://www.w3.org/Graphics/SVG/1.1/DTD/svg11.dtd">
<!-- Generated by graphviz version 2.40.1 (20161225.0304)
 -->
<!-- Title: xla::ComputationBuilder::CreateDefaultConvDimensionNumbers Pages: 1 -->
<svg width="332pt" height="88pt"
 viewBox="0.00 0.00 332.00 88.00" xmlns="http://www.w3.org/2000/svg" xmlns:xlink="http://www.w3.org/1999/xlink">
<g id="graph0" class="graph" transform="scale(1 1) rotate(0) translate(4 84)">
<title>xla::ComputationBuilder::CreateDefaultConvDimensionNumbers</title>
<polygon fill="#ffffff" stroke="transparent" points="-4,4 -4,-84 328,-84 328,4 -4,4"/>
<!-- Node434 -->
<g id="node1" class="node">
<title>Node434</title>
<polygon fill="#bfbfbf" stroke="#000000" points="0,-19 0,-60 153,-60 153,-19 0,-19"/>
<text text-anchor="start" x="8" y="-48" font-family="Helvetica,sans-Serif" font-size="10.00" fill="#000000">xla::ComputationBuilder</text>
<text text-anchor="start" x="8" y="-37" font-family="Helvetica,sans-Serif" font-size="10.00" fill="#000000">::CreateDefaultConvDimension</text>
<text text-anchor="middle" x="76.5" y="-26" font-family="Helvetica,sans-Serif" font-size="10.00" fill="#000000">Numbers</text>
</g>
<!-- Node435 -->
<g id="node2" class="node">
<title>Node435</title>
<g id="a_node2"><a xlink:href="../../df/d1b/classxla_1_1ComputationBuilder.html#a13498be4f12312e0026157948442eb96" target="_top" xlink:title="xla::ComputationBuilder\l::Conv">
<polygon fill="#ffffff" stroke="#000000" points="196,-49.5 196,-79.5 317,-79.5 317,-49.5 196,-49.5"/>
<text text-anchor="start" x="204" y="-67.5" font-family="Helvetica,sans-Serif" font-size="10.00" fill="#000000">xla::ComputationBuilder</text>
<text text-anchor="middle" x="256.5" y="-56.5" font-family="Helvetica,sans-Serif" font-size="10.00" fill="#000000">::Conv</text>
</a>
</g>
</g>
<!-- Node434&#45;&gt;Node435 -->
<g id="edge1" class="edge">
<title>Node434&#45;&gt;Node435</title>
<path fill="none" stroke="#191970" d="M163.1785,-51.5387C174.197,-53.069 185.2819,-54.6086 195.7715,-56.0655"/>
<polygon fill="#191970" stroke="#191970" points="163.4837,-48.0475 153.0972,-50.1385 162.5206,-54.981 163.4837,-48.0475"/>
</g>
<!-- Node436 -->
<g id="node3" class="node">
<title>Node436</title>
<g id="a_node3"><a xlink:href="../../df/d1b/classxla_1_1ComputationBuilder.html#aa55e6967d685a12315126f80a2daf1f7" target="_top" xlink:title="xla::ComputationBuilder\l::ConvWithGeneralPadding">
<polygon fill="#ffffff" stroke="#000000" points="189,-.5 189,-30.5 324,-30.5 324,-.5 189,-.5"/>
<text text-anchor="start" x="197" y="-18.5" font-family="Helvetica,sans-Serif" font-size="10.00" fill="#000000">xla::ComputationBuilder</text>
<text text-anchor="middle" x="256.5" y="-7.5" font-family="Helvetica,sans-Serif" font-size="10.00" fill="#000000">::ConvWithGeneralPadding</text>
</a>
</g>
</g>
<!-- Node434&#45;&gt;Node436 -->
<g id="edge2" class="edge">
<title>Node434&#45;&gt;Node436</title>
<path fill="none" stroke="#191970" d="M163.1649,-27.9447C171.7732,-26.7969 180.4222,-25.6437 188.7963,-24.5272"/>
<polygon fill="#191970" stroke="#191970" points="162.5469,-24.496 153.0972,-29.287 163.4721,-31.4346 162.5469,-24.496"/>
</g>
</g>
</svg>
