<?xml version="1.0" encoding="UTF-8" standalone="no"?>
<!DOCTYPE svg PUBLIC "-//W3C//DTD SVG 1.1//EN"
 "http://www.w3.org/Graphics/SVG/1.1/DTD/svg11.dtd">
<!-- Generated by graphviz version 2.40.1 (20161225.0304)
 -->
<!-- Title: xla::ComputationBuilder::Mul Pages: 1 -->
<!--zoomable 110 -->
<svg id="main" version="1.1" xmlns="http://www.w3.org/2000/svg" xmlns:xlink="http://www.w3.org/1999/xlink" xml:space="preserve" onload="init(evt)">
<style type="text/css"><![CDATA[
.edge:hover path { stroke: red; }
.edge:hover polygon { stroke: red; fill: red; }
]]></style>
<script type="text/javascript"><![CDATA[
var edges = document.getElementsByTagName('g');
if (edges && edges.length) {
  for (var i=0;i<edges.length;i++) {
    if (edges[i].id.substr(0,4)=='edge') {
      edges[i].setAttribute('class','edge');
    }
  }
}
]]></script>
        <defs>
                <circle id="rim" cx="0" cy="0" r="7"/>
                <circle id="rim2" cx="0" cy="0" r="3.5"/>
                <g id="zoomPlus">
                        <use xlink:href="#rim" fill="#404040">
                                <set attributeName="fill" to="#808080" begin="zoomplus.mouseover" end="zoomplus.mouseout"/>
                        </use>
                        <path d="M-4,0h8M0,-4v8" fill="none" stroke="white" stroke-width="1.5" pointer-events="none"/>
                </g>
                <g id="zoomMin">
                        <use xlink:href="#rim" fill="#404040">
                                <set attributeName="fill" to="#808080" begin="zoomminus.mouseover" end="zoomminus.mouseout"/>
                        </use>
                        <path d="M-4,0h8" fill="none" stroke="white" stroke-width="1.5" pointer-events="none"/>
                </g>
                <g id="dirArrow">
                        <path fill="none" stroke="white" stroke-width="1.5" d="M0,-3.0v7 M-2.5,-0.5L0,-3.0L2.5,-0.5"/>
                </g>
               <g id="resetDef">
                       <use xlink:href="#rim2" fill="#404040">
                               <set attributeName="fill" to="#808080" begin="reset.mouseover" end="reset.mouseout"/>
                       </use>
               </g>
        </defs>

<script type="text/javascript">
var viewWidth = 955;
var viewHeight = 110;
var sectionId = 'dynsection-87';
</script>
<script xlink:href="../../svgpan.js"/>
<svg id="graph" class="graph">
<g id="viewport">
<title>xla::ComputationBuilder::Mul</title>
<polygon fill="#ffffff" stroke="transparent" points="-4,4 -4,-106 951,-106 951,4 -4,4"/>
<!-- Node695 -->
<g id="node1" class="node">
<title>Node695</title>
<polygon fill="#bfbfbf" stroke="#000000" points="0,-6 0,-25 143,-25 143,-6 0,-6"/>
<text text-anchor="middle" x="71.5" y="-13" font-family="Helvetica,sans-Serif" font-size="10.00" fill="#000000">xla::ComputationBuilder::Mul</text>
</g>
<!-- Node696 -->
<g id="node2" class="node">
<title>Node696</title>
<g id="a_node2"><a xlink:href="../../df/d1b/classxla_1_1ComputationBuilder.html#a0534929468ac066fad4a507026251490" target="_top" xlink:title="xla::ComputationBuilder\l::BinaryOp">
<polygon fill="#ffffff" stroke="#000000" points="179,-.5 179,-30.5 300,-30.5 300,-.5 179,-.5"/>
<text text-anchor="start" x="187" y="-18.5" font-family="Helvetica,sans-Serif" font-size="10.00" fill="#000000">xla::ComputationBuilder</text>
<text text-anchor="middle" x="239.5" y="-7.5" font-family="Helvetica,sans-Serif" font-size="10.00" fill="#000000">::BinaryOp</text>
</a>
</g>
</g>
<!-- Node695&#45;&gt;Node696 -->
<g id="edge1" class="edge">
<title>Node695&#45;&gt;Node696</title>
<path fill="none" stroke="#191970" d="M143.2344,-15.5C151.6671,-15.5 160.2684,-15.5 168.6883,-15.5"/>
<polygon fill="#191970" stroke="#191970" points="168.8454,-19.0001 178.8454,-15.5 168.8453,-12.0001 168.8454,-19.0001"/>
</g>
<!-- Node697 -->
<g id="node3" class="node">
<title>Node697</title>
<g id="a_node3"><a xlink:href="../../df/d1b/classxla_1_1ComputationBuilder.html#a584f43dacccc04122c79a7e4ad2770d0" target="_top" xlink:title="Call RunOp() and either return the output ComputationDataHandle (on success) or an empty ComputationD...">
<polygon fill="#ffffff" stroke="#000000" points="336,-.5 336,-30.5 476,-30.5 476,-.5 336,-.5"/>
<text text-anchor="start" x="344" y="-18.5" font-family="Helvetica,sans-Serif" font-size="10.00" fill="#000000">xla::ComputationBuilder</text>
<text text-anchor="middle" x="406" y="-7.5" font-family="Helvetica,sans-Serif" font-size="10.00" fill="#000000">::RunOpAndParseResponse</text>
</a>
</g>
</g>
<!-- Node696&#45;&gt;Node697 -->
<g id="edge2" class="edge">
<title>Node696&#45;&gt;Node697</title>
<path fill="none" stroke="#191970" d="M300.0813,-15.5C308.4351,-15.5 317.1186,-15.5 325.7587,-15.5"/>
<polygon fill="#191970" stroke="#191970" points="325.8594,-19.0001 335.8593,-15.5 325.8593,-12.0001 325.8594,-19.0001"/>
</g>
<!-- Node698 -->
<g id="node4" class="node">
<title>Node698</title>
<g id="a_node4"><a xlink:href="../../df/d1b/classxla_1_1ComputationBuilder.html#a7d2ff8c5c638378bb6fb998a71661d22" target="_top" xlink:title="Run the given parameter op_request and fill in op_response. ">
<polygon fill="#ffffff" stroke="#000000" points="512,-22.5 512,-52.5 633,-52.5 633,-22.5 512,-22.5"/>
<text text-anchor="start" x="520" y="-40.5" font-family="Helvetica,sans-Serif" font-size="10.00" fill="#000000">xla::ComputationBuilder</text>
<text text-anchor="middle" x="572.5" y="-29.5" font-family="Helvetica,sans-Serif" font-size="10.00" fill="#000000">::RunOp</text>
</a>
</g>
</g>
<!-- Node697&#45;&gt;Node698 -->
<g id="edge3" class="edge">
<title>Node697&#45;&gt;Node698</title>
<path fill="none" stroke="#191970" d="M476.1284,-24.7662C484.6881,-25.8972 493.4375,-27.0533 502.0026,-28.185"/>
<polygon fill="#191970" stroke="#191970" points="501.5776,-31.6592 511.95,-29.4994 502.4947,-24.7195 501.5776,-31.6592"/>
</g>
<!-- Node700 -->
<g id="node6" class="node">
<title>Node700</title>
<g id="a_node6"><a xlink:href="../../df/d1b/classxla_1_1ComputationBuilder.html#a787b5fd4e96b9c918b7d0d73704f0d57" target="_top" xlink:title="xla::ComputationBuilder\l::NoteError">
<polygon fill="#ffffff" stroke="#000000" points="826,-24.5 826,-54.5 947,-54.5 947,-24.5 826,-24.5"/>
<text text-anchor="start" x="834" y="-42.5" font-family="Helvetica,sans-Serif" font-size="10.00" fill="#000000">xla::ComputationBuilder</text>
<text text-anchor="middle" x="886.5" y="-31.5" font-family="Helvetica,sans-Serif" font-size="10.00" fill="#000000">::NoteError</text>
</a>
</g>
</g>
<!-- Node697&#45;&gt;Node700 -->
<g id="edge7" class="edge">
<title>Node697&#45;&gt;Node700</title>
<path fill="none" stroke="#191970" d="M476.1081,-8.9352C553.3874,-3.0946 681.1836,2.4362 790,-12.5 804.0077,-14.4227 818.8475,-17.8459 832.5791,-21.6231"/>
<polygon fill="#191970" stroke="#191970" points="831.7773,-25.0341 842.3543,-24.4197 833.7027,-18.3041 831.7773,-25.0341"/>
</g>
<!-- Node699 -->
<g id="node5" class="node">
<title>Node699</title>
<g id="a_node5"><a xlink:href="../../df/d1b/classxla_1_1ComputationBuilder.html#af5ca3f8bbbe525f593293b55df772f1a" target="_top" xlink:title="Populates computation_ with a valid object. Used before any given operation is enqueued. ">
<polygon fill="#ffffff" stroke="#000000" points="669,-71.5 669,-101.5 790,-101.5 790,-71.5 669,-71.5"/>
<text text-anchor="start" x="677" y="-89.5" font-family="Helvetica,sans-Serif" font-size="10.00" fill="#000000">xla::ComputationBuilder</text>
<text text-anchor="middle" x="729.5" y="-78.5" font-family="Helvetica,sans-Serif" font-size="10.00" fill="#000000">::PrepareComputation</text>
</a>
</g>
</g>
<!-- Node698&#45;&gt;Node699 -->
<g id="edge4" class="edge">
<title>Node698&#45;&gt;Node699</title>
<path fill="none" stroke="#191970" d="M620.8862,-52.6014C636.9287,-57.6083 654.9488,-63.2324 671.631,-68.439"/>
<polygon fill="#191970" stroke="#191970" points="670.6849,-71.8101 681.2735,-71.4484 672.7704,-65.128 670.6849,-71.8101"/>
</g>
<!-- Node701 -->
<g id="node7" class="node">
<title>Node701</title>
<g id="a_node7"><a xlink:href="../../df/d1b/classxla_1_1ComputationBuilder.html#a2def8246d1c1829a85e095a84e364bca" target="_top" xlink:title="xla::ComputationBuilder\l::name">
<polygon fill="#ffffff" stroke="#000000" points="669,-22.5 669,-52.5 790,-52.5 790,-22.5 669,-22.5"/>
<text text-anchor="start" x="677" y="-40.5" font-family="Helvetica,sans-Serif" font-size="10.00" fill="#000000">xla::ComputationBuilder</text>
<text text-anchor="middle" x="729.5" y="-29.5" font-family="Helvetica,sans-Serif" font-size="10.00" fill="#000000">::name</text>
</a>
</g>
</g>
<!-- Node698&#45;&gt;Node701 -->
<g id="edge6" class="edge">
<title>Node698&#45;&gt;Node701</title>
<path fill="none" stroke="#191970" d="M633.2003,-37.5C641.635,-37.5 650.3591,-37.5 658.9547,-37.5"/>
<polygon fill="#191970" stroke="#191970" points="658.9612,-41.0001 668.9611,-37.5 658.9611,-34.0001 658.9612,-41.0001"/>
</g>
<!-- Node699&#45;&gt;Node700 -->
<g id="edge5" class="edge">
<title>Node699&#45;&gt;Node700</title>
<path fill="none" stroke="#191970" d="M779.6074,-71.4997C794.4777,-67.0481 810.919,-62.1262 826.3568,-57.5047"/>
<polygon fill="#191970" stroke="#191970" points="827.7539,-60.7399 836.3301,-54.519 825.7464,-54.034 827.7539,-60.7399"/>
</g>
</g>
</svg>
        <g id="navigator" transform="translate(0 0)" fill="#404254">
                <rect fill="#f2f5e9" fill-opacity="0.5" stroke="#606060" stroke-width=".5" x="0" y="0" width="60" height="60"/>
                <use id="zoomplus" xlink:href="#zoomPlus" x="17" y="9" onmousedown="handleZoom(evt,'in')"/>
                <use id="zoomminus" xlink:href="#zoomMin" x="42" y="9" onmousedown="handleZoom(evt,'out')"/>
                <use id="reset" xlink:href="#resetDef" x="30" y="36" onmousedown="handleReset()"/>
                <g id="arrowUp" xlink:href="#dirArrow" transform="translate(30 24)" onmousedown="handlePan(0,-1)">
                  <use xlink:href="#rim" fill="#404040">
                        <set attributeName="fill" to="#808080" begin="arrowUp.mouseover" end="arrowUp.mouseout"/>
                  </use>
                  <path fill="none" stroke="white" stroke-width="1.5" d="M0,-3.0v7 M-2.5,-0.5L0,-3.0L2.5,-0.5"/>
                </g>
                <g id="arrowRight" xlink:href="#dirArrow" transform="rotate(90) translate(36 -43)" onmousedown="handlePan(1,0)">
                  <use xlink:href="#rim" fill="#404040">
                        <set attributeName="fill" to="#808080" begin="arrowRight.mouseover" end="arrowRight.mouseout"/>
                  </use>
                  <path fill="none" stroke="white" stroke-width="1.5" d="M0,-3.0v7 M-2.5,-0.5L0,-3.0L2.5,-0.5"/>
                </g>
                <g id="arrowDown" xlink:href="#dirArrow" transform="rotate(180) translate(-30 -48)" onmousedown="handlePan(0,1)">
                  <use xlink:href="#rim" fill="#404040">
                        <set attributeName="fill" to="#808080" begin="arrowDown.mouseover" end="arrowDown.mouseout"/>
                  </use>
                  <path fill="none" stroke="white" stroke-width="1.5" d="M0,-3.0v7 M-2.5,-0.5L0,-3.0L2.5,-0.5"/>
                </g>
                <g id="arrowLeft" xlink:href="#dirArrow" transform="rotate(270) translate(-36 17)" onmousedown="handlePan(-1,0)">
                  <use xlink:href="#rim" fill="#404040">
                        <set attributeName="fill" to="#808080" begin="arrowLeft.mouseover" end="arrowLeft.mouseout"/>
                  </use>
                  <path fill="none" stroke="white" stroke-width="1.5" d="M0,-3.0v7 M-2.5,-0.5L0,-3.0L2.5,-0.5"/>
                </g>
        </g>
        <svg viewBox="0 0 15 15" width="100%" height="30px" preserveAspectRatio="xMaxYMin meet">
         <g id="arrow_out" transform="scale(0.3 0.3)">
          <a xlink:href="classxla_1_1ComputationBuilder_aec623f09efb8fdf43bfe8c0c3fe815b1_cgraph_org.svg" target="_base">
           <rect id="button" ry="5" rx="5" y="6" x="6" height="38" width="38"
                fill="#f2f5e9" fill-opacity="0.5" stroke="#606060" stroke-width="1.0"/>
           <path id="arrow"
             d="M 11.500037,31.436501 C 11.940474,20.09759 22.043105,11.32322 32.158766,21.979434 L 37.068811,17.246167 C 37.068811,17.246167 37.088388,32 37.088388,32 L 22.160133,31.978069 C 22.160133,31.978069 26.997745,27.140456 26.997745,27.140456 C 18.528582,18.264221 13.291696,25.230495 11.500037,31.436501 z"
             style="fill:#404040;"/>
          </a>
         </g>
        </svg>
</svg>
