<?xml version="1.0" encoding="UTF-8" standalone="no"?>
<!DOCTYPE svg PUBLIC "-//W3C//DTD SVG 1.1//EN"
 "http://www.w3.org/Graphics/SVG/1.1/DTD/svg11.dtd">
<!-- Generated by graphviz version 2.40.1 (20161225.0304)
 -->
<!-- Title: xla::ComputationBuilder::Exp Pages: 1 -->
<!--zoomable 110 -->
<svg id="main" version="1.1" xmlns="http://www.w3.org/2000/svg" xmlns:xlink="http://www.w3.org/1999/xlink" xml:space="preserve" onload="init(evt)">
<style type="text/css"><![CDATA[
.edge:hover path { stroke: red; }
.edge:hover polygon { stroke: red; fill: red; }
]]></style>
<script type="text/javascript"><![CDATA[
var edges = document.getElementsByTagName('g');
if (edges && edges.length) {
  for (var i=0;i<edges.length;i++) {
    if (edges[i].id.substr(0,4)=='edge') {
      edges[i].setAttribute('class','edge');
    }
  }
}
]]></script>
        <defs>
                <circle id="rim" cx="0" cy="0" r="7"/>
                <circle id="rim2" cx="0" cy="0" r="3.5"/>
                <g id="zoomPlus">
                        <use xlink:href="#rim" fill="#404040">
                                <set attributeName="fill" to="#808080" begin="zoomplus.mouseover" end="zoomplus.mouseout"/>
                        </use>
                        <path d="M-4,0h8M0,-4v8" fill="none" stroke="white" stroke-width="1.5" pointer-events="none"/>
                </g>
                <g id="zoomMin">
                        <use xlink:href="#rim" fill="#404040">
                                <set attributeName="fill" to="#808080" begin="zoomminus.mouseover" end="zoomminus.mouseout"/>
                        </use>
                        <path d="M-4,0h8" fill="none" stroke="white" stroke-width="1.5" pointer-events="none"/>
                </g>
                <g id="dirArrow">
                        <path fill="none" stroke="white" stroke-width="1.5" d="M0,-3.0v7 M-2.5,-0.5L0,-3.0L2.5,-0.5"/>
                </g>
               <g id="resetDef">
                       <use xlink:href="#rim2" fill="#404040">
                               <set attributeName="fill" to="#808080" begin="reset.mouseover" end="reset.mouseout"/>
                       </use>
               </g>
        </defs>

<script type="text/javascript">
var viewWidth = 956;
var viewHeight = 110;
var sectionId = 'dynsection-63';
</script>
<script xlink:href="../../svgpan.js"/>
<svg id="graph" class="graph">
<g id="viewport">
<title>xla::ComputationBuilder::Exp</title>
<polygon fill="#ffffff" stroke="transparent" points="-4,4 -4,-106 952,-106 952,4 -4,4"/>
<!-- Node501 -->
<g id="node1" class="node">
<title>Node501</title>
<polygon fill="#bfbfbf" stroke="#000000" points="0,-6 0,-25 144,-25 144,-6 0,-6"/>
<text text-anchor="middle" x="72" y="-13" font-family="Helvetica,sans-Serif" font-size="10.00" fill="#000000">xla::ComputationBuilder::Exp</text>
</g>
<!-- Node502 -->
<g id="node2" class="node">
<title>Node502</title>
<g id="a_node2"><a xlink:href="../../df/d1b/classxla_1_1ComputationBuilder.html#a22d71fb878467b573c49e929b6ca7482" target="_top" xlink:title="xla::ComputationBuilder\l::UnaryOp">
<polygon fill="#ffffff" stroke="#000000" points="180,-.5 180,-30.5 301,-30.5 301,-.5 180,-.5"/>
<text text-anchor="start" x="188" y="-18.5" font-family="Helvetica,sans-Serif" font-size="10.00" fill="#000000">xla::ComputationBuilder</text>
<text text-anchor="middle" x="240.5" y="-7.5" font-family="Helvetica,sans-Serif" font-size="10.00" fill="#000000">::UnaryOp</text>
</a>
</g>
</g>
<!-- Node501&#45;&gt;Node502 -->
<g id="edge1" class="edge">
<title>Node501&#45;&gt;Node502</title>
<path fill="none" stroke="#191970" d="M144.4371,-15.5C152.8077,-15.5 161.3371,-15.5 169.6858,-15.5"/>
<polygon fill="#191970" stroke="#191970" points="169.757,-19.0001 179.7569,-15.5 169.7569,-12.0001 169.757,-19.0001"/>
</g>
<!-- Node503 -->
<g id="node3" class="node">
<title>Node503</title>
<g id="a_node3"><a xlink:href="../../df/d1b/classxla_1_1ComputationBuilder.html#a584f43dacccc04122c79a7e4ad2770d0" target="_top" xlink:title="Call RunOp() and either return the output ComputationDataHandle (on success) or an empty ComputationD...">
<polygon fill="#ffffff" stroke="#000000" points="337,-.5 337,-30.5 477,-30.5 477,-.5 337,-.5"/>
<text text-anchor="start" x="345" y="-18.5" font-family="Helvetica,sans-Serif" font-size="10.00" fill="#000000">xla::ComputationBuilder</text>
<text text-anchor="middle" x="407" y="-7.5" font-family="Helvetica,sans-Serif" font-size="10.00" fill="#000000">::RunOpAndParseResponse</text>
</a>
</g>
</g>
<!-- Node502&#45;&gt;Node503 -->
<g id="edge2" class="edge">
<title>Node502&#45;&gt;Node503</title>
<path fill="none" stroke="#191970" d="M301.0813,-15.5C309.4351,-15.5 318.1186,-15.5 326.7587,-15.5"/>
<polygon fill="#191970" stroke="#191970" points="326.8594,-19.0001 336.8593,-15.5 326.8593,-12.0001 326.8594,-19.0001"/>
</g>
<!-- Node504 -->
<g id="node4" class="node">
<title>Node504</title>
<g id="a_node4"><a xlink:href="../../df/d1b/classxla_1_1ComputationBuilder.html#a7d2ff8c5c638378bb6fb998a71661d22" target="_top" xlink:title="Run the given parameter op_request and fill in op_response. ">
<polygon fill="#ffffff" stroke="#000000" points="513,-22.5 513,-52.5 634,-52.5 634,-22.5 513,-22.5"/>
<text text-anchor="start" x="521" y="-40.5" font-family="Helvetica,sans-Serif" font-size="10.00" fill="#000000">xla::ComputationBuilder</text>
<text text-anchor="middle" x="573.5" y="-29.5" font-family="Helvetica,sans-Serif" font-size="10.00" fill="#000000">::RunOp</text>
</a>
</g>
</g>
<!-- Node503&#45;&gt;Node504 -->
<g id="edge3" class="edge">
<title>Node503&#45;&gt;Node504</title>
<path fill="none" stroke="#191970" d="M477.1284,-24.7662C485.6881,-25.8972 494.4375,-27.0533 503.0026,-28.185"/>
<polygon fill="#191970" stroke="#191970" points="502.5776,-31.6592 512.95,-29.4994 503.4947,-24.7195 502.5776,-31.6592"/>
</g>
<!-- Node506 -->
<g id="node6" class="node">
<title>Node506</title>
<g id="a_node6"><a xlink:href="../../df/d1b/classxla_1_1ComputationBuilder.html#a787b5fd4e96b9c918b7d0d73704f0d57" target="_top" xlink:title="xla::ComputationBuilder\l::NoteError">
<polygon fill="#ffffff" stroke="#000000" points="827,-24.5 827,-54.5 948,-54.5 948,-24.5 827,-24.5"/>
<text text-anchor="start" x="835" y="-42.5" font-family="Helvetica,sans-Serif" font-size="10.00" fill="#000000">xla::ComputationBuilder</text>
<text text-anchor="middle" x="887.5" y="-31.5" font-family="Helvetica,sans-Serif" font-size="10.00" fill="#000000">::NoteError</text>
</a>
</g>
</g>
<!-- Node503&#45;&gt;Node506 -->
<g id="edge7" class="edge">
<title>Node503&#45;&gt;Node506</title>
<path fill="none" stroke="#191970" d="M477.1081,-8.9352C554.3874,-3.0946 682.1836,2.4362 791,-12.5 805.0077,-14.4227 819.8475,-17.8459 833.5791,-21.6231"/>
<polygon fill="#191970" stroke="#191970" points="832.7773,-25.0341 843.3543,-24.4197 834.7027,-18.3041 832.7773,-25.0341"/>
</g>
<!-- Node505 -->
<g id="node5" class="node">
<title>Node505</title>
<g id="a_node5"><a xlink:href="../../df/d1b/classxla_1_1ComputationBuilder.html#af5ca3f8bbbe525f593293b55df772f1a" target="_top" xlink:title="Populates computation_ with a valid object. Used before any given operation is enqueued. ">
<polygon fill="#ffffff" stroke="#000000" points="670,-71.5 670,-101.5 791,-101.5 791,-71.5 670,-71.5"/>
<text text-anchor="start" x="678" y="-89.5" font-family="Helvetica,sans-Serif" font-size="10.00" fill="#000000">xla::ComputationBuilder</text>
<text text-anchor="middle" x="730.5" y="-78.5" font-family="Helvetica,sans-Serif" font-size="10.00" fill="#000000">::PrepareComputation</text>
</a>
</g>
</g>
<!-- Node504&#45;&gt;Node505 -->
<g id="edge4" class="edge">
<title>Node504&#45;&gt;Node505</title>
<path fill="none" stroke="#191970" d="M621.8862,-52.6014C637.9287,-57.6083 655.9488,-63.2324 672.631,-68.439"/>
<polygon fill="#191970" stroke="#191970" points="671.6849,-71.8101 682.2735,-71.4484 673.7704,-65.128 671.6849,-71.8101"/>
</g>
<!-- Node507 -->
<g id="node7" class="node">
<title>Node507</title>
<g id="a_node7"><a xlink:href="../../df/d1b/classxla_1_1ComputationBuilder.html#a2def8246d1c1829a85e095a84e364bca" target="_top" xlink:title="xla::ComputationBuilder\l::name">
<polygon fill="#ffffff" stroke="#000000" points="670,-22.5 670,-52.5 791,-52.5 791,-22.5 670,-22.5"/>
<text text-anchor="start" x="678" y="-40.5" font-family="Helvetica,sans-Serif" font-size="10.00" fill="#000000">xla::ComputationBuilder</text>
<text text-anchor="middle" x="730.5" y="-29.5" font-family="Helvetica,sans-Serif" font-size="10.00" fill="#000000">::name</text>
</a>
</g>
</g>
<!-- Node504&#45;&gt;Node507 -->
<g id="edge6" class="edge">
<title>Node504&#45;&gt;Node507</title>
<path fill="none" stroke="#191970" d="M634.2003,-37.5C642.635,-37.5 651.3591,-37.5 659.9547,-37.5"/>
<polygon fill="#191970" stroke="#191970" points="659.9612,-41.0001 669.9611,-37.5 659.9611,-34.0001 659.9612,-41.0001"/>
</g>
<!-- Node505&#45;&gt;Node506 -->
<g id="edge5" class="edge">
<title>Node505&#45;&gt;Node506</title>
<path fill="none" stroke="#191970" d="M780.6074,-71.4997C795.4777,-67.0481 811.919,-62.1262 827.3568,-57.5047"/>
<polygon fill="#191970" stroke="#191970" points="828.7539,-60.7399 837.3301,-54.519 826.7464,-54.034 828.7539,-60.7399"/>
</g>
</g>
</svg>
        <g id="navigator" transform="translate(0 0)" fill="#404254">
                <rect fill="#f2f5e9" fill-opacity="0.5" stroke="#606060" stroke-width=".5" x="0" y="0" width="60" height="60"/>
                <use id="zoomplus" xlink:href="#zoomPlus" x="17" y="9" onmousedown="handleZoom(evt,'in')"/>
                <use id="zoomminus" xlink:href="#zoomMin" x="42" y="9" onmousedown="handleZoom(evt,'out')"/>
                <use id="reset" xlink:href="#resetDef" x="30" y="36" onmousedown="handleReset()"/>
                <g id="arrowUp" xlink:href="#dirArrow" transform="translate(30 24)" onmousedown="handlePan(0,-1)">
                  <use xlink:href="#rim" fill="#404040">
                        <set attributeName="fill" to="#808080" begin="arrowUp.mouseover" end="arrowUp.mouseout"/>
                  </use>
                  <path fill="none" stroke="white" stroke-width="1.5" d="M0,-3.0v7 M-2.5,-0.5L0,-3.0L2.5,-0.5"/>
                </g>
                <g id="arrowRight" xlink:href="#dirArrow" transform="rotate(90) translate(36 -43)" onmousedown="handlePan(1,0)">
                  <use xlink:href="#rim" fill="#404040">
                        <set attributeName="fill" to="#808080" begin="arrowRight.mouseover" end="arrowRight.mouseout"/>
                  </use>
                  <path fill="none" stroke="white" stroke-width="1.5" d="M0,-3.0v7 M-2.5,-0.5L0,-3.0L2.5,-0.5"/>
                </g>
                <g id="arrowDown" xlink:href="#dirArrow" transform="rotate(180) translate(-30 -48)" onmousedown="handlePan(0,1)">
                  <use xlink:href="#rim" fill="#404040">
                        <set attributeName="fill" to="#808080" begin="arrowDown.mouseover" end="arrowDown.mouseout"/>
                  </use>
                  <path fill="none" stroke="white" stroke-width="1.5" d="M0,-3.0v7 M-2.5,-0.5L0,-3.0L2.5,-0.5"/>
                </g>
                <g id="arrowLeft" xlink:href="#dirArrow" transform="rotate(270) translate(-36 17)" onmousedown="handlePan(-1,0)">
                  <use xlink:href="#rim" fill="#404040">
                        <set attributeName="fill" to="#808080" begin="arrowLeft.mouseover" end="arrowLeft.mouseout"/>
                  </use>
                  <path fill="none" stroke="white" stroke-width="1.5" d="M0,-3.0v7 M-2.5,-0.5L0,-3.0L2.5,-0.5"/>
                </g>
        </g>
        <svg viewBox="0 0 15 15" width="100%" height="30px" preserveAspectRatio="xMaxYMin meet">
         <g id="arrow_out" transform="scale(0.3 0.3)">
          <a xlink:href="classxla_1_1ComputationBuilder_abbbce36b9495b9bb765c552cb4586dd6_cgraph_org.svg" target="_base">
           <rect id="button" ry="5" rx="5" y="6" x="6" height="38" width="38"
                fill="#f2f5e9" fill-opacity="0.5" stroke="#606060" stroke-width="1.0"/>
           <path id="arrow"
             d="M 11.500037,31.436501 C 11.940474,20.09759 22.043105,11.32322 32.158766,21.979434 L 37.068811,17.246167 C 37.068811,17.246167 37.088388,32 37.088388,32 L 22.160133,31.978069 C 22.160133,31.978069 26.997745,27.140456 26.997745,27.140456 C 18.528582,18.264221 13.291696,25.230495 11.500037,31.436501 z"
             style="fill:#404040;"/>
          </a>
         </g>
        </svg>
</svg>
