<?xml version="1.0" encoding="UTF-8" standalone="no"?>
<!DOCTYPE svg PUBLIC "-//W3C//DTD SVG 1.1//EN"
 "http://www.w3.org/Graphics/SVG/1.1/DTD/svg11.dtd">
<!-- Generated by graphviz version 2.40.1 (20161225.0304)
 -->
<!-- Title: xla::ComputationBuilder::MakeWindow Pages: 1 -->
<!--zoomable 173 -->
<svg id="main" version="1.1" xmlns="http://www.w3.org/2000/svg" xmlns:xlink="http://www.w3.org/1999/xlink" xml:space="preserve" onload="init(evt)">
<style type="text/css"><![CDATA[
.edge:hover path { stroke: red; }
.edge:hover polygon { stroke: red; fill: red; }
]]></style>
<script type="text/javascript"><![CDATA[
var edges = document.getElementsByTagName('g');
if (edges && edges.length) {
  for (var i=0;i<edges.length;i++) {
    if (edges[i].id.substr(0,4)=='edge') {
      edges[i].setAttribute('class','edge');
    }
  }
}
]]></script>
        <defs>
                <circle id="rim" cx="0" cy="0" r="7"/>
                <circle id="rim2" cx="0" cy="0" r="3.5"/>
                <g id="zoomPlus">
                        <use xlink:href="#rim" fill="#404040">
                                <set attributeName="fill" to="#808080" begin="zoomplus.mouseover" end="zoomplus.mouseout"/>
                        </use>
                        <path d="M-4,0h8M0,-4v8" fill="none" stroke="white" stroke-width="1.5" pointer-events="none"/>
                </g>
                <g id="zoomMin">
                        <use xlink:href="#rim" fill="#404040">
                                <set attributeName="fill" to="#808080" begin="zoomminus.mouseover" end="zoomminus.mouseout"/>
                        </use>
                        <path d="M-4,0h8" fill="none" stroke="white" stroke-width="1.5" pointer-events="none"/>
                </g>
                <g id="dirArrow">
                        <path fill="none" stroke="white" stroke-width="1.5" d="M0,-3.0v7 M-2.5,-0.5L0,-3.0L2.5,-0.5"/>
                </g>
               <g id="resetDef">
                       <use xlink:href="#rim2" fill="#404040">
                               <set attributeName="fill" to="#808080" begin="reset.mouseover" end="reset.mouseout"/>
                       </use>
               </g>
        </defs>

<script type="text/javascript">
var viewWidth = 848;
var viewHeight = 173;
var sectionId = 'dynsection-83';
</script>
<script xlink:href="../../svgpan.js"/>
<svg id="graph" class="graph">
<g id="viewport">
<title>xla::ComputationBuilder::MakeWindow</title>
<polygon fill="#ffffff" stroke="transparent" points="-4,4 -4,-168.5 844,-168.5 844,4 -4,4"/>
<!-- Node662 -->
<g id="node1" class="node">
<title>Node662</title>
<polygon fill="#bfbfbf" stroke="#000000" points="0,-61 0,-91 121,-91 121,-61 0,-61"/>
<text text-anchor="start" x="8" y="-79" font-family="Helvetica,sans-Serif" font-size="10.00" fill="#000000">xla::ComputationBuilder</text>
<text text-anchor="middle" x="60.5" y="-68" font-family="Helvetica,sans-Serif" font-size="10.00" fill="#000000">::MakeWindow</text>
</g>
<!-- Node663 -->
<g id="node2" class="node">
<title>Node663</title>
<g id="a_node2"><a xlink:href="../../df/d1b/classxla_1_1ComputationBuilder.html#ac0905f4579b318824ca65f112f3f1408" target="_top" xlink:title="xla::ComputationBuilder\l::ConvGeneralDilated">
<polygon fill="#ffffff" stroke="#000000" points="187,-110 187,-140 308,-140 308,-110 187,-110"/>
<text text-anchor="start" x="195" y="-128" font-family="Helvetica,sans-Serif" font-size="10.00" fill="#000000">xla::ComputationBuilder</text>
<text text-anchor="middle" x="247.5" y="-117" font-family="Helvetica,sans-Serif" font-size="10.00" fill="#000000">::ConvGeneralDilated</text>
</a>
</g>
</g>
<!-- Node662&#45;&gt;Node663 -->
<g id="edge1" class="edge">
<title>Node662&#45;&gt;Node663</title>
<path fill="none" stroke="#191970" d="M127.7547,-93.6229C148.2133,-98.9837 170.4962,-104.8225 190.2315,-109.9938"/>
<polygon fill="#191970" stroke="#191970" points="128.4376,-90.1837 117.877,-91.0346 126.6632,-96.9551 128.4376,-90.1837"/>
</g>
<!-- Node668 -->
<g id="node7" class="node">
<title>Node668</title>
<g id="a_node7"><a xlink:href="../../df/d1b/classxla_1_1ComputationBuilder.html#a1a37819f3dee2f2df05b615d46817db5" target="_top" xlink:title="xla::ComputationBuilder\l::ReduceWindowWithGeneralPadding">
<polygon fill="#ffffff" stroke="#000000" points="157,-61 157,-91 338,-91 338,-61 157,-61"/>
<text text-anchor="start" x="165" y="-79" font-family="Helvetica,sans-Serif" font-size="10.00" fill="#000000">xla::ComputationBuilder</text>
<text text-anchor="middle" x="247.5" y="-68" font-family="Helvetica,sans-Serif" font-size="10.00" fill="#000000">::ReduceWindowWithGeneralPadding</text>
</a>
</g>
</g>
<!-- Node662&#45;&gt;Node668 -->
<g id="edge6" class="edge">
<title>Node662&#45;&gt;Node668</title>
<path fill="none" stroke="#191970" d="M131.2766,-76C139.6476,-76 148.2774,-76 156.8747,-76"/>
<polygon fill="#191970" stroke="#191970" points="131.2136,-72.5001 121.2135,-76 131.2135,-79.5001 131.2136,-72.5001"/>
</g>
<!-- Node670 -->
<g id="node9" class="node">
<title>Node670</title>
<g id="a_node9"><a xlink:href="../../df/d1b/classxla_1_1ComputationBuilder.html#ae55d71b92cc321059d1c1bf8477cc927" target="_top" xlink:title="xla::ComputationBuilder\l::SelectAndScatterWithGeneral\lPadding">
<polygon fill="#ffffff" stroke="#000000" points="171,-.5 171,-41.5 324,-41.5 324,-.5 171,-.5"/>
<text text-anchor="start" x="179" y="-29.5" font-family="Helvetica,sans-Serif" font-size="10.00" fill="#000000">xla::ComputationBuilder</text>
<text text-anchor="start" x="179" y="-18.5" font-family="Helvetica,sans-Serif" font-size="10.00" fill="#000000">::SelectAndScatterWithGeneral</text>
<text text-anchor="middle" x="247.5" y="-7.5" font-family="Helvetica,sans-Serif" font-size="10.00" fill="#000000">Padding</text>
</a>
</g>
</g>
<!-- Node662&#45;&gt;Node670 -->
<g id="edge8" class="edge">
<title>Node662&#45;&gt;Node670</title>
<path fill="none" stroke="#191970" d="M121.3569,-58.1009C139.2974,-52.8243 159.0714,-47.0084 177.5357,-41.5777"/>
<polygon fill="#191970" stroke="#191970" points="120.2046,-54.7915 111.5986,-60.971 122.1798,-61.5071 120.2046,-54.7915"/>
</g>
<!-- Node664 -->
<g id="node3" class="node">
<title>Node664</title>
<g id="a_node3"><a xlink:href="../../df/d1b/classxla_1_1ComputationBuilder.html#a012fb04362bae1bd7d7ecdb469cbd6c1" target="_top" xlink:title="xla::ComputationBuilder\l::ConvGeneral">
<polygon fill="#ffffff" stroke="#000000" points="374,-110 374,-140 495,-140 495,-110 374,-110"/>
<text text-anchor="start" x="382" y="-128" font-family="Helvetica,sans-Serif" font-size="10.00" fill="#000000">xla::ComputationBuilder</text>
<text text-anchor="middle" x="434.5" y="-117" font-family="Helvetica,sans-Serif" font-size="10.00" fill="#000000">::ConvGeneral</text>
</a>
</g>
</g>
<!-- Node663&#45;&gt;Node664 -->
<g id="edge2" class="edge">
<title>Node663&#45;&gt;Node664</title>
<path fill="none" stroke="#191970" d="M318.2276,-125C336.5167,-125 356.0437,-125 373.7713,-125"/>
<polygon fill="#191970" stroke="#191970" points="318.2136,-121.5001 308.2135,-125 318.2135,-128.5001 318.2136,-121.5001"/>
</g>
<!-- Node665 -->
<g id="node4" class="node">
<title>Node665</title>
<g id="a_node4"><a xlink:href="../../df/d1b/classxla_1_1ComputationBuilder.html#aa55e6967d685a12315126f80a2daf1f7" target="_top" xlink:title="xla::ComputationBuilder\l::ConvWithGeneralPadding">
<polygon fill="#ffffff" stroke="#000000" points="539.5,-134 539.5,-164 674.5,-164 674.5,-134 539.5,-134"/>
<text text-anchor="start" x="547.5" y="-152" font-family="Helvetica,sans-Serif" font-size="10.00" fill="#000000">xla::ComputationBuilder</text>
<text text-anchor="middle" x="607" y="-141" font-family="Helvetica,sans-Serif" font-size="10.00" fill="#000000">::ConvWithGeneralPadding</text>
</a>
</g>
</g>
<!-- Node664&#45;&gt;Node665 -->
<g id="edge3" class="edge">
<title>Node664&#45;&gt;Node665</title>
<path fill="none" stroke="#191970" d="M505.488,-134.8766C516.6965,-136.436 528.2602,-138.0449 539.3891,-139.5933"/>
<polygon fill="#191970" stroke="#191970" points="505.704,-131.373 495.317,-133.4615 504.7393,-138.3062 505.704,-131.373"/>
</g>
<!-- Node666 -->
<g id="node5" class="node">
<title>Node666</title>
<g id="a_node5"><a xlink:href="../../df/d1b/classxla_1_1ComputationBuilder.html#a2e01c5667c341089ea9128d44e77ebf9" target="_top" xlink:title="xla::ComputationBuilder\l::ConvWithGeneralDimensions">
<polygon fill="#ffffff" stroke="#000000" points="531,-85 531,-115 683,-115 683,-85 531,-85"/>
<text text-anchor="start" x="539" y="-103" font-family="Helvetica,sans-Serif" font-size="10.00" fill="#000000">xla::ComputationBuilder</text>
<text text-anchor="middle" x="607" y="-92" font-family="Helvetica,sans-Serif" font-size="10.00" fill="#000000">::ConvWithGeneralDimensions</text>
</a>
</g>
</g>
<!-- Node664&#45;&gt;Node666 -->
<g id="edge4" class="edge">
<title>Node664&#45;&gt;Node666</title>
<path fill="none" stroke="#191970" d="M505.3853,-114.7268C513.7384,-113.5162 522.29,-112.2768 530.7132,-111.0561"/>
<polygon fill="#191970" stroke="#191970" points="504.7116,-111.2877 495.317,-116.1859 505.7157,-118.2154 504.7116,-111.2877"/>
</g>
<!-- Node667 -->
<g id="node6" class="node">
<title>Node667</title>
<g id="a_node6"><a xlink:href="../../df/d1b/classxla_1_1ComputationBuilder.html#a13498be4f12312e0026157948442eb96" target="_top" xlink:title="xla::ComputationBuilder\l::Conv">
<polygon fill="#ffffff" stroke="#000000" points="719,-85 719,-115 840,-115 840,-85 719,-85"/>
<text text-anchor="start" x="727" y="-103" font-family="Helvetica,sans-Serif" font-size="10.00" fill="#000000">xla::ComputationBuilder</text>
<text text-anchor="middle" x="779.5" y="-92" font-family="Helvetica,sans-Serif" font-size="10.00" fill="#000000">::Conv</text>
</a>
</g>
</g>
<!-- Node666&#45;&gt;Node667 -->
<g id="edge5" class="edge">
<title>Node666&#45;&gt;Node667</title>
<path fill="none" stroke="#191970" d="M693.2564,-100C701.8719,-100 710.4873,-100 718.7588,-100"/>
<polygon fill="#191970" stroke="#191970" points="693.1632,-96.5001 683.1631,-100 693.1631,-103.5001 693.1632,-96.5001"/>
</g>
<!-- Node669 -->
<g id="node8" class="node">
<title>Node669</title>
<g id="a_node8"><a xlink:href="../../df/d1b/classxla_1_1ComputationBuilder.html#aeee4ce84a296f1c3eab536180dc4af0d" target="_top" xlink:title="xla::ComputationBuilder\l::ReduceWindow">
<polygon fill="#ffffff" stroke="#000000" points="374,-61 374,-91 495,-91 495,-61 374,-61"/>
<text text-anchor="start" x="382" y="-79" font-family="Helvetica,sans-Serif" font-size="10.00" fill="#000000">xla::ComputationBuilder</text>
<text text-anchor="middle" x="434.5" y="-68" font-family="Helvetica,sans-Serif" font-size="10.00" fill="#000000">::ReduceWindow</text>
</a>
</g>
</g>
<!-- Node668&#45;&gt;Node669 -->
<g id="edge7" class="edge">
<title>Node668&#45;&gt;Node669</title>
<path fill="none" stroke="#191970" d="M348.4647,-76C357.1383,-76 365.7257,-76 373.9257,-76"/>
<polygon fill="#191970" stroke="#191970" points="348.2611,-72.5001 338.2611,-76 348.2611,-79.5001 348.2611,-72.5001"/>
</g>
<!-- Node671 -->
<g id="node10" class="node">
<title>Node671</title>
<g id="a_node10"><a xlink:href="../../df/d1b/classxla_1_1ComputationBuilder.html#a7eb4066e4756d792dbc57276d596989b" target="_top" xlink:title="xla::ComputationBuilder\l::SelectAndScatter">
<polygon fill="#ffffff" stroke="#000000" points="374,-6 374,-36 495,-36 495,-6 374,-6"/>
<text text-anchor="start" x="382" y="-24" font-family="Helvetica,sans-Serif" font-size="10.00" fill="#000000">xla::ComputationBuilder</text>
<text text-anchor="middle" x="434.5" y="-13" font-family="Helvetica,sans-Serif" font-size="10.00" fill="#000000">::SelectAndScatter</text>
</a>
</g>
</g>
<!-- Node670&#45;&gt;Node671 -->
<g id="edge9" class="edge">
<title>Node670&#45;&gt;Node671</title>
<path fill="none" stroke="#191970" d="M334.252,-21C347.5988,-21 361.1301,-21 373.7501,-21"/>
<polygon fill="#191970" stroke="#191970" points="334.0996,-17.5001 324.0996,-21 334.0996,-24.5001 334.0996,-17.5001"/>
</g>
</g>
</svg>
        <g id="navigator" transform="translate(0 0)" fill="#404254">
                <rect fill="#f2f5e9" fill-opacity="0.5" stroke="#606060" stroke-width=".5" x="0" y="0" width="60" height="60"/>
                <use id="zoomplus" xlink:href="#zoomPlus" x="17" y="9" onmousedown="handleZoom(evt,'in')"/>
                <use id="zoomminus" xlink:href="#zoomMin" x="42" y="9" onmousedown="handleZoom(evt,'out')"/>
                <use id="reset" xlink:href="#resetDef" x="30" y="36" onmousedown="handleReset()"/>
                <g id="arrowUp" xlink:href="#dirArrow" transform="translate(30 24)" onmousedown="handlePan(0,-1)">
                  <use xlink:href="#rim" fill="#404040">
                        <set attributeName="fill" to="#808080" begin="arrowUp.mouseover" end="arrowUp.mouseout"/>
                  </use>
                  <path fill="none" stroke="white" stroke-width="1.5" d="M0,-3.0v7 M-2.5,-0.5L0,-3.0L2.5,-0.5"/>
                </g>
                <g id="arrowRight" xlink:href="#dirArrow" transform="rotate(90) translate(36 -43)" onmousedown="handlePan(1,0)">
                  <use xlink:href="#rim" fill="#404040">
                        <set attributeName="fill" to="#808080" begin="arrowRight.mouseover" end="arrowRight.mouseout"/>
                  </use>
                  <path fill="none" stroke="white" stroke-width="1.5" d="M0,-3.0v7 M-2.5,-0.5L0,-3.0L2.5,-0.5"/>
                </g>
                <g id="arrowDown" xlink:href="#dirArrow" transform="rotate(180) translate(-30 -48)" onmousedown="handlePan(0,1)">
                  <use xlink:href="#rim" fill="#404040">
                        <set attributeName="fill" to="#808080" begin="arrowDown.mouseover" end="arrowDown.mouseout"/>
                  </use>
                  <path fill="none" stroke="white" stroke-width="1.5" d="M0,-3.0v7 M-2.5,-0.5L0,-3.0L2.5,-0.5"/>
                </g>
                <g id="arrowLeft" xlink:href="#dirArrow" transform="rotate(270) translate(-36 17)" onmousedown="handlePan(-1,0)">
                  <use xlink:href="#rim" fill="#404040">
                        <set attributeName="fill" to="#808080" begin="arrowLeft.mouseover" end="arrowLeft.mouseout"/>
                  </use>
                  <path fill="none" stroke="white" stroke-width="1.5" d="M0,-3.0v7 M-2.5,-0.5L0,-3.0L2.5,-0.5"/>
                </g>
        </g>
        <svg viewBox="0 0 15 15" width="100%" height="30px" preserveAspectRatio="xMaxYMin meet">
         <g id="arrow_out" transform="scale(0.3 0.3)">
          <a xlink:href="classxla_1_1ComputationBuilder_ac7d7dca366ed62647e192ad629aad835_icgraph_org.svg" target="_base">
           <rect id="button" ry="5" rx="5" y="6" x="6" height="38" width="38"
                fill="#f2f5e9" fill-opacity="0.5" stroke="#606060" stroke-width="1.0"/>
           <path id="arrow"
             d="M 11.500037,31.436501 C 11.940474,20.09759 22.043105,11.32322 32.158766,21.979434 L 37.068811,17.246167 C 37.068811,17.246167 37.088388,32 37.088388,32 L 22.160133,31.978069 C 22.160133,31.978069 26.997745,27.140456 26.997745,27.140456 C 18.528582,18.264221 13.291696,25.230495 11.500037,31.436501 z"
             style="fill:#404040;"/>
          </a>
         </g>
        </svg>
</svg>
