<?xml version="1.0" encoding="UTF-8" standalone="no"?>
<!DOCTYPE svg PUBLIC "-//W3C//DTD SVG 1.1//EN"
 "http://www.w3.org/Graphics/SVG/1.1/DTD/svg11.dtd">
<!-- Generated by graphviz version 2.40.1 (20161225.0304)
 -->
<!-- Title: xla::ComputationBuilder::ConstantLiteral Pages: 1 -->
<svg width="776pt" height="110pt"
 viewBox="0.00 0.00 776.00 110.00" xmlns="http://www.w3.org/2000/svg" xmlns:xlink="http://www.w3.org/1999/xlink">
<g id="graph0" class="graph" transform="scale(1 1) rotate(0) translate(4 106)">
<title>xla::ComputationBuilder::ConstantLiteral</title>
<polygon fill="#ffffff" stroke="transparent" points="-4,4 -4,-106 772,-106 772,4 -4,4"/>
<!-- Node232 -->
<g id="node1" class="node">
<title>Node232</title>
<polygon fill="#bfbfbf" stroke="#000000" points="0,-.5 0,-30.5 121,-30.5 121,-.5 0,-.5"/>
<text text-anchor="start" x="8" y="-18.5" font-family="Helvetica,sans-Serif" font-size="10.00" fill="#000000">xla::ComputationBuilder</text>
<text text-anchor="middle" x="60.5" y="-7.5" font-family="Helvetica,sans-Serif" font-size="10.00" fill="#000000">::ConstantLiteral</text>
</g>
<!-- Node233 -->
<g id="node2" class="node">
<title>Node233</title>
<g id="a_node2"><a xlink:href="../../df/d1b/classxla_1_1ComputationBuilder.html#a584f43dacccc04122c79a7e4ad2770d0" target="_top" xlink:title="Call RunOp() and either return the output ComputationDataHandle (on success) or an empty ComputationD...">
<polygon fill="#ffffff" stroke="#000000" points="157,-.5 157,-30.5 297,-30.5 297,-.5 157,-.5"/>
<text text-anchor="start" x="165" y="-18.5" font-family="Helvetica,sans-Serif" font-size="10.00" fill="#000000">xla::ComputationBuilder</text>
<text text-anchor="middle" x="227" y="-7.5" font-family="Helvetica,sans-Serif" font-size="10.00" fill="#000000">::RunOpAndParseResponse</text>
</a>
</g>
</g>
<!-- Node232&#45;&gt;Node233 -->
<g id="edge1" class="edge">
<title>Node232&#45;&gt;Node233</title>
<path fill="none" stroke="#191970" d="M121.0813,-15.5C129.4351,-15.5 138.1186,-15.5 146.7587,-15.5"/>
<polygon fill="#191970" stroke="#191970" points="146.8594,-19.0001 156.8593,-15.5 146.8593,-12.0001 146.8594,-19.0001"/>
</g>
<!-- Node234 -->
<g id="node3" class="node">
<title>Node234</title>
<g id="a_node3"><a xlink:href="../../df/d1b/classxla_1_1ComputationBuilder.html#a7d2ff8c5c638378bb6fb998a71661d22" target="_top" xlink:title="Run the given parameter op_request and fill in op_response. ">
<polygon fill="#ffffff" stroke="#000000" points="333,-22.5 333,-52.5 454,-52.5 454,-22.5 333,-22.5"/>
<text text-anchor="start" x="341" y="-40.5" font-family="Helvetica,sans-Serif" font-size="10.00" fill="#000000">xla::ComputationBuilder</text>
<text text-anchor="middle" x="393.5" y="-29.5" font-family="Helvetica,sans-Serif" font-size="10.00" fill="#000000">::RunOp</text>
</a>
</g>
</g>
<!-- Node233&#45;&gt;Node234 -->
<g id="edge2" class="edge">
<title>Node233&#45;&gt;Node234</title>
<path fill="none" stroke="#191970" d="M297.1284,-24.7662C305.6881,-25.8972 314.4375,-27.0533 323.0026,-28.185"/>
<polygon fill="#191970" stroke="#191970" points="322.5776,-31.6592 332.95,-29.4994 323.4947,-24.7195 322.5776,-31.6592"/>
</g>
<!-- Node236 -->
<g id="node5" class="node">
<title>Node236</title>
<g id="a_node5"><a xlink:href="../../df/d1b/classxla_1_1ComputationBuilder.html#a787b5fd4e96b9c918b7d0d73704f0d57" target="_top" xlink:title="xla::ComputationBuilder\l::NoteError">
<polygon fill="#ffffff" stroke="#000000" points="647,-24.5 647,-54.5 768,-54.5 768,-24.5 647,-24.5"/>
<text text-anchor="start" x="655" y="-42.5" font-family="Helvetica,sans-Serif" font-size="10.00" fill="#000000">xla::ComputationBuilder</text>
<text text-anchor="middle" x="707.5" y="-31.5" font-family="Helvetica,sans-Serif" font-size="10.00" fill="#000000">::NoteError</text>
</a>
</g>
</g>
<!-- Node233&#45;&gt;Node236 -->
<g id="edge6" class="edge">
<title>Node233&#45;&gt;Node236</title>
<path fill="none" stroke="#191970" d="M297.1081,-8.9352C374.3874,-3.0946 502.1836,2.4362 611,-12.5 625.0077,-14.4227 639.8475,-17.8459 653.5791,-21.6231"/>
<polygon fill="#191970" stroke="#191970" points="652.7773,-25.0341 663.3543,-24.4197 654.7027,-18.3041 652.7773,-25.0341"/>
</g>
<!-- Node235 -->
<g id="node4" class="node">
<title>Node235</title>
<g id="a_node4"><a xlink:href="../../df/d1b/classxla_1_1ComputationBuilder.html#af5ca3f8bbbe525f593293b55df772f1a" target="_top" xlink:title="Populates computation_ with a valid object. Used before any given operation is enqueued. ">
<polygon fill="#ffffff" stroke="#000000" points="490,-71.5 490,-101.5 611,-101.5 611,-71.5 490,-71.5"/>
<text text-anchor="start" x="498" y="-89.5" font-family="Helvetica,sans-Serif" font-size="10.00" fill="#000000">xla::ComputationBuilder</text>
<text text-anchor="middle" x="550.5" y="-78.5" font-family="Helvetica,sans-Serif" font-size="10.00" fill="#000000">::PrepareComputation</text>
</a>
</g>
</g>
<!-- Node234&#45;&gt;Node235 -->
<g id="edge3" class="edge">
<title>Node234&#45;&gt;Node235</title>
<path fill="none" stroke="#191970" d="M441.8862,-52.6014C457.9287,-57.6083 475.9488,-63.2324 492.631,-68.439"/>
<polygon fill="#191970" stroke="#191970" points="491.6849,-71.8101 502.2735,-71.4484 493.7704,-65.128 491.6849,-71.8101"/>
</g>
<!-- Node237 -->
<g id="node6" class="node">
<title>Node237</title>
<g id="a_node6"><a xlink:href="../../df/d1b/classxla_1_1ComputationBuilder.html#a2def8246d1c1829a85e095a84e364bca" target="_top" xlink:title="xla::ComputationBuilder\l::name">
<polygon fill="#ffffff" stroke="#000000" points="490,-22.5 490,-52.5 611,-52.5 611,-22.5 490,-22.5"/>
<text text-anchor="start" x="498" y="-40.5" font-family="Helvetica,sans-Serif" font-size="10.00" fill="#000000">xla::ComputationBuilder</text>
<text text-anchor="middle" x="550.5" y="-29.5" font-family="Helvetica,sans-Serif" font-size="10.00" fill="#000000">::name</text>
</a>
</g>
</g>
<!-- Node234&#45;&gt;Node237 -->
<g id="edge5" class="edge">
<title>Node234&#45;&gt;Node237</title>
<path fill="none" stroke="#191970" d="M454.2003,-37.5C462.635,-37.5 471.3591,-37.5 479.9547,-37.5"/>
<polygon fill="#191970" stroke="#191970" points="479.9612,-41.0001 489.9611,-37.5 479.9611,-34.0001 479.9612,-41.0001"/>
</g>
<!-- Node235&#45;&gt;Node236 -->
<g id="edge4" class="edge">
<title>Node235&#45;&gt;Node236</title>
<path fill="none" stroke="#191970" d="M600.6074,-71.4997C615.4777,-67.0481 631.919,-62.1262 647.3568,-57.5047"/>
<polygon fill="#191970" stroke="#191970" points="648.7539,-60.7399 657.3301,-54.519 646.7464,-54.034 648.7539,-60.7399"/>
</g>
</g>
</svg>
