<?xml version="1.0" encoding="UTF-8" standalone="no"?>
<!DOCTYPE svg PUBLIC "-//W3C//DTD SVG 1.1//EN"
 "http://www.w3.org/Graphics/SVG/1.1/DTD/svg11.dtd">
<!-- Generated by graphviz version 2.40.1 (20161225.0304)
 -->
<!-- Title: xla::ComputationBuilder::Lt Pages: 1 -->
<svg width="947pt" height="110pt"
 viewBox="0.00 0.00 947.00 110.00" xmlns="http://www.w3.org/2000/svg" xmlns:xlink="http://www.w3.org/1999/xlink">
<g id="graph0" class="graph" transform="scale(1 1) rotate(0) translate(4 106)">
<title>xla::ComputationBuilder::Lt</title>
<polygon fill="#ffffff" stroke="transparent" points="-4,4 -4,-106 943,-106 943,4 -4,4"/>
<!-- Node652 -->
<g id="node1" class="node">
<title>Node652</title>
<polygon fill="#bfbfbf" stroke="#000000" points="0,-6 0,-25 135,-25 135,-6 0,-6"/>
<text text-anchor="middle" x="67.5" y="-13" font-family="Helvetica,sans-Serif" font-size="10.00" fill="#000000">xla::ComputationBuilder::Lt</text>
</g>
<!-- Node653 -->
<g id="node2" class="node">
<title>Node653</title>
<g id="a_node2"><a xlink:href="../../df/d1b/classxla_1_1ComputationBuilder.html#a0534929468ac066fad4a507026251490" target="_top" xlink:title="xla::ComputationBuilder\l::BinaryOp">
<polygon fill="#ffffff" stroke="#000000" points="171,-.5 171,-30.5 292,-30.5 292,-.5 171,-.5"/>
<text text-anchor="start" x="179" y="-18.5" font-family="Helvetica,sans-Serif" font-size="10.00" fill="#000000">xla::ComputationBuilder</text>
<text text-anchor="middle" x="231.5" y="-7.5" font-family="Helvetica,sans-Serif" font-size="10.00" fill="#000000">::BinaryOp</text>
</a>
</g>
</g>
<!-- Node652&#45;&gt;Node653 -->
<g id="edge1" class="edge">
<title>Node652&#45;&gt;Node653</title>
<path fill="none" stroke="#191970" d="M135.1519,-15.5C143.5576,-15.5 152.1708,-15.5 160.6234,-15.5"/>
<polygon fill="#191970" stroke="#191970" points="160.8293,-19.0001 170.8293,-15.5 160.8292,-12.0001 160.8293,-19.0001"/>
</g>
<!-- Node654 -->
<g id="node3" class="node">
<title>Node654</title>
<g id="a_node3"><a xlink:href="../../df/d1b/classxla_1_1ComputationBuilder.html#a584f43dacccc04122c79a7e4ad2770d0" target="_top" xlink:title="Call RunOp() and either return the output ComputationDataHandle (on success) or an empty ComputationD...">
<polygon fill="#ffffff" stroke="#000000" points="328,-.5 328,-30.5 468,-30.5 468,-.5 328,-.5"/>
<text text-anchor="start" x="336" y="-18.5" font-family="Helvetica,sans-Serif" font-size="10.00" fill="#000000">xla::ComputationBuilder</text>
<text text-anchor="middle" x="398" y="-7.5" font-family="Helvetica,sans-Serif" font-size="10.00" fill="#000000">::RunOpAndParseResponse</text>
</a>
</g>
</g>
<!-- Node653&#45;&gt;Node654 -->
<g id="edge2" class="edge">
<title>Node653&#45;&gt;Node654</title>
<path fill="none" stroke="#191970" d="M292.0813,-15.5C300.4351,-15.5 309.1186,-15.5 317.7587,-15.5"/>
<polygon fill="#191970" stroke="#191970" points="317.8594,-19.0001 327.8593,-15.5 317.8593,-12.0001 317.8594,-19.0001"/>
</g>
<!-- Node655 -->
<g id="node4" class="node">
<title>Node655</title>
<g id="a_node4"><a xlink:href="../../df/d1b/classxla_1_1ComputationBuilder.html#a7d2ff8c5c638378bb6fb998a71661d22" target="_top" xlink:title="Run the given parameter op_request and fill in op_response. ">
<polygon fill="#ffffff" stroke="#000000" points="504,-22.5 504,-52.5 625,-52.5 625,-22.5 504,-22.5"/>
<text text-anchor="start" x="512" y="-40.5" font-family="Helvetica,sans-Serif" font-size="10.00" fill="#000000">xla::ComputationBuilder</text>
<text text-anchor="middle" x="564.5" y="-29.5" font-family="Helvetica,sans-Serif" font-size="10.00" fill="#000000">::RunOp</text>
</a>
</g>
</g>
<!-- Node654&#45;&gt;Node655 -->
<g id="edge3" class="edge">
<title>Node654&#45;&gt;Node655</title>
<path fill="none" stroke="#191970" d="M468.1284,-24.7662C476.6881,-25.8972 485.4375,-27.0533 494.0026,-28.185"/>
<polygon fill="#191970" stroke="#191970" points="493.5776,-31.6592 503.95,-29.4994 494.4947,-24.7195 493.5776,-31.6592"/>
</g>
<!-- Node657 -->
<g id="node6" class="node">
<title>Node657</title>
<g id="a_node6"><a xlink:href="../../df/d1b/classxla_1_1ComputationBuilder.html#a787b5fd4e96b9c918b7d0d73704f0d57" target="_top" xlink:title="xla::ComputationBuilder\l::NoteError">
<polygon fill="#ffffff" stroke="#000000" points="818,-24.5 818,-54.5 939,-54.5 939,-24.5 818,-24.5"/>
<text text-anchor="start" x="826" y="-42.5" font-family="Helvetica,sans-Serif" font-size="10.00" fill="#000000">xla::ComputationBuilder</text>
<text text-anchor="middle" x="878.5" y="-31.5" font-family="Helvetica,sans-Serif" font-size="10.00" fill="#000000">::NoteError</text>
</a>
</g>
</g>
<!-- Node654&#45;&gt;Node657 -->
<g id="edge7" class="edge">
<title>Node654&#45;&gt;Node657</title>
<path fill="none" stroke="#191970" d="M468.1081,-8.9352C545.3874,-3.0946 673.1836,2.4362 782,-12.5 796.0077,-14.4227 810.8475,-17.8459 824.5791,-21.6231"/>
<polygon fill="#191970" stroke="#191970" points="823.7773,-25.0341 834.3543,-24.4197 825.7027,-18.3041 823.7773,-25.0341"/>
</g>
<!-- Node656 -->
<g id="node5" class="node">
<title>Node656</title>
<g id="a_node5"><a xlink:href="../../df/d1b/classxla_1_1ComputationBuilder.html#af5ca3f8bbbe525f593293b55df772f1a" target="_top" xlink:title="Populates computation_ with a valid object. Used before any given operation is enqueued. ">
<polygon fill="#ffffff" stroke="#000000" points="661,-71.5 661,-101.5 782,-101.5 782,-71.5 661,-71.5"/>
<text text-anchor="start" x="669" y="-89.5" font-family="Helvetica,sans-Serif" font-size="10.00" fill="#000000">xla::ComputationBuilder</text>
<text text-anchor="middle" x="721.5" y="-78.5" font-family="Helvetica,sans-Serif" font-size="10.00" fill="#000000">::PrepareComputation</text>
</a>
</g>
</g>
<!-- Node655&#45;&gt;Node656 -->
<g id="edge4" class="edge">
<title>Node655&#45;&gt;Node656</title>
<path fill="none" stroke="#191970" d="M612.8862,-52.6014C628.9287,-57.6083 646.9488,-63.2324 663.631,-68.439"/>
<polygon fill="#191970" stroke="#191970" points="662.6849,-71.8101 673.2735,-71.4484 664.7704,-65.128 662.6849,-71.8101"/>
</g>
<!-- Node658 -->
<g id="node7" class="node">
<title>Node658</title>
<g id="a_node7"><a xlink:href="../../df/d1b/classxla_1_1ComputationBuilder.html#a2def8246d1c1829a85e095a84e364bca" target="_top" xlink:title="xla::ComputationBuilder\l::name">
<polygon fill="#ffffff" stroke="#000000" points="661,-22.5 661,-52.5 782,-52.5 782,-22.5 661,-22.5"/>
<text text-anchor="start" x="669" y="-40.5" font-family="Helvetica,sans-Serif" font-size="10.00" fill="#000000">xla::ComputationBuilder</text>
<text text-anchor="middle" x="721.5" y="-29.5" font-family="Helvetica,sans-Serif" font-size="10.00" fill="#000000">::name</text>
</a>
</g>
</g>
<!-- Node655&#45;&gt;Node658 -->
<g id="edge6" class="edge">
<title>Node655&#45;&gt;Node658</title>
<path fill="none" stroke="#191970" d="M625.2003,-37.5C633.635,-37.5 642.3591,-37.5 650.9547,-37.5"/>
<polygon fill="#191970" stroke="#191970" points="650.9612,-41.0001 660.9611,-37.5 650.9611,-34.0001 650.9612,-41.0001"/>
</g>
<!-- Node656&#45;&gt;Node657 -->
<g id="edge5" class="edge">
<title>Node656&#45;&gt;Node657</title>
<path fill="none" stroke="#191970" d="M771.6074,-71.4997C786.4777,-67.0481 802.919,-62.1262 818.3568,-57.5047"/>
<polygon fill="#191970" stroke="#191970" points="819.7539,-60.7399 828.3301,-54.519 817.7464,-54.034 819.7539,-60.7399"/>
</g>
</g>
</svg>
