<?xml version="1.0" encoding="UTF-8" standalone="no"?>
<!DOCTYPE svg PUBLIC "-//W3C//DTD SVG 1.1//EN"
 "http://www.w3.org/Graphics/SVG/1.1/DTD/svg11.dtd">
<!-- Generated by graphviz version 2.40.1 (20161225.0304)
 -->
<!-- Title: xla::ComputationBuilder::sharding Pages: 1 -->
<!--zoomable 88 -->
<svg id="main" version="1.1" xmlns="http://www.w3.org/2000/svg" xmlns:xlink="http://www.w3.org/1999/xlink" xml:space="preserve" onload="init(evt)">
<style type="text/css"><![CDATA[
.edge:hover path { stroke: red; }
.edge:hover polygon { stroke: red; fill: red; }
]]></style>
<script type="text/javascript"><![CDATA[
var edges = document.getElementsByTagName('g');
if (edges && edges.length) {
  for (var i=0;i<edges.length;i++) {
    if (edges[i].id.substr(0,4)=='edge') {
      edges[i].setAttribute('class','edge');
    }
  }
}
]]></script>
        <defs>
                <circle id="rim" cx="0" cy="0" r="7"/>
                <circle id="rim2" cx="0" cy="0" r="3.5"/>
                <g id="zoomPlus">
                        <use xlink:href="#rim" fill="#404040">
                                <set attributeName="fill" to="#808080" begin="zoomplus.mouseover" end="zoomplus.mouseout"/>
                        </use>
                        <path d="M-4,0h8M0,-4v8" fill="none" stroke="white" stroke-width="1.5" pointer-events="none"/>
                </g>
                <g id="zoomMin">
                        <use xlink:href="#rim" fill="#404040">
                                <set attributeName="fill" to="#808080" begin="zoomminus.mouseover" end="zoomminus.mouseout"/>
                        </use>
                        <path d="M-4,0h8" fill="none" stroke="white" stroke-width="1.5" pointer-events="none"/>
                </g>
                <g id="dirArrow">
                        <path fill="none" stroke="white" stroke-width="1.5" d="M0,-3.0v7 M-2.5,-0.5L0,-3.0L2.5,-0.5"/>
                </g>
               <g id="resetDef">
                       <use xlink:href="#rim2" fill="#404040">
                               <set attributeName="fill" to="#808080" begin="reset.mouseover" end="reset.mouseout"/>
                       </use>
               </g>
        </defs>

<script type="text/javascript">
var viewWidth = 674;
var viewHeight = 88;
var sectionId = 'dynsection-140';
</script>
<script xlink:href="../../svgpan.js"/>
<svg id="graph" class="graph">
<g id="viewport">
<title>xla::ComputationBuilder::sharding</title>
<polygon fill="#ffffff" stroke="transparent" points="-4,4 -4,-84 670,-84 670,4 -4,4"/>
<!-- Node1612 -->
<g id="node1" class="node">
<title>Node1612</title>
<polygon fill="#bfbfbf" stroke="#000000" points="0,-24.5 0,-54.5 121,-54.5 121,-24.5 0,-24.5"/>
<text text-anchor="start" x="8" y="-42.5" font-family="Helvetica,sans-Serif" font-size="10.00" fill="#000000">xla::ComputationBuilder</text>
<text text-anchor="middle" x="60.5" y="-31.5" font-family="Helvetica,sans-Serif" font-size="10.00" fill="#000000">::sharding</text>
</g>
<!-- Node1613 -->
<g id="node2" class="node">
<title>Node1613</title>
<g id="a_node2"><a xlink:href="../../df/d1b/classxla_1_1ComputationBuilder.html#a0802f92647f6189ea0a7a6c6e626212f" target="_top" xlink:title="xla::ComputationBuilder\l::SetSharding">
<polygon fill="#ffffff" stroke="#000000" points="157,-24.5 157,-54.5 278,-54.5 278,-24.5 157,-24.5"/>
<text text-anchor="start" x="165" y="-42.5" font-family="Helvetica,sans-Serif" font-size="10.00" fill="#000000">xla::ComputationBuilder</text>
<text text-anchor="middle" x="217.5" y="-31.5" font-family="Helvetica,sans-Serif" font-size="10.00" fill="#000000">::SetSharding</text>
</a>
</g>
</g>
<!-- Node1612&#45;&gt;Node1613 -->
<g id="edge1" class="edge">
<title>Node1612&#45;&gt;Node1613</title>
<path fill="none" stroke="#191970" d="M131.2098,-39.5C139.807,-39.5 148.5301,-39.5 156.9611,-39.5"/>
<polygon fill="#191970" stroke="#191970" points="131.2003,-36.0001 121.2003,-39.5 131.2003,-43.0001 131.2003,-36.0001"/>
</g>
<!-- Node1614 -->
<g id="node3" class="node">
<title>Node1614</title>
<g id="a_node3"><a xlink:href="../../d5/db4/classxla_1_1ScopedShardingAssignment.html#a0a6961ccce95bc0a10aba9ccc8789ad1" target="_top" xlink:title="xla::ScopedShardingAssignment\l::SetSharding">
<polygon fill="#ffffff" stroke="#000000" points="314,-24.5 314,-54.5 472,-54.5 472,-24.5 314,-24.5"/>
<text text-anchor="start" x="322" y="-42.5" font-family="Helvetica,sans-Serif" font-size="10.00" fill="#000000">xla::ScopedShardingAssignment</text>
<text text-anchor="middle" x="393" y="-31.5" font-family="Helvetica,sans-Serif" font-size="10.00" fill="#000000">::SetSharding</text>
</a>
</g>
</g>
<!-- Node1613&#45;&gt;Node1614 -->
<g id="edge2" class="edge">
<title>Node1613&#45;&gt;Node1614</title>
<path fill="none" stroke="#191970" d="M288.4964,-39.5C296.8868,-39.5 305.4894,-39.5 313.9819,-39.5"/>
<polygon fill="#191970" stroke="#191970" points="288.3889,-36.0001 278.3888,-39.5 288.3888,-43.0001 288.3889,-36.0001"/>
</g>
<!-- Node1615 -->
<g id="node4" class="node">
<title>Node1615</title>
<g id="a_node4"><a xlink:href="../../d5/db4/classxla_1_1ScopedShardingAssignment.html#ab23bab30fdfeaae21eea50381cc2d47b" target="_top" xlink:title="xla::ScopedShardingAssignment\l::ScopedShardingAssignment">
<polygon fill="#ffffff" stroke="#000000" points="508,-49.5 508,-79.5 666,-79.5 666,-49.5 508,-49.5"/>
<text text-anchor="start" x="516" y="-67.5" font-family="Helvetica,sans-Serif" font-size="10.00" fill="#000000">xla::ScopedShardingAssignment</text>
<text text-anchor="middle" x="587" y="-56.5" font-family="Helvetica,sans-Serif" font-size="10.00" fill="#000000">::ScopedShardingAssignment</text>
</a>
</g>
</g>
<!-- Node1614&#45;&gt;Node1615 -->
<g id="edge3" class="edge">
<title>Node1614&#45;&gt;Node1615</title>
<path fill="none" stroke="#191970" d="M482.1574,-50.9894C490.6963,-52.0897 499.3167,-53.2006 507.7517,-54.2876"/>
<polygon fill="#191970" stroke="#191970" points="482.5524,-47.5114 472.187,-49.7045 481.6577,-54.454 482.5524,-47.5114"/>
</g>
<!-- Node1616 -->
<g id="node5" class="node">
<title>Node1616</title>
<g id="a_node5"><a xlink:href="../../d5/db4/classxla_1_1ScopedShardingAssignment.html#a212d7257d87993b0c0f9dfd3464f7a37" target="_top" xlink:title="xla::ScopedShardingAssignment\l::~ScopedShardingAssignment">
<polygon fill="#ffffff" stroke="#000000" points="508,-.5 508,-30.5 666,-30.5 666,-.5 508,-.5"/>
<text text-anchor="start" x="516" y="-18.5" font-family="Helvetica,sans-Serif" font-size="10.00" fill="#000000">xla::ScopedShardingAssignment</text>
<text text-anchor="middle" x="587" y="-7.5" font-family="Helvetica,sans-Serif" font-size="10.00" fill="#000000">::~ScopedShardingAssignment</text>
</a>
</g>
</g>
<!-- Node1614&#45;&gt;Node1616 -->
<g id="edge4" class="edge">
<title>Node1614&#45;&gt;Node1616</title>
<path fill="none" stroke="#191970" d="M482.1574,-28.4702C490.6963,-27.4139 499.3167,-26.3474 507.7517,-25.3039"/>
<polygon fill="#191970" stroke="#191970" points="481.6816,-25.0023 472.187,-29.7037 482.5411,-31.9493 481.6816,-25.0023"/>
</g>
</g>
</svg>
        <g id="navigator" transform="translate(0 0)" fill="#404254">
                <rect fill="#f2f5e9" fill-opacity="0.5" stroke="#606060" stroke-width=".5" x="0" y="0" width="60" height="60"/>
                <use id="zoomplus" xlink:href="#zoomPlus" x="17" y="9" onmousedown="handleZoom(evt,'in')"/>
                <use id="zoomminus" xlink:href="#zoomMin" x="42" y="9" onmousedown="handleZoom(evt,'out')"/>
                <use id="reset" xlink:href="#resetDef" x="30" y="36" onmousedown="handleReset()"/>
                <g id="arrowUp" xlink:href="#dirArrow" transform="translate(30 24)" onmousedown="handlePan(0,-1)">
                  <use xlink:href="#rim" fill="#404040">
                        <set attributeName="fill" to="#808080" begin="arrowUp.mouseover" end="arrowUp.mouseout"/>
                  </use>
                  <path fill="none" stroke="white" stroke-width="1.5" d="M0,-3.0v7 M-2.5,-0.5L0,-3.0L2.5,-0.5"/>
                </g>
                <g id="arrowRight" xlink:href="#dirArrow" transform="rotate(90) translate(36 -43)" onmousedown="handlePan(1,0)">
                  <use xlink:href="#rim" fill="#404040">
                        <set attributeName="fill" to="#808080" begin="arrowRight.mouseover" end="arrowRight.mouseout"/>
                  </use>
                  <path fill="none" stroke="white" stroke-width="1.5" d="M0,-3.0v7 M-2.5,-0.5L0,-3.0L2.5,-0.5"/>
                </g>
                <g id="arrowDown" xlink:href="#dirArrow" transform="rotate(180) translate(-30 -48)" onmousedown="handlePan(0,1)">
                  <use xlink:href="#rim" fill="#404040">
                        <set attributeName="fill" to="#808080" begin="arrowDown.mouseover" end="arrowDown.mouseout"/>
                  </use>
                  <path fill="none" stroke="white" stroke-width="1.5" d="M0,-3.0v7 M-2.5,-0.5L0,-3.0L2.5,-0.5"/>
                </g>
                <g id="arrowLeft" xlink:href="#dirArrow" transform="rotate(270) translate(-36 17)" onmousedown="handlePan(-1,0)">
                  <use xlink:href="#rim" fill="#404040">
                        <set attributeName="fill" to="#808080" begin="arrowLeft.mouseover" end="arrowLeft.mouseout"/>
                  </use>
                  <path fill="none" stroke="white" stroke-width="1.5" d="M0,-3.0v7 M-2.5,-0.5L0,-3.0L2.5,-0.5"/>
                </g>
        </g>
        <svg viewBox="0 0 15 15" width="100%" height="30px" preserveAspectRatio="xMaxYMin meet">
         <g id="arrow_out" transform="scale(0.3 0.3)">
          <a xlink:href="classxla_1_1ComputationBuilder_a961682e696a5607179c574aea40e718c_icgraph_org.svg" target="_base">
           <rect id="button" ry="5" rx="5" y="6" x="6" height="38" width="38"
                fill="#f2f5e9" fill-opacity="0.5" stroke="#606060" stroke-width="1.0"/>
           <path id="arrow"
             d="M 11.500037,31.436501 C 11.940474,20.09759 22.043105,11.32322 32.158766,21.979434 L 37.068811,17.246167 C 37.068811,17.246167 37.088388,32 37.088388,32 L 22.160133,31.978069 C 22.160133,31.978069 26.997745,27.140456 26.997745,27.140456 C 18.528582,18.264221 13.291696,25.230495 11.500037,31.436501 z"
             style="fill:#404040;"/>
          </a>
         </g>
        </svg>
</svg>
