<?xml version="1.0" encoding="UTF-8" standalone="no"?>
<!DOCTYPE svg PUBLIC "-//W3C//DTD SVG 1.1//EN"
 "http://www.w3.org/Graphics/SVG/1.1/DTD/svg11.dtd">
<!-- Generated by graphviz version 2.40.1 (20161225.0304)
 -->
<!-- Title: xla::ComputationBuilder::ConvGeneralDilated Pages: 1 -->
<!--zoomable 302 -->
<svg id="main" version="1.1" xmlns="http://www.w3.org/2000/svg" xmlns:xlink="http://www.w3.org/1999/xlink" xml:space="preserve" onload="init(evt)">
<style type="text/css"><![CDATA[
.edge:hover path { stroke: red; }
.edge:hover polygon { stroke: red; fill: red; }
]]></style>
<script type="text/javascript"><![CDATA[
var edges = document.getElementsByTagName('g');
if (edges && edges.length) {
  for (var i=0;i<edges.length;i++) {
    if (edges[i].id.substr(0,4)=='edge') {
      edges[i].setAttribute('class','edge');
    }
  }
}
]]></script>
        <defs>
                <circle id="rim" cx="0" cy="0" r="7"/>
                <circle id="rim2" cx="0" cy="0" r="3.5"/>
                <g id="zoomPlus">
                        <use xlink:href="#rim" fill="#404040">
                                <set attributeName="fill" to="#808080" begin="zoomplus.mouseover" end="zoomplus.mouseout"/>
                        </use>
                        <path d="M-4,0h8M0,-4v8" fill="none" stroke="white" stroke-width="1.5" pointer-events="none"/>
                </g>
                <g id="zoomMin">
                        <use xlink:href="#rim" fill="#404040">
                                <set attributeName="fill" to="#808080" begin="zoomminus.mouseover" end="zoomminus.mouseout"/>
                        </use>
                        <path d="M-4,0h8" fill="none" stroke="white" stroke-width="1.5" pointer-events="none"/>
                </g>
                <g id="dirArrow">
                        <path fill="none" stroke="white" stroke-width="1.5" d="M0,-3.0v7 M-2.5,-0.5L0,-3.0L2.5,-0.5"/>
                </g>
               <g id="resetDef">
                       <use xlink:href="#rim2" fill="#404040">
                               <set attributeName="fill" to="#808080" begin="reset.mouseover" end="reset.mouseout"/>
                       </use>
               </g>
        </defs>

<script type="text/javascript">
var viewWidth = 797;
var viewHeight = 302;
var sectionId = 'dynsection-47';
</script>
<script xlink:href="../../svgpan.js"/>
<svg id="graph" class="graph">
<g id="viewport">
<title>xla::ComputationBuilder::ConvGeneralDilated</title>
<polygon fill="#ffffff" stroke="transparent" points="-4,4 -4,-298 793,-298 793,4 -4,4"/>
<!-- Node380 -->
<g id="node1" class="node">
<title>Node380</title>
<polygon fill="#bfbfbf" stroke="#000000" points="0,-88.5 0,-118.5 121,-118.5 121,-88.5 0,-88.5"/>
<text text-anchor="start" x="8" y="-106.5" font-family="Helvetica,sans-Serif" font-size="10.00" fill="#000000">xla::ComputationBuilder</text>
<text text-anchor="middle" x="60.5" y="-95.5" font-family="Helvetica,sans-Serif" font-size="10.00" fill="#000000">::ConvGeneralDilated</text>
</g>
<!-- Node381 -->
<g id="node2" class="node">
<title>Node381</title>
<g id="a_node2"><a xlink:href="../../df/d1b/classxla_1_1ComputationBuilder.html#af5ca3f8bbbe525f593293b55df772f1a" target="_top" xlink:title="Populates computation_ with a valid object. Used before any given operation is enqueued. ">
<polygon fill="#ffffff" stroke="#000000" points="511,-88.5 511,-118.5 632,-118.5 632,-88.5 511,-88.5"/>
<text text-anchor="start" x="519" y="-106.5" font-family="Helvetica,sans-Serif" font-size="10.00" fill="#000000">xla::ComputationBuilder</text>
<text text-anchor="middle" x="571.5" y="-95.5" font-family="Helvetica,sans-Serif" font-size="10.00" fill="#000000">::PrepareComputation</text>
</a>
</g>
</g>
<!-- Node380&#45;&gt;Node381 -->
<g id="edge1" class="edge">
<title>Node380&#45;&gt;Node381</title>
<path fill="none" stroke="#191970" d="M121.1251,-103.5C216.2061,-103.5 399.9339,-103.5 500.8558,-103.5"/>
<polygon fill="#191970" stroke="#191970" points="500.9539,-107.0001 510.9538,-103.5 500.9538,-100.0001 500.9539,-107.0001"/>
</g>
<!-- Node383 -->
<g id="node4" class="node">
<title>Node383</title>
<g id="a_node4"><a xlink:href="../../df/d1b/classxla_1_1ComputationBuilder.html#a802577eb94272bfc6b2b7684b8a2ad85" target="_top" xlink:title="xla::ComputationBuilder\l::GetShape">
<polygon fill="#ffffff" stroke="#000000" points="166.5,-219.5 166.5,-249.5 287.5,-249.5 287.5,-219.5 166.5,-219.5"/>
<text text-anchor="start" x="174.5" y="-237.5" font-family="Helvetica,sans-Serif" font-size="10.00" fill="#000000">xla::ComputationBuilder</text>
<text text-anchor="middle" x="227" y="-226.5" font-family="Helvetica,sans-Serif" font-size="10.00" fill="#000000">::GetShape</text>
</a>
</g>
</g>
<!-- Node380&#45;&gt;Node383 -->
<g id="edge3" class="edge">
<title>Node380&#45;&gt;Node383</title>
<path fill="none" stroke="#191970" d="M79.5997,-118.5274C109.129,-141.7607 165.9812,-186.4912 199.7971,-213.0971"/>
<polygon fill="#191970" stroke="#191970" points="197.844,-216.0139 207.8673,-219.4467 202.1724,-210.5125 197.844,-216.0139"/>
</g>
<!-- Node385 -->
<g id="node6" class="node">
<title>Node385</title>
<g id="a_node6"><a xlink:href="../../df/d1b/classxla_1_1ComputationBuilder.html#a318ddf58896882c677aac1548c183f25" target="_top" xlink:title="xla::ComputationBuilder\l::VerifyConvolution">
<polygon fill="#ffffff" stroke="#000000" points="343.5,-44.5 343.5,-74.5 464.5,-74.5 464.5,-44.5 343.5,-44.5"/>
<text text-anchor="start" x="351.5" y="-62.5" font-family="Helvetica,sans-Serif" font-size="10.00" fill="#000000">xla::ComputationBuilder</text>
<text text-anchor="middle" x="404" y="-51.5" font-family="Helvetica,sans-Serif" font-size="10.00" fill="#000000">::VerifyConvolution</text>
</a>
</g>
</g>
<!-- Node380&#45;&gt;Node385 -->
<g id="edge6" class="edge">
<title>Node380&#45;&gt;Node385</title>
<path fill="none" stroke="#191970" d="M121.2133,-94.4726C133.074,-92.771 145.4214,-91.0428 157,-89.5 216.3872,-81.5867 283.9251,-73.4422 333.3506,-67.6398"/>
<polygon fill="#191970" stroke="#191970" points="333.7744,-71.1142 343.2994,-66.4747 332.9601,-64.1617 333.7744,-71.1142"/>
</g>
<!-- Node386 -->
<g id="node7" class="node">
<title>Node386</title>
<g id="a_node7"><a xlink:href="../../df/d1b/classxla_1_1ComputationBuilder.html#ac7d7dca366ed62647e192ad629aad835" target="_top" xlink:title="xla::ComputationBuilder\l::MakeWindow">
<polygon fill="#ffffff" stroke="#000000" points="511,-.5 511,-30.5 632,-30.5 632,-.5 511,-.5"/>
<text text-anchor="start" x="519" y="-18.5" font-family="Helvetica,sans-Serif" font-size="10.00" fill="#000000">xla::ComputationBuilder</text>
<text text-anchor="middle" x="571.5" y="-7.5" font-family="Helvetica,sans-Serif" font-size="10.00" fill="#000000">::MakeWindow</text>
</a>
</g>
</g>
<!-- Node380&#45;&gt;Node386 -->
<g id="edge8" class="edge">
<title>Node380&#45;&gt;Node386</title>
<path fill="none" stroke="#191970" d="M99.0719,-88.4922C116.5714,-82.0523 137.6419,-74.806 157,-69.5 233.9169,-48.4173 254.0032,-45.4632 333,-34.5 388.9627,-26.7335 452.7868,-21.8562 500.3198,-18.9905"/>
<polygon fill="#191970" stroke="#191970" points="500.7328,-22.4724 510.5103,-18.3918 500.3222,-15.4844 500.7328,-22.4724"/>
</g>
<!-- Node387 -->
<g id="node8" class="node">
<title>Node387</title>
<g id="a_node8"><a xlink:href="../../df/d1b/classxla_1_1ComputationBuilder.html#a584f43dacccc04122c79a7e4ad2770d0" target="_top" xlink:title="Call RunOp() and either return the output ComputationDataHandle (on success) or an empty ComputationD...">
<polygon fill="#ffffff" stroke="#000000" points="157,-135.5 157,-165.5 297,-165.5 297,-135.5 157,-135.5"/>
<text text-anchor="start" x="165" y="-153.5" font-family="Helvetica,sans-Serif" font-size="10.00" fill="#000000">xla::ComputationBuilder</text>
<text text-anchor="middle" x="227" y="-142.5" font-family="Helvetica,sans-Serif" font-size="10.00" fill="#000000">::RunOpAndParseResponse</text>
</a>
</g>
</g>
<!-- Node380&#45;&gt;Node387 -->
<g id="edge10" class="edge">
<title>Node380&#45;&gt;Node387</title>
<path fill="none" stroke="#191970" d="M113.6394,-118.5003C129.7099,-123.0367 147.5104,-128.0615 164.1519,-132.7591"/>
<polygon fill="#191970" stroke="#191970" points="163.2196,-136.1326 173.7943,-135.481 165.1213,-129.3959 163.2196,-136.1326"/>
</g>
<!-- Node382 -->
<g id="node3" class="node">
<title>Node382</title>
<g id="a_node3"><a xlink:href="../../df/d1b/classxla_1_1ComputationBuilder.html#a787b5fd4e96b9c918b7d0d73704f0d57" target="_top" xlink:title="xla::ComputationBuilder\l::NoteError">
<polygon fill="#ffffff" stroke="#000000" points="668,-88.5 668,-118.5 789,-118.5 789,-88.5 668,-88.5"/>
<text text-anchor="start" x="676" y="-106.5" font-family="Helvetica,sans-Serif" font-size="10.00" fill="#000000">xla::ComputationBuilder</text>
<text text-anchor="middle" x="728.5" y="-95.5" font-family="Helvetica,sans-Serif" font-size="10.00" fill="#000000">::NoteError</text>
</a>
</g>
</g>
<!-- Node381&#45;&gt;Node382 -->
<g id="edge2" class="edge">
<title>Node381&#45;&gt;Node382</title>
<path fill="none" stroke="#191970" d="M632.2003,-103.5C640.635,-103.5 649.3591,-103.5 657.9547,-103.5"/>
<polygon fill="#191970" stroke="#191970" points="657.9612,-107.0001 667.9611,-103.5 657.9611,-100.0001 657.9612,-107.0001"/>
</g>
<!-- Node383&#45;&gt;Node382 -->
<g id="edge5" class="edge">
<title>Node383&#45;&gt;Node382</title>
<path fill="none" stroke="#191970" d="M287.6022,-241.9434C369.7912,-249.3292 519.2656,-253.0052 632,-200.5 666.7514,-184.3148 696.0378,-149.9876 712.9391,-126.8239"/>
<polygon fill="#191970" stroke="#191970" points="715.8727,-128.7375 718.7958,-118.5539 710.1601,-124.6919 715.8727,-128.7375"/>
</g>
<!-- Node384 -->
<g id="node5" class="node">
<title>Node384</title>
<g id="a_node5"><a xlink:href="../../df/d1b/classxla_1_1ComputationBuilder.html#a3cc9e4cb9e38733572e7153a1931b19f" target="_top" xlink:title="xla::ComputationBuilder\l::GetShapeWithoutNoteError">
<polygon fill="#ffffff" stroke="#000000" points="333,-263.5 333,-293.5 475,-293.5 475,-263.5 333,-263.5"/>
<text text-anchor="start" x="341" y="-281.5" font-family="Helvetica,sans-Serif" font-size="10.00" fill="#000000">xla::ComputationBuilder</text>
<text text-anchor="middle" x="404" y="-270.5" font-family="Helvetica,sans-Serif" font-size="10.00" fill="#000000">::GetShapeWithoutNoteError</text>
</a>
</g>
</g>
<!-- Node383&#45;&gt;Node384 -->
<g id="edge4" class="edge">
<title>Node383&#45;&gt;Node384</title>
<path fill="none" stroke="#191970" d="M287.4183,-249.5192C302.2879,-253.2156 318.3374,-257.2053 333.6319,-261.0074"/>
<polygon fill="#191970" stroke="#191970" points="333.0046,-264.4579 343.5537,-263.4738 334.6934,-257.6646 333.0046,-264.4579"/>
</g>
<!-- Node385&#45;&gt;Node382 -->
<g id="edge7" class="edge">
<title>Node385&#45;&gt;Node382</title>
<path fill="none" stroke="#191970" d="M464.8381,-61.7507C510.9707,-64.1375 575.8065,-68.9513 632,-78.5 643.5968,-80.4706 655.8381,-83.1571 667.5642,-86.0404"/>
<polygon fill="#191970" stroke="#191970" points="666.7142,-89.4356 677.2675,-88.4973 668.4325,-82.6497 666.7142,-89.4356"/>
</g>
<!-- Node386&#45;&gt;Node382 -->
<g id="edge9" class="edge">
<title>Node386&#45;&gt;Node382</title>
<path fill="none" stroke="#191970" d="M603.1493,-30.5935C612.5186,-35.2226 622.744,-40.4343 632,-45.5 653.6611,-57.3549 677.4429,-71.6334 695.9777,-83.0568"/>
<polygon fill="#191970" stroke="#191970" points="694.2786,-86.1214 704.6228,-88.4121 697.9649,-80.1706 694.2786,-86.1214"/>
</g>
<!-- Node387&#45;&gt;Node382 -->
<g id="edge14" class="edge">
<title>Node387&#45;&gt;Node382</title>
<path fill="none" stroke="#191970" d="M275.6335,-165.5048C353.2858,-186.8978 509.0457,-219.2163 632,-177.5 661.9144,-167.3505 689.8257,-143.7862 707.8564,-125.9554"/>
<polygon fill="#191970" stroke="#191970" points="710.4501,-128.3095 714.956,-118.7205 705.4538,-123.4067 710.4501,-128.3095"/>
</g>
<!-- Node388 -->
<g id="node9" class="node">
<title>Node388</title>
<g id="a_node9"><a xlink:href="../../df/d1b/classxla_1_1ComputationBuilder.html#a7d2ff8c5c638378bb6fb998a71661d22" target="_top" xlink:title="Run the given parameter op_request and fill in op_response. ">
<polygon fill="#ffffff" stroke="#000000" points="343.5,-135.5 343.5,-165.5 464.5,-165.5 464.5,-135.5 343.5,-135.5"/>
<text text-anchor="start" x="351.5" y="-153.5" font-family="Helvetica,sans-Serif" font-size="10.00" fill="#000000">xla::ComputationBuilder</text>
<text text-anchor="middle" x="404" y="-142.5" font-family="Helvetica,sans-Serif" font-size="10.00" fill="#000000">::RunOp</text>
</a>
</g>
</g>
<!-- Node387&#45;&gt;Node388 -->
<g id="edge11" class="edge">
<title>Node387&#45;&gt;Node388</title>
<path fill="none" stroke="#191970" d="M297.2093,-150.5C309.0041,-150.5 321.2522,-150.5 333.0652,-150.5"/>
<polygon fill="#191970" stroke="#191970" points="333.3121,-154.0001 343.312,-150.5 333.312,-147.0001 333.3121,-154.0001"/>
</g>
<!-- Node388&#45;&gt;Node381 -->
<g id="edge12" class="edge">
<title>Node388&#45;&gt;Node381</title>
<path fill="none" stroke="#191970" d="M457.4586,-135.4997C473.6256,-130.9633 491.533,-125.9385 508.2744,-121.2409"/>
<polygon fill="#191970" stroke="#191970" points="509.2922,-124.5906 517.9748,-118.519 507.401,-117.8509 509.2922,-124.5906"/>
</g>
<!-- Node389 -->
<g id="node10" class="node">
<title>Node389</title>
<g id="a_node10"><a xlink:href="../../df/d1b/classxla_1_1ComputationBuilder.html#a2def8246d1c1829a85e095a84e364bca" target="_top" xlink:title="xla::ComputationBuilder\l::name">
<polygon fill="#ffffff" stroke="#000000" points="511,-137.5 511,-167.5 632,-167.5 632,-137.5 511,-137.5"/>
<text text-anchor="start" x="519" y="-155.5" font-family="Helvetica,sans-Serif" font-size="10.00" fill="#000000">xla::ComputationBuilder</text>
<text text-anchor="middle" x="571.5" y="-144.5" font-family="Helvetica,sans-Serif" font-size="10.00" fill="#000000">::name</text>
</a>
</g>
</g>
<!-- Node388&#45;&gt;Node389 -->
<g id="edge13" class="edge">
<title>Node388&#45;&gt;Node389</title>
<path fill="none" stroke="#191970" d="M464.9452,-151.2277C476.5207,-151.3659 488.7254,-151.5116 500.579,-151.6532"/>
<polygon fill="#191970" stroke="#191970" points="500.8396,-155.1564 510.8807,-151.7762 500.9232,-148.1569 500.8396,-155.1564"/>
</g>
</g>
</svg>
        <g id="navigator" transform="translate(0 0)" fill="#404254">
                <rect fill="#f2f5e9" fill-opacity="0.5" stroke="#606060" stroke-width=".5" x="0" y="0" width="60" height="60"/>
                <use id="zoomplus" xlink:href="#zoomPlus" x="17" y="9" onmousedown="handleZoom(evt,'in')"/>
                <use id="zoomminus" xlink:href="#zoomMin" x="42" y="9" onmousedown="handleZoom(evt,'out')"/>
                <use id="reset" xlink:href="#resetDef" x="30" y="36" onmousedown="handleReset()"/>
                <g id="arrowUp" xlink:href="#dirArrow" transform="translate(30 24)" onmousedown="handlePan(0,-1)">
                  <use xlink:href="#rim" fill="#404040">
                        <set attributeName="fill" to="#808080" begin="arrowUp.mouseover" end="arrowUp.mouseout"/>
                  </use>
                  <path fill="none" stroke="white" stroke-width="1.5" d="M0,-3.0v7 M-2.5,-0.5L0,-3.0L2.5,-0.5"/>
                </g>
                <g id="arrowRight" xlink:href="#dirArrow" transform="rotate(90) translate(36 -43)" onmousedown="handlePan(1,0)">
                  <use xlink:href="#rim" fill="#404040">
                        <set attributeName="fill" to="#808080" begin="arrowRight.mouseover" end="arrowRight.mouseout"/>
                  </use>
                  <path fill="none" stroke="white" stroke-width="1.5" d="M0,-3.0v7 M-2.5,-0.5L0,-3.0L2.5,-0.5"/>
                </g>
                <g id="arrowDown" xlink:href="#dirArrow" transform="rotate(180) translate(-30 -48)" onmousedown="handlePan(0,1)">
                  <use xlink:href="#rim" fill="#404040">
                        <set attributeName="fill" to="#808080" begin="arrowDown.mouseover" end="arrowDown.mouseout"/>
                  </use>
                  <path fill="none" stroke="white" stroke-width="1.5" d="M0,-3.0v7 M-2.5,-0.5L0,-3.0L2.5,-0.5"/>
                </g>
                <g id="arrowLeft" xlink:href="#dirArrow" transform="rotate(270) translate(-36 17)" onmousedown="handlePan(-1,0)">
                  <use xlink:href="#rim" fill="#404040">
                        <set attributeName="fill" to="#808080" begin="arrowLeft.mouseover" end="arrowLeft.mouseout"/>
                  </use>
                  <path fill="none" stroke="white" stroke-width="1.5" d="M0,-3.0v7 M-2.5,-0.5L0,-3.0L2.5,-0.5"/>
                </g>
        </g>
        <svg viewBox="0 0 15 15" width="100%" height="30px" preserveAspectRatio="xMaxYMin meet">
         <g id="arrow_out" transform="scale(0.3 0.3)">
          <a xlink:href="classxla_1_1ComputationBuilder_ac0905f4579b318824ca65f112f3f1408_cgraph_org.svg" target="_base">
           <rect id="button" ry="5" rx="5" y="6" x="6" height="38" width="38"
                fill="#f2f5e9" fill-opacity="0.5" stroke="#606060" stroke-width="1.0"/>
           <path id="arrow"
             d="M 11.500037,31.436501 C 11.940474,20.09759 22.043105,11.32322 32.158766,21.979434 L 37.068811,17.246167 C 37.068811,17.246167 37.088388,32 37.088388,32 L 22.160133,31.978069 C 22.160133,31.978069 26.997745,27.140456 26.997745,27.140456 C 18.528582,18.264221 13.291696,25.230495 11.500037,31.436501 z"
             style="fill:#404040;"/>
          </a>
         </g>
        </svg>
</svg>
