<?xml version="1.0" encoding="UTF-8" standalone="no"?>
<!DOCTYPE svg PUBLIC "-//W3C//DTD SVG 1.1//EN"
 "http://www.w3.org/Graphics/SVG/1.1/DTD/svg11.dtd">
<!-- Generated by graphviz version 2.40.1 (20161225.0304)
 -->
<!-- Title: xla::ComputationBuilder::RunOpAndParseResponse Pages: 1 -->
<svg width="663pt" height="39pt"
 viewBox="0.00 0.00 663.00 39.00" xmlns="http://www.w3.org/2000/svg" xmlns:xlink="http://www.w3.org/1999/xlink">
<g id="graph0" class="graph" transform="scale(1 1) rotate(0) translate(4 35)">
<title>xla::ComputationBuilder::RunOpAndParseResponse</title>
<polygon fill="#ffffff" stroke="transparent" points="-4,4 -4,-35 659,-35 659,4 -4,4"/>
<!-- Node24 -->
<g id="node1" class="node">
<title>Node24</title>
<polygon fill="#bfbfbf" stroke="#000000" points="0,-.5 0,-30.5 146,-30.5 146,-.5 0,-.5"/>
<text text-anchor="start" x="8" y="-18.5" font-family="Helvetica,sans-Serif" font-size="10.00" fill="#000000">xla::ComputationBuilder</text>
<text text-anchor="middle" x="73" y="-7.5" font-family="Helvetica,sans-Serif" font-size="10.00" fill="#000000">::RunOpAndParseResponse</text>
</g>
<!-- Node25 -->
<g id="node2" class="node">
<title>Node25</title>
<g id="a_node2"><a xlink:href="../../df/d1b/classxla_1_1ComputationBuilder.html#a7312b57426afbc7bcb728307fc020869" target="_top" xlink:title="Enqueues a &quot;retrieve parameter value&quot; instruction to the UserComputation. ">
<polygon fill="#ffffff" stroke="#000000" points="182,-.5 182,-30.5 317,-30.5 317,-.5 182,-.5"/>
<text text-anchor="start" x="190" y="-18.5" font-family="Helvetica,sans-Serif" font-size="10.00" fill="#000000">xla::ComputationBuilder</text>
<text text-anchor="middle" x="249.5" y="-7.5" font-family="Helvetica,sans-Serif" font-size="10.00" fill="#000000">::Parameter</text>
</a>
</g>
</g>
<!-- Node24&#45;&gt;Node25 -->
<g id="edge1" class="edge">
<title>Node24&#45;&gt;Node25</title>
<path fill="none" stroke="#191970" d="M156.1353,-15.5C164.7575,-15.5 173.4451,-15.5 181.8672,-15.5"/>
<polygon fill="#191970" stroke="#191970" points="156.0634,-12.0001 146.0634,-15.5 156.0633,-19.0001 156.0634,-12.0001"/>
</g>
<!-- Node26 -->
<g id="node3" class="node">
<title>Node26</title>
<g id="a_node3"><a xlink:href="../../d7/dbf/classtensorflow_1_1XlaCompiler.html#af976233791194ab48c2512fdfac123ea" target="_top" xlink:title="Build XLA computations for each of the arguments to the UserComputation. ">
<polygon fill="#ffffff" stroke="#000000" points="353,-.5 353,-30.5 486,-30.5 486,-.5 353,-.5"/>
<text text-anchor="start" x="361" y="-18.5" font-family="Helvetica,sans-Serif" font-size="10.00" fill="#000000">tensorflow::XlaCompiler</text>
<text text-anchor="middle" x="419.5" y="-7.5" font-family="Helvetica,sans-Serif" font-size="10.00" fill="#000000">::BuildArguments</text>
</a>
</g>
</g>
<!-- Node25&#45;&gt;Node26 -->
<g id="edge2" class="edge">
<title>Node25&#45;&gt;Node26</title>
<path fill="none" stroke="#191970" d="M327.1873,-15.5C335.7719,-15.5 344.4567,-15.5 352.888,-15.5"/>
<polygon fill="#191970" stroke="#191970" points="327.177,-12.0001 317.177,-15.5 327.1769,-19.0001 327.177,-12.0001"/>
</g>
<!-- Node27 -->
<g id="node4" class="node">
<title>Node27</title>
<g id="a_node4"><a xlink:href="../../d7/dbf/classtensorflow_1_1XlaCompiler.html#ade5be3e41d2892412acb844070182858" target="_top" xlink:title="Compiles a tensorflow::Graph into an xla::Computation. ">
<polygon fill="#ffffff" stroke="#000000" points="522,-.5 522,-30.5 655,-30.5 655,-.5 522,-.5"/>
<text text-anchor="start" x="530" y="-18.5" font-family="Helvetica,sans-Serif" font-size="10.00" fill="#000000">tensorflow::XlaCompiler</text>
<text text-anchor="middle" x="588.5" y="-7.5" font-family="Helvetica,sans-Serif" font-size="10.00" fill="#000000">::CompileGraph</text>
</a>
</g>
</g>
<!-- Node26&#45;&gt;Node27 -->
<g id="edge3" class="edge">
<title>Node26&#45;&gt;Node27</title>
<path fill="none" stroke="#191970" d="M496.5505,-15.5C505.0194,-15.5 513.589,-15.5 521.9152,-15.5"/>
<polygon fill="#191970" stroke="#191970" points="496.2933,-12.0001 486.2933,-15.5 496.2932,-19.0001 496.2933,-12.0001"/>
</g>
</g>
</svg>
