<?xml version="1.0" encoding="UTF-8" standalone="no"?>
<!DOCTYPE svg PUBLIC "-//W3C//DTD SVG 1.1//EN"
 "http://www.w3.org/Graphics/SVG/1.1/DTD/svg11.dtd">
<!-- Generated by graphviz version 2.40.1 (20161225.0304)
 -->
<!-- Title: xla::ComputationBuilder::Rev Pages: 1 -->
<svg width="800pt" height="110pt"
 viewBox="0.00 0.00 800.00 110.00" xmlns="http://www.w3.org/2000/svg" xmlns:xlink="http://www.w3.org/1999/xlink">
<g id="graph0" class="graph" transform="scale(1 1) rotate(0) translate(4 106)">
<title>xla::ComputationBuilder::Rev</title>
<polygon fill="#ffffff" stroke="transparent" points="-4,4 -4,-106 796,-106 796,4 -4,4"/>
<!-- Node1254 -->
<g id="node1" class="node">
<title>Node1254</title>
<polygon fill="#bfbfbf" stroke="#000000" points="0,-6 0,-25 145,-25 145,-6 0,-6"/>
<text text-anchor="middle" x="72.5" y="-13" font-family="Helvetica,sans-Serif" font-size="10.00" fill="#000000">xla::ComputationBuilder::Rev</text>
</g>
<!-- Node1255 -->
<g id="node2" class="node">
<title>Node1255</title>
<g id="a_node2"><a xlink:href="../../df/d1b/classxla_1_1ComputationBuilder.html#a584f43dacccc04122c79a7e4ad2770d0" target="_top" xlink:title="Call RunOp() and either return the output ComputationDataHandle (on success) or an empty ComputationD...">
<polygon fill="#ffffff" stroke="#000000" points="181,-.5 181,-30.5 321,-30.5 321,-.5 181,-.5"/>
<text text-anchor="start" x="189" y="-18.5" font-family="Helvetica,sans-Serif" font-size="10.00" fill="#000000">xla::ComputationBuilder</text>
<text text-anchor="middle" x="251" y="-7.5" font-family="Helvetica,sans-Serif" font-size="10.00" fill="#000000">::RunOpAndParseResponse</text>
</a>
</g>
</g>
<!-- Node1254&#45;&gt;Node1255 -->
<g id="edge1" class="edge">
<title>Node1254&#45;&gt;Node1255</title>
<path fill="none" stroke="#191970" d="M145.1028,-15.5C153.4745,-15.5 162.0487,-15.5 170.5167,-15.5"/>
<polygon fill="#191970" stroke="#191970" points="170.7724,-19.0001 180.7723,-15.5 170.7723,-12.0001 170.7724,-19.0001"/>
</g>
<!-- Node1256 -->
<g id="node3" class="node">
<title>Node1256</title>
<g id="a_node3"><a xlink:href="../../df/d1b/classxla_1_1ComputationBuilder.html#a7d2ff8c5c638378bb6fb998a71661d22" target="_top" xlink:title="Run the given parameter op_request and fill in op_response. ">
<polygon fill="#ffffff" stroke="#000000" points="357,-22.5 357,-52.5 478,-52.5 478,-22.5 357,-22.5"/>
<text text-anchor="start" x="365" y="-40.5" font-family="Helvetica,sans-Serif" font-size="10.00" fill="#000000">xla::ComputationBuilder</text>
<text text-anchor="middle" x="417.5" y="-29.5" font-family="Helvetica,sans-Serif" font-size="10.00" fill="#000000">::RunOp</text>
</a>
</g>
</g>
<!-- Node1255&#45;&gt;Node1256 -->
<g id="edge2" class="edge">
<title>Node1255&#45;&gt;Node1256</title>
<path fill="none" stroke="#191970" d="M321.1284,-24.7662C329.6881,-25.8972 338.4375,-27.0533 347.0026,-28.185"/>
<polygon fill="#191970" stroke="#191970" points="346.5776,-31.6592 356.95,-29.4994 347.4947,-24.7195 346.5776,-31.6592"/>
</g>
<!-- Node1258 -->
<g id="node5" class="node">
<title>Node1258</title>
<g id="a_node5"><a xlink:href="../../df/d1b/classxla_1_1ComputationBuilder.html#a787b5fd4e96b9c918b7d0d73704f0d57" target="_top" xlink:title="xla::ComputationBuilder\l::NoteError">
<polygon fill="#ffffff" stroke="#000000" points="671,-24.5 671,-54.5 792,-54.5 792,-24.5 671,-24.5"/>
<text text-anchor="start" x="679" y="-42.5" font-family="Helvetica,sans-Serif" font-size="10.00" fill="#000000">xla::ComputationBuilder</text>
<text text-anchor="middle" x="731.5" y="-31.5" font-family="Helvetica,sans-Serif" font-size="10.00" fill="#000000">::NoteError</text>
</a>
</g>
</g>
<!-- Node1255&#45;&gt;Node1258 -->
<g id="edge6" class="edge">
<title>Node1255&#45;&gt;Node1258</title>
<path fill="none" stroke="#191970" d="M321.1081,-8.9352C398.3874,-3.0946 526.1836,2.4362 635,-12.5 649.0077,-14.4227 663.8475,-17.8459 677.5791,-21.6231"/>
<polygon fill="#191970" stroke="#191970" points="676.7773,-25.0341 687.3543,-24.4197 678.7027,-18.3041 676.7773,-25.0341"/>
</g>
<!-- Node1257 -->
<g id="node4" class="node">
<title>Node1257</title>
<g id="a_node4"><a xlink:href="../../df/d1b/classxla_1_1ComputationBuilder.html#af5ca3f8bbbe525f593293b55df772f1a" target="_top" xlink:title="Populates computation_ with a valid object. Used before any given operation is enqueued. ">
<polygon fill="#ffffff" stroke="#000000" points="514,-71.5 514,-101.5 635,-101.5 635,-71.5 514,-71.5"/>
<text text-anchor="start" x="522" y="-89.5" font-family="Helvetica,sans-Serif" font-size="10.00" fill="#000000">xla::ComputationBuilder</text>
<text text-anchor="middle" x="574.5" y="-78.5" font-family="Helvetica,sans-Serif" font-size="10.00" fill="#000000">::PrepareComputation</text>
</a>
</g>
</g>
<!-- Node1256&#45;&gt;Node1257 -->
<g id="edge3" class="edge">
<title>Node1256&#45;&gt;Node1257</title>
<path fill="none" stroke="#191970" d="M465.8862,-52.6014C481.9287,-57.6083 499.9488,-63.2324 516.631,-68.439"/>
<polygon fill="#191970" stroke="#191970" points="515.6849,-71.8101 526.2735,-71.4484 517.7704,-65.128 515.6849,-71.8101"/>
</g>
<!-- Node1259 -->
<g id="node6" class="node">
<title>Node1259</title>
<g id="a_node6"><a xlink:href="../../df/d1b/classxla_1_1ComputationBuilder.html#a2def8246d1c1829a85e095a84e364bca" target="_top" xlink:title="xla::ComputationBuilder\l::name">
<polygon fill="#ffffff" stroke="#000000" points="514,-22.5 514,-52.5 635,-52.5 635,-22.5 514,-22.5"/>
<text text-anchor="start" x="522" y="-40.5" font-family="Helvetica,sans-Serif" font-size="10.00" fill="#000000">xla::ComputationBuilder</text>
<text text-anchor="middle" x="574.5" y="-29.5" font-family="Helvetica,sans-Serif" font-size="10.00" fill="#000000">::name</text>
</a>
</g>
</g>
<!-- Node1256&#45;&gt;Node1259 -->
<g id="edge5" class="edge">
<title>Node1256&#45;&gt;Node1259</title>
<path fill="none" stroke="#191970" d="M478.2003,-37.5C486.635,-37.5 495.3591,-37.5 503.9547,-37.5"/>
<polygon fill="#191970" stroke="#191970" points="503.9612,-41.0001 513.9611,-37.5 503.9611,-34.0001 503.9612,-41.0001"/>
</g>
<!-- Node1257&#45;&gt;Node1258 -->
<g id="edge4" class="edge">
<title>Node1257&#45;&gt;Node1258</title>
<path fill="none" stroke="#191970" d="M624.6074,-71.4997C639.4777,-67.0481 655.919,-62.1262 671.3568,-57.5047"/>
<polygon fill="#191970" stroke="#191970" points="672.7539,-60.7399 681.3301,-54.519 670.7464,-54.034 672.7539,-60.7399"/>
</g>
</g>
</svg>
