<?xml version="1.0" encoding="UTF-8" standalone="no"?>
<!DOCTYPE svg PUBLIC "-//W3C//DTD SVG 1.1//EN"
 "http://www.w3.org/Graphics/SVG/1.1/DTD/svg11.dtd">
<!-- Generated by graphviz version 2.40.1 (20161225.0304)
 -->
<!-- Title: xla::ComputationBuilder::Tuple Pages: 1 -->
<!--zoomable 149 -->
<svg id="main" version="1.1" xmlns="http://www.w3.org/2000/svg" xmlns:xlink="http://www.w3.org/1999/xlink" xml:space="preserve" onload="init(evt)">
<style type="text/css"><![CDATA[
.edge:hover path { stroke: red; }
.edge:hover polygon { stroke: red; fill: red; }
]]></style>
<script type="text/javascript"><![CDATA[
var edges = document.getElementsByTagName('g');
if (edges && edges.length) {
  for (var i=0;i<edges.length;i++) {
    if (edges[i].id.substr(0,4)=='edge') {
      edges[i].setAttribute('class','edge');
    }
  }
}
]]></script>
        <defs>
                <circle id="rim" cx="0" cy="0" r="7"/>
                <circle id="rim2" cx="0" cy="0" r="3.5"/>
                <g id="zoomPlus">
                        <use xlink:href="#rim" fill="#404040">
                                <set attributeName="fill" to="#808080" begin="zoomplus.mouseover" end="zoomplus.mouseout"/>
                        </use>
                        <path d="M-4,0h8M0,-4v8" fill="none" stroke="white" stroke-width="1.5" pointer-events="none"/>
                </g>
                <g id="zoomMin">
                        <use xlink:href="#rim" fill="#404040">
                                <set attributeName="fill" to="#808080" begin="zoomminus.mouseover" end="zoomminus.mouseout"/>
                        </use>
                        <path d="M-4,0h8" fill="none" stroke="white" stroke-width="1.5" pointer-events="none"/>
                </g>
                <g id="dirArrow">
                        <path fill="none" stroke="white" stroke-width="1.5" d="M0,-3.0v7 M-2.5,-0.5L0,-3.0L2.5,-0.5"/>
                </g>
               <g id="resetDef">
                       <use xlink:href="#rim2" fill="#404040">
                               <set attributeName="fill" to="#808080" begin="reset.mouseover" end="reset.mouseout"/>
                       </use>
               </g>
        </defs>

<script type="text/javascript">
var viewWidth = 1133;
var viewHeight = 149;
var sectionId = 'dynsection-159';
</script>
<script xlink:href="../../svgpan.js"/>
<svg id="graph" class="graph">
<g id="viewport">
<title>xla::ComputationBuilder::Tuple</title>
<polygon fill="#ffffff" stroke="transparent" points="-4,4 -4,-144.5 1129,-144.5 1129,4 -4,4"/>
<!-- Node1746 -->
<g id="node1" class="node">
<title>Node1746</title>
<polygon fill="#bfbfbf" stroke="#000000" points="0,-49.5 0,-79.5 121,-79.5 121,-49.5 0,-49.5"/>
<text text-anchor="start" x="8" y="-67.5" font-family="Helvetica,sans-Serif" font-size="10.00" fill="#000000">xla::ComputationBuilder</text>
<text text-anchor="middle" x="60.5" y="-56.5" font-family="Helvetica,sans-Serif" font-size="10.00" fill="#000000">::Tuple</text>
</g>
<!-- Node1747 -->
<g id="node2" class="node">
<title>Node1747</title>
<g id="a_node2"><a xlink:href="../../de/d61/namespacetensorflow_1_1anonymous__namespace_02xla__compiler_8cc_03.html#a3550e13c6c31e2a093c4032a38eefd57" target="_top" xlink:title="tensorflow::anonymous\l_namespace\{xla_compiler\l::cc\}::BuildComputation">
<polygon fill="#ffffff" stroke="#000000" points="157,-44 157,-85 287,-85 287,-44 157,-44"/>
<text text-anchor="start" x="165" y="-73" font-family="Helvetica,sans-Serif" font-size="10.00" fill="#000000">tensorflow::anonymous</text>
<text text-anchor="start" x="165" y="-62" font-family="Helvetica,sans-Serif" font-size="10.00" fill="#000000">_namespace{xla_compiler</text>
<text text-anchor="middle" x="222" y="-51" font-family="Helvetica,sans-Serif" font-size="10.00" fill="#000000">::cc}::BuildComputation</text>
</a>
</g>
</g>
<!-- Node1746&#45;&gt;Node1747 -->
<g id="edge1" class="edge">
<title>Node1746&#45;&gt;Node1747</title>
<path fill="none" stroke="#191970" d="M131.3104,-64.5C139.7652,-64.5 148.3675,-64.5 156.7391,-64.5"/>
<polygon fill="#191970" stroke="#191970" points="131.0962,-61.0001 121.0961,-64.5 131.0961,-68.0001 131.0962,-61.0001"/>
</g>
<!-- Node1748 -->
<g id="node3" class="node">
<title>Node1748</title>
<g id="a_node3"><a xlink:href="../../d7/dbf/classtensorflow_1_1XlaCompiler.html#ade5be3e41d2892412acb844070182858" target="_top" xlink:title="Compiles a tensorflow::Graph into an xla::Computation. ">
<polygon fill="#ffffff" stroke="#000000" points="323,-49.5 323,-79.5 444,-79.5 444,-49.5 323,-49.5"/>
<text text-anchor="start" x="331" y="-67.5" font-family="Helvetica,sans-Serif" font-size="10.00" fill="#000000">tensorflow::XlaCompiler</text>
<text text-anchor="middle" x="383.5" y="-56.5" font-family="Helvetica,sans-Serif" font-size="10.00" fill="#000000">::CompileGraph</text>
</a>
</g>
</g>
<!-- Node1747&#45;&gt;Node1748 -->
<g id="edge2" class="edge">
<title>Node1747&#45;&gt;Node1748</title>
<path fill="none" stroke="#191970" d="M297.2802,-64.5C305.9005,-64.5 314.6044,-64.5 322.9964,-64.5"/>
<polygon fill="#191970" stroke="#191970" points="297.2227,-61.0001 287.2227,-64.5 297.2227,-68.0001 297.2227,-61.0001"/>
</g>
<!-- Node1749 -->
<g id="node4" class="node">
<title>Node1749</title>
<g id="a_node4"><a xlink:href="../../d3/dfa/namespacetensorflow_1_1anonymous__namespace_02tf2xla_8cc_03.html#a8bea171341441170c6d6c7dbb0b3227d" target="_top" xlink:title="Converts the TensorFlow graph into an XLA computation, by executing the graph symbolically, with each op building up the XLA HLO. ">
<polygon fill="#ffffff" stroke="#000000" points="481,-99 481,-140 600,-140 600,-99 481,-99"/>
<text text-anchor="start" x="489" y="-128" font-family="Helvetica,sans-Serif" font-size="10.00" fill="#000000">tensorflow::anonymous</text>
<text text-anchor="start" x="489" y="-117" font-family="Helvetica,sans-Serif" font-size="10.00" fill="#000000">_namespace{tf2xla::cc}</text>
<text text-anchor="middle" x="540.5" y="-106" font-family="Helvetica,sans-Serif" font-size="10.00" fill="#000000">::ConvertGraphToXla</text>
</a>
</g>
</g>
<!-- Node1748&#45;&gt;Node1749 -->
<g id="edge3" class="edge">
<title>Node1748&#45;&gt;Node1749</title>
<path fill="none" stroke="#191970" d="M435.8525,-82.84C450.5775,-87.9985 466.6884,-93.6424 481.7599,-98.9223"/>
<polygon fill="#191970" stroke="#191970" points="436.9958,-79.5321 426.4009,-79.529 434.6814,-86.1384 436.9958,-79.5321"/>
</g>
<!-- Node1754 -->
<g id="node9" class="node">
<title>Node1754</title>
<g id="a_node9"><a xlink:href="../../d7/dbf/classtensorflow_1_1XlaCompiler.html#a7dc00dad25b347e8ab8b15f68cba4be0" target="_top" xlink:title="tensorflow::XlaCompiler\l::CompileFunction">
<polygon fill="#ffffff" stroke="#000000" points="480,-49.5 480,-79.5 601,-79.5 601,-49.5 480,-49.5"/>
<text text-anchor="start" x="488" y="-67.5" font-family="Helvetica,sans-Serif" font-size="10.00" fill="#000000">tensorflow::XlaCompiler</text>
<text text-anchor="middle" x="540.5" y="-56.5" font-family="Helvetica,sans-Serif" font-size="10.00" fill="#000000">::CompileFunction</text>
</a>
</g>
</g>
<!-- Node1748&#45;&gt;Node1754 -->
<g id="edge8" class="edge">
<title>Node1748&#45;&gt;Node1754</title>
<path fill="none" stroke="#191970" d="M454.2098,-64.5C462.807,-64.5 471.5301,-64.5 479.9611,-64.5"/>
<polygon fill="#191970" stroke="#191970" points="454.2003,-61.0001 444.2003,-64.5 454.2003,-68.0001 454.2003,-61.0001"/>
</g>
<!-- Node1755 -->
<g id="node10" class="node">
<title>Node1755</title>
<g id="a_node10"><a xlink:href="../../d7/dbf/classtensorflow_1_1XlaCompiler.html#ab941b14046527727c11c728908d36d92" target="_top" xlink:title="tensorflow::XlaCompiler\l::CompileSingleOp">
<polygon fill="#ffffff" stroke="#000000" points="480,-.5 480,-30.5 601,-30.5 601,-.5 480,-.5"/>
<text text-anchor="start" x="488" y="-18.5" font-family="Helvetica,sans-Serif" font-size="10.00" fill="#000000">tensorflow::XlaCompiler</text>
<text text-anchor="middle" x="540.5" y="-7.5" font-family="Helvetica,sans-Serif" font-size="10.00" fill="#000000">::CompileSingleOp</text>
</a>
</g>
</g>
<!-- Node1748&#45;&gt;Node1755 -->
<g id="edge9" class="edge">
<title>Node1748&#45;&gt;Node1755</title>
<path fill="none" stroke="#191970" d="M441.5353,-46.3871C458.2263,-41.1778 476.2443,-35.5543 492.2735,-30.5516"/>
<polygon fill="#191970" stroke="#191970" points="440.3894,-43.0781 431.8862,-49.3986 442.4749,-49.7603 440.3894,-43.0781"/>
</g>
<!-- Node1750 -->
<g id="node5" class="node">
<title>Node1750</title>
<g id="a_node5"><a xlink:href="../../de/d86/namespacetensorflow.html#a6f8fce5955ec6d67cd1762891d4830e9" target="_top" xlink:title="Convert tensorflow graph_def to XLA UserComputation. ">
<polygon fill="#ffffff" stroke="#000000" points="637,-104.5 637,-134.5 765,-134.5 765,-104.5 637,-104.5"/>
<text text-anchor="start" x="645" y="-122.5" font-family="Helvetica,sans-Serif" font-size="10.00" fill="#000000">tensorflow::ConvertGraph</text>
<text text-anchor="middle" x="701" y="-111.5" font-family="Helvetica,sans-Serif" font-size="10.00" fill="#000000">DefToXla</text>
</a>
</g>
</g>
<!-- Node1749&#45;&gt;Node1750 -->
<g id="edge4" class="edge">
<title>Node1749&#45;&gt;Node1750</title>
<path fill="none" stroke="#191970" d="M610.4693,-119.5C619.2496,-119.5 628.197,-119.5 636.8814,-119.5"/>
<polygon fill="#191970" stroke="#191970" points="610.2643,-116.0001 600.2643,-119.5 610.2642,-123.0001 610.2643,-116.0001"/>
</g>
<!-- Node1751 -->
<g id="node6" class="node">
<title>Node1751</title>
<g id="a_node6"><a xlink:href="../../d7/d38/namespacetensorflow_1_1tfcompile.html#a021cb1c58d938b16dcd998aa8d1fc191" target="_top" xlink:title="Converts the graph into an XLA computation, and compiles the computation. Called by tensorflow::tfcom...">
<polygon fill="#ffffff" stroke="#000000" points="801,-104.5 801,-134.5 908,-134.5 908,-104.5 801,-104.5"/>
<text text-anchor="start" x="809" y="-122.5" font-family="Helvetica,sans-Serif" font-size="10.00" fill="#000000">tensorflow::tfcompile</text>
<text text-anchor="middle" x="854.5" y="-111.5" font-family="Helvetica,sans-Serif" font-size="10.00" fill="#000000">::CompileGraph</text>
</a>
</g>
</g>
<!-- Node1750&#45;&gt;Node1751 -->
<g id="edge5" class="edge">
<title>Node1750&#45;&gt;Node1751</title>
<path fill="none" stroke="#191970" d="M775.2612,-119.5C783.8631,-119.5 792.5067,-119.5 800.7592,-119.5"/>
<polygon fill="#191970" stroke="#191970" points="775.2084,-116.0001 765.2084,-119.5 775.2084,-123.0001 775.2084,-116.0001"/>
</g>
<!-- Node1752 -->
<g id="node7" class="node">
<title>Node1752</title>
<g id="a_node7"><a xlink:href="../../d7/d38/namespacetensorflow_1_1tfcompile.html#a460964a5bb277865d1275fe3746132c1" target="_top" xlink:title="tensorflow::tfcompile\l::Main">
<polygon fill="#ffffff" stroke="#000000" points="944,-104.5 944,-134.5 1051,-134.5 1051,-104.5 944,-104.5"/>
<text text-anchor="start" x="952" y="-122.5" font-family="Helvetica,sans-Serif" font-size="10.00" fill="#000000">tensorflow::tfcompile</text>
<text text-anchor="middle" x="997.5" y="-111.5" font-family="Helvetica,sans-Serif" font-size="10.00" fill="#000000">::Main</text>
</a>
</g>
</g>
<!-- Node1751&#45;&gt;Node1752 -->
<g id="edge6" class="edge">
<title>Node1751&#45;&gt;Node1752</title>
<path fill="none" stroke="#191970" d="M918.3238,-119.5C926.7452,-119.5 935.3103,-119.5 943.5445,-119.5"/>
<polygon fill="#191970" stroke="#191970" points="918.1548,-116.0001 908.1548,-119.5 918.1547,-123.0001 918.1548,-116.0001"/>
</g>
<!-- Node1753 -->
<g id="node8" class="node">
<title>Node1753</title>
<g id="a_node8"><a xlink:href="../../d4/d8d/tfcompile__main_8cc.html#a3c04138a5bfe5d72780bb7e82a18e627" target="_top" xlink:title="main">
<polygon fill="#ffffff" stroke="#000000" points="1087,-110 1087,-129 1125,-129 1125,-110 1087,-110"/>
<text text-anchor="middle" x="1106" y="-117" font-family="Helvetica,sans-Serif" font-size="10.00" fill="#000000">main</text>
</a>
</g>
</g>
<!-- Node1752&#45;&gt;Node1753 -->
<g id="edge7" class="edge">
<title>Node1752&#45;&gt;Node1753</title>
<path fill="none" stroke="#191970" d="M1061.2814,-119.5C1070.5615,-119.5 1079.4574,-119.5 1086.8366,-119.5"/>
<polygon fill="#191970" stroke="#191970" points="1061.1143,-116.0001 1051.1143,-119.5 1061.1142,-123.0001 1061.1143,-116.0001"/>
</g>
</g>
</svg>
        <g id="navigator" transform="translate(0 0)" fill="#404254">
                <rect fill="#f2f5e9" fill-opacity="0.5" stroke="#606060" stroke-width=".5" x="0" y="0" width="60" height="60"/>
                <use id="zoomplus" xlink:href="#zoomPlus" x="17" y="9" onmousedown="handleZoom(evt,'in')"/>
                <use id="zoomminus" xlink:href="#zoomMin" x="42" y="9" onmousedown="handleZoom(evt,'out')"/>
                <use id="reset" xlink:href="#resetDef" x="30" y="36" onmousedown="handleReset()"/>
                <g id="arrowUp" xlink:href="#dirArrow" transform="translate(30 24)" onmousedown="handlePan(0,-1)">
                  <use xlink:href="#rim" fill="#404040">
                        <set attributeName="fill" to="#808080" begin="arrowUp.mouseover" end="arrowUp.mouseout"/>
                  </use>
                  <path fill="none" stroke="white" stroke-width="1.5" d="M0,-3.0v7 M-2.5,-0.5L0,-3.0L2.5,-0.5"/>
                </g>
                <g id="arrowRight" xlink:href="#dirArrow" transform="rotate(90) translate(36 -43)" onmousedown="handlePan(1,0)">
                  <use xlink:href="#rim" fill="#404040">
                        <set attributeName="fill" to="#808080" begin="arrowRight.mouseover" end="arrowRight.mouseout"/>
                  </use>
                  <path fill="none" stroke="white" stroke-width="1.5" d="M0,-3.0v7 M-2.5,-0.5L0,-3.0L2.5,-0.5"/>
                </g>
                <g id="arrowDown" xlink:href="#dirArrow" transform="rotate(180) translate(-30 -48)" onmousedown="handlePan(0,1)">
                  <use xlink:href="#rim" fill="#404040">
                        <set attributeName="fill" to="#808080" begin="arrowDown.mouseover" end="arrowDown.mouseout"/>
                  </use>
                  <path fill="none" stroke="white" stroke-width="1.5" d="M0,-3.0v7 M-2.5,-0.5L0,-3.0L2.5,-0.5"/>
                </g>
                <g id="arrowLeft" xlink:href="#dirArrow" transform="rotate(270) translate(-36 17)" onmousedown="handlePan(-1,0)">
                  <use xlink:href="#rim" fill="#404040">
                        <set attributeName="fill" to="#808080" begin="arrowLeft.mouseover" end="arrowLeft.mouseout"/>
                  </use>
                  <path fill="none" stroke="white" stroke-width="1.5" d="M0,-3.0v7 M-2.5,-0.5L0,-3.0L2.5,-0.5"/>
                </g>
        </g>
        <svg viewBox="0 0 15 15" width="100%" height="30px" preserveAspectRatio="xMaxYMin meet">
         <g id="arrow_out" transform="scale(0.3 0.3)">
          <a xlink:href="classxla_1_1ComputationBuilder_adc18eb25fc8c8ed25aaf1f8690a07335_icgraph_org.svg" target="_base">
           <rect id="button" ry="5" rx="5" y="6" x="6" height="38" width="38"
                fill="#f2f5e9" fill-opacity="0.5" stroke="#606060" stroke-width="1.0"/>
           <path id="arrow"
             d="M 11.500037,31.436501 C 11.940474,20.09759 22.043105,11.32322 32.158766,21.979434 L 37.068811,17.246167 C 37.068811,17.246167 37.088388,32 37.088388,32 L 22.160133,31.978069 C 22.160133,31.978069 26.997745,27.140456 26.997745,27.140456 C 18.528582,18.264221 13.291696,25.230495 11.500037,31.436501 z"
             style="fill:#404040;"/>
          </a>
         </g>
        </svg>
</svg>
