<?xml version="1.0" encoding="UTF-8" standalone="no"?>
<!DOCTYPE svg PUBLIC "-//W3C//DTD SVG 1.1//EN"
 "http://www.w3.org/Graphics/SVG/1.1/DTD/svg11.dtd">
<!-- Generated by graphviz version 2.40.1 (20161225.0304)
 -->
<!-- Title: tensorflow/tensorflow/compiler/xla/service/compile_only_service.h Pages: 1 -->
<!--zoomable 272 -->
<svg id="main" version="1.1" xmlns="http://www.w3.org/2000/svg" xmlns:xlink="http://www.w3.org/1999/xlink" xml:space="preserve" onload="init(evt)">
<style type="text/css"><![CDATA[
.edge:hover path { stroke: red; }
.edge:hover polygon { stroke: red; fill: red; }
]]></style>
<script type="text/javascript"><![CDATA[
var edges = document.getElementsByTagName('g');
if (edges && edges.length) {
  for (var i=0;i<edges.length;i++) {
    if (edges[i].id.substr(0,4)=='edge') {
      edges[i].setAttribute('class','edge');
    }
  }
}
]]></script>
        <defs>
                <circle id="rim" cx="0" cy="0" r="7"/>
                <circle id="rim2" cx="0" cy="0" r="3.5"/>
                <g id="zoomPlus">
                        <use xlink:href="#rim" fill="#404040">
                                <set attributeName="fill" to="#808080" begin="zoomplus.mouseover" end="zoomplus.mouseout"/>
                        </use>
                        <path d="M-4,0h8M0,-4v8" fill="none" stroke="white" stroke-width="1.5" pointer-events="none"/>
                </g>
                <g id="zoomMin">
                        <use xlink:href="#rim" fill="#404040">
                                <set attributeName="fill" to="#808080" begin="zoomminus.mouseover" end="zoomminus.mouseout"/>
                        </use>
                        <path d="M-4,0h8" fill="none" stroke="white" stroke-width="1.5" pointer-events="none"/>
                </g>
                <g id="dirArrow">
                        <path fill="none" stroke="white" stroke-width="1.5" d="M0,-3.0v7 M-2.5,-0.5L0,-3.0L2.5,-0.5"/>
                </g>
               <g id="resetDef">
                       <use xlink:href="#rim2" fill="#404040">
                               <set attributeName="fill" to="#808080" begin="reset.mouseover" end="reset.mouseout"/>
                       </use>
               </g>
        </defs>

<script type="text/javascript">
var viewWidth = 558;
var viewHeight = 272;
var sectionId = 'dynsection-1';
</script>
<script xlink:href="../../svgpan.js"/>
<svg id="graph" class="graph">
<g id="viewport">
<title>tensorflow/tensorflow/compiler/xla/service/compile_only_service.h</title>
<polygon fill="#ffffff" stroke="transparent" points="-4,4 -4,-268 553.5439,-268 553.5439,4 -4,4"/>
<!-- Node40 -->
<g id="node1" class="node">
<title>Node40</title>
<polygon fill="#bfbfbf" stroke="#000000" points="285.606,-225.5 285.606,-263.5 408.3247,-263.5 408.3247,-225.5 285.606,-225.5"/>
<text text-anchor="start" x="293.606" y="-251.5" font-family="Helvetica,sans-Serif" font-size="10.00" fill="#000000">tensorflow/tensorflow</text>
<text text-anchor="start" x="293.606" y="-241.5" font-family="Helvetica,sans-Serif" font-size="10.00" fill="#000000">/compiler/xla/service</text>
<text text-anchor="middle" x="346.9653" y="-231.5" font-family="Helvetica,sans-Serif" font-size="10.00" fill="#000000">/compile_only_service.h</text>
</g>
<!-- Node41 -->
<g id="node2" class="node">
<title>Node41</title>
<g id="a_node2"><a xlink:href="../../db/d47/client__library_8h.html" target="_top" xlink:title="tensorflow/tensorflow\l/compiler/xla/client\l/client_library.h">
<polygon fill="#ffffff" stroke="#000000" points="172,-75.5 172,-113.5 281.9307,-113.5 281.9307,-75.5 172,-75.5"/>
<text text-anchor="start" x="180" y="-101.5" font-family="Helvetica,sans-Serif" font-size="10.00" fill="#000000">tensorflow/tensorflow</text>
<text text-anchor="start" x="180" y="-91.5" font-family="Helvetica,sans-Serif" font-size="10.00" fill="#000000">/compiler/xla/client</text>
<text text-anchor="middle" x="226.9653" y="-81.5" font-family="Helvetica,sans-Serif" font-size="10.00" fill="#000000">/client_library.h</text>
</a>
</g>
</g>
<!-- Node40&#45;&gt;Node41 -->
<g id="edge1" class="edge">
<title>Node40&#45;&gt;Node41</title>
<path fill="none" stroke="#191970" d="M311.9683,-218.9432C301.2824,-210.1653 289.9844,-199.8089 280.9653,-189 261.3534,-165.4962 244.9385,-133.8967 235.5279,-113.8598"/>
<polygon fill="#191970" stroke="#191970" points="309.9729,-221.8287 319.9727,-225.3294 314.3386,-216.3568 309.9729,-221.8287"/>
</g>
<!-- Node46 -->
<g id="node7" class="node">
<title>Node46</title>
<g id="a_node7"><a xlink:href="../../d4/dab/compile__only__client_8h.html" target="_top" xlink:title="tensorflow/tensorflow\l/compiler/xla/client\l/compile_only_client.h">
<polygon fill="#ffffff" stroke="#000000" points="289.771,-150.5 289.771,-188.5 404.1597,-188.5 404.1597,-150.5 289.771,-150.5"/>
<text text-anchor="start" x="297.771" y="-176.5" font-family="Helvetica,sans-Serif" font-size="10.00" fill="#000000">tensorflow/tensorflow</text>
<text text-anchor="start" x="297.771" y="-166.5" font-family="Helvetica,sans-Serif" font-size="10.00" fill="#000000">/compiler/xla/client</text>
<text text-anchor="middle" x="346.9653" y="-156.5" font-family="Helvetica,sans-Serif" font-size="10.00" fill="#000000">/compile_only_client.h</text>
</a>
</g>
</g>
<!-- Node40&#45;&gt;Node46 -->
<g id="edge6" class="edge">
<title>Node40&#45;&gt;Node46</title>
<path fill="none" stroke="#191970" d="M346.9653,-214.8977C346.9653,-206.1033 346.9653,-196.7019 346.9653,-188.7489"/>
<polygon fill="#191970" stroke="#191970" points="343.4654,-215.1856 346.9653,-225.1856 350.4654,-215.1857 343.4654,-215.1856"/>
</g>
<!-- Node48 -->
<g id="node9" class="node">
<title>Node48</title>
<g id="a_node9"><a xlink:href="../../df/d69/compile__only__service_8cc.html" target="_top" xlink:title="tensorflow/tensorflow\l/compiler/xla/service\l/compile_only_service.cc">
<polygon fill="#ffffff" stroke="#000000" points="422.3867,-150.5 422.3867,-188.5 549.5439,-188.5 549.5439,-150.5 422.3867,-150.5"/>
<text text-anchor="start" x="430.3867" y="-176.5" font-family="Helvetica,sans-Serif" font-size="10.00" fill="#000000">tensorflow/tensorflow</text>
<text text-anchor="start" x="430.3867" y="-166.5" font-family="Helvetica,sans-Serif" font-size="10.00" fill="#000000">/compiler/xla/service</text>
<text text-anchor="middle" x="485.9653" y="-156.5" font-family="Helvetica,sans-Serif" font-size="10.00" fill="#000000">/compile_only_service.cc</text>
</a>
</g>
</g>
<!-- Node40&#45;&gt;Node48 -->
<g id="edge10" class="edge">
<title>Node40&#45;&gt;Node48</title>
<path fill="none" stroke="#191970" d="M391.2567,-220.6018C410.4242,-210.2596 432.5509,-198.3207 450.5948,-188.5848"/>
<polygon fill="#191970" stroke="#191970" points="389.5392,-217.5514 382.4006,-225.3803 392.8632,-223.7119 389.5392,-217.5514"/>
</g>
<!-- Node42 -->
<g id="node3" class="node">
<title>Node42</title>
<g id="a_node3"><a xlink:href="../../d6/d17/compile_8cc.html" target="_top" xlink:title="tensorflow/tensorflow\l/compiler/aot/compile.cc">
<polygon fill="#ffffff" stroke="#000000" points="384.335,-5.5 384.335,-33.5 507.5957,-33.5 507.5957,-5.5 384.335,-5.5"/>
<text text-anchor="start" x="392.335" y="-21.5" font-family="Helvetica,sans-Serif" font-size="10.00" fill="#000000">tensorflow/tensorflow</text>
<text text-anchor="middle" x="445.9653" y="-11.5" font-family="Helvetica,sans-Serif" font-size="10.00" fill="#000000">/compiler/aot/compile.cc</text>
</a>
</g>
</g>
<!-- Node41&#45;&gt;Node42 -->
<g id="edge2" class="edge">
<title>Node41&#45;&gt;Node42</title>
<path fill="none" stroke="#191970" d="M291.5552,-72.3802C328.181,-59.8371 372.9153,-44.5171 404.7877,-33.6019"/>
<polygon fill="#191970" stroke="#191970" points="290.2722,-69.1199 281.9456,-75.6711 292.5402,-75.7424 290.2722,-69.1199"/>
</g>
<!-- Node43 -->
<g id="node4" class="node">
<title>Node43</title>
<g id="a_node4"><a xlink:href="../../d5/d88/xla__compiler_8cc.html" target="_top" xlink:title="tensorflow/tensorflow\l/compiler/tf2xla/xla\l_compiler.cc">
<polygon fill="#ffffff" stroke="#000000" points="0,-.5 0,-38.5 109.9307,-38.5 109.9307,-.5 0,-.5"/>
<text text-anchor="start" x="8" y="-26.5" font-family="Helvetica,sans-Serif" font-size="10.00" fill="#000000">tensorflow/tensorflow</text>
<text text-anchor="start" x="8" y="-16.5" font-family="Helvetica,sans-Serif" font-size="10.00" fill="#000000">/compiler/tf2xla/xla</text>
<text text-anchor="middle" x="54.9653" y="-6.5" font-family="Helvetica,sans-Serif" font-size="10.00" fill="#000000">_compiler.cc</text>
</a>
</g>
</g>
<!-- Node41&#45;&gt;Node43 -->
<g id="edge3" class="edge">
<title>Node41&#45;&gt;Node43</title>
<path fill="none" stroke="#191970" d="M173.7629,-71.3013C149.6821,-60.8009 121.5661,-48.541 98.7332,-38.5848"/>
<polygon fill="#191970" stroke="#191970" points="172.552,-74.5915 183.1174,-75.3803 175.3499,-68.175 172.552,-74.5915"/>
</g>
<!-- Node44 -->
<g id="node5" class="node">
<title>Node44</title>
<g id="a_node5"><a xlink:href="../../d2/d10/xla__op__registry_8cc.html" target="_top" xlink:title="tensorflow/tensorflow\l/compiler/tf2xla/xla\l_op_registry.cc">
<polygon fill="#ffffff" stroke="#000000" points="128,-.5 128,-38.5 237.9307,-38.5 237.9307,-.5 128,-.5"/>
<text text-anchor="start" x="136" y="-26.5" font-family="Helvetica,sans-Serif" font-size="10.00" fill="#000000">tensorflow/tensorflow</text>
<text text-anchor="start" x="136" y="-16.5" font-family="Helvetica,sans-Serif" font-size="10.00" fill="#000000">/compiler/tf2xla/xla</text>
<text text-anchor="middle" x="182.9653" y="-6.5" font-family="Helvetica,sans-Serif" font-size="10.00" fill="#000000">_op_registry.cc</text>
</a>
</g>
</g>
<!-- Node41&#45;&gt;Node44 -->
<g id="edge4" class="edge">
<title>Node41&#45;&gt;Node44</title>
<path fill="none" stroke="#191970" d="M210.4457,-66.3415C205.0479,-57.1408 199.1801,-47.1389 194.258,-38.7489"/>
<polygon fill="#191970" stroke="#191970" points="207.5552,-68.3314 215.6342,-75.1856 213.5929,-64.7893 207.5552,-68.3314"/>
</g>
<!-- Node45 -->
<g id="node6" class="node">
<title>Node45</title>
<g id="a_node6"><a xlink:href="../../d3/dba/client__library_8cc.html" target="_top" xlink:title="tensorflow/tensorflow\l/compiler/xla/client\l/client_library.cc">
<polygon fill="#ffffff" stroke="#000000" points="256,-.5 256,-38.5 365.9307,-38.5 365.9307,-.5 256,-.5"/>
<text text-anchor="start" x="264" y="-26.5" font-family="Helvetica,sans-Serif" font-size="10.00" fill="#000000">tensorflow/tensorflow</text>
<text text-anchor="start" x="264" y="-16.5" font-family="Helvetica,sans-Serif" font-size="10.00" fill="#000000">/compiler/xla/client</text>
<text text-anchor="middle" x="310.9653" y="-6.5" font-family="Helvetica,sans-Serif" font-size="10.00" fill="#000000">/client_library.cc</text>
</a>
</g>
</g>
<!-- Node41&#45;&gt;Node45 -->
<g id="edge5" class="edge">
<title>Node41&#45;&gt;Node45</title>
<path fill="none" stroke="#191970" d="M256.2641,-68.3404C267.1644,-58.608 279.3246,-47.7507 289.4066,-38.7489"/>
<polygon fill="#191970" stroke="#191970" points="253.7258,-65.9147 248.5974,-75.1856 258.3879,-71.1362 253.7258,-65.9147"/>
</g>
<!-- Node46&#45;&gt;Node41 -->
<g id="edge8" class="edge">
<title>Node46&#45;&gt;Node41</title>
<path fill="none" stroke="#191970" d="M307.6012,-144.8974C291.3181,-134.7205 272.7261,-123.1005 257.501,-113.5848"/>
<polygon fill="#191970" stroke="#191970" points="306.0388,-148.0482 316.3738,-150.3803 309.7488,-142.1122 306.0388,-148.0482"/>
</g>
<!-- Node46&#45;&gt;Node42 -->
<g id="edge7" class="edge">
<title>Node46&#45;&gt;Node42</title>
<path fill="none" stroke="#191970" d="M395.3427,-144.6839C407.3068,-136.4233 418.9727,-126.1636 426.9653,-114 443.3231,-89.1058 446.1191,-53.1432 446.3043,-33.5395"/>
<polygon fill="#191970" stroke="#191970" points="393.107,-141.9624 386.6265,-150.3442 396.9195,-147.8332 393.107,-141.9624"/>
</g>
<!-- Node47 -->
<g id="node8" class="node">
<title>Node47</title>
<g id="a_node8"><a xlink:href="../../d8/d93/compile__only__client_8cc.html" target="_top" xlink:title="tensorflow/tensorflow\l/compiler/xla/client\l/compile_only_client.cc">
<polygon fill="#ffffff" stroke="#000000" points="299.5518,-75.5 299.5518,-113.5 418.3789,-113.5 418.3789,-75.5 299.5518,-75.5"/>
<text text-anchor="start" x="307.5518" y="-101.5" font-family="Helvetica,sans-Serif" font-size="10.00" fill="#000000">tensorflow/tensorflow</text>
<text text-anchor="start" x="307.5518" y="-91.5" font-family="Helvetica,sans-Serif" font-size="10.00" fill="#000000">/compiler/xla/client</text>
<text text-anchor="middle" x="358.9653" y="-81.5" font-family="Helvetica,sans-Serif" font-size="10.00" fill="#000000">/compile_only_client.cc</text>
</a>
</g>
</g>
<!-- Node46&#45;&gt;Node47 -->
<g id="edge9" class="edge">
<title>Node46&#45;&gt;Node47</title>
<path fill="none" stroke="#191970" d="M351.6554,-140.1874C353.0757,-131.3101 354.599,-121.7893 355.8855,-113.7489"/>
<polygon fill="#191970" stroke="#191970" points="348.1796,-139.7582 350.0556,-150.1856 355.0917,-140.8642 348.1796,-139.7582"/>
</g>
</g>
</svg>
        <g id="navigator" transform="translate(0 0)" fill="#404254">
                <rect fill="#f2f5e9" fill-opacity="0.5" stroke="#606060" stroke-width=".5" x="0" y="0" width="60" height="60"/>
                <use id="zoomplus" xlink:href="#zoomPlus" x="17" y="9" onmousedown="handleZoom(evt,'in')"/>
                <use id="zoomminus" xlink:href="#zoomMin" x="42" y="9" onmousedown="handleZoom(evt,'out')"/>
                <use id="reset" xlink:href="#resetDef" x="30" y="36" onmousedown="handleReset()"/>
                <g id="arrowUp" xlink:href="#dirArrow" transform="translate(30 24)" onmousedown="handlePan(0,-1)">
                  <use xlink:href="#rim" fill="#404040">
                        <set attributeName="fill" to="#808080" begin="arrowUp.mouseover" end="arrowUp.mouseout"/>
                  </use>
                  <path fill="none" stroke="white" stroke-width="1.5" d="M0,-3.0v7 M-2.5,-0.5L0,-3.0L2.5,-0.5"/>
                </g>
                <g id="arrowRight" xlink:href="#dirArrow" transform="rotate(90) translate(36 -43)" onmousedown="handlePan(1,0)">
                  <use xlink:href="#rim" fill="#404040">
                        <set attributeName="fill" to="#808080" begin="arrowRight.mouseover" end="arrowRight.mouseout"/>
                  </use>
                  <path fill="none" stroke="white" stroke-width="1.5" d="M0,-3.0v7 M-2.5,-0.5L0,-3.0L2.5,-0.5"/>
                </g>
                <g id="arrowDown" xlink:href="#dirArrow" transform="rotate(180) translate(-30 -48)" onmousedown="handlePan(0,1)">
                  <use xlink:href="#rim" fill="#404040">
                        <set attributeName="fill" to="#808080" begin="arrowDown.mouseover" end="arrowDown.mouseout"/>
                  </use>
                  <path fill="none" stroke="white" stroke-width="1.5" d="M0,-3.0v7 M-2.5,-0.5L0,-3.0L2.5,-0.5"/>
                </g>
                <g id="arrowLeft" xlink:href="#dirArrow" transform="rotate(270) translate(-36 17)" onmousedown="handlePan(-1,0)">
                  <use xlink:href="#rim" fill="#404040">
                        <set attributeName="fill" to="#808080" begin="arrowLeft.mouseover" end="arrowLeft.mouseout"/>
                  </use>
                  <path fill="none" stroke="white" stroke-width="1.5" d="M0,-3.0v7 M-2.5,-0.5L0,-3.0L2.5,-0.5"/>
                </g>
        </g>
        <svg viewBox="0 0 15 15" width="100%" height="30px" preserveAspectRatio="xMaxYMin meet">
         <g id="arrow_out" transform="scale(0.3 0.3)">
          <a xlink:href="compile__only__service_8h__dep__incl_org.svg" target="_base">
           <rect id="button" ry="5" rx="5" y="6" x="6" height="38" width="38"
                fill="#f2f5e9" fill-opacity="0.5" stroke="#606060" stroke-width="1.0"/>
           <path id="arrow"
             d="M 11.500037,31.436501 C 11.940474,20.09759 22.043105,11.32322 32.158766,21.979434 L 37.068811,17.246167 C 37.068811,17.246167 37.088388,32 37.088388,32 L 22.160133,31.978069 C 22.160133,31.978069 26.997745,27.140456 26.997745,27.140456 C 18.528582,18.264221 13.291696,25.230495 11.500037,31.436501 z"
             style="fill:#404040;"/>
          </a>
         </g>
        </svg>
</svg>
