<?xml version="1.0" encoding="UTF-8" standalone="no"?>
<!DOCTYPE svg PUBLIC "-//W3C//DTD SVG 1.1//EN"
 "http://www.w3.org/Graphics/SVG/1.1/DTD/svg11.dtd">
<!-- Generated by graphviz version 2.40.1 (20161225.0304)
 -->
<!-- Title: tensorflow/tensorflow/compiler/xla/service/compile_only_service.h Pages: 1 -->
<svg width="609pt" height="284pt"
 viewBox="0.00 0.00 609.50 284.00" xmlns="http://www.w3.org/2000/svg" xmlns:xlink="http://www.w3.org/1999/xlink">
<g id="graph0" class="graph" transform="scale(1 1) rotate(0) translate(4 280)">
<title>tensorflow/tensorflow/compiler/xla/service/compile_only_service.h</title>
<polygon fill="#ffffff" stroke="transparent" points="-4,4 -4,-280 605.5,-280 605.5,4 -4,4"/>
<!-- Node66 -->
<g id="node1" class="node">
<title>Node66</title>
<polygon fill="#bfbfbf" stroke="#000000" points="314,-234.5 314,-275.5 448,-275.5 448,-234.5 314,-234.5"/>
<text text-anchor="start" x="322" y="-263.5" font-family="Helvetica,sans-Serif" font-size="10.00" fill="#000000">tensorflow/tensorflow</text>
<text text-anchor="start" x="322" y="-252.5" font-family="Helvetica,sans-Serif" font-size="10.00" fill="#000000">/compiler/xla/service</text>
<text text-anchor="middle" x="381" y="-241.5" font-family="Helvetica,sans-Serif" font-size="10.00" fill="#000000">/compile_only_service.h</text>
</g>
<!-- Node67 -->
<g id="node2" class="node">
<title>Node67</title>
<g id="a_node2"><a xlink:href="../../db/d47/client__library_8h.html" target="_top" xlink:title="tensorflow/tensorflow\l/compiler/xla/client\l/client_library.h">
<polygon fill="#ffffff" stroke="#000000" points="189,-78.5 189,-119.5 311,-119.5 311,-78.5 189,-78.5"/>
<text text-anchor="start" x="197" y="-107.5" font-family="Helvetica,sans-Serif" font-size="10.00" fill="#000000">tensorflow/tensorflow</text>
<text text-anchor="start" x="197" y="-96.5" font-family="Helvetica,sans-Serif" font-size="10.00" fill="#000000">/compiler/xla/client</text>
<text text-anchor="middle" x="250" y="-85.5" font-family="Helvetica,sans-Serif" font-size="10.00" fill="#000000">/client_library.h</text>
</a>
</g>
</g>
<!-- Node66&#45;&gt;Node67 -->
<g id="edge1" class="edge">
<title>Node66&#45;&gt;Node67</title>
<path fill="none" stroke="#191970" d="M342.012,-228.3016C330.6112,-219.4383 318.6359,-209.002 309,-198 287.776,-173.767 269.9119,-140.8578 259.5762,-119.7701"/>
<polygon fill="#191970" stroke="#191970" points="340.0811,-231.2293 350.1704,-234.463 344.2998,-225.6433 340.0811,-231.2293"/>
</g>
<!-- Node72 -->
<g id="node7" class="node">
<title>Node72</title>
<g id="a_node7"><a xlink:href="../../d4/dab/compile__only__client_8h.html" target="_top" xlink:title="tensorflow/tensorflow\l/compiler/xla/client\l/compile_only_client.h">
<polygon fill="#ffffff" stroke="#000000" points="318,-156.5 318,-197.5 444,-197.5 444,-156.5 318,-156.5"/>
<text text-anchor="start" x="326" y="-185.5" font-family="Helvetica,sans-Serif" font-size="10.00" fill="#000000">tensorflow/tensorflow</text>
<text text-anchor="start" x="326" y="-174.5" font-family="Helvetica,sans-Serif" font-size="10.00" fill="#000000">/compiler/xla/client</text>
<text text-anchor="middle" x="381" y="-163.5" font-family="Helvetica,sans-Serif" font-size="10.00" fill="#000000">/compile_only_client.h</text>
</a>
</g>
</g>
<!-- Node66&#45;&gt;Node72 -->
<g id="edge6" class="edge">
<title>Node66&#45;&gt;Node72</title>
<path fill="none" stroke="#191970" d="M381,-224.0789C381,-215.2178 381,-205.7747 381,-197.6898"/>
<polygon fill="#191970" stroke="#191970" points="377.5001,-224.0974 381,-234.0974 384.5001,-224.0975 377.5001,-224.0974"/>
</g>
<!-- Node74 -->
<g id="node9" class="node">
<title>Node74</title>
<g id="a_node9"><a xlink:href="../../df/d69/compile__only__service_8cc.html" target="_top" xlink:title="tensorflow/tensorflow\l/compiler/xla/service\l/compile_only_service.cc">
<polygon fill="#ffffff" stroke="#000000" points="462.5,-156.5 462.5,-197.5 601.5,-197.5 601.5,-156.5 462.5,-156.5"/>
<text text-anchor="start" x="470.5" y="-185.5" font-family="Helvetica,sans-Serif" font-size="10.00" fill="#000000">tensorflow/tensorflow</text>
<text text-anchor="start" x="470.5" y="-174.5" font-family="Helvetica,sans-Serif" font-size="10.00" fill="#000000">/compiler/xla/service</text>
<text text-anchor="middle" x="532" y="-163.5" font-family="Helvetica,sans-Serif" font-size="10.00" fill="#000000">/compile_only_service.cc</text>
</a>
</g>
</g>
<!-- Node66&#45;&gt;Node74 -->
<g id="edge10" class="edge">
<title>Node66&#45;&gt;Node74</title>
<path fill="none" stroke="#191970" d="M430.0921,-229.6411C450.2234,-219.2422 473.2207,-207.3628 492.2679,-197.5239"/>
<polygon fill="#191970" stroke="#191970" points="428.3471,-226.6031 421.0688,-234.3022 431.5598,-232.8224 428.3471,-226.6031"/>
</g>
<!-- Node68 -->
<g id="node3" class="node">
<title>Node68</title>
<g id="a_node3"><a xlink:href="../../d6/d17/compile_8cc.html" target="_top" xlink:title="tensorflow/tensorflow\l/compiler/aot/compile.cc">
<polygon fill="#ffffff" stroke="#000000" points="420.5,-6 420.5,-36 557.5,-36 557.5,-6 420.5,-6"/>
<text text-anchor="start" x="428.5" y="-24" font-family="Helvetica,sans-Serif" font-size="10.00" fill="#000000">tensorflow/tensorflow</text>
<text text-anchor="middle" x="489" y="-13" font-family="Helvetica,sans-Serif" font-size="10.00" fill="#000000">/compiler/aot/compile.cc</text>
</a>
</g>
</g>
<!-- Node67&#45;&gt;Node68 -->
<g id="edge2" class="edge">
<title>Node67&#45;&gt;Node68</title>
<path fill="none" stroke="#191970" d="M320.8241,-75.8859C360.3335,-62.9916 408.4052,-47.3029 443.0184,-36.0065"/>
<polygon fill="#191970" stroke="#191970" points="319.6587,-72.5844 311.2381,-79.0144 321.8305,-79.239 319.6587,-72.5844"/>
</g>
<!-- Node69 -->
<g id="node4" class="node">
<title>Node69</title>
<g id="a_node4"><a xlink:href="../../d5/d88/xla__compiler_8cc.html" target="_top" xlink:title="tensorflow/tensorflow\l/compiler/tf2xla/xla\l_compiler.cc">
<polygon fill="#ffffff" stroke="#000000" points="0,-.5 0,-41.5 122,-41.5 122,-.5 0,-.5"/>
<text text-anchor="start" x="8" y="-29.5" font-family="Helvetica,sans-Serif" font-size="10.00" fill="#000000">tensorflow/tensorflow</text>
<text text-anchor="start" x="8" y="-18.5" font-family="Helvetica,sans-Serif" font-size="10.00" fill="#000000">/compiler/tf2xla/xla</text>
<text text-anchor="middle" x="61" y="-7.5" font-family="Helvetica,sans-Serif" font-size="10.00" fill="#000000">_compiler.cc</text>
</a>
</g>
</g>
<!-- Node67&#45;&gt;Node69 -->
<g id="edge3" class="edge">
<title>Node67&#45;&gt;Node69</title>
<path fill="none" stroke="#191970" d="M190.5886,-74.481C164.9157,-63.8858 135.2158,-51.6288 110.7309,-41.5239"/>
<polygon fill="#191970" stroke="#191970" points="189.2687,-77.7226 199.8477,-78.3022 191.9392,-71.252 189.2687,-77.7226"/>
</g>
<!-- Node70 -->
<g id="node5" class="node">
<title>Node70</title>
<g id="a_node5"><a xlink:href="../../d2/d10/xla__op__registry_8cc.html" target="_top" xlink:title="tensorflow/tensorflow\l/compiler/tf2xla/xla\l_op_registry.cc">
<polygon fill="#ffffff" stroke="#000000" points="140,-.5 140,-41.5 262,-41.5 262,-.5 140,-.5"/>
<text text-anchor="start" x="148" y="-29.5" font-family="Helvetica,sans-Serif" font-size="10.00" fill="#000000">tensorflow/tensorflow</text>
<text text-anchor="start" x="148" y="-18.5" font-family="Helvetica,sans-Serif" font-size="10.00" fill="#000000">/compiler/tf2xla/xla</text>
<text text-anchor="middle" x="201" y="-7.5" font-family="Helvetica,sans-Serif" font-size="10.00" fill="#000000">_op_registry.cc</text>
</a>
</g>
</g>
<!-- Node67&#45;&gt;Node70 -->
<g id="edge4" class="edge">
<title>Node67&#45;&gt;Node70</title>
<path fill="none" stroke="#191970" d="M231.4793,-69.5181C225.6559,-60.2482 219.3525,-50.2141 213.9974,-41.6898"/>
<polygon fill="#191970" stroke="#191970" points="228.5856,-71.4915 236.8689,-78.0974 234.5131,-67.7678 228.5856,-71.4915"/>
</g>
<!-- Node71 -->
<g id="node6" class="node">
<title>Node71</title>
<g id="a_node6"><a xlink:href="../../d3/dba/client__library_8cc.html" target="_top" xlink:title="tensorflow/tensorflow\l/compiler/xla/client\l/client_library.cc">
<polygon fill="#ffffff" stroke="#000000" points="280,-.5 280,-41.5 402,-41.5 402,-.5 280,-.5"/>
<text text-anchor="start" x="288" y="-29.5" font-family="Helvetica,sans-Serif" font-size="10.00" fill="#000000">tensorflow/tensorflow</text>
<text text-anchor="start" x="288" y="-18.5" font-family="Helvetica,sans-Serif" font-size="10.00" fill="#000000">/compiler/xla/client</text>
<text text-anchor="middle" x="341" y="-7.5" font-family="Helvetica,sans-Serif" font-size="10.00" fill="#000000">/client_library.cc</text>
</a>
</g>
</g>
<!-- Node67&#45;&gt;Node71 -->
<g id="edge5" class="edge">
<title>Node67&#45;&gt;Node71</title>
<path fill="none" stroke="#191970" d="M282.0691,-71.5122C293.5117,-61.7043 306.1991,-50.8293 316.8619,-41.6898"/>
<polygon fill="#191970" stroke="#191970" points="279.7011,-68.9321 274.3863,-78.0974 284.2567,-74.2469 279.7011,-68.9321"/>
</g>
<!-- Node72&#45;&gt;Node67 -->
<g id="edge8" class="edge">
<title>Node72&#45;&gt;Node67</title>
<path fill="none" stroke="#191970" d="M337.4637,-151.0776C320.2274,-140.8148 300.6963,-129.1856 284.4696,-119.5239"/>
<polygon fill="#191970" stroke="#191970" points="335.8555,-154.1935 346.2383,-156.3022 339.4367,-148.1789 335.8555,-154.1935"/>
</g>
<!-- Node72&#45;&gt;Node68 -->
<g id="edge7" class="edge">
<title>Node72&#45;&gt;Node68</title>
<path fill="none" stroke="#191970" d="M436.732,-151.0814C449.3794,-142.7976 461.5554,-132.4664 470,-120 487.3729,-94.3531 489.8051,-56.8449 489.6519,-36.1376"/>
<polygon fill="#191970" stroke="#191970" points="434.6237,-148.2691 427.9408,-156.4904 438.292,-154.231 434.6237,-148.2691"/>
</g>
<!-- Node73 -->
<g id="node8" class="node">
<title>Node73</title>
<g id="a_node8"><a xlink:href="../../d8/d93/compile__only__client_8cc.html" target="_top" xlink:title="tensorflow/tensorflow\l/compiler/xla/client\l/compile_only_client.cc">
<polygon fill="#ffffff" stroke="#000000" points="329.5,-78.5 329.5,-119.5 460.5,-119.5 460.5,-78.5 329.5,-78.5"/>
<text text-anchor="start" x="337.5" y="-107.5" font-family="Helvetica,sans-Serif" font-size="10.00" fill="#000000">tensorflow/tensorflow</text>
<text text-anchor="start" x="337.5" y="-96.5" font-family="Helvetica,sans-Serif" font-size="10.00" fill="#000000">/compiler/xla/client</text>
<text text-anchor="middle" x="395" y="-85.5" font-family="Helvetica,sans-Serif" font-size="10.00" fill="#000000">/compile_only_client.cc</text>
</a>
</g>
</g>
<!-- Node72&#45;&gt;Node73 -->
<g id="edge9" class="edge">
<title>Node72&#45;&gt;Node73</title>
<path fill="none" stroke="#191970" d="M386.5499,-146.0789C388.1404,-137.2178 389.8353,-127.7747 391.2864,-119.6898"/>
<polygon fill="#191970" stroke="#191970" points="383.0735,-145.6364 384.7517,-156.0974 389.9634,-146.8731 383.0735,-145.6364"/>
</g>
</g>
</svg>
