<?xml version="1.0" encoding="UTF-8" standalone="no"?>
<!DOCTYPE svg PUBLIC "-//W3C//DTD SVG 1.1//EN"
 "http://www.w3.org/Graphics/SVG/1.1/DTD/svg11.dtd">
<!-- Generated by graphviz version 2.40.1 (20161225.0304)
 -->
<!-- Title: tensorflow/tensorflow/compiler/xla/service/reduce_precision_insertion.h Pages: 1 -->
<svg width="312pt" height="128pt"
 viewBox="0.00 0.00 312.00 128.00" xmlns="http://www.w3.org/2000/svg" xmlns:xlink="http://www.w3.org/1999/xlink">
<g id="graph0" class="graph" transform="scale(1 1) rotate(0) translate(4 124)">
<title>tensorflow/tensorflow/compiler/xla/service/reduce_precision_insertion.h</title>
<polygon fill="#ffffff" stroke="transparent" points="-4,4 -4,-124 308,-124 308,4 -4,4"/>
<!-- Node50 -->
<g id="node1" class="node">
<title>Node50</title>
<polygon fill="#bfbfbf" stroke="#000000" points="61.5,-78.5 61.5,-119.5 220.5,-119.5 220.5,-78.5 61.5,-78.5"/>
<text text-anchor="start" x="69.5" y="-107.5" font-family="Helvetica,sans-Serif" font-size="10.00" fill="#000000">tensorflow/tensorflow</text>
<text text-anchor="start" x="69.5" y="-96.5" font-family="Helvetica,sans-Serif" font-size="10.00" fill="#000000">/compiler/xla/service</text>
<text text-anchor="middle" x="141" y="-85.5" font-family="Helvetica,sans-Serif" font-size="10.00" fill="#000000">/reduce_precision_insertion.h</text>
</g>
<!-- Node51 -->
<g id="node2" class="node">
<title>Node51</title>
<g id="a_node2"><a xlink:href="../../d4/dcb/cpu__compiler_8cc.html" target="_top" xlink:title="tensorflow/tensorflow\l/compiler/xla/service\l/cpu/cpu_compiler.cc">
<polygon fill="#ffffff" stroke="#000000" points="0,-.5 0,-41.5 122,-41.5 122,-.5 0,-.5"/>
<text text-anchor="start" x="8" y="-29.5" font-family="Helvetica,sans-Serif" font-size="10.00" fill="#000000">tensorflow/tensorflow</text>
<text text-anchor="start" x="8" y="-18.5" font-family="Helvetica,sans-Serif" font-size="10.00" fill="#000000">/compiler/xla/service</text>
<text text-anchor="middle" x="61" y="-7.5" font-family="Helvetica,sans-Serif" font-size="10.00" fill="#000000">/cpu/cpu_compiler.cc</text>
</a>
</g>
</g>
<!-- Node50&#45;&gt;Node51 -->
<g id="edge1" class="edge">
<title>Node50&#45;&gt;Node51</title>
<path fill="none" stroke="#191970" d="M112.2259,-70.9452C102.3196,-61.2866 91.4139,-50.6535 82.2203,-41.6898"/>
<polygon fill="#191970" stroke="#191970" points="109.9581,-73.6224 119.5615,-78.0974 114.8448,-68.6104 109.9581,-73.6224"/>
</g>
<!-- Node52 -->
<g id="node3" class="node">
<title>Node52</title>
<g id="a_node3"><a xlink:href="../../de/d3b/reduce__precision__insertion_8cc.html" target="_top" xlink:title="tensorflow/tensorflow\l/compiler/xla/service\l/reduce_precision_insertion.cc">
<polygon fill="#ffffff" stroke="#000000" points="140,-.5 140,-41.5 304,-41.5 304,-.5 140,-.5"/>
<text text-anchor="start" x="148" y="-29.5" font-family="Helvetica,sans-Serif" font-size="10.00" fill="#000000">tensorflow/tensorflow</text>
<text text-anchor="start" x="148" y="-18.5" font-family="Helvetica,sans-Serif" font-size="10.00" fill="#000000">/compiler/xla/service</text>
<text text-anchor="middle" x="222" y="-7.5" font-family="Helvetica,sans-Serif" font-size="10.00" fill="#000000">/reduce_precision_insertion.cc</text>
</a>
</g>
</g>
<!-- Node50&#45;&gt;Node52 -->
<g id="edge2" class="edge">
<title>Node50&#45;&gt;Node52</title>
<path fill="none" stroke="#191970" d="M170.1338,-70.9452C180.1639,-61.2866 191.2059,-50.6535 200.5144,-41.6898"/>
<polygon fill="#191970" stroke="#191970" points="167.482,-68.6399 162.7065,-78.0974 172.3375,-73.6821 167.482,-68.6399"/>
</g>
</g>
</svg>
