<?xml version="1.0" encoding="UTF-8" standalone="no"?>
<!DOCTYPE svg PUBLIC "-//W3C//DTD SVG 1.1//EN"
 "http://www.w3.org/Graphics/SVG/1.1/DTD/svg11.dtd">
<!-- Generated by graphviz version 2.38.0 (20140413.2041)
 -->
<!-- Title: tensorflow::tfcompile::CompileGraph Pages: 1 -->
<!--zoomable 368 -->
<svg id="main" version="1.1" xmlns="http://www.w3.org/2000/svg" xmlns:xlink="http://www.w3.org/1999/xlink" xml:space="preserve" onload="init(evt)">
<style type="text/css"><![CDATA[
.edge:hover path { stroke: red; }
.edge:hover polygon { stroke: red; fill: red; }
]]></style>
<script type="text/javascript"><![CDATA[
var edges = document.getElementsByTagName('g');
if (edges && edges.length) {
  for (var i=0;i<edges.length;i++) {
    if (edges[i].id.substr(0,4)=='edge') {
      edges[i].setAttribute('class','edge');
    }
  }
}
]]></script>
        <defs>
                <circle id="rim" cx="0" cy="0" r="7"/>
                <circle id="rim2" cx="0" cy="0" r="3.5"/>
                <g id="zoomPlus">
                        <use xlink:href="#rim" fill="#404040">
                                <set attributeName="fill" to="#808080" begin="zoomplus.mouseover" end="zoomplus.mouseout"/>
                        </use>
                        <path d="M-4,0h8M0,-4v8" fill="none" stroke="white" stroke-width="1.5" pointer-events="none"/>
                </g>
                <g id="zoomMin">
                        <use xlink:href="#rim" fill="#404040">
                                <set attributeName="fill" to="#808080" begin="zoomminus.mouseover" end="zoomminus.mouseout"/>
                        </use>
                        <path d="M-4,0h8" fill="none" stroke="white" stroke-width="1.5" pointer-events="none"/>
                </g>
                <g id="dirArrow">
                        <path fill="none" stroke="white" stroke-width="1.5" d="M0,-3.0v7 M-2.5,-0.5L0,-3.0L2.5,-0.5"/>
                </g>
               <g id="resetDef">
                       <use xlink:href="#rim2" fill="#404040">
                               <set attributeName="fill" to="#808080" begin="reset.mouseover" end="reset.mouseout"/>
                       </use>
               </g>
        </defs>

<script type="text/javascript">
var viewWidth = 827;
var viewHeight = 368;
var sectionId = 'dynsection-0';
</script>
<script xlink:href="../../svgpan.js"/>
<svg id="graph" class="graph">
<g id="viewport">
<title>tensorflow::tfcompile::CompileGraph</title>
<polygon fill="white" stroke="none" points="-4,4 -4,-364 823,-364 823,4 -4,4"/>
<!-- Node1 -->
<g id="node1" class="node"><title>Node1</title>
<polygon fill="#bfbfbf" stroke="black" points="0,-60 0,-90 107,-90 107,-60 0,-60"/>
<text text-anchor="start" x="8" y="-78" font-family="Helvetica,sans-Serif" font-size="10.00">tensorflow::tfcompile</text>
<text text-anchor="middle" x="53.5" y="-67" font-family="Helvetica,sans-Serif" font-size="10.00">::CompileGraph</text>
</g>
<!-- Node2 -->
<g id="node2" class="node"><title>Node2</title>
<g id="a_node2"><a xlink:href="../../d5/ddb/classxla_1_1ClientLibrary.html#a5e940d153e6cfd72b34b2b8b89220f50" target="_top" xlink:title="xla::ClientLibrary\l::GetOrCreateCompileOnlyClient">
<polygon fill="white" stroke="black" points="143,-109 143,-139 303,-139 303,-109 143,-109"/>
<text text-anchor="start" x="151" y="-127" font-family="Helvetica,sans-Serif" font-size="10.00">xla::ClientLibrary</text>
<text text-anchor="middle" x="223" y="-116" font-family="Helvetica,sans-Serif" font-size="10.00">::GetOrCreateCompileOnlyClient</text>
</a>
</g>
</g>
<!-- Node1&#45;&gt;Node2 -->
<g id="edge1" class="edge"><title>Node1&#45;&gt;Node2</title>
<path fill="none" stroke="midnightblue" d="M106.122,-90.1014C123.398,-95.1551 142.822,-100.838 160.759,-106.085"/>
<polygon fill="midnightblue" stroke="midnightblue" points="159.968,-109.5 170.548,-108.948 161.933,-102.781 159.968,-109.5"/>
</g>
<!-- Node3 -->
<g id="node3" class="node"><title>Node3</title>
<g id="a_node3"><a xlink:href="../../de/d86/namespacetensorflow.html#a6f8fce5955ec6d67cd1762891d4830e9" target="_top" xlink:title="Convert tensorflow graph_def to XLA UserComputation. ">
<polygon fill="white" stroke="black" points="159,-60 159,-90 287,-90 287,-60 159,-60"/>
<text text-anchor="start" x="167" y="-78" font-family="Helvetica,sans-Serif" font-size="10.00">tensorflow::ConvertGraph</text>
<text text-anchor="middle" x="223" y="-67" font-family="Helvetica,sans-Serif" font-size="10.00">DefToXla</text>
</a>
</g>
</g>
<!-- Node1&#45;&gt;Node3 -->
<g id="edge2" class="edge"><title>Node1&#45;&gt;Node3</title>
<path fill="none" stroke="midnightblue" d="M107.038,-75C120.24,-75 134.649,-75 148.664,-75"/>
<polygon fill="midnightblue" stroke="midnightblue" points="148.775,-78.5001 158.775,-75 148.775,-71.5001 148.775,-78.5001"/>
</g>
<!-- Node13 -->
<g id="node13" class="node"><title>Node13</title>
<g id="a_node13"><a xlink:href="../../d4/df4/namespacetensorflow_1_1tfcompile_1_1anonymous__namespace_02compile_8cc_03.html#a40f8a019f31fa8cbe2fff5d90e69c21b" target="_top" xlink:title="Compiles the XLA computation into executable code. ">
<polygon fill="white" stroke="black" points="158.5,-0.5 158.5,-41.5 287.5,-41.5 287.5,-0.5 158.5,-0.5"/>
<text text-anchor="start" x="166.5" y="-29.5" font-family="Helvetica,sans-Serif" font-size="10.00">tensorflow::tfcompile</text>
<text text-anchor="start" x="166.5" y="-18.5" font-family="Helvetica,sans-Serif" font-size="10.00">::anonymous_namespace</text>
<text text-anchor="middle" x="223" y="-7.5" font-family="Helvetica,sans-Serif" font-size="10.00">{compile::cc}::CompileXla</text>
</a>
</g>
</g>
<!-- Node1&#45;&gt;Node13 -->
<g id="edge13" class="edge"><title>Node1&#45;&gt;Node13</title>
<path fill="none" stroke="midnightblue" d="M101.158,-59.958C115.828,-55.2286 132.4,-49.8858 148.464,-44.7071"/>
<polygon fill="midnightblue" stroke="midnightblue" points="149.935,-47.9103 158.379,-41.5107 147.787,-41.248 149.935,-47.9103"/>
</g>
<!-- Node4 -->
<g id="node4" class="node"><title>Node4</title>
<g id="a_node4"><a xlink:href="../../d3/dfa/namespacetensorflow_1_1anonymous__namespace_02tf2xla_8cc_03.html#aeef0cda05958b2b855b0e2fbe07b1314" target="_top" xlink:title="InitGraph creates a graph based on the graph_def, that may then be convert to an xla::Computation via...">
<polygon fill="white" stroke="black" points="339,-203.5 339,-244.5 458,-244.5 458,-203.5 339,-203.5"/>
<text text-anchor="start" x="347" y="-232.5" font-family="Helvetica,sans-Serif" font-size="10.00">tensorflow::anonymous</text>
<text text-anchor="start" x="347" y="-221.5" font-family="Helvetica,sans-Serif" font-size="10.00">_namespace{tf2xla::cc}</text>
<text text-anchor="middle" x="398.5" y="-210.5" font-family="Helvetica,sans-Serif" font-size="10.00">::InitGraph</text>
</a>
</g>
</g>
<!-- Node3&#45;&gt;Node4 -->
<g id="edge3" class="edge"><title>Node3&#45;&gt;Node4</title>
<path fill="none" stroke="midnightblue" d="M286.968,-90.0521C292.619,-92.5945 298.063,-95.5551 303,-99 338.279,-123.615 366.03,-165.513 382.093,-193.951"/>
<polygon fill="midnightblue" stroke="midnightblue" points="379.202,-195.958 387.086,-203.035 385.336,-192.586 379.202,-195.958"/>
</g>
<!-- Node11 -->
<g id="node11" class="node"><title>Node11</title>
<g id="a_node11"><a xlink:href="../../d3/dfa/namespacetensorflow_1_1anonymous__namespace_02tf2xla_8cc_03.html#a8bea171341441170c6d6c7dbb0b3227d" target="_top" xlink:title="Converts the TensorFlow graph into an XLA computation, by executing the graph symbolically, with each op building up the XLA HLO. ">
<polygon fill="white" stroke="black" points="339,-54.5 339,-95.5 458,-95.5 458,-54.5 339,-54.5"/>
<text text-anchor="start" x="347" y="-83.5" font-family="Helvetica,sans-Serif" font-size="10.00">tensorflow::anonymous</text>
<text text-anchor="start" x="347" y="-72.5" font-family="Helvetica,sans-Serif" font-size="10.00">_namespace{tf2xla::cc}</text>
<text text-anchor="middle" x="398.5" y="-61.5" font-family="Helvetica,sans-Serif" font-size="10.00">::ConvertGraphToXla</text>
</a>
</g>
</g>
<!-- Node3&#45;&gt;Node11 -->
<g id="edge11" class="edge"><title>Node3&#45;&gt;Node11</title>
<path fill="none" stroke="midnightblue" d="M287.128,-75C300.563,-75 314.815,-75 328.458,-75"/>
<polygon fill="midnightblue" stroke="midnightblue" points="328.748,-78.5001 338.748,-75 328.748,-71.5001 328.748,-78.5001"/>
</g>
<!-- Node5 -->
<g id="node5" class="node"><title>Node5</title>
<g id="a_node5"><a xlink:href="../../de/d86/namespacetensorflow.html#aaeeec358e2be013353667dd7c0a6dbaa" target="_top" xlink:title="tensorflow::ValidateConfig">
<polygon fill="white" stroke="black" points="504.5,-340.5 504.5,-359.5 635.5,-359.5 635.5,-340.5 504.5,-340.5"/>
<text text-anchor="middle" x="570" y="-347.5" font-family="Helvetica,sans-Serif" font-size="10.00">tensorflow::ValidateConfig</text>
</a>
</g>
</g>
<!-- Node4&#45;&gt;Node5 -->
<g id="edge4" class="edge"><title>Node4&#45;&gt;Node5</title>
<path fill="none" stroke="midnightblue" d="M412.151,-244.685C428.161,-269.074 458.031,-309.059 494,-331 497.449,-333.104 501.123,-334.976 504.921,-336.641"/>
<polygon fill="midnightblue" stroke="midnightblue" points="503.973,-340.027 514.562,-340.369 506.498,-333.498 503.973,-340.027"/>
</g>
<!-- Node6 -->
<g id="node6" class="node"><title>Node6</title>
<g id="a_node6"><a xlink:href="../../de/d86/namespacetensorflow.html#ac287ab9f1996e3d9086f8500c777ee9b" target="_top" xlink:title="Generate corresponding placeholder for each feed tensor. Traverse each inputs of each nodes...">
<polygon fill="white" stroke="black" points="499.5,-291 499.5,-321 640.5,-321 640.5,-291 499.5,-291"/>
<text text-anchor="start" x="507.5" y="-309" font-family="Helvetica,sans-Serif" font-size="10.00">tensorflow::AddPlaceholders</text>
<text text-anchor="middle" x="570" y="-298" font-family="Helvetica,sans-Serif" font-size="10.00">ForFeeds</text>
</a>
</g>
</g>
<!-- Node4&#45;&gt;Node6 -->
<g id="edge5" class="edge"><title>Node4&#45;&gt;Node6</title>
<path fill="none" stroke="midnightblue" d="M434.417,-244.552C452.019,-254.567 473.855,-266.473 494,-276 502.014,-279.79 510.642,-283.537 519.094,-287.032"/>
<polygon fill="midnightblue" stroke="midnightblue" points="517.937,-290.34 528.519,-290.859 520.57,-283.854 517.937,-290.34"/>
</g>
<!-- Node7 -->
<g id="node7" class="node"><title>Node7</title>
<g id="a_node7"><a xlink:href="../../de/d86/namespacetensorflow.html#a491706512ccc1517e499cbdb810aa6ab" target="_top" xlink:title="Assign each NodeDefs of GraphDef default values. ">
<polygon fill="white" stroke="black" points="682,-269 682,-299 819,-299 819,-269 682,-269"/>
<text text-anchor="start" x="690" y="-287" font-family="Helvetica,sans-Serif" font-size="10.00">tensorflow::AddDefaultAttrs</text>
<text text-anchor="middle" x="750.5" y="-276" font-family="Helvetica,sans-Serif" font-size="10.00">ToGraphDef</text>
</a>
</g>
</g>
<!-- Node4&#45;&gt;Node7 -->
<g id="edge8" class="edge"><title>Node4&#45;&gt;Node7</title>
<path fill="none" stroke="midnightblue" d="M458.159,-236.166C470.008,-238.519 482.39,-240.902 494,-243 553.579,-253.765 621.236,-264.559 671.954,-272.367"/>
<polygon fill="midnightblue" stroke="midnightblue" points="671.45,-275.83 681.865,-273.888 672.512,-268.911 671.45,-275.83"/>
</g>
<!-- Node8 -->
<g id="node8" class="node"><title>Node8</title>
<g id="a_node8"><a xlink:href="../../de/d86/namespacetensorflow.html#ac09f7fb26bddd7564249fd5d1b255435" target="_top" xlink:title="Remove source nodes of feed tensor. Because they are removed at tensorflow::AddPlaceholdersForFeeds ...">
<polygon fill="white" stroke="black" points="494,-214.5 494,-233.5 646,-233.5 646,-214.5 494,-214.5"/>
<text text-anchor="middle" x="570" y="-221.5" font-family="Helvetica,sans-Serif" font-size="10.00">tensorflow::PruneGraphDefInto</text>
</a>
</g>
</g>
<!-- Node4&#45;&gt;Node8 -->
<g id="edge7" class="edge"><title>Node4&#45;&gt;Node8</title>
<path fill="none" stroke="midnightblue" d="M458.307,-224C466.554,-224 475.164,-224 483.78,-224"/>
<polygon fill="midnightblue" stroke="midnightblue" points="483.876,-227.5 493.876,-224 483.876,-220.5 483.876,-227.5"/>
</g>
<!-- Node9 -->
<g id="node9" class="node"><title>Node9</title>
<g id="a_node9"><a xlink:href="../../de/d86/namespacetensorflow.html#a43875c6284c3af69e7a420b67c7eec6b" target="_top" xlink:title="Convert GraphDef defined protobuf to type Graph ">
<polygon fill="white" stroke="black" points="506,-165 506,-195 634,-195 634,-165 506,-165"/>
<text text-anchor="start" x="514" y="-183" font-family="Helvetica,sans-Serif" font-size="10.00">tensorflow::ConvertGraph</text>
<text text-anchor="middle" x="570" y="-172" font-family="Helvetica,sans-Serif" font-size="10.00">DefToGraph</text>
</a>
</g>
</g>
<!-- Node4&#45;&gt;Node9 -->
<g id="edge9" class="edge"><title>Node4&#45;&gt;Node9</title>
<path fill="none" stroke="midnightblue" d="M458.307,-208.734C472.213,-205.125 487.151,-201.247 501.412,-197.545"/>
<polygon fill="midnightblue" stroke="midnightblue" points="502.356,-200.916 511.156,-195.016 500.597,-194.141 502.356,-200.916"/>
</g>
<!-- Node10 -->
<g id="node10" class="node"><title>Node10</title>
<g id="a_node10"><a xlink:href="../../d3/dfa/namespacetensorflow_1_1anonymous__namespace_02tf2xla_8cc_03.html#af0d9ad360ae01cf7c15abe04de99b230" target="_top" xlink:title="tensorflow::anonymous\l_namespace\{tf2xla::cc\}\l::RewriteAndPruneGraph">
<polygon fill="white" stroke="black" points="507.5,-105.5 507.5,-146.5 632.5,-146.5 632.5,-105.5 507.5,-105.5"/>
<text text-anchor="start" x="515.5" y="-134.5" font-family="Helvetica,sans-Serif" font-size="10.00">tensorflow::anonymous</text>
<text text-anchor="start" x="515.5" y="-123.5" font-family="Helvetica,sans-Serif" font-size="10.00">_namespace{tf2xla::cc}</text>
<text text-anchor="middle" x="570" y="-112.5" font-family="Helvetica,sans-Serif" font-size="10.00">::RewriteAndPruneGraph</text>
</a>
</g>
</g>
<!-- Node4&#45;&gt;Node10 -->
<g id="edge10" class="edge"><title>Node4&#45;&gt;Node10</title>
<path fill="none" stroke="midnightblue" d="M423.967,-203.362C442.376,-188.543 468.683,-168.825 494,-155 496.527,-153.62 499.134,-152.274 501.791,-150.966"/>
<polygon fill="midnightblue" stroke="midnightblue" points="503.403,-154.076 510.977,-146.668 500.436,-147.736 503.403,-154.076"/>
</g>
<!-- Node6&#45;&gt;Node7 -->
<g id="edge6" class="edge"><title>Node6&#45;&gt;Node7</title>
<path fill="none" stroke="midnightblue" d="M640.524,-297.431C650.835,-296.16 661.516,-294.844 671.979,-293.554"/>
<polygon fill="midnightblue" stroke="midnightblue" points="672.427,-297.026 681.923,-292.329 671.57,-290.078 672.427,-297.026"/>
</g>
<!-- Node12 -->
<g id="node12" class="node"><title>Node12</title>
<g id="a_node12"><a xlink:href="../../d9/de9/classtensorflow_1_1XlaOpRegistry.html#a504bd86e27f0fedc9c5dcb82af983bfb" target="_top" xlink:title="tensorflow::XlaOpRegistry\l::RegisterCompilationKernels">
<polygon fill="white" stroke="black" points="498,-57 498,-87 642,-87 642,-57 498,-57"/>
<text text-anchor="start" x="506" y="-75" font-family="Helvetica,sans-Serif" font-size="10.00">tensorflow::XlaOpRegistry</text>
<text text-anchor="middle" x="570" y="-64" font-family="Helvetica,sans-Serif" font-size="10.00">::RegisterCompilationKernels</text>
</a>
</g>
</g>
<!-- Node11&#45;&gt;Node12 -->
<g id="edge12" class="edge"><title>Node11&#45;&gt;Node12</title>
<path fill="none" stroke="midnightblue" d="M458.307,-73.9592C467.746,-73.7921 477.659,-73.6167 487.514,-73.4422"/>
<polygon fill="midnightblue" stroke="midnightblue" points="487.803,-76.9378 497.739,-73.2612 487.679,-69.9389 487.803,-76.9378"/>
</g>
<!-- Node14 -->
<g id="node14" class="node"><title>Node14</title>
<g id="a_node14"><a xlink:href="../../d1/dd1/classxla_1_1CompileOnlyClient.html#a5a585d21f617b77a1cecc1b587d18d7a" target="_top" xlink:title="Compiles a list of computations for ahead&#45;of&#45;time execution. This is intended for use in static compi...">
<polygon fill="white" stroke="black" points="339,-6 339,-36 458,-36 458,-6 339,-6"/>
<text text-anchor="start" x="347" y="-24" font-family="Helvetica,sans-Serif" font-size="10.00">xla::CompileOnlyClient</text>
<text text-anchor="middle" x="398.5" y="-13" font-family="Helvetica,sans-Serif" font-size="10.00">::CompileAheadOfTime</text>
</a>
</g>
</g>
<!-- Node13&#45;&gt;Node14 -->
<g id="edge14" class="edge"><title>Node13&#45;&gt;Node14</title>
<path fill="none" stroke="midnightblue" d="M287.62,-21C300.953,-21 315.072,-21 328.587,-21"/>
<polygon fill="midnightblue" stroke="midnightblue" points="328.782,-24.5001 338.782,-21 328.782,-17.5001 328.782,-24.5001"/>
</g>
<!-- Node15 -->
<g id="node15" class="node"><title>Node15</title>
<g id="a_node15"><a xlink:href="../../dc/d07/classxla_1_1CompileOnlyService.html#aceb67616a89167b9af1bf23d17ec37c9" target="_top" xlink:title="xla::CompileOnlyService\l::CompileAheadOfTime">
<polygon fill="white" stroke="black" points="507.5,-6 507.5,-36 632.5,-36 632.5,-6 507.5,-6"/>
<text text-anchor="start" x="515.5" y="-24" font-family="Helvetica,sans-Serif" font-size="10.00">xla::CompileOnlyService</text>
<text text-anchor="middle" x="570" y="-13" font-family="Helvetica,sans-Serif" font-size="10.00">::CompileAheadOfTime</text>
</a>
</g>
</g>
<!-- Node14&#45;&gt;Node15 -->
<g id="edge15" class="edge"><title>Node14&#45;&gt;Node15</title>
<path fill="none" stroke="midnightblue" d="M458.307,-21C470.831,-21 484.192,-21 497.142,-21"/>
<polygon fill="midnightblue" stroke="midnightblue" points="497.415,-24.5001 507.415,-21 497.415,-17.5001 497.415,-24.5001"/>
</g>
</g>
</svg>
        <g id="navigator" transform="translate(0 0)" fill="#404254">
                <rect fill="#f2f5e9" fill-opacity="0.5" stroke="#606060" stroke-width=".5" x="0" y="0" width="60" height="60"/>
                <use id="zoomplus" xlink:href="#zoomPlus" x="17" y="9" onmousedown="handleZoom(evt,'in')"/>
                <use id="zoomminus" xlink:href="#zoomMin" x="42" y="9" onmousedown="handleZoom(evt,'out')"/>
                <use id="reset" xlink:href="#resetDef" x="30" y="36" onmousedown="handleReset()"/>
                <g id="arrowUp" xlink:href="#dirArrow" transform="translate(30 24)" onmousedown="handlePan(0,-1)">
                  <use xlink:href="#rim" fill="#404040">
                        <set attributeName="fill" to="#808080" begin="arrowUp.mouseover" end="arrowUp.mouseout"/>
                  </use>
                  <path fill="none" stroke="white" stroke-width="1.5" d="M0,-3.0v7 M-2.5,-0.5L0,-3.0L2.5,-0.5"/>
                </g>
                <g id="arrowRight" xlink:href="#dirArrow" transform="rotate(90) translate(36 -43)" onmousedown="handlePan(1,0)">
                  <use xlink:href="#rim" fill="#404040">
                        <set attributeName="fill" to="#808080" begin="arrowRight.mouseover" end="arrowRight.mouseout"/>
                  </use>
                  <path fill="none" stroke="white" stroke-width="1.5" d="M0,-3.0v7 M-2.5,-0.5L0,-3.0L2.5,-0.5"/>
                </g>
                <g id="arrowDown" xlink:href="#dirArrow" transform="rotate(180) translate(-30 -48)" onmousedown="handlePan(0,1)">
                  <use xlink:href="#rim" fill="#404040">
                        <set attributeName="fill" to="#808080" begin="arrowDown.mouseover" end="arrowDown.mouseout"/>
                  </use>
                  <path fill="none" stroke="white" stroke-width="1.5" d="M0,-3.0v7 M-2.5,-0.5L0,-3.0L2.5,-0.5"/>
                </g>
                <g id="arrowLeft" xlink:href="#dirArrow" transform="rotate(270) translate(-36 17)" onmousedown="handlePan(-1,0)">
                  <use xlink:href="#rim" fill="#404040">
                        <set attributeName="fill" to="#808080" begin="arrowLeft.mouseover" end="arrowLeft.mouseout"/>
                  </use>
                  <path fill="none" stroke="white" stroke-width="1.5" d="M0,-3.0v7 M-2.5,-0.5L0,-3.0L2.5,-0.5"/>
                </g>
        </g>
        <svg viewBox="0 0 15 15" width="100%" height="30px" preserveAspectRatio="xMaxYMin meet">
         <g id="arrow_out" transform="scale(0.3 0.3)">
          <a xlink:href="namespacetensorflow_1_1tfcompile_a021cb1c58d938b16dcd998aa8d1fc191_cgraph_org.svg" target="_base">
           <rect id="button" ry="5" rx="5" y="6" x="6" height="38" width="38"
                fill="#f2f5e9" fill-opacity="0.5" stroke="#606060" stroke-width="1.0"/>
           <path id="arrow"
             d="M 11.500037,31.436501 C 11.940474,20.09759 22.043105,11.32322 32.158766,21.979434 L 37.068811,17.246167 C 37.068811,17.246167 37.088388,32 37.088388,32 L 22.160133,31.978069 C 22.160133,31.978069 26.997745,27.140456 26.997745,27.140456 C 18.528582,18.264221 13.291696,25.230495 11.500037,31.436501 z"
             style="fill:#404040;"/>
          </a>
         </g>
        </svg>
</svg>
