<?xml version="1.0" encoding="UTF-8" standalone="no"?>
<!DOCTYPE svg PUBLIC "-//W3C//DTD SVG 1.1//EN"
 "http://www.w3.org/Graphics/SVG/1.1/DTD/svg11.dtd">
<!-- Generated by graphviz version 2.40.1 (20161225.0304)
 -->
<!-- Title: tensorflow::tfcompile::Main Pages: 1 -->
<svg width="974pt" height="348pt"
 viewBox="0.00 0.00 974.48 348.00" xmlns="http://www.w3.org/2000/svg" xmlns:xlink="http://www.w3.org/1999/xlink">
<g id="graph0" class="graph" transform="scale(1 1) rotate(0) translate(4 344)">
<title>tensorflow::tfcompile::Main</title>
<polygon fill="#ffffff" stroke="transparent" points="-4,4 -4,-344 970.4834,-344 970.4834,4 -4,4"/>
<!-- Node18 -->
<g id="node1" class="node">
<title>Node18</title>
<polygon fill="#bfbfbf" stroke="#000000" points="0,-204.5 0,-232.5 107.1475,-232.5 107.1475,-204.5 0,-204.5"/>
<text text-anchor="start" x="8" y="-220.5" font-family="Helvetica,sans-Serif" font-size="10.00" fill="#000000">tensorflow::tfcompile</text>
<text text-anchor="middle" x="53.5737" y="-210.5" font-family="Helvetica,sans-Serif" font-size="10.00" fill="#000000">::Main</text>
</g>
<!-- Node19 -->
<g id="node2" class="node">
<title>Node19</title>
<g id="a_node2"><a xlink:href="../../de/d86/namespacetensorflow.html#aaeeec358e2be013353667dd7c0a6dbaa" target="_top" xlink:title="tensorflow::ValidateConfig">
<polygon fill="#ffffff" stroke="#000000" points="650.6709,-321.5 650.6709,-339.5 782.1104,-339.5 782.1104,-321.5 650.6709,-321.5"/>
<text text-anchor="middle" x="716.3906" y="-327.5" font-family="Helvetica,sans-Serif" font-size="10.00" fill="#000000">tensorflow::ValidateConfig</text>
</a>
</g>
</g>
<!-- Node18&#45;&gt;Node19 -->
<g id="edge1" class="edge">
<title>Node18&#45;&gt;Node19</title>
<path fill="none" stroke="#191970" d="M107.2534,-227.5706C228.3296,-248.0295 522.2358,-297.6925 652.4601,-319.6973"/>
<polygon fill="#191970" stroke="#191970" points="652.2298,-323.2079 662.6732,-321.4231 653.3962,-316.3058 652.2298,-323.2079"/>
</g>
<!-- Node20 -->
<g id="node3" class="node">
<title>Node20</title>
<g id="a_node3"><a xlink:href="../../d7/d38/namespacetensorflow_1_1tfcompile.html#a021cb1c58d938b16dcd998aa8d1fc191" target="_top" xlink:title="Converts the graph into an XLA computation, and compiles the computation. Called by tensorflow::tfcom...">
<polygon fill="#ffffff" stroke="#000000" points="143.1475,-175.5 143.1475,-203.5 250.2949,-203.5 250.2949,-175.5 143.1475,-175.5"/>
<text text-anchor="start" x="151.1475" y="-191.5" font-family="Helvetica,sans-Serif" font-size="10.00" fill="#000000">tensorflow::tfcompile</text>
<text text-anchor="middle" x="196.7212" y="-181.5" font-family="Helvetica,sans-Serif" font-size="10.00" fill="#000000">::CompileGraph</text>
</a>
</g>
</g>
<!-- Node18&#45;&gt;Node20 -->
<g id="edge2" class="edge">
<title>Node18&#45;&gt;Node20</title>
<path fill="none" stroke="#191970" d="M107.2838,-207.619C115.6089,-205.9324 124.2784,-204.1761 132.8014,-202.4494"/>
<polygon fill="#191970" stroke="#191970" points="133.6041,-205.858 142.7101,-200.442 132.2142,-198.9973 133.6041,-205.858"/>
</g>
<!-- Node21 -->
<g id="node4" class="node">
<title>Node21</title>
<g id="a_node4"><a xlink:href="../../d5/ddb/classxla_1_1ClientLibrary.html#a5e940d153e6cfd72b34b2b8b89220f50" target="_top" xlink:title="xla::ClientLibrary\l::GetOrCreateCompileOnlyClient">
<polygon fill="#ffffff" stroke="#000000" points="286.2949,-198.5 286.2949,-226.5 447.9004,-226.5 447.9004,-198.5 286.2949,-198.5"/>
<text text-anchor="start" x="294.2949" y="-214.5" font-family="Helvetica,sans-Serif" font-size="10.00" fill="#000000">xla::ClientLibrary</text>
<text text-anchor="middle" x="367.0977" y="-204.5" font-family="Helvetica,sans-Serif" font-size="10.00" fill="#000000">::GetOrCreateCompileOnlyClient</text>
</a>
</g>
</g>
<!-- Node20&#45;&gt;Node21 -->
<g id="edge3" class="edge">
<title>Node20&#45;&gt;Node21</title>
<path fill="none" stroke="#191970" d="M250.6294,-196.7773C258.7576,-197.8746 267.3271,-199.0315 275.9785,-200.1994"/>
<polygon fill="#191970" stroke="#191970" points="275.7723,-203.7032 286.1506,-201.5725 276.7088,-196.7661 275.7723,-203.7032"/>
</g>
<!-- Node22 -->
<g id="node5" class="node">
<title>Node22</title>
<g id="a_node5"><a xlink:href="../../de/d86/namespacetensorflow.html#a6f8fce5955ec6d67cd1762891d4830e9" target="_top" xlink:title="Convert tensorflow graph_def to XLA UserComputation. ">
<polygon fill="#ffffff" stroke="#000000" points="302.1274,-151.5 302.1274,-179.5 432.0679,-179.5 432.0679,-151.5 302.1274,-151.5"/>
<text text-anchor="start" x="310.1274" y="-167.5" font-family="Helvetica,sans-Serif" font-size="10.00" fill="#000000">tensorflow::ConvertGraph</text>
<text text-anchor="middle" x="367.0977" y="-157.5" font-family="Helvetica,sans-Serif" font-size="10.00" fill="#000000">DefToXla</text>
</a>
</g>
</g>
<!-- Node20&#45;&gt;Node22 -->
<g id="edge4" class="edge">
<title>Node20&#45;&gt;Node22</title>
<path fill="none" stroke="#191970" d="M250.6294,-181.9063C263.7304,-180.0608 277.9776,-178.0539 291.8668,-176.0974"/>
<polygon fill="#191970" stroke="#191970" points="292.4815,-179.5454 301.8955,-174.6847 291.505,-172.6138 292.4815,-179.5454"/>
</g>
<!-- Node31 -->
<g id="node14" class="node">
<title>Node31</title>
<g id="a_node14"><a xlink:href="../../d4/df4/namespacetensorflow_1_1tfcompile_1_1anonymous__namespace_02compile_8cc_03.html#a40f8a019f31fa8cbe2fff5d90e69c21b" target="_top" xlink:title="Compiles the XLA computation into executable code. ">
<polygon fill="#ffffff" stroke="#000000" points="301.8394,-94.5 301.8394,-132.5 432.356,-132.5 432.356,-94.5 301.8394,-94.5"/>
<text text-anchor="start" x="309.8394" y="-120.5" font-family="Helvetica,sans-Serif" font-size="10.00" fill="#000000">tensorflow::tfcompile</text>
<text text-anchor="start" x="309.8394" y="-110.5" font-family="Helvetica,sans-Serif" font-size="10.00" fill="#000000">::anonymous_namespace</text>
<text text-anchor="middle" x="367.0977" y="-100.5" font-family="Helvetica,sans-Serif" font-size="10.00" fill="#000000">{compile::cc}::CompileXla</text>
</a>
</g>
</g>
<!-- Node20&#45;&gt;Node31 -->
<g id="edge15" class="edge">
<title>Node20&#45;&gt;Node31</title>
<path fill="none" stroke="#191970" d="M221.3627,-175.3858C239.1059,-165.5176 263.7846,-152.3882 286.2949,-142.5 291.0347,-140.4179 295.9758,-138.367 300.9764,-136.377"/>
<polygon fill="#191970" stroke="#191970" points="302.5711,-139.5126 310.6288,-132.6333 300.0398,-132.9863 302.5711,-139.5126"/>
</g>
<!-- Node23 -->
<g id="node6" class="node">
<title>Node23</title>
<g id="a_node6"><a xlink:href="../../d3/dfa/namespacetensorflow_1_1anonymous__namespace_02tf2xla_8cc_03.html#aeef0cda05958b2b855b0e2fbe07b1314" target="_top" xlink:title="InitGraph creates a graph based on the graph_def, that may then be convert to an xla::Computation via...">
<polygon fill="#ffffff" stroke="#000000" points="483.9834,-188.5 483.9834,-226.5 603.3818,-226.5 603.3818,-188.5 483.9834,-188.5"/>
<text text-anchor="start" x="491.9834" y="-214.5" font-family="Helvetica,sans-Serif" font-size="10.00" fill="#000000">tensorflow::anonymous</text>
<text text-anchor="start" x="491.9834" y="-204.5" font-family="Helvetica,sans-Serif" font-size="10.00" fill="#000000">_namespace{tf2xla::cc}</text>
<text text-anchor="middle" x="543.6826" y="-194.5" font-family="Helvetica,sans-Serif" font-size="10.00" fill="#000000">::InitGraph</text>
</a>
</g>
</g>
<!-- Node22&#45;&gt;Node23 -->
<g id="edge5" class="edge">
<title>Node22&#45;&gt;Node23</title>
<path fill="none" stroke="#191970" d="M426.3891,-179.6022C441.5945,-183.2188 458.0908,-187.1423 473.7769,-190.8732"/>
<polygon fill="#191970" stroke="#191970" points="473.4076,-194.383 483.9461,-193.2919 475.0274,-187.5729 473.4076,-194.383"/>
</g>
<!-- Node29 -->
<g id="node12" class="node">
<title>Node29</title>
<g id="a_node12"><a xlink:href="../../d3/dfa/namespacetensorflow_1_1anonymous__namespace_02tf2xla_8cc_03.html#a8bea171341441170c6d6c7dbb0b3227d" target="_top" xlink:title="Converts the TensorFlow graph into an XLA computation, by executing the graph symbolically, with each op building up the XLA HLO. ">
<polygon fill="#ffffff" stroke="#000000" points="483.9834,-110.5 483.9834,-148.5 603.3818,-148.5 603.3818,-110.5 483.9834,-110.5"/>
<text text-anchor="start" x="491.9834" y="-136.5" font-family="Helvetica,sans-Serif" font-size="10.00" fill="#000000">tensorflow::anonymous</text>
<text text-anchor="start" x="491.9834" y="-126.5" font-family="Helvetica,sans-Serif" font-size="10.00" fill="#000000">_namespace{tf2xla::cc}</text>
<text text-anchor="middle" x="543.6826" y="-116.5" font-family="Helvetica,sans-Serif" font-size="10.00" fill="#000000">::ConvertGraphToXla</text>
</a>
</g>
</g>
<!-- Node22&#45;&gt;Node29 -->
<g id="edge13" class="edge">
<title>Node22&#45;&gt;Node29</title>
<path fill="none" stroke="#191970" d="M432.0991,-152.2483C445.71,-149.4735 460.1162,-146.5365 473.893,-143.7279"/>
<polygon fill="#191970" stroke="#191970" points="474.6939,-147.1367 483.7932,-141.7095 473.2955,-140.2777 474.6939,-147.1367"/>
</g>
<!-- Node23&#45;&gt;Node19 -->
<g id="edge6" class="edge">
<title>Node23&#45;&gt;Node19</title>
<path fill="none" stroke="#191970" d="M560.2309,-226.8512C584.9671,-255.5871 629.7283,-306.7878 639.4648,-312.5 642.8938,-314.5117 646.5323,-316.2986 650.2891,-317.8858"/>
<polygon fill="#191970" stroke="#191970" points="649.2262,-321.2247 659.819,-321.4342 651.6688,-314.6647 649.2262,-321.2247"/>
</g>
<!-- Node24 -->
<g id="node7" class="node">
<title>Node24</title>
<g id="a_node7"><a xlink:href="../../de/d86/namespacetensorflow.html#ac287ab9f1996e3d9086f8500c777ee9b" target="_top" xlink:title="Generate corresponding placeholder for each feed tensor. Traverse each inputs of each nodes...">
<polygon fill="#ffffff" stroke="#000000" points="645.0215,-274.5 645.0215,-302.5 787.7598,-302.5 787.7598,-274.5 645.0215,-274.5"/>
<text text-anchor="start" x="653.0215" y="-290.5" font-family="Helvetica,sans-Serif" font-size="10.00" fill="#000000">tensorflow::AddPlaceholders</text>
<text text-anchor="middle" x="716.3906" y="-280.5" font-family="Helvetica,sans-Serif" font-size="10.00" fill="#000000">ForFeeds</text>
</a>
</g>
</g>
<!-- Node23&#45;&gt;Node24 -->
<g id="edge7" class="edge">
<title>Node23&#45;&gt;Node24</title>
<path fill="none" stroke="#191970" d="M576.3603,-226.6863C594.6154,-237.0347 617.9558,-249.663 639.4648,-259.5 648.1348,-263.4652 657.5177,-267.3355 666.651,-270.8905"/>
<polygon fill="#191970" stroke="#191970" points="665.4476,-274.1774 676.0384,-274.4718 667.9428,-267.6372 665.4476,-274.1774"/>
</g>
<!-- Node25 -->
<g id="node8" class="node">
<title>Node25</title>
<g id="a_node8"><a xlink:href="../../de/d86/namespacetensorflow.html#a491706512ccc1517e499cbdb810aa6ab" target="_top" xlink:title="Assign each NodeDefs of GraphDef default values. ">
<polygon fill="#ffffff" stroke="#000000" points="829.3164,-252.5 829.3164,-280.5 966.4834,-280.5 966.4834,-252.5 829.3164,-252.5"/>
<text text-anchor="start" x="837.3164" y="-268.5" font-family="Helvetica,sans-Serif" font-size="10.00" fill="#000000">tensorflow::AddDefaultAttrs</text>
<text text-anchor="middle" x="897.8999" y="-258.5" font-family="Helvetica,sans-Serif" font-size="10.00" fill="#000000">ToGraphDef</text>
</a>
</g>
</g>
<!-- Node23&#45;&gt;Node25 -->
<g id="edge10" class="edge">
<title>Node23&#45;&gt;Node25</title>
<path fill="none" stroke="#191970" d="M603.3894,-219.7487C615.3216,-222.0823 627.7784,-224.4375 639.4648,-226.5 699.6144,-237.1158 767.9156,-247.6207 819.1897,-255.1995"/>
<polygon fill="#191970" stroke="#191970" points="818.8067,-258.6808 829.2101,-256.6754 819.8268,-251.7555 818.8067,-258.6808"/>
</g>
<!-- Node26 -->
<g id="node9" class="node">
<title>Node26</title>
<g id="a_node9"><a xlink:href="../../de/d86/namespacetensorflow.html#ac09f7fb26bddd7564249fd5d1b255435" target="_top" xlink:title="Remove source nodes of feed tensor. Because they are removed at tensorflow::AddPlaceholdersForFeeds ...">
<polygon fill="#ffffff" stroke="#000000" points="639.4648,-198.5 639.4648,-216.5 793.3164,-216.5 793.3164,-198.5 639.4648,-198.5"/>
<text text-anchor="middle" x="716.3906" y="-204.5" font-family="Helvetica,sans-Serif" font-size="10.00" fill="#000000">tensorflow::PruneGraphDefInto</text>
</a>
</g>
</g>
<!-- Node23&#45;&gt;Node26 -->
<g id="edge9" class="edge">
<title>Node23&#45;&gt;Node26</title>
<path fill="none" stroke="#191970" d="M603.6028,-207.5C611.8658,-207.5 620.4861,-207.5 629.1186,-207.5"/>
<polygon fill="#191970" stroke="#191970" points="629.2375,-211.0001 639.2374,-207.5 629.2374,-204.0001 629.2375,-211.0001"/>
</g>
<!-- Node27 -->
<g id="node10" class="node">
<title>Node27</title>
<g id="a_node10"><a xlink:href="../../de/d86/namespacetensorflow.html#a43875c6284c3af69e7a420b67c7eec6b" target="_top" xlink:title="Convert GraphDef defined protobuf to type Graph ">
<polygon fill="#ffffff" stroke="#000000" points="651.4204,-151.5 651.4204,-179.5 781.3608,-179.5 781.3608,-151.5 651.4204,-151.5"/>
<text text-anchor="start" x="659.4204" y="-167.5" font-family="Helvetica,sans-Serif" font-size="10.00" fill="#000000">tensorflow::ConvertGraph</text>
<text text-anchor="middle" x="716.3906" y="-157.5" font-family="Helvetica,sans-Serif" font-size="10.00" fill="#000000">DefToGraph</text>
</a>
</g>
</g>
<!-- Node23&#45;&gt;Node27 -->
<g id="edge11" class="edge">
<title>Node23&#45;&gt;Node27</title>
<path fill="none" stroke="#191970" d="M603.6028,-192.9283C618.0889,-189.4055 633.6732,-185.6156 648.4964,-182.0109"/>
<polygon fill="#191970" stroke="#191970" points="649.7243,-185.3143 658.614,-179.5504 648.0702,-178.5126 649.7243,-185.3143"/>
</g>
<!-- Node28 -->
<g id="node11" class="node">
<title>Node28</title>
<g id="a_node11"><a xlink:href="../../d3/dfa/namespacetensorflow_1_1anonymous__namespace_02tf2xla_8cc_03.html#af0d9ad360ae01cf7c15abe04de99b230" target="_top" xlink:title="tensorflow::anonymous\l_namespace\{tf2xla::cc\}\l::RewriteAndPruneGraph">
<polygon fill="#ffffff" stroke="#000000" points="652.5288,-94.5 652.5288,-132.5 780.2524,-132.5 780.2524,-94.5 652.5288,-94.5"/>
<text text-anchor="start" x="660.5288" y="-120.5" font-family="Helvetica,sans-Serif" font-size="10.00" fill="#000000">tensorflow::anonymous</text>
<text text-anchor="start" x="660.5288" y="-110.5" font-family="Helvetica,sans-Serif" font-size="10.00" fill="#000000">_namespace{tf2xla::cc}</text>
<text text-anchor="middle" x="716.3906" y="-100.5" font-family="Helvetica,sans-Serif" font-size="10.00" fill="#000000">::RewriteAndPruneGraph</text>
</a>
</g>
</g>
<!-- Node23&#45;&gt;Node28 -->
<g id="edge12" class="edge">
<title>Node23&#45;&gt;Node28</title>
<path fill="none" stroke="#191970" d="M568.2818,-188.4193C587.056,-174.4605 613.953,-155.729 639.4648,-142.5 643.4204,-140.4489 647.5552,-138.4667 651.7667,-136.5672"/>
<polygon fill="#191970" stroke="#191970" points="653.2787,-139.7267 661.0692,-132.5463 650.5013,-133.3013 653.2787,-139.7267"/>
</g>
<!-- Node24&#45;&gt;Node25 -->
<g id="edge8" class="edge">
<title>Node24&#45;&gt;Node25</title>
<path fill="none" stroke="#191970" d="M787.8673,-279.8366C798.0607,-278.6011 808.5942,-277.3244 818.9208,-276.0727"/>
<polygon fill="#191970" stroke="#191970" points="819.6521,-279.5098 829.1582,-274.8319 818.8097,-272.5607 819.6521,-279.5098"/>
</g>
<!-- Node30 -->
<g id="node13" class="node">
<title>Node30</title>
<g id="a_node13"><a xlink:href="../../d9/de9/classtensorflow_1_1XlaOpRegistry.html#a504bd86e27f0fedc9c5dcb82af983bfb" target="_top" xlink:title="tensorflow::XlaOpRegistry\l::RegisterCompilationKernels">
<polygon fill="#ffffff" stroke="#000000" points="643.6396,-47.5 643.6396,-75.5 789.1416,-75.5 789.1416,-47.5 643.6396,-47.5"/>
<text text-anchor="start" x="651.6396" y="-63.5" font-family="Helvetica,sans-Serif" font-size="10.00" fill="#000000">tensorflow::XlaOpRegistry</text>
<text text-anchor="middle" x="716.3906" y="-53.5" font-family="Helvetica,sans-Serif" font-size="10.00" fill="#000000">::RegisterCompilationKernels</text>
</a>
</g>
</g>
<!-- Node29&#45;&gt;Node30 -->
<g id="edge14" class="edge">
<title>Node29&#45;&gt;Node30</title>
<path fill="none" stroke="#191970" d="M582.3441,-110.3684C599.6056,-102.1849 620.3307,-92.8449 639.4648,-85.5 645.4647,-83.1969 651.7882,-80.9475 658.1262,-78.8068"/>
<polygon fill="#191970" stroke="#191970" points="659.6483,-81.9906 668.0531,-75.5401 657.4602,-75.3414 659.6483,-81.9906"/>
</g>
<!-- Node32 -->
<g id="node15" class="node">
<title>Node32</title>
<g id="a_node15"><a xlink:href="../../d1/dd1/classxla_1_1CompileOnlyClient.html#a5a585d21f617b77a1cecc1b587d18d7a" target="_top" xlink:title="Compiles a list of computations for ahead&#45;of&#45;time execution. This is intended for use in static compi...">
<polygon fill="#ffffff" stroke="#000000" points="483.9004,-21.5 483.9004,-49.5 603.4648,-49.5 603.4648,-21.5 483.9004,-21.5"/>
<text text-anchor="start" x="491.9004" y="-37.5" font-family="Helvetica,sans-Serif" font-size="10.00" fill="#000000">xla::CompileOnlyClient</text>
<text text-anchor="middle" x="543.6826" y="-27.5" font-family="Helvetica,sans-Serif" font-size="10.00" fill="#000000">::CompileAheadOfTime</text>
</a>
</g>
</g>
<!-- Node31&#45;&gt;Node32 -->
<g id="edge16" class="edge">
<title>Node31&#45;&gt;Node32</title>
<path fill="none" stroke="#191970" d="M410.2952,-94.4191C438.3354,-82.0333 474.6703,-65.9837 502.3349,-53.7639"/>
<polygon fill="#191970" stroke="#191970" points="503.9976,-56.8557 511.7308,-49.6136 501.1692,-50.4526 503.9976,-56.8557"/>
</g>
<!-- Node33 -->
<g id="node16" class="node">
<title>Node33</title>
<g id="a_node16"><a xlink:href="../../dc/d07/classxla_1_1CompileOnlyService.html#aceb67616a89167b9af1bf23d17ec37c9" target="_top" xlink:title="xla::CompileOnlyService\l::CompileAheadOfTime">
<polygon fill="#ffffff" stroke="#000000" points="653.9277,-.5 653.9277,-28.5 778.8535,-28.5 778.8535,-.5 653.9277,-.5"/>
<text text-anchor="start" x="661.9277" y="-16.5" font-family="Helvetica,sans-Serif" font-size="10.00" fill="#000000">xla::CompileOnlyService</text>
<text text-anchor="middle" x="716.3906" y="-6.5" font-family="Helvetica,sans-Serif" font-size="10.00" fill="#000000">::CompileAheadOfTime</text>
</a>
</g>
</g>
<!-- Node32&#45;&gt;Node33 -->
<g id="edge17" class="edge">
<title>Node32&#45;&gt;Node33</title>
<path fill="none" stroke="#191970" d="M603.6028,-28.2142C616.4905,-26.6471 630.2474,-24.9744 643.5643,-23.3551"/>
<polygon fill="#191970" stroke="#191970" points="644.1359,-26.8115 653.6403,-22.13 643.2909,-19.8627 644.1359,-26.8115"/>
</g>
</g>
</svg>
