<?xml version="1.0" encoding="UTF-8" standalone="no"?>
<!DOCTYPE svg PUBLIC "-//W3C//DTD SVG 1.1//EN"
 "http://www.w3.org/Graphics/SVG/1.1/DTD/svg11.dtd">
<!-- Generated by graphviz version 2.40.1 (20161225.0304)
 -->
<!-- Title: tensorflow::tfcompile::Main Pages: 1 -->
<svg width="939pt" height="363pt"
 viewBox="0.00 0.00 939.00 362.50" xmlns="http://www.w3.org/2000/svg" xmlns:xlink="http://www.w3.org/1999/xlink">
<g id="graph0" class="graph" transform="scale(1 1) rotate(0) translate(4 358.5)">
<title>tensorflow::tfcompile::Main</title>
<polygon fill="#ffffff" stroke="transparent" points="-4,4 -4,-358.5 935,-358.5 935,4 -4,4"/>
<!-- Node17 -->
<g id="node1" class="node">
<title>Node17</title>
<polygon fill="#bfbfbf" stroke="#000000" points="0,-216.5 0,-246.5 107,-246.5 107,-216.5 0,-216.5"/>
<text text-anchor="start" x="8" y="-234.5" font-family="Helvetica,sans-Serif" font-size="10.00" fill="#000000">tensorflow::tfcompile</text>
<text text-anchor="middle" x="53.5" y="-223.5" font-family="Helvetica,sans-Serif" font-size="10.00" fill="#000000">::Main</text>
</g>
<!-- Node18 -->
<g id="node2" class="node">
<title>Node18</title>
<g id="a_node2"><a xlink:href="../../de/d86/namespacetensorflow.html#aaeeec358e2be013353667dd7c0a6dbaa" target="_top" xlink:title="tensorflow::ValidateConfig">
<polygon fill="#ffffff" stroke="#000000" points="616.5,-335 616.5,-354 747.5,-354 747.5,-335 616.5,-335"/>
<text text-anchor="middle" x="682" y="-342" font-family="Helvetica,sans-Serif" font-size="10.00" fill="#000000">tensorflow::ValidateConfig</text>
</a>
</g>
</g>
<!-- Node17&#45;&gt;Node18 -->
<g id="edge1" class="edge">
<title>Node17&#45;&gt;Node18</title>
<path fill="none" stroke="#191970" d="M107.0856,-241.1343C222.7244,-261.9254 495.2014,-310.9149 618.9195,-333.1586"/>
<polygon fill="#191970" stroke="#191970" points="618.5325,-336.645 628.9941,-334.9699 619.7713,-329.7555 618.5325,-336.645"/>
</g>
<!-- Node19 -->
<g id="node3" class="node">
<title>Node19</title>
<g id="a_node3"><a xlink:href="../../d7/d38/namespacetensorflow_1_1tfcompile.html#a021cb1c58d938b16dcd998aa8d1fc191" target="_top" xlink:title="Converts the graph into an XLA computation, and compiles the computation. Called by tensorflow::tfcom...">
<polygon fill="#ffffff" stroke="#000000" points="143,-162.5 143,-192.5 250,-192.5 250,-162.5 143,-162.5"/>
<text text-anchor="start" x="151" y="-180.5" font-family="Helvetica,sans-Serif" font-size="10.00" fill="#000000">tensorflow::tfcompile</text>
<text text-anchor="middle" x="196.5" y="-169.5" font-family="Helvetica,sans-Serif" font-size="10.00" fill="#000000">::CompileGraph</text>
</a>
</g>
</g>
<!-- Node17&#45;&gt;Node19 -->
<g id="edge2" class="edge">
<title>Node17&#45;&gt;Node19</title>
<path fill="none" stroke="#191970" d="M93.3335,-216.458C109.929,-210.1912 129.3767,-202.8473 146.8864,-196.2352"/>
<polygon fill="#191970" stroke="#191970" points="148.2655,-199.4557 156.3842,-192.6486 145.7925,-192.9071 148.2655,-199.4557"/>
</g>
<!-- Node20 -->
<g id="node4" class="node">
<title>Node20</title>
<g id="a_node4"><a xlink:href="../../de/d86/namespacetensorflow.html#a6f8fce5955ec6d67cd1762891d4830e9" target="_top" xlink:title="Convert tensorflow graph_def to XLA UserComputation. ">
<polygon fill="#ffffff" stroke="#000000" points="286.5,-162.5 286.5,-192.5 414.5,-192.5 414.5,-162.5 286.5,-162.5"/>
<text text-anchor="start" x="294.5" y="-180.5" font-family="Helvetica,sans-Serif" font-size="10.00" fill="#000000">tensorflow::ConvertGraph</text>
<text text-anchor="middle" x="350.5" y="-169.5" font-family="Helvetica,sans-Serif" font-size="10.00" fill="#000000">DefToXla</text>
</a>
</g>
</g>
<!-- Node19&#45;&gt;Node20 -->
<g id="edge3" class="edge">
<title>Node19&#45;&gt;Node20</title>
<path fill="none" stroke="#191970" d="M250.3617,-177.5C258.7155,-177.5 267.4699,-177.5 276.1786,-177.5"/>
<polygon fill="#191970" stroke="#191970" points="276.354,-181.0001 286.354,-177.5 276.354,-174.0001 276.354,-181.0001"/>
</g>
<!-- Node29 -->
<g id="node13" class="node">
<title>Node29</title>
<g id="a_node13"><a xlink:href="../../d4/df4/namespacetensorflow_1_1tfcompile_1_1anonymous__namespace_02compile_8cc_03.html#a40f8a019f31fa8cbe2fff5d90e69c21b" target="_top" xlink:title="Compiles the XLA computation into executable code. ">
<polygon fill="#ffffff" stroke="#000000" points="286,-102 286,-143 415,-143 415,-102 286,-102"/>
<text text-anchor="start" x="294" y="-131" font-family="Helvetica,sans-Serif" font-size="10.00" fill="#000000">tensorflow::tfcompile</text>
<text text-anchor="start" x="294" y="-120" font-family="Helvetica,sans-Serif" font-size="10.00" fill="#000000">::anonymous_namespace</text>
<text text-anchor="middle" x="350.5" y="-109" font-family="Helvetica,sans-Serif" font-size="10.00" fill="#000000">{compile::cc}::CompileXla</text>
</a>
</g>
</g>
<!-- Node19&#45;&gt;Node29 -->
<g id="edge14" class="edge">
<title>Node19&#45;&gt;Node29</title>
<path fill="none" stroke="#191970" d="M238.5812,-162.471C252.3152,-157.566 267.9297,-151.9894 283.0457,-146.5908"/>
<polygon fill="#191970" stroke="#191970" points="284.6421,-149.7373 292.8823,-143.0777 282.2877,-143.1451 284.6421,-149.7373"/>
</g>
<!-- Node21 -->
<g id="node5" class="node">
<title>Node21</title>
<g id="a_node5"><a xlink:href="../../d3/dfa/namespacetensorflow_1_1anonymous__namespace_02tf2xla_8cc_03.html#aeef0cda05958b2b855b0e2fbe07b1314" target="_top" xlink:title="InitGraph creates a graph based on the graph_def, that may then be convert to an xla::Computation via...">
<polygon fill="#ffffff" stroke="#000000" points="451,-198 451,-239 570,-239 570,-198 451,-198"/>
<text text-anchor="start" x="459" y="-227" font-family="Helvetica,sans-Serif" font-size="10.00" fill="#000000">tensorflow::anonymous</text>
<text text-anchor="start" x="459" y="-216" font-family="Helvetica,sans-Serif" font-size="10.00" fill="#000000">_namespace{tf2xla::cc}</text>
<text text-anchor="middle" x="510.5" y="-205" font-family="Helvetica,sans-Serif" font-size="10.00" fill="#000000">::InitGraph</text>
</a>
</g>
</g>
<!-- Node20&#45;&gt;Node21 -->
<g id="edge4" class="edge">
<title>Node20&#45;&gt;Node21</title>
<path fill="none" stroke="#191970" d="M409.1696,-192.5341C419.4428,-195.1666 430.2224,-197.9289 440.7604,-200.6292"/>
<polygon fill="#191970" stroke="#191970" points="440.2097,-204.1011 450.7655,-203.193 441.9473,-197.3202 440.2097,-204.1011"/>
</g>
<!-- Node27 -->
<g id="node11" class="node">
<title>Node27</title>
<g id="a_node11"><a xlink:href="../../d3/dfa/namespacetensorflow_1_1anonymous__namespace_02tf2xla_8cc_03.html#a8bea171341441170c6d6c7dbb0b3227d" target="_top" xlink:title="Converts the TensorFlow graph into an XLA computation, by executing the graph symbolically, with each op building up the XLA HLO. ">
<polygon fill="#ffffff" stroke="#000000" points="451,-116 451,-157 570,-157 570,-116 451,-116"/>
<text text-anchor="start" x="459" y="-145" font-family="Helvetica,sans-Serif" font-size="10.00" fill="#000000">tensorflow::anonymous</text>
<text text-anchor="start" x="459" y="-134" font-family="Helvetica,sans-Serif" font-size="10.00" fill="#000000">_namespace{tf2xla::cc}</text>
<text text-anchor="middle" x="510.5" y="-123" font-family="Helvetica,sans-Serif" font-size="10.00" fill="#000000">::ConvertGraphToXla</text>
</a>
</g>
</g>
<!-- Node20&#45;&gt;Node27 -->
<g id="edge12" class="edge">
<title>Node20&#45;&gt;Node27</title>
<path fill="none" stroke="#191970" d="M409.1696,-162.4659C419.4428,-159.8334 430.2224,-157.0711 440.7604,-154.3708"/>
<polygon fill="#191970" stroke="#191970" points="441.9473,-157.6798 450.7655,-151.807 440.2097,-150.8989 441.9473,-157.6798"/>
</g>
<!-- Node21&#45;&gt;Node18 -->
<g id="edge5" class="edge">
<title>Node21&#45;&gt;Node18</title>
<path fill="none" stroke="#191970" d="M526.4123,-239.0549C548.2719,-266.7859 587.0335,-314.0391 606,-325.5 609.6012,-327.6761 613.442,-329.6038 617.4118,-331.3112"/>
<polygon fill="#191970" stroke="#191970" points="616.266,-334.62 626.8569,-334.9089 618.7578,-328.0785 616.266,-334.62"/>
</g>
<!-- Node22 -->
<g id="node6" class="node">
<title>Node22</title>
<g id="a_node6"><a xlink:href="../../de/d86/namespacetensorflow.html#ac287ab9f1996e3d9086f8500c777ee9b" target="_top" xlink:title="Generate corresponding placeholder for each feed tensor. Traverse each inputs of each nodes...">
<polygon fill="#ffffff" stroke="#000000" points="611.5,-285.5 611.5,-315.5 752.5,-315.5 752.5,-285.5 611.5,-285.5"/>
<text text-anchor="start" x="619.5" y="-303.5" font-family="Helvetica,sans-Serif" font-size="10.00" fill="#000000">tensorflow::AddPlaceholders</text>
<text text-anchor="middle" x="682" y="-292.5" font-family="Helvetica,sans-Serif" font-size="10.00" fill="#000000">ForFeeds</text>
</a>
</g>
</g>
<!-- Node21&#45;&gt;Node22 -->
<g id="edge6" class="edge">
<title>Node21&#45;&gt;Node22</title>
<path fill="none" stroke="#191970" d="M545.7924,-239.0638C563.5821,-249.0813 585.6486,-260.9863 606,-270.5 614.1229,-274.2972 622.868,-278.0483 631.4328,-281.5445"/>
<polygon fill="#191970" stroke="#191970" points="630.3991,-284.9007 640.9834,-285.3724 633.0033,-278.4032 630.3991,-284.9007"/>
</g>
<!-- Node23 -->
<g id="node7" class="node">
<title>Node23</title>
<g id="a_node7"><a xlink:href="../../de/d86/namespacetensorflow.html#a491706512ccc1517e499cbdb810aa6ab" target="_top" xlink:title="Assign each NodeDefs of GraphDef default values. ">
<polygon fill="#ffffff" stroke="#000000" points="794,-263.5 794,-293.5 931,-293.5 931,-263.5 794,-263.5"/>
<text text-anchor="start" x="802" y="-281.5" font-family="Helvetica,sans-Serif" font-size="10.00" fill="#000000">tensorflow::AddDefaultAttrs</text>
<text text-anchor="middle" x="862.5" y="-270.5" font-family="Helvetica,sans-Serif" font-size="10.00" fill="#000000">ToGraphDef</text>
</a>
</g>
</g>
<!-- Node21&#45;&gt;Node23 -->
<g id="edge9" class="edge">
<title>Node21&#45;&gt;Node23</title>
<path fill="none" stroke="#191970" d="M570.0378,-230.7071C581.9343,-233.0441 594.3524,-235.4112 606,-237.5 665.5082,-248.1717 733.0329,-258.9102 783.8582,-266.7189"/>
<polygon fill="#191970" stroke="#191970" points="783.3787,-270.1862 793.7933,-268.2407 784.4386,-263.2669 783.3787,-270.1862"/>
</g>
<!-- Node24 -->
<g id="node8" class="node">
<title>Node24</title>
<g id="a_node8"><a xlink:href="../../de/d86/namespacetensorflow.html#ac09f7fb26bddd7564249fd5d1b255435" target="_top" xlink:title="Remove source nodes of feed tensor. Because they are removed at tensorflow::AddPlaceholdersForFeeds ...">
<polygon fill="#ffffff" stroke="#000000" points="606,-209 606,-228 758,-228 758,-209 606,-209"/>
<text text-anchor="middle" x="682" y="-216" font-family="Helvetica,sans-Serif" font-size="10.00" fill="#000000">tensorflow::PruneGraphDefInto</text>
</a>
</g>
</g>
<!-- Node21&#45;&gt;Node24 -->
<g id="edge8" class="edge">
<title>Node21&#45;&gt;Node24</title>
<path fill="none" stroke="#191970" d="M570.0011,-218.5C578.3453,-218.5 587.0565,-218.5 595.7743,-218.5"/>
<polygon fill="#191970" stroke="#191970" points="595.9897,-222.0001 605.9896,-218.5 595.9896,-215.0001 595.9897,-222.0001"/>
</g>
<!-- Node25 -->
<g id="node9" class="node">
<title>Node25</title>
<g id="a_node9"><a xlink:href="../../de/d86/namespacetensorflow.html#a43875c6284c3af69e7a420b67c7eec6b" target="_top" xlink:title="Convert GraphDef defined protobuf to type Graph ">
<polygon fill="#ffffff" stroke="#000000" points="618,-159.5 618,-189.5 746,-189.5 746,-159.5 618,-159.5"/>
<text text-anchor="start" x="626" y="-177.5" font-family="Helvetica,sans-Serif" font-size="10.00" fill="#000000">tensorflow::ConvertGraph</text>
<text text-anchor="middle" x="682" y="-166.5" font-family="Helvetica,sans-Serif" font-size="10.00" fill="#000000">DefToGraph</text>
</a>
</g>
</g>
<!-- Node21&#45;&gt;Node25 -->
<g id="edge10" class="edge">
<title>Node21&#45;&gt;Node25</title>
<path fill="none" stroke="#191970" d="M570.0011,-203.2344C584.0714,-199.6245 599.1852,-195.747 613.6143,-192.045"/>
<polygon fill="#191970" stroke="#191970" points="614.6567,-195.391 623.4731,-189.5156 612.917,-188.6106 614.6567,-195.391"/>
</g>
<!-- Node26 -->
<g id="node10" class="node">
<title>Node26</title>
<g id="a_node10"><a xlink:href="../../d3/dfa/namespacetensorflow_1_1anonymous__namespace_02tf2xla_8cc_03.html#af0d9ad360ae01cf7c15abe04de99b230" target="_top" xlink:title="tensorflow::anonymous\l_namespace\{tf2xla::cc\}\l::RewriteAndPruneGraph">
<polygon fill="#ffffff" stroke="#000000" points="619.5,-99 619.5,-140 744.5,-140 744.5,-99 619.5,-99"/>
<text text-anchor="start" x="627.5" y="-128" font-family="Helvetica,sans-Serif" font-size="10.00" fill="#000000">tensorflow::anonymous</text>
<text text-anchor="start" x="627.5" y="-117" font-family="Helvetica,sans-Serif" font-size="10.00" fill="#000000">_namespace{tf2xla::cc}</text>
<text text-anchor="middle" x="682" y="-106" font-family="Helvetica,sans-Serif" font-size="10.00" fill="#000000">::RewriteAndPruneGraph</text>
</a>
</g>
</g>
<!-- Node21&#45;&gt;Node26 -->
<g id="edge11" class="edge">
<title>Node21&#45;&gt;Node26</title>
<path fill="none" stroke="#191970" d="M536.1772,-197.7287C554.814,-183.2859 581.0349,-164.2368 606,-150.5 609.8976,-148.3554 613.9748,-146.2729 618.1298,-144.2691"/>
<polygon fill="#191970" stroke="#191970" points="619.709,-147.3949 627.3108,-140.0149 616.766,-141.0436 619.709,-147.3949"/>
</g>
<!-- Node22&#45;&gt;Node23 -->
<g id="edge7" class="edge">
<title>Node22&#45;&gt;Node23</title>
<path fill="none" stroke="#191970" d="M752.5615,-291.8997C762.7211,-290.6614 773.2306,-289.3805 783.5405,-288.1239"/>
<polygon fill="#191970" stroke="#191970" points="784.2603,-291.5621 793.7634,-286.8779 783.4134,-284.6135 784.2603,-291.5621"/>
</g>
<!-- Node28 -->
<g id="node12" class="node">
<title>Node28</title>
<g id="a_node12"><a xlink:href="../../d9/de9/classtensorflow_1_1XlaOpRegistry.html#a504bd86e27f0fedc9c5dcb82af983bfb" target="_top" xlink:title="tensorflow::XlaOpRegistry\l::RegisterCompilationKernels">
<polygon fill="#ffffff" stroke="#000000" points="610,-49.5 610,-79.5 754,-79.5 754,-49.5 610,-49.5"/>
<text text-anchor="start" x="618" y="-67.5" font-family="Helvetica,sans-Serif" font-size="10.00" fill="#000000">tensorflow::XlaOpRegistry</text>
<text text-anchor="middle" x="682" y="-56.5" font-family="Helvetica,sans-Serif" font-size="10.00" fill="#000000">::RegisterCompilationKernels</text>
</a>
</g>
</g>
<!-- Node27&#45;&gt;Node28 -->
<g id="edge13" class="edge">
<title>Node27&#45;&gt;Node28</title>
<path fill="none" stroke="#191970" d="M549.4296,-115.807C566.5332,-107.118 587.0097,-97.2522 606,-89.5 611.5196,-87.2468 617.3248,-85.0463 623.1647,-82.9443"/>
<polygon fill="#191970" stroke="#191970" points="624.6992,-86.1155 632.9811,-79.5078 622.3863,-79.5086 624.6992,-86.1155"/>
</g>
<!-- Node30 -->
<g id="node14" class="node">
<title>Node30</title>
<g id="a_node14"><a xlink:href="../../d1/dd1/classxla_1_1CompileOnlyClient.html#a5a585d21f617b77a1cecc1b587d18d7a" target="_top" xlink:title="Compiles a list of computations for ahead&#45;of&#45;time execution. This is intended for use in static compi...">
<polygon fill="#ffffff" stroke="#000000" points="451,-22.5 451,-52.5 570,-52.5 570,-22.5 451,-22.5"/>
<text text-anchor="start" x="459" y="-40.5" font-family="Helvetica,sans-Serif" font-size="10.00" fill="#000000">xla::CompileOnlyClient</text>
<text text-anchor="middle" x="510.5" y="-29.5" font-family="Helvetica,sans-Serif" font-size="10.00" fill="#000000">::CompileAheadOfTime</text>
</a>
</g>
</g>
<!-- Node29&#45;&gt;Node30 -->
<g id="edge15" class="edge">
<title>Node29&#45;&gt;Node30</title>
<path fill="none" stroke="#191970" d="M389.2315,-101.9239C414.7661,-88.3586 448.025,-70.6898 473.2526,-57.2877"/>
<polygon fill="#191970" stroke="#191970" points="474.9652,-60.3411 482.1544,-52.5586 471.6811,-54.1593 474.9652,-60.3411"/>
</g>
<!-- Node31 -->
<g id="node15" class="node">
<title>Node31</title>
<g id="a_node15"><a xlink:href="../../dc/d07/classxla_1_1CompileOnlyService.html#aceb67616a89167b9af1bf23d17ec37c9" target="_top" xlink:title="xla::CompileOnlyService\l::CompileAheadOfTime">
<polygon fill="#ffffff" stroke="#000000" points="619.5,-.5 619.5,-30.5 744.5,-30.5 744.5,-.5 619.5,-.5"/>
<text text-anchor="start" x="627.5" y="-18.5" font-family="Helvetica,sans-Serif" font-size="10.00" fill="#000000">xla::CompileOnlyService</text>
<text text-anchor="middle" x="682" y="-7.5" font-family="Helvetica,sans-Serif" font-size="10.00" fill="#000000">::CompileAheadOfTime</text>
</a>
</g>
</g>
<!-- Node30&#45;&gt;Node31 -->
<g id="edge16" class="edge">
<title>Node30&#45;&gt;Node31</title>
<path fill="none" stroke="#191970" d="M570.0011,-29.8672C582.7215,-28.2354 596.2948,-26.4943 609.444,-24.8075"/>
<polygon fill="#191970" stroke="#191970" points="609.9221,-28.2749 619.3955,-23.5309 609.0314,-21.3318 609.9221,-28.2749"/>
</g>
</g>
</svg>
