<?xml version="1.0" encoding="UTF-8" standalone="no"?>
<!DOCTYPE svg PUBLIC "-//W3C//DTD SVG 1.1//EN"
 "http://www.w3.org/Graphics/SVG/1.1/DTD/svg11.dtd">
<!-- Generated by graphviz version 2.40.1 (20161225.0304)
 -->
<!-- Title: tensorflow::tfcompile::CompileGraph Pages: 1 -->
<svg width="607pt" height="154pt"
 viewBox="0.00 0.00 607.00 153.50" xmlns="http://www.w3.org/2000/svg" xmlns:xlink="http://www.w3.org/1999/xlink">
<g id="graph0" class="graph" transform="scale(1 1) rotate(0) translate(4 149.5)">
<title>tensorflow::tfcompile::CompileGraph</title>
<polygon fill="#ffffff" stroke="transparent" points="-4,4 -4,-149.5 603,-149.5 603,4 -4,4"/>
<!-- Node0 -->
<g id="node1" class="node">
<title>Node0</title>
<polygon fill="#bfbfbf" stroke="#000000" points="0,-36 0,-66 107,-66 107,-36 0,-36"/>
<text text-anchor="start" x="8" y="-54" font-family="Helvetica,sans-Serif" font-size="10.00" fill="#000000">tensorflow::tfcompile</text>
<text text-anchor="middle" x="53.5" y="-43" font-family="Helvetica,sans-Serif" font-size="10.00" fill="#000000">::CompileGraph</text>
</g>
<!-- Node1 -->
<g id="node2" class="node">
<title>Node1</title>
<g id="a_node2"><a xlink:href="../../de/d86/namespacetensorflow.html#a6f8fce5955ec6d67cd1762891d4830e9" target="_top" xlink:title="Convert tensorflow graph_def to XLA UserComputation. ">
<polygon fill="#ffffff" stroke="#000000" points="143,-36 143,-66 271,-66 271,-36 143,-36"/>
<text text-anchor="start" x="151" y="-54" font-family="Helvetica,sans-Serif" font-size="10.00" fill="#000000">tensorflow::ConvertGraph</text>
<text text-anchor="middle" x="207" y="-43" font-family="Helvetica,sans-Serif" font-size="10.00" fill="#000000">DefToXla</text>
</a>
</g>
</g>
<!-- Node0&#45;&gt;Node1 -->
<g id="edge1" class="edge">
<title>Node0&#45;&gt;Node1</title>
<path fill="none" stroke="#191970" d="M107.1869,-51C115.4514,-51 124.1093,-51 132.7255,-51"/>
<polygon fill="#191970" stroke="#191970" points="132.7951,-54.5001 142.7951,-51 132.795,-47.5001 132.7951,-54.5001"/>
</g>
<!-- Node2 -->
<g id="node3" class="node">
<title>Node2</title>
<g id="a_node3"><a xlink:href="../../d3/dfa/namespacetensorflow_1_1anonymous__namespace_02tf2xla_8cc_03.html#aeef0cda05958b2b855b0e2fbe07b1314" target="_top" xlink:title="InitGraph creates a graph based on the graph_def, that may then be convert to an xla::Computation via...">
<polygon fill="#ffffff" stroke="#000000" points="307,-60.5 307,-101.5 426,-101.5 426,-60.5 307,-60.5"/>
<text text-anchor="start" x="315" y="-89.5" font-family="Helvetica,sans-Serif" font-size="10.00" fill="#000000">tensorflow::anonymous</text>
<text text-anchor="start" x="315" y="-78.5" font-family="Helvetica,sans-Serif" font-size="10.00" fill="#000000">_namespace{tf2xla::cc}</text>
<text text-anchor="middle" x="366.5" y="-67.5" font-family="Helvetica,sans-Serif" font-size="10.00" fill="#000000">::InitGraph</text>
</a>
</g>
</g>
<!-- Node1&#45;&gt;Node2 -->
<g id="edge2" class="edge">
<title>Node1&#45;&gt;Node2</title>
<path fill="none" stroke="#191970" d="M271.415,-63.1157C279.8043,-64.6936 288.4288,-66.3158 296.8981,-67.9087"/>
<polygon fill="#191970" stroke="#191970" points="296.271,-71.3521 306.7456,-69.7609 297.565,-64.4727 296.271,-71.3521"/>
</g>
<!-- Node6 -->
<g id="node7" class="node">
<title>Node6</title>
<g id="a_node7"><a xlink:href="../../d3/dfa/namespacetensorflow_1_1anonymous__namespace_02tf2xla_8cc_03.html#a8bea171341441170c6d6c7dbb0b3227d" target="_top" xlink:title="Converts the TensorFlow graph into an XLA computation, by executing the graph symbolically, with each op building up the XLA HLO. ">
<polygon fill="#ffffff" stroke="#000000" points="307,-.5 307,-41.5 426,-41.5 426,-.5 307,-.5"/>
<text text-anchor="start" x="315" y="-29.5" font-family="Helvetica,sans-Serif" font-size="10.00" fill="#000000">tensorflow::anonymous</text>
<text text-anchor="start" x="315" y="-18.5" font-family="Helvetica,sans-Serif" font-size="10.00" fill="#000000">_namespace{tf2xla::cc}</text>
<text text-anchor="middle" x="366.5" y="-7.5" font-family="Helvetica,sans-Serif" font-size="10.00" fill="#000000">::ConvertGraphToXla</text>
</a>
</g>
</g>
<!-- Node1&#45;&gt;Node6 -->
<g id="edge6" class="edge">
<title>Node1&#45;&gt;Node6</title>
<path fill="none" stroke="#191970" d="M271.415,-38.8843C279.8043,-37.3064 288.4288,-35.6842 296.8981,-34.0913"/>
<polygon fill="#191970" stroke="#191970" points="297.565,-37.5273 306.7456,-32.2391 296.271,-30.6479 297.565,-37.5273"/>
</g>
<!-- Node3 -->
<g id="node4" class="node">
<title>Node3</title>
<g id="a_node4"><a xlink:href="../../de/d86/namespacetensorflow.html#a491706512ccc1517e499cbdb810aa6ab" target="_top" xlink:title="Assign each NodeDefs of GraphDef default values Google Docs: Adds default attributes to NodeDefs in &#39;...">
<polygon fill="#ffffff" stroke="#000000" points="462,-115 462,-145 599,-145 599,-115 462,-115"/>
<text text-anchor="start" x="470" y="-133" font-family="Helvetica,sans-Serif" font-size="10.00" fill="#000000">tensorflow::AddDefaultAttrs</text>
<text text-anchor="middle" x="530.5" y="-122" font-family="Helvetica,sans-Serif" font-size="10.00" fill="#000000">ToGraphDef</text>
</a>
</g>
</g>
<!-- Node2&#45;&gt;Node3 -->
<g id="edge3" class="edge">
<title>Node2&#45;&gt;Node3</title>
<path fill="none" stroke="#191970" d="M426.1717,-98.8287C440.5334,-103.1197 455.8843,-107.7063 470.2712,-112.0048"/>
<polygon fill="#191970" stroke="#191970" points="469.4699,-115.4182 480.0534,-114.9275 471.4739,-108.7112 469.4699,-115.4182"/>
</g>
<!-- Node4 -->
<g id="node5" class="node">
<title>Node4</title>
<g id="a_node5"><a xlink:href="../../de/d86/namespacetensorflow.html#a43875c6284c3af69e7a420b67c7eec6b" target="_top" xlink:title="Convert GraphDef defined protobuf to type Graph ">
<polygon fill="#ffffff" stroke="#000000" points="466.5,-66 466.5,-96 594.5,-96 594.5,-66 466.5,-66"/>
<text text-anchor="start" x="474.5" y="-84" font-family="Helvetica,sans-Serif" font-size="10.00" fill="#000000">tensorflow::ConvertGraph</text>
<text text-anchor="middle" x="530.5" y="-73" font-family="Helvetica,sans-Serif" font-size="10.00" fill="#000000">DefToGraph</text>
</a>
</g>
</g>
<!-- Node2&#45;&gt;Node4 -->
<g id="edge4" class="edge">
<title>Node2&#45;&gt;Node4</title>
<path fill="none" stroke="#191970" d="M426.1717,-81C435.9942,-81 446.2794,-81 456.4025,-81"/>
<polygon fill="#191970" stroke="#191970" points="456.4484,-84.5001 466.4484,-81 456.4484,-77.5001 456.4484,-84.5001"/>
</g>
<!-- Node5 -->
<g id="node6" class="node">
<title>Node5</title>
<g id="a_node6"><a xlink:href="../../d3/dfa/namespacetensorflow_1_1anonymous__namespace_02tf2xla_8cc_03.html#af0d9ad360ae01cf7c15abe04de99b230" target="_top" xlink:title="tensorflow::anonymous\l_namespace\{tf2xla::cc\}\l::RewriteAndPruneGraph">
<polygon fill="#ffffff" stroke="#000000" points="468,-5.5 468,-46.5 593,-46.5 593,-5.5 468,-5.5"/>
<text text-anchor="start" x="476" y="-34.5" font-family="Helvetica,sans-Serif" font-size="10.00" fill="#000000">tensorflow::anonymous</text>
<text text-anchor="start" x="476" y="-23.5" font-family="Helvetica,sans-Serif" font-size="10.00" fill="#000000">_namespace{tf2xla::cc}</text>
<text text-anchor="middle" x="530.5" y="-12.5" font-family="Helvetica,sans-Serif" font-size="10.00" fill="#000000">::RewriteAndPruneGraph</text>
</a>
</g>
</g>
<!-- Node2&#45;&gt;Node5 -->
<g id="edge5" class="edge">
<title>Node2&#45;&gt;Node5</title>
<path fill="none" stroke="#191970" d="M426.1717,-60.9882C437.0095,-57.3535 448.4106,-53.53 459.5357,-49.799"/>
<polygon fill="#191970" stroke="#191970" points="460.852,-53.0492 469.2202,-46.5512 458.6263,-46.4125 460.852,-53.0492"/>
</g>
</g>
</svg>
