<?xml version="1.0" encoding="UTF-8" standalone="no"?>
<!DOCTYPE svg PUBLIC "-//W3C//DTD SVG 1.1//EN"
 "http://www.w3.org/Graphics/SVG/1.1/DTD/svg11.dtd">
<!-- Generated by graphviz version 2.40.1 (20161225.0304)
 -->
<!-- Title: tensorflow::tfcompile::CompileGraph Pages: 1 -->
<svg width="827pt" height="371pt"
 viewBox="0.00 0.00 827.00 371.00" xmlns="http://www.w3.org/2000/svg" xmlns:xlink="http://www.w3.org/1999/xlink">
<g id="graph0" class="graph" transform="scale(1 1) rotate(0) translate(4 367)">
<title>tensorflow::tfcompile::CompileGraph</title>
<polygon fill="#ffffff" stroke="transparent" points="-4,4 -4,-367 823,-367 823,4 -4,4"/>
<!-- Node0 -->
<g id="node1" class="node">
<title>Node0</title>
<polygon fill="#bfbfbf" stroke="#000000" points="0,-61 0,-91 107,-91 107,-61 0,-61"/>
<text text-anchor="start" x="8" y="-79" font-family="Helvetica,sans-Serif" font-size="10.00" fill="#000000">tensorflow::tfcompile</text>
<text text-anchor="middle" x="53.5" y="-68" font-family="Helvetica,sans-Serif" font-size="10.00" fill="#000000">::CompileGraph</text>
</g>
<!-- Node1 -->
<g id="node2" class="node">
<title>Node1</title>
<g id="a_node2"><a xlink:href="../../d5/ddb/classxla_1_1ClientLibrary.html#a5e940d153e6cfd72b34b2b8b89220f50" target="_top" xlink:title="xla::ClientLibrary\l::GetOrCreateCompileOnlyClient">
<polygon fill="#ffffff" stroke="#000000" points="143,-110 143,-140 303,-140 303,-110 143,-110"/>
<text text-anchor="start" x="151" y="-128" font-family="Helvetica,sans-Serif" font-size="10.00" fill="#000000">xla::ClientLibrary</text>
<text text-anchor="middle" x="223" y="-117" font-family="Helvetica,sans-Serif" font-size="10.00" fill="#000000">::GetOrCreateCompileOnlyClient</text>
</a>
</g>
</g>
<!-- Node0&#45;&gt;Node1 -->
<g id="edge1" class="edge">
<title>Node0&#45;&gt;Node1</title>
<path fill="none" stroke="#191970" d="M105.7387,-91.1014C123.3011,-96.1785 143.0591,-101.8902 161.2802,-107.1577"/>
<polygon fill="#191970" stroke="#191970" points="160.3552,-110.5335 170.9338,-109.9484 162.2992,-103.8089 160.3552,-110.5335"/>
</g>
<!-- Node2 -->
<g id="node3" class="node">
<title>Node2</title>
<g id="a_node3"><a xlink:href="../../de/d86/namespacetensorflow.html#a6f8fce5955ec6d67cd1762891d4830e9" target="_top" xlink:title="Convert tensorflow graph_def to XLA UserComputation. ">
<polygon fill="#ffffff" stroke="#000000" points="159,-61 159,-91 287,-91 287,-61 159,-61"/>
<text text-anchor="start" x="167" y="-79" font-family="Helvetica,sans-Serif" font-size="10.00" fill="#000000">tensorflow::ConvertGraph</text>
<text text-anchor="middle" x="223" y="-68" font-family="Helvetica,sans-Serif" font-size="10.00" fill="#000000">DefToXla</text>
</a>
</g>
</g>
<!-- Node0&#45;&gt;Node2 -->
<g id="edge2" class="edge">
<title>Node0&#45;&gt;Node2</title>
<path fill="none" stroke="#191970" d="M107.1309,-76C120.3206,-76 134.678,-76 148.6524,-76"/>
<polygon fill="#191970" stroke="#191970" points="148.7381,-79.5001 158.7381,-76 148.738,-72.5001 148.7381,-79.5001"/>
</g>
<!-- Node12 -->
<g id="node13" class="node">
<title>Node12</title>
<g id="a_node13"><a xlink:href="../../d4/df4/namespacetensorflow_1_1tfcompile_1_1anonymous__namespace_02compile_8cc_03.html#a40f8a019f31fa8cbe2fff5d90e69c21b" target="_top" xlink:title="Compiles the XLA computation into executable code. ">
<polygon fill="#ffffff" stroke="#000000" points="158.5,-.5 158.5,-41.5 287.5,-41.5 287.5,-.5 158.5,-.5"/>
<text text-anchor="start" x="166.5" y="-29.5" font-family="Helvetica,sans-Serif" font-size="10.00" fill="#000000">tensorflow::tfcompile</text>
<text text-anchor="start" x="166.5" y="-18.5" font-family="Helvetica,sans-Serif" font-size="10.00" fill="#000000">::anonymous_namespace</text>
<text text-anchor="middle" x="223" y="-7.5" font-family="Helvetica,sans-Serif" font-size="10.00" fill="#000000">{compile::cc}::CompileXla</text>
</a>
</g>
</g>
<!-- Node0&#45;&gt;Node12 -->
<g id="edge13" class="edge">
<title>Node0&#45;&gt;Node12</title>
<path fill="none" stroke="#191970" d="M99.8166,-60.971C115.2209,-55.9726 132.7745,-50.2767 149.7066,-44.7825"/>
<polygon fill="#191970" stroke="#191970" points="151.1516,-47.9934 159.5831,-41.5777 148.9911,-41.3351 151.1516,-47.9934"/>
</g>
<!-- Node3 -->
<g id="node4" class="node">
<title>Node3</title>
<g id="a_node4"><a xlink:href="../../d3/dfa/namespacetensorflow_1_1anonymous__namespace_02tf2xla_8cc_03.html#aeef0cda05958b2b855b0e2fbe07b1314" target="_top" xlink:title="InitGraph creates a graph based on the graph_def, that may then be convert to an xla::Computation via...">
<polygon fill="#ffffff" stroke="#000000" points="339,-206.5 339,-247.5 458,-247.5 458,-206.5 339,-206.5"/>
<text text-anchor="start" x="347" y="-235.5" font-family="Helvetica,sans-Serif" font-size="10.00" fill="#000000">tensorflow::anonymous</text>
<text text-anchor="start" x="347" y="-224.5" font-family="Helvetica,sans-Serif" font-size="10.00" fill="#000000">_namespace{tf2xla::cc}</text>
<text text-anchor="middle" x="398.5" y="-213.5" font-family="Helvetica,sans-Serif" font-size="10.00" fill="#000000">::InitGraph</text>
</a>
</g>
</g>
<!-- Node2&#45;&gt;Node3 -->
<g id="edge3" class="edge">
<title>Node2&#45;&gt;Node3</title>
<path fill="none" stroke="#191970" d="M285.1235,-91.0993C291.432,-93.8788 297.5235,-97.1514 303,-101 338.8681,-126.2058 367.1528,-169.004 383.3554,-197.6323"/>
<polygon fill="#191970" stroke="#191970" points="380.291,-199.3234 388.1857,-206.389 386.4203,-195.9423 380.291,-199.3234"/>
</g>
<!-- Node10 -->
<g id="node11" class="node">
<title>Node10</title>
<g id="a_node11"><a xlink:href="../../d3/dfa/namespacetensorflow_1_1anonymous__namespace_02tf2xla_8cc_03.html#a8bea171341441170c6d6c7dbb0b3227d" target="_top" xlink:title="Converts the TensorFlow graph into an XLA computation, by executing the graph symbolically, with each op building up the XLA HLO. ">
<polygon fill="#ffffff" stroke="#000000" points="339,-55.5 339,-96.5 458,-96.5 458,-55.5 339,-55.5"/>
<text text-anchor="start" x="347" y="-84.5" font-family="Helvetica,sans-Serif" font-size="10.00" fill="#000000">tensorflow::anonymous</text>
<text text-anchor="start" x="347" y="-73.5" font-family="Helvetica,sans-Serif" font-size="10.00" fill="#000000">_namespace{tf2xla::cc}</text>
<text text-anchor="middle" x="398.5" y="-62.5" font-family="Helvetica,sans-Serif" font-size="10.00" fill="#000000">::ConvertGraphToXla</text>
</a>
</g>
</g>
<!-- Node2&#45;&gt;Node10 -->
<g id="edge11" class="edge">
<title>Node2&#45;&gt;Node10</title>
<path fill="none" stroke="#191970" d="M287.3532,-76C300.7616,-76 314.9564,-76 328.5555,-76"/>
<polygon fill="#191970" stroke="#191970" points="328.8159,-79.5001 338.8158,-76 328.8158,-72.5001 328.8159,-79.5001"/>
</g>
<!-- Node4 -->
<g id="node5" class="node">
<title>Node4</title>
<g id="a_node5"><a xlink:href="../../de/d86/namespacetensorflow.html#aaeeec358e2be013353667dd7c0a6dbaa" target="_top" xlink:title="tensorflow::ValidateConfig">
<polygon fill="#ffffff" stroke="#000000" points="504.5,-343.5 504.5,-362.5 635.5,-362.5 635.5,-343.5 504.5,-343.5"/>
<text text-anchor="middle" x="570" y="-350.5" font-family="Helvetica,sans-Serif" font-size="10.00" fill="#000000">tensorflow::ValidateConfig</text>
</a>
</g>
</g>
<!-- Node3&#45;&gt;Node4 -->
<g id="edge4" class="edge">
<title>Node3&#45;&gt;Node4</title>
<path fill="none" stroke="#191970" d="M411.326,-247.7013C427.5457,-272.1068 457.7718,-312.1084 494,-334 497.6012,-336.1761 501.442,-338.1038 505.4118,-339.8112"/>
<polygon fill="#191970" stroke="#191970" points="504.266,-343.12 514.8569,-343.4089 506.7578,-336.5785 504.266,-343.12"/>
</g>
<!-- Node5 -->
<g id="node6" class="node">
<title>Node5</title>
<g id="a_node6"><a xlink:href="../../de/d86/namespacetensorflow.html#ac287ab9f1996e3d9086f8500c777ee9b" target="_top" xlink:title="Generate corresponding placeholder for each feed tensor. Traverse each inputs of each nodes...">
<polygon fill="#ffffff" stroke="#000000" points="499.5,-294 499.5,-324 640.5,-324 640.5,-294 499.5,-294"/>
<text text-anchor="start" x="507.5" y="-312" font-family="Helvetica,sans-Serif" font-size="10.00" fill="#000000">tensorflow::AddPlaceholders</text>
<text text-anchor="middle" x="570" y="-301" font-family="Helvetica,sans-Serif" font-size="10.00" fill="#000000">ForFeeds</text>
</a>
</g>
</g>
<!-- Node3&#45;&gt;Node5 -->
<g id="edge5" class="edge">
<title>Node3&#45;&gt;Node5</title>
<path fill="none" stroke="#191970" d="M433.7924,-247.5638C451.5821,-257.5813 473.6486,-269.4863 494,-279 502.1229,-282.7972 510.868,-286.5483 519.4328,-290.0445"/>
<polygon fill="#191970" stroke="#191970" points="518.3991,-293.4007 528.9834,-293.8724 521.0033,-286.9032 518.3991,-293.4007"/>
</g>
<!-- Node6 -->
<g id="node7" class="node">
<title>Node6</title>
<g id="a_node7"><a xlink:href="../../de/d86/namespacetensorflow.html#a491706512ccc1517e499cbdb810aa6ab" target="_top" xlink:title="Assign each NodeDefs of GraphDef default values. ">
<polygon fill="#ffffff" stroke="#000000" points="682,-272 682,-302 819,-302 819,-272 682,-272"/>
<text text-anchor="start" x="690" y="-290" font-family="Helvetica,sans-Serif" font-size="10.00" fill="#000000">tensorflow::AddDefaultAttrs</text>
<text text-anchor="middle" x="750.5" y="-279" font-family="Helvetica,sans-Serif" font-size="10.00" fill="#000000">ToGraphDef</text>
</a>
</g>
</g>
<!-- Node3&#45;&gt;Node6 -->
<g id="edge8" class="edge">
<title>Node3&#45;&gt;Node6</title>
<path fill="none" stroke="#191970" d="M458.0378,-239.2071C469.9343,-241.5441 482.3524,-243.9112 494,-246 553.5082,-256.6717 621.0329,-267.4102 671.8582,-275.2189"/>
<polygon fill="#191970" stroke="#191970" points="671.3787,-278.6862 681.7933,-276.7407 672.4386,-271.7669 671.3787,-278.6862"/>
</g>
<!-- Node7 -->
<g id="node8" class="node">
<title>Node7</title>
<g id="a_node8"><a xlink:href="../../de/d86/namespacetensorflow.html#ac09f7fb26bddd7564249fd5d1b255435" target="_top" xlink:title="Remove source nodes of feed tensor. Because they are removed at tensorflow::AddPlaceholdersForFeeds ...">
<polygon fill="#ffffff" stroke="#000000" points="494,-217.5 494,-236.5 646,-236.5 646,-217.5 494,-217.5"/>
<text text-anchor="middle" x="570" y="-224.5" font-family="Helvetica,sans-Serif" font-size="10.00" fill="#000000">tensorflow::PruneGraphDefInto</text>
</a>
</g>
</g>
<!-- Node3&#45;&gt;Node7 -->
<g id="edge7" class="edge">
<title>Node3&#45;&gt;Node7</title>
<path fill="none" stroke="#191970" d="M458.0011,-227C466.3453,-227 475.0565,-227 483.7743,-227"/>
<polygon fill="#191970" stroke="#191970" points="483.9897,-230.5001 493.9896,-227 483.9896,-223.5001 483.9897,-230.5001"/>
</g>
<!-- Node8 -->
<g id="node9" class="node">
<title>Node8</title>
<g id="a_node9"><a xlink:href="../../de/d86/namespacetensorflow.html#a43875c6284c3af69e7a420b67c7eec6b" target="_top" xlink:title="Convert GraphDef defined protobuf to type Graph ">
<polygon fill="#ffffff" stroke="#000000" points="506,-168 506,-198 634,-198 634,-168 506,-168"/>
<text text-anchor="start" x="514" y="-186" font-family="Helvetica,sans-Serif" font-size="10.00" fill="#000000">tensorflow::ConvertGraph</text>
<text text-anchor="middle" x="570" y="-175" font-family="Helvetica,sans-Serif" font-size="10.00" fill="#000000">DefToGraph</text>
</a>
</g>
</g>
<!-- Node3&#45;&gt;Node8 -->
<g id="edge9" class="edge">
<title>Node3&#45;&gt;Node8</title>
<path fill="none" stroke="#191970" d="M458.0011,-211.7344C472.0714,-208.1245 487.1852,-204.247 501.6143,-200.545"/>
<polygon fill="#191970" stroke="#191970" points="502.6567,-203.891 511.4731,-198.0156 500.917,-197.1106 502.6567,-203.891"/>
</g>
<!-- Node9 -->
<g id="node10" class="node">
<title>Node9</title>
<g id="a_node10"><a xlink:href="../../d3/dfa/namespacetensorflow_1_1anonymous__namespace_02tf2xla_8cc_03.html#af0d9ad360ae01cf7c15abe04de99b230" target="_top" xlink:title="tensorflow::anonymous\l_namespace\{tf2xla::cc\}\l::RewriteAndPruneGraph">
<polygon fill="#ffffff" stroke="#000000" points="507.5,-107.5 507.5,-148.5 632.5,-148.5 632.5,-107.5 507.5,-107.5"/>
<text text-anchor="start" x="515.5" y="-136.5" font-family="Helvetica,sans-Serif" font-size="10.00" fill="#000000">tensorflow::anonymous</text>
<text text-anchor="start" x="515.5" y="-125.5" font-family="Helvetica,sans-Serif" font-size="10.00" fill="#000000">_namespace{tf2xla::cc}</text>
<text text-anchor="middle" x="570" y="-114.5" font-family="Helvetica,sans-Serif" font-size="10.00" fill="#000000">::RewriteAndPruneGraph</text>
</a>
</g>
</g>
<!-- Node3&#45;&gt;Node9 -->
<g id="edge10" class="edge">
<title>Node3&#45;&gt;Node9</title>
<path fill="none" stroke="#191970" d="M424.1772,-206.2287C442.814,-191.7859 469.0349,-172.7368 494,-159 497.8976,-156.8554 501.9748,-154.7729 506.1298,-152.7691"/>
<polygon fill="#191970" stroke="#191970" points="507.709,-155.8949 515.3108,-148.5149 504.766,-149.5436 507.709,-155.8949"/>
</g>
<!-- Node5&#45;&gt;Node6 -->
<g id="edge6" class="edge">
<title>Node5&#45;&gt;Node6</title>
<path fill="none" stroke="#191970" d="M640.5615,-300.3997C650.7211,-299.1614 661.2306,-297.8805 671.5405,-296.6239"/>
<polygon fill="#191970" stroke="#191970" points="672.2603,-300.0621 681.7634,-295.3779 671.4134,-293.1135 672.2603,-300.0621"/>
</g>
<!-- Node11 -->
<g id="node12" class="node">
<title>Node11</title>
<g id="a_node12"><a xlink:href="../../d9/de9/classtensorflow_1_1XlaOpRegistry.html#a504bd86e27f0fedc9c5dcb82af983bfb" target="_top" xlink:title="tensorflow::XlaOpRegistry\l::RegisterCompilationKernels">
<polygon fill="#ffffff" stroke="#000000" points="498,-58 498,-88 642,-88 642,-58 498,-58"/>
<text text-anchor="start" x="506" y="-76" font-family="Helvetica,sans-Serif" font-size="10.00" fill="#000000">tensorflow::XlaOpRegistry</text>
<text text-anchor="middle" x="570" y="-65" font-family="Helvetica,sans-Serif" font-size="10.00" fill="#000000">::RegisterCompilationKernels</text>
</a>
</g>
</g>
<!-- Node10&#45;&gt;Node11 -->
<g id="edge12" class="edge">
<title>Node10&#45;&gt;Node11</title>
<path fill="none" stroke="#191970" d="M458.0011,-74.9592C467.6514,-74.7904 477.7925,-74.613 487.867,-74.4367"/>
<polygon fill="#191970" stroke="#191970" points="487.9613,-77.9357 497.8985,-74.2612 487.8388,-70.9368 487.9613,-77.9357"/>
</g>
<!-- Node13 -->
<g id="node14" class="node">
<title>Node13</title>
<g id="a_node14"><a xlink:href="../../d1/dd1/classxla_1_1CompileOnlyClient.html#a5a585d21f617b77a1cecc1b587d18d7a" target="_top" xlink:title="Compiles a list of computations for ahead&#45;of&#45;time execution. This is intended for use in static compi...">
<polygon fill="#ffffff" stroke="#000000" points="339,-6 339,-36 458,-36 458,-6 339,-6"/>
<text text-anchor="start" x="347" y="-24" font-family="Helvetica,sans-Serif" font-size="10.00" fill="#000000">xla::CompileOnlyClient</text>
<text text-anchor="middle" x="398.5" y="-13" font-family="Helvetica,sans-Serif" font-size="10.00" fill="#000000">::CompileAheadOfTime</text>
</a>
</g>
</g>
<!-- Node12&#45;&gt;Node13 -->
<g id="edge14" class="edge">
<title>Node12&#45;&gt;Node13</title>
<path fill="none" stroke="#191970" d="M287.8511,-21C301.1565,-21 315.2172,-21 328.6886,-21"/>
<polygon fill="#191970" stroke="#191970" points="328.8532,-24.5001 338.8532,-21 328.8531,-17.5001 328.8532,-24.5001"/>
</g>
<!-- Node14 -->
<g id="node15" class="node">
<title>Node14</title>
<g id="a_node15"><a xlink:href="../../dc/d07/classxla_1_1CompileOnlyService.html#aceb67616a89167b9af1bf23d17ec37c9" target="_top" xlink:title="xla::CompileOnlyService\l::CompileAheadOfTime">
<polygon fill="#ffffff" stroke="#000000" points="507.5,-6 507.5,-36 632.5,-36 632.5,-6 507.5,-6"/>
<text text-anchor="start" x="515.5" y="-24" font-family="Helvetica,sans-Serif" font-size="10.00" fill="#000000">xla::CompileOnlyService</text>
<text text-anchor="middle" x="570" y="-13" font-family="Helvetica,sans-Serif" font-size="10.00" fill="#000000">::CompileAheadOfTime</text>
</a>
</g>
</g>
<!-- Node13&#45;&gt;Node14 -->
<g id="edge15" class="edge">
<title>Node13&#45;&gt;Node14</title>
<path fill="none" stroke="#191970" d="M458.0011,-21C470.5968,-21 484.0287,-21 497.0571,-21"/>
<polygon fill="#191970" stroke="#191970" points="497.3955,-24.5001 507.3955,-21 497.3954,-17.5001 497.3955,-24.5001"/>
</g>
</g>
</svg>
