<?xml version="1.0" encoding="UTF-8" standalone="no"?>
<!DOCTYPE svg PUBLIC "-//W3C//DTD SVG 1.1//EN"
 "http://www.w3.org/Graphics/SVG/1.1/DTD/svg11.dtd">
<!-- Generated by graphviz version 2.40.1 (20161225.0304)
 -->
<!-- Title: tensorflow/tensorflow/compiler/tf2xla/xla_resource.h Pages: 1 -->
<svg width="2838pt" height="195pt"
 viewBox="0.00 0.00 2838.50 195.00" xmlns="http://www.w3.org/2000/svg" xmlns:xlink="http://www.w3.org/1999/xlink">
<g id="graph0" class="graph" transform="scale(1 1) rotate(0) translate(4 191)">
<title>tensorflow/tensorflow/compiler/tf2xla/xla_resource.h</title>
<polygon fill="#ffffff" stroke="transparent" points="-4,4 -4,-191 2834.5,-191 2834.5,4 -4,4"/>
<!-- Node0 -->
<g id="node1" class="node">
<title>Node0</title>
<polygon fill="#bfbfbf" stroke="#000000" points="1348,-145.5 1348,-186.5 1470,-186.5 1470,-145.5 1348,-145.5"/>
<text text-anchor="start" x="1356" y="-174.5" font-family="Helvetica,sans-Serif" font-size="10.00" fill="#000000">tensorflow/tensorflow</text>
<text text-anchor="start" x="1356" y="-163.5" font-family="Helvetica,sans-Serif" font-size="10.00" fill="#000000">/compiler/tf2xla/xla</text>
<text text-anchor="middle" x="1409" y="-152.5" font-family="Helvetica,sans-Serif" font-size="10.00" fill="#000000">_resource.h</text>
</g>
<!-- Node1 -->
<g id="node2" class="node">
<title>Node1</title>
<polygon fill="#ffffff" stroke="#bfbfbf" points="0,-6 0,-25 58,-25 58,-6 0,-6"/>
<text text-anchor="middle" x="29" y="-13" font-family="Helvetica,sans-Serif" font-size="10.00" fill="#000000">memory</text>
</g>
<!-- Node0&#45;&gt;Node1 -->
<g id="edge1" class="edge">
<title>Node0&#45;&gt;Node1</title>
<path fill="none" stroke="#191970" d="M1347.815,-162.1835C1119.2002,-147.5612 315.5423,-92.8181 67,-31 64.3683,-30.3454 61.6791,-29.5428 59.0077,-28.6508"/>
<polygon fill="#191970" stroke="#191970" points="60.1384,-25.3371 49.5455,-25.1324 57.6987,-31.8982 60.1384,-25.3371"/>
</g>
<!-- Node2 -->
<g id="node3" class="node">
<title>Node2</title>
<g id="a_node3"><a xlink:href="../../d0/d18/computation__builder_8h.html" target="_top" xlink:title="tensorflow/compiler\l/xla/client/computation\l_builder.h">
<polygon fill="#ffffff" stroke="#000000" points="1200.5,-67.5 1200.5,-108.5 1329.5,-108.5 1329.5,-67.5 1200.5,-67.5"/>
<text text-anchor="start" x="1208.5" y="-96.5" font-family="Helvetica,sans-Serif" font-size="10.00" fill="#000000">tensorflow/compiler</text>
<text text-anchor="start" x="1208.5" y="-85.5" font-family="Helvetica,sans-Serif" font-size="10.00" fill="#000000">/xla/client/computation</text>
<text text-anchor="middle" x="1265" y="-74.5" font-family="Helvetica,sans-Serif" font-size="10.00" fill="#000000">_builder.h</text>
</a>
</g>
</g>
<!-- Node0&#45;&gt;Node2 -->
<g id="edge2" class="edge">
<title>Node0&#45;&gt;Node2</title>
<path fill="none" stroke="#191970" d="M1370.7887,-145.3022C1352.6623,-135.4838 1330.8409,-123.6638 1311.7368,-113.3158"/>
<polygon fill="#191970" stroke="#191970" points="1313.3501,-110.2092 1302.8902,-108.5239 1310.0161,-116.3643 1313.3501,-110.2092"/>
</g>
<!-- Node18 -->
<g id="node19" class="node">
<title>Node18</title>
<polygon fill="#ffffff" stroke="#bfbfbf" points="2717.5,-.5 2717.5,-30.5 2830.5,-30.5 2830.5,-.5 2717.5,-.5"/>
<text text-anchor="start" x="2725.5" y="-18.5" font-family="Helvetica,sans-Serif" font-size="10.00" fill="#000000">tensorflow/compiler</text>
<text text-anchor="middle" x="2774" y="-7.5" font-family="Helvetica,sans-Serif" font-size="10.00" fill="#000000">/xla/xla_data.pb.h</text>
</g>
<!-- Node0&#45;&gt;Node18 -->
<g id="edge26" class="edge">
<title>Node0&#45;&gt;Node18</title>
<path fill="none" stroke="#191970" d="M1391.8641,-145.4612C1375.5145,-123.3104 1356.212,-88.3574 1377,-67 1427.1204,-15.5067 2565.8737,-39.1421 2707.3786,-30.5891"/>
<polygon fill="#191970" stroke="#191970" points="2707.7463,-34.0705 2717.4084,-29.7238 2707.1446,-27.0964 2707.7463,-34.0705"/>
</g>
<!-- Node25 -->
<g id="node26" class="node">
<title>Node25</title>
<polygon fill="#ffffff" stroke="#bfbfbf" points="1386,-73 1386,-103 1534,-103 1534,-73 1386,-73"/>
<text text-anchor="start" x="1394" y="-91" font-family="Helvetica,sans-Serif" font-size="10.00" fill="#000000">tensorflow/core/framework</text>
<text text-anchor="middle" x="1460" y="-80" font-family="Helvetica,sans-Serif" font-size="10.00" fill="#000000">/tensor_shape.h</text>
</g>
<!-- Node0&#45;&gt;Node25 -->
<g id="edge27" class="edge">
<title>Node0&#45;&gt;Node25</title>
<path fill="none" stroke="#191970" d="M1422.6671,-145.0974C1429.398,-134.803 1437.5423,-122.3471 1444.5042,-111.6994"/>
<polygon fill="#191970" stroke="#191970" points="1447.474,-113.553 1450.0172,-103.2679 1441.6152,-109.7222 1447.474,-113.553"/>
</g>
<!-- Node26 -->
<g id="node27" class="node">
<title>Node26</title>
<polygon fill="#ffffff" stroke="#bfbfbf" points="1552,-73 1552,-103 1700,-103 1700,-73 1552,-73"/>
<text text-anchor="start" x="1560" y="-91" font-family="Helvetica,sans-Serif" font-size="10.00" fill="#000000">tensorflow/core/framework</text>
<text text-anchor="middle" x="1626" y="-80" font-family="Helvetica,sans-Serif" font-size="10.00" fill="#000000">/types.pb.h</text>
</g>
<!-- Node0&#45;&gt;Node26 -->
<g id="edge28" class="edge">
<title>Node0&#45;&gt;Node26</title>
<path fill="none" stroke="#191970" d="M1466.298,-145.4044C1499.8678,-133.3378 1541.9225,-118.2214 1574.4485,-106.53"/>
<polygon fill="#191970" stroke="#191970" points="1575.9903,-109.6951 1584.2169,-103.0188 1573.6225,-103.1078 1575.9903,-109.6951"/>
</g>
<!-- Node27 -->
<g id="node28" class="node">
<title>Node27</title>
<polygon fill="#ffffff" stroke="#bfbfbf" points="1718.5,-73 1718.5,-103 1825.5,-103 1825.5,-73 1718.5,-73"/>
<text text-anchor="start" x="1726.5" y="-91" font-family="Helvetica,sans-Serif" font-size="10.00" fill="#000000">tensorflow/core/lib</text>
<text text-anchor="middle" x="1772" y="-80" font-family="Helvetica,sans-Serif" font-size="10.00" fill="#000000">/core/status.h</text>
</g>
<!-- Node0&#45;&gt;Node27 -->
<g id="edge29" class="edge">
<title>Node0&#45;&gt;Node27</title>
<path fill="none" stroke="#191970" d="M1470.1512,-156.8464C1531.1536,-147.1393 1627.2983,-130.2763 1709,-109 1712.5563,-108.0739 1716.2037,-107.0528 1719.8644,-105.9748"/>
<polygon fill="#191970" stroke="#191970" points="1720.995,-109.2891 1729.532,-103.0144 1718.9454,-102.5959 1720.995,-109.2891"/>
</g>
<!-- Node2&#45;&gt;Node1 -->
<g id="edge5" class="edge">
<title>Node2&#45;&gt;Node1</title>
<path fill="none" stroke="#191970" d="M1200.1704,-86.2003C966.8236,-79.5459 177.682,-55.4508 67,-31 64.1302,-30.366 61.1985,-29.5339 58.2996,-28.584"/>
<polygon fill="#191970" stroke="#191970" points="59.2992,-25.2216 48.7063,-25.0172 56.8597,-31.7828 59.2992,-25.2216"/>
</g>
<!-- Node3 -->
<g id="node4" class="node">
<title>Node3</title>
<polygon fill="#ffffff" stroke="#bfbfbf" points="76.5,-6 76.5,-25 141.5,-25 141.5,-6 76.5,-6"/>
<text text-anchor="middle" x="109" y="-13" font-family="Helvetica,sans-Serif" font-size="10.00" fill="#000000">functional</text>
</g>
<!-- Node2&#45;&gt;Node3 -->
<g id="edge3" class="edge">
<title>Node2&#45;&gt;Node3</title>
<path fill="none" stroke="#191970" d="M1200.1195,-85.8562C977.4748,-78.3376 252.5678,-52.4607 150,-31 146.7972,-30.3299 143.5135,-29.4475 140.2666,-28.4432"/>
<polygon fill="#191970" stroke="#191970" points="141.3482,-25.1139 130.7535,-25.1544 139.061,-31.7298 141.3482,-25.1139"/>
</g>
<!-- Node4 -->
<g id="node5" class="node">
<title>Node4</title>
<polygon fill="#ffffff" stroke="#bfbfbf" points="159.5,-6 159.5,-25 242.5,-25 242.5,-6 159.5,-6"/>
<text text-anchor="middle" x="201" y="-13" font-family="Helvetica,sans-Serif" font-size="10.00" fill="#000000">initializer_list</text>
</g>
<!-- Node2&#45;&gt;Node4 -->
<g id="edge4" class="edge">
<title>Node2&#45;&gt;Node4</title>
<path fill="none" stroke="#191970" d="M1200.4401,-86.3822C1007.1966,-81.2213 435.4091,-63.5475 252,-31 247.2932,-30.1647 242.4094,-29.0355 237.6117,-27.7648"/>
<polygon fill="#191970" stroke="#191970" points="238.5457,-24.3917 227.9688,-25.0071 236.6209,-31.1219 238.5457,-24.3917"/>
</g>
<!-- Node5 -->
<g id="node6" class="node">
<title>Node5</title>
<polygon fill="#ffffff" stroke="#bfbfbf" points="261,-6 261,-25 305,-25 305,-6 261,-6"/>
<text text-anchor="middle" x="283" y="-13" font-family="Helvetica,sans-Serif" font-size="10.00" fill="#000000">string</text>
</g>
<!-- Node2&#45;&gt;Node5 -->
<g id="edge6" class="edge">
<title>Node2&#45;&gt;Node5</title>
<path fill="none" stroke="#191970" d="M1200.3691,-85.6316C1000.2283,-78.0879 399.0257,-53.7787 314,-31 312.2818,-30.5397 310.547,-29.979 308.8224,-29.3472"/>
<polygon fill="#191970" stroke="#191970" points="309.8069,-25.9577 299.2424,-25.156 307.0011,-32.3708 309.8069,-25.9577"/>
</g>
<!-- Node6 -->
<g id="node7" class="node">
<title>Node6</title>
<polygon fill="#ffffff" stroke="#bfbfbf" points="323.5,-6 323.5,-25 368.5,-25 368.5,-6 323.5,-6"/>
<text text-anchor="middle" x="346" y="-13" font-family="Helvetica,sans-Serif" font-size="10.00" fill="#000000">utility</text>
</g>
<!-- Node2&#45;&gt;Node6 -->
<g id="edge7" class="edge">
<title>Node2&#45;&gt;Node6</title>
<path fill="none" stroke="#191970" d="M1200.3691,-87.1745C1023.1474,-84.3843 532.3818,-72.9802 377,-31 375.2827,-30.536 373.5487,-29.9725 371.8246,-29.3387"/>
<polygon fill="#191970" stroke="#191970" points="372.8102,-25.9493 362.2462,-25.142 370.001,-32.3609 372.8102,-25.9493"/>
</g>
<!-- Node7 -->
<g id="node8" class="node">
<title>Node7</title>
<polygon fill="#ffffff" stroke="#bfbfbf" points="386.5,-.5 386.5,-30.5 499.5,-30.5 499.5,-.5 386.5,-.5"/>
<text text-anchor="start" x="394.5" y="-18.5" font-family="Helvetica,sans-Serif" font-size="10.00" fill="#000000">tensorflow/compiler</text>
<text text-anchor="middle" x="443" y="-7.5" font-family="Helvetica,sans-Serif" font-size="10.00" fill="#000000">/xla/array.h</text>
</g>
<!-- Node2&#45;&gt;Node7 -->
<g id="edge8" class="edge">
<title>Node2&#45;&gt;Node7</title>
<path fill="none" stroke="#191970" d="M1200.2993,-86.5891C1070.6912,-83.0123 770.0216,-70.9426 509.639,-31.1107"/>
<polygon fill="#191970" stroke="#191970" points="510.0325,-27.63 499.615,-29.5604 508.9625,-34.5478 510.0325,-27.63"/>
</g>
<!-- Node8 -->
<g id="node9" class="node">
<title>Node8</title>
<polygon fill="#ffffff" stroke="#bfbfbf" points="517.5,-.5 517.5,-30.5 630.5,-30.5 630.5,-.5 517.5,-.5"/>
<text text-anchor="start" x="525.5" y="-18.5" font-family="Helvetica,sans-Serif" font-size="10.00" fill="#000000">tensorflow/compiler</text>
<text text-anchor="middle" x="574" y="-7.5" font-family="Helvetica,sans-Serif" font-size="10.00" fill="#000000">/xla/array2d.h</text>
</g>
<!-- Node2&#45;&gt;Node8 -->
<g id="edge9" class="edge">
<title>Node2&#45;&gt;Node8</title>
<path fill="none" stroke="#191970" d="M1200.1806,-85.1631C1087.8843,-79.5779 849.8593,-64.7862 640.5674,-31.1246"/>
<polygon fill="#191970" stroke="#191970" points="641.0557,-27.6581 630.6235,-29.5073 639.9319,-34.5673 641.0557,-27.6581"/>
</g>
<!-- Node9 -->
<g id="node10" class="node">
<title>Node9</title>
<polygon fill="#ffffff" stroke="#bfbfbf" points="648.5,-.5 648.5,-30.5 761.5,-30.5 761.5,-.5 648.5,-.5"/>
<text text-anchor="start" x="656.5" y="-18.5" font-family="Helvetica,sans-Serif" font-size="10.00" fill="#000000">tensorflow/compiler</text>
<text text-anchor="middle" x="705" y="-7.5" font-family="Helvetica,sans-Serif" font-size="10.00" fill="#000000">/xla/array3d.h</text>
</g>
<!-- Node2&#45;&gt;Node9 -->
<g id="edge10" class="edge">
<title>Node2&#45;&gt;Node9</title>
<path fill="none" stroke="#191970" d="M1200.1738,-83.0215C1107.2109,-75.3323 930.569,-58.6773 771.5982,-31.1689"/>
<polygon fill="#191970" stroke="#191970" points="772.0907,-27.7019 761.6372,-29.4267 770.8847,-34.5973 772.0907,-27.7019"/>
</g>
<!-- Node10 -->
<g id="node11" class="node">
<title>Node10</title>
<polygon fill="#ffffff" stroke="#bfbfbf" points="779.5,-.5 779.5,-30.5 892.5,-30.5 892.5,-.5 779.5,-.5"/>
<text text-anchor="start" x="787.5" y="-18.5" font-family="Helvetica,sans-Serif" font-size="10.00" fill="#000000">tensorflow/compiler</text>
<text text-anchor="middle" x="836" y="-7.5" font-family="Helvetica,sans-Serif" font-size="10.00" fill="#000000">/xla/array4d.h</text>
</g>
<!-- Node2&#45;&gt;Node10 -->
<g id="edge11" class="edge">
<title>Node2&#45;&gt;Node10</title>
<path fill="none" stroke="#191970" d="M1200.2927,-79.4361C1129.4379,-69.7057 1012.2883,-52.5844 902.5748,-31.2341"/>
<polygon fill="#191970" stroke="#191970" points="903.1496,-27.7803 892.6628,-29.2895 901.8019,-34.6493 903.1496,-27.7803"/>
</g>
<!-- Node11 -->
<g id="node12" class="node">
<title>Node11</title>
<polygon fill="#ffffff" stroke="#bfbfbf" points="910.5,-.5 910.5,-30.5 1023.5,-30.5 1023.5,-.5 910.5,-.5"/>
<text text-anchor="start" x="918.5" y="-18.5" font-family="Helvetica,sans-Serif" font-size="10.00" fill="#000000">tensorflow/compiler</text>
<text text-anchor="middle" x="967" y="-7.5" font-family="Helvetica,sans-Serif" font-size="10.00" fill="#000000">/xla/client/client.h</text>
</g>
<!-- Node2&#45;&gt;Node11 -->
<g id="edge12" class="edge">
<title>Node2&#45;&gt;Node11</title>
<path fill="none" stroke="#191970" d="M1200.3384,-72.2686C1151.0132,-60.2683 1083.3016,-43.7948 1033.5218,-31.684"/>
<polygon fill="#191970" stroke="#191970" points="1034.0445,-28.2091 1023.5005,-29.2459 1032.3897,-35.0107 1034.0445,-28.2091"/>
</g>
<!-- Node12 -->
<g id="node13" class="node">
<title>Node12</title>
<polygon fill="#ffffff" stroke="#bfbfbf" points="1042,-.5 1042,-30.5 1180,-30.5 1180,-.5 1042,-.5"/>
<text text-anchor="start" x="1050" y="-18.5" font-family="Helvetica,sans-Serif" font-size="10.00" fill="#000000">tensorflow/compiler</text>
<text text-anchor="middle" x="1111" y="-7.5" font-family="Helvetica,sans-Serif" font-size="10.00" fill="#000000">/xla/client/computation.h</text>
</g>
<!-- Node2&#45;&gt;Node12 -->
<g id="edge13" class="edge">
<title>Node2&#45;&gt;Node12</title>
<path fill="none" stroke="#191970" d="M1221.2817,-67.4183C1199.5926,-57.2075 1173.5409,-44.943 1152.2052,-34.8986"/>
<polygon fill="#191970" stroke="#191970" points="1153.6109,-31.6919 1143.0726,-30.5991 1150.6293,-38.0252 1153.6109,-31.6919"/>
</g>
<!-- Node13 -->
<g id="node14" class="node">
<title>Node13</title>
<polygon fill="#ffffff" stroke="#bfbfbf" points="1198,-.5 1198,-30.5 1332,-30.5 1332,-.5 1198,-.5"/>
<text text-anchor="start" x="1206" y="-18.5" font-family="Helvetica,sans-Serif" font-size="10.00" fill="#000000">tensorflow/compiler</text>
<text text-anchor="middle" x="1265" y="-7.5" font-family="Helvetica,sans-Serif" font-size="10.00" fill="#000000">/xla/client/global_data.h</text>
</g>
<!-- Node2&#45;&gt;Node13 -->
<g id="edge14" class="edge">
<title>Node2&#45;&gt;Node13</title>
<path fill="none" stroke="#191970" d="M1265,-67.4183C1265,-59.0849 1265,-49.3834 1265,-40.6373"/>
<polygon fill="#191970" stroke="#191970" points="1268.5001,-40.5991 1265,-30.5991 1261.5001,-40.5991 1268.5001,-40.5991"/>
</g>
<!-- Node14 -->
<g id="node15" class="node">
<title>Node14</title>
<polygon fill="#ffffff" stroke="#bfbfbf" points="1350,-.5 1350,-30.5 1466,-30.5 1466,-.5 1350,-.5"/>
<text text-anchor="start" x="1358" y="-18.5" font-family="Helvetica,sans-Serif" font-size="10.00" fill="#000000">tensorflow/compiler</text>
<text text-anchor="middle" x="1408" y="-7.5" font-family="Helvetica,sans-Serif" font-size="10.00" fill="#000000">/xla/client/padding.h</text>
</g>
<!-- Node2&#45;&gt;Node14 -->
<g id="edge15" class="edge">
<title>Node2&#45;&gt;Node14</title>
<path fill="none" stroke="#191970" d="M1305.5956,-67.4183C1325.5549,-57.2991 1349.4927,-45.1628 1369.2039,-35.1694"/>
<polygon fill="#191970" stroke="#191970" points="1370.8818,-38.2428 1378.2183,-30.5991 1367.7164,-31.9994 1370.8818,-38.2428"/>
</g>
<!-- Node15 -->
<g id="node16" class="node">
<title>Node15</title>
<polygon fill="#ffffff" stroke="#bfbfbf" points="1484.5,-.5 1484.5,-30.5 1597.5,-30.5 1597.5,-.5 1484.5,-.5"/>
<text text-anchor="start" x="1492.5" y="-18.5" font-family="Helvetica,sans-Serif" font-size="10.00" fill="#000000">tensorflow/compiler</text>
<text text-anchor="middle" x="1541" y="-7.5" font-family="Helvetica,sans-Serif" font-size="10.00" fill="#000000">/xla/literal_util.h</text>
</g>
<!-- Node2&#45;&gt;Node15 -->
<g id="edge16" class="edge">
<title>Node2&#45;&gt;Node15</title>
<path fill="none" stroke="#191970" d="M1329.6636,-70.7878C1334.5144,-69.5037 1339.3343,-68.23 1344,-67 1387.3028,-55.5845 1435.9887,-42.856 1474.1266,-32.9092"/>
<polygon fill="#191970" stroke="#191970" points="1475.2933,-36.2221 1484.0867,-30.3122 1473.5272,-29.4486 1475.2933,-36.2221"/>
</g>
<!-- Node16 -->
<g id="node17" class="node">
<title>Node16</title>
<polygon fill="#ffffff" stroke="#bfbfbf" points="1615.5,-.5 1615.5,-30.5 1728.5,-30.5 1728.5,-.5 1615.5,-.5"/>
<text text-anchor="start" x="1623.5" y="-18.5" font-family="Helvetica,sans-Serif" font-size="10.00" fill="#000000">tensorflow/compiler</text>
<text text-anchor="middle" x="1672" y="-7.5" font-family="Helvetica,sans-Serif" font-size="10.00" fill="#000000">/xla/statusor.h</text>
</g>
<!-- Node2&#45;&gt;Node16 -->
<g id="edge17" class="edge">
<title>Node2&#45;&gt;Node16</title>
<path fill="none" stroke="#191970" d="M1329.5165,-70.1534C1334.4013,-69.016 1339.2691,-67.9488 1344,-67 1456.5125,-44.4355 1489.2576,-52.246 1605.3569,-31.1993"/>
<polygon fill="#191970" stroke="#191970" points="1606.1513,-34.6119 1615.3497,-29.3545 1604.8804,-27.7282 1606.1513,-34.6119"/>
</g>
<!-- Node17 -->
<g id="node18" class="node">
<title>Node17</title>
<polygon fill="#ffffff" stroke="#bfbfbf" points="1746.5,-.5 1746.5,-30.5 1859.5,-30.5 1859.5,-.5 1746.5,-.5"/>
<text text-anchor="start" x="1754.5" y="-18.5" font-family="Helvetica,sans-Serif" font-size="10.00" fill="#000000">tensorflow/compiler</text>
<text text-anchor="middle" x="1803" y="-7.5" font-family="Helvetica,sans-Serif" font-size="10.00" fill="#000000">/xla/types.h</text>
</g>
<!-- Node2&#45;&gt;Node17 -->
<g id="edge18" class="edge">
<title>Node2&#45;&gt;Node17</title>
<path fill="none" stroke="#191970" d="M1329.903,-69.8179C1334.6535,-68.7733 1339.3887,-67.8175 1344,-67 1513.928,-36.8736 1562.6789,-58.6255 1736.3885,-31.1198"/>
<polygon fill="#191970" stroke="#191970" points="1737.0625,-34.5564 1746.3763,-29.5063 1735.9461,-27.646 1737.0625,-34.5564"/>
</g>
<!-- Node2&#45;&gt;Node18 -->
<g id="edge19" class="edge">
<title>Node2&#45;&gt;Node18</title>
<path fill="none" stroke="#191970" d="M1329.8483,-69.4772C1334.6116,-68.5125 1339.3646,-67.6678 1344,-67 1941.3024,19.0567 2105.4216,-108.3638 2707.1726,-31.0553"/>
<polygon fill="#191970" stroke="#191970" points="2707.9428,-34.4848 2717.4087,-29.726 2707.0412,-27.5431 2707.9428,-34.4848"/>
</g>
<!-- Node19 -->
<g id="node20" class="node">
<title>Node19</title>
<polygon fill="#ffffff" stroke="#bfbfbf" points="1877.5,-.5 1877.5,-30.5 1984.5,-30.5 1984.5,-.5 1877.5,-.5"/>
<text text-anchor="start" x="1885.5" y="-18.5" font-family="Helvetica,sans-Serif" font-size="10.00" fill="#000000">tensorflow/core/lib</text>
<text text-anchor="middle" x="1931" y="-7.5" font-family="Helvetica,sans-Serif" font-size="10.00" fill="#000000">/core/bitmap.h</text>
</g>
<!-- Node2&#45;&gt;Node19 -->
<g id="edge20" class="edge">
<title>Node2&#45;&gt;Node19</title>
<path fill="none" stroke="#191970" d="M1329.8826,-69.6989C1334.6379,-68.6822 1339.3797,-67.7653 1344,-67 1571.4705,-29.3242 1636.1603,-66.4232 1867.2874,-31.0955"/>
<polygon fill="#191970" stroke="#191970" points="1868.0087,-34.5254 1877.3508,-29.5279 1866.9312,-27.6088 1868.0087,-34.5254"/>
</g>
<!-- Node20 -->
<g id="node21" class="node">
<title>Node20</title>
<polygon fill="#ffffff" stroke="#bfbfbf" points="2002.5,-.5 2002.5,-30.5 2109.5,-30.5 2109.5,-.5 2002.5,-.5"/>
<text text-anchor="start" x="2010.5" y="-18.5" font-family="Helvetica,sans-Serif" font-size="10.00" fill="#000000">tensorflow/core/lib</text>
<text text-anchor="middle" x="2056" y="-7.5" font-family="Helvetica,sans-Serif" font-size="10.00" fill="#000000">/core/stringpiece.h</text>
</g>
<!-- Node2&#45;&gt;Node20 -->
<g id="edge21" class="edge">
<title>Node2&#45;&gt;Node20</title>
<path fill="none" stroke="#191970" d="M1329.8714,-69.6298C1334.6293,-68.6293 1339.3748,-67.7349 1344,-67 1626.3986,-22.1301 1706.0631,-73.0598 1992.0948,-31.1039"/>
<polygon fill="#191970" stroke="#191970" points="1992.9839,-34.51 2002.3576,-29.5719 1991.9504,-27.5867 1992.9839,-34.51"/>
</g>
<!-- Node21 -->
<g id="node22" class="node">
<title>Node21</title>
<polygon fill="#ffffff" stroke="#bfbfbf" points="2127.5,-.5 2127.5,-30.5 2234.5,-30.5 2234.5,-.5 2127.5,-.5"/>
<text text-anchor="start" x="2135.5" y="-18.5" font-family="Helvetica,sans-Serif" font-size="10.00" fill="#000000">tensorflow/core/lib</text>
<text text-anchor="middle" x="2181" y="-7.5" font-family="Helvetica,sans-Serif" font-size="10.00" fill="#000000">/gtl/array_slice.h</text>
</g>
<!-- Node2&#45;&gt;Node21 -->
<g id="edge22" class="edge">
<title>Node2&#45;&gt;Node21</title>
<path fill="none" stroke="#191970" d="M1329.864,-69.5829C1334.6237,-68.5934 1339.3716,-67.7143 1344,-67 1681.537,-14.9099 1776.043,-79.8031 2117.4474,-31.0397"/>
<polygon fill="#191970" stroke="#191970" points="2117.968,-34.5009 2127.362,-29.6017 2116.9632,-27.5734 2117.968,-34.5009"/>
</g>
<!-- Node22 -->
<g id="node23" class="node">
<title>Node22</title>
<polygon fill="#ffffff" stroke="#bfbfbf" points="2252.5,-.5 2252.5,-30.5 2389.5,-30.5 2389.5,-.5 2252.5,-.5"/>
<text text-anchor="start" x="2260.5" y="-18.5" font-family="Helvetica,sans-Serif" font-size="10.00" fill="#000000">tensorflow/core/platform</text>
<text text-anchor="middle" x="2321" y="-7.5" font-family="Helvetica,sans-Serif" font-size="10.00" fill="#000000">/macros.h</text>
</g>
<!-- Node2&#45;&gt;Node22 -->
<g id="edge23" class="edge">
<title>Node2&#45;&gt;Node22</title>
<path fill="none" stroke="#191970" d="M1329.8589,-69.549C1334.6197,-68.5674 1339.3693,-67.6994 1344,-67 1736.5452,-7.7141 1844.7348,-77.4726 2242.1986,-31.0925"/>
<polygon fill="#191970" stroke="#191970" points="2242.7214,-34.5552 2252.2403,-29.9033 2241.8981,-27.6037 2242.7214,-34.5552"/>
</g>
<!-- Node23 -->
<g id="node24" class="node">
<title>Node23</title>
<polygon fill="#ffffff" stroke="#bfbfbf" points="2407.5,-.5 2407.5,-30.5 2544.5,-30.5 2544.5,-.5 2407.5,-.5"/>
<text text-anchor="start" x="2415.5" y="-18.5" font-family="Helvetica,sans-Serif" font-size="10.00" fill="#000000">tensorflow/core/platform</text>
<text text-anchor="middle" x="2476" y="-7.5" font-family="Helvetica,sans-Serif" font-size="10.00" fill="#000000">/stacktrace.h</text>
</g>
<!-- Node2&#45;&gt;Node23 -->
<g id="edge24" class="edge">
<title>Node2&#45;&gt;Node23</title>
<path fill="none" stroke="#191970" d="M1329.8542,-69.518C1334.6162,-68.5437 1339.3673,-67.6858 1344,-67 1804.8186,1.2147 1931.226,-84.2498 2397.2222,-31.0822"/>
<polygon fill="#191970" stroke="#191970" points="2397.7109,-34.5491 2407.2427,-29.9236 2396.9069,-27.5954 2397.7109,-34.5491"/>
</g>
<!-- Node24 -->
<g id="node25" class="node">
<title>Node24</title>
<polygon fill="#ffffff" stroke="#bfbfbf" points="2562.5,-.5 2562.5,-30.5 2699.5,-30.5 2699.5,-.5 2562.5,-.5"/>
<text text-anchor="start" x="2570.5" y="-18.5" font-family="Helvetica,sans-Serif" font-size="10.00" fill="#000000">tensorflow/core/platform</text>
<text text-anchor="middle" x="2631" y="-7.5" font-family="Helvetica,sans-Serif" font-size="10.00" fill="#000000">/types.h</text>
</g>
<!-- Node2&#45;&gt;Node24 -->
<g id="edge25" class="edge">
<title>Node2&#45;&gt;Node24</title>
<path fill="none" stroke="#191970" d="M1329.8508,-69.495C1334.6136,-68.5261 1339.3658,-67.6757 1344,-67 1873.0075,10.1287 2017.656,-91.0051 2551.9569,-31.1064"/>
<polygon fill="#191970" stroke="#191970" points="2552.703,-34.5443 2562.2445,-29.9387 2551.9135,-27.5889 2552.703,-34.5443"/>
</g>
</g>
</svg>
