<?xml version="1.0" encoding="UTF-8" standalone="no"?>
<!DOCTYPE svg PUBLIC "-//W3C//DTD SVG 1.1//EN"
 "http://www.w3.org/Graphics/SVG/1.1/DTD/svg11.dtd">
<!-- Generated by graphviz version 2.40.1 (20161225.0304)
 -->
<!-- Title: xla::ClientLibrary::Singleton Pages: 1 -->
<svg width="654pt" height="186pt"
 viewBox="0.00 0.00 654.00 186.00" xmlns="http://www.w3.org/2000/svg" xmlns:xlink="http://www.w3.org/1999/xlink">
<g id="graph0" class="graph" transform="scale(1 1) rotate(0) translate(4 182)">
<title>xla::ClientLibrary::Singleton</title>
<polygon fill="#ffffff" stroke="transparent" points="-4,4 -4,-182 650,-182 650,4 -4,4"/>
<!-- Node58 -->
<g id="node1" class="node">
<title>Node58</title>
<polygon fill="#bfbfbf" stroke="#000000" points="0,-73.5 0,-103.5 90,-103.5 90,-73.5 0,-73.5"/>
<text text-anchor="start" x="8" y="-91.5" font-family="Helvetica,sans-Serif" font-size="10.00" fill="#000000">xla::ClientLibrary</text>
<text text-anchor="middle" x="45" y="-80.5" font-family="Helvetica,sans-Serif" font-size="10.00" fill="#000000">::Singleton</text>
</g>
<!-- Node59 -->
<g id="node2" class="node">
<title>Node59</title>
<g id="a_node2"><a xlink:href="../../d5/ddb/classxla_1_1ClientLibrary.html#a7dadd4179a27235b58ed227ddbc2cbbe" target="_top" xlink:title="xla::ClientLibrary\l::GetOrCreateLocalClient">
<polygon fill="#ffffff" stroke="#000000" points="142.5,-147.5 142.5,-177.5 269.5,-177.5 269.5,-147.5 142.5,-147.5"/>
<text text-anchor="start" x="150.5" y="-165.5" font-family="Helvetica,sans-Serif" font-size="10.00" fill="#000000">xla::ClientLibrary</text>
<text text-anchor="middle" x="206" y="-154.5" font-family="Helvetica,sans-Serif" font-size="10.00" fill="#000000">::GetOrCreateLocalClient</text>
</a>
</g>
</g>
<!-- Node58&#45;&gt;Node59 -->
<g id="edge1" class="edge">
<title>Node58&#45;&gt;Node59</title>
<path fill="none" stroke="#191970" d="M74.4639,-109.2819C89.3912,-119.1268 108.1061,-130.4609 126,-138.5 133.2748,-141.7683 141.1163,-144.7401 148.9453,-147.3918"/>
<polygon fill="#191970" stroke="#191970" points="76.3998,-106.366 66.1475,-103.6936 72.4956,-112.1761 76.3998,-106.366"/>
</g>
<!-- Node60 -->
<g id="node3" class="node">
<title>Node60</title>
<g id="a_node3"><a xlink:href="../../d5/ddb/classxla_1_1ClientLibrary.html#aaf9a19a2d8a3013d0faa1906fd979d4d" target="_top" xlink:title="xla::ClientLibrary\l::GetXlaService">
<polygon fill="#ffffff" stroke="#000000" points="161,-98.5 161,-128.5 251,-128.5 251,-98.5 161,-98.5"/>
<text text-anchor="start" x="169" y="-116.5" font-family="Helvetica,sans-Serif" font-size="10.00" fill="#000000">xla::ClientLibrary</text>
<text text-anchor="middle" x="206" y="-105.5" font-family="Helvetica,sans-Serif" font-size="10.00" fill="#000000">::GetXlaService</text>
</a>
</g>
</g>
<!-- Node58&#45;&gt;Node60 -->
<g id="edge2" class="edge">
<title>Node58&#45;&gt;Node60</title>
<path fill="none" stroke="#191970" d="M100.3532,-97.0952C120.0688,-100.1566 142.0214,-103.5654 160.7852,-106.4791"/>
<polygon fill="#191970" stroke="#191970" points="100.6946,-93.6064 90.2759,-95.5304 99.6204,-100.5235 100.6946,-93.6064"/>
</g>
<!-- Node61 -->
<g id="node4" class="node">
<title>Node61</title>
<g id="a_node4"><a xlink:href="../../d5/ddb/classxla_1_1ClientLibrary.html#a5e940d153e6cfd72b34b2b8b89220f50" target="_top" xlink:title="xla::ClientLibrary\l::GetOrCreateCompileOnlyClient">
<polygon fill="#ffffff" stroke="#000000" points="126,-49.5 126,-79.5 286,-79.5 286,-49.5 126,-49.5"/>
<text text-anchor="start" x="134" y="-67.5" font-family="Helvetica,sans-Serif" font-size="10.00" fill="#000000">xla::ClientLibrary</text>
<text text-anchor="middle" x="206" y="-56.5" font-family="Helvetica,sans-Serif" font-size="10.00" fill="#000000">::GetOrCreateCompileOnlyClient</text>
</a>
</g>
</g>
<!-- Node58&#45;&gt;Node61 -->
<g id="edge3" class="edge">
<title>Node58&#45;&gt;Node61</title>
<path fill="none" stroke="#191970" d="M100.209,-80.2701C108.5385,-79.0284 117.27,-77.7268 125.9938,-76.4264"/>
<polygon fill="#191970" stroke="#191970" points="99.6506,-76.8146 90.2759,-81.7508 100.6827,-83.7381 99.6506,-76.8146"/>
</g>
<!-- Node65 -->
<g id="node8" class="node">
<title>Node65</title>
<g id="a_node8"><a xlink:href="../../d5/ddb/classxla_1_1ClientLibrary.html#a4d3bf2acdba04acd82e42bada5932063" target="_top" xlink:title="xla::ClientLibrary\l::DestroyLocalInstances">
<polygon fill="#ffffff" stroke="#000000" points="144.5,-.5 144.5,-30.5 267.5,-30.5 267.5,-.5 144.5,-.5"/>
<text text-anchor="start" x="152.5" y="-18.5" font-family="Helvetica,sans-Serif" font-size="10.00" fill="#000000">xla::ClientLibrary</text>
<text text-anchor="middle" x="206" y="-7.5" font-family="Helvetica,sans-Serif" font-size="10.00" fill="#000000">::DestroyLocalInstances</text>
</a>
</g>
</g>
<!-- Node58&#45;&gt;Node65 -->
<g id="edge7" class="edge">
<title>Node58&#45;&gt;Node65</title>
<path fill="none" stroke="#191970" d="M75.9783,-67.8416C90.7033,-58.6294 108.811,-48.1539 126,-40.5 134.1087,-36.8894 142.8954,-33.58 151.5765,-30.6333"/>
<polygon fill="#191970" stroke="#191970" points="73.84,-65.0538 67.2855,-73.3777 77.6003,-70.9581 73.84,-65.0538"/>
</g>
<!-- Node62 -->
<g id="node5" class="node">
<title>Node62</title>
<g id="a_node5"><a xlink:href="../../d7/d38/namespacetensorflow_1_1tfcompile.html#a021cb1c58d938b16dcd998aa8d1fc191" target="_top" xlink:title="Converts the graph into an XLA computation, and compiles the computation. Called by tensorflow::tfcom...">
<polygon fill="#ffffff" stroke="#000000" points="322,-49.5 322,-79.5 429,-79.5 429,-49.5 322,-49.5"/>
<text text-anchor="start" x="330" y="-67.5" font-family="Helvetica,sans-Serif" font-size="10.00" fill="#000000">tensorflow::tfcompile</text>
<text text-anchor="middle" x="375.5" y="-56.5" font-family="Helvetica,sans-Serif" font-size="10.00" fill="#000000">::CompileGraph</text>
</a>
</g>
</g>
<!-- Node61&#45;&gt;Node62 -->
<g id="edge4" class="edge">
<title>Node61&#45;&gt;Node62</title>
<path fill="none" stroke="#191970" d="M296.3972,-64.5C305.001,-64.5 313.5269,-64.5 321.618,-64.5"/>
<polygon fill="#191970" stroke="#191970" points="296.2826,-61.0001 286.2826,-64.5 296.2826,-68.0001 296.2826,-61.0001"/>
</g>
<!-- Node63 -->
<g id="node6" class="node">
<title>Node63</title>
<g id="a_node6"><a xlink:href="../../d7/d38/namespacetensorflow_1_1tfcompile.html#a460964a5bb277865d1275fe3746132c1" target="_top" xlink:title="tensorflow::tfcompile\l::Main">
<polygon fill="#ffffff" stroke="#000000" points="465,-49.5 465,-79.5 572,-79.5 572,-49.5 465,-49.5"/>
<text text-anchor="start" x="473" y="-67.5" font-family="Helvetica,sans-Serif" font-size="10.00" fill="#000000">tensorflow::tfcompile</text>
<text text-anchor="middle" x="518.5" y="-56.5" font-family="Helvetica,sans-Serif" font-size="10.00" fill="#000000">::Main</text>
</a>
</g>
</g>
<!-- Node62&#45;&gt;Node63 -->
<g id="edge5" class="edge">
<title>Node62&#45;&gt;Node63</title>
<path fill="none" stroke="#191970" d="M439.3238,-64.5C447.7452,-64.5 456.3103,-64.5 464.5445,-64.5"/>
<polygon fill="#191970" stroke="#191970" points="439.1548,-61.0001 429.1548,-64.5 439.1547,-68.0001 439.1548,-61.0001"/>
</g>
<!-- Node64 -->
<g id="node7" class="node">
<title>Node64</title>
<g id="a_node7"><a xlink:href="../../d4/d8d/tfcompile__main_8cc.html#a3c04138a5bfe5d72780bb7e82a18e627" target="_top" xlink:title="main">
<polygon fill="#ffffff" stroke="#000000" points="608,-55 608,-74 646,-74 646,-55 608,-55"/>
<text text-anchor="middle" x="627" y="-62" font-family="Helvetica,sans-Serif" font-size="10.00" fill="#000000">main</text>
</a>
</g>
</g>
<!-- Node63&#45;&gt;Node64 -->
<g id="edge6" class="edge">
<title>Node63&#45;&gt;Node64</title>
<path fill="none" stroke="#191970" d="M582.2814,-64.5C591.5615,-64.5 600.4574,-64.5 607.8366,-64.5"/>
<polygon fill="#191970" stroke="#191970" points="582.1143,-61.0001 572.1143,-64.5 582.1142,-68.0001 582.1143,-61.0001"/>
</g>
</g>
</svg>
