<?xml version="1.0" encoding="UTF-8" standalone="no"?>
<!DOCTYPE svg PUBLIC "-//W3C//DTD SVG 1.1//EN"
 "http://www.w3.org/Graphics/SVG/1.1/DTD/svg11.dtd">
<!-- Generated by graphviz version 2.40.1 (20161225.0304)
 -->
<!-- Title: tensorflow/tensorflow/compiler/xla/service/flatten_call_graph.cc Pages: 1 -->
<svg width="2991pt" height="284pt"
 viewBox="0.00 0.00 2990.50 284.00" xmlns="http://www.w3.org/2000/svg" xmlns:xlink="http://www.w3.org/1999/xlink">
<g id="graph0" class="graph" transform="scale(1 1) rotate(0) translate(4 280)">
<title>tensorflow/tensorflow/compiler/xla/service/flatten_call_graph.cc</title>
<polygon fill="#ffffff" stroke="transparent" points="-4,4 -4,-280 2986.5,-280 2986.5,4 -4,4"/>
<!-- Node0 -->
<g id="node1" class="node">
<title>Node0</title>
<polygon fill="#bfbfbf" stroke="#000000" points="2070.5,-234.5 2070.5,-275.5 2180.5,-275.5 2180.5,-234.5 2070.5,-234.5"/>
<text text-anchor="start" x="2078.5" y="-263.5" font-family="Helvetica,sans-Serif" font-size="10.00" fill="#000000">tensorflow/tensorflow</text>
<text text-anchor="start" x="2078.5" y="-252.5" font-family="Helvetica,sans-Serif" font-size="10.00" fill="#000000">/compiler/xla/service</text>
<text text-anchor="middle" x="2125.5" y="-241.5" font-family="Helvetica,sans-Serif" font-size="10.00" fill="#000000">/flatten_call_graph.cc</text>
</g>
<!-- Node1 -->
<g id="node2" class="node">
<title>Node1</title>
<g id="a_node2"><a xlink:href="../../d2/d8b/flatten__call__graph_8h.html" target="_top" xlink:title="tensorflow/compiler\l/xla/service/flatten\l_call_graph.h">
<polygon fill="#ffffff" stroke="#000000" points="645,-156.5 645,-197.5 746,-197.5 746,-156.5 645,-156.5"/>
<text text-anchor="start" x="653" y="-185.5" font-family="Helvetica,sans-Serif" font-size="10.00" fill="#000000">tensorflow/compiler</text>
<text text-anchor="start" x="653" y="-174.5" font-family="Helvetica,sans-Serif" font-size="10.00" fill="#000000">/xla/service/flatten</text>
<text text-anchor="middle" x="695.5" y="-163.5" font-family="Helvetica,sans-Serif" font-size="10.00" fill="#000000">_call_graph.h</text>
</a>
</g>
</g>
<!-- Node0&#45;&gt;Node1 -->
<g id="edge1" class="edge">
<title>Node0&#45;&gt;Node1</title>
<path fill="none" stroke="#191970" d="M2070.3185,-251.9901C1844.6211,-239.6793 992.5733,-193.204 756.479,-180.3261"/>
<polygon fill="#191970" stroke="#191970" points="756.5378,-176.8242 746.362,-179.7743 756.1565,-183.8138 756.5378,-176.8242"/>
</g>
<!-- Node4 -->
<g id="node5" class="node">
<title>Node4</title>
<polygon fill="#ffffff" stroke="#bfbfbf" points="1883.5,-162 1883.5,-192 2005.5,-192 2005.5,-162 1883.5,-162"/>
<text text-anchor="start" x="1891.5" y="-180" font-family="Helvetica,sans-Serif" font-size="10.00" fill="#000000">tensorflow/compiler</text>
<text text-anchor="middle" x="1944.5" y="-169" font-family="Helvetica,sans-Serif" font-size="10.00" fill="#000000">/xla/service/call_graph.h</text>
</g>
<!-- Node0&#45;&gt;Node4 -->
<g id="edge4" class="edge">
<title>Node0&#45;&gt;Node4</title>
<path fill="none" stroke="#191970" d="M2077.4705,-234.3022C2050.0474,-222.4845 2015.8958,-207.7673 1989.0701,-196.207"/>
<polygon fill="#191970" stroke="#191970" points="1990.1132,-192.8454 1979.5444,-192.102 1987.3428,-199.2739 1990.1132,-192.8454"/>
</g>
<!-- Node5 -->
<g id="node6" class="node">
<title>Node5</title>
<g id="a_node6"><a xlink:href="../../d2/d31/hlo__computation_8h.html" target="_top" xlink:title="tensorflow/compiler\l/xla/service/hlo_computation.h">
<polygon fill="#ffffff" stroke="#000000" points="1340,-84 1340,-114 1489,-114 1489,-84 1340,-84"/>
<text text-anchor="start" x="1348" y="-102" font-family="Helvetica,sans-Serif" font-size="10.00" fill="#000000">tensorflow/compiler</text>
<text text-anchor="middle" x="1414.5" y="-91" font-family="Helvetica,sans-Serif" font-size="10.00" fill="#000000">/xla/service/hlo_computation.h</text>
</a>
</g>
</g>
<!-- Node0&#45;&gt;Node5 -->
<g id="edge5" class="edge">
<title>Node0&#45;&gt;Node5</title>
<path fill="none" stroke="#191970" d="M2096.8436,-234.4314C2082.9892,-224.0413 2066.3939,-210.9214 2052.5,-198 2034.0666,-180.8568 2037.1402,-167.0046 2014.5,-156 1910.9206,-105.6536 1611.2205,-138.1965 1497.5,-120 1491.2393,-118.9982 1484.7606,-117.7472 1478.3103,-116.3579"/>
<polygon fill="#191970" stroke="#191970" points="1478.7589,-112.871 1468.2329,-114.0767 1477.2134,-119.6983 1478.7589,-112.871"/>
</g>
<!-- Node18 -->
<g id="node19" class="node">
<title>Node18</title>
<polygon fill="#ffffff" stroke="#bfbfbf" points="2641,-6 2641,-36 2782,-36 2782,-6 2641,-6"/>
<text text-anchor="start" x="2649" y="-24" font-family="Helvetica,sans-Serif" font-size="10.00" fill="#000000">tensorflow/compiler</text>
<text text-anchor="middle" x="2711.5" y="-13" font-family="Helvetica,sans-Serif" font-size="10.00" fill="#000000">/xla/service/hlo_instruction.h</text>
</g>
<!-- Node0&#45;&gt;Node18 -->
<g id="edge31" class="edge">
<title>Node0&#45;&gt;Node18</title>
<path fill="none" stroke="#191970" d="M2180.7387,-250.9879C2314.9657,-239.9752 2652.2053,-204.3051 2719.5,-120 2736.0302,-99.2914 2729.8335,-67.7737 2722.2377,-45.8846"/>
<polygon fill="#191970" stroke="#191970" points="2725.4202,-44.4052 2718.6083,-36.2905 2718.873,-46.882 2725.4202,-44.4052"/>
</g>
<!-- Node30 -->
<g id="node31" class="node">
<title>Node30</title>
<g id="a_node31"><a xlink:href="../../db/da0/hlo__module_8h.html" target="_top" xlink:title="tensorflow/compiler\l/xla/service/hlo_module.h">
<polygon fill="#ffffff" stroke="#000000" points="2061.5,-162 2061.5,-192 2189.5,-192 2189.5,-162 2061.5,-162"/>
<text text-anchor="start" x="2069.5" y="-180" font-family="Helvetica,sans-Serif" font-size="10.00" fill="#000000">tensorflow/compiler</text>
<text text-anchor="middle" x="2125.5" y="-169" font-family="Helvetica,sans-Serif" font-size="10.00" fill="#000000">/xla/service/hlo_module.h</text>
</a>
</g>
</g>
<!-- Node0&#45;&gt;Node30 -->
<g id="edge32" class="edge">
<title>Node0&#45;&gt;Node30</title>
<path fill="none" stroke="#191970" d="M2125.5,-234.0974C2125.5,-224.3178 2125.5,-212.5873 2125.5,-202.3097"/>
<polygon fill="#191970" stroke="#191970" points="2129.0001,-202.2678 2125.5,-192.2679 2122.0001,-202.2679 2129.0001,-202.2678"/>
</g>
<!-- Node38 -->
<g id="node39" class="node">
<title>Node38</title>
<polygon fill="#ffffff" stroke="#bfbfbf" points="2767,-162 2767,-192 2868,-192 2868,-162 2767,-162"/>
<text text-anchor="start" x="2775" y="-180" font-family="Helvetica,sans-Serif" font-size="10.00" fill="#000000">tensorflow/compiler</text>
<text text-anchor="middle" x="2817.5" y="-169" font-family="Helvetica,sans-Serif" font-size="10.00" fill="#000000">/xla/util.h</text>
</g>
<!-- Node0&#45;&gt;Node38 -->
<g id="edge52" class="edge">
<title>Node0&#45;&gt;Node38</title>
<path fill="none" stroke="#191970" d="M2180.6084,-254.0812C2290.4914,-251.3537 2544.2101,-240.5643 2752.5,-198 2756.8662,-197.1078 2761.3511,-196.025 2765.8258,-194.8268"/>
<polygon fill="#191970" stroke="#191970" points="2766.9008,-198.1599 2775.5555,-192.0487 2764.9788,-191.4289 2766.9008,-198.1599"/>
</g>
<!-- Node39 -->
<g id="node40" class="node">
<title>Node39</title>
<polygon fill="#ffffff" stroke="#bfbfbf" points="2886.5,-162 2886.5,-192 2982.5,-192 2982.5,-162 2886.5,-162"/>
<text text-anchor="start" x="2894.5" y="-180" font-family="Helvetica,sans-Serif" font-size="10.00" fill="#000000">tensorflow/core/lib</text>
<text text-anchor="middle" x="2934.5" y="-169" font-family="Helvetica,sans-Serif" font-size="10.00" fill="#000000">/core/errors.h</text>
</g>
<!-- Node0&#45;&gt;Node39 -->
<g id="edge53" class="edge">
<title>Node0&#45;&gt;Node39</title>
<path fill="none" stroke="#191970" d="M2180.5949,-252.8055C2330.6712,-246.5126 2744.3682,-226.9781 2877.5,-198 2881.1131,-197.2136 2884.8058,-196.2486 2888.4884,-195.1688"/>
<polygon fill="#191970" stroke="#191970" points="2889.6884,-198.4598 2898.1515,-192.0859 2887.5608,-191.791 2889.6884,-198.4598"/>
</g>
<!-- Node2 -->
<g id="node3" class="node">
<title>Node2</title>
<polygon fill="#ffffff" stroke="#bfbfbf" points="558,-78.5 558,-119.5 667,-119.5 667,-78.5 558,-78.5"/>
<text text-anchor="start" x="566" y="-107.5" font-family="Helvetica,sans-Serif" font-size="10.00" fill="#000000">tensorflow/compiler</text>
<text text-anchor="start" x="566" y="-96.5" font-family="Helvetica,sans-Serif" font-size="10.00" fill="#000000">/xla/service/hlo_pass</text>
<text text-anchor="middle" x="612.5" y="-85.5" font-family="Helvetica,sans-Serif" font-size="10.00" fill="#000000">_interface.h</text>
</g>
<!-- Node1&#45;&gt;Node2 -->
<g id="edge2" class="edge">
<title>Node1&#45;&gt;Node2</title>
<path fill="none" stroke="#191970" d="M673.2575,-156.0974C663.5975,-147.0193 652.1488,-136.2603 641.8083,-126.5427"/>
<polygon fill="#191970" stroke="#191970" points="644.2001,-123.9875 634.5161,-119.6898 639.4064,-129.0885 644.2001,-123.9875"/>
</g>
<!-- Node3 -->
<g id="node4" class="node">
<title>Node3</title>
<polygon fill="#ffffff" stroke="#bfbfbf" points="0,-6 0,-36 101,-36 101,-6 0,-6"/>
<text text-anchor="start" x="8" y="-24" font-family="Helvetica,sans-Serif" font-size="10.00" fill="#000000">tensorflow/compiler</text>
<text text-anchor="middle" x="50.5" y="-13" font-family="Helvetica,sans-Serif" font-size="10.00" fill="#000000">/xla/statusor.h</text>
</g>
<!-- Node1&#45;&gt;Node3 -->
<g id="edge3" class="edge">
<title>Node1&#45;&gt;Node3</title>
<path fill="none" stroke="#191970" d="M697.9286,-156.4046C699.3513,-133.5177 697.5625,-97.2546 675.5,-78 628.1059,-36.6376 172.1493,-54.5067 110.5,-42 106.4237,-41.1731 102.2473,-40.1345 98.0885,-38.9645"/>
<polygon fill="#191970" stroke="#191970" points="99.0582,-35.6011 88.4722,-36.0337 97.0175,-42.297 99.0582,-35.6011"/>
</g>
<!-- Node5&#45;&gt;Node3 -->
<g id="edge22" class="edge">
<title>Node5&#45;&gt;Node3</title>
<path fill="none" stroke="#191970" d="M1339.9957,-97.0159C1081.2864,-89.9505 231.0082,-65.1985 110.5,-42 106.3547,-41.202 102.1087,-40.1737 97.8846,-39.0016"/>
<polygon fill="#191970" stroke="#191970" points="98.711,-35.595 88.1258,-36.0468 96.6824,-42.2946 98.711,-35.595"/>
</g>
<!-- Node6 -->
<g id="node7" class="node">
<title>Node6</title>
<polygon fill="#ffffff" stroke="#bfbfbf" points="2594,-11.5 2594,-30.5 2623,-30.5 2623,-11.5 2594,-11.5"/>
<text text-anchor="middle" x="2608.5" y="-18.5" font-family="Helvetica,sans-Serif" font-size="10.00" fill="#000000">list</text>
</g>
<!-- Node5&#45;&gt;Node6 -->
<g id="edge6" class="edge">
<title>Node5&#45;&gt;Node6</title>
<path fill="none" stroke="#191970" d="M1466.8506,-83.9473C1476.9448,-81.56 1487.4922,-79.415 1497.5,-78 1617.1539,-61.0821 2472.0967,-86.3707 2584.5,-42 2587.3002,-40.8946 2589.9936,-39.3114 2592.4993,-37.5032"/>
<polygon fill="#191970" stroke="#191970" points="2594.9075,-40.0478 2600.1772,-30.8565 2590.3259,-34.7554 2594.9075,-40.0478"/>
</g>
<!-- Node7 -->
<g id="node8" class="node">
<title>Node7</title>
<polygon fill="#ffffff" stroke="#bfbfbf" points="1668.5,-11.5 1668.5,-30.5 1720.5,-30.5 1720.5,-11.5 1668.5,-11.5"/>
<text text-anchor="middle" x="1694.5" y="-18.5" font-family="Helvetica,sans-Serif" font-size="10.00" fill="#000000">memory</text>
</g>
<!-- Node5&#45;&gt;Node7 -->
<g id="edge7" class="edge">
<title>Node5&#45;&gt;Node7</title>
<path fill="none" stroke="#191970" d="M1472.9432,-83.9859C1481.1791,-81.9364 1489.5463,-79.8895 1497.5,-78 1569.2592,-60.9526 1590.9926,-69.3265 1659.5,-42 1663.6466,-40.346 1667.872,-38.2342 1671.8862,-35.9902"/>
<polygon fill="#191970" stroke="#191970" points="1673.969,-38.8218 1680.7332,-30.6673 1670.3602,-32.8238 1673.969,-38.8218"/>
</g>
<!-- Node8 -->
<g id="node9" class="node">
<title>Node8</title>
<polygon fill="#ffffff" stroke="#bfbfbf" points="1739,-11.5 1739,-30.5 1780,-30.5 1780,-11.5 1739,-11.5"/>
<text text-anchor="middle" x="1759.5" y="-18.5" font-family="Helvetica,sans-Serif" font-size="10.00" fill="#000000">string</text>
</g>
<!-- Node5&#45;&gt;Node8 -->
<g id="edge8" class="edge">
<title>Node5&#45;&gt;Node8</title>
<path fill="none" stroke="#191970" d="M1471.04,-83.9407C1479.8658,-81.8085 1488.9067,-79.7498 1497.5,-78 1599.7469,-57.18 1632.689,-80.9299 1729.5,-42 1733.135,-40.5383 1736.7583,-38.5634 1740.165,-36.4072"/>
<polygon fill="#191970" stroke="#191970" points="1742.3809,-39.1273 1748.5358,-30.5036 1738.3465,-33.4068 1742.3809,-39.1273"/>
</g>
<!-- Node9 -->
<g id="node10" class="node">
<title>Node9</title>
<polygon fill="#ffffff" stroke="#bfbfbf" points="1798,-11.5 1798,-30.5 1881,-30.5 1881,-11.5 1798,-11.5"/>
<text text-anchor="middle" x="1839.5" y="-18.5" font-family="Helvetica,sans-Serif" font-size="10.00" fill="#000000">unordered_map</text>
</g>
<!-- Node5&#45;&gt;Node9 -->
<g id="edge9" class="edge">
<title>Node5&#45;&gt;Node9</title>
<path fill="none" stroke="#191970" d="M1470.0964,-83.9188C1479.2114,-81.7393 1488.5886,-79.6718 1497.5,-78 1625.5848,-53.9707 1662.4557,-75.1052 1788.5,-42 1795.5936,-40.1369 1803.0078,-37.5088 1809.9158,-34.7402"/>
<polygon fill="#191970" stroke="#191970" points="1811.73,-37.7733 1819.5784,-30.6562 1809.0047,-31.3256 1811.73,-37.7733"/>
</g>
<!-- Node10 -->
<g id="node11" class="node">
<title>Node10</title>
<polygon fill="#ffffff" stroke="#bfbfbf" points="627.5,-11.5 627.5,-30.5 705.5,-30.5 705.5,-11.5 627.5,-11.5"/>
<text text-anchor="middle" x="666.5" y="-18.5" font-family="Helvetica,sans-Serif" font-size="10.00" fill="#000000">unordered_set</text>
</g>
<!-- Node5&#45;&gt;Node10 -->
<g id="edge10" class="edge">
<title>Node5&#45;&gt;Node10</title>
<path fill="none" stroke="#191970" d="M1339.8363,-96.0396C1184.4931,-89.3711 831.2566,-71.4189 714.5,-42 707.6257,-40.2679 700.4881,-37.644 693.8848,-34.832"/>
<polygon fill="#191970" stroke="#191970" points="695.238,-31.6026 684.6852,-30.6592 692.3464,-37.9775 695.238,-31.6026"/>
</g>
<!-- Node11 -->
<g id="node12" class="node">
<title>Node11</title>
<polygon fill="#ffffff" stroke="#bfbfbf" points="723.5,-11.5 723.5,-30.5 763.5,-30.5 763.5,-11.5 723.5,-11.5"/>
<text text-anchor="middle" x="743.5" y="-18.5" font-family="Helvetica,sans-Serif" font-size="10.00" fill="#000000">utility</text>
</g>
<!-- Node5&#45;&gt;Node11 -->
<g id="edge11" class="edge">
<title>Node5&#45;&gt;Node11</title>
<path fill="none" stroke="#191970" d="M1339.9245,-97.3388C1193.701,-93.2735 874.6959,-80.1926 772.5,-42 768.9117,-40.659 765.3705,-38.7467 762.0616,-36.6159"/>
<polygon fill="#191970" stroke="#191970" points="764.1125,-33.7797 753.9729,-30.7074 759.9835,-39.4323 764.1125,-33.7797"/>
</g>
<!-- Node12 -->
<g id="node13" class="node">
<title>Node12</title>
<polygon fill="#ffffff" stroke="#bfbfbf" points="1899.5,-11.5 1899.5,-30.5 1943.5,-30.5 1943.5,-11.5 1899.5,-11.5"/>
<text text-anchor="middle" x="1921.5" y="-18.5" font-family="Helvetica,sans-Serif" font-size="10.00" fill="#000000">vector</text>
</g>
<!-- Node5&#45;&gt;Node12 -->
<g id="edge12" class="edge">
<title>Node5&#45;&gt;Node12</title>
<path fill="none" stroke="#191970" d="M1468.7089,-83.9923C1478.2482,-81.7223 1488.1238,-79.6065 1497.5,-78 1669.9424,-48.4531 1724.3376,-99.7129 1889.5,-42 1893.4795,-40.6094 1897.4517,-38.6185 1901.1759,-36.4102"/>
<polygon fill="#191970" stroke="#191970" points="1903.3925,-39.1396 1909.7854,-30.6909 1899.5191,-33.3089 1903.3925,-39.1396"/>
</g>
<!-- Node13 -->
<g id="node14" class="node">
<title>Node13</title>
<polygon fill="#ffffff" stroke="#bfbfbf" points="1962,-6 1962,-36 2063,-36 2063,-6 1962,-6"/>
<text text-anchor="start" x="1970" y="-24" font-family="Helvetica,sans-Serif" font-size="10.00" fill="#000000">tensorflow/compiler</text>
<text text-anchor="middle" x="2012.5" y="-13" font-family="Helvetica,sans-Serif" font-size="10.00" fill="#000000">/xla/iterator_util.h</text>
</g>
<!-- Node5&#45;&gt;Node13 -->
<g id="edge13" class="edge">
<title>Node5&#45;&gt;Node13</title>
<path fill="none" stroke="#191970" d="M1468.2452,-83.9984C1477.9244,-81.6988 1487.9672,-79.5715 1497.5,-78 1697.6527,-45.0041 1754.0104,-83.8535 1952.5,-42 1956.3977,-41.1781 1960.389,-40.1706 1964.3701,-39.046"/>
<polygon fill="#191970" stroke="#191970" points="1965.6438,-42.3167 1974.1857,-36.0488 1963.5995,-35.6218 1965.6438,-42.3167"/>
</g>
<!-- Node14 -->
<g id="node15" class="node">
<title>Node14</title>
<polygon fill="#ffffff" stroke="#bfbfbf" points="782,-6 782,-36 883,-36 883,-6 782,-6"/>
<text text-anchor="start" x="790" y="-24" font-family="Helvetica,sans-Serif" font-size="10.00" fill="#000000">tensorflow/compiler</text>
<text text-anchor="middle" x="832.5" y="-13" font-family="Helvetica,sans-Serif" font-size="10.00" fill="#000000">/xla/map_util.h</text>
</g>
<!-- Node5&#45;&gt;Node14 -->
<g id="edge14" class="edge">
<title>Node5&#45;&gt;Node14</title>
<path fill="none" stroke="#191970" d="M1339.9755,-96.3404C1237.7019,-91.4581 1048.636,-78.0066 891.5,-42 887.8967,-41.1743 884.2099,-40.1976 880.5252,-39.1244"/>
<polygon fill="#191970" stroke="#191970" points="881.4243,-35.7385 870.8355,-36.096 879.3362,-42.4198 881.4243,-35.7385"/>
</g>
<!-- Node15 -->
<g id="node16" class="node">
<title>Node15</title>
<polygon fill="#ffffff" stroke="#bfbfbf" points="901,-.5 901,-41.5 1002,-41.5 1002,-.5 901,-.5"/>
<text text-anchor="start" x="909" y="-29.5" font-family="Helvetica,sans-Serif" font-size="10.00" fill="#000000">tensorflow/compiler</text>
<text text-anchor="start" x="909" y="-18.5" font-family="Helvetica,sans-Serif" font-size="10.00" fill="#000000">/xla/service/dfs_hlo</text>
<text text-anchor="middle" x="951.5" y="-7.5" font-family="Helvetica,sans-Serif" font-size="10.00" fill="#000000">_visitor.h</text>
</g>
<!-- Node5&#45;&gt;Node15 -->
<g id="edge15" class="edge">
<title>Node5&#45;&gt;Node15</title>
<path fill="none" stroke="#191970" d="M1339.767,-92.8531C1260.4615,-85.3367 1131.5606,-70.2817 1012.0819,-41.8943"/>
<polygon fill="#191970" stroke="#191970" points="1012.571,-38.4119 1002.029,-39.4684 1010.9289,-45.2166 1012.571,-38.4119"/>
</g>
<!-- Node16 -->
<g id="node17" class="node">
<title>Node16</title>
<polygon fill="#ffffff" stroke="#bfbfbf" points="1020.5,-.5 1020.5,-41.5 1134.5,-41.5 1134.5,-.5 1020.5,-.5"/>
<text text-anchor="start" x="1028.5" y="-29.5" font-family="Helvetica,sans-Serif" font-size="10.00" fill="#000000">tensorflow/compiler</text>
<text text-anchor="start" x="1028.5" y="-18.5" font-family="Helvetica,sans-Serif" font-size="10.00" fill="#000000">/xla/service/dfs_hlo</text>
<text text-anchor="middle" x="1077.5" y="-7.5" font-family="Helvetica,sans-Serif" font-size="10.00" fill="#000000">_visitor_with_default.h</text>
</g>
<!-- Node5&#45;&gt;Node16 -->
<g id="edge16" class="edge">
<title>Node5&#45;&gt;Node16</title>
<path fill="none" stroke="#191970" d="M1339.8368,-85.3966C1287.5978,-75.3932 1216.0568,-60.7268 1144.6997,-42.2059"/>
<polygon fill="#191970" stroke="#191970" points="1145.1949,-38.7175 1134.6342,-39.567 1143.4197,-45.4887 1145.1949,-38.7175"/>
</g>
<!-- Node17 -->
<g id="node18" class="node">
<title>Node17</title>
<polygon fill="#ffffff" stroke="#bfbfbf" points="2081.5,-6 2081.5,-36 2185.5,-36 2185.5,-6 2081.5,-6"/>
<text text-anchor="start" x="2089.5" y="-24" font-family="Helvetica,sans-Serif" font-size="10.00" fill="#000000">tensorflow/compiler</text>
<text text-anchor="middle" x="2133.5" y="-13" font-family="Helvetica,sans-Serif" font-size="10.00" fill="#000000">/xla/service/hlo.pb.h</text>
</g>
<!-- Node5&#45;&gt;Node17 -->
<g id="edge17" class="edge">
<title>Node5&#45;&gt;Node17</title>
<path fill="none" stroke="#191970" d="M1467.7777,-83.974C1477.5964,-81.6471 1487.8078,-79.5167 1497.5,-78 1750.0391,-38.4821 1820.7127,-91.431 2071.5,-42 2075.7022,-41.1717 2080.0108,-40.1322 2084.3035,-38.9616"/>
<polygon fill="#191970" stroke="#191970" points="2085.6335,-42.2183 2094.2331,-36.0299 2083.6513,-35.5048 2085.6335,-42.2183"/>
</g>
<!-- Node5&#45;&gt;Node18 -->
<g id="edge18" class="edge">
<title>Node5&#45;&gt;Node18</title>
<path fill="none" stroke="#191970" d="M1466.849,-83.936C1476.9433,-81.5497 1487.4912,-79.408 1497.5,-78 1997.2771,-7.6931 2133.1539,-115.305 2632.5,-42 2638.7658,-41.0802 2645.2477,-39.8429 2651.6799,-38.4268"/>
<polygon fill="#191970" stroke="#191970" points="2652.7722,-41.7657 2661.7086,-36.0743 2651.1735,-34.9507 2652.7722,-41.7657"/>
</g>
<!-- Node19 -->
<g id="node20" class="node">
<title>Node19</title>
<polygon fill="#ffffff" stroke="#bfbfbf" points="1153,-6 1153,-36 1298,-36 1298,-6 1153,-6"/>
<text text-anchor="start" x="1161" y="-24" font-family="Helvetica,sans-Serif" font-size="10.00" fill="#000000">tensorflow/compiler</text>
<text text-anchor="middle" x="1225.5" y="-13" font-family="Helvetica,sans-Serif" font-size="10.00" fill="#000000">/xla/service/hlo_reachability.h</text>
</g>
<!-- Node5&#45;&gt;Node19 -->
<g id="edge19" class="edge">
<title>Node5&#45;&gt;Node19</title>
<path fill="none" stroke="#191970" d="M1378.0589,-83.9608C1347.6958,-71.43 1304.2767,-53.511 1271.5179,-39.9915"/>
<polygon fill="#191970" stroke="#191970" points="1272.7302,-36.7055 1262.1512,-36.1259 1270.0597,-43.1761 1272.7302,-36.7055"/>
</g>
<!-- Node20 -->
<g id="node21" class="node">
<title>Node20</title>
<polygon fill="#ffffff" stroke="#bfbfbf" points="2203.5,-6 2203.5,-36 2341.5,-36 2341.5,-6 2203.5,-6"/>
<text text-anchor="start" x="2211.5" y="-24" font-family="Helvetica,sans-Serif" font-size="10.00" fill="#000000">tensorflow/compiler</text>
<text text-anchor="middle" x="2272.5" y="-13" font-family="Helvetica,sans-Serif" font-size="10.00" fill="#000000">/xla/service/name_uniquer.h</text>
</g>
<!-- Node5&#45;&gt;Node20 -->
<g id="edge20" class="edge">
<title>Node5&#45;&gt;Node20</title>
<path fill="none" stroke="#191970" d="M1467.318,-83.9912C1477.2746,-81.6316 1487.6527,-79.4853 1497.5,-78 1804.2211,-31.7353 1888.1389,-90.5918 2194.5,-42 2200.59,-41.0341 2206.889,-39.7805 2213.1455,-38.3665"/>
<polygon fill="#191970" stroke="#191970" points="2213.9952,-41.762 2222.9061,-36.0308 2212.3661,-34.9542 2213.9952,-41.762"/>
</g>
<!-- Node21 -->
<g id="node22" class="node">
<title>Node21</title>
<polygon fill="#ffffff" stroke="#bfbfbf" points="1316,-6 1316,-36 1417,-36 1417,-6 1316,-6"/>
<text text-anchor="start" x="1324" y="-24" font-family="Helvetica,sans-Serif" font-size="10.00" fill="#000000">tensorflow/compiler</text>
<text text-anchor="middle" x="1366.5" y="-13" font-family="Helvetica,sans-Serif" font-size="10.00" fill="#000000">/xla/shape_tree.h</text>
</g>
<!-- Node5&#45;&gt;Node21 -->
<g id="edge21" class="edge">
<title>Node5&#45;&gt;Node21</title>
<path fill="none" stroke="#191970" d="M1405.2451,-83.9608C1398.4494,-72.9177 1389.0784,-57.6899 1381.2547,-44.9764"/>
<polygon fill="#191970" stroke="#191970" points="1384.1121,-42.9414 1375.8902,-36.2592 1378.1505,-46.6101 1384.1121,-42.9414"/>
</g>
<!-- Node22 -->
<g id="node23" class="node">
<title>Node22</title>
<polygon fill="#ffffff" stroke="#bfbfbf" points="2360,-6 2360,-36 2461,-36 2461,-6 2360,-6"/>
<text text-anchor="start" x="2368" y="-24" font-family="Helvetica,sans-Serif" font-size="10.00" fill="#000000">tensorflow/compiler</text>
<text text-anchor="middle" x="2410.5" y="-13" font-family="Helvetica,sans-Serif" font-size="10.00" fill="#000000">/xla/types.h</text>
</g>
<!-- Node5&#45;&gt;Node22 -->
<g id="edge23" class="edge">
<title>Node5&#45;&gt;Node22</title>
<path fill="none" stroke="#191970" d="M1467.3068,-83.9152C1477.2644,-81.5631 1487.6458,-79.4389 1497.5,-78 1872.9669,-23.1743 1977.8389,-113.4487 2350.5,-42 2354.6459,-41.2051 2358.8923,-40.179 2363.1167,-39.0084"/>
<polygon fill="#191970" stroke="#191970" points="2364.318,-42.3017 2372.8759,-36.0558 2362.2908,-35.6016 2364.318,-42.3017"/>
</g>
<!-- Node23 -->
<g id="node24" class="node">
<title>Node23</title>
<polygon fill="#ffffff" stroke="#bfbfbf" points="1435,-6 1435,-36 1536,-36 1536,-6 1435,-6"/>
<text text-anchor="start" x="1443" y="-24" font-family="Helvetica,sans-Serif" font-size="10.00" fill="#000000">tensorflow/compiler</text>
<text text-anchor="middle" x="1485.5" y="-13" font-family="Helvetica,sans-Serif" font-size="10.00" fill="#000000">/xla/xla_data.pb.h</text>
</g>
<!-- Node5&#45;&gt;Node23 -->
<g id="edge24" class="edge">
<title>Node5&#45;&gt;Node23</title>
<path fill="none" stroke="#191970" d="M1428.1895,-83.9608C1438.5344,-72.5961 1452.9135,-56.7992 1464.6806,-43.8721"/>
<polygon fill="#191970" stroke="#191970" points="1467.4671,-46.0103 1471.6103,-36.2592 1462.2905,-41.2983 1467.4671,-46.0103"/>
</g>
<!-- Node24 -->
<g id="node25" class="node">
<title>Node24</title>
<polygon fill="#ffffff" stroke="#bfbfbf" points="1554.5,-6 1554.5,-36 1650.5,-36 1650.5,-6 1554.5,-6"/>
<text text-anchor="start" x="1562.5" y="-24" font-family="Helvetica,sans-Serif" font-size="10.00" fill="#000000">tensorflow/core/lib</text>
<text text-anchor="middle" x="1602.5" y="-13" font-family="Helvetica,sans-Serif" font-size="10.00" fill="#000000">/core/status.h</text>
</g>
<!-- Node5&#45;&gt;Node24 -->
<g id="edge25" class="edge">
<title>Node5&#45;&gt;Node24</title>
<path fill="none" stroke="#191970" d="M1450.7483,-83.9608C1480.9508,-71.43 1524.1401,-53.511 1556.7256,-39.9915"/>
<polygon fill="#191970" stroke="#191970" points="1558.1474,-43.1909 1566.0427,-36.1259 1555.4649,-36.7253 1558.1474,-43.1909"/>
</g>
<!-- Node25 -->
<g id="node26" class="node">
<title>Node25</title>
<polygon fill="#ffffff" stroke="#bfbfbf" points="2479.5,-6 2479.5,-36 2575.5,-36 2575.5,-6 2479.5,-6"/>
<text text-anchor="start" x="2487.5" y="-24" font-family="Helvetica,sans-Serif" font-size="10.00" fill="#000000">tensorflow/core/lib</text>
<text text-anchor="middle" x="2527.5" y="-13" font-family="Helvetica,sans-Serif" font-size="10.00" fill="#000000">/gtl/array_slice.h</text>
</g>
<!-- Node5&#45;&gt;Node25 -->
<g id="edge26" class="edge">
<title>Node5&#45;&gt;Node25</title>
<path fill="none" stroke="#191970" d="M1466.8551,-83.9787C1476.9488,-81.5885 1487.4949,-79.4344 1497.5,-78 1925.8604,-16.5872 2045.9599,-125.8448 2470.5,-42 2474.3475,-41.2401 2478.28,-40.2579 2482.1916,-39.1339"/>
<polygon fill="#191970" stroke="#191970" points="2483.3308,-42.4446 2491.8114,-36.094 2481.2215,-35.7699 2483.3308,-42.4446"/>
</g>
<!-- Node26 -->
<g id="node27" class="node">
<title>Node26</title>
<polygon fill="#ffffff" stroke="#bfbfbf" points="119.5,-6 119.5,-36 215.5,-36 215.5,-6 119.5,-6"/>
<text text-anchor="start" x="127.5" y="-24" font-family="Helvetica,sans-Serif" font-size="10.00" fill="#000000">tensorflow/core/lib</text>
<text text-anchor="middle" x="167.5" y="-13" font-family="Helvetica,sans-Serif" font-size="10.00" fill="#000000">/gtl/flatmap.h</text>
</g>
<!-- Node5&#45;&gt;Node26 -->
<g id="edge27" class="edge">
<title>Node5&#45;&gt;Node26</title>
<path fill="none" stroke="#191970" d="M1339.8172,-96.7459C1096.0813,-89.206 333.2578,-64.0946 224.5,-42 220.6567,-41.2192 216.7272,-40.2221 212.8176,-39.0881"/>
<polygon fill="#191970" stroke="#191970" points="213.7914,-35.7251 203.201,-36.0321 211.6714,-42.3964 213.7914,-35.7251"/>
</g>
<!-- Node27 -->
<g id="node28" class="node">
<title>Node27</title>
<polygon fill="#ffffff" stroke="#bfbfbf" points="233.5,-6 233.5,-36 329.5,-36 329.5,-6 233.5,-6"/>
<text text-anchor="start" x="241.5" y="-24" font-family="Helvetica,sans-Serif" font-size="10.00" fill="#000000">tensorflow/core/lib</text>
<text text-anchor="middle" x="281.5" y="-13" font-family="Helvetica,sans-Serif" font-size="10.00" fill="#000000">/gtl/flatset.h</text>
</g>
<!-- Node5&#45;&gt;Node27 -->
<g id="edge28" class="edge">
<title>Node5&#45;&gt;Node27</title>
<path fill="none" stroke="#191970" d="M1339.8917,-97.9508C1128.8352,-94.5224 530.4312,-81.4977 338.5,-42 334.6587,-41.2095 330.7306,-40.2055 326.822,-39.0668"/>
<polygon fill="#191970" stroke="#191970" points="327.7975,-35.7043 317.2069,-36.0034 325.6725,-42.374 327.7975,-35.7043"/>
</g>
<!-- Node28 -->
<g id="node29" class="node">
<title>Node28</title>
<polygon fill="#ffffff" stroke="#bfbfbf" points="347.5,-6 347.5,-36 469.5,-36 469.5,-6 347.5,-6"/>
<text text-anchor="start" x="355.5" y="-24" font-family="Helvetica,sans-Serif" font-size="10.00" fill="#000000">tensorflow/core/platform</text>
<text text-anchor="middle" x="408.5" y="-13" font-family="Helvetica,sans-Serif" font-size="10.00" fill="#000000">/macros.h</text>
</g>
<!-- Node5&#45;&gt;Node28 -->
<g id="edge29" class="edge">
<title>Node5&#45;&gt;Node28</title>
<path fill="none" stroke="#191970" d="M1339.8756,-96.6774C1148.4557,-90.3636 643.4904,-71.3657 478.5,-42 473.3999,-41.0923 468.1461,-39.9399 462.9174,-38.6441"/>
<polygon fill="#191970" stroke="#191970" points="463.5029,-35.1786 452.9401,-36.0019 461.7108,-41.9453 463.5029,-35.1786"/>
</g>
<!-- Node29 -->
<g id="node30" class="node">
<title>Node29</title>
<polygon fill="#ffffff" stroke="#bfbfbf" points="487.5,-6 487.5,-36 609.5,-36 609.5,-6 487.5,-6"/>
<text text-anchor="start" x="495.5" y="-24" font-family="Helvetica,sans-Serif" font-size="10.00" fill="#000000">tensorflow/core/platform</text>
<text text-anchor="middle" x="548.5" y="-13" font-family="Helvetica,sans-Serif" font-size="10.00" fill="#000000">/types.h</text>
</g>
<!-- Node5&#45;&gt;Node29 -->
<g id="edge30" class="edge">
<title>Node5&#45;&gt;Node29</title>
<path fill="none" stroke="#191970" d="M1339.9815,-95.7607C1169.5986,-88.0144 755.7101,-67.1767 618.5,-42 613.4809,-41.079 608.3111,-39.9291 603.1619,-38.645"/>
<polygon fill="#191970" stroke="#191970" points="603.8932,-35.2179 593.3299,-36.0348 602.097,-41.9836 603.8932,-35.2179"/>
</g>
<!-- Node30&#45;&gt;Node5 -->
<g id="edge42" class="edge">
<title>Node30&#45;&gt;Node5</title>
<path fill="none" stroke="#191970" d="M2075.4698,-161.9676C2066.2387,-159.6413 2056.6313,-157.5128 2047.5,-156 1805.8265,-115.9622 1739.4704,-158.202 1497.5,-120 1490.9895,-118.9721 1484.2441,-117.6703 1477.5405,-116.2201"/>
<polygon fill="#191970" stroke="#191970" points="1478.3079,-112.8054 1467.7811,-114.0041 1476.7579,-119.6316 1478.3079,-112.8054"/>
</g>
<!-- Node30&#45;&gt;Node6 -->
<g id="edge34" class="edge">
<title>Node30&#45;&gt;Node6</title>
<path fill="none" stroke="#191970" d="M2161.2482,-161.9274C2183.9872,-151.5997 2213.5511,-136.7685 2237.5,-120 2259.9104,-104.3087 2257.6877,-89.5235 2282.5,-78 2405.096,-21.063 2461.006,-96.9622 2584.5,-42 2587.2504,-40.7759 2589.9152,-39.1244 2592.4066,-37.2823"/>
<polygon fill="#191970" stroke="#191970" points="2594.818,-39.824 2600.0819,-30.6293 2590.233,-34.5345 2594.818,-39.824"/>
</g>
<!-- Node30&#45;&gt;Node7 -->
<g id="edge35" class="edge">
<title>Node30&#45;&gt;Node7</title>
<path fill="none" stroke="#191970" d="M2071.1294,-161.9876C2015.5511,-146.508 1936.5169,-124.0689 1930.5,-120 1910.8351,-106.7016 1917.6389,-90.5689 1897.5,-78 1832.7195,-37.5698 1800.534,-70.0229 1729.5,-42 1725.3472,-40.3617 1721.1186,-38.2579 1717.1031,-36.017"/>
<polygon fill="#191970" stroke="#191970" points="1718.6292,-32.8506 1708.2562,-30.6939 1715.0202,-38.8486 1718.6292,-32.8506"/>
</g>
<!-- Node30&#45;&gt;Node8 -->
<g id="edge37" class="edge">
<title>Node30&#45;&gt;Node8</title>
<path fill="none" stroke="#191970" d="M2075.9326,-161.8914C2037.0107,-149.5002 1986.4895,-132.0921 1968.5,-120 1947.6081,-105.9569 1952.0675,-90.9817 1930.5,-78 1874.7177,-44.424 1847.475,-69.5856 1788.5,-42 1785.2483,-40.479 1781.9879,-38.5756 1778.8882,-36.5397"/>
<polygon fill="#191970" stroke="#191970" points="1780.8792,-33.6604 1770.7185,-30.6585 1776.7895,-39.3415 1780.8792,-33.6604"/>
</g>
<!-- Node30&#45;&gt;Node9 -->
<g id="edge38" class="edge">
<title>Node30&#45;&gt;Node9</title>
<path fill="none" stroke="#191970" d="M2084.4624,-161.9962C2060.4488,-152.1184 2030.2761,-137.7404 2006.5,-120 1986.3243,-104.9461 1988.9039,-92.7431 1968.5,-78 1960.178,-71.9868 1907.3836,-49.3841 1871.9656,-34.5121"/>
<polygon fill="#191970" stroke="#191970" points="1873.0639,-31.1776 1862.4881,-30.5426 1870.3597,-37.6341 1873.0639,-31.1776"/>
</g>
<!-- Node30&#45;&gt;Node12 -->
<g id="edge39" class="edge">
<title>Node30&#45;&gt;Node12</title>
<path fill="none" stroke="#191970" d="M2105.3408,-161.9229C2090.4948,-150.6607 2069.942,-134.7347 2052.5,-120 2031.3519,-102.1345 2028.3025,-95.0608 2006.5,-78 1983.7839,-60.2243 1976.4406,-58.0888 1952.5,-42 1949.7483,-40.1508 1946.8627,-38.2049 1944.0057,-36.2743"/>
<polygon fill="#191970" stroke="#191970" points="1945.9261,-33.3478 1935.6831,-30.6401 1942.0019,-39.1445 1945.9261,-33.3478"/>
</g>
<!-- Node30&#45;&gt;Node13 -->
<g id="edge40" class="edge">
<title>Node30&#45;&gt;Node13</title>
<path fill="none" stroke="#191970" d="M2114.4593,-161.758C2094.6621,-134.4273 2053.0054,-76.919 2029.5262,-44.5052"/>
<polygon fill="#191970" stroke="#191970" points="2032.1199,-42.1195 2023.4191,-36.0742 2026.4509,-46.226 2032.1199,-42.1195"/>
</g>
<!-- Node30&#45;&gt;Node17 -->
<g id="edge41" class="edge">
<title>Node30&#45;&gt;Node17</title>
<path fill="none" stroke="#191970" d="M2126.2524,-161.9044C2127.2224,-142.4912 2128.9667,-107.7328 2130.5,-78 2131.0397,-67.5346 2131.6454,-55.9889 2132.1705,-46.0413"/>
<polygon fill="#191970" stroke="#191970" points="2135.6684,-46.172 2132.7018,-36.001 2128.6782,-45.8021 2135.6684,-46.172"/>
</g>
<!-- Node30&#45;&gt;Node18 -->
<g id="edge43" class="edge">
<title>Node30&#45;&gt;Node18</title>
<path fill="none" stroke="#191970" d="M2180.4895,-161.8944C2209.5451,-152.4534 2244.9915,-138.5361 2273.5,-120 2295.6318,-105.61 2291.7207,-89.4644 2315.5,-78 2443.2253,-16.4214 2493.1629,-68.2843 2632.5,-42 2637.9039,-40.9806 2643.482,-39.7887 2649.0576,-38.4998"/>
<polygon fill="#191970" stroke="#191970" points="2650.151,-41.8366 2659.0529,-36.0914 2648.5112,-35.0313 2650.151,-41.8366"/>
</g>
<!-- Node30&#45;&gt;Node20 -->
<g id="edge45" class="edge">
<title>Node30&#45;&gt;Node20</title>
<path fill="none" stroke="#191970" d="M2128.7821,-161.8912C2134.012,-140.8779 2146.0191,-102.6407 2168.5,-78 2183.1019,-61.9952 2203.2703,-49.5175 2221.9623,-40.3713"/>
<polygon fill="#191970" stroke="#191970" points="2223.6976,-43.4238 2231.276,-36.0199 2220.7345,-37.0818 2223.6976,-43.4238"/>
</g>
<!-- Node30&#45;&gt;Node22 -->
<g id="edge47" class="edge">
<title>Node30&#45;&gt;Node22</title>
<path fill="none" stroke="#191970" d="M2137.099,-161.7784C2157.2881,-135.4456 2197.591,-83.648 2206.5,-78 2262.2164,-42.6775 2287.3006,-60.9164 2350.5,-42 2353.4191,-41.1263 2356.4064,-40.1968 2359.4133,-39.2336"/>
<polygon fill="#191970" stroke="#191970" points="2360.6194,-42.5215 2369.0238,-36.0704 2358.4308,-35.8724 2360.6194,-42.5215"/>
</g>
<!-- Node30&#45;&gt;Node25 -->
<g id="edge48" class="edge">
<title>Node30&#45;&gt;Node25</title>
<path fill="none" stroke="#191970" d="M2148.1034,-161.9705C2164.094,-150.9866 2185.7583,-135.3815 2203.5,-120 2223.2102,-102.9119 2221.334,-89.993 2244.5,-78 2334.8245,-31.2392 2372.0905,-67.7031 2470.5,-42 2473.6632,-41.1738 2476.8961,-40.2398 2480.1355,-39.2362"/>
<polygon fill="#191970" stroke="#191970" points="2481.4037,-42.5036 2489.8098,-36.0547 2479.2169,-35.8539 2481.4037,-42.5036"/>
</g>
<!-- Node31 -->
<g id="node32" class="node">
<title>Node31</title>
<polygon fill="#ffffff" stroke="#bfbfbf" points="2324.5,-89.5 2324.5,-108.5 2370.5,-108.5 2370.5,-89.5 2324.5,-89.5"/>
<text text-anchor="middle" x="2347.5" y="-96.5" font-family="Helvetica,sans-Serif" font-size="10.00" fill="#000000">atomic</text>
</g>
<!-- Node30&#45;&gt;Node31 -->
<g id="edge33" class="edge">
<title>Node30&#45;&gt;Node31</title>
<path fill="none" stroke="#191970" d="M2185.8377,-161.9834C2222.5836,-151.9674 2270.0796,-137.4506 2310.5,-120 2314.8124,-118.1382 2319.2655,-115.9055 2323.5233,-113.6011"/>
<polygon fill="#191970" stroke="#191970" points="2325.4354,-116.5403 2332.4019,-108.5579 2321.978,-110.4537 2325.4354,-116.5403"/>
</g>
<!-- Node32 -->
<g id="node33" class="node">
<title>Node32</title>
<polygon fill="#ffffff" stroke="#bfbfbf" points="2389,-89.5 2389,-108.5 2438,-108.5 2438,-89.5 2389,-89.5"/>
<text text-anchor="middle" x="2413.5" y="-96.5" font-family="Helvetica,sans-Serif" font-size="10.00" fill="#000000">random</text>
</g>
<!-- Node30&#45;&gt;Node32 -->
<g id="edge36" class="edge">
<title>Node30&#45;&gt;Node32</title>
<path fill="none" stroke="#191970" d="M2189.6392,-168.6465C2242.0901,-160.4028 2317.4555,-145.2881 2379.5,-120 2383.5476,-118.3503 2387.6622,-116.2407 2391.5655,-113.9976"/>
<polygon fill="#191970" stroke="#191970" points="2393.5011,-116.9158 2400.1594,-108.6746 2389.8151,-110.9648 2393.5011,-116.9158"/>
</g>
<!-- Node33 -->
<g id="node34" class="node">
<title>Node33</title>
<polygon fill="#ffffff" stroke="#bfbfbf" points="2456,-78.5 2456,-119.5 2575,-119.5 2575,-78.5 2456,-78.5"/>
<text text-anchor="start" x="2464" y="-107.5" font-family="Helvetica,sans-Serif" font-size="10.00" fill="#000000">tensorflow/compiler</text>
<text text-anchor="start" x="2464" y="-96.5" font-family="Helvetica,sans-Serif" font-size="10.00" fill="#000000">/xla/service/hlo_module</text>
<text text-anchor="middle" x="2515.5" y="-85.5" font-family="Helvetica,sans-Serif" font-size="10.00" fill="#000000">_config.h</text>
</g>
<!-- Node30&#45;&gt;Node33 -->
<g id="edge44" class="edge">
<title>Node30&#45;&gt;Node33</title>
<path fill="none" stroke="#191970" d="M2189.5246,-168.0665C2252.6214,-158.7216 2351.8664,-142.5773 2445.9454,-120.2544"/>
<polygon fill="#191970" stroke="#191970" points="2447.0059,-123.5993 2455.9123,-117.8613 2445.3715,-116.7928 2447.0059,-123.5993"/>
</g>
<!-- Node34 -->
<g id="node35" class="node">
<title>Node34</title>
<polygon fill="#ffffff" stroke="#bfbfbf" points="2593,-78.5 2593,-119.5 2710,-119.5 2710,-78.5 2593,-78.5"/>
<text text-anchor="start" x="2601" y="-107.5" font-family="Helvetica,sans-Serif" font-size="10.00" fill="#000000">tensorflow/compiler</text>
<text text-anchor="start" x="2601" y="-96.5" font-family="Helvetica,sans-Serif" font-size="10.00" fill="#000000">/xla/service/versioned</text>
<text text-anchor="middle" x="2651.5" y="-85.5" font-family="Helvetica,sans-Serif" font-size="10.00" fill="#000000">_computation_handle.h</text>
</g>
<!-- Node30&#45;&gt;Node34 -->
<g id="edge46" class="edge">
<title>Node30&#45;&gt;Node34</title>
<path fill="none" stroke="#191970" d="M2189.5938,-172.7039C2276.8766,-166.0445 2437.9633,-150.8786 2582.8724,-120.1851"/>
<polygon fill="#191970" stroke="#191970" points="2583.7928,-123.5673 2592.8344,-118.0447 2582.3223,-116.7235 2583.7928,-123.5673"/>
</g>
<!-- Node35 -->
<g id="node36" class="node">
<title>Node35</title>
<polygon fill="#ffffff" stroke="#bfbfbf" points="1507,-84 1507,-114 1608,-114 1608,-84 1507,-84"/>
<text text-anchor="start" x="1515" y="-102" font-family="Helvetica,sans-Serif" font-size="10.00" fill="#000000">tensorflow/core/lib</text>
<text text-anchor="middle" x="1557.5" y="-91" font-family="Helvetica,sans-Serif" font-size="10.00" fill="#000000">/gtl/iterator_range.h</text>
</g>
<!-- Node30&#45;&gt;Node35 -->
<g id="edge49" class="edge">
<title>Node30&#45;&gt;Node35</title>
<path fill="none" stroke="#191970" d="M2075.0267,-161.9983C2065.9269,-159.6988 2056.479,-157.5715 2047.5,-156 1858.5916,-122.9382 1805.0625,-159.9972 1617.5,-120 1613.6042,-119.1692 1609.6142,-118.1553 1605.6341,-117.0263"/>
<polygon fill="#191970" stroke="#191970" points="1606.4066,-113.6025 1595.82,-114.0219 1604.3574,-120.2959 1606.4066,-113.6025"/>
</g>
<!-- Node36 -->
<g id="node37" class="node">
<title>Node36</title>
<polygon fill="#ffffff" stroke="#bfbfbf" points="1626.5,-84 1626.5,-114 1748.5,-114 1748.5,-84 1626.5,-84"/>
<text text-anchor="start" x="1634.5" y="-102" font-family="Helvetica,sans-Serif" font-size="10.00" fill="#000000">tensorflow/core/platform</text>
<text text-anchor="middle" x="1687.5" y="-91" font-family="Helvetica,sans-Serif" font-size="10.00" fill="#000000">/logging.h</text>
</g>
<!-- Node30&#45;&gt;Node36 -->
<g id="edge50" class="edge">
<title>Node30&#45;&gt;Node36</title>
<path fill="none" stroke="#191970" d="M2073.7101,-161.9755C2065.0078,-159.7626 2056.0329,-157.6698 2047.5,-156 1920.0395,-131.0569 1884.5927,-146.7544 1757.5,-120 1752.8557,-119.0223 1748.0742,-117.882 1743.2945,-116.6474"/>
<polygon fill="#191970" stroke="#191970" points="1744.0984,-113.2391 1733.5312,-114.0029 1742.2683,-119.9957 1744.0984,-113.2391"/>
</g>
<!-- Node37 -->
<g id="node38" class="node">
<title>Node37</title>
<polygon fill="#ffffff" stroke="#bfbfbf" points="1766.5,-84 1766.5,-114 1888.5,-114 1888.5,-84 1766.5,-84"/>
<text text-anchor="start" x="1774.5" y="-102" font-family="Helvetica,sans-Serif" font-size="10.00" fill="#000000">tensorflow/core/platform</text>
<text text-anchor="middle" x="1827.5" y="-91" font-family="Helvetica,sans-Serif" font-size="10.00" fill="#000000">/mutex.h</text>
</g>
<!-- Node30&#45;&gt;Node37 -->
<g id="edge51" class="edge">
<title>Node30&#45;&gt;Node37</title>
<path fill="none" stroke="#191970" d="M2070.1418,-161.952C2062.5406,-159.9279 2054.8315,-157.8968 2047.5,-156 1983.2158,-139.368 1966.7001,-136.9537 1902.5,-120 1898.6392,-118.9805 1894.6712,-117.9167 1890.6719,-116.8325"/>
<polygon fill="#191970" stroke="#191970" points="1891.2791,-113.3701 1880.7101,-114.1088 1889.433,-120.1223 1891.2791,-113.3701"/>
</g>
</g>
</svg>
