<?xml version="1.0" encoding="UTF-8" standalone="no"?>
<!DOCTYPE svg PUBLIC "-//W3C//DTD SVG 1.1//EN"
 "http://www.w3.org/Graphics/SVG/1.1/DTD/svg11.dtd">
<!-- Generated by graphviz version 2.40.1 (20161225.0304)
 -->
<!-- Title: tensorflow/tensorflow/compiler/xla/service/cpu/cpu_instruction_fusion.cc Pages: 1 -->
<!--zoomable 284 -->
<svg id="main" version="1.1" xmlns="http://www.w3.org/2000/svg" xmlns:xlink="http://www.w3.org/1999/xlink" xml:space="preserve" onload="init(evt)">
<style type="text/css"><![CDATA[
.edge:hover path { stroke: red; }
.edge:hover polygon { stroke: red; fill: red; }
]]></style>
<script type="text/javascript"><![CDATA[
var edges = document.getElementsByTagName('g');
if (edges && edges.length) {
  for (var i=0;i<edges.length;i++) {
    if (edges[i].id.substr(0,4)=='edge') {
      edges[i].setAttribute('class','edge');
    }
  }
}
]]></script>
        <defs>
                <circle id="rim" cx="0" cy="0" r="7"/>
                <circle id="rim2" cx="0" cy="0" r="3.5"/>
                <g id="zoomPlus">
                        <use xlink:href="#rim" fill="#404040">
                                <set attributeName="fill" to="#808080" begin="zoomplus.mouseover" end="zoomplus.mouseout"/>
                        </use>
                        <path d="M-4,0h8M0,-4v8" fill="none" stroke="white" stroke-width="1.5" pointer-events="none"/>
                </g>
                <g id="zoomMin">
                        <use xlink:href="#rim" fill="#404040">
                                <set attributeName="fill" to="#808080" begin="zoomminus.mouseover" end="zoomminus.mouseout"/>
                        </use>
                        <path d="M-4,0h8" fill="none" stroke="white" stroke-width="1.5" pointer-events="none"/>
                </g>
                <g id="dirArrow">
                        <path fill="none" stroke="white" stroke-width="1.5" d="M0,-3.0v7 M-2.5,-0.5L0,-3.0L2.5,-0.5"/>
                </g>
               <g id="resetDef">
                       <use xlink:href="#rim2" fill="#404040">
                               <set attributeName="fill" to="#808080" begin="reset.mouseover" end="reset.mouseout"/>
                       </use>
               </g>
        </defs>

<script type="text/javascript">
var viewWidth = 3362;
var viewHeight = 284;
var sectionId = 'dynsection-0';
</script>
<script xlink:href="../../svgpan.js"/>
<svg id="graph" class="graph">
<g id="viewport">
<title>tensorflow/tensorflow/compiler/xla/service/cpu/cpu_instruction_fusion.cc</title>
<polygon fill="#ffffff" stroke="transparent" points="-4,4 -4,-280 3357.5,-280 3357.5,4 -4,4"/>
<!-- Node0 -->
<g id="node1" class="node">
<title>Node0</title>
<polygon fill="#bfbfbf" stroke="#000000" points="2333,-234.5 2333,-275.5 2496,-275.5 2496,-234.5 2333,-234.5"/>
<text text-anchor="start" x="2341" y="-263.5" font-family="Helvetica,sans-Serif" font-size="10.00" fill="#000000">tensorflow/tensorflow</text>
<text text-anchor="start" x="2341" y="-252.5" font-family="Helvetica,sans-Serif" font-size="10.00" fill="#000000">/compiler/xla/service</text>
<text text-anchor="middle" x="2414.5" y="-241.5" font-family="Helvetica,sans-Serif" font-size="10.00" fill="#000000">/cpu/cpu_instruction_fusion.cc</text>
</g>
<!-- Node1 -->
<g id="node2" class="node">
<title>Node1</title>
<g id="a_node2"><a xlink:href="../../d5/d13/cpu__instruction__fusion_8h.html" target="_top" xlink:title="tensorflow/compiler\l/xla/service/cpu/cpu\l_instruction_fusion.h">
<polygon fill="#ffffff" stroke="#000000" points="2309.5,-156.5 2309.5,-197.5 2427.5,-197.5 2427.5,-156.5 2309.5,-156.5"/>
<text text-anchor="start" x="2317.5" y="-185.5" font-family="Helvetica,sans-Serif" font-size="10.00" fill="#000000">tensorflow/compiler</text>
<text text-anchor="start" x="2317.5" y="-174.5" font-family="Helvetica,sans-Serif" font-size="10.00" fill="#000000">/xla/service/cpu/cpu</text>
<text text-anchor="middle" x="2368.5" y="-163.5" font-family="Helvetica,sans-Serif" font-size="10.00" fill="#000000">_instruction_fusion.h</text>
</a>
</g>
</g>
<!-- Node0&#45;&gt;Node1 -->
<g id="edge1" class="edge">
<title>Node0&#45;&gt;Node1</title>
<path fill="none" stroke="#191970" d="M2402.1728,-234.0974C2397.1829,-225.6363 2391.3319,-215.7149 2385.9196,-206.5375"/>
<polygon fill="#191970" stroke="#191970" points="2388.7964,-204.5255 2380.7017,-197.6898 2382.7668,-208.0814 2388.7964,-204.5255"/>
</g>
<!-- Node18 -->
<g id="node19" class="node">
<title>Node18</title>
<polygon fill="#ffffff" stroke="#bfbfbf" points="3213.5,-6 3213.5,-36 3353.5,-36 3353.5,-6 3213.5,-6"/>
<text text-anchor="start" x="3221.5" y="-24" font-family="Helvetica,sans-Serif" font-size="10.00" fill="#000000">tensorflow/compiler</text>
<text text-anchor="middle" x="3283.5" y="-13" font-family="Helvetica,sans-Serif" font-size="10.00" fill="#000000">/xla/service/hlo_opcode.h</text>
</g>
<!-- Node0&#45;&gt;Node18 -->
<g id="edge33" class="edge">
<title>Node0&#45;&gt;Node18</title>
<path fill="none" stroke="#191970" d="M2490.8563,-234.4391C2659.1431,-189.1237 3059.5426,-81.3061 3217.6506,-38.7316"/>
<polygon fill="#191970" stroke="#191970" points="3218.9635,-42.0028 3227.7095,-36.023 3217.1433,-35.2436 3218.9635,-42.0028"/>
</g>
<!-- Node2 -->
<g id="node3" class="node">
<title>Node2</title>
<g id="a_node3"><a xlink:href="../../dd/d66/hlo__instruction_8h.html" target="_top" xlink:title="tensorflow/compiler\l/xla/service/hlo_instruction.h">
<polygon fill="#ffffff" stroke="#000000" points="1306,-84 1306,-114 1463,-114 1463,-84 1306,-84"/>
<text text-anchor="start" x="1314" y="-102" font-family="Helvetica,sans-Serif" font-size="10.00" fill="#000000">tensorflow/compiler</text>
<text text-anchor="middle" x="1384.5" y="-91" font-family="Helvetica,sans-Serif" font-size="10.00" fill="#000000">/xla/service/hlo_instruction.h</text>
</a>
</g>
</g>
<!-- Node1&#45;&gt;Node2 -->
<g id="edge2" class="edge">
<title>Node1&#45;&gt;Node2</title>
<path fill="none" stroke="#191970" d="M2309.1624,-172.2964C2142.7351,-159.104 1670.8165,-121.6958 1473.2278,-106.0333"/>
<polygon fill="#191970" stroke="#191970" points="1473.4185,-102.5375 1463.1732,-105.2363 1472.8653,-109.5156 1473.4185,-102.5375"/>
</g>
<!-- Node32 -->
<g id="node33" class="node">
<title>Node32</title>
<polygon fill="#ffffff" stroke="#bfbfbf" points="2304.5,-78.5 2304.5,-119.5 2432.5,-119.5 2432.5,-78.5 2304.5,-78.5"/>
<text text-anchor="start" x="2312.5" y="-107.5" font-family="Helvetica,sans-Serif" font-size="10.00" fill="#000000">tensorflow/compiler</text>
<text text-anchor="start" x="2312.5" y="-96.5" font-family="Helvetica,sans-Serif" font-size="10.00" fill="#000000">/xla/service/instruction</text>
<text text-anchor="middle" x="2368.5" y="-85.5" font-family="Helvetica,sans-Serif" font-size="10.00" fill="#000000">_fusion.h</text>
</g>
<!-- Node1&#45;&gt;Node32 -->
<g id="edge32" class="edge">
<title>Node1&#45;&gt;Node32</title>
<path fill="none" stroke="#191970" d="M2368.5,-156.0974C2368.5,-148.077 2368.5,-138.7444 2368.5,-129.9772"/>
<polygon fill="#191970" stroke="#191970" points="2372.0001,-129.6898 2368.5,-119.6898 2365.0001,-129.6898 2372.0001,-129.6898"/>
</g>
<!-- Node3 -->
<g id="node4" class="node">
<title>Node3</title>
<polygon fill="#ffffff" stroke="#bfbfbf" points="0,-11.5 0,-30.5 65,-30.5 65,-11.5 0,-11.5"/>
<text text-anchor="middle" x="32.5" y="-18.5" font-family="Helvetica,sans-Serif" font-size="10.00" fill="#000000">functional</text>
</g>
<!-- Node2&#45;&gt;Node3 -->
<g id="edge3" class="edge">
<title>Node2&#45;&gt;Node3</title>
<path fill="none" stroke="#191970" d="M1305.8167,-97.5356C1041.0329,-92.3372 192.2314,-73.3822 73.5,-42 67.7977,-40.4928 61.9782,-38.1112 56.5822,-35.484"/>
<polygon fill="#191970" stroke="#191970" points="57.9165,-32.2295 47.4438,-30.6257 54.6306,-38.4103 57.9165,-32.2295"/>
</g>
<!-- Node4 -->
<g id="node5" class="node">
<title>Node4</title>
<polygon fill="#ffffff" stroke="#bfbfbf" points="83,-11.5 83,-30.5 132,-30.5 132,-11.5 83,-11.5"/>
<text text-anchor="middle" x="107.5" y="-18.5" font-family="Helvetica,sans-Serif" font-size="10.00" fill="#000000">iosfwd</text>
</g>
<!-- Node2&#45;&gt;Node4 -->
<g id="edge4" class="edge">
<title>Node2&#45;&gt;Node4</title>
<path fill="none" stroke="#191970" d="M1305.8209,-97.687C1050.0475,-93.101 252.1847,-76.1854 141.5,-42 136.9778,-40.6033 132.4514,-38.4598 128.2441,-36.0666"/>
<polygon fill="#191970" stroke="#191970" points="129.9872,-33.0274 119.669,-30.6219 126.235,-38.9369 129.9872,-33.0274"/>
</g>
<!-- Node5 -->
<g id="node6" class="node">
<title>Node5</title>
<polygon fill="#ffffff" stroke="#bfbfbf" points="150.5,-11.5 150.5,-30.5 182.5,-30.5 182.5,-11.5 150.5,-11.5"/>
<text text-anchor="middle" x="166.5" y="-18.5" font-family="Helvetica,sans-Serif" font-size="10.00" fill="#000000">list</text>
</g>
<!-- Node2&#45;&gt;Node5 -->
<g id="edge5" class="edge">
<title>Node2&#45;&gt;Node5</title>
<path fill="none" stroke="#191970" d="M1305.7352,-98.1505C1056.3766,-95.0582 294.6174,-82.3757 191.5,-42 188.5343,-40.8388 185.6662,-39.1757 182.9956,-37.2869"/>
<polygon fill="#191970" stroke="#191970" points="185.1769,-34.5486 175.2593,-30.8213 180.6879,-39.9197 185.1769,-34.5486"/>
</g>
<!-- Node6 -->
<g id="node7" class="node">
<title>Node6</title>
<polygon fill="#ffffff" stroke="#bfbfbf" points="200.5,-11.5 200.5,-30.5 258.5,-30.5 258.5,-11.5 200.5,-11.5"/>
<text text-anchor="middle" x="229.5" y="-18.5" font-family="Helvetica,sans-Serif" font-size="10.00" fill="#000000">memory</text>
</g>
<!-- Node2&#45;&gt;Node6 -->
<g id="edge6" class="edge">
<title>Node2&#45;&gt;Node6</title>
<path fill="none" stroke="#191970" d="M1305.6214,-97.0296C1067.5475,-90.7959 366.4642,-70.2352 267.5,-42 262.288,-40.513 257.0059,-38.2045 252.1042,-35.6534"/>
<polygon fill="#191970" stroke="#191970" points="253.6844,-32.5251 243.2658,-30.6006 250.2102,-38.6022 253.6844,-32.5251"/>
</g>
<!-- Node7 -->
<g id="node8" class="node">
<title>Node7</title>
<polygon fill="#ffffff" stroke="#bfbfbf" points="276.5,-11.5 276.5,-30.5 308.5,-30.5 308.5,-11.5 276.5,-11.5"/>
<text text-anchor="middle" x="292.5" y="-18.5" font-family="Helvetica,sans-Serif" font-size="10.00" fill="#000000">set</text>
</g>
<!-- Node2&#45;&gt;Node7 -->
<g id="edge7" class="edge">
<title>Node2&#45;&gt;Node7</title>
<path fill="none" stroke="#191970" d="M1305.6201,-97.6664C1074.3508,-93.3552 408.5184,-77.934 317.5,-42 314.5376,-40.8305 311.6713,-39.1627 309.0016,-37.2717"/>
<polygon fill="#191970" stroke="#191970" points="311.1829,-34.5333 301.2654,-30.8059 306.6938,-39.9044 311.1829,-34.5333"/>
</g>
<!-- Node8 -->
<g id="node9" class="node">
<title>Node8</title>
<polygon fill="#ffffff" stroke="#bfbfbf" points="326.5,-11.5 326.5,-30.5 370.5,-30.5 370.5,-11.5 326.5,-11.5"/>
<text text-anchor="middle" x="348.5" y="-18.5" font-family="Helvetica,sans-Serif" font-size="10.00" fill="#000000">string</text>
</g>
<!-- Node2&#45;&gt;Node8 -->
<g id="edge8" class="edge">
<title>Node2&#45;&gt;Node8</title>
<path fill="none" stroke="#191970" d="M1305.6533,-96.943C1084.0602,-90.8235 466.2085,-71.316 379.5,-42 375.5261,-40.6564 371.5858,-38.6558 367.9148,-36.4148"/>
<polygon fill="#191970" stroke="#191970" points="369.6949,-33.3906 359.478,-30.5862 365.716,-39.1499 369.6949,-33.3906"/>
</g>
<!-- Node9 -->
<g id="node10" class="node">
<title>Node9</title>
<polygon fill="#ffffff" stroke="#bfbfbf" points="389,-11.5 389,-30.5 430,-30.5 430,-11.5 389,-11.5"/>
<text text-anchor="middle" x="409.5" y="-18.5" font-family="Helvetica,sans-Serif" font-size="10.00" fill="#000000">tuple</text>
</g>
<!-- Node2&#45;&gt;Node9 -->
<g id="edge9" class="edge">
<title>Node2&#45;&gt;Node9</title>
<path fill="none" stroke="#191970" d="M1305.6949,-96.7785C1093.218,-90.4332 519.0606,-70.8114 438.5,-42 434.8308,-40.6878 431.2197,-38.759 427.8582,-36.5943"/>
<polygon fill="#191970" stroke="#191970" points="429.8041,-33.6807 419.6748,-30.5746 425.6563,-39.3195 429.8041,-33.6807"/>
</g>
<!-- Node10 -->
<g id="node11" class="node">
<title>Node10</title>
<polygon fill="#ffffff" stroke="#bfbfbf" points="448,-11.5 448,-30.5 541,-30.5 541,-11.5 448,-11.5"/>
<text text-anchor="middle" x="494.5" y="-18.5" font-family="Helvetica,sans-Serif" font-size="10.00" fill="#000000">unordered_map</text>
</g>
<!-- Node2&#45;&gt;Node10 -->
<g id="edge10" class="edge">
<title>Node2&#45;&gt;Node10</title>
<path fill="none" stroke="#191970" d="M1305.9609,-96.5397C1126.9625,-90.4617 693.2206,-72.9432 550.5,-42 542.0593,-40.17 533.1916,-37.3121 525.0655,-34.2876"/>
<polygon fill="#191970" stroke="#191970" points="526.1873,-30.968 515.5998,-30.5735 523.6304,-37.4844 526.1873,-30.968"/>
</g>
<!-- Node11 -->
<g id="node12" class="node">
<title>Node11</title>
<polygon fill="#ffffff" stroke="#bfbfbf" points="559.5,-11.5 559.5,-30.5 645.5,-30.5 645.5,-11.5 559.5,-11.5"/>
<text text-anchor="middle" x="602.5" y="-18.5" font-family="Helvetica,sans-Serif" font-size="10.00" fill="#000000">unordered_set</text>
</g>
<!-- Node2&#45;&gt;Node11 -->
<g id="edge11" class="edge">
<title>Node2&#45;&gt;Node11</title>
<path fill="none" stroke="#191970" d="M1305.7813,-95.8916C1143.4404,-88.9844 776.4701,-70.6706 654.5,-42 646.9414,-40.2233 639.0458,-37.5155 631.7566,-34.6293"/>
<polygon fill="#191970" stroke="#191970" points="632.8567,-31.2953 622.2813,-30.6535 630.1482,-37.7501 632.8567,-31.2953"/>
</g>
<!-- Node12 -->
<g id="node13" class="node">
<title>Node12</title>
<polygon fill="#ffffff" stroke="#bfbfbf" points="664,-11.5 664,-30.5 711,-30.5 711,-11.5 664,-11.5"/>
<text text-anchor="middle" x="687.5" y="-18.5" font-family="Helvetica,sans-Serif" font-size="10.00" fill="#000000">vector</text>
</g>
<!-- Node2&#45;&gt;Node12 -->
<g id="edge12" class="edge">
<title>Node2&#45;&gt;Node12</title>
<path fill="none" stroke="#191970" d="M1305.9485,-97.0831C1154.1115,-92.5902 825.9245,-78.8257 719.5,-42 715.5163,-40.6215 711.542,-38.6367 707.817,-36.4307"/>
<polygon fill="#191970" stroke="#191970" points="709.4738,-33.3294 699.2077,-30.7107 705.6,-39.1599 709.4738,-33.3294"/>
</g>
<!-- Node13 -->
<g id="node14" class="node">
<title>Node13</title>
<polygon fill="#ffffff" stroke="#bfbfbf" points="729,-6 729,-36 842,-36 842,-6 729,-6"/>
<text text-anchor="start" x="737" y="-24" font-family="Helvetica,sans-Serif" font-size="10.00" fill="#000000">tensorflow/compiler</text>
<text text-anchor="middle" x="785.5" y="-13" font-family="Helvetica,sans-Serif" font-size="10.00" fill="#000000">/xla/iterator_util.h</text>
</g>
<!-- Node2&#45;&gt;Node13 -->
<g id="edge13" class="edge">
<title>Node2&#45;&gt;Node13</title>
<path fill="none" stroke="#191970" d="M1305.8825,-95.6791C1201.0331,-90.1007 1010.0966,-75.9193 850.5,-42 846.324,-41.1125 842.0371,-40.0593 837.7531,-38.9046"/>
<polygon fill="#191970" stroke="#191970" points="838.3931,-35.4471 827.8158,-36.0562 836.4643,-42.1762 838.3931,-35.4471"/>
</g>
<!-- Node14 -->
<g id="node15" class="node">
<title>Node14</title>
<polygon fill="#ffffff" stroke="#bfbfbf" points="860,-6 860,-36 973,-36 973,-6 860,-6"/>
<text text-anchor="start" x="868" y="-24" font-family="Helvetica,sans-Serif" font-size="10.00" fill="#000000">tensorflow/compiler</text>
<text text-anchor="middle" x="916.5" y="-13" font-family="Helvetica,sans-Serif" font-size="10.00" fill="#000000">/xla/literal_util.h</text>
</g>
<!-- Node2&#45;&gt;Node14 -->
<g id="edge14" class="edge">
<title>Node2&#45;&gt;Node14</title>
<path fill="none" stroke="#191970" d="M1305.7578,-91.9093C1223.987,-83.6052 1092.7038,-67.6273 981.5,-42 977.4698,-41.0712 973.3313,-40.0058 969.1889,-38.8581"/>
<polygon fill="#191970" stroke="#191970" points="970.1449,-35.4912 959.5652,-36.0567 968.1884,-42.2122 970.1449,-35.4912"/>
</g>
<!-- Node15 -->
<g id="node16" class="node">
<title>Node15</title>
<polygon fill="#ffffff" stroke="#bfbfbf" points="991,-6 991,-36 1104,-36 1104,-6 991,-6"/>
<text text-anchor="start" x="999" y="-24" font-family="Helvetica,sans-Serif" font-size="10.00" fill="#000000">tensorflow/compiler</text>
<text text-anchor="middle" x="1047.5" y="-13" font-family="Helvetica,sans-Serif" font-size="10.00" fill="#000000">/xla/map_util.h</text>
</g>
<!-- Node2&#45;&gt;Node15 -->
<g id="edge15" class="edge">
<title>Node2&#45;&gt;Node15</title>
<path fill="none" stroke="#191970" d="M1305.719,-84.7805C1251.1331,-74.3706 1176.969,-59.1177 1112.5,-42 1108.9683,-41.0623 1105.3451,-40.046 1101.7036,-38.9838"/>
<polygon fill="#191970" stroke="#191970" points="1102.6563,-35.6155 1092.072,-36.0869 1100.6401,-42.3189 1102.6563,-35.6155"/>
</g>
<!-- Node16 -->
<g id="node17" class="node">
<title>Node16</title>
<polygon fill="#ffffff" stroke="#bfbfbf" points="1122,-.5 1122,-41.5 1235,-41.5 1235,-.5 1122,-.5"/>
<text text-anchor="start" x="1130" y="-29.5" font-family="Helvetica,sans-Serif" font-size="10.00" fill="#000000">tensorflow/compiler</text>
<text text-anchor="start" x="1130" y="-18.5" font-family="Helvetica,sans-Serif" font-size="10.00" fill="#000000">/xla/service/dfs_hlo</text>
<text text-anchor="middle" x="1178.5" y="-7.5" font-family="Helvetica,sans-Serif" font-size="10.00" fill="#000000">_visitor.h</text>
</g>
<!-- Node2&#45;&gt;Node16 -->
<g id="edge16" class="edge">
<title>Node2&#45;&gt;Node16</title>
<path fill="none" stroke="#191970" d="M1344.7811,-83.9608C1315.837,-73.0014 1276.0078,-57.9204 1242.5868,-45.2659"/>
<polygon fill="#191970" stroke="#191970" points="1243.485,-41.8635 1232.8935,-41.5956 1241.0062,-48.41 1243.485,-41.8635"/>
</g>
<!-- Node17 -->
<g id="node18" class="node">
<title>Node17</title>
<polygon fill="#ffffff" stroke="#bfbfbf" points="1253,-6 1253,-36 1368,-36 1368,-6 1253,-6"/>
<text text-anchor="start" x="1261" y="-24" font-family="Helvetica,sans-Serif" font-size="10.00" fill="#000000">tensorflow/compiler</text>
<text text-anchor="middle" x="1310.5" y="-13" font-family="Helvetica,sans-Serif" font-size="10.00" fill="#000000">/xla/service/hlo.pb.h</text>
</g>
<!-- Node2&#45;&gt;Node17 -->
<g id="edge17" class="edge">
<title>Node2&#45;&gt;Node17</title>
<path fill="none" stroke="#191970" d="M1370.2321,-83.9608C1359.4501,-72.5961 1344.4634,-56.7992 1332.1991,-43.8721"/>
<polygon fill="#191970" stroke="#191970" points="1334.3984,-41.1049 1324.9766,-36.2592 1329.3201,-45.9227 1334.3984,-41.1049"/>
</g>
<!-- Node2&#45;&gt;Node18 -->
<g id="edge18" class="edge">
<title>Node2&#45;&gt;Node18</title>
<path fill="none" stroke="#191970" d="M1463.0845,-97.0399C1800.9978,-88.5471 3117.3115,-54.7817 3204.5,-42 3210.766,-41.0814 3217.248,-39.845 3223.6803,-38.4294"/>
<polygon fill="#191970" stroke="#191970" points="3224.7723,-41.7683 3233.709,-36.0774 3223.174,-34.9532 3224.7723,-41.7683"/>
</g>
<!-- Node19 -->
<g id="node20" class="node">
<title>Node19</title>
<polygon fill="#ffffff" stroke="#bfbfbf" points="1386,-6 1386,-36 1533,-36 1533,-6 1386,-6"/>
<text text-anchor="start" x="1394" y="-24" font-family="Helvetica,sans-Serif" font-size="10.00" fill="#000000">tensorflow/compiler</text>
<text text-anchor="middle" x="1459.5" y="-13" font-family="Helvetica,sans-Serif" font-size="10.00" fill="#000000">/xla/service/hlo_sharding.h</text>
</g>
<!-- Node2&#45;&gt;Node19 -->
<g id="edge19" class="edge">
<title>Node2&#45;&gt;Node19</title>
<path fill="none" stroke="#191970" d="M1398.9608,-83.9608C1409.9915,-72.4888 1425.3646,-56.5008 1437.8587,-43.507"/>
<polygon fill="#191970" stroke="#191970" points="1440.4195,-45.8934 1444.8277,-36.2592 1435.3737,-41.0416 1440.4195,-45.8934"/>
</g>
<!-- Node20 -->
<g id="node21" class="node">
<title>Node20</title>
<polygon fill="#ffffff" stroke="#bfbfbf" points="1551.5,-6 1551.5,-36 1705.5,-36 1705.5,-6 1551.5,-6"/>
<text text-anchor="start" x="1559.5" y="-24" font-family="Helvetica,sans-Serif" font-size="10.00" fill="#000000">tensorflow/compiler</text>
<text text-anchor="middle" x="1628.5" y="-13" font-family="Helvetica,sans-Serif" font-size="10.00" fill="#000000">/xla/service/name_uniquer.h</text>
</g>
<!-- Node2&#45;&gt;Node20 -->
<g id="edge20" class="edge">
<title>Node2&#45;&gt;Node20</title>
<path fill="none" stroke="#191970" d="M1431.5457,-83.9608C1471.5017,-71.188 1528.9703,-52.8169 1571.5255,-39.2132"/>
<polygon fill="#191970" stroke="#191970" points="1572.7237,-42.5047 1581.1831,-36.1259 1570.5922,-35.8371 1572.7237,-42.5047"/>
</g>
<!-- Node21 -->
<g id="node22" class="node">
<title>Node21</title>
<polygon fill="#ffffff" stroke="#bfbfbf" points="1724,-6 1724,-36 1837,-36 1837,-6 1724,-6"/>
<text text-anchor="start" x="1732" y="-24" font-family="Helvetica,sans-Serif" font-size="10.00" fill="#000000">tensorflow/compiler</text>
<text text-anchor="middle" x="1780.5" y="-13" font-family="Helvetica,sans-Serif" font-size="10.00" fill="#000000">/xla/types.h</text>
</g>
<!-- Node2&#45;&gt;Node21 -->
<g id="edge21" class="edge">
<title>Node2&#45;&gt;Node21</title>
<path fill="none" stroke="#191970" d="M1463.1334,-88.5148C1530.3865,-78.8113 1629.4978,-62.7606 1714.5,-42 1718.3328,-41.0639 1722.2674,-40.0227 1726.2147,-38.9189"/>
<polygon fill="#191970" stroke="#191970" points="1727.3788,-42.2254 1736.002,-36.0698 1725.4222,-35.5043 1727.3788,-42.2254"/>
</g>
<!-- Node22 -->
<g id="node23" class="node">
<title>Node22</title>
<polygon fill="#ffffff" stroke="#bfbfbf" points="1855,-6 1855,-36 1968,-36 1968,-6 1855,-6"/>
<text text-anchor="start" x="1863" y="-24" font-family="Helvetica,sans-Serif" font-size="10.00" fill="#000000">tensorflow/compiler</text>
<text text-anchor="middle" x="1911.5" y="-13" font-family="Helvetica,sans-Serif" font-size="10.00" fill="#000000">/xla/xla_data.pb.h</text>
</g>
<!-- Node2&#45;&gt;Node22 -->
<g id="edge22" class="edge">
<title>Node2&#45;&gt;Node22</title>
<path fill="none" stroke="#191970" d="M1463.142,-93.7284C1555.5072,-86.5148 1712.9556,-71.0189 1845.5,-42 1849.6625,-41.0887 1853.9374,-40.0272 1858.2136,-38.8747"/>
<polygon fill="#191970" stroke="#191970" points="1859.4827,-42.1526 1868.142,-36.048 1857.5658,-35.4201 1859.4827,-42.1526"/>
</g>
<!-- Node23 -->
<g id="node24" class="node">
<title>Node23</title>
<polygon fill="#ffffff" stroke="#bfbfbf" points="1986,-6 1986,-36 2093,-36 2093,-6 1986,-6"/>
<text text-anchor="start" x="1994" y="-24" font-family="Helvetica,sans-Serif" font-size="10.00" fill="#000000">tensorflow/core/lib</text>
<text text-anchor="middle" x="2039.5" y="-13" font-family="Helvetica,sans-Serif" font-size="10.00" fill="#000000">/core/status.h</text>
</g>
<!-- Node2&#45;&gt;Node23 -->
<g id="edge23" class="edge">
<title>Node2&#45;&gt;Node23</title>
<path fill="none" stroke="#191970" d="M1463.4042,-97.0504C1577.6937,-92.957 1795.4414,-80.3773 1976.5,-42 1980.6237,-41.1259 1984.8546,-40.0732 1989.0779,-38.9106"/>
<polygon fill="#191970" stroke="#191970" points="1990.2593,-42.2114 1998.8647,-36.031 1988.2834,-35.4961 1990.2593,-42.2114"/>
</g>
<!-- Node24 -->
<g id="node25" class="node">
<title>Node24</title>
<polygon fill="#ffffff" stroke="#bfbfbf" points="2111,-6 2111,-36 2218,-36 2218,-6 2111,-6"/>
<text text-anchor="start" x="2119" y="-24" font-family="Helvetica,sans-Serif" font-size="10.00" fill="#000000">tensorflow/core/lib</text>
<text text-anchor="middle" x="2164.5" y="-13" font-family="Helvetica,sans-Serif" font-size="10.00" fill="#000000">/core/stringpiece.h</text>
</g>
<!-- Node2&#45;&gt;Node24 -->
<g id="edge24" class="edge">
<title>Node2&#45;&gt;Node24</title>
<path fill="none" stroke="#191970" d="M1463.2083,-95.1545C1623.1735,-86.9434 1981.2721,-66.4391 2101.5,-42 2105.6944,-41.1474 2109.9972,-40.1004 2114.2888,-38.9334"/>
<polygon fill="#191970" stroke="#191970" points="2115.61,-42.1937 2124.2256,-36.0275 2113.6452,-35.4751 2115.61,-42.1937"/>
</g>
<!-- Node25 -->
<g id="node26" class="node">
<title>Node25</title>
<polygon fill="#ffffff" stroke="#bfbfbf" points="2236,-6 2236,-36 2343,-36 2343,-6 2236,-6"/>
<text text-anchor="start" x="2244" y="-24" font-family="Helvetica,sans-Serif" font-size="10.00" fill="#000000">tensorflow/core/lib</text>
<text text-anchor="middle" x="2289.5" y="-13" font-family="Helvetica,sans-Serif" font-size="10.00" fill="#000000">/gtl/array_slice.h</text>
</g>
<!-- Node2&#45;&gt;Node25 -->
<g id="edge25" class="edge">
<title>Node2&#45;&gt;Node25</title>
<path fill="none" stroke="#191970" d="M1463.0444,-96.2324C1643.1823,-89.4721 2081.6743,-70.5551 2226.5,-42 2230.6993,-41.172 2235.0056,-40.1425 2239.2996,-38.9874"/>
<polygon fill="#191970" stroke="#191970" points="2240.6134,-42.2505 2249.2401,-36.0998 2238.6607,-35.5284 2240.6134,-42.2505"/>
</g>
<!-- Node26 -->
<g id="node27" class="node">
<title>Node26</title>
<polygon fill="#ffffff" stroke="#bfbfbf" points="2361,-6 2361,-36 2468,-36 2468,-6 2361,-6"/>
<text text-anchor="start" x="2369" y="-24" font-family="Helvetica,sans-Serif" font-size="10.00" fill="#000000">tensorflow/core/lib</text>
<text text-anchor="middle" x="2414.5" y="-13" font-family="Helvetica,sans-Serif" font-size="10.00" fill="#000000">/gtl/flatmap.h</text>
</g>
<!-- Node2&#45;&gt;Node26 -->
<g id="edge26" class="edge">
<title>Node2&#45;&gt;Node26</title>
<path fill="none" stroke="#191970" d="M1463.0972,-97.027C1662.0717,-91.6055 2181.925,-74.6678 2351.5,-42 2355.8851,-41.1552 2360.3855,-40.0853 2364.866,-38.8778"/>
<polygon fill="#191970" stroke="#191970" points="2365.9661,-42.2029 2374.59,-36.0483 2364.0103,-35.4816 2365.9661,-42.2029"/>
</g>
<!-- Node27 -->
<g id="node28" class="node">
<title>Node27</title>
<polygon fill="#ffffff" stroke="#bfbfbf" points="2486,-6 2486,-36 2599,-36 2599,-6 2486,-6"/>
<text text-anchor="start" x="2494" y="-24" font-family="Helvetica,sans-Serif" font-size="10.00" fill="#000000">tensorflow/core/lib</text>
<text text-anchor="middle" x="2542.5" y="-13" font-family="Helvetica,sans-Serif" font-size="10.00" fill="#000000">/gtl/inlined_vector.h</text>
</g>
<!-- Node2&#45;&gt;Node27 -->
<g id="edge27" class="edge">
<title>Node2&#45;&gt;Node27</title>
<path fill="none" stroke="#191970" d="M1463.2236,-97.5026C1679.8842,-92.9659 2281.7914,-77.4515 2476.5,-42 2481.2061,-41.1431 2486.0433,-40.0455 2490.8573,-38.8026"/>
<polygon fill="#191970" stroke="#191970" points="2491.9596,-42.1289 2500.6565,-36.0779 2490.0843,-35.3848 2491.9596,-42.1289"/>
</g>
<!-- Node28 -->
<g id="node29" class="node">
<title>Node28</title>
<polygon fill="#ffffff" stroke="#bfbfbf" points="2617,-6 2617,-36 2730,-36 2730,-6 2617,-6"/>
<text text-anchor="start" x="2625" y="-24" font-family="Helvetica,sans-Serif" font-size="10.00" fill="#000000">tensorflow/core/lib</text>
<text text-anchor="middle" x="2673.5" y="-13" font-family="Helvetica,sans-Serif" font-size="10.00" fill="#000000">/gtl/iterator_range.h</text>
</g>
<!-- Node2&#45;&gt;Node28 -->
<g id="edge28" class="edge">
<title>Node2&#45;&gt;Node28</title>
<path fill="none" stroke="#191970" d="M1463.2888,-98.0139C1697.4402,-94.6588 2386.5069,-81.6008 2607.5,-42 2612.2787,-41.1437 2617.1918,-40.0351 2622.0779,-38.7752"/>
<polygon fill="#191970" stroke="#191970" points="2623.3226,-42.0619 2632.0179,-36.0087 2621.4456,-35.3182 2623.3226,-42.0619"/>
</g>
<!-- Node29 -->
<g id="node30" class="node">
<title>Node29</title>
<polygon fill="#ffffff" stroke="#bfbfbf" points="2748,-6 2748,-36 2885,-36 2885,-6 2748,-6"/>
<text text-anchor="start" x="2756" y="-24" font-family="Helvetica,sans-Serif" font-size="10.00" fill="#000000">tensorflow/core/platform</text>
<text text-anchor="middle" x="2816.5" y="-13" font-family="Helvetica,sans-Serif" font-size="10.00" fill="#000000">/logging.h</text>
</g>
<!-- Node2&#45;&gt;Node29 -->
<g id="edge29" class="edge">
<title>Node2&#45;&gt;Node29</title>
<path fill="none" stroke="#191970" d="M1463.0973,-97.9704C1713.4194,-94.3327 2490.1119,-80.1842 2738.5,-42 2744.5945,-41.0631 2750.8965,-39.8286 2757.1548,-38.4262"/>
<polygon fill="#191970" stroke="#191970" points="2757.9992,-41.8231 2766.9174,-36.1032 2756.3787,-35.0132 2757.9992,-41.8231"/>
</g>
<!-- Node30 -->
<g id="node31" class="node">
<title>Node30</title>
<polygon fill="#ffffff" stroke="#bfbfbf" points="2903,-6 2903,-36 3040,-36 3040,-6 2903,-6"/>
<text text-anchor="start" x="2911" y="-24" font-family="Helvetica,sans-Serif" font-size="10.00" fill="#000000">tensorflow/core/platform</text>
<text text-anchor="middle" x="2971.5" y="-13" font-family="Helvetica,sans-Serif" font-size="10.00" fill="#000000">/macros.h</text>
</g>
<!-- Node2&#45;&gt;Node30 -->
<g id="edge30" class="edge">
<title>Node2&#45;&gt;Node30</title>
<path fill="none" stroke="#191970" d="M1463.038,-97.0701C1752.7282,-89.8092 2751.9079,-63.4539 2893.5,-42 2899.6875,-41.0625 2906.088,-39.8137 2912.4392,-38.3906"/>
<polygon fill="#191970" stroke="#191970" points="2913.4252,-41.7538 2922.3413,-36.0307 2911.8023,-34.9445 2913.4252,-41.7538"/>
</g>
<!-- Node31 -->
<g id="node32" class="node">
<title>Node31</title>
<polygon fill="#ffffff" stroke="#bfbfbf" points="3058,-6 3058,-36 3195,-36 3195,-6 3058,-6"/>
<text text-anchor="start" x="3066" y="-24" font-family="Helvetica,sans-Serif" font-size="10.00" fill="#000000">tensorflow/core/platform</text>
<text text-anchor="middle" x="3126.5" y="-13" font-family="Helvetica,sans-Serif" font-size="10.00" fill="#000000">/types.h</text>
</g>
<!-- Node2&#45;&gt;Node31 -->
<g id="edge31" class="edge">
<title>Node2&#45;&gt;Node31</title>
<path fill="none" stroke="#191970" d="M1463.1035,-97.3813C1771.8093,-90.8775 2891.9463,-65.85 3049.5,-42 3055.6137,-41.0745 3061.9357,-39.8336 3068.2077,-38.4153"/>
<polygon fill="#191970" stroke="#191970" points="3069.0827,-41.8047 3077.9852,-36.0604 3067.4436,-34.9993 3069.0827,-41.8047"/>
</g>
</g>
</svg>
        <g id="navigator" transform="translate(0 0)" fill="#404254">
                <rect fill="#f2f5e9" fill-opacity="0.5" stroke="#606060" stroke-width=".5" x="0" y="0" width="60" height="60"/>
                <use id="zoomplus" xlink:href="#zoomPlus" x="17" y="9" onmousedown="handleZoom(evt,'in')"/>
                <use id="zoomminus" xlink:href="#zoomMin" x="42" y="9" onmousedown="handleZoom(evt,'out')"/>
                <use id="reset" xlink:href="#resetDef" x="30" y="36" onmousedown="handleReset()"/>
                <g id="arrowUp" xlink:href="#dirArrow" transform="translate(30 24)" onmousedown="handlePan(0,-1)">
                  <use xlink:href="#rim" fill="#404040">
                        <set attributeName="fill" to="#808080" begin="arrowUp.mouseover" end="arrowUp.mouseout"/>
                  </use>
                  <path fill="none" stroke="white" stroke-width="1.5" d="M0,-3.0v7 M-2.5,-0.5L0,-3.0L2.5,-0.5"/>
                </g>
                <g id="arrowRight" xlink:href="#dirArrow" transform="rotate(90) translate(36 -43)" onmousedown="handlePan(1,0)">
                  <use xlink:href="#rim" fill="#404040">
                        <set attributeName="fill" to="#808080" begin="arrowRight.mouseover" end="arrowRight.mouseout"/>
                  </use>
                  <path fill="none" stroke="white" stroke-width="1.5" d="M0,-3.0v7 M-2.5,-0.5L0,-3.0L2.5,-0.5"/>
                </g>
                <g id="arrowDown" xlink:href="#dirArrow" transform="rotate(180) translate(-30 -48)" onmousedown="handlePan(0,1)">
                  <use xlink:href="#rim" fill="#404040">
                        <set attributeName="fill" to="#808080" begin="arrowDown.mouseover" end="arrowDown.mouseout"/>
                  </use>
                  <path fill="none" stroke="white" stroke-width="1.5" d="M0,-3.0v7 M-2.5,-0.5L0,-3.0L2.5,-0.5"/>
                </g>
                <g id="arrowLeft" xlink:href="#dirArrow" transform="rotate(270) translate(-36 17)" onmousedown="handlePan(-1,0)">
                  <use xlink:href="#rim" fill="#404040">
                        <set attributeName="fill" to="#808080" begin="arrowLeft.mouseover" end="arrowLeft.mouseout"/>
                  </use>
                  <path fill="none" stroke="white" stroke-width="1.5" d="M0,-3.0v7 M-2.5,-0.5L0,-3.0L2.5,-0.5"/>
                </g>
        </g>
        <svg viewBox="0 0 15 15" width="100%" height="30px" preserveAspectRatio="xMaxYMin meet">
         <g id="arrow_out" transform="scale(0.3 0.3)">
          <a xlink:href="cpu__instruction__fusion_8cc__incl_org.svg" target="_base">
           <rect id="button" ry="5" rx="5" y="6" x="6" height="38" width="38"
                fill="#f2f5e9" fill-opacity="0.5" stroke="#606060" stroke-width="1.0"/>
           <path id="arrow"
             d="M 11.500037,31.436501 C 11.940474,20.09759 22.043105,11.32322 32.158766,21.979434 L 37.068811,17.246167 C 37.068811,17.246167 37.088388,32 37.088388,32 L 22.160133,31.978069 C 22.160133,31.978069 26.997745,27.140456 26.997745,27.140456 C 18.528582,18.264221 13.291696,25.230495 11.500037,31.436501 z"
             style="fill:#404040;"/>
          </a>
         </g>
        </svg>
</svg>
