<?xml version="1.0" encoding="UTF-8" standalone="no"?>
<!DOCTYPE svg PUBLIC "-//W3C//DTD SVG 1.1//EN"
 "http://www.w3.org/Graphics/SVG/1.1/DTD/svg11.dtd">
<!-- Generated by graphviz version 2.40.1 (20161225.0304)
 -->
<!-- Title: tensorflow/tensorflow/compiler/xla/service/cpu/cpu_hlo_support_checker.cc Pages: 1 -->
<svg width="599pt" height="206pt"
 viewBox="0.00 0.00 598.50 206.00" xmlns="http://www.w3.org/2000/svg" xmlns:xlink="http://www.w3.org/1999/xlink">
<g id="graph0" class="graph" transform="scale(1 1) rotate(0) translate(4 202)">
<title>tensorflow/tensorflow/compiler/xla/service/cpu/cpu_hlo_support_checker.cc</title>
<polygon fill="#ffffff" stroke="transparent" points="-4,4 -4,-202 594.5,-202 594.5,4 -4,4"/>
<!-- Node0 -->
<g id="node1" class="node">
<title>Node0</title>
<polygon fill="#bfbfbf" stroke="#000000" points="225.5,-156.5 225.5,-197.5 387.5,-197.5 387.5,-156.5 225.5,-156.5"/>
<text text-anchor="start" x="233.5" y="-185.5" font-family="Helvetica,sans-Serif" font-size="10.00" fill="#000000">tensorflow/tensorflow</text>
<text text-anchor="start" x="233.5" y="-174.5" font-family="Helvetica,sans-Serif" font-size="10.00" fill="#000000">/compiler/xla/service</text>
<text text-anchor="middle" x="306.5" y="-163.5" font-family="Helvetica,sans-Serif" font-size="10.00" fill="#000000">/cpu/cpu_hlo_support_checker.cc</text>
</g>
<!-- Node1 -->
<g id="node2" class="node">
<title>Node1</title>
<g id="a_node2"><a xlink:href="../../da/dc3/cpu__hlo__support__checker_8h.html" target="_top" xlink:title="tensorflow/compiler\l/xla/service/cpu/cpu\l_hlo_support_checker.h">
<polygon fill="#ffffff" stroke="#000000" points="0,-78.5 0,-119.5 119,-119.5 119,-78.5 0,-78.5"/>
<text text-anchor="start" x="8" y="-107.5" font-family="Helvetica,sans-Serif" font-size="10.00" fill="#000000">tensorflow/compiler</text>
<text text-anchor="start" x="8" y="-96.5" font-family="Helvetica,sans-Serif" font-size="10.00" fill="#000000">/xla/service/cpu/cpu</text>
<text text-anchor="middle" x="59.5" y="-85.5" font-family="Helvetica,sans-Serif" font-size="10.00" fill="#000000">_hlo_support_checker.h</text>
</a>
</g>
</g>
<!-- Node0&#45;&gt;Node1 -->
<g id="edge1" class="edge">
<title>Node0&#45;&gt;Node1</title>
<path fill="none" stroke="#191970" d="M241.2806,-156.4044C206.6597,-145.4715 164.1105,-132.0349 128.8836,-120.9106"/>
<polygon fill="#191970" stroke="#191970" points="129.7444,-117.5121 119.1546,-117.8383 127.6365,-124.1872 129.7444,-117.5121"/>
</g>
<!-- Node3 -->
<g id="node4" class="node">
<title>Node3</title>
<polygon fill="#ffffff" stroke="#bfbfbf" points="137,-84 137,-114 238,-114 238,-84 137,-84"/>
<text text-anchor="start" x="145" y="-102" font-family="Helvetica,sans-Serif" font-size="10.00" fill="#000000">tensorflow/compiler</text>
<text text-anchor="middle" x="187.5" y="-91" font-family="Helvetica,sans-Serif" font-size="10.00" fill="#000000">/xla/layout_util.h</text>
</g>
<!-- Node0&#45;&gt;Node3 -->
<g id="edge3" class="edge">
<title>Node0&#45;&gt;Node3</title>
<path fill="none" stroke="#191970" d="M274.9226,-156.3022C257.6838,-145.0028 236.4009,-131.0527 219.1506,-119.7458"/>
<polygon fill="#191970" stroke="#191970" points="220.8225,-116.6568 210.5403,-114.102 216.9851,-122.5113 220.8225,-116.6568"/>
</g>
<!-- Node4 -->
<g id="node5" class="node">
<title>Node4</title>
<polygon fill="#ffffff" stroke="#bfbfbf" points="256,-84 256,-114 357,-114 357,-84 256,-84"/>
<text text-anchor="start" x="264" y="-102" font-family="Helvetica,sans-Serif" font-size="10.00" fill="#000000">tensorflow/compiler</text>
<text text-anchor="middle" x="306.5" y="-91" font-family="Helvetica,sans-Serif" font-size="10.00" fill="#000000">/xla/shape_util.h</text>
</g>
<!-- Node0&#45;&gt;Node4 -->
<g id="edge4" class="edge">
<title>Node0&#45;&gt;Node4</title>
<path fill="none" stroke="#191970" d="M306.5,-156.0974C306.5,-146.3178 306.5,-134.5873 306.5,-124.3097"/>
<polygon fill="#191970" stroke="#191970" points="310.0001,-124.2678 306.5,-114.2679 303.0001,-124.2679 310.0001,-124.2678"/>
</g>
<!-- Node5 -->
<g id="node6" class="node">
<title>Node5</title>
<polygon fill="#ffffff" stroke="#bfbfbf" points="375,-84 375,-114 476,-114 476,-84 375,-84"/>
<text text-anchor="start" x="383" y="-102" font-family="Helvetica,sans-Serif" font-size="10.00" fill="#000000">tensorflow/compiler</text>
<text text-anchor="middle" x="425.5" y="-91" font-family="Helvetica,sans-Serif" font-size="10.00" fill="#000000">/xla/xla_data.pb.h</text>
</g>
<!-- Node0&#45;&gt;Node5 -->
<g id="edge5" class="edge">
<title>Node0&#45;&gt;Node5</title>
<path fill="none" stroke="#191970" d="M338.0774,-156.3022C355.3162,-145.0028 376.5991,-131.0527 393.8494,-119.7458"/>
<polygon fill="#191970" stroke="#191970" points="396.0149,-122.5113 402.4597,-114.102 392.1775,-116.6568 396.0149,-122.5113"/>
</g>
<!-- Node6 -->
<g id="node7" class="node">
<title>Node6</title>
<polygon fill="#ffffff" stroke="#bfbfbf" points="494.5,-84 494.5,-114 590.5,-114 590.5,-84 494.5,-84"/>
<text text-anchor="start" x="502.5" y="-102" font-family="Helvetica,sans-Serif" font-size="10.00" fill="#000000">tensorflow/core/lib</text>
<text text-anchor="middle" x="542.5" y="-91" font-family="Helvetica,sans-Serif" font-size="10.00" fill="#000000">/core/errors.h</text>
</g>
<!-- Node0&#45;&gt;Node6 -->
<g id="edge6" class="edge">
<title>Node0&#45;&gt;Node6</title>
<path fill="none" stroke="#191970" d="M373.4611,-156.4569C407.1854,-145.9131 448.6373,-132.6526 485.5,-120 487.9002,-119.1762 490.3528,-118.3217 492.8267,-117.4496"/>
<polygon fill="#191970" stroke="#191970" points="494.1693,-120.6866 502.4087,-114.026 491.814,-114.0947 494.1693,-120.6866"/>
</g>
<!-- Node2 -->
<g id="node3" class="node">
<title>Node2</title>
<polygon fill="#ffffff" stroke="#bfbfbf" points="5,-.5 5,-41.5 114,-41.5 114,-.5 5,-.5"/>
<text text-anchor="start" x="13" y="-29.5" font-family="Helvetica,sans-Serif" font-size="10.00" fill="#000000">tensorflow/compiler</text>
<text text-anchor="start" x="13" y="-18.5" font-family="Helvetica,sans-Serif" font-size="10.00" fill="#000000">/xla/service/hlo_pass</text>
<text text-anchor="middle" x="59.5" y="-7.5" font-family="Helvetica,sans-Serif" font-size="10.00" fill="#000000">_interface.h</text>
</g>
<!-- Node1&#45;&gt;Node2 -->
<g id="edge2" class="edge">
<title>Node1&#45;&gt;Node2</title>
<path fill="none" stroke="#191970" d="M59.5,-78.0974C59.5,-70.077 59.5,-60.7444 59.5,-51.9772"/>
<polygon fill="#191970" stroke="#191970" points="63.0001,-51.6898 59.5,-41.6898 56.0001,-51.6898 63.0001,-51.6898"/>
</g>
</g>
</svg>
