<?xml version="1.0" encoding="UTF-8" standalone="no"?>
<!DOCTYPE svg PUBLIC "-//W3C//DTD SVG 1.1//EN"
 "http://www.w3.org/Graphics/SVG/1.1/DTD/svg11.dtd">
<!-- Generated by graphviz version 2.40.1 (20161225.0304)
 -->
<!-- Title: tensorflow/tensorflow/compiler/tf2xla/tf2xla.cc Pages: 1 -->
<svg width="3396pt" height="173pt"
 viewBox="0.00 0.00 3396.00 173.00" xmlns="http://www.w3.org/2000/svg" xmlns:xlink="http://www.w3.org/1999/xlink">
<g id="graph0" class="graph" transform="scale(1 1) rotate(0) translate(4 169)">
<title>tensorflow/tensorflow/compiler/tf2xla/tf2xla.cc</title>
<polygon fill="#ffffff" stroke="transparent" points="-4,4 -4,-169 3392,-169 3392,4 -4,4"/>
<!-- Node0 -->
<g id="node1" class="node">
<title>Node0</title>
<polygon fill="#bfbfbf" stroke="#000000" points="1509,-134.5 1509,-164.5 1633,-164.5 1633,-134.5 1509,-134.5"/>
<text text-anchor="start" x="1517" y="-152.5" font-family="Helvetica,sans-Serif" font-size="10.00" fill="#000000">tensorflow/tensorflow</text>
<text text-anchor="middle" x="1571" y="-141.5" font-family="Helvetica,sans-Serif" font-size="10.00" fill="#000000">/compiler/tf2xla/tf2xla.cc</text>
</g>
<!-- Node1 -->
<g id="node2" class="node">
<title>Node1</title>
<g id="a_node2"><a xlink:href="../../d7/d62/tf2xla_8h.html" target="_top" xlink:title="tensorflow/compiler\l/tf2xla/tf2xla.h">
<polygon fill="#ffffff" stroke="#000000" points="536.5,-67.5 536.5,-97.5 637.5,-97.5 637.5,-67.5 536.5,-67.5"/>
<text text-anchor="start" x="544.5" y="-85.5" font-family="Helvetica,sans-Serif" font-size="10.00" fill="#000000">tensorflow/compiler</text>
<text text-anchor="middle" x="587" y="-74.5" font-family="Helvetica,sans-Serif" font-size="10.00" fill="#000000">/tf2xla/tf2xla.h</text>
</a>
</g>
</g>
<!-- Node0&#45;&gt;Node1 -->
<g id="edge1" class="edge">
<title>Node0&#45;&gt;Node1</title>
<path fill="none" stroke="#191970" d="M1508.7753,-145.4265C1378.0517,-136.8468 1065.2915,-116.2051 803,-98 750.569,-94.3609 690.9909,-90.0742 647.7056,-86.9324"/>
<polygon fill="#191970" stroke="#191970" points="647.8488,-83.4337 637.6214,-86.1998 647.3415,-90.4153 647.8488,-83.4337"/>
</g>
<!-- Node5 -->
<g id="node6" class="node">
<title>Node5</title>
<polygon fill="#ffffff" stroke="#bfbfbf" points="256,-.5 256,-30.5 388,-30.5 388,-.5 256,-.5"/>
<text text-anchor="start" x="264" y="-18.5" font-family="Helvetica,sans-Serif" font-size="10.00" fill="#000000">tensorflow/core/framework</text>
<text text-anchor="middle" x="322" y="-7.5" font-family="Helvetica,sans-Serif" font-size="10.00" fill="#000000">/graph.pb.h</text>
</g>
<!-- Node0&#45;&gt;Node5 -->
<g id="edge40" class="edge">
<title>Node0&#45;&gt;Node5</title>
<path fill="none" stroke="#191970" d="M1508.852,-149.137C1313.8547,-147.5736 715.8879,-139.4362 527,-98 466.1156,-84.6439 399.9395,-55.01 359.7129,-35.1401"/>
<polygon fill="#191970" stroke="#191970" points="361.0644,-31.9028 350.5546,-30.563 357.9349,-38.1644 361.0644,-31.9028"/>
</g>
<!-- Node6 -->
<g id="node7" class="node">
<title>Node6</title>
<polygon fill="#ffffff" stroke="#bfbfbf" points="1392.5,-73 1392.5,-92 1427.5,-92 1427.5,-73 1392.5,-73"/>
<text text-anchor="middle" x="1410" y="-80" font-family="Helvetica,sans-Serif" font-size="10.00" fill="#000000">map</text>
</g>
<!-- Node0&#45;&gt;Node6 -->
<g id="edge6" class="edge">
<title>Node0&#45;&gt;Node6</title>
<path fill="none" stroke="#191970" d="M1526.8332,-134.4686C1500.3557,-124.9814 1466.2578,-111.9184 1437,-98 1436.3045,-97.6691 1435.6027,-97.3271 1434.8976,-96.9761"/>
<polygon fill="#191970" stroke="#191970" points="1436.241,-93.7255 1425.7723,-92.0956 1432.9397,-99.8981 1436.241,-93.7255"/>
</g>
<!-- Node7 -->
<g id="node8" class="node">
<title>Node7</title>
<polygon fill="#ffffff" stroke="#bfbfbf" points="1222,-6 1222,-25 1274,-25 1274,-6 1222,-6"/>
<text text-anchor="middle" x="1248" y="-13" font-family="Helvetica,sans-Serif" font-size="10.00" fill="#000000">memory</text>
</g>
<!-- Node0&#45;&gt;Node7 -->
<g id="edge7" class="edge">
<title>Node0&#45;&gt;Node7</title>
<path fill="none" stroke="#191970" d="M1508.9071,-144.3228C1416.7259,-136.0003 1252.5857,-118.4865 1235,-98 1219.9394,-80.4551 1228.6865,-52.7556 1237.4245,-34.3606"/>
<polygon fill="#191970" stroke="#191970" points="1240.6636,-35.7154 1242.1268,-25.222 1234.4392,-32.5126 1240.6636,-35.7154"/>
</g>
<!-- Node8 -->
<g id="node9" class="node">
<title>Node8</title>
<polygon fill="#ffffff" stroke="#bfbfbf" points="1445.5,-73 1445.5,-92 1486.5,-92 1486.5,-73 1445.5,-73"/>
<text text-anchor="middle" x="1466" y="-80" font-family="Helvetica,sans-Serif" font-size="10.00" fill="#000000">string</text>
</g>
<!-- Node0&#45;&gt;Node8 -->
<g id="edge8" class="edge">
<title>Node0&#45;&gt;Node8</title>
<path fill="none" stroke="#191970" d="M1547.436,-134.4639C1530.2944,-123.526 1507.1679,-108.769 1489.9398,-97.7759"/>
<polygon fill="#191970" stroke="#191970" points="1491.3636,-94.5326 1481.0509,-92.1039 1487.5982,-100.4336 1491.3636,-94.5326"/>
</g>
<!-- Node9 -->
<g id="node10" class="node">
<title>Node9</title>
<polygon fill="#ffffff" stroke="#bfbfbf" points="1072.5,-6 1072.5,-25 1155.5,-25 1155.5,-6 1072.5,-6"/>
<text text-anchor="middle" x="1114" y="-13" font-family="Helvetica,sans-Serif" font-size="10.00" fill="#000000">unordered_map</text>
</g>
<!-- Node0&#45;&gt;Node9 -->
<g id="edge9" class="edge">
<title>Node0&#45;&gt;Node9</title>
<path fill="none" stroke="#191970" d="M1508.9785,-144.1108C1423.0079,-136.0021 1272.5008,-119.3168 1222,-98 1185.318,-82.5162 1150.0681,-51.5979 1130.3013,-32.3213"/>
<polygon fill="#191970" stroke="#191970" points="1132.6012,-29.6718 1123.0495,-25.0874 1127.6575,-34.6277 1132.6012,-29.6718"/>
</g>
<!-- Node10 -->
<g id="node11" class="node">
<title>Node10</title>
<polygon fill="#ffffff" stroke="#bfbfbf" points="1505,-73 1505,-92 1545,-92 1545,-73 1505,-73"/>
<text text-anchor="middle" x="1525" y="-80" font-family="Helvetica,sans-Serif" font-size="10.00" fill="#000000">utility</text>
</g>
<!-- Node0&#45;&gt;Node10 -->
<g id="edge10" class="edge">
<title>Node0&#45;&gt;Node10</title>
<path fill="none" stroke="#191970" d="M1560.5619,-134.2967C1553.6732,-124.2631 1544.6158,-111.0709 1537.366,-100.5113"/>
<polygon fill="#191970" stroke="#191970" points="1540.1056,-98.318 1531.5601,-92.055 1534.3348,-102.28 1540.1056,-98.318"/>
</g>
<!-- Node11 -->
<g id="node12" class="node">
<title>Node11</title>
<polygon fill="#ffffff" stroke="#bfbfbf" points="1292,-6 1292,-25 1336,-25 1336,-6 1292,-6"/>
<text text-anchor="middle" x="1314" y="-13" font-family="Helvetica,sans-Serif" font-size="10.00" fill="#000000">vector</text>
</g>
<!-- Node0&#45;&gt;Node11 -->
<g id="edge11" class="edge">
<title>Node0&#45;&gt;Node11</title>
<path fill="none" stroke="#191970" d="M1508.9043,-144.0115C1419.1291,-135.4404 1261.9125,-117.794 1245,-98 1224.9486,-74.5323 1259.5664,-46.9711 1286.6092,-30.3891"/>
<polygon fill="#191970" stroke="#191970" points="1288.5618,-33.301 1295.3999,-25.2083 1285.0077,-27.2704 1288.5618,-33.301"/>
</g>
<!-- Node12 -->
<g id="node13" class="node">
<title>Node12</title>
<polygon fill="#ffffff" stroke="#bfbfbf" points="1563,-67.5 1563,-97.5 1671,-97.5 1671,-67.5 1563,-67.5"/>
<text text-anchor="start" x="1571" y="-85.5" font-family="Helvetica,sans-Serif" font-size="10.00" fill="#000000">tensorflow/compiler</text>
<text text-anchor="middle" x="1617" y="-74.5" font-family="Helvetica,sans-Serif" font-size="10.00" fill="#000000">/tf2xla/dump_graph.h</text>
</g>
<!-- Node0&#45;&gt;Node12 -->
<g id="edge12" class="edge">
<title>Node0&#45;&gt;Node12</title>
<path fill="none" stroke="#191970" d="M1581.4381,-134.2967C1587.1431,-125.9873 1594.3354,-115.5115 1600.7567,-106.1587"/>
<polygon fill="#191970" stroke="#191970" points="1603.8285,-107.8682 1606.6032,-97.6432 1598.0577,-103.9062 1603.8285,-107.8682"/>
</g>
<!-- Node13 -->
<g id="node14" class="node">
<title>Node13</title>
<polygon fill="#ffffff" stroke="#bfbfbf" points="1689.5,-67.5 1689.5,-97.5 1790.5,-97.5 1790.5,-67.5 1689.5,-67.5"/>
<text text-anchor="start" x="1697.5" y="-85.5" font-family="Helvetica,sans-Serif" font-size="10.00" fill="#000000">tensorflow/compiler</text>
<text text-anchor="middle" x="1740" y="-74.5" font-family="Helvetica,sans-Serif" font-size="10.00" fill="#000000">/tf2xla/shape_util.h</text>
</g>
<!-- Node0&#45;&gt;Node13 -->
<g id="edge13" class="edge">
<title>Node0&#45;&gt;Node13</title>
<path fill="none" stroke="#191970" d="M1608.9269,-134.4639C1633.6289,-124.6708 1666.0531,-111.8162 1692.4717,-101.3426"/>
<polygon fill="#191970" stroke="#191970" points="1693.9015,-104.5408 1701.9077,-97.6017 1691.3216,-98.0335 1693.9015,-104.5408"/>
</g>
<!-- Node14 -->
<g id="node15" class="node">
<title>Node14</title>
<g id="a_node15"><a xlink:href="../../d2/d2b/tf2xla__util_8h.html" target="_top" xlink:title="tensorflow/compiler\l/tf2xla/tf2xla_util.h">
<polygon fill="#ffffff" stroke="#000000" points="812.5,-67.5 812.5,-97.5 913.5,-97.5 913.5,-67.5 812.5,-67.5"/>
<text text-anchor="start" x="820.5" y="-85.5" font-family="Helvetica,sans-Serif" font-size="10.00" fill="#000000">tensorflow/compiler</text>
<text text-anchor="middle" x="863" y="-74.5" font-family="Helvetica,sans-Serif" font-size="10.00" fill="#000000">/tf2xla/tf2xla_util.h</text>
</a>
</g>
</g>
<!-- Node0&#45;&gt;Node14 -->
<g id="edge14" class="edge">
<title>Node0&#45;&gt;Node14</title>
<path fill="none" stroke="#191970" d="M1508.8744,-147.4688C1394.1273,-143.0602 1141.4468,-130.2805 931,-98 928.6269,-97.636 926.2135,-97.2354 923.7802,-96.806"/>
<polygon fill="#191970" stroke="#191970" points="924.1945,-93.3223 913.7177,-94.8992 922.8911,-100.1999 924.1945,-93.3223"/>
</g>
<!-- Node15 -->
<g id="node16" class="node">
<title>Node15</title>
<polygon fill="#ffffff" stroke="#bfbfbf" points="786,-6 786,-25 940,-25 940,-6 786,-6"/>
<text text-anchor="middle" x="863" y="-13" font-family="Helvetica,sans-Serif" font-size="10.00" fill="#000000">tensorflow/core/framework/op.h</text>
</g>
<!-- Node0&#45;&gt;Node15 -->
<g id="edge45" class="edge">
<title>Node0&#45;&gt;Node15</title>
<path fill="none" stroke="#191970" d="M1508.7855,-148.4157C1376.3008,-145.4157 1070.5367,-134.6243 974,-98 954.0468,-90.4301 908.2835,-53.5943 882.1749,-31.786"/>
<polygon fill="#191970" stroke="#191970" points="884.3533,-29.0449 874.4464,-25.2895 879.8492,-34.4033 884.3533,-29.0449"/>
</g>
<!-- Node16 -->
<g id="node17" class="node">
<title>Node16</title>
<polygon fill="#ffffff" stroke="#bfbfbf" points="128,-.5 128,-30.5 238,-30.5 238,-.5 128,-.5"/>
<text text-anchor="start" x="136" y="-18.5" font-family="Helvetica,sans-Serif" font-size="10.00" fill="#000000">tensorflow/core/graph</text>
<text text-anchor="middle" x="183" y="-7.5" font-family="Helvetica,sans-Serif" font-size="10.00" fill="#000000">/graph.h</text>
</g>
<!-- Node0&#45;&gt;Node16 -->
<g id="edge49" class="edge">
<title>Node0&#45;&gt;Node16</title>
<path fill="none" stroke="#191970" d="M1508.5791,-148.3919C1255.3209,-143.724 315.2188,-124.6649 258,-98 231.3737,-85.5918 209.9595,-58.903 196.9349,-39.2252"/>
<polygon fill="#191970" stroke="#191970" points="199.8694,-37.3173 191.5523,-30.7539 193.9611,-41.0713 199.8694,-37.3173"/>
</g>
<!-- Node18 -->
<g id="node19" class="node">
<title>Node18</title>
<polygon fill="#ffffff" stroke="#bfbfbf" points="1808.5,-67.5 1808.5,-97.5 1917.5,-97.5 1917.5,-67.5 1808.5,-67.5"/>
<text text-anchor="start" x="1816.5" y="-85.5" font-family="Helvetica,sans-Serif" font-size="10.00" fill="#000000">tensorflow/compiler</text>
<text text-anchor="middle" x="1863" y="-74.5" font-family="Helvetica,sans-Serif" font-size="10.00" fill="#000000">/tf2xla/xla_compiler.h</text>
</g>
<!-- Node0&#45;&gt;Node18 -->
<g id="edge21" class="edge">
<title>Node0&#45;&gt;Node18</title>
<path fill="none" stroke="#191970" d="M1633.2815,-135.8468C1677.0365,-126.1734 1737.1918,-112.7121 1798.5284,-98.3255"/>
<polygon fill="#191970" stroke="#191970" points="1799.447,-101.7051 1808.3804,-96.0091 1797.8447,-94.8909 1799.447,-101.7051"/>
</g>
<!-- Node19 -->
<g id="node20" class="node">
<title>Node19</title>
<g id="a_node20"><a xlink:href="../../d7/d49/xla__op__registry_8h.html" target="_top" xlink:title="tensorflow/compiler\l/tf2xla/xla_op_registry.h">
<polygon fill="#ffffff" stroke="#000000" points="1254,-67.5 1254,-97.5 1374,-97.5 1374,-67.5 1254,-67.5"/>
<text text-anchor="start" x="1262" y="-85.5" font-family="Helvetica,sans-Serif" font-size="10.00" fill="#000000">tensorflow/compiler</text>
<text text-anchor="middle" x="1314" y="-74.5" font-family="Helvetica,sans-Serif" font-size="10.00" fill="#000000">/tf2xla/xla_op_registry.h</text>
</a>
</g>
</g>
<!-- Node0&#45;&gt;Node19 -->
<g id="edge22" class="edge">
<title>Node0&#45;&gt;Node19</title>
<path fill="none" stroke="#191970" d="M1513.3242,-134.4639C1474.3591,-124.3057 1422.7589,-110.8535 1381.8227,-100.1814"/>
<polygon fill="#191970" stroke="#191970" points="1382.4869,-96.7376 1371.9274,-97.6017 1380.721,-103.5112 1382.4869,-96.7376"/>
</g>
<!-- Node31 -->
<g id="node32" class="node">
<title>Node31</title>
<polygon fill="#ffffff" stroke="#bfbfbf" points="1936,-67.5 1936,-97.5 2060,-97.5 2060,-67.5 1936,-67.5"/>
<text text-anchor="start" x="1944" y="-85.5" font-family="Helvetica,sans-Serif" font-size="10.00" fill="#000000">tensorflow/core/common</text>
<text text-anchor="middle" x="1998" y="-74.5" font-family="Helvetica,sans-Serif" font-size="10.00" fill="#000000">_runtime/function.h</text>
</g>
<!-- Node0&#45;&gt;Node31 -->
<g id="edge38" class="edge">
<title>Node0&#45;&gt;Node31</title>
<path fill="none" stroke="#191970" d="M1633.2773,-141.8577C1702.3554,-133.0738 1817.3135,-117.5475 1925.5924,-98.1855"/>
<polygon fill="#191970" stroke="#191970" points="1926.4919,-101.5798 1935.7122,-96.361 1925.2499,-94.6909 1926.4919,-101.5798"/>
</g>
<!-- Node32 -->
<g id="node33" class="node">
<title>Node32</title>
<polygon fill="#ffffff" stroke="#bfbfbf" points="2078,-67.5 2078,-97.5 2210,-97.5 2210,-67.5 2078,-67.5"/>
<text text-anchor="start" x="2086" y="-85.5" font-family="Helvetica,sans-Serif" font-size="10.00" fill="#000000">tensorflow/core/framework</text>
<text text-anchor="middle" x="2144" y="-74.5" font-family="Helvetica,sans-Serif" font-size="10.00" fill="#000000">/function.h</text>
</g>
<!-- Node0&#45;&gt;Node32 -->
<g id="edge39" class="edge">
<title>Node0&#45;&gt;Node32</title>
<path fill="none" stroke="#191970" d="M1633.3684,-145.0793C1725.9946,-138.0659 1905.538,-122.7537 2067.6534,-98.1156"/>
<polygon fill="#191970" stroke="#191970" points="2068.4593,-101.533 2077.8123,-96.5558 2067.3969,-94.6141 2068.4593,-101.533"/>
</g>
<!-- Node33 -->
<g id="node34" class="node">
<title>Node33</title>
<g id="a_node34"><a xlink:href="../../de/d25/graph__def__util_8h.html" target="_top" xlink:title="tensorflow/core/framework\l/graph_def_util.h">
<polygon fill="#ffffff" stroke="#000000" points="983,-67.5 983,-97.5 1115,-97.5 1115,-67.5 983,-67.5"/>
<text text-anchor="start" x="991" y="-85.5" font-family="Helvetica,sans-Serif" font-size="10.00" fill="#000000">tensorflow/core/framework</text>
<text text-anchor="middle" x="1049" y="-74.5" font-family="Helvetica,sans-Serif" font-size="10.00" fill="#000000">/graph_def_util.h</text>
</a>
</g>
</g>
<!-- Node0&#45;&gt;Node33 -->
<g id="edge41" class="edge">
<title>Node0&#45;&gt;Node33</title>
<path fill="none" stroke="#191970" d="M1508.9612,-143.4332C1424.0993,-134.8509 1267.1542,-117.9663 1134,-98 1131.149,-97.5725 1128.247,-97.1218 1125.3178,-96.6539"/>
<polygon fill="#191970" stroke="#191970" points="1125.7231,-93.1736 1115.2878,-95.0048 1124.5874,-100.0809 1125.7231,-93.1736"/>
</g>
<!-- Node34 -->
<g id="node35" class="node">
<title>Node34</title>
<polygon fill="#ffffff" stroke="#bfbfbf" points="2228,-67.5 2228,-97.5 2360,-97.5 2360,-67.5 2228,-67.5"/>
<text text-anchor="start" x="2236" y="-85.5" font-family="Helvetica,sans-Serif" font-size="10.00" fill="#000000">tensorflow/core/framework</text>
<text text-anchor="middle" x="2294" y="-74.5" font-family="Helvetica,sans-Serif" font-size="10.00" fill="#000000">/tensor_shape.h</text>
</g>
<!-- Node0&#45;&gt;Node34 -->
<g id="edge46" class="edge">
<title>Node0&#45;&gt;Node34</title>
<path fill="none" stroke="#191970" d="M1633.3853,-147.1267C1747.4983,-142.2217 1997.604,-128.8628 2217.6988,-98.0739"/>
<polygon fill="#191970" stroke="#191970" points="2218.4137,-101.5077 2227.825,-96.6419 2217.4335,-94.5766 2218.4137,-101.5077"/>
</g>
<!-- Node35 -->
<g id="node36" class="node">
<title>Node35</title>
<polygon fill="#ffffff" stroke="#bfbfbf" points="2378,-67.5 2378,-97.5 2510,-97.5 2510,-67.5 2378,-67.5"/>
<text text-anchor="start" x="2386" y="-85.5" font-family="Helvetica,sans-Serif" font-size="10.00" fill="#000000">tensorflow/core/framework</text>
<text text-anchor="middle" x="2444" y="-74.5" font-family="Helvetica,sans-Serif" font-size="10.00" fill="#000000">/versions.pb.h</text>
</g>
<!-- Node0&#45;&gt;Node35 -->
<g id="edge47" class="edge">
<title>Node0&#45;&gt;Node35</title>
<path fill="none" stroke="#191970" d="M1633.1199,-148.4332C1766.2015,-145.5115 2088.7378,-135.0303 2367.9198,-98.0235"/>
<polygon fill="#191970" stroke="#191970" points="2368.3857,-101.4925 2377.8325,-96.6958 2367.4564,-94.5544 2368.3857,-101.4925"/>
</g>
<!-- Node36 -->
<g id="node37" class="node">
<title>Node36</title>
<polygon fill="#ffffff" stroke="#bfbfbf" points="2528,-67.5 2528,-97.5 2638,-97.5 2638,-67.5 2528,-67.5"/>
<text text-anchor="start" x="2536" y="-85.5" font-family="Helvetica,sans-Serif" font-size="10.00" fill="#000000">tensorflow/core/graph</text>
<text text-anchor="middle" x="2583" y="-74.5" font-family="Helvetica,sans-Serif" font-size="10.00" fill="#000000">/algorithm.h</text>
</g>
<!-- Node0&#45;&gt;Node36 -->
<g id="edge48" class="edge">
<title>Node0&#45;&gt;Node36</title>
<path fill="none" stroke="#191970" d="M1633.2789,-147.6092C1812.4695,-141.9365 2328.0741,-123.9251 2517.829,-97.948"/>
<polygon fill="#191970" stroke="#191970" points="2518.5602,-101.3793 2527.9677,-96.5061 2517.5745,-94.449 2518.5602,-101.3793"/>
</g>
<!-- Node37 -->
<g id="node38" class="node">
<title>Node37</title>
<g id="a_node38"><a xlink:href="../../d7/dfb/graph__constructor_8h.html" target="_top" xlink:title="tensorflow/core/graph\l/graph_constructor.h">
<polygon fill="#ffffff" stroke="#000000" points="267,-67.5 267,-97.5 377,-97.5 377,-67.5 267,-67.5"/>
<text text-anchor="start" x="275" y="-85.5" font-family="Helvetica,sans-Serif" font-size="10.00" fill="#000000">tensorflow/core/graph</text>
<text text-anchor="middle" x="322" y="-74.5" font-family="Helvetica,sans-Serif" font-size="10.00" fill="#000000">/graph_constructor.h</text>
</a>
</g>
</g>
<!-- Node0&#45;&gt;Node37 -->
<g id="edge50" class="edge">
<title>Node0&#45;&gt;Node37</title>
<path fill="none" stroke="#191970" d="M1508.8259,-148.4456C1338.2242,-145.1672 848.5002,-133.1696 443,-98 424.8368,-96.4247 405.2069,-94.1562 387.1505,-91.8388"/>
<polygon fill="#191970" stroke="#191970" points="387.383,-88.3394 377.0133,-90.5121 386.4746,-95.2802 387.383,-88.3394"/>
</g>
<!-- Node39 -->
<g id="node40" class="node">
<title>Node39</title>
<polygon fill="#ffffff" stroke="#bfbfbf" points="2656,-67.5 2656,-97.5 2766,-97.5 2766,-67.5 2656,-67.5"/>
<text text-anchor="start" x="2664" y="-85.5" font-family="Helvetica,sans-Serif" font-size="10.00" fill="#000000">tensorflow/core/graph</text>
<text text-anchor="middle" x="2711" y="-74.5" font-family="Helvetica,sans-Serif" font-size="10.00" fill="#000000">/node_builder.h</text>
</g>
<!-- Node0&#45;&gt;Node39 -->
<g id="edge55" class="edge">
<title>Node0&#45;&gt;Node39</title>
<path fill="none" stroke="#191970" d="M1633.0834,-148.0778C1828.4508,-143.3625 2429.9574,-126.9534 2645.9789,-97.9211"/>
<polygon fill="#191970" stroke="#191970" points="2646.5497,-101.3754 2655.9711,-96.529 2645.5838,-94.4424 2646.5497,-101.3754"/>
</g>
<!-- Node40 -->
<g id="node41" class="node">
<title>Node40</title>
<polygon fill="#ffffff" stroke="#bfbfbf" points="2784,-67.5 2784,-97.5 2880,-97.5 2880,-67.5 2784,-67.5"/>
<text text-anchor="start" x="2792" y="-85.5" font-family="Helvetica,sans-Serif" font-size="10.00" fill="#000000">tensorflow/core/lib</text>
<text text-anchor="middle" x="2832" y="-74.5" font-family="Helvetica,sans-Serif" font-size="10.00" fill="#000000">/core/errors.h</text>
</g>
<!-- Node0&#45;&gt;Node40 -->
<g id="edge56" class="edge">
<title>Node0&#45;&gt;Node40</title>
<path fill="none" stroke="#191970" d="M1633.2726,-148.6671C1844.2364,-145.5632 2531.7445,-133.0696 2773.8084,-97.9009"/>
<polygon fill="#191970" stroke="#191970" points="2774.5937,-101.3222 2783.9606,-96.3714 2773.5508,-94.4003 2774.5937,-101.3222"/>
</g>
<!-- Node41 -->
<g id="node42" class="node">
<title>Node41</title>
<polygon fill="#ffffff" stroke="#bfbfbf" points="2898,-67.5 2898,-97.5 2994,-97.5 2994,-67.5 2898,-67.5"/>
<text text-anchor="start" x="2906" y="-85.5" font-family="Helvetica,sans-Serif" font-size="10.00" fill="#000000">tensorflow/core/lib</text>
<text text-anchor="middle" x="2946" y="-74.5" font-family="Helvetica,sans-Serif" font-size="10.00" fill="#000000">/strings/str_util.h</text>
</g>
<!-- Node0&#45;&gt;Node41 -->
<g id="edge57" class="edge">
<title>Node0&#45;&gt;Node41</title>
<path fill="none" stroke="#191970" d="M1633.1917,-148.9355C1857.118,-146.6162 2622.5118,-136.1343 2887.9725,-97.8739"/>
<polygon fill="#191970" stroke="#191970" points="2888.5882,-101.3209 2897.9626,-96.3842 2887.5557,-94.3975 2888.5882,-101.3209"/>
</g>
<!-- Node42 -->
<g id="node43" class="node">
<title>Node42</title>
<polygon fill="#ffffff" stroke="#bfbfbf" points="3012,-67.5 3012,-97.5 3108,-97.5 3108,-67.5 3012,-67.5"/>
<text text-anchor="start" x="3020" y="-85.5" font-family="Helvetica,sans-Serif" font-size="10.00" fill="#000000">tensorflow/core/lib</text>
<text text-anchor="middle" x="3060" y="-74.5" font-family="Helvetica,sans-Serif" font-size="10.00" fill="#000000">/strings/strcat.h</text>
</g>
<!-- Node0&#45;&gt;Node42 -->
<g id="edge58" class="edge">
<title>Node0&#45;&gt;Node42</title>
<path fill="none" stroke="#191970" d="M1633.1595,-149.1608C1869.479,-147.5805 2712.8291,-139.22 3001.9162,-97.8795"/>
<polygon fill="#191970" stroke="#191970" points="3002.5832,-101.3191 3011.9642,-96.395 3001.56,-94.3942 3002.5832,-101.3191"/>
</g>
<!-- Node43 -->
<g id="node44" class="node">
<title>Node43</title>
<polygon fill="#ffffff" stroke="#bfbfbf" points="3126,-67.5 3126,-97.5 3248,-97.5 3248,-67.5 3126,-67.5"/>
<text text-anchor="start" x="3134" y="-85.5" font-family="Helvetica,sans-Serif" font-size="10.00" fill="#000000">tensorflow/core/platform</text>
<text text-anchor="middle" x="3187" y="-74.5" font-family="Helvetica,sans-Serif" font-size="10.00" fill="#000000">/logging.h</text>
</g>
<!-- Node0&#45;&gt;Node43 -->
<g id="edge59" class="edge">
<title>Node0&#45;&gt;Node43</title>
<path fill="none" stroke="#191970" d="M1633.2824,-148.96C1881.6365,-146.5717 2802.5097,-135.4188 3115.6672,-97.9846"/>
<polygon fill="#191970" stroke="#191970" points="3116.1545,-101.4512 3125.6521,-96.7558 3115.2995,-94.5036 3116.1545,-101.4512"/>
</g>
<!-- Node44 -->
<g id="node45" class="node">
<title>Node44</title>
<polygon fill="#ffffff" stroke="#bfbfbf" points="3266,-67.5 3266,-97.5 3388,-97.5 3388,-67.5 3266,-67.5"/>
<text text-anchor="start" x="3274" y="-85.5" font-family="Helvetica,sans-Serif" font-size="10.00" fill="#000000">tensorflow/core/platform</text>
<text text-anchor="middle" x="3327" y="-74.5" font-family="Helvetica,sans-Serif" font-size="10.00" fill="#000000">/types.h</text>
</g>
<!-- Node0&#45;&gt;Node44 -->
<g id="edge60" class="edge">
<title>Node0&#45;&gt;Node44</title>
<path fill="none" stroke="#191970" d="M1633.0038,-149.1617C1895.031,-147.4948 2913.3797,-138.5665 3255.7234,-97.9758"/>
<polygon fill="#191970" stroke="#191970" points="3256.1502,-101.4497 3265.6533,-96.7656 3255.3033,-94.5012 3256.1502,-101.4497"/>
</g>
<!-- Node2 -->
<g id="node3" class="node">
<title>Node2</title>
<polygon fill="#ffffff" stroke="#bfbfbf" points="666.5,-.5 666.5,-30.5 767.5,-30.5 767.5,-.5 666.5,-.5"/>
<text text-anchor="start" x="674.5" y="-18.5" font-family="Helvetica,sans-Serif" font-size="10.00" fill="#000000">tensorflow/compiler</text>
<text text-anchor="middle" x="717" y="-7.5" font-family="Helvetica,sans-Serif" font-size="10.00" fill="#000000">/tf2xla/tf2xla.pb.h</text>
</g>
<!-- Node1&#45;&gt;Node2 -->
<g id="edge2" class="edge">
<title>Node1&#45;&gt;Node2</title>
<path fill="none" stroke="#191970" d="M616.1745,-67.4639C634.5281,-58.0047 658.4235,-45.6894 678.345,-35.4222"/>
<polygon fill="#191970" stroke="#191970" points="680.1876,-38.4101 687.473,-30.7177 676.9807,-32.1879 680.1876,-38.4101"/>
</g>
<!-- Node3 -->
<g id="node4" class="node">
<title>Node3</title>
<polygon fill="#ffffff" stroke="#bfbfbf" points="406.5,-.5 406.5,-30.5 507.5,-30.5 507.5,-.5 406.5,-.5"/>
<text text-anchor="start" x="414.5" y="-18.5" font-family="Helvetica,sans-Serif" font-size="10.00" fill="#000000">tensorflow/compiler</text>
<text text-anchor="middle" x="457" y="-7.5" font-family="Helvetica,sans-Serif" font-size="10.00" fill="#000000">/xla/client/client.h</text>
</g>
<!-- Node1&#45;&gt;Node3 -->
<g id="edge3" class="edge">
<title>Node1&#45;&gt;Node3</title>
<path fill="none" stroke="#191970" d="M557.8255,-67.4639C539.4719,-58.0047 515.5765,-45.6894 495.655,-35.4222"/>
<polygon fill="#191970" stroke="#191970" points="497.0193,-32.1879 486.527,-30.7177 493.8124,-38.4101 497.0193,-32.1879"/>
</g>
<!-- Node4 -->
<g id="node5" class="node">
<title>Node4</title>
<polygon fill="#ffffff" stroke="#bfbfbf" points="525.5,-.5 525.5,-30.5 648.5,-30.5 648.5,-.5 525.5,-.5"/>
<text text-anchor="start" x="533.5" y="-18.5" font-family="Helvetica,sans-Serif" font-size="10.00" fill="#000000">tensorflow/compiler</text>
<text text-anchor="middle" x="587" y="-7.5" font-family="Helvetica,sans-Serif" font-size="10.00" fill="#000000">/xla/client/computation.h</text>
</g>
<!-- Node1&#45;&gt;Node4 -->
<g id="edge4" class="edge">
<title>Node1&#45;&gt;Node4</title>
<path fill="none" stroke="#191970" d="M587,-67.2967C587,-59.5013 587,-49.7991 587,-40.9064"/>
<polygon fill="#191970" stroke="#191970" points="590.5001,-40.6431 587,-30.6432 583.5001,-40.6432 590.5001,-40.6431"/>
</g>
<!-- Node1&#45;&gt;Node5 -->
<g id="edge5" class="edge">
<title>Node1&#45;&gt;Node5</title>
<path fill="none" stroke="#191970" d="M536.2189,-69.661C495.0548,-59.2535 436.6265,-44.481 391.1863,-32.9924"/>
<polygon fill="#191970" stroke="#191970" points="391.9583,-29.5775 381.4054,-30.5195 390.2424,-36.364 391.9583,-29.5775"/>
</g>
<!-- Node14&#45;&gt;Node2 -->
<g id="edge16" class="edge">
<title>Node14&#45;&gt;Node2</title>
<path fill="none" stroke="#191970" d="M830.2348,-67.4639C809.2689,-57.8426 781.8639,-45.2663 759.2659,-34.896"/>
<polygon fill="#191970" stroke="#191970" points="760.4567,-31.5915 749.9082,-30.6017 757.537,-37.9536 760.4567,-31.5915"/>
</g>
<!-- Node14&#45;&gt;Node5 -->
<g id="edge17" class="edge">
<title>Node14&#45;&gt;Node5</title>
<path fill="none" stroke="#191970" d="M812.4536,-78.4774C728.535,-71.4573 555.0022,-55.494 398.4761,-31.1462"/>
<polygon fill="#191970" stroke="#191970" points="398.6138,-27.625 388.1917,-29.5304 397.5272,-34.5402 398.6138,-27.625"/>
</g>
<!-- Node14&#45;&gt;Node9 -->
<g id="edge15" class="edge">
<title>Node14&#45;&gt;Node9</title>
<path fill="none" stroke="#191970" d="M913.7124,-70.082C954.2375,-60.0045 1012.4255,-45.1897 1063,-31 1066.3997,-30.0461 1069.919,-29.0323 1073.4466,-27.9975"/>
<polygon fill="#191970" stroke="#191970" points="1074.7328,-31.2665 1083.3182,-25.0583 1072.7352,-24.5575 1074.7328,-31.2665"/>
</g>
<!-- Node14&#45;&gt;Node15 -->
<g id="edge18" class="edge">
<title>Node14&#45;&gt;Node15</title>
<path fill="none" stroke="#191970" d="M863,-67.2967C863,-57.7699 863,-45.3954 863,-35.1306"/>
<polygon fill="#191970" stroke="#191970" points="866.5001,-35.0549 863,-25.055 859.5001,-35.055 866.5001,-35.0549"/>
</g>
<!-- Node14&#45;&gt;Node16 -->
<g id="edge19" class="edge">
<title>Node14&#45;&gt;Node16</title>
<path fill="none" stroke="#191970" d="M812.4577,-78.7252C681.1068,-68.8542 333.7781,-42.3437 247.9799,-30.856"/>
<polygon fill="#191970" stroke="#191970" points="248.4497,-27.3876 238.0483,-29.4024 247.436,-34.3138 248.4497,-27.3876"/>
</g>
<!-- Node17 -->
<g id="node18" class="node">
<title>Node17</title>
<polygon fill="#ffffff" stroke="#bfbfbf" points="958,-.5 958,-30.5 1054,-30.5 1054,-.5 958,-.5"/>
<text text-anchor="start" x="966" y="-18.5" font-family="Helvetica,sans-Serif" font-size="10.00" fill="#000000">tensorflow/core/lib</text>
<text text-anchor="middle" x="1006" y="-7.5" font-family="Helvetica,sans-Serif" font-size="10.00" fill="#000000">/core/status.h</text>
</g>
<!-- Node14&#45;&gt;Node17 -->
<g id="edge20" class="edge">
<title>Node14&#45;&gt;Node17</title>
<path fill="none" stroke="#191970" d="M895.092,-67.4639C915.555,-57.8763 942.2806,-45.3545 964.3694,-35.0052"/>
<polygon fill="#191970" stroke="#191970" points="965.95,-38.1299 973.5204,-30.7177 962.98,-31.7911 965.95,-38.1299"/>
</g>
<!-- Node19&#45;&gt;Node7 -->
<g id="edge24" class="edge">
<title>Node19&#45;&gt;Node7</title>
<path fill="none" stroke="#191970" d="M1299.0236,-67.2967C1288.7405,-56.8578 1275.0892,-42.9997 1264.4947,-32.2446"/>
<polygon fill="#191970" stroke="#191970" points="1266.9235,-29.7228 1257.4124,-25.055 1261.9367,-34.6352 1266.9235,-29.7228"/>
</g>
<!-- Node19&#45;&gt;Node9 -->
<g id="edge26" class="edge">
<title>Node19&#45;&gt;Node9</title>
<path fill="none" stroke="#191970" d="M1269.1161,-67.4639C1233.9427,-55.6808 1185.5393,-39.4657 1152.2043,-28.2984"/>
<polygon fill="#191970" stroke="#191970" points="1152.9679,-24.8631 1142.374,-25.0053 1150.7443,-31.5006 1152.9679,-24.8631"/>
</g>
<!-- Node19&#45;&gt;Node11 -->
<g id="edge27" class="edge">
<title>Node19&#45;&gt;Node11</title>
<path fill="none" stroke="#191970" d="M1314,-67.2967C1314,-57.7699 1314,-45.3954 1314,-35.1306"/>
<polygon fill="#191970" stroke="#191970" points="1317.5001,-35.0549 1314,-25.055 1310.5001,-35.055 1317.5001,-35.0549"/>
</g>
<!-- Node19&#45;&gt;Node17 -->
<g id="edge33" class="edge">
<title>Node19&#45;&gt;Node17</title>
<path fill="none" stroke="#191970" d="M1253.927,-71.1399C1203.1515,-61.2954 1128.5802,-46.2675 1064,-31 1063.8986,-30.976 1063.797,-30.952 1063.6954,-30.9279"/>
<polygon fill="#191970" stroke="#191970" points="1064.5976,-27.5455 1054.0525,-28.5715 1062.9358,-34.3454 1064.5976,-27.5455"/>
</g>
<!-- Node20 -->
<g id="node21" class="node">
<title>Node20</title>
<polygon fill="#ffffff" stroke="#bfbfbf" points="1904.5,-6 1904.5,-25 1963.5,-25 1963.5,-6 1904.5,-6"/>
<text text-anchor="middle" x="1934" y="-13" font-family="Helvetica,sans-Serif" font-size="10.00" fill="#000000">functional</text>
</g>
<!-- Node19&#45;&gt;Node20 -->
<g id="edge23" class="edge">
<title>Node19&#45;&gt;Node20</title>
<path fill="none" stroke="#191970" d="M1374.225,-68.5727C1377.5231,-67.9951 1380.7973,-67.4648 1384,-67 1609.3135,-34.3004 1673.0299,-81.6432 1895,-31 1897.8636,-30.3467 1900.7924,-29.5147 1903.6949,-28.5767"/>
<polygon fill="#191970" stroke="#191970" points="1905.1205,-31.7828 1913.3286,-25.0837 1902.7344,-25.202 1905.1205,-31.7828"/>
</g>
<!-- Node21 -->
<g id="node22" class="node">
<title>Node21</title>
<polygon fill="#ffffff" stroke="#bfbfbf" points="1174,-6 1174,-25 1204,-25 1204,-6 1174,-6"/>
<text text-anchor="middle" x="1189" y="-13" font-family="Helvetica,sans-Serif" font-size="10.00" fill="#000000">set</text>
</g>
<!-- Node19&#45;&gt;Node21 -->
<g id="edge25" class="edge">
<title>Node19&#45;&gt;Node21</title>
<path fill="none" stroke="#191970" d="M1282.1682,-67.3054C1262.0603,-57.454 1235.6853,-44.0638 1213,-31 1212.7018,-30.8283 1212.4021,-30.6545 1212.1013,-30.4788"/>
<polygon fill="#191970" stroke="#191970" points="1213.6733,-27.3369 1203.3203,-25.0859 1210.0099,-33.3018 1213.6733,-27.3369"/>
</g>
<!-- Node22 -->
<g id="node23" class="node">
<title>Node22</title>
<polygon fill="#ffffff" stroke="#bfbfbf" points="1982,-.5 1982,-30.5 2110,-30.5 2110,-.5 1982,-.5"/>
<text text-anchor="start" x="1990" y="-18.5" font-family="Helvetica,sans-Serif" font-size="10.00" fill="#000000">tensorflow/core/common</text>
<text text-anchor="middle" x="2046" y="-7.5" font-family="Helvetica,sans-Serif" font-size="10.00" fill="#000000">_runtime/device_factory.h</text>
</g>
<!-- Node19&#45;&gt;Node22 -->
<g id="edge28" class="edge">
<title>Node19&#45;&gt;Node22</title>
<path fill="none" stroke="#191970" d="M1374.2198,-68.5367C1377.5193,-67.9683 1380.7952,-67.4499 1384,-67 1640.4221,-31.0009 1711.3318,-65.4359 1971.8552,-31.0118"/>
<polygon fill="#191970" stroke="#191970" points="1972.5547,-34.4494 1981.9999,-29.6494 1971.623,-27.5117 1972.5547,-34.4494"/>
</g>
<!-- Node23 -->
<g id="node24" class="node">
<title>Node23</title>
<polygon fill="#ffffff" stroke="#bfbfbf" points="2128,-.5 2128,-30.5 2252,-30.5 2252,-.5 2128,-.5"/>
<text text-anchor="start" x="2136" y="-18.5" font-family="Helvetica,sans-Serif" font-size="10.00" fill="#000000">tensorflow/core/common</text>
<text text-anchor="middle" x="2190" y="-7.5" font-family="Helvetica,sans-Serif" font-size="10.00" fill="#000000">_runtime/local_device.h</text>
</g>
<!-- Node19&#45;&gt;Node23 -->
<g id="edge29" class="edge">
<title>Node19&#45;&gt;Node23</title>
<path fill="none" stroke="#191970" d="M1374.2134,-68.4897C1377.5145,-67.9335 1380.7925,-67.4305 1384,-67 1704.8275,-23.9373 1792.9827,-73.0002 2117.5993,-31.0323"/>
<polygon fill="#191970" stroke="#191970" points="2118.3055,-34.4697 2127.7652,-29.6984 2117.3948,-27.5292 2118.3055,-34.4697"/>
</g>
<!-- Node24 -->
<g id="node25" class="node">
<title>Node24</title>
<polygon fill="#ffffff" stroke="#bfbfbf" points="2270,-.5 2270,-30.5 2402,-30.5 2402,-.5 2270,-.5"/>
<text text-anchor="start" x="2278" y="-18.5" font-family="Helvetica,sans-Serif" font-size="10.00" fill="#000000">tensorflow/core/framework</text>
<text text-anchor="middle" x="2336" y="-7.5" font-family="Helvetica,sans-Serif" font-size="10.00" fill="#000000">/device_base.h</text>
</g>
<!-- Node19&#45;&gt;Node24 -->
<g id="edge30" class="edge">
<title>Node19&#45;&gt;Node24</title>
<path fill="none" stroke="#191970" d="M1374.2093,-68.459C1377.5115,-67.9107 1380.7908,-67.4178 1384,-67 1767.5355,-17.0646 1872.0326,-77.583 2259.7552,-31.0092"/>
<polygon fill="#191970" stroke="#191970" points="2260.3398,-34.464 2269.8435,-29.781 2259.4938,-27.5153 2260.3398,-34.464"/>
</g>
<!-- Node25 -->
<g id="node26" class="node">
<title>Node25</title>
<polygon fill="#ffffff" stroke="#bfbfbf" points="2420,-.5 2420,-30.5 2552,-30.5 2552,-.5 2420,-.5"/>
<text text-anchor="start" x="2428" y="-18.5" font-family="Helvetica,sans-Serif" font-size="10.00" fill="#000000">tensorflow/core/framework</text>
<text text-anchor="middle" x="2486" y="-7.5" font-family="Helvetica,sans-Serif" font-size="10.00" fill="#000000">/tensor.h</text>
</g>
<!-- Node19&#45;&gt;Node25 -->
<g id="edge31" class="edge">
<title>Node19&#45;&gt;Node25</title>
<path fill="none" stroke="#191970" d="M1374.2063,-68.4357C1377.5093,-67.8934 1380.7896,-67.4082 1384,-67 1833.7583,-9.8112 1955.7457,-84.3053 2409.7426,-31.0036"/>
<polygon fill="#191970" stroke="#191970" points="2410.3291,-34.4586 2419.8462,-29.8028 2409.503,-27.5075 2410.3291,-34.4586"/>
</g>
<!-- Node26 -->
<g id="node27" class="node">
<title>Node26</title>
<polygon fill="#ffffff" stroke="#bfbfbf" points="2570,-.5 2570,-30.5 2702,-30.5 2702,-.5 2570,-.5"/>
<text text-anchor="start" x="2578" y="-18.5" font-family="Helvetica,sans-Serif" font-size="10.00" fill="#000000">tensorflow/core/framework</text>
<text text-anchor="middle" x="2636" y="-7.5" font-family="Helvetica,sans-Serif" font-size="10.00" fill="#000000">/types.pb.h</text>
</g>
<!-- Node19&#45;&gt;Node26 -->
<g id="edge32" class="edge">
<title>Node19&#45;&gt;Node26</title>
<path fill="none" stroke="#191970" d="M1374.2041,-68.4183C1377.5076,-67.8805 1380.7887,-67.4011 1384,-67 1900.025,-2.5547 2039.4675,-91.0533 2559.8287,-30.9884"/>
<polygon fill="#191970" stroke="#191970" points="2560.3213,-34.4548 2569.8481,-29.819 2559.5097,-27.502 2560.3213,-34.4548"/>
</g>
<!-- Node27 -->
<g id="node28" class="node">
<title>Node27</title>
<polygon fill="#ffffff" stroke="#bfbfbf" points="1354,-.5 1354,-30.5 1476,-30.5 1476,-.5 1354,-.5"/>
<text text-anchor="start" x="1362" y="-18.5" font-family="Helvetica,sans-Serif" font-size="10.00" fill="#000000">tensorflow/core/platform</text>
<text text-anchor="middle" x="1415" y="-7.5" font-family="Helvetica,sans-Serif" font-size="10.00" fill="#000000">/mem.h</text>
</g>
<!-- Node19&#45;&gt;Node27 -->
<g id="edge34" class="edge">
<title>Node19&#45;&gt;Node27</title>
<path fill="none" stroke="#191970" d="M1336.6664,-67.4639C1350.474,-58.3044 1368.3189,-46.4667 1383.4882,-36.4038"/>
<polygon fill="#191970" stroke="#191970" points="1385.6614,-39.1623 1392.0598,-30.7177 1381.7918,-33.3291 1385.6614,-39.1623"/>
</g>
<!-- Node28 -->
<g id="node29" class="node">
<title>Node28</title>
<polygon fill="#ffffff" stroke="#bfbfbf" points="1494,-.5 1494,-30.5 1616,-30.5 1616,-.5 1494,-.5"/>
<text text-anchor="start" x="1502" y="-18.5" font-family="Helvetica,sans-Serif" font-size="10.00" fill="#000000">tensorflow/core/platform</text>
<text text-anchor="middle" x="1555" y="-7.5" font-family="Helvetica,sans-Serif" font-size="10.00" fill="#000000">/mutex.h</text>
</g>
<!-- Node19&#45;&gt;Node28 -->
<g id="edge35" class="edge">
<title>Node19&#45;&gt;Node28</title>
<path fill="none" stroke="#191970" d="M1368.0851,-67.4639C1404.3926,-57.3701 1452.3987,-44.024 1490.6681,-33.3848"/>
<polygon fill="#191970" stroke="#191970" points="1491.9819,-36.6524 1500.679,-30.6017 1490.1069,-29.9081 1491.9819,-36.6524"/>
</g>
<!-- Node29 -->
<g id="node30" class="node">
<title>Node29</title>
<polygon fill="#ffffff" stroke="#bfbfbf" points="1634,-.5 1634,-30.5 1756,-30.5 1756,-.5 1634,-.5"/>
<text text-anchor="start" x="1642" y="-18.5" font-family="Helvetica,sans-Serif" font-size="10.00" fill="#000000">tensorflow/core/platform</text>
<text text-anchor="middle" x="1695" y="-7.5" font-family="Helvetica,sans-Serif" font-size="10.00" fill="#000000">/thread_annotations.h</text>
</g>
<!-- Node19&#45;&gt;Node29 -->
<g id="edge36" class="edge">
<title>Node19&#45;&gt;Node29</title>
<path fill="none" stroke="#191970" d="M1374.2747,-68.8741C1377.56,-68.2187 1380.8178,-67.5892 1384,-67 1487.3695,-47.859 1516.8015,-50.5372 1624.041,-31.0984"/>
<polygon fill="#191970" stroke="#191970" points="1624.7637,-34.5243 1633.9677,-29.2767 1623.5001,-27.6393 1624.7637,-34.5243"/>
</g>
<!-- Node30 -->
<g id="node31" class="node">
<title>Node30</title>
<polygon fill="#ffffff" stroke="#bfbfbf" points="1774,-.5 1774,-30.5 1886,-30.5 1886,-.5 1774,-.5"/>
<text text-anchor="start" x="1782" y="-18.5" font-family="Helvetica,sans-Serif" font-size="10.00" fill="#000000">tensorflow/core/public</text>
<text text-anchor="middle" x="1830" y="-7.5" font-family="Helvetica,sans-Serif" font-size="10.00" fill="#000000">/session_options.h</text>
</g>
<!-- Node19&#45;&gt;Node30 -->
<g id="edge37" class="edge">
<title>Node19&#45;&gt;Node30</title>
<path fill="none" stroke="#191970" d="M1374.2389,-68.6652C1377.5335,-68.0637 1380.8031,-67.503 1384,-67 1548.8209,-41.0671 1595.4336,-58.1164 1763.784,-31.0543"/>
<polygon fill="#191970" stroke="#191970" points="1764.424,-34.4962 1773.7278,-29.4277 1763.2939,-27.588 1764.424,-34.4962"/>
</g>
<!-- Node33&#45;&gt;Node15 -->
<g id="edge43" class="edge">
<title>Node33&#45;&gt;Node15</title>
<path fill="none" stroke="#191970" d="M1007.258,-67.4639C974.6877,-55.7316 929.9194,-39.6054 898.9316,-28.4431"/>
<polygon fill="#191970" stroke="#191970" points="899.9822,-25.1015 889.3878,-25.0053 897.6099,-31.6872 899.9822,-25.1015"/>
</g>
<!-- Node33&#45;&gt;Node17 -->
<g id="edge44" class="edge">
<title>Node33&#45;&gt;Node17</title>
<path fill="none" stroke="#191970" d="M1039.2426,-67.2967C1033.9097,-58.9873 1027.1865,-48.5115 1021.184,-39.1587"/>
<polygon fill="#191970" stroke="#191970" points="1024.0656,-37.1686 1015.7188,-30.6432 1018.1745,-40.9495 1024.0656,-37.1686"/>
</g>
<!-- Node33&#45;&gt;Node21 -->
<g id="edge42" class="edge">
<title>Node33&#45;&gt;Node21</title>
<path fill="none" stroke="#191970" d="M1086.7997,-67.4741C1109.8281,-57.8917 1139.6083,-44.7279 1165,-31 1165.4145,-30.7759 1165.8313,-30.5471 1166.2496,-30.3142"/>
<polygon fill="#191970" stroke="#191970" points="1168.2375,-33.2031 1175.008,-25.0538 1164.6333,-27.2023 1168.2375,-33.2031"/>
</g>
<!-- Node37&#45;&gt;Node5 -->
<g id="edge51" class="edge">
<title>Node37&#45;&gt;Node5</title>
<path fill="none" stroke="#191970" d="M322,-67.2967C322,-59.5013 322,-49.7991 322,-40.9064"/>
<polygon fill="#191970" stroke="#191970" points="325.5001,-40.6431 322,-30.6432 318.5001,-40.6432 325.5001,-40.6431"/>
</g>
<!-- Node37&#45;&gt;Node16 -->
<g id="edge52" class="edge">
<title>Node37&#45;&gt;Node16</title>
<path fill="none" stroke="#191970" d="M290.8057,-67.4639C271.0039,-57.9191 245.1688,-45.4663 223.7539,-35.144"/>
<polygon fill="#191970" stroke="#191970" points="225.099,-31.907 214.5711,-30.7177 222.0595,-38.2127 225.099,-31.907"/>
</g>
<!-- Node37&#45;&gt;Node17 -->
<g id="edge54" class="edge">
<title>Node37&#45;&gt;Node17</title>
<path fill="none" stroke="#191970" d="M377.1794,-78.2444C516.4042,-67.4721 875.4951,-39.4596 947.877,-30.6489"/>
<polygon fill="#191970" stroke="#191970" points="948.5222,-34.0927 957.9382,-29.2357 947.5485,-27.1608 948.5222,-34.0927"/>
</g>
<!-- Node38 -->
<g id="node39" class="node">
<title>Node38</title>
<polygon fill="#ffffff" stroke="#bfbfbf" points="0,-.5 0,-30.5 110,-30.5 110,-.5 0,-.5"/>
<text text-anchor="start" x="8" y="-18.5" font-family="Helvetica,sans-Serif" font-size="10.00" fill="#000000">tensorflow/core/graph</text>
<text text-anchor="middle" x="55" y="-7.5" font-family="Helvetica,sans-Serif" font-size="10.00" fill="#000000">/tensor_id.h</text>
</g>
<!-- Node37&#45;&gt;Node38 -->
<g id="edge53" class="edge">
<title>Node37&#45;&gt;Node38</title>
<path fill="none" stroke="#191970" d="M266.6774,-68.6176C224.0756,-57.9272 165.0743,-43.1216 120.182,-31.8565"/>
<polygon fill="#191970" stroke="#191970" points="120.8029,-28.4039 110.2517,-29.3647 119.0991,-35.1934 120.8029,-28.4039"/>
</g>
</g>
</svg>
