<?xml version="1.0" encoding="UTF-8" standalone="no"?>
<!DOCTYPE svg PUBLIC "-//W3C//DTD SVG 1.1//EN"
 "http://www.w3.org/Graphics/SVG/1.1/DTD/svg11.dtd">
<!-- Generated by graphviz version 2.40.1 (20161225.0304)
 -->
<!-- Title: tensorflow/tensorflow/compiler/tf2xla/tf2xla.cc Pages: 1 -->
<svg width="645pt" height="106pt"
 viewBox="0.00 0.00 644.50 106.00" xmlns="http://www.w3.org/2000/svg" xmlns:xlink="http://www.w3.org/1999/xlink">
<g id="graph0" class="graph" transform="scale(1 1) rotate(0) translate(4 102)">
<title>tensorflow/tensorflow/compiler/tf2xla/tf2xla.cc</title>
<polygon fill="#ffffff" stroke="transparent" points="-4,4 -4,-102 640.5,-102 640.5,4 -4,4"/>
<!-- Node0 -->
<g id="node1" class="node">
<title>Node0</title>
<polygon fill="#bfbfbf" stroke="#000000" points="236.5,-67.5 236.5,-97.5 360.5,-97.5 360.5,-67.5 236.5,-67.5"/>
<text text-anchor="start" x="244.5" y="-85.5" font-family="Helvetica,sans-Serif" font-size="10.00" fill="#000000">tensorflow/tensorflow</text>
<text text-anchor="middle" x="298.5" y="-74.5" font-family="Helvetica,sans-Serif" font-size="10.00" fill="#000000">/compiler/tf2xla/tf2xla.cc</text>
</g>
<!-- Node1 -->
<g id="node2" class="node">
<title>Node1</title>
<polygon fill="#ffffff" stroke="#bfbfbf" points="0,-.5 0,-30.5 101,-30.5 101,-.5 0,-.5"/>
<text text-anchor="start" x="8" y="-18.5" font-family="Helvetica,sans-Serif" font-size="10.00" fill="#000000">tensorflow/compiler</text>
<text text-anchor="middle" x="50.5" y="-7.5" font-family="Helvetica,sans-Serif" font-size="10.00" fill="#000000">/tf2xla/tf2xla.h</text>
</g>
<!-- Node0&#45;&gt;Node1 -->
<g id="edge1" class="edge">
<title>Node0&#45;&gt;Node1</title>
<path fill="none" stroke="#191970" d="M242.844,-67.4639C203.6602,-56.878 151.2355,-42.7148 111.0142,-31.8486"/>
<polygon fill="#191970" stroke="#191970" points="111.895,-28.4612 101.3283,-29.2318 110.0693,-35.2189 111.895,-28.4612"/>
</g>
<!-- Node2 -->
<g id="node3" class="node">
<title>Node2</title>
<g id="a_node3"><a xlink:href="../../d2/d2b/tf2xla__util_8h.html" target="_top" xlink:title="tensorflow/compiler\l/tf2xla/tf2xla_util.h">
<polygon fill="#ffffff" stroke="#000000" points="119,-.5 119,-30.5 220,-30.5 220,-.5 119,-.5"/>
<text text-anchor="start" x="127" y="-18.5" font-family="Helvetica,sans-Serif" font-size="10.00" fill="#000000">tensorflow/compiler</text>
<text text-anchor="middle" x="169.5" y="-7.5" font-family="Helvetica,sans-Serif" font-size="10.00" fill="#000000">/tf2xla/tf2xla_util.h</text>
</a>
</g>
</g>
<!-- Node0&#45;&gt;Node2 -->
<g id="edge2" class="edge">
<title>Node0&#45;&gt;Node2</title>
<path fill="none" stroke="#191970" d="M269.5499,-67.4639C251.3375,-58.0047 227.6259,-45.6894 207.8577,-35.4222"/>
<polygon fill="#191970" stroke="#191970" points="209.2875,-32.2209 198.7998,-30.7177 206.061,-38.433 209.2875,-32.2209"/>
</g>
<!-- Node3 -->
<g id="node4" class="node">
<title>Node3</title>
<g id="a_node4"><a xlink:href="../../d7/d49/xla__op__registry_8h.html" target="_top" xlink:title="tensorflow/compiler\l/tf2xla/xla_op_registry.h">
<polygon fill="#ffffff" stroke="#000000" points="238.5,-.5 238.5,-30.5 358.5,-30.5 358.5,-.5 238.5,-.5"/>
<text text-anchor="start" x="246.5" y="-18.5" font-family="Helvetica,sans-Serif" font-size="10.00" fill="#000000">tensorflow/compiler</text>
<text text-anchor="middle" x="298.5" y="-7.5" font-family="Helvetica,sans-Serif" font-size="10.00" fill="#000000">/tf2xla/xla_op_registry.h</text>
</a>
</g>
</g>
<!-- Node0&#45;&gt;Node3 -->
<g id="edge3" class="edge">
<title>Node0&#45;&gt;Node3</title>
<path fill="none" stroke="#191970" d="M298.5,-67.2967C298.5,-59.5013 298.5,-49.7991 298.5,-40.9064"/>
<polygon fill="#191970" stroke="#191970" points="302.0001,-40.6431 298.5,-30.6432 295.0001,-40.6432 302.0001,-40.6431"/>
</g>
<!-- Node4 -->
<g id="node5" class="node">
<title>Node4</title>
<g id="a_node5"><a xlink:href="../../de/d25/graph__def__util_8h.html" target="_top" xlink:title="tensorflow/core/framework\l/graph_def_util.h">
<polygon fill="#ffffff" stroke="#000000" points="376.5,-.5 376.5,-30.5 508.5,-30.5 508.5,-.5 376.5,-.5"/>
<text text-anchor="start" x="384.5" y="-18.5" font-family="Helvetica,sans-Serif" font-size="10.00" fill="#000000">tensorflow/core/framework</text>
<text text-anchor="middle" x="442.5" y="-7.5" font-family="Helvetica,sans-Serif" font-size="10.00" fill="#000000">/graph_def_util.h</text>
</a>
</g>
</g>
<!-- Node0&#45;&gt;Node4 -->
<g id="edge4" class="edge">
<title>Node0&#45;&gt;Node4</title>
<path fill="none" stroke="#191970" d="M330.8164,-67.4639C351.4225,-57.8763 378.3351,-45.3545 400.5783,-35.0052"/>
<polygon fill="#191970" stroke="#191970" points="402.2031,-38.1096 409.7932,-30.7177 399.2501,-31.763 402.2031,-38.1096"/>
</g>
<!-- Node5 -->
<g id="node6" class="node">
<title>Node5</title>
<g id="a_node6"><a xlink:href="../../d7/dfb/graph__constructor_8h.html" target="_top" xlink:title="tensorflow/core/graph\l/graph_constructor.h">
<polygon fill="#ffffff" stroke="#000000" points="526.5,-.5 526.5,-30.5 636.5,-30.5 636.5,-.5 526.5,-.5"/>
<text text-anchor="start" x="534.5" y="-18.5" font-family="Helvetica,sans-Serif" font-size="10.00" fill="#000000">tensorflow/core/graph</text>
<text text-anchor="middle" x="581.5" y="-7.5" font-family="Helvetica,sans-Serif" font-size="10.00" fill="#000000">/graph_constructor.h</text>
</a>
</g>
</g>
<!-- Node0&#45;&gt;Node5 -->
<g id="edge5" class="edge">
<title>Node0&#45;&gt;Node5</title>
<path fill="none" stroke="#191970" d="M360.8287,-67.959C402.3545,-58.2443 458.4068,-45.08 516.6093,-31.2052"/>
<polygon fill="#191970" stroke="#191970" points="517.4329,-34.607 526.3476,-28.8818 515.8084,-27.7981 517.4329,-34.607"/>
</g>
</g>
</svg>
