<?xml version="1.0" encoding="UTF-8" standalone="no"?>
<!DOCTYPE svg PUBLIC "-//W3C//DTD SVG 1.1//EN"
 "http://www.w3.org/Graphics/SVG/1.1/DTD/svg11.dtd">
<!-- Generated by graphviz version 2.38.0 (20140413.2041)
 -->
<!-- Title: tensorflow/tensorflow/compiler/tf2xla/tf2xla.cc Pages: 1 -->
<!--zoomable 173 -->
<svg id="main" version="1.1" xmlns="http://www.w3.org/2000/svg" xmlns:xlink="http://www.w3.org/1999/xlink" xml:space="preserve" onload="init(evt)">
<style type="text/css"><![CDATA[
.edge:hover path { stroke: red; }
.edge:hover polygon { stroke: red; fill: red; }
]]></style>
<script type="text/javascript"><![CDATA[
var edges = document.getElementsByTagName('g');
if (edges && edges.length) {
  for (var i=0;i<edges.length;i++) {
    if (edges[i].id.substr(0,4)=='edge') {
      edges[i].setAttribute('class','edge');
    }
  }
}
]]></script>
        <defs>
                <circle id="rim" cx="0" cy="0" r="7"/>
                <circle id="rim2" cx="0" cy="0" r="3.5"/>
                <g id="zoomPlus">
                        <use xlink:href="#rim" fill="#404040">
                                <set attributeName="fill" to="#808080" begin="zoomplus.mouseover" end="zoomplus.mouseout"/>
                        </use>
                        <path d="M-4,0h8M0,-4v8" fill="none" stroke="white" stroke-width="1.5" pointer-events="none"/>
                </g>
                <g id="zoomMin">
                        <use xlink:href="#rim" fill="#404040">
                                <set attributeName="fill" to="#808080" begin="zoomminus.mouseover" end="zoomminus.mouseout"/>
                        </use>
                        <path d="M-4,0h8" fill="none" stroke="white" stroke-width="1.5" pointer-events="none"/>
                </g>
                <g id="dirArrow">
                        <path fill="none" stroke="white" stroke-width="1.5" d="M0,-3.0v7 M-2.5,-0.5L0,-3.0L2.5,-0.5"/>
                </g>
               <g id="resetDef">
                       <use xlink:href="#rim2" fill="#404040">
                               <set attributeName="fill" to="#808080" begin="reset.mouseover" end="reset.mouseout"/>
                       </use>
               </g>
        </defs>

<script type="text/javascript">
var viewWidth = 3397;
var viewHeight = 173;
var sectionId = 'dynsection-0';
</script>
<script xlink:href="../../svgpan.js"/>
<svg id="graph" class="graph">
<g id="viewport">
<title>tensorflow/tensorflow/compiler/tf2xla/tf2xla.cc</title>
<polygon fill="white" stroke="none" points="-4,4 -4,-169 3393,-169 3393,4 -4,4"/>
<!-- Node1 -->
<g id="node1" class="node"><title>Node1</title>
<polygon fill="#bfbfbf" stroke="black" points="1509,-134.5 1509,-164.5 1633,-164.5 1633,-134.5 1509,-134.5"/>
<text text-anchor="start" x="1517" y="-152.5" font-family="Helvetica,sans-Serif" font-size="10.00">tensorflow/tensorflow</text>
<text text-anchor="middle" x="1571" y="-141.5" font-family="Helvetica,sans-Serif" font-size="10.00">/compiler/tf2xla/tf2xla.cc</text>
</g>
<!-- Node2 -->
<g id="node2" class="node"><title>Node2</title>
<g id="a_node2"><a xlink:href="../../d7/d62/tf2xla_8h.html" target="_top" xlink:title="tensorflow/compiler\l/tf2xla/tf2xla.h">
<polygon fill="white" stroke="black" points="536.5,-67.5 536.5,-97.5 637.5,-97.5 637.5,-67.5 536.5,-67.5"/>
<text text-anchor="start" x="544.5" y="-85.5" font-family="Helvetica,sans-Serif" font-size="10.00">tensorflow/compiler</text>
<text text-anchor="middle" x="587" y="-74.5" font-family="Helvetica,sans-Serif" font-size="10.00">/tf2xla/tf2xla.h</text>
</a>
</g>
</g>
<!-- Node1&#45;&gt;Node2 -->
<g id="edge1" class="edge"><title>Node1&#45;&gt;Node2</title>
<path fill="none" stroke="midnightblue" d="M1508.78,-144.438C1378.07,-135.897 1065.32,-115.429 803,-98 750.575,-94.5168 690.997,-90.514 647.709,-87.5977"/>
<polygon fill="midnightblue" stroke="midnightblue" points="647.838,-84.0985 637.625,-86.9181 647.367,-91.0826 647.838,-84.0985"/>
</g>
<!-- Node6 -->
<g id="node6" class="node"><title>Node6</title>
<polygon fill="white" stroke="#bfbfbf" points="256,-0.5 256,-30.5 388,-30.5 388,-0.5 256,-0.5"/>
<text text-anchor="start" x="264" y="-18.5" font-family="Helvetica,sans-Serif" font-size="10.00">tensorflow/core/framework</text>
<text text-anchor="middle" x="322" y="-7.5" font-family="Helvetica,sans-Serif" font-size="10.00">/graph.pb.h</text>
</g>
<!-- Node1&#45;&gt;Node6 -->
<g id="edge40" class="edge"><title>Node1&#45;&gt;Node6</title>
<path fill="none" stroke="midnightblue" d="M1508.86,-148.171C1313.89,-146.717 715.985,-138.947 527,-98 465.317,-84.6355 398.102,-54.7064 358.036,-35.0759"/>
<polygon fill="midnightblue" stroke="midnightblue" points="359.454,-31.8725 348.94,-30.567 356.345,-38.1443 359.454,-31.8725"/>
</g>
<!-- Node7 -->
<g id="node7" class="node"><title>Node7</title>
<polygon fill="white" stroke="#bfbfbf" points="1392.5,-73 1392.5,-92 1427.5,-92 1427.5,-73 1392.5,-73"/>
<text text-anchor="middle" x="1410" y="-80" font-family="Helvetica,sans-Serif" font-size="10.00">map</text>
</g>
<!-- Node1&#45;&gt;Node7 -->
<g id="edge6" class="edge"><title>Node1&#45;&gt;Node7</title>
<path fill="none" stroke="midnightblue" d="M1529.37,-134.416C1502.62,-124.975 1467.33,-111.785 1437,-98 1436.15,-97.6147 1435.29,-97.2143 1434.43,-96.8027"/>
<polygon fill="midnightblue" stroke="midnightblue" points="1435.74,-93.5441 1425.24,-92.1394 1432.58,-99.7862 1435.74,-93.5441"/>
</g>
<!-- Node8 -->
<g id="node8" class="node"><title>Node8</title>
<polygon fill="white" stroke="#bfbfbf" points="1222,-6 1222,-25 1274,-25 1274,-6 1222,-6"/>
<text text-anchor="middle" x="1248" y="-13" font-family="Helvetica,sans-Serif" font-size="10.00">memory</text>
</g>
<!-- Node1&#45;&gt;Node8 -->
<g id="edge7" class="edge"><title>Node1&#45;&gt;Node8</title>
<path fill="none" stroke="midnightblue" d="M1508.9,-148.428C1421.68,-146.855 1269.64,-138.233 1235,-98 1219.86,-80.4094 1229.08,-52.4451 1237.9,-34.2805"/>
<polygon fill="midnightblue" stroke="midnightblue" points="1241.06,-35.8065 1242.6,-25.3254 1234.86,-32.5534 1241.06,-35.8065"/>
</g>
<!-- Node9 -->
<g id="node9" class="node"><title>Node9</title>
<polygon fill="white" stroke="#bfbfbf" points="1445.5,-73 1445.5,-92 1486.5,-92 1486.5,-73 1445.5,-73"/>
<text text-anchor="middle" x="1466" y="-80" font-family="Helvetica,sans-Serif" font-size="10.00">string</text>
</g>
<!-- Node1&#45;&gt;Node9 -->
<g id="edge8" class="edge"><title>Node1&#45;&gt;Node9</title>
<path fill="none" stroke="midnightblue" d="M1548.22,-134.396C1530.45,-123.395 1505.9,-108.2 1488.26,-97.2819"/>
<polygon fill="midnightblue" stroke="midnightblue" points="1490.09,-94.2947 1479.74,-92.007 1486.4,-100.247 1490.09,-94.2947"/>
</g>
<!-- Node10 -->
<g id="node10" class="node"><title>Node10</title>
<polygon fill="white" stroke="#bfbfbf" points="1072.5,-6 1072.5,-25 1155.5,-25 1155.5,-6 1072.5,-6"/>
<text text-anchor="middle" x="1114" y="-13" font-family="Helvetica,sans-Serif" font-size="10.00">unordered_map</text>
</g>
<!-- Node1&#45;&gt;Node10 -->
<g id="edge9" class="edge"><title>Node1&#45;&gt;Node10</title>
<path fill="none" stroke="midnightblue" d="M1508.97,-148.726C1437.21,-146.936 1316.79,-137.527 1222,-98 1184.84,-82.5054 1149.03,-51.2289 1129.42,-32.2465"/>
<polygon fill="midnightblue" stroke="midnightblue" points="1131.84,-29.7211 1122.27,-25.1741 1126.92,-34.6963 1131.84,-29.7211"/>
</g>
<!-- Node11 -->
<g id="node11" class="node"><title>Node11</title>
<polygon fill="white" stroke="#bfbfbf" points="1505,-73 1505,-92 1545,-92 1545,-73 1505,-73"/>
<text text-anchor="middle" x="1525" y="-80" font-family="Helvetica,sans-Serif" font-size="10.00">utility</text>
</g>
<!-- Node1&#45;&gt;Node11 -->
<g id="edge10" class="edge"><title>Node1&#45;&gt;Node11</title>
<path fill="none" stroke="midnightblue" d="M1561.02,-134.396C1553.99,-124.462 1544.54,-111.108 1537.08,-100.572"/>
<polygon fill="midnightblue" stroke="midnightblue" points="1539.79,-98.3354 1531.15,-92.1945 1534.07,-102.379 1539.79,-98.3354"/>
</g>
<!-- Node12 -->
<g id="node12" class="node"><title>Node12</title>
<polygon fill="white" stroke="#bfbfbf" points="1292,-6 1292,-25 1336,-25 1336,-6 1292,-6"/>
<text text-anchor="middle" x="1314" y="-13" font-family="Helvetica,sans-Serif" font-size="10.00">vector</text>
</g>
<!-- Node1&#45;&gt;Node12 -->
<g id="edge11" class="edge"><title>Node1&#45;&gt;Node12</title>
<path fill="none" stroke="midnightblue" d="M1508.96,-148.097C1424.04,-146.077 1278.31,-136.867 1245,-98 1224.62,-74.2232 1261.17,-46.343 1288.4,-30.1247"/>
<polygon fill="midnightblue" stroke="midnightblue" points="1290.24,-33.1024 1297.18,-25.0945 1286.76,-27.0285 1290.24,-33.1024"/>
</g>
<!-- Node13 -->
<g id="node13" class="node"><title>Node13</title>
<polygon fill="white" stroke="#bfbfbf" points="1563,-67.5 1563,-97.5 1671,-97.5 1671,-67.5 1563,-67.5"/>
<text text-anchor="start" x="1571" y="-85.5" font-family="Helvetica,sans-Serif" font-size="10.00">tensorflow/compiler</text>
<text text-anchor="middle" x="1617" y="-74.5" font-family="Helvetica,sans-Serif" font-size="10.00">/tf2xla/dump_graph.h</text>
</g>
<!-- Node1&#45;&gt;Node13 -->
<g id="edge12" class="edge"><title>Node1&#45;&gt;Node13</title>
<path fill="none" stroke="midnightblue" d="M1580.98,-134.396C1586.89,-126.049 1594.5,-115.287 1601.21,-105.811"/>
<polygon fill="midnightblue" stroke="midnightblue" points="1604.12,-107.761 1607.04,-97.5765 1598.4,-103.717 1604.12,-107.761"/>
</g>
<!-- Node14 -->
<g id="node14" class="node"><title>Node14</title>
<polygon fill="white" stroke="#bfbfbf" points="1689.5,-67.5 1689.5,-97.5 1790.5,-97.5 1790.5,-67.5 1689.5,-67.5"/>
<text text-anchor="start" x="1697.5" y="-85.5" font-family="Helvetica,sans-Serif" font-size="10.00">tensorflow/compiler</text>
<text text-anchor="middle" x="1740" y="-74.5" font-family="Helvetica,sans-Serif" font-size="10.00">/tf2xla/shape_util.h</text>
</g>
<!-- Node1&#45;&gt;Node14 -->
<g id="edge13" class="edge"><title>Node1&#45;&gt;Node14</title>
<path fill="none" stroke="midnightblue" d="M1607.67,-134.396C1632.92,-124.686 1666.66,-111.709 1693.75,-101.289"/>
<polygon fill="midnightblue" stroke="midnightblue" points="1695.32,-104.433 1703.4,-97.5765 1692.81,-97.8996 1695.32,-104.433"/>
</g>
<!-- Node15 -->
<g id="node15" class="node"><title>Node15</title>
<g id="a_node15"><a xlink:href="../../d2/d2b/tf2xla__util_8h.html" target="_top" xlink:title="tensorflow/compiler\l/tf2xla/tf2xla_util.h">
<polygon fill="white" stroke="black" points="812.5,-67.5 812.5,-97.5 913.5,-97.5 913.5,-67.5 812.5,-67.5"/>
<text text-anchor="start" x="820.5" y="-85.5" font-family="Helvetica,sans-Serif" font-size="10.00">tensorflow/compiler</text>
<text text-anchor="middle" x="863" y="-74.5" font-family="Helvetica,sans-Serif" font-size="10.00">/tf2xla/tf2xla_util.h</text>
</a>
</g>
</g>
<!-- Node1&#45;&gt;Node15 -->
<g id="edge14" class="edge"><title>Node1&#45;&gt;Node15</title>
<path fill="none" stroke="midnightblue" d="M1508.81,-146.38C1393.94,-141.849 1140.95,-128.992 930,-98 927.93,-97.6959 925.829,-97.3652 923.71,-97.013"/>
<polygon fill="midnightblue" stroke="midnightblue" points="924.178,-93.5413 913.718,-95.2269 922.946,-100.432 924.178,-93.5413"/>
</g>
<!-- Node16 -->
<g id="node16" class="node"><title>Node16</title>
<polygon fill="white" stroke="#bfbfbf" points="786,-6 786,-25 940,-25 940,-6 786,-6"/>
<text text-anchor="middle" x="863" y="-13" font-family="Helvetica,sans-Serif" font-size="10.00">tensorflow/core/framework/op.h</text>
</g>
<!-- Node1&#45;&gt;Node16 -->
<g id="edge45" class="edge"><title>Node1&#45;&gt;Node16</title>
<path fill="none" stroke="midnightblue" d="M1508.88,-147.836C1375.01,-145.679 1063.53,-136.542 966,-98 956.336,-94.1812 908.218,-54.4838 881.304,-31.9353"/>
<polygon fill="midnightblue" stroke="midnightblue" points="883.294,-29.0364 873.386,-25.2842 878.792,-34.3962 883.294,-29.0364"/>
</g>
<!-- Node17 -->
<g id="node17" class="node"><title>Node17</title>
<polygon fill="white" stroke="#bfbfbf" points="128,-0.5 128,-30.5 238,-30.5 238,-0.5 128,-0.5"/>
<text text-anchor="start" x="136" y="-18.5" font-family="Helvetica,sans-Serif" font-size="10.00">tensorflow/core/graph</text>
<text text-anchor="middle" x="183" y="-7.5" font-family="Helvetica,sans-Serif" font-size="10.00">/graph.h</text>
</g>
<!-- Node1&#45;&gt;Node17 -->
<g id="edge49" class="edge"><title>Node1&#45;&gt;Node17</title>
<path fill="none" stroke="midnightblue" d="M1508.84,-148.898C1263.76,-150.089 372.163,-150.728 258,-98 231.175,-85.6106 209.531,-58.7302 196.513,-39.2192"/>
<polygon fill="midnightblue" stroke="midnightblue" points="199.329,-37.1267 190.991,-30.5906 193.434,-40.9 199.329,-37.1267"/>
</g>
<!-- Node19 -->
<g id="node19" class="node"><title>Node19</title>
<polygon fill="white" stroke="#bfbfbf" points="1809,-67.5 1809,-97.5 1919,-97.5 1919,-67.5 1809,-67.5"/>
<text text-anchor="start" x="1817" y="-85.5" font-family="Helvetica,sans-Serif" font-size="10.00">tensorflow/compiler</text>
<text text-anchor="middle" x="1864" y="-74.5" font-family="Helvetica,sans-Serif" font-size="10.00">/tf2xla/xla_compiler.h</text>
</g>
<!-- Node1&#45;&gt;Node19 -->
<g id="edge21" class="edge"><title>Node1&#45;&gt;Node19</title>
<path fill="none" stroke="midnightblue" d="M1633.23,-134.879C1676.95,-125.284 1737.1,-112.039 1798.91,-98.2365"/>
<polygon fill="midnightblue" stroke="midnightblue" points="1799.85,-101.614 1808.85,-96.0169 1798.32,-94.782 1799.85,-101.614"/>
</g>
<!-- Node20 -->
<g id="node20" class="node"><title>Node20</title>
<g id="a_node20"><a xlink:href="../../d7/d49/xla__op__registry_8h.html" target="_top" xlink:title="tensorflow/compiler\l/tf2xla/xla_op_registry.h">
<polygon fill="white" stroke="black" points="1253.5,-67.5 1253.5,-97.5 1374.5,-97.5 1374.5,-67.5 1253.5,-67.5"/>
<text text-anchor="start" x="1261.5" y="-85.5" font-family="Helvetica,sans-Serif" font-size="10.00">tensorflow/compiler</text>
<text text-anchor="middle" x="1314" y="-74.5" font-family="Helvetica,sans-Serif" font-size="10.00">/tf2xla/xla_op_registry.h</text>
</a>
</g>
</g>
<!-- Node1&#45;&gt;Node20 -->
<g id="edge22" class="edge"><title>Node1&#45;&gt;Node20</title>
<path fill="none" stroke="midnightblue" d="M1515.55,-134.476C1475.66,-124.387 1421.71,-110.741 1379.66,-100.107"/>
<polygon fill="midnightblue" stroke="midnightblue" points="1380.35,-96.6698 1369.79,-97.6109 1378.63,-103.456 1380.35,-96.6698"/>
</g>
<!-- Node32 -->
<g id="node32" class="node"><title>Node32</title>
<polygon fill="white" stroke="#bfbfbf" points="1937,-67.5 1937,-97.5 2061,-97.5 2061,-67.5 1937,-67.5"/>
<text text-anchor="start" x="1945" y="-85.5" font-family="Helvetica,sans-Serif" font-size="10.00">tensorflow/core/common</text>
<text text-anchor="middle" x="1999" y="-74.5" font-family="Helvetica,sans-Serif" font-size="10.00">_runtime/function.h</text>
</g>
<!-- Node1&#45;&gt;Node32 -->
<g id="edge38" class="edge"><title>Node1&#45;&gt;Node32</title>
<path fill="none" stroke="midnightblue" d="M1633.09,-140.883C1702.29,-132.131 1817.74,-116.754 1926.53,-98.1938"/>
<polygon fill="midnightblue" stroke="midnightblue" points="1927.44,-101.59 1936.7,-96.4463 1926.25,-94.6906 1927.44,-101.59"/>
</g>
<!-- Node33 -->
<g id="node33" class="node"><title>Node33</title>
<polygon fill="white" stroke="#bfbfbf" points="2079,-67.5 2079,-97.5 2211,-97.5 2211,-67.5 2079,-67.5"/>
<text text-anchor="start" x="2087" y="-85.5" font-family="Helvetica,sans-Serif" font-size="10.00">tensorflow/core/framework</text>
<text text-anchor="middle" x="2145" y="-74.5" font-family="Helvetica,sans-Serif" font-size="10.00">/function.h</text>
</g>
<!-- Node1&#45;&gt;Node33 -->
<g id="edge39" class="edge"><title>Node1&#45;&gt;Node33</title>
<path fill="none" stroke="midnightblue" d="M1633.07,-144.027C1725.72,-136.95 1905.84,-121.655 2068.6,-98.1227"/>
<polygon fill="midnightblue" stroke="midnightblue" points="2069.41,-101.542 2078.8,-96.6338 2068.4,-94.6151 2069.41,-101.542"/>
</g>
<!-- Node34 -->
<g id="node34" class="node"><title>Node34</title>
<g id="a_node34"><a xlink:href="../../de/d25/graph__def__util_8h.html" target="_top" xlink:title="tensorflow/core/framework\l/graph_def_util.h">
<polygon fill="white" stroke="black" points="975,-67.5 975,-97.5 1107,-97.5 1107,-67.5 975,-67.5"/>
<text text-anchor="start" x="983" y="-85.5" font-family="Helvetica,sans-Serif" font-size="10.00">tensorflow/core/framework</text>
<text text-anchor="middle" x="1041" y="-74.5" font-family="Helvetica,sans-Serif" font-size="10.00">/graph_def_util.h</text>
</a>
</g>
</g>
<!-- Node1&#45;&gt;Node34 -->
<g id="edge41" class="edge"><title>Node1&#45;&gt;Node34</title>
<path fill="none" stroke="midnightblue" d="M1508.8,-142.318C1423.31,-133.606 1264.73,-116.678 1130,-98 1125.81,-97.4195 1121.52,-96.8002 1117.19,-96.1567"/>
<polygon fill="midnightblue" stroke="midnightblue" points="1117.46,-92.6576 1107.05,-94.6182 1116.41,-99.5784 1117.46,-92.6576"/>
</g>
<!-- Node35 -->
<g id="node35" class="node"><title>Node35</title>
<polygon fill="white" stroke="#bfbfbf" points="2229,-67.5 2229,-97.5 2361,-97.5 2361,-67.5 2229,-67.5"/>
<text text-anchor="start" x="2237" y="-85.5" font-family="Helvetica,sans-Serif" font-size="10.00">tensorflow/core/framework</text>
<text text-anchor="middle" x="2295" y="-74.5" font-family="Helvetica,sans-Serif" font-size="10.00">/tensor_shape.h</text>
</g>
<!-- Node1&#45;&gt;Node35 -->
<g id="edge46" class="edge"><title>Node1&#45;&gt;Node35</title>
<path fill="none" stroke="midnightblue" d="M1633.45,-145.997C1747.68,-140.905 1998.08,-127.362 2218.66,-98.0792"/>
<polygon fill="midnightblue" stroke="midnightblue" points="2219.37,-101.516 2228.81,-96.7178 2218.44,-94.5784 2219.37,-101.516"/>
</g>
<!-- Node36 -->
<g id="node36" class="node"><title>Node36</title>
<polygon fill="white" stroke="#bfbfbf" points="2379,-67.5 2379,-97.5 2511,-97.5 2511,-67.5 2379,-67.5"/>
<text text-anchor="start" x="2387" y="-85.5" font-family="Helvetica,sans-Serif" font-size="10.00">tensorflow/core/framework</text>
<text text-anchor="middle" x="2445" y="-74.5" font-family="Helvetica,sans-Serif" font-size="10.00">/versions.pb.h</text>
</g>
<!-- Node1&#45;&gt;Node36 -->
<g id="edge47" class="edge"><title>Node1&#45;&gt;Node36</title>
<path fill="none" stroke="midnightblue" d="M1633.16,-147.274C1766.34,-144.062 2089.16,-133.152 2368.89,-98.0302"/>
<polygon fill="midnightblue" stroke="midnightblue" points="2369.34,-101.501 2378.82,-96.7705 2368.46,-94.5566 2369.34,-101.501"/>
</g>
<!-- Node37 -->
<g id="node37" class="node"><title>Node37</title>
<polygon fill="white" stroke="#bfbfbf" points="2529,-67.5 2529,-97.5 2639,-97.5 2639,-67.5 2529,-67.5"/>
<text text-anchor="start" x="2537" y="-85.5" font-family="Helvetica,sans-Serif" font-size="10.00">tensorflow/core/graph</text>
<text text-anchor="middle" x="2584" y="-74.5" font-family="Helvetica,sans-Serif" font-size="10.00">/algorithm.h</text>
</g>
<!-- Node1&#45;&gt;Node37 -->
<g id="edge48" class="edge"><title>Node1&#45;&gt;Node37</title>
<path fill="none" stroke="midnightblue" d="M1633.25,-148.826C1783.92,-148.835 2180.21,-144.188 2518.95,-97.9745"/>
<polygon fill="midnightblue" stroke="midnightblue" points="2519.52,-101.428 2528.95,-96.5951 2518.57,-94.4938 2519.52,-101.428"/>
</g>
<!-- Node38 -->
<g id="node38" class="node"><title>Node38</title>
<g id="a_node38"><a xlink:href="../../d7/dfb/graph__constructor_8h.html" target="_top" xlink:title="tensorflow/core/graph\l/graph_constructor.h">
<polygon fill="white" stroke="black" points="267,-67.5 267,-97.5 377,-97.5 377,-67.5 267,-67.5"/>
<text text-anchor="start" x="275" y="-85.5" font-family="Helvetica,sans-Serif" font-size="10.00">tensorflow/core/graph</text>
<text text-anchor="middle" x="322" y="-74.5" font-family="Helvetica,sans-Serif" font-size="10.00">/graph_constructor.h</text>
</a>
</g>
</g>
<!-- Node1&#45;&gt;Node38 -->
<g id="edge50" class="edge"><title>Node1&#45;&gt;Node38</title>
<path fill="none" stroke="midnightblue" d="M1508.78,-147.367C1338.06,-143.901 847.982,-131.56 442,-98 424.255,-96.5332 405.091,-94.4458 387.398,-92.3105"/>
<polygon fill="midnightblue" stroke="midnightblue" points="387.524,-88.7997 377.172,-91.0519 386.669,-95.7473 387.524,-88.7997"/>
</g>
<!-- Node40 -->
<g id="node40" class="node"><title>Node40</title>
<polygon fill="white" stroke="#bfbfbf" points="2657,-67.5 2657,-97.5 2767,-97.5 2767,-67.5 2657,-67.5"/>
<text text-anchor="start" x="2665" y="-85.5" font-family="Helvetica,sans-Serif" font-size="10.00">tensorflow/core/graph</text>
<text text-anchor="middle" x="2712" y="-74.5" font-family="Helvetica,sans-Serif" font-size="10.00">/node_builder.h</text>
</g>
<!-- Node1&#45;&gt;Node40 -->
<g id="edge55" class="edge"><title>Node1&#45;&gt;Node40</title>
<path fill="none" stroke="midnightblue" d="M1633.12,-147.025C1828.62,-142.16 2430.55,-125.425 2646.94,-97.9347"/>
<polygon fill="midnightblue" stroke="midnightblue" points="2647.5,-101.392 2656.95,-96.6175 2646.58,-94.4522 2647.5,-101.392"/>
</g>
<!-- Node41 -->
<g id="node41" class="node"><title>Node41</title>
<polygon fill="white" stroke="#bfbfbf" points="2785,-67.5 2785,-97.5 2881,-97.5 2881,-67.5 2785,-67.5"/>
<text text-anchor="start" x="2793" y="-85.5" font-family="Helvetica,sans-Serif" font-size="10.00">tensorflow/core/lib</text>
<text text-anchor="middle" x="2833" y="-74.5" font-family="Helvetica,sans-Serif" font-size="10.00">/core/errors.h</text>
</g>
<!-- Node1&#45;&gt;Node41 -->
<g id="edge56" class="edge"><title>Node1&#45;&gt;Node41</title>
<path fill="none" stroke="midnightblue" d="M1633.3,-147.594C1844.38,-144.26 2532.26,-131.182 2774.77,-97.9172"/>
<polygon fill="midnightblue" stroke="midnightblue" points="2775.53,-101.344 2784.94,-96.4713 2774.55,-94.4136 2775.53,-101.344"/>
</g>
<!-- Node42 -->
<g id="node42" class="node"><title>Node42</title>
<polygon fill="white" stroke="#bfbfbf" points="2899,-67.5 2899,-97.5 2995,-97.5 2995,-67.5 2899,-67.5"/>
<text text-anchor="start" x="2907" y="-85.5" font-family="Helvetica,sans-Serif" font-size="10.00">tensorflow/core/lib</text>
<text text-anchor="middle" x="2947" y="-74.5" font-family="Helvetica,sans-Serif" font-size="10.00">/strings/str_util.h</text>
</g>
<!-- Node1&#45;&gt;Node42 -->
<g id="edge57" class="edge"><title>Node1&#45;&gt;Node42</title>
<path fill="none" stroke="midnightblue" d="M1633.22,-147.856C1857.24,-145.272 2623.01,-134.057 2888.93,-97.8913"/>
<polygon fill="midnightblue" stroke="midnightblue" points="2889.53,-101.342 2898.94,-96.4838 2888.55,-94.4106 2889.53,-101.342"/>
</g>
<!-- Node43 -->
<g id="node43" class="node"><title>Node43</title>
<polygon fill="white" stroke="#bfbfbf" points="3013,-67.5 3013,-97.5 3109,-97.5 3109,-67.5 3013,-67.5"/>
<text text-anchor="start" x="3021" y="-85.5" font-family="Helvetica,sans-Serif" font-size="10.00">tensorflow/core/lib</text>
<text text-anchor="middle" x="3061" y="-74.5" font-family="Helvetica,sans-Serif" font-size="10.00">/strings/strcat.h</text>
</g>
<!-- Node1&#45;&gt;Node43 -->
<g id="edge58" class="edge"><title>Node1&#45;&gt;Node43</title>
<path fill="none" stroke="midnightblue" d="M1633.18,-148.077C1869.59,-146.198 2713.3,-136.952 3002.88,-97.8962"/>
<polygon fill="midnightblue" stroke="midnightblue" points="3003.52,-101.34 3012.94,-96.4943 3002.56,-94.4073 3003.52,-101.34"/>
</g>
<!-- Node44 -->
<g id="node44" class="node"><title>Node44</title>
<polygon fill="white" stroke="#bfbfbf" points="3127,-67.5 3127,-97.5 3249,-97.5 3249,-67.5 3127,-67.5"/>
<text text-anchor="start" x="3135" y="-85.5" font-family="Helvetica,sans-Serif" font-size="10.00">tensorflow/core/platform</text>
<text text-anchor="middle" x="3188" y="-74.5" font-family="Helvetica,sans-Serif" font-size="10.00">/logging.h</text>
</g>
<!-- Node1&#45;&gt;Node44 -->
<g id="edge59" class="edge"><title>Node1&#45;&gt;Node44</title>
<path fill="none" stroke="midnightblue" d="M1633.31,-147.894C1881.77,-145.258 2803.06,-133.348 3116.64,-97.9917"/>
<polygon fill="midnightblue" stroke="midnightblue" points="3117.11,-101.461 3126.64,-96.8317 3116.3,-94.5076 3117.11,-101.461"/>
</g>
<!-- Node45 -->
<g id="node45" class="node"><title>Node45</title>
<polygon fill="white" stroke="#bfbfbf" points="3267,-67.5 3267,-97.5 3389,-97.5 3389,-67.5 3267,-67.5"/>
<text text-anchor="start" x="3275" y="-85.5" font-family="Helvetica,sans-Serif" font-size="10.00">tensorflow/core/platform</text>
<text text-anchor="middle" x="3328" y="-74.5" font-family="Helvetica,sans-Serif" font-size="10.00">/types.h</text>
</g>
<!-- Node1&#45;&gt;Node45 -->
<g id="edge60" class="edge"><title>Node1&#45;&gt;Node45</title>
<path fill="none" stroke="midnightblue" d="M1633.03,-148.092C1895.15,-146.145 2913.91,-136.298 3256.7,-97.9831"/>
<polygon fill="midnightblue" stroke="midnightblue" points="3257.1,-101.459 3266.64,-96.8412 3256.3,-94.5051 3257.1,-101.459"/>
</g>
<!-- Node3 -->
<g id="node3" class="node"><title>Node3</title>
<polygon fill="white" stroke="#bfbfbf" points="666.5,-0.5 666.5,-30.5 767.5,-30.5 767.5,-0.5 666.5,-0.5"/>
<text text-anchor="start" x="674.5" y="-18.5" font-family="Helvetica,sans-Serif" font-size="10.00">tensorflow/compiler</text>
<text text-anchor="middle" x="717" y="-7.5" font-family="Helvetica,sans-Serif" font-size="10.00">/tf2xla/tf2xla.pb.h</text>
</g>
<!-- Node2&#45;&gt;Node3 -->
<g id="edge2" class="edge"><title>Node2&#45;&gt;Node3</title>
<path fill="none" stroke="midnightblue" d="M615.208,-67.396C634.117,-57.9413 659.221,-45.3896 679.766,-35.1168"/>
<polygon fill="midnightblue" stroke="midnightblue" points="681.468,-38.1792 688.847,-30.5765 678.337,-31.9182 681.468,-38.1792"/>
</g>
<!-- Node4 -->
<g id="node4" class="node"><title>Node4</title>
<polygon fill="white" stroke="#bfbfbf" points="406.5,-0.5 406.5,-30.5 507.5,-30.5 507.5,-0.5 406.5,-0.5"/>
<text text-anchor="start" x="414.5" y="-18.5" font-family="Helvetica,sans-Serif" font-size="10.00">tensorflow/compiler</text>
<text text-anchor="middle" x="457" y="-7.5" font-family="Helvetica,sans-Serif" font-size="10.00">/xla/client/client.h</text>
</g>
<!-- Node2&#45;&gt;Node4 -->
<g id="edge3" class="edge"><title>Node2&#45;&gt;Node4</title>
<path fill="none" stroke="midnightblue" d="M558.792,-67.396C539.883,-57.9413 514.779,-45.3896 494.234,-35.1168"/>
<polygon fill="midnightblue" stroke="midnightblue" points="495.663,-31.9182 485.153,-30.5765 492.532,-38.1792 495.663,-31.9182"/>
</g>
<!-- Node5 -->
<g id="node5" class="node"><title>Node5</title>
<polygon fill="white" stroke="#bfbfbf" points="525.5,-0.5 525.5,-30.5 648.5,-30.5 648.5,-0.5 525.5,-0.5"/>
<text text-anchor="start" x="533.5" y="-18.5" font-family="Helvetica,sans-Serif" font-size="10.00">tensorflow/compiler</text>
<text text-anchor="middle" x="587" y="-7.5" font-family="Helvetica,sans-Serif" font-size="10.00">/xla/client/computation.h</text>
</g>
<!-- Node2&#45;&gt;Node5 -->
<g id="edge4" class="edge"><title>Node2&#45;&gt;Node5</title>
<path fill="none" stroke="midnightblue" d="M587,-67.396C587,-59.6448 587,-49.8122 587,-40.8601"/>
<polygon fill="midnightblue" stroke="midnightblue" points="590.5,-40.5765 587,-30.5765 583.5,-40.5765 590.5,-40.5765"/>
</g>
<!-- Node2&#45;&gt;Node6 -->
<g id="edge5" class="edge"><title>Node2&#45;&gt;Node6</title>
<path fill="none" stroke="midnightblue" d="M536.219,-69.0443C494.495,-58.81 435.033,-44.2252 389.339,-33.0171"/>
<polygon fill="midnightblue" stroke="midnightblue" points="390.061,-29.5905 379.515,-30.6075 388.393,-36.389 390.061,-29.5905"/>
</g>
<!-- Node15&#45;&gt;Node3 -->
<g id="edge16" class="edge"><title>Node15&#45;&gt;Node3</title>
<path fill="none" stroke="midnightblue" d="M831.32,-67.396C809.797,-57.8135 781.127,-45.0498 757.884,-34.7016"/>
<polygon fill="midnightblue" stroke="midnightblue" points="759.177,-31.4463 748.618,-30.5765 756.33,-37.8412 759.177,-31.4463"/>
</g>
<!-- Node15&#45;&gt;Node6 -->
<g id="edge17" class="edge"><title>Node15&#45;&gt;Node6</title>
<path fill="none" stroke="midnightblue" d="M812.484,-77.4101C728.609,-70.3168 555.138,-54.3645 398.494,-31.1479"/>
<polygon fill="midnightblue" stroke="midnightblue" points="398.61,-27.6263 388.202,-29.6082 397.574,-34.5493 398.61,-27.6263"/>
</g>
<!-- Node15&#45;&gt;Node10 -->
<g id="edge15" class="edge"><title>Node15&#45;&gt;Node10</title>
<path fill="none" stroke="midnightblue" d="M913.659,-69.1493C954.154,-59.1704 1012.33,-44.5975 1063,-31 1066.84,-29.9693 1070.84,-28.8735 1074.83,-27.764"/>
<polygon fill="midnightblue" stroke="midnightblue" points="1075.96,-31.0806 1084.65,-25.0068 1074.07,-24.3414 1075.96,-31.0806"/>
</g>
<!-- Node15&#45;&gt;Node16 -->
<g id="edge18" class="edge"><title>Node15&#45;&gt;Node16</title>
<path fill="none" stroke="midnightblue" d="M863,-67.396C863,-58.0638 863,-45.7143 863,-35.5173"/>
<polygon fill="midnightblue" stroke="midnightblue" points="866.5,-35.1945 863,-25.1945 859.5,-35.1946 866.5,-35.1945"/>
</g>
<!-- Node15&#45;&gt;Node17 -->
<g id="edge19" class="edge"><title>Node15&#45;&gt;Node17</title>
<path fill="none" stroke="midnightblue" d="M812.341,-78.2725C688.799,-70.2569 373.587,-48.8976 248.182,-30.9948"/>
<polygon fill="midnightblue" stroke="midnightblue" points="248.469,-27.4992 238.064,-29.4935 247.442,-34.4234 248.469,-27.4992"/>
</g>
<!-- Node18 -->
<g id="node18" class="node"><title>Node18</title>
<polygon fill="white" stroke="#bfbfbf" points="958,-0.5 958,-30.5 1054,-30.5 1054,-0.5 958,-0.5"/>
<text text-anchor="start" x="966" y="-18.5" font-family="Helvetica,sans-Serif" font-size="10.00">tensorflow/core/lib</text>
<text text-anchor="middle" x="1006" y="-7.5" font-family="Helvetica,sans-Serif" font-size="10.00">/core/status.h</text>
</g>
<!-- Node15&#45;&gt;Node18 -->
<g id="edge20" class="edge"><title>Node15&#45;&gt;Node18</title>
<path fill="none" stroke="midnightblue" d="M894.029,-67.396C915.017,-57.8561 942.941,-45.1632 965.653,-34.8397"/>
<polygon fill="midnightblue" stroke="midnightblue" points="967.376,-37.9009 975.032,-30.5765 964.48,-31.5283 967.376,-37.9009"/>
</g>
<!-- Node20&#45;&gt;Node8 -->
<g id="edge24" class="edge"><title>Node20&#45;&gt;Node8</title>
<path fill="none" stroke="midnightblue" d="M1299.68,-67.396C1289.18,-57.0604 1274.93,-43.0237 1264.05,-32.309"/>
<polygon fill="midnightblue" stroke="midnightblue" points="1266.41,-29.7177 1256.83,-25.1945 1261.5,-34.7052 1266.41,-29.7177"/>
</g>
<!-- Node20&#45;&gt;Node10 -->
<g id="edge26" class="edge"><title>Node20&#45;&gt;Node10</title>
<path fill="none" stroke="midnightblue" d="M1270.6,-67.396C1234.58,-55.6882 1183.94,-39.2314 1150.1,-28.2336"/>
<polygon fill="midnightblue" stroke="midnightblue" points="1150.77,-24.7693 1140.18,-25.007 1148.6,-31.4265 1150.77,-24.7693"/>
</g>
<!-- Node20&#45;&gt;Node12 -->
<g id="edge27" class="edge"><title>Node20&#45;&gt;Node12</title>
<path fill="none" stroke="midnightblue" d="M1314,-67.396C1314,-58.0638 1314,-45.7143 1314,-35.5173"/>
<polygon fill="midnightblue" stroke="midnightblue" points="1317.5,-35.1945 1314,-25.1945 1310.5,-35.1946 1317.5,-35.1945"/>
</g>
<!-- Node20&#45;&gt;Node18 -->
<g id="edge33" class="edge"><title>Node20&#45;&gt;Node18</title>
<path fill="none" stroke="midnightblue" d="M1253.46,-70.2101C1204.8,-60.931 1134.46,-47.0643 1064.09,-31.187"/>
<polygon fill="midnightblue" stroke="midnightblue" points="1064.69,-27.734 1054.16,-28.9336 1063.14,-34.5604 1064.69,-27.734"/>
</g>
<!-- Node21 -->
<g id="node21" class="node"><title>Node21</title>
<polygon fill="white" stroke="#bfbfbf" points="1904.5,-6 1904.5,-25 1963.5,-25 1963.5,-6 1904.5,-6"/>
<text text-anchor="middle" x="1934" y="-13" font-family="Helvetica,sans-Serif" font-size="10.00">functional</text>
</g>
<!-- Node20&#45;&gt;Node21 -->
<g id="edge23" class="edge"><title>Node20&#45;&gt;Node21</title>
<path fill="none" stroke="midnightblue" d="M1374.62,-68.4251C1377.79,-67.9046 1380.93,-67.4246 1384,-67 1609.53,-35.8398 1672.48,-79.1612 1895,-31 1898.08,-30.3339 1901.24,-29.4741 1904.36,-28.506"/>
<polygon fill="midnightblue" stroke="midnightblue" points="1905.78,-31.7211 1914.09,-25.1489 1903.49,-25.1044 1905.78,-31.7211"/>
</g>
<!-- Node22 -->
<g id="node22" class="node"><title>Node22</title>
<polygon fill="white" stroke="#bfbfbf" points="1174,-6 1174,-25 1204,-25 1204,-6 1174,-6"/>
<text text-anchor="middle" x="1189" y="-13" font-family="Helvetica,sans-Serif" font-size="10.00">set</text>
</g>
<!-- Node20&#45;&gt;Node22 -->
<g id="edge25" class="edge"><title>Node20&#45;&gt;Node22</title>
<path fill="none" stroke="midnightblue" d="M1284.07,-67.3101C1263.8,-57.5119 1236.52,-43.9603 1213,-31 1212.58,-30.771 1212.17,-30.5383 1211.74,-30.3027"/>
<polygon fill="midnightblue" stroke="midnightblue" points="1213.25,-27.1312 1202.85,-25.1245 1209.73,-33.1807 1213.25,-27.1312"/>
</g>
<!-- Node23 -->
<g id="node23" class="node"><title>Node23</title>
<polygon fill="white" stroke="#bfbfbf" points="1981.5,-0.5 1981.5,-30.5 2110.5,-30.5 2110.5,-0.5 1981.5,-0.5"/>
<text text-anchor="start" x="1989.5" y="-18.5" font-family="Helvetica,sans-Serif" font-size="10.00">tensorflow/core/common</text>
<text text-anchor="middle" x="2046" y="-7.5" font-family="Helvetica,sans-Serif" font-size="10.00">_runtime/device_factory.h</text>
</g>
<!-- Node20&#45;&gt;Node23 -->
<g id="edge28" class="edge"><title>Node20&#45;&gt;Node23</title>
<path fill="none" stroke="midnightblue" d="M1374.62,-68.3902C1377.78,-67.8789 1380.92,-67.4104 1384,-67 1640.66,-32.7528 1711.12,-63.8149 1971.07,-31.1363"/>
<polygon fill="midnightblue" stroke="midnightblue" points="1971.72,-34.5823 1981.2,-29.8438 1970.83,-27.6386 1971.72,-34.5823"/>
</g>
<!-- Node24 -->
<g id="node24" class="node"><title>Node24</title>
<polygon fill="white" stroke="#bfbfbf" points="2129,-0.5 2129,-30.5 2253,-30.5 2253,-0.5 2129,-0.5"/>
<text text-anchor="start" x="2137" y="-18.5" font-family="Helvetica,sans-Serif" font-size="10.00">tensorflow/core/common</text>
<text text-anchor="middle" x="2191" y="-7.5" font-family="Helvetica,sans-Serif" font-size="10.00">_runtime/local_device.h</text>
</g>
<!-- Node20&#45;&gt;Node24 -->
<g id="edge29" class="edge"><title>Node20&#45;&gt;Node24</title>
<path fill="none" stroke="midnightblue" d="M1374.61,-68.3445C1377.78,-67.8451 1380.92,-67.3916 1384,-67 1705.55,-26.0844 1793.27,-70.946 2118.56,-31.04"/>
<polygon fill="midnightblue" stroke="midnightblue" points="2119.26,-34.4804 2128.75,-29.7722 2118.4,-27.534 2119.26,-34.4804"/>
</g>
<!-- Node25 -->
<g id="node25" class="node"><title>Node25</title>
<polygon fill="white" stroke="#bfbfbf" points="2271,-0.5 2271,-30.5 2403,-30.5 2403,-0.5 2271,-0.5"/>
<text text-anchor="start" x="2279" y="-18.5" font-family="Helvetica,sans-Serif" font-size="10.00">tensorflow/core/framework</text>
<text text-anchor="middle" x="2337" y="-7.5" font-family="Helvetica,sans-Serif" font-size="10.00">/device_base.h</text>
</g>
<!-- Node20&#45;&gt;Node25 -->
<g id="edge30" class="edge"><title>Node20&#45;&gt;Node25</title>
<path fill="none" stroke="midnightblue" d="M1374.61,-68.3148C1377.78,-67.8231 1380.92,-67.3795 1384,-67 1768.31,-19.6401 1872.3,-75.228 2260.72,-31.0164"/>
<polygon fill="midnightblue" stroke="midnightblue" points="2261.3,-34.4735 2270.83,-29.8509 2260.5,-27.5196 2261.3,-34.4735"/>
</g>
<!-- Node26 -->
<g id="node26" class="node"><title>Node26</title>
<polygon fill="white" stroke="#bfbfbf" points="2421,-0.5 2421,-30.5 2553,-30.5 2553,-0.5 2421,-0.5"/>
<text text-anchor="start" x="2429" y="-18.5" font-family="Helvetica,sans-Serif" font-size="10.00">tensorflow/core/framework</text>
<text text-anchor="middle" x="2487" y="-7.5" font-family="Helvetica,sans-Serif" font-size="10.00">/tensor.h</text>
</g>
<!-- Node20&#45;&gt;Node26 -->
<g id="edge31" class="edge"><title>Node20&#45;&gt;Node26</title>
<path fill="none" stroke="midnightblue" d="M1374.6,-68.2923C1377.77,-67.8065 1380.92,-67.3703 1384,-67 1834.58,-12.839 1955.97,-81.5259 2410.71,-31.0103"/>
<polygon fill="midnightblue" stroke="midnightblue" points="2411.29,-34.4679 2420.83,-29.8726 2410.5,-27.5117 2411.29,-34.4679"/>
</g>
<!-- Node27 -->
<g id="node27" class="node"><title>Node27</title>
<polygon fill="white" stroke="#bfbfbf" points="2571,-0.5 2571,-30.5 2703,-30.5 2703,-0.5 2571,-0.5"/>
<text text-anchor="start" x="2579" y="-18.5" font-family="Helvetica,sans-Serif" font-size="10.00">tensorflow/core/framework</text>
<text text-anchor="middle" x="2637" y="-7.5" font-family="Helvetica,sans-Serif" font-size="10.00">/types.pb.h</text>
</g>
<!-- Node20&#45;&gt;Node27 -->
<g id="edge32" class="edge"><title>Node20&#45;&gt;Node27</title>
<path fill="none" stroke="midnightblue" d="M1374.6,-68.2756C1377.77,-67.7942 1380.92,-67.3634 1384,-67 1900.89,-6.03522 2039.65,-87.8485 2560.8,-30.9954"/>
<polygon fill="midnightblue" stroke="midnightblue" points="2561.28,-34.4639 2570.83,-29.8888 2560.51,-27.5061 2561.28,-34.4639"/>
</g>
<!-- Node28 -->
<g id="node28" class="node"><title>Node28</title>
<polygon fill="white" stroke="#bfbfbf" points="1354,-0.5 1354,-30.5 1476,-30.5 1476,-0.5 1354,-0.5"/>
<text text-anchor="start" x="1362" y="-18.5" font-family="Helvetica,sans-Serif" font-size="10.00">tensorflow/core/platform</text>
<text text-anchor="middle" x="1415" y="-7.5" font-family="Helvetica,sans-Serif" font-size="10.00">/mem.h</text>
</g>
<!-- Node20&#45;&gt;Node28 -->
<g id="edge34" class="edge"><title>Node20&#45;&gt;Node28</title>
<path fill="none" stroke="midnightblue" d="M1335.92,-67.396C1350.08,-58.282 1368.71,-46.2902 1384.33,-36.236"/>
<polygon fill="midnightblue" stroke="midnightblue" points="1386.61,-38.9315 1393.13,-30.5765 1382.82,-33.0452 1386.61,-38.9315"/>
</g>
<!-- Node29 -->
<g id="node29" class="node"><title>Node29</title>
<polygon fill="white" stroke="#bfbfbf" points="1494,-0.5 1494,-30.5 1616,-30.5 1616,-0.5 1494,-0.5"/>
<text text-anchor="start" x="1502" y="-18.5" font-family="Helvetica,sans-Serif" font-size="10.00">tensorflow/core/platform</text>
<text text-anchor="middle" x="1555" y="-7.5" font-family="Helvetica,sans-Serif" font-size="10.00">/mutex.h</text>
</g>
<!-- Node20&#45;&gt;Node29 -->
<g id="edge35" class="edge"><title>Node20&#45;&gt;Node29</title>
<path fill="none" stroke="midnightblue" d="M1366,-67.476C1403.25,-57.4297 1453.57,-43.8564 1492.93,-33.2418"/>
<polygon fill="midnightblue" stroke="midnightblue" points="1493.94,-36.5943 1502.68,-30.6109 1492.11,-29.8358 1493.94,-36.5943"/>
</g>
<!-- Node30 -->
<g id="node30" class="node"><title>Node30</title>
<polygon fill="white" stroke="#bfbfbf" points="1634,-0.5 1634,-30.5 1756,-30.5 1756,-0.5 1634,-0.5"/>
<text text-anchor="start" x="1642" y="-18.5" font-family="Helvetica,sans-Serif" font-size="10.00">tensorflow/core/platform</text>
<text text-anchor="middle" x="1695" y="-7.5" font-family="Helvetica,sans-Serif" font-size="10.00">/thread_annotations.h</text>
</g>
<!-- Node20&#45;&gt;Node30 -->
<g id="edge36" class="edge"><title>Node20&#45;&gt;Node30</title>
<path fill="none" stroke="midnightblue" d="M1374.67,-68.7168C1377.82,-68.1202 1380.95,-67.5441 1384,-67 1487.5,-48.5654 1516.68,-49.8929 1624.02,-31.1113"/>
<polygon fill="midnightblue" stroke="midnightblue" points="1624.72,-34.5422 1633.96,-29.3547 1623.5,-27.6491 1624.72,-34.5422"/>
</g>
<!-- Node31 -->
<g id="node31" class="node"><title>Node31</title>
<polygon fill="white" stroke="#bfbfbf" points="1774,-0.5 1774,-30.5 1886,-30.5 1886,-0.5 1774,-0.5"/>
<text text-anchor="start" x="1782" y="-18.5" font-family="Helvetica,sans-Serif" font-size="10.00">tensorflow/core/public</text>
<text text-anchor="middle" x="1830" y="-7.5" font-family="Helvetica,sans-Serif" font-size="10.00">/session_options.h</text>
</g>
<!-- Node20&#45;&gt;Node31 -->
<g id="edge37" class="edge"><title>Node20&#45;&gt;Node31</title>
<path fill="none" stroke="midnightblue" d="M1374.63,-68.5147C1377.8,-67.9708 1380.93,-67.4613 1384,-67 1548.99,-42.1933 1595.25,-56.9793 1763.76,-31.0651"/>
<polygon fill="midnightblue" stroke="midnightblue" points="1764.37,-34.5117 1773.71,-29.5093 1763.29,-27.5956 1764.37,-34.5117"/>
</g>
<!-- Node34&#45;&gt;Node16 -->
<g id="edge43" class="edge"><title>Node34&#45;&gt;Node16</title>
<path fill="none" stroke="midnightblue" d="M1002.38,-67.396C970.592,-55.7891 926.025,-39.5147 895.914,-28.5192"/>
<polygon fill="midnightblue" stroke="midnightblue" points="896.89,-25.1495 886.296,-25.007 894.489,-31.7249 896.89,-25.1495"/>
</g>
<!-- Node34&#45;&gt;Node18 -->
<g id="edge44" class="edge"><title>Node34&#45;&gt;Node18</title>
<path fill="none" stroke="midnightblue" d="M1033.41,-67.396C1029,-59.219 1023.35,-48.7254 1018.33,-39.393"/>
<polygon fill="midnightblue" stroke="midnightblue" points="1021.4,-37.7219 1013.58,-30.5765 1015.24,-41.0406 1021.4,-37.7219"/>
</g>
<!-- Node34&#45;&gt;Node22 -->
<g id="edge42" class="edge"><title>Node34&#45;&gt;Node22</title>
<path fill="none" stroke="midnightblue" d="M1079,-67.4407C1103.61,-57.9596 1136.15,-44.7164 1164,-31 1164.68,-30.6675 1165.36,-30.3242 1166.04,-29.9725"/>
<polygon fill="midnightblue" stroke="midnightblue" points="1167.81,-32.9937 1174.9,-25.1225 1164.45,-26.8532 1167.81,-32.9937"/>
</g>
<!-- Node38&#45;&gt;Node6 -->
<g id="edge51" class="edge"><title>Node38&#45;&gt;Node6</title>
<path fill="none" stroke="midnightblue" d="M322,-67.396C322,-59.6448 322,-49.8122 322,-40.8601"/>
<polygon fill="midnightblue" stroke="midnightblue" points="325.5,-40.5765 322,-30.5765 318.5,-40.5765 325.5,-40.5765"/>
</g>
<!-- Node38&#45;&gt;Node17 -->
<g id="edge52" class="edge"><title>Node38&#45;&gt;Node17</title>
<path fill="none" stroke="midnightblue" d="M291.839,-67.396C271.438,-57.8561 244.295,-45.1632 222.219,-34.8397"/>
<polygon fill="midnightblue" stroke="midnightblue" points="223.643,-31.6421 213.102,-30.5765 220.678,-37.983 223.643,-31.6421"/>
</g>
<!-- Node38&#45;&gt;Node18 -->
<g id="edge54" class="edge"><title>Node38&#45;&gt;Node18</title>
<path fill="none" stroke="midnightblue" d="M377.023,-77.6029C513.4,-67.8711 861.684,-42.5506 947.93,-30.832"/>
<polygon fill="midnightblue" stroke="midnightblue" points="948.546,-34.2788 957.919,-29.3385 947.511,-27.3557 948.546,-34.2788"/>
</g>
<!-- Node39 -->
<g id="node39" class="node"><title>Node39</title>
<polygon fill="white" stroke="#bfbfbf" points="0,-0.5 0,-30.5 110,-30.5 110,-0.5 0,-0.5"/>
<text text-anchor="start" x="8" y="-18.5" font-family="Helvetica,sans-Serif" font-size="10.00">tensorflow/core/graph</text>
<text text-anchor="middle" x="55" y="-7.5" font-family="Helvetica,sans-Serif" font-size="10.00">/tensor_id.h</text>
</g>
<!-- Node38&#45;&gt;Node39 -->
<g id="edge53" class="edge"><title>Node38&#45;&gt;Node39</title>
<path fill="none" stroke="midnightblue" d="M266.677,-68.032C224.076,-57.6607 165.074,-43.2971 120.182,-32.3683"/>
<polygon fill="midnightblue" stroke="midnightblue" points="120.796,-28.9156 110.252,-29.9508 119.14,-35.7169 120.796,-28.9156"/>
</g>
</g>
</svg>
        <g id="navigator" transform="translate(0 0)" fill="#404254">
                <rect fill="#f2f5e9" fill-opacity="0.5" stroke="#606060" stroke-width=".5" x="0" y="0" width="60" height="60"/>
                <use id="zoomplus" xlink:href="#zoomPlus" x="17" y="9" onmousedown="handleZoom(evt,'in')"/>
                <use id="zoomminus" xlink:href="#zoomMin" x="42" y="9" onmousedown="handleZoom(evt,'out')"/>
                <use id="reset" xlink:href="#resetDef" x="30" y="36" onmousedown="handleReset()"/>
                <g id="arrowUp" xlink:href="#dirArrow" transform="translate(30 24)" onmousedown="handlePan(0,-1)">
                  <use xlink:href="#rim" fill="#404040">
                        <set attributeName="fill" to="#808080" begin="arrowUp.mouseover" end="arrowUp.mouseout"/>
                  </use>
                  <path fill="none" stroke="white" stroke-width="1.5" d="M0,-3.0v7 M-2.5,-0.5L0,-3.0L2.5,-0.5"/>
                </g>
                <g id="arrowRight" xlink:href="#dirArrow" transform="rotate(90) translate(36 -43)" onmousedown="handlePan(1,0)">
                  <use xlink:href="#rim" fill="#404040">
                        <set attributeName="fill" to="#808080" begin="arrowRight.mouseover" end="arrowRight.mouseout"/>
                  </use>
                  <path fill="none" stroke="white" stroke-width="1.5" d="M0,-3.0v7 M-2.5,-0.5L0,-3.0L2.5,-0.5"/>
                </g>
                <g id="arrowDown" xlink:href="#dirArrow" transform="rotate(180) translate(-30 -48)" onmousedown="handlePan(0,1)">
                  <use xlink:href="#rim" fill="#404040">
                        <set attributeName="fill" to="#808080" begin="arrowDown.mouseover" end="arrowDown.mouseout"/>
                  </use>
                  <path fill="none" stroke="white" stroke-width="1.5" d="M0,-3.0v7 M-2.5,-0.5L0,-3.0L2.5,-0.5"/>
                </g>
                <g id="arrowLeft" xlink:href="#dirArrow" transform="rotate(270) translate(-36 17)" onmousedown="handlePan(-1,0)">
                  <use xlink:href="#rim" fill="#404040">
                        <set attributeName="fill" to="#808080" begin="arrowLeft.mouseover" end="arrowLeft.mouseout"/>
                  </use>
                  <path fill="none" stroke="white" stroke-width="1.5" d="M0,-3.0v7 M-2.5,-0.5L0,-3.0L2.5,-0.5"/>
                </g>
        </g>
        <svg viewBox="0 0 15 15" width="100%" height="30px" preserveAspectRatio="xMaxYMin meet">
         <g id="arrow_out" transform="scale(0.3 0.3)">
          <a xlink:href="tf2xla_8cc__incl_org.svg" target="_base">
           <rect id="button" ry="5" rx="5" y="6" x="6" height="38" width="38"
                fill="#f2f5e9" fill-opacity="0.5" stroke="#606060" stroke-width="1.0"/>
           <path id="arrow"
             d="M 11.500037,31.436501 C 11.940474,20.09759 22.043105,11.32322 32.158766,21.979434 L 37.068811,17.246167 C 37.068811,17.246167 37.088388,32 37.088388,32 L 22.160133,31.978069 C 22.160133,31.978069 26.997745,27.140456 26.997745,27.140456 C 18.528582,18.264221 13.291696,25.230495 11.500037,31.436501 z"
             style="fill:#404040;"/>
          </a>
         </g>
        </svg>
</svg>
