<?xml version="1.0" encoding="UTF-8" standalone="no"?>
<!DOCTYPE svg PUBLIC "-//W3C//DTD SVG 1.1//EN"
 "http://www.w3.org/Graphics/SVG/1.1/DTD/svg11.dtd">
<!-- Generated by graphviz version 2.40.1 (20161225.0304)
 -->
<!-- Title: tensorflow/tensorflow/compiler/xla/service/cpu/disassembler.h Pages: 1 -->
<svg width="373pt" height="206pt"
 viewBox="0.00 0.00 372.50 206.00" xmlns="http://www.w3.org/2000/svg" xmlns:xlink="http://www.w3.org/1999/xlink">
<g id="graph0" class="graph" transform="scale(1 1) rotate(0) translate(4 202)">
<title>tensorflow/tensorflow/compiler/xla/service/cpu/disassembler.h</title>
<polygon fill="#ffffff" stroke="transparent" points="-4,4 -4,-202 368.5,-202 368.5,4 -4,4"/>
<!-- Node13 -->
<g id="node1" class="node">
<title>Node13</title>
<polygon fill="#bfbfbf" stroke="#000000" points="153.5,-156.5 153.5,-197.5 275.5,-197.5 275.5,-156.5 153.5,-156.5"/>
<text text-anchor="start" x="161.5" y="-185.5" font-family="Helvetica,sans-Serif" font-size="10.00" fill="#000000">tensorflow/tensorflow</text>
<text text-anchor="start" x="161.5" y="-174.5" font-family="Helvetica,sans-Serif" font-size="10.00" fill="#000000">/compiler/xla/service</text>
<text text-anchor="middle" x="214.5" y="-163.5" font-family="Helvetica,sans-Serif" font-size="10.00" fill="#000000">/cpu/disassembler.h</text>
</g>
<!-- Node14 -->
<g id="node2" class="node">
<title>Node14</title>
<g id="a_node2"><a xlink:href="../../d7/d3d/compiler__functor_8h.html" target="_top" xlink:title="tensorflow/tensorflow\l/compiler/xla/service\l/cpu/compiler_functor.h">
<polygon fill="#ffffff" stroke="#000000" points="55,-78.5 55,-119.5 186,-119.5 186,-78.5 55,-78.5"/>
<text text-anchor="start" x="63" y="-107.5" font-family="Helvetica,sans-Serif" font-size="10.00" fill="#000000">tensorflow/tensorflow</text>
<text text-anchor="start" x="63" y="-96.5" font-family="Helvetica,sans-Serif" font-size="10.00" fill="#000000">/compiler/xla/service</text>
<text text-anchor="middle" x="120.5" y="-85.5" font-family="Helvetica,sans-Serif" font-size="10.00" fill="#000000">/cpu/compiler_functor.h</text>
</a>
</g>
</g>
<!-- Node13&#45;&gt;Node14 -->
<g id="edge1" class="edge">
<title>Node13&#45;&gt;Node14</title>
<path fill="none" stroke="#191970" d="M181.3737,-149.5122C169.5539,-139.7043 156.4481,-128.8293 145.4339,-119.6898"/>
<polygon fill="#191970" stroke="#191970" points="179.3791,-152.4051 189.3097,-156.0974 183.8491,-147.0182 179.3791,-152.4051"/>
</g>
<!-- Node16 -->
<g id="node4" class="node">
<title>Node16</title>
<g id="a_node4"><a xlink:href="../../d4/dcb/cpu__compiler_8cc.html" target="_top" xlink:title="tensorflow/tensorflow\l/compiler/xla/service\l/cpu/cpu_compiler.cc">
<polygon fill="#ffffff" stroke="#000000" points="153.5,-.5 153.5,-41.5 275.5,-41.5 275.5,-.5 153.5,-.5"/>
<text text-anchor="start" x="161.5" y="-29.5" font-family="Helvetica,sans-Serif" font-size="10.00" fill="#000000">tensorflow/tensorflow</text>
<text text-anchor="start" x="161.5" y="-18.5" font-family="Helvetica,sans-Serif" font-size="10.00" fill="#000000">/compiler/xla/service</text>
<text text-anchor="middle" x="214.5" y="-7.5" font-family="Helvetica,sans-Serif" font-size="10.00" fill="#000000">/cpu/cpu_compiler.cc</text>
</a>
</g>
</g>
<!-- Node13&#45;&gt;Node16 -->
<g id="edge4" class="edge">
<title>Node13&#45;&gt;Node16</title>
<path fill="none" stroke="#191970" d="M214.5,-146.0704C214.5,-115.1728 214.5,-68.5341 214.5,-41.8013"/>
<polygon fill="#191970" stroke="#191970" points="211.0001,-146.2844 214.5,-156.2844 218.0001,-146.2844 211.0001,-146.2844"/>
</g>
<!-- Node17 -->
<g id="node5" class="node">
<title>Node17</title>
<g id="a_node5"><a xlink:href="../../d7/d1d/disassembler_8cc.html" target="_top" xlink:title="tensorflow/tensorflow\l/compiler/xla/service\l/cpu/disassembler.cc">
<polygon fill="#ffffff" stroke="#000000" points="242.5,-78.5 242.5,-119.5 364.5,-119.5 364.5,-78.5 242.5,-78.5"/>
<text text-anchor="start" x="250.5" y="-107.5" font-family="Helvetica,sans-Serif" font-size="10.00" fill="#000000">tensorflow/tensorflow</text>
<text text-anchor="start" x="250.5" y="-96.5" font-family="Helvetica,sans-Serif" font-size="10.00" fill="#000000">/compiler/xla/service</text>
<text text-anchor="middle" x="303.5" y="-85.5" font-family="Helvetica,sans-Serif" font-size="10.00" fill="#000000">/cpu/disassembler.cc</text>
</a>
</g>
</g>
<!-- Node13&#45;&gt;Node17 -->
<g id="edge5" class="edge">
<title>Node13&#45;&gt;Node17</title>
<path fill="none" stroke="#191970" d="M246.1874,-149.229C257.2938,-139.4953 269.5643,-128.7414 279.8924,-119.6898"/>
<polygon fill="#191970" stroke="#191970" points="243.564,-146.8742 238.3504,-156.0974 248.1778,-152.1386 243.564,-146.8742"/>
</g>
<!-- Node15 -->
<g id="node3" class="node">
<title>Node15</title>
<g id="a_node3"><a xlink:href="../../de/ded/compiler__functor_8cc.html" target="_top" xlink:title="tensorflow/tensorflow\l/compiler/xla/service\l/cpu/compiler_functor.cc">
<polygon fill="#ffffff" stroke="#000000" points="0,-.5 0,-41.5 135,-41.5 135,-.5 0,-.5"/>
<text text-anchor="start" x="8" y="-29.5" font-family="Helvetica,sans-Serif" font-size="10.00" fill="#000000">tensorflow/tensorflow</text>
<text text-anchor="start" x="8" y="-18.5" font-family="Helvetica,sans-Serif" font-size="10.00" fill="#000000">/compiler/xla/service</text>
<text text-anchor="middle" x="67.5" y="-7.5" font-family="Helvetica,sans-Serif" font-size="10.00" fill="#000000">/cpu/compiler_functor.cc</text>
</a>
</g>
</g>
<!-- Node14&#45;&gt;Node15 -->
<g id="edge2" class="edge">
<title>Node14&#45;&gt;Node15</title>
<path fill="none" stroke="#191970" d="M100.6621,-69.8046C94.3093,-60.4552 87.4103,-50.302 81.5585,-41.6898"/>
<polygon fill="#191970" stroke="#191970" points="97.7818,-71.7933 106.297,-78.0974 103.5717,-67.8591 97.7818,-71.7933"/>
</g>
<!-- Node14&#45;&gt;Node16 -->
<g id="edge3" class="edge">
<title>Node14&#45;&gt;Node16</title>
<path fill="none" stroke="#191970" d="M153.6263,-71.5122C165.4461,-61.7043 178.5519,-50.8293 189.5661,-41.6898"/>
<polygon fill="#191970" stroke="#191970" points="151.1509,-69.0182 145.6903,-78.0974 155.6209,-74.4051 151.1509,-69.0182"/>
</g>
</g>
</svg>
