<?xml version="1.0" encoding="UTF-8" standalone="no"?>
<!DOCTYPE svg PUBLIC "-//W3C//DTD SVG 1.1//EN"
 "http://www.w3.org/Graphics/SVG/1.1/DTD/svg11.dtd">
<!-- Generated by graphviz version 2.40.1 (20161225.0304)
 -->
<!-- Title: tensorflow/tensorflow/compiler/tf2xla/tf2xla.h Pages: 1 -->
<svg width="523pt" height="102pt"
 viewBox="0.00 0.00 522.70 102.00" xmlns="http://www.w3.org/2000/svg" xmlns:xlink="http://www.w3.org/1999/xlink">
<g id="graph0" class="graph" transform="scale(1 1) rotate(0) translate(4 98)">
<title>tensorflow/tensorflow/compiler/tf2xla/tf2xla.h</title>
<polygon fill="#ffffff" stroke="transparent" points="-4,4 -4,-98 518.7017,-98 518.7017,4 -4,4"/>
<!-- Node0 -->
<g id="node1" class="node">
<title>Node0</title>
<polygon fill="#bfbfbf" stroke="#000000" points="176.9385,-65.5 176.9385,-93.5 295.2041,-93.5 295.2041,-65.5 176.9385,-65.5"/>
<text text-anchor="start" x="184.9385" y="-81.5" font-family="Helvetica,sans-Serif" font-size="10.00" fill="#000000">tensorflow/tensorflow</text>
<text text-anchor="middle" x="236.0713" y="-71.5" font-family="Helvetica,sans-Serif" font-size="10.00" fill="#000000">/compiler/tf2xla/tf2xla.h</text>
</g>
<!-- Node1 -->
<g id="node2" class="node">
<title>Node1</title>
<polygon fill="#ffffff" stroke="#bfbfbf" points="0,-.5 0,-28.5 102.1426,-28.5 102.1426,-.5 0,-.5"/>
<text text-anchor="start" x="8" y="-16.5" font-family="Helvetica,sans-Serif" font-size="10.00" fill="#000000">tensorflow/compiler</text>
<text text-anchor="middle" x="51.0713" y="-6.5" font-family="Helvetica,sans-Serif" font-size="10.00" fill="#000000">/tf2xla/tf2xla.pb.h</text>
</g>
<!-- Node0&#45;&gt;Node1 -->
<g id="edge1" class="edge">
<title>Node0&#45;&gt;Node1</title>
<path fill="none" stroke="#191970" d="M195.929,-65.396C168.0499,-55.6006 130.7093,-42.4809 100.9226,-32.0153"/>
<polygon fill="#191970" stroke="#191970" points="101.73,-28.5893 91.1352,-28.5765 99.4096,-35.1935 101.73,-28.5893"/>
</g>
<!-- Node2 -->
<g id="node3" class="node">
<title>Node2</title>
<polygon fill="#ffffff" stroke="#bfbfbf" points="120,-.5 120,-28.5 222.1426,-28.5 222.1426,-.5 120,-.5"/>
<text text-anchor="start" x="128" y="-16.5" font-family="Helvetica,sans-Serif" font-size="10.00" fill="#000000">tensorflow/compiler</text>
<text text-anchor="middle" x="171.0713" y="-6.5" font-family="Helvetica,sans-Serif" font-size="10.00" fill="#000000">/xla/client/client.h</text>
</g>
<!-- Node0&#45;&gt;Node2 -->
<g id="edge2" class="edge">
<title>Node0&#45;&gt;Node2</title>
<path fill="none" stroke="#191970" d="M221.9673,-65.396C213.2792,-56.7079 201.9759,-45.4046 192.2289,-35.6576"/>
<polygon fill="#191970" stroke="#191970" points="194.6938,-33.1727 185.1478,-28.5765 189.744,-38.1225 194.6938,-33.1727"/>
</g>
<!-- Node3 -->
<g id="node4" class="node">
<title>Node3</title>
<polygon fill="#ffffff" stroke="#bfbfbf" points="240.4312,-.5 240.4312,-28.5 363.7114,-28.5 363.7114,-.5 240.4312,-.5"/>
<text text-anchor="start" x="248.4312" y="-16.5" font-family="Helvetica,sans-Serif" font-size="10.00" fill="#000000">tensorflow/compiler</text>
<text text-anchor="middle" x="302.0713" y="-6.5" font-family="Helvetica,sans-Serif" font-size="10.00" fill="#000000">/xla/client/computation.h</text>
</g>
<!-- Node0&#45;&gt;Node3 -->
<g id="edge3" class="edge">
<title>Node0&#45;&gt;Node3</title>
<path fill="none" stroke="#191970" d="M250.3923,-65.396C259.214,-56.7079 270.6912,-45.4046 280.5882,-35.6576"/>
<polygon fill="#191970" stroke="#191970" points="283.1093,-38.0871 287.7782,-28.5765 278.1974,-33.0997 283.1093,-38.0871"/>
</g>
<!-- Node4 -->
<g id="node5" class="node">
<title>Node4</title>
<polygon fill="#ffffff" stroke="#bfbfbf" points="381.4409,-.5 381.4409,-28.5 514.7017,-28.5 514.7017,-.5 381.4409,-.5"/>
<text text-anchor="start" x="389.4409" y="-16.5" font-family="Helvetica,sans-Serif" font-size="10.00" fill="#000000">tensorflow/core/framework</text>
<text text-anchor="middle" x="448.0713" y="-6.5" font-family="Helvetica,sans-Serif" font-size="10.00" fill="#000000">/graph.pb.h</text>
</g>
<!-- Node0&#45;&gt;Node4 -->
<g id="edge4" class="edge">
<title>Node0&#45;&gt;Node4</title>
<path fill="none" stroke="#191970" d="M281.8111,-65.476C314.1609,-55.5574 357.7236,-42.201 392.1422,-31.6481"/>
<polygon fill="#191970" stroke="#191970" points="393.5133,-34.8886 402.048,-28.6109 391.4613,-28.1961 393.5133,-34.8886"/>
</g>
</g>
</svg>
