<?xml version="1.0" encoding="UTF-8" standalone="no"?>
<!DOCTYPE svg PUBLIC "-//W3C//DTD SVG 1.1//EN"
 "http://www.w3.org/Graphics/SVG/1.1/DTD/svg11.dtd">
<!-- Generated by graphviz version 2.40.1 (20161225.0304)
 -->
<!-- Title: tensorflow/tensorflow/compiler/tf2xla/tf2xla.h Pages: 1 -->
<svg width="520pt" height="106pt"
 viewBox="0.00 0.00 519.50 106.00" xmlns="http://www.w3.org/2000/svg" xmlns:xlink="http://www.w3.org/1999/xlink">
<g id="graph0" class="graph" transform="scale(1 1) rotate(0) translate(4 102)">
<title>tensorflow/tensorflow/compiler/tf2xla/tf2xla.h</title>
<polygon fill="#ffffff" stroke="transparent" points="-4,4 -4,-102 515.5,-102 515.5,4 -4,4"/>
<!-- Node0 -->
<g id="node1" class="node">
<title>Node0</title>
<polygon fill="#bfbfbf" stroke="#000000" points="175,-67.5 175,-97.5 294,-97.5 294,-67.5 175,-67.5"/>
<text text-anchor="start" x="183" y="-85.5" font-family="Helvetica,sans-Serif" font-size="10.00" fill="#000000">tensorflow/tensorflow</text>
<text text-anchor="middle" x="234.5" y="-74.5" font-family="Helvetica,sans-Serif" font-size="10.00" fill="#000000">/compiler/tf2xla/tf2xla.h</text>
</g>
<!-- Node1 -->
<g id="node2" class="node">
<title>Node1</title>
<polygon fill="#ffffff" stroke="#bfbfbf" points="0,-.5 0,-30.5 101,-30.5 101,-.5 0,-.5"/>
<text text-anchor="start" x="8" y="-18.5" font-family="Helvetica,sans-Serif" font-size="10.00" fill="#000000">tensorflow/compiler</text>
<text text-anchor="middle" x="50.5" y="-7.5" font-family="Helvetica,sans-Serif" font-size="10.00" fill="#000000">/tf2xla/tf2xla.pb.h</text>
</g>
<!-- Node0&#45;&gt;Node1 -->
<g id="edge1" class="edge">
<title>Node0&#45;&gt;Node1</title>
<path fill="none" stroke="#191970" d="M193.2068,-67.4639C166.0764,-57.5849 130.3902,-44.5905 101.4914,-34.0675"/>
<polygon fill="#191970" stroke="#191970" points="102.5673,-30.7345 91.9733,-30.6017 100.1722,-37.312 102.5673,-30.7345"/>
</g>
<!-- Node2 -->
<g id="node3" class="node">
<title>Node2</title>
<polygon fill="#ffffff" stroke="#bfbfbf" points="119,-.5 119,-30.5 220,-30.5 220,-.5 119,-.5"/>
<text text-anchor="start" x="127" y="-18.5" font-family="Helvetica,sans-Serif" font-size="10.00" fill="#000000">tensorflow/compiler</text>
<text text-anchor="middle" x="169.5" y="-7.5" font-family="Helvetica,sans-Serif" font-size="10.00" fill="#000000">/xla/client/client.h</text>
</g>
<!-- Node0&#45;&gt;Node2 -->
<g id="edge2" class="edge">
<title>Node0&#45;&gt;Node2</title>
<path fill="none" stroke="#191970" d="M219.7505,-67.2967C211.3567,-58.6446 200.6843,-47.6438 191.3358,-38.0076"/>
<polygon fill="#191970" stroke="#191970" points="193.6664,-35.3835 184.1911,-30.6432 188.6422,-40.2577 193.6664,-35.3835"/>
</g>
<!-- Node3 -->
<g id="node4" class="node">
<title>Node3</title>
<polygon fill="#ffffff" stroke="#bfbfbf" points="238,-.5 238,-30.5 361,-30.5 361,-.5 238,-.5"/>
<text text-anchor="start" x="246" y="-18.5" font-family="Helvetica,sans-Serif" font-size="10.00" fill="#000000">tensorflow/compiler</text>
<text text-anchor="middle" x="299.5" y="-7.5" font-family="Helvetica,sans-Serif" font-size="10.00" fill="#000000">/xla/client/computation.h</text>
</g>
<!-- Node0&#45;&gt;Node3 -->
<g id="edge3" class="edge">
<title>Node0&#45;&gt;Node3</title>
<path fill="none" stroke="#191970" d="M249.2495,-67.2967C257.6433,-58.6446 268.3157,-47.6438 277.6642,-38.0076"/>
<polygon fill="#191970" stroke="#191970" points="280.3578,-40.2577 284.8089,-30.6432 275.3336,-35.3835 280.3578,-40.2577"/>
</g>
<!-- Node4 -->
<g id="node5" class="node">
<title>Node4</title>
<polygon fill="#ffffff" stroke="#bfbfbf" points="379.5,-.5 379.5,-30.5 511.5,-30.5 511.5,-.5 379.5,-.5"/>
<text text-anchor="start" x="387.5" y="-18.5" font-family="Helvetica,sans-Serif" font-size="10.00" fill="#000000">tensorflow/core/framework</text>
<text text-anchor="middle" x="445.5" y="-7.5" font-family="Helvetica,sans-Serif" font-size="10.00" fill="#000000">/graph.pb.h</text>
</g>
<!-- Node0&#45;&gt;Node4 -->
<g id="edge4" class="edge">
<title>Node0&#45;&gt;Node4</title>
<path fill="none" stroke="#191970" d="M281.8525,-67.4639C313.3699,-57.456 354.956,-44.2509 388.3189,-33.657"/>
<polygon fill="#191970" stroke="#191970" points="389.4692,-36.9641 397.941,-30.6017 387.3506,-30.2923 389.4692,-36.9641"/>
</g>
</g>
</svg>
