<?xml version="1.0" encoding="UTF-8" standalone="no"?>
<!DOCTYPE svg PUBLIC "-//W3C//DTD SVG 1.1//EN"
 "http://www.w3.org/Graphics/SVG/1.1/DTD/svg11.dtd">
<!-- Generated by graphviz version 2.40.1 (20161225.0304)
 -->
<!-- Title: xla::ScopedShardingAssignment::ScopedShardingAssignment Pages: 1 -->
<svg width="674pt" height="88pt"
 viewBox="0.00 0.00 674.00 88.00" xmlns="http://www.w3.org/2000/svg" xmlns:xlink="http://www.w3.org/1999/xlink">
<g id="graph0" class="graph" transform="scale(1 1) rotate(0) translate(4 84)">
<title>xla::ScopedShardingAssignment::ScopedShardingAssignment</title>
<polygon fill="#ffffff" stroke="transparent" points="-4,4 -4,-84 670,-84 670,4 -4,4"/>
<!-- Node0 -->
<g id="node1" class="node">
<title>Node0</title>
<polygon fill="#bfbfbf" stroke="#000000" points="0,-24.5 0,-54.5 158,-54.5 158,-24.5 0,-24.5"/>
<text text-anchor="start" x="8" y="-42.5" font-family="Helvetica,sans-Serif" font-size="10.00" fill="#000000">xla::ScopedShardingAssignment</text>
<text text-anchor="middle" x="79" y="-31.5" font-family="Helvetica,sans-Serif" font-size="10.00" fill="#000000">::ScopedShardingAssignment</text>
</g>
<!-- Node1 -->
<g id="node2" class="node">
<title>Node1</title>
<g id="a_node2"><a xlink:href="../../d5/db4/classxla_1_1ScopedShardingAssignment.html#a0a6961ccce95bc0a10aba9ccc8789ad1" target="_top" xlink:title="xla::ScopedShardingAssignment\l::SetSharding">
<polygon fill="#ffffff" stroke="#000000" points="194,-24.5 194,-54.5 352,-54.5 352,-24.5 194,-24.5"/>
<text text-anchor="start" x="202" y="-42.5" font-family="Helvetica,sans-Serif" font-size="10.00" fill="#000000">xla::ScopedShardingAssignment</text>
<text text-anchor="middle" x="273" y="-31.5" font-family="Helvetica,sans-Serif" font-size="10.00" fill="#000000">::SetSharding</text>
</a>
</g>
</g>
<!-- Node0&#45;&gt;Node1 -->
<g id="edge1" class="edge">
<title>Node0&#45;&gt;Node1</title>
<path fill="none" stroke="#191970" d="M158.187,-39.5C166.5295,-39.5 175.054,-39.5 183.5021,-39.5"/>
<polygon fill="#191970" stroke="#191970" points="183.7518,-43.0001 193.7517,-39.5 183.7517,-36.0001 183.7518,-43.0001"/>
</g>
<!-- Node2 -->
<g id="node3" class="node">
<title>Node2</title>
<g id="a_node3"><a xlink:href="../../df/d1b/classxla_1_1ComputationBuilder.html#a0802f92647f6189ea0a7a6c6e626212f" target="_top" xlink:title="xla::ComputationBuilder\l::SetSharding">
<polygon fill="#ffffff" stroke="#000000" points="388,-49.5 388,-79.5 509,-79.5 509,-49.5 388,-49.5"/>
<text text-anchor="start" x="396" y="-67.5" font-family="Helvetica,sans-Serif" font-size="10.00" fill="#000000">xla::ComputationBuilder</text>
<text text-anchor="middle" x="448.5" y="-56.5" font-family="Helvetica,sans-Serif" font-size="10.00" fill="#000000">::SetSharding</text>
</a>
</g>
</g>
<!-- Node1&#45;&gt;Node2 -->
<g id="edge2" class="edge">
<title>Node1&#45;&gt;Node2</title>
<path fill="none" stroke="#191970" d="M352.0221,-50.7567C360.5601,-51.973 369.2094,-53.205 377.6424,-54.4063"/>
<polygon fill="#191970" stroke="#191970" points="377.4058,-57.9079 387.7995,-55.8532 378.393,-50.9778 377.4058,-57.9079"/>
</g>
<!-- Node4 -->
<g id="node5" class="node">
<title>Node4</title>
<g id="a_node5"><a xlink:href="../../df/d1b/classxla_1_1ComputationBuilder.html#a3c36241e59fd9d65b438511698c0c2ce" target="_top" xlink:title="xla::ComputationBuilder\l::ClearSharding">
<polygon fill="#ffffff" stroke="#000000" points="388,-.5 388,-30.5 509,-30.5 509,-.5 388,-.5"/>
<text text-anchor="start" x="396" y="-18.5" font-family="Helvetica,sans-Serif" font-size="10.00" fill="#000000">xla::ComputationBuilder</text>
<text text-anchor="middle" x="448.5" y="-7.5" font-family="Helvetica,sans-Serif" font-size="10.00" fill="#000000">::ClearSharding</text>
</a>
</g>
</g>
<!-- Node1&#45;&gt;Node4 -->
<g id="edge4" class="edge">
<title>Node1&#45;&gt;Node4</title>
<path fill="none" stroke="#191970" d="M352.0221,-28.6936C360.5601,-27.526 369.2094,-26.3432 377.6424,-25.1899"/>
<polygon fill="#191970" stroke="#191970" points="378.3659,-28.6236 387.7995,-23.8009 377.4174,-21.6882 378.3659,-28.6236"/>
</g>
<!-- Node3 -->
<g id="node4" class="node">
<title>Node3</title>
<g id="a_node4"><a xlink:href="../../df/d1b/classxla_1_1ComputationBuilder.html#a961682e696a5607179c574aea40e718c" target="_top" xlink:title="xla::ComputationBuilder\l::sharding">
<polygon fill="#ffffff" stroke="#000000" points="545,-49.5 545,-79.5 666,-79.5 666,-49.5 545,-49.5"/>
<text text-anchor="start" x="553" y="-67.5" font-family="Helvetica,sans-Serif" font-size="10.00" fill="#000000">xla::ComputationBuilder</text>
<text text-anchor="middle" x="605.5" y="-56.5" font-family="Helvetica,sans-Serif" font-size="10.00" fill="#000000">::sharding</text>
</a>
</g>
</g>
<!-- Node2&#45;&gt;Node3 -->
<g id="edge3" class="edge">
<title>Node2&#45;&gt;Node3</title>
<path fill="none" stroke="#191970" d="M509.2003,-64.5C517.635,-64.5 526.3591,-64.5 534.9547,-64.5"/>
<polygon fill="#191970" stroke="#191970" points="534.9612,-68.0001 544.9611,-64.5 534.9611,-61.0001 534.9612,-68.0001"/>
</g>
</g>
</svg>
