<?xml version="1.0" encoding="UTF-8" standalone="no"?>
<!DOCTYPE svg PUBLIC "-//W3C//DTD SVG 1.1//EN"
 "http://www.w3.org/Graphics/SVG/1.1/DTD/svg11.dtd">
<!-- Generated by graphviz version 2.40.1 (20161225.0304)
 -->
<!-- Title: tensorflow/tensorflow/compiler/xla/service/hlo_element_type_converter.cc Pages: 1 -->
<!--zoomable 206 -->
<svg id="main" version="1.1" xmlns="http://www.w3.org/2000/svg" xmlns:xlink="http://www.w3.org/1999/xlink" xml:space="preserve" onload="init(evt)">
<style type="text/css"><![CDATA[
.edge:hover path { stroke: red; }
.edge:hover polygon { stroke: red; fill: red; }
]]></style>
<script type="text/javascript"><![CDATA[
var edges = document.getElementsByTagName('g');
if (edges && edges.length) {
  for (var i=0;i<edges.length;i++) {
    if (edges[i].id.substr(0,4)=='edge') {
      edges[i].setAttribute('class','edge');
    }
  }
}
]]></script>
        <defs>
                <circle id="rim" cx="0" cy="0" r="7"/>
                <circle id="rim2" cx="0" cy="0" r="3.5"/>
                <g id="zoomPlus">
                        <use xlink:href="#rim" fill="#404040">
                                <set attributeName="fill" to="#808080" begin="zoomplus.mouseover" end="zoomplus.mouseout"/>
                        </use>
                        <path d="M-4,0h8M0,-4v8" fill="none" stroke="white" stroke-width="1.5" pointer-events="none"/>
                </g>
                <g id="zoomMin">
                        <use xlink:href="#rim" fill="#404040">
                                <set attributeName="fill" to="#808080" begin="zoomminus.mouseover" end="zoomminus.mouseout"/>
                        </use>
                        <path d="M-4,0h8" fill="none" stroke="white" stroke-width="1.5" pointer-events="none"/>
                </g>
                <g id="dirArrow">
                        <path fill="none" stroke="white" stroke-width="1.5" d="M0,-3.0v7 M-2.5,-0.5L0,-3.0L2.5,-0.5"/>
                </g>
               <g id="resetDef">
                       <use xlink:href="#rim2" fill="#404040">
                               <set attributeName="fill" to="#808080" begin="reset.mouseover" end="reset.mouseout"/>
                       </use>
               </g>
        </defs>

<script type="text/javascript">
var viewWidth = 1938;
var viewHeight = 206;
var sectionId = 'dynsection-0';
</script>
<script xlink:href="../../svgpan.js"/>
<svg id="graph" class="graph">
<g id="viewport">
<title>tensorflow/tensorflow/compiler/xla/service/hlo_element_type_converter.cc</title>
<polygon fill="#ffffff" stroke="transparent" points="-4,4 -4,-202 1934,-202 1934,4 -4,4"/>
<!-- Node0 -->
<g id="node1" class="node">
<title>Node0</title>
<polygon fill="#bfbfbf" stroke="#000000" points="754.5,-156.5 754.5,-197.5 909.5,-197.5 909.5,-156.5 754.5,-156.5"/>
<text text-anchor="start" x="762.5" y="-185.5" font-family="Helvetica,sans-Serif" font-size="10.00" fill="#000000">tensorflow/tensorflow</text>
<text text-anchor="start" x="762.5" y="-174.5" font-family="Helvetica,sans-Serif" font-size="10.00" fill="#000000">/compiler/xla/service</text>
<text text-anchor="middle" x="832" y="-163.5" font-family="Helvetica,sans-Serif" font-size="10.00" fill="#000000">/hlo_element_type_converter.cc</text>
</g>
<!-- Node1 -->
<g id="node2" class="node">
<title>Node1</title>
<g id="a_node2"><a xlink:href="../../da/dd2/hlo__element__type__converter_8h.html" target="_top" xlink:title="tensorflow/compiler\l/xla/service/hlo_element\l_type_converter.h">
<polygon fill="#ffffff" stroke="#000000" points="71,-78.5 71,-119.5 193,-119.5 193,-78.5 71,-78.5"/>
<text text-anchor="start" x="79" y="-107.5" font-family="Helvetica,sans-Serif" font-size="10.00" fill="#000000">tensorflow/compiler</text>
<text text-anchor="start" x="79" y="-96.5" font-family="Helvetica,sans-Serif" font-size="10.00" fill="#000000">/xla/service/hlo_element</text>
<text text-anchor="middle" x="132" y="-85.5" font-family="Helvetica,sans-Serif" font-size="10.00" fill="#000000">_type_converter.h</text>
</a>
</g>
</g>
<!-- Node0&#45;&gt;Node1 -->
<g id="edge1" class="edge">
<title>Node0&#45;&gt;Node1</title>
<path fill="none" stroke="#191970" d="M754.1967,-174.9865C636.4531,-170.8318 406.0919,-158.3761 203.2301,-120.0502"/>
<polygon fill="#191970" stroke="#191970" points="203.7657,-116.5892 193.2859,-118.1463 202.4493,-123.4644 203.7657,-116.5892"/>
</g>
<!-- Node4 -->
<g id="node5" class="node">
<title>Node4</title>
<polygon fill="#ffffff" stroke="#bfbfbf" points="211,-89.5 211,-108.5 263,-108.5 263,-89.5 211,-89.5"/>
<text text-anchor="middle" x="237" y="-96.5" font-family="Helvetica,sans-Serif" font-size="10.00" fill="#000000">memory</text>
</g>
<!-- Node0&#45;&gt;Node4 -->
<g id="edge4" class="edge">
<title>Node0&#45;&gt;Node4</title>
<path fill="none" stroke="#191970" d="M754.4005,-173.154C622.5274,-165.9418 360.4811,-148.4907 273,-120 268.2614,-118.4567 263.4668,-116.2238 258.9892,-113.7841"/>
<polygon fill="#191970" stroke="#191970" points="260.7448,-110.7559 250.3634,-108.6402 257.1596,-116.7681 260.7448,-110.7559"/>
</g>
<!-- Node5 -->
<g id="node6" class="node">
<title>Node5</title>
<polygon fill="#ffffff" stroke="#bfbfbf" points="281.5,-89.5 281.5,-108.5 322.5,-108.5 322.5,-89.5 281.5,-89.5"/>
<text text-anchor="middle" x="302" y="-96.5" font-family="Helvetica,sans-Serif" font-size="10.00" fill="#000000">string</text>
</g>
<!-- Node0&#45;&gt;Node5 -->
<g id="edge5" class="edge">
<title>Node0&#45;&gt;Node5</title>
<path fill="none" stroke="#191970" d="M754.415,-172.8263C633.8077,-165.5554 407.37,-148.5519 332,-120 328.3362,-118.6121 324.6979,-116.6755 321.2852,-114.5348"/>
<polygon fill="#191970" stroke="#191970" points="323.1039,-111.5345 312.9155,-108.6282 319.0678,-117.2538 323.1039,-111.5345"/>
</g>
<!-- Node6 -->
<g id="node7" class="node">
<title>Node6</title>
<polygon fill="#ffffff" stroke="#bfbfbf" points="341,-89.5 341,-108.5 381,-108.5 381,-89.5 341,-89.5"/>
<text text-anchor="middle" x="361" y="-96.5" font-family="Helvetica,sans-Serif" font-size="10.00" fill="#000000">utility</text>
</g>
<!-- Node0&#45;&gt;Node6 -->
<g id="edge6" class="edge">
<title>Node0&#45;&gt;Node6</title>
<path fill="none" stroke="#191970" d="M754.473,-171.629C645.8855,-163.321 454.5516,-145.5956 390,-120 386.439,-118.588 382.912,-116.6389 379.6089,-114.4932"/>
<polygon fill="#191970" stroke="#191970" points="381.6596,-111.6568 371.519,-108.5876 377.5323,-117.3106 381.6596,-111.6568"/>
</g>
<!-- Node7 -->
<g id="node8" class="node">
<title>Node7</title>
<polygon fill="#ffffff" stroke="#bfbfbf" points="399,-89.5 399,-108.5 443,-108.5 443,-89.5 399,-89.5"/>
<text text-anchor="middle" x="421" y="-96.5" font-family="Helvetica,sans-Serif" font-size="10.00" fill="#000000">vector</text>
</g>
<!-- Node0&#45;&gt;Node7 -->
<g id="edge7" class="edge">
<title>Node0&#45;&gt;Node7</title>
<path fill="none" stroke="#191970" d="M754.4499,-169.3019C660.054,-159.2445 506.6086,-140.486 453,-120 449.0623,-118.4952 445.1111,-116.4467 441.395,-114.2163"/>
<polygon fill="#191970" stroke="#191970" points="443.0511,-111.1149 432.7831,-108.5035 439.1815,-116.9481 443.0511,-111.1149"/>
</g>
<!-- Node8 -->
<g id="node9" class="node">
<title>Node8</title>
<polygon fill="#ffffff" stroke="#bfbfbf" points="461.5,-84 461.5,-114 562.5,-114 562.5,-84 461.5,-84"/>
<text text-anchor="start" x="469.5" y="-102" font-family="Helvetica,sans-Serif" font-size="10.00" fill="#000000">tensorflow/compiler</text>
<text text-anchor="middle" x="512" y="-91" font-family="Helvetica,sans-Serif" font-size="10.00" fill="#000000">/xla/layout_util.h</text>
</g>
<!-- Node0&#45;&gt;Node8 -->
<g id="edge8" class="edge">
<title>Node0&#45;&gt;Node8</title>
<path fill="none" stroke="#191970" d="M754.3147,-162.5243C702.3199,-152.212 632.5752,-137.1727 572,-120 568.8677,-119.112 565.6606,-118.1498 562.4375,-117.1423"/>
<polygon fill="#191970" stroke="#191970" points="563.3709,-113.7657 552.779,-114.0128 561.2132,-120.4249 563.3709,-113.7657"/>
</g>
<!-- Node9 -->
<g id="node10" class="node">
<title>Node9</title>
<polygon fill="#ffffff" stroke="#bfbfbf" points="580.5,-84 580.5,-114 681.5,-114 681.5,-84 580.5,-84"/>
<text text-anchor="start" x="588.5" y="-102" font-family="Helvetica,sans-Serif" font-size="10.00" fill="#000000">tensorflow/compiler</text>
<text text-anchor="middle" x="631" y="-91" font-family="Helvetica,sans-Serif" font-size="10.00" fill="#000000">/xla/literal_util.h</text>
</g>
<!-- Node0&#45;&gt;Node9 -->
<g id="edge9" class="edge">
<title>Node0&#45;&gt;Node9</title>
<path fill="none" stroke="#191970" d="M778.9267,-156.4044C747.9661,-144.3898 709.2139,-129.3517 679.1405,-117.6814"/>
<polygon fill="#191970" stroke="#191970" points="680.2912,-114.3737 669.7023,-114.0188 677.7587,-120.8995 680.2912,-114.3737"/>
</g>
<!-- Node10 -->
<g id="node11" class="node">
<title>Node10</title>
<polygon fill="#ffffff" stroke="#bfbfbf" points="700,-78.5 700,-119.5 814,-119.5 814,-78.5 700,-78.5"/>
<text text-anchor="start" x="708" y="-107.5" font-family="Helvetica,sans-Serif" font-size="10.00" fill="#000000">tensorflow/compiler</text>
<text text-anchor="start" x="708" y="-96.5" font-family="Helvetica,sans-Serif" font-size="10.00" fill="#000000">/xla/service/dfs_hlo</text>
<text text-anchor="middle" x="757" y="-85.5" font-family="Helvetica,sans-Serif" font-size="10.00" fill="#000000">_visitor_with_default.h</text>
</g>
<!-- Node0&#45;&gt;Node10 -->
<g id="edge10" class="edge">
<title>Node0&#45;&gt;Node10</title>
<path fill="none" stroke="#191970" d="M811.9014,-156.0974C803.3419,-147.1956 793.2283,-136.6775 784.0288,-127.1099"/>
<polygon fill="#191970" stroke="#191970" points="786.3481,-124.4723 776.894,-119.6898 781.3022,-129.324 786.3481,-124.4723"/>
</g>
<!-- Node11 -->
<g id="node12" class="node">
<title>Node11</title>
<polygon fill="#ffffff" stroke="#bfbfbf" points="832.5,-84 832.5,-114 981.5,-114 981.5,-84 832.5,-84"/>
<text text-anchor="start" x="840.5" y="-102" font-family="Helvetica,sans-Serif" font-size="10.00" fill="#000000">tensorflow/compiler</text>
<text text-anchor="middle" x="907" y="-91" font-family="Helvetica,sans-Serif" font-size="10.00" fill="#000000">/xla/service/hlo_computation.h</text>
</g>
<!-- Node0&#45;&gt;Node11 -->
<g id="edge11" class="edge">
<title>Node0&#45;&gt;Node11</title>
<path fill="none" stroke="#191970" d="M852.0986,-156.0974C862.294,-145.4942 874.6944,-132.5978 885.1287,-121.7461"/>
<polygon fill="#191970" stroke="#191970" points="887.9112,-123.9021 892.3194,-114.2679 882.8653,-119.0503 887.9112,-123.9021"/>
</g>
<!-- Node12 -->
<g id="node13" class="node">
<title>Node12</title>
<polygon fill="#ffffff" stroke="#bfbfbf" points="999.5,-84 999.5,-114 1134.5,-114 1134.5,-84 999.5,-84"/>
<text text-anchor="start" x="1007.5" y="-102" font-family="Helvetica,sans-Serif" font-size="10.00" fill="#000000">tensorflow/compiler</text>
<text text-anchor="middle" x="1067" y="-91" font-family="Helvetica,sans-Serif" font-size="10.00" fill="#000000">/xla/service/hlo_evaluator.h</text>
</g>
<!-- Node0&#45;&gt;Node12 -->
<g id="edge12" class="edge">
<title>Node0&#45;&gt;Node12</title>
<path fill="none" stroke="#191970" d="M894.0509,-156.4044C930.7187,-144.2338 976.7342,-128.9605 1012.081,-117.2284"/>
<polygon fill="#191970" stroke="#191970" points="1013.3628,-120.4908 1021.7511,-114.0188 1011.1576,-113.8472 1013.3628,-120.4908"/>
</g>
<!-- Node13 -->
<g id="node14" class="node">
<title>Node13</title>
<polygon fill="#ffffff" stroke="#bfbfbf" points="1152.5,-84 1152.5,-114 1293.5,-114 1293.5,-84 1152.5,-84"/>
<text text-anchor="start" x="1160.5" y="-102" font-family="Helvetica,sans-Serif" font-size="10.00" fill="#000000">tensorflow/compiler</text>
<text text-anchor="middle" x="1223" y="-91" font-family="Helvetica,sans-Serif" font-size="10.00" fill="#000000">/xla/service/hlo_instruction.h</text>
</g>
<!-- Node0&#45;&gt;Node13 -->
<g id="edge13" class="edge">
<title>Node0&#45;&gt;Node13</title>
<path fill="none" stroke="#191970" d="M909.5952,-164.5784C972.932,-154.0188 1064.6096,-137.7747 1144,-120 1148.8947,-118.9041 1153.9436,-117.7106 1159.0109,-116.4672"/>
<polygon fill="#191970" stroke="#191970" points="1159.8941,-119.8542 1168.7427,-114.0273 1158.1917,-113.0643 1159.8941,-119.8542"/>
</g>
<!-- Node14 -->
<g id="node15" class="node">
<title>Node14</title>
<polygon fill="#ffffff" stroke="#bfbfbf" points="1312,-84 1312,-114 1440,-114 1440,-84 1312,-84"/>
<text text-anchor="start" x="1320" y="-102" font-family="Helvetica,sans-Serif" font-size="10.00" fill="#000000">tensorflow/compiler</text>
<text text-anchor="middle" x="1376" y="-91" font-family="Helvetica,sans-Serif" font-size="10.00" fill="#000000">/xla/service/hlo_opcode.h</text>
</g>
<!-- Node0&#45;&gt;Node14 -->
<g id="edge14" class="edge">
<title>Node0&#45;&gt;Node14</title>
<path fill="none" stroke="#191970" d="M909.7045,-171.4212C1003.5786,-163.8043 1165.9758,-147.8148 1303,-120 1307.7576,-119.0342 1312.6565,-117.912 1317.5576,-116.6982"/>
<polygon fill="#191970" stroke="#191970" points="1318.7757,-119.9982 1327.5763,-114.0991 1317.0178,-113.2225 1318.7757,-119.9982"/>
</g>
<!-- Node15 -->
<g id="node16" class="node">
<title>Node15</title>
<polygon fill="#ffffff" stroke="#bfbfbf" points="1458.5,-84 1458.5,-114 1577.5,-114 1577.5,-84 1458.5,-84"/>
<text text-anchor="start" x="1466.5" y="-102" font-family="Helvetica,sans-Serif" font-size="10.00" fill="#000000">tensorflow/compiler</text>
<text text-anchor="middle" x="1518" y="-91" font-family="Helvetica,sans-Serif" font-size="10.00" fill="#000000">/xla/service/hlo_query.h</text>
</g>
<!-- Node0&#45;&gt;Node15 -->
<g id="edge15" class="edge">
<title>Node0&#45;&gt;Node15</title>
<path fill="none" stroke="#191970" d="M909.67,-174.8804C1027.3465,-170.5352 1257.4073,-157.5988 1449,-120 1453.7421,-119.0694 1458.6227,-117.9421 1463.4921,-116.6986"/>
<polygon fill="#191970" stroke="#191970" points="1464.6865,-120.0012 1473.4237,-114.0086 1462.8564,-113.2447 1464.6865,-120.0012"/>
</g>
<!-- Node16 -->
<g id="node17" class="node">
<title>Node16</title>
<polygon fill="#ffffff" stroke="#bfbfbf" points="1595.5,-84 1595.5,-114 1696.5,-114 1696.5,-84 1595.5,-84"/>
<text text-anchor="start" x="1603.5" y="-102" font-family="Helvetica,sans-Serif" font-size="10.00" fill="#000000">tensorflow/compiler</text>
<text text-anchor="middle" x="1646" y="-91" font-family="Helvetica,sans-Serif" font-size="10.00" fill="#000000">/xla/shape_util.h</text>
</g>
<!-- Node0&#45;&gt;Node16 -->
<g id="edge16" class="edge">
<title>Node0&#45;&gt;Node16</title>
<path fill="none" stroke="#191970" d="M909.5271,-173.7689C1075.2521,-166.4344 1459.2857,-147.0414 1587,-120 1590.8392,-119.1871 1594.7686,-118.186 1598.6866,-117.0659"/>
<polygon fill="#191970" stroke="#191970" points="1599.8263,-120.377 1608.3438,-114.0759 1597.756,-113.6902 1599.8263,-120.377"/>
</g>
<!-- Node17 -->
<g id="node18" class="node">
<title>Node17</title>
<polygon fill="#ffffff" stroke="#bfbfbf" points="1714.5,-84 1714.5,-114 1815.5,-114 1815.5,-84 1714.5,-84"/>
<text text-anchor="start" x="1722.5" y="-102" font-family="Helvetica,sans-Serif" font-size="10.00" fill="#000000">tensorflow/compiler</text>
<text text-anchor="middle" x="1765" y="-91" font-family="Helvetica,sans-Serif" font-size="10.00" fill="#000000">/xla/types.h</text>
</g>
<!-- Node0&#45;&gt;Node17 -->
<g id="edge17" class="edge">
<title>Node0&#45;&gt;Node17</title>
<path fill="none" stroke="#191970" d="M909.7775,-174.6828C1094.41,-168.7376 1554.9397,-151.1782 1706,-120 1709.9015,-119.1947 1713.8949,-118.1898 1717.8738,-117.0588"/>
<polygon fill="#191970" stroke="#191970" points="1719.1537,-120.3267 1727.6743,-114.0299 1717.0867,-113.6388 1719.1537,-120.3267"/>
</g>
<!-- Node18 -->
<g id="node19" class="node">
<title>Node18</title>
<polygon fill="#ffffff" stroke="#bfbfbf" points="1834,-84 1834,-114 1930,-114 1930,-84 1834,-84"/>
<text text-anchor="start" x="1842" y="-102" font-family="Helvetica,sans-Serif" font-size="10.00" fill="#000000">tensorflow/core/lib</text>
<text text-anchor="middle" x="1882" y="-91" font-family="Helvetica,sans-Serif" font-size="10.00" fill="#000000">/core/errors.h</text>
</g>
<!-- Node0&#45;&gt;Node18 -->
<g id="edge18" class="edge">
<title>Node0&#45;&gt;Node18</title>
<path fill="none" stroke="#191970" d="M909.8097,-175.497C1112.0354,-171.117 1650.5532,-156.3011 1825,-120 1828.675,-119.2353 1832.43,-118.2772 1836.1717,-117.1944"/>
<polygon fill="#191970" stroke="#191970" points="1837.5067,-120.4429 1845.9809,-114.0838 1835.3907,-113.7703 1837.5067,-120.4429"/>
</g>
<!-- Node2 -->
<g id="node3" class="node">
<title>Node2</title>
<polygon fill="#ffffff" stroke="#bfbfbf" points="0,-6 0,-36 128,-36 128,-6 0,-6"/>
<text text-anchor="start" x="8" y="-24" font-family="Helvetica,sans-Serif" font-size="10.00" fill="#000000">tensorflow/compiler</text>
<text text-anchor="middle" x="64" y="-13" font-family="Helvetica,sans-Serif" font-size="10.00" fill="#000000">/xla/service/hlo_module.h</text>
</g>
<!-- Node1&#45;&gt;Node2 -->
<g id="edge2" class="edge">
<title>Node1&#45;&gt;Node2</title>
<path fill="none" stroke="#191970" d="M113.7772,-78.0974C104.6232,-67.5972 93.5085,-54.848 84.106,-44.0628"/>
<polygon fill="#191970" stroke="#191970" points="86.52,-41.5056 77.3104,-36.2679 81.2436,-46.1056 86.52,-41.5056"/>
</g>
<!-- Node3 -->
<g id="node4" class="node">
<title>Node3</title>
<polygon fill="#ffffff" stroke="#bfbfbf" points="146.5,-.5 146.5,-41.5 255.5,-41.5 255.5,-.5 146.5,-.5"/>
<text text-anchor="start" x="154.5" y="-29.5" font-family="Helvetica,sans-Serif" font-size="10.00" fill="#000000">tensorflow/compiler</text>
<text text-anchor="start" x="154.5" y="-18.5" font-family="Helvetica,sans-Serif" font-size="10.00" fill="#000000">/xla/service/hlo_pass</text>
<text text-anchor="middle" x="201" y="-7.5" font-family="Helvetica,sans-Serif" font-size="10.00" fill="#000000">_interface.h</text>
</g>
<!-- Node1&#45;&gt;Node3 -->
<g id="edge3" class="edge">
<title>Node1&#45;&gt;Node3</title>
<path fill="none" stroke="#191970" d="M150.4907,-78.0974C158.2875,-69.2837 167.4858,-58.8856 175.8819,-49.3944"/>
<polygon fill="#191970" stroke="#191970" points="178.6932,-51.4988 182.6975,-41.6898 173.4502,-46.8608 178.6932,-51.4988"/>
</g>
</g>
</svg>
        <g id="navigator" transform="translate(0 0)" fill="#404254">
                <rect fill="#f2f5e9" fill-opacity="0.5" stroke="#606060" stroke-width=".5" x="0" y="0" width="60" height="60"/>
                <use id="zoomplus" xlink:href="#zoomPlus" x="17" y="9" onmousedown="handleZoom(evt,'in')"/>
                <use id="zoomminus" xlink:href="#zoomMin" x="42" y="9" onmousedown="handleZoom(evt,'out')"/>
                <use id="reset" xlink:href="#resetDef" x="30" y="36" onmousedown="handleReset()"/>
                <g id="arrowUp" xlink:href="#dirArrow" transform="translate(30 24)" onmousedown="handlePan(0,-1)">
                  <use xlink:href="#rim" fill="#404040">
                        <set attributeName="fill" to="#808080" begin="arrowUp.mouseover" end="arrowUp.mouseout"/>
                  </use>
                  <path fill="none" stroke="white" stroke-width="1.5" d="M0,-3.0v7 M-2.5,-0.5L0,-3.0L2.5,-0.5"/>
                </g>
                <g id="arrowRight" xlink:href="#dirArrow" transform="rotate(90) translate(36 -43)" onmousedown="handlePan(1,0)">
                  <use xlink:href="#rim" fill="#404040">
                        <set attributeName="fill" to="#808080" begin="arrowRight.mouseover" end="arrowRight.mouseout"/>
                  </use>
                  <path fill="none" stroke="white" stroke-width="1.5" d="M0,-3.0v7 M-2.5,-0.5L0,-3.0L2.5,-0.5"/>
                </g>
                <g id="arrowDown" xlink:href="#dirArrow" transform="rotate(180) translate(-30 -48)" onmousedown="handlePan(0,1)">
                  <use xlink:href="#rim" fill="#404040">
                        <set attributeName="fill" to="#808080" begin="arrowDown.mouseover" end="arrowDown.mouseout"/>
                  </use>
                  <path fill="none" stroke="white" stroke-width="1.5" d="M0,-3.0v7 M-2.5,-0.5L0,-3.0L2.5,-0.5"/>
                </g>
                <g id="arrowLeft" xlink:href="#dirArrow" transform="rotate(270) translate(-36 17)" onmousedown="handlePan(-1,0)">
                  <use xlink:href="#rim" fill="#404040">
                        <set attributeName="fill" to="#808080" begin="arrowLeft.mouseover" end="arrowLeft.mouseout"/>
                  </use>
                  <path fill="none" stroke="white" stroke-width="1.5" d="M0,-3.0v7 M-2.5,-0.5L0,-3.0L2.5,-0.5"/>
                </g>
        </g>
        <svg viewBox="0 0 15 15" width="100%" height="30px" preserveAspectRatio="xMaxYMin meet">
         <g id="arrow_out" transform="scale(0.3 0.3)">
          <a xlink:href="hlo__element__type__converter_8cc__incl_org.svg" target="_base">
           <rect id="button" ry="5" rx="5" y="6" x="6" height="38" width="38"
                fill="#f2f5e9" fill-opacity="0.5" stroke="#606060" stroke-width="1.0"/>
           <path id="arrow"
             d="M 11.500037,31.436501 C 11.940474,20.09759 22.043105,11.32322 32.158766,21.979434 L 37.068811,17.246167 C 37.068811,17.246167 37.088388,32 37.088388,32 L 22.160133,31.978069 C 22.160133,31.978069 26.997745,27.140456 26.997745,27.140456 C 18.528582,18.264221 13.291696,25.230495 11.500037,31.436501 z"
             style="fill:#404040;"/>
          </a>
         </g>
        </svg>
</svg>
