<?xml version="1.0" encoding="UTF-8" standalone="no"?>
<!DOCTYPE svg PUBLIC "-//W3C//DTD SVG 1.1//EN"
 "http://www.w3.org/Graphics/SVG/1.1/DTD/svg11.dtd">
<!-- Generated by graphviz version 2.38.0 (20140413.2041)
 -->
<!-- Title: tensorflow/tensorflow/compiler/xla/service/llvm_compiler.h Pages: 1 -->
<svg width="344pt" height="284pt"
 viewBox="0.00 0.00 343.50 284.00" xmlns="http://www.w3.org/2000/svg" xmlns:xlink="http://www.w3.org/1999/xlink">
<g id="graph0" class="graph" transform="scale(1 1) rotate(0) translate(4 280)">
<title>tensorflow/tensorflow/compiler/xla/service/llvm_compiler.h</title>
<polygon fill="white" stroke="none" points="-4,4 -4,-280 339.5,-280 339.5,4 -4,4"/>
<!-- Node1 -->
<g id="node1" class="node"><title>Node1</title>
<polygon fill="#bfbfbf" stroke="black" points="93.5,-234.5 93.5,-275.5 203.5,-275.5 203.5,-234.5 93.5,-234.5"/>
<text text-anchor="start" x="101.5" y="-263.5" font-family="Helvetica,sans-Serif" font-size="10.00">tensorflow/tensorflow</text>
<text text-anchor="start" x="101.5" y="-252.5" font-family="Helvetica,sans-Serif" font-size="10.00">/compiler/xla/service</text>
<text text-anchor="middle" x="148.5" y="-241.5" font-family="Helvetica,sans-Serif" font-size="10.00">/llvm_compiler.h</text>
</g>
<!-- Node2 -->
<g id="node2" class="node"><title>Node2</title>
<g id="a_node2"><a xlink:href="../../db/de2/cpu__compiler_8h_source.html" target="_top" xlink:title="tensorflow/tensorflow\l/compiler/xla/service\l/cpu/cpu_compiler.h">
<polygon fill="white" stroke="black" points="93.5,-156.5 93.5,-197.5 203.5,-197.5 203.5,-156.5 93.5,-156.5"/>
<text text-anchor="start" x="101.5" y="-185.5" font-family="Helvetica,sans-Serif" font-size="10.00">tensorflow/tensorflow</text>
<text text-anchor="start" x="101.5" y="-174.5" font-family="Helvetica,sans-Serif" font-size="10.00">/compiler/xla/service</text>
<text text-anchor="middle" x="148.5" y="-163.5" font-family="Helvetica,sans-Serif" font-size="10.00">/cpu/cpu_compiler.h</text>
</a>
</g>
</g>
<!-- Node1&#45;&gt;Node2 -->
<g id="edge1" class="edge"><title>Node1&#45;&gt;Node2</title>
<path fill="none" stroke="midnightblue" d="M148.5,-224.297C148.5,-215.301 148.5,-205.653 148.5,-197.506"/>
<polygon fill="midnightblue" stroke="midnightblue" points="145,-224.428 148.5,-234.428 152,-224.428 145,-224.428"/>
</g>
<!-- Node3 -->
<g id="node3" class="node"><title>Node3</title>
<g id="a_node3"><a xlink:href="../../d6/d17/compile_8cc.html" target="_top" xlink:title="tensorflow/tensorflow\l/compiler/aot/compile.cc">
<polygon fill="white" stroke="black" points="0,-6 0,-36 123,-36 123,-6 0,-6"/>
<text text-anchor="start" x="8" y="-24" font-family="Helvetica,sans-Serif" font-size="10.00">tensorflow/tensorflow</text>
<text text-anchor="middle" x="61.5" y="-13" font-family="Helvetica,sans-Serif" font-size="10.00">/compiler/aot/compile.cc</text>
</a>
</g>
</g>
<!-- Node2&#45;&gt;Node3 -->
<g id="edge2" class="edge"><title>Node2&#45;&gt;Node3</title>
<path fill="none" stroke="midnightblue" d="M108.132,-150.376C97.6716,-141.903 87.4166,-131.626 80.5,-120 64.6387,-93.3395 61.6692,-56.0492 61.3178,-36.0287"/>
<polygon fill="midnightblue" stroke="midnightblue" points="106.053,-153.192 116.12,-156.496 110.311,-147.636 106.053,-153.192"/>
</g>
<!-- Node4 -->
<g id="node4" class="node"><title>Node4</title>
<g id="a_node4"><a xlink:href="../../d4/d03/compile_8h.html" target="_top" xlink:title="tensorflow/tensorflow\l/compiler/aot/compile.h">
<polygon fill="white" stroke="black" points="89.5,-84 89.5,-114 207.5,-114 207.5,-84 89.5,-84"/>
<text text-anchor="start" x="97.5" y="-102" font-family="Helvetica,sans-Serif" font-size="10.00">tensorflow/tensorflow</text>
<text text-anchor="middle" x="148.5" y="-91" font-family="Helvetica,sans-Serif" font-size="10.00">/compiler/aot/compile.h</text>
</a>
</g>
</g>
<!-- Node2&#45;&gt;Node4 -->
<g id="edge3" class="edge"><title>Node2&#45;&gt;Node4</title>
<path fill="none" stroke="midnightblue" d="M148.5,-146.283C148.5,-135.254 148.5,-123.246 148.5,-114.225"/>
<polygon fill="midnightblue" stroke="midnightblue" points="145,-146.428 148.5,-156.428 152,-146.428 145,-146.428"/>
</g>
<!-- Node6 -->
<g id="node6" class="node"><title>Node6</title>
<polygon fill="white" stroke="#bfbfbf" points="225.5,-78.5 225.5,-119.5 335.5,-119.5 335.5,-78.5 225.5,-78.5"/>
<text text-anchor="start" x="233.5" y="-107.5" font-family="Helvetica,sans-Serif" font-size="10.00">tensorflow/tensorflow</text>
<text text-anchor="start" x="233.5" y="-96.5" font-family="Helvetica,sans-Serif" font-size="10.00">/compiler/xla/service</text>
<text text-anchor="middle" x="280.5" y="-85.5" font-family="Helvetica,sans-Serif" font-size="10.00">/cpu/cpu_compiler.cc</text>
</g>
<!-- Node2&#45;&gt;Node6 -->
<g id="edge6" class="edge"><title>Node2&#45;&gt;Node6</title>
<path fill="none" stroke="midnightblue" d="M191.569,-151.203C209.433,-140.918 229.856,-129.159 246.622,-119.506"/>
<polygon fill="midnightblue" stroke="midnightblue" points="189.413,-148.405 182.493,-156.428 192.906,-154.472 189.413,-148.405"/>
</g>
<!-- Node4&#45;&gt;Node3 -->
<g id="edge4" class="edge"><title>Node4&#45;&gt;Node3</title>
<path fill="none" stroke="midnightblue" d="M124.339,-76.8941C109.501,-63.9322 90.894,-47.6775 77.7907,-36.2309"/>
<polygon fill="midnightblue" stroke="midnightblue" points="122.302,-79.7619 132.136,-83.705 126.907,-74.4901 122.302,-79.7619"/>
</g>
<!-- Node5 -->
<g id="node5" class="node"><title>Node5</title>
<g id="a_node5"><a xlink:href="../../d4/d8d/tfcompile__main_8cc.html" target="_top" xlink:title="tensorflow/tensorflow\l/compiler/aot/tfcompile\l_main.cc">
<polygon fill="white" stroke="black" points="141.5,-0.5 141.5,-41.5 257.5,-41.5 257.5,-0.5 141.5,-0.5"/>
<text text-anchor="start" x="149.5" y="-29.5" font-family="Helvetica,sans-Serif" font-size="10.00">tensorflow/tensorflow</text>
<text text-anchor="start" x="149.5" y="-18.5" font-family="Helvetica,sans-Serif" font-size="10.00">/compiler/aot/tfcompile</text>
<text text-anchor="middle" x="199.5" y="-7.5" font-family="Helvetica,sans-Serif" font-size="10.00">_main.cc</text>
</a>
</g>
</g>
<!-- Node4&#45;&gt;Node5 -->
<g id="edge5" class="edge"><title>Node4&#45;&gt;Node5</title>
<path fill="none" stroke="midnightblue" d="M163.751,-75.2736C170.925,-64.5825 179.398,-51.9564 186.294,-41.68"/>
<polygon fill="midnightblue" stroke="midnightblue" points="160.759,-73.451 158.093,-83.705 166.571,-77.3516 160.759,-73.451"/>
</g>
</g>
</svg>
