<?xml version="1.0" encoding="UTF-8" standalone="no"?>
<!DOCTYPE svg PUBLIC "-//W3C//DTD SVG 1.1//EN"
 "http://www.w3.org/Graphics/SVG/1.1/DTD/svg11.dtd">
<!-- Generated by graphviz version 2.40.1 (20161225.0304)
 -->
<!-- Title: tensorflow/tensorflow/compiler/xla/service/llvm_compiler.h Pages: 1 -->
<svg width="344pt" height="272pt"
 viewBox="0.00 0.00 343.60 272.00" xmlns="http://www.w3.org/2000/svg" xmlns:xlink="http://www.w3.org/1999/xlink">
<g id="graph0" class="graph" transform="scale(1 1) rotate(0) translate(4 268)">
<title>tensorflow/tensorflow/compiler/xla/service/llvm_compiler.h</title>
<polygon fill="#ffffff" stroke="transparent" points="-4,4 -4,-268 339.5957,-268 339.5957,4 -4,4"/>
<!-- Node17 -->
<g id="node1" class="node">
<title>Node17</title>
<polygon fill="#bfbfbf" stroke="#000000" points="93.665,-225.5 93.665,-263.5 203.5957,-263.5 203.5957,-225.5 93.665,-225.5"/>
<text text-anchor="start" x="101.665" y="-251.5" font-family="Helvetica,sans-Serif" font-size="10.00" fill="#000000">tensorflow/tensorflow</text>
<text text-anchor="start" x="101.665" y="-241.5" font-family="Helvetica,sans-Serif" font-size="10.00" fill="#000000">/compiler/xla/service</text>
<text text-anchor="middle" x="148.6304" y="-231.5" font-family="Helvetica,sans-Serif" font-size="10.00" fill="#000000">/llvm_compiler.h</text>
</g>
<!-- Node18 -->
<g id="node2" class="node">
<title>Node18</title>
<g id="a_node2"><a xlink:href="../../db/de2/cpu__compiler_8h_source.html" target="_top" xlink:title="tensorflow/tensorflow\l/compiler/xla/service\l/cpu/cpu_compiler.h">
<polygon fill="#ffffff" stroke="#000000" points="93.665,-150.5 93.665,-188.5 203.5957,-188.5 203.5957,-150.5 93.665,-150.5"/>
<text text-anchor="start" x="101.665" y="-176.5" font-family="Helvetica,sans-Serif" font-size="10.00" fill="#000000">tensorflow/tensorflow</text>
<text text-anchor="start" x="101.665" y="-166.5" font-family="Helvetica,sans-Serif" font-size="10.00" fill="#000000">/compiler/xla/service</text>
<text text-anchor="middle" x="148.6304" y="-156.5" font-family="Helvetica,sans-Serif" font-size="10.00" fill="#000000">/cpu/cpu_compiler.h</text>
</a>
</g>
</g>
<!-- Node17&#45;&gt;Node18 -->
<g id="edge1" class="edge">
<title>Node17&#45;&gt;Node18</title>
<path fill="none" stroke="#191970" d="M148.6304,-214.8977C148.6304,-206.1033 148.6304,-196.7019 148.6304,-188.7489"/>
<polygon fill="#191970" stroke="#191970" points="145.1305,-215.1856 148.6304,-225.1856 152.1305,-215.1857 145.1305,-215.1856"/>
</g>
<!-- Node19 -->
<g id="node3" class="node">
<title>Node19</title>
<g id="a_node3"><a xlink:href="../../d6/d17/compile_8cc.html" target="_top" xlink:title="tensorflow/tensorflow\l/compiler/aot/compile.cc">
<polygon fill="#ffffff" stroke="#000000" points="0,-5.5 0,-33.5 123.2607,-33.5 123.2607,-5.5 0,-5.5"/>
<text text-anchor="start" x="8" y="-21.5" font-family="Helvetica,sans-Serif" font-size="10.00" fill="#000000">tensorflow/tensorflow</text>
<text text-anchor="middle" x="61.6304" y="-11.5" font-family="Helvetica,sans-Serif" font-size="10.00" fill="#000000">/compiler/aot/compile.cc</text>
</a>
</g>
</g>
<!-- Node18&#45;&gt;Node19 -->
<g id="edge2" class="edge">
<title>Node18&#45;&gt;Node19</title>
<path fill="none" stroke="#191970" d="M108.5976,-144.3606C98.0403,-135.921 87.6501,-125.6488 80.6304,-114 65.3421,-88.6302 62.1119,-53.1671 61.5741,-33.6956"/>
<polygon fill="#191970" stroke="#191970" points="106.5629,-147.2101 116.6503,-150.4497 110.7849,-141.6266 106.5629,-147.2101"/>
</g>
<!-- Node20 -->
<g id="node4" class="node">
<title>Node20</title>
<g id="a_node4"><a xlink:href="../../d4/d03/compile_8h.html" target="_top" xlink:title="tensorflow/tensorflow\l/compiler/aot/compile.h">
<polygon fill="#ffffff" stroke="#000000" points="89.2192,-80.5 89.2192,-108.5 208.0415,-108.5 208.0415,-80.5 89.2192,-80.5"/>
<text text-anchor="start" x="97.2192" y="-96.5" font-family="Helvetica,sans-Serif" font-size="10.00" fill="#000000">tensorflow/tensorflow</text>
<text text-anchor="middle" x="148.6304" y="-86.5" font-family="Helvetica,sans-Serif" font-size="10.00" fill="#000000">/compiler/aot/compile.h</text>
</a>
</g>
</g>
<!-- Node18&#45;&gt;Node20 -->
<g id="edge3" class="edge">
<title>Node18&#45;&gt;Node20</title>
<path fill="none" stroke="#191970" d="M148.6304,-140.1739C148.6304,-129.2897 148.6304,-117.4399 148.6304,-108.5382"/>
<polygon fill="#191970" stroke="#191970" points="145.1305,-140.1856 148.6304,-150.1856 152.1305,-140.1857 145.1305,-140.1856"/>
</g>
<!-- Node22 -->
<g id="node6" class="node">
<title>Node22</title>
<polygon fill="#ffffff" stroke="#bfbfbf" points="225.665,-75.5 225.665,-113.5 335.5957,-113.5 335.5957,-75.5 225.665,-75.5"/>
<text text-anchor="start" x="233.665" y="-101.5" font-family="Helvetica,sans-Serif" font-size="10.00" fill="#000000">tensorflow/tensorflow</text>
<text text-anchor="start" x="233.665" y="-91.5" font-family="Helvetica,sans-Serif" font-size="10.00" fill="#000000">/compiler/xla/service</text>
<text text-anchor="middle" x="280.6304" y="-81.5" font-family="Helvetica,sans-Serif" font-size="10.00" fill="#000000">/cpu/cpu_compiler.cc</text>
</g>
<!-- Node18&#45;&gt;Node22 -->
<g id="edge6" class="edge">
<title>Node18&#45;&gt;Node22</title>
<path fill="none" stroke="#191970" d="M191.434,-145.1797C209.4633,-134.9359 230.1385,-123.1886 247.0411,-113.5848"/>
<polygon fill="#191970" stroke="#191970" points="189.2466,-142.397 182.2811,-150.3803 192.7047,-148.4832 189.2466,-142.397"/>
</g>
<!-- Node20&#45;&gt;Node19 -->
<g id="edge4" class="edge">
<title>Node20&#45;&gt;Node19</title>
<path fill="none" stroke="#191970" d="M124.4697,-73.6718C109.6318,-60.8805 91.0244,-44.8397 77.921,-33.5437"/>
<polygon fill="#191970" stroke="#191970" points="122.4069,-76.5146 132.2663,-80.3931 126.9775,-71.2127 122.4069,-76.5146"/>
</g>
<!-- Node21 -->
<g id="node5" class="node">
<title>Node21</title>
<g id="a_node5"><a xlink:href="../../d4/d8d/tfcompile__main_8cc.html" target="_top" xlink:title="tensorflow/tensorflow\l/compiler/aot/tfcompile\l_main.cc">
<polygon fill="#ffffff" stroke="#000000" points="141.6108,-.5 141.6108,-38.5 257.6499,-38.5 257.6499,-.5 141.6108,-.5"/>
<text text-anchor="start" x="149.6108" y="-26.5" font-family="Helvetica,sans-Serif" font-size="10.00" fill="#000000">tensorflow/tensorflow</text>
<text text-anchor="start" x="149.6108" y="-16.5" font-family="Helvetica,sans-Serif" font-size="10.00" fill="#000000">/compiler/aot/tfcompile</text>
<text text-anchor="middle" x="199.6304" y="-6.5" font-family="Helvetica,sans-Serif" font-size="10.00" fill="#000000">_main.cc</text>
</a>
</g>
</g>
<!-- Node20&#45;&gt;Node21 -->
<g id="edge5" class="edge">
<title>Node20&#45;&gt;Node21</title>
<path fill="none" stroke="#191970" d="M163.9247,-72.0084C171.1563,-61.3737 179.6993,-48.8104 186.6155,-38.6395"/>
<polygon fill="#191970" stroke="#191970" points="160.952,-70.1557 158.2231,-80.3931 166.7405,-74.0919 160.952,-70.1557"/>
</g>
</g>
</svg>
