<?xml version="1.0" encoding="UTF-8" standalone="no"?>
<!DOCTYPE svg PUBLIC "-//W3C//DTD SVG 1.1//EN"
 "http://www.w3.org/Graphics/SVG/1.1/DTD/svg11.dtd">
<!-- Generated by graphviz version 2.40.1 (20161225.0304)
 -->
<!-- Title: xla::CompileOnlyService Pages: 1 -->
<svg width="728pt" height="296pt"
 viewBox="0.00 0.00 728.00 295.64" xmlns="http://www.w3.org/2000/svg" xmlns:xlink="http://www.w3.org/1999/xlink">
<g id="graph0" class="graph" transform="scale(1 1) rotate(0) translate(4 291.6418)">
<title>xla::CompileOnlyService</title>
<polygon fill="#ffffff" stroke="transparent" points="-4,4 -4,-291.6418 724,-291.6418 724,4 -4,4"/>
<!-- Node3 -->
<g id="node1" class="node">
<title>Node3</title>
<polygon fill="#bfbfbf" stroke="#000000" points="595,-110.1418 595,-129.1418 720,-129.1418 720,-110.1418 595,-110.1418"/>
<text text-anchor="middle" x="657.5" y="-117.1418" font-family="Helvetica,sans-Serif" font-size="10.00" fill="#000000">xla::CompileOnlyService</text>
</g>
<!-- Node4 -->
<g id="node2" class="node">
<title>Node4</title>
<g id="a_node2"><a xlink:href="../../d1/d10/classxla_1_1Service.html" target="_top" xlink:title="xla::Service">
<polygon fill="#ffffff" stroke="#000000" points="445,-135.1418 445,-154.1418 513,-154.1418 513,-135.1418 445,-135.1418"/>
<text text-anchor="middle" x="479" y="-142.1418" font-family="Helvetica,sans-Serif" font-size="10.00" fill="#000000">xla::Service</text>
</a>
</g>
</g>
<!-- Node4&#45;&gt;Node3 -->
<g id="edge1" class="edge">
<title>Node4&#45;&gt;Node3</title>
<path fill="none" stroke="#191970" d="M523.5568,-138.4013C545.0403,-135.3925 571.1807,-131.7313 594.646,-128.4449"/>
<polygon fill="#191970" stroke="#191970" points="522.8345,-134.9683 513.4166,-139.8215 523.8054,-141.9006 522.8345,-134.9683"/>
</g>
<!-- Node5 -->
<g id="node3" class="node">
<title>Node5</title>
<g id="a_node3"><a xlink:href="../../dc/d7f/classServiceInterface.html" target="_top" xlink:title="ServiceInterface">
<polygon fill="#ffffff" stroke="#000000" points="207,-268.1418 207,-287.1418 295,-287.1418 295,-268.1418 207,-268.1418"/>
<text text-anchor="middle" x="251" y="-275.1418" font-family="Helvetica,sans-Serif" font-size="10.00" fill="#000000">ServiceInterface</text>
</a>
</g>
</g>
<!-- Node5&#45;&gt;Node4 -->
<g id="edge2" class="edge">
<title>Node5&#45;&gt;Node4</title>
<path fill="none" stroke="#191970" d="M305.2985,-282.2127C342.8618,-282.5743 392.1612,-277.1794 427,-251.6418 460.3157,-227.2206 473.3139,-175.6499 477.4064,-154.2563"/>
<polygon fill="#191970" stroke="#191970" points="305.1167,-278.7076 295.0367,-281.9701 304.9512,-285.7056 305.1167,-278.7076"/>
</g>
<!-- Node6 -->
<g id="node4" class="node">
<title>Node6</title>
<polygon fill="#ffffff" stroke="#bfbfbf" points="202.5,-230.1418 202.5,-249.1418 299.5,-249.1418 299.5,-230.1418 202.5,-230.1418"/>
<text text-anchor="middle" x="251" y="-237.1418" font-family="Helvetica,sans-Serif" font-size="10.00" fill="#000000">CompilationCache</text>
</g>
<!-- Node6&#45;&gt;Node4 -->
<g id="edge3" class="edge">
<title>Node6&#45;&gt;Node4</title>
<path fill="none" stroke="#9a32cd" stroke-dasharray="5,2" d="M310.0074,-238.9843C345.967,-236.2334 391.6433,-228.3725 427,-207.6418 449.0215,-194.73 465.7833,-168.8292 473.7947,-154.5885"/>
<polygon fill="#9a32cd" stroke="#9a32cd" points="309.4136,-235.5154 299.6618,-239.6571 309.8678,-242.5007 309.4136,-235.5154"/>
<text text-anchor="middle" x="378.5" y="-239.6418" font-family="Helvetica,sans-Serif" font-size="10.00" fill="#000000"> compilation_cache_</text>
</g>
<!-- Node7 -->
<g id="node5" class="node">
<title>Node7</title>
<polygon fill="#ffffff" stroke="#bfbfbf" points="205,-192.1418 205,-211.1418 297,-211.1418 297,-192.1418 205,-192.1418"/>
<text text-anchor="middle" x="251" y="-199.1418" font-family="Helvetica,sans-Serif" font-size="10.00" fill="#000000">ExecutionTracker</text>
</g>
<!-- Node7&#45;&gt;Node4 -->
<g id="edge4" class="edge">
<title>Node7&#45;&gt;Node4</title>
<path fill="none" stroke="#9a32cd" stroke-dasharray="5,2" d="M307.2347,-196.551C342.3358,-192.2808 388.0864,-184.7048 427,-171.6418 439.9221,-167.3039 453.5637,-160.1096 463.6311,-154.2377"/>
<polygon fill="#9a32cd" stroke="#9a32cd" points="306.6972,-193.0898 297.1681,-197.721 307.5054,-200.043 306.6972,-193.0898"/>
<text text-anchor="middle" x="378.5" y="-195.6418" font-family="Helvetica,sans-Serif" font-size="10.00" fill="#000000"> execution_tracker_</text>
</g>
<!-- Node8 -->
<g id="node6" class="node">
<title>Node8</title>
<g id="a_node6"><a xlink:href="../../d5/d7a/classxla_1_1ServiceOptions.html" target="_top" xlink:title="xla::ServiceOptions">
<polygon fill="#ffffff" stroke="#000000" points="200,-154.1418 200,-173.1418 302,-173.1418 302,-154.1418 200,-154.1418"/>
<text text-anchor="middle" x="251" y="-161.1418" font-family="Helvetica,sans-Serif" font-size="10.00" fill="#000000">xla::ServiceOptions</text>
</a>
</g>
</g>
<!-- Node8&#45;&gt;Node4 -->
<g id="edge5" class="edge">
<title>Node8&#45;&gt;Node4</title>
<path fill="none" stroke="#9a32cd" stroke-dasharray="5,2" d="M312.1507,-158.5459C354.7427,-154.9966 409.9742,-150.3939 444.9623,-147.4783"/>
<polygon fill="#9a32cd" stroke="#9a32cd" points="311.8424,-155.0594 302.1677,-159.3778 312.4238,-162.0352 311.8424,-155.0594"/>
<text text-anchor="middle" x="378.5" y="-159.6418" font-family="Helvetica,sans-Serif" font-size="10.00" fill="#000000"> options_</text>
</g>
<!-- Node9 -->
<g id="node7" class="node">
<title>Node9</title>
<polygon fill="#ffffff" stroke="#bfbfbf" points="0,-182.1418 0,-201.1418 60,-201.1418 60,-182.1418 0,-182.1418"/>
<text text-anchor="middle" x="30" y="-189.1418" font-family="Helvetica,sans-Serif" font-size="10.00" fill="#000000">Platform *</text>
</g>
<!-- Node9&#45;&gt;Node8 -->
<g id="edge6" class="edge">
<title>Node9&#45;&gt;Node8</title>
<path fill="none" stroke="#9a32cd" stroke-dasharray="5,2" d="M70.5165,-186.5085C106.9354,-181.8943 160.59,-175.0965 199.9338,-170.1117"/>
<polygon fill="#9a32cd" stroke="#9a32cd" points="69.7465,-183.078 60.2657,-187.8072 70.6264,-190.0225 69.7465,-183.078"/>
<text text-anchor="middle" x="125" y="-187.6418" font-family="Helvetica,sans-Serif" font-size="10.00" fill="#000000"> platform_</text>
</g>
<!-- Node10 -->
<g id="node8" class="node">
<title>Node10</title>
<polygon fill="#ffffff" stroke="#bfbfbf" points="15.5,-126.1418 15.5,-145.1418 44.5,-145.1418 44.5,-126.1418 15.5,-126.1418"/>
<text text-anchor="middle" x="30" y="-133.1418" font-family="Helvetica,sans-Serif" font-size="10.00" fill="#000000">int</text>
</g>
<!-- Node10&#45;&gt;Node8 -->
<g id="edge7" class="edge">
<title>Node10&#45;&gt;Node8</title>
<path fill="none" stroke="#9a32cd" stroke-dasharray="5,2" d="M55.0391,-132.763C83.6751,-130.1711 131.7918,-127.961 172,-136.6418 180.5574,-138.4893 181.8069,-141.5571 190,-144.6418 198.9274,-148.003 208.7408,-151.2501 217.8374,-154.0805"/>
<polygon fill="#9a32cd" stroke="#9a32cd" points="54.3327,-129.316 44.7292,-133.7908 55.0271,-136.2815 54.3327,-129.316"/>
<text text-anchor="start" x="79.5" y="-161.6418" font-family="Helvetica,sans-Serif" font-size="10.00" fill="#000000"> intra_op_parallelism</text>
<text text-anchor="middle" x="125" y="-150.6418" font-family="Helvetica,sans-Serif" font-size="10.00" fill="#000000">_threads_</text>
<text text-anchor="middle" x="125" y="-139.6418" font-family="Helvetica,sans-Serif" font-size="10.00" fill="#000000">number_of_replicas_</text>
</g>
<!-- Node11 -->
<g id="node9" class="node">
<title>Node11</title>
<polygon fill="#ffffff" stroke="#bfbfbf" points="208.5,-116.1418 208.5,-135.1418 293.5,-135.1418 293.5,-116.1418 208.5,-116.1418"/>
<text text-anchor="middle" x="251" y="-123.1418" font-family="Helvetica,sans-Serif" font-size="10.00" fill="#000000">ChannelTracker</text>
</g>
<!-- Node11&#45;&gt;Node4 -->
<g id="edge8" class="edge">
<title>Node11&#45;&gt;Node4</title>
<path fill="none" stroke="#9a32cd" stroke-dasharray="5,2" d="M303.8601,-125.8013C338.9111,-126.4576 385.8536,-128.3903 427,-133.6418 432.7666,-134.3778 438.8442,-135.4177 444.7304,-136.5674"/>
<polygon fill="#9a32cd" stroke="#9a32cd" points="303.8991,-122.3016 293.8448,-125.6423 303.7879,-129.3007 303.8991,-122.3016"/>
<text text-anchor="middle" x="378.5" y="-136.6418" font-family="Helvetica,sans-Serif" font-size="10.00" fill="#000000"> channel_tracker_</text>
</g>
<!-- Node12 -->
<g id="node10" class="node">
<title>Node12</title>
<polygon fill="#ffffff" stroke="#bfbfbf" points="192,-78.1418 192,-97.1418 310,-97.1418 310,-78.1418 192,-78.1418"/>
<text text-anchor="middle" x="251" y="-85.1418" font-family="Helvetica,sans-Serif" font-size="10.00" fill="#000000">unique_ptr&lt; Backend &gt;</text>
</g>
<!-- Node12&#45;&gt;Node4 -->
<g id="edge9" class="edge">
<title>Node12&#45;&gt;Node4</title>
<path fill="none" stroke="#9a32cd" stroke-dasharray="5,2" d="M320.4086,-87.7939C353.8164,-90.0635 393.7385,-96.0926 427,-110.6418 436.5408,-114.8151 436.418,-119.7432 445,-125.6418 449.7924,-128.9357 455.202,-132.1608 460.2732,-134.9915"/>
<polygon fill="#9a32cd" stroke="#9a32cd" points="320.4505,-84.2905 310.2644,-87.2049 320.0447,-91.2787 320.4505,-84.2905"/>
<text text-anchor="middle" x="378.5" y="-113.6418" font-family="Helvetica,sans-Serif" font-size="10.00" fill="#000000"> execute_backend_</text>
</g>
<!-- Node13 -->
<g id="node11" class="node">
<title>Node13</title>
<polygon fill="#ffffff" stroke="#bfbfbf" points="205.5,-40.1418 205.5,-59.1418 296.5,-59.1418 296.5,-40.1418 205.5,-40.1418"/>
<text text-anchor="middle" x="251" y="-47.1418" font-family="Helvetica,sans-Serif" font-size="10.00" fill="#000000">AllocationTracker</text>
</g>
<!-- Node13&#45;&gt;Node4 -->
<g id="edge10" class="edge">
<title>Node13&#45;&gt;Node4</title>
<path fill="none" stroke="#9a32cd" stroke-dasharray="5,2" d="M306.9398,-43.4986C344.8225,-42.4281 393.8288,-47.47 427,-74.6418 445.5949,-89.8736 429.5104,-107.2611 445,-125.6418 448.1374,-129.3647 452.1994,-132.4964 456.4178,-135.075"/>
<polygon fill="#9a32cd" stroke="#9a32cd" points="306.4108,-40.0182 296.5723,-43.9493 306.7149,-47.0116 306.4108,-40.0182"/>
<text text-anchor="middle" x="378.5" y="-77.6418" font-family="Helvetica,sans-Serif" font-size="10.00" fill="#000000"> allocation_tracker_</text>
</g>
<!-- Node14 -->
<g id="node12" class="node">
<title>Node14</title>
<g id="a_node12"><a xlink:href="../../d8/d42/classxla_1_1ComputationTracker.html" target="_top" xlink:title="Tracks computations for the XLA service. Registered with a xla::UserComputation instance and can be r...">
<polygon fill="#ffffff" stroke="#000000" points="190,-2.1418 190,-21.1418 312,-21.1418 312,-2.1418 190,-2.1418"/>
<text text-anchor="middle" x="251" y="-9.1418" font-family="Helvetica,sans-Serif" font-size="10.00" fill="#000000">xla::ComputationTracker</text>
</a>
</g>
</g>
<!-- Node14&#45;&gt;Node4 -->
<g id="edge11" class="edge">
<title>Node14&#45;&gt;Node4</title>
<path fill="none" stroke="#9a32cd" stroke-dasharray="5,2" d="M311.0987,-1.1088C349.0103,1.9151 396.4189,-1.5113 427,-29.6418 458.949,-59.0306 419.6615,-90.394 445,-125.6418 447.6839,-129.3753 451.3409,-132.466 455.2647,-134.9919"/>
<polygon fill="#9a32cd" stroke="#9a32cd" points="310.2955,2.3299 300.6794,-2.1176 310.9701,-4.6375 310.2955,2.3299"/>
<text text-anchor="middle" x="378.5" y="-32.6418" font-family="Helvetica,sans-Serif" font-size="10.00" fill="#000000"> computation_tracker_</text>
</g>
<!-- Node15 -->
<g id="node13" class="node">
<title>Node15</title>
<polygon fill="#ffffff" stroke="#bfbfbf" points="8,-2.1418 8,-21.1418 52,-21.1418 52,-2.1418 8,-2.1418"/>
<text text-anchor="middle" x="30" y="-9.1418" font-family="Helvetica,sans-Serif" font-size="10.00" fill="#000000">mutex</text>
</g>
<!-- Node15&#45;&gt;Node14 -->
<g id="edge12" class="edge">
<title>Node15&#45;&gt;Node14</title>
<path fill="none" stroke="#9a32cd" stroke-dasharray="5,2" d="M62.52,-11.6418C95.8822,-11.6418 148.5853,-11.6418 189.7888,-11.6418"/>
<polygon fill="#9a32cd" stroke="#9a32cd" points="62.4069,-8.1419 52.4069,-11.6418 62.4068,-15.1419 62.4069,-8.1419"/>
<text text-anchor="middle" x="125" y="-14.6418" font-family="Helvetica,sans-Serif" font-size="10.00" fill="#000000"> computation_mutex_</text>
</g>
<!-- Node16 -->
<g id="node14" class="node">
<title>Node16</title>
<polygon fill="#ffffff" stroke="#bfbfbf" points="448,-97.1418 448,-116.1418 510,-116.1418 510,-97.1418 448,-97.1418"/>
<text text-anchor="middle" x="479" y="-104.1418" font-family="Helvetica,sans-Serif" font-size="10.00" fill="#000000">Compiler *</text>
</g>
<!-- Node16&#45;&gt;Node3 -->
<g id="edge13" class="edge">
<title>Node16&#45;&gt;Node3</title>
<path fill="none" stroke="#9a32cd" stroke-dasharray="5,2" d="M520.7354,-109.5944C538.1321,-110.8325 558.5446,-112.2949 577,-113.6418 582.7307,-114.06 588.6906,-114.4982 594.6593,-114.9392"/>
<polygon fill="#9a32cd" stroke="#9a32cd" points="520.5607,-106.0732 510.3377,-108.8555 520.0644,-113.0556 520.5607,-106.0732"/>
<text text-anchor="middle" x="554" y="-116.6418" font-family="Helvetica,sans-Serif" font-size="10.00" fill="#000000"> compiler_</text>
</g>
</g>
</svg>
