<?xml version="1.0" encoding="UTF-8" standalone="no"?>
<!DOCTYPE svg PUBLIC "-//W3C//DTD SVG 1.1//EN"
 "http://www.w3.org/Graphics/SVG/1.1/DTD/svg11.dtd">
<!-- Generated by graphviz version 2.40.1 (20161225.0304)
 -->
<!-- Title: xla::anonymous_namespace{user_computation::cc}::ComputationLowerer::Lower Pages: 1 -->
<!--zoomable 110 -->
<svg id="main" version="1.1" xmlns="http://www.w3.org/2000/svg" xmlns:xlink="http://www.w3.org/1999/xlink" xml:space="preserve" onload="init(evt)">
<style type="text/css"><![CDATA[
.edge:hover path { stroke: red; }
.edge:hover polygon { stroke: red; fill: red; }
]]></style>
<script type="text/javascript"><![CDATA[
var edges = document.getElementsByTagName('g');
if (edges && edges.length) {
  for (var i=0;i<edges.length;i++) {
    if (edges[i].id.substr(0,4)=='edge') {
      edges[i].setAttribute('class','edge');
    }
  }
}
]]></script>
        <defs>
                <circle id="rim" cx="0" cy="0" r="7"/>
                <circle id="rim2" cx="0" cy="0" r="3.5"/>
                <g id="zoomPlus">
                        <use xlink:href="#rim" fill="#404040">
                                <set attributeName="fill" to="#808080" begin="zoomplus.mouseover" end="zoomplus.mouseout"/>
                        </use>
                        <path d="M-4,0h8M0,-4v8" fill="none" stroke="white" stroke-width="1.5" pointer-events="none"/>
                </g>
                <g id="zoomMin">
                        <use xlink:href="#rim" fill="#404040">
                                <set attributeName="fill" to="#808080" begin="zoomminus.mouseover" end="zoomminus.mouseout"/>
                        </use>
                        <path d="M-4,0h8" fill="none" stroke="white" stroke-width="1.5" pointer-events="none"/>
                </g>
                <g id="dirArrow">
                        <path fill="none" stroke="white" stroke-width="1.5" d="M0,-3.0v7 M-2.5,-0.5L0,-3.0L2.5,-0.5"/>
                </g>
               <g id="resetDef">
                       <use xlink:href="#rim2" fill="#404040">
                               <set attributeName="fill" to="#808080" begin="reset.mouseover" end="reset.mouseout"/>
                       </use>
               </g>
        </defs>

<script type="text/javascript">
var viewWidth = 507;
var viewHeight = 110;
var sectionId = 'dynsection-3';
</script>
<script xlink:href="../../svgpan.js"/>
<svg id="graph" class="graph">
<g id="viewport">
<title>xla::anonymous_namespace{user_computation::cc}::ComputationLowerer::Lower</title>
<polygon fill="#ffffff" stroke="transparent" points="-4,4 -4,-106 503,-106 503,4 -4,4"/>
<!-- Node6 -->
<g id="node1" class="node">
<title>Node6</title>
<polygon fill="#bfbfbf" stroke="#000000" points="0,-35.5 0,-76.5 145,-76.5 145,-35.5 0,-35.5"/>
<text text-anchor="start" x="8" y="-64.5" font-family="Helvetica,sans-Serif" font-size="10.00" fill="#000000">xla::anonymous_namespace</text>
<text text-anchor="start" x="8" y="-53.5" font-family="Helvetica,sans-Serif" font-size="10.00" fill="#000000">{user_computation::cc}</text>
<text text-anchor="middle" x="72.5" y="-42.5" font-family="Helvetica,sans-Serif" font-size="10.00" fill="#000000">::ComputationLowerer::Lower</text>
</g>
<!-- Node7 -->
<g id="node2" class="node">
<title>Node7</title>
<g id="a_node2"><a xlink:href="../../dc/d9d/namespacexla_1_1anonymous__namespace_02user__computation_8cc_03.html#a5ee0643c24e2ef217ab180c717d5de36" target="_top" xlink:title="xla::anonymous_namespace\l\{user_computation::cc\}\l::GetRoot">
<polygon fill="#ffffff" stroke="#000000" points="181,-11.5 181,-52.5 322,-52.5 322,-11.5 181,-11.5"/>
<text text-anchor="start" x="189" y="-40.5" font-family="Helvetica,sans-Serif" font-size="10.00" fill="#000000">xla::anonymous_namespace</text>
<text text-anchor="start" x="189" y="-29.5" font-family="Helvetica,sans-Serif" font-size="10.00" fill="#000000">{user_computation::cc}</text>
<text text-anchor="middle" x="251.5" y="-18.5" font-family="Helvetica,sans-Serif" font-size="10.00" fill="#000000">::GetRoot</text>
</a>
</g>
</g>
<!-- Node6&#45;&gt;Node7 -->
<g id="edge1" class="edge">
<title>Node6&#45;&gt;Node7</title>
<path fill="none" stroke="#191970" d="M145.0481,-46.2729C153.546,-45.1335 162.2555,-43.9657 170.8549,-42.8128"/>
<polygon fill="#191970" stroke="#191970" points="171.4338,-46.2665 180.8799,-41.4686 170.5035,-39.3286 171.4338,-46.2665"/>
</g>
<!-- Node8 -->
<g id="node3" class="node">
<title>Node8</title>
<g id="a_node3"><a xlink:href="../../dc/d9d/namespacexla_1_1anonymous__namespace_02user__computation_8cc_03.html#a48377f566f973539c09065de3f43058e" target="_top" xlink:title="xla::anonymous_namespace\l\{user_computation::cc\}\l::LookUpRequest">
<polygon fill="#ffffff" stroke="#000000" points="358,-60.5 358,-101.5 499,-101.5 499,-60.5 358,-60.5"/>
<text text-anchor="start" x="366" y="-89.5" font-family="Helvetica,sans-Serif" font-size="10.00" fill="#000000">xla::anonymous_namespace</text>
<text text-anchor="start" x="366" y="-78.5" font-family="Helvetica,sans-Serif" font-size="10.00" fill="#000000">{user_computation::cc}</text>
<text text-anchor="middle" x="428.5" y="-67.5" font-family="Helvetica,sans-Serif" font-size="10.00" fill="#000000">::LookUpRequest</text>
</a>
</g>
</g>
<!-- Node6&#45;&gt;Node8 -->
<g id="edge4" class="edge">
<title>Node6&#45;&gt;Node8</title>
<path fill="none" stroke="#191970" d="M145.401,-61.1195C204.148,-65.2449 286.6909,-71.0415 347.4952,-75.3115"/>
<polygon fill="#191970" stroke="#191970" points="347.6003,-78.8274 357.8209,-76.0366 348.0907,-71.8446 347.6003,-78.8274"/>
</g>
<!-- Node7&#45;&gt;Node8 -->
<g id="edge2" class="edge">
<title>Node7&#45;&gt;Node8</title>
<path fill="none" stroke="#191970" d="M322.2182,-51.5773C330.7535,-53.9402 339.5191,-56.3669 348.1792,-58.7643"/>
<polygon fill="#191970" stroke="#191970" points="347.3228,-62.1588 357.8942,-61.4538 349.1905,-55.4125 347.3228,-62.1588"/>
</g>
<!-- Node9 -->
<g id="node4" class="node">
<title>Node9</title>
<g id="a_node4"><a xlink:href="../../dc/d9d/namespacexla_1_1anonymous__namespace_02user__computation_8cc_03.html#a47ec5fc250056c19fc49c663922f592e" target="_top" xlink:title="xla::anonymous_namespace\l\{user_computation::cc\}\l::CanBeRoot">
<polygon fill="#ffffff" stroke="#000000" points="358,-.5 358,-41.5 499,-41.5 499,-.5 358,-.5"/>
<text text-anchor="start" x="366" y="-29.5" font-family="Helvetica,sans-Serif" font-size="10.00" fill="#000000">xla::anonymous_namespace</text>
<text text-anchor="start" x="366" y="-18.5" font-family="Helvetica,sans-Serif" font-size="10.00" fill="#000000">{user_computation::cc}</text>
<text text-anchor="middle" x="428.5" y="-7.5" font-family="Helvetica,sans-Serif" font-size="10.00" fill="#000000">::CanBeRoot</text>
</a>
</g>
</g>
<!-- Node7&#45;&gt;Node9 -->
<g id="edge3" class="edge">
<title>Node7&#45;&gt;Node9</title>
<path fill="none" stroke="#191970" d="M322.2182,-27.6051C330.6618,-27.0803 339.3306,-26.5416 347.8998,-26.009"/>
<polygon fill="#191970" stroke="#191970" points="348.1306,-29.5016 357.8942,-25.3879 347.6963,-22.515 348.1306,-29.5016"/>
</g>
</g>
</svg>
        <g id="navigator" transform="translate(0 0)" fill="#404254">
                <rect fill="#f2f5e9" fill-opacity="0.5" stroke="#606060" stroke-width=".5" x="0" y="0" width="60" height="60"/>
                <use id="zoomplus" xlink:href="#zoomPlus" x="17" y="9" onmousedown="handleZoom(evt,'in')"/>
                <use id="zoomminus" xlink:href="#zoomMin" x="42" y="9" onmousedown="handleZoom(evt,'out')"/>
                <use id="reset" xlink:href="#resetDef" x="30" y="36" onmousedown="handleReset()"/>
                <g id="arrowUp" xlink:href="#dirArrow" transform="translate(30 24)" onmousedown="handlePan(0,-1)">
                  <use xlink:href="#rim" fill="#404040">
                        <set attributeName="fill" to="#808080" begin="arrowUp.mouseover" end="arrowUp.mouseout"/>
                  </use>
                  <path fill="none" stroke="white" stroke-width="1.5" d="M0,-3.0v7 M-2.5,-0.5L0,-3.0L2.5,-0.5"/>
                </g>
                <g id="arrowRight" xlink:href="#dirArrow" transform="rotate(90) translate(36 -43)" onmousedown="handlePan(1,0)">
                  <use xlink:href="#rim" fill="#404040">
                        <set attributeName="fill" to="#808080" begin="arrowRight.mouseover" end="arrowRight.mouseout"/>
                  </use>
                  <path fill="none" stroke="white" stroke-width="1.5" d="M0,-3.0v7 M-2.5,-0.5L0,-3.0L2.5,-0.5"/>
                </g>
                <g id="arrowDown" xlink:href="#dirArrow" transform="rotate(180) translate(-30 -48)" onmousedown="handlePan(0,1)">
                  <use xlink:href="#rim" fill="#404040">
                        <set attributeName="fill" to="#808080" begin="arrowDown.mouseover" end="arrowDown.mouseout"/>
                  </use>
                  <path fill="none" stroke="white" stroke-width="1.5" d="M0,-3.0v7 M-2.5,-0.5L0,-3.0L2.5,-0.5"/>
                </g>
                <g id="arrowLeft" xlink:href="#dirArrow" transform="rotate(270) translate(-36 17)" onmousedown="handlePan(-1,0)">
                  <use xlink:href="#rim" fill="#404040">
                        <set attributeName="fill" to="#808080" begin="arrowLeft.mouseover" end="arrowLeft.mouseout"/>
                  </use>
                  <path fill="none" stroke="white" stroke-width="1.5" d="M0,-3.0v7 M-2.5,-0.5L0,-3.0L2.5,-0.5"/>
                </g>
        </g>
        <svg viewBox="0 0 15 15" width="100%" height="30px" preserveAspectRatio="xMaxYMin meet">
         <g id="arrow_out" transform="scale(0.3 0.3)">
          <a xlink:href="classxla_1_1anonymous__namespace_02user__computation_8cc_03_1_1ComputationLowerer_af443b4eed16c921348adb096713d6e85_cgraph_org.svg" target="_base">
           <rect id="button" ry="5" rx="5" y="6" x="6" height="38" width="38"
                fill="#f2f5e9" fill-opacity="0.5" stroke="#606060" stroke-width="1.0"/>
           <path id="arrow"
             d="M 11.500037,31.436501 C 11.940474,20.09759 22.043105,11.32322 32.158766,21.979434 L 37.068811,17.246167 C 37.068811,17.246167 37.088388,32 37.088388,32 L 22.160133,31.978069 C 22.160133,31.978069 26.997745,27.140456 26.997745,27.140456 C 18.528582,18.264221 13.291696,25.230495 11.500037,31.436501 z"
             style="fill:#404040;"/>
          </a>
         </g>
        </svg>
</svg>
