<?xml version="1.0" encoding="UTF-8" standalone="no"?>
<!DOCTYPE svg PUBLIC "-//W3C//DTD SVG 1.1//EN"
 "http://www.w3.org/Graphics/SVG/1.1/DTD/svg11.dtd">
<!-- Generated by graphviz version 2.40.1 (20161225.0304)
 -->
<!-- Title: xla::ServiceOptions::platform Pages: 1 -->
<svg width="438pt" height="127pt"
 viewBox="0.00 0.00 438.00 126.50" xmlns="http://www.w3.org/2000/svg" xmlns:xlink="http://www.w3.org/1999/xlink">
<g id="graph0" class="graph" transform="scale(1 1) rotate(0) translate(4 122.5)">
<title>xla::ServiceOptions::platform</title>
<polygon fill="#ffffff" stroke="transparent" points="-4,4 -4,-122.5 434,-122.5 434,4 -4,4"/>
<!-- Node26 -->
<g id="node1" class="node">
<title>Node26</title>
<polygon fill="#bfbfbf" stroke="#000000" points="0,-39 0,-69 102,-69 102,-39 0,-39"/>
<text text-anchor="start" x="8" y="-57" font-family="Helvetica,sans-Serif" font-size="10.00" fill="#000000">xla::ServiceOptions</text>
<text text-anchor="middle" x="51" y="-46" font-family="Helvetica,sans-Serif" font-size="10.00" fill="#000000">::platform</text>
</g>
<!-- Node27 -->
<g id="node2" class="node">
<title>Node27</title>
<g id="a_node2"><a xlink:href="../../dc/d07/classxla_1_1CompileOnlyService.html#a99de5fe3f0dadada637309e65f53ce13" target="_top" xlink:title="xla::CompileOnlyService\l::NewService">
<polygon fill="#ffffff" stroke="#000000" points="139.5,-88 139.5,-118 264.5,-118 264.5,-88 139.5,-88"/>
<text text-anchor="start" x="147.5" y="-106" font-family="Helvetica,sans-Serif" font-size="10.00" fill="#000000">xla::CompileOnlyService</text>
<text text-anchor="middle" x="202" y="-95" font-family="Helvetica,sans-Serif" font-size="10.00" fill="#000000">::NewService</text>
</a>
</g>
</g>
<!-- Node26&#45;&gt;Node27 -->
<g id="edge1" class="edge">
<title>Node26&#45;&gt;Node27</title>
<path fill="none" stroke="#191970" d="M107.2678,-72.2591C123.1942,-77.4273 140.344,-82.9924 155.6166,-87.9484"/>
<polygon fill="#191970" stroke="#191970" points="108.1292,-68.859 97.5371,-69.1014 105.9685,-75.5172 108.1292,-68.859"/>
</g>
<!-- Node28 -->
<g id="node3" class="node">
<title>Node28</title>
<g id="a_node3"><a xlink:href="../../d5/d7a/classxla_1_1ServiceOptions.html#a5bd8b3cc7434c561574a3289c119766f" target="_top" xlink:title="xla::ServiceOptions\l::set_platform">
<polygon fill="#ffffff" stroke="#000000" points="151,-39 151,-69 253,-69 253,-39 151,-39"/>
<text text-anchor="start" x="159" y="-57" font-family="Helvetica,sans-Serif" font-size="10.00" fill="#000000">xla::ServiceOptions</text>
<text text-anchor="middle" x="202" y="-46" font-family="Helvetica,sans-Serif" font-size="10.00" fill="#000000">::set_platform</text>
</a>
</g>
</g>
<!-- Node26&#45;&gt;Node28 -->
<g id="edge2" class="edge">
<title>Node26&#45;&gt;Node28</title>
<path fill="none" stroke="#191970" d="M112.2657,-54C125.1038,-54 138.5116,-54 150.9309,-54"/>
<polygon fill="#191970" stroke="#191970" points="112.1217,-50.5001 102.1217,-54 112.1217,-57.5001 112.1217,-50.5001"/>
</g>
<!-- Node31 -->
<g id="node6" class="node">
<title>Node31</title>
<g id="a_node6"><a xlink:href="../../d1/d10/classxla_1_1Service.html#ac14630a8a501420490bd22ff7b617a89" target="_top" xlink:title="xla::Service::NewService">
<polygon fill="#ffffff" stroke="#000000" points="138,-.5 138,-19.5 266,-19.5 266,-.5 138,-.5"/>
<text text-anchor="middle" x="202" y="-7.5" font-family="Helvetica,sans-Serif" font-size="10.00" fill="#000000">xla::Service::NewService</text>
</a>
</g>
</g>
<!-- Node26&#45;&gt;Node31 -->
<g id="edge5" class="edge">
<title>Node26&#45;&gt;Node31</title>
<path fill="none" stroke="#191970" d="M111.8618,-36.2654C131.3595,-30.584 152.2117,-24.5079 168.9441,-19.6322"/>
<polygon fill="#191970" stroke="#191970" points="110.7433,-32.9457 102.1217,-39.1036 112.7016,-39.6662 110.7433,-32.9457"/>
</g>
<!-- Node29 -->
<g id="node4" class="node">
<title>Node29</title>
<g id="a_node4"><a xlink:href="../../dc/d07/classxla_1_1CompileOnlyService.html#a050a7989ecb1ded6e7c06ca1ab6e606a" target="_top" xlink:title="xla::CompileOnlyService\l::NewService">
<polygon fill="#ffffff" stroke="#000000" points="303.5,-61 303.5,-91 428.5,-91 428.5,-61 303.5,-61"/>
<text text-anchor="start" x="311.5" y="-79" font-family="Helvetica,sans-Serif" font-size="10.00" fill="#000000">xla::CompileOnlyService</text>
<text text-anchor="middle" x="366" y="-68" font-family="Helvetica,sans-Serif" font-size="10.00" fill="#000000">::NewService</text>
</a>
</g>
</g>
<!-- Node28&#45;&gt;Node29 -->
<g id="edge3" class="edge">
<title>Node28&#45;&gt;Node29</title>
<path fill="none" stroke="#191970" d="M263.6358,-62.2682C276.5747,-64.0039 290.2358,-65.8365 303.2161,-67.5778"/>
<polygon fill="#191970" stroke="#191970" points="263.8173,-58.7613 253.4407,-60.9006 262.8865,-65.6991 263.8173,-58.7613"/>
</g>
<!-- Node30 -->
<g id="node5" class="node">
<title>Node30</title>
<g id="a_node5"><a xlink:href="../../d1/d10/classxla_1_1Service.html#a0a72bc3ecee2e80b42f6b70693b0cf21" target="_top" xlink:title="xla::Service::NewService">
<polygon fill="#ffffff" stroke="#000000" points="302,-22.5 302,-41.5 430,-41.5 430,-22.5 302,-22.5"/>
<text text-anchor="middle" x="366" y="-29.5" font-family="Helvetica,sans-Serif" font-size="10.00" fill="#000000">xla::Service::NewService</text>
</a>
</g>
</g>
<!-- Node28&#45;&gt;Node30 -->
<g id="edge4" class="edge">
<title>Node28&#45;&gt;Node30</title>
<path fill="none" stroke="#191970" d="M263.6998,-45.7232C276.1317,-44.0555 289.2278,-42.2987 301.7445,-40.6196"/>
<polygon fill="#191970" stroke="#191970" points="262.8865,-42.3009 253.4407,-47.0994 263.8173,-49.2387 262.8865,-42.3009"/>
</g>
</g>
</svg>
