<?xml version="1.0" encoding="UTF-8" standalone="no"?>
<!DOCTYPE svg PUBLIC "-//W3C//DTD SVG 1.1//EN"
 "http://www.w3.org/Graphics/SVG/1.1/DTD/svg11.dtd">
<!-- Generated by graphviz version 2.40.1 (20161225.0304)
 -->
<!-- Title: tensorflow/tensorflow/compiler/xla/service/hlo_constant_folding.h Pages: 1 -->
<svg width="3437pt" height="362pt"
 viewBox="0.00 0.00 3437.00 362.00" xmlns="http://www.w3.org/2000/svg" xmlns:xlink="http://www.w3.org/1999/xlink">
<g id="graph0" class="graph" transform="scale(1 1) rotate(0) translate(4 358)">
<title>tensorflow/tensorflow/compiler/xla/service/hlo_constant_folding.h</title>
<polygon fill="#ffffff" stroke="transparent" points="-4,4 -4,-358 3433,-358 3433,4 -4,4"/>
<!-- Node0 -->
<g id="node1" class="node">
<title>Node0</title>
<polygon fill="#bfbfbf" stroke="#000000" points="1244.5,-312.5 1244.5,-353.5 1374.5,-353.5 1374.5,-312.5 1244.5,-312.5"/>
<text text-anchor="start" x="1252.5" y="-341.5" font-family="Helvetica,sans-Serif" font-size="10.00" fill="#000000">tensorflow/tensorflow</text>
<text text-anchor="start" x="1252.5" y="-330.5" font-family="Helvetica,sans-Serif" font-size="10.00" fill="#000000">/compiler/xla/service</text>
<text text-anchor="middle" x="1309.5" y="-319.5" font-family="Helvetica,sans-Serif" font-size="10.00" fill="#000000">/hlo_constant_folding.h</text>
</g>
<!-- Node1 -->
<g id="node2" class="node">
<title>Node1</title>
<g id="a_node2"><a xlink:href="../../db/da0/hlo__module_8h.html" target="_top" xlink:title="tensorflow/compiler\l/xla/service/hlo_module.h">
<polygon fill="#ffffff" stroke="#000000" points="1164.5,-240 1164.5,-270 1306.5,-270 1306.5,-240 1164.5,-240"/>
<text text-anchor="start" x="1172.5" y="-258" font-family="Helvetica,sans-Serif" font-size="10.00" fill="#000000">tensorflow/compiler</text>
<text text-anchor="middle" x="1235.5" y="-247" font-family="Helvetica,sans-Serif" font-size="10.00" fill="#000000">/xla/service/hlo_module.h</text>
</a>
</g>
</g>
<!-- Node0&#45;&gt;Node1 -->
<g id="edge1" class="edge">
<title>Node0&#45;&gt;Node1</title>
<path fill="none" stroke="#191970" d="M1289.6694,-312.0974C1279.6099,-301.4942 1267.3748,-288.5978 1257.0797,-277.7461"/>
<polygon fill="#191970" stroke="#191970" points="1259.4067,-275.1136 1249.9849,-270.2679 1254.3284,-279.9314 1259.4067,-275.1136"/>
</g>
<!-- Node45 -->
<g id="node46" class="node">
<title>Node45</title>
<polygon fill="#ffffff" stroke="#bfbfbf" points="1325,-234.5 1325,-275.5 1444,-275.5 1444,-234.5 1325,-234.5"/>
<text text-anchor="start" x="1333" y="-263.5" font-family="Helvetica,sans-Serif" font-size="10.00" fill="#000000">tensorflow/compiler</text>
<text text-anchor="start" x="1333" y="-252.5" font-family="Helvetica,sans-Serif" font-size="10.00" fill="#000000">/xla/service/hlo_pass</text>
<text text-anchor="middle" x="1384.5" y="-241.5" font-family="Helvetica,sans-Serif" font-size="10.00" fill="#000000">_interface.h</text>
</g>
<!-- Node0&#45;&gt;Node45 -->
<g id="edge78" class="edge">
<title>Node0&#45;&gt;Node45</title>
<path fill="none" stroke="#191970" d="M1329.5986,-312.0974C1338.1581,-303.1956 1348.2717,-292.6775 1357.4712,-283.1099"/>
<polygon fill="#191970" stroke="#191970" points="1360.1978,-285.324 1364.606,-275.6898 1355.1519,-280.4723 1360.1978,-285.324"/>
</g>
<!-- Node2 -->
<g id="node3" class="node">
<title>Node2</title>
<polygon fill="#ffffff" stroke="#bfbfbf" points="480.5,-167.5 480.5,-186.5 530.5,-186.5 530.5,-167.5 480.5,-167.5"/>
<text text-anchor="middle" x="505.5" y="-174.5" font-family="Helvetica,sans-Serif" font-size="10.00" fill="#000000">atomic</text>
</g>
<!-- Node1&#45;&gt;Node2 -->
<g id="edge2" class="edge">
<title>Node1&#45;&gt;Node2</title>
<path fill="none" stroke="#191970" d="M1164.4899,-252.8228C1012.2942,-247.5593 659.1896,-231.9904 544.5,-198 539.2882,-196.4554 533.9811,-194.1627 529.0286,-191.6527"/>
<polygon fill="#191970" stroke="#191970" points="530.5061,-188.4704 520.0605,-186.698 527.1209,-194.5975 530.5061,-188.4704"/>
</g>
<!-- Node3 -->
<g id="node4" class="node">
<title>Node3</title>
<polygon fill="#ffffff" stroke="#bfbfbf" points="612.5,-11.5 612.5,-30.5 644.5,-30.5 644.5,-11.5 612.5,-11.5"/>
<text text-anchor="middle" x="628.5" y="-18.5" font-family="Helvetica,sans-Serif" font-size="10.00" fill="#000000">list</text>
</g>
<!-- Node1&#45;&gt;Node3 -->
<g id="edge3" class="edge">
<title>Node1&#45;&gt;Node3</title>
<path fill="none" stroke="#191970" d="M1172.5025,-239.9035C1135.1243,-229.9933 1087.2378,-215.6137 1046.5,-198 1022.0096,-187.4111 863.4923,-87.3426 838.5,-78 760.0384,-48.6695 729.0914,-78.0893 653.5,-42 650.8145,-40.7179 648.179,-39.0784 645.686,-37.2821"/>
<polygon fill="#191970" stroke="#191970" points="647.837,-34.5194 637.8934,-30.8622 643.386,-39.9221 647.837,-34.5194"/>
</g>
<!-- Node4 -->
<g id="node5" class="node">
<title>Node4</title>
<polygon fill="#ffffff" stroke="#bfbfbf" points="662.5,-11.5 662.5,-30.5 720.5,-30.5 720.5,-11.5 662.5,-11.5"/>
<text text-anchor="middle" x="691.5" y="-18.5" font-family="Helvetica,sans-Serif" font-size="10.00" fill="#000000">memory</text>
</g>
<!-- Node1&#45;&gt;Node4 -->
<g id="edge4" class="edge">
<title>Node1&#45;&gt;Node4</title>
<path fill="none" stroke="#191970" d="M1202.5749,-239.9997C1178.6998,-228.9046 1145.775,-213.1519 1117.5,-198 1094.4053,-185.6241 938.994,-87.3045 914.5,-78 836.1949,-48.2543 808.2283,-70.6067 729.5,-42 724.7047,-40.2576 719.7887,-37.9685 715.1509,-35.5436"/>
<polygon fill="#191970" stroke="#191970" points="716.5859,-32.3359 706.1501,-30.5071 713.1677,-38.4446 716.5859,-32.3359"/>
</g>
<!-- Node5 -->
<g id="node6" class="node">
<title>Node5</title>
<polygon fill="#ffffff" stroke="#bfbfbf" points="2679.5,-167.5 2679.5,-186.5 2733.5,-186.5 2733.5,-167.5 2679.5,-167.5"/>
<text text-anchor="middle" x="2706.5" y="-174.5" font-family="Helvetica,sans-Serif" font-size="10.00" fill="#000000">random</text>
</g>
<!-- Node1&#45;&gt;Node5 -->
<g id="edge5" class="edge">
<title>Node1&#45;&gt;Node5</title>
<path fill="none" stroke="#191970" d="M1285.4962,-239.994C1295.3583,-237.5696 1305.6913,-235.3991 1315.5,-234 1612.5994,-191.6217 2374.7235,-272.25 2665.5,-198 2671.2147,-196.5407 2677.0395,-194.1794 2682.4367,-191.5568"/>
<polygon fill="#191970" stroke="#191970" points="2684.3913,-194.4814 2691.5736,-186.6926 2681.1018,-188.3025 2684.3913,-194.4814"/>
</g>
<!-- Node6 -->
<g id="node7" class="node">
<title>Node6</title>
<polygon fill="#ffffff" stroke="#bfbfbf" points="738.5,-11.5 738.5,-30.5 782.5,-30.5 782.5,-11.5 738.5,-11.5"/>
<text text-anchor="middle" x="760.5" y="-18.5" font-family="Helvetica,sans-Serif" font-size="10.00" fill="#000000">string</text>
</g>
<!-- Node1&#45;&gt;Node6 -->
<g id="edge6" class="edge">
<title>Node1&#45;&gt;Node6</title>
<path fill="none" stroke="#191970" d="M1220.1445,-239.9783C1183.713,-205.2857 1087.7928,-119.3989 990.5,-78 907.7958,-42.8086 874.7266,-75.9376 791.5,-42 787.8545,-40.5135 784.1989,-38.555 780.742,-36.4311"/>
<polygon fill="#191970" stroke="#191970" points="782.4387,-33.3527 772.1989,-30.633 778.5077,-39.1447 782.4387,-33.3527"/>
</g>
<!-- Node7 -->
<g id="node8" class="node">
<title>Node7</title>
<polygon fill="#ffffff" stroke="#bfbfbf" points="0,-11.5 0,-30.5 93,-30.5 93,-11.5 0,-11.5"/>
<text text-anchor="middle" x="46.5" y="-18.5" font-family="Helvetica,sans-Serif" font-size="10.00" fill="#000000">unordered_map</text>
</g>
<!-- Node1&#45;&gt;Node7 -->
<g id="edge7" class="edge">
<title>Node1&#45;&gt;Node7</title>
<path fill="none" stroke="#191970" d="M1164.3292,-250.3498C1030.9295,-241.2521 748.1283,-220.054 652.5,-198 600.2914,-185.9595 590.6023,-172.1018 539.5,-156 347.6461,-95.549 293.0837,-103.3019 101.5,-42 94.2719,-39.6872 86.61,-36.9494 79.3738,-34.2278"/>
<polygon fill="#191970" stroke="#191970" points="80.4411,-30.8884 69.8511,-30.5678 77.9298,-37.4224 80.4411,-30.8884"/>
</g>
<!-- Node8 -->
<g id="node9" class="node">
<title>Node8</title>
<polygon fill="#ffffff" stroke="#bfbfbf" points="111,-11.5 111,-30.5 158,-30.5 158,-11.5 111,-11.5"/>
<text text-anchor="middle" x="134.5" y="-18.5" font-family="Helvetica,sans-Serif" font-size="10.00" fill="#000000">vector</text>
</g>
<!-- Node1&#45;&gt;Node8 -->
<g id="edge8" class="edge">
<title>Node1&#45;&gt;Node8</title>
<path fill="none" stroke="#191970" d="M1164.3196,-250.4754C1046.9241,-242.3977 818.073,-223.8831 741.5,-198 677.3067,-176.3015 662.9242,-162.9338 610.5,-120 591.0247,-104.0503 595.0351,-89.2183 572.5,-78 410.3308,2.7302 337.6062,-101.4885 166.5,-42 162.5183,-40.6157 158.545,-38.6279 154.8204,-36.4208"/>
<polygon fill="#191970" stroke="#191970" points="156.4772,-33.3195 146.211,-30.7011 152.6036,-39.1501 156.4772,-33.3195"/>
</g>
<!-- Node9 -->
<g id="node10" class="node">
<title>Node9</title>
<polygon fill="#ffffff" stroke="#bfbfbf" points="176,-6 176,-36 289,-36 289,-6 176,-6"/>
<text text-anchor="start" x="184" y="-24" font-family="Helvetica,sans-Serif" font-size="10.00" fill="#000000">tensorflow/compiler</text>
<text text-anchor="middle" x="232.5" y="-13" font-family="Helvetica,sans-Serif" font-size="10.00" fill="#000000">/xla/iterator_util.h</text>
</g>
<!-- Node1&#45;&gt;Node9 -->
<g id="edge9" class="edge">
<title>Node1&#45;&gt;Node9</title>
<path fill="none" stroke="#191970" d="M1164.1883,-248.6473C1062.1818,-238.9872 880.0239,-219.4472 817.5,-198 792.353,-189.374 635.7362,-86.3613 610.5,-78 477.5776,-33.9598 434.3489,-71.6697 297.5,-42 293.3277,-41.0954 289.0434,-40.03 284.7612,-38.8668"/>
<polygon fill="#191970" stroke="#191970" points="285.4049,-35.4099 274.8268,-36.005 283.4672,-42.1364 285.4049,-35.4099"/>
</g>
<!-- Node10 -->
<g id="node11" class="node">
<title>Node10</title>
<polygon fill="#ffffff" stroke="#bfbfbf" points="307,-6 307,-36 422,-36 422,-6 307,-6"/>
<text text-anchor="start" x="315" y="-24" font-family="Helvetica,sans-Serif" font-size="10.00" fill="#000000">tensorflow/compiler</text>
<text text-anchor="middle" x="364.5" y="-13" font-family="Helvetica,sans-Serif" font-size="10.00" fill="#000000">/xla/service/hlo.pb.h</text>
</g>
<!-- Node1&#45;&gt;Node10 -->
<g id="edge10" class="edge">
<title>Node1&#45;&gt;Node10</title>
<path fill="none" stroke="#191970" d="M1164.1965,-250.6024C1093.6781,-244.5349 983.5605,-230.3915 893.5,-198 868.4836,-189.0025 711.6265,-86.6854 686.5,-78 578.3232,-40.607 543.1485,-67.2004 431.5,-42 427.3531,-41.064 423.0926,-39.9933 418.8265,-38.8419"/>
<polygon fill="#191970" stroke="#191970" points="419.488,-35.3917 408.9126,-36.0345 417.5807,-42.1268 419.488,-35.3917"/>
</g>
<!-- Node11 -->
<g id="node12" class="node">
<title>Node11</title>
<g id="a_node12"><a xlink:href="../../d2/d31/hlo__computation_8h.html" target="_top" xlink:title="tensorflow/compiler\l/xla/service/hlo_computation.h">
<polygon fill="#ffffff" stroke="#000000" points="1496,-162 1496,-192 1663,-192 1663,-162 1496,-162"/>
<text text-anchor="start" x="1504" y="-180" font-family="Helvetica,sans-Serif" font-size="10.00" fill="#000000">tensorflow/compiler</text>
<text text-anchor="middle" x="1579.5" y="-169" font-family="Helvetica,sans-Serif" font-size="10.00" fill="#000000">/xla/service/hlo_computation.h</text>
</a>
</g>
</g>
<!-- Node1&#45;&gt;Node11 -->
<g id="edge11" class="edge">
<title>Node1&#45;&gt;Node11</title>
<path fill="none" stroke="#191970" d="M1291.37,-239.9988C1299.4518,-237.9265 1307.6791,-235.8698 1315.5,-234 1375.5873,-219.6342 1443.7557,-204.9569 1495.7699,-194.0942"/>
<polygon fill="#191970" stroke="#191970" points="1496.5428,-197.5084 1505.6189,-192.0426 1495.1153,-190.6555 1496.5428,-197.5084"/>
</g>
<!-- Node17 -->
<g id="node18" class="node">
<title>Node17</title>
<g id="a_node18"><a xlink:href="../../dd/d66/hlo__instruction_8h.html" target="_top" xlink:title="tensorflow/compiler\l/xla/service/hlo_instruction.h">
<polygon fill="#ffffff" stroke="#000000" points="1157,-84 1157,-114 1314,-114 1314,-84 1157,-84"/>
<text text-anchor="start" x="1165" y="-102" font-family="Helvetica,sans-Serif" font-size="10.00" fill="#000000">tensorflow/compiler</text>
<text text-anchor="middle" x="1235.5" y="-91" font-family="Helvetica,sans-Serif" font-size="10.00" fill="#000000">/xla/service/hlo_instruction.h</text>
</a>
</g>
</g>
<!-- Node1&#45;&gt;Node17 -->
<g id="edge66" class="edge">
<title>Node1&#45;&gt;Node17</title>
<path fill="none" stroke="#191970" d="M1235.5,-239.758C1235.5,-212.8945 1235.5,-156.8763 1235.5,-124.1891"/>
<polygon fill="#191970" stroke="#191970" points="1239.0001,-124.0741 1235.5,-114.0742 1232.0001,-124.0742 1239.0001,-124.0741"/>
</g>
<!-- Node25 -->
<g id="node26" class="node">
<title>Node25</title>
<polygon fill="#ffffff" stroke="#bfbfbf" points="440.5,-6 440.5,-36 594.5,-36 594.5,-6 440.5,-6"/>
<text text-anchor="start" x="448.5" y="-24" font-family="Helvetica,sans-Serif" font-size="10.00" fill="#000000">tensorflow/compiler</text>
<text text-anchor="middle" x="517.5" y="-13" font-family="Helvetica,sans-Serif" font-size="10.00" fill="#000000">/xla/service/name_uniquer.h</text>
</g>
<!-- Node1&#45;&gt;Node25 -->
<g id="edge68" class="edge">
<title>Node1&#45;&gt;Node25</title>
<path fill="none" stroke="#191970" d="M1164.31,-245.843C1109.9452,-237.3947 1033.8485,-222.3938 970.5,-198 920.7016,-178.824 812.1942,-97.4445 762.5,-78 695.026,-51.5985 674.0295,-58.5944 603.5,-42 598.577,-40.8417 593.4986,-39.6342 588.3862,-38.4093"/>
<polygon fill="#191970" stroke="#191970" points="589.0861,-34.9778 578.5447,-36.0406 587.448,-41.7835 589.0861,-34.9778"/>
</g>
<!-- Node26 -->
<g id="node27" class="node">
<title>Node26</title>
<polygon fill="#ffffff" stroke="#bfbfbf" points="3241,-6 3241,-36 3354,-36 3354,-6 3241,-6"/>
<text text-anchor="start" x="3249" y="-24" font-family="Helvetica,sans-Serif" font-size="10.00" fill="#000000">tensorflow/compiler</text>
<text text-anchor="middle" x="3297.5" y="-13" font-family="Helvetica,sans-Serif" font-size="10.00" fill="#000000">/xla/types.h</text>
</g>
<!-- Node1&#45;&gt;Node26 -->
<g id="edge73" class="edge">
<title>Node1&#45;&gt;Node26</title>
<path fill="none" stroke="#191970" d="M1285.937,-239.9689C1295.6683,-237.5796 1305.8406,-235.4283 1315.5,-234 1744.4641,-170.5686 1859.0599,-241.5111 2290.5,-198 2501.6135,-176.709 3026.312,-92.0871 3232.5,-42 3236.3443,-41.0661 3240.2905,-40.0191 3244.2466,-38.9042"/>
<polygon fill="#191970" stroke="#191970" points="3245.4442,-42.2002 3254.0489,-36.0188 3243.4676,-35.4851 3245.4442,-42.2002"/>
</g>
<!-- Node30 -->
<g id="node31" class="node">
<title>Node30</title>
<polygon fill="#ffffff" stroke="#bfbfbf" points="2699,-6 2699,-36 2806,-36 2806,-6 2699,-6"/>
<text text-anchor="start" x="2707" y="-24" font-family="Helvetica,sans-Serif" font-size="10.00" fill="#000000">tensorflow/core/lib</text>
<text text-anchor="middle" x="2752.5" y="-13" font-family="Helvetica,sans-Serif" font-size="10.00" fill="#000000">/gtl/array_slice.h</text>
</g>
<!-- Node1&#45;&gt;Node30 -->
<g id="edge74" class="edge">
<title>Node1&#45;&gt;Node30</title>
<path fill="none" stroke="#191970" d="M1288.1702,-239.932C1297.232,-237.697 1306.5977,-235.6084 1315.5,-234 1471.9954,-205.7255 1513.3285,-214.4941 1671.5,-198 1994.2734,-164.3413 2098.9546,-247.2249 2397.5,-120 2424.1987,-108.6224 2421.0345,-89.91 2447.5,-78 2547.0618,-33.1954 2584.3688,-67.6158 2690.5,-42 2694.1387,-41.1218 2697.8675,-40.1219 2701.6028,-39.0462"/>
<polygon fill="#191970" stroke="#191970" points="2702.8989,-42.3104 2711.4486,-36.0533 2700.863,-35.613 2702.8989,-42.3104"/>
</g>
<!-- Node33 -->
<g id="node34" class="node">
<title>Node33</title>
<polygon fill="#ffffff" stroke="#bfbfbf" points="2824,-6 2824,-36 2937,-36 2937,-6 2824,-6"/>
<text text-anchor="start" x="2832" y="-24" font-family="Helvetica,sans-Serif" font-size="10.00" fill="#000000">tensorflow/core/lib</text>
<text text-anchor="middle" x="2880.5" y="-13" font-family="Helvetica,sans-Serif" font-size="10.00" fill="#000000">/gtl/iterator_range.h</text>
</g>
<!-- Node1&#45;&gt;Node33 -->
<g id="edge75" class="edge">
<title>Node1&#45;&gt;Node33</title>
<path fill="none" stroke="#191970" d="M1286.3855,-239.9879C1295.9844,-237.6287 1305.9942,-235.4834 1315.5,-234 1614.5265,-187.3373 1694.8182,-232.4197 1995.5,-198 2193.2507,-175.3631 2243.6261,-169.1675 2436.5,-120 2493.2915,-105.5227 2504.4688,-91.5022 2561.5,-78 2672.45,-51.7324 2704.3987,-67.6205 2815.5,-42 2819.5301,-41.0706 2823.6684,-40.0048 2827.8108,-38.8568"/>
<polygon fill="#191970" stroke="#191970" points="2828.8115,-42.2109 2837.4344,-36.0549 2826.8546,-35.4899 2828.8115,-42.2109"/>
</g>
<!-- Node34 -->
<g id="node35" class="node">
<title>Node34</title>
<polygon fill="#ffffff" stroke="#bfbfbf" points="2955,-6 2955,-36 3092,-36 3092,-6 2955,-6"/>
<text text-anchor="start" x="2963" y="-24" font-family="Helvetica,sans-Serif" font-size="10.00" fill="#000000">tensorflow/core/platform</text>
<text text-anchor="middle" x="3023.5" y="-13" font-family="Helvetica,sans-Serif" font-size="10.00" fill="#000000">/logging.h</text>
</g>
<!-- Node1&#45;&gt;Node34 -->
<g id="edge76" class="edge">
<title>Node1&#45;&gt;Node34</title>
<path fill="none" stroke="#191970" d="M1286.3736,-239.9105C1295.9737,-237.5588 1305.987,-235.436 1315.5,-234 1684.1119,-178.3574 1783.7689,-245.6424 2153.5,-198 2315.87,-177.0775 2358.8257,-173.6435 2513.5,-120 2553.6885,-106.062 2558.6061,-89.7078 2599.5,-78 2748.5613,-35.324 2794.0905,-70.4926 2946.5,-42 2951.863,-40.9974 2957.3979,-39.8064 2962.9248,-38.5087"/>
<polygon fill="#191970" stroke="#191970" points="2963.9504,-41.8609 2972.826,-36.0753 2962.2796,-35.0632 2963.9504,-41.8609"/>
</g>
<!-- Node41 -->
<g id="node42" class="node">
<title>Node41</title>
<polygon fill="#ffffff" stroke="#bfbfbf" points="2752,-156.5 2752,-197.5 2885,-197.5 2885,-156.5 2752,-156.5"/>
<text text-anchor="start" x="2760" y="-185.5" font-family="Helvetica,sans-Serif" font-size="10.00" fill="#000000">tensorflow/compiler</text>
<text text-anchor="start" x="2760" y="-174.5" font-family="Helvetica,sans-Serif" font-size="10.00" fill="#000000">/xla/service/hlo_module</text>
<text text-anchor="middle" x="2818.5" y="-163.5" font-family="Helvetica,sans-Serif" font-size="10.00" fill="#000000">_config.h</text>
</g>
<!-- Node1&#45;&gt;Node41 -->
<g id="edge67" class="edge">
<title>Node1&#45;&gt;Node41</title>
<path fill="none" stroke="#191970" d="M1285.4946,-239.9827C1295.3568,-237.5593 1305.6903,-235.3921 1315.5,-234 1940.2573,-145.3428 2113.1025,-289.6145 2741.7455,-197.8796"/>
<polygon fill="#191970" stroke="#191970" points="2742.5869,-201.2935 2751.9697,-196.3727 2741.5662,-194.3683 2742.5869,-201.2935"/>
</g>
<!-- Node42 -->
<g id="node43" class="node">
<title>Node42</title>
<g id="a_node43"><a xlink:href="../../d3/d4d/versioned__computation__handle_8h.html" target="_top" xlink:title="tensorflow/compiler\l/xla/service/versioned\l_computation_handle.h">
<polygon fill="#ffffff" stroke="#000000" points="3166,-78.5 3166,-119.5 3297,-119.5 3297,-78.5 3166,-78.5"/>
<text text-anchor="start" x="3174" y="-107.5" font-family="Helvetica,sans-Serif" font-size="10.00" fill="#000000">tensorflow/compiler</text>
<text text-anchor="start" x="3174" y="-96.5" font-family="Helvetica,sans-Serif" font-size="10.00" fill="#000000">/xla/service/versioned</text>
<text text-anchor="middle" x="3231.5" y="-85.5" font-family="Helvetica,sans-Serif" font-size="10.00" fill="#000000">_computation_handle.h</text>
</a>
</g>
</g>
<!-- Node1&#45;&gt;Node42 -->
<g id="edge69" class="edge">
<title>Node1&#45;&gt;Node42</title>
<path fill="none" stroke="#191970" d="M1285.9262,-239.8948C1295.6585,-237.5123 1305.834,-235.3826 1315.5,-234 1459.8634,-213.3511 2493.2095,-254.8615 2627.5,-198 2652.1004,-187.5837 2646.3008,-167.3171 2670.5,-156 2754.7667,-116.5916 3023.0992,-104.2809 3155.7632,-100.5534"/>
<polygon fill="#191970" stroke="#191970" points="3155.9486,-104.0498 3165.8498,-100.2792 3155.7583,-97.0524 3155.9486,-104.0498"/>
</g>
<!-- Node44 -->
<g id="node45" class="node">
<title>Node44</title>
<polygon fill="#ffffff" stroke="#bfbfbf" points="2903,-162 2903,-192 3040,-192 3040,-162 2903,-162"/>
<text text-anchor="start" x="2911" y="-180" font-family="Helvetica,sans-Serif" font-size="10.00" fill="#000000">tensorflow/core/platform</text>
<text text-anchor="middle" x="2971.5" y="-169" font-family="Helvetica,sans-Serif" font-size="10.00" fill="#000000">/mutex.h</text>
</g>
<!-- Node1&#45;&gt;Node44 -->
<g id="edge77" class="edge">
<title>Node1&#45;&gt;Node44</title>
<path fill="none" stroke="#191970" d="M1285.4919,-239.9637C1295.3544,-237.5419 1305.6886,-235.3802 1315.5,-234 2010.6165,-136.2188 2199.8581,-299.0971 2894.5,-198 2900.7089,-197.0964 2907.1304,-195.8554 2913.495,-194.4247"/>
<polygon fill="#191970" stroke="#191970" points="2914.5059,-197.7815 2923.4111,-192.0414 2912.87,-190.9753 2914.5059,-197.7815"/>
</g>
<!-- Node11&#45;&gt;Node3 -->
<g id="edge12" class="edge">
<title>Node11&#45;&gt;Node3</title>
<path fill="none" stroke="#191970" d="M1495.9827,-172.4548C1364.0072,-164.5847 1113.4939,-146.662 1028.5,-120 991.6767,-108.4488 989.2253,-89.8591 952.5,-78 825.1275,-36.8698 776.2958,-95.2603 653.5,-42 650.5781,-40.7327 647.7345,-39.0101 645.0756,-37.093"/>
<polygon fill="#191970" stroke="#191970" points="647.257,-34.3547 637.3404,-30.6248 642.7665,-39.7246 647.257,-34.3547"/>
</g>
<!-- Node11&#45;&gt;Node4 -->
<g id="edge13" class="edge">
<title>Node11&#45;&gt;Node4</title>
<path fill="none" stroke="#191970" d="M1495.6325,-170.8277C1379.2876,-161.6005 1175.2438,-142.8286 1104.5,-120 1067.7724,-108.1482 1065.2253,-89.8591 1028.5,-78 901.1275,-36.8698 856.8725,-83.1302 729.5,-42 724.4297,-40.3627 719.2621,-38.0285 714.4376,-35.5071"/>
<polygon fill="#191970" stroke="#191970" points="716.1256,-32.4407 705.6987,-30.5616 712.6779,-38.5328 716.1256,-32.4407"/>
</g>
<!-- Node11&#45;&gt;Node6 -->
<g id="edge14" class="edge">
<title>Node11&#45;&gt;Node6</title>
<path fill="none" stroke="#191970" d="M1495.9261,-172.2441C1388.0775,-165.0383 1207.2045,-149.0183 1147.5,-120 1123.4728,-108.322 1128.6237,-89.4772 1104.5,-78 978.0532,-17.8409 922.7988,-90.6674 791.5,-42 787.6333,-40.5668 783.7793,-38.5543 780.1693,-36.3377"/>
<polygon fill="#191970" stroke="#191970" points="782.0565,-33.3881 771.8295,-30.6208 778.0987,-39.1618 782.0565,-33.3881"/>
</g>
<!-- Node11&#45;&gt;Node7 -->
<g id="edge15" class="edge">
<title>Node11&#45;&gt;Node7</title>
<path fill="none" stroke="#191970" d="M1495.9928,-173.9913C1282.6238,-166.0055 728.5789,-143.2878 648.5,-120 611.4427,-109.2233 609.4747,-89.0568 572.5,-78 371.357,-17.8508 306.3603,-87.9204 101.5,-42 93.2041,-40.1404 84.4927,-37.2722 76.5116,-34.2472"/>
<polygon fill="#191970" stroke="#191970" points="77.8006,-30.9933 67.2156,-30.5368 75.2057,-37.4945 77.8006,-30.9933"/>
</g>
<!-- Node11&#45;&gt;Node8 -->
<g id="edge18" class="edge">
<title>Node11&#45;&gt;Node8</title>
<path fill="none" stroke="#191970" d="M1495.8483,-176.0406C1309.902,-173.1619 867.4145,-161.9814 724.5,-120 687.472,-109.123 685.4843,-89.0247 648.5,-78 442.633,-16.6326 369.8906,-111.1335 166.5,-42 162.324,-40.5806 158.1623,-38.4855 154.2882,-36.1605"/>
<polygon fill="#191970" stroke="#191970" points="156.1525,-33.1965 145.8992,-30.5281 152.2506,-39.0082 156.1525,-33.1965"/>
</g>
<!-- Node11&#45;&gt;Node9 -->
<g id="edge19" class="edge">
<title>Node11&#45;&gt;Node9</title>
<path fill="none" stroke="#191970" d="M1495.8338,-175.4008C1322.3167,-171.348 928.7769,-158.133 800.5,-120 763.5074,-109.0032 761.4312,-89.2014 724.5,-78 542.2476,-22.722 484.2187,-79.5196 297.5,-42 293.1309,-41.1221 288.644,-40.0494 284.1678,-38.8581"/>
<polygon fill="#191970" stroke="#191970" points="285.0122,-35.4595 274.4361,-36.09 283.0971,-42.1924 285.0122,-35.4595"/>
</g>
<!-- Node11&#45;&gt;Node10 -->
<g id="edge23" class="edge">
<title>Node11&#45;&gt;Node10</title>
<path fill="none" stroke="#191970" d="M1495.7802,-174.6236C1335.3007,-169.3442 990.2177,-154.2921 876.5,-120 839.5509,-108.8578 837.3568,-89.4438 800.5,-78 643.1325,-29.1382 592.9779,-74.8162 431.5,-42 427.0801,-41.1018 422.5382,-40.0245 418.002,-38.8387"/>
<polygon fill="#191970" stroke="#191970" points="418.7018,-35.4007 408.1299,-36.0969 416.8285,-42.1454 418.7018,-35.4007"/>
</g>
<!-- Node12 -->
<g id="node13" class="node">
<title>Node12</title>
<polygon fill="#ffffff" stroke="#bfbfbf" points="2332.5,-11.5 2332.5,-30.5 2418.5,-30.5 2418.5,-11.5 2332.5,-11.5"/>
<text text-anchor="middle" x="2375.5" y="-18.5" font-family="Helvetica,sans-Serif" font-size="10.00" fill="#000000">unordered_set</text>
</g>
<!-- Node11&#45;&gt;Node12 -->
<g id="edge16" class="edge">
<title>Node11&#45;&gt;Node12</title>
<path fill="none" stroke="#191970" d="M1663.1634,-174.0367C1810.517,-168.0548 2110.1397,-152.266 2209.5,-120 2239.4894,-110.2613 2314.9091,-61.4676 2352.8948,-36.2091"/>
<polygon fill="#191970" stroke="#191970" points="2354.8927,-39.0837 2361.2662,-30.6203 2351.0059,-33.2619 2354.8927,-39.0837"/>
</g>
<!-- Node13 -->
<g id="node14" class="node">
<title>Node13</title>
<polygon fill="#ffffff" stroke="#bfbfbf" points="1371,-89.5 1371,-108.5 1416,-108.5 1416,-89.5 1371,-89.5"/>
<text text-anchor="middle" x="1393.5" y="-96.5" font-family="Helvetica,sans-Serif" font-size="10.00" fill="#000000">utility</text>
</g>
<!-- Node11&#45;&gt;Node13 -->
<g id="edge17" class="edge">
<title>Node11&#45;&gt;Node13</title>
<path fill="none" stroke="#191970" d="M1530.101,-161.8907C1499.2879,-151.6983 1459.2187,-137.0273 1425.5,-120 1422.0967,-118.2814 1418.6116,-116.2783 1415.2522,-114.2046"/>
<polygon fill="#191970" stroke="#191970" points="1417.0858,-111.2219 1406.7961,-108.6972 1413.2655,-117.0876 1417.0858,-111.2219"/>
</g>
<!-- Node14 -->
<g id="node15" class="node">
<title>Node14</title>
<polygon fill="#ffffff" stroke="#bfbfbf" points="2437,-6 2437,-36 2550,-36 2550,-6 2437,-6"/>
<text text-anchor="start" x="2445" y="-24" font-family="Helvetica,sans-Serif" font-size="10.00" fill="#000000">tensorflow/compiler</text>
<text text-anchor="middle" x="2493.5" y="-13" font-family="Helvetica,sans-Serif" font-size="10.00" fill="#000000">/xla/map_util.h</text>
</g>
<!-- Node11&#45;&gt;Node14 -->
<g id="edge20" class="edge">
<title>Node11&#45;&gt;Node14</title>
<path fill="none" stroke="#191970" d="M1663.0523,-174.6916C1820.0261,-169.588 2153.0337,-154.9109 2262.5,-120 2297.43,-108.8602 2300.3009,-93.5569 2333.5,-78 2352.5771,-69.0606 2400.2058,-52.3422 2438.5695,-39.3139"/>
<polygon fill="#191970" stroke="#191970" points="2439.7503,-42.6093 2448.1003,-36.088 2437.5061,-35.9788 2439.7503,-42.6093"/>
</g>
<!-- Node15 -->
<g id="node16" class="node">
<title>Node15</title>
<polygon fill="#ffffff" stroke="#bfbfbf" points="2568,-.5 2568,-41.5 2681,-41.5 2681,-.5 2568,-.5"/>
<text text-anchor="start" x="2576" y="-29.5" font-family="Helvetica,sans-Serif" font-size="10.00" fill="#000000">tensorflow/compiler</text>
<text text-anchor="start" x="2576" y="-18.5" font-family="Helvetica,sans-Serif" font-size="10.00" fill="#000000">/xla/service/dfs_hlo</text>
<text text-anchor="middle" x="2624.5" y="-7.5" font-family="Helvetica,sans-Serif" font-size="10.00" fill="#000000">_visitor.h</text>
</g>
<!-- Node11&#45;&gt;Node15 -->
<g id="edge21" class="edge">
<title>Node11&#45;&gt;Node15</title>
<path fill="none" stroke="#191970" d="M1663.3149,-176.0858C1829.5829,-173.3599 2195.2152,-162.5633 2312.5,-120 2342.7569,-109.0196 2341.9088,-90.6653 2371.5,-78 2446.4223,-45.9327 2474.3896,-61.5897 2557.8395,-41.9592"/>
<polygon fill="#191970" stroke="#191970" points="2558.8643,-45.3117 2567.741,-39.5276 2557.1948,-38.5136 2558.8643,-45.3117"/>
</g>
<!-- Node16 -->
<g id="node17" class="node">
<title>Node16</title>
<polygon fill="#ffffff" stroke="#bfbfbf" points="1434.5,-78.5 1434.5,-119.5 1562.5,-119.5 1562.5,-78.5 1434.5,-78.5"/>
<text text-anchor="start" x="1442.5" y="-107.5" font-family="Helvetica,sans-Serif" font-size="10.00" fill="#000000">tensorflow/compiler</text>
<text text-anchor="start" x="1442.5" y="-96.5" font-family="Helvetica,sans-Serif" font-size="10.00" fill="#000000">/xla/service/dfs_hlo</text>
<text text-anchor="middle" x="1498.5" y="-85.5" font-family="Helvetica,sans-Serif" font-size="10.00" fill="#000000">_visitor_with_default.h</text>
</g>
<!-- Node11&#45;&gt;Node16 -->
<g id="edge22" class="edge">
<title>Node11&#45;&gt;Node16</title>
<path fill="none" stroke="#191970" d="M1563.8824,-161.9608C1553.5272,-151.9892 1539.6287,-138.6054 1527.3088,-126.7418"/>
<polygon fill="#191970" stroke="#191970" points="1529.5187,-124.0109 1519.8877,-119.5956 1524.6632,-129.0532 1529.5187,-124.0109"/>
</g>
<!-- Node11&#45;&gt;Node17 -->
<g id="edge24" class="edge">
<title>Node11&#45;&gt;Node17</title>
<path fill="none" stroke="#191970" d="M1513.1733,-161.9608C1455.5635,-148.8981 1372.1304,-129.9801 1311.7731,-116.2945"/>
<polygon fill="#191970" stroke="#191970" points="1312.4422,-112.8574 1301.9158,-114.0594 1310.8943,-119.6841 1312.4422,-112.8574"/>
</g>
<!-- Node11&#45;&gt;Node25 -->
<g id="edge55" class="edge">
<title>Node11&#45;&gt;Node25</title>
<path fill="none" stroke="#191970" d="M1495.758,-173.6622C1349.0635,-167.106 1051.7686,-150.464 952.5,-120 915.6057,-108.6777 913.1578,-90.0661 876.5,-78 760.2517,-39.7362 723.7885,-64.5488 603.5,-42 597.6936,-40.9116 591.692,-39.6765 585.6848,-38.3635"/>
<polygon fill="#191970" stroke="#191970" points="586.128,-34.8757 575.6032,-36.0922 584.5894,-41.7045 586.128,-34.8757"/>
</g>
<!-- Node11&#45;&gt;Node26 -->
<g id="edge58" class="edge">
<title>Node11&#45;&gt;Node26</title>
<path fill="none" stroke="#191970" d="M1663.3473,-174.4473C1855.0502,-168.1595 2320.6699,-150.2032 2474.5,-120 2532.0097,-108.7085 2541.9523,-89.0962 2599.5,-78 2876.1914,-24.6491 2955.5024,-93.7373 3232.5,-42 3237.1375,-41.1338 3241.9033,-40.0297 3246.6455,-38.7826"/>
<polygon fill="#191970" stroke="#191970" points="3247.6282,-42.142 3256.2979,-36.0522 3245.7228,-35.4064 3247.6282,-42.142"/>
</g>
<!-- Node27 -->
<g id="node28" class="node">
<title>Node27</title>
<polygon fill="#ffffff" stroke="#bfbfbf" points="3110,-6 3110,-36 3223,-36 3223,-6 3110,-6"/>
<text text-anchor="start" x="3118" y="-24" font-family="Helvetica,sans-Serif" font-size="10.00" fill="#000000">tensorflow/compiler</text>
<text text-anchor="middle" x="3166.5" y="-13" font-family="Helvetica,sans-Serif" font-size="10.00" fill="#000000">/xla/xla_data.pb.h</text>
</g>
<!-- Node11&#45;&gt;Node27 -->
<g id="edge59" class="edge">
<title>Node11&#45;&gt;Node27</title>
<path fill="none" stroke="#191970" d="M1663.1109,-173.8495C1842.3871,-166.6579 2258.7308,-147.5035 2397.5,-120 2455.4029,-108.5239 2465.5552,-89.2628 2523.5,-78 2776.1582,-28.8906 2848.6171,-89.9392 3101.5,-42 3106.1351,-41.1213 3110.8993,-40.0086 3115.6405,-38.7558"/>
<polygon fill="#191970" stroke="#191970" points="3116.6264,-42.1143 3125.2914,-36.0178 3114.7158,-35.3801 3116.6264,-42.1143"/>
</g>
<!-- Node28 -->
<g id="node29" class="node">
<title>Node28</title>
<polygon fill="#ffffff" stroke="#bfbfbf" points="1772,-6 1772,-36 1879,-36 1879,-6 1772,-6"/>
<text text-anchor="start" x="1780" y="-24" font-family="Helvetica,sans-Serif" font-size="10.00" fill="#000000">tensorflow/core/lib</text>
<text text-anchor="middle" x="1825.5" y="-13" font-family="Helvetica,sans-Serif" font-size="10.00" fill="#000000">/core/status.h</text>
</g>
<!-- Node11&#45;&gt;Node28 -->
<g id="edge60" class="edge">
<title>Node11&#45;&gt;Node28</title>
<path fill="none" stroke="#191970" d="M1495.9924,-167.095C1416.6629,-154.4679 1315.7825,-128.0056 1361.5,-78 1391.6849,-44.9838 1718.7078,-51.1347 1762.5,-42 1766.6265,-41.1392 1770.8594,-40.096 1775.0841,-38.9399"/>
<polygon fill="#191970" stroke="#191970" points="1776.2613,-42.2422 1784.873,-36.0705 1774.2922,-35.5249 1776.2613,-42.2422"/>
</g>
<!-- Node11&#45;&gt;Node30 -->
<g id="edge61" class="edge">
<title>Node11&#45;&gt;Node30</title>
<path fill="none" stroke="#191970" d="M1663.2642,-173.6408C1850.8426,-165.7191 2293.2129,-144.6688 2356.5,-120 2384.5029,-109.0847 2381.8031,-89.67 2409.5,-78 2525.5306,-29.1111 2567.8205,-70.3367 2690.5,-42 2694.315,-41.1188 2698.2261,-40.0944 2702.1384,-38.9814"/>
<polygon fill="#191970" stroke="#191970" points="2703.2486,-42.3023 2711.8114,-36.063 2701.2267,-35.6007 2703.2486,-42.3023"/>
</g>
<!-- Node31 -->
<g id="node32" class="node">
<title>Node31</title>
<polygon fill="#ffffff" stroke="#bfbfbf" points="1897,-6 1897,-36 2004,-36 2004,-6 1897,-6"/>
<text text-anchor="start" x="1905" y="-24" font-family="Helvetica,sans-Serif" font-size="10.00" fill="#000000">tensorflow/core/lib</text>
<text text-anchor="middle" x="1950.5" y="-13" font-family="Helvetica,sans-Serif" font-size="10.00" fill="#000000">/gtl/flatmap.h</text>
</g>
<!-- Node11&#45;&gt;Node31 -->
<g id="edge62" class="edge">
<title>Node11&#45;&gt;Node31</title>
<path fill="none" stroke="#191970" d="M1663.1251,-174.5163C1811.0605,-169.2538 2106.336,-154.5096 2137.5,-120 2150.0107,-106.1462 2148.7252,-92.9144 2137.5,-78 2102.7336,-31.8078 2067.6714,-59.2781 2012.5,-42 2009.6108,-41.0952 2006.6515,-40.1513 2003.6679,-39.1862"/>
<polygon fill="#191970" stroke="#191970" points="2004.7056,-35.8431 1994.1129,-36.0538 2002.525,-42.4948 2004.7056,-35.8431"/>
</g>
<!-- Node35 -->
<g id="node36" class="node">
<title>Node35</title>
<polygon fill="#ffffff" stroke="#bfbfbf" points="2022,-6 2022,-36 2159,-36 2159,-6 2022,-6"/>
<text text-anchor="start" x="2030" y="-24" font-family="Helvetica,sans-Serif" font-size="10.00" fill="#000000">tensorflow/core/platform</text>
<text text-anchor="middle" x="2090.5" y="-13" font-family="Helvetica,sans-Serif" font-size="10.00" fill="#000000">/macros.h</text>
</g>
<!-- Node11&#45;&gt;Node35 -->
<g id="edge64" class="edge">
<title>Node11&#45;&gt;Node35</title>
<path fill="none" stroke="#191970" d="M1663.2763,-174.8167C1815.3145,-169.9837 2124.0361,-155.8289 2156.5,-120 2169.0337,-106.1671 2164.2683,-94.9734 2156.5,-78 2149.8961,-63.5708 2137.6363,-51.4021 2125.459,-42.0617"/>
<polygon fill="#191970" stroke="#191970" points="2127.2732,-39.0551 2117.1122,-36.054 2123.1839,-44.7365 2127.2732,-39.0551"/>
</g>
<!-- Node36 -->
<g id="node37" class="node">
<title>Node36</title>
<polygon fill="#ffffff" stroke="#bfbfbf" points="2177,-6 2177,-36 2314,-36 2314,-6 2177,-6"/>
<text text-anchor="start" x="2185" y="-24" font-family="Helvetica,sans-Serif" font-size="10.00" fill="#000000">tensorflow/core/platform</text>
<text text-anchor="middle" x="2245.5" y="-13" font-family="Helvetica,sans-Serif" font-size="10.00" fill="#000000">/types.h</text>
</g>
<!-- Node11&#45;&gt;Node36 -->
<g id="edge65" class="edge">
<title>Node11&#45;&gt;Node36</title>
<path fill="none" stroke="#191970" d="M1663.1747,-172.8155C1816.5925,-164.5844 2131.2126,-144.904 2174.5,-120 2203.6955,-103.2033 2224.0427,-68.9939 2235.2522,-45.5355"/>
<polygon fill="#191970" stroke="#191970" points="2238.5344,-46.7733 2239.4961,-36.2222 2232.1645,-43.8707 2238.5344,-46.7733"/>
</g>
<!-- Node37 -->
<g id="node38" class="node">
<title>Node37</title>
<polygon fill="#ffffff" stroke="#bfbfbf" points="1581,-84 1581,-114 1742,-114 1742,-84 1581,-84"/>
<text text-anchor="start" x="1589" y="-102" font-family="Helvetica,sans-Serif" font-size="10.00" fill="#000000">tensorflow/compiler</text>
<text text-anchor="middle" x="1661.5" y="-91" font-family="Helvetica,sans-Serif" font-size="10.00" fill="#000000">/xla/service/hlo_reachability.h</text>
</g>
<!-- Node11&#45;&gt;Node37 -->
<g id="edge54" class="edge">
<title>Node11&#45;&gt;Node37</title>
<path fill="none" stroke="#191970" d="M1595.3104,-161.9608C1607.3707,-150.4888 1624.1786,-134.5008 1637.8388,-121.507"/>
<polygon fill="#191970" stroke="#191970" points="1640.625,-123.6873 1645.4583,-114.2592 1635.8005,-118.6154 1640.625,-123.6873"/>
</g>
<!-- Node38 -->
<g id="node39" class="node">
<title>Node38</title>
<polygon fill="#ffffff" stroke="#bfbfbf" points="1760,-84 1760,-114 1873,-114 1873,-84 1760,-84"/>
<text text-anchor="start" x="1768" y="-102" font-family="Helvetica,sans-Serif" font-size="10.00" fill="#000000">tensorflow/compiler</text>
<text text-anchor="middle" x="1816.5" y="-91" font-family="Helvetica,sans-Serif" font-size="10.00" fill="#000000">/xla/shape_tree.h</text>
</g>
<!-- Node11&#45;&gt;Node38 -->
<g id="edge56" class="edge">
<title>Node11&#45;&gt;Node38</title>
<path fill="none" stroke="#191970" d="M1625.196,-161.9608C1663.924,-149.2149 1719.5907,-130.8942 1760.8987,-117.2992"/>
<polygon fill="#191970" stroke="#191970" points="1762.136,-120.5767 1770.5406,-114.1259 1759.9476,-113.9276 1762.136,-120.5767"/>
</g>
<!-- Node39 -->
<g id="node40" class="node">
<title>Node39</title>
<polygon fill="#ffffff" stroke="#bfbfbf" points="1891,-84 1891,-114 2004,-114 2004,-84 1891,-84"/>
<text text-anchor="start" x="1899" y="-102" font-family="Helvetica,sans-Serif" font-size="10.00" fill="#000000">tensorflow/compiler</text>
<text text-anchor="middle" x="1947.5" y="-91" font-family="Helvetica,sans-Serif" font-size="10.00" fill="#000000">/xla/statusor.h</text>
</g>
<!-- Node11&#45;&gt;Node39 -->
<g id="edge57" class="edge">
<title>Node11&#45;&gt;Node39</title>
<path fill="none" stroke="#191970" d="M1663.0918,-164.0296C1724.0514,-153.8917 1808.4271,-138.4485 1881.5,-120 1885.2617,-119.0503 1889.1236,-118.0064 1893.0007,-116.9071"/>
<polygon fill="#191970" stroke="#191970" points="1894.012,-120.258 1902.621,-114.0827 1892.04,-113.5415 1894.012,-120.258"/>
</g>
<!-- Node40 -->
<g id="node41" class="node">
<title>Node40</title>
<polygon fill="#ffffff" stroke="#bfbfbf" points="2022,-84 2022,-114 2129,-114 2129,-84 2022,-84"/>
<text text-anchor="start" x="2030" y="-102" font-family="Helvetica,sans-Serif" font-size="10.00" fill="#000000">tensorflow/core/lib</text>
<text text-anchor="middle" x="2075.5" y="-91" font-family="Helvetica,sans-Serif" font-size="10.00" fill="#000000">/gtl/flatset.h</text>
</g>
<!-- Node11&#45;&gt;Node40 -->
<g id="edge63" class="edge">
<title>Node11&#45;&gt;Node40</title>
<path fill="none" stroke="#191970" d="M1663.351,-170.7369C1751.2001,-163.0669 1892.8004,-147.5625 2012.5,-120 2016.3709,-119.1087 2020.3409,-118.0769 2024.3133,-116.9586"/>
<polygon fill="#191970" stroke="#191970" points="2025.5533,-120.2413 2034.1374,-114.0315 2023.5543,-113.5328 2025.5533,-120.2413"/>
</g>
<!-- Node17&#45;&gt;Node3 -->
<g id="edge27" class="edge">
<title>Node17&#45;&gt;Node3</title>
<path fill="none" stroke="#191970" d="M1156.874,-90.9227C1118.2115,-86.9765 1070.9177,-82.1876 1028.5,-78 945.1886,-69.7752 730.6995,-74.3834 653.5,-42 650.563,-40.768 647.711,-39.0652 645.048,-37.1576"/>
<polygon fill="#191970" stroke="#191970" points="647.2294,-34.4192 637.3125,-30.6902 642.7394,-39.7896 647.2294,-34.4192"/>
</g>
<!-- Node17&#45;&gt;Node4 -->
<g id="edge28" class="edge">
<title>Node17&#45;&gt;Node4</title>
<path fill="none" stroke="#191970" d="M1156.9932,-85.5863C1139.7296,-82.8683 1121.521,-80.1791 1104.5,-78 938.4225,-56.7384 889.4407,-91.5252 729.5,-42 724.4103,-40.424 719.2341,-38.1172 714.4072,-35.6034"/>
<polygon fill="#191970" stroke="#191970" points="716.0959,-32.5374 705.6702,-30.6518 712.6444,-38.6274 716.0959,-32.5374"/>
</g>
<!-- Node17&#45;&gt;Node6 -->
<g id="edge30" class="edge">
<title>Node17&#45;&gt;Node6</title>
<path fill="none" stroke="#191970" d="M1173.6711,-83.9529C1163.3049,-81.7427 1152.6278,-79.6567 1142.5,-78 987.7386,-52.6841 938.8749,-95.5971 791.5,-42 787.6245,-40.5906 783.7662,-38.5901 780.1544,-36.3781"/>
<polygon fill="#191970" stroke="#191970" points="782.0418,-33.4286 771.8151,-30.6599 778.0832,-39.2017 782.0418,-33.4286"/>
</g>
<!-- Node17&#45;&gt;Node7 -->
<g id="edge32" class="edge">
<title>Node17&#45;&gt;Node7</title>
<path fill="none" stroke="#191970" d="M1156.8531,-96.4766C916.846,-88.5763 203.9157,-63.5593 101.5,-42 93.1095,-40.2337 84.3118,-37.37 76.2749,-34.3177"/>
<polygon fill="#191970" stroke="#191970" points="77.5114,-31.0426 66.9275,-30.5621 74.9017,-37.5379 77.5114,-31.0426"/>
</g>
<!-- Node17&#45;&gt;Node8 -->
<g id="edge34" class="edge">
<title>Node17&#45;&gt;Node8</title>
<path fill="none" stroke="#191970" d="M1156.612,-95.9215C917.3546,-86.4362 213.3523,-57.3712 166.5,-42 162.3091,-40.6251 158.1403,-38.5514 154.2637,-36.2338"/>
<polygon fill="#191970" stroke="#191970" points="156.1283,-33.2699 145.8762,-30.5971 152.2239,-39.0799 156.1283,-33.2699"/>
</g>
<!-- Node17&#45;&gt;Node9 -->
<g id="edge35" class="edge">
<title>Node17&#45;&gt;Node9</title>
<path fill="none" stroke="#191970" d="M1156.971,-95.364C946.6255,-85.4639 380.764,-57.7193 297.5,-42 292.8642,-41.1248 288.0996,-40.0145 283.3581,-38.7633"/>
<polygon fill="#191970" stroke="#191970" points="284.2822,-35.3875 273.7067,-36.0274 282.3731,-42.1221 284.2822,-35.3875"/>
</g>
<!-- Node17&#45;&gt;Node10 -->
<g id="edge39" class="edge">
<title>Node17&#45;&gt;Node10</title>
<path fill="none" stroke="#191970" d="M1156.7527,-94.4637C968.2373,-83.4542 501.4468,-55.2532 431.5,-42 426.8066,-41.1107 421.9801,-40.0016 417.1713,-38.7608"/>
<polygon fill="#191970" stroke="#191970" points="417.9443,-35.3434 407.3736,-36.0572 416.0823,-42.0912 417.9443,-35.3434"/>
</g>
<!-- Node17&#45;&gt;Node12 -->
<g id="edge33" class="edge">
<title>Node17&#45;&gt;Node12</title>
<path fill="none" stroke="#191970" d="M1314.2678,-84.2845C1329.8715,-81.8187 1346.1662,-79.5586 1361.5,-78 1574.1099,-56.3895 2113.3721,-85.9942 2322.5,-42 2330.5358,-40.3095 2338.9299,-37.509 2346.606,-34.4955"/>
<polygon fill="#191970" stroke="#191970" points="2347.9833,-37.7133 2355.864,-30.632 2345.2874,-31.2533 2347.9833,-37.7133"/>
</g>
<!-- Node17&#45;&gt;Node14 -->
<g id="edge37" class="edge">
<title>Node17&#45;&gt;Node14</title>
<path fill="none" stroke="#191970" d="M1314.2632,-84.2395C1329.8673,-81.7775 1346.1633,-79.5303 1361.5,-78 1833.2054,-30.932 1960.3585,-122.6236 2427.5,-42 2432.2841,-41.1743 2437.2009,-40.0867 2442.0894,-38.8404"/>
<polygon fill="#191970" stroke="#191970" points="2443.3264,-42.1298 2452.0326,-36.0922 2441.4616,-35.3827 2443.3264,-42.1298"/>
</g>
<!-- Node17&#45;&gt;Node15 -->
<g id="edge38" class="edge">
<title>Node17&#45;&gt;Node15</title>
<path fill="none" stroke="#191970" d="M1314.2588,-84.1945C1329.8632,-81.7363 1346.1605,-79.502 1361.5,-78 1623.1205,-52.3825 2279.881,-85.9378 2557.7406,-41.7928"/>
<polygon fill="#191970" stroke="#191970" points="2558.5708,-45.2032 2567.8668,-40.1204 2557.4301,-38.2968 2558.5708,-45.2032"/>
</g>
<!-- Node18 -->
<g id="node19" class="node">
<title>Node18</title>
<polygon fill="#ffffff" stroke="#bfbfbf" points="1571,-11.5 1571,-30.5 1636,-30.5 1636,-11.5 1571,-11.5"/>
<text text-anchor="middle" x="1603.5" y="-18.5" font-family="Helvetica,sans-Serif" font-size="10.00" fill="#000000">functional</text>
</g>
<!-- Node17&#45;&gt;Node18 -->
<g id="edge25" class="edge">
<title>Node17&#45;&gt;Node18</title>
<path fill="none" stroke="#191970" d="M1299.4155,-83.9601C1309.1365,-81.8489 1319.0682,-79.7913 1328.5,-78 1431.4441,-58.4485 1461.6616,-73.8127 1561.5,-42 1567.0344,-40.2365 1572.7415,-37.828 1578.0965,-35.27"/>
<polygon fill="#191970" stroke="#191970" points="1579.92,-38.2691 1587.2419,-30.6114 1576.7427,-32.0317 1579.92,-38.2691"/>
</g>
<!-- Node19 -->
<g id="node20" class="node">
<title>Node19</title>
<polygon fill="#ffffff" stroke="#bfbfbf" points="1654,-11.5 1654,-30.5 1703,-30.5 1703,-11.5 1654,-11.5"/>
<text text-anchor="middle" x="1678.5" y="-18.5" font-family="Helvetica,sans-Serif" font-size="10.00" fill="#000000">iosfwd</text>
</g>
<!-- Node17&#45;&gt;Node19 -->
<g id="edge26" class="edge">
<title>Node17&#45;&gt;Node19</title>
<path fill="none" stroke="#191970" d="M1297.596,-83.9971C1307.8815,-81.7948 1318.4632,-79.6997 1328.5,-78 1467.8685,-54.3979 1510.929,-88.2541 1644.5,-42 1648.8966,-40.4775 1653.3229,-38.3116 1657.4617,-35.9438"/>
<polygon fill="#191970" stroke="#191970" points="1659.3397,-38.8974 1665.9397,-30.6094 1655.6117,-32.9727 1659.3397,-38.8974"/>
</g>
<!-- Node20 -->
<g id="node21" class="node">
<title>Node20</title>
<polygon fill="#ffffff" stroke="#bfbfbf" points="1721.5,-11.5 1721.5,-30.5 1753.5,-30.5 1753.5,-11.5 1721.5,-11.5"/>
<text text-anchor="middle" x="1737.5" y="-18.5" font-family="Helvetica,sans-Serif" font-size="10.00" fill="#000000">set</text>
</g>
<!-- Node17&#45;&gt;Node20 -->
<g id="edge29" class="edge">
<title>Node17&#45;&gt;Node20</title>
<path fill="none" stroke="#191970" d="M1296.8155,-83.9854C1307.3399,-81.7442 1318.2018,-79.6398 1328.5,-78 1497.3456,-51.1154 1553.1437,-106.4585 1711.5,-42 1714.5196,-40.7709 1717.4662,-39.0697 1720.2264,-37.1628"/>
<polygon fill="#191970" stroke="#191970" points="1722.67,-39.6891 1728.2705,-30.6955 1718.2839,-34.2336 1722.67,-39.6891"/>
</g>
<!-- Node21 -->
<g id="node22" class="node">
<title>Node21</title>
<polygon fill="#ffffff" stroke="#bfbfbf" points="801,-11.5 801,-30.5 842,-30.5 842,-11.5 801,-11.5"/>
<text text-anchor="middle" x="821.5" y="-18.5" font-family="Helvetica,sans-Serif" font-size="10.00" fill="#000000">tuple</text>
</g>
<!-- Node17&#45;&gt;Node21 -->
<g id="edge31" class="edge">
<title>Node17&#45;&gt;Node21</title>
<path fill="none" stroke="#191970" d="M1172.8884,-83.9694C1162.7625,-81.7963 1152.3658,-79.7177 1142.5,-78 1013.6775,-55.5716 972.1876,-89.8581 850.5,-42 846.9351,-40.598 843.406,-38.654 840.1021,-36.5104"/>
<polygon fill="#191970" stroke="#191970" points="842.1528,-33.674 832.0124,-30.6044 838.0253,-39.3277 842.1528,-33.674"/>
</g>
<!-- Node22 -->
<g id="node23" class="node">
<title>Node22</title>
<polygon fill="#ffffff" stroke="#bfbfbf" points="860,-6 860,-36 973,-36 973,-6 860,-6"/>
<text text-anchor="start" x="868" y="-24" font-family="Helvetica,sans-Serif" font-size="10.00" fill="#000000">tensorflow/compiler</text>
<text text-anchor="middle" x="916.5" y="-13" font-family="Helvetica,sans-Serif" font-size="10.00" fill="#000000">/xla/literal_util.h</text>
</g>
<!-- Node17&#45;&gt;Node22 -->
<g id="edge36" class="edge">
<title>Node17&#45;&gt;Node22</title>
<path fill="none" stroke="#191970" d="M1168.9518,-83.9665C1160.0587,-81.9594 1151.058,-79.929 1142.5,-78 1071.395,-61.9727 1052.8506,-61.068 982.5,-42 978.9857,-41.0475 975.3793,-40.0265 971.7518,-38.9665"/>
<polygon fill="#191970" stroke="#191970" points="972.7329,-35.6068 962.1491,-36.09 970.7242,-42.3124 972.7329,-35.6068"/>
</g>
<!-- Node23 -->
<g id="node24" class="node">
<title>Node23</title>
<polygon fill="#ffffff" stroke="#bfbfbf" points="991.5,-6 991.5,-36 1131.5,-36 1131.5,-6 991.5,-6"/>
<text text-anchor="start" x="999.5" y="-24" font-family="Helvetica,sans-Serif" font-size="10.00" fill="#000000">tensorflow/compiler</text>
<text text-anchor="middle" x="1061.5" y="-13" font-family="Helvetica,sans-Serif" font-size="10.00" fill="#000000">/xla/service/hlo_opcode.h</text>
</g>
<!-- Node17&#45;&gt;Node23 -->
<g id="edge40" class="edge">
<title>Node17&#45;&gt;Node23</title>
<path fill="none" stroke="#191970" d="M1201.951,-83.9608C1174.2376,-71.5376 1134.7099,-53.8182 1104.6444,-40.3406"/>
<polygon fill="#191970" stroke="#191970" points="1105.7992,-37.0227 1095.2424,-36.1259 1102.9357,-43.4103 1105.7992,-37.0227"/>
</g>
<!-- Node24 -->
<g id="node25" class="node">
<title>Node24</title>
<polygon fill="#ffffff" stroke="#bfbfbf" points="1150,-6 1150,-36 1297,-36 1297,-6 1150,-6"/>
<text text-anchor="start" x="1158" y="-24" font-family="Helvetica,sans-Serif" font-size="10.00" fill="#000000">tensorflow/compiler</text>
<text text-anchor="middle" x="1223.5" y="-13" font-family="Helvetica,sans-Serif" font-size="10.00" fill="#000000">/xla/service/hlo_sharding.h</text>
</g>
<!-- Node17&#45;&gt;Node24 -->
<g id="edge41" class="edge">
<title>Node17&#45;&gt;Node24</title>
<path fill="none" stroke="#191970" d="M1233.1863,-83.9608C1231.5533,-73.3466 1229.3256,-58.8663 1227.4182,-46.4685"/>
<polygon fill="#191970" stroke="#191970" points="1230.8275,-45.6106 1225.8476,-36.2592 1223.9089,-46.6751 1230.8275,-45.6106"/>
</g>
<!-- Node17&#45;&gt;Node25 -->
<g id="edge42" class="edge">
<title>Node17&#45;&gt;Node25</title>
<path fill="none" stroke="#191970" d="M1156.8779,-93.3869C1011.9549,-82.7947 707.9651,-59.3651 603.5,-42 597.2318,-40.958 590.7452,-39.7049 584.2741,-38.336"/>
<polygon fill="#191970" stroke="#191970" points="584.6711,-34.8395 574.1519,-36.1032 583.1632,-41.6752 584.6711,-34.8395"/>
</g>
<!-- Node17&#45;&gt;Node26 -->
<g id="edge43" class="edge">
<title>Node17&#45;&gt;Node26</title>
<path fill="none" stroke="#191970" d="M1314.2462,-84.0622C1329.8517,-81.6152 1346.1526,-79.419 1361.5,-78 1775.5887,-39.7151 2822.3525,-110.66 3232.5,-42 3237.2918,-41.1978 3242.2147,-40.1146 3247.1038,-38.8608"/>
<polygon fill="#191970" stroke="#191970" points="3248.3512,-42.1463 3257.0395,-36.083 3246.4664,-35.4048 3248.3512,-42.1463"/>
</g>
<!-- Node17&#45;&gt;Node27 -->
<g id="edge44" class="edge">
<title>Node17&#45;&gt;Node27</title>
<path fill="none" stroke="#191970" d="M1314.2478,-84.0799C1329.8532,-81.6314 1346.1537,-79.4301 1361.5,-78 1746.5811,-42.1158 2720.1047,-106.1307 3101.5,-42 3106.2912,-41.1944 3111.2137,-40.1088 3116.1026,-38.8534"/>
<polygon fill="#191970" stroke="#191970" points="3117.3508,-42.1387 3126.0379,-36.0736 3115.4647,-35.3976 3117.3508,-42.1387"/>
</g>
<!-- Node17&#45;&gt;Node28 -->
<g id="edge45" class="edge">
<title>Node17&#45;&gt;Node28</title>
<path fill="none" stroke="#191970" d="M1296.2995,-83.9955C1306.9815,-81.7251 1318.0293,-79.6084 1328.5,-78 1519.8074,-48.6128 1572.894,-80.8804 1762.5,-42 1766.6929,-41.1402 1770.9947,-40.0881 1775.2855,-38.9176"/>
<polygon fill="#191970" stroke="#191970" points="1776.609,-42.1771 1785.2213,-36.0063 1774.6406,-35.4595 1776.609,-42.1771"/>
</g>
<!-- Node29 -->
<g id="node30" class="node">
<title>Node29</title>
<polygon fill="#ffffff" stroke="#bfbfbf" points="1315,-6 1315,-36 1422,-36 1422,-6 1315,-6"/>
<text text-anchor="start" x="1323" y="-24" font-family="Helvetica,sans-Serif" font-size="10.00" fill="#000000">tensorflow/core/lib</text>
<text text-anchor="middle" x="1368.5" y="-13" font-family="Helvetica,sans-Serif" font-size="10.00" fill="#000000">/core/stringpiece.h</text>
</g>
<!-- Node17&#45;&gt;Node29 -->
<g id="edge46" class="edge">
<title>Node17&#45;&gt;Node29</title>
<path fill="none" stroke="#191970" d="M1261.1437,-83.9608C1281.8018,-71.8455 1311.0482,-54.6935 1333.7995,-41.3506"/>
<polygon fill="#191970" stroke="#191970" points="1335.6258,-44.3372 1342.4812,-36.2592 1332.0845,-38.299 1335.6258,-44.3372"/>
</g>
<!-- Node17&#45;&gt;Node30 -->
<g id="edge47" class="edge">
<title>Node17&#45;&gt;Node30</title>
<path fill="none" stroke="#191970" d="M1314.2552,-84.158C1329.86,-81.7029 1346.1583,-79.4791 1361.5,-78 1655.5781,-49.6473 2399.6654,-93.9715 2690.5,-42 2694.9627,-41.2025 2699.54,-40.1437 2704.0879,-38.9243"/>
<polygon fill="#191970" stroke="#191970" points="2705.3285,-42.208 2713.941,-36.0375 2703.3603,-35.4904 2705.3285,-42.208"/>
</g>
<!-- Node17&#45;&gt;Node31 -->
<g id="edge48" class="edge">
<title>Node17&#45;&gt;Node31</title>
<path fill="none" stroke="#191970" d="M1314.309,-84.6613C1329.9092,-82.1635 1346.1921,-79.7952 1361.5,-78 1594.2297,-50.7067 1657.6183,-87.4141 1887.5,-42 1891.699,-41.1705 1896.0051,-40.1399 1900.2989,-38.984"/>
<polygon fill="#191970" stroke="#191970" points="1901.6132,-42.2469 1910.2392,-36.0952 1899.6597,-35.525 1901.6132,-42.2469"/>
</g>
<!-- Node32 -->
<g id="node33" class="node">
<title>Node32</title>
<polygon fill="#ffffff" stroke="#bfbfbf" points="1440,-6 1440,-36 1553,-36 1553,-6 1440,-6"/>
<text text-anchor="start" x="1448" y="-24" font-family="Helvetica,sans-Serif" font-size="10.00" fill="#000000">tensorflow/core/lib</text>
<text text-anchor="middle" x="1496.5" y="-13" font-family="Helvetica,sans-Serif" font-size="10.00" fill="#000000">/gtl/inlined_vector.h</text>
</g>
<!-- Node17&#45;&gt;Node32 -->
<g id="edge49" class="edge">
<title>Node17&#45;&gt;Node32</title>
<path fill="none" stroke="#191970" d="M1288.1553,-83.9739C1327.4532,-72.6708 1382.4281,-56.6715 1430.5,-42 1433.6052,-41.0523 1436.7895,-40.0709 1440.0018,-39.0735"/>
<polygon fill="#191970" stroke="#191970" points="1441.171,-42.3751 1449.6711,-36.0507 1439.0823,-35.694 1441.171,-42.3751"/>
</g>
<!-- Node17&#45;&gt;Node33 -->
<g id="edge50" class="edge">
<title>Node17&#45;&gt;Node33</title>
<path fill="none" stroke="#191970" d="M1314.2525,-84.1296C1329.8575,-81.6769 1346.1566,-79.4613 1361.5,-78 1683.2542,-47.3568 2496.874,-96.2427 2815.5,-42 2820.2896,-41.1846 2825.2109,-40.0924 2830.0991,-38.8328"/>
<polygon fill="#191970" stroke="#191970" points="2831.3497,-42.1172 2840.0335,-36.0474 2829.4599,-35.3771 2831.3497,-42.1172"/>
</g>
<!-- Node17&#45;&gt;Node34 -->
<g id="edge51" class="edge">
<title>Node17&#45;&gt;Node34</title>
<path fill="none" stroke="#191970" d="M1314.2501,-84.1046C1329.8553,-81.654 1346.1551,-79.4456 1361.5,-78 1712.26,-44.9563 2597.8577,-92.7255 2946.5,-42 2952.7089,-41.0966 2959.1305,-39.8558 2965.4951,-38.4252"/>
<polygon fill="#191970" stroke="#191970" points="2966.5059,-41.782 2975.4112,-36.0421 2964.8701,-34.9758 2966.5059,-41.782"/>
</g>
<!-- Node17&#45;&gt;Node35 -->
<g id="edge52" class="edge">
<title>Node17&#45;&gt;Node35</title>
<path fill="none" stroke="#191970" d="M1314.2908,-84.5017C1329.8926,-82.0174 1346.1807,-79.695 1361.5,-78 1649.5178,-46.1325 1726.3853,-87.9144 2012.5,-42 2018.5882,-41.023 2024.886,-39.7621 2031.1418,-38.3437"/>
<polygon fill="#191970" stroke="#191970" points="2031.9936,-41.7387 2040.9017,-36.0032 2030.3611,-34.9317 2031.9936,-41.7387"/>
</g>
<!-- Node17&#45;&gt;Node36 -->
<g id="edge53" class="edge">
<title>Node17&#45;&gt;Node36</title>
<path fill="none" stroke="#191970" d="M1314.2768,-84.3723C1329.8798,-81.899 1346.1719,-79.6137 1361.5,-78 1718.1086,-40.4568 1813.1541,-96.9377 2167.5,-42 2173.5933,-41.0553 2179.8945,-39.8156 2186.1523,-38.4102"/>
<polygon fill="#191970" stroke="#191970" points="2186.9982,-41.8067 2195.9144,-36.0837 2185.3754,-34.9974 2186.9982,-41.8067"/>
</g>
<!-- Node42&#45;&gt;Node26 -->
<g id="edge71" class="edge">
<title>Node42&#45;&gt;Node26</title>
<path fill="none" stroke="#191970" d="M3249.1868,-78.0974C3258.0716,-67.5972 3268.8594,-54.848 3277.9853,-44.0628"/>
<polygon fill="#191970" stroke="#191970" points="3280.7934,-46.1626 3284.581,-36.2679 3275.4497,-41.6409 3280.7934,-46.1626"/>
</g>
<!-- Node42&#45;&gt;Node27 -->
<g id="edge72" class="edge">
<title>Node42&#45;&gt;Node27</title>
<path fill="none" stroke="#191970" d="M3214.0812,-78.0974C3205.331,-67.5972 3194.7067,-54.848 3185.719,-44.0628"/>
<polygon fill="#191970" stroke="#191970" points="3188.3139,-41.7094 3179.2232,-36.2679 3182.9363,-46.1908 3188.3139,-41.7094"/>
</g>
<!-- Node43 -->
<g id="node44" class="node">
<title>Node43</title>
<polygon fill="#ffffff" stroke="#bfbfbf" points="3372,-11.5 3372,-30.5 3429,-30.5 3429,-11.5 3372,-11.5"/>
<text text-anchor="middle" x="3400.5" y="-18.5" font-family="Helvetica,sans-Serif" font-size="10.00" fill="#000000">ostream</text>
</g>
<!-- Node42&#45;&gt;Node43 -->
<g id="edge70" class="edge">
<title>Node42&#45;&gt;Node43</title>
<path fill="none" stroke="#191970" d="M3282.5474,-78.4794C3307.2818,-68.1522 3337.2437,-55.0719 3363.5,-42 3367.4424,-40.0372 3371.5555,-37.8496 3375.5459,-35.6483"/>
<polygon fill="#191970" stroke="#191970" points="3377.5148,-38.5558 3384.4962,-30.5865 3374.0688,-32.4627 3377.5148,-38.5558"/>
</g>
</g>
</svg>
