<?xml version="1.0" encoding="UTF-8" standalone="no"?>
<!DOCTYPE svg PUBLIC "-//W3C//DTD SVG 1.1//EN"
 "http://www.w3.org/Graphics/SVG/1.1/DTD/svg11.dtd">
<!-- Generated by graphviz version 2.40.1 (20161225.0304)
 -->
<!-- Title: tensorflow::tfcompile::anonymous_namespace{compile::cc}::CompileXla Pages: 1 -->
<svg width="498pt" height="47pt"
 viewBox="0.00 0.00 498.49 47.00" xmlns="http://www.w3.org/2000/svg" xmlns:xlink="http://www.w3.org/1999/xlink">
<g id="graph0" class="graph" transform="scale(1 1) rotate(0) translate(4 43)">
<title>tensorflow::tfcompile::anonymous_namespace{compile::cc}::CompileXla</title>
<polygon fill="#ffffff" stroke="transparent" points="-4,4 -4,-43 494.4863,-43 494.4863,4 -4,4"/>
<!-- Node3 -->
<g id="node1" class="node">
<title>Node3</title>
<polygon fill="#bfbfbf" stroke="#000000" points="0,-.5 0,-38.5 130.5166,-38.5 130.5166,-.5 0,-.5"/>
<text text-anchor="start" x="8" y="-26.5" font-family="Helvetica,sans-Serif" font-size="10.00" fill="#000000">tensorflow::tfcompile</text>
<text text-anchor="start" x="8" y="-16.5" font-family="Helvetica,sans-Serif" font-size="10.00" fill="#000000">::anonymous_namespace</text>
<text text-anchor="middle" x="65.2583" y="-6.5" font-family="Helvetica,sans-Serif" font-size="10.00" fill="#000000">{compile::cc}::CompileXla</text>
</g>
<!-- Node4 -->
<g id="node2" class="node">
<title>Node4</title>
<g id="a_node2"><a xlink:href="../../d7/d38/namespacetensorflow_1_1tfcompile.html#a021cb1c58d938b16dcd998aa8d1fc191" target="_top" xlink:title="Converts the graph into an XLA computation, and compiles the computation. Called by tensorflow::tfcom...">
<polygon fill="#ffffff" stroke="#000000" points="166.5166,-5.5 166.5166,-33.5 273.6641,-33.5 273.6641,-5.5 166.5166,-5.5"/>
<text text-anchor="start" x="174.5166" y="-21.5" font-family="Helvetica,sans-Serif" font-size="10.00" fill="#000000">tensorflow::tfcompile</text>
<text text-anchor="middle" x="220.0903" y="-11.5" font-family="Helvetica,sans-Serif" font-size="10.00" fill="#000000">::CompileGraph</text>
</a>
</g>
</g>
<!-- Node3&#45;&gt;Node4 -->
<g id="edge1" class="edge">
<title>Node3&#45;&gt;Node4</title>
<path fill="none" stroke="#191970" d="M140.9991,-19.5C149.6168,-19.5 158.2621,-19.5 166.5078,-19.5"/>
<polygon fill="#191970" stroke="#191970" points="140.9211,-16.0001 130.921,-19.5 140.921,-23.0001 140.9211,-16.0001"/>
</g>
<!-- Node5 -->
<g id="node3" class="node">
<title>Node5</title>
<g id="a_node3"><a xlink:href="../../d7/d38/namespacetensorflow_1_1tfcompile.html#a460964a5bb277865d1275fe3746132c1" target="_top" xlink:title="tensorflow::tfcompile\l::Main">
<polygon fill="#ffffff" stroke="#000000" points="309.6641,-5.5 309.6641,-33.5 416.8115,-33.5 416.8115,-5.5 309.6641,-5.5"/>
<text text-anchor="start" x="317.6641" y="-21.5" font-family="Helvetica,sans-Serif" font-size="10.00" fill="#000000">tensorflow::tfcompile</text>
<text text-anchor="middle" x="363.2378" y="-11.5" font-family="Helvetica,sans-Serif" font-size="10.00" fill="#000000">::Main</text>
</a>
</g>
</g>
<!-- Node4&#45;&gt;Node5 -->
<g id="edge2" class="edge">
<title>Node4&#45;&gt;Node5</title>
<path fill="none" stroke="#191970" d="M283.98,-19.5C292.4101,-19.5 300.984,-19.5 309.2267,-19.5"/>
<polygon fill="#191970" stroke="#191970" points="283.8005,-16.0001 273.8004,-19.5 283.8004,-23.0001 283.8005,-16.0001"/>
</g>
<!-- Node6 -->
<g id="node4" class="node">
<title>Node6</title>
<g id="a_node4"><a xlink:href="../../d4/d8d/tfcompile__main_8cc.html#a3c04138a5bfe5d72780bb7e82a18e627" target="_top" xlink:title="main">
<polygon fill="#ffffff" stroke="#000000" points="452.8115,-10.5 452.8115,-28.5 490.4863,-28.5 490.4863,-10.5 452.8115,-10.5"/>
<text text-anchor="middle" x="471.6489" y="-16.5" font-family="Helvetica,sans-Serif" font-size="10.00" fill="#000000">main</text>
</a>
</g>
</g>
<!-- Node5&#45;&gt;Node6 -->
<g id="edge3" class="edge">
<title>Node5&#45;&gt;Node6</title>
<path fill="none" stroke="#191970" d="M427.241,-19.5C436.4699,-19.5 445.3069,-19.5 452.6333,-19.5"/>
<polygon fill="#191970" stroke="#191970" points="427.1258,-16.0001 417.1258,-19.5 427.1257,-23.0001 427.1258,-16.0001"/>
</g>
</g>
</svg>
