<?xml version="1.0" encoding="UTF-8" standalone="no"?>
<!DOCTYPE svg PUBLIC "-//W3C//DTD SVG 1.1//EN"
 "http://www.w3.org/Graphics/SVG/1.1/DTD/svg11.dtd">
<!-- Generated by graphviz version 2.40.1 (20161225.0304)
 -->
<!-- Title: tensorflow/tensorflow/compiler/tf2xla/tf2xla_util.h Pages: 1 -->
<svg width="664pt" height="128pt"
 viewBox="0.00 0.00 663.50 128.00" xmlns="http://www.w3.org/2000/svg" xmlns:xlink="http://www.w3.org/1999/xlink">
<g id="graph0" class="graph" transform="scale(1 1) rotate(0) translate(4 124)">
<title>tensorflow/tensorflow/compiler/tf2xla/tf2xla_util.h</title>
<polygon fill="#ffffff" stroke="transparent" points="-4,4 -4,-124 659.5,-124 659.5,4 -4,4"/>
<!-- Node7 -->
<g id="node1" class="node">
<title>Node7</title>
<polygon fill="#bfbfbf" stroke="#000000" points="282.5,-78.5 282.5,-119.5 392.5,-119.5 392.5,-78.5 282.5,-78.5"/>
<text text-anchor="start" x="290.5" y="-107.5" font-family="Helvetica,sans-Serif" font-size="10.00" fill="#000000">tensorflow/tensorflow</text>
<text text-anchor="start" x="290.5" y="-96.5" font-family="Helvetica,sans-Serif" font-size="10.00" fill="#000000">/compiler/tf2xla/tf2xla</text>
<text text-anchor="middle" x="337.5" y="-85.5" font-family="Helvetica,sans-Serif" font-size="10.00" fill="#000000">_util.h</text>
</g>
<!-- Node8 -->
<g id="node2" class="node">
<title>Node8</title>
<g id="a_node2"><a xlink:href="../../d6/d17/compile_8cc.html" target="_top" xlink:title="tensorflow/tensorflow\l/compiler/aot/compile.cc">
<polygon fill="#ffffff" stroke="#000000" points="0,-6 0,-36 123,-36 123,-6 0,-6"/>
<text text-anchor="start" x="8" y="-24" font-family="Helvetica,sans-Serif" font-size="10.00" fill="#000000">tensorflow/tensorflow</text>
<text text-anchor="middle" x="61.5" y="-13" font-family="Helvetica,sans-Serif" font-size="10.00" fill="#000000">/compiler/aot/compile.cc</text>
</a>
</g>
</g>
<!-- Node7&#45;&gt;Node8 -->
<g id="edge1" class="edge">
<title>Node7&#45;&gt;Node8</title>
<path fill="none" stroke="#191970" d="M272.4677,-81.2104C232.1243,-70.102 179.2448,-55.4106 132.5,-42 125.8279,-40.0858 118.8114,-38.0448 111.8928,-36.0156"/>
<polygon fill="#191970" stroke="#191970" points="271.6106,-84.6046 282.1808,-83.8824 273.4673,-77.8553 271.6106,-84.6046"/>
</g>
<!-- Node9 -->
<g id="node3" class="node">
<title>Node9</title>
<g id="a_node3"><a xlink:href="../../d4/d8d/tfcompile__main_8cc.html" target="_top" xlink:title="tensorflow/tensorflow\l/compiler/aot/tfcompile\l_main.cc">
<polygon fill="#ffffff" stroke="#000000" points="141.5,-.5 141.5,-41.5 257.5,-41.5 257.5,-.5 141.5,-.5"/>
<text text-anchor="start" x="149.5" y="-29.5" font-family="Helvetica,sans-Serif" font-size="10.00" fill="#000000">tensorflow/tensorflow</text>
<text text-anchor="start" x="149.5" y="-18.5" font-family="Helvetica,sans-Serif" font-size="10.00" fill="#000000">/compiler/aot/tfcompile</text>
<text text-anchor="middle" x="199.5" y="-7.5" font-family="Helvetica,sans-Serif" font-size="10.00" fill="#000000">_main.cc</text>
</a>
</g>
</g>
<!-- Node7&#45;&gt;Node9 -->
<g id="edge2" class="edge">
<title>Node7&#45;&gt;Node9</title>
<path fill="none" stroke="#191970" d="M292.1365,-73.3597C273.8578,-63.0283 253.0621,-51.2742 235.8114,-41.5239"/>
<polygon fill="#191970" stroke="#191970" points="290.453,-76.4286 300.8808,-78.3022 293.8974,-70.3346 290.453,-76.4286"/>
</g>
<!-- Node10 -->
<g id="node4" class="node">
<title>Node10</title>
<g id="a_node4"><a xlink:href="../../d8/db8/tf2xla_8cc.html" target="_top" xlink:title="tensorflow/tensorflow\l/compiler/tf2xla/tf2xla.cc">
<polygon fill="#ffffff" stroke="#000000" points="275.5,-6 275.5,-36 399.5,-36 399.5,-6 275.5,-6"/>
<text text-anchor="start" x="283.5" y="-24" font-family="Helvetica,sans-Serif" font-size="10.00" fill="#000000">tensorflow/tensorflow</text>
<text text-anchor="middle" x="337.5" y="-13" font-family="Helvetica,sans-Serif" font-size="10.00" fill="#000000">/compiler/tf2xla/tf2xla.cc</text>
</a>
</g>
</g>
<!-- Node7&#45;&gt;Node10 -->
<g id="edge3" class="edge">
<title>Node7&#45;&gt;Node10</title>
<path fill="none" stroke="#191970" d="M337.5,-68.0187C337.5,-57.1033 337.5,-45.3119 337.5,-36.2679"/>
<polygon fill="#191970" stroke="#191970" points="334.0001,-68.0974 337.5,-78.0974 341.0001,-68.0975 334.0001,-68.0974"/>
</g>
<!-- Node11 -->
<g id="node5" class="node">
<title>Node11</title>
<g id="a_node5"><a xlink:href="../../d1/d60/tf2xla__util_8cc.html" target="_top" xlink:title="tensorflow/tensorflow\l/compiler/tf2xla/tf2xla\l_util.cc">
<polygon fill="#ffffff" stroke="#000000" points="417.5,-.5 417.5,-41.5 527.5,-41.5 527.5,-.5 417.5,-.5"/>
<text text-anchor="start" x="425.5" y="-29.5" font-family="Helvetica,sans-Serif" font-size="10.00" fill="#000000">tensorflow/tensorflow</text>
<text text-anchor="start" x="425.5" y="-18.5" font-family="Helvetica,sans-Serif" font-size="10.00" fill="#000000">/compiler/tf2xla/tf2xla</text>
<text text-anchor="middle" x="472.5" y="-7.5" font-family="Helvetica,sans-Serif" font-size="10.00" fill="#000000">_util.cc</text>
</a>
</g>
</g>
<!-- Node7&#45;&gt;Node11 -->
<g id="edge4" class="edge">
<title>Node7&#45;&gt;Node11</title>
<path fill="none" stroke="#191970" d="M382.3657,-73.0776C400.1282,-62.8148 420.2558,-51.1856 436.9779,-41.5239"/>
<polygon fill="#191970" stroke="#191970" points="380.2308,-70.2689 373.3231,-78.3022 383.7327,-76.3299 380.2308,-70.2689"/>
</g>
<!-- Node12 -->
<g id="node6" class="node">
<title>Node12</title>
<g id="a_node6"><a xlink:href="../../d5/d88/xla__compiler_8cc.html" target="_top" xlink:title="tensorflow/tensorflow\l/compiler/tf2xla/xla\l_compiler.cc">
<polygon fill="#ffffff" stroke="#000000" points="545.5,-.5 545.5,-41.5 655.5,-41.5 655.5,-.5 545.5,-.5"/>
<text text-anchor="start" x="553.5" y="-29.5" font-family="Helvetica,sans-Serif" font-size="10.00" fill="#000000">tensorflow/tensorflow</text>
<text text-anchor="start" x="553.5" y="-18.5" font-family="Helvetica,sans-Serif" font-size="10.00" fill="#000000">/compiler/tf2xla/xla</text>
<text text-anchor="middle" x="600.5" y="-7.5" font-family="Helvetica,sans-Serif" font-size="10.00" fill="#000000">_compiler.cc</text>
</a>
</g>
</g>
<!-- Node7&#45;&gt;Node12 -->
<g id="edge5" class="edge">
<title>Node7&#45;&gt;Node12</title>
<path fill="none" stroke="#191970" d="M402.2257,-81.1332C441.2331,-70.1986 491.8453,-55.716 536.5,-42 539.4064,-41.1073 542.3826,-40.1793 545.3845,-39.2324"/>
<polygon fill="#191970" stroke="#191970" points="401.2569,-77.7698 392.5693,-83.8341 403.1425,-84.511 401.2569,-77.7698"/>
</g>
</g>
</svg>
