<?xml version="1.0" encoding="UTF-8" standalone="no"?>
<!DOCTYPE svg PUBLIC "-//W3C//DTD SVG 1.1//EN"
 "http://www.w3.org/Graphics/SVG/1.1/DTD/svg11.dtd">
<!-- Generated by graphviz version 2.40.1 (20161225.0304)
 -->
<!-- Title: tensorflow/tensorflow/compiler/xla/service/tuple_simplifier.cc Pages: 1 -->
<!--zoomable 195 -->
<svg id="main" version="1.1" xmlns="http://www.w3.org/2000/svg" xmlns:xlink="http://www.w3.org/1999/xlink" xml:space="preserve" onload="init(evt)">
<style type="text/css"><![CDATA[
.edge:hover path { stroke: red; }
.edge:hover polygon { stroke: red; fill: red; }
]]></style>
<script type="text/javascript"><![CDATA[
var edges = document.getElementsByTagName('g');
if (edges && edges.length) {
  for (var i=0;i<edges.length;i++) {
    if (edges[i].id.substr(0,4)=='edge') {
      edges[i].setAttribute('class','edge');
    }
  }
}
]]></script>
        <defs>
                <circle id="rim" cx="0" cy="0" r="7"/>
                <circle id="rim2" cx="0" cy="0" r="3.5"/>
                <g id="zoomPlus">
                        <use xlink:href="#rim" fill="#404040">
                                <set attributeName="fill" to="#808080" begin="zoomplus.mouseover" end="zoomplus.mouseout"/>
                        </use>
                        <path d="M-4,0h8M0,-4v8" fill="none" stroke="white" stroke-width="1.5" pointer-events="none"/>
                </g>
                <g id="zoomMin">
                        <use xlink:href="#rim" fill="#404040">
                                <set attributeName="fill" to="#808080" begin="zoomminus.mouseover" end="zoomminus.mouseout"/>
                        </use>
                        <path d="M-4,0h8" fill="none" stroke="white" stroke-width="1.5" pointer-events="none"/>
                </g>
                <g id="dirArrow">
                        <path fill="none" stroke="white" stroke-width="1.5" d="M0,-3.0v7 M-2.5,-0.5L0,-3.0L2.5,-0.5"/>
                </g>
               <g id="resetDef">
                       <use xlink:href="#rim2" fill="#404040">
                               <set attributeName="fill" to="#808080" begin="reset.mouseover" end="reset.mouseout"/>
                       </use>
               </g>
        </defs>

<script type="text/javascript">
var viewWidth = 1608;
var viewHeight = 195;
var sectionId = 'dynsection-0';
</script>
<script xlink:href="../../svgpan.js"/>
<svg id="graph" class="graph">
<g id="viewport">
<title>tensorflow/tensorflow/compiler/xla/service/tuple_simplifier.cc</title>
<polygon fill="#ffffff" stroke="transparent" points="-4,4 -4,-191 1604,-191 1604,4 -4,4"/>
<!-- Node0 -->
<g id="node1" class="node">
<title>Node0</title>
<polygon fill="#bfbfbf" stroke="#000000" points="805,-145.5 805,-186.5 915,-186.5 915,-145.5 805,-145.5"/>
<text text-anchor="start" x="813" y="-174.5" font-family="Helvetica,sans-Serif" font-size="10.00" fill="#000000">tensorflow/tensorflow</text>
<text text-anchor="start" x="813" y="-163.5" font-family="Helvetica,sans-Serif" font-size="10.00" fill="#000000">/compiler/xla/service</text>
<text text-anchor="middle" x="860" y="-152.5" font-family="Helvetica,sans-Serif" font-size="10.00" fill="#000000">/tuple_simplifier.cc</text>
</g>
<!-- Node1 -->
<g id="node2" class="node">
<title>Node1</title>
<g id="a_node2"><a xlink:href="../../df/dc6/tuple__simplifier_8h.html" target="_top" xlink:title="tensorflow/compiler\l/xla/service/tuple_simplifier.h">
<polygon fill="#ffffff" stroke="#000000" points="50.5,-78.5 50.5,-108.5 193.5,-108.5 193.5,-78.5 50.5,-78.5"/>
<text text-anchor="start" x="58.5" y="-96.5" font-family="Helvetica,sans-Serif" font-size="10.00" fill="#000000">tensorflow/compiler</text>
<text text-anchor="middle" x="122" y="-85.5" font-family="Helvetica,sans-Serif" font-size="10.00" fill="#000000">/xla/service/tuple_simplifier.h</text>
</a>
</g>
</g>
<!-- Node0&#45;&gt;Node1 -->
<g id="edge1" class="edge">
<title>Node0&#45;&gt;Node1</title>
<path fill="none" stroke="#191970" d="M804.8437,-163.1303C693.2899,-156.9112 432.7702,-140.2837 204.1019,-109.0622"/>
<polygon fill="#191970" stroke="#191970" points="204.3095,-105.5578 193.9253,-107.6601 203.354,-112.4923 204.3095,-105.5578"/>
</g>
<!-- Node5 -->
<g id="node6" class="node">
<title>Node5</title>
<polygon fill="#ffffff" stroke="#bfbfbf" points="211.5,-84 211.5,-103 254.5,-103 254.5,-84 211.5,-84"/>
<text text-anchor="middle" x="233" y="-91" font-family="Helvetica,sans-Serif" font-size="10.00" fill="#000000">queue</text>
</g>
<!-- Node0&#45;&gt;Node5 -->
<g id="edge5" class="edge">
<title>Node0&#45;&gt;Node5</title>
<path fill="none" stroke="#191970" d="M804.627,-163.3027C676.8788,-156.6613 364.7849,-137.9263 264,-109 262.2902,-108.5093 260.5619,-107.9252 258.8422,-107.2758"/>
<polygon fill="#191970" stroke="#191970" points="259.8356,-103.888 249.2749,-103.039 257.0011,-110.2885 259.8356,-103.888"/>
</g>
<!-- Node6 -->
<g id="node7" class="node">
<title>Node6</title>
<polygon fill="#ffffff" stroke="#bfbfbf" points="272.5,-78.5 272.5,-108.5 421.5,-108.5 421.5,-78.5 272.5,-78.5"/>
<text text-anchor="start" x="280.5" y="-96.5" font-family="Helvetica,sans-Serif" font-size="10.00" fill="#000000">tensorflow/compiler</text>
<text text-anchor="middle" x="347" y="-85.5" font-family="Helvetica,sans-Serif" font-size="10.00" fill="#000000">/xla/service/hlo_computation.h</text>
</g>
<!-- Node0&#45;&gt;Node6 -->
<g id="edge6" class="edge">
<title>Node0&#45;&gt;Node6</title>
<path fill="none" stroke="#191970" d="M804.6779,-159.5533C724.7556,-150.0402 572.125,-131.1261 431.7091,-109.0648"/>
<polygon fill="#191970" stroke="#191970" points="432.0452,-105.5746 421.6215,-107.4711 430.9527,-112.4888 432.0452,-105.5746"/>
</g>
<!-- Node7 -->
<g id="node8" class="node">
<title>Node7</title>
<polygon fill="#ffffff" stroke="#bfbfbf" points="439.5,-78.5 439.5,-108.5 580.5,-108.5 580.5,-78.5 439.5,-78.5"/>
<text text-anchor="start" x="447.5" y="-96.5" font-family="Helvetica,sans-Serif" font-size="10.00" fill="#000000">tensorflow/compiler</text>
<text text-anchor="middle" x="510" y="-85.5" font-family="Helvetica,sans-Serif" font-size="10.00" fill="#000000">/xla/service/hlo_instruction.h</text>
</g>
<!-- Node0&#45;&gt;Node7 -->
<g id="edge7" class="edge">
<title>Node0&#45;&gt;Node7</title>
<path fill="none" stroke="#191970" d="M804.9275,-154.5921C747.3395,-142.6632 656.3668,-123.8188 590.6789,-110.2121"/>
<polygon fill="#191970" stroke="#191970" points="591.2726,-106.7608 580.7705,-108.1596 589.8527,-113.6153 591.2726,-106.7608"/>
</g>
<!-- Node8 -->
<g id="node9" class="node">
<title>Node8</title>
<polygon fill="#ffffff" stroke="#bfbfbf" points="599,-78.5 599,-108.5 727,-108.5 727,-78.5 599,-78.5"/>
<text text-anchor="start" x="607" y="-96.5" font-family="Helvetica,sans-Serif" font-size="10.00" fill="#000000">tensorflow/compiler</text>
<text text-anchor="middle" x="663" y="-85.5" font-family="Helvetica,sans-Serif" font-size="10.00" fill="#000000">/xla/service/hlo_opcode.h</text>
</g>
<!-- Node0&#45;&gt;Node8 -->
<g id="edge8" class="edge">
<title>Node0&#45;&gt;Node8</title>
<path fill="none" stroke="#191970" d="M804.8626,-145.7083C776.2506,-135.1785 741.5398,-122.4042 713.6148,-112.1273"/>
<polygon fill="#191970" stroke="#191970" points="714.635,-108.7733 704.0415,-108.6041 712.2173,-115.3425 714.635,-108.7733"/>
</g>
<!-- Node9 -->
<g id="node10" class="node">
<title>Node9</title>
<polygon fill="#ffffff" stroke="#bfbfbf" points="745,-78.5 745,-108.5 853,-108.5 853,-78.5 745,-78.5"/>
<text text-anchor="start" x="753" y="-96.5" font-family="Helvetica,sans-Serif" font-size="10.00" fill="#000000">tensorflow/compiler</text>
<text text-anchor="middle" x="799" y="-85.5" font-family="Helvetica,sans-Serif" font-size="10.00" fill="#000000">/xla/status_macros.h</text>
</g>
<!-- Node0&#45;&gt;Node9 -->
<g id="edge9" class="edge">
<title>Node0&#45;&gt;Node9</title>
<path fill="none" stroke="#191970" d="M842.683,-145.4183C835.055,-136.3522 826.0647,-125.6671 818.2292,-116.3544"/>
<polygon fill="#191970" stroke="#191970" points="820.8204,-113.9976 811.7041,-108.5991 815.4641,-118.5043 820.8204,-113.9976"/>
</g>
<!-- Node10 -->
<g id="node11" class="node">
<title>Node10</title>
<polygon fill="#ffffff" stroke="#bfbfbf" points="871.5,-78.5 871.5,-108.5 972.5,-108.5 972.5,-78.5 871.5,-78.5"/>
<text text-anchor="start" x="879.5" y="-96.5" font-family="Helvetica,sans-Serif" font-size="10.00" fill="#000000">tensorflow/compiler</text>
<text text-anchor="middle" x="922" y="-85.5" font-family="Helvetica,sans-Serif" font-size="10.00" fill="#000000">/xla/types.h</text>
</g>
<!-- Node0&#45;&gt;Node10 -->
<g id="edge10" class="edge">
<title>Node0&#45;&gt;Node10</title>
<path fill="none" stroke="#191970" d="M877.6009,-145.4183C885.3539,-136.3522 894.4916,-125.6671 902.4555,-116.3544"/>
<polygon fill="#191970" stroke="#191970" points="905.2483,-118.4738 909.0877,-108.5991 899.9284,-113.9243 905.2483,-118.4738"/>
</g>
<!-- Node11 -->
<g id="node12" class="node">
<title>Node11</title>
<polygon fill="#ffffff" stroke="#bfbfbf" points="990.5,-78.5 990.5,-108.5 1091.5,-108.5 1091.5,-78.5 990.5,-78.5"/>
<text text-anchor="start" x="998.5" y="-96.5" font-family="Helvetica,sans-Serif" font-size="10.00" fill="#000000">tensorflow/compiler</text>
<text text-anchor="middle" x="1041" y="-85.5" font-family="Helvetica,sans-Serif" font-size="10.00" fill="#000000">/xla/util.h</text>
</g>
<!-- Node0&#45;&gt;Node11 -->
<g id="edge11" class="edge">
<title>Node0&#45;&gt;Node11</title>
<path fill="none" stroke="#191970" d="M911.3832,-145.4183C937.3322,-135.0244 968.5942,-122.5023 993.9145,-112.3602"/>
<polygon fill="#191970" stroke="#191970" points="995.3227,-115.5665 1003.3043,-108.5991 992.7199,-109.0684 995.3227,-115.5665"/>
</g>
<!-- Node12 -->
<g id="node13" class="node">
<title>Node12</title>
<polygon fill="#ffffff" stroke="#bfbfbf" points="1110,-78.5 1110,-108.5 1206,-108.5 1206,-78.5 1110,-78.5"/>
<text text-anchor="start" x="1118" y="-96.5" font-family="Helvetica,sans-Serif" font-size="10.00" fill="#000000">tensorflow/core/lib</text>
<text text-anchor="middle" x="1158" y="-85.5" font-family="Helvetica,sans-Serif" font-size="10.00" fill="#000000">/core/errors.h</text>
</g>
<!-- Node0&#45;&gt;Node12 -->
<g id="edge12" class="edge">
<title>Node0&#45;&gt;Node12</title>
<path fill="none" stroke="#191970" d="M915.1646,-153.5022C961.8968,-142.7899 1030.9119,-126.6778 1100.0704,-109.1959"/>
<polygon fill="#191970" stroke="#191970" points="1100.9954,-112.5721 1109.8276,-106.7204 1099.274,-105.7871 1100.9954,-112.5721"/>
</g>
<!-- Node13 -->
<g id="node14" class="node">
<title>Node13</title>
<polygon fill="#ffffff" stroke="#bfbfbf" points="1224,-78.5 1224,-108.5 1320,-108.5 1320,-78.5 1224,-78.5"/>
<text text-anchor="start" x="1232" y="-96.5" font-family="Helvetica,sans-Serif" font-size="10.00" fill="#000000">tensorflow/core/lib</text>
<text text-anchor="middle" x="1272" y="-85.5" font-family="Helvetica,sans-Serif" font-size="10.00" fill="#000000">/core/status.h</text>
</g>
<!-- Node0&#45;&gt;Node13 -->
<g id="edge13" class="edge">
<title>Node0&#45;&gt;Node13</title>
<path fill="none" stroke="#191970" d="M915.0711,-159.0068C983.0967,-149.9582 1102.4884,-132.7412 1213.8287,-109.1255"/>
<polygon fill="#191970" stroke="#191970" points="1214.8418,-112.4879 1223.8862,-106.9698 1213.3747,-105.6434 1214.8418,-112.4879"/>
</g>
<!-- Node14 -->
<g id="node15" class="node">
<title>Node14</title>
<polygon fill="#ffffff" stroke="#bfbfbf" points="1338,-78.5 1338,-108.5 1460,-108.5 1460,-78.5 1338,-78.5"/>
<text text-anchor="start" x="1346" y="-96.5" font-family="Helvetica,sans-Serif" font-size="10.00" fill="#000000">tensorflow/core/platform</text>
<text text-anchor="middle" x="1399" y="-85.5" font-family="Helvetica,sans-Serif" font-size="10.00" fill="#000000">/logging.h</text>
</g>
<!-- Node0&#45;&gt;Node14 -->
<g id="edge14" class="edge">
<title>Node0&#45;&gt;Node14</title>
<path fill="none" stroke="#191970" d="M915.1263,-161.0488C1001.1472,-152.9389 1172.6661,-135.2304 1327.7922,-109.1085"/>
<polygon fill="#191970" stroke="#191970" points="1328.7133,-112.5022 1337.9853,-107.3758 1327.5401,-105.6012 1328.7133,-112.5022"/>
</g>
<!-- Node15 -->
<g id="node16" class="node">
<title>Node15</title>
<polygon fill="#ffffff" stroke="#bfbfbf" points="1478,-78.5 1478,-108.5 1600,-108.5 1600,-78.5 1478,-78.5"/>
<text text-anchor="start" x="1486" y="-96.5" font-family="Helvetica,sans-Serif" font-size="10.00" fill="#000000">tensorflow/core/platform</text>
<text text-anchor="middle" x="1539" y="-85.5" font-family="Helvetica,sans-Serif" font-size="10.00" fill="#000000">/types.h</text>
</g>
<!-- Node0&#45;&gt;Node15 -->
<g id="edge15" class="edge">
<title>Node0&#45;&gt;Node15</title>
<path fill="none" stroke="#191970" d="M915.2904,-163.1378C1020.8987,-157.1687 1258.6832,-141.3123 1467.6918,-109.0912"/>
<polygon fill="#191970" stroke="#191970" points="1468.28,-112.5418 1477.6222,-107.5444 1467.2026,-105.6252 1468.28,-112.5418"/>
</g>
<!-- Node2 -->
<g id="node3" class="node">
<title>Node2</title>
<polygon fill="#ffffff" stroke="#bfbfbf" points="0,-11.5 0,-30.5 40,-30.5 40,-11.5 0,-11.5"/>
<text text-anchor="middle" x="20" y="-18.5" font-family="Helvetica,sans-Serif" font-size="10.00" fill="#000000">utility</text>
</g>
<!-- Node1&#45;&gt;Node2 -->
<g id="edge2" class="edge">
<title>Node1&#45;&gt;Node2</title>
<path fill="none" stroke="#191970" d="M100.5493,-78.4711C85.978,-68.2365 66.2869,-54.3561 49,-42 46.5821,-40.2717 44.0557,-38.4565 41.5458,-36.6471"/>
<polygon fill="#191970" stroke="#191970" points="43.4113,-33.6768 33.2572,-30.6525 39.309,-39.3489 43.4113,-33.6768"/>
</g>
<!-- Node3 -->
<g id="node4" class="node">
<title>Node3</title>
<polygon fill="#ffffff" stroke="#bfbfbf" points="58,-6 58,-36 186,-36 186,-6 58,-6"/>
<text text-anchor="start" x="66" y="-24" font-family="Helvetica,sans-Serif" font-size="10.00" fill="#000000">tensorflow/compiler</text>
<text text-anchor="middle" x="122" y="-13" font-family="Helvetica,sans-Serif" font-size="10.00" fill="#000000">/xla/service/hlo_module.h</text>
</g>
<!-- Node1&#45;&gt;Node3 -->
<g id="edge3" class="edge">
<title>Node1&#45;&gt;Node3</title>
<path fill="none" stroke="#191970" d="M122,-78.478C122,-69.1459 122,-56.9157 122,-46.1368"/>
<polygon fill="#191970" stroke="#191970" points="125.5001,-46.0028 122,-36.0028 118.5001,-46.0028 125.5001,-46.0028"/>
</g>
<!-- Node4 -->
<g id="node5" class="node">
<title>Node4</title>
<polygon fill="#ffffff" stroke="#bfbfbf" points="204.5,-.5 204.5,-41.5 313.5,-41.5 313.5,-.5 204.5,-.5"/>
<text text-anchor="start" x="212.5" y="-29.5" font-family="Helvetica,sans-Serif" font-size="10.00" fill="#000000">tensorflow/compiler</text>
<text text-anchor="start" x="212.5" y="-18.5" font-family="Helvetica,sans-Serif" font-size="10.00" fill="#000000">/xla/service/hlo_pass</text>
<text text-anchor="middle" x="259" y="-7.5" font-family="Helvetica,sans-Serif" font-size="10.00" fill="#000000">_interface.h</text>
</g>
<!-- Node1&#45;&gt;Node4 -->
<g id="edge4" class="edge">
<title>Node1&#45;&gt;Node4</title>
<path fill="none" stroke="#191970" d="M150.3865,-78.478C167.9217,-69.1984 190.8719,-57.0532 211.1561,-46.3189"/>
<polygon fill="#191970" stroke="#191970" points="213.0577,-49.2725 220.2592,-41.5015 209.7834,-43.0854 213.0577,-49.2725"/>
</g>
</g>
</svg>
        <g id="navigator" transform="translate(0 0)" fill="#404254">
                <rect fill="#f2f5e9" fill-opacity="0.5" stroke="#606060" stroke-width=".5" x="0" y="0" width="60" height="60"/>
                <use id="zoomplus" xlink:href="#zoomPlus" x="17" y="9" onmousedown="handleZoom(evt,'in')"/>
                <use id="zoomminus" xlink:href="#zoomMin" x="42" y="9" onmousedown="handleZoom(evt,'out')"/>
                <use id="reset" xlink:href="#resetDef" x="30" y="36" onmousedown="handleReset()"/>
                <g id="arrowUp" xlink:href="#dirArrow" transform="translate(30 24)" onmousedown="handlePan(0,-1)">
                  <use xlink:href="#rim" fill="#404040">
                        <set attributeName="fill" to="#808080" begin="arrowUp.mouseover" end="arrowUp.mouseout"/>
                  </use>
                  <path fill="none" stroke="white" stroke-width="1.5" d="M0,-3.0v7 M-2.5,-0.5L0,-3.0L2.5,-0.5"/>
                </g>
                <g id="arrowRight" xlink:href="#dirArrow" transform="rotate(90) translate(36 -43)" onmousedown="handlePan(1,0)">
                  <use xlink:href="#rim" fill="#404040">
                        <set attributeName="fill" to="#808080" begin="arrowRight.mouseover" end="arrowRight.mouseout"/>
                  </use>
                  <path fill="none" stroke="white" stroke-width="1.5" d="M0,-3.0v7 M-2.5,-0.5L0,-3.0L2.5,-0.5"/>
                </g>
                <g id="arrowDown" xlink:href="#dirArrow" transform="rotate(180) translate(-30 -48)" onmousedown="handlePan(0,1)">
                  <use xlink:href="#rim" fill="#404040">
                        <set attributeName="fill" to="#808080" begin="arrowDown.mouseover" end="arrowDown.mouseout"/>
                  </use>
                  <path fill="none" stroke="white" stroke-width="1.5" d="M0,-3.0v7 M-2.5,-0.5L0,-3.0L2.5,-0.5"/>
                </g>
                <g id="arrowLeft" xlink:href="#dirArrow" transform="rotate(270) translate(-36 17)" onmousedown="handlePan(-1,0)">
                  <use xlink:href="#rim" fill="#404040">
                        <set attributeName="fill" to="#808080" begin="arrowLeft.mouseover" end="arrowLeft.mouseout"/>
                  </use>
                  <path fill="none" stroke="white" stroke-width="1.5" d="M0,-3.0v7 M-2.5,-0.5L0,-3.0L2.5,-0.5"/>
                </g>
        </g>
        <svg viewBox="0 0 15 15" width="100%" height="30px" preserveAspectRatio="xMaxYMin meet">
         <g id="arrow_out" transform="scale(0.3 0.3)">
          <a xlink:href="tuple__simplifier_8cc__incl_org.svg" target="_base">
           <rect id="button" ry="5" rx="5" y="6" x="6" height="38" width="38"
                fill="#f2f5e9" fill-opacity="0.5" stroke="#606060" stroke-width="1.0"/>
           <path id="arrow"
             d="M 11.500037,31.436501 C 11.940474,20.09759 22.043105,11.32322 32.158766,21.979434 L 37.068811,17.246167 C 37.068811,17.246167 37.088388,32 37.088388,32 L 22.160133,31.978069 C 22.160133,31.978069 26.997745,27.140456 26.997745,27.140456 C 18.528582,18.264221 13.291696,25.230495 11.500037,31.436501 z"
             style="fill:#404040;"/>
          </a>
         </g>
        </svg>
</svg>
