<?xml version="1.0" encoding="UTF-8" standalone="no"?>
<!DOCTYPE svg PUBLIC "-//W3C//DTD SVG 1.1//EN"
 "http://www.w3.org/Graphics/SVG/1.1/DTD/svg11.dtd">
<!-- Generated by graphviz version 2.38.0 (20140413.2041)
 -->
<!-- Title: tensorflow/tensorflow/compiler/aot/compile.h Pages: 1 -->
<!--zoomable 329 -->
<svg id="main" version="1.1" xmlns="http://www.w3.org/2000/svg" xmlns:xlink="http://www.w3.org/1999/xlink" xml:space="preserve" onload="init(evt)">
<style type="text/css"><![CDATA[
.edge:hover path { stroke: red; }
.edge:hover polygon { stroke: red; fill: red; }
]]></style>
<script type="text/javascript"><![CDATA[
var edges = document.getElementsByTagName('g');
if (edges && edges.length) {
  for (var i=0;i<edges.length;i++) {
    if (edges[i].id.substr(0,4)=='edge') {
      edges[i].setAttribute('class','edge');
    }
  }
}
]]></script>
        <defs>
                <circle id="rim" cx="0" cy="0" r="7"/>
                <circle id="rim2" cx="0" cy="0" r="3.5"/>
                <g id="zoomPlus">
                        <use xlink:href="#rim" fill="#404040">
                                <set attributeName="fill" to="#808080" begin="zoomplus.mouseover" end="zoomplus.mouseout"/>
                        </use>
                        <path d="M-4,0h8M0,-4v8" fill="none" stroke="white" stroke-width="1.5" pointer-events="none"/>
                </g>
                <g id="zoomMin">
                        <use xlink:href="#rim" fill="#404040">
                                <set attributeName="fill" to="#808080" begin="zoomminus.mouseover" end="zoomminus.mouseout"/>
                        </use>
                        <path d="M-4,0h8" fill="none" stroke="white" stroke-width="1.5" pointer-events="none"/>
                </g>
                <g id="dirArrow">
                        <path fill="none" stroke="white" stroke-width="1.5" d="M0,-3.0v7 M-2.5,-0.5L0,-3.0L2.5,-0.5"/>
                </g>
               <g id="resetDef">
                       <use xlink:href="#rim2" fill="#404040">
                               <set attributeName="fill" to="#808080" begin="reset.mouseover" end="reset.mouseout"/>
                       </use>
               </g>
        </defs>

<script type="text/javascript">
var viewWidth = 1590;
var viewHeight = 329;
var sectionId = 'dynsection-0';
</script>
<script xlink:href="../../svgpan.js"/>
<svg id="graph" class="graph">
<g id="viewport">
<title>tensorflow/tensorflow/compiler/aot/compile.h</title>
<polygon fill="white" stroke="none" points="-4,4 -4,-325 1586,-325 1586,4 -4,4"/>
<!-- Node1 -->
<g id="node1" class="node"><title>Node1</title>
<polygon fill="#bfbfbf" stroke="black" points="841.5,-290.5 841.5,-320.5 959.5,-320.5 959.5,-290.5 841.5,-290.5"/>
<text text-anchor="start" x="849.5" y="-308.5" font-family="Helvetica,sans-Serif" font-size="10.00">tensorflow/tensorflow</text>
<text text-anchor="middle" x="900.5" y="-297.5" font-family="Helvetica,sans-Serif" font-size="10.00">/compiler/aot/compile.h</text>
</g>
<!-- Node2 -->
<g id="node2" class="node"><title>Node2</title>
<polygon fill="white" stroke="#bfbfbf" points="59.5,-11.5 59.5,-30.5 111.5,-30.5 111.5,-11.5 59.5,-11.5"/>
<text text-anchor="middle" x="85.5" y="-18.5" font-family="Helvetica,sans-Serif" font-size="10.00">memory</text>
</g>
<!-- Node1&#45;&gt;Node2 -->
<g id="edge1" class="edge"><title>Node1&#45;&gt;Node2</title>
<path fill="none" stroke="midnightblue" d="M841.222,-292.404C722.602,-267.067 448.937,-202.884 233.5,-109 185.631,-88.1394 133.966,-55.085 106.12,-36.2966"/>
<polygon fill="midnightblue" stroke="midnightblue" points="107.864,-33.2497 97.6293,-30.51 103.922,-39.0341 107.864,-33.2497"/>
</g>
<!-- Node3 -->
<g id="node3" class="node"><title>Node3</title>
<polygon fill="white" stroke="#bfbfbf" points="0,-11.5 0,-30.5 41,-30.5 41,-11.5 0,-11.5"/>
<text text-anchor="middle" x="20.5" y="-18.5" font-family="Helvetica,sans-Serif" font-size="10.00">string</text>
</g>
<!-- Node1&#45;&gt;Node3 -->
<g id="edge2" class="edge"><title>Node1&#45;&gt;Node3</title>
<path fill="none" stroke="midnightblue" d="M841.366,-300.78C767.281,-295.141 636.888,-281.971 528.5,-254 361.88,-211.002 323.926,-184.92 169.5,-109 115.031,-82.2216 102.232,-73.7453 50.5,-42 47.5656,-40.1993 44.5074,-38.2492 41.514,-36.297"/>
<polygon fill="midnightblue" stroke="midnightblue" points="43.182,-33.2031 32.9167,-30.5814 39.3066,-39.0324 43.182,-33.2031"/>
</g>
<!-- Node4 -->
<g id="node4" class="node"><title>Node4</title>
<polygon fill="white" stroke="#bfbfbf" points="850,-218 850,-248 951,-248 951,-218 850,-218"/>
<text text-anchor="start" x="858" y="-236" font-family="Helvetica,sans-Serif" font-size="10.00">tensorflow/compiler</text>
<text text-anchor="middle" x="900.5" y="-225" font-family="Helvetica,sans-Serif" font-size="10.00">/aot/flags.h</text>
</g>
<!-- Node1&#45;&gt;Node4 -->
<g id="edge3" class="edge"><title>Node1&#45;&gt;Node4</title>
<path fill="none" stroke="midnightblue" d="M900.5,-290.233C900.5,-281.155 900.5,-269.158 900.5,-258.577"/>
<polygon fill="midnightblue" stroke="midnightblue" points="904,-258.245 900.5,-248.246 897,-258.246 904,-258.245"/>
</g>
<!-- Node5 -->
<g id="node5" class="node"><title>Node5</title>
<polygon fill="white" stroke="#bfbfbf" points="969,-218 969,-248 1070,-248 1070,-218 969,-218"/>
<text text-anchor="start" x="977" y="-236" font-family="Helvetica,sans-Serif" font-size="10.00">tensorflow/compiler</text>
<text text-anchor="middle" x="1019.5" y="-225" font-family="Helvetica,sans-Serif" font-size="10.00">/tf2xla/tf2xla.pb.h</text>
</g>
<!-- Node1&#45;&gt;Node5 -->
<g id="edge4" class="edge"><title>Node1&#45;&gt;Node5</title>
<path fill="none" stroke="midnightblue" d="M924.295,-290.403C942.294,-279.74 967.209,-264.979 987.037,-253.232"/>
<polygon fill="midnightblue" stroke="midnightblue" points="988.926,-256.181 995.746,-248.073 985.358,-250.159 988.926,-256.181"/>
</g>
<!-- Node6 -->
<g id="node6" class="node"><title>Node6</title>
<g id="a_node6"><a xlink:href="../../db/de2/cpu__compiler_8h_source.html" target="_top" xlink:title="tensorflow/compiler\l/xla/service/cpu/cpu\l_compiler.h">
<polygon fill="white" stroke="black" points="727.5,-212.5 727.5,-253.5 831.5,-253.5 831.5,-212.5 727.5,-212.5"/>
<text text-anchor="start" x="735.5" y="-241.5" font-family="Helvetica,sans-Serif" font-size="10.00">tensorflow/compiler</text>
<text text-anchor="start" x="735.5" y="-230.5" font-family="Helvetica,sans-Serif" font-size="10.00">/xla/service/cpu/cpu</text>
<text text-anchor="middle" x="779.5" y="-219.5" font-family="Helvetica,sans-Serif" font-size="10.00">_compiler.h</text>
</a>
</g>
</g>
<!-- Node1&#45;&gt;Node6 -->
<g id="edge5" class="edge"><title>Node1&#45;&gt;Node6</title>
<path fill="none" stroke="midnightblue" d="M876.305,-290.403C860.776,-281.355 840.185,-269.358 821.986,-258.754"/>
<polygon fill="midnightblue" stroke="midnightblue" points="823.679,-255.69 813.277,-253.68 820.155,-261.738 823.679,-255.69"/>
</g>
<!-- Node23 -->
<g id="node23" class="node"><title>Node23</title>
<polygon fill="white" stroke="#bfbfbf" points="1088,-218 1088,-248 1189,-248 1189,-218 1088,-218"/>
<text text-anchor="start" x="1096" y="-236" font-family="Helvetica,sans-Serif" font-size="10.00">tensorflow/compiler</text>
<text text-anchor="middle" x="1138.5" y="-225" font-family="Helvetica,sans-Serif" font-size="10.00">/xla/xla_data.pb.h</text>
</g>
<!-- Node1&#45;&gt;Node23 -->
<g id="edge30" class="edge"><title>Node1&#45;&gt;Node23</title>
<path fill="none" stroke="midnightblue" d="M953.189,-290.408C988.957,-280.652 1037.25,-267.111 1079.5,-254 1082.4,-253.099 1085.38,-252.156 1088.38,-251.189"/>
<polygon fill="midnightblue" stroke="midnightblue" points="1089.55,-254.487 1097.97,-248.049 1087.37,-247.835 1089.55,-254.487"/>
</g>
<!-- Node24 -->
<g id="node24" class="node"><title>Node24</title>
<polygon fill="white" stroke="#bfbfbf" points="1207.5,-218 1207.5,-248 1339.5,-248 1339.5,-218 1207.5,-218"/>
<text text-anchor="start" x="1215.5" y="-236" font-family="Helvetica,sans-Serif" font-size="10.00">tensorflow/core/framework</text>
<text text-anchor="middle" x="1273.5" y="-225" font-family="Helvetica,sans-Serif" font-size="10.00">/graph.pb.h</text>
</g>
<!-- Node1&#45;&gt;Node24 -->
<g id="edge31" class="edge"><title>Node1&#45;&gt;Node24</title>
<path fill="none" stroke="midnightblue" d="M959.614,-296.135C1019.97,-287.209 1116.21,-271.905 1198.5,-254 1203.39,-252.935 1208.45,-251.758 1213.51,-250.523"/>
<polygon fill="midnightblue" stroke="midnightblue" points="1214.38,-253.915 1223.23,-248.092 1212.68,-247.125 1214.38,-253.915"/>
</g>
<!-- Node6&#45;&gt;Node2 -->
<g id="edge6" class="edge"><title>Node6&#45;&gt;Node2</title>
<path fill="none" stroke="midnightblue" d="M727.336,-217.732C581.742,-177.799 177.873,-66.252 120.5,-42 116.177,-40.1726 111.717,-37.9302 107.489,-35.6155"/>
<polygon fill="midnightblue" stroke="midnightblue" points="109.155,-32.5361 98.7447,-30.5662 105.654,-38.5979 109.155,-32.5361"/>
</g>
<!-- Node7 -->
<g id="node7" class="node"><title>Node7</title>
<polygon fill="white" stroke="#bfbfbf" points="1457,-6 1457,-36 1582,-36 1582,-6 1457,-6"/>
<text text-anchor="start" x="1465" y="-24" font-family="Helvetica,sans-Serif" font-size="10.00">tensorflow/compiler</text>
<text text-anchor="middle" x="1519.5" y="-13" font-family="Helvetica,sans-Serif" font-size="10.00">/xla/service/executable.h</text>
</g>
<!-- Node6&#45;&gt;Node7 -->
<g id="edge7" class="edge"><title>Node6&#45;&gt;Node7</title>
<path fill="none" stroke="midnightblue" d="M831.579,-214.287C834.583,-213.465 837.572,-212.694 840.5,-212 945.449,-187.11 975.812,-201.967 1080.5,-176 1229.54,-139.031 1399.33,-72.0367 1476.85,-40.003"/>
<polygon fill="midnightblue" stroke="midnightblue" points="1478.39,-43.1549 1486.29,-36.0897 1475.71,-36.6893 1478.39,-43.1549"/>
</g>
<!-- Node8 -->
<g id="node8" class="node"><title>Node8</title>
<polygon fill="white" stroke="#bfbfbf" points="129.5,-6 129.5,-36 257.5,-36 257.5,-6 129.5,-6"/>
<text text-anchor="start" x="137.5" y="-24" font-family="Helvetica,sans-Serif" font-size="10.00">tensorflow/compiler</text>
<text text-anchor="middle" x="193.5" y="-13" font-family="Helvetica,sans-Serif" font-size="10.00">/xla/service/hlo_module.h</text>
</g>
<!-- Node6&#45;&gt;Node8 -->
<g id="edge8" class="edge"><title>Node6&#45;&gt;Node8</title>
<path fill="none" stroke="midnightblue" d="M734.801,-212.373C710.674,-201.719 680.404,-188.255 653.5,-176 559.77,-133.305 541.312,-110.266 443.5,-78 367.264,-52.8511 344.589,-60.6164 266.5,-42 262.066,-40.943 257.494,-39.8052 252.901,-38.6279"/>
<polygon fill="midnightblue" stroke="midnightblue" points="253.423,-35.1467 242.863,-36.0038 251.652,-41.9191 253.423,-35.1467"/>
</g>
<!-- Node9 -->
<g id="node9" class="node"><title>Node9</title>
<g id="a_node9"><a xlink:href="../../d8/d1e/llvm__compiler_8h.html" target="_top" xlink:title="tensorflow/compiler\l/xla/service/llvm_compiler.h">
<polygon fill="white" stroke="black" points="662.5,-145.5 662.5,-175.5 800.5,-175.5 800.5,-145.5 662.5,-145.5"/>
<text text-anchor="start" x="670.5" y="-163.5" font-family="Helvetica,sans-Serif" font-size="10.00">tensorflow/compiler</text>
<text text-anchor="middle" x="731.5" y="-152.5" font-family="Helvetica,sans-Serif" font-size="10.00">/xla/service/llvm_compiler.h</text>
</a>
</g>
</g>
<!-- Node6&#45;&gt;Node9 -->
<g id="edge9" class="edge"><title>Node6&#45;&gt;Node9</title>
<path fill="none" stroke="midnightblue" d="M766.129,-212.362C760.221,-203.684 753.235,-193.423 747.091,-184.399"/>
<polygon fill="midnightblue" stroke="midnightblue" points="749.82,-182.188 741.299,-175.892 744.033,-186.127 749.82,-182.188"/>
</g>
<!-- Node16 -->
<g id="node16" class="node"><title>Node16</title>
<polygon fill="white" stroke="#bfbfbf" points="1062,-6 1062,-36 1163,-36 1163,-6 1062,-6"/>
<text text-anchor="start" x="1070" y="-24" font-family="Helvetica,sans-Serif" font-size="10.00">tensorflow/compiler</text>
<text text-anchor="middle" x="1112.5" y="-13" font-family="Helvetica,sans-Serif" font-size="10.00">/xla/statusor.h</text>
</g>
<!-- Node6&#45;&gt;Node16 -->
<g id="edge26" class="edge"><title>Node6&#45;&gt;Node16</title>
<path fill="none" stroke="midnightblue" d="M790.432,-212.498C796.293,-201.822 803.519,-188.299 809.5,-176 830.302,-133.226 815.138,-107.435 852.5,-78 923.789,-21.8369 965.612,-64.6312 1053.5,-42 1056.9,-41.1239 1060.39,-40.1481 1063.89,-39.112"/>
<polygon fill="midnightblue" stroke="midnightblue" points="1065.2,-42.3708 1073.71,-36.0652 1063.12,-35.6851 1065.2,-42.3708"/>
</g>
<!-- Node18 -->
<g id="node18" class="node"><title>Node18</title>
<polygon fill="white" stroke="#bfbfbf" points="1181.5,-6 1181.5,-36 1277.5,-36 1277.5,-6 1181.5,-6"/>
<text text-anchor="start" x="1189.5" y="-24" font-family="Helvetica,sans-Serif" font-size="10.00">tensorflow/core/lib</text>
<text text-anchor="middle" x="1229.5" y="-13" font-family="Helvetica,sans-Serif" font-size="10.00">/gtl/array_slice.h</text>
</g>
<!-- Node6&#45;&gt;Node18 -->
<g id="edge27" class="edge"><title>Node6&#45;&gt;Node18</title>
<path fill="none" stroke="midnightblue" d="M799.056,-212.392C819.235,-193.064 852.355,-163.773 885.5,-145 892.196,-141.208 1086.55,-72.4358 1180.11,-39.4159"/>
<polygon fill="midnightblue" stroke="midnightblue" points="1181.38,-42.6773 1189.65,-36.049 1179.05,-36.0763 1181.38,-42.6773"/>
</g>
<!-- Node20 -->
<g id="node20" class="node"><title>Node20</title>
<polygon fill="white" stroke="#bfbfbf" points="1296,-6 1296,-36 1439,-36 1439,-6 1296,-6"/>
<text text-anchor="start" x="1304" y="-24" font-family="Helvetica,sans-Serif" font-size="10.00">tensorflow/core/platform</text>
<text text-anchor="middle" x="1367.5" y="-13" font-family="Helvetica,sans-Serif" font-size="10.00">/stream_executor_no_cuda.h</text>
</g>
<!-- Node6&#45;&gt;Node20 -->
<g id="edge29" class="edge"><title>Node6&#45;&gt;Node20</title>
<path fill="none" stroke="midnightblue" d="M831.617,-214.439C834.611,-213.578 837.588,-212.758 840.5,-212 921.566,-190.911 945.668,-201.365 1025.5,-176 1142.14,-138.94 1271.85,-73.2913 1332.57,-41.0062"/>
<polygon fill="midnightblue" stroke="midnightblue" points="1334.54,-43.9213 1341.71,-36.1206 1331.24,-37.7478 1334.54,-43.9213"/>
</g>
<!-- Node22 -->
<g id="node22" class="node"><title>Node22</title>
<polygon fill="white" stroke="#bfbfbf" points="894.5,-145.5 894.5,-175.5 1016.5,-175.5 1016.5,-145.5 894.5,-145.5"/>
<text text-anchor="start" x="902.5" y="-163.5" font-family="Helvetica,sans-Serif" font-size="10.00">tensorflow/core/platform</text>
<text text-anchor="middle" x="955.5" y="-152.5" font-family="Helvetica,sans-Serif" font-size="10.00">/macros.h</text>
</g>
<!-- Node6&#45;&gt;Node22 -->
<g id="edge28" class="edge"><title>Node6&#45;&gt;Node22</title>
<path fill="none" stroke="midnightblue" d="M828.526,-212.362C854.411,-201.993 885.933,-189.366 911.094,-179.288"/>
<polygon fill="midnightblue" stroke="midnightblue" points="912.419,-182.527 920.401,-175.56 909.816,-176.029 912.419,-182.527"/>
</g>
<!-- Node10 -->
<g id="node10" class="node"><title>Node10</title>
<polygon fill="white" stroke="#bfbfbf" points="571,-84 571,-103 662,-103 662,-84 571,-84"/>
<text text-anchor="middle" x="616.5" y="-91" font-family="Helvetica,sans-Serif" font-size="10.00">llvm/IR/Module.h</text>
</g>
<!-- Node9&#45;&gt;Node10 -->
<g id="edge10" class="edge"><title>Node9&#45;&gt;Node10</title>
<path fill="none" stroke="midnightblue" d="M706.547,-145.396C686.904,-134.294 659.707,-118.921 640.354,-107.983"/>
<polygon fill="midnightblue" stroke="midnightblue" points="641.979,-104.881 631.551,-103.007 638.534,-110.975 641.979,-104.881"/>
</g>
<!-- Node11 -->
<g id="node11" class="node"><title>Node11</title>
<g id="a_node11"><a xlink:href="../../d4/dd1/compiler_8h.html" target="_top" xlink:title="tensorflow/compiler\l/xla/service/compiler.h">
<polygon fill="white" stroke="black" points="680,-78.5 680,-108.5 795,-108.5 795,-78.5 680,-78.5"/>
<text text-anchor="start" x="688" y="-96.5" font-family="Helvetica,sans-Serif" font-size="10.00">tensorflow/compiler</text>
<text text-anchor="middle" x="737.5" y="-85.5" font-family="Helvetica,sans-Serif" font-size="10.00">/xla/service/compiler.h</text>
</a>
</g>
</g>
<!-- Node9&#45;&gt;Node11 -->
<g id="edge11" class="edge"><title>Node9&#45;&gt;Node11</title>
<path fill="none" stroke="midnightblue" d="M732.802,-145.396C733.525,-137.56 734.445,-127.596 735.279,-118.565"/>
<polygon fill="midnightblue" stroke="midnightblue" points="738.767,-118.856 736.201,-108.577 731.796,-118.212 738.767,-118.856"/>
</g>
<!-- Node11&#45;&gt;Node2 -->
<g id="edge14" class="edge"><title>Node11&#45;&gt;Node2</title>
<path fill="none" stroke="midnightblue" d="M679.854,-79.4583C676.697,-78.9213 673.564,-78.4295 670.5,-78 427.904,-43.9993 355.08,-112.578 120.5,-42 115.645,-40.5394 110.736,-38.3041 106.191,-35.8494"/>
<polygon fill="midnightblue" stroke="midnightblue" points="107.892,-32.7888 97.5091,-30.6806 104.311,-38.8036 107.892,-32.7888"/>
</g>
<!-- Node11&#45;&gt;Node3 -->
<g id="edge15" class="edge"><title>Node11&#45;&gt;Node3</title>
<path fill="none" stroke="midnightblue" d="M679.857,-79.431C676.7,-78.901 673.566,-78.4182 670.5,-78 533.756,-59.3479 181.373,-85.8062 50.5,-42 46.4747,-40.6526 42.4769,-38.6157 38.7745,-36.3491"/>
<polygon fill="midnightblue" stroke="midnightblue" points="40.5461,-33.3187 30.3321,-30.5035 36.5611,-39.0738 40.5461,-33.3187"/>
</g>
<!-- Node11&#45;&gt;Node7 -->
<g id="edge16" class="edge"><title>Node11&#45;&gt;Node7</title>
<path fill="none" stroke="midnightblue" d="M795.12,-92.3664C916.764,-91.2195 1208.34,-83.9026 1448.5,-42 1453.86,-41.0645 1459.4,-39.8884 1464.91,-38.5774"/>
<polygon fill="midnightblue" stroke="midnightblue" points="1465.91,-41.9351 1474.75,-36.0946 1464.19,-35.1479 1465.91,-41.9351"/>
</g>
<!-- Node11&#45;&gt;Node8 -->
<g id="edge17" class="edge"><title>Node11&#45;&gt;Node8</title>
<path fill="none" stroke="midnightblue" d="M679.841,-79.5455C676.688,-78.986 673.559,-78.4655 670.5,-78 492.284,-50.8825 443.914,-73.9436 266.5,-42 261.084,-41.0249 255.487,-39.8337 249.913,-38.5232"/>
<polygon fill="midnightblue" stroke="midnightblue" points="250.496,-35.0619 239.948,-36.0562 248.814,-41.8568 250.496,-35.0619"/>
</g>
<!-- Node12 -->
<g id="node12" class="node"><title>Node12</title>
<polygon fill="white" stroke="#bfbfbf" points="676,-11.5 676,-30.5 735,-30.5 735,-11.5 676,-11.5"/>
<text text-anchor="middle" x="705.5" y="-18.5" font-family="Helvetica,sans-Serif" font-size="10.00">functional</text>
</g>
<!-- Node11&#45;&gt;Node12 -->
<g id="edge12" class="edge"><title>Node11&#45;&gt;Node12</title>
<path fill="none" stroke="midnightblue" d="M731.024,-78.2333C726.052,-67.2793 719.151,-52.0749 713.778,-40.2375"/>
<polygon fill="midnightblue" stroke="midnightblue" points="716.857,-38.5524 709.537,-30.8932 710.483,-41.4457 716.857,-38.5524"/>
</g>
<!-- Node13 -->
<g id="node13" class="node"><title>Node13</title>
<polygon fill="white" stroke="#bfbfbf" points="753,-11.5 753,-30.5 788,-30.5 788,-11.5 753,-11.5"/>
<text text-anchor="middle" x="770.5" y="-18.5" font-family="Helvetica,sans-Serif" font-size="10.00">map</text>
</g>
<!-- Node11&#45;&gt;Node13 -->
<g id="edge13" class="edge"><title>Node11&#45;&gt;Node13</title>
<path fill="none" stroke="midnightblue" d="M744.178,-78.2333C749.305,-67.2793 756.422,-52.0749 761.963,-40.2375"/>
<polygon fill="midnightblue" stroke="midnightblue" points="765.268,-41.4339 766.337,-30.8932 758.928,-38.4663 765.268,-41.4339"/>
</g>
<!-- Node14 -->
<g id="node14" class="node"><title>Node14</title>
<polygon fill="white" stroke="#bfbfbf" points="806,-0.5 806,-41.5 925,-41.5 925,-0.5 806,-0.5"/>
<text text-anchor="start" x="814" y="-29.5" font-family="Helvetica,sans-Serif" font-size="10.00">tensorflow/compiler</text>
<text text-anchor="start" x="814" y="-18.5" font-family="Helvetica,sans-Serif" font-size="10.00">/xla/service/hlo_module</text>
<text text-anchor="middle" x="865.5" y="-7.5" font-family="Helvetica,sans-Serif" font-size="10.00">_config.h</text>
</g>
<!-- Node11&#45;&gt;Node14 -->
<g id="edge18" class="edge"><title>Node11&#45;&gt;Node14</title>
<path fill="none" stroke="midnightblue" d="M763.095,-78.4027C779.596,-69.3141 801.503,-57.2485 820.819,-46.6097"/>
<polygon fill="midnightblue" stroke="midnightblue" points="822.698,-49.5702 829.769,-41.6799 819.321,-43.4387 822.698,-49.5702"/>
</g>
<!-- Node15 -->
<g id="node15" class="node"><title>Node15</title>
<polygon fill="white" stroke="#bfbfbf" points="943,-0.5 943,-41.5 1044,-41.5 1044,-0.5 943,-0.5"/>
<text text-anchor="start" x="951" y="-29.5" font-family="Helvetica,sans-Serif" font-size="10.00">tensorflow/compiler</text>
<text text-anchor="start" x="951" y="-18.5" font-family="Helvetica,sans-Serif" font-size="10.00">/xla/service/logical</text>
<text text-anchor="middle" x="993.5" y="-7.5" font-family="Helvetica,sans-Serif" font-size="10.00">_buffer.h</text>
</g>
<!-- Node11&#45;&gt;Node15 -->
<g id="edge19" class="edge"><title>Node11&#45;&gt;Node15</title>
<path fill="none" stroke="midnightblue" d="M795.251,-78.7413C832.145,-69.6935 881.177,-57.1948 933.111,-42.0256"/>
<polygon fill="midnightblue" stroke="midnightblue" points="934.234,-45.3434 942.839,-39.1623 932.258,-38.6282 934.234,-45.3434"/>
</g>
<!-- Node11&#45;&gt;Node16 -->
<g id="edge20" class="edge"><title>Node11&#45;&gt;Node16</title>
<path fill="none" stroke="midnightblue" d="M795.062,-81.4221C801.612,-80.2324 808.196,-79.0679 814.5,-78 920.411,-60.0574 949.112,-67.3426 1053.5,-42 1057.13,-41.1189 1060.85,-40.1116 1064.58,-39.0282"/>
<polygon fill="midnightblue" stroke="midnightblue" points="1065.86,-42.2977 1074.39,-36.0169 1063.8,-35.606 1065.86,-42.2977"/>
</g>
<!-- Node17 -->
<g id="node17" class="node"><title>Node17</title>
<polygon fill="white" stroke="#bfbfbf" points="276,-6 276,-36 377,-36 377,-6 276,-6"/>
<text text-anchor="start" x="284" y="-24" font-family="Helvetica,sans-Serif" font-size="10.00">tensorflow/compiler</text>
<text text-anchor="middle" x="326.5" y="-13" font-family="Helvetica,sans-Serif" font-size="10.00">/xla/types.h</text>
</g>
<!-- Node11&#45;&gt;Node17 -->
<g id="edge21" class="edge"><title>Node11&#45;&gt;Node17</title>
<path fill="none" stroke="midnightblue" d="M679.819,-79.6831C676.671,-79.0881 673.55,-78.5223 670.5,-78 545.093,-56.5235 510.556,-70.2523 386.5,-42 382.636,-41.12 378.669,-40.0905 374.704,-38.9713"/>
<polygon fill="midnightblue" stroke="midnightblue" points="375.499,-35.5559 364.916,-36.0382 373.49,-42.2614 375.499,-35.5559"/>
</g>
<!-- Node11&#45;&gt;Node18 -->
<g id="edge22" class="edge"><title>Node11&#45;&gt;Node18</title>
<path fill="none" stroke="midnightblue" d="M795.101,-85.0838C813.441,-82.7636 833.817,-80.2286 852.5,-78 994.612,-61.0478 1032.98,-73.8949 1172.5,-42 1176.14,-41.1681 1179.87,-40.1809 1183.59,-39.0977"/>
<polygon fill="midnightblue" stroke="midnightblue" points="1184.87,-42.3664 1193.37,-36.0468 1182.78,-35.6841 1184.87,-42.3664"/>
</g>
<!-- Node19 -->
<g id="node19" class="node"><title>Node19</title>
<polygon fill="white" stroke="#bfbfbf" points="395.5,-6 395.5,-36 517.5,-36 517.5,-6 395.5,-6"/>
<text text-anchor="start" x="403.5" y="-24" font-family="Helvetica,sans-Serif" font-size="10.00">tensorflow/core/platform</text>
<text text-anchor="middle" x="456.5" y="-13" font-family="Helvetica,sans-Serif" font-size="10.00">/mutex.h</text>
</g>
<!-- Node11&#45;&gt;Node19 -->
<g id="edge23" class="edge"><title>Node11&#45;&gt;Node19</title>
<path fill="none" stroke="midnightblue" d="M679.568,-79.348C637.079,-69.529 578.053,-55.5271 526.5,-42 522.512,-40.9534 518.403,-39.8488 514.269,-38.7179"/>
<polygon fill="midnightblue" stroke="midnightblue" points="515.195,-35.3427 504.624,-36.0464 513.327,-42.0887 515.195,-35.3427"/>
</g>
<!-- Node11&#45;&gt;Node20 -->
<g id="edge24" class="edge"><title>Node11&#45;&gt;Node20</title>
<path fill="none" stroke="midnightblue" d="M795.168,-90.0507C895.587,-85.151 1108.82,-71.9331 1286.5,-42 1292.69,-40.9578 1299.1,-39.6957 1305.48,-38.318"/>
<polygon fill="midnightblue" stroke="midnightblue" points="1306.47,-41.684 1315.45,-36.0729 1304.93,-34.8549 1306.47,-41.684"/>
</g>
<!-- Node21 -->
<g id="node21" class="node"><title>Node21</title>
<polygon fill="white" stroke="#bfbfbf" points="535.5,-6 535.5,-36 657.5,-36 657.5,-6 535.5,-6"/>
<text text-anchor="start" x="543.5" y="-24" font-family="Helvetica,sans-Serif" font-size="10.00">tensorflow/core/platform</text>
<text text-anchor="middle" x="596.5" y="-13" font-family="Helvetica,sans-Serif" font-size="10.00">/thread_annotations.h</text>
</g>
<!-- Node11&#45;&gt;Node21 -->
<g id="edge25" class="edge"><title>Node11&#45;&gt;Node21</title>
<path fill="none" stroke="midnightblue" d="M709.305,-78.4027C687.595,-67.5477 657.392,-52.4458 633.701,-40.6004"/>
<polygon fill="midnightblue" stroke="midnightblue" points="635.155,-37.4145 624.646,-36.0729 632.025,-43.6755 635.155,-37.4145"/>
</g>
</g>
</svg>
        <g id="navigator" transform="translate(0 0)" fill="#404254">
                <rect fill="#f2f5e9" fill-opacity="0.5" stroke="#606060" stroke-width=".5" x="0" y="0" width="60" height="60"/>
                <use id="zoomplus" xlink:href="#zoomPlus" x="17" y="9" onmousedown="handleZoom(evt,'in')"/>
                <use id="zoomminus" xlink:href="#zoomMin" x="42" y="9" onmousedown="handleZoom(evt,'out')"/>
                <use id="reset" xlink:href="#resetDef" x="30" y="36" onmousedown="handleReset()"/>
                <g id="arrowUp" xlink:href="#dirArrow" transform="translate(30 24)" onmousedown="handlePan(0,-1)">
                  <use xlink:href="#rim" fill="#404040">
                        <set attributeName="fill" to="#808080" begin="arrowUp.mouseover" end="arrowUp.mouseout"/>
                  </use>
                  <path fill="none" stroke="white" stroke-width="1.5" d="M0,-3.0v7 M-2.5,-0.5L0,-3.0L2.5,-0.5"/>
                </g>
                <g id="arrowRight" xlink:href="#dirArrow" transform="rotate(90) translate(36 -43)" onmousedown="handlePan(1,0)">
                  <use xlink:href="#rim" fill="#404040">
                        <set attributeName="fill" to="#808080" begin="arrowRight.mouseover" end="arrowRight.mouseout"/>
                  </use>
                  <path fill="none" stroke="white" stroke-width="1.5" d="M0,-3.0v7 M-2.5,-0.5L0,-3.0L2.5,-0.5"/>
                </g>
                <g id="arrowDown" xlink:href="#dirArrow" transform="rotate(180) translate(-30 -48)" onmousedown="handlePan(0,1)">
                  <use xlink:href="#rim" fill="#404040">
                        <set attributeName="fill" to="#808080" begin="arrowDown.mouseover" end="arrowDown.mouseout"/>
                  </use>
                  <path fill="none" stroke="white" stroke-width="1.5" d="M0,-3.0v7 M-2.5,-0.5L0,-3.0L2.5,-0.5"/>
                </g>
                <g id="arrowLeft" xlink:href="#dirArrow" transform="rotate(270) translate(-36 17)" onmousedown="handlePan(-1,0)">
                  <use xlink:href="#rim" fill="#404040">
                        <set attributeName="fill" to="#808080" begin="arrowLeft.mouseover" end="arrowLeft.mouseout"/>
                  </use>
                  <path fill="none" stroke="white" stroke-width="1.5" d="M0,-3.0v7 M-2.5,-0.5L0,-3.0L2.5,-0.5"/>
                </g>
        </g>
        <svg viewBox="0 0 15 15" width="100%" height="30px" preserveAspectRatio="xMaxYMin meet">
         <g id="arrow_out" transform="scale(0.3 0.3)">
          <a xlink:href="compile_8h__incl_org.svg" target="_base">
           <rect id="button" ry="5" rx="5" y="6" x="6" height="38" width="38"
                fill="#f2f5e9" fill-opacity="0.5" stroke="#606060" stroke-width="1.0"/>
           <path id="arrow"
             d="M 11.500037,31.436501 C 11.940474,20.09759 22.043105,11.32322 32.158766,21.979434 L 37.068811,17.246167 C 37.068811,17.246167 37.088388,32 37.088388,32 L 22.160133,31.978069 C 22.160133,31.978069 26.997745,27.140456 26.997745,27.140456 C 18.528582,18.264221 13.291696,25.230495 11.500037,31.436501 z"
             style="fill:#404040;"/>
          </a>
         </g>
        </svg>
</svg>
