<?xml version="1.0" encoding="UTF-8" standalone="no"?>
<!DOCTYPE svg PUBLIC "-//W3C//DTD SVG 1.1//EN"
 "http://www.w3.org/Graphics/SVG/1.1/DTD/svg11.dtd">
<!-- Generated by graphviz version 2.40.1 (20161225.0304)
 -->
<!-- Title: tensorflow/tensorflow/compiler/xla/service/compile_only_service.h Pages: 1 -->
<svg width="2663pt" height="351pt"
 viewBox="0.00 0.00 2663.34 351.00" xmlns="http://www.w3.org/2000/svg" xmlns:xlink="http://www.w3.org/1999/xlink">
<g id="graph0" class="graph" transform="scale(1 1) rotate(0) translate(4 347)">
<title>tensorflow/tensorflow/compiler/xla/service/compile_only_service.h</title>
<polygon fill="#ffffff" stroke="transparent" points="-4,4 -4,-347 2659.3351,-347 2659.3351,4 -4,4"/>
<!-- Node0 -->
<g id="node1" class="node">
<title>Node0</title>
<polygon fill="#bfbfbf" stroke="#000000" points="930.8351,-301.5 930.8351,-342.5 1052.8351,-342.5 1052.8351,-301.5 930.8351,-301.5"/>
<text text-anchor="start" x="938.8351" y="-330.5" font-family="Helvetica,sans-Serif" font-size="10.00" fill="#000000">tensorflow/tensorflow</text>
<text text-anchor="start" x="938.8351" y="-319.5" font-family="Helvetica,sans-Serif" font-size="10.00" fill="#000000">/compiler/xla/service</text>
<text text-anchor="middle" x="991.8351" y="-308.5" font-family="Helvetica,sans-Serif" font-size="10.00" fill="#000000">/compile_only_service.h</text>
</g>
<!-- Node1 -->
<g id="node2" class="node">
<title>Node1</title>
<polygon fill="#ffffff" stroke="#bfbfbf" points="29.3351,-162 29.3351,-192 144.3351,-192 144.3351,-162 29.3351,-162"/>
<text text-anchor="start" x="37.3351" y="-180" font-family="Helvetica,sans-Serif" font-size="10.00" fill="#000000">tensorflow/compiler</text>
<text text-anchor="middle" x="86.8351" y="-169" font-family="Helvetica,sans-Serif" font-size="10.00" fill="#000000">/xla/service/backend.h</text>
</g>
<!-- Node0&#45;&gt;Node1 -->
<g id="edge1" class="edge">
<title>Node0&#45;&gt;Node1</title>
<path fill="none" stroke="#191970" d="M930.6982,-315.7834C792.2261,-301.0762 444.4766,-260.6118 158.8351,-198 154.2285,-196.9902 149.4842,-195.8459 144.7334,-194.6252"/>
<polygon fill="#191970" stroke="#191970" points="145.5789,-191.2284 135.0145,-192.031 143.7736,-197.9916 145.5789,-191.2284"/>
</g>
<!-- Node2 -->
<g id="node3" class="node">
<title>Node2</title>
<polygon fill="#ffffff" stroke="#bfbfbf" points="1435.8351,-234.5 1435.8351,-264.5 1549.8351,-264.5 1549.8351,-234.5 1435.8351,-234.5"/>
<text text-anchor="start" x="1443.8351" y="-252.5" font-family="Helvetica,sans-Serif" font-size="10.00" fill="#000000">tensorflow/compiler</text>
<text text-anchor="middle" x="1492.8351" y="-241.5" font-family="Helvetica,sans-Serif" font-size="10.00" fill="#000000">/xla/service/compiler.h</text>
</g>
<!-- Node0&#45;&gt;Node2 -->
<g id="edge2" class="edge">
<title>Node0&#45;&gt;Node2</title>
<path fill="none" stroke="#191970" d="M1052.9629,-315.5171C1136.5599,-306.2826 1291.0982,-287.8949 1421.8351,-265 1423.0934,-264.7796 1424.3632,-264.5525 1425.6417,-264.3194"/>
<polygon fill="#191970" stroke="#191970" points="1426.3955,-267.7388 1435.5647,-262.4308 1425.0866,-260.8623 1426.3955,-267.7388"/>
</g>
<!-- Node3 -->
<g id="node4" class="node">
<title>Node3</title>
<g id="a_node4"><a xlink:href="../../d5/d83/service_8h.html" target="_top" xlink:title="tensorflow/compiler\l/xla/service/service.h">
<polygon fill="#ffffff" stroke="#000000" points="1269.8351,-234.5 1269.8351,-264.5 1379.8351,-264.5 1379.8351,-234.5 1269.8351,-234.5"/>
<text text-anchor="start" x="1277.8351" y="-252.5" font-family="Helvetica,sans-Serif" font-size="10.00" fill="#000000">tensorflow/compiler</text>
<text text-anchor="middle" x="1324.8351" y="-241.5" font-family="Helvetica,sans-Serif" font-size="10.00" fill="#000000">/xla/service/service.h</text>
</a>
</g>
</g>
<!-- Node0&#45;&gt;Node3 -->
<g id="edge3" class="edge">
<title>Node0&#45;&gt;Node3</title>
<path fill="none" stroke="#191970" d="M1052.9125,-308.7024C1111.4855,-295.95 1199.6282,-276.7598 1259.5641,-263.7107"/>
<polygon fill="#191970" stroke="#191970" points="1260.6453,-267.0573 1269.6718,-261.51 1259.1561,-260.2176 1260.6453,-267.0573"/>
</g>
<!-- Node23 -->
<g id="node24" class="node">
<title>Node23</title>
<polygon fill="#ffffff" stroke="#bfbfbf" points="42.3351,-6 42.3351,-36 143.3351,-36 143.3351,-6 42.3351,-6"/>
<text text-anchor="start" x="50.3351" y="-24" font-family="Helvetica,sans-Serif" font-size="10.00" fill="#000000">tensorflow/compiler</text>
<text text-anchor="middle" x="92.8351" y="-13" font-family="Helvetica,sans-Serif" font-size="10.00" fill="#000000">/xla/statusor.h</text>
</g>
<!-- Node0&#45;&gt;Node23 -->
<g id="edge66" class="edge">
<title>Node0&#45;&gt;Node23</title>
<path fill="none" stroke="#191970" d="M930.6192,-319.9364C742.463,-313.3349 180.6226,-291.6004 102.8351,-265 40.912,-243.8247 -14.9682,-218.6841 3.8351,-156 17.0813,-111.8415 49.959,-68.782 71.8293,-43.5842"/>
<polygon fill="#191970" stroke="#191970" points="74.4914,-45.8575 78.5044,-36.052 69.2526,-41.2147 74.4914,-45.8575"/>
</g>
<!-- Node26 -->
<g id="node27" class="node">
<title>Node26</title>
<polygon fill="#ffffff" stroke="#bfbfbf" points="161.3351,-6 161.3351,-36 262.3351,-36 262.3351,-6 161.3351,-6"/>
<text text-anchor="start" x="169.3351" y="-24" font-family="Helvetica,sans-Serif" font-size="10.00" fill="#000000">tensorflow/compiler</text>
<text text-anchor="middle" x="211.8351" y="-13" font-family="Helvetica,sans-Serif" font-size="10.00" fill="#000000">/xla/xla_data.pb.h</text>
</g>
<!-- Node0&#45;&gt;Node26 -->
<g id="edge67" class="edge">
<title>Node0&#45;&gt;Node26</title>
<path fill="none" stroke="#191970" d="M930.5653,-318.9684C726.2797,-308.2234 78.0072,-268.7541 19.8351,-198 -33.0709,-133.651 88.8903,-70.4878 161.9458,-39.9607"/>
<polygon fill="#191970" stroke="#191970" points="163.5494,-43.0859 171.4699,-36.0491 160.8899,-36.6107 163.5494,-43.0859"/>
</g>
<!-- Node38 -->
<g id="node39" class="node">
<title>Node38</title>
<polygon fill="#ffffff" stroke="#bfbfbf" points="2512.3351,-162 2512.3351,-192 2655.3351,-192 2655.3351,-162 2512.3351,-162"/>
<text text-anchor="start" x="2520.3351" y="-180" font-family="Helvetica,sans-Serif" font-size="10.00" fill="#000000">tensorflow/core/platform</text>
<text text-anchor="middle" x="2583.8351" y="-169" font-family="Helvetica,sans-Serif" font-size="10.00" fill="#000000">/stream_executor_no_cuda.h</text>
</g>
<!-- Node0&#45;&gt;Node38 -->
<g id="edge68" class="edge">
<title>Node0&#45;&gt;Node38</title>
<path fill="none" stroke="#191970" d="M1052.8974,-317.2501C1148.7929,-309.121 1329.854,-290.8772 1388.8351,-265 1408.7945,-256.2431 1406.4283,-241.6567 1426.8351,-234 1538.3138,-192.173 2379.8763,-214.2082 2497.8351,-198 2504.9534,-197.0219 2512.3398,-195.7007 2519.6591,-194.1944"/>
<polygon fill="#191970" stroke="#191970" points="2520.5387,-197.585 2529.5668,-192.0403 2519.0515,-190.7448 2520.5387,-197.585"/>
</g>
<!-- Node3&#45;&gt;Node1 -->
<g id="edge11" class="edge">
<title>Node3&#45;&gt;Node1</title>
<path fill="none" stroke="#191970" d="M1269.7919,-248.8158C1069.0598,-246.0487 376.7372,-234.0524 158.8351,-198 153.3755,-197.0967 147.7442,-195.9145 142.1488,-194.571"/>
<polygon fill="#191970" stroke="#191970" points="142.717,-191.1033 132.1605,-192.0037 140.9744,-197.883 142.717,-191.1033"/>
</g>
<!-- Node4 -->
<g id="node5" class="node">
<title>Node4</title>
<polygon fill="#ffffff" stroke="#bfbfbf" points="2366.3351,-11.5 2366.3351,-30.5 2425.3351,-30.5 2425.3351,-11.5 2366.3351,-11.5"/>
<text text-anchor="middle" x="2395.8351" y="-18.5" font-family="Helvetica,sans-Serif" font-size="10.00" fill="#000000">functional</text>
</g>
<!-- Node3&#45;&gt;Node4 -->
<g id="edge4" class="edge">
<title>Node3&#45;&gt;Node4</title>
<path fill="none" stroke="#191970" d="M1379.995,-234.7688C1381.6221,-234.489 1383.238,-234.2315 1384.8351,-234 1441.3355,-225.8117 2372.1794,-239.0702 2411.8351,-198 2453.1885,-155.1716 2423.1143,-76.3513 2405.793,-40.1257"/>
<polygon fill="#191970" stroke="#191970" points="2408.7025,-38.1156 2401.1173,-30.7186 2402.4341,-41.2313 2408.7025,-38.1156"/>
</g>
<!-- Node5 -->
<g id="node6" class="node">
<title>Node5</title>
<polygon fill="#ffffff" stroke="#bfbfbf" points="888.8351,-11.5 888.8351,-30.5 940.8351,-30.5 940.8351,-11.5 888.8351,-11.5"/>
<text text-anchor="middle" x="914.8351" y="-18.5" font-family="Helvetica,sans-Serif" font-size="10.00" fill="#000000">memory</text>
</g>
<!-- Node3&#45;&gt;Node5 -->
<g id="edge5" class="edge">
<title>Node3&#45;&gt;Node5</title>
<path fill="none" stroke="#191970" d="M1269.8027,-247.762C1100.5294,-242.1517 597.555,-223.4022 573.8351,-198 561.0953,-184.3566 561.7857,-170.2568 573.8351,-156 635.8094,-82.6722 701.7838,-164.5426 786.8351,-120 809.9441,-107.8975 807.695,-94.5792 827.8351,-78 838.7528,-69.0126 868.8771,-49.6863 890.6194,-36.0362"/>
<polygon fill="#191970" stroke="#191970" points="892.7209,-38.8501 899.3439,-30.5804 889.0094,-32.915 892.7209,-38.8501"/>
</g>
<!-- Node6 -->
<g id="node7" class="node">
<title>Node6</title>
<polygon fill="#ffffff" stroke="#bfbfbf" points="1125.3351,-11.5 1125.3351,-30.5 1166.3351,-30.5 1166.3351,-11.5 1125.3351,-11.5"/>
<text text-anchor="middle" x="1145.8351" y="-18.5" font-family="Helvetica,sans-Serif" font-size="10.00" fill="#000000">string</text>
</g>
<!-- Node3&#45;&gt;Node6 -->
<g id="edge6" class="edge">
<title>Node3&#45;&gt;Node6</title>
<path fill="none" stroke="#191970" d="M1379.9975,-234.7862C1381.6239,-234.5013 1383.239,-234.238 1384.8351,-234 1430.5947,-227.1766 2184.8354,-231.4143 2216.8351,-198 2229.746,-184.5184 2228.2355,-170.781 2216.8351,-156 2133.4847,-47.933 2054.7264,-98.7395 1919.8351,-78 1756.0114,-52.8121 1331.2325,-96.8864 1174.8351,-42 1171.1582,-40.7096 1167.5432,-38.792 1164.1801,-36.6317"/>
<polygon fill="#191970" stroke="#191970" points="1166.1261,-33.7181 1155.9972,-30.6105 1161.9774,-39.3563 1166.1261,-33.7181"/>
</g>
<!-- Node7 -->
<g id="node8" class="node">
<title>Node7</title>
<polygon fill="#ffffff" stroke="#bfbfbf" points="1659.8351,-11.5 1659.8351,-30.5 1703.8351,-30.5 1703.8351,-11.5 1659.8351,-11.5"/>
<text text-anchor="middle" x="1681.8351" y="-18.5" font-family="Helvetica,sans-Serif" font-size="10.00" fill="#000000">vector</text>
</g>
<!-- Node3&#45;&gt;Node7 -->
<g id="edge7" class="edge">
<title>Node3&#45;&gt;Node7</title>
<path fill="none" stroke="#191970" d="M1379.9956,-234.7728C1381.6225,-234.4918 1383.2382,-234.233 1384.8351,-234 1438.471,-226.1757 2322.2212,-237.0284 2359.8351,-198 2396.8452,-159.5982 2395.9333,-117.2603 2359.8351,-78 2337.6965,-53.9221 1846.1975,-28.8339 1714.211,-22.513"/>
<polygon fill="#191970" stroke="#191970" points="1714.1054,-19.0041 1703.9504,-22.0248 1713.7727,-25.9962 1714.1054,-19.0041"/>
</g>
<!-- Node8 -->
<g id="node9" class="node">
<title>Node8</title>
<polygon fill="#ffffff" stroke="#bfbfbf" points="626.3351,-156.5 626.3351,-197.5 727.3351,-197.5 727.3351,-156.5 626.3351,-156.5"/>
<text text-anchor="start" x="634.3351" y="-185.5" font-family="Helvetica,sans-Serif" font-size="10.00" fill="#000000">tensorflow/compiler</text>
<text text-anchor="start" x="634.3351" y="-174.5" font-family="Helvetica,sans-Serif" font-size="10.00" fill="#000000">/xla/executable_run</text>
<text text-anchor="middle" x="676.8351" y="-163.5" font-family="Helvetica,sans-Serif" font-size="10.00" fill="#000000">_options.h</text>
</g>
<!-- Node3&#45;&gt;Node8 -->
<g id="edge8" class="edge">
<title>Node3&#45;&gt;Node8</title>
<path fill="none" stroke="#191970" d="M1269.3853,-246.4588C1146.7093,-239.4466 854.5449,-221.1113 737.5495,-198.0384"/>
<polygon fill="#191970" stroke="#191970" points="737.9478,-194.5464 727.4446,-195.9365 736.5222,-201.3997 737.9478,-194.5464"/>
</g>
<!-- Node9 -->
<g id="node10" class="node">
<title>Node9</title>
<polygon fill="#ffffff" stroke="#bfbfbf" points="745.3351,-156.5 745.3351,-197.5 864.3351,-197.5 864.3351,-156.5 745.3351,-156.5"/>
<text text-anchor="start" x="753.3351" y="-185.5" font-family="Helvetica,sans-Serif" font-size="10.00" fill="#000000">tensorflow/compiler</text>
<text text-anchor="start" x="753.3351" y="-174.5" font-family="Helvetica,sans-Serif" font-size="10.00" fill="#000000">/xla/legacy_flags/debug</text>
<text text-anchor="middle" x="804.8351" y="-163.5" font-family="Helvetica,sans-Serif" font-size="10.00" fill="#000000">_options_flags.h</text>
</g>
<!-- Node3&#45;&gt;Node9 -->
<g id="edge9" class="edge">
<title>Node3&#45;&gt;Node9</title>
<path fill="none" stroke="#191970" d="M1269.6921,-246.5321C1185.9452,-241.2998 1021.6952,-228.1988 874.4934,-198.1708"/>
<polygon fill="#191970" stroke="#191970" points="874.877,-194.676 864.3748,-196.074 873.4565,-201.5303 874.877,-194.676"/>
</g>
<!-- Node10 -->
<g id="node11" class="node">
<title>Node10</title>
<polygon fill="#ffffff" stroke="#bfbfbf" points="882.3351,-156.5 882.3351,-197.5 993.3351,-197.5 993.3351,-156.5 882.3351,-156.5"/>
<text text-anchor="start" x="890.3351" y="-185.5" font-family="Helvetica,sans-Serif" font-size="10.00" fill="#000000">tensorflow/compiler</text>
<text text-anchor="start" x="890.3351" y="-174.5" font-family="Helvetica,sans-Serif" font-size="10.00" fill="#000000">/xla/service/allocation</text>
<text text-anchor="middle" x="937.8351" y="-163.5" font-family="Helvetica,sans-Serif" font-size="10.00" fill="#000000">_tracker.h</text>
</g>
<!-- Node3&#45;&gt;Node10 -->
<g id="edge10" class="edge">
<title>Node3&#45;&gt;Node10</title>
<path fill="none" stroke="#191970" d="M1269.6321,-243.2957C1207.1717,-235.6921 1102.3474,-221.1708 1003.2257,-197.9078"/>
<polygon fill="#191970" stroke="#191970" points="1003.8831,-194.4665 993.3443,-195.5547 1002.2615,-201.2761 1003.8831,-194.4665"/>
</g>
<!-- Node11 -->
<g id="node12" class="node">
<title>Node11</title>
<polygon fill="#ffffff" stroke="#bfbfbf" points="1011.8351,-156.5 1011.8351,-197.5 1115.8351,-197.5 1115.8351,-156.5 1011.8351,-156.5"/>
<text text-anchor="start" x="1019.8351" y="-185.5" font-family="Helvetica,sans-Serif" font-size="10.00" fill="#000000">tensorflow/compiler</text>
<text text-anchor="start" x="1019.8351" y="-174.5" font-family="Helvetica,sans-Serif" font-size="10.00" fill="#000000">/xla/service/channel</text>
<text text-anchor="middle" x="1063.8351" y="-163.5" font-family="Helvetica,sans-Serif" font-size="10.00" fill="#000000">_tracker.h</text>
</g>
<!-- Node3&#45;&gt;Node11 -->
<g id="edge12" class="edge">
<title>Node3&#45;&gt;Node11</title>
<path fill="none" stroke="#191970" d="M1269.7577,-236.5675C1231.6893,-227.3433 1179.7165,-214.1885 1125.7329,-198.1752"/>
<polygon fill="#191970" stroke="#191970" points="1126.5737,-194.7735 1115.99,-195.2602 1124.5671,-201.4798 1126.5737,-194.7735"/>
</g>
<!-- Node12 -->
<g id="node13" class="node">
<title>Node12</title>
<polygon fill="#ffffff" stroke="#bfbfbf" points="1134.3351,-156.5 1134.3351,-197.5 1253.3351,-197.5 1253.3351,-156.5 1134.3351,-156.5"/>
<text text-anchor="start" x="1142.3351" y="-185.5" font-family="Helvetica,sans-Serif" font-size="10.00" fill="#000000">tensorflow/compiler</text>
<text text-anchor="start" x="1142.3351" y="-174.5" font-family="Helvetica,sans-Serif" font-size="10.00" fill="#000000">/xla/service/compilation</text>
<text text-anchor="middle" x="1193.8351" y="-163.5" font-family="Helvetica,sans-Serif" font-size="10.00" fill="#000000">_cache.h</text>
</g>
<!-- Node3&#45;&gt;Node12 -->
<g id="edge13" class="edge">
<title>Node3&#45;&gt;Node12</title>
<path fill="none" stroke="#191970" d="M1297.6918,-234.478C1281.0001,-225.2402 1259.1771,-213.1626 1239.846,-202.464"/>
<polygon fill="#191970" stroke="#191970" points="1241.3235,-199.2815 1230.8792,-197.5015 1237.9339,-205.4061 1241.3235,-199.2815"/>
</g>
<!-- Node13 -->
<g id="node14" class="node">
<title>Node13</title>
<g id="a_node14"><a xlink:href="../../d1/dc5/computation__tracker_8h.html" target="_top" xlink:title="tensorflow/compiler\l/xla/service/computation\l_tracker.h">
<polygon fill="#ffffff" stroke="#000000" points="408.3351,-156.5 408.3351,-197.5 531.3351,-197.5 531.3351,-156.5 408.3351,-156.5"/>
<text text-anchor="start" x="416.3351" y="-185.5" font-family="Helvetica,sans-Serif" font-size="10.00" fill="#000000">tensorflow/compiler</text>
<text text-anchor="start" x="416.3351" y="-174.5" font-family="Helvetica,sans-Serif" font-size="10.00" fill="#000000">/xla/service/computation</text>
<text text-anchor="middle" x="469.8351" y="-163.5" font-family="Helvetica,sans-Serif" font-size="10.00" fill="#000000">_tracker.h</text>
</a>
</g>
</g>
<!-- Node3&#45;&gt;Node13 -->
<g id="edge14" class="edge">
<title>Node3&#45;&gt;Node13</title>
<path fill="none" stroke="#191970" d="M1269.8253,-247.3218C1116.3306,-241.0118 685.4832,-221.6556 545.8351,-198 544.3589,-197.7499 542.8702,-197.4829 541.3726,-197.2008"/>
<polygon fill="#191970" stroke="#191970" points="541.9018,-193.7363 531.4005,-195.1407 540.4855,-200.5916 541.9018,-193.7363"/>
</g>
<!-- Node17 -->
<g id="node18" class="node">
<title>Node17</title>
<polygon fill="#ffffff" stroke="#bfbfbf" points="1782.8351,-84 1782.8351,-114 1910.8351,-114 1910.8351,-84 1782.8351,-84"/>
<text text-anchor="start" x="1790.8351" y="-102" font-family="Helvetica,sans-Serif" font-size="10.00" fill="#000000">tensorflow/compiler</text>
<text text-anchor="middle" x="1846.8351" y="-91" font-family="Helvetica,sans-Serif" font-size="10.00" fill="#000000">/xla/service/hlo_module.h</text>
</g>
<!-- Node3&#45;&gt;Node17 -->
<g id="edge52" class="edge">
<title>Node3&#45;&gt;Node17</title>
<path fill="none" stroke="#191970" d="M1380.042,-236.1986C1384.6899,-235.3532 1389.3324,-234.6016 1393.8351,-234 1438.2077,-228.0711 2167.8953,-230.3544 2198.8351,-198 2211.7362,-184.509 2210.9336,-170.2152 2198.8351,-156 2181.0574,-135.1119 2019.1898,-115.8267 1921.2587,-105.9361"/>
<polygon fill="#191970" stroke="#191970" points="1921.4095,-102.4338 1911.111,-104.9217 1920.7132,-109.3991 1921.4095,-102.4338"/>
</g>
<!-- Node18 -->
<g id="node19" class="node">
<title>Node18</title>
<polygon fill="#ffffff" stroke="#bfbfbf" points="261.3351,-78.5 261.3351,-119.5 380.3351,-119.5 380.3351,-78.5 261.3351,-78.5"/>
<text text-anchor="start" x="269.3351" y="-107.5" font-family="Helvetica,sans-Serif" font-size="10.00" fill="#000000">tensorflow/compiler</text>
<text text-anchor="start" x="269.3351" y="-96.5" font-family="Helvetica,sans-Serif" font-size="10.00" fill="#000000">/xla/service/hlo_module</text>
<text text-anchor="middle" x="320.8351" y="-85.5" font-family="Helvetica,sans-Serif" font-size="10.00" fill="#000000">_config.h</text>
</g>
<!-- Node3&#45;&gt;Node18 -->
<g id="edge53" class="edge">
<title>Node3&#45;&gt;Node18</title>
<path fill="none" stroke="#191970" d="M1269.7276,-249.0589C1082.1739,-247.199 475.9755,-238.1135 398.8351,-198 369.8714,-182.9387 348.1748,-151.8074 335.1124,-128.4527"/>
<polygon fill="#191970" stroke="#191970" points="338.1838,-126.7742 330.3702,-119.619 332.0164,-130.0852 338.1838,-126.7742"/>
</g>
<!-- Node19 -->
<g id="node20" class="node">
<title>Node19</title>
<polygon fill="#ffffff" stroke="#bfbfbf" points="1184.3351,-6 1184.3351,-36 1309.3351,-36 1309.3351,-6 1184.3351,-6"/>
<text text-anchor="start" x="1192.3351" y="-24" font-family="Helvetica,sans-Serif" font-size="10.00" fill="#000000">tensorflow/compiler</text>
<text text-anchor="middle" x="1246.8351" y="-13" font-family="Helvetica,sans-Serif" font-size="10.00" fill="#000000">/xla/service/session.pb.h</text>
</g>
<!-- Node3&#45;&gt;Node19 -->
<g id="edge54" class="edge">
<title>Node3&#45;&gt;Node19</title>
<path fill="none" stroke="#191970" d="M1379.9967,-234.7807C1381.6233,-234.4975 1383.2387,-234.2359 1384.8351,-234 1433.5137,-226.8056 2235.7547,-233.4949 2269.8351,-198 2306.7731,-159.5289 2306.8281,-116.4183 2269.8351,-78 2233.1242,-39.8746 1370.063,-50.5725 1317.8351,-42 1312.4442,-41.1151 1306.8864,-39.9453 1301.3657,-38.6095"/>
<polygon fill="#191970" stroke="#191970" points="1302.0712,-35.1767 1291.5125,-36.0515 1300.3122,-41.9521 1302.0712,-35.1767"/>
</g>
<!-- Node20 -->
<g id="node21" class="node">
<title>Node20</title>
<g id="a_node21"><a xlink:href="../../d6/d38/user__computation_8h.html" target="_top" xlink:title="tensorflow/compiler\l/xla/service/user_computation.h">
<polygon fill="#ffffff" stroke="#000000" points="837.3351,-84 837.3351,-114 992.3351,-114 992.3351,-84 837.3351,-84"/>
<text text-anchor="start" x="845.3351" y="-102" font-family="Helvetica,sans-Serif" font-size="10.00" fill="#000000">tensorflow/compiler</text>
<text text-anchor="middle" x="914.8351" y="-91" font-family="Helvetica,sans-Serif" font-size="10.00" fill="#000000">/xla/service/user_computation.h</text>
</a>
</g>
</g>
<!-- Node3&#45;&gt;Node20 -->
<g id="edge55" class="edge">
<title>Node3&#45;&gt;Node20</title>
<path fill="none" stroke="#191970" d="M1269.8165,-247.5247C1107.2472,-241.4238 639.0095,-221.8459 616.8351,-198 498.9505,-71.229 528.9313,-179.1836 822.8351,-120 828.5969,-118.8398 834.5505,-117.5923 840.529,-116.3048"/>
<polygon fill="#191970" stroke="#191970" points="841.5617,-119.6619 850.5846,-114.1087 840.068,-112.8231 841.5617,-119.6619"/>
</g>
<!-- Node22 -->
<g id="node23" class="node">
<title>Node22</title>
<polygon fill="#ffffff" stroke="#bfbfbf" points="280.3351,-.5 280.3351,-41.5 397.3351,-41.5 397.3351,-.5 280.3351,-.5"/>
<text text-anchor="start" x="288.3351" y="-29.5" font-family="Helvetica,sans-Serif" font-size="10.00" fill="#000000">tensorflow/compiler</text>
<text text-anchor="start" x="288.3351" y="-18.5" font-family="Helvetica,sans-Serif" font-size="10.00" fill="#000000">/xla/service/versioned</text>
<text text-anchor="middle" x="338.8351" y="-7.5" font-family="Helvetica,sans-Serif" font-size="10.00" fill="#000000">_computation_handle.h</text>
</g>
<!-- Node3&#45;&gt;Node22 -->
<g id="edge56" class="edge">
<title>Node3&#45;&gt;Node22</title>
<path fill="none" stroke="#191970" d="M1269.831,-248.549C1076.5906,-244.9397 435.8162,-230.6101 349.8351,-198 297.7855,-178.2591 276.0122,-170.1431 251.8351,-120 243.728,-103.1858 242.9614,-94.4226 251.8351,-78 258.6045,-65.4721 269.4588,-55.2537 281.2391,-47.1107"/>
<polygon fill="#191970" stroke="#191970" points="283.3996,-49.8835 289.9355,-41.5448 279.6261,-43.9876 283.3996,-49.8835"/>
</g>
<!-- Node3&#45;&gt;Node23 -->
<g id="edge58" class="edge">
<title>Node3&#45;&gt;Node23</title>
<path fill="none" stroke="#191970" d="M1269.7209,-248.152C1054.6399,-242.7302 281.3145,-221.6652 234.8351,-198 169.1581,-164.5601 123.6397,-85.473 103.8901,-45.3106"/>
<polygon fill="#191970" stroke="#191970" points="107.0107,-43.7236 99.5336,-36.2174 100.6979,-46.7481 107.0107,-43.7236"/>
</g>
<!-- Node24 -->
<g id="node25" class="node">
<title>Node24</title>
<polygon fill="#ffffff" stroke="#bfbfbf" points="1327.3351,-6 1327.3351,-36 1428.3351,-36 1428.3351,-6 1327.3351,-6"/>
<text text-anchor="start" x="1335.3351" y="-24" font-family="Helvetica,sans-Serif" font-size="10.00" fill="#000000">tensorflow/compiler</text>
<text text-anchor="middle" x="1377.8351" y="-13" font-family="Helvetica,sans-Serif" font-size="10.00" fill="#000000">/xla/types.h</text>
</g>
<!-- Node3&#45;&gt;Node24 -->
<g id="edge59" class="edge">
<title>Node3&#45;&gt;Node24</title>
<path fill="none" stroke="#191970" d="M1379.9962,-234.7772C1381.6229,-234.4949 1383.2385,-234.2346 1384.8351,-234 1435.6067,-226.5397 2272.2628,-234.9868 2307.8351,-198 2344.8053,-159.5598 2344.7597,-116.4841 2307.8351,-78 2274.3436,-43.094 1485.3483,-51.0892 1437.8351,-42 1433.6889,-41.2068 1429.4423,-40.1819 1425.2177,-39.0121"/>
<polygon fill="#191970" stroke="#191970" points="1426.0433,-35.6053 1415.4582,-36.0607 1424.017,-42.3056 1426.0433,-35.6053"/>
</g>
<!-- Node25 -->
<g id="node26" class="node">
<title>Node25</title>
<polygon fill="#ffffff" stroke="#bfbfbf" points="2072.3351,-6 2072.3351,-36 2173.3351,-36 2173.3351,-6 2072.3351,-6"/>
<text text-anchor="start" x="2080.3351" y="-24" font-family="Helvetica,sans-Serif" font-size="10.00" fill="#000000">tensorflow/compiler</text>
<text text-anchor="middle" x="2122.8351" y="-13" font-family="Helvetica,sans-Serif" font-size="10.00" fill="#000000">/xla/xla.pb.h</text>
</g>
<!-- Node3&#45;&gt;Node25 -->
<g id="edge60" class="edge">
<title>Node3&#45;&gt;Node25</title>
<path fill="none" stroke="#191970" d="M1379.9953,-234.7707C1381.6223,-234.4904 1383.2381,-234.2322 1384.8351,-234 1439.9032,-225.9937 2347.2003,-238.0493 2385.8351,-198 2422.8636,-159.6159 2419.3161,-119.5147 2385.8351,-78 2360.8858,-47.0642 2252.9394,-32.072 2183.3319,-25.4951"/>
<polygon fill="#191970" stroke="#191970" points="2183.6312,-22.008 2173.3546,-24.585 2182.9952,-28.9791 2183.6312,-22.008"/>
</g>
<!-- Node3&#45;&gt;Node26 -->
<g id="edge61" class="edge">
<title>Node3&#45;&gt;Node26</title>
<path fill="none" stroke="#191970" d="M1269.5639,-248.46C1058.4231,-244.2738 312.5475,-227.4506 271.8351,-198 223.2942,-162.8864 213.5615,-86.3481 211.9072,-46.4066"/>
<polygon fill="#191970" stroke="#191970" points="215.3996,-46.0776 211.6293,-36.1764 208.4022,-46.2678 215.3996,-46.0776"/>
</g>
<!-- Node27 -->
<g id="node28" class="node">
<title>Node27</title>
<polygon fill="#ffffff" stroke="#bfbfbf" points="1446.8351,-6 1446.8351,-36 1568.8351,-36 1568.8351,-6 1446.8351,-6"/>
<text text-anchor="start" x="1454.8351" y="-24" font-family="Helvetica,sans-Serif" font-size="10.00" fill="#000000">tensorflow/core/platform</text>
<text text-anchor="middle" x="1507.8351" y="-13" font-family="Helvetica,sans-Serif" font-size="10.00" fill="#000000">/macros.h</text>
</g>
<!-- Node3&#45;&gt;Node27 -->
<g id="edge64" class="edge">
<title>Node3&#45;&gt;Node27</title>
<path fill="none" stroke="#191970" d="M1379.9959,-234.7749C1381.6227,-234.4933 1383.2384,-234.2338 1384.8351,-234 1437.0388,-226.3577 2297.242,-236.0076 2333.8351,-198 2370.8258,-159.5795 2370.5416,-116.6921 2333.8351,-78 2307.6838,-50.4339 1688.6453,-45.7645 1650.8351,-42 1627.3446,-39.6612 1601.8069,-36.2053 1578.8992,-32.7693"/>
<polygon fill="#191970" stroke="#191970" points="1579.3304,-29.2947 1568.9174,-31.2488 1578.2763,-36.2148 1579.3304,-29.2947"/>
</g>
<!-- Node31 -->
<g id="node32" class="node">
<title>Node31</title>
<polygon fill="#ffffff" stroke="#bfbfbf" points="1271.3351,-156.5 1271.3351,-197.5 1378.3351,-197.5 1378.3351,-156.5 1271.3351,-156.5"/>
<text text-anchor="start" x="1279.3351" y="-185.5" font-family="Helvetica,sans-Serif" font-size="10.00" fill="#000000">tensorflow/compiler</text>
<text text-anchor="start" x="1279.3351" y="-174.5" font-family="Helvetica,sans-Serif" font-size="10.00" fill="#000000">/xla/service/device</text>
<text text-anchor="middle" x="1324.8351" y="-163.5" font-family="Helvetica,sans-Serif" font-size="10.00" fill="#000000">_memory_allocator.h</text>
</g>
<!-- Node3&#45;&gt;Node31 -->
<g id="edge48" class="edge">
<title>Node3&#45;&gt;Node31</title>
<path fill="none" stroke="#191970" d="M1324.8351,-234.478C1324.8351,-226.7032 1324.8351,-216.9168 1324.8351,-207.634"/>
<polygon fill="#191970" stroke="#191970" points="1328.3352,-207.5015 1324.8351,-197.5015 1321.3352,-207.5015 1328.3352,-207.5015"/>
</g>
<!-- Node32 -->
<g id="node33" class="node">
<title>Node32</title>
<polygon fill="#ffffff" stroke="#bfbfbf" points="1396.3351,-162 1396.3351,-192 1521.3351,-192 1521.3351,-162 1396.3351,-162"/>
<text text-anchor="start" x="1404.3351" y="-180" font-family="Helvetica,sans-Serif" font-size="10.00" fill="#000000">tensorflow/compiler</text>
<text text-anchor="middle" x="1458.8351" y="-169" font-family="Helvetica,sans-Serif" font-size="10.00" fill="#000000">/xla/service/executable.h</text>
</g>
<!-- Node3&#45;&gt;Node32 -->
<g id="edge49" class="edge">
<title>Node3&#45;&gt;Node32</title>
<path fill="none" stroke="#191970" d="M1352.6,-234.478C1372.723,-223.5905 1400.1367,-208.7585 1422.0757,-196.8885"/>
<polygon fill="#191970" stroke="#191970" points="1423.9761,-199.8398 1431.1058,-192.0028 1420.6451,-193.6831 1423.9761,-199.8398"/>
</g>
<!-- Node33 -->
<g id="node34" class="node">
<title>Node33</title>
<polygon fill="#ffffff" stroke="#bfbfbf" points="1539.8351,-156.5 1539.8351,-197.5 1651.8351,-197.5 1651.8351,-156.5 1539.8351,-156.5"/>
<text text-anchor="start" x="1547.8351" y="-185.5" font-family="Helvetica,sans-Serif" font-size="10.00" fill="#000000">tensorflow/compiler</text>
<text text-anchor="start" x="1547.8351" y="-174.5" font-family="Helvetica,sans-Serif" font-size="10.00" fill="#000000">/xla/service/execution</text>
<text text-anchor="middle" x="1595.8351" y="-163.5" font-family="Helvetica,sans-Serif" font-size="10.00" fill="#000000">_tracker.h</text>
</g>
<!-- Node3&#45;&gt;Node33 -->
<g id="edge50" class="edge">
<title>Node3&#45;&gt;Node33</title>
<path fill="none" stroke="#191970" d="M1379.8971,-236.6464C1421.3106,-226.7422 1479.3612,-212.3551 1529.8351,-198 1529.9363,-197.9712 1530.0376,-197.9424 1530.139,-197.9135"/>
<polygon fill="#191970" stroke="#191970" points="1531.1199,-201.2733 1539.7373,-195.1096 1529.157,-194.5541 1531.1199,-201.2733"/>
</g>
<!-- Node34 -->
<g id="node35" class="node">
<title>Node34</title>
<polygon fill="#ffffff" stroke="#bfbfbf" points="1669.8351,-156.5 1669.8351,-197.5 1799.8351,-197.5 1799.8351,-156.5 1669.8351,-156.5"/>
<text text-anchor="start" x="1677.8351" y="-185.5" font-family="Helvetica,sans-Serif" font-size="10.00" fill="#000000">tensorflow/compiler</text>
<text text-anchor="start" x="1677.8351" y="-174.5" font-family="Helvetica,sans-Serif" font-size="10.00" fill="#000000">/xla/service/hlo_execution</text>
<text text-anchor="middle" x="1734.8351" y="-163.5" font-family="Helvetica,sans-Serif" font-size="10.00" fill="#000000">_profile.h</text>
</g>
<!-- Node3&#45;&gt;Node34 -->
<g id="edge51" class="edge">
<title>Node3&#45;&gt;Node34</title>
<path fill="none" stroke="#191970" d="M1380.1109,-236.6387C1384.7435,-235.6961 1389.3638,-234.8021 1393.8351,-234 1508.4716,-213.436 1541.7989,-221.9075 1659.4632,-198.1424"/>
<polygon fill="#191970" stroke="#191970" points="1660.5,-201.5025 1669.5903,-196.0603 1659.0903,-194.6459 1660.5,-201.5025"/>
</g>
<!-- Node35 -->
<g id="node36" class="node">
<title>Node35</title>
<polygon fill="#ffffff" stroke="#bfbfbf" points="1817.8351,-162 1817.8351,-192 1935.8351,-192 1935.8351,-162 1817.8351,-162"/>
<text text-anchor="start" x="1825.8351" y="-180" font-family="Helvetica,sans-Serif" font-size="10.00" fill="#000000">tensorflow/compiler</text>
<text text-anchor="middle" x="1876.8351" y="-169" font-family="Helvetica,sans-Serif" font-size="10.00" fill="#000000">/xla/service_interface.h</text>
</g>
<!-- Node3&#45;&gt;Node35 -->
<g id="edge57" class="edge">
<title>Node3&#45;&gt;Node35</title>
<path fill="none" stroke="#191970" d="M1380.0718,-236.4052C1384.7131,-235.5141 1389.346,-234.6957 1393.8351,-234 1576.7883,-205.6472 1627.1365,-233.5157 1808.8351,-198 1813.5151,-197.0852 1818.3295,-195.969 1823.1313,-194.7328"/>
<polygon fill="#191970" stroke="#191970" points="1824.2018,-198.0687 1832.9233,-192.0531 1822.354,-191.3169 1824.2018,-198.0687"/>
</g>
<!-- Node36 -->
<g id="node37" class="node">
<title>Node36</title>
<polygon fill="#ffffff" stroke="#bfbfbf" points="1953.8351,-162 1953.8351,-192 2049.8351,-192 2049.8351,-162 1953.8351,-162"/>
<text text-anchor="start" x="1961.8351" y="-180" font-family="Helvetica,sans-Serif" font-size="10.00" fill="#000000">tensorflow/core/lib</text>
<text text-anchor="middle" x="2001.8351" y="-169" font-family="Helvetica,sans-Serif" font-size="10.00" fill="#000000">/gtl/array_slice.h</text>
</g>
<!-- Node3&#45;&gt;Node36 -->
<g id="edge62" class="edge">
<title>Node3&#45;&gt;Node36</title>
<path fill="none" stroke="#191970" d="M1380.0561,-236.3002C1384.7009,-235.4323 1389.3388,-234.6479 1393.8351,-234 1636.7375,-198.9999 1704.7705,-248.9463 1944.8351,-198 1948.5071,-197.2207 1952.2599,-196.2522 1956,-195.1621"/>
<polygon fill="#191970" stroke="#191970" points="1957.3402,-198.4086 1965.8066,-192.0391 1955.2161,-191.7386 1957.3402,-198.4086"/>
</g>
<!-- Node37 -->
<g id="node38" class="node">
<title>Node37</title>
<polygon fill="#ffffff" stroke="#bfbfbf" points="2067.8351,-162 2067.8351,-192 2189.8351,-192 2189.8351,-162 2067.8351,-162"/>
<text text-anchor="start" x="2075.8351" y="-180" font-family="Helvetica,sans-Serif" font-size="10.00" fill="#000000">tensorflow/core/platform</text>
<text text-anchor="middle" x="2128.8351" y="-169" font-family="Helvetica,sans-Serif" font-size="10.00" fill="#000000">/logging.h</text>
</g>
<!-- Node3&#45;&gt;Node37 -->
<g id="edge63" class="edge">
<title>Node3&#45;&gt;Node37</title>
<path fill="none" stroke="#191970" d="M1380.0483,-236.2451C1384.6948,-235.3893 1389.3353,-234.6228 1393.8351,-234 1687.0288,-193.4221 1767.2534,-248.8838 2058.8351,-198 2063.9382,-197.1095 2069.1941,-195.9688 2074.4241,-194.6805"/>
<polygon fill="#191970" stroke="#191970" points="2075.6268,-197.9831 2084.4032,-192.048 2073.8412,-191.2147 2075.6268,-197.9831"/>
</g>
<!-- Node3&#45;&gt;Node38 -->
<g id="edge65" class="edge">
<title>Node3&#45;&gt;Node38</title>
<path fill="none" stroke="#191970" d="M1380.0342,-236.1388C1384.6838,-235.3066 1389.3288,-234.5744 1393.8351,-234 1880.8223,-171.9252 2011.444,-264.584 2497.8351,-198 2504.9539,-197.0255 2512.3406,-195.7066 2519.6601,-194.2015"/>
<polygon fill="#191970" stroke="#191970" points="2520.5391,-197.5923 2529.568,-192.0487 2519.0528,-190.7519 2520.5391,-197.5923"/>
</g>
<!-- Node13&#45;&gt;Node5 -->
<g id="edge17" class="edge">
<title>Node13&#45;&gt;Node5</title>
<path fill="none" stroke="#191970" d="M531.5122,-159.4258C536.3449,-158.2116 541.1613,-157.0536 545.8351,-156 636.0761,-135.658 668.2764,-161.7287 750.8351,-120 774.9628,-107.8049 772.2423,-92.8469 794.8351,-78 829.1209,-55.4691 843.267,-60.5994 879.8351,-42 883.4965,-40.1377 887.2944,-38.0421 890.9792,-35.9142"/>
<polygon fill="#191970" stroke="#191970" points="892.9693,-38.8025 899.7636,-30.673 889.3827,-32.7911 892.9693,-38.8025"/>
</g>
<!-- Node13&#45;&gt;Node6 -->
<g id="edge19" class="edge">
<title>Node13&#45;&gt;Node6</title>
<path fill="none" stroke="#191970" d="M531.6166,-167.4959C557.855,-163.6357 588.8014,-159.3145 616.8351,-156 787.0645,-135.8732 839.5051,-177.9287 1000.8351,-120 1052.0905,-101.5957 1102.4286,-60.6601 1128.1647,-37.6069"/>
<polygon fill="#191970" stroke="#191970" points="1130.5961,-40.1264 1135.626,-30.8017 1125.879,-34.9545 1130.5961,-40.1264"/>
</g>
<!-- Node14 -->
<g id="node15" class="node">
<title>Node14</title>
<polygon fill="#ffffff" stroke="#bfbfbf" points="713.3351,-89.5 713.3351,-108.5 742.3351,-108.5 742.3351,-89.5 713.3351,-89.5"/>
<text text-anchor="middle" x="727.8351" y="-96.5" font-family="Helvetica,sans-Serif" font-size="10.00" fill="#000000">list</text>
</g>
<!-- Node13&#45;&gt;Node14 -->
<g id="edge15" class="edge">
<title>Node13&#45;&gt;Node14</title>
<path fill="none" stroke="#191970" d="M531.5839,-159.7239C536.4002,-158.4418 541.1934,-157.1869 545.8351,-156 613.5146,-138.6941 635.306,-149.0525 698.8351,-120 702.0998,-118.507 705.3673,-116.619 708.4702,-114.5901"/>
<polygon fill="#191970" stroke="#191970" points="710.5684,-117.3923 716.6405,-108.7101 706.4794,-111.7107 710.5684,-117.3923"/>
</g>
<!-- Node15 -->
<g id="node16" class="node">
<title>Node15</title>
<polygon fill="#ffffff" stroke="#bfbfbf" points="415.3351,-11.5 415.3351,-30.5 450.3351,-30.5 450.3351,-11.5 415.3351,-11.5"/>
<text text-anchor="middle" x="432.8351" y="-18.5" font-family="Helvetica,sans-Serif" font-size="10.00" fill="#000000">map</text>
</g>
<!-- Node13&#45;&gt;Node15 -->
<g id="edge16" class="edge">
<title>Node13&#45;&gt;Node15</title>
<path fill="none" stroke="#191970" d="M515.126,-156.4144C529.534,-147.4236 543.8032,-135.365 551.8351,-120 560.4827,-103.4572 562.3582,-93.4178 551.8351,-78 527.0826,-41.7341 498.0042,-63.7031 459.8351,-42 457.0846,-40.436 454.3094,-38.6134 451.639,-36.7075"/>
<polygon fill="#191970" stroke="#191970" points="453.6855,-33.8662 443.6231,-30.5497 449.4211,-39.4173 453.6855,-33.8662"/>
</g>
<!-- Node16 -->
<g id="node17" class="node">
<title>Node16</title>
<polygon fill="#ffffff" stroke="#bfbfbf" points="512.8351,-89.5 512.8351,-108.5 542.8351,-108.5 542.8351,-89.5 512.8351,-89.5"/>
<text text-anchor="middle" x="527.8351" y="-96.5" font-family="Helvetica,sans-Serif" font-size="10.00" fill="#000000">set</text>
</g>
<!-- Node13&#45;&gt;Node16 -->
<g id="edge18" class="edge">
<title>Node13&#45;&gt;Node16</title>
<path fill="none" stroke="#191970" d="M485.3781,-156.0974C494.4694,-143.8711 505.828,-128.5957 514.5085,-116.922"/>
<polygon fill="#191970" stroke="#191970" points="517.3842,-118.9203 520.5426,-108.8072 511.7669,-114.7433 517.3842,-118.9203"/>
</g>
<!-- Node13&#45;&gt;Node17 -->
<g id="edge20" class="edge">
<title>Node13&#45;&gt;Node17</title>
<path fill="none" stroke="#191970" d="M531.5443,-166.8119C557.7708,-162.8388 588.7278,-158.6183 616.8351,-156 980.0581,-122.1644 1072.4515,-137.3302 1436.8351,-120 1554.214,-114.4174 1690.4613,-107.3152 1772.5864,-102.9663"/>
<polygon fill="#191970" stroke="#191970" points="1772.774,-106.4613 1782.5747,-102.4368 1772.4034,-99.4711 1772.774,-106.4613"/>
</g>
<!-- Node13&#45;&gt;Node18 -->
<g id="edge21" class="edge">
<title>Node13&#45;&gt;Node18</title>
<path fill="none" stroke="#191970" d="M430.2971,-156.3022C411.4564,-146.4393 388.7577,-134.5568 368.9266,-124.1754"/>
<polygon fill="#191970" stroke="#191970" points="370.5237,-121.0609 360.041,-119.5239 367.2772,-127.2626 370.5237,-121.0609"/>
</g>
<!-- Node13&#45;&gt;Node19 -->
<g id="edge22" class="edge">
<title>Node13&#45;&gt;Node19</title>
<path fill="none" stroke="#191970" d="M531.5989,-167.343C557.8344,-163.4576 588.7834,-159.159 616.8351,-156 810.0511,-134.2416 865.8163,-173.1957 1052.8351,-120 1114.0246,-102.5952 1178.577,-65.3084 1215.644,-41.7896"/>
<polygon fill="#191970" stroke="#191970" points="1217.9356,-44.4774 1224.4568,-36.1273 1214.1518,-38.5882 1217.9356,-44.4774"/>
</g>
<!-- Node13&#45;&gt;Node20 -->
<g id="edge23" class="edge">
<title>Node13&#45;&gt;Node20</title>
<path fill="none" stroke="#191970" d="M531.3417,-165.5344C548.3401,-162.4026 566.7963,-159.0363 583.8351,-156 666.2867,-141.307 760.4091,-125.159 827.1534,-113.8135"/>
<polygon fill="#191970" stroke="#191970" points="827.938,-117.2304 837.2106,-112.105 826.7657,-110.3293 827.938,-117.2304"/>
</g>
<!-- Node13&#45;&gt;Node22 -->
<g id="edge40" class="edge">
<title>Node13&#45;&gt;Node22</title>
<path fill="none" stroke="#191970" d="M473.5352,-156.4117C476.2294,-134.8628 477.001,-101.0223 460.8351,-78 453.479,-67.524 430.0917,-55.5803 405.7347,-45.3416"/>
<polygon fill="#191970" stroke="#191970" points="406.9638,-42.0628 396.3835,-41.5076 404.3083,-48.5396 406.9638,-42.0628"/>
</g>
<!-- Node13&#45;&gt;Node23 -->
<g id="edge41" class="edge">
<title>Node13&#45;&gt;Node23</title>
<path fill="none" stroke="#191970" d="M452.8217,-156.4578C443.8738,-145.6311 432.7355,-132.1177 422.8351,-120 407.64,-101.4017 409.671,-89.9439 388.8351,-78 296.4033,-25.0144 255.1602,-67.9817 151.8351,-42 148.4642,-41.1524 145.0152,-40.189 141.56,-39.1519"/>
<polygon fill="#191970" stroke="#191970" points="142.4569,-35.7645 131.8665,-36.0692 140.3355,-42.4353 142.4569,-35.7645"/>
</g>
<!-- Node13&#45;&gt;Node24 -->
<g id="edge42" class="edge">
<title>Node13&#45;&gt;Node24</title>
<path fill="none" stroke="#191970" d="M531.583,-167.1982C557.8159,-163.2889 588.7672,-159.0116 616.8351,-156 838.3611,-132.2313 899.2728,-168.0142 1116.8351,-120 1197.9721,-102.0937 1287.4973,-63.7672 1337.7824,-40.4039"/>
<polygon fill="#191970" stroke="#191970" points="1339.4335,-43.4955 1347.0031,-36.0827 1336.4629,-37.1571 1339.4335,-43.4955"/>
</g>
<!-- Node13&#45;&gt;Node26 -->
<g id="edge43" class="edge">
<title>Node13&#45;&gt;Node26</title>
<path fill="none" stroke="#191970" d="M465.5981,-156.2595C459.864,-133.5912 447.3923,-97.8607 422.8351,-78 368.855,-34.3434 337.4149,-61.6693 270.8351,-42 267.9058,-41.1346 264.9088,-40.2062 261.8944,-39.2391"/>
<polygon fill="#191970" stroke="#191970" points="262.862,-35.8727 252.2686,-36.0483 260.6594,-42.5171 262.862,-35.8727"/>
</g>
<!-- Node13&#45;&gt;Node27 -->
<g id="edge44" class="edge">
<title>Node13&#45;&gt;Node27</title>
<path fill="none" stroke="#191970" d="M531.5687,-167.0619C557.7992,-163.1301 588.7527,-158.8728 616.8351,-156 873.7681,-129.7163 942.9726,-167.5308 1196.8351,-120 1293.1182,-101.9729 1401.186,-63.1465 1461.2146,-39.8331"/>
<polygon fill="#191970" stroke="#191970" points="1462.7453,-42.9926 1470.783,-36.09 1460.1951,-36.4737 1462.7453,-42.9926"/>
</g>
<!-- Node28 -->
<g id="node29" class="node">
<title>Node28</title>
<polygon fill="#ffffff" stroke="#bfbfbf" points="468.8351,-6 468.8351,-36 590.8351,-36 590.8351,-6 468.8351,-6"/>
<text text-anchor="start" x="476.8351" y="-24" font-family="Helvetica,sans-Serif" font-size="10.00" fill="#000000">tensorflow/core/platform</text>
<text text-anchor="middle" x="529.8351" y="-13" font-family="Helvetica,sans-Serif" font-size="10.00" fill="#000000">/mutex.h</text>
</g>
<!-- Node13&#45;&gt;Node28 -->
<g id="edge45" class="edge">
<title>Node13&#45;&gt;Node28</title>
<path fill="none" stroke="#191970" d="M529.0009,-156.3649C545.086,-147.7285 560.5988,-135.8962 569.8351,-120 584.1594,-95.3473 566.8321,-64.5811 550.7159,-43.9467"/>
<polygon fill="#191970" stroke="#191970" points="553.2653,-41.5366 544.2094,-36.0373 547.8594,-45.9836 553.2653,-41.5366"/>
</g>
<!-- Node29 -->
<g id="node30" class="node">
<title>Node29</title>
<polygon fill="#ffffff" stroke="#bfbfbf" points="608.8351,-6 608.8351,-36 730.8351,-36 730.8351,-6 608.8351,-6"/>
<text text-anchor="start" x="616.8351" y="-24" font-family="Helvetica,sans-Serif" font-size="10.00" fill="#000000">tensorflow/core/platform</text>
<text text-anchor="middle" x="669.8351" y="-13" font-family="Helvetica,sans-Serif" font-size="10.00" fill="#000000">/thread_annotations.h</text>
</g>
<!-- Node13&#45;&gt;Node29 -->
<g id="edge46" class="edge">
<title>Node13&#45;&gt;Node29</title>
<path fill="none" stroke="#191970" d="M523.8296,-156.4117C544.6584,-147.052 567.9617,-134.7451 586.8351,-120 614.4858,-98.3976 639.3382,-66.2256 654.4861,-44.4702"/>
<polygon fill="#191970" stroke="#191970" points="657.4339,-46.3597 660.1765,-36.126 651.6507,-42.4158 657.4339,-46.3597"/>
</g>
<!-- Node30 -->
<g id="node31" class="node">
<title>Node30</title>
<polygon fill="#ffffff" stroke="#bfbfbf" points="748.8351,-6 748.8351,-36 870.8351,-36 870.8351,-6 748.8351,-6"/>
<text text-anchor="start" x="756.8351" y="-24" font-family="Helvetica,sans-Serif" font-size="10.00" fill="#000000">tensorflow/core/platform</text>
<text text-anchor="middle" x="809.8351" y="-13" font-family="Helvetica,sans-Serif" font-size="10.00" fill="#000000">/types.h</text>
</g>
<!-- Node13&#45;&gt;Node30 -->
<g id="edge47" class="edge">
<title>Node13&#45;&gt;Node30</title>
<path fill="none" stroke="#191970" d="M530.0949,-156.3793C558.2947,-146.2288 592.1355,-133.3248 621.8351,-120 636.8453,-113.2656 722.2312,-67.8412 772.6194,-40.9202"/>
<polygon fill="#191970" stroke="#191970" points="774.4265,-43.9229 781.5958,-36.1223 771.1267,-37.7495 774.4265,-43.9229"/>
</g>
<!-- Node20&#45;&gt;Node4 -->
<g id="edge24" class="edge">
<title>Node20&#45;&gt;Node4</title>
<path fill="none" stroke="#191970" d="M992.4719,-96.9523C1190.8612,-91.4064 1732.5268,-74.2965 2182.8351,-42 2243.4401,-37.6534 2313.5251,-30.2917 2356.2534,-25.54"/>
<polygon fill="#191970" stroke="#191970" points="2356.6957,-29.0125 2366.244,-24.421 2355.9165,-22.056 2356.6957,-29.0125"/>
</g>
<!-- Node20&#45;&gt;Node5 -->
<g id="edge26" class="edge">
<title>Node20&#45;&gt;Node5</title>
<path fill="none" stroke="#191970" d="M914.8351,-83.9608C914.8351,-71.6484 914.8351,-54.134 914.8351,-40.7024"/>
<polygon fill="#191970" stroke="#191970" points="918.3352,-40.5838 914.8351,-30.5839 911.3352,-40.5839 918.3352,-40.5838"/>
</g>
<!-- Node20&#45;&gt;Node6 -->
<g id="edge27" class="edge">
<title>Node20&#45;&gt;Node6</title>
<path fill="none" stroke="#191970" d="M990.0201,-83.9919C1028.7314,-74.7116 1076.0289,-60.9118 1115.8351,-42 1119.1514,-40.4245 1122.4981,-38.4911 1125.6928,-36.4415"/>
<polygon fill="#191970" stroke="#191970" points="1127.9357,-39.1447 1134.1422,-30.5581 1123.9357,-33.4001 1127.9357,-39.1447"/>
</g>
<!-- Node20&#45;&gt;Node7 -->
<g id="edge28" class="edge">
<title>Node20&#45;&gt;Node7</title>
<path fill="none" stroke="#191970" d="M992.482,-95.1878C1116.6277,-88.4501 1367.274,-72.2104 1577.8351,-42 1602.168,-38.5088 1629.3939,-32.9507 1649.8839,-28.4294"/>
<polygon fill="#191970" stroke="#191970" points="1650.6536,-31.8438 1659.646,-26.2415 1649.1227,-25.0132 1650.6536,-31.8438"/>
</g>
<!-- Node20&#45;&gt;Node15 -->
<g id="edge25" class="edge">
<title>Node20&#45;&gt;Node15</title>
<path fill="none" stroke="#191970" d="M837.2585,-88.9974C809.9447,-85.4939 779.0303,-81.5492 750.8351,-78 621.5362,-61.7239 580.2661,-91.7946 459.8351,-42 456.6522,-40.684 453.5256,-38.8863 450.5932,-36.8928"/>
<polygon fill="#191970" stroke="#191970" points="452.5587,-33.9875 442.5164,-30.6107 448.261,-39.513 452.5587,-33.9875"/>
</g>
<!-- Node20&#45;&gt;Node19 -->
<g id="edge30" class="edge">
<title>Node20&#45;&gt;Node19</title>
<path fill="none" stroke="#191970" d="M989.6811,-83.9987C1041.8054,-73.2082 1112.8196,-57.8223 1174.8351,-42 1178.8803,-40.9679 1183.0417,-39.865 1187.2266,-38.7251"/>
<polygon fill="#191970" stroke="#191970" points="1188.2915,-42.0619 1196.9907,-36.0142 1186.4188,-35.317 1188.2915,-42.0619"/>
</g>
<!-- Node21 -->
<g id="node22" class="node">
<title>Node21</title>
<polygon fill="#ffffff" stroke="#bfbfbf" points="958.3351,-6 958.3351,-36 1107.3351,-36 1107.3351,-6 958.3351,-6"/>
<text text-anchor="start" x="966.3351" y="-24" font-family="Helvetica,sans-Serif" font-size="10.00" fill="#000000">tensorflow/compiler</text>
<text text-anchor="middle" x="1032.8351" y="-13" font-family="Helvetica,sans-Serif" font-size="10.00" fill="#000000">/xla/service/hlo_computation.h</text>
</g>
<!-- Node20&#45;&gt;Node21 -->
<g id="edge29" class="edge">
<title>Node20&#45;&gt;Node21</title>
<path fill="none" stroke="#191970" d="M937.5867,-83.9608C955.6716,-72.0064 981.1753,-55.148 1001.2414,-41.884"/>
<polygon fill="#191970" stroke="#191970" points="1003.3386,-44.6933 1009.7508,-36.2592 999.4785,-38.8538 1003.3386,-44.6933"/>
</g>
<!-- Node20&#45;&gt;Node22 -->
<g id="edge31" class="edge">
<title>Node20&#45;&gt;Node22</title>
<path fill="none" stroke="#191970" d="M837.2953,-88.6932C809.9847,-85.1632 779.0629,-81.2796 750.8351,-78 600.9894,-60.5906 558.6176,-72.6655 407.5937,-42.1816"/>
<polygon fill="#191970" stroke="#191970" points="407.9855,-38.6893 397.4865,-40.1114 406.5808,-45.5469 407.9855,-38.6893"/>
</g>
<!-- Node20&#45;&gt;Node23 -->
<g id="edge32" class="edge">
<title>Node20&#45;&gt;Node23</title>
<path fill="none" stroke="#191970" d="M836.955,-87.9381C809.7523,-84.3637 778.9852,-80.6452 750.8351,-78 485.3023,-53.0487 413.1689,-95.2441 151.8351,-42 147.9316,-41.2047 143.9368,-40.2068 139.9568,-39.0807"/>
<polygon fill="#191970" stroke="#191970" points="140.7421,-35.6603 130.1547,-36.0596 138.6802,-42.3498 140.7421,-35.6603"/>
</g>
<!-- Node20&#45;&gt;Node24 -->
<g id="edge33" class="edge">
<title>Node20&#45;&gt;Node24</title>
<path fill="none" stroke="#191970" d="M992.5698,-92.5673C1074.3623,-84.7415 1206.4344,-69.0953 1317.8351,-42 1321.4242,-41.1271 1325.1003,-40.1234 1328.7795,-39.0382"/>
<polygon fill="#191970" stroke="#191970" points="1329.9678,-42.3338 1338.4675,-36.0087 1327.8786,-35.6528 1329.9678,-42.3338"/>
</g>
<!-- Node20&#45;&gt;Node25 -->
<g id="edge34" class="edge">
<title>Node20&#45;&gt;Node25</title>
<path fill="none" stroke="#191970" d="M992.701,-93.9722C1216.9519,-79.4925 1861.0275,-37.9048 2062.1095,-24.921"/>
<polygon fill="#191970" stroke="#191970" points="2062.4382,-28.4072 2072.1918,-24.27 2061.9871,-21.4217 2062.4382,-28.4072"/>
</g>
<!-- Node20&#45;&gt;Node26 -->
<g id="edge35" class="edge">
<title>Node20&#45;&gt;Node26</title>
<path fill="none" stroke="#191970" d="M836.9318,-88.1751C809.7272,-84.6205 778.9649,-80.8539 750.8351,-78 537.9952,-56.4066 480.1386,-86.2625 270.8351,-42 266.9957,-41.1881 263.0661,-40.1876 259.1481,-39.068"/>
<polygon fill="#191970" stroke="#191970" points="260.0785,-35.6922 249.4907,-36.0788 258.0087,-42.3792 260.0785,-35.6922"/>
</g>
<!-- Node20&#45;&gt;Node27 -->
<g id="edge36" class="edge">
<title>Node20&#45;&gt;Node27</title>
<path fill="none" stroke="#191970" d="M992.4441,-94.8699C1094.989,-88.4256 1280.8679,-73.3191 1436.8351,-42 1441.5493,-41.0534 1446.4017,-39.935 1451.2513,-38.7153"/>
<polygon fill="#191970" stroke="#191970" points="1452.386,-42.0356 1461.1567,-36.092 1450.5938,-35.2689 1452.386,-42.0356"/>
</g>
<!-- Node20&#45;&gt;Node28 -->
<g id="edge37" class="edge">
<title>Node20&#45;&gt;Node28</title>
<path fill="none" stroke="#191970" d="M837.3047,-87.4637C773.2329,-77.3347 680.092,-61.2354 599.8351,-42 595.7403,-41.0186 591.5307,-39.9387 587.305,-38.8024"/>
<polygon fill="#191970" stroke="#191970" points="588.034,-35.3724 577.462,-36.0682 586.1604,-42.117 588.034,-35.3724"/>
</g>
<!-- Node20&#45;&gt;Node29 -->
<g id="edge38" class="edge">
<title>Node20&#45;&gt;Node29</title>
<path fill="none" stroke="#191970" d="M867.5967,-83.9608C827.4769,-71.188 769.7727,-52.8169 727.0432,-39.2132"/>
<polygon fill="#191970" stroke="#191970" points="727.9365,-35.8245 717.3459,-36.1259 725.8129,-42.4947 727.9365,-35.8245"/>
</g>
<!-- Node20&#45;&gt;Node30 -->
<g id="edge39" class="edge">
<title>Node20&#45;&gt;Node30</title>
<path fill="none" stroke="#191970" d="M894.5901,-83.9608C878.714,-72.1672 856.413,-55.6007 838.6714,-42.4212"/>
<polygon fill="#191970" stroke="#191970" points="840.4909,-39.4128 830.3763,-36.2592 836.3166,-45.032 840.4909,-39.4128"/>
</g>
</g>
</svg>
