<?xml version="1.0" encoding="UTF-8" standalone="no"?>
<!DOCTYPE svg PUBLIC "-//W3C//DTD SVG 1.1//EN"
 "http://www.w3.org/Graphics/SVG/1.1/DTD/svg11.dtd">
<!-- Generated by graphviz version 2.40.1 (20161225.0304)
 -->
<!-- Title: tensorflow/tensorflow/compiler/xla/service/compile_only_service.h Pages: 1 -->
<!--zoomable 418 -->
<svg id="main" version="1.1" xmlns="http://www.w3.org/2000/svg" xmlns:xlink="http://www.w3.org/1999/xlink" xml:space="preserve" onload="init(evt)">
<style type="text/css"><![CDATA[
.edge:hover path { stroke: red; }
.edge:hover polygon { stroke: red; fill: red; }
]]></style>
<script type="text/javascript"><![CDATA[
var edges = document.getElementsByTagName('g');
if (edges && edges.length) {
  for (var i=0;i<edges.length;i++) {
    if (edges[i].id.substr(0,4)=='edge') {
      edges[i].setAttribute('class','edge');
    }
  }
}
]]></script>
        <defs>
                <circle id="rim" cx="0" cy="0" r="7"/>
                <circle id="rim2" cx="0" cy="0" r="3.5"/>
                <g id="zoomPlus">
                        <use xlink:href="#rim" fill="#404040">
                                <set attributeName="fill" to="#808080" begin="zoomplus.mouseover" end="zoomplus.mouseout"/>
                        </use>
                        <path d="M-4,0h8M0,-4v8" fill="none" stroke="white" stroke-width="1.5" pointer-events="none"/>
                </g>
                <g id="zoomMin">
                        <use xlink:href="#rim" fill="#404040">
                                <set attributeName="fill" to="#808080" begin="zoomminus.mouseover" end="zoomminus.mouseout"/>
                        </use>
                        <path d="M-4,0h8" fill="none" stroke="white" stroke-width="1.5" pointer-events="none"/>
                </g>
                <g id="dirArrow">
                        <path fill="none" stroke="white" stroke-width="1.5" d="M0,-3.0v7 M-2.5,-0.5L0,-3.0L2.5,-0.5"/>
                </g>
               <g id="resetDef">
                       <use xlink:href="#rim2" fill="#404040">
                               <set attributeName="fill" to="#808080" begin="reset.mouseover" end="reset.mouseout"/>
                       </use>
               </g>
        </defs>

<script type="text/javascript">
var viewWidth = 3635;
var viewHeight = 418;
var sectionId = 'dynsection-0';
</script>
<script xlink:href="../../svgpan.js"/>
<svg id="graph" class="graph">
<g id="viewport">
<title>tensorflow/tensorflow/compiler/xla/service/compile_only_service.h</title>
<polygon fill="#ffffff" stroke="transparent" points="-4,4 -4,-414 3631.0147,-414 3631.0147,4 -4,4"/>
<!-- Node0 -->
<g id="node1" class="node">
<title>Node0</title>
<polygon fill="#bfbfbf" stroke="#000000" points="640.0147,-368.5 640.0147,-409.5 762.0147,-409.5 762.0147,-368.5 640.0147,-368.5"/>
<text text-anchor="start" x="648.0147" y="-397.5" font-family="Helvetica,sans-Serif" font-size="10.00" fill="#000000">tensorflow/tensorflow</text>
<text text-anchor="start" x="648.0147" y="-386.5" font-family="Helvetica,sans-Serif" font-size="10.00" fill="#000000">/compiler/xla/service</text>
<text text-anchor="middle" x="701.0147" y="-375.5" font-family="Helvetica,sans-Serif" font-size="10.00" fill="#000000">/compile_only_service.h</text>
</g>
<!-- Node1 -->
<g id="node2" class="node">
<title>Node1</title>
<polygon fill="#ffffff" stroke="#bfbfbf" points="31.5147,-229 31.5147,-259 146.5147,-259 146.5147,-229 31.5147,-229"/>
<text text-anchor="start" x="39.5147" y="-247" font-family="Helvetica,sans-Serif" font-size="10.00" fill="#000000">tensorflow/compiler</text>
<text text-anchor="middle" x="89.0147" y="-236" font-family="Helvetica,sans-Serif" font-size="10.00" fill="#000000">/xla/service/backend.h</text>
</g>
<!-- Node0&#45;&gt;Node1 -->
<g id="edge1" class="edge">
<title>Node0&#45;&gt;Node1</title>
<path fill="none" stroke="#191970" d="M639.9971,-376.1979C539.6518,-354.874 333.6882,-309.9665 161.0147,-265 157.1558,-263.9951 153.1898,-262.9301 149.1974,-261.8337"/>
<polygon fill="#191970" stroke="#191970" points="149.8385,-258.3789 139.2656,-259.0603 147.9558,-265.121 149.8385,-258.3789"/>
</g>
<!-- Node2 -->
<g id="node3" class="node">
<title>Node2</title>
<g id="a_node3"><a xlink:href="../../d4/dd1/compiler_8h.html" target="_top" xlink:title="tensorflow/compiler\l/xla/service/compiler.h">
<polygon fill="#ffffff" stroke="#000000" points="848.0147,-229 848.0147,-259 962.0147,-259 962.0147,-229 848.0147,-229"/>
<text text-anchor="start" x="856.0147" y="-247" font-family="Helvetica,sans-Serif" font-size="10.00" fill="#000000">tensorflow/compiler</text>
<text text-anchor="middle" x="905.0147" y="-236" font-family="Helvetica,sans-Serif" font-size="10.00" fill="#000000">/xla/service/compiler.h</text>
</a>
</g>
</g>
<!-- Node0&#45;&gt;Node2 -->
<g id="edge2" class="edge">
<title>Node0&#45;&gt;Node2</title>
<path fill="none" stroke="#191970" d="M730.243,-368.225C768.8572,-340.7786 836.5051,-292.6956 875.3411,-265.0915"/>
<polygon fill="#191970" stroke="#191970" points="877.5101,-267.8439 883.6332,-259.1976 873.4547,-262.1384 877.5101,-267.8439"/>
</g>
<!-- Node26 -->
<g id="node22" class="node">
<title>Node26</title>
<polygon fill="#ffffff" stroke="#bfbfbf" points="721.5147,-.5 721.5147,-30.5 822.5147,-30.5 822.5147,-.5 721.5147,-.5"/>
<text text-anchor="start" x="729.5147" y="-18.5" font-family="Helvetica,sans-Serif" font-size="10.00" fill="#000000">tensorflow/compiler</text>
<text text-anchor="middle" x="772.0147" y="-7.5" font-family="Helvetica,sans-Serif" font-size="10.00" fill="#000000">/xla/statusor.h</text>
</g>
<!-- Node0&#45;&gt;Node26 -->
<g id="edge116" class="edge">
<title>Node0&#45;&gt;Node26</title>
<path fill="none" stroke="#191970" d="M639.8556,-386.0596C491.1532,-378.546 119.1545,-357.4299 69.0147,-332 19.8862,-307.083 -18.7934,-269.9527 10.0147,-223 90.0546,-92.5476 170.4183,-110.9737 317.0147,-67 326.3558,-64.198 588.8463,-35.4182 710.8076,-22.143"/>
<polygon fill="#191970" stroke="#191970" points="711.5409,-25.5839 721.1037,-21.0228 710.7837,-18.625 711.5409,-25.5839"/>
</g>
<!-- Node28 -->
<g id="node24" class="node">
<title>Node28</title>
<polygon fill="#ffffff" stroke="#bfbfbf" points="3500.5147,-.5 3500.5147,-30.5 3601.5147,-30.5 3601.5147,-.5 3500.5147,-.5"/>
<text text-anchor="start" x="3508.5147" y="-18.5" font-family="Helvetica,sans-Serif" font-size="10.00" fill="#000000">tensorflow/compiler</text>
<text text-anchor="middle" x="3551.0147" y="-7.5" font-family="Helvetica,sans-Serif" font-size="10.00" fill="#000000">/xla/xla_data.pb.h</text>
</g>
<!-- Node0&#45;&gt;Node28 -->
<g id="edge117" class="edge">
<title>Node0&#45;&gt;Node28</title>
<path fill="none" stroke="#191970" d="M762.1284,-387.6195C1182.3117,-377.9338 3627.0147,-318.3841 3627.0147,-244 3627.0147,-244 3627.0147,-244 3627.0147,-166 3627.0147,-116.6601 3594.0647,-67.0459 3571.5564,-38.9102"/>
<polygon fill="#191970" stroke="#191970" points="3574.0127,-36.3871 3564.9543,-30.892 3568.6088,-40.8366 3574.0127,-36.3871"/>
</g>
<!-- Node41 -->
<g id="node34" class="node">
<title>Node41</title>
<polygon fill="#ffffff" stroke="#bfbfbf" points="317.5147,-151 317.5147,-181 460.5147,-181 460.5147,-151 317.5147,-151"/>
<text text-anchor="start" x="325.5147" y="-169" font-family="Helvetica,sans-Serif" font-size="10.00" fill="#000000">tensorflow/core/platform</text>
<text text-anchor="middle" x="389.0147" y="-158" font-family="Helvetica,sans-Serif" font-size="10.00" fill="#000000">/stream_executor_no_cuda.h</text>
</g>
<!-- Node0&#45;&gt;Node41 -->
<g id="edge118" class="edge">
<title>Node0&#45;&gt;Node41</title>
<path fill="none" stroke="#191970" d="M639.9792,-387.6673C487.7822,-382.8999 98.2082,-361.3385 22.0147,-265 10.4352,-250.359 9.8704,-237.1761 22.0147,-223 31.26,-212.208 201.8518,-189.2442 307.1594,-175.9936"/>
<polygon fill="#191970" stroke="#191970" points="307.6522,-179.4593 317.1391,-174.7423 306.7813,-172.5136 307.6522,-179.4593"/>
</g>
<!-- Node43 -->
<g id="node36" class="node">
<title>Node43</title>
<g id="a_node36"><a xlink:href="../../d5/d83/service_8h.html" target="_top" xlink:title="tensorflow/compiler\l/xla/service/service.h">
<polygon fill="#ffffff" stroke="#000000" points="2279.0147,-301.5 2279.0147,-331.5 2389.0147,-331.5 2389.0147,-301.5 2279.0147,-301.5"/>
<text text-anchor="start" x="2287.0147" y="-319.5" font-family="Helvetica,sans-Serif" font-size="10.00" fill="#000000">tensorflow/compiler</text>
<text text-anchor="middle" x="2334.0147" y="-308.5" font-family="Helvetica,sans-Serif" font-size="10.00" fill="#000000">/xla/service/service.h</text>
</a>
</g>
</g>
<!-- Node0&#45;&gt;Node43 -->
<g id="edge53" class="edge">
<title>Node0&#45;&gt;Node43</title>
<path fill="none" stroke="#191970" d="M762.0499,-386.2902C1018.0292,-374.9256 2003.9614,-331.1533 2268.4192,-319.4122"/>
<polygon fill="#191970" stroke="#191970" points="2268.7938,-322.8991 2278.6287,-318.959 2268.4833,-315.906 2268.7938,-322.8991"/>
</g>
<!-- Node3 -->
<g id="node4" class="node">
<title>Node3</title>
<polygon fill="#ffffff" stroke="#bfbfbf" points="2823.5147,-78.5 2823.5147,-97.5 2882.5147,-97.5 2882.5147,-78.5 2823.5147,-78.5"/>
<text text-anchor="middle" x="2853.0147" y="-85.5" font-family="Helvetica,sans-Serif" font-size="10.00" fill="#000000">functional</text>
</g>
<!-- Node2&#45;&gt;Node3 -->
<g id="edge3" class="edge">
<title>Node2&#45;&gt;Node3</title>
<path fill="none" stroke="#191970" d="M962.1756,-242.8833C1270.8404,-236.7755 2726.265,-206.9599 2768.0147,-187 2786.5712,-178.1284 2821.5705,-132.0302 2840.3488,-105.9815"/>
<polygon fill="#191970" stroke="#191970" points="2843.3005,-107.8706 2846.2609,-97.6977 2837.6028,-103.8041 2843.3005,-107.8706"/>
</g>
<!-- Node4 -->
<g id="node5" class="node">
<title>Node4</title>
<polygon fill="#ffffff" stroke="#bfbfbf" points="2465.5147,-78.5 2465.5147,-97.5 2500.5147,-97.5 2500.5147,-78.5 2465.5147,-78.5"/>
<text text-anchor="middle" x="2483.0147" y="-85.5" font-family="Helvetica,sans-Serif" font-size="10.00" fill="#000000">map</text>
</g>
<!-- Node2&#45;&gt;Node4 -->
<g id="edge4" class="edge">
<title>Node2&#45;&gt;Node4</title>
<path fill="none" stroke="#191970" d="M962.1885,-242.4646C1167.3789,-236.7639 1866.2465,-215.6563 2088.0147,-187 2170.92,-176.2872 2380.2037,-144.2241 2456.0147,-109 2458.9364,-107.6425 2461.8322,-105.9173 2464.582,-104.0412"/>
<polygon fill="#191970" stroke="#191970" points="2466.9171,-106.6613 2472.7221,-97.7983 2462.6571,-101.1067 2466.9171,-106.6613"/>
</g>
<!-- Node5 -->
<g id="node6" class="node">
<title>Node5</title>
<polygon fill="#ffffff" stroke="#bfbfbf" points="2099.0147,-6 2099.0147,-25 2151.0147,-25 2151.0147,-6 2099.0147,-6"/>
<text text-anchor="middle" x="2125.0147" y="-13" font-family="Helvetica,sans-Serif" font-size="10.00" fill="#000000">memory</text>
</g>
<!-- Node2&#45;&gt;Node5 -->
<g id="edge5" class="edge">
<title>Node2&#45;&gt;Node5</title>
<path fill="none" stroke="#191970" d="M962.0779,-241.0531C1108.933,-233.2165 1497.2603,-210.8278 1624.0147,-187 1742.1632,-164.79 1769.3072,-148.0249 1883.0147,-109 1958.8213,-82.9829 2046.1657,-47.9596 2092.3821,-29.0206"/>
<polygon fill="#191970" stroke="#191970" points="2093.9514,-32.1598 2101.8704,-25.1213 2091.2906,-25.6852 2093.9514,-32.1598"/>
</g>
<!-- Node6 -->
<g id="node7" class="node">
<title>Node6</title>
<polygon fill="#ffffff" stroke="#bfbfbf" points="1874.5147,-6 1874.5147,-25 1915.5147,-25 1915.5147,-6 1874.5147,-6"/>
<text text-anchor="middle" x="1895.0147" y="-13" font-family="Helvetica,sans-Serif" font-size="10.00" fill="#000000">string</text>
</g>
<!-- Node2&#45;&gt;Node6 -->
<g id="edge6" class="edge">
<title>Node2&#45;&gt;Node6</title>
<path fill="none" stroke="#191970" d="M962.0204,-240.8617C1136.7692,-230.4158 1661.9451,-192.64 1808.0147,-109 1840.6993,-90.2847 1868.313,-55.2404 1883.1952,-33.7764"/>
<polygon fill="#191970" stroke="#191970" points="1886.2625,-35.4874 1888.9409,-25.2367 1880.4547,-31.5798 1886.2625,-35.4874"/>
</g>
<!-- Node7 -->
<g id="node8" class="node">
<title>Node7</title>
<polygon fill="#ffffff" stroke="#bfbfbf" points="517.5147,-151 517.5147,-181 642.5147,-181 642.5147,-151 517.5147,-151"/>
<text text-anchor="start" x="525.5147" y="-169" font-family="Helvetica,sans-Serif" font-size="10.00" fill="#000000">tensorflow/compiler</text>
<text text-anchor="middle" x="580.0147" y="-158" font-family="Helvetica,sans-Serif" font-size="10.00" fill="#000000">/xla/service/executable.h</text>
</g>
<!-- Node2&#45;&gt;Node7 -->
<g id="edge7" class="edge">
<title>Node2&#45;&gt;Node7</title>
<path fill="none" stroke="#191970" d="M847.7269,-231.521C797.3607,-220.386 722.1425,-203.3584 657.0147,-187 652.7416,-185.9267 648.3421,-184.796 643.9135,-183.6388"/>
<polygon fill="#191970" stroke="#191970" points="644.7721,-180.2457 634.2098,-181.0751 642.9839,-187.0134 644.7721,-180.2457"/>
</g>
<!-- Node8 -->
<g id="node9" class="node">
<title>Node8</title>
<g id="a_node9"><a xlink:href="../../db/da0/hlo__module_8h.html" target="_top" xlink:title="tensorflow/compiler\l/xla/service/hlo_module.h">
<polygon fill="#ffffff" stroke="#000000" points="1320.0147,-151 1320.0147,-181 1448.0147,-181 1448.0147,-151 1320.0147,-151"/>
<text text-anchor="start" x="1328.0147" y="-169" font-family="Helvetica,sans-Serif" font-size="10.00" fill="#000000">tensorflow/compiler</text>
<text text-anchor="middle" x="1384.0147" y="-158" font-family="Helvetica,sans-Serif" font-size="10.00" fill="#000000">/xla/service/hlo_module.h</text>
</a>
</g>
</g>
<!-- Node2&#45;&gt;Node8 -->
<g id="edge8" class="edge">
<title>Node2&#45;&gt;Node8</title>
<path fill="none" stroke="#191970" d="M962.3175,-234.6689C1049.1384,-220.531 1214.0248,-193.681 1309.8753,-178.0728"/>
<polygon fill="#191970" stroke="#191970" points="1310.4782,-181.5208 1319.7856,-176.459 1309.3531,-174.6118 1310.4782,-181.5208"/>
</g>
<!-- Node2&#45;&gt;Node26 -->
<g id="edge47" class="edge">
<title>Node2&#45;&gt;Node26</title>
<path fill="none" stroke="#191970" d="M847.9738,-232.7217C811.8202,-223.9075 765.0611,-209.3373 728.0147,-187 705.1369,-173.2057 706.9419,-160.2603 685.0147,-145 654.3372,-123.6499 629.0013,-140.5828 609.0147,-109 599.0327,-93.2265 597.9814,-82.0569 609.0147,-67 621.4928,-49.9714 670.4439,-35.9642 711.4751,-26.8793"/>
<polygon fill="#191970" stroke="#191970" points="712.3991,-30.2606 721.438,-24.7335 710.9252,-23.4175 712.3991,-30.2606"/>
</g>
<!-- Node27 -->
<g id="node23" class="node">
<title>Node27</title>
<polygon fill="#ffffff" stroke="#bfbfbf" points="882.5147,-.5 882.5147,-30.5 983.5147,-30.5 983.5147,-.5 882.5147,-.5"/>
<text text-anchor="start" x="890.5147" y="-18.5" font-family="Helvetica,sans-Serif" font-size="10.00" fill="#000000">tensorflow/compiler</text>
<text text-anchor="middle" x="933.0147" y="-7.5" font-family="Helvetica,sans-Serif" font-size="10.00" fill="#000000">/xla/types.h</text>
</g>
<!-- Node2&#45;&gt;Node27 -->
<g id="edge48" class="edge">
<title>Node2&#45;&gt;Node27</title>
<path fill="none" stroke="#191970" d="M898.1837,-228.9926C886.506,-204.0061 862.4716,-155.5689 847.0147,-145 763.417,-87.8387 687.7249,-186.0596 622.0147,-109 609.9029,-94.7962 609.9416,-81.2367 622.0147,-67 624.0411,-64.6105 782.4189,-39.2695 872.3449,-25.0482"/>
<polygon fill="#191970" stroke="#191970" points="873.093,-28.4735 882.4241,-23.4554 872.0003,-21.5593 873.093,-28.4735"/>
</g>
<!-- Node30 -->
<g id="node25" class="node">
<title>Node30</title>
<polygon fill="#ffffff" stroke="#bfbfbf" points="522.0147,-.5 522.0147,-30.5 618.0147,-30.5 618.0147,-.5 522.0147,-.5"/>
<text text-anchor="start" x="530.0147" y="-18.5" font-family="Helvetica,sans-Serif" font-size="10.00" fill="#000000">tensorflow/core/lib</text>
<text text-anchor="middle" x="570.0147" y="-7.5" font-family="Helvetica,sans-Serif" font-size="10.00" fill="#000000">/gtl/array_slice.h</text>
</g>
<!-- Node2&#45;&gt;Node30 -->
<g id="edge49" class="edge">
<title>Node2&#45;&gt;Node30</title>
<path fill="none" stroke="#191970" d="M847.9048,-233.4307C792.1009,-222.3595 711.7639,-204.217 685.0147,-187 664.8199,-174.0016 668.6939,-161.2554 651.0147,-145 630.0531,-125.7264 614.8497,-131.9663 598.0147,-109 583.2391,-88.8431 576.1949,-60.8764 572.8779,-40.7898"/>
<polygon fill="#191970" stroke="#191970" points="576.33,-40.2067 571.4274,-30.8144 569.4029,-41.214 576.33,-40.2067"/>
</g>
<!-- Node35 -->
<g id="node28" class="node">
<title>Node35</title>
<polygon fill="#ffffff" stroke="#bfbfbf" points="631.5147,-67.5 631.5147,-108.5 750.5147,-108.5 750.5147,-67.5 631.5147,-67.5"/>
<text text-anchor="start" x="639.5147" y="-96.5" font-family="Helvetica,sans-Serif" font-size="10.00" fill="#000000">tensorflow/compiler</text>
<text text-anchor="start" x="639.5147" y="-85.5" font-family="Helvetica,sans-Serif" font-size="10.00" fill="#000000">/xla/service/hlo_module</text>
<text text-anchor="middle" x="691.0147" y="-74.5" font-family="Helvetica,sans-Serif" font-size="10.00" fill="#000000">_config.h</text>
</g>
<!-- Node2&#45;&gt;Node35 -->
<g id="edge45" class="edge">
<title>Node2&#45;&gt;Node35</title>
<path fill="none" stroke="#191970" d="M905.7245,-228.7478C905.8642,-207.2088 902.8175,-167.9519 881.0147,-145 844.41,-106.4659 816.7896,-123.1406 760.5178,-108.9131"/>
<polygon fill="#191970" stroke="#191970" points="761.4183,-105.5308 750.8469,-106.2348 759.55,-112.2769 761.4183,-105.5308"/>
</g>
<!-- Node39 -->
<g id="node32" class="node">
<title>Node39</title>
<polygon fill="#ffffff" stroke="#bfbfbf" points="2011.0147,-73 2011.0147,-103 2133.0147,-103 2133.0147,-73 2011.0147,-73"/>
<text text-anchor="start" x="2019.0147" y="-91" font-family="Helvetica,sans-Serif" font-size="10.00" fill="#000000">tensorflow/core/platform</text>
<text text-anchor="middle" x="2072.0147" y="-80" font-family="Helvetica,sans-Serif" font-size="10.00" fill="#000000">/mutex.h</text>
</g>
<!-- Node2&#45;&gt;Node39 -->
<g id="edge50" class="edge">
<title>Node2&#45;&gt;Node39</title>
<path fill="none" stroke="#191970" d="M962.071,-243.0055C1164.9293,-239.1731 1843.9768,-223.7039 1934.0147,-187 1960.2645,-176.2993 1959.3065,-161.9674 1982.0147,-145 1999.3912,-132.0165 2019.7357,-118.966 2036.6818,-108.6348"/>
<polygon fill="#191970" stroke="#191970" points="2038.9503,-111.354 2045.7063,-103.1927 2035.3354,-105.3596 2038.9503,-111.354"/>
</g>
<!-- Node40 -->
<g id="node33" class="node">
<title>Node40</title>
<polygon fill="#ffffff" stroke="#bfbfbf" points="737.5147,-145.5 737.5147,-186.5 838.5147,-186.5 838.5147,-145.5 737.5147,-145.5"/>
<text text-anchor="start" x="745.5147" y="-174.5" font-family="Helvetica,sans-Serif" font-size="10.00" fill="#000000">tensorflow/compiler</text>
<text text-anchor="start" x="745.5147" y="-163.5" font-family="Helvetica,sans-Serif" font-size="10.00" fill="#000000">/xla/service/logical</text>
<text text-anchor="middle" x="788.0147" y="-152.5" font-family="Helvetica,sans-Serif" font-size="10.00" fill="#000000">_buffer.h</text>
</g>
<!-- Node2&#45;&gt;Node40 -->
<g id="edge46" class="edge">
<title>Node2&#45;&gt;Node40</title>
<path fill="none" stroke="#191970" d="M882.456,-228.9608C866.934,-218.6129 845.9004,-204.5905 827.623,-192.4055"/>
<polygon fill="#191970" stroke="#191970" points="829.1701,-189.2305 818.9081,-186.5956 825.2872,-195.0548 829.1701,-189.2305"/>
</g>
<!-- Node2&#45;&gt;Node41 -->
<g id="edge51" class="edge">
<title>Node2&#45;&gt;Node41</title>
<path fill="none" stroke="#191970" d="M847.7308,-236.3626C770.4828,-225.9293 628.6817,-206.3045 508.0147,-187 495.9188,-185.0649 483.1499,-182.92 470.6442,-180.7617"/>
<polygon fill="#191970" stroke="#191970" points="471.1409,-177.2957 460.6893,-179.0317 469.9423,-184.1923 471.1409,-177.2957"/>
</g>
<!-- Node42 -->
<g id="node35" class="node">
<title>Node42</title>
<polygon fill="#ffffff" stroke="#bfbfbf" points="2325.0147,-73 2325.0147,-103 2447.0147,-103 2447.0147,-73 2325.0147,-73"/>
<text text-anchor="start" x="2333.0147" y="-91" font-family="Helvetica,sans-Serif" font-size="10.00" fill="#000000">tensorflow/core/platform</text>
<text text-anchor="middle" x="2386.0147" y="-80" font-family="Helvetica,sans-Serif" font-size="10.00" fill="#000000">/thread_annotations.h</text>
</g>
<!-- Node2&#45;&gt;Node42 -->
<g id="edge52" class="edge">
<title>Node2&#45;&gt;Node42</title>
<path fill="none" stroke="#191970" d="M962.1613,-242.3158C1154.0457,-236.446 1774.3156,-215.6764 1972.0147,-187 2100.0136,-168.4336 2246.4941,-128.9826 2326.3624,-105.8801"/>
<polygon fill="#191970" stroke="#191970" points="2327.613,-109.1615 2336.238,-103.0084 2325.6584,-102.4399 2327.613,-109.1615"/>
</g>
<!-- Node8&#45;&gt;Node5 -->
<g id="edge11" class="edge">
<title>Node8&#45;&gt;Node5</title>
<path fill="none" stroke="#191970" d="M1448.2951,-161.2922C1531.9843,-154.2702 1682.4028,-138.589 1808.0147,-109 1864.2416,-95.7553 1875.7319,-83.7542 1931.0147,-67 1985.6599,-50.4391 2049.8311,-33.9795 2088.9463,-24.2763"/>
<polygon fill="#191970" stroke="#191970" points="2089.9381,-27.6367 2098.8076,-21.8417 2088.2602,-20.8407 2089.9381,-27.6367"/>
</g>
<!-- Node8&#45;&gt;Node6 -->
<g id="edge13" class="edge">
<title>Node8&#45;&gt;Node6</title>
<path fill="none" stroke="#191970" d="M1448.3345,-161.1072C1543.1347,-153.128 1715.1829,-135.4967 1771.0147,-109 1796.0254,-97.1305 1795.1743,-84.0122 1817.0147,-67 1834.137,-53.6629 1854.6591,-40.2043 1870.3548,-30.3917"/>
<polygon fill="#191970" stroke="#191970" points="1872.3093,-33.2983 1878.9762,-25.064 1868.6295,-27.3436 1872.3093,-33.2983"/>
</g>
<!-- Node9 -->
<g id="node10" class="node">
<title>Node9</title>
<polygon fill="#ffffff" stroke="#bfbfbf" points="1439.0147,-78.5 1439.0147,-97.5 1485.0147,-97.5 1485.0147,-78.5 1439.0147,-78.5"/>
<text text-anchor="middle" x="1462.0147" y="-85.5" font-family="Helvetica,sans-Serif" font-size="10.00" fill="#000000">atomic</text>
</g>
<!-- Node8&#45;&gt;Node9 -->
<g id="edge9" class="edge">
<title>Node8&#45;&gt;Node9</title>
<path fill="none" stroke="#191970" d="M1399.0539,-150.9608C1412.2282,-137.7865 1431.3582,-118.6565 1445.0698,-104.9449"/>
<polygon fill="#191970" stroke="#191970" points="1447.8347,-107.1298 1452.4309,-97.5839 1442.8849,-102.1801 1447.8347,-107.1298"/>
</g>
<!-- Node10 -->
<g id="node11" class="node">
<title>Node10</title>
<polygon fill="#ffffff" stroke="#bfbfbf" points="1815.5147,-6 1815.5147,-25 1844.5147,-25 1844.5147,-6 1815.5147,-6"/>
<text text-anchor="middle" x="1830.0147" y="-13" font-family="Helvetica,sans-Serif" font-size="10.00" fill="#000000">list</text>
</g>
<!-- Node8&#45;&gt;Node10 -->
<g id="edge10" class="edge">
<title>Node8&#45;&gt;Node10</title>
<path fill="none" stroke="#191970" d="M1448.2974,-160.4101C1535.9732,-151.9771 1687.7893,-134.2584 1737.0147,-109 1737.6086,-108.6953 1786.7386,-59.1674 1813.3395,-32.3294"/>
<polygon fill="#191970" stroke="#191970" points="1815.9369,-34.6807 1820.4901,-25.1141 1810.9649,-29.7533 1815.9369,-34.6807"/>
</g>
<!-- Node11 -->
<g id="node12" class="node">
<title>Node11</title>
<polygon fill="#ffffff" stroke="#bfbfbf" points="1333.5147,-78.5 1333.5147,-97.5 1382.5147,-97.5 1382.5147,-78.5 1333.5147,-78.5"/>
<text text-anchor="middle" x="1358.0147" y="-85.5" font-family="Helvetica,sans-Serif" font-size="10.00" fill="#000000">random</text>
</g>
<!-- Node8&#45;&gt;Node11 -->
<g id="edge12" class="edge">
<title>Node8&#45;&gt;Node11</title>
<path fill="none" stroke="#191970" d="M1379.0017,-150.9608C1374.8565,-138.5253 1368.9425,-120.7832 1364.4483,-107.3007"/>
<polygon fill="#191970" stroke="#191970" points="1367.6921,-105.9639 1361.2094,-97.5839 1361.0513,-108.1775 1367.6921,-105.9639"/>
</g>
<!-- Node12 -->
<g id="node13" class="node">
<title>Node12</title>
<polygon fill="#ffffff" stroke="#bfbfbf" points="1158.5147,-6 1158.5147,-25 1241.5147,-25 1241.5147,-6 1158.5147,-6"/>
<text text-anchor="middle" x="1200.0147" y="-13" font-family="Helvetica,sans-Serif" font-size="10.00" fill="#000000">unordered_map</text>
</g>
<!-- Node8&#45;&gt;Node12 -->
<g id="edge14" class="edge">
<title>Node8&#45;&gt;Node12</title>
<path fill="none" stroke="#191970" d="M1319.797,-158.8997C1259.0687,-150.7054 1174.295,-134.9197 1154.0147,-109 1142.512,-94.2986 1147.36,-84.4401 1154.0147,-67 1159.2082,-53.3895 1169.8356,-41.0965 1179.5682,-31.9368"/>
<polygon fill="#191970" stroke="#191970" points="1181.8977,-34.549 1187.0608,-25.2973 1177.2552,-29.3099 1181.8977,-34.549"/>
</g>
<!-- Node13 -->
<g id="node14" class="node">
<title>Node13</title>
<polygon fill="#ffffff" stroke="#bfbfbf" points="2312.0147,-6 2312.0147,-25 2356.0147,-25 2356.0147,-6 2312.0147,-6"/>
<text text-anchor="middle" x="2334.0147" y="-13" font-family="Helvetica,sans-Serif" font-size="10.00" fill="#000000">vector</text>
</g>
<!-- Node8&#45;&gt;Node13 -->
<g id="edge15" class="edge">
<title>Node8&#45;&gt;Node13</title>
<path fill="none" stroke="#191970" d="M1448.2045,-163.2952C1543.9687,-158.2239 1729.4352,-144.3954 1883.0147,-109 1937.6684,-96.404 1947.625,-80.6908 2002.0147,-67 2110.1112,-39.7904 2241.8323,-24.5056 2301.6672,-18.5048"/>
<polygon fill="#191970" stroke="#191970" points="2302.3713,-21.9526 2311.9812,-17.4916 2301.6869,-14.9861 2302.3713,-21.9526"/>
</g>
<!-- Node14 -->
<g id="node15" class="node">
<title>Node14</title>
<polygon fill="#ffffff" stroke="#bfbfbf" points="1259.5147,-.5 1259.5147,-30.5 1360.5147,-30.5 1360.5147,-.5 1259.5147,-.5"/>
<text text-anchor="start" x="1267.5147" y="-18.5" font-family="Helvetica,sans-Serif" font-size="10.00" fill="#000000">tensorflow/compiler</text>
<text text-anchor="middle" x="1310.0147" y="-7.5" font-family="Helvetica,sans-Serif" font-size="10.00" fill="#000000">/xla/iterator_util.h</text>
</g>
<!-- Node8&#45;&gt;Node14 -->
<g id="edge16" class="edge">
<title>Node8&#45;&gt;Node14</title>
<path fill="none" stroke="#191970" d="M1319.8622,-157.8411C1262.8282,-149.1145 1185.6588,-133.1739 1167.0147,-109 1155.6147,-94.2188 1156.2821,-82.2727 1167.0147,-67 1172.2374,-59.568 1213.2127,-45.2317 1249.9689,-33.5684"/>
<polygon fill="#191970" stroke="#191970" points="1251.2024,-36.8496 1259.6931,-30.5125 1249.1038,-30.1716 1251.2024,-36.8496"/>
</g>
<!-- Node15 -->
<g id="node16" class="node">
<title>Node15</title>
<polygon fill="#ffffff" stroke="#bfbfbf" points="1379.0147,-.5 1379.0147,-30.5 1483.0147,-30.5 1483.0147,-.5 1379.0147,-.5"/>
<text text-anchor="start" x="1387.0147" y="-18.5" font-family="Helvetica,sans-Serif" font-size="10.00" fill="#000000">tensorflow/compiler</text>
<text text-anchor="middle" x="1431.0147" y="-7.5" font-family="Helvetica,sans-Serif" font-size="10.00" fill="#000000">/xla/service/hlo.pb.h</text>
</g>
<!-- Node8&#45;&gt;Node15 -->
<g id="edge17" class="edge">
<title>Node8&#45;&gt;Node15</title>
<path fill="none" stroke="#191970" d="M1360.7646,-150.7864C1347.5817,-140.6985 1332.303,-126.1752 1325.0147,-109 1317.7229,-91.8165 1315.1109,-82.8227 1325.0147,-67 1335.1356,-50.8307 1351.9442,-39.6081 1369.2269,-31.8737"/>
<polygon fill="#191970" stroke="#191970" points="1370.9172,-34.9633 1378.8377,-27.9265 1368.2577,-28.4881 1370.9172,-34.9633"/>
</g>
<!-- Node16 -->
<g id="node17" class="node">
<title>Node16</title>
<g id="a_node17"><a xlink:href="../../d2/d31/hlo__computation_8h.html" target="_top" xlink:title="tensorflow/compiler\l/xla/service/hlo_computation.h">
<polygon fill="#ffffff" stroke="#ff0000" points="1578.5147,-73 1578.5147,-103 1727.5147,-103 1727.5147,-73 1578.5147,-73"/>
<text text-anchor="start" x="1586.5147" y="-91" font-family="Helvetica,sans-Serif" font-size="10.00" fill="#000000">tensorflow/compiler</text>
<text text-anchor="middle" x="1653.0147" y="-80" font-family="Helvetica,sans-Serif" font-size="10.00" fill="#000000">/xla/service/hlo_computation.h</text>
</a>
</g>
</g>
<!-- Node8&#45;&gt;Node16 -->
<g id="edge18" class="edge">
<title>Node8&#45;&gt;Node16</title>
<path fill="none" stroke="#191970" d="M1435.8806,-150.9608C1480.2087,-138.1073 1544.0884,-119.5846 1591.0896,-105.956"/>
<polygon fill="#191970" stroke="#191970" points="1592.2202,-109.2724 1600.8498,-103.1259 1590.2707,-102.5493 1592.2202,-109.2724"/>
</g>
<!-- Node22 -->
<g id="node20" class="node">
<title>Node22</title>
<polygon fill="#ffffff" stroke="#bfbfbf" points="1501.5147,-.5 1501.5147,-30.5 1642.5147,-30.5 1642.5147,-.5 1501.5147,-.5"/>
<text text-anchor="start" x="1509.5147" y="-18.5" font-family="Helvetica,sans-Serif" font-size="10.00" fill="#000000">tensorflow/compiler</text>
<text text-anchor="middle" x="1572.0147" y="-7.5" font-family="Helvetica,sans-Serif" font-size="10.00" fill="#000000">/xla/service/hlo_instruction.h</text>
</g>
<!-- Node8&#45;&gt;Node22 -->
<g id="edge36" class="edge">
<title>Node8&#45;&gt;Node22</title>
<path fill="none" stroke="#191970" d="M1387.2083,-150.7397C1392.4804,-129.1907 1405.0055,-89.9219 1430.0147,-67 1447.2761,-51.1793 1469.7704,-40.1297 1491.7477,-32.4476"/>
<polygon fill="#191970" stroke="#191970" points="1493.0472,-35.7046 1501.4518,-29.2538 1490.8588,-29.0555 1493.0472,-35.7046"/>
</g>
<!-- Node24 -->
<g id="node21" class="node">
<title>Node24</title>
<polygon fill="#ffffff" stroke="#bfbfbf" points="1002.0147,-.5 1002.0147,-30.5 1140.0147,-30.5 1140.0147,-.5 1002.0147,-.5"/>
<text text-anchor="start" x="1010.0147" y="-18.5" font-family="Helvetica,sans-Serif" font-size="10.00" fill="#000000">tensorflow/compiler</text>
<text text-anchor="middle" x="1071.0147" y="-7.5" font-family="Helvetica,sans-Serif" font-size="10.00" fill="#000000">/xla/service/name_uniquer.h</text>
</g>
<!-- Node8&#45;&gt;Node24 -->
<g id="edge38" class="edge">
<title>Node8&#45;&gt;Node24</title>
<path fill="none" stroke="#191970" d="M1319.9506,-155.837C1258.826,-145.2605 1171.9089,-127.6598 1143.0147,-109 1116.3286,-91.7661 1095.5558,-61.1082 1083.323,-39.6099"/>
<polygon fill="#191970" stroke="#191970" points="1086.3375,-37.8277 1078.4618,-30.7407 1080.199,-41.1922 1086.3375,-37.8277"/>
</g>
<!-- Node8&#45;&gt;Node27 -->
<g id="edge40" class="edge">
<title>Node8&#45;&gt;Node27</title>
<path fill="none" stroke="#191970" d="M1319.9356,-159.1604C1260.8966,-151.4852 1171.5659,-136.3609 1098.0147,-109 1047.8056,-90.3223 994.7689,-57.6182 962.78,-36.2615"/>
<polygon fill="#191970" stroke="#191970" points="964.5818,-33.255 954.3355,-30.5598 960.6647,-39.0564 964.5818,-33.255"/>
</g>
<!-- Node8&#45;&gt;Node30 -->
<g id="edge41" class="edge">
<title>Node8&#45;&gt;Node30</title>
<path fill="none" stroke="#191970" d="M1319.9742,-160.4378C1244.8134,-152.9495 1116.8646,-137.1944 1010.0147,-109 959.4153,-95.6484 950.5903,-80.4419 900.0147,-67 806.6595,-42.1882 695.0631,-27.8602 628.4975,-20.8784"/>
<polygon fill="#191970" stroke="#191970" points="628.5161,-17.3619 618.2104,-19.8205 627.7999,-24.3252 628.5161,-17.3619"/>
</g>
<!-- Node8&#45;&gt;Node35 -->
<g id="edge37" class="edge">
<title>Node8&#45;&gt;Node35</title>
<path fill="none" stroke="#191970" d="M1319.6243,-164.4454C1207.5274,-160.7965 969.3812,-148.87 760.5848,-108.8945"/>
<polygon fill="#191970" stroke="#191970" points="761.1486,-105.4387 750.6649,-106.9696 759.8151,-112.3105 761.1486,-105.4387"/>
</g>
<!-- Node36 -->
<g id="node29" class="node">
<title>Node36</title>
<polygon fill="#ffffff" stroke="#bfbfbf" points="2151.5147,-67.5 2151.5147,-108.5 2268.5147,-108.5 2268.5147,-67.5 2151.5147,-67.5"/>
<text text-anchor="start" x="2159.5147" y="-96.5" font-family="Helvetica,sans-Serif" font-size="10.00" fill="#000000">tensorflow/compiler</text>
<text text-anchor="start" x="2159.5147" y="-85.5" font-family="Helvetica,sans-Serif" font-size="10.00" fill="#000000">/xla/service/versioned</text>
<text text-anchor="middle" x="2210.0147" y="-74.5" font-family="Helvetica,sans-Serif" font-size="10.00" fill="#000000">_computation_handle.h</text>
</g>
<!-- Node8&#45;&gt;Node36 -->
<g id="edge39" class="edge">
<title>Node8&#45;&gt;Node36</title>
<path fill="none" stroke="#191970" d="M1448.1832,-163.0304C1602.4176,-155.6008 1991.5905,-135.0464 2141.3114,-108.8481"/>
<polygon fill="#191970" stroke="#191970" points="2142.0385,-112.2733 2151.2468,-107.0334 2140.7807,-105.3872 2142.0385,-112.2733"/>
</g>
<!-- Node37 -->
<g id="node30" class="node">
<title>Node37</title>
<polygon fill="#ffffff" stroke="#bfbfbf" points="1175.5147,-73 1175.5147,-103 1276.5147,-103 1276.5147,-73 1175.5147,-73"/>
<text text-anchor="start" x="1183.5147" y="-91" font-family="Helvetica,sans-Serif" font-size="10.00" fill="#000000">tensorflow/core/lib</text>
<text text-anchor="middle" x="1226.0147" y="-80" font-family="Helvetica,sans-Serif" font-size="10.00" fill="#000000">/gtl/iterator_range.h</text>
</g>
<!-- Node8&#45;&gt;Node37 -->
<g id="edge42" class="edge">
<title>Node8&#45;&gt;Node37</title>
<path fill="none" stroke="#191970" d="M1353.5507,-150.9608C1328.6036,-138.6451 1293.1134,-121.1247 1265.9029,-107.6916"/>
<polygon fill="#191970" stroke="#191970" points="1267.1706,-104.4142 1256.6543,-103.1259 1264.0719,-110.691 1267.1706,-104.4142"/>
</g>
<!-- Node38 -->
<g id="node31" class="node">
<title>Node38</title>
<polygon fill="#ffffff" stroke="#bfbfbf" points="769.0147,-73 769.0147,-103 891.0147,-103 891.0147,-73 769.0147,-73"/>
<text text-anchor="start" x="777.0147" y="-91" font-family="Helvetica,sans-Serif" font-size="10.00" fill="#000000">tensorflow/core/platform</text>
<text text-anchor="middle" x="830.0147" y="-80" font-family="Helvetica,sans-Serif" font-size="10.00" fill="#000000">/logging.h</text>
</g>
<!-- Node8&#45;&gt;Node38 -->
<g id="edge43" class="edge">
<title>Node8&#45;&gt;Node38</title>
<path fill="none" stroke="#191970" d="M1319.9878,-161.5443C1227.6573,-154.4053 1052.0587,-138.1534 905.0147,-109 900.0036,-108.0065 894.8381,-106.8488 889.6728,-105.5971"/>
<polygon fill="#191970" stroke="#191970" points="890.3339,-102.1541 879.7807,-103.0925 888.6157,-108.94 890.3339,-102.1541"/>
</g>
<!-- Node8&#45;&gt;Node39 -->
<g id="edge44" class="edge">
<title>Node8&#45;&gt;Node39</title>
<path fill="none" stroke="#191970" d="M1448.0433,-161.4384C1554.453,-153.4578 1774.2865,-135.2727 1959.0147,-109 1972.6064,-107.0669 1987.0543,-104.6561 2000.9164,-102.164"/>
<polygon fill="#191970" stroke="#191970" points="2001.679,-105.5826 2010.8861,-100.3406 2000.4195,-98.6969 2001.679,-105.5826"/>
</g>
<!-- Node16&#45;&gt;Node5 -->
<g id="edge20" class="edge">
<title>Node16&#45;&gt;Node5</title>
<path fill="none" stroke="#191970" d="M1727.5441,-76.5522C1830.3853,-60.7556 2011.8172,-32.8873 2088.8238,-21.059"/>
<polygon fill="#191970" stroke="#191970" points="2089.625,-24.4771 2098.9777,-19.4993 2088.5622,-17.5582 2089.625,-24.4771"/>
</g>
<!-- Node16&#45;&gt;Node6 -->
<g id="edge21" class="edge">
<title>Node16&#45;&gt;Node6</title>
<path fill="none" stroke="#191970" d="M1711.0274,-72.9527C1751.3918,-62.1413 1806.3109,-46.7495 1854.0147,-31 1857.5465,-29.834 1861.2241,-28.5482 1864.8632,-27.231"/>
<polygon fill="#191970" stroke="#191970" points="1866.1254,-30.4958 1874.2794,-23.731 1863.6865,-23.9344 1866.1254,-30.4958"/>
</g>
<!-- Node16&#45;&gt;Node10 -->
<g id="edge19" class="edge">
<title>Node16&#45;&gt;Node10</title>
<path fill="none" stroke="#191970" d="M1701.3528,-72.9931C1732.037,-62.7419 1772.1914,-47.9702 1806.0147,-31 1806.555,-30.7289 1807.0983,-30.4485 1807.643,-30.1603"/>
<polygon fill="#191970" stroke="#191970" points="1809.5056,-33.1254 1816.3566,-25.0437 1805.961,-27.0892 1809.5056,-33.1254"/>
</g>
<!-- Node16&#45;&gt;Node12 -->
<g id="edge22" class="edge">
<title>Node16&#45;&gt;Node12</title>
<path fill="none" stroke="#191970" d="M1594.0479,-72.8994C1584.3865,-70.7222 1574.4509,-68.6606 1565.0147,-67 1426.671,-42.6533 1388.5546,-59.5401 1251.0147,-31 1246.7844,-30.1222 1242.4007,-29.049 1238.0605,-27.8809"/>
<polygon fill="#191970" stroke="#191970" points="1238.6815,-24.4182 1228.1044,-25.0305 1236.7547,-31.1478 1238.6815,-24.4182"/>
</g>
<!-- Node16&#45;&gt;Node13 -->
<g id="edge25" class="edge">
<title>Node16&#45;&gt;Node13</title>
<path fill="none" stroke="#191970" d="M1727.5156,-80.0686C1875.0129,-64.3658 2198.8535,-29.8894 2301.8743,-18.9217"/>
<polygon fill="#191970" stroke="#191970" points="2302.3913,-22.3865 2311.9646,-17.8475 2301.6502,-15.4259 2302.3913,-22.3865"/>
</g>
<!-- Node16&#45;&gt;Node14 -->
<g id="edge26" class="edge">
<title>Node16&#45;&gt;Node14</title>
<path fill="none" stroke="#191970" d="M1591.5623,-72.9073C1582.6717,-70.8484 1573.6202,-68.8199 1565.0147,-67 1481.8219,-49.4065 1457.7424,-49.9685 1370.4889,-31.0108"/>
<polygon fill="#191970" stroke="#191970" points="1371.2116,-27.5862 1360.6935,-28.8589 1369.7096,-34.4231 1371.2116,-27.5862"/>
</g>
<!-- Node16&#45;&gt;Node15 -->
<g id="edge27" class="edge">
<title>Node16&#45;&gt;Node15</title>
<path fill="none" stroke="#191970" d="M1607.0162,-72.978C1572.041,-61.5559 1523.7718,-45.7923 1486.6281,-33.662"/>
<polygon fill="#191970" stroke="#191970" points="1487.5468,-30.2802 1476.9543,-30.5028 1485.3737,-36.9344 1487.5468,-30.2802"/>
</g>
<!-- Node17 -->
<g id="node18" class="node">
<title>Node17</title>
<polygon fill="#ffffff" stroke="#bfbfbf" points="1719.0147,-6 1719.0147,-25 1797.0147,-25 1797.0147,-6 1719.0147,-6"/>
<text text-anchor="middle" x="1758.0147" y="-13" font-family="Helvetica,sans-Serif" font-size="10.00" fill="#000000">unordered_set</text>
</g>
<!-- Node16&#45;&gt;Node17 -->
<g id="edge23" class="edge">
<title>Node16&#45;&gt;Node17</title>
<path fill="none" stroke="#191970" d="M1674.7708,-72.978C1692.4695,-60.7574 1717.3656,-43.5673 1735.3141,-31.1743"/>
<polygon fill="#191970" stroke="#191970" points="1737.7515,-33.7446 1743.9918,-25.1825 1733.7741,-27.9843 1737.7515,-33.7446"/>
</g>
<!-- Node18 -->
<g id="node19" class="node">
<title>Node18</title>
<polygon fill="#ffffff" stroke="#bfbfbf" points="1661.0147,-6 1661.0147,-25 1701.0147,-25 1701.0147,-6 1661.0147,-6"/>
<text text-anchor="middle" x="1681.0147" y="-13" font-family="Helvetica,sans-Serif" font-size="10.00" fill="#000000">utility</text>
</g>
<!-- Node16&#45;&gt;Node18 -->
<g id="edge24" class="edge">
<title>Node16&#45;&gt;Node18</title>
<path fill="none" stroke="#191970" d="M1658.8164,-72.978C1663.0782,-61.9428 1668.9051,-46.8552 1673.5197,-34.9068"/>
<polygon fill="#191970" stroke="#191970" points="1676.8551,-35.9851 1677.193,-25.3957 1670.3252,-33.4632 1676.8551,-35.9851"/>
</g>
<!-- Node16&#45;&gt;Node22 -->
<g id="edge28" class="edge">
<title>Node16&#45;&gt;Node22</title>
<path fill="none" stroke="#191970" d="M1636.2315,-72.978C1624.7192,-62.6738 1609.2595,-48.8363 1596.3936,-37.3206"/>
<polygon fill="#191970" stroke="#191970" points="1598.562,-34.5642 1588.7765,-30.5028 1593.8935,-39.7801 1598.562,-34.5642"/>
</g>
<!-- Node16&#45;&gt;Node24 -->
<g id="edge29" class="edge">
<title>Node16&#45;&gt;Node24</title>
<path fill="none" stroke="#191970" d="M1595.5103,-72.9904C1585.3997,-70.7206 1574.938,-68.6054 1565.0147,-67 1385.4665,-37.9522 1335.0981,-56.1917 1150.353,-30.9296"/>
<polygon fill="#191970" stroke="#191970" points="1150.6927,-27.4432 1140.3057,-29.5313 1149.7277,-34.3764 1150.6927,-27.4432"/>
</g>
<!-- Node16&#45;&gt;Node26 -->
<g id="edge30" class="edge">
<title>Node16&#45;&gt;Node26</title>
<path fill="none" stroke="#191970" d="M1578.2486,-74.1453C1561.4421,-71.4201 1543.6568,-68.8392 1527.0147,-67 1237.6697,-35.0227 1162.5596,-61.1145 873.0147,-31 859.9383,-29.64 845.9686,-27.7684 832.7187,-25.7954"/>
<polygon fill="#191970" stroke="#191970" points="833.1672,-22.3234 822.7534,-24.2737 832.1105,-29.2432 833.1672,-22.3234"/>
</g>
<!-- Node16&#45;&gt;Node27 -->
<g id="edge31" class="edge">
<title>Node16&#45;&gt;Node27</title>
<path fill="none" stroke="#191970" d="M1596.015,-72.8975C1585.7545,-70.6087 1575.1117,-68.5111 1565.0147,-67 1316.4163,-29.7954 1246.4125,-69.9499 993.8331,-30.8995"/>
<polygon fill="#191970" stroke="#191970" points="994.0337,-27.3881 983.6113,-29.2916 992.9459,-34.3031 994.0337,-27.3881"/>
</g>
<!-- Node16&#45;&gt;Node28 -->
<g id="edge32" class="edge">
<title>Node16&#45;&gt;Node28</title>
<path fill="none" stroke="#191970" d="M1727.5316,-82.9349C1798.1713,-78.2711 1907.2744,-71.4245 2002.0147,-67 2580.8692,-39.9668 3282.0548,-21.9698 3490.073,-16.9375"/>
<polygon fill="#191970" stroke="#191970" points="3490.2708,-20.4338 3500.1835,-16.6937 3490.1021,-13.4358 3490.2708,-20.4338"/>
</g>
<!-- Node16&#45;&gt;Node30 -->
<g id="edge33" class="edge">
<title>Node16&#45;&gt;Node30</title>
<path fill="none" stroke="#191970" d="M1578.3413,-76.8014C1551.7744,-73.1716 1521.6106,-69.4531 1494.0147,-67 1147.4576,-36.1937 1058.8977,-57.8899 712.0147,-31 684.4029,-28.8596 653.8589,-25.6369 628.1955,-22.6836"/>
<polygon fill="#191970" stroke="#191970" points="628.5898,-19.206 618.2518,-21.5249 627.7795,-26.1589 628.5898,-19.206"/>
</g>
<!-- Node33 -->
<g id="node26" class="node">
<title>Node33</title>
<polygon fill="#ffffff" stroke="#bfbfbf" points="2843.0147,-.5 2843.0147,-30.5 2965.0147,-30.5 2965.0147,-.5 2843.0147,-.5"/>
<text text-anchor="start" x="2851.0147" y="-18.5" font-family="Helvetica,sans-Serif" font-size="10.00" fill="#000000">tensorflow/core/platform</text>
<text text-anchor="middle" x="2904.0147" y="-7.5" font-family="Helvetica,sans-Serif" font-size="10.00" fill="#000000">/macros.h</text>
</g>
<!-- Node16&#45;&gt;Node33 -->
<g id="edge34" class="edge">
<title>Node16&#45;&gt;Node33</title>
<path fill="none" stroke="#191970" d="M1727.545,-83.204C1798.1942,-78.7316 1907.3039,-72.0154 2002.0147,-67 2351.6684,-48.4841 2440.2834,-62.4158 2789.0147,-31 2803.2794,-29.715 2818.4903,-27.9482 2833.0217,-26.0665"/>
<polygon fill="#191970" stroke="#191970" points="2833.5002,-29.5338 2842.9535,-24.7499 2832.5802,-22.5945 2833.5002,-29.5338"/>
</g>
<!-- Node34 -->
<g id="node27" class="node">
<title>Node34</title>
<polygon fill="#ffffff" stroke="#bfbfbf" points="2658.0147,-.5 2658.0147,-30.5 2780.0147,-30.5 2780.0147,-.5 2658.0147,-.5"/>
<text text-anchor="start" x="2666.0147" y="-18.5" font-family="Helvetica,sans-Serif" font-size="10.00" fill="#000000">tensorflow/core/platform</text>
<text text-anchor="middle" x="2719.0147" y="-7.5" font-family="Helvetica,sans-Serif" font-size="10.00" fill="#000000">/types.h</text>
</g>
<!-- Node16&#45;&gt;Node34 -->
<g id="edge35" class="edge">
<title>Node16&#45;&gt;Node34</title>
<path fill="none" stroke="#191970" d="M1727.5501,-82.9308C1924.1278,-69.5613 2454.7529,-33.4728 2647.6663,-20.3525"/>
<polygon fill="#191970" stroke="#191970" points="2647.9539,-23.8411 2657.6933,-19.6705 2647.4789,-16.8572 2647.9539,-23.8411"/>
</g>
<!-- Node43&#45;&gt;Node1 -->
<g id="edge61" class="edge">
<title>Node43&#45;&gt;Node1</title>
<path fill="none" stroke="#191970" d="M2278.9968,-316.0513C1962.0367,-313.3527 375.672,-298.265 161.0147,-265 155.327,-264.1186 149.4568,-262.9155 143.6368,-261.528"/>
<polygon fill="#191970" stroke="#191970" points="144.4861,-258.1326 133.9304,-259.0432 142.75,-264.9139 144.4861,-258.1326"/>
</g>
<!-- Node43&#45;&gt;Node3 -->
<g id="edge54" class="edge">
<title>Node43&#45;&gt;Node3</title>
<path fill="none" stroke="#191970" d="M2389.0481,-314.8122C2486.3345,-310.9785 2684.0009,-299.1214 2743.0147,-265 2804.0202,-229.727 2835.8711,-145.6681 2847.6169,-107.4777"/>
<polygon fill="#191970" stroke="#191970" points="2851.0581,-108.1809 2850.5162,-97.6 2844.3414,-106.2094 2851.0581,-108.1809"/>
</g>
<!-- Node43&#45;&gt;Node5 -->
<g id="edge55" class="edge">
<title>Node43&#45;&gt;Node5</title>
<path fill="none" stroke="#191970" d="M2389.2161,-313.3974C2492.0188,-307.0803 2708.7432,-291.0751 2779.0147,-265 2810.2187,-253.4214 2810.4865,-236.2582 2841.0147,-223 2907.0757,-194.3101 2928.8801,-203.3798 2999.0147,-187 3149.3619,-151.8866 3432.2483,-178.0774 3325.0147,-67 3285.5553,-26.1262 2359.7219,-34.4654 2303.0147,-31 2253.8402,-27.9949 2197.17,-22.7526 2161.2318,-19.2057"/>
<polygon fill="#191970" stroke="#191970" points="2161.52,-15.7172 2151.2223,-18.2087 2160.8261,-22.6828 2161.52,-15.7172"/>
</g>
<!-- Node43&#45;&gt;Node6 -->
<g id="edge56" class="edge">
<title>Node43&#45;&gt;Node6</title>
<path fill="none" stroke="#191970" d="M2278.6701,-313.2217C2173.1581,-306.4404 1951.4927,-289.4365 1927.0147,-265 1864.2109,-202.3024 1880.9495,-81.933 1890.5237,-34.9553"/>
<polygon fill="#191970" stroke="#191970" points="1893.9537,-35.6529 1892.6436,-25.1394 1887.1114,-34.1752 1893.9537,-35.6529"/>
</g>
<!-- Node43&#45;&gt;Node7 -->
<g id="edge99" class="edge">
<title>Node43&#45;&gt;Node7</title>
<path fill="none" stroke="#191970" d="M2278.5927,-315.673C2025.0571,-311.7439 981.9536,-293.9407 839.0147,-265 757.6798,-248.5322 668.4392,-209.3502 618.8227,-185.513"/>
<polygon fill="#191970" stroke="#191970" points="620.2609,-182.3206 609.7359,-181.1055 617.2059,-188.6188 620.2609,-182.3206"/>
</g>
<!-- Node43&#45;&gt;Node8 -->
<g id="edge102" class="edge">
<title>Node43&#45;&gt;Node8</title>
<path fill="none" stroke="#191970" d="M2278.9183,-312.0589C2191.4951,-304.6421 2015.7644,-288.2249 1868.0147,-265 1721.5368,-241.975 1552.1663,-204.8988 1457.6251,-183.2503"/>
<polygon fill="#191970" stroke="#191970" points="1458.403,-179.8379 1447.8733,-181.0112 1456.8364,-186.6604 1458.403,-179.8379"/>
</g>
<!-- Node43&#45;&gt;Node13 -->
<g id="edge57" class="edge">
<title>Node43&#45;&gt;Node13</title>
<path fill="none" stroke="#191970" d="M2389.0376,-315.602C2604.646,-311.8656 3382.2303,-296.2653 3424.0147,-265 3495.1258,-211.7909 3512.3918,-131.1939 3451.0147,-67 3420.1927,-34.7634 2693.5659,-33.096 2649.0147,-31 2545.7376,-26.1411 2423.4334,-20.017 2366.3626,-17.1378"/>
<polygon fill="#191970" stroke="#191970" points="2366.3273,-13.6316 2356.1635,-16.6227 2365.9742,-20.6227 2366.3273,-13.6316"/>
</g>
<!-- Node43&#45;&gt;Node26 -->
<g id="edge108" class="edge">
<title>Node43&#45;&gt;Node26</title>
<path fill="none" stroke="#191970" d="M2278.9283,-316.0846C1955.9134,-313.5313 320.5877,-298.9418 282.0147,-265 241.7757,-229.5922 238.1832,-188.1236 270.0147,-145 322.408,-74.0204 588.9316,-35.8098 710.9143,-21.8037"/>
<polygon fill="#191970" stroke="#191970" points="711.6594,-25.2419 721.2028,-20.6405 710.8729,-18.2862 711.6594,-25.2419"/>
</g>
<!-- Node43&#45;&gt;Node27 -->
<g id="edge109" class="edge">
<title>Node43&#45;&gt;Node27</title>
<path fill="none" stroke="#191970" d="M2278.6298,-315.874C2011.4834,-312.7028 862.4905,-297.2811 706.0147,-265 613.3833,-245.89 561.245,-265.1813 508.0147,-187 457.5181,-112.8337 605.0264,-68.7222 609.0147,-67 615.0313,-64.402 779.9528,-38.9071 872.1195,-24.7908"/>
<polygon fill="#191970" stroke="#191970" points="872.8105,-28.2259 882.1658,-23.2531 871.7513,-21.3065 872.8105,-28.2259"/>
</g>
<!-- Node43&#45;&gt;Node28 -->
<g id="edge111" class="edge">
<title>Node43&#45;&gt;Node28</title>
<path fill="none" stroke="#191970" d="M2389.3039,-315.5678C2613.6024,-311.5913 3445.9603,-294.8709 3493.0147,-265 3567.4795,-217.7287 3561.3749,-93.9451 3554.8466,-40.5789"/>
<polygon fill="#191970" stroke="#191970" points="3558.3072,-40.0503 3553.5175,-30.5999 3551.3685,-40.9745 3558.3072,-40.0503"/>
</g>
<!-- Node43&#45;&gt;Node30 -->
<g id="edge112" class="edge">
<title>Node43&#45;&gt;Node30</title>
<path fill="none" stroke="#191970" d="M2278.7747,-316.1763C1952.0908,-314.1357 285.9773,-301.9278 249.0147,-265 183.191,-199.2381 236.2734,-113.2409 317.0147,-67 349.5983,-48.3393 447.8921,-32.0461 511.9338,-23.014"/>
<polygon fill="#191970" stroke="#191970" points="512.4803,-26.4717 521.9027,-21.6274 511.5159,-19.5385 512.4803,-26.4717"/>
</g>
<!-- Node43&#45;&gt;Node33 -->
<g id="edge114" class="edge">
<title>Node43&#45;&gt;Node33</title>
<path fill="none" stroke="#191970" d="M2389.1181,-315.4917C2608.8065,-311.2778 3412.5015,-293.9366 3458.0147,-265 3532.6543,-217.5453 3545.7407,-123.8877 3478.0147,-67 3440.2791,-35.3032 3120.6428,-21.8912 2975.367,-17.3938"/>
<polygon fill="#191970" stroke="#191970" points="2975.3164,-13.8907 2965.2147,-17.0853 2975.1037,-20.8875 2975.3164,-13.8907"/>
</g>
<!-- Node43&#45;&gt;Node35 -->
<g id="edge103" class="edge">
<title>Node43&#45;&gt;Node35</title>
<path fill="none" stroke="#191970" d="M2278.8133,-315.854C1960.5331,-312.035 372.425,-291.6671 330.0147,-265 282.4229,-235.0748 253.1656,-187.4575 290.0147,-145 311.3633,-120.4023 511.8455,-101.5532 620.9926,-93.0156"/>
<polygon fill="#191970" stroke="#191970" points="621.5606,-96.4823 631.2611,-92.2218 621.021,-89.5031 621.5606,-96.4823"/>
</g>
<!-- Node43&#45;&gt;Node36 -->
<g id="edge106" class="edge">
<title>Node43&#45;&gt;Node36</title>
<path fill="none" stroke="#191970" d="M2278.9655,-313.2745C2175.8656,-306.6691 1962.0296,-290.0797 1940.0147,-265 1927.7004,-250.9714 1930.5098,-239.0655 1940.0147,-223 1962.2337,-185.4449 2069.7909,-139.6255 2142.2629,-112.1839"/>
<polygon fill="#191970" stroke="#191970" points="2143.6706,-115.394 2151.8013,-108.6013 2141.2092,-108.841 2143.6706,-115.394"/>
</g>
<!-- Node43&#45;&gt;Node38 -->
<g id="edge113" class="edge">
<title>Node43&#45;&gt;Node38</title>
<path fill="none" stroke="#191970" d="M2278.7443,-315.8853C1974.4308,-312.3907 513.5463,-294.146 423.0147,-265 364.2276,-246.0739 336.9384,-241.5669 308.0147,-187 244.5159,-67.2043 384.96,-178.4644 759.0147,-109 764.0206,-108.0704 769.1772,-106.9257 774.3179,-105.6547"/>
<polygon fill="#191970" stroke="#191970" points="775.3558,-109.001 784.1406,-103.0784 773.5798,-102.23 775.3558,-109.001"/>
</g>
<!-- Node43&#45;&gt;Node41 -->
<g id="edge115" class="edge">
<title>Node43&#45;&gt;Node41</title>
<path fill="none" stroke="#191970" d="M2278.6378,-316.2177C1978.6338,-314.5309 558.5228,-304.4798 475.0147,-265 441.7626,-249.2795 416.2297,-213.9735 401.9161,-190.0625"/>
<polygon fill="#191970" stroke="#191970" points="404.843,-188.1317 396.8172,-181.2153 398.7781,-191.6271 404.843,-188.1317"/>
</g>
<!-- Node44 -->
<g id="node37" class="node">
<title>Node44</title>
<polygon fill="#ffffff" stroke="#bfbfbf" points="2089.5147,-223.5 2089.5147,-264.5 2190.5147,-264.5 2190.5147,-223.5 2089.5147,-223.5"/>
<text text-anchor="start" x="2097.5147" y="-252.5" font-family="Helvetica,sans-Serif" font-size="10.00" fill="#000000">tensorflow/compiler</text>
<text text-anchor="start" x="2097.5147" y="-241.5" font-family="Helvetica,sans-Serif" font-size="10.00" fill="#000000">/xla/executable_run</text>
<text text-anchor="middle" x="2140.0147" y="-230.5" font-family="Helvetica,sans-Serif" font-size="10.00" fill="#000000">_options.h</text>
</g>
<!-- Node43&#45;&gt;Node44 -->
<g id="edge58" class="edge">
<title>Node43&#45;&gt;Node44</title>
<path fill="none" stroke="#191970" d="M2293.8178,-301.478C2266.7785,-291.373 2230.6468,-277.8702 2200.1983,-266.4913"/>
<polygon fill="#191970" stroke="#191970" points="2201.1234,-263.1006 2190.5309,-262.8785 2198.6729,-269.6577 2201.1234,-263.1006"/>
</g>
<!-- Node45 -->
<g id="node38" class="node">
<title>Node45</title>
<polygon fill="#ffffff" stroke="#bfbfbf" points="2208.5147,-223.5 2208.5147,-264.5 2327.5147,-264.5 2327.5147,-223.5 2208.5147,-223.5"/>
<text text-anchor="start" x="2216.5147" y="-252.5" font-family="Helvetica,sans-Serif" font-size="10.00" fill="#000000">tensorflow/compiler</text>
<text text-anchor="start" x="2216.5147" y="-241.5" font-family="Helvetica,sans-Serif" font-size="10.00" fill="#000000">/xla/legacy_flags/debug</text>
<text text-anchor="middle" x="2268.0147" y="-230.5" font-family="Helvetica,sans-Serif" font-size="10.00" fill="#000000">_options_flags.h</text>
</g>
<!-- Node43&#45;&gt;Node45 -->
<g id="edge59" class="edge">
<title>Node43&#45;&gt;Node45</title>
<path fill="none" stroke="#191970" d="M2320.3395,-301.478C2312.5768,-292.9508 2302.6113,-282.0039 2293.4638,-271.9555"/>
<polygon fill="#191970" stroke="#191970" points="2295.9982,-269.5402 2286.6782,-264.5015 2290.8218,-274.2525 2295.9982,-269.5402"/>
</g>
<!-- Node46 -->
<g id="node39" class="node">
<title>Node46</title>
<polygon fill="#ffffff" stroke="#bfbfbf" points="2345.5147,-223.5 2345.5147,-264.5 2456.5147,-264.5 2456.5147,-223.5 2345.5147,-223.5"/>
<text text-anchor="start" x="2353.5147" y="-252.5" font-family="Helvetica,sans-Serif" font-size="10.00" fill="#000000">tensorflow/compiler</text>
<text text-anchor="start" x="2353.5147" y="-241.5" font-family="Helvetica,sans-Serif" font-size="10.00" fill="#000000">/xla/service/allocation</text>
<text text-anchor="middle" x="2401.0147" y="-230.5" font-family="Helvetica,sans-Serif" font-size="10.00" fill="#000000">_tracker.h</text>
</g>
<!-- Node43&#45;&gt;Node46 -->
<g id="edge60" class="edge">
<title>Node43&#45;&gt;Node46</title>
<path fill="none" stroke="#191970" d="M2347.8972,-301.478C2355.7775,-292.9508 2365.8939,-282.0039 2375.18,-271.9555"/>
<polygon fill="#191970" stroke="#191970" points="2377.8519,-274.2211 2382.0685,-264.5015 2372.711,-269.4702 2377.8519,-274.2211"/>
</g>
<!-- Node47 -->
<g id="node40" class="node">
<title>Node47</title>
<polygon fill="#ffffff" stroke="#bfbfbf" points="2475.0147,-223.5 2475.0147,-264.5 2579.0147,-264.5 2579.0147,-223.5 2475.0147,-223.5"/>
<text text-anchor="start" x="2483.0147" y="-252.5" font-family="Helvetica,sans-Serif" font-size="10.00" fill="#000000">tensorflow/compiler</text>
<text text-anchor="start" x="2483.0147" y="-241.5" font-family="Helvetica,sans-Serif" font-size="10.00" fill="#000000">/xla/service/channel</text>
<text text-anchor="middle" x="2527.0147" y="-230.5" font-family="Helvetica,sans-Serif" font-size="10.00" fill="#000000">_tracker.h</text>
</g>
<!-- Node43&#45;&gt;Node47 -->
<g id="edge62" class="edge">
<title>Node43&#45;&gt;Node47</title>
<path fill="none" stroke="#191970" d="M2374.0045,-301.478C2400.4063,-291.5602 2435.5217,-278.3692 2465.4528,-267.1256"/>
<polygon fill="#191970" stroke="#191970" points="2466.8404,-270.3432 2474.9709,-263.5501 2464.3788,-263.7903 2466.8404,-270.3432"/>
</g>
<!-- Node48 -->
<g id="node41" class="node">
<title>Node48</title>
<polygon fill="#ffffff" stroke="#bfbfbf" points="2597.5147,-223.5 2597.5147,-264.5 2716.5147,-264.5 2716.5147,-223.5 2597.5147,-223.5"/>
<text text-anchor="start" x="2605.5147" y="-252.5" font-family="Helvetica,sans-Serif" font-size="10.00" fill="#000000">tensorflow/compiler</text>
<text text-anchor="start" x="2605.5147" y="-241.5" font-family="Helvetica,sans-Serif" font-size="10.00" fill="#000000">/xla/service/compilation</text>
<text text-anchor="middle" x="2657.0147" y="-230.5" font-family="Helvetica,sans-Serif" font-size="10.00" fill="#000000">_cache.h</text>
</g>
<!-- Node43&#45;&gt;Node48 -->
<g id="edge63" class="edge">
<title>Node43&#45;&gt;Node48</title>
<path fill="none" stroke="#191970" d="M2389.3552,-306.8532C2438.8203,-297.8754 2513.4338,-283.4621 2587.3272,-265.0652"/>
<polygon fill="#191970" stroke="#191970" points="2588.4294,-268.397 2597.2734,-262.5632 2586.7217,-261.6085 2588.4294,-268.397"/>
</g>
<!-- Node49 -->
<g id="node42" class="node">
<title>Node49</title>
<g id="a_node42"><a xlink:href="../../d1/dc5/computation__tracker_8h.html" target="_top" xlink:title="tensorflow/compiler\l/xla/service/computation\l_tracker.h">
<polygon fill="#ffffff" stroke="#000000" points="1948.5147,-223.5 1948.5147,-264.5 2071.5147,-264.5 2071.5147,-223.5 1948.5147,-223.5"/>
<text text-anchor="start" x="1956.5147" y="-252.5" font-family="Helvetica,sans-Serif" font-size="10.00" fill="#000000">tensorflow/compiler</text>
<text text-anchor="start" x="1956.5147" y="-241.5" font-family="Helvetica,sans-Serif" font-size="10.00" fill="#000000">/xla/service/computation</text>
<text text-anchor="middle" x="2010.0147" y="-230.5" font-family="Helvetica,sans-Serif" font-size="10.00" fill="#000000">_tracker.h</text>
</a>
</g>
</g>
<!-- Node43&#45;&gt;Node49 -->
<g id="edge64" class="edge">
<title>Node43&#45;&gt;Node49</title>
<path fill="none" stroke="#191970" d="M2278.9249,-306.7123C2229.6764,-297.6404 2155.3715,-283.1631 2081.7886,-265.0979"/>
<polygon fill="#191970" stroke="#191970" points="2082.4324,-261.6517 2071.8841,-262.6431 2080.7484,-268.4461 2082.4324,-261.6517"/>
</g>
<!-- Node51 -->
<g id="node44" class="node">
<title>Node51</title>
<polygon fill="#ffffff" stroke="#bfbfbf" points="2977.5147,-73 2977.5147,-103 3102.5147,-103 3102.5147,-73 2977.5147,-73"/>
<text text-anchor="start" x="2985.5147" y="-91" font-family="Helvetica,sans-Serif" font-size="10.00" fill="#000000">tensorflow/compiler</text>
<text text-anchor="middle" x="3040.0147" y="-80" font-family="Helvetica,sans-Serif" font-size="10.00" fill="#000000">/xla/service/session.pb.h</text>
</g>
<!-- Node43&#45;&gt;Node51 -->
<g id="edge104" class="edge">
<title>Node43&#45;&gt;Node51</title>
<path fill="none" stroke="#191970" d="M2389.2835,-315.8659C2600.3681,-313.1783 3345.5986,-301.1523 3380.0147,-265 3467.3777,-173.2298 3236.7192,-120.0585 3112.7651,-98.8337"/>
<polygon fill="#191970" stroke="#191970" points="3113.0157,-95.3267 3102.5736,-97.1192 3111.8544,-102.2297 3113.0157,-95.3267"/>
</g>
<!-- Node52 -->
<g id="node45" class="node">
<title>Node52</title>
<g id="a_node45"><a xlink:href="../../d6/d38/user__computation_8h.html" target="_top" xlink:title="tensorflow/compiler\l/xla/service/user_computation.h">
<polygon fill="#ffffff" stroke="#000000" points="2603.5147,-151 2603.5147,-181 2758.5147,-181 2758.5147,-151 2603.5147,-151"/>
<text text-anchor="start" x="2611.5147" y="-169" font-family="Helvetica,sans-Serif" font-size="10.00" fill="#000000">tensorflow/compiler</text>
<text text-anchor="middle" x="2681.0147" y="-158" font-family="Helvetica,sans-Serif" font-size="10.00" fill="#000000">/xla/service/user_computation.h</text>
</a>
</g>
</g>
<!-- Node43&#45;&gt;Node52 -->
<g id="edge105" class="edge">
<title>Node43&#45;&gt;Node52</title>
<path fill="none" stroke="#191970" d="M2389.1838,-313.2276C2491.9136,-306.5685 2704.1462,-289.9295 2726.0147,-265 2745.6413,-242.6263 2724.0329,-210.2675 2704.531,-188.7049"/>
<polygon fill="#191970" stroke="#191970" points="2706.9339,-186.1518 2697.5216,-181.2877 2701.8463,-190.9597 2706.9339,-186.1518"/>
</g>
<!-- Node53 -->
<g id="node46" class="node">
<title>Node53</title>
<polygon fill="#ffffff" stroke="#bfbfbf" points="3214.5147,-73 3214.5147,-103 3315.5147,-103 3315.5147,-73 3214.5147,-73"/>
<text text-anchor="start" x="3222.5147" y="-91" font-family="Helvetica,sans-Serif" font-size="10.00" fill="#000000">tensorflow/compiler</text>
<text text-anchor="middle" x="3265.0147" y="-80" font-family="Helvetica,sans-Serif" font-size="10.00" fill="#000000">/xla/xla.pb.h</text>
</g>
<!-- Node43&#45;&gt;Node53 -->
<g id="edge110" class="edge">
<title>Node43&#45;&gt;Node53</title>
<path fill="none" stroke="#191970" d="M2389.0329,-315.9298C2602.7483,-313.4504 3367.744,-302.0108 3403.0147,-265 3453.1785,-212.3613 3356.8796,-142.4123 3300.9906,-108.3603"/>
<polygon fill="#191970" stroke="#191970" points="3302.4422,-105.1501 3292.0645,-103.0162 3298.8464,-111.156 3302.4422,-105.1501"/>
</g>
<!-- Node54 -->
<g id="node47" class="node">
<title>Node54</title>
<polygon fill="#ffffff" stroke="#bfbfbf" points="2849.5147,-223.5 2849.5147,-264.5 2956.5147,-264.5 2956.5147,-223.5 2849.5147,-223.5"/>
<text text-anchor="start" x="2857.5147" y="-252.5" font-family="Helvetica,sans-Serif" font-size="10.00" fill="#000000">tensorflow/compiler</text>
<text text-anchor="start" x="2857.5147" y="-241.5" font-family="Helvetica,sans-Serif" font-size="10.00" fill="#000000">/xla/service/device</text>
<text text-anchor="middle" x="2903.0147" y="-230.5" font-family="Helvetica,sans-Serif" font-size="10.00" fill="#000000">_memory_allocator.h</text>
</g>
<!-- Node43&#45;&gt;Node54 -->
<g id="edge98" class="edge">
<title>Node43&#45;&gt;Node54</title>
<path fill="none" stroke="#191970" d="M2389.0378,-314.3894C2481.8392,-310.0422 2675.0121,-297.598 2835.0147,-265 2836.4903,-264.6994 2837.9794,-264.3798 2839.4776,-264.0437"/>
<polygon fill="#191970" stroke="#191970" points="2840.5603,-267.3823 2849.4464,-261.6128 2838.9019,-260.5816 2840.5603,-267.3823"/>
</g>
<!-- Node55 -->
<g id="node48" class="node">
<title>Node55</title>
<polygon fill="#ffffff" stroke="#bfbfbf" points="2975.0147,-223.5 2975.0147,-264.5 3087.0147,-264.5 3087.0147,-223.5 2975.0147,-223.5"/>
<text text-anchor="start" x="2983.0147" y="-252.5" font-family="Helvetica,sans-Serif" font-size="10.00" fill="#000000">tensorflow/compiler</text>
<text text-anchor="start" x="2983.0147" y="-241.5" font-family="Helvetica,sans-Serif" font-size="10.00" fill="#000000">/xla/service/execution</text>
<text text-anchor="middle" x="3031.0147" y="-230.5" font-family="Helvetica,sans-Serif" font-size="10.00" fill="#000000">_tracker.h</text>
</g>
<!-- Node43&#45;&gt;Node55 -->
<g id="edge100" class="edge">
<title>Node43&#45;&gt;Node55</title>
<path fill="none" stroke="#191970" d="M2389.4829,-313.629C2518.7852,-306.6778 2838.1927,-287.9484 2964.6558,-264.9695"/>
<polygon fill="#191970" stroke="#191970" points="2965.6894,-268.3354 2974.8553,-263.0216 2964.3763,-261.4596 2965.6894,-268.3354"/>
</g>
<!-- Node56 -->
<g id="node49" class="node">
<title>Node56</title>
<polygon fill="#ffffff" stroke="#bfbfbf" points="3105.0147,-223.5 3105.0147,-264.5 3235.0147,-264.5 3235.0147,-223.5 3105.0147,-223.5"/>
<text text-anchor="start" x="3113.0147" y="-252.5" font-family="Helvetica,sans-Serif" font-size="10.00" fill="#000000">tensorflow/compiler</text>
<text text-anchor="start" x="3113.0147" y="-241.5" font-family="Helvetica,sans-Serif" font-size="10.00" fill="#000000">/xla/service/hlo_execution</text>
<text text-anchor="middle" x="3170.0147" y="-230.5" font-family="Helvetica,sans-Serif" font-size="10.00" fill="#000000">_profile.h</text>
</g>
<!-- Node43&#45;&gt;Node56 -->
<g id="edge101" class="edge">
<title>Node43&#45;&gt;Node56</title>
<path fill="none" stroke="#191970" d="M2389.1871,-314.2709C2537.1196,-308.0606 2941.2028,-289.5032 3094.6422,-264.9994"/>
<polygon fill="#191970" stroke="#191970" points="3095.5287,-268.3999 3104.8158,-263.301 3094.376,-261.4955 3095.5287,-268.3999"/>
</g>
<!-- Node57 -->
<g id="node50" class="node">
<title>Node57</title>
<polygon fill="#ffffff" stroke="#bfbfbf" points="3253.0147,-229 3253.0147,-259 3371.0147,-259 3371.0147,-229 3253.0147,-229"/>
<text text-anchor="start" x="3261.0147" y="-247" font-family="Helvetica,sans-Serif" font-size="10.00" fill="#000000">tensorflow/compiler</text>
<text text-anchor="middle" x="3312.0147" y="-236" font-family="Helvetica,sans-Serif" font-size="10.00" fill="#000000">/xla/service_interface.h</text>
</g>
<!-- Node43&#45;&gt;Node57 -->
<g id="edge107" class="edge">
<title>Node43&#45;&gt;Node57</title>
<path fill="none" stroke="#191970" d="M2389.275,-315.1314C2560.154,-310.6223 3078.446,-294.792 3244.0147,-265 3248.9796,-264.1066 3254.0904,-262.9641 3259.1744,-261.6745"/>
<polygon fill="#191970" stroke="#191970" points="3260.1396,-265.0393 3268.8726,-259.0404 3258.3048,-258.284 3260.1396,-265.0393"/>
</g>
<!-- Node49&#45;&gt;Node4 -->
<g id="edge66" class="edge">
<title>Node49&#45;&gt;Node4</title>
<path fill="none" stroke="#191970" d="M2071.8276,-225.1133C2074.9235,-224.3573 2077.9983,-223.647 2081.0147,-223 2197.2308,-198.0715 2235.4547,-230.6358 2346.0147,-187 2394.5715,-167.8356 2441.7981,-127.5016 2466.0967,-104.6728"/>
<polygon fill="#191970" stroke="#191970" points="2468.6222,-107.1005 2473.427,-97.6578 2463.7823,-102.0431 2468.6222,-107.1005"/>
</g>
<!-- Node49&#45;&gt;Node5 -->
<g id="edge67" class="edge">
<title>Node49&#45;&gt;Node5</title>
<path fill="none" stroke="#191970" d="M2071.7836,-224.892C2074.8911,-224.1945 2077.9804,-223.5572 2081.0147,-223 2133.0734,-213.4403 2520.0302,-225.815 2556.0147,-187 2573.9392,-167.6656 2556.3601,-79.7892 2543.0147,-67 2529.2464,-53.8055 2260.2553,-27.9088 2161.2154,-18.7799"/>
<polygon fill="#191970" stroke="#191970" points="2161.3647,-15.279 2151.0867,-17.8503 2160.7249,-22.2497 2161.3647,-15.279"/>
</g>
<!-- Node49&#45;&gt;Node6 -->
<g id="edge69" class="edge">
<title>Node49&#45;&gt;Node6</title>
<path fill="none" stroke="#191970" d="M2066.9718,-223.4398C2138.3409,-196.3845 2254.2178,-147.7282 2278.0147,-109 2287.7872,-93.0958 2290.3031,-81.0513 2278.0147,-67 2266.3831,-53.6997 2014.486,-27.4098 1925.674,-18.5194"/>
<polygon fill="#191970" stroke="#191970" points="1925.9766,-15.0323 1915.6788,-17.5235 1925.2825,-21.9978 1925.9766,-15.0323"/>
</g>
<!-- Node49&#45;&gt;Node8 -->
<g id="edge70" class="edge">
<title>Node49&#45;&gt;Node8</title>
<path fill="none" stroke="#191970" d="M1948.2782,-236.3076C1832.4693,-221.8777 1583.0899,-190.8049 1458.3047,-175.2566"/>
<polygon fill="#191970" stroke="#191970" points="1458.4378,-171.7462 1448.0818,-173.9828 1457.5723,-178.6925 1458.4378,-171.7462"/>
</g>
<!-- Node49&#45;&gt;Node10 -->
<g id="edge65" class="edge">
<title>Node49&#45;&gt;Node10</title>
<path fill="none" stroke="#191970" d="M2071.8114,-225.0356C2074.9115,-224.3002 2077.9917,-223.6155 2081.0147,-223 2218.6603,-194.9741 2263.3071,-235.835 2395.0147,-187 2464.277,-161.3187 2560.7702,-120.6719 2510.0147,-67 2460.7728,-14.9286 1935.775,-47.4226 1866.0147,-31 1862.0302,-30.062 1857.9304,-28.7089 1853.9896,-27.1877"/>
<polygon fill="#191970" stroke="#191970" points="1855.2476,-23.919 1844.6771,-23.2003 1852.4923,-30.354 1855.2476,-23.919"/>
</g>
<!-- Node49&#45;&gt;Node26 -->
<g id="edge91" class="edge">
<title>Node49&#45;&gt;Node26</title>
<path fill="none" stroke="#191970" d="M1948.2545,-242.1744C1752.7156,-236.1269 1155.2547,-215.5006 1073.0147,-187 984.5983,-156.3589 982.381,-111.4089 900.0147,-67 876.4804,-54.3111 849.1344,-42.8966 825.7749,-34.0575"/>
<polygon fill="#191970" stroke="#191970" points="826.9598,-30.764 816.3671,-30.5541 824.5169,-37.3239 826.9598,-30.764"/>
</g>
<!-- Node49&#45;&gt;Node27 -->
<g id="edge92" class="edge">
<title>Node49&#45;&gt;Node27</title>
<path fill="none" stroke="#191970" d="M1948.3309,-242.5317C1825.9744,-238.8364 1544.2191,-226.422 1311.0147,-187 1174.7515,-163.9654 1126.5326,-183.3093 1010.0147,-109 1002.4955,-104.2046 971.1296,-64.7072 950.8233,-38.6047"/>
<polygon fill="#191970" stroke="#191970" points="953.5573,-36.4188 944.6633,-30.6616 948.0258,-40.7087 953.5573,-36.4188"/>
</g>
<!-- Node49&#45;&gt;Node28 -->
<g id="edge93" class="edge">
<title>Node49&#45;&gt;Node28</title>
<path fill="none" stroke="#191970" d="M2071.7598,-224.7555C2074.8736,-224.0941 2077.9708,-223.5018 2081.0147,-223 2483.8905,-156.5838 2594.5282,-242.7731 2999.0147,-187 3146.5968,-166.6505 3183.3004,-154.9522 3325.0147,-109 3391.1937,-87.5409 3465.2367,-55.2501 3509.9686,-34.783"/>
<polygon fill="#191970" stroke="#191970" points="3511.4333,-37.9618 3519.0556,-30.6031 3508.508,-31.6023 3511.4333,-37.9618"/>
</g>
<!-- Node49&#45;&gt;Node33 -->
<g id="edge94" class="edge">
<title>Node49&#45;&gt;Node33</title>
<path fill="none" stroke="#191970" d="M2071.7645,-224.7835C2074.877,-224.1147 2077.9727,-223.5132 2081.0147,-223 2165.58,-208.7346 2776.1423,-226.9769 2852.0147,-187 2890.4703,-166.7379 2897.185,-150.2083 2911.0147,-109 2918.531,-86.6041 2915.2758,-59.5524 2911.0462,-40.3209"/>
<polygon fill="#191970" stroke="#191970" points="2914.4262,-39.4078 2908.6584,-30.5206 2907.6252,-41.0649 2914.4262,-39.4078"/>
</g>
<!-- Node49&#45;&gt;Node34 -->
<g id="edge97" class="edge">
<title>Node49&#45;&gt;Node34</title>
<path fill="none" stroke="#191970" d="M2071.7665,-224.7956C2074.8785,-224.1236 2077.9735,-223.5181 2081.0147,-223 2239.1583,-196.0599 2653.1554,-246.8001 2802.0147,-187 2863.8764,-162.1488 2931.8668,-120.4439 2892.0147,-67 2879.398,-50.0803 2832.1615,-36.7077 2790.2305,-27.8339"/>
<polygon fill="#191970" stroke="#191970" points="2790.7685,-24.3714 2780.2687,-25.7869 2789.3595,-31.2281 2790.7685,-24.3714"/>
</g>
<!-- Node49&#45;&gt;Node35 -->
<g id="edge71" class="edge">
<title>Node49&#45;&gt;Node35</title>
<path fill="none" stroke="#191970" d="M1948.3688,-242.576C1738.5041,-237.4605 1059.6963,-218.6204 967.0147,-187 935.862,-176.3715 936.038,-158.4929 906.0147,-145 847.913,-118.8882 826.4712,-125.96 760.8143,-109.0801"/>
<polygon fill="#191970" stroke="#191970" points="761.3609,-105.6037 750.7967,-106.4091 759.5574,-112.3674 761.3609,-105.6037"/>
</g>
<!-- Node49&#45;&gt;Node36 -->
<g id="edge90" class="edge">
<title>Node49&#45;&gt;Node36</title>
<path fill="none" stroke="#191970" d="M2036.5732,-223.2844C2072.3849,-195.3513 2136.2025,-145.5735 2175.6387,-114.8133"/>
<polygon fill="#191970" stroke="#191970" points="2177.9326,-117.4629 2183.665,-108.5528 2173.6273,-111.9434 2177.9326,-117.4629"/>
</g>
<!-- Node49&#45;&gt;Node39 -->
<g id="edge95" class="edge">
<title>Node49&#45;&gt;Node39</title>
<path fill="none" stroke="#191970" d="M2018.2479,-223.2844C2029.6121,-194.6905 2050.0738,-143.2062 2062.2128,-112.6628"/>
<polygon fill="#191970" stroke="#191970" points="2065.5444,-113.7564 2065.9853,-103.1708 2059.0394,-111.171 2065.5444,-113.7564"/>
</g>
<!-- Node49&#45;&gt;Node42 -->
<g id="edge96" class="edge">
<title>Node49&#45;&gt;Node42</title>
<path fill="none" stroke="#191970" d="M2071.8441,-225.1884C2074.9356,-224.4126 2078.005,-223.6775 2081.0147,-223 2181.9556,-200.2772 2222.2099,-240.0951 2311.0147,-187 2340.3254,-169.4756 2362.0747,-135.7439 2374.4002,-112.5653"/>
<polygon fill="#191970" stroke="#191970" points="2377.6719,-113.854 2379.1001,-103.3558 2371.4369,-110.672 2377.6719,-113.854"/>
</g>
<!-- Node50 -->
<g id="node43" class="node">
<title>Node50</title>
<polygon fill="#ffffff" stroke="#bfbfbf" points="2517.0147,-156.5 2517.0147,-175.5 2547.0147,-175.5 2547.0147,-156.5 2517.0147,-156.5"/>
<text text-anchor="middle" x="2532.0147" y="-163.5" font-family="Helvetica,sans-Serif" font-size="10.00" fill="#000000">set</text>
</g>
<!-- Node49&#45;&gt;Node50 -->
<g id="edge68" class="edge">
<title>Node49&#45;&gt;Node50</title>
<path fill="none" stroke="#191970" d="M2071.7902,-224.9273C2074.8959,-224.2205 2077.9831,-223.5715 2081.0147,-223 2265.993,-188.1268 2326.5756,-252.5921 2503.0147,-187 2506.6053,-185.6652 2510.1478,-183.7561 2513.4571,-181.6266"/>
<polygon fill="#191970" stroke="#191970" points="2515.5353,-184.4429 2521.5458,-175.7179 2511.4062,-178.7904 2515.5353,-184.4429"/>
</g>
<!-- Node49&#45;&gt;Node51 -->
<g id="edge72" class="edge">
<title>Node49&#45;&gt;Node51</title>
<path fill="none" stroke="#191970" d="M2071.7608,-224.7615C2074.8743,-224.0985 2077.9712,-223.5042 2081.0147,-223 2177.7773,-206.9687 2875.8037,-231.8803 2963.0147,-187 2994.1548,-170.9748 3016.5602,-136.0073 3028.9144,-112.2254"/>
<polygon fill="#191970" stroke="#191970" points="3032.1277,-113.624 3033.445,-103.1114 3025.8595,-110.508 3032.1277,-113.624"/>
</g>
<!-- Node49&#45;&gt;Node52 -->
<g id="edge73" class="edge">
<title>Node49&#45;&gt;Node52</title>
<path fill="none" stroke="#191970" d="M2071.7803,-224.8737C2074.8886,-224.181 2077.9791,-223.5498 2081.0147,-223 2303.7357,-182.6644 2365.1312,-220.2832 2589.0147,-187 2596.3386,-185.9112 2603.944,-184.5523 2611.5031,-183.0527"/>
<polygon fill="#191970" stroke="#191970" points="2612.3012,-186.4618 2621.3863,-181.011 2610.8849,-179.6066 2612.3012,-186.4618"/>
</g>
<!-- Node52&#45;&gt;Node3 -->
<g id="edge74" class="edge">
<title>Node52&#45;&gt;Node3</title>
<path fill="none" stroke="#191970" d="M2715.6235,-150.8831C2741.4418,-139.5344 2777.5366,-123.5176 2809.0147,-109 2813.8859,-106.7534 2819.0418,-104.3322 2824.043,-101.9604"/>
<polygon fill="#191970" stroke="#191970" points="2825.8349,-104.9836 2833.354,-97.5194 2822.8213,-98.6654 2825.8349,-104.9836"/>
</g>
<!-- Node52&#45;&gt;Node4 -->
<g id="edge75" class="edge">
<title>Node52&#45;&gt;Node4</title>
<path fill="none" stroke="#191970" d="M2642.8383,-150.9608C2603.8698,-135.6096 2544.3735,-112.1716 2510.0311,-98.6428"/>
<polygon fill="#191970" stroke="#191970" points="2511.2272,-95.3523 2500.6403,-94.9434 2508.6615,-101.8651 2511.2272,-95.3523"/>
</g>
<!-- Node52&#45;&gt;Node5 -->
<g id="edge76" class="edge">
<title>Node52&#45;&gt;Node5</title>
<path fill="none" stroke="#191970" d="M2673.6391,-150.8906C2661.0451,-125.7501 2635.1904,-77.087 2619.0147,-67 2609.2796,-60.9293 2274.1273,-29.3421 2161.5064,-18.874"/>
<polygon fill="#191970" stroke="#191970" points="2161.6014,-15.3679 2151.3206,-17.9285 2160.9543,-22.3379 2161.6014,-15.3679"/>
</g>
<!-- Node52&#45;&gt;Node6 -->
<g id="edge77" class="edge">
<title>Node52&#45;&gt;Node6</title>
<path fill="none" stroke="#191970" d="M2662.4864,-150.7716C2631.2668,-125.4515 2569.0434,-76.5249 2543.0147,-67 2543.0147,-67 2054.6028,-28.1833 1925.8298,-17.949"/>
<polygon fill="#191970" stroke="#191970" points="1926.0868,-14.4585 1915.8409,-17.1552 1925.5322,-21.4365 1926.0868,-14.4585"/>
</g>
<!-- Node52&#45;&gt;Node13 -->
<g id="edge78" class="edge">
<title>Node52&#45;&gt;Node13</title>
<path fill="none" stroke="#191970" d="M2682.1091,-150.7144C2682.7671,-128.766 2680.4037,-88.5948 2657.0147,-67 2615.0622,-28.2655 2439.6874,-18.6066 2366.4097,-16.2453"/>
<polygon fill="#191970" stroke="#191970" points="2366.4665,-12.7456 2356.367,-15.9473 2366.2588,-19.7425 2366.4665,-12.7456"/>
</g>
<!-- Node52&#45;&gt;Node16 -->
<g id="edge79" class="edge">
<title>Node52&#45;&gt;Node16</title>
<path fill="none" stroke="#191970" d="M2603.5097,-151.6985C2587.8299,-149.1667 2571.4266,-146.7762 2556.0147,-145 2515.7877,-140.3639 1954.373,-106.2072 1737.5848,-93.1005"/>
<polygon fill="#191970" stroke="#191970" points="1737.7185,-89.6023 1727.5255,-92.4925 1737.2961,-96.5895 1737.7185,-89.6023"/>
</g>
<!-- Node52&#45;&gt;Node26 -->
<g id="edge82" class="edge">
<title>Node52&#45;&gt;Node26</title>
<path fill="none" stroke="#191970" d="M2603.2128,-151.3043C2587.6311,-148.8206 2571.3405,-146.5487 2556.0147,-145 2442.1911,-133.4981 1629.0183,-160.8014 1527.0147,-109 1505.8484,-98.2509 1515.0564,-77.9911 1494.0147,-67 1432.753,-35 941.7493,-38.2501 873.0147,-31 859.9403,-29.6209 845.9714,-27.7413 832.7217,-25.7666"/>
<polygon fill="#191970" stroke="#191970" points="833.1703,-22.2946 822.7565,-24.2446 832.1134,-29.2143 833.1703,-22.2946"/>
</g>
<!-- Node52&#45;&gt;Node27 -->
<g id="edge83" class="edge">
<title>Node52&#45;&gt;Node27</title>
<path fill="none" stroke="#191970" d="M2603.2109,-151.3228C2587.6293,-148.8375 2571.3394,-146.5604 2556.0147,-145 2446.9501,-133.895 1670.7718,-152.2022 1570.0147,-109 1545.4618,-98.4723 1551.4025,-77.9048 1527.0147,-67 1421.1954,-19.6838 1125.9429,-48.4075 993.6179,-30.7519"/>
<polygon fill="#191970" stroke="#191970" points="994.0178,-27.2731 983.6139,-29.2754 992.9957,-34.1981 994.0178,-27.2731"/>
</g>
<!-- Node52&#45;&gt;Node28 -->
<g id="edge85" class="edge">
<title>Node52&#45;&gt;Node28</title>
<path fill="none" stroke="#191970" d="M2707.1696,-150.9672C2725.3633,-140.1031 2749.8707,-124.643 2770.0147,-109 2791.6224,-92.2205 2789.9287,-77.9149 2815.0147,-67 2876.1435,-40.4029 3324.565,-23.0067 3489.9622,-17.4355"/>
<polygon fill="#191970" stroke="#191970" points="3490.5626,-20.9175 3500.4402,-17.0857 3490.329,-13.9214 3490.5626,-20.9175"/>
</g>
<!-- Node52&#45;&gt;Node33 -->
<g id="edge86" class="edge">
<title>Node52&#45;&gt;Node33</title>
<path fill="none" stroke="#191970" d="M2693.1342,-150.751C2710.627,-129.5712 2744.8436,-91.1373 2781.0147,-67 2801.1439,-53.5676 2825.3423,-42.5182 2846.9307,-34.1453"/>
<polygon fill="#191970" stroke="#191970" points="2848.1991,-37.4077 2856.3216,-30.605 2845.7298,-30.8577 2848.1991,-37.4077"/>
</g>
<!-- Node52&#45;&gt;Node34 -->
<g id="edge89" class="edge">
<title>Node52&#45;&gt;Node34</title>
<path fill="none" stroke="#191970" d="M2684.8675,-150.741C2691.4111,-124.8251 2704.7565,-71.9701 2712.6874,-40.5596"/>
<polygon fill="#191970" stroke="#191970" points="2716.0971,-41.3519 2715.1518,-30.7994 2709.3101,-39.6382 2716.0971,-41.3519"/>
</g>
<!-- Node52&#45;&gt;Node36 -->
<g id="edge81" class="edge">
<title>Node52&#45;&gt;Node36</title>
<path fill="none" stroke="#191970" d="M2603.3673,-152.7377C2587.6989,-150.1228 2571.3362,-147.4359 2556.0147,-145 2449.4926,-128.0643 2422.2788,-127.4856 2316.0147,-109 2303.837,-106.8816 2290.9062,-104.4626 2278.4167,-102.038"/>
<polygon fill="#191970" stroke="#191970" points="2279.0043,-98.5866 2268.5178,-100.098 2277.658,-105.456 2279.0043,-98.5866"/>
</g>
<!-- Node52&#45;&gt;Node39 -->
<g id="edge87" class="edge">
<title>Node52&#45;&gt;Node39</title>
<path fill="none" stroke="#191970" d="M2603.4746,-151.9885C2587.7975,-149.4335 2571.4043,-146.9603 2556.0147,-145 2373.24,-121.7184 2324.0452,-143.3019 2143.0147,-109 2138.0123,-108.0521 2132.8581,-106.8948 2127.7189,-105.6156"/>
<polygon fill="#191970" stroke="#191970" points="2128.46,-102.1915 2117.8983,-103.0284 2126.6766,-108.9605 2128.46,-102.1915"/>
</g>
<!-- Node52&#45;&gt;Node42 -->
<g id="edge88" class="edge">
<title>Node52&#45;&gt;Node42</title>
<path fill="none" stroke="#191970" d="M2619.046,-150.9097C2573.9819,-139.771 2511.5701,-124.0033 2457.0147,-109 2453.3933,-108.0041 2449.6737,-106.9619 2445.9254,-105.8971"/>
<polygon fill="#191970" stroke="#191970" points="2446.562,-102.4385 2435.9843,-103.0415 2444.6293,-109.1664 2446.562,-102.4385"/>
</g>
<!-- Node52&#45;&gt;Node51 -->
<g id="edge80" class="edge">
<title>Node52&#45;&gt;Node51</title>
<path fill="none" stroke="#191970" d="M2750.2335,-150.9608C2812.6068,-137.409 2903.9857,-117.5551 2967.3882,-103.7796"/>
<polygon fill="#191970" stroke="#191970" points="2968.2861,-107.1662 2977.3149,-101.6228 2966.7998,-100.3258 2968.2861,-107.1662"/>
</g>
<!-- Node52&#45;&gt;Node53 -->
<g id="edge84" class="edge">
<title>Node52&#45;&gt;Node53</title>
<path fill="none" stroke="#191970" d="M2758.8913,-155.8178C2845.2224,-144.5029 2988.5917,-125.6315 3112.0147,-109 3142.4244,-104.9022 3176.2226,-100.2713 3204.302,-96.4029"/>
<polygon fill="#191970" stroke="#191970" points="3204.9432,-99.8477 3214.3715,-95.0146 3203.9871,-92.9133 3204.9432,-99.8477"/>
</g>
</g>
</svg>
        <g id="navigator" transform="translate(0 0)" fill="#404254">
                <rect fill="#f2f5e9" fill-opacity="0.5" stroke="#606060" stroke-width=".5" x="0" y="0" width="60" height="60"/>
                <use id="zoomplus" xlink:href="#zoomPlus" x="17" y="9" onmousedown="handleZoom(evt,'in')"/>
                <use id="zoomminus" xlink:href="#zoomMin" x="42" y="9" onmousedown="handleZoom(evt,'out')"/>
                <use id="reset" xlink:href="#resetDef" x="30" y="36" onmousedown="handleReset()"/>
                <g id="arrowUp" xlink:href="#dirArrow" transform="translate(30 24)" onmousedown="handlePan(0,-1)">
                  <use xlink:href="#rim" fill="#404040">
                        <set attributeName="fill" to="#808080" begin="arrowUp.mouseover" end="arrowUp.mouseout"/>
                  </use>
                  <path fill="none" stroke="white" stroke-width="1.5" d="M0,-3.0v7 M-2.5,-0.5L0,-3.0L2.5,-0.5"/>
                </g>
                <g id="arrowRight" xlink:href="#dirArrow" transform="rotate(90) translate(36 -43)" onmousedown="handlePan(1,0)">
                  <use xlink:href="#rim" fill="#404040">
                        <set attributeName="fill" to="#808080" begin="arrowRight.mouseover" end="arrowRight.mouseout"/>
                  </use>
                  <path fill="none" stroke="white" stroke-width="1.5" d="M0,-3.0v7 M-2.5,-0.5L0,-3.0L2.5,-0.5"/>
                </g>
                <g id="arrowDown" xlink:href="#dirArrow" transform="rotate(180) translate(-30 -48)" onmousedown="handlePan(0,1)">
                  <use xlink:href="#rim" fill="#404040">
                        <set attributeName="fill" to="#808080" begin="arrowDown.mouseover" end="arrowDown.mouseout"/>
                  </use>
                  <path fill="none" stroke="white" stroke-width="1.5" d="M0,-3.0v7 M-2.5,-0.5L0,-3.0L2.5,-0.5"/>
                </g>
                <g id="arrowLeft" xlink:href="#dirArrow" transform="rotate(270) translate(-36 17)" onmousedown="handlePan(-1,0)">
                  <use xlink:href="#rim" fill="#404040">
                        <set attributeName="fill" to="#808080" begin="arrowLeft.mouseover" end="arrowLeft.mouseout"/>
                  </use>
                  <path fill="none" stroke="white" stroke-width="1.5" d="M0,-3.0v7 M-2.5,-0.5L0,-3.0L2.5,-0.5"/>
                </g>
        </g>
        <svg viewBox="0 0 15 15" width="100%" height="30px" preserveAspectRatio="xMaxYMin meet">
         <g id="arrow_out" transform="scale(0.3 0.3)">
          <a xlink:href="compile__only__service_8h__incl_org.svg" target="_base">
           <rect id="button" ry="5" rx="5" y="6" x="6" height="38" width="38"
                fill="#f2f5e9" fill-opacity="0.5" stroke="#606060" stroke-width="1.0"/>
           <path id="arrow"
             d="M 11.500037,31.436501 C 11.940474,20.09759 22.043105,11.32322 32.158766,21.979434 L 37.068811,17.246167 C 37.068811,17.246167 37.088388,32 37.088388,32 L 22.160133,31.978069 C 22.160133,31.978069 26.997745,27.140456 26.997745,27.140456 C 18.528582,18.264221 13.291696,25.230495 11.500037,31.436501 z"
             style="fill:#404040;"/>
          </a>
         </g>
        </svg>
</svg>
