<?xml version="1.0" encoding="UTF-8" standalone="no"?>
<!DOCTYPE svg PUBLIC "-//W3C//DTD SVG 1.1//EN"
 "http://www.w3.org/Graphics/SVG/1.1/DTD/svg11.dtd">
<!-- Generated by graphviz version 2.38.0 (20140413.2041)
 -->
<!-- Title: tensorflow/tensorflow/core/graph/graph_constructor.h Pages: 1 -->
<svg width="510pt" height="106pt"
 viewBox="0.00 0.00 510.00 106.00" xmlns="http://www.w3.org/2000/svg" xmlns:xlink="http://www.w3.org/1999/xlink">
<g id="graph0" class="graph" transform="scale(1 1) rotate(0) translate(4 102)">
<title>tensorflow/tensorflow/core/graph/graph_constructor.h</title>
<polygon fill="white" stroke="none" points="-4,4 -4,-102 506,-102 506,4 -4,4"/>
<!-- Node1 -->
<g id="node1" class="node"><title>Node1</title>
<polygon fill="#bfbfbf" stroke="black" points="191.5,-67.5 191.5,-97.5 346.5,-97.5 346.5,-67.5 191.5,-67.5"/>
<text text-anchor="start" x="199.5" y="-85.5" font-family="Helvetica,sans-Serif" font-size="10.00">tensorflow/tensorflow</text>
<text text-anchor="middle" x="269" y="-74.5" font-family="Helvetica,sans-Serif" font-size="10.00">/core/graph/graph_constructor.h</text>
</g>
<!-- Node2 -->
<g id="node2" class="node"><title>Node2</title>
<polygon fill="white" stroke="#bfbfbf" points="0,-0.5 0,-30.5 132,-30.5 132,-0.5 0,-0.5"/>
<text text-anchor="start" x="8" y="-18.5" font-family="Helvetica,sans-Serif" font-size="10.00">tensorflow/core/framework</text>
<text text-anchor="middle" x="66" y="-7.5" font-family="Helvetica,sans-Serif" font-size="10.00">/graph.pb.h</text>
</g>
<!-- Node1&#45;&gt;Node2 -->
<g id="edge1" class="edge"><title>Node1&#45;&gt;Node2</title>
<path fill="none" stroke="midnightblue" d="M224.952,-67.396C194.094,-57.5154 152.673,-44.2525 119.851,-33.7429"/>
<polygon fill="midnightblue" stroke="midnightblue" points="120.553,-30.2927 109.962,-30.5765 118.418,-36.9593 120.553,-30.2927"/>
</g>
<!-- Node3 -->
<g id="node3" class="node"><title>Node3</title>
<polygon fill="white" stroke="#bfbfbf" points="150,-0.5 150,-30.5 260,-30.5 260,-0.5 150,-0.5"/>
<text text-anchor="start" x="158" y="-18.5" font-family="Helvetica,sans-Serif" font-size="10.00">tensorflow/core/graph</text>
<text text-anchor="middle" x="205" y="-7.5" font-family="Helvetica,sans-Serif" font-size="10.00">/graph.h</text>
</g>
<!-- Node1&#45;&gt;Node3 -->
<g id="edge2" class="edge"><title>Node1&#45;&gt;Node3</title>
<path fill="none" stroke="midnightblue" d="M255.113,-67.396C246.642,-58.7931 235.647,-47.626 226.115,-37.9448"/>
<polygon fill="midnightblue" stroke="midnightblue" points="228.37,-35.2466 218.86,-30.5765 223.382,-40.1578 228.37,-35.2466"/>
</g>
<!-- Node4 -->
<g id="node4" class="node"><title>Node4</title>
<polygon fill="white" stroke="#bfbfbf" points="278,-0.5 278,-30.5 388,-30.5 388,-0.5 278,-0.5"/>
<text text-anchor="start" x="286" y="-18.5" font-family="Helvetica,sans-Serif" font-size="10.00">tensorflow/core/graph</text>
<text text-anchor="middle" x="333" y="-7.5" font-family="Helvetica,sans-Serif" font-size="10.00">/tensor_id.h</text>
</g>
<!-- Node1&#45;&gt;Node4 -->
<g id="edge3" class="edge"><title>Node1&#45;&gt;Node4</title>
<path fill="none" stroke="midnightblue" d="M282.887,-67.396C291.358,-58.7931 302.353,-47.626 311.885,-37.9448"/>
<polygon fill="midnightblue" stroke="midnightblue" points="314.618,-40.1578 319.14,-30.5765 309.63,-35.2466 314.618,-40.1578"/>
</g>
<!-- Node5 -->
<g id="node5" class="node"><title>Node5</title>
<polygon fill="white" stroke="#bfbfbf" points="406,-0.5 406,-30.5 502,-30.5 502,-0.5 406,-0.5"/>
<text text-anchor="start" x="414" y="-18.5" font-family="Helvetica,sans-Serif" font-size="10.00">tensorflow/core/lib</text>
<text text-anchor="middle" x="454" y="-7.5" font-family="Helvetica,sans-Serif" font-size="10.00">/core/status.h</text>
</g>
<!-- Node1&#45;&gt;Node5 -->
<g id="edge4" class="edge"><title>Node1&#45;&gt;Node5</title>
<path fill="none" stroke="midnightblue" d="M309.142,-67.396C337.021,-57.6006 374.362,-44.4809 404.149,-34.0153"/>
<polygon fill="midnightblue" stroke="midnightblue" points="405.662,-37.1935 413.936,-30.5765 403.341,-30.5893 405.662,-37.1935"/>
</g>
</g>
</svg>
