<?xml version="1.0" encoding="UTF-8" standalone="no"?>
<!DOCTYPE svg PUBLIC "-//W3C//DTD SVG 1.1//EN"
 "http://www.w3.org/Graphics/SVG/1.1/DTD/svg11.dtd">
<!-- Generated by graphviz version 2.40.1 (20161225.0304)
 -->
<!-- Title: tensorflow/tensorflow/compiler/xla/client/computation_builder.h Pages: 1 -->
<svg width="282pt" height="206pt"
 viewBox="0.00 0.00 281.50 206.00" xmlns="http://www.w3.org/2000/svg" xmlns:xlink="http://www.w3.org/1999/xlink">
<g id="graph0" class="graph" transform="scale(1 1) rotate(0) translate(4 202)">
<title>tensorflow/tensorflow/compiler/xla/client/computation_builder.h</title>
<polygon fill="#ffffff" stroke="transparent" points="-4,4 -4,-202 277.5,-202 277.5,4 -4,4"/>
<!-- Node24 -->
<g id="node1" class="node">
<title>Node24</title>
<polygon fill="#bfbfbf" stroke="#000000" points="70,-156.5 70,-197.5 198,-197.5 198,-156.5 70,-156.5"/>
<text text-anchor="start" x="78" y="-185.5" font-family="Helvetica,sans-Serif" font-size="10.00" fill="#000000">tensorflow/tensorflow</text>
<text text-anchor="start" x="78" y="-174.5" font-family="Helvetica,sans-Serif" font-size="10.00" fill="#000000">/compiler/xla/client</text>
<text text-anchor="middle" x="134" y="-163.5" font-family="Helvetica,sans-Serif" font-size="10.00" fill="#000000">/computation_builder.h</text>
</g>
<!-- Node25 -->
<g id="node2" class="node">
<title>Node25</title>
<g id="a_node2"><a xlink:href="../../db/d38/xla__resource_8h.html" target="_top" xlink:title="tensorflow/tensorflow\l/compiler/tf2xla/xla\l_resource.h">
<polygon fill="#ffffff" stroke="#000000" points="0,-78.5 0,-119.5 122,-119.5 122,-78.5 0,-78.5"/>
<text text-anchor="start" x="8" y="-107.5" font-family="Helvetica,sans-Serif" font-size="10.00" fill="#000000">tensorflow/tensorflow</text>
<text text-anchor="start" x="8" y="-96.5" font-family="Helvetica,sans-Serif" font-size="10.00" fill="#000000">/compiler/tf2xla/xla</text>
<text text-anchor="middle" x="61" y="-85.5" font-family="Helvetica,sans-Serif" font-size="10.00" fill="#000000">_resource.h</text>
</a>
</g>
</g>
<!-- Node24&#45;&gt;Node25 -->
<g id="edge1" class="edge">
<title>Node24&#45;&gt;Node25</title>
<path fill="none" stroke="#191970" d="M107.4775,-148.6609C98.5092,-139.0783 88.6704,-128.5657 80.3635,-119.6898"/>
<polygon fill="#191970" stroke="#191970" points="105.0487,-151.1878 114.4373,-156.0974 110.1596,-146.4046 105.0487,-151.1878"/>
</g>
<!-- Node27 -->
<g id="node4" class="node">
<title>Node27</title>
<g id="a_node4"><a xlink:href="../../da/d4d/computation__builder_8cc.html" target="_top" xlink:title="tensorflow/tensorflow\l/compiler/xla/client\l/computation_builder.cc">
<polygon fill="#ffffff" stroke="#000000" points="140.5,-78.5 140.5,-119.5 273.5,-119.5 273.5,-78.5 140.5,-78.5"/>
<text text-anchor="start" x="148.5" y="-107.5" font-family="Helvetica,sans-Serif" font-size="10.00" fill="#000000">tensorflow/tensorflow</text>
<text text-anchor="start" x="148.5" y="-96.5" font-family="Helvetica,sans-Serif" font-size="10.00" fill="#000000">/compiler/xla/client</text>
<text text-anchor="middle" x="207" y="-85.5" font-family="Helvetica,sans-Serif" font-size="10.00" fill="#000000">/computation_builder.cc</text>
</a>
</g>
</g>
<!-- Node24&#45;&gt;Node27 -->
<g id="edge3" class="edge">
<title>Node24&#45;&gt;Node27</title>
<path fill="none" stroke="#191970" d="M160.5225,-148.6609C169.4908,-139.0783 179.3296,-128.5657 187.6365,-119.6898"/>
<polygon fill="#191970" stroke="#191970" points="157.8404,-146.4046 153.5627,-156.0974 162.9513,-151.1878 157.8404,-146.4046"/>
</g>
<!-- Node26 -->
<g id="node3" class="node">
<title>Node26</title>
<g id="a_node3"><a xlink:href="../../dd/d22/xla__resource_8cc.html" target="_top" xlink:title="tensorflow/tensorflow\l/compiler/tf2xla/xla\l_resource.cc">
<polygon fill="#ffffff" stroke="#000000" points="0,-.5 0,-41.5 122,-41.5 122,-.5 0,-.5"/>
<text text-anchor="start" x="8" y="-29.5" font-family="Helvetica,sans-Serif" font-size="10.00" fill="#000000">tensorflow/tensorflow</text>
<text text-anchor="start" x="8" y="-18.5" font-family="Helvetica,sans-Serif" font-size="10.00" fill="#000000">/compiler/tf2xla/xla</text>
<text text-anchor="middle" x="61" y="-7.5" font-family="Helvetica,sans-Serif" font-size="10.00" fill="#000000">_resource.cc</text>
</a>
</g>
</g>
<!-- Node25&#45;&gt;Node26 -->
<g id="edge2" class="edge">
<title>Node25&#45;&gt;Node26</title>
<path fill="none" stroke="#191970" d="M61,-68.0789C61,-59.2178 61,-49.7747 61,-41.6898"/>
<polygon fill="#191970" stroke="#191970" points="57.5001,-68.0974 61,-78.0974 64.5001,-68.0975 57.5001,-68.0974"/>
</g>
</g>
</svg>
