<?xml version="1.0" encoding="UTF-8" standalone="no"?>
<!DOCTYPE svg PUBLIC "-//W3C//DTD SVG 1.1//EN"
 "http://www.w3.org/Graphics/SVG/1.1/DTD/svg11.dtd">
<!-- Generated by graphviz version 2.40.1 (20161225.0304)
 -->
<!-- Title: xla::Service::GetExecutors Pages: 1 -->
<svg width="438pt" height="78pt"
 viewBox="0.00 0.00 438.00 77.50" xmlns="http://www.w3.org/2000/svg" xmlns:xlink="http://www.w3.org/1999/xlink">
<g id="graph0" class="graph" transform="scale(1 1) rotate(0) translate(4 73.5)">
<title>xla::Service::GetExecutors</title>
<polygon fill="#ffffff" stroke="transparent" points="-4,4 -4,-73.5 434,-73.5 434,4 -4,4"/>
<!-- Node386 -->
<g id="node1" class="node">
<title>Node386</title>
<polygon fill="#bfbfbf" stroke="#000000" points="0,-22.5 0,-41.5 134,-41.5 134,-22.5 0,-22.5"/>
<text text-anchor="middle" x="67" y="-29.5" font-family="Helvetica,sans-Serif" font-size="10.00" fill="#000000">xla::Service::GetExecutors</text>
</g>
<!-- Node387 -->
<g id="node2" class="node">
<title>Node387</title>
<g id="a_node2"><a xlink:href="../../d1/d10/classxla_1_1Service.html#a1c62dd29d5ef6643da20d7f1f53c93ee" target="_top" xlink:title="xla::Service::Replicas">
<polygon fill="#ffffff" stroke="#000000" points="170,-22.5 170,-41.5 283,-41.5 283,-22.5 170,-22.5"/>
<text text-anchor="middle" x="226.5" y="-29.5" font-family="Helvetica,sans-Serif" font-size="10.00" fill="#000000">xla::Service::Replicas</text>
</a>
</g>
</g>
<!-- Node386&#45;&gt;Node387 -->
<g id="edge1" class="edge">
<title>Node386&#45;&gt;Node387</title>
<path fill="none" stroke="#191970" d="M134.1801,-32C142.6539,-32 151.3219,-32 159.7884,-32"/>
<polygon fill="#191970" stroke="#191970" points="159.9892,-35.5001 169.9892,-32 159.9891,-28.5001 159.9892,-35.5001"/>
</g>
<!-- Node388 -->
<g id="node3" class="node">
<title>Node388</title>
<g id="a_node3"><a xlink:href="../../d5/d7a/classxla_1_1ServiceOptions.html#a16503bc7e5b638f42419425b48d648d7" target="_top" xlink:title="xla::ServiceOptions\l::number_of_replicas">
<polygon fill="#ffffff" stroke="#000000" points="321,-39 321,-69 428,-69 428,-39 321,-39"/>
<text text-anchor="start" x="329" y="-57" font-family="Helvetica,sans-Serif" font-size="10.00" fill="#000000">xla::ServiceOptions</text>
<text text-anchor="middle" x="374.5" y="-46" font-family="Helvetica,sans-Serif" font-size="10.00" fill="#000000">::number_of_replicas</text>
</a>
</g>
</g>
<!-- Node387&#45;&gt;Node388 -->
<g id="edge2" class="edge">
<title>Node387&#45;&gt;Node388</title>
<path fill="none" stroke="#191970" d="M283.2974,-40.4429C292.1815,-41.7635 301.4158,-43.1361 310.4487,-44.4789"/>
<polygon fill="#191970" stroke="#191970" points="310.1261,-47.9693 320.5321,-45.9777 311.1554,-41.0454 310.1261,-47.9693"/>
</g>
<!-- Node389 -->
<g id="node4" class="node">
<title>Node389</title>
<g id="a_node4"><a xlink:href="../../d1/d10/classxla_1_1Service.html#aa23389c9947ef664bcaad4f253962b65" target="_top" xlink:title="xla::Service::backend">
<polygon fill="#ffffff" stroke="#000000" points="319,-.5 319,-19.5 430,-19.5 430,-.5 319,-.5"/>
<text text-anchor="middle" x="374.5" y="-7.5" font-family="Helvetica,sans-Serif" font-size="10.00" fill="#000000">xla::Service::backend</text>
</a>
</g>
</g>
<!-- Node387&#45;&gt;Node389 -->
<g id="edge3" class="edge">
<title>Node387&#45;&gt;Node389</title>
<path fill="none" stroke="#191970" d="M283.2974,-23.5571C291.5268,-22.3339 300.0567,-21.0659 308.4487,-19.8184"/>
<polygon fill="#191970" stroke="#191970" points="309.2104,-23.2438 318.5871,-18.3114 308.1811,-16.3198 309.2104,-23.2438"/>
</g>
</g>
</svg>
