<?xml version="1.0" encoding="UTF-8" standalone="no"?>
<!DOCTYPE svg PUBLIC "-//W3C//DTD SVG 1.1//EN"
 "http://www.w3.org/Graphics/SVG/1.1/DTD/svg11.dtd">
<!-- Generated by graphviz version 2.40.1 (20161225.0304)
 -->
<!-- Title: xla::Service::ExecuteAndRegisterResult Pages: 1 -->
<svg width="476pt" height="151pt"
 viewBox="0.00 0.00 476.00 151.00" xmlns="http://www.w3.org/2000/svg" xmlns:xlink="http://www.w3.org/1999/xlink">
<g id="graph0" class="graph" transform="scale(1 1) rotate(0) translate(4 147)">
<title>xla::Service::ExecuteAndRegisterResult</title>
<polygon fill="#ffffff" stroke="transparent" points="-4,4 -4,-147 472,-147 472,4 -4,4"/>
<!-- Node154 -->
<g id="node1" class="node">
<title>Node154</title>
<polygon fill="#bfbfbf" stroke="#000000" points="0,-63.5 0,-93.5 128,-93.5 128,-63.5 0,-63.5"/>
<text text-anchor="start" x="8" y="-81.5" font-family="Helvetica,sans-Serif" font-size="10.00" fill="#000000">xla::Service::ExecuteAnd</text>
<text text-anchor="middle" x="64" y="-70.5" font-family="Helvetica,sans-Serif" font-size="10.00" fill="#000000">RegisterResult</text>
</g>
<!-- Node155 -->
<g id="node2" class="node">
<title>Node155</title>
<g id="a_node2"><a xlink:href="../../d1/d10/classxla_1_1Service.html#a1c62dd29d5ef6643da20d7f1f53c93ee" target="_top" xlink:title="xla::Service::Replicas">
<polygon fill="#ffffff" stroke="#000000" points="186,-88 186,-107 299,-107 299,-88 186,-88"/>
<text text-anchor="middle" x="242.5" y="-95" font-family="Helvetica,sans-Serif" font-size="10.00" fill="#000000">xla::Service::Replicas</text>
</a>
</g>
</g>
<!-- Node154&#45;&gt;Node155 -->
<g id="edge1" class="edge">
<title>Node154&#45;&gt;Node155</title>
<path fill="none" stroke="#191970" d="M128.1904,-85.3326C143.6865,-86.982 160.2794,-88.7482 175.8839,-90.4092"/>
<polygon fill="#191970" stroke="#191970" points="175.6598,-93.905 185.9741,-91.4832 176.4007,-86.9444 175.6598,-93.905"/>
</g>
<!-- Node156 -->
<g id="node3" class="node">
<title>Node156</title>
<g id="a_node3"><a xlink:href="../../d5/d7a/classxla_1_1ServiceOptions.html#a16503bc7e5b638f42419425b48d648d7" target="_top" xlink:title="xla::ServiceOptions\l::number_of_replicas">
<polygon fill="#ffffff" stroke="#000000" points="359,-112.5 359,-142.5 466,-142.5 466,-112.5 359,-112.5"/>
<text text-anchor="start" x="367" y="-130.5" font-family="Helvetica,sans-Serif" font-size="10.00" fill="#000000">xla::ServiceOptions</text>
<text text-anchor="middle" x="412.5" y="-119.5" font-family="Helvetica,sans-Serif" font-size="10.00" fill="#000000">::number_of_replicas</text>
</a>
</g>
</g>
<!-- Node154&#45;&gt;Node156 -->
<g id="edge6" class="edge">
<title>Node154&#45;&gt;Node156</title>
<path fill="none" stroke="#191970" d="M95.6444,-93.5053C114.9372,-101.8931 140.3551,-111.616 164,-116.5 225.7229,-129.2493 297.8352,-131.037 348.4301,-130.2178"/>
<polygon fill="#191970" stroke="#191970" points="348.6427,-133.7144 358.5703,-130.0141 348.502,-126.7158 348.6427,-133.7144"/>
</g>
<!-- Node157 -->
<g id="node4" class="node">
<title>Node157</title>
<g id="a_node4"><a xlink:href="../../d1/d10/classxla_1_1Service.html#aa23389c9947ef664bcaad4f253962b65" target="_top" xlink:title="xla::Service::backend">
<polygon fill="#ffffff" stroke="#000000" points="357,-66 357,-85 468,-85 468,-66 357,-66"/>
<text text-anchor="middle" x="412.5" y="-73" font-family="Helvetica,sans-Serif" font-size="10.00" fill="#000000">xla::Service::backend</text>
</a>
</g>
</g>
<!-- Node154&#45;&gt;Node157 -->
<g id="edge4" class="edge">
<title>Node154&#45;&gt;Node157</title>
<path fill="none" stroke="#191970" d="M128.3264,-77.9463C190.4583,-77.4114 284.1052,-76.6053 346.7222,-76.0662"/>
<polygon fill="#191970" stroke="#191970" points="346.9111,-79.5648 356.8806,-75.9788 346.8508,-72.5651 346.9111,-79.5648"/>
</g>
<!-- Node158 -->
<g id="node5" class="node">
<title>Node158</title>
<g id="a_node5"><a xlink:href="../../d1/d10/classxla_1_1Service.html#ab2f61cf74addf4119fb04da6bfe85d61" target="_top" xlink:title="xla::Service::SingleComputation\lDeviceHandle">
<polygon fill="#ffffff" stroke="#000000" points="164,-.5 164,-30.5 321,-30.5 321,-.5 164,-.5"/>
<text text-anchor="start" x="172" y="-18.5" font-family="Helvetica,sans-Serif" font-size="10.00" fill="#000000">xla::Service::SingleComputation</text>
<text text-anchor="middle" x="242.5" y="-7.5" font-family="Helvetica,sans-Serif" font-size="10.00" fill="#000000">DeviceHandle</text>
</a>
</g>
</g>
<!-- Node154&#45;&gt;Node158 -->
<g id="edge5" class="edge">
<title>Node154&#45;&gt;Node158</title>
<path fill="none" stroke="#191970" d="M106.7552,-63.4099C131.8327,-54.559 163.7049,-43.31 190.263,-33.9366"/>
<polygon fill="#191970" stroke="#191970" points="191.5197,-37.2047 199.7847,-30.576 189.1899,-30.6038 191.5197,-37.2047"/>
</g>
<!-- Node155&#45;&gt;Node156 -->
<g id="edge2" class="edge">
<title>Node155&#45;&gt;Node156</title>
<path fill="none" stroke="#191970" d="M296.7565,-107.0747C313.3272,-109.9989 331.6995,-113.2411 348.8351,-116.265"/>
<polygon fill="#191970" stroke="#191970" points="348.3022,-119.725 358.7584,-118.0162 349.5188,-112.8315 348.3022,-119.725"/>
</g>
<!-- Node155&#45;&gt;Node157 -->
<g id="edge3" class="edge">
<title>Node155&#45;&gt;Node157</title>
<path fill="none" stroke="#191970" d="M299.1075,-90.1743C314.3202,-88.2056 330.9036,-86.0595 346.5749,-84.0315"/>
<polygon fill="#191970" stroke="#191970" points="347.2499,-87.4734 356.7179,-82.7189 346.3514,-80.5313 347.2499,-87.4734"/>
</g>
</g>
</svg>
