<?xml version="1.0" encoding="UTF-8" standalone="no"?>
<!DOCTYPE svg PUBLIC "-//W3C//DTD SVG 1.1//EN"
 "http://www.w3.org/Graphics/SVG/1.1/DTD/svg11.dtd">
<!-- Generated by graphviz version 2.40.1 (20161225.0304)
 -->
<!-- Title: xla::Service::BuildExecutables Pages: 1 -->
<svg width="1172pt" height="287pt"
 viewBox="0.00 0.00 1172.00 287.44" xmlns="http://www.w3.org/2000/svg" xmlns:xlink="http://www.w3.org/1999/xlink">
<g id="graph0" class="graph" transform="scale(1 1) rotate(0) translate(4 283.4389)">
<title>xla::Service::BuildExecutables</title>
<polygon fill="#ffffff" stroke="transparent" points="-4,4 -4,-283.4389 1168,-283.4389 1168,4 -4,4"/>
<!-- Node41 -->
<g id="node1" class="node">
<title>Node41</title>
<polygon fill="#bfbfbf" stroke="#000000" points="0,-110.0768 0,-129.0768 150,-129.0768 150,-110.0768 0,-110.0768"/>
<text text-anchor="middle" x="75" y="-117.0768" font-family="Helvetica,sans-Serif" font-size="10.00" fill="#000000">xla::Service::BuildExecutables</text>
</g>
<!-- Node42 -->
<g id="node2" class="node">
<title>Node42</title>
<g id="a_node2"><a xlink:href="../../d8/d42/classxla_1_1ComputationTracker.html#a1acead58332b1b2c6beaeac5505b1b8a" target="_top" xlink:title="xla::ComputationTracker\l::SnapshotComputation">
<polygon fill="#ffffff" stroke="#000000" points="186,-191.5768 186,-221.5768 308,-221.5768 308,-191.5768 186,-191.5768"/>
<text text-anchor="start" x="194" y="-209.5768" font-family="Helvetica,sans-Serif" font-size="10.00" fill="#000000">xla::ComputationTracker</text>
<text text-anchor="middle" x="247" y="-198.5768" font-family="Helvetica,sans-Serif" font-size="10.00" fill="#000000">::SnapshotComputation</text>
</a>
</g>
</g>
<!-- Node41&#45;&gt;Node42 -->
<g id="edge1" class="edge">
<title>Node41&#45;&gt;Node42</title>
<path fill="none" stroke="#191970" d="M94.0642,-129.2197C121.4433,-143.0684 172.5097,-168.8985 208.0655,-186.8832"/>
<polygon fill="#191970" stroke="#191970" points="206.6947,-190.112 217.1979,-191.5025 209.8543,-183.8656 206.6947,-190.112"/>
</g>
<!-- Node51 -->
<g id="node11" class="node">
<title>Node51</title>
<g id="a_node11"><a xlink:href="../../d8/d42/classxla_1_1ComputationTracker.html#abaeb463c7038bcc61515a19e18fe0714" target="_top" xlink:title="xla::ComputationTracker\l::BuildHloModule">
<polygon fill="#ffffff" stroke="#000000" points="186,-104.5768 186,-134.5768 308,-134.5768 308,-104.5768 186,-104.5768"/>
<text text-anchor="start" x="194" y="-122.5768" font-family="Helvetica,sans-Serif" font-size="10.00" fill="#000000">xla::ComputationTracker</text>
<text text-anchor="middle" x="247" y="-111.5768" font-family="Helvetica,sans-Serif" font-size="10.00" fill="#000000">::BuildHloModule</text>
</a>
</g>
</g>
<!-- Node41&#45;&gt;Node51 -->
<g id="edge12" class="edge">
<title>Node41&#45;&gt;Node51</title>
<path fill="none" stroke="#191970" d="M150.1915,-119.5768C158.6746,-119.5768 167.3002,-119.5768 175.7311,-119.5768"/>
<polygon fill="#191970" stroke="#191970" points="175.8958,-123.0769 185.8958,-119.5768 175.8957,-116.0769 175.8958,-123.0769"/>
</g>
<!-- Node54 -->
<g id="node14" class="node">
<title>Node54</title>
<g id="a_node14"><a xlink:href="../../d1/d10/classxla_1_1Service.html#aa23389c9947ef664bcaad4f253962b65" target="_top" xlink:title="xla::Service::backend">
<polygon fill="#ffffff" stroke="#000000" points="191.5,-66.0768 191.5,-85.0768 302.5,-85.0768 302.5,-66.0768 191.5,-66.0768"/>
<text text-anchor="middle" x="247" y="-73.0768" font-family="Helvetica,sans-Serif" font-size="10.00" fill="#000000">xla::Service::backend</text>
</a>
</g>
</g>
<!-- Node41&#45;&gt;Node54 -->
<g id="edge20" class="edge">
<title>Node41&#45;&gt;Node54</title>
<path fill="none" stroke="#191970" d="M112.3214,-110.0294C138.0161,-103.4564 172.3551,-94.672 199.9277,-87.6185"/>
<polygon fill="#191970" stroke="#191970" points="200.9308,-90.9747 209.7514,-85.1055 199.1959,-84.1931 200.9308,-90.9747"/>
</g>
<!-- Node43 -->
<g id="node3" class="node">
<title>Node43</title>
<g id="a_node3"><a xlink:href="../../d8/d42/classxla_1_1ComputationTracker.html#add84b3f565b288fdcfdfad55bab8f3ee" target="_top" xlink:title="xla::ComputationTracker\l::Resolve">
<polygon fill="#ffffff" stroke="#000000" points="364,-216.5768 364,-246.5768 486,-246.5768 486,-216.5768 364,-216.5768"/>
<text text-anchor="start" x="372" y="-234.5768" font-family="Helvetica,sans-Serif" font-size="10.00" fill="#000000">xla::ComputationTracker</text>
<text text-anchor="middle" x="425" y="-223.5768" font-family="Helvetica,sans-Serif" font-size="10.00" fill="#000000">::Resolve</text>
</a>
</g>
</g>
<!-- Node42&#45;&gt;Node43 -->
<g id="edge2" class="edge">
<title>Node42&#45;&gt;Node43</title>
<path fill="none" stroke="#191970" d="M308.2575,-215.1804C322.8834,-217.2346 338.6198,-219.4447 353.6559,-221.5565"/>
<polygon fill="#191970" stroke="#191970" points="353.5416,-225.0748 363.9312,-222.9997 354.5153,-218.1428 353.5416,-225.0748"/>
</g>
<!-- Node45 -->
<g id="node5" class="node">
<title>Node45</title>
<g id="a_node5"><a xlink:href="../../db/dbb/classxla_1_1UserComputation.html#a4fef8fc438e3b3b2c396de862820af3e" target="_top" xlink:title="xla::UserComputation\l::GetVersionedHandle">
<polygon fill="#ffffff" stroke="#000000" points="872,-221.5768 872,-251.5768 984,-251.5768 984,-221.5768 872,-221.5768"/>
<text text-anchor="start" x="880" y="-239.5768" font-family="Helvetica,sans-Serif" font-size="10.00" fill="#000000">xla::UserComputation</text>
<text text-anchor="middle" x="928" y="-228.5768" font-family="Helvetica,sans-Serif" font-size="10.00" fill="#000000">::GetVersionedHandle</text>
</a>
</g>
</g>
<!-- Node42&#45;&gt;Node45 -->
<g id="edge4" class="edge">
<title>Node42&#45;&gt;Node45</title>
<path fill="none" stroke="#191970" d="M268.9141,-221.7492C287.8266,-233.8629 316.382,-249.8776 344,-256.5768 527.322,-301.0447 752.4404,-270.3626 861.9204,-250.2402"/>
<polygon fill="#191970" stroke="#191970" points="862.6436,-253.6658 871.831,-248.3891 861.3583,-246.7848 862.6436,-253.6658"/>
</g>
<!-- Node47 -->
<g id="node7" class="node">
<title>Node47</title>
<g id="a_node7"><a xlink:href="../../d8/d42/classxla_1_1ComputationTracker.html#a8a16c1575ce6ceb15e15ba2a7d9b65fa" target="_top" xlink:title="xla::ComputationTracker\l::ComputeComputationPostOrder">
<polygon fill="#ffffff" stroke="#000000" points="344,-167.5768 344,-197.5768 506,-197.5768 506,-167.5768 344,-167.5768"/>
<text text-anchor="start" x="352" y="-185.5768" font-family="Helvetica,sans-Serif" font-size="10.00" fill="#000000">xla::ComputationTracker</text>
<text text-anchor="middle" x="425" y="-174.5768" font-family="Helvetica,sans-Serif" font-size="10.00" fill="#000000">::ComputeComputationPostOrder</text>
</a>
</g>
</g>
<!-- Node42&#45;&gt;Node47 -->
<g id="edge6" class="edge">
<title>Node42&#45;&gt;Node47</title>
<path fill="none" stroke="#191970" d="M308.2575,-198.3173C316.4975,-197.2063 325.09,-196.0478 333.7112,-194.8854"/>
<polygon fill="#191970" stroke="#191970" points="334.3829,-198.3266 343.8255,-193.5217 333.4475,-191.3894 334.3829,-198.3266"/>
</g>
<!-- Node44 -->
<g id="node4" class="node">
<title>Node44</title>
<g id="a_node4"><a xlink:href="../../d8/d42/classxla_1_1ComputationTracker.html#aa2f38317a41c1c64fba497780bc39169" target="_top" xlink:title="xla::ComputationTracker\l::ResolveInternal">
<polygon fill="#ffffff" stroke="#000000" points="554,-134.5768 554,-164.5768 676,-164.5768 676,-134.5768 554,-134.5768"/>
<text text-anchor="start" x="562" y="-152.5768" font-family="Helvetica,sans-Serif" font-size="10.00" fill="#000000">xla::ComputationTracker</text>
<text text-anchor="middle" x="615" y="-141.5768" font-family="Helvetica,sans-Serif" font-size="10.00" fill="#000000">::ResolveInternal</text>
</a>
</g>
</g>
<!-- Node43&#45;&gt;Node44 -->
<g id="edge3" class="edge">
<title>Node43&#45;&gt;Node44</title>
<path fill="none" stroke="#191970" d="M486.3907,-216.6589C493.1961,-214.0552 499.8731,-211.0443 506,-207.5768 524.8898,-196.8862 523.3383,-185.6606 542,-174.5768 545.5633,-172.4604 549.3316,-170.4904 553.2031,-168.6624"/>
<polygon fill="#191970" stroke="#191970" points="554.6155,-171.8648 562.3764,-164.6524 551.8117,-165.4509 554.6155,-171.8648"/>
</g>
<!-- Node46 -->
<g id="node6" class="node">
<title>Node46</title>
<g id="a_node6"><a xlink:href="../../db/dbb/classxla_1_1UserComputation.html#af44a77b35aaed6ff22d5fbb266dd824e" target="_top" xlink:title="xla::UserComputation\l::GetVersionedHandleInternal">
<polygon fill="#ffffff" stroke="#000000" points="1020,-221.5768 1020,-251.5768 1164,-251.5768 1164,-221.5768 1020,-221.5768"/>
<text text-anchor="start" x="1028" y="-239.5768" font-family="Helvetica,sans-Serif" font-size="10.00" fill="#000000">xla::UserComputation</text>
<text text-anchor="middle" x="1092" y="-228.5768" font-family="Helvetica,sans-Serif" font-size="10.00" fill="#000000">::GetVersionedHandleInternal</text>
</a>
</g>
</g>
<!-- Node45&#45;&gt;Node46 -->
<g id="edge5" class="edge">
<title>Node45&#45;&gt;Node46</title>
<path fill="none" stroke="#191970" d="M984.4395,-236.5768C992.6308,-236.5768 1001.2002,-236.5768 1009.7728,-236.5768"/>
<polygon fill="#191970" stroke="#191970" points="1009.8155,-240.0769 1019.8155,-236.5768 1009.8155,-233.0769 1009.8155,-240.0769"/>
</g>
<!-- Node47&#45;&gt;Node44 -->
<g id="edge7" class="edge">
<title>Node47&#45;&gt;Node44</title>
<path fill="none" stroke="#191970" d="M506.1282,-168.4861C518.6572,-166.31 531.5151,-164.0768 543.805,-161.9422"/>
<polygon fill="#191970" stroke="#191970" points="544.7215,-165.3355 553.9751,-160.1758 543.5236,-158.4388 544.7215,-165.3355"/>
</g>
<!-- Node48 -->
<g id="node8" class="node">
<title>Node48</title>
<g id="a_node8"><a xlink:href="../../db/dbb/classxla_1_1UserComputation.html#add02ff5e2d9daf549727b8a4ed96f116" target="_top" xlink:title="xla::UserComputation\l::GetEmbeddedComputations">
<polygon fill="#ffffff" stroke="#000000" points="542,-183.5768 542,-213.5768 688,-213.5768 688,-183.5768 542,-183.5768"/>
<text text-anchor="start" x="550" y="-201.5768" font-family="Helvetica,sans-Serif" font-size="10.00" fill="#000000">xla::UserComputation</text>
<text text-anchor="middle" x="615" y="-190.5768" font-family="Helvetica,sans-Serif" font-size="10.00" fill="#000000">::GetEmbeddedComputations</text>
</a>
</g>
</g>
<!-- Node47&#45;&gt;Node48 -->
<g id="edge8" class="edge">
<title>Node47&#45;&gt;Node48</title>
<path fill="none" stroke="#191970" d="M506.1282,-189.4086C514.6826,-190.129 523.3903,-190.8623 531.9659,-191.5844"/>
<polygon fill="#191970" stroke="#191970" points="531.6965,-195.0741 541.955,-192.4256 532.284,-188.0987 531.6965,-195.0741"/>
</g>
<!-- Node49 -->
<g id="node9" class="node">
<title>Node49</title>
<g id="a_node9"><a xlink:href="../../db/dbb/classxla_1_1UserComputation.html#af22e122e5671d4f05628c8aae80b8aee" target="_top" xlink:title="xla::UserComputation\l::name">
<polygon fill="#ffffff" stroke="#000000" points="724,-85.5768 724,-115.5768 836,-115.5768 836,-85.5768 724,-85.5768"/>
<text text-anchor="start" x="732" y="-103.5768" font-family="Helvetica,sans-Serif" font-size="10.00" fill="#000000">xla::UserComputation</text>
<text text-anchor="middle" x="780" y="-92.5768" font-family="Helvetica,sans-Serif" font-size="10.00" fill="#000000">::name</text>
</a>
</g>
</g>
<!-- Node48&#45;&gt;Node49 -->
<g id="edge9" class="edge">
<title>Node48&#45;&gt;Node49</title>
<path fill="none" stroke="#191970" d="M666.222,-183.5344C673.7073,-180.6259 681.1827,-177.3042 688,-173.5768 713.443,-159.6657 739.0104,-138.6812 756.7115,-122.7758"/>
<polygon fill="#191970" stroke="#191970" points="759.2459,-125.201 764.2623,-115.869 754.5212,-120.0359 759.2459,-125.201"/>
</g>
<!-- Node50 -->
<g id="node10" class="node">
<title>Node50</title>
<g id="a_node10"><a xlink:href="../../db/dbb/classxla_1_1UserComputation.html#aee9eeba8ef86ffdae79b8fe9d74cd99b" target="_top" xlink:title="xla::UserComputation\l::version">
<polygon fill="#ffffff" stroke="#000000" points="724,-183.5768 724,-213.5768 836,-213.5768 836,-183.5768 724,-183.5768"/>
<text text-anchor="start" x="732" y="-201.5768" font-family="Helvetica,sans-Serif" font-size="10.00" fill="#000000">xla::UserComputation</text>
<text text-anchor="middle" x="780" y="-190.5768" font-family="Helvetica,sans-Serif" font-size="10.00" fill="#000000">::version</text>
</a>
</g>
</g>
<!-- Node48&#45;&gt;Node50 -->
<g id="edge10" class="edge">
<title>Node48&#45;&gt;Node50</title>
<path fill="none" stroke="#191970" d="M688.3323,-198.5768C696.7765,-198.5768 705.3504,-198.5768 713.6943,-198.5768"/>
<polygon fill="#191970" stroke="#191970" points="713.7337,-202.0769 723.7337,-198.5768 713.7336,-195.0769 713.7337,-202.0769"/>
</g>
<!-- Node50&#45;&gt;Node45 -->
<g id="edge11" class="edge">
<title>Node50&#45;&gt;Node45</title>
<path fill="none" stroke="#191970" d="M836.3747,-213.0514C844.712,-215.192 853.3663,-217.4141 861.8799,-219.6"/>
<polygon fill="#191970" stroke="#191970" points="861.2258,-223.0455 871.7821,-222.1425 862.9667,-216.2654 861.2258,-223.0455"/>
</g>
<!-- Node51&#45;&gt;Node44 -->
<g id="edge14" class="edge">
<title>Node51&#45;&gt;Node44</title>
<path fill="none" stroke="#191970" d="M308.1808,-124.5644C373.0132,-129.8496 475.285,-138.187 543.7177,-143.7657"/>
<polygon fill="#191970" stroke="#191970" points="543.7281,-147.2781 553.9795,-144.6023 544.2969,-140.3012 543.7281,-147.2781"/>
</g>
<!-- Node51&#45;&gt;Node47 -->
<g id="edge15" class="edge">
<title>Node51&#45;&gt;Node47</title>
<path fill="none" stroke="#191970" d="M289.6354,-134.6669C314.6427,-143.5177 346.4256,-154.7667 372.9093,-164.1402"/>
<polygon fill="#191970" stroke="#191970" points="371.8096,-167.4637 382.4043,-167.5008 374.1452,-160.8648 371.8096,-167.4637"/>
</g>
<!-- Node51&#45;&gt;Node49 -->
<g id="edge16" class="edge">
<title>Node51&#45;&gt;Node49</title>
<path fill="none" stroke="#191970" d="M293.2619,-104.5649C298.5527,-101.7353 303.6128,-98.427 308,-94.5768 332.2386,-73.3049 316.1075,-47.7634 344,-31.5768 476.166,45.1221 666.9523,-39.5179 744.8619,-80.6982"/>
<polygon fill="#191970" stroke="#191970" points="743.3256,-83.8459 753.792,-85.491 746.636,-77.678 743.3256,-83.8459"/>
</g>
<!-- Node52 -->
<g id="node12" class="node">
<title>Node52</title>
<g id="a_node12"><a xlink:href="../../d8/d42/classxla_1_1ComputationTracker.html#ac2cb38ead1ce3ed118d38e5ab7f7c3f6" target="_top" xlink:title="xla::ComputationTracker\l::ToStringInternal">
<polygon fill="#ffffff" stroke="#000000" points="364,-41.5768 364,-71.5768 486,-71.5768 486,-41.5768 364,-41.5768"/>
<text text-anchor="start" x="372" y="-59.5768" font-family="Helvetica,sans-Serif" font-size="10.00" fill="#000000">xla::ComputationTracker</text>
<text text-anchor="middle" x="425" y="-48.5768" font-family="Helvetica,sans-Serif" font-size="10.00" fill="#000000">::ToStringInternal</text>
</a>
</g>
</g>
<!-- Node51&#45;&gt;Node52 -->
<g id="edge13" class="edge">
<title>Node51&#45;&gt;Node52</title>
<path fill="none" stroke="#191970" d="M289.6354,-104.4867C314.6427,-95.6358 346.4256,-84.3868 372.9093,-75.0134"/>
<polygon fill="#191970" stroke="#191970" points="374.1452,-78.2888 382.4043,-71.6528 371.8096,-71.6899 374.1452,-78.2888"/>
</g>
<!-- Node53 -->
<g id="node13" class="node">
<title>Node53</title>
<g id="a_node13"><a xlink:href="../../db/dbb/classxla_1_1UserComputation.html#a7ab95fda9f35270dfbf0868b96f636c6" target="_top" xlink:title="xla::UserComputation\l::BuildHloComputation">
<polygon fill="#ffffff" stroke="#000000" points="557.5,-85.5768 557.5,-115.5768 672.5,-115.5768 672.5,-85.5768 557.5,-85.5768"/>
<text text-anchor="start" x="565.5" y="-103.5768" font-family="Helvetica,sans-Serif" font-size="10.00" fill="#000000">xla::UserComputation</text>
<text text-anchor="middle" x="615" y="-92.5768" font-family="Helvetica,sans-Serif" font-size="10.00" fill="#000000">::BuildHloComputation</text>
</a>
</g>
</g>
<!-- Node51&#45;&gt;Node53 -->
<g id="edge17" class="edge">
<title>Node51&#45;&gt;Node53</title>
<path fill="none" stroke="#191970" d="M308.1808,-116.418C374.0824,-113.0155 478.6685,-107.6156 547.0755,-104.0838"/>
<polygon fill="#191970" stroke="#191970" points="547.5081,-107.5662 557.3143,-103.5551 547.1471,-100.5755 547.5081,-107.5662"/>
</g>
<!-- Node53&#45;&gt;Node49 -->
<g id="edge19" class="edge">
<title>Node53&#45;&gt;Node49</title>
<path fill="none" stroke="#191970" d="M672.709,-100.5768C685.9649,-100.5768 700.1621,-100.5768 713.7474,-100.5768"/>
<polygon fill="#191970" stroke="#191970" points="713.9911,-104.0769 723.9911,-100.5768 713.991,-97.0769 713.9911,-104.0769"/>
</g>
<!-- Node53&#45;&gt;Node50 -->
<g id="edge18" class="edge">
<title>Node53&#45;&gt;Node50</title>
<path fill="none" stroke="#191970" d="M668.5741,-115.7013C675.272,-118.31 681.9037,-121.266 688,-124.5768 713.774,-138.574 739.4773,-160.0421 757.1371,-176.2569"/>
<polygon fill="#191970" stroke="#191970" points="754.9628,-179.0156 764.6564,-183.2915 759.7451,-173.9038 754.9628,-179.0156"/>
</g>
</g>
</svg>
