<?xml version="1.0" encoding="UTF-8" standalone="no"?>
<!DOCTYPE svg PUBLIC "-//W3C//DTD SVG 1.1//EN"
 "http://www.w3.org/Graphics/SVG/1.1/DTD/svg11.dtd">
<!-- Generated by graphviz version 2.40.1 (20161225.0304)
 -->
<!-- Title: xla::Service::ExecuteAsync Pages: 1 -->
<!--zoomable 464 -->
<svg id="main" version="1.1" xmlns="http://www.w3.org/2000/svg" xmlns:xlink="http://www.w3.org/1999/xlink" xml:space="preserve" onload="init(evt)">
<style type="text/css"><![CDATA[
.edge:hover path { stroke: red; }
.edge:hover polygon { stroke: red; fill: red; }
]]></style>
<script type="text/javascript"><![CDATA[
var edges = document.getElementsByTagName('g');
if (edges && edges.length) {
  for (var i=0;i<edges.length;i++) {
    if (edges[i].id.substr(0,4)=='edge') {
      edges[i].setAttribute('class','edge');
    }
  }
}
]]></script>
        <defs>
                <circle id="rim" cx="0" cy="0" r="7"/>
                <circle id="rim2" cx="0" cy="0" r="3.5"/>
                <g id="zoomPlus">
                        <use xlink:href="#rim" fill="#404040">
                                <set attributeName="fill" to="#808080" begin="zoomplus.mouseover" end="zoomplus.mouseout"/>
                        </use>
                        <path d="M-4,0h8M0,-4v8" fill="none" stroke="white" stroke-width="1.5" pointer-events="none"/>
                </g>
                <g id="zoomMin">
                        <use xlink:href="#rim" fill="#404040">
                                <set attributeName="fill" to="#808080" begin="zoomminus.mouseover" end="zoomminus.mouseout"/>
                        </use>
                        <path d="M-4,0h8" fill="none" stroke="white" stroke-width="1.5" pointer-events="none"/>
                </g>
                <g id="dirArrow">
                        <path fill="none" stroke="white" stroke-width="1.5" d="M0,-3.0v7 M-2.5,-0.5L0,-3.0L2.5,-0.5"/>
                </g>
               <g id="resetDef">
                       <use xlink:href="#rim2" fill="#404040">
                               <set attributeName="fill" to="#808080" begin="reset.mouseover" end="reset.mouseout"/>
                       </use>
               </g>
        </defs>

<script type="text/javascript">
var viewWidth = 1046;
var viewHeight = 464;
var sectionId = 'dynsection-19';
</script>
<script xlink:href="../../svgpan.js"/>
<svg id="graph" class="graph">
<g id="viewport">
<title>xla::Service::ExecuteAsync</title>
<polygon fill="#ffffff" stroke="transparent" points="-4,4 -4,-460 1042,-460 1042,4 -4,4"/>
<!-- Node162 -->
<g id="node1" class="node">
<title>Node162</title>
<polygon fill="#bfbfbf" stroke="#000000" points="0,-216 0,-235 138,-235 138,-216 0,-216"/>
<text text-anchor="middle" x="69" y="-223" font-family="Helvetica,sans-Serif" font-size="10.00" fill="#000000">xla::Service::ExecuteAsync</text>
</g>
<!-- Node163 -->
<g id="node2" class="node">
<title>Node163</title>
<g id="a_node2"><a xlink:href="../../d8/d42/classxla_1_1ComputationTracker.html#add84b3f565b288fdcfdfad55bab8f3ee" target="_top" xlink:title="xla::ComputationTracker\l::Resolve">
<polygon fill="#ffffff" stroke="#000000" points="191.5,-425.5 191.5,-455.5 313.5,-455.5 313.5,-425.5 191.5,-425.5"/>
<text text-anchor="start" x="199.5" y="-443.5" font-family="Helvetica,sans-Serif" font-size="10.00" fill="#000000">xla::ComputationTracker</text>
<text text-anchor="middle" x="252.5" y="-432.5" font-family="Helvetica,sans-Serif" font-size="10.00" fill="#000000">::Resolve</text>
</a>
</g>
</g>
<!-- Node162&#45;&gt;Node163 -->
<g id="edge1" class="edge">
<title>Node162&#45;&gt;Node163</title>
<path fill="none" stroke="#191970" d="M71.842,-235.0662C81.2674,-265.2078 114.3354,-359.2371 174,-410.5 178.5372,-414.3982 183.6345,-417.8173 188.9963,-420.8108"/>
<polygon fill="#191970" stroke="#191970" points="187.7117,-424.0826 198.2171,-425.4561 190.8611,-417.8311 187.7117,-424.0826"/>
</g>
<!-- Node165 -->
<g id="node4" class="node">
<title>Node165</title>
<g id="a_node4"><a xlink:href="../../db/dbb/classxla_1_1UserComputation.html#a4fef8fc438e3b3b2c396de862820af3e" target="_top" xlink:title="xla::UserComputation\l::GetVersionedHandle">
<polygon fill="#ffffff" stroke="#000000" points="746,-359.5 746,-389.5 858,-389.5 858,-359.5 746,-359.5"/>
<text text-anchor="start" x="754" y="-377.5" font-family="Helvetica,sans-Serif" font-size="10.00" fill="#000000">xla::UserComputation</text>
<text text-anchor="middle" x="802" y="-366.5" font-family="Helvetica,sans-Serif" font-size="10.00" fill="#000000">::GetVersionedHandle</text>
</a>
</g>
</g>
<!-- Node162&#45;&gt;Node165 -->
<g id="edge3" class="edge">
<title>Node162&#45;&gt;Node165</title>
<path fill="none" stroke="#191970" d="M73.4875,-235.0583C85.6526,-259.766 121.8846,-325.8186 174,-354.5 268.8648,-406.7084 594.2851,-389.9685 735.6087,-379.8218"/>
<polygon fill="#191970" stroke="#191970" points="736.1474,-383.2919 745.8662,-379.0736 735.6381,-376.3105 736.1474,-383.2919"/>
</g>
<!-- Node167 -->
<g id="node6" class="node">
<title>Node167</title>
<g id="a_node6"><a xlink:href="../../db/dbb/classxla_1_1UserComputation.html#a3c6d076f89562622a79af3ea252dcdd7" target="_top" xlink:title="xla::UserComputation\l::request_count">
<polygon fill="#ffffff" stroke="#000000" points="394,-337.5 394,-367.5 506,-367.5 506,-337.5 394,-337.5"/>
<text text-anchor="start" x="402" y="-355.5" font-family="Helvetica,sans-Serif" font-size="10.00" fill="#000000">xla::UserComputation</text>
<text text-anchor="middle" x="450" y="-344.5" font-family="Helvetica,sans-Serif" font-size="10.00" fill="#000000">::request_count</text>
</a>
</g>
</g>
<!-- Node162&#45;&gt;Node167 -->
<g id="edge5" class="edge">
<title>Node162&#45;&gt;Node167</title>
<path fill="none" stroke="#191970" d="M75.7786,-235.2681C90.7428,-255.9368 128.8787,-303.8856 174,-324.5 240.7415,-354.9919 325.7963,-359.1076 383.7286,-357.442"/>
<polygon fill="#191970" stroke="#191970" points="383.9904,-360.9351 393.8605,-357.0839 383.7431,-353.9394 383.9904,-360.9351"/>
</g>
<!-- Node169 -->
<g id="node8" class="node">
<title>Node169</title>
<g id="a_node8"><a xlink:href="../../db/dbb/classxla_1_1UserComputation.html#a186a2daf1d487b8f35cf85f0dba034bf" target="_top" xlink:title="xla::UserComputation\l::ComputeProgramShape">
<polygon fill="#ffffff" stroke="#000000" points="189,-284.5 189,-314.5 316,-314.5 316,-284.5 189,-284.5"/>
<text text-anchor="start" x="197" y="-302.5" font-family="Helvetica,sans-Serif" font-size="10.00" fill="#000000">xla::UserComputation</text>
<text text-anchor="middle" x="252.5" y="-291.5" font-family="Helvetica,sans-Serif" font-size="10.00" fill="#000000">::ComputeProgramShape</text>
</a>
</g>
</g>
<!-- Node162&#45;&gt;Node169 -->
<g id="edge8" class="edge">
<title>Node162&#45;&gt;Node169</title>
<path fill="none" stroke="#191970" d="M86.8522,-235.0003C107.4637,-245.7321 142.5706,-263.2893 174,-275.5 179.0645,-277.4676 184.3615,-279.3815 189.7096,-281.2139"/>
<polygon fill="#191970" stroke="#191970" points="188.7584,-284.586 199.3519,-284.4185 190.9661,-277.9432 188.7584,-284.586"/>
</g>
<!-- Node174 -->
<g id="node13" class="node">
<title>Node174</title>
<g id="a_node13"><a xlink:href="../../d1/d10/classxla_1_1Service.html#a1c62dd29d5ef6643da20d7f1f53c93ee" target="_top" xlink:title="xla::Service::Replicas">
<polygon fill="#ffffff" stroke="#000000" points="196,-148 196,-167 309,-167 309,-148 196,-148"/>
<text text-anchor="middle" x="252.5" y="-155" font-family="Helvetica,sans-Serif" font-size="10.00" fill="#000000">xla::Service::Replicas</text>
</a>
</g>
</g>
<!-- Node162&#45;&gt;Node174 -->
<g id="edge15" class="edge">
<title>Node162&#45;&gt;Node174</title>
<path fill="none" stroke="#191970" d="M87.1735,-215.9776C107.7883,-205.4651 142.6226,-188.5684 174,-177.5 182.1028,-174.6417 190.8089,-172.0087 199.369,-169.6561"/>
<polygon fill="#191970" stroke="#191970" points="200.5339,-172.9683 209.3057,-167.0265 198.7431,-166.2013 200.5339,-172.9683"/>
</g>
<!-- Node177 -->
<g id="node16" class="node">
<title>Node177</title>
<g id="a_node16"><a xlink:href="../../d1/d10/classxla_1_1Service.html#ab2f61cf74addf4119fb04da6bfe85d61" target="_top" xlink:title="xla::Service::SingleComputation\lDeviceHandle">
<polygon fill="#ffffff" stroke="#000000" points="174,-186.5 174,-216.5 331,-216.5 331,-186.5 174,-186.5"/>
<text text-anchor="start" x="182" y="-204.5" font-family="Helvetica,sans-Serif" font-size="10.00" fill="#000000">xla::Service::SingleComputation</text>
<text text-anchor="middle" x="252.5" y="-193.5" font-family="Helvetica,sans-Serif" font-size="10.00" fill="#000000">DeviceHandle</text>
</a>
</g>
</g>
<!-- Node162&#45;&gt;Node177 -->
<g id="edge18" class="edge">
<title>Node162&#45;&gt;Node177</title>
<path fill="none" stroke="#191970" d="M138.112,-216.4608C146.5095,-215.3625 155.1768,-214.2289 163.808,-213.1"/>
<polygon fill="#191970" stroke="#191970" points="164.4438,-216.5468 173.9054,-211.7794 163.5359,-209.6059 164.4438,-216.5468"/>
</g>
<!-- Node178 -->
<g id="node17" class="node">
<title>Node178</title>
<g id="a_node17"><a xlink:href="../../d1/d10/classxla_1_1Service.html#ab1860edc2fba2e1eb5216d6e54996000" target="_top" xlink:title="xla::Service::ResolveAnd\lValidateArguments">
<polygon fill="#ffffff" stroke="#000000" points="188.5,-235.5 188.5,-265.5 316.5,-265.5 316.5,-235.5 188.5,-235.5"/>
<text text-anchor="start" x="196.5" y="-253.5" font-family="Helvetica,sans-Serif" font-size="10.00" fill="#000000">xla::Service::ResolveAnd</text>
<text text-anchor="middle" x="252.5" y="-242.5" font-family="Helvetica,sans-Serif" font-size="10.00" fill="#000000">ValidateArguments</text>
</a>
</g>
</g>
<!-- Node162&#45;&gt;Node178 -->
<g id="edge19" class="edge">
<title>Node162&#45;&gt;Node178</title>
<path fill="none" stroke="#191970" d="M138.112,-234.9158C151.2273,-236.7026 165.0009,-238.5791 178.267,-240.3865"/>
<polygon fill="#191970" stroke="#191970" points="177.9125,-243.8705 188.2934,-241.7525 178.8575,-236.9345 177.9125,-243.8705"/>
</g>
<!-- Node179 -->
<g id="node18" class="node">
<title>Node179</title>
<g id="a_node18"><a xlink:href="../../d1/d10/classxla_1_1Service.html#a6ad3184af8a6365d1098539edfd8be14" target="_top" xlink:title="xla::Service::CreateModule\lConfig">
<polygon fill="#ffffff" stroke="#000000" points="185,-98.5 185,-128.5 320,-128.5 320,-98.5 185,-98.5"/>
<text text-anchor="start" x="193" y="-116.5" font-family="Helvetica,sans-Serif" font-size="10.00" fill="#000000">xla::Service::CreateModule</text>
<text text-anchor="middle" x="252.5" y="-105.5" font-family="Helvetica,sans-Serif" font-size="10.00" fill="#000000">Config</text>
</a>
</g>
</g>
<!-- Node162&#45;&gt;Node179 -->
<g id="edge21" class="edge">
<title>Node162&#45;&gt;Node179</title>
<path fill="none" stroke="#191970" d="M77.9275,-215.993C94.9943,-198.3356 134.1136,-160.2962 174,-138.5 177.9909,-136.3192 182.2014,-134.2944 186.5155,-132.4206"/>
<polygon fill="#191970" stroke="#191970" points="188.1185,-135.5479 196.08,-128.5575 185.4969,-129.0573 188.1185,-135.5479"/>
</g>
<!-- Node180 -->
<g id="node19" class="node">
<title>Node180</title>
<g id="a_node19"><a xlink:href="../../d1/d10/classxla_1_1Service.html#a6212f2cb0c08c7c6629d08bb612af5c3" target="_top" xlink:title="xla::Service::BuildAndCache\lExecutable">
<polygon fill="#ffffff" stroke="#000000" points="181.5,-49.5 181.5,-79.5 323.5,-79.5 323.5,-49.5 181.5,-49.5"/>
<text text-anchor="start" x="189.5" y="-67.5" font-family="Helvetica,sans-Serif" font-size="10.00" fill="#000000">xla::Service::BuildAndCache</text>
<text text-anchor="middle" x="252.5" y="-56.5" font-family="Helvetica,sans-Serif" font-size="10.00" fill="#000000">Executable</text>
</a>
</g>
</g>
<!-- Node162&#45;&gt;Node180 -->
<g id="edge22" class="edge">
<title>Node162&#45;&gt;Node180</title>
<path fill="none" stroke="#191970" d="M73.6482,-215.8915C86.2009,-190.9611 123.2883,-123.7014 174,-88.5 176.1512,-87.0068 178.398,-85.6042 180.7156,-84.2871"/>
<polygon fill="#191970" stroke="#191970" points="182.6069,-87.2529 189.9534,-79.6188 179.4497,-81.0053 182.6069,-87.2529"/>
</g>
<!-- Node182 -->
<g id="node21" class="node">
<title>Node182</title>
<g id="a_node21"><a xlink:href="../../db/dbb/classxla_1_1UserComputation.html#af22e122e5671d4f05628c8aae80b8aee" target="_top" xlink:title="xla::UserComputation\l::name">
<polygon fill="#ffffff" stroke="#000000" points="196.5,-.5 196.5,-30.5 308.5,-30.5 308.5,-.5 196.5,-.5"/>
<text text-anchor="start" x="204.5" y="-18.5" font-family="Helvetica,sans-Serif" font-size="10.00" fill="#000000">xla::UserComputation</text>
<text text-anchor="middle" x="252.5" y="-7.5" font-family="Helvetica,sans-Serif" font-size="10.00" fill="#000000">::name</text>
</a>
</g>
</g>
<!-- Node162&#45;&gt;Node182 -->
<g id="edge25" class="edge">
<title>Node162&#45;&gt;Node182</title>
<path fill="none" stroke="#191970" d="M71.6803,-215.7067C80.6257,-184.8813 112.4251,-88.9674 174,-39.5 177.9944,-36.291 182.4152,-33.51 187.0638,-31.1001"/>
<polygon fill="#191970" stroke="#191970" points="188.5929,-34.2495 196.2319,-26.908 185.682,-27.8834 188.5929,-34.2495"/>
</g>
<!-- Node164 -->
<g id="node3" class="node">
<title>Node164</title>
<g id="a_node3"><a xlink:href="../../d8/d42/classxla_1_1ComputationTracker.html#aa2f38317a41c1c64fba497780bc39169" target="_top" xlink:title="xla::ComputationTracker\l::ResolveInternal">
<polygon fill="#ffffff" stroke="#000000" points="389,-425.5 389,-455.5 511,-455.5 511,-425.5 389,-425.5"/>
<text text-anchor="start" x="397" y="-443.5" font-family="Helvetica,sans-Serif" font-size="10.00" fill="#000000">xla::ComputationTracker</text>
<text text-anchor="middle" x="450" y="-432.5" font-family="Helvetica,sans-Serif" font-size="10.00" fill="#000000">::ResolveInternal</text>
</a>
</g>
</g>
<!-- Node163&#45;&gt;Node164 -->
<g id="edge2" class="edge">
<title>Node163&#45;&gt;Node164</title>
<path fill="none" stroke="#191970" d="M313.6377,-440.5C334.1801,-440.5 357.2755,-440.5 378.5391,-440.5"/>
<polygon fill="#191970" stroke="#191970" points="378.8112,-444.0001 388.8112,-440.5 378.8112,-437.0001 378.8112,-444.0001"/>
</g>
<!-- Node166 -->
<g id="node5" class="node">
<title>Node166</title>
<g id="a_node5"><a xlink:href="../../db/dbb/classxla_1_1UserComputation.html#af44a77b35aaed6ff22d5fbb266dd824e" target="_top" xlink:title="xla::UserComputation\l::GetVersionedHandleInternal">
<polygon fill="#ffffff" stroke="#000000" points="894,-359.5 894,-389.5 1038,-389.5 1038,-359.5 894,-359.5"/>
<text text-anchor="start" x="902" y="-377.5" font-family="Helvetica,sans-Serif" font-size="10.00" fill="#000000">xla::UserComputation</text>
<text text-anchor="middle" x="966" y="-366.5" font-family="Helvetica,sans-Serif" font-size="10.00" fill="#000000">::GetVersionedHandleInternal</text>
</a>
</g>
</g>
<!-- Node165&#45;&gt;Node166 -->
<g id="edge4" class="edge">
<title>Node165&#45;&gt;Node166</title>
<path fill="none" stroke="#191970" d="M858.4395,-374.5C866.6308,-374.5 875.2002,-374.5 883.7728,-374.5"/>
<polygon fill="#191970" stroke="#191970" points="883.8155,-378.0001 893.8155,-374.5 883.8155,-371.0001 883.8155,-378.0001"/>
</g>
<!-- Node168 -->
<g id="node7" class="node">
<title>Node168</title>
<g id="a_node7"><a xlink:href="../../db/dbb/classxla_1_1UserComputation.html#aee9eeba8ef86ffdae79b8fe9d74cd99b" target="_top" xlink:title="xla::UserComputation\l::version">
<polygon fill="#ffffff" stroke="#000000" points="583.5,-315.5 583.5,-345.5 695.5,-345.5 695.5,-315.5 583.5,-315.5"/>
<text text-anchor="start" x="591.5" y="-333.5" font-family="Helvetica,sans-Serif" font-size="10.00" fill="#000000">xla::UserComputation</text>
<text text-anchor="middle" x="639.5" y="-322.5" font-family="Helvetica,sans-Serif" font-size="10.00" fill="#000000">::version</text>
</a>
</g>
</g>
<!-- Node167&#45;&gt;Node168 -->
<g id="edge6" class="edge">
<title>Node167&#45;&gt;Node168</title>
<path fill="none" stroke="#191970" d="M506.0871,-345.9886C527.0976,-343.5494 551.1695,-340.7547 573.0303,-338.2168"/>
<polygon fill="#191970" stroke="#191970" points="573.6997,-341.6627 583.2294,-337.0327 572.8924,-334.7094 573.6997,-341.6627"/>
</g>
<!-- Node168&#45;&gt;Node165 -->
<g id="edge7" class="edge">
<title>Node168&#45;&gt;Node165</title>
<path fill="none" stroke="#191970" d="M694.9688,-345.5192C708.3602,-349.1452 722.794,-353.0534 736.5934,-356.7899"/>
<polygon fill="#191970" stroke="#191970" points="735.9383,-360.2385 746.5055,-359.4738 737.7678,-353.4818 735.9383,-360.2385"/>
</g>
<!-- Node169&#45;&gt;Node168 -->
<g id="edge9" class="edge">
<title>Node169&#45;&gt;Node168</title>
<path fill="none" stroke="#191970" d="M316.4052,-304.619C387.3067,-310.2985 501.1703,-319.4193 573.072,-325.1789"/>
<polygon fill="#191970" stroke="#191970" points="573.1183,-328.6937 583.3659,-326.0035 573.6773,-321.7161 573.1183,-328.6937"/>
</g>
<!-- Node170 -->
<g id="node9" class="node">
<title>Node170</title>
<g id="a_node9"><a xlink:href="../../db/dbb/classxla_1_1UserComputation.html#a02a015ab900f28dc61b02f47c44f96f0" target="_top" xlink:title="xla::UserComputation\l::CheckParametersAreContiguous">
<polygon fill="#ffffff" stroke="#000000" points="367,-249.5 367,-279.5 533,-279.5 533,-249.5 367,-249.5"/>
<text text-anchor="start" x="375" y="-267.5" font-family="Helvetica,sans-Serif" font-size="10.00" fill="#000000">xla::UserComputation</text>
<text text-anchor="middle" x="450" y="-256.5" font-family="Helvetica,sans-Serif" font-size="10.00" fill="#000000">::CheckParametersAreContiguous</text>
</a>
</g>
</g>
<!-- Node169&#45;&gt;Node170 -->
<g id="edge10" class="edge">
<title>Node169&#45;&gt;Node170</title>
<path fill="none" stroke="#191970" d="M316.0774,-288.2331C329.0532,-285.9336 342.9611,-283.4689 356.7267,-281.0295"/>
<polygon fill="#191970" stroke="#191970" points="357.4738,-284.4517 366.7096,-279.2603 356.2522,-277.5591 357.4738,-284.4517"/>
</g>
<!-- Node171 -->
<g id="node10" class="node">
<title>Node171</title>
<g id="a_node10"><a xlink:href="../../dc/d9d/namespacexla_1_1anonymous__namespace_02user__computation_8cc_03.html#a5ee0643c24e2ef217ab180c717d5de36" target="_top" xlink:title="xla::anonymous_namespace\l\{user_computation::cc\}\l::GetRoot">
<polygon fill="#ffffff" stroke="#000000" points="379.5,-189 379.5,-230 520.5,-230 520.5,-189 379.5,-189"/>
<text text-anchor="start" x="387.5" y="-218" font-family="Helvetica,sans-Serif" font-size="10.00" fill="#000000">xla::anonymous_namespace</text>
<text text-anchor="start" x="387.5" y="-207" font-family="Helvetica,sans-Serif" font-size="10.00" fill="#000000">{user_computation::cc}</text>
<text text-anchor="middle" x="450" y="-196" font-family="Helvetica,sans-Serif" font-size="10.00" fill="#000000">::GetRoot</text>
</a>
</g>
</g>
<!-- Node169&#45;&gt;Node171 -->
<g id="edge12" class="edge">
<title>Node169&#45;&gt;Node171</title>
<path fill="none" stroke="#191970" d="M312.5052,-284.4468C318.94,-281.8756 325.2345,-278.9092 331,-275.5 350.2084,-264.1417 348.1453,-252.4363 367,-240.5 370.3405,-238.3852 373.8469,-236.3826 377.4523,-234.4909"/>
<polygon fill="#191970" stroke="#191970" points="379.1411,-237.561 386.5797,-230.0166 376.06,-231.2756 379.1411,-237.561"/>
</g>
<!-- Node170&#45;&gt;Node168 -->
<g id="edge11" class="edge">
<title>Node170&#45;&gt;Node168</title>
<path fill="none" stroke="#191970" d="M493.4751,-279.6417C521.16,-289.284 557.2026,-301.837 586.5522,-312.0591"/>
<polygon fill="#191970" stroke="#191970" points="585.6323,-315.4449 596.2272,-315.4287 587.9347,-308.8343 585.6323,-315.4449"/>
</g>
<!-- Node172 -->
<g id="node11" class="node">
<title>Node172</title>
<g id="a_node11"><a xlink:href="../../dc/d9d/namespacexla_1_1anonymous__namespace_02user__computation_8cc_03.html#a48377f566f973539c09065de3f43058e" target="_top" xlink:title="xla::anonymous_namespace\l\{user_computation::cc\}\l::LookUpRequest">
<polygon fill="#ffffff" stroke="#000000" points="569,-219 569,-260 710,-260 710,-219 569,-219"/>
<text text-anchor="start" x="577" y="-248" font-family="Helvetica,sans-Serif" font-size="10.00" fill="#000000">xla::anonymous_namespace</text>
<text text-anchor="start" x="577" y="-237" font-family="Helvetica,sans-Serif" font-size="10.00" fill="#000000">{user_computation::cc}</text>
<text text-anchor="middle" x="639.5" y="-226" font-family="Helvetica,sans-Serif" font-size="10.00" fill="#000000">::LookUpRequest</text>
</a>
</g>
</g>
<!-- Node171&#45;&gt;Node172 -->
<g id="edge13" class="edge">
<title>Node171&#45;&gt;Node172</title>
<path fill="none" stroke="#191970" d="M520.5628,-220.6709C533.0177,-222.6426 546.0702,-224.709 558.7784,-226.7208"/>
<polygon fill="#191970" stroke="#191970" points="558.454,-230.213 568.8783,-228.3198 559.5486,-223.2991 558.454,-230.213"/>
</g>
<!-- Node173 -->
<g id="node12" class="node">
<title>Node173</title>
<g id="a_node12"><a xlink:href="../../dc/d9d/namespacexla_1_1anonymous__namespace_02user__computation_8cc_03.html#a47ec5fc250056c19fc49c663922f592e" target="_top" xlink:title="xla::anonymous_namespace\l\{user_computation::cc\}\l::CanBeRoot">
<polygon fill="#ffffff" stroke="#000000" points="569,-159 569,-200 710,-200 710,-159 569,-159"/>
<text text-anchor="start" x="577" y="-188" font-family="Helvetica,sans-Serif" font-size="10.00" fill="#000000">xla::anonymous_namespace</text>
<text text-anchor="start" x="577" y="-177" font-family="Helvetica,sans-Serif" font-size="10.00" fill="#000000">{user_computation::cc}</text>
<text text-anchor="middle" x="639.5" y="-166" font-family="Helvetica,sans-Serif" font-size="10.00" fill="#000000">::CanBeRoot</text>
</a>
</g>
</g>
<!-- Node171&#45;&gt;Node173 -->
<g id="edge14" class="edge">
<title>Node171&#45;&gt;Node173</title>
<path fill="none" stroke="#191970" d="M520.5628,-198.3291C533.0177,-196.3574 546.0702,-194.291 558.7784,-192.2792"/>
<polygon fill="#191970" stroke="#191970" points="559.5486,-195.7009 568.8783,-190.6802 558.454,-188.787 559.5486,-195.7009"/>
</g>
<!-- Node175 -->
<g id="node14" class="node">
<title>Node175</title>
<g id="a_node14"><a xlink:href="../../d5/d7a/classxla_1_1ServiceOptions.html#a16503bc7e5b638f42419425b48d648d7" target="_top" xlink:title="xla::ServiceOptions\l::number_of_replicas">
<polygon fill="#ffffff" stroke="#000000" points="396.5,-139.5 396.5,-169.5 503.5,-169.5 503.5,-139.5 396.5,-139.5"/>
<text text-anchor="start" x="404.5" y="-157.5" font-family="Helvetica,sans-Serif" font-size="10.00" fill="#000000">xla::ServiceOptions</text>
<text text-anchor="middle" x="450" y="-146.5" font-family="Helvetica,sans-Serif" font-size="10.00" fill="#000000">::number_of_replicas</text>
</a>
</g>
</g>
<!-- Node174&#45;&gt;Node175 -->
<g id="edge16" class="edge">
<title>Node174&#45;&gt;Node175</title>
<path fill="none" stroke="#191970" d="M309.0956,-156.6403C333.2397,-156.2736 361.5227,-155.844 386.3878,-155.4663"/>
<polygon fill="#191970" stroke="#191970" points="386.5053,-158.965 396.4509,-155.3134 386.3989,-151.9658 386.5053,-158.965"/>
</g>
<!-- Node176 -->
<g id="node15" class="node">
<title>Node176</title>
<g id="a_node15"><a xlink:href="../../d1/d10/classxla_1_1Service.html#aa23389c9947ef664bcaad4f253962b65" target="_top" xlink:title="xla::Service::backend">
<polygon fill="#ffffff" stroke="#000000" points="394.5,-98 394.5,-117 505.5,-117 505.5,-98 394.5,-98"/>
<text text-anchor="middle" x="450" y="-105" font-family="Helvetica,sans-Serif" font-size="10.00" fill="#000000">xla::Service::backend</text>
</a>
</g>
</g>
<!-- Node174&#45;&gt;Node176 -->
<g id="edge17" class="edge">
<title>Node174&#45;&gt;Node176</title>
<path fill="none" stroke="#191970" d="M290.1131,-147.9777C321.9966,-139.9059 367.8986,-128.2852 402.3485,-119.5637"/>
<polygon fill="#191970" stroke="#191970" points="403.3559,-122.9191 412.1911,-117.0719 401.6379,-116.1332 403.3559,-122.9191"/>
</g>
<!-- Node178&#45;&gt;Node175 -->
<g id="edge20" class="edge">
<title>Node178&#45;&gt;Node175</title>
<path fill="none" stroke="#191970" d="M315.0477,-235.3827C320.6673,-232.8535 326.0835,-229.9138 331,-226.5 352.6131,-211.4926 345.3559,-194.4625 367,-179.5 373.0426,-175.3228 379.7984,-171.8296 386.7759,-168.9115"/>
<polygon fill="#191970" stroke="#191970" points="388.2665,-172.0898 396.3817,-165.2785 385.7901,-165.5424 388.2665,-172.0898"/>
</g>
<!-- Node180&#45;&gt;Node176 -->
<g id="edge24" class="edge">
<title>Node180&#45;&gt;Node176</title>
<path fill="none" stroke="#191970" d="M321.5759,-79.5393C346.091,-84.8768 373.296,-90.7999 396.333,-95.8155"/>
<polygon fill="#191970" stroke="#191970" points="395.7484,-99.2702 406.2641,-97.9777 397.2376,-92.4304 395.7484,-99.2702"/>
</g>
<!-- Node181 -->
<g id="node20" class="node">
<title>Node181</title>
<g id="a_node20"><a xlink:href="../../d1/d10/classxla_1_1Service.html#ad1481fa5bd9d712123982da7ede29b07" target="_top" xlink:title="xla::Service::BuildExecutable">
<polygon fill="#ffffff" stroke="#000000" points="377.5,-55 377.5,-74 522.5,-74 522.5,-55 377.5,-55"/>
<text text-anchor="middle" x="450" y="-62" font-family="Helvetica,sans-Serif" font-size="10.00" fill="#000000">xla::Service::BuildExecutable</text>
</a>
</g>
</g>
<!-- Node180&#45;&gt;Node181 -->
<g id="edge23" class="edge">
<title>Node180&#45;&gt;Node181</title>
<path fill="none" stroke="#191970" d="M323.523,-64.5C337.5833,-64.5 352.4597,-64.5 366.8798,-64.5"/>
<polygon fill="#191970" stroke="#191970" points="367.2811,-68.0001 377.2811,-64.5 367.281,-61.0001 367.2811,-68.0001"/>
</g>
</g>
</svg>
        <g id="navigator" transform="translate(0 0)" fill="#404254">
                <rect fill="#f2f5e9" fill-opacity="0.5" stroke="#606060" stroke-width=".5" x="0" y="0" width="60" height="60"/>
                <use id="zoomplus" xlink:href="#zoomPlus" x="17" y="9" onmousedown="handleZoom(evt,'in')"/>
                <use id="zoomminus" xlink:href="#zoomMin" x="42" y="9" onmousedown="handleZoom(evt,'out')"/>
                <use id="reset" xlink:href="#resetDef" x="30" y="36" onmousedown="handleReset()"/>
                <g id="arrowUp" xlink:href="#dirArrow" transform="translate(30 24)" onmousedown="handlePan(0,-1)">
                  <use xlink:href="#rim" fill="#404040">
                        <set attributeName="fill" to="#808080" begin="arrowUp.mouseover" end="arrowUp.mouseout"/>
                  </use>
                  <path fill="none" stroke="white" stroke-width="1.5" d="M0,-3.0v7 M-2.5,-0.5L0,-3.0L2.5,-0.5"/>
                </g>
                <g id="arrowRight" xlink:href="#dirArrow" transform="rotate(90) translate(36 -43)" onmousedown="handlePan(1,0)">
                  <use xlink:href="#rim" fill="#404040">
                        <set attributeName="fill" to="#808080" begin="arrowRight.mouseover" end="arrowRight.mouseout"/>
                  </use>
                  <path fill="none" stroke="white" stroke-width="1.5" d="M0,-3.0v7 M-2.5,-0.5L0,-3.0L2.5,-0.5"/>
                </g>
                <g id="arrowDown" xlink:href="#dirArrow" transform="rotate(180) translate(-30 -48)" onmousedown="handlePan(0,1)">
                  <use xlink:href="#rim" fill="#404040">
                        <set attributeName="fill" to="#808080" begin="arrowDown.mouseover" end="arrowDown.mouseout"/>
                  </use>
                  <path fill="none" stroke="white" stroke-width="1.5" d="M0,-3.0v7 M-2.5,-0.5L0,-3.0L2.5,-0.5"/>
                </g>
                <g id="arrowLeft" xlink:href="#dirArrow" transform="rotate(270) translate(-36 17)" onmousedown="handlePan(-1,0)">
                  <use xlink:href="#rim" fill="#404040">
                        <set attributeName="fill" to="#808080" begin="arrowLeft.mouseover" end="arrowLeft.mouseout"/>
                  </use>
                  <path fill="none" stroke="white" stroke-width="1.5" d="M0,-3.0v7 M-2.5,-0.5L0,-3.0L2.5,-0.5"/>
                </g>
        </g>
        <svg viewBox="0 0 15 15" width="100%" height="30px" preserveAspectRatio="xMaxYMin meet">
         <g id="arrow_out" transform="scale(0.3 0.3)">
          <a xlink:href="classxla_1_1Service_ad940842d8a31741ccd025d883744223c_cgraph_org.svg" target="_base">
           <rect id="button" ry="5" rx="5" y="6" x="6" height="38" width="38"
                fill="#f2f5e9" fill-opacity="0.5" stroke="#606060" stroke-width="1.0"/>
           <path id="arrow"
             d="M 11.500037,31.436501 C 11.940474,20.09759 22.043105,11.32322 32.158766,21.979434 L 37.068811,17.246167 C 37.068811,17.246167 37.088388,32 37.088388,32 L 22.160133,31.978069 C 22.160133,31.978069 26.997745,27.140456 26.997745,27.140456 C 18.528582,18.264221 13.291696,25.230495 11.500037,31.436501 z"
             style="fill:#404040;"/>
          </a>
         </g>
        </svg>
</svg>
