<?xml version="1.0" encoding="UTF-8" standalone="no"?>
<!DOCTYPE svg PUBLIC "-//W3C//DTD SVG 1.1//EN"
 "http://www.w3.org/Graphics/SVG/1.1/DTD/svg11.dtd">
<!-- Generated by graphviz version 2.40.1 (20161225.0304)
 -->
<!-- Title: xla::Service::ExecuteParallel Pages: 1 -->
<svg width="506pt" height="66pt"
 viewBox="0.00 0.00 506.00 66.00" xmlns="http://www.w3.org/2000/svg" xmlns:xlink="http://www.w3.org/1999/xlink">
<g id="graph0" class="graph" transform="scale(1 1) rotate(0) translate(4 62)">
<title>xla::Service::ExecuteParallel</title>
<polygon fill="#ffffff" stroke="transparent" points="-4,4 -4,-62 502,-62 502,4 -4,4"/>
<!-- Node329 -->
<g id="node1" class="node">
<title>Node329</title>
<polygon fill="#bfbfbf" stroke="#000000" points="0,-19.5 0,-38.5 143,-38.5 143,-19.5 0,-19.5"/>
<text text-anchor="middle" x="71.5" y="-26.5" font-family="Helvetica,sans-Serif" font-size="10.00" fill="#000000">xla::Service::ExecuteParallel</text>
</g>
<!-- Node330 -->
<g id="node2" class="node">
<title>Node330</title>
<g id="a_node2"><a xlink:href="../../d1/d10/classxla_1_1Service.html#a170f36c8fd2b964f57d00d9b720c6912" target="_top" xlink:title="xla::Service::ExecuteOneToN">
<polygon fill="#ffffff" stroke="#000000" points="179,-19.5 179,-38.5 325,-38.5 325,-19.5 179,-19.5"/>
<text text-anchor="middle" x="252" y="-26.5" font-family="Helvetica,sans-Serif" font-size="10.00" fill="#000000">xla::Service::ExecuteOneToN</text>
</a>
</g>
</g>
<!-- Node329&#45;&gt;Node330 -->
<g id="edge1" class="edge">
<title>Node329&#45;&gt;Node330</title>
<path fill="none" stroke="#191970" d="M153.3445,-29C161.802,-29 170.3588,-29 178.7144,-29"/>
<polygon fill="#191970" stroke="#191970" points="153.0977,-25.5001 143.0976,-29 153.0976,-32.5001 153.0977,-25.5001"/>
</g>
<!-- Node331 -->
<g id="node3" class="node">
<title>Node331</title>
<g id="a_node3"><a xlink:href="../../d1/d10/classxla_1_1Service.html#ac3f89822d1f6faab8382f1902e54eea3" target="_top" xlink:title="xla::Service::Execute">
<polygon fill="#ffffff" stroke="#000000" points="374.5,-38.5 374.5,-57.5 484.5,-57.5 484.5,-38.5 374.5,-38.5"/>
<text text-anchor="middle" x="429.5" y="-45.5" font-family="Helvetica,sans-Serif" font-size="10.00" fill="#000000">xla::Service::Execute</text>
</a>
</g>
</g>
<!-- Node330&#45;&gt;Node331 -->
<g id="edge2" class="edge">
<title>Node330&#45;&gt;Node331</title>
<path fill="none" stroke="#191970" d="M335.3011,-37.9167C348.5501,-39.3349 361.9617,-40.7705 374.3488,-42.0965"/>
<polygon fill="#191970" stroke="#191970" points="335.5366,-34.422 325.2208,-36.8377 334.7915,-41.3823 335.5366,-34.422"/>
</g>
<!-- Node332 -->
<g id="node4" class="node">
<title>Node332</title>
<g id="a_node4"><a xlink:href="../../d1/d10/classxla_1_1Service.html#a6d2eb2712a109ab9484080dfd1e2e446" target="_top" xlink:title="xla::Service::ExecuteGraph">
<polygon fill="#ffffff" stroke="#000000" points="361,-.5 361,-19.5 498,-19.5 498,-.5 361,-.5"/>
<text text-anchor="middle" x="429.5" y="-7.5" font-family="Helvetica,sans-Serif" font-size="10.00" fill="#000000">xla::Service::ExecuteGraph</text>
</a>
</g>
</g>
<!-- Node330&#45;&gt;Node332 -->
<g id="edge3" class="edge">
<title>Node330&#45;&gt;Node332</title>
<path fill="none" stroke="#191970" d="M335.2014,-20.0939C343.7466,-19.1792 352.3606,-18.2572 360.725,-17.3618"/>
<polygon fill="#191970" stroke="#191970" points="334.7915,-16.6177 325.2208,-21.1623 335.5366,-23.578 334.7915,-16.6177"/>
</g>
</g>
</svg>
