<?xml version="1.0" encoding="UTF-8" standalone="no"?>
<!DOCTYPE svg PUBLIC "-//W3C//DTD SVG 1.1//EN"
 "http://www.w3.org/Graphics/SVG/1.1/DTD/svg11.dtd">
<!-- Generated by graphviz version 2.40.1 (20161225.0304)
 -->
<!-- Title: xla::Service::BuildAndCacheExecutable Pages: 1 -->
<svg width="324pt" height="66pt"
 viewBox="0.00 0.00 324.00 66.00" xmlns="http://www.w3.org/2000/svg" xmlns:xlink="http://www.w3.org/1999/xlink">
<g id="graph0" class="graph" transform="scale(1 1) rotate(0) translate(4 62)">
<title>xla::Service::BuildAndCacheExecutable</title>
<polygon fill="#ffffff" stroke="transparent" points="-4,4 -4,-62 320,-62 320,4 -4,4"/>
<!-- Node30 -->
<g id="node1" class="node">
<title>Node30</title>
<polygon fill="#bfbfbf" stroke="#000000" points="0,-14 0,-44 142,-44 142,-14 0,-14"/>
<text text-anchor="start" x="8" y="-32" font-family="Helvetica,sans-Serif" font-size="10.00" fill="#000000">xla::Service::BuildAndCache</text>
<text text-anchor="middle" x="71" y="-21" font-family="Helvetica,sans-Serif" font-size="10.00" fill="#000000">Executable</text>
</g>
<!-- Node31 -->
<g id="node2" class="node">
<title>Node31</title>
<g id="a_node2"><a xlink:href="../../d1/d10/classxla_1_1Service.html#ac3f89822d1f6faab8382f1902e54eea3" target="_top" xlink:title="xla::Service::Execute">
<polygon fill="#ffffff" stroke="#000000" points="192,-38.5 192,-57.5 302,-57.5 302,-38.5 192,-38.5"/>
<text text-anchor="middle" x="247" y="-45.5" font-family="Helvetica,sans-Serif" font-size="10.00" fill="#000000">xla::Service::Execute</text>
</a>
</g>
</g>
<!-- Node30&#45;&gt;Node31 -->
<g id="edge1" class="edge">
<title>Node30&#45;&gt;Node31</title>
<path fill="none" stroke="#191970" d="M152.2769,-37.7742C165.6937,-39.2226 179.3202,-40.6937 191.899,-42.0516"/>
<polygon fill="#191970" stroke="#191970" points="152.3965,-34.2669 142.0786,-36.6733 151.6452,-41.2264 152.3965,-34.2669"/>
</g>
<!-- Node32 -->
<g id="node3" class="node">
<title>Node32</title>
<g id="a_node3"><a xlink:href="../../d1/d10/classxla_1_1Service.html#ad940842d8a31741ccd025d883744223c" target="_top" xlink:title="xla::Service::ExecuteAsync">
<polygon fill="#ffffff" stroke="#000000" points="178,-.5 178,-19.5 316,-19.5 316,-.5 178,-.5"/>
<text text-anchor="middle" x="247" y="-7.5" font-family="Helvetica,sans-Serif" font-size="10.00" fill="#000000">xla::Service::ExecuteAsync</text>
</a>
</g>
</g>
<!-- Node30&#45;&gt;Node32 -->
<g id="edge2" class="edge">
<title>Node30&#45;&gt;Node32</title>
<path fill="none" stroke="#191970" d="M152.1408,-20.2405C160.7639,-19.3096 169.4754,-18.3691 177.9413,-17.4552"/>
<polygon fill="#191970" stroke="#191970" points="151.6452,-16.7736 142.0786,-21.3267 152.3965,-23.7331 151.6452,-16.7736"/>
</g>
</g>
</svg>
