<?xml version="1.0" encoding="UTF-8" standalone="no"?>
<!DOCTYPE svg PUBLIC "-//W3C//DTD SVG 1.1//EN"
 "http://www.w3.org/Graphics/SVG/1.1/DTD/svg11.dtd">
<!-- Generated by graphviz version 2.40.1 (20161225.0304)
 -->
<!-- Title: xla::Service::ComputeConstant Pages: 1 -->
<svg width="1224pt" height="537pt"
 viewBox="0.00 0.00 1224.00 537.00" xmlns="http://www.w3.org/2000/svg" xmlns:xlink="http://www.w3.org/1999/xlink">
<g id="graph0" class="graph" transform="scale(1 1) rotate(0) translate(4 533)">
<title>xla::Service::ComputeConstant</title>
<polygon fill="#ffffff" stroke="transparent" points="-4,4 -4,-533 1220,-533 1220,4 -4,4"/>
<!-- Node70 -->
<g id="node1" class="node">
<title>Node70</title>
<polygon fill="#bfbfbf" stroke="#000000" points="0,-177 0,-196 154,-196 154,-177 0,-177"/>
<text text-anchor="middle" x="77" y="-184" font-family="Helvetica,sans-Serif" font-size="10.00" fill="#000000">xla::Service::ComputeConstant</text>
</g>
<!-- Node71 -->
<g id="node2" class="node">
<title>Node71</title>
<g id="a_node2"><a xlink:href="../../d8/d42/classxla_1_1ComputationTracker.html#add84b3f565b288fdcfdfad55bab8f3ee" target="_top" xlink:title="xla::ComputationTracker\l::Resolve">
<polygon fill="#ffffff" stroke="#000000" points="416,-498.5 416,-528.5 538,-528.5 538,-498.5 416,-498.5"/>
<text text-anchor="start" x="424" y="-516.5" font-family="Helvetica,sans-Serif" font-size="10.00" fill="#000000">xla::ComputationTracker</text>
<text text-anchor="middle" x="477" y="-505.5" font-family="Helvetica,sans-Serif" font-size="10.00" fill="#000000">::Resolve</text>
</a>
</g>
</g>
<!-- Node70&#45;&gt;Node71 -->
<g id="edge1" class="edge">
<title>Node70&#45;&gt;Node71</title>
<path fill="none" stroke="#191970" d="M80.1228,-196.0772C90.7033,-227.1933 128.0318,-326.7598 190,-384.5 251.554,-441.8543 342.919,-476.8881 405.948,-495.6995"/>
<polygon fill="#191970" stroke="#191970" points="405.2314,-499.1364 415.8116,-498.5803 407.1939,-492.4171 405.2314,-499.1364"/>
</g>
<!-- Node73 -->
<g id="node4" class="node">
<title>Node73</title>
<g id="a_node4"><a xlink:href="../../db/dbb/classxla_1_1UserComputation.html#a2213dc89e9c6bd1fb2a43bc1cadea48f" target="_top" xlink:title="xla::UserComputation\l::GetVersionedHandleAtOperation">
<polygon fill="#ffffff" stroke="#000000" points="193,-196.5 193,-226.5 357,-226.5 357,-196.5 193,-196.5"/>
<text text-anchor="start" x="201" y="-214.5" font-family="Helvetica,sans-Serif" font-size="10.00" fill="#000000">xla::UserComputation</text>
<text text-anchor="middle" x="275" y="-203.5" font-family="Helvetica,sans-Serif" font-size="10.00" fill="#000000">::GetVersionedHandleAtOperation</text>
</a>
</g>
</g>
<!-- Node70&#45;&gt;Node73 -->
<g id="edge3" class="edge">
<title>Node70&#45;&gt;Node73</title>
<path fill="none" stroke="#191970" d="M152.4201,-196.0227C162.3379,-197.275 172.5909,-198.5696 182.7487,-199.8521"/>
<polygon fill="#191970" stroke="#191970" points="182.4991,-203.3483 192.8588,-201.1286 183.376,-196.4034 182.4991,-203.3483"/>
</g>
<!-- Node74 -->
<g id="node5" class="node">
<title>Node74</title>
<g id="a_node5"><a xlink:href="../../db/dbb/classxla_1_1UserComputation.html#a3c6d076f89562622a79af3ea252dcdd7" target="_top" xlink:title="xla::UserComputation\l::request_count">
<polygon fill="#ffffff" stroke="#000000" points="611,-229.5 611,-259.5 723,-259.5 723,-229.5 611,-229.5"/>
<text text-anchor="start" x="619" y="-247.5" font-family="Helvetica,sans-Serif" font-size="10.00" fill="#000000">xla::UserComputation</text>
<text text-anchor="middle" x="667" y="-236.5" font-family="Helvetica,sans-Serif" font-size="10.00" fill="#000000">::request_count</text>
</a>
</g>
</g>
<!-- Node70&#45;&gt;Node74 -->
<g id="edge4" class="edge">
<title>Node70&#45;&gt;Node74</title>
<path fill="none" stroke="#191970" d="M93.1333,-196.1335C114.4429,-208.2603 153.545,-228.4751 190,-236.5 333.6502,-268.1219 507.5497,-259.7202 600.5979,-251.6074"/>
<polygon fill="#191970" stroke="#191970" points="601.0689,-255.0793 610.7156,-250.6983 600.4425,-248.1073 601.0689,-255.0793"/>
</g>
<!-- Node78 -->
<g id="node9" class="node">
<title>Node78</title>
<g id="a_node9"><a xlink:href="../../db/dbb/classxla_1_1UserComputation.html#aed26b1fc0c4c9c7178f980eb3c8ab03a" target="_top" xlink:title="xla::UserComputation\l::IsConstant">
<polygon fill="#ffffff" stroke="#000000" points="219,-49.5 219,-79.5 331,-79.5 331,-49.5 219,-49.5"/>
<text text-anchor="start" x="227" y="-67.5" font-family="Helvetica,sans-Serif" font-size="10.00" fill="#000000">xla::UserComputation</text>
<text text-anchor="middle" x="275" y="-56.5" font-family="Helvetica,sans-Serif" font-size="10.00" fill="#000000">::IsConstant</text>
</a>
</g>
</g>
<!-- Node70&#45;&gt;Node78 -->
<g id="edge8" class="edge">
<title>Node70&#45;&gt;Node78</title>
<path fill="none" stroke="#191970" d="M85.3305,-176.8565C102.7649,-157.2752 145.2072,-112.6693 190,-88.5 195.9841,-85.2711 202.4454,-82.4407 209.0392,-79.9676"/>
<polygon fill="#191970" stroke="#191970" points="210.4551,-83.1811 218.7543,-76.5952 208.1595,-76.5682 210.4551,-83.1811"/>
</g>
<!-- Node81 -->
<g id="node12" class="node">
<title>Node81</title>
<g id="a_node12"><a xlink:href="../../db/dbb/classxla_1_1UserComputation.html#a2ca02cbd472fd3b3de1a42e081ef24de" target="_top" xlink:title="xla::UserComputation\l::LookUpRequestForErrorReporting">
<polygon fill="#ffffff" stroke="#000000" points="190,-147.5 190,-177.5 360,-177.5 360,-147.5 190,-147.5"/>
<text text-anchor="start" x="198" y="-165.5" font-family="Helvetica,sans-Serif" font-size="10.00" fill="#000000">xla::UserComputation</text>
<text text-anchor="middle" x="275" y="-154.5" font-family="Helvetica,sans-Serif" font-size="10.00" fill="#000000">::LookUpRequestForErrorReporting</text>
</a>
</g>
</g>
<!-- Node70&#45;&gt;Node81 -->
<g id="edge11" class="edge">
<title>Node70&#45;&gt;Node81</title>
<path fill="none" stroke="#191970" d="M154.1189,-177.1523C162.5478,-176.1306 171.1994,-175.0819 179.8124,-174.0379"/>
<polygon fill="#191970" stroke="#191970" points="180.3839,-177.4943 189.8901,-172.8164 179.5415,-170.5452 180.3839,-177.4943"/>
</g>
<!-- Node82 -->
<g id="node13" class="node">
<title>Node82</title>
<g id="a_node13"><a xlink:href="../../db/dbb/classxla_1_1UserComputation.html#a7df49647b381eddf6a4476cede258109" target="_top" xlink:title="xla::UserComputation\l::GetShape">
<polygon fill="#ffffff" stroke="#000000" points="219,-98.5 219,-128.5 331,-128.5 331,-98.5 219,-98.5"/>
<text text-anchor="start" x="227" y="-116.5" font-family="Helvetica,sans-Serif" font-size="10.00" fill="#000000">xla::UserComputation</text>
<text text-anchor="middle" x="275" y="-105.5" font-family="Helvetica,sans-Serif" font-size="10.00" fill="#000000">::GetShape</text>
</a>
</g>
</g>
<!-- Node70&#45;&gt;Node82 -->
<g id="edge13" class="edge">
<title>Node70&#45;&gt;Node82</title>
<path fill="none" stroke="#191970" d="M97.5417,-176.924C119.971,-166.6695 157.0904,-150.2847 190,-138.5 196.6705,-136.1113 203.6925,-133.7729 210.7235,-131.5439"/>
<polygon fill="#191970" stroke="#191970" points="211.7707,-134.8836 220.2846,-128.5778 209.6965,-128.198 211.7707,-134.8836"/>
</g>
<!-- Node83 -->
<g id="node14" class="node">
<title>Node83</title>
<g id="a_node14"><a xlink:href="../../d1/d10/classxla_1_1Service.html#a6ad3184af8a6365d1098539edfd8be14" target="_top" xlink:title="xla::Service::CreateModule\lConfig">
<polygon fill="#ffffff" stroke="#000000" points="207.5,-.5 207.5,-30.5 342.5,-30.5 342.5,-.5 207.5,-.5"/>
<text text-anchor="start" x="215.5" y="-18.5" font-family="Helvetica,sans-Serif" font-size="10.00" fill="#000000">xla::Service::CreateModule</text>
<text text-anchor="middle" x="275" y="-7.5" font-family="Helvetica,sans-Serif" font-size="10.00" fill="#000000">Config</text>
</a>
</g>
</g>
<!-- Node70&#45;&gt;Node83 -->
<g id="edge15" class="edge">
<title>Node70&#45;&gt;Node83</title>
<path fill="none" stroke="#191970" d="M81.5814,-176.894C94.6135,-150.6227 134.5632,-77.0459 190,-39.5 192.5829,-37.7507 195.292,-36.1279 198.091,-34.6224"/>
<polygon fill="#191970" stroke="#191970" points="199.793,-37.6878 207.2916,-30.203 196.7621,-31.378 199.793,-37.6878"/>
</g>
<!-- Node84 -->
<g id="node15" class="node">
<title>Node84</title>
<g id="a_node15"><a xlink:href="../../d8/d42/classxla_1_1ComputationTracker.html#abaeb463c7038bcc61515a19e18fe0714" target="_top" xlink:title="xla::ComputationTracker\l::BuildHloModule">
<polygon fill="#ffffff" stroke="#000000" points="214,-344.5 214,-374.5 336,-374.5 336,-344.5 214,-344.5"/>
<text text-anchor="start" x="222" y="-362.5" font-family="Helvetica,sans-Serif" font-size="10.00" fill="#000000">xla::ComputationTracker</text>
<text text-anchor="middle" x="275" y="-351.5" font-family="Helvetica,sans-Serif" font-size="10.00" fill="#000000">::BuildHloModule</text>
</a>
</g>
</g>
<!-- Node70&#45;&gt;Node84 -->
<g id="edge16" class="edge">
<title>Node70&#45;&gt;Node84</title>
<path fill="none" stroke="#191970" d="M87.9274,-196.0477C118.6848,-222.9215 206.5755,-299.715 250.0413,-337.6927"/>
<polygon fill="#191970" stroke="#191970" points="247.7832,-340.3674 257.6166,-344.3114 252.3889,-335.0961 247.7832,-340.3674"/>
</g>
<!-- Node72 -->
<g id="node3" class="node">
<title>Node72</title>
<g id="a_node3"><a xlink:href="../../d8/d42/classxla_1_1ComputationTracker.html#aa2f38317a41c1c64fba497780bc39169" target="_top" xlink:title="xla::ComputationTracker\l::ResolveInternal">
<polygon fill="#ffffff" stroke="#000000" points="606,-376.5 606,-406.5 728,-406.5 728,-376.5 606,-376.5"/>
<text text-anchor="start" x="614" y="-394.5" font-family="Helvetica,sans-Serif" font-size="10.00" fill="#000000">xla::ComputationTracker</text>
<text text-anchor="middle" x="667" y="-383.5" font-family="Helvetica,sans-Serif" font-size="10.00" fill="#000000">::ResolveInternal</text>
</a>
</g>
</g>
<!-- Node71&#45;&gt;Node72 -->
<g id="edge2" class="edge">
<title>Node71&#45;&gt;Node72</title>
<path fill="none" stroke="#191970" d="M500.6795,-498.2953C534.5705,-476.5337 596.9997,-436.4475 634.9825,-412.0586"/>
<polygon fill="#191970" stroke="#191970" points="637.0954,-414.8614 643.619,-406.5131 633.3132,-408.9711 637.0954,-414.8614"/>
</g>
<!-- Node75 -->
<g id="node6" class="node">
<title>Node75</title>
<g id="a_node6"><a xlink:href="../../db/dbb/classxla_1_1UserComputation.html#aee9eeba8ef86ffdae79b8fe9d74cd99b" target="_top" xlink:title="xla::UserComputation\l::version">
<polygon fill="#ffffff" stroke="#000000" points="776,-278.5 776,-308.5 888,-308.5 888,-278.5 776,-278.5"/>
<text text-anchor="start" x="784" y="-296.5" font-family="Helvetica,sans-Serif" font-size="10.00" fill="#000000">xla::UserComputation</text>
<text text-anchor="middle" x="832" y="-285.5" font-family="Helvetica,sans-Serif" font-size="10.00" fill="#000000">::version</text>
</a>
</g>
</g>
<!-- Node74&#45;&gt;Node75 -->
<g id="edge5" class="edge">
<title>Node74&#45;&gt;Node75</title>
<path fill="none" stroke="#191970" d="M717.8518,-259.6014C734.8692,-264.6551 754.0042,-270.3376 771.6734,-275.5848"/>
<polygon fill="#191970" stroke="#191970" points="770.7335,-278.9567 781.3161,-278.4484 772.7263,-272.2464 770.7335,-278.9567"/>
</g>
<!-- Node76 -->
<g id="node7" class="node">
<title>Node76</title>
<g id="a_node7"><a xlink:href="../../db/dbb/classxla_1_1UserComputation.html#a4fef8fc438e3b3b2c396de862820af3e" target="_top" xlink:title="xla::UserComputation\l::GetVersionedHandle">
<polygon fill="#ffffff" stroke="#000000" points="924,-278.5 924,-308.5 1036,-308.5 1036,-278.5 924,-278.5"/>
<text text-anchor="start" x="932" y="-296.5" font-family="Helvetica,sans-Serif" font-size="10.00" fill="#000000">xla::UserComputation</text>
<text text-anchor="middle" x="980" y="-285.5" font-family="Helvetica,sans-Serif" font-size="10.00" fill="#000000">::GetVersionedHandle</text>
</a>
</g>
</g>
<!-- Node75&#45;&gt;Node76 -->
<g id="edge6" class="edge">
<title>Node75&#45;&gt;Node76</title>
<path fill="none" stroke="#191970" d="M888.3747,-293.5C896.6214,-293.5 905.1782,-293.5 913.6023,-293.5"/>
<polygon fill="#191970" stroke="#191970" points="913.7821,-297.0001 923.7821,-293.5 913.7821,-290.0001 913.7821,-297.0001"/>
</g>
<!-- Node77 -->
<g id="node8" class="node">
<title>Node77</title>
<g id="a_node8"><a xlink:href="../../db/dbb/classxla_1_1UserComputation.html#af44a77b35aaed6ff22d5fbb266dd824e" target="_top" xlink:title="xla::UserComputation\l::GetVersionedHandleInternal">
<polygon fill="#ffffff" stroke="#000000" points="1072,-278.5 1072,-308.5 1216,-308.5 1216,-278.5 1072,-278.5"/>
<text text-anchor="start" x="1080" y="-296.5" font-family="Helvetica,sans-Serif" font-size="10.00" fill="#000000">xla::UserComputation</text>
<text text-anchor="middle" x="1144" y="-285.5" font-family="Helvetica,sans-Serif" font-size="10.00" fill="#000000">::GetVersionedHandleInternal</text>
</a>
</g>
</g>
<!-- Node76&#45;&gt;Node77 -->
<g id="edge7" class="edge">
<title>Node76&#45;&gt;Node77</title>
<path fill="none" stroke="#191970" d="M1036.4395,-293.5C1044.6308,-293.5 1053.2002,-293.5 1061.7728,-293.5"/>
<polygon fill="#191970" stroke="#191970" points="1061.8155,-297.0001 1071.8155,-293.5 1061.8155,-290.0001 1061.8155,-297.0001"/>
</g>
<!-- Node79 -->
<g id="node10" class="node">
<title>Node79</title>
<g id="a_node10"><a xlink:href="../../db/dbb/classxla_1_1UserComputation.html#a89b9415667968217b87209ccdf989070" target="_top" xlink:title="xla::UserComputation\l::LookUpRequest">
<polygon fill="#ffffff" stroke="#000000" points="421,-101.5 421,-131.5 533,-131.5 533,-101.5 421,-101.5"/>
<text text-anchor="start" x="429" y="-119.5" font-family="Helvetica,sans-Serif" font-size="10.00" fill="#000000">xla::UserComputation</text>
<text text-anchor="middle" x="477" y="-108.5" font-family="Helvetica,sans-Serif" font-size="10.00" fill="#000000">::LookUpRequest</text>
</a>
</g>
</g>
<!-- Node78&#45;&gt;Node79 -->
<g id="edge9" class="edge">
<title>Node78&#45;&gt;Node79</title>
<path fill="none" stroke="#191970" d="M331,-78.9158C355.8479,-85.3123 385.2634,-92.8846 411.1566,-99.5502"/>
<polygon fill="#191970" stroke="#191970" points="410.3342,-102.9526 420.8911,-102.0561 412.0794,-96.1736 410.3342,-102.9526"/>
</g>
<!-- Node80 -->
<g id="node11" class="node">
<title>Node80</title>
<g id="a_node11"><a xlink:href="../../dc/d9d/namespacexla_1_1anonymous__namespace_02user__computation_8cc_03.html#acaaec29f8a4042ed7c65dd6ac58028f6" target="_top" xlink:title="xla::anonymous_namespace\l\{user_computation::cc\}\l::PureFunctionalVisitor">
<polygon fill="#ffffff" stroke="#000000" points="406.5,-41 406.5,-82 547.5,-82 547.5,-41 406.5,-41"/>
<text text-anchor="start" x="414.5" y="-70" font-family="Helvetica,sans-Serif" font-size="10.00" fill="#000000">xla::anonymous_namespace</text>
<text text-anchor="start" x="414.5" y="-59" font-family="Helvetica,sans-Serif" font-size="10.00" fill="#000000">{user_computation::cc}</text>
<text text-anchor="middle" x="477" y="-48" font-family="Helvetica,sans-Serif" font-size="10.00" fill="#000000">::PureFunctionalVisitor</text>
</a>
</g>
</g>
<!-- Node78&#45;&gt;Node80 -->
<g id="edge10" class="edge">
<title>Node78&#45;&gt;Node80</title>
<path fill="none" stroke="#191970" d="M331,-63.6683C351.1593,-63.3689 374.325,-63.0249 396.1771,-62.7003"/>
<polygon fill="#191970" stroke="#191970" points="396.4964,-66.1961 406.4433,-62.5479 396.3924,-59.1969 396.4964,-66.1961"/>
</g>
<!-- Node81&#45;&gt;Node79 -->
<g id="edge12" class="edge">
<title>Node81&#45;&gt;Node79</title>
<path fill="none" stroke="#191970" d="M341.1424,-147.4379C363.5938,-142.3252 388.6646,-136.616 411.0973,-131.5075"/>
<polygon fill="#191970" stroke="#191970" points="411.8927,-134.9161 420.8659,-129.283 410.3384,-128.0908 411.8927,-134.9161"/>
</g>
<!-- Node82&#45;&gt;Node79 -->
<g id="edge14" class="edge">
<title>Node82&#45;&gt;Node79</title>
<path fill="none" stroke="#191970" d="M331,-114.3317C355.7384,-114.6991 385.0043,-115.1337 410.8142,-115.517"/>
<polygon fill="#191970" stroke="#191970" points="410.8401,-119.0177 420.8911,-115.6667 410.9442,-112.0185 410.8401,-119.0177"/>
</g>
<!-- Node84&#45;&gt;Node72 -->
<g id="edge18" class="edge">
<title>Node84&#45;&gt;Node72</title>
<path fill="none" stroke="#191970" d="M336.25,-364.5C406.4825,-370.2333 521.4552,-379.6188 595.6657,-385.6768"/>
<polygon fill="#191970" stroke="#191970" points="595.606,-389.1835 605.8576,-386.5088 596.1756,-382.2067 595.606,-389.1835"/>
</g>
<!-- Node85 -->
<g id="node16" class="node">
<title>Node85</title>
<g id="a_node16"><a xlink:href="../../d8/d42/classxla_1_1ComputationTracker.html#ac2cb38ead1ce3ed118d38e5ab7f7c3f6" target="_top" xlink:title="xla::ComputationTracker\l::ToStringInternal">
<polygon fill="#ffffff" stroke="#000000" points="416,-410.5 416,-440.5 538,-440.5 538,-410.5 416,-410.5"/>
<text text-anchor="start" x="424" y="-428.5" font-family="Helvetica,sans-Serif" font-size="10.00" fill="#000000">xla::ComputationTracker</text>
<text text-anchor="middle" x="477" y="-417.5" font-family="Helvetica,sans-Serif" font-size="10.00" fill="#000000">::ToStringInternal</text>
</a>
</g>
</g>
<!-- Node84&#45;&gt;Node85 -->
<g id="edge17" class="edge">
<title>Node84&#45;&gt;Node85</title>
<path fill="none" stroke="#191970" d="M321.0897,-374.559C350.8479,-384.282 389.7432,-396.9904 421.24,-407.2814"/>
<polygon fill="#191970" stroke="#191970" points="420.1665,-410.6127 430.759,-410.3916 422.3406,-403.9588 420.1665,-410.6127"/>
</g>
<!-- Node86 -->
<g id="node17" class="node">
<title>Node86</title>
<g id="a_node17"><a xlink:href="../../d8/d42/classxla_1_1ComputationTracker.html#a8a16c1575ce6ceb15e15ba2a7d9b65fa" target="_top" xlink:title="xla::ComputationTracker\l::ComputeComputationPostOrder">
<polygon fill="#ffffff" stroke="#000000" points="396,-322.5 396,-352.5 558,-352.5 558,-322.5 396,-322.5"/>
<text text-anchor="start" x="404" y="-340.5" font-family="Helvetica,sans-Serif" font-size="10.00" fill="#000000">xla::ComputationTracker</text>
<text text-anchor="middle" x="477" y="-329.5" font-family="Helvetica,sans-Serif" font-size="10.00" fill="#000000">::ComputeComputationPostOrder</text>
</a>
</g>
</g>
<!-- Node84&#45;&gt;Node86 -->
<g id="edge19" class="edge">
<title>Node84&#45;&gt;Node86</title>
<path fill="none" stroke="#191970" d="M336.1548,-352.8396C351.7332,-351.1429 368.8176,-349.2822 385.5494,-347.46"/>
<polygon fill="#191970" stroke="#191970" points="386.3429,-350.8943 395.9051,-346.3321 385.5849,-343.9355 386.3429,-350.8943"/>
</g>
<!-- Node88 -->
<g id="node19" class="node">
<title>Node88</title>
<g id="a_node19"><a xlink:href="../../db/dbb/classxla_1_1UserComputation.html#af22e122e5671d4f05628c8aae80b8aee" target="_top" xlink:title="xla::UserComputation\l::name">
<polygon fill="#ffffff" stroke="#000000" points="776,-327.5 776,-357.5 888,-357.5 888,-327.5 776,-327.5"/>
<text text-anchor="start" x="784" y="-345.5" font-family="Helvetica,sans-Serif" font-size="10.00" fill="#000000">xla::UserComputation</text>
<text text-anchor="middle" x="832" y="-334.5" font-family="Helvetica,sans-Serif" font-size="10.00" fill="#000000">::name</text>
</a>
</g>
</g>
<!-- Node84&#45;&gt;Node88 -->
<g id="edge24" class="edge">
<title>Node84&#45;&gt;Node88</title>
<path fill="none" stroke="#191970" d="M336.0383,-367.7864C344.6576,-370.824 352.9648,-374.9378 360,-380.5 387.4432,-402.1972 366.1366,-432.277 396,-450.5 457.4609,-488.0041 486.3068,-457.1392 558,-450.5 639.9377,-442.9121 665.2383,-450.881 740,-416.5 767.1314,-404.023 793.1779,-381.781 810.5874,-364.9293"/>
<polygon fill="#191970" stroke="#191970" points="813.3194,-367.1491 817.9515,-357.6204 808.3883,-362.1807 813.3194,-367.1491"/>
</g>
<!-- Node89 -->
<g id="node20" class="node">
<title>Node89</title>
<g id="a_node20"><a xlink:href="../../db/dbb/classxla_1_1UserComputation.html#a7ab95fda9f35270dfbf0868b96f636c6" target="_top" xlink:title="xla::UserComputation\l::BuildHloComputation">
<polygon fill="#ffffff" stroke="#000000" points="609.5,-278.5 609.5,-308.5 724.5,-308.5 724.5,-278.5 609.5,-278.5"/>
<text text-anchor="start" x="617.5" y="-296.5" font-family="Helvetica,sans-Serif" font-size="10.00" fill="#000000">xla::UserComputation</text>
<text text-anchor="middle" x="667" y="-285.5" font-family="Helvetica,sans-Serif" font-size="10.00" fill="#000000">::BuildHloComputation</text>
</a>
</g>
</g>
<!-- Node84&#45;&gt;Node89 -->
<g id="edge25" class="edge">
<title>Node84&#45;&gt;Node89</title>
<path fill="none" stroke="#191970" d="M306.8274,-344.4848C330.7861,-333.908 364.7362,-320.4413 396,-313.5 464.1782,-298.3629 544.1262,-294.0445 599.4337,-293.0943"/>
<polygon fill="#191970" stroke="#191970" points="599.5156,-296.5936 609.4657,-292.9543 599.4178,-289.5943 599.5156,-296.5936"/>
</g>
<!-- Node86&#45;&gt;Node72 -->
<g id="edge20" class="edge">
<title>Node86&#45;&gt;Node72</title>
<path fill="none" stroke="#191970" d="M529.9256,-352.542C552.9908,-359.0974 580.2027,-366.8313 604.2764,-373.6733"/>
<polygon fill="#191970" stroke="#191970" points="603.4531,-377.0779 614.029,-376.4451 605.3668,-370.3445 603.4531,-377.0779"/>
</g>
<!-- Node87 -->
<g id="node18" class="node">
<title>Node87</title>
<g id="a_node18"><a xlink:href="../../db/dbb/classxla_1_1UserComputation.html#add02ff5e2d9daf549727b8a4ed96f116" target="_top" xlink:title="xla::UserComputation\l::GetEmbeddedComputations">
<polygon fill="#ffffff" stroke="#000000" points="594,-327.5 594,-357.5 740,-357.5 740,-327.5 594,-327.5"/>
<text text-anchor="start" x="602" y="-345.5" font-family="Helvetica,sans-Serif" font-size="10.00" fill="#000000">xla::UserComputation</text>
<text text-anchor="middle" x="667" y="-334.5" font-family="Helvetica,sans-Serif" font-size="10.00" fill="#000000">::GetEmbeddedComputations</text>
</a>
</g>
</g>
<!-- Node86&#45;&gt;Node87 -->
<g id="edge21" class="edge">
<title>Node86&#45;&gt;Node87</title>
<path fill="none" stroke="#191970" d="M558.1282,-339.635C566.5896,-339.8576 575.201,-340.0842 583.6862,-340.3075"/>
<polygon fill="#191970" stroke="#191970" points="583.8664,-343.8134 593.955,-340.5778 584.0506,-336.8158 583.8664,-343.8134"/>
</g>
<!-- Node87&#45;&gt;Node75 -->
<g id="edge23" class="edge">
<title>Node87&#45;&gt;Node75</title>
<path fill="none" stroke="#191970" d="M717.8518,-327.3986C734.8692,-322.3449 754.0042,-316.6624 771.6734,-311.4152"/>
<polygon fill="#191970" stroke="#191970" points="772.7263,-314.7536 781.3161,-308.5516 770.7335,-308.0433 772.7263,-314.7536"/>
</g>
<!-- Node87&#45;&gt;Node88 -->
<g id="edge22" class="edge">
<title>Node87&#45;&gt;Node88</title>
<path fill="none" stroke="#191970" d="M740.3323,-342.5C748.7765,-342.5 757.3504,-342.5 765.6943,-342.5"/>
<polygon fill="#191970" stroke="#191970" points="765.7337,-346.0001 775.7337,-342.5 765.7336,-339.0001 765.7337,-346.0001"/>
</g>
<!-- Node89&#45;&gt;Node75 -->
<g id="edge26" class="edge">
<title>Node89&#45;&gt;Node75</title>
<path fill="none" stroke="#191970" d="M724.709,-293.5C737.9649,-293.5 752.1621,-293.5 765.7474,-293.5"/>
<polygon fill="#191970" stroke="#191970" points="765.9911,-297.0001 775.9911,-293.5 765.991,-290.0001 765.9911,-297.0001"/>
</g>
<!-- Node89&#45;&gt;Node88 -->
<g id="edge27" class="edge">
<title>Node89&#45;&gt;Node88</title>
<path fill="none" stroke="#191970" d="M717.8518,-308.6014C734.8692,-313.6551 754.0042,-319.3376 771.6734,-324.5848"/>
<polygon fill="#191970" stroke="#191970" points="770.7335,-327.9567 781.3161,-327.4484 772.7263,-321.2464 770.7335,-327.9567"/>
</g>
</g>
</svg>
