<?xml version="1.0" encoding="UTF-8" standalone="no"?>
<!DOCTYPE svg PUBLIC "-//W3C//DTD SVG 1.1//EN"
 "http://www.w3.org/Graphics/SVG/1.1/DTD/svg11.dtd">
<!-- Generated by graphviz version 2.40.1 (20161225.0304)
 -->
<!-- Title: xla::Service::GetLocalShape Pages: 1 -->
<svg width="465pt" height="88pt"
 viewBox="0.00 0.00 465.00 88.00" xmlns="http://www.w3.org/2000/svg" xmlns:xlink="http://www.w3.org/1999/xlink">
<g id="graph0" class="graph" transform="scale(1 1) rotate(0) translate(4 84)">
<title>xla::Service::GetLocalShape</title>
<polygon fill="#ffffff" stroke="transparent" points="-4,4 -4,-84 461,-84 461,4 -4,4"/>
<!-- Node397 -->
<g id="node1" class="node">
<title>Node397</title>
<polygon fill="#bfbfbf" stroke="#000000" points="0,-30 0,-49 141,-49 141,-30 0,-30"/>
<text text-anchor="middle" x="70.5" y="-37" font-family="Helvetica,sans-Serif" font-size="10.00" fill="#000000">xla::Service::GetLocalShape</text>
</g>
<!-- Node398 -->
<g id="node2" class="node">
<title>Node398</title>
<g id="a_node2"><a xlink:href="../../d8/d42/classxla_1_1ComputationTracker.html#add84b3f565b288fdcfdfad55bab8f3ee" target="_top" xlink:title="xla::ComputationTracker\l::Resolve">
<polygon fill="#ffffff" stroke="#000000" points="177,-49.5 177,-79.5 299,-79.5 299,-49.5 177,-49.5"/>
<text text-anchor="start" x="185" y="-67.5" font-family="Helvetica,sans-Serif" font-size="10.00" fill="#000000">xla::ComputationTracker</text>
<text text-anchor="middle" x="238" y="-56.5" font-family="Helvetica,sans-Serif" font-size="10.00" fill="#000000">::Resolve</text>
</a>
</g>
</g>
<!-- Node397&#45;&gt;Node398 -->
<g id="edge1" class="edge">
<title>Node397&#45;&gt;Node398</title>
<path fill="none" stroke="#191970" d="M134.3024,-49.0227C144.8816,-50.6017 155.9118,-52.248 166.6628,-53.8527"/>
<polygon fill="#191970" stroke="#191970" points="166.4541,-57.3602 176.8612,-55.3748 167.4875,-50.4369 166.4541,-57.3602"/>
</g>
<!-- Node400 -->
<g id="node4" class="node">
<title>Node400</title>
<g id="a_node4"><a xlink:href="../../db/dbb/classxla_1_1UserComputation.html#a7df49647b381eddf6a4476cede258109" target="_top" xlink:title="xla::UserComputation\l::GetShape">
<polygon fill="#ffffff" stroke="#000000" points="182,-.5 182,-30.5 294,-30.5 294,-.5 182,-.5"/>
<text text-anchor="start" x="190" y="-18.5" font-family="Helvetica,sans-Serif" font-size="10.00" fill="#000000">xla::UserComputation</text>
<text text-anchor="middle" x="238" y="-7.5" font-family="Helvetica,sans-Serif" font-size="10.00" fill="#000000">::GetShape</text>
</a>
</g>
</g>
<!-- Node397&#45;&gt;Node400 -->
<g id="edge3" class="edge">
<title>Node397&#45;&gt;Node400</title>
<path fill="none" stroke="#191970" d="M137.1817,-29.9456C148.4972,-28.3243 160.2469,-26.6407 171.5563,-25.0203"/>
<polygon fill="#191970" stroke="#191970" points="172.3911,-28.4365 181.7936,-23.5535 171.3982,-21.5073 172.3911,-28.4365"/>
</g>
<!-- Node399 -->
<g id="node3" class="node">
<title>Node399</title>
<g id="a_node3"><a xlink:href="../../d8/d42/classxla_1_1ComputationTracker.html#aa2f38317a41c1c64fba497780bc39169" target="_top" xlink:title="xla::ComputationTracker\l::ResolveInternal">
<polygon fill="#ffffff" stroke="#000000" points="335,-49.5 335,-79.5 457,-79.5 457,-49.5 335,-49.5"/>
<text text-anchor="start" x="343" y="-67.5" font-family="Helvetica,sans-Serif" font-size="10.00" fill="#000000">xla::ComputationTracker</text>
<text text-anchor="middle" x="396" y="-56.5" font-family="Helvetica,sans-Serif" font-size="10.00" fill="#000000">::ResolveInternal</text>
</a>
</g>
</g>
<!-- Node398&#45;&gt;Node399 -->
<g id="edge2" class="edge">
<title>Node398&#45;&gt;Node399</title>
<path fill="none" stroke="#191970" d="M299.0869,-64.5C307.5129,-64.5 316.226,-64.5 324.8146,-64.5"/>
<polygon fill="#191970" stroke="#191970" points="324.8151,-68.0001 334.815,-64.5 324.815,-61.0001 324.8151,-68.0001"/>
</g>
<!-- Node401 -->
<g id="node5" class="node">
<title>Node401</title>
<g id="a_node5"><a xlink:href="../../db/dbb/classxla_1_1UserComputation.html#a89b9415667968217b87209ccdf989070" target="_top" xlink:title="xla::UserComputation\l::LookUpRequest">
<polygon fill="#ffffff" stroke="#000000" points="340,-.5 340,-30.5 452,-30.5 452,-.5 340,-.5"/>
<text text-anchor="start" x="348" y="-18.5" font-family="Helvetica,sans-Serif" font-size="10.00" fill="#000000">xla::UserComputation</text>
<text text-anchor="middle" x="396" y="-7.5" font-family="Helvetica,sans-Serif" font-size="10.00" fill="#000000">::LookUpRequest</text>
</a>
</g>
</g>
<!-- Node400&#45;&gt;Node401 -->
<g id="edge4" class="edge">
<title>Node400&#45;&gt;Node401</title>
<path fill="none" stroke="#191970" d="M294.1498,-15.5C305.6065,-15.5 317.7646,-15.5 329.5413,-15.5"/>
<polygon fill="#191970" stroke="#191970" points="329.765,-19.0001 339.765,-15.5 329.765,-12.0001 329.765,-19.0001"/>
</g>
</g>
</svg>
