<?xml version="1.0" encoding="UTF-8" standalone="no"?>
<!DOCTYPE svg PUBLIC "-//W3C//DTD SVG 1.1//EN"
 "http://www.w3.org/Graphics/SVG/1.1/DTD/svg11.dtd">
<!-- Generated by graphviz version 2.40.1 (20161225.0304)
 -->
<!-- Title: xla::Service::ExecuteParallel Pages: 1 -->
<svg width="1406pt" height="606pt"
 viewBox="0.00 0.00 1406.00 605.56" xmlns="http://www.w3.org/2000/svg" xmlns:xlink="http://www.w3.org/1999/xlink">
<g id="graph0" class="graph" transform="scale(1 1) rotate(0) translate(4 601.5593)">
<title>xla::Service::ExecuteParallel</title>
<polygon fill="#ffffff" stroke="transparent" points="-4,4 -4,-601.5593 1402,-601.5593 1402,4 -4,4"/>
<!-- Node301 -->
<g id="node1" class="node">
<title>Node301</title>
<polygon fill="#bfbfbf" stroke="#000000" points="0,-305.0642 0,-324.0642 143,-324.0642 143,-305.0642 0,-305.0642"/>
<text text-anchor="middle" x="71.5" y="-312.0642" font-family="Helvetica,sans-Serif" font-size="10.00" fill="#000000">xla::Service::ExecuteParallel</text>
</g>
<!-- Node302 -->
<g id="node2" class="node">
<title>Node302</title>
<g id="a_node2"><a xlink:href="../../d5/d7a/classxla_1_1ServiceOptions.html#a16503bc7e5b638f42419425b48d648d7" target="_top" xlink:title="xla::ServiceOptions\l::number_of_replicas">
<polygon fill="#ffffff" stroke="#000000" points="556.5,-337.5642 556.5,-367.5642 663.5,-367.5642 663.5,-337.5642 556.5,-337.5642"/>
<text text-anchor="start" x="564.5" y="-355.5642" font-family="Helvetica,sans-Serif" font-size="10.00" fill="#000000">xla::ServiceOptions</text>
<text text-anchor="middle" x="610" y="-344.5642" font-family="Helvetica,sans-Serif" font-size="10.00" fill="#000000">::number_of_replicas</text>
</a>
</g>
</g>
<!-- Node301&#45;&gt;Node302 -->
<g id="edge1" class="edge">
<title>Node301&#45;&gt;Node302</title>
<path fill="none" stroke="#191970" d="M84.5819,-324.0689C104.0351,-337.5826 142.2529,-361.7929 179,-371.5642 313.8935,-407.4334 354.1914,-392.2287 493,-377.5642 510.4399,-375.7218 529.1024,-372.3754 546.2842,-368.7174"/>
<polygon fill="#191970" stroke="#191970" points="547.1932,-372.1013 556.209,-366.5367 545.6909,-365.2644 547.1932,-372.1013"/>
</g>
<!-- Node303 -->
<g id="node3" class="node">
<title>Node303</title>
<g id="a_node3"><a xlink:href="../../d1/d10/classxla_1_1Service.html#a8077f291fc51fe58ed0a51921b67a8da" target="_top" xlink:title="xla::Service::GetExecutors">
<polygon fill="#ffffff" stroke="#000000" points="187,-305.0642 187,-324.0642 321,-324.0642 321,-305.0642 187,-305.0642"/>
<text text-anchor="middle" x="254" y="-312.0642" font-family="Helvetica,sans-Serif" font-size="10.00" fill="#000000">xla::Service::GetExecutors</text>
</a>
</g>
</g>
<!-- Node301&#45;&gt;Node303 -->
<g id="edge2" class="edge">
<title>Node301&#45;&gt;Node303</title>
<path fill="none" stroke="#191970" d="M143.105,-314.5642C154.1146,-314.5642 165.5247,-314.5642 176.6524,-314.5642"/>
<polygon fill="#191970" stroke="#191970" points="176.7727,-318.0643 186.7727,-314.5642 176.7726,-311.0643 176.7727,-318.0643"/>
</g>
<!-- Node306 -->
<g id="node6" class="node">
<title>Node306</title>
<g id="a_node6"><a xlink:href="../../d8/d42/classxla_1_1ComputationTracker.html#add84b3f565b288fdcfdfad55bab8f3ee" target="_top" xlink:title="xla::ComputationTracker\l::Resolve">
<polygon fill="#ffffff" stroke="#000000" points="549,-36.5642 549,-66.5642 671,-66.5642 671,-36.5642 549,-36.5642"/>
<text text-anchor="start" x="557" y="-54.5642" font-family="Helvetica,sans-Serif" font-size="10.00" fill="#000000">xla::ComputationTracker</text>
<text text-anchor="middle" x="610" y="-43.5642" font-family="Helvetica,sans-Serif" font-size="10.00" fill="#000000">::Resolve</text>
</a>
</g>
</g>
<!-- Node301&#45;&gt;Node306 -->
<g id="edge6" class="edge">
<title>Node301&#45;&gt;Node306</title>
<path fill="none" stroke="#191970" d="M75.0113,-304.9777C85.9242,-276.4556 121.9772,-191.2249 179,-144.5642 282.4971,-59.8746 445.4547,-47.4632 538.5191,-48.1213"/>
<polygon fill="#191970" stroke="#191970" points="538.6412,-51.623 548.6838,-48.2473 538.728,-44.6235 538.6412,-51.623"/>
</g>
<!-- Node308 -->
<g id="node8" class="node">
<title>Node308</title>
<g id="a_node8"><a xlink:href="../../db/dbb/classxla_1_1UserComputation.html#a4fef8fc438e3b3b2c396de862820af3e" target="_top" xlink:title="xla::UserComputation\l::GetVersionedHandle">
<polygon fill="#ffffff" stroke="#000000" points="1106,-381.5642 1106,-411.5642 1218,-411.5642 1218,-381.5642 1106,-381.5642"/>
<text text-anchor="start" x="1114" y="-399.5642" font-family="Helvetica,sans-Serif" font-size="10.00" fill="#000000">xla::UserComputation</text>
<text text-anchor="middle" x="1162" y="-388.5642" font-family="Helvetica,sans-Serif" font-size="10.00" fill="#000000">::GetVersionedHandle</text>
</a>
</g>
</g>
<!-- Node301&#45;&gt;Node308 -->
<g id="edge8" class="edge">
<title>Node301&#45;&gt;Node308</title>
<path fill="none" stroke="#191970" d="M75.5517,-324.3835C87.4204,-352.0401 124.7258,-431.4974 179,-476.5642 271.8495,-553.6623 308.3139,-582.5642 429,-582.5642 429,-582.5642 429,-582.5642 810,-582.5642 925.8637,-582.5642 972.4608,-626.0983 1070,-563.5642 1121.0704,-530.8221 1146.1693,-459.3711 1156.3085,-421.4149"/>
<polygon fill="#191970" stroke="#191970" points="1159.7174,-422.2109 1158.7807,-411.6575 1152.9318,-420.4916 1159.7174,-422.2109"/>
</g>
<!-- Node310 -->
<g id="node10" class="node">
<title>Node310</title>
<g id="a_node10"><a xlink:href="../../db/dbb/classxla_1_1UserComputation.html#a3c6d076f89562622a79af3ea252dcdd7" target="_top" xlink:title="xla::UserComputation\l::request_count">
<polygon fill="#ffffff" stroke="#000000" points="373,-425.5642 373,-455.5642 485,-455.5642 485,-425.5642 373,-425.5642"/>
<text text-anchor="start" x="381" y="-443.5642" font-family="Helvetica,sans-Serif" font-size="10.00" fill="#000000">xla::UserComputation</text>
<text text-anchor="middle" x="429" y="-432.5642" font-family="Helvetica,sans-Serif" font-size="10.00" fill="#000000">::request_count</text>
</a>
</g>
</g>
<!-- Node301&#45;&gt;Node310 -->
<g id="edge10" class="edge">
<title>Node301&#45;&gt;Node310</title>
<path fill="none" stroke="#191970" d="M78.8393,-324.2784C94.6335,-344.3636 134.0757,-390.2762 179,-410.5642 237.2659,-436.8774 310.5512,-442.9169 362.6788,-443.259"/>
<polygon fill="#191970" stroke="#191970" points="362.8127,-446.7591 372.8115,-443.2558 362.8104,-439.7591 362.8127,-446.7591"/>
</g>
<!-- Node312 -->
<g id="node12" class="node">
<title>Node312</title>
<g id="a_node12"><a xlink:href="../../db/dbb/classxla_1_1UserComputation.html#a186a2daf1d487b8f35cf85f0dba034bf" target="_top" xlink:title="xla::UserComputation\l::ComputeProgramShape">
<polygon fill="#ffffff" stroke="#000000" points="546.5,-466.5642 546.5,-496.5642 673.5,-496.5642 673.5,-466.5642 546.5,-466.5642"/>
<text text-anchor="start" x="554.5" y="-484.5642" font-family="Helvetica,sans-Serif" font-size="10.00" fill="#000000">xla::UserComputation</text>
<text text-anchor="middle" x="610" y="-473.5642" font-family="Helvetica,sans-Serif" font-size="10.00" fill="#000000">::ComputeProgramShape</text>
</a>
</g>
</g>
<!-- Node301&#45;&gt;Node312 -->
<g id="edge13" class="edge">
<title>Node301&#45;&gt;Node312</title>
<path fill="none" stroke="#191970" d="M76.4674,-324.123C89.5452,-348.2055 127.498,-411.4483 179,-439.5642 291.7821,-501.1342 446.0801,-499.213 536.1893,-491.1342"/>
<polygon fill="#191970" stroke="#191970" points="536.6897,-494.6025 546.3155,-490.176 536.0302,-487.6337 536.6897,-494.6025"/>
</g>
<!-- Node317 -->
<g id="node17" class="node">
<title>Node317</title>
<g id="a_node17"><a xlink:href="../../d1/d10/classxla_1_1Service.html#a0130034cbdb7d0a389b8b0822c785145" target="_top" xlink:title="xla::Service::GetArguments">
<polygon fill="#ffffff" stroke="#000000" points="185.5,-343.0642 185.5,-362.0642 322.5,-362.0642 322.5,-343.0642 185.5,-343.0642"/>
<text text-anchor="middle" x="254" y="-350.0642" font-family="Helvetica,sans-Serif" font-size="10.00" fill="#000000">xla::Service::GetArguments</text>
</a>
</g>
</g>
<!-- Node301&#45;&gt;Node317 -->
<g id="edge20" class="edge">
<title>Node301&#45;&gt;Node317</title>
<path fill="none" stroke="#191970" d="M117.5525,-324.1532C142.0692,-329.2581 172.4096,-335.5755 198.2502,-340.9561"/>
<polygon fill="#191970" stroke="#191970" points="197.7752,-344.4321 208.2787,-343.0442 199.2022,-337.5791 197.7752,-344.4321"/>
</g>
<!-- Node319 -->
<g id="node19" class="node">
<title>Node319</title>
<g id="a_node19"><a xlink:href="../../d1/d10/classxla_1_1Service.html#a6ad3184af8a6365d1098539edfd8be14" target="_top" xlink:title="xla::Service::CreateModule\lConfig">
<polygon fill="#ffffff" stroke="#000000" points="186.5,-206.5642 186.5,-236.5642 321.5,-236.5642 321.5,-206.5642 186.5,-206.5642"/>
<text text-anchor="start" x="194.5" y="-224.5642" font-family="Helvetica,sans-Serif" font-size="10.00" fill="#000000">xla::Service::CreateModule</text>
<text text-anchor="middle" x="254" y="-213.5642" font-family="Helvetica,sans-Serif" font-size="10.00" fill="#000000">Config</text>
</a>
</g>
</g>
<!-- Node301&#45;&gt;Node319 -->
<g id="edge24" class="edge">
<title>Node301&#45;&gt;Node319</title>
<path fill="none" stroke="#191970" d="M84.101,-304.9121C103.556,-290.3816 142.4853,-262.7621 179,-245.5642 183.0042,-243.6783 187.1951,-241.8856 191.4614,-240.1926"/>
<polygon fill="#191970" stroke="#191970" points="192.7524,-243.4465 200.8786,-236.6483 190.2867,-236.8951 192.7524,-243.4465"/>
</g>
<!-- Node320 -->
<g id="node20" class="node">
<title>Node320</title>
<g id="a_node20"><a xlink:href="../../db/dbb/classxla_1_1UserComputation.html#af22e122e5671d4f05628c8aae80b8aee" target="_top" xlink:title="xla::UserComputation\l::name">
<polygon fill="#ffffff" stroke="#000000" points="943.5,-239.5642 943.5,-269.5642 1055.5,-269.5642 1055.5,-239.5642 943.5,-239.5642"/>
<text text-anchor="start" x="951.5" y="-257.5642" font-family="Helvetica,sans-Serif" font-size="10.00" fill="#000000">xla::UserComputation</text>
<text text-anchor="middle" x="999.5" y="-246.5642" font-family="Helvetica,sans-Serif" font-size="10.00" fill="#000000">::name</text>
</a>
</g>
</g>
<!-- Node301&#45;&gt;Node320 -->
<g id="edge25" class="edge">
<title>Node301&#45;&gt;Node320</title>
<path fill="none" stroke="#191970" d="M72.7341,-304.8458C77.941,-268.0379 101.551,-135.9755 179,-70.5642 266.5407,3.3702 314.4152,-7.5642 429,-7.5642 429,-7.5642 429,-7.5642 610,-7.5642 667.1675,-7.5642 846.5705,-33.6156 893,-75.5642 928.6711,-107.7928 904.27,-136.3388 929,-177.5642 941.3066,-198.0796 959.6643,-217.9092 974.5618,-232.3065"/>
<polygon fill="#191970" stroke="#191970" points="972.3119,-234.9958 981.9864,-239.315 977.117,-229.9055 972.3119,-234.9958"/>
</g>
<!-- Node321 -->
<g id="node21" class="node">
<title>Node321</title>
<g id="a_node21"><a xlink:href="../../d1/d10/classxla_1_1Service.html#aae12155f7d9a17dd6fda837a2d1189b3" target="_top" xlink:title="xla::Service::BuildExecutables">
<polygon fill="#ffffff" stroke="#000000" points="179,-154.0642 179,-173.0642 329,-173.0642 329,-154.0642 179,-154.0642"/>
<text text-anchor="middle" x="254" y="-161.0642" font-family="Helvetica,sans-Serif" font-size="10.00" fill="#000000">xla::Service::BuildExecutables</text>
</a>
</g>
</g>
<!-- Node301&#45;&gt;Node321 -->
<g id="edge26" class="edge">
<title>Node301&#45;&gt;Node321</title>
<path fill="none" stroke="#191970" d="M78.2208,-304.739C93.6972,-282.7384 133.9943,-228.9133 179,-196.5642 189.9375,-188.7026 203.0445,-182.1419 215.2198,-176.9954"/>
<polygon fill="#191970" stroke="#191970" points="216.7528,-180.1514 224.7251,-173.1734 214.1413,-173.6568 216.7528,-180.1514"/>
</g>
<!-- Node328 -->
<g id="node28" class="node">
<title>Node328</title>
<g id="a_node28"><a xlink:href="../../d1/d10/classxla_1_1Service.html#acbad704c5046a724b0eb562a6385ef61" target="_top" xlink:title="xla::Service::ExecuteParallel\lAndRegisterResult">
<polygon fill="#ffffff" stroke="#000000" points="182.5,-255.5642 182.5,-285.5642 325.5,-285.5642 325.5,-255.5642 182.5,-255.5642"/>
<text text-anchor="start" x="190.5" y="-273.5642" font-family="Helvetica,sans-Serif" font-size="10.00" fill="#000000">xla::Service::ExecuteParallel</text>
<text text-anchor="middle" x="254" y="-262.5642" font-family="Helvetica,sans-Serif" font-size="10.00" fill="#000000">AndRegisterResult</text>
</a>
</g>
</g>
<!-- Node301&#45;&gt;Node328 -->
<g id="edge44" class="edge">
<title>Node301&#45;&gt;Node328</title>
<path fill="none" stroke="#191970" d="M111.0998,-305.0169C131.7389,-300.0409 157.6344,-293.7976 181.6923,-287.9973"/>
<polygon fill="#191970" stroke="#191970" points="182.6119,-291.376 191.513,-285.6296 180.9712,-284.571 182.6119,-291.376"/>
</g>
<!-- Node304 -->
<g id="node4" class="node">
<title>Node304</title>
<g id="a_node4"><a xlink:href="../../d1/d10/classxla_1_1Service.html#a1c62dd29d5ef6643da20d7f1f53c93ee" target="_top" xlink:title="xla::Service::Replicas">
<polygon fill="#ffffff" stroke="#000000" points="372.5,-299.0642 372.5,-318.0642 485.5,-318.0642 485.5,-299.0642 372.5,-299.0642"/>
<text text-anchor="middle" x="429" y="-306.0642" font-family="Helvetica,sans-Serif" font-size="10.00" fill="#000000">xla::Service::Replicas</text>
</a>
</g>
</g>
<!-- Node303&#45;&gt;Node304 -->
<g id="edge3" class="edge">
<title>Node303&#45;&gt;Node304</title>
<path fill="none" stroke="#191970" d="M321.1591,-312.2616C334.6008,-311.8008 348.7204,-311.3167 362.1516,-310.8562"/>
<polygon fill="#191970" stroke="#191970" points="362.3915,-314.3501 372.2656,-310.5094 362.1515,-307.3542 362.3915,-314.3501"/>
</g>
<!-- Node304&#45;&gt;Node302 -->
<g id="edge4" class="edge">
<title>Node304&#45;&gt;Node302</title>
<path fill="none" stroke="#191970" d="M468.2743,-318.1116C491.1383,-323.6697 520.5067,-330.8089 546.5743,-337.1458"/>
<polygon fill="#191970" stroke="#191970" points="545.8391,-340.569 556.3828,-339.5302 547.4926,-333.767 545.8391,-340.569"/>
</g>
<!-- Node305 -->
<g id="node5" class="node">
<title>Node305</title>
<g id="a_node5"><a xlink:href="../../d1/d10/classxla_1_1Service.html#aa23389c9947ef664bcaad4f253962b65" target="_top" xlink:title="xla::Service::backend">
<polygon fill="#ffffff" stroke="#000000" points="554.5,-299.0642 554.5,-318.0642 665.5,-318.0642 665.5,-299.0642 554.5,-299.0642"/>
<text text-anchor="middle" x="610" y="-306.0642" font-family="Helvetica,sans-Serif" font-size="10.00" fill="#000000">xla::Service::backend</text>
</a>
</g>
</g>
<!-- Node304&#45;&gt;Node305 -->
<g id="edge5" class="edge">
<title>Node304&#45;&gt;Node305</title>
<path fill="none" stroke="#191970" d="M485.7729,-308.5642C504.3157,-308.5642 525.0628,-308.5642 544.2115,-308.5642"/>
<polygon fill="#191970" stroke="#191970" points="544.3589,-312.0643 554.3589,-308.5642 544.3589,-305.0643 544.3589,-312.0643"/>
</g>
<!-- Node307 -->
<g id="node7" class="node">
<title>Node307</title>
<g id="a_node7"><a xlink:href="../../d8/d42/classxla_1_1ComputationTracker.html#aa2f38317a41c1c64fba497780bc39169" target="_top" xlink:title="xla::ComputationTracker\l::ResolveInternal">
<polygon fill="#ffffff" stroke="#000000" points="749,-85.5642 749,-115.5642 871,-115.5642 871,-85.5642 749,-85.5642"/>
<text text-anchor="start" x="757" y="-103.5642" font-family="Helvetica,sans-Serif" font-size="10.00" fill="#000000">xla::ComputationTracker</text>
<text text-anchor="middle" x="810" y="-92.5642" font-family="Helvetica,sans-Serif" font-size="10.00" fill="#000000">::ResolveInternal</text>
</a>
</g>
</g>
<!-- Node306&#45;&gt;Node307 -->
<g id="edge7" class="edge">
<title>Node306&#45;&gt;Node307</title>
<path fill="none" stroke="#191970" d="M671.0933,-66.5321C692.6078,-71.8031 716.9689,-77.7716 739.2153,-83.222"/>
<polygon fill="#191970" stroke="#191970" points="738.3908,-86.6234 748.9365,-85.6037 740.0566,-79.8245 738.3908,-86.6234"/>
</g>
<!-- Node309 -->
<g id="node9" class="node">
<title>Node309</title>
<g id="a_node9"><a xlink:href="../../db/dbb/classxla_1_1UserComputation.html#af44a77b35aaed6ff22d5fbb266dd824e" target="_top" xlink:title="xla::UserComputation\l::GetVersionedHandleInternal">
<polygon fill="#ffffff" stroke="#000000" points="1254,-381.5642 1254,-411.5642 1398,-411.5642 1398,-381.5642 1254,-381.5642"/>
<text text-anchor="start" x="1262" y="-399.5642" font-family="Helvetica,sans-Serif" font-size="10.00" fill="#000000">xla::UserComputation</text>
<text text-anchor="middle" x="1326" y="-388.5642" font-family="Helvetica,sans-Serif" font-size="10.00" fill="#000000">::GetVersionedHandleInternal</text>
</a>
</g>
</g>
<!-- Node308&#45;&gt;Node309 -->
<g id="edge9" class="edge">
<title>Node308&#45;&gt;Node309</title>
<path fill="none" stroke="#191970" d="M1218.4395,-396.5642C1226.6308,-396.5642 1235.2002,-396.5642 1243.7728,-396.5642"/>
<polygon fill="#191970" stroke="#191970" points="1243.8155,-400.0643 1253.8155,-396.5642 1243.8155,-393.0643 1243.8155,-400.0643"/>
</g>
<!-- Node311 -->
<g id="node11" class="node">
<title>Node311</title>
<g id="a_node11"><a xlink:href="../../db/dbb/classxla_1_1UserComputation.html#aee9eeba8ef86ffdae79b8fe9d74cd99b" target="_top" xlink:title="xla::UserComputation\l::version">
<polygon fill="#ffffff" stroke="#000000" points="943.5,-381.5642 943.5,-411.5642 1055.5,-411.5642 1055.5,-381.5642 943.5,-381.5642"/>
<text text-anchor="start" x="951.5" y="-399.5642" font-family="Helvetica,sans-Serif" font-size="10.00" fill="#000000">xla::UserComputation</text>
<text text-anchor="middle" x="999.5" y="-388.5642" font-family="Helvetica,sans-Serif" font-size="10.00" fill="#000000">::version</text>
</a>
</g>
</g>
<!-- Node310&#45;&gt;Node311 -->
<g id="edge11" class="edge">
<title>Node310&#45;&gt;Node311</title>
<path fill="none" stroke="#191970" d="M485.0031,-435.6292C544.882,-430.4081 642.6224,-422.0448 727,-415.5642 797.4435,-410.1538 878.1831,-404.606 933.379,-400.913"/>
<polygon fill="#191970" stroke="#191970" points="933.6351,-404.4038 943.3798,-400.2455 933.1689,-397.4193 933.6351,-404.4038"/>
</g>
<!-- Node311&#45;&gt;Node308 -->
<g id="edge12" class="edge">
<title>Node311&#45;&gt;Node308</title>
<path fill="none" stroke="#191970" d="M1055.8786,-396.5642C1068.808,-396.5642 1082.6674,-396.5642 1095.9631,-396.5642"/>
<polygon fill="#191970" stroke="#191970" points="1095.9959,-400.0643 1105.9959,-396.5642 1095.9958,-393.0643 1095.9959,-400.0643"/>
</g>
<!-- Node312&#45;&gt;Node311 -->
<g id="edge14" class="edge">
<title>Node312&#45;&gt;Node311</title>
<path fill="none" stroke="#191970" d="M673.714,-466.6531C690.9909,-462.6665 709.701,-458.401 727,-454.5642 797.3491,-438.9615 878.1042,-421.8764 933.3295,-410.3183"/>
<polygon fill="#191970" stroke="#191970" points="934.264,-413.6986 943.336,-408.226 932.8313,-406.8468 934.264,-413.6986"/>
</g>
<!-- Node313 -->
<g id="node13" class="node">
<title>Node313</title>
<g id="a_node13"><a xlink:href="../../db/dbb/classxla_1_1UserComputation.html#a02a015ab900f28dc61b02f47c44f96f0" target="_top" xlink:title="xla::UserComputation\l::CheckParametersAreContiguous">
<polygon fill="#ffffff" stroke="#000000" points="727,-463.5642 727,-493.5642 893,-493.5642 893,-463.5642 727,-463.5642"/>
<text text-anchor="start" x="735" y="-481.5642" font-family="Helvetica,sans-Serif" font-size="10.00" fill="#000000">xla::UserComputation</text>
<text text-anchor="middle" x="810" y="-470.5642" font-family="Helvetica,sans-Serif" font-size="10.00" fill="#000000">::CheckParametersAreContiguous</text>
</a>
</g>
</g>
<!-- Node312&#45;&gt;Node313 -->
<g id="edge15" class="edge">
<title>Node312&#45;&gt;Node313</title>
<path fill="none" stroke="#191970" d="M673.5561,-480.6109C687.3103,-480.4046 702.1302,-480.1823 716.7564,-479.9629"/>
<polygon fill="#191970" stroke="#191970" points="716.8896,-483.4614 726.8359,-479.8117 716.7845,-476.4622 716.8896,-483.4614"/>
</g>
<!-- Node314 -->
<g id="node14" class="node">
<title>Node314</title>
<g id="a_node14"><a xlink:href="../../dc/d9d/namespacexla_1_1anonymous__namespace_02user__computation_8cc_03.html#a5ee0643c24e2ef217ab180c717d5de36" target="_top" xlink:title="xla::anonymous_namespace\l\{user_computation::cc\}\l::GetRoot">
<polygon fill="#ffffff" stroke="#000000" points="739.5,-513.0642 739.5,-554.0642 880.5,-554.0642 880.5,-513.0642 739.5,-513.0642"/>
<text text-anchor="start" x="747.5" y="-542.0642" font-family="Helvetica,sans-Serif" font-size="10.00" fill="#000000">xla::anonymous_namespace</text>
<text text-anchor="start" x="747.5" y="-531.0642" font-family="Helvetica,sans-Serif" font-size="10.00" fill="#000000">{user_computation::cc}</text>
<text text-anchor="middle" x="810" y="-520.0642" font-family="Helvetica,sans-Serif" font-size="10.00" fill="#000000">::GetRoot</text>
</a>
</g>
</g>
<!-- Node312&#45;&gt;Node314 -->
<g id="edge17" class="edge">
<title>Node312&#45;&gt;Node314</title>
<path fill="none" stroke="#191970" d="M667.8483,-496.6048C687.0699,-501.6024 708.8347,-507.2612 729.4521,-512.6218"/>
<polygon fill="#191970" stroke="#191970" points="728.5877,-516.0133 739.1466,-515.1424 730.3491,-509.2386 728.5877,-516.0133"/>
</g>
<!-- Node313&#45;&gt;Node311 -->
<g id="edge16" class="edge">
<title>Node313&#45;&gt;Node311</title>
<path fill="none" stroke="#191970" d="M854.2781,-463.5541C866.896,-459.0092 880.5837,-453.8214 893,-448.5642 916.0633,-438.799 941.2719,-426.5639 961.3716,-416.4154"/>
<polygon fill="#191970" stroke="#191970" points="963.1811,-419.4218 970.508,-411.7688 960.0079,-413.1824 963.1811,-419.4218"/>
</g>
<!-- Node315 -->
<g id="node15" class="node">
<title>Node315</title>
<g id="a_node15"><a xlink:href="../../dc/d9d/namespacexla_1_1anonymous__namespace_02user__computation_8cc_03.html#a48377f566f973539c09065de3f43058e" target="_top" xlink:title="xla::anonymous_namespace\l\{user_computation::cc\}\l::LookUpRequest">
<polygon fill="#ffffff" stroke="#000000" points="929,-513.0642 929,-554.0642 1070,-554.0642 1070,-513.0642 929,-513.0642"/>
<text text-anchor="start" x="937" y="-542.0642" font-family="Helvetica,sans-Serif" font-size="10.00" fill="#000000">xla::anonymous_namespace</text>
<text text-anchor="start" x="937" y="-531.0642" font-family="Helvetica,sans-Serif" font-size="10.00" fill="#000000">{user_computation::cc}</text>
<text text-anchor="middle" x="999.5" y="-520.0642" font-family="Helvetica,sans-Serif" font-size="10.00" fill="#000000">::LookUpRequest</text>
</a>
</g>
</g>
<!-- Node314&#45;&gt;Node315 -->
<g id="edge18" class="edge">
<title>Node314&#45;&gt;Node315</title>
<path fill="none" stroke="#191970" d="M880.5628,-533.5642C893.0177,-533.5642 906.0702,-533.5642 918.7784,-533.5642"/>
<polygon fill="#191970" stroke="#191970" points="918.8783,-537.0643 928.8783,-533.5642 918.8782,-530.0643 918.8783,-537.0643"/>
</g>
<!-- Node316 -->
<g id="node16" class="node">
<title>Node316</title>
<g id="a_node16"><a xlink:href="../../dc/d9d/namespacexla_1_1anonymous__namespace_02user__computation_8cc_03.html#a47ec5fc250056c19fc49c663922f592e" target="_top" xlink:title="xla::anonymous_namespace\l\{user_computation::cc\}\l::CanBeRoot">
<polygon fill="#ffffff" stroke="#000000" points="929,-453.0642 929,-494.0642 1070,-494.0642 1070,-453.0642 929,-453.0642"/>
<text text-anchor="start" x="937" y="-482.0642" font-family="Helvetica,sans-Serif" font-size="10.00" fill="#000000">xla::anonymous_namespace</text>
<text text-anchor="start" x="937" y="-471.0642" font-family="Helvetica,sans-Serif" font-size="10.00" fill="#000000">{user_computation::cc}</text>
<text text-anchor="middle" x="999.5" y="-460.0642" font-family="Helvetica,sans-Serif" font-size="10.00" fill="#000000">::CanBeRoot</text>
</a>
</g>
</g>
<!-- Node314&#45;&gt;Node316 -->
<g id="edge19" class="edge">
<title>Node314&#45;&gt;Node316</title>
<path fill="none" stroke="#191970" d="M874.95,-512.9996C891.0715,-507.8952 908.4744,-502.385 925.0131,-497.1485"/>
<polygon fill="#191970" stroke="#191970" points="926.1578,-500.4574 934.6348,-494.102 924.0448,-493.7839 926.1578,-500.4574"/>
</g>
<!-- Node317&#45;&gt;Node304 -->
<g id="edge21" class="edge">
<title>Node317&#45;&gt;Node304</title>
<path fill="none" stroke="#191970" d="M291.9724,-343.0169C318.1152,-336.4438 353.0531,-327.6594 381.1067,-320.606"/>
<polygon fill="#191970" stroke="#191970" points="382.257,-323.9258 391.1017,-318.0929 380.5501,-317.1371 382.257,-323.9258"/>
</g>
<!-- Node318 -->
<g id="node18" class="node">
<title>Node318</title>
<g id="a_node18"><a xlink:href="../../d1/d10/classxla_1_1Service.html#ab1860edc2fba2e1eb5216d6e54996000" target="_top" xlink:title="xla::Service::ResolveAnd\lValidateArguments">
<polygon fill="#ffffff" stroke="#000000" points="365,-337.5642 365,-367.5642 493,-367.5642 493,-337.5642 365,-337.5642"/>
<text text-anchor="start" x="373" y="-355.5642" font-family="Helvetica,sans-Serif" font-size="10.00" fill="#000000">xla::Service::ResolveAnd</text>
<text text-anchor="middle" x="429" y="-344.5642" font-family="Helvetica,sans-Serif" font-size="10.00" fill="#000000">ValidateArguments</text>
</a>
</g>
</g>
<!-- Node317&#45;&gt;Node318 -->
<g id="edge22" class="edge">
<title>Node317&#45;&gt;Node318</title>
<path fill="none" stroke="#191970" d="M322.6624,-352.5642C333.1843,-352.5642 344.0878,-352.5642 354.7244,-352.5642"/>
<polygon fill="#191970" stroke="#191970" points="354.8195,-356.0643 364.8195,-352.5642 354.8195,-349.0643 354.8195,-356.0643"/>
</g>
<!-- Node318&#45;&gt;Node302 -->
<g id="edge23" class="edge">
<title>Node318&#45;&gt;Node302</title>
<path fill="none" stroke="#191970" d="M493.0685,-352.5642C510.4108,-352.5642 529.1725,-352.5642 546.4842,-352.5642"/>
<polygon fill="#191970" stroke="#191970" points="546.4879,-356.0643 556.4879,-352.5642 546.4878,-349.0643 546.4879,-356.0643"/>
</g>
<!-- Node321&#45;&gt;Node305 -->
<g id="edge43" class="edge">
<title>Node321&#45;&gt;Node305</title>
<path fill="none" stroke="#191970" d="M314.1884,-173.0855C365.2322,-183.3579 438.611,-203.4847 493,-240.5642 513.8769,-254.797 507.9564,-270.579 529,-284.5642 535.6869,-289.0082 543.2178,-292.6491 550.926,-295.6271"/>
<polygon fill="#191970" stroke="#191970" points="549.7765,-298.9329 560.3714,-298.9402 552.0936,-292.3275 549.7765,-298.9329"/>
</g>
<!-- Node322 -->
<g id="node22" class="node">
<title>Node322</title>
<g id="a_node22"><a xlink:href="../../d8/d42/classxla_1_1ComputationTracker.html#a1acead58332b1b2c6beaeac5505b1b8a" target="_top" xlink:title="xla::ComputationTracker\l::SnapshotComputation">
<polygon fill="#ffffff" stroke="#000000" points="368,-83.5642 368,-113.5642 490,-113.5642 490,-83.5642 368,-83.5642"/>
<text text-anchor="start" x="376" y="-101.5642" font-family="Helvetica,sans-Serif" font-size="10.00" fill="#000000">xla::ComputationTracker</text>
<text text-anchor="middle" x="429" y="-90.5642" font-family="Helvetica,sans-Serif" font-size="10.00" fill="#000000">::SnapshotComputation</text>
</a>
</g>
</g>
<!-- Node321&#45;&gt;Node322 -->
<g id="edge27" class="edge">
<title>Node321&#45;&gt;Node322</title>
<path fill="none" stroke="#191970" d="M279.8219,-153.9733C305.7569,-144.3402 346.4011,-129.2438 378.7194,-117.2399"/>
<polygon fill="#191970" stroke="#191970" points="380.3008,-120.3862 388.4564,-113.6233 377.8634,-113.8242 380.3008,-120.3862"/>
</g>
<!-- Node325 -->
<g id="node25" class="node">
<title>Node325</title>
<g id="a_node25"><a xlink:href="../../d8/d42/classxla_1_1ComputationTracker.html#abaeb463c7038bcc61515a19e18fe0714" target="_top" xlink:title="xla::ComputationTracker\l::BuildHloModule">
<polygon fill="#ffffff" stroke="#000000" points="368,-135.5642 368,-165.5642 490,-165.5642 490,-135.5642 368,-135.5642"/>
<text text-anchor="start" x="376" y="-153.5642" font-family="Helvetica,sans-Serif" font-size="10.00" fill="#000000">xla::ComputationTracker</text>
<text text-anchor="middle" x="429" y="-142.5642" font-family="Helvetica,sans-Serif" font-size="10.00" fill="#000000">::BuildHloModule</text>
</a>
</g>
</g>
<!-- Node321&#45;&gt;Node325 -->
<g id="edge35" class="edge">
<title>Node321&#45;&gt;Node325</title>
<path fill="none" stroke="#191970" d="M329.2314,-157.9756C338.6877,-157.2731 348.3392,-156.5562 357.732,-155.8584"/>
<polygon fill="#191970" stroke="#191970" points="358.088,-159.3417 367.8012,-155.1104 357.5693,-152.361 358.088,-159.3417"/>
</g>
<!-- Node322&#45;&gt;Node306 -->
<g id="edge28" class="edge">
<title>Node322&#45;&gt;Node306</title>
<path fill="none" stroke="#191970" d="M486.7672,-83.5639C504.4821,-78.9639 524.1308,-73.8618 542.4387,-69.1078"/>
<polygon fill="#191970" stroke="#191970" points="543.3615,-72.4843 552.1608,-66.5832 541.6021,-65.709 543.3615,-72.4843"/>
</g>
<!-- Node322&#45;&gt;Node308 -->
<g id="edge29" class="edge">
<title>Node322&#45;&gt;Node308</title>
<path fill="none" stroke="#191970" d="M443.5555,-83.4268C461.6471,-65.8155 494.3879,-37.7282 529,-26.5642 684.3556,23.5452 747.9841,-.6194 893,-75.5642 985.6346,-123.4382 1004.5019,-148.428 1070,-229.5642 1106.9021,-275.2769 1136.856,-337.873 1151.7592,-371.9712"/>
<polygon fill="#191970" stroke="#191970" points="1148.5587,-373.3885 1155.7248,-381.1922 1154.9892,-370.6229 1148.5587,-373.3885"/>
</g>
<!-- Node323 -->
<g id="node23" class="node">
<title>Node323</title>
<g id="a_node23"><a xlink:href="../../d8/d42/classxla_1_1ComputationTracker.html#a8a16c1575ce6ceb15e15ba2a7d9b65fa" target="_top" xlink:title="xla::ComputationTracker\l::ComputeComputationPostOrder">
<polygon fill="#ffffff" stroke="#000000" points="529,-85.5642 529,-115.5642 691,-115.5642 691,-85.5642 529,-85.5642"/>
<text text-anchor="start" x="537" y="-103.5642" font-family="Helvetica,sans-Serif" font-size="10.00" fill="#000000">xla::ComputationTracker</text>
<text text-anchor="middle" x="610" y="-92.5642" font-family="Helvetica,sans-Serif" font-size="10.00" fill="#000000">::ComputeComputationPostOrder</text>
</a>
</g>
</g>
<!-- Node322&#45;&gt;Node323 -->
<g id="edge30" class="edge">
<title>Node322&#45;&gt;Node323</title>
<path fill="none" stroke="#191970" d="M490.026,-99.2385C499.2426,-99.3404 508.917,-99.4473 518.6051,-99.5543"/>
<polygon fill="#191970" stroke="#191970" points="518.6494,-103.0549 528.6875,-99.6657 518.7268,-96.0554 518.6494,-103.0549"/>
</g>
<!-- Node323&#45;&gt;Node307 -->
<g id="edge31" class="edge">
<title>Node323&#45;&gt;Node307</title>
<path fill="none" stroke="#191970" d="M691.0593,-100.5642C706.7194,-100.5642 723.0226,-100.5642 738.3563,-100.5642"/>
<polygon fill="#191970" stroke="#191970" points="738.7971,-104.0643 748.7971,-100.5642 738.7971,-97.0643 738.7971,-104.0643"/>
</g>
<!-- Node324 -->
<g id="node24" class="node">
<title>Node324</title>
<g id="a_node24"><a xlink:href="../../db/dbb/classxla_1_1UserComputation.html#add02ff5e2d9daf549727b8a4ed96f116" target="_top" xlink:title="xla::UserComputation\l::GetEmbeddedComputations">
<polygon fill="#ffffff" stroke="#000000" points="737,-261.5642 737,-291.5642 883,-291.5642 883,-261.5642 737,-261.5642"/>
<text text-anchor="start" x="745" y="-279.5642" font-family="Helvetica,sans-Serif" font-size="10.00" fill="#000000">xla::UserComputation</text>
<text text-anchor="middle" x="810" y="-268.5642" font-family="Helvetica,sans-Serif" font-size="10.00" fill="#000000">::GetEmbeddedComputations</text>
</a>
</g>
</g>
<!-- Node323&#45;&gt;Node324 -->
<g id="edge32" class="edge">
<title>Node323&#45;&gt;Node324</title>
<path fill="none" stroke="#191970" d="M630.75,-115.8148C647.3841,-128.2499 671.1447,-146.4879 691,-163.5642 725.932,-193.607 764.2184,-230.787 787.6811,-254.0979"/>
<polygon fill="#191970" stroke="#191970" points="785.4915,-256.8573 795.0434,-261.4412 790.4349,-251.9012 785.4915,-256.8573"/>
</g>
<!-- Node324&#45;&gt;Node311 -->
<g id="edge34" class="edge">
<title>Node324&#45;&gt;Node311</title>
<path fill="none" stroke="#191970" d="M871.1102,-291.6049C878.6934,-294.439 886.1721,-297.7407 893,-301.5642 927.2713,-320.7555 959.938,-352.6091 979.8449,-374.0828"/>
<polygon fill="#191970" stroke="#191970" points="977.2608,-376.4435 986.581,-381.4819 982.437,-371.7311 977.2608,-376.4435"/>
</g>
<!-- Node324&#45;&gt;Node320 -->
<g id="edge33" class="edge">
<title>Node324&#45;&gt;Node320</title>
<path fill="none" stroke="#191970" d="M883.2656,-268.0585C899.6694,-266.1541 916.9801,-264.1444 933.0874,-262.2744"/>
<polygon fill="#191970" stroke="#191970" points="933.9472,-265.6982 943.4769,-261.0682 933.1399,-258.7449 933.9472,-265.6982"/>
</g>
<!-- Node325&#45;&gt;Node307 -->
<g id="edge37" class="edge">
<title>Node325&#45;&gt;Node307</title>
<path fill="none" stroke="#191970" d="M490.0952,-146.2417C543.3314,-142.0607 622.517,-134.8417 691,-124.5642 706.473,-122.2421 722.9793,-119.2485 738.6183,-116.1681"/>
<polygon fill="#191970" stroke="#191970" points="739.6334,-119.5344 748.7506,-114.1375 738.2578,-112.6709 739.6334,-119.5344"/>
</g>
<!-- Node325&#45;&gt;Node320 -->
<g id="edge39" class="edge">
<title>Node325&#45;&gt;Node320</title>
<path fill="none" stroke="#191970" d="M462.6979,-165.5972C472.7175,-170.5446 483.5392,-176.3767 493,-182.5642 510.4305,-193.964 509.7516,-204.6096 529,-212.5642 565.4084,-227.6104 812.2306,-243.7315 933.0883,-250.8373"/>
<polygon fill="#191970" stroke="#191970" points="933.1392,-254.3462 943.3264,-251.4354 933.5475,-247.3581 933.1392,-254.3462"/>
</g>
<!-- Node325&#45;&gt;Node323 -->
<g id="edge38" class="edge">
<title>Node325&#45;&gt;Node323</title>
<path fill="none" stroke="#191970" d="M483.306,-135.5626C502.9036,-130.1489 525.2123,-123.9862 545.5911,-118.3567"/>
<polygon fill="#191970" stroke="#191970" points="546.7128,-121.6781 555.4198,-115.6416 544.8488,-114.9308 546.7128,-121.6781"/>
</g>
<!-- Node326 -->
<g id="node26" class="node">
<title>Node326</title>
<g id="a_node26"><a xlink:href="../../d8/d42/classxla_1_1ComputationTracker.html#ac2cb38ead1ce3ed118d38e5ab7f7c3f6" target="_top" xlink:title="xla::ComputationTracker\l::ToStringInternal">
<polygon fill="#ffffff" stroke="#000000" points="549,-173.5642 549,-203.5642 671,-203.5642 671,-173.5642 549,-173.5642"/>
<text text-anchor="start" x="557" y="-191.5642" font-family="Helvetica,sans-Serif" font-size="10.00" fill="#000000">xla::ComputationTracker</text>
<text text-anchor="middle" x="610" y="-180.5642" font-family="Helvetica,sans-Serif" font-size="10.00" fill="#000000">::ToStringInternal</text>
</a>
</g>
</g>
<!-- Node325&#45;&gt;Node326 -->
<g id="edge36" class="edge">
<title>Node325&#45;&gt;Node326</title>
<path fill="none" stroke="#191970" d="M490.026,-163.3763C505.7491,-166.6773 522.8047,-170.258 538.9875,-173.6555"/>
<polygon fill="#191970" stroke="#191970" points="538.4253,-177.1137 548.9311,-175.7431 539.8636,-170.2631 538.4253,-177.1137"/>
</g>
<!-- Node327 -->
<g id="node27" class="node">
<title>Node327</title>
<g id="a_node27"><a xlink:href="../../db/dbb/classxla_1_1UserComputation.html#a7ab95fda9f35270dfbf0868b96f636c6" target="_top" xlink:title="xla::UserComputation\l::BuildHloComputation">
<polygon fill="#ffffff" stroke="#000000" points="752.5,-310.5642 752.5,-340.5642 867.5,-340.5642 867.5,-310.5642 752.5,-310.5642"/>
<text text-anchor="start" x="760.5" y="-328.5642" font-family="Helvetica,sans-Serif" font-size="10.00" fill="#000000">xla::UserComputation</text>
<text text-anchor="middle" x="810" y="-317.5642" font-family="Helvetica,sans-Serif" font-size="10.00" fill="#000000">::BuildHloComputation</text>
</a>
</g>
</g>
<!-- Node325&#45;&gt;Node327 -->
<g id="edge40" class="edge">
<title>Node325&#45;&gt;Node327</title>
<path fill="none" stroke="#191970" d="M468.2858,-165.5964C477.0783,-170.1576 485.8935,-175.7959 493,-182.5642 516.6324,-205.0719 503.1966,-226.5824 529,-246.5642 587.898,-292.1742 619.6302,-268.2199 691,-289.5642 707.1583,-294.3966 710.8959,-296.5541 727,-301.5642 733.4475,-303.5701 740.194,-305.6126 746.9349,-307.6169"/>
<polygon fill="#191970" stroke="#191970" points="746.1899,-311.0462 756.7716,-310.5173 748.1697,-304.332 746.1899,-311.0462"/>
</g>
<!-- Node327&#45;&gt;Node311 -->
<g id="edge41" class="edge">
<title>Node327&#45;&gt;Node311</title>
<path fill="none" stroke="#191970" d="M850.1881,-340.6215C879.2064,-351.4938 918.5821,-366.2467 949.6121,-377.8727"/>
<polygon fill="#191970" stroke="#191970" points="948.7775,-381.2976 959.3699,-381.5287 951.2335,-374.7426 948.7775,-381.2976"/>
</g>
<!-- Node327&#45;&gt;Node320 -->
<g id="edge42" class="edge">
<title>Node327&#45;&gt;Node320</title>
<path fill="none" stroke="#191970" d="M866.1388,-310.4424C875.1861,-307.6876 884.4002,-304.6892 893,-301.5642 915.2002,-293.4971 939.3277,-282.9997 958.9954,-273.9725"/>
<polygon fill="#191970" stroke="#191970" points="960.6635,-277.0571 968.2643,-269.6761 957.7196,-270.7062 960.6635,-277.0571"/>
</g>
<!-- Node328&#45;&gt;Node302 -->
<g id="edge46" class="edge">
<title>Node328&#45;&gt;Node302</title>
<path fill="none" stroke="#191970" d="M325.6896,-263.1966C375.0617,-261.1686 440.8931,-264.6583 493,-289.5642 513.99,-299.597 509.2385,-315.2875 529,-327.5642 534.4966,-330.9789 540.4945,-333.9581 546.6593,-336.5507"/>
<polygon fill="#191970" stroke="#191970" points="545.8465,-339.9881 556.4364,-340.3136 548.3609,-333.4552 545.8465,-339.9881"/>
</g>
<!-- Node328&#45;&gt;Node304 -->
<g id="edge47" class="edge">
<title>Node328&#45;&gt;Node304</title>
<path fill="none" stroke="#191970" d="M323.1646,-285.5828C340.4914,-289.3452 358.8224,-293.3257 375.2723,-296.8976"/>
<polygon fill="#191970" stroke="#191970" points="374.7308,-300.3615 385.2457,-299.0633 376.2162,-293.521 374.7308,-300.3615"/>
</g>
<!-- Node328&#45;&gt;Node305 -->
<g id="edge45" class="edge">
<title>Node328&#45;&gt;Node305</title>
<path fill="none" stroke="#191970" d="M310.2096,-255.4622C359.7091,-244.8988 433.0455,-235.9934 493,-256.5642 512.1726,-263.1425 510.9701,-275.3022 529,-284.5642 537.7144,-289.0408 547.3958,-292.8153 556.9463,-295.9492"/>
<polygon fill="#191970" stroke="#191970" points="556.2183,-299.3872 566.8056,-298.9858 558.2788,-292.6973 556.2183,-299.3872"/>
</g>
</g>
</svg>
