<?xml version="1.0" encoding="UTF-8" standalone="no"?>
<!DOCTYPE svg PUBLIC "-//W3C//DTD SVG 1.1//EN"
 "http://www.w3.org/Graphics/SVG/1.1/DTD/svg11.dtd">
<!-- Generated by graphviz version 2.40.1 (20161225.0304)
 -->
<!-- Title: xla::Service::CreateModuleConfig Pages: 1 -->
<!--zoomable 285 -->
<svg id="main" version="1.1" xmlns="http://www.w3.org/2000/svg" xmlns:xlink="http://www.w3.org/1999/xlink" xml:space="preserve" onload="init(evt)">
<style type="text/css"><![CDATA[
.edge:hover path { stroke: red; }
.edge:hover polygon { stroke: red; fill: red; }
]]></style>
<script type="text/javascript"><![CDATA[
var edges = document.getElementsByTagName('g');
if (edges && edges.length) {
  for (var i=0;i<edges.length;i++) {
    if (edges[i].id.substr(0,4)=='edge') {
      edges[i].setAttribute('class','edge');
    }
  }
}
]]></script>
        <defs>
                <circle id="rim" cx="0" cy="0" r="7"/>
                <circle id="rim2" cx="0" cy="0" r="3.5"/>
                <g id="zoomPlus">
                        <use xlink:href="#rim" fill="#404040">
                                <set attributeName="fill" to="#808080" begin="zoomplus.mouseover" end="zoomplus.mouseout"/>
                        </use>
                        <path d="M-4,0h8M0,-4v8" fill="none" stroke="white" stroke-width="1.5" pointer-events="none"/>
                </g>
                <g id="zoomMin">
                        <use xlink:href="#rim" fill="#404040">
                                <set attributeName="fill" to="#808080" begin="zoomminus.mouseover" end="zoomminus.mouseout"/>
                        </use>
                        <path d="M-4,0h8" fill="none" stroke="white" stroke-width="1.5" pointer-events="none"/>
                </g>
                <g id="dirArrow">
                        <path fill="none" stroke="white" stroke-width="1.5" d="M0,-3.0v7 M-2.5,-0.5L0,-3.0L2.5,-0.5"/>
                </g>
               <g id="resetDef">
                       <use xlink:href="#rim2" fill="#404040">
                               <set attributeName="fill" to="#808080" begin="reset.mouseover" end="reset.mouseout"/>
                       </use>
               </g>
        </defs>

<script type="text/javascript">
var viewWidth = 1048;
var viewHeight = 285;
var sectionId = 'dynsection-14';
</script>
<script xlink:href="../../svgpan.js"/>
<svg id="graph" class="graph">
<g id="viewport">
<title>xla::Service::CreateModuleConfig</title>
<polygon fill="#ffffff" stroke="transparent" points="-4,4 -4,-281 1044,-281 1044,4 -4,4"/>
<!-- Node94 -->
<g id="node1" class="node">
<title>Node94</title>
<polygon fill="#bfbfbf" stroke="#000000" points="0,-121 0,-151 135,-151 135,-121 0,-121"/>
<text text-anchor="start" x="8" y="-139" font-family="Helvetica,sans-Serif" font-size="10.00" fill="#000000">xla::Service::CreateModule</text>
<text text-anchor="middle" x="67.5" y="-128" font-family="Helvetica,sans-Serif" font-size="10.00" fill="#000000">Config</text>
</g>
<!-- Node95 -->
<g id="node2" class="node">
<title>Node95</title>
<g id="a_node2"><a xlink:href="../../dc/d07/classxla_1_1CompileOnlyService.html#aceb67616a89167b9af1bf23d17ec37c9" target="_top" xlink:title="xla::CompileOnlyService\l::CompileAheadOfTime">
<polygon fill="#ffffff" stroke="#000000" points="185.5,-241 185.5,-271 310.5,-271 310.5,-241 185.5,-241"/>
<text text-anchor="start" x="193.5" y="-259" font-family="Helvetica,sans-Serif" font-size="10.00" fill="#000000">xla::CompileOnlyService</text>
<text text-anchor="middle" x="248" y="-248" font-family="Helvetica,sans-Serif" font-size="10.00" fill="#000000">::CompileAheadOfTime</text>
</a>
</g>
</g>
<!-- Node94&#45;&gt;Node95 -->
<g id="edge1" class="edge">
<title>Node94&#45;&gt;Node95</title>
<path fill="none" stroke="#191970" d="M88.6411,-158.3323C108.4198,-178.2083 139.557,-206.9966 171,-226 180.4545,-231.7141 191.1876,-236.7048 201.5749,-240.8905"/>
<polygon fill="#191970" stroke="#191970" points="91.1395,-155.8812 81.6399,-151.19 86.1406,-160.7813 91.1395,-155.8812"/>
</g>
<!-- Node101 -->
<g id="node8" class="node">
<title>Node101</title>
<g id="a_node8"><a xlink:href="../../d1/d10/classxla_1_1Service.html#aa0f93c81ca82a50f0ff7f044745bf227" target="_top" xlink:title="xla::Service::ExecuteParallel">
<polygon fill="#ffffff" stroke="#000000" points="176.5,-164.5 176.5,-183.5 319.5,-183.5 319.5,-164.5 176.5,-164.5"/>
<text text-anchor="middle" x="248" y="-171.5" font-family="Helvetica,sans-Serif" font-size="10.00" fill="#000000">xla::Service::ExecuteParallel</text>
</a>
</g>
</g>
<!-- Node94&#45;&gt;Node101 -->
<g id="edge7" class="edge">
<title>Node94&#45;&gt;Node101</title>
<path fill="none" stroke="#191970" d="M145.091,-152.3349C164.7304,-156.4696 185.1857,-160.7759 202.637,-164.4499"/>
<polygon fill="#191970" stroke="#191970" points="145.7316,-148.8932 135.2251,-150.2579 144.2895,-155.743 145.7316,-148.8932"/>
</g>
<!-- Node103 -->
<g id="node10" class="node">
<title>Node103</title>
<g id="a_node10"><a xlink:href="../../d1/d10/classxla_1_1Service.html#ac3f89822d1f6faab8382f1902e54eea3" target="_top" xlink:title="xla::Service::Execute">
<polygon fill="#ffffff" stroke="#000000" points="556.5,-189.5 556.5,-208.5 666.5,-208.5 666.5,-189.5 556.5,-189.5"/>
<text text-anchor="middle" x="611.5" y="-196.5" font-family="Helvetica,sans-Serif" font-size="10.00" fill="#000000">xla::Service::Execute</text>
</a>
</g>
</g>
<!-- Node94&#45;&gt;Node103 -->
<g id="edge13" class="edge">
<title>Node94&#45;&gt;Node103</title>
<path fill="none" stroke="#191970" d="M95.9131,-156.6598C115.8429,-169.8501 143.7048,-185.7824 171,-193 305.7582,-228.6336 471.8988,-216.572 556.4403,-206.6651"/>
<polygon fill="#191970" stroke="#191970" points="97.8525,-153.7461 87.6141,-151.0213 93.9186,-159.5361 97.8525,-153.7461"/>
</g>
<!-- Node104 -->
<g id="node11" class="node">
<title>Node104</title>
<g id="a_node11"><a xlink:href="../../d1/d10/classxla_1_1Service.html#a6d2eb2712a109ab9484080dfd1e2e446" target="_top" xlink:title="xla::Service::ExecuteGraph">
<polygon fill="#ffffff" stroke="#000000" points="543,-135.5 543,-154.5 680,-154.5 680,-135.5 543,-135.5"/>
<text text-anchor="middle" x="611.5" y="-142.5" font-family="Helvetica,sans-Serif" font-size="10.00" fill="#000000">xla::Service::ExecuteGraph</text>
</a>
</g>
</g>
<!-- Node94&#45;&gt;Node104 -->
<g id="edge14" class="edge">
<title>Node94&#45;&gt;Node104</title>
<path fill="none" stroke="#191970" d="M145.0591,-137.2831C251.4977,-139.0441 441.1762,-142.1821 542.769,-143.8629"/>
<polygon fill="#191970" stroke="#191970" points="145.0807,-133.7831 135.0242,-137.1171 144.9649,-140.7822 145.0807,-133.7831"/>
</g>
<!-- Node105 -->
<g id="node12" class="node">
<title>Node105</title>
<g id="a_node12"><a xlink:href="../../d1/d10/classxla_1_1Service.html#ae6f727fa681c065fc529a422a83f9133" target="_top" xlink:title="xla::Service::ExecuteGraph\lParallel">
<polygon fill="#ffffff" stroke="#000000" points="179.5,-77 179.5,-107 316.5,-107 316.5,-77 179.5,-77"/>
<text text-anchor="start" x="187.5" y="-95" font-family="Helvetica,sans-Serif" font-size="10.00" fill="#000000">xla::Service::ExecuteGraph</text>
<text text-anchor="middle" x="248" y="-84" font-family="Helvetica,sans-Serif" font-size="10.00" fill="#000000">Parallel</text>
</a>
</g>
</g>
<!-- Node94&#45;&gt;Node105 -->
<g id="edge11" class="edge">
<title>Node94&#45;&gt;Node105</title>
<path fill="none" stroke="#191970" d="M139.2301,-118.5145C154.8262,-114.7127 171.1933,-110.723 186.3584,-107.0262"/>
<polygon fill="#191970" stroke="#191970" points="137.9996,-115.2119 129.113,-120.9808 139.6575,-122.0128 137.9996,-115.2119"/>
</g>
<!-- Node107 -->
<g id="node14" class="node">
<title>Node107</title>
<g id="a_node14"><a xlink:href="../../d1/d10/classxla_1_1Service.html#ad940842d8a31741ccd025d883744223c" target="_top" xlink:title="xla::Service::ExecuteAsync">
<polygon fill="#ffffff" stroke="#000000" points="179,-38.5 179,-57.5 317,-57.5 317,-38.5 179,-38.5"/>
<text text-anchor="middle" x="248" y="-45.5" font-family="Helvetica,sans-Serif" font-size="10.00" fill="#000000">xla::Service::ExecuteAsync</text>
</a>
</g>
</g>
<!-- Node94&#45;&gt;Node107 -->
<g id="edge15" class="edge">
<title>Node94&#45;&gt;Node107</title>
<path fill="none" stroke="#191970" d="M93.834,-114.6936C113.908,-99.4158 142.8131,-79.4175 171,-67 179.5683,-63.2253 189.0176,-60.1153 198.2752,-57.5833"/>
<polygon fill="#191970" stroke="#191970" points="91.5624,-112.026 85.7994,-120.9164 95.8487,-117.5603 91.5624,-112.026"/>
</g>
<!-- Node108 -->
<g id="node15" class="node">
<title>Node108</title>
<g id="a_node15"><a xlink:href="../../d1/d10/classxla_1_1Service.html#a18b542fa30535934fbe3f425088b6537" target="_top" xlink:title="xla::Service::ComputeConstant">
<polygon fill="#ffffff" stroke="#000000" points="171,-.5 171,-19.5 325,-19.5 325,-.5 171,-.5"/>
<text text-anchor="middle" x="248" y="-7.5" font-family="Helvetica,sans-Serif" font-size="10.00" fill="#000000">xla::Service::ComputeConstant</text>
</a>
</g>
</g>
<!-- Node94&#45;&gt;Node108 -->
<g id="edge16" class="edge">
<title>Node94&#45;&gt;Node108</title>
<path fill="none" stroke="#191970" d="M83.8001,-112.607C102.1646,-88.0444 134.2866,-50.117 171,-29 177.6839,-25.1555 185.1281,-22.0839 192.6803,-19.6308"/>
<polygon fill="#191970" stroke="#191970" points="80.7449,-110.856 77.6736,-120.9959 86.3979,-114.9844 80.7449,-110.856"/>
</g>
<!-- Node96 -->
<g id="node3" class="node">
<title>Node96</title>
<g id="a_node3"><a xlink:href="../../d1/dd1/classxla_1_1CompileOnlyClient.html#a5a585d21f617b77a1cecc1b587d18d7a" target="_top" xlink:title="Compiles a list of computations for ahead&#45;of&#45;time execution. This is intended for use in static compi...">
<polygon fill="#ffffff" stroke="#000000" points="374.5,-241 374.5,-271 493.5,-271 493.5,-241 374.5,-241"/>
<text text-anchor="start" x="382.5" y="-259" font-family="Helvetica,sans-Serif" font-size="10.00" fill="#000000">xla::CompileOnlyClient</text>
<text text-anchor="middle" x="434" y="-248" font-family="Helvetica,sans-Serif" font-size="10.00" fill="#000000">::CompileAheadOfTime</text>
</a>
</g>
</g>
<!-- Node95&#45;&gt;Node96 -->
<g id="edge2" class="edge">
<title>Node95&#45;&gt;Node96</title>
<path fill="none" stroke="#191970" d="M320.9924,-256C338.6872,-256 357.3965,-256 374.3905,-256"/>
<polygon fill="#191970" stroke="#191970" points="320.7118,-252.5001 310.7118,-256 320.7118,-259.5001 320.7118,-252.5001"/>
</g>
<!-- Node97 -->
<g id="node4" class="node">
<title>Node97</title>
<g id="a_node4"><a xlink:href="../../d4/df4/namespacetensorflow_1_1tfcompile_1_1anonymous__namespace_02compile_8cc_03.html#a40f8a019f31fa8cbe2fff5d90e69c21b" target="_top" xlink:title="Compiles the XLA computation into executable code. ">
<polygon fill="#ffffff" stroke="#000000" points="547,-235.5 547,-276.5 676,-276.5 676,-235.5 547,-235.5"/>
<text text-anchor="start" x="555" y="-264.5" font-family="Helvetica,sans-Serif" font-size="10.00" fill="#000000">tensorflow::tfcompile</text>
<text text-anchor="start" x="555" y="-253.5" font-family="Helvetica,sans-Serif" font-size="10.00" fill="#000000">::anonymous_namespace</text>
<text text-anchor="middle" x="611.5" y="-242.5" font-family="Helvetica,sans-Serif" font-size="10.00" fill="#000000">{compile::cc}::CompileXla</text>
</a>
</g>
</g>
<!-- Node96&#45;&gt;Node97 -->
<g id="edge3" class="edge">
<title>Node96&#45;&gt;Node97</title>
<path fill="none" stroke="#191970" d="M503.795,-256C517.9931,-256 532.8701,-256 546.879,-256"/>
<polygon fill="#191970" stroke="#191970" points="503.5987,-252.5001 493.5987,-256 503.5987,-259.5001 503.5987,-252.5001"/>
</g>
<!-- Node98 -->
<g id="node5" class="node">
<title>Node98</title>
<g id="a_node5"><a xlink:href="../../d7/d38/namespacetensorflow_1_1tfcompile.html#a021cb1c58d938b16dcd998aa8d1fc191" target="_top" xlink:title="Converts the graph into an XLA computation, and compiles the computation. Called by tensorflow::tfcom...">
<polygon fill="#ffffff" stroke="#000000" points="716,-241 716,-271 823,-271 823,-241 716,-241"/>
<text text-anchor="start" x="724" y="-259" font-family="Helvetica,sans-Serif" font-size="10.00" fill="#000000">tensorflow::tfcompile</text>
<text text-anchor="middle" x="769.5" y="-248" font-family="Helvetica,sans-Serif" font-size="10.00" fill="#000000">::CompileGraph</text>
</a>
</g>
</g>
<!-- Node97&#45;&gt;Node98 -->
<g id="edge4" class="edge">
<title>Node97&#45;&gt;Node98</title>
<path fill="none" stroke="#191970" d="M686.4538,-256C696.3279,-256 706.2865,-256 715.7104,-256"/>
<polygon fill="#191970" stroke="#191970" points="686.2206,-252.5001 676.2205,-256 686.2205,-259.5001 686.2206,-252.5001"/>
</g>
<!-- Node99 -->
<g id="node6" class="node">
<title>Node99</title>
<g id="a_node6"><a xlink:href="../../d7/d38/namespacetensorflow_1_1tfcompile.html#a460964a5bb277865d1275fe3746132c1" target="_top" xlink:title="tensorflow::tfcompile\l::Main">
<polygon fill="#ffffff" stroke="#000000" points="859,-241 859,-271 966,-271 966,-241 859,-241"/>
<text text-anchor="start" x="867" y="-259" font-family="Helvetica,sans-Serif" font-size="10.00" fill="#000000">tensorflow::tfcompile</text>
<text text-anchor="middle" x="912.5" y="-248" font-family="Helvetica,sans-Serif" font-size="10.00" fill="#000000">::Main</text>
</a>
</g>
</g>
<!-- Node98&#45;&gt;Node99 -->
<g id="edge5" class="edge">
<title>Node98&#45;&gt;Node99</title>
<path fill="none" stroke="#191970" d="M833.3238,-256C841.7452,-256 850.3103,-256 858.5445,-256"/>
<polygon fill="#191970" stroke="#191970" points="833.1548,-252.5001 823.1548,-256 833.1547,-259.5001 833.1548,-252.5001"/>
</g>
<!-- Node100 -->
<g id="node7" class="node">
<title>Node100</title>
<g id="a_node7"><a xlink:href="../../d4/d8d/tfcompile__main_8cc.html#a3c04138a5bfe5d72780bb7e82a18e627" target="_top" xlink:title="main">
<polygon fill="#ffffff" stroke="#000000" points="1002,-246.5 1002,-265.5 1040,-265.5 1040,-246.5 1002,-246.5"/>
<text text-anchor="middle" x="1021" y="-253.5" font-family="Helvetica,sans-Serif" font-size="10.00" fill="#000000">main</text>
</a>
</g>
</g>
<!-- Node99&#45;&gt;Node100 -->
<g id="edge6" class="edge">
<title>Node99&#45;&gt;Node100</title>
<path fill="none" stroke="#191970" d="M976.2814,-256C985.5615,-256 994.4574,-256 1001.8366,-256"/>
<polygon fill="#191970" stroke="#191970" points="976.1143,-252.5001 966.1143,-256 976.1142,-259.5001 976.1143,-252.5001"/>
</g>
<!-- Node102 -->
<g id="node9" class="node">
<title>Node102</title>
<g id="a_node9"><a xlink:href="../../d1/d10/classxla_1_1Service.html#a170f36c8fd2b964f57d00d9b720c6912" target="_top" xlink:title="xla::Service::ExecuteOneToN">
<polygon fill="#ffffff" stroke="#000000" points="361,-164.5 361,-183.5 507,-183.5 507,-164.5 361,-164.5"/>
<text text-anchor="middle" x="434" y="-171.5" font-family="Helvetica,sans-Serif" font-size="10.00" fill="#000000">xla::Service::ExecuteOneToN</text>
</a>
</g>
</g>
<!-- Node101&#45;&gt;Node102 -->
<g id="edge8" class="edge">
<title>Node101&#45;&gt;Node102</title>
<path fill="none" stroke="#191970" d="M329.8778,-174C340.1901,-174 350.6875,-174 360.8529,-174"/>
<polygon fill="#191970" stroke="#191970" points="329.6464,-170.5001 319.6464,-174 329.6464,-177.5001 329.6464,-170.5001"/>
</g>
<!-- Node102&#45;&gt;Node103 -->
<g id="edge9" class="edge">
<title>Node102&#45;&gt;Node103</title>
<path fill="none" stroke="#191970" d="M511.9168,-184.9742C526.9303,-187.0888 542.3636,-189.2625 556.4635,-191.2484"/>
<polygon fill="#191970" stroke="#191970" points="512.0019,-181.4517 501.6115,-183.5227 511.0256,-188.3833 512.0019,-181.4517"/>
</g>
<!-- Node102&#45;&gt;Node104 -->
<g id="edge10" class="edge">
<title>Node102&#45;&gt;Node104</title>
<path fill="none" stroke="#191970" d="M502.8337,-162.7539C519.4911,-160.0324 537.1356,-157.1497 553.2522,-154.5165"/>
<polygon fill="#191970" stroke="#191970" points="501.9168,-159.3572 492.6121,-164.4239 503.0456,-166.2656 501.9168,-159.3572"/>
</g>
<!-- Node106 -->
<g id="node13" class="node">
<title>Node106</title>
<g id="a_node13"><a xlink:href="../../d1/d10/classxla_1_1Service.html#a11604b813ba3e3208b2bda70f0f02f0d" target="_top" xlink:title="xla::Service::ExecuteOneToN">
<polygon fill="#ffffff" stroke="#000000" points="361,-82.5 361,-101.5 507,-101.5 507,-82.5 361,-82.5"/>
<text text-anchor="middle" x="434" y="-89.5" font-family="Helvetica,sans-Serif" font-size="10.00" fill="#000000">xla::Service::ExecuteOneToN</text>
</a>
</g>
</g>
<!-- Node105&#45;&gt;Node106 -->
<g id="edge12" class="edge">
<title>Node105&#45;&gt;Node106</title>
<path fill="none" stroke="#191970" d="M326.9629,-92C338.2113,-92 349.7401,-92 360.8706,-92"/>
<polygon fill="#191970" stroke="#191970" points="326.7311,-88.5001 316.7311,-92 326.731,-95.5001 326.7311,-88.5001"/>
</g>
</g>
</svg>
        <g id="navigator" transform="translate(0 0)" fill="#404254">
                <rect fill="#f2f5e9" fill-opacity="0.5" stroke="#606060" stroke-width=".5" x="0" y="0" width="60" height="60"/>
                <use id="zoomplus" xlink:href="#zoomPlus" x="17" y="9" onmousedown="handleZoom(evt,'in')"/>
                <use id="zoomminus" xlink:href="#zoomMin" x="42" y="9" onmousedown="handleZoom(evt,'out')"/>
                <use id="reset" xlink:href="#resetDef" x="30" y="36" onmousedown="handleReset()"/>
                <g id="arrowUp" xlink:href="#dirArrow" transform="translate(30 24)" onmousedown="handlePan(0,-1)">
                  <use xlink:href="#rim" fill="#404040">
                        <set attributeName="fill" to="#808080" begin="arrowUp.mouseover" end="arrowUp.mouseout"/>
                  </use>
                  <path fill="none" stroke="white" stroke-width="1.5" d="M0,-3.0v7 M-2.5,-0.5L0,-3.0L2.5,-0.5"/>
                </g>
                <g id="arrowRight" xlink:href="#dirArrow" transform="rotate(90) translate(36 -43)" onmousedown="handlePan(1,0)">
                  <use xlink:href="#rim" fill="#404040">
                        <set attributeName="fill" to="#808080" begin="arrowRight.mouseover" end="arrowRight.mouseout"/>
                  </use>
                  <path fill="none" stroke="white" stroke-width="1.5" d="M0,-3.0v7 M-2.5,-0.5L0,-3.0L2.5,-0.5"/>
                </g>
                <g id="arrowDown" xlink:href="#dirArrow" transform="rotate(180) translate(-30 -48)" onmousedown="handlePan(0,1)">
                  <use xlink:href="#rim" fill="#404040">
                        <set attributeName="fill" to="#808080" begin="arrowDown.mouseover" end="arrowDown.mouseout"/>
                  </use>
                  <path fill="none" stroke="white" stroke-width="1.5" d="M0,-3.0v7 M-2.5,-0.5L0,-3.0L2.5,-0.5"/>
                </g>
                <g id="arrowLeft" xlink:href="#dirArrow" transform="rotate(270) translate(-36 17)" onmousedown="handlePan(-1,0)">
                  <use xlink:href="#rim" fill="#404040">
                        <set attributeName="fill" to="#808080" begin="arrowLeft.mouseover" end="arrowLeft.mouseout"/>
                  </use>
                  <path fill="none" stroke="white" stroke-width="1.5" d="M0,-3.0v7 M-2.5,-0.5L0,-3.0L2.5,-0.5"/>
                </g>
        </g>
        <svg viewBox="0 0 15 15" width="100%" height="30px" preserveAspectRatio="xMaxYMin meet">
         <g id="arrow_out" transform="scale(0.3 0.3)">
          <a xlink:href="classxla_1_1Service_a6ad3184af8a6365d1098539edfd8be14_icgraph_org.svg" target="_base">
           <rect id="button" ry="5" rx="5" y="6" x="6" height="38" width="38"
                fill="#f2f5e9" fill-opacity="0.5" stroke="#606060" stroke-width="1.0"/>
           <path id="arrow"
             d="M 11.500037,31.436501 C 11.940474,20.09759 22.043105,11.32322 32.158766,21.979434 L 37.068811,17.246167 C 37.068811,17.246167 37.088388,32 37.088388,32 L 22.160133,31.978069 C 22.160133,31.978069 26.997745,27.140456 26.997745,27.140456 C 18.528582,18.264221 13.291696,25.230495 11.500037,31.436501 z"
             style="fill:#404040;"/>
          </a>
         </g>
        </svg>
</svg>
