<?xml version="1.0" encoding="UTF-8" standalone="no"?>
<!DOCTYPE svg PUBLIC "-//W3C//DTD SVG 1.1//EN"
 "http://www.w3.org/Graphics/SVG/1.1/DTD/svg11.dtd">
<!-- Generated by graphviz version 2.40.1 (20161225.0304)
 -->
<!-- Title: xla::Service::SingleComputationDeviceHandle Pages: 1 -->
<svg width="512pt" height="289pt"
 viewBox="0.00 0.00 512.00 289.20" xmlns="http://www.w3.org/2000/svg" xmlns:xlink="http://www.w3.org/1999/xlink">
<g id="graph0" class="graph" transform="scale(1 1) rotate(0) translate(4 285.1994)">
<title>xla::Service::SingleComputationDeviceHandle</title>
<polygon fill="#ffffff" stroke="transparent" points="-4,4 -4,-285.1994 508,-285.1994 508,4 -4,4"/>
<!-- Node544 -->
<g id="node1" class="node">
<title>Node544</title>
<polygon fill="#bfbfbf" stroke="#000000" points="0,-142.5 0,-172.5 157,-172.5 157,-142.5 0,-142.5"/>
<text text-anchor="start" x="8" y="-160.5" font-family="Helvetica,sans-Serif" font-size="10.00" fill="#000000">xla::Service::SingleComputation</text>
<text text-anchor="middle" x="78.5" y="-149.5" font-family="Helvetica,sans-Serif" font-size="10.00" fill="#000000">DeviceHandle</text>
</g>
<!-- Node545 -->
<g id="node2" class="node">
<title>Node545</title>
<g id="a_node2"><a xlink:href="../../d1/d10/classxla_1_1Service.html#a384d1ad9e483a5e2a65575ca011cc274" target="_top" xlink:title="xla::Service::ExecuteAnd\lRegisterResult">
<polygon fill="#ffffff" stroke="#000000" points="198,-224.5 198,-254.5 326,-254.5 326,-224.5 198,-224.5"/>
<text text-anchor="start" x="206" y="-242.5" font-family="Helvetica,sans-Serif" font-size="10.00" fill="#000000">xla::Service::ExecuteAnd</text>
<text text-anchor="middle" x="262" y="-231.5" font-family="Helvetica,sans-Serif" font-size="10.00" fill="#000000">RegisterResult</text>
</a>
</g>
</g>
<!-- Node544&#45;&gt;Node545 -->
<g id="edge1" class="edge">
<title>Node544&#45;&gt;Node545</title>
<path fill="none" stroke="#191970" d="M120.7262,-176.8737C142.3103,-186.7266 169.0169,-198.8412 193,-209.5 203.9817,-214.3806 215.9817,-219.6278 226.8498,-224.3478"/>
<polygon fill="#191970" stroke="#191970" points="122.056,-173.6333 111.506,-172.6601 119.1465,-180 122.056,-173.6333"/>
</g>
<!-- Node546 -->
<g id="node3" class="node">
<title>Node546</title>
<g id="a_node3"><a xlink:href="../../d1/d10/classxla_1_1Service.html#ac3f89822d1f6faab8382f1902e54eea3" target="_top" xlink:title="xla::Service::Execute">
<polygon fill="#ffffff" stroke="#000000" points="380.5,-250 380.5,-269 490.5,-269 490.5,-250 380.5,-250"/>
<text text-anchor="middle" x="435.5" y="-257" font-family="Helvetica,sans-Serif" font-size="10.00" fill="#000000">xla::Service::Execute</text>
</a>
</g>
</g>
<!-- Node544&#45;&gt;Node546 -->
<g id="edge4" class="edge">
<title>Node544&#45;&gt;Node546</title>
<path fill="none" stroke="#191970" d="M94.7123,-180.7881C114.4539,-206.8826 150.4792,-247.7246 193,-264.5 260.9623,-291.3127 348.1899,-279.485 397.3525,-269.077"/>
<polygon fill="#191970" stroke="#191970" points="97.4025,-178.5387 88.6557,-172.5601 91.7651,-182.6884 97.4025,-178.5387"/>
</g>
<!-- Node547 -->
<g id="node4" class="node">
<title>Node547</title>
<g id="a_node4"><a xlink:href="../../d1/d10/classxla_1_1Service.html#a6d2eb2712a109ab9484080dfd1e2e446" target="_top" xlink:title="xla::Service::ExecuteGraph">
<polygon fill="#ffffff" stroke="#000000" points="367,-209 367,-228 504,-228 504,-209 367,-209"/>
<text text-anchor="middle" x="435.5" y="-216" font-family="Helvetica,sans-Serif" font-size="10.00" fill="#000000">xla::Service::ExecuteGraph</text>
</a>
</g>
</g>
<!-- Node544&#45;&gt;Node547 -->
<g id="edge5" class="edge">
<title>Node544&#45;&gt;Node547</title>
<path fill="none" stroke="#191970" d="M167.3606,-172.6835C233.9741,-184.0656 323.0812,-199.2912 379.8998,-208.9997"/>
<polygon fill="#191970" stroke="#191970" points="167.7338,-169.1966 157.2871,-170.9622 166.5547,-176.0966 167.7338,-169.1966"/>
</g>
<!-- Node548 -->
<g id="node5" class="node">
<title>Node548</title>
<g id="a_node5"><a xlink:href="../../d1/d10/classxla_1_1Service.html#ad940842d8a31741ccd025d883744223c" target="_top" xlink:title="xla::Service::ExecuteAsync">
<polygon fill="#ffffff" stroke="#000000" points="193,-148 193,-167 331,-167 331,-148 193,-148"/>
<text text-anchor="middle" x="262" y="-155" font-family="Helvetica,sans-Serif" font-size="10.00" fill="#000000">xla::Service::ExecuteAsync</text>
</a>
</g>
</g>
<!-- Node544&#45;&gt;Node548 -->
<g id="edge6" class="edge">
<title>Node544&#45;&gt;Node548</title>
<path fill="none" stroke="#191970" d="M167.1852,-157.5C175.7896,-157.5 184.43,-157.5 192.8032,-157.5"/>
<polygon fill="#191970" stroke="#191970" points="167.1191,-154.0001 157.1191,-157.5 167.119,-161.0001 167.1191,-154.0001"/>
</g>
<!-- Node549 -->
<g id="node6" class="node">
<title>Node549</title>
<g id="a_node6"><a xlink:href="../../d1/d10/classxla_1_1Service.html#adcdc79b5e304ee115c59934e45b48093" target="_top" xlink:title="xla::Service::TransferTo\lServer">
<polygon fill="#ffffff" stroke="#000000" points="202,-98.5 202,-128.5 322,-128.5 322,-98.5 202,-98.5"/>
<text text-anchor="start" x="210" y="-116.5" font-family="Helvetica,sans-Serif" font-size="10.00" fill="#000000">xla::Service::TransferTo</text>
<text text-anchor="middle" x="262" y="-105.5" font-family="Helvetica,sans-Serif" font-size="10.00" fill="#000000">Server</text>
</a>
</g>
</g>
<!-- Node544&#45;&gt;Node549 -->
<g id="edge7" class="edge">
<title>Node544&#45;&gt;Node549</title>
<path fill="none" stroke="#191970" d="M150.937,-140.1309C167.7912,-136.0896 185.5561,-131.8299 201.815,-127.9313"/>
<polygon fill="#191970" stroke="#191970" points="150.0453,-136.7454 141.1371,-142.4808 151.6775,-143.5525 150.0453,-136.7454"/>
</g>
<!-- Node550 -->
<g id="node7" class="node">
<title>Node550</title>
<g id="a_node7"><a xlink:href="../../d1/d10/classxla_1_1Service.html#a38ddca682c414a7a8a573fdbd3aa61ad" target="_top" xlink:title="xla::Service::TransferTo\lInfeed">
<polygon fill="#ffffff" stroke="#000000" points="202,-49.5 202,-79.5 322,-79.5 322,-49.5 202,-49.5"/>
<text text-anchor="start" x="210" y="-67.5" font-family="Helvetica,sans-Serif" font-size="10.00" fill="#000000">xla::Service::TransferTo</text>
<text text-anchor="middle" x="262" y="-56.5" font-family="Helvetica,sans-Serif" font-size="10.00" fill="#000000">Infeed</text>
</a>
</g>
</g>
<!-- Node544&#45;&gt;Node550 -->
<g id="edge8" class="edge">
<title>Node544&#45;&gt;Node550</title>
<path fill="none" stroke="#191970" d="M109.0021,-136.7283C131.5339,-121.9853 163.3195,-102.4201 193,-88.5 199.7749,-85.3226 207.092,-82.3349 214.3416,-79.6184"/>
<polygon fill="#191970" stroke="#191970" points="106.9561,-133.8852 100.5449,-142.32 110.8169,-139.7242 106.9561,-133.8852"/>
</g>
<!-- Node551 -->
<g id="node8" class="node">
<title>Node551</title>
<g id="a_node8"><a xlink:href="../../d1/d10/classxla_1_1Service.html#ad886b3b1c00757ca3e609c721a556be9" target="_top" xlink:title="xla::Service::TransferFrom\lOutfeed">
<polygon fill="#ffffff" stroke="#000000" points="196,-.5 196,-30.5 328,-30.5 328,-.5 196,-.5"/>
<text text-anchor="start" x="204" y="-18.5" font-family="Helvetica,sans-Serif" font-size="10.00" fill="#000000">xla::Service::TransferFrom</text>
<text text-anchor="middle" x="262" y="-7.5" font-family="Helvetica,sans-Serif" font-size="10.00" fill="#000000">Outfeed</text>
</a>
</g>
</g>
<!-- Node544&#45;&gt;Node551 -->
<g id="edge9" class="edge">
<title>Node544&#45;&gt;Node551</title>
<path fill="none" stroke="#191970" d="M95.7796,-133.9748C116.2779,-107.5902 152.7779,-65.1448 193,-39.5 198.2402,-36.1589 204.0024,-33.2176 209.8946,-30.6454"/>
<polygon fill="#191970" stroke="#191970" points="92.742,-132.186 89.4592,-142.2595 98.3074,-136.4319 92.742,-132.186"/>
</g>
<!-- Node545&#45;&gt;Node546 -->
<g id="edge2" class="edge">
<title>Node545&#45;&gt;Node546</title>
<path fill="none" stroke="#191970" d="M336.2805,-248.0626C351.1145,-249.7726 366.4454,-251.5398 380.489,-253.1587"/>
<polygon fill="#191970" stroke="#191970" points="336.4471,-244.5587 326.1121,-246.8904 335.6454,-251.5127 336.4471,-244.5587"/>
</g>
<!-- Node545&#45;&gt;Node547 -->
<g id="edge3" class="edge">
<title>Node545&#45;&gt;Node547</title>
<path fill="none" stroke="#191970" d="M336.225,-230.516C346.4383,-229.2798 356.8883,-228.015 366.9924,-226.792"/>
<polygon fill="#191970" stroke="#191970" points="335.619,-227.0637 326.1121,-231.74 336.4602,-234.013 335.619,-227.0637"/>
</g>
</g>
</svg>
