<?xml version="1.0" encoding="UTF-8" standalone="no"?>
<!DOCTYPE svg PUBLIC "-//W3C//DTD SVG 1.1//EN"
 "http://www.w3.org/Graphics/SVG/1.1/DTD/svg11.dtd">
<!-- Generated by graphviz version 2.40.1 (20161225.0304)
 -->
<!-- Title: xla::Service::TransferToInfeed Pages: 1 -->
<svg width="468pt" height="121pt"
 viewBox="0.00 0.00 468.00 121.00" xmlns="http://www.w3.org/2000/svg" xmlns:xlink="http://www.w3.org/1999/xlink">
<g id="graph0" class="graph" transform="scale(1 1) rotate(0) translate(4 117)">
<title>xla::Service::TransferToInfeed</title>
<polygon fill="#ffffff" stroke="transparent" points="-4,4 -4,-117 464,-117 464,4 -4,4"/>
<!-- Node573 -->
<g id="node1" class="node">
<title>Node573</title>
<polygon fill="#bfbfbf" stroke="#000000" points="0,-44.5 0,-74.5 120,-74.5 120,-44.5 0,-44.5"/>
<text text-anchor="start" x="8" y="-62.5" font-family="Helvetica,sans-Serif" font-size="10.00" fill="#000000">xla::Service::TransferTo</text>
<text text-anchor="middle" x="60" y="-51.5" font-family="Helvetica,sans-Serif" font-size="10.00" fill="#000000">Infeed</text>
</g>
<!-- Node574 -->
<g id="node2" class="node">
<title>Node574</title>
<g id="a_node2"><a xlink:href="../../d5/d7a/classxla_1_1ServiceOptions.html#a16503bc7e5b638f42419425b48d648d7" target="_top" xlink:title="xla::ServiceOptions\l::number_of_replicas">
<polygon fill="#ffffff" stroke="#000000" points="351,-82.5 351,-112.5 458,-112.5 458,-82.5 351,-82.5"/>
<text text-anchor="start" x="359" y="-100.5" font-family="Helvetica,sans-Serif" font-size="10.00" fill="#000000">xla::ServiceOptions</text>
<text text-anchor="middle" x="404.5" y="-89.5" font-family="Helvetica,sans-Serif" font-size="10.00" fill="#000000">::number_of_replicas</text>
</a>
</g>
</g>
<!-- Node573&#45;&gt;Node574 -->
<g id="edge1" class="edge">
<title>Node573&#45;&gt;Node574</title>
<path fill="none" stroke="#191970" d="M120.2443,-72.5617C132.057,-74.8002 144.3849,-76.9123 156,-78.5 218.5662,-87.0524 290.5602,-92.0286 340.8977,-94.7265"/>
<polygon fill="#191970" stroke="#191970" points="340.8143,-98.2268 350.9829,-95.2521 341.1787,-91.2363 340.8143,-98.2268"/>
</g>
<!-- Node575 -->
<g id="node3" class="node">
<title>Node575</title>
<g id="a_node3"><a xlink:href="../../d1/d10/classxla_1_1Service.html#a1c62dd29d5ef6643da20d7f1f53c93ee" target="_top" xlink:title="xla::Service::Replicas">
<polygon fill="#ffffff" stroke="#000000" points="178,-50 178,-69 291,-69 291,-50 178,-50"/>
<text text-anchor="middle" x="234.5" y="-57" font-family="Helvetica,sans-Serif" font-size="10.00" fill="#000000">xla::Service::Replicas</text>
</a>
</g>
</g>
<!-- Node573&#45;&gt;Node575 -->
<g id="edge2" class="edge">
<title>Node573&#45;&gt;Node575</title>
<path fill="none" stroke="#191970" d="M120.053,-59.5C135.4187,-59.5 152.0349,-59.5 167.7163,-59.5"/>
<polygon fill="#191970" stroke="#191970" points="167.8637,-63.0001 177.8637,-59.5 167.8637,-56.0001 167.8637,-63.0001"/>
</g>
<!-- Node577 -->
<g id="node5" class="node">
<title>Node577</title>
<g id="a_node5"><a xlink:href="../../d1/d10/classxla_1_1Service.html#ab2f61cf74addf4119fb04da6bfe85d61" target="_top" xlink:title="xla::Service::SingleComputation\lDeviceHandle">
<polygon fill="#ffffff" stroke="#000000" points="156,-.5 156,-30.5 313,-30.5 313,-.5 156,-.5"/>
<text text-anchor="start" x="164" y="-18.5" font-family="Helvetica,sans-Serif" font-size="10.00" fill="#000000">xla::Service::SingleComputation</text>
<text text-anchor="middle" x="234.5" y="-7.5" font-family="Helvetica,sans-Serif" font-size="10.00" fill="#000000">DeviceHandle</text>
</a>
</g>
</g>
<!-- Node573&#45;&gt;Node577 -->
<g id="edge5" class="edge">
<title>Node573&#45;&gt;Node577</title>
<path fill="none" stroke="#191970" d="M119.5649,-44.4808C134.2245,-40.7844 150.0473,-36.7947 165.1258,-32.9926"/>
<polygon fill="#191970" stroke="#191970" points="166.0667,-36.365 174.9074,-30.5262 164.3552,-29.5775 166.0667,-36.365"/>
</g>
<!-- Node575&#45;&gt;Node574 -->
<g id="edge3" class="edge">
<title>Node575&#45;&gt;Node574</title>
<path fill="none" stroke="#191970" d="M277.3982,-69.089C296.6736,-73.3976 319.8134,-78.5701 341.0358,-83.3139"/>
<polygon fill="#191970" stroke="#191970" points="340.4289,-86.7645 350.9516,-85.5303 341.9559,-79.9331 340.4289,-86.7645"/>
</g>
<!-- Node576 -->
<g id="node4" class="node">
<title>Node576</title>
<g id="a_node4"><a xlink:href="../../d1/d10/classxla_1_1Service.html#aa23389c9947ef664bcaad4f253962b65" target="_top" xlink:title="xla::Service::backend">
<polygon fill="#ffffff" stroke="#000000" points="349,-44 349,-63 460,-63 460,-44 349,-44"/>
<text text-anchor="middle" x="404.5" y="-51" font-family="Helvetica,sans-Serif" font-size="10.00" fill="#000000">xla::Service::backend</text>
</a>
</g>
</g>
<!-- Node575&#45;&gt;Node576 -->
<g id="edge4" class="edge">
<title>Node575&#45;&gt;Node576</title>
<path fill="none" stroke="#191970" d="M291.1075,-57.5021C306.3202,-56.9652 322.9036,-56.3799 338.5749,-55.8268"/>
<polygon fill="#191970" stroke="#191970" points="338.8476,-59.3194 348.7179,-55.4688 338.6007,-52.3238 338.8476,-59.3194"/>
</g>
</g>
</svg>
