<?xml version="1.0" encoding="UTF-8" standalone="no"?>
<!DOCTYPE svg PUBLIC "-//W3C//DTD SVG 1.1//EN"
 "http://www.w3.org/Graphics/SVG/1.1/DTD/svg11.dtd">
<!-- Generated by graphviz version 2.40.1 (20161225.0304)
 -->
<!-- Title: xla::Service::TransferFromOutfeed Pages: 1 -->
<svg width="480pt" height="121pt"
 viewBox="0.00 0.00 480.00 121.00" xmlns="http://www.w3.org/2000/svg" xmlns:xlink="http://www.w3.org/1999/xlink">
<g id="graph0" class="graph" transform="scale(1 1) rotate(0) translate(4 117)">
<title>xla::Service::TransferFromOutfeed</title>
<polygon fill="#ffffff" stroke="transparent" points="-4,4 -4,-117 476,-117 476,4 -4,4"/>
<!-- Node565 -->
<g id="node1" class="node">
<title>Node565</title>
<polygon fill="#bfbfbf" stroke="#000000" points="0,-44.5 0,-74.5 132,-74.5 132,-44.5 0,-44.5"/>
<text text-anchor="start" x="8" y="-62.5" font-family="Helvetica,sans-Serif" font-size="10.00" fill="#000000">xla::Service::TransferFrom</text>
<text text-anchor="middle" x="66" y="-51.5" font-family="Helvetica,sans-Serif" font-size="10.00" fill="#000000">Outfeed</text>
</g>
<!-- Node566 -->
<g id="node2" class="node">
<title>Node566</title>
<g id="a_node2"><a xlink:href="../../d5/d7a/classxla_1_1ServiceOptions.html#a16503bc7e5b638f42419425b48d648d7" target="_top" xlink:title="xla::ServiceOptions\l::number_of_replicas">
<polygon fill="#ffffff" stroke="#000000" points="363,-82.5 363,-112.5 470,-112.5 470,-82.5 363,-82.5"/>
<text text-anchor="start" x="371" y="-100.5" font-family="Helvetica,sans-Serif" font-size="10.00" fill="#000000">xla::ServiceOptions</text>
<text text-anchor="middle" x="416.5" y="-89.5" font-family="Helvetica,sans-Serif" font-size="10.00" fill="#000000">::number_of_replicas</text>
</a>
</g>
</g>
<!-- Node565&#45;&gt;Node566 -->
<g id="edge1" class="edge">
<title>Node565&#45;&gt;Node566</title>
<path fill="none" stroke="#191970" d="M132.2249,-72.908C144.101,-75.0061 156.3907,-76.9794 168,-78.5 230.4126,-86.6747 302.1393,-91.6942 352.4392,-94.5047"/>
<polygon fill="#191970" stroke="#191970" points="352.3443,-98.0046 362.5201,-95.0544 352.7255,-91.015 352.3443,-98.0046"/>
</g>
<!-- Node567 -->
<g id="node3" class="node">
<title>Node567</title>
<g id="a_node3"><a xlink:href="../../d1/d10/classxla_1_1Service.html#a1c62dd29d5ef6643da20d7f1f53c93ee" target="_top" xlink:title="xla::Service::Replicas">
<polygon fill="#ffffff" stroke="#000000" points="190,-50 190,-69 303,-69 303,-50 190,-50"/>
<text text-anchor="middle" x="246.5" y="-57" font-family="Helvetica,sans-Serif" font-size="10.00" fill="#000000">xla::Service::Replicas</text>
</a>
</g>
</g>
<!-- Node565&#45;&gt;Node567 -->
<g id="edge2" class="edge">
<title>Node565&#45;&gt;Node567</title>
<path fill="none" stroke="#191970" d="M132.1866,-59.5C147.7032,-59.5 164.2437,-59.5 179.7833,-59.5"/>
<polygon fill="#191970" stroke="#191970" points="179.8298,-63.0001 189.8298,-59.5 179.8298,-56.0001 179.8298,-63.0001"/>
</g>
<!-- Node569 -->
<g id="node5" class="node">
<title>Node569</title>
<g id="a_node5"><a xlink:href="../../d1/d10/classxla_1_1Service.html#ab2f61cf74addf4119fb04da6bfe85d61" target="_top" xlink:title="xla::Service::SingleComputation\lDeviceHandle">
<polygon fill="#ffffff" stroke="#000000" points="168,-.5 168,-30.5 325,-30.5 325,-.5 168,-.5"/>
<text text-anchor="start" x="176" y="-18.5" font-family="Helvetica,sans-Serif" font-size="10.00" fill="#000000">xla::Service::SingleComputation</text>
<text text-anchor="middle" x="246.5" y="-7.5" font-family="Helvetica,sans-Serif" font-size="10.00" fill="#000000">DeviceHandle</text>
</a>
</g>
</g>
<!-- Node565&#45;&gt;Node569 -->
<g id="edge5" class="edge">
<title>Node565&#45;&gt;Node569</title>
<path fill="none" stroke="#191970" d="M127.613,-44.4808C142.7766,-40.7844 159.1435,-36.7947 174.7405,-32.9926"/>
<polygon fill="#191970" stroke="#191970" points="175.9718,-36.295 184.8584,-30.5262 174.314,-29.4942 175.9718,-36.295"/>
</g>
<!-- Node567&#45;&gt;Node566 -->
<g id="edge3" class="edge">
<title>Node567&#45;&gt;Node566</title>
<path fill="none" stroke="#191970" d="M289.3982,-69.089C308.6736,-73.3976 331.8134,-78.5701 353.0358,-83.3139"/>
<polygon fill="#191970" stroke="#191970" points="352.4289,-86.7645 362.9516,-85.5303 353.9559,-79.9331 352.4289,-86.7645"/>
</g>
<!-- Node568 -->
<g id="node4" class="node">
<title>Node568</title>
<g id="a_node4"><a xlink:href="../../d1/d10/classxla_1_1Service.html#aa23389c9947ef664bcaad4f253962b65" target="_top" xlink:title="xla::Service::backend">
<polygon fill="#ffffff" stroke="#000000" points="361,-44 361,-63 472,-63 472,-44 361,-44"/>
<text text-anchor="middle" x="416.5" y="-51" font-family="Helvetica,sans-Serif" font-size="10.00" fill="#000000">xla::Service::backend</text>
</a>
</g>
</g>
<!-- Node567&#45;&gt;Node568 -->
<g id="edge4" class="edge">
<title>Node567&#45;&gt;Node568</title>
<path fill="none" stroke="#191970" d="M303.1075,-57.5021C318.3202,-56.9652 334.9036,-56.3799 350.5749,-55.8268"/>
<polygon fill="#191970" stroke="#191970" points="350.8476,-59.3194 360.7179,-55.4688 350.6007,-52.3238 350.8476,-59.3194"/>
</g>
</g>
</svg>
