<?xml version="1.0" encoding="UTF-8" standalone="no"?>
<!DOCTYPE svg PUBLIC "-//W3C//DTD SVG 1.1//EN"
 "http://www.w3.org/Graphics/SVG/1.1/DTD/svg11.dtd">
<!-- Generated by graphviz version 2.40.1 (20161225.0304)
 -->
<!-- Title: xla::Service::SnapshotComputation Pages: 1 -->
<!--zoomable 110 -->
<svg id="main" version="1.1" xmlns="http://www.w3.org/2000/svg" xmlns:xlink="http://www.w3.org/1999/xlink" xml:space="preserve" onload="init(evt)">
<style type="text/css"><![CDATA[
.edge:hover path { stroke: red; }
.edge:hover polygon { stroke: red; fill: red; }
]]></style>
<script type="text/javascript"><![CDATA[
var edges = document.getElementsByTagName('g');
if (edges && edges.length) {
  for (var i=0;i<edges.length;i++) {
    if (edges[i].id.substr(0,4)=='edge') {
      edges[i].setAttribute('class','edge');
    }
  }
}
]]></script>
        <defs>
                <circle id="rim" cx="0" cy="0" r="7"/>
                <circle id="rim2" cx="0" cy="0" r="3.5"/>
                <g id="zoomPlus">
                        <use xlink:href="#rim" fill="#404040">
                                <set attributeName="fill" to="#808080" begin="zoomplus.mouseover" end="zoomplus.mouseout"/>
                        </use>
                        <path d="M-4,0h8M0,-4v8" fill="none" stroke="white" stroke-width="1.5" pointer-events="none"/>
                </g>
                <g id="zoomMin">
                        <use xlink:href="#rim" fill="#404040">
                                <set attributeName="fill" to="#808080" begin="zoomminus.mouseover" end="zoomminus.mouseout"/>
                        </use>
                        <path d="M-4,0h8" fill="none" stroke="white" stroke-width="1.5" pointer-events="none"/>
                </g>
                <g id="dirArrow">
                        <path fill="none" stroke="white" stroke-width="1.5" d="M0,-3.0v7 M-2.5,-0.5L0,-3.0L2.5,-0.5"/>
                </g>
               <g id="resetDef">
                       <use xlink:href="#rim2" fill="#404040">
                               <set attributeName="fill" to="#808080" begin="reset.mouseover" end="reset.mouseout"/>
                       </use>
               </g>
        </defs>

<script type="text/javascript">
var viewWidth = 1193;
var viewHeight = 110;
var sectionId = 'dynsection-51';
</script>
<script xlink:href="../../svgpan.js"/>
<svg id="graph" class="graph">
<g id="viewport">
<title>xla::Service::SnapshotComputation</title>
<polygon fill="#ffffff" stroke="transparent" points="-4,4 -4,-106.2627 1189,-106.2627 1189,4 -4,4"/>
<!-- Node552 -->
<g id="node1" class="node">
<title>Node552</title>
<polygon fill="#bfbfbf" stroke="#000000" points="0,-55 0,-74 171,-74 171,-55 0,-55"/>
<text text-anchor="middle" x="85.5" y="-62" font-family="Helvetica,sans-Serif" font-size="10.00" fill="#000000">xla::Service::SnapshotComputation</text>
</g>
<!-- Node553 -->
<g id="node2" class="node">
<title>Node553</title>
<g id="a_node2"><a xlink:href="../../d8/d42/classxla_1_1ComputationTracker.html#a1acead58332b1b2c6beaeac5505b1b8a" target="_top" xlink:title="xla::ComputationTracker\l::SnapshotComputation">
<polygon fill="#ffffff" stroke="#000000" points="207,-49.5 207,-79.5 329,-79.5 329,-49.5 207,-49.5"/>
<text text-anchor="start" x="215" y="-67.5" font-family="Helvetica,sans-Serif" font-size="10.00" fill="#000000">xla::ComputationTracker</text>
<text text-anchor="middle" x="268" y="-56.5" font-family="Helvetica,sans-Serif" font-size="10.00" fill="#000000">::SnapshotComputation</text>
</a>
</g>
</g>
<!-- Node552&#45;&gt;Node553 -->
<g id="edge1" class="edge">
<title>Node552&#45;&gt;Node553</title>
<path fill="none" stroke="#191970" d="M171.1391,-64.5C179.6983,-64.5 188.3236,-64.5 196.7123,-64.5"/>
<polygon fill="#191970" stroke="#191970" points="196.8068,-68.0001 206.8068,-64.5 196.8068,-61.0001 196.8068,-68.0001"/>
</g>
<!-- Node554 -->
<g id="node3" class="node">
<title>Node554</title>
<g id="a_node3"><a xlink:href="../../d8/d42/classxla_1_1ComputationTracker.html#add84b3f565b288fdcfdfad55bab8f3ee" target="_top" xlink:title="xla::ComputationTracker\l::Resolve">
<polygon fill="#ffffff" stroke="#000000" points="385,-49.5 385,-79.5 507,-79.5 507,-49.5 385,-49.5"/>
<text text-anchor="start" x="393" y="-67.5" font-family="Helvetica,sans-Serif" font-size="10.00" fill="#000000">xla::ComputationTracker</text>
<text text-anchor="middle" x="446" y="-56.5" font-family="Helvetica,sans-Serif" font-size="10.00" fill="#000000">::Resolve</text>
</a>
</g>
</g>
<!-- Node553&#45;&gt;Node554 -->
<g id="edge2" class="edge">
<title>Node553&#45;&gt;Node554</title>
<path fill="none" stroke="#191970" d="M329.2575,-64.5C343.8834,-64.5 359.6198,-64.5 374.6559,-64.5"/>
<polygon fill="#191970" stroke="#191970" points="374.9313,-68.0001 384.9312,-64.5 374.9312,-61.0001 374.9313,-68.0001"/>
</g>
<!-- Node556 -->
<g id="node5" class="node">
<title>Node556</title>
<g id="a_node5"><a xlink:href="../../db/dbb/classxla_1_1UserComputation.html#a4fef8fc438e3b3b2c396de862820af3e" target="_top" xlink:title="xla::UserComputation\l::GetVersionedHandle">
<polygon fill="#ffffff" stroke="#000000" points="893,-71.5 893,-101.5 1005,-101.5 1005,-71.5 893,-71.5"/>
<text text-anchor="start" x="901" y="-89.5" font-family="Helvetica,sans-Serif" font-size="10.00" fill="#000000">xla::UserComputation</text>
<text text-anchor="middle" x="949" y="-78.5" font-family="Helvetica,sans-Serif" font-size="10.00" fill="#000000">::GetVersionedHandle</text>
</a>
</g>
</g>
<!-- Node553&#45;&gt;Node556 -->
<g id="edge4" class="edge">
<title>Node553&#45;&gt;Node556</title>
<path fill="none" stroke="#191970" d="M318.9152,-79.5557C333.6482,-83.24 349.8458,-86.6531 365,-88.5 551.4681,-111.2256 773.9189,-100.0095 882.6016,-92.0774"/>
<polygon fill="#191970" stroke="#191970" points="883.0466,-95.5541 892.7591,-91.3213 882.5269,-88.5734 883.0466,-95.5541"/>
</g>
<!-- Node558 -->
<g id="node7" class="node">
<title>Node558</title>
<g id="a_node7"><a xlink:href="../../d8/d42/classxla_1_1ComputationTracker.html#a8a16c1575ce6ceb15e15ba2a7d9b65fa" target="_top" xlink:title="xla::ComputationTracker\l::ComputeComputationPostOrder">
<polygon fill="#ffffff" stroke="#000000" points="365,-.5 365,-30.5 527,-30.5 527,-.5 365,-.5"/>
<text text-anchor="start" x="373" y="-18.5" font-family="Helvetica,sans-Serif" font-size="10.00" fill="#000000">xla::ComputationTracker</text>
<text text-anchor="middle" x="446" y="-7.5" font-family="Helvetica,sans-Serif" font-size="10.00" fill="#000000">::ComputeComputationPostOrder</text>
</a>
</g>
</g>
<!-- Node553&#45;&gt;Node558 -->
<g id="edge6" class="edge">
<title>Node553&#45;&gt;Node558</title>
<path fill="none" stroke="#191970" d="M322.8583,-49.3986C341.3865,-44.2981 362.2416,-38.5571 381.4495,-33.2695"/>
<polygon fill="#191970" stroke="#191970" points="382.6104,-36.5802 391.3228,-30.5516 380.7525,-29.8313 382.6104,-36.5802"/>
</g>
<!-- Node555 -->
<g id="node4" class="node">
<title>Node555</title>
<g id="a_node4"><a xlink:href="../../d8/d42/classxla_1_1ComputationTracker.html#aa2f38317a41c1c64fba497780bc39169" target="_top" xlink:title="xla::ComputationTracker\l::ResolveInternal">
<polygon fill="#ffffff" stroke="#000000" points="575,-49.5 575,-79.5 697,-79.5 697,-49.5 575,-49.5"/>
<text text-anchor="start" x="583" y="-67.5" font-family="Helvetica,sans-Serif" font-size="10.00" fill="#000000">xla::ComputationTracker</text>
<text text-anchor="middle" x="636" y="-56.5" font-family="Helvetica,sans-Serif" font-size="10.00" fill="#000000">::ResolveInternal</text>
</a>
</g>
</g>
<!-- Node554&#45;&gt;Node555 -->
<g id="edge3" class="edge">
<title>Node554&#45;&gt;Node555</title>
<path fill="none" stroke="#191970" d="M507.163,-64.5C525.5542,-64.5 545.8916,-64.5 564.8699,-64.5"/>
<polygon fill="#191970" stroke="#191970" points="564.9516,-68.0001 574.9516,-64.5 564.9515,-61.0001 564.9516,-68.0001"/>
</g>
<!-- Node557 -->
<g id="node6" class="node">
<title>Node557</title>
<g id="a_node6"><a xlink:href="../../db/dbb/classxla_1_1UserComputation.html#af44a77b35aaed6ff22d5fbb266dd824e" target="_top" xlink:title="xla::UserComputation\l::GetVersionedHandleInternal">
<polygon fill="#ffffff" stroke="#000000" points="1041,-71.5 1041,-101.5 1185,-101.5 1185,-71.5 1041,-71.5"/>
<text text-anchor="start" x="1049" y="-89.5" font-family="Helvetica,sans-Serif" font-size="10.00" fill="#000000">xla::UserComputation</text>
<text text-anchor="middle" x="1113" y="-78.5" font-family="Helvetica,sans-Serif" font-size="10.00" fill="#000000">::GetVersionedHandleInternal</text>
</a>
</g>
</g>
<!-- Node556&#45;&gt;Node557 -->
<g id="edge5" class="edge">
<title>Node556&#45;&gt;Node557</title>
<path fill="none" stroke="#191970" d="M1005.4395,-86.5C1013.6308,-86.5 1022.2002,-86.5 1030.7728,-86.5"/>
<polygon fill="#191970" stroke="#191970" points="1030.8155,-90.0001 1040.8155,-86.5 1030.8155,-83.0001 1030.8155,-90.0001"/>
</g>
<!-- Node558&#45;&gt;Node555 -->
<g id="edge7" class="edge">
<title>Node558&#45;&gt;Node555</title>
<path fill="none" stroke="#191970" d="M504.2975,-30.5346C524.45,-35.7318 547.2064,-41.6006 568.0639,-46.9796"/>
<polygon fill="#191970" stroke="#191970" points="567.2555,-50.3856 577.8127,-49.4938 569.0036,-43.6074 567.2555,-50.3856"/>
</g>
<!-- Node559 -->
<g id="node8" class="node">
<title>Node559</title>
<g id="a_node8"><a xlink:href="../../db/dbb/classxla_1_1UserComputation.html#add02ff5e2d9daf549727b8a4ed96f116" target="_top" xlink:title="xla::UserComputation\l::GetEmbeddedComputations">
<polygon fill="#ffffff" stroke="#000000" points="563,-.5 563,-30.5 709,-30.5 709,-.5 563,-.5"/>
<text text-anchor="start" x="571" y="-18.5" font-family="Helvetica,sans-Serif" font-size="10.00" fill="#000000">xla::UserComputation</text>
<text text-anchor="middle" x="636" y="-7.5" font-family="Helvetica,sans-Serif" font-size="10.00" fill="#000000">::GetEmbeddedComputations</text>
</a>
</g>
</g>
<!-- Node558&#45;&gt;Node559 -->
<g id="edge8" class="edge">
<title>Node558&#45;&gt;Node559</title>
<path fill="none" stroke="#191970" d="M527.1282,-15.5C535.5896,-15.5 544.201,-15.5 552.6862,-15.5"/>
<polygon fill="#191970" stroke="#191970" points="552.955,-19.0001 562.955,-15.5 552.955,-12.0001 552.955,-19.0001"/>
</g>
<!-- Node560 -->
<g id="node9" class="node">
<title>Node560</title>
<g id="a_node9"><a xlink:href="../../db/dbb/classxla_1_1UserComputation.html#af22e122e5671d4f05628c8aae80b8aee" target="_top" xlink:title="xla::UserComputation\l::name">
<polygon fill="#ffffff" stroke="#000000" points="745,-.5 745,-30.5 857,-30.5 857,-.5 745,-.5"/>
<text text-anchor="start" x="753" y="-18.5" font-family="Helvetica,sans-Serif" font-size="10.00" fill="#000000">xla::UserComputation</text>
<text text-anchor="middle" x="801" y="-7.5" font-family="Helvetica,sans-Serif" font-size="10.00" fill="#000000">::name</text>
</a>
</g>
</g>
<!-- Node559&#45;&gt;Node560 -->
<g id="edge9" class="edge">
<title>Node559&#45;&gt;Node560</title>
<path fill="none" stroke="#191970" d="M709.3323,-15.5C717.7765,-15.5 726.3504,-15.5 734.6943,-15.5"/>
<polygon fill="#191970" stroke="#191970" points="734.7337,-19.0001 744.7337,-15.5 734.7336,-12.0001 734.7337,-19.0001"/>
</g>
<!-- Node561 -->
<g id="node10" class="node">
<title>Node561</title>
<g id="a_node10"><a xlink:href="../../db/dbb/classxla_1_1UserComputation.html#aee9eeba8ef86ffdae79b8fe9d74cd99b" target="_top" xlink:title="xla::UserComputation\l::version">
<polygon fill="#ffffff" stroke="#000000" points="745,-49.5 745,-79.5 857,-79.5 857,-49.5 745,-49.5"/>
<text text-anchor="start" x="753" y="-67.5" font-family="Helvetica,sans-Serif" font-size="10.00" fill="#000000">xla::UserComputation</text>
<text text-anchor="middle" x="801" y="-56.5" font-family="Helvetica,sans-Serif" font-size="10.00" fill="#000000">::version</text>
</a>
</g>
</g>
<!-- Node559&#45;&gt;Node561 -->
<g id="edge10" class="edge">
<title>Node559&#45;&gt;Node561</title>
<path fill="none" stroke="#191970" d="M686.8518,-30.6014C703.8692,-35.6551 723.0042,-41.3376 740.6734,-46.5848"/>
<polygon fill="#191970" stroke="#191970" points="739.7335,-49.9567 750.3161,-49.4484 741.7263,-43.2464 739.7335,-49.9567"/>
</g>
<!-- Node561&#45;&gt;Node556 -->
<g id="edge11" class="edge">
<title>Node561&#45;&gt;Node556</title>
<path fill="none" stroke="#191970" d="M857.3747,-72.88C865.712,-74.1194 874.3663,-75.4058 882.8799,-76.6713"/>
<polygon fill="#191970" stroke="#191970" points="882.3761,-80.1348 892.7821,-78.1433 883.4054,-73.2109 882.3761,-80.1348"/>
</g>
</g>
</svg>
        <g id="navigator" transform="translate(0 0)" fill="#404254">
                <rect fill="#f2f5e9" fill-opacity="0.5" stroke="#606060" stroke-width=".5" x="0" y="0" width="60" height="60"/>
                <use id="zoomplus" xlink:href="#zoomPlus" x="17" y="9" onmousedown="handleZoom(evt,'in')"/>
                <use id="zoomminus" xlink:href="#zoomMin" x="42" y="9" onmousedown="handleZoom(evt,'out')"/>
                <use id="reset" xlink:href="#resetDef" x="30" y="36" onmousedown="handleReset()"/>
                <g id="arrowUp" xlink:href="#dirArrow" transform="translate(30 24)" onmousedown="handlePan(0,-1)">
                  <use xlink:href="#rim" fill="#404040">
                        <set attributeName="fill" to="#808080" begin="arrowUp.mouseover" end="arrowUp.mouseout"/>
                  </use>
                  <path fill="none" stroke="white" stroke-width="1.5" d="M0,-3.0v7 M-2.5,-0.5L0,-3.0L2.5,-0.5"/>
                </g>
                <g id="arrowRight" xlink:href="#dirArrow" transform="rotate(90) translate(36 -43)" onmousedown="handlePan(1,0)">
                  <use xlink:href="#rim" fill="#404040">
                        <set attributeName="fill" to="#808080" begin="arrowRight.mouseover" end="arrowRight.mouseout"/>
                  </use>
                  <path fill="none" stroke="white" stroke-width="1.5" d="M0,-3.0v7 M-2.5,-0.5L0,-3.0L2.5,-0.5"/>
                </g>
                <g id="arrowDown" xlink:href="#dirArrow" transform="rotate(180) translate(-30 -48)" onmousedown="handlePan(0,1)">
                  <use xlink:href="#rim" fill="#404040">
                        <set attributeName="fill" to="#808080" begin="arrowDown.mouseover" end="arrowDown.mouseout"/>
                  </use>
                  <path fill="none" stroke="white" stroke-width="1.5" d="M0,-3.0v7 M-2.5,-0.5L0,-3.0L2.5,-0.5"/>
                </g>
                <g id="arrowLeft" xlink:href="#dirArrow" transform="rotate(270) translate(-36 17)" onmousedown="handlePan(-1,0)">
                  <use xlink:href="#rim" fill="#404040">
                        <set attributeName="fill" to="#808080" begin="arrowLeft.mouseover" end="arrowLeft.mouseout"/>
                  </use>
                  <path fill="none" stroke="white" stroke-width="1.5" d="M0,-3.0v7 M-2.5,-0.5L0,-3.0L2.5,-0.5"/>
                </g>
        </g>
        <svg viewBox="0 0 15 15" width="100%" height="30px" preserveAspectRatio="xMaxYMin meet">
         <g id="arrow_out" transform="scale(0.3 0.3)">
          <a xlink:href="classxla_1_1Service_ab6915b044aa99a7186c77b543bc1fb30_cgraph_org.svg" target="_base">
           <rect id="button" ry="5" rx="5" y="6" x="6" height="38" width="38"
                fill="#f2f5e9" fill-opacity="0.5" stroke="#606060" stroke-width="1.0"/>
           <path id="arrow"
             d="M 11.500037,31.436501 C 11.940474,20.09759 22.043105,11.32322 32.158766,21.979434 L 37.068811,17.246167 C 37.068811,17.246167 37.088388,32 37.088388,32 L 22.160133,31.978069 C 22.160133,31.978069 26.997745,27.140456 26.997745,27.140456 C 18.528582,18.264221 13.291696,25.230495 11.500037,31.436501 z"
             style="fill:#404040;"/>
          </a>
         </g>
        </svg>
</svg>
