<?xml version="1.0" encoding="UTF-8" standalone="no"?>
<!DOCTYPE svg PUBLIC "-//W3C//DTD SVG 1.1//EN"
 "http://www.w3.org/Graphics/SVG/1.1/DTD/svg11.dtd">
<!-- Generated by graphviz version 2.40.1 (20161225.0304)
 -->
<!-- Title: xla::Service::AddInstruction Pages: 1 -->
<svg width="461pt" height="39pt"
 viewBox="0.00 0.00 461.00 39.00" xmlns="http://www.w3.org/2000/svg" xmlns:xlink="http://www.w3.org/1999/xlink">
<g id="graph0" class="graph" transform="scale(1 1) rotate(0) translate(4 35)">
<title>xla::Service::AddInstruction</title>
<polygon fill="#ffffff" stroke="transparent" points="-4,4 -4,-35 457,-35 457,4 -4,4"/>
<!-- Node4 -->
<g id="node1" class="node">
<title>Node4</title>
<polygon fill="#bfbfbf" stroke="#000000" points="0,-6 0,-25 137,-25 137,-6 0,-6"/>
<text text-anchor="middle" x="68.5" y="-13" font-family="Helvetica,sans-Serif" font-size="10.00" fill="#000000">xla::Service::AddInstruction</text>
</g>
<!-- Node5 -->
<g id="node2" class="node">
<title>Node5</title>
<g id="a_node2"><a xlink:href="../../d8/d42/classxla_1_1ComputationTracker.html#add84b3f565b288fdcfdfad55bab8f3ee" target="_top" xlink:title="xla::ComputationTracker\l::Resolve">
<polygon fill="#ffffff" stroke="#000000" points="173,-.5 173,-30.5 295,-30.5 295,-.5 173,-.5"/>
<text text-anchor="start" x="181" y="-18.5" font-family="Helvetica,sans-Serif" font-size="10.00" fill="#000000">xla::ComputationTracker</text>
<text text-anchor="middle" x="234" y="-7.5" font-family="Helvetica,sans-Serif" font-size="10.00" fill="#000000">::Resolve</text>
</a>
</g>
</g>
<!-- Node4&#45;&gt;Node5 -->
<g id="edge1" class="edge">
<title>Node4&#45;&gt;Node5</title>
<path fill="none" stroke="#191970" d="M137.2491,-15.5C145.6465,-15.5 154.2421,-15.5 162.6762,-15.5"/>
<polygon fill="#191970" stroke="#191970" points="162.8598,-19.0001 172.8597,-15.5 162.8597,-12.0001 162.8598,-19.0001"/>
</g>
<!-- Node6 -->
<g id="node3" class="node">
<title>Node6</title>
<g id="a_node3"><a xlink:href="../../d8/d42/classxla_1_1ComputationTracker.html#aa2f38317a41c1c64fba497780bc39169" target="_top" xlink:title="xla::ComputationTracker\l::ResolveInternal">
<polygon fill="#ffffff" stroke="#000000" points="331,-.5 331,-30.5 453,-30.5 453,-.5 331,-.5"/>
<text text-anchor="start" x="339" y="-18.5" font-family="Helvetica,sans-Serif" font-size="10.00" fill="#000000">xla::ComputationTracker</text>
<text text-anchor="middle" x="392" y="-7.5" font-family="Helvetica,sans-Serif" font-size="10.00" fill="#000000">::ResolveInternal</text>
</a>
</g>
</g>
<!-- Node5&#45;&gt;Node6 -->
<g id="edge2" class="edge">
<title>Node5&#45;&gt;Node6</title>
<path fill="none" stroke="#191970" d="M295.0869,-15.5C303.5129,-15.5 312.226,-15.5 320.8146,-15.5"/>
<polygon fill="#191970" stroke="#191970" points="320.8151,-19.0001 330.815,-15.5 320.815,-12.0001 320.8151,-19.0001"/>
</g>
</g>
</svg>
