<?xml version="1.0" encoding="UTF-8" standalone="no"?>
<!DOCTYPE svg PUBLIC "-//W3C//DTD SVG 1.1//EN"
 "http://www.w3.org/Graphics/SVG/1.1/DTD/svg11.dtd">
<!-- Generated by graphviz version 2.40.1 (20161225.0304)
 -->
<!-- Title: xla::Service::LoadComputationSnapshot Pages: 1 -->
<!--zoomable 98 -->
<svg id="main" version="1.1" xmlns="http://www.w3.org/2000/svg" xmlns:xlink="http://www.w3.org/1999/xlink" xml:space="preserve" onload="init(evt)">
<style type="text/css"><![CDATA[
.edge:hover path { stroke: red; }
.edge:hover polygon { stroke: red; fill: red; }
]]></style>
<script type="text/javascript"><![CDATA[
var edges = document.getElementsByTagName('g');
if (edges && edges.length) {
  for (var i=0;i<edges.length;i++) {
    if (edges[i].id.substr(0,4)=='edge') {
      edges[i].setAttribute('class','edge');
    }
  }
}
]]></script>
        <defs>
                <circle id="rim" cx="0" cy="0" r="7"/>
                <circle id="rim2" cx="0" cy="0" r="3.5"/>
                <g id="zoomPlus">
                        <use xlink:href="#rim" fill="#404040">
                                <set attributeName="fill" to="#808080" begin="zoomplus.mouseover" end="zoomplus.mouseout"/>
                        </use>
                        <path d="M-4,0h8M0,-4v8" fill="none" stroke="white" stroke-width="1.5" pointer-events="none"/>
                </g>
                <g id="zoomMin">
                        <use xlink:href="#rim" fill="#404040">
                                <set attributeName="fill" to="#808080" begin="zoomminus.mouseover" end="zoomminus.mouseout"/>
                        </use>
                        <path d="M-4,0h8" fill="none" stroke="white" stroke-width="1.5" pointer-events="none"/>
                </g>
                <g id="dirArrow">
                        <path fill="none" stroke="white" stroke-width="1.5" d="M0,-3.0v7 M-2.5,-0.5L0,-3.0L2.5,-0.5"/>
                </g>
               <g id="resetDef">
                       <use xlink:href="#rim2" fill="#404040">
                               <set attributeName="fill" to="#808080" begin="reset.mouseover" end="reset.mouseout"/>
                       </use>
               </g>
        </defs>

<script type="text/javascript">
var viewWidth = 645;
var viewHeight = 98;
var sectionId = 'dynsection-39';
</script>
<script xlink:href="../../svgpan.js"/>
<svg id="graph" class="graph">
<g id="viewport">
<title>xla::Service::LoadComputationSnapshot</title>
<polygon fill="#ffffff" stroke="transparent" points="-4,4 -4,-94 641,-94 641,4 -4,4"/>
<!-- Node417 -->
<g id="node1" class="node">
<title>Node417</title>
<polygon fill="#bfbfbf" stroke="#000000" points="0,-25.5 0,-55.5 151,-55.5 151,-25.5 0,-25.5"/>
<text text-anchor="start" x="8" y="-43.5" font-family="Helvetica,sans-Serif" font-size="10.00" fill="#000000">xla::Service::LoadComputation</text>
<text text-anchor="middle" x="75.5" y="-32.5" font-family="Helvetica,sans-Serif" font-size="10.00" fill="#000000">Snapshot</text>
</g>
<!-- Node418 -->
<g id="node2" class="node">
<title>Node418</title>
<g id="a_node2"><a xlink:href="../../d8/d42/classxla_1_1ComputationTracker.html#a1facfad94400ca2ffa423eb26f815061" target="_top" xlink:title="xla::ComputationTracker\l::LoadSessionModule">
<polygon fill="#ffffff" stroke="#000000" points="187,-25.5 187,-55.5 309,-55.5 309,-25.5 187,-25.5"/>
<text text-anchor="start" x="195" y="-43.5" font-family="Helvetica,sans-Serif" font-size="10.00" fill="#000000">xla::ComputationTracker</text>
<text text-anchor="middle" x="248" y="-32.5" font-family="Helvetica,sans-Serif" font-size="10.00" fill="#000000">::LoadSessionModule</text>
</a>
</g>
</g>
<!-- Node417&#45;&gt;Node418 -->
<g id="edge1" class="edge">
<title>Node417&#45;&gt;Node418</title>
<path fill="none" stroke="#191970" d="M151.161,-40.5C159.6562,-40.5 168.2905,-40.5 176.7275,-40.5"/>
<polygon fill="#191970" stroke="#191970" points="176.8985,-44.0001 186.8985,-40.5 176.8984,-37.0001 176.8985,-44.0001"/>
</g>
<!-- Node419 -->
<g id="node3" class="node">
<title>Node419</title>
<g id="a_node3"><a xlink:href="../../d8/d42/classxla_1_1ComputationTracker.html#a8115675a257ad818b64fbee5f3adcaa6" target="_top" xlink:title="xla::ComputationTracker\l::AllocateHandle">
<polygon fill="#ffffff" stroke="#000000" points="515,-59.5 515,-89.5 637,-89.5 637,-59.5 515,-59.5"/>
<text text-anchor="start" x="523" y="-77.5" font-family="Helvetica,sans-Serif" font-size="10.00" fill="#000000">xla::ComputationTracker</text>
<text text-anchor="middle" x="576" y="-66.5" font-family="Helvetica,sans-Serif" font-size="10.00" fill="#000000">::AllocateHandle</text>
</a>
</g>
</g>
<!-- Node418&#45;&gt;Node419 -->
<g id="edge2" class="edge">
<title>Node418&#45;&gt;Node419</title>
<path fill="none" stroke="#191970" d="M297.929,-55.5386C312.9278,-59.4653 329.5141,-63.2293 345,-65.5 398.1617,-73.2951 458.8946,-75.3986 504.7416,-75.6315"/>
<polygon fill="#191970" stroke="#191970" points="504.8709,-79.1317 514.8786,-75.654 504.8864,-72.1318 504.8709,-79.1317"/>
</g>
<!-- Node420 -->
<g id="node4" class="node">
<title>Node420</title>
<g id="a_node4"><a xlink:href="../../db/dbb/classxla_1_1UserComputation.html#acdf232b23be5ffe3f83a248d394558aa" target="_top" xlink:title="xla::UserComputation\l::MakeWithRemapping">
<polygon fill="#ffffff" stroke="#000000" points="518,-.5 518,-30.5 634,-30.5 634,-.5 518,-.5"/>
<text text-anchor="start" x="526" y="-18.5" font-family="Helvetica,sans-Serif" font-size="10.00" fill="#000000">xla::UserComputation</text>
<text text-anchor="middle" x="576" y="-7.5" font-family="Helvetica,sans-Serif" font-size="10.00" fill="#000000">::MakeWithRemapping</text>
</a>
</g>
</g>
<!-- Node418&#45;&gt;Node420 -->
<g id="edge3" class="edge">
<title>Node418&#45;&gt;Node420</title>
<path fill="none" stroke="#191970" d="M296.3826,-25.4751C311.7665,-21.39 328.9552,-17.5344 345,-15.5 399.3727,-8.6059 461.5248,-9.0725 507.6548,-11.0057"/>
<polygon fill="#191970" stroke="#191970" points="507.6878,-14.5107 517.836,-11.4669 508.0047,-7.5178 507.6878,-14.5107"/>
</g>
<!-- Node421 -->
<g id="node5" class="node">
<title>Node421</title>
<g id="a_node5"><a xlink:href="../../d8/d42/classxla_1_1ComputationTracker.html#a20564ecea90b9bd4a90202e873941cf1" target="_top" xlink:title="xla::ComputationTracker\l::LoadSessionComputation">
<polygon fill="#ffffff" stroke="#000000" points="345,-25.5 345,-55.5 479,-55.5 479,-25.5 345,-25.5"/>
<text text-anchor="start" x="353" y="-43.5" font-family="Helvetica,sans-Serif" font-size="10.00" fill="#000000">xla::ComputationTracker</text>
<text text-anchor="middle" x="412" y="-32.5" font-family="Helvetica,sans-Serif" font-size="10.00" fill="#000000">::LoadSessionComputation</text>
</a>
</g>
</g>
<!-- Node418&#45;&gt;Node421 -->
<g id="edge4" class="edge">
<title>Node418&#45;&gt;Node421</title>
<path fill="none" stroke="#191970" d="M309.0675,-40.5C317.4459,-40.5 326.1368,-40.5 334.7573,-40.5"/>
<polygon fill="#191970" stroke="#191970" points="334.8218,-44.0001 344.8217,-40.5 334.8217,-37.0001 334.8218,-44.0001"/>
</g>
<!-- Node421&#45;&gt;Node419 -->
<g id="edge5" class="edge">
<title>Node421&#45;&gt;Node419</title>
<path fill="none" stroke="#191970" d="M479.1783,-54.4272C487.6979,-56.1935 496.4384,-58.0055 505.0152,-59.7836"/>
<polygon fill="#191970" stroke="#191970" points="504.483,-63.2476 514.9853,-61.8506 505.904,-56.3934 504.483,-63.2476"/>
</g>
<!-- Node421&#45;&gt;Node420 -->
<g id="edge6" class="edge">
<title>Node421&#45;&gt;Node420</title>
<path fill="none" stroke="#191970" d="M479.1783,-30.2594C488.5977,-28.8235 498.2871,-27.3465 507.7267,-25.9075"/>
<polygon fill="#191970" stroke="#191970" points="508.4887,-29.3319 517.847,-24.3648 507.4337,-22.4118 508.4887,-29.3319"/>
</g>
</g>
</svg>
        <g id="navigator" transform="translate(0 0)" fill="#404254">
                <rect fill="#f2f5e9" fill-opacity="0.5" stroke="#606060" stroke-width=".5" x="0" y="0" width="60" height="60"/>
                <use id="zoomplus" xlink:href="#zoomPlus" x="17" y="9" onmousedown="handleZoom(evt,'in')"/>
                <use id="zoomminus" xlink:href="#zoomMin" x="42" y="9" onmousedown="handleZoom(evt,'out')"/>
                <use id="reset" xlink:href="#resetDef" x="30" y="36" onmousedown="handleReset()"/>
                <g id="arrowUp" xlink:href="#dirArrow" transform="translate(30 24)" onmousedown="handlePan(0,-1)">
                  <use xlink:href="#rim" fill="#404040">
                        <set attributeName="fill" to="#808080" begin="arrowUp.mouseover" end="arrowUp.mouseout"/>
                  </use>
                  <path fill="none" stroke="white" stroke-width="1.5" d="M0,-3.0v7 M-2.5,-0.5L0,-3.0L2.5,-0.5"/>
                </g>
                <g id="arrowRight" xlink:href="#dirArrow" transform="rotate(90) translate(36 -43)" onmousedown="handlePan(1,0)">
                  <use xlink:href="#rim" fill="#404040">
                        <set attributeName="fill" to="#808080" begin="arrowRight.mouseover" end="arrowRight.mouseout"/>
                  </use>
                  <path fill="none" stroke="white" stroke-width="1.5" d="M0,-3.0v7 M-2.5,-0.5L0,-3.0L2.5,-0.5"/>
                </g>
                <g id="arrowDown" xlink:href="#dirArrow" transform="rotate(180) translate(-30 -48)" onmousedown="handlePan(0,1)">
                  <use xlink:href="#rim" fill="#404040">
                        <set attributeName="fill" to="#808080" begin="arrowDown.mouseover" end="arrowDown.mouseout"/>
                  </use>
                  <path fill="none" stroke="white" stroke-width="1.5" d="M0,-3.0v7 M-2.5,-0.5L0,-3.0L2.5,-0.5"/>
                </g>
                <g id="arrowLeft" xlink:href="#dirArrow" transform="rotate(270) translate(-36 17)" onmousedown="handlePan(-1,0)">
                  <use xlink:href="#rim" fill="#404040">
                        <set attributeName="fill" to="#808080" begin="arrowLeft.mouseover" end="arrowLeft.mouseout"/>
                  </use>
                  <path fill="none" stroke="white" stroke-width="1.5" d="M0,-3.0v7 M-2.5,-0.5L0,-3.0L2.5,-0.5"/>
                </g>
        </g>
        <svg viewBox="0 0 15 15" width="100%" height="30px" preserveAspectRatio="xMaxYMin meet">
         <g id="arrow_out" transform="scale(0.3 0.3)">
          <a xlink:href="classxla_1_1Service_a6470d971df0e6843a824407ed1f35349_cgraph_org.svg" target="_base">
           <rect id="button" ry="5" rx="5" y="6" x="6" height="38" width="38"
                fill="#f2f5e9" fill-opacity="0.5" stroke="#606060" stroke-width="1.0"/>
           <path id="arrow"
             d="M 11.500037,31.436501 C 11.940474,20.09759 22.043105,11.32322 32.158766,21.979434 L 37.068811,17.246167 C 37.068811,17.246167 37.088388,32 37.088388,32 L 22.160133,31.978069 C 22.160133,31.978069 26.997745,27.140456 26.997745,27.140456 C 18.528582,18.264221 13.291696,25.230495 11.500037,31.436501 z"
             style="fill:#404040;"/>
          </a>
         </g>
        </svg>
</svg>
