<?xml version="1.0" encoding="UTF-8" standalone="no"?>
<!DOCTYPE svg PUBLIC "-//W3C//DTD SVG 1.1//EN"
 "http://www.w3.org/Graphics/SVG/1.1/DTD/svg11.dtd">
<!-- Generated by graphviz version 2.40.1 (20161225.0304)
 -->
<!-- Title: xla::Service::MaybeDumpHloModule Pages: 1 -->
<svg width="994pt" height="50pt"
 viewBox="0.00 0.00 994.00 50.00" xmlns="http://www.w3.org/2000/svg" xmlns:xlink="http://www.w3.org/1999/xlink">
<g id="graph0" class="graph" transform="scale(1 1) rotate(0) translate(4 46)">
<title>xla::Service::MaybeDumpHloModule</title>
<polygon fill="#ffffff" stroke="transparent" points="-4,4 -4,-46 990,-46 990,4 -4,4"/>
<!-- Node424 -->
<g id="node1" class="node">
<title>Node424</title>
<polygon fill="#bfbfbf" stroke="#000000" points="0,-6 0,-36 145,-36 145,-6 0,-6"/>
<text text-anchor="start" x="8" y="-24" font-family="Helvetica,sans-Serif" font-size="10.00" fill="#000000">xla::Service::MaybeDumpHlo</text>
<text text-anchor="middle" x="72.5" y="-13" font-family="Helvetica,sans-Serif" font-size="10.00" fill="#000000">Module</text>
</g>
<!-- Node425 -->
<g id="node2" class="node">
<title>Node425</title>
<g id="a_node2"><a xlink:href="../../dc/d07/classxla_1_1CompileOnlyService.html#aceb67616a89167b9af1bf23d17ec37c9" target="_top" xlink:title="xla::CompileOnlyService\l::CompileAheadOfTime">
<polygon fill="#ffffff" stroke="#000000" points="181,-6 181,-36 306,-36 306,-6 181,-6"/>
<text text-anchor="start" x="189" y="-24" font-family="Helvetica,sans-Serif" font-size="10.00" fill="#000000">xla::CompileOnlyService</text>
<text text-anchor="middle" x="243.5" y="-13" font-family="Helvetica,sans-Serif" font-size="10.00" fill="#000000">::CompileAheadOfTime</text>
</a>
</g>
</g>
<!-- Node424&#45;&gt;Node425 -->
<g id="edge1" class="edge">
<title>Node424&#45;&gt;Node425</title>
<path fill="none" stroke="#191970" d="M155.1413,-21C163.7972,-21 172.4921,-21 180.8707,-21"/>
<polygon fill="#191970" stroke="#191970" points="155.0194,-17.5001 145.0194,-21 155.0194,-24.5001 155.0194,-17.5001"/>
</g>
<!-- Node426 -->
<g id="node3" class="node">
<title>Node426</title>
<g id="a_node3"><a xlink:href="../../d1/dd1/classxla_1_1CompileOnlyClient.html#a5a585d21f617b77a1cecc1b587d18d7a" target="_top" xlink:title="Compiles a list of computations for ahead&#45;of&#45;time execution. This is intended for use in static compi...">
<polygon fill="#ffffff" stroke="#000000" points="342,-6 342,-36 461,-36 461,-6 342,-6"/>
<text text-anchor="start" x="350" y="-24" font-family="Helvetica,sans-Serif" font-size="10.00" fill="#000000">xla::CompileOnlyClient</text>
<text text-anchor="middle" x="401.5" y="-13" font-family="Helvetica,sans-Serif" font-size="10.00" fill="#000000">::CompileAheadOfTime</text>
</a>
</g>
</g>
<!-- Node425&#45;&gt;Node426 -->
<g id="edge2" class="edge">
<title>Node425&#45;&gt;Node426</title>
<path fill="none" stroke="#191970" d="M316.6463,-21C325.1046,-21 333.653,-21 341.9007,-21"/>
<polygon fill="#191970" stroke="#191970" points="316.3998,-17.5001 306.3998,-21 316.3997,-24.5001 316.3998,-17.5001"/>
</g>
<!-- Node427 -->
<g id="node4" class="node">
<title>Node427</title>
<g id="a_node4"><a xlink:href="../../d4/df4/namespacetensorflow_1_1tfcompile_1_1anonymous__namespace_02compile_8cc_03.html#a40f8a019f31fa8cbe2fff5d90e69c21b" target="_top" xlink:title="Compiles the XLA computation into executable code. ">
<polygon fill="#ffffff" stroke="#000000" points="497,-.5 497,-41.5 626,-41.5 626,-.5 497,-.5"/>
<text text-anchor="start" x="505" y="-29.5" font-family="Helvetica,sans-Serif" font-size="10.00" fill="#000000">tensorflow::tfcompile</text>
<text text-anchor="start" x="505" y="-18.5" font-family="Helvetica,sans-Serif" font-size="10.00" fill="#000000">::anonymous_namespace</text>
<text text-anchor="middle" x="561.5" y="-7.5" font-family="Helvetica,sans-Serif" font-size="10.00" fill="#000000">{compile::cc}::CompileXla</text>
</a>
</g>
</g>
<!-- Node426&#45;&gt;Node427 -->
<g id="edge3" class="edge">
<title>Node426&#45;&gt;Node427</title>
<path fill="none" stroke="#191970" d="M471.3003,-21C479.7649,-21 488.3845,-21 496.7714,-21"/>
<polygon fill="#191970" stroke="#191970" points="471.0781,-17.5001 461.0781,-21 471.0781,-24.5001 471.0781,-17.5001"/>
</g>
<!-- Node428 -->
<g id="node5" class="node">
<title>Node428</title>
<g id="a_node5"><a xlink:href="../../d7/d38/namespacetensorflow_1_1tfcompile.html#a021cb1c58d938b16dcd998aa8d1fc191" target="_top" xlink:title="Converts the graph into an XLA computation, and compiles the computation. Called by tensorflow::tfcom...">
<polygon fill="#ffffff" stroke="#000000" points="662,-6 662,-36 769,-36 769,-6 662,-6"/>
<text text-anchor="start" x="670" y="-24" font-family="Helvetica,sans-Serif" font-size="10.00" fill="#000000">tensorflow::tfcompile</text>
<text text-anchor="middle" x="715.5" y="-13" font-family="Helvetica,sans-Serif" font-size="10.00" fill="#000000">::CompileGraph</text>
</a>
</g>
</g>
<!-- Node427&#45;&gt;Node428 -->
<g id="edge4" class="edge">
<title>Node427&#45;&gt;Node428</title>
<path fill="none" stroke="#191970" d="M636.4184,-21C645.0192,-21 653.6546,-21 661.895,-21"/>
<polygon fill="#191970" stroke="#191970" points="636.3636,-17.5001 626.3635,-21 636.3635,-24.5001 636.3636,-17.5001"/>
</g>
<!-- Node429 -->
<g id="node6" class="node">
<title>Node429</title>
<g id="a_node6"><a xlink:href="../../d7/d38/namespacetensorflow_1_1tfcompile.html#a460964a5bb277865d1275fe3746132c1" target="_top" xlink:title="tensorflow::tfcompile\l::Main">
<polygon fill="#ffffff" stroke="#000000" points="805,-6 805,-36 912,-36 912,-6 805,-6"/>
<text text-anchor="start" x="813" y="-24" font-family="Helvetica,sans-Serif" font-size="10.00" fill="#000000">tensorflow::tfcompile</text>
<text text-anchor="middle" x="858.5" y="-13" font-family="Helvetica,sans-Serif" font-size="10.00" fill="#000000">::Main</text>
</a>
</g>
</g>
<!-- Node428&#45;&gt;Node429 -->
<g id="edge5" class="edge">
<title>Node428&#45;&gt;Node429</title>
<path fill="none" stroke="#191970" d="M779.3238,-21C787.7452,-21 796.3103,-21 804.5445,-21"/>
<polygon fill="#191970" stroke="#191970" points="779.1548,-17.5001 769.1548,-21 779.1547,-24.5001 779.1548,-17.5001"/>
</g>
<!-- Node430 -->
<g id="node7" class="node">
<title>Node430</title>
<g id="a_node7"><a xlink:href="../../d4/d8d/tfcompile__main_8cc.html#a3c04138a5bfe5d72780bb7e82a18e627" target="_top" xlink:title="main">
<polygon fill="#ffffff" stroke="#000000" points="948,-11.5 948,-30.5 986,-30.5 986,-11.5 948,-11.5"/>
<text text-anchor="middle" x="967" y="-18.5" font-family="Helvetica,sans-Serif" font-size="10.00" fill="#000000">main</text>
</a>
</g>
</g>
<!-- Node429&#45;&gt;Node430 -->
<g id="edge6" class="edge">
<title>Node429&#45;&gt;Node430</title>
<path fill="none" stroke="#191970" d="M922.2814,-21C931.5615,-21 940.4574,-21 947.8366,-21"/>
<polygon fill="#191970" stroke="#191970" points="922.1143,-17.5001 912.1143,-21 922.1142,-24.5001 922.1143,-17.5001"/>
</g>
</g>
</svg>
