<?xml version="1.0" encoding="UTF-8" standalone="no"?>
<!DOCTYPE svg PUBLIC "-//W3C//DTD SVG 1.1//EN"
 "http://www.w3.org/Graphics/SVG/1.1/DTD/svg11.dtd">
<!-- Generated by graphviz version 2.40.1 (20161225.0304)
 -->
<!-- Title: xla::Service::TransferToServer Pages: 1 -->
<svg width="468pt" height="105pt"
 viewBox="0.00 0.00 468.00 105.00" xmlns="http://www.w3.org/2000/svg" xmlns:xlink="http://www.w3.org/1999/xlink">
<g id="graph0" class="graph" transform="scale(1 1) rotate(0) translate(4 101)">
<title>xla::Service::TransferToServer</title>
<polygon fill="#ffffff" stroke="transparent" points="-4,4 -4,-101 464,-101 464,4 -4,4"/>
<!-- Node579 -->
<g id="node1" class="node">
<title>Node579</title>
<polygon fill="#bfbfbf" stroke="#000000" points="0,-22.5 0,-52.5 120,-52.5 120,-22.5 0,-22.5"/>
<text text-anchor="start" x="8" y="-40.5" font-family="Helvetica,sans-Serif" font-size="10.00" fill="#000000">xla::Service::TransferTo</text>
<text text-anchor="middle" x="60" y="-29.5" font-family="Helvetica,sans-Serif" font-size="10.00" fill="#000000">Server</text>
</g>
<!-- Node580 -->
<g id="node2" class="node">
<title>Node580</title>
<g id="a_node2"><a xlink:href="../../d1/d10/classxla_1_1Service.html#a1c62dd29d5ef6643da20d7f1f53c93ee" target="_top" xlink:title="xla::Service::Replicas">
<polygon fill="#ffffff" stroke="#000000" points="178,-50 178,-69 291,-69 291,-50 178,-50"/>
<text text-anchor="middle" x="234.5" y="-57" font-family="Helvetica,sans-Serif" font-size="10.00" fill="#000000">xla::Service::Replicas</text>
</a>
</g>
</g>
<!-- Node579&#45;&gt;Node580 -->
<g id="edge1" class="edge">
<title>Node579&#45;&gt;Node580</title>
<path fill="none" stroke="#191970" d="M120.053,-45.0712C135.4187,-47.0084 152.0349,-49.1033 167.7163,-51.0803"/>
<polygon fill="#191970" stroke="#191970" points="167.5044,-54.5812 177.8637,-52.3596 168.38,-47.6362 167.5044,-54.5812"/>
</g>
<!-- Node583 -->
<g id="node5" class="node">
<title>Node583</title>
<g id="a_node5"><a xlink:href="../../d1/d10/classxla_1_1Service.html#ab2f61cf74addf4119fb04da6bfe85d61" target="_top" xlink:title="xla::Service::SingleComputation\lDeviceHandle">
<polygon fill="#ffffff" stroke="#000000" points="156,-.5 156,-30.5 313,-30.5 313,-.5 156,-.5"/>
<text text-anchor="start" x="164" y="-18.5" font-family="Helvetica,sans-Serif" font-size="10.00" fill="#000000">xla::Service::SingleComputation</text>
<text text-anchor="middle" x="234.5" y="-7.5" font-family="Helvetica,sans-Serif" font-size="10.00" fill="#000000">DeviceHandle</text>
</a>
</g>
</g>
<!-- Node579&#45;&gt;Node583 -->
<g id="edge4" class="edge">
<title>Node579&#45;&gt;Node583</title>
<path fill="none" stroke="#191970" d="M120.053,-29.9288C128.3436,-28.8836 136.9981,-27.7925 145.6735,-26.6988"/>
<polygon fill="#191970" stroke="#191970" points="146.363,-30.1396 155.8466,-25.4162 145.4873,-23.1946 146.363,-30.1396"/>
</g>
<!-- Node581 -->
<g id="node3" class="node">
<title>Node581</title>
<g id="a_node3"><a xlink:href="../../d5/d7a/classxla_1_1ServiceOptions.html#a16503bc7e5b638f42419425b48d648d7" target="_top" xlink:title="xla::ServiceOptions\l::number_of_replicas">
<polygon fill="#ffffff" stroke="#000000" points="351,-66.5 351,-96.5 458,-96.5 458,-66.5 351,-66.5"/>
<text text-anchor="start" x="359" y="-84.5" font-family="Helvetica,sans-Serif" font-size="10.00" fill="#000000">xla::ServiceOptions</text>
<text text-anchor="middle" x="404.5" y="-73.5" font-family="Helvetica,sans-Serif" font-size="10.00" fill="#000000">::number_of_replicas</text>
</a>
</g>
</g>
<!-- Node580&#45;&gt;Node581 -->
<g id="edge2" class="edge">
<title>Node580&#45;&gt;Node581</title>
<path fill="none" stroke="#191970" d="M291.1075,-66.8257C307.025,-68.8856 324.4431,-71.1397 340.747,-73.2496"/>
<polygon fill="#191970" stroke="#191970" points="340.3645,-76.7292 350.731,-74.5417 341.2629,-69.7871 340.3645,-76.7292"/>
</g>
<!-- Node582 -->
<g id="node4" class="node">
<title>Node582</title>
<g id="a_node4"><a xlink:href="../../d1/d10/classxla_1_1Service.html#aa23389c9947ef664bcaad4f253962b65" target="_top" xlink:title="xla::Service::backend">
<polygon fill="#ffffff" stroke="#000000" points="349,-28 349,-47 460,-47 460,-28 349,-28"/>
<text text-anchor="middle" x="404.5" y="-35" font-family="Helvetica,sans-Serif" font-size="10.00" fill="#000000">xla::Service::backend</text>
</a>
</g>
</g>
<!-- Node580&#45;&gt;Node582 -->
<g id="edge3" class="edge">
<title>Node580&#45;&gt;Node582</title>
<path fill="none" stroke="#191970" d="M291.1075,-52.1743C306.3202,-50.2056 322.9036,-48.0595 338.5749,-46.0315"/>
<polygon fill="#191970" stroke="#191970" points="339.2499,-49.4734 348.7179,-44.7189 338.3514,-42.5313 339.2499,-49.4734"/>
</g>
</g>
</svg>
