<?xml version="1.0" encoding="UTF-8" standalone="no"?>
<!DOCTYPE svg PUBLIC "-//W3C//DTD SVG 1.1//EN"
 "http://www.w3.org/Graphics/SVG/1.1/DTD/svg11.dtd">
<!-- Generated by graphviz version 2.40.1 (20161225.0304)
 -->
<!-- Title: xla::Service::Op Pages: 1 -->
<svg width="262pt" height="88pt"
 viewBox="0.00 0.00 262.00 88.00" xmlns="http://www.w3.org/2000/svg" xmlns:xlink="http://www.w3.org/1999/xlink">
<g id="graph0" class="graph" transform="scale(1 1) rotate(0) translate(4 84)">
<title>xla::Service::Op</title>
<polygon fill="#ffffff" stroke="transparent" points="-4,4 -4,-84 258,-84 258,4 -4,4"/>
<!-- Node3 -->
<g id="node1" class="node">
<title>Node3</title>
<polygon fill="#bfbfbf" stroke="#000000" points="0,-30 0,-49 87,-49 87,-30 0,-30"/>
<text text-anchor="middle" x="43.5" y="-37" font-family="Helvetica,sans-Serif" font-size="10.00" fill="#000000">xla::Service::Op</text>
</g>
<!-- Node4 -->
<g id="node2" class="node">
<title>Node4</title>
<g id="a_node2"><a xlink:href="../../dd/d3d/classComputationTracker.html#a1a3946ea7b82135df39842f6e5ed4b08" target="_top" xlink:title="ComputationTracker\l::Resolve">
<polygon fill="#ffffff" stroke="#000000" points="136.5,-49.5 136.5,-79.5 240.5,-79.5 240.5,-49.5 136.5,-49.5"/>
<text text-anchor="start" x="144.5" y="-67.5" font-family="Helvetica,sans-Serif" font-size="10.00" fill="#000000">ComputationTracker</text>
<text text-anchor="middle" x="188.5" y="-56.5" font-family="Helvetica,sans-Serif" font-size="10.00" fill="#000000">::Resolve</text>
</a>
</g>
</g>
<!-- Node3&#45;&gt;Node4 -->
<g id="edge1" class="edge">
<title>Node3&#45;&gt;Node4</title>
<path fill="none" stroke="#191970" d="M87.0048,-47.0008C99.3691,-49.1326 113.0804,-51.4966 126.3228,-53.7798"/>
<polygon fill="#191970" stroke="#191970" points="125.8784,-57.2547 136.3277,-55.5048 127.0678,-50.3565 125.8784,-57.2547"/>
</g>
<!-- Node5 -->
<g id="node3" class="node">
<title>Node5</title>
<g id="a_node3"><a xlink:href="../../db/dbb/classxla_1_1UserComputation.html#a25685bdc2be08a3873ba52d4867e8db8" target="_top" xlink:title="Enqueue a parameter&#45;retrieving instruction onto this UserComputation. ">
<polygon fill="#ffffff" stroke="#000000" points="123,-.5 123,-30.5 254,-30.5 254,-.5 123,-.5"/>
<text text-anchor="start" x="131" y="-18.5" font-family="Helvetica,sans-Serif" font-size="10.00" fill="#000000">xla::UserComputation</text>
<text text-anchor="middle" x="188.5" y="-7.5" font-family="Helvetica,sans-Serif" font-size="10.00" fill="#000000">::AddParameterInstruction</text>
</a>
</g>
</g>
<!-- Node3&#45;&gt;Node5 -->
<g id="edge2" class="edge">
<title>Node3&#45;&gt;Node5</title>
<path fill="none" stroke="#191970" d="M87.0048,-32.2992C95.187,-30.9449 103.9592,-29.493 112.795,-28.0305"/>
<polygon fill="#191970" stroke="#191970" points="113.4756,-31.4655 122.7698,-26.3795 112.3325,-24.5595 113.4756,-31.4655"/>
</g>
</g>
</svg>
