<?xml version="1.0" encoding="UTF-8" standalone="no"?>
<!DOCTYPE svg PUBLIC "-//W3C//DTD SVG 1.1//EN"
 "http://www.w3.org/Graphics/SVG/1.1/DTD/svg11.dtd">
<!-- Generated by graphviz version 2.40.1 (20161225.0304)
 -->
<!-- Title: tensorflow/tensorflow/compiler/xla/service/hlo_pass_pipeline.cc Pages: 1 -->
<svg width="3867pt" height="440pt"
 viewBox="0.00 0.00 3866.50 440.00" xmlns="http://www.w3.org/2000/svg" xmlns:xlink="http://www.w3.org/1999/xlink">
<g id="graph0" class="graph" transform="scale(1 1) rotate(0) translate(4 436)">
<title>tensorflow/tensorflow/compiler/xla/service/hlo_pass_pipeline.cc</title>
<polygon fill="#ffffff" stroke="transparent" points="-4,4 -4,-436 3862.5,-436 3862.5,4 -4,4"/>
<!-- Node0 -->
<g id="node1" class="node">
<title>Node0</title>
<polygon fill="#bfbfbf" stroke="#000000" points="3078,-390.5 3078,-431.5 3200,-431.5 3200,-390.5 3078,-390.5"/>
<text text-anchor="start" x="3086" y="-419.5" font-family="Helvetica,sans-Serif" font-size="10.00" fill="#000000">tensorflow/tensorflow</text>
<text text-anchor="start" x="3086" y="-408.5" font-family="Helvetica,sans-Serif" font-size="10.00" fill="#000000">/compiler/xla/service</text>
<text text-anchor="middle" x="3139" y="-397.5" font-family="Helvetica,sans-Serif" font-size="10.00" fill="#000000">/hlo_pass_pipeline.cc</text>
</g>
<!-- Node1 -->
<g id="node2" class="node">
<title>Node1</title>
<g id="a_node2"><a xlink:href="../../df/d0a/hlo__pass__pipeline_8h.html" target="_top" xlink:title="tensorflow/compiler\l/xla/service/hlo_pass\l_pipeline.h">
<polygon fill="#ffffff" stroke="#000000" points="1141.5,-312.5 1141.5,-353.5 1260.5,-353.5 1260.5,-312.5 1141.5,-312.5"/>
<text text-anchor="start" x="1149.5" y="-341.5" font-family="Helvetica,sans-Serif" font-size="10.00" fill="#000000">tensorflow/compiler</text>
<text text-anchor="start" x="1149.5" y="-330.5" font-family="Helvetica,sans-Serif" font-size="10.00" fill="#000000">/xla/service/hlo_pass</text>
<text text-anchor="middle" x="1201" y="-319.5" font-family="Helvetica,sans-Serif" font-size="10.00" fill="#000000">_pipeline.h</text>
</a>
</g>
</g>
<!-- Node0&#45;&gt;Node1 -->
<g id="edge1" class="edge">
<title>Node0&#45;&gt;Node1</title>
<path fill="none" stroke="#191970" d="M3077.7987,-408.5368C2790.4059,-396.9699 1576.0175,-348.0936 1270.8209,-335.8101"/>
<polygon fill="#191970" stroke="#191970" points="1270.9088,-332.3109 1260.7761,-335.4059 1270.6273,-339.3053 1270.9088,-332.3109"/>
</g>
<!-- Node21 -->
<g id="node22" class="node">
<title>Node21</title>
<polygon fill="#ffffff" stroke="#bfbfbf" points="2543.5,-11.5 2543.5,-30.5 2608.5,-30.5 2608.5,-11.5 2543.5,-11.5"/>
<text text-anchor="middle" x="2576" y="-18.5" font-family="Helvetica,sans-Serif" font-size="10.00" fill="#000000">functional</text>
</g>
<!-- Node0&#45;&gt;Node21 -->
<g id="edge83" class="edge">
<title>Node0&#45;&gt;Node21</title>
<path fill="none" stroke="#191970" d="M3077.9616,-402.4492C3043.9488,-394.8489 3002.9488,-380.5989 2975,-354 2940.6238,-321.2841 2935,-302.4558 2935,-255 2935,-255 2935,-255 2935,-177 2935,-23.4581 2756.086,-107.04 2617,-42 2612.5265,-39.9081 2607.8257,-37.6035 2603.2674,-35.3106"/>
<polygon fill="#191970" stroke="#191970" points="2604.7271,-32.1261 2594.2297,-30.6923 2601.5418,-38.3594 2604.7271,-32.1261"/>
</g>
<!-- Node29 -->
<g id="node28" class="node">
<title>Node29</title>
<polygon fill="#ffffff" stroke="#bfbfbf" points="2626.5,-6 2626.5,-36 2739.5,-36 2739.5,-6 2626.5,-6"/>
<text text-anchor="start" x="2634.5" y="-24" font-family="Helvetica,sans-Serif" font-size="10.00" fill="#000000">tensorflow/compiler</text>
<text text-anchor="middle" x="2683" y="-13" font-family="Helvetica,sans-Serif" font-size="10.00" fill="#000000">/xla/types.h</text>
</g>
<!-- Node0&#45;&gt;Node29 -->
<g id="edge87" class="edge">
<title>Node0&#45;&gt;Node29</title>
<path fill="none" stroke="#191970" d="M3077.9794,-397.1355C3052.3925,-388.5408 3024.1907,-374.9911 3005,-354 2973.7988,-319.8715 2973,-301.2414 2973,-255 2973,-255 2973,-255 2973,-177 2973,-131.7255 2981.9692,-109.0291 2949,-78 2882.9116,-15.8006 2836.0478,-64.0007 2748,-42 2744.2248,-41.0567 2740.3495,-40.0102 2736.4618,-38.9025"/>
<polygon fill="#191970" stroke="#191970" points="2737.4048,-35.5315 2726.8225,-36.0467 2735.4163,-42.2432 2737.4048,-35.5315"/>
</g>
<!-- Node37 -->
<g id="node34" class="node">
<title>Node37</title>
<polygon fill="#ffffff" stroke="#bfbfbf" points="2757.5,-6 2757.5,-36 2894.5,-36 2894.5,-6 2757.5,-6"/>
<text text-anchor="start" x="2765.5" y="-24" font-family="Helvetica,sans-Serif" font-size="10.00" fill="#000000">tensorflow/core/platform</text>
<text text-anchor="middle" x="2826" y="-13" font-family="Helvetica,sans-Serif" font-size="10.00" fill="#000000">/logging.h</text>
</g>
<!-- Node0&#45;&gt;Node37 -->
<g id="edge92" class="edge">
<title>Node0&#45;&gt;Node37</title>
<path fill="none" stroke="#191970" d="M3077.9945,-393.3054C3058.1481,-384.5864 3037.9256,-371.9601 3025,-354 2999.0423,-317.9318 3011,-299.4378 3011,-255 3011,-255 3011,-255 3011,-177 3011,-131.7255 3017.333,-111.6108 2987,-78 2965.7606,-54.4654 2934.1805,-40.6467 2904.6015,-32.5333"/>
<polygon fill="#191970" stroke="#191970" points="2905.2201,-29.079 2894.665,-29.9948 2903.4874,-35.8612 2905.2201,-29.079"/>
</g>
<!-- Node43 -->
<g id="node40" class="node">
<title>Node43</title>
<polygon fill="#ffffff" stroke="#bfbfbf" points="2042.5,-84 2042.5,-114 2149.5,-114 2149.5,-84 2042.5,-84"/>
<text text-anchor="start" x="2050.5" y="-102" font-family="Helvetica,sans-Serif" font-size="10.00" fill="#000000">tensorflow/core/lib</text>
<text text-anchor="middle" x="2096" y="-91" font-family="Helvetica,sans-Serif" font-size="10.00" fill="#000000">/gtl/flatset.h</text>
</g>
<!-- Node0&#45;&gt;Node43 -->
<g id="edge89" class="edge">
<title>Node0&#45;&gt;Node43</title>
<path fill="none" stroke="#191970" d="M3112.1969,-390.4823C3098.6854,-379.89 3082.1974,-366.5794 3068,-354 3048.0048,-336.2836 3045.5147,-329.1122 3025,-312 2978.977,-273.6101 2968.4361,-261.1383 2915,-234 2671.4278,-110.2983 2582.8986,-146.4706 2311,-120 2260.201,-115.0545 2202.6527,-109.4325 2159.8867,-105.2508"/>
<polygon fill="#191970" stroke="#191970" points="2160.1905,-101.7639 2149.8973,-104.2739 2159.5092,-108.7307 2160.1905,-101.7639"/>
</g>
<!-- Node49 -->
<g id="node45" class="node">
<title>Node49</title>
<polygon fill="#ffffff" stroke="#bfbfbf" points="3077,-312.5 3077,-353.5 3201,-353.5 3201,-312.5 3077,-312.5"/>
<text text-anchor="start" x="3085" y="-341.5" font-family="Helvetica,sans-Serif" font-size="10.00" fill="#000000">tensorflow/compiler</text>
<text text-anchor="start" x="3085" y="-330.5" font-family="Helvetica,sans-Serif" font-size="10.00" fill="#000000">/xla/service/hlo_graph</text>
<text text-anchor="middle" x="3139" y="-319.5" font-family="Helvetica,sans-Serif" font-size="10.00" fill="#000000">_dumper.h</text>
</g>
<!-- Node0&#45;&gt;Node49 -->
<g id="edge84" class="edge">
<title>Node0&#45;&gt;Node49</title>
<path fill="none" stroke="#191970" d="M3139,-390.0974C3139,-382.077 3139,-372.7444 3139,-363.9772"/>
<polygon fill="#191970" stroke="#191970" points="3142.5001,-363.6898 3139,-353.6898 3135.5001,-363.6898 3142.5001,-363.6898"/>
</g>
<!-- Node50 -->
<g id="node46" class="node">
<title>Node50</title>
<polygon fill="#ffffff" stroke="#bfbfbf" points="3219,-312.5 3219,-353.5 3341,-353.5 3341,-312.5 3219,-312.5"/>
<text text-anchor="start" x="3227" y="-341.5" font-family="Helvetica,sans-Serif" font-size="10.00" fill="#000000">tensorflow/compiler</text>
<text text-anchor="start" x="3227" y="-330.5" font-family="Helvetica,sans-Serif" font-size="10.00" fill="#000000">/xla/service/hlo_proto</text>
<text text-anchor="middle" x="3280" y="-319.5" font-family="Helvetica,sans-Serif" font-size="10.00" fill="#000000">_util.h</text>
</g>
<!-- Node0&#45;&gt;Node50 -->
<g id="edge85" class="edge">
<title>Node0&#45;&gt;Node50</title>
<path fill="none" stroke="#191970" d="M3176.4152,-390.3022C3194.0837,-380.5282 3215.3375,-368.7707 3233.9828,-358.4563"/>
<polygon fill="#191970" stroke="#191970" points="3235.8431,-361.4271 3242.8992,-353.5239 3232.4546,-355.3019 3235.8431,-361.4271"/>
</g>
<!-- Node51 -->
<g id="node47" class="node">
<title>Node51</title>
<polygon fill="#ffffff" stroke="#bfbfbf" points="3359,-318 3359,-348 3477,-348 3477,-318 3359,-318"/>
<text text-anchor="start" x="3367" y="-336" font-family="Helvetica,sans-Serif" font-size="10.00" fill="#000000">tensorflow/compiler</text>
<text text-anchor="middle" x="3418" y="-325" font-family="Helvetica,sans-Serif" font-size="10.00" fill="#000000">/xla/status_macros.h</text>
</g>
<!-- Node0&#45;&gt;Node51 -->
<g id="edge86" class="edge">
<title>Node0&#45;&gt;Node51</title>
<path fill="none" stroke="#191970" d="M3200.1009,-395.1109C3242.3152,-383.9824 3299.6996,-368.5561 3350,-354 3353.3659,-353.026 3356.8205,-352.01 3360.303,-350.9734"/>
<polygon fill="#191970" stroke="#191970" points="3361.5718,-354.2468 3370.1401,-348.015 3359.5558,-347.5433 3361.5718,-354.2468"/>
</g>
<!-- Node52 -->
<g id="node48" class="node">
<title>Node52</title>
<polygon fill="#ffffff" stroke="#bfbfbf" points="3495.5,-318 3495.5,-348 3608.5,-348 3608.5,-318 3495.5,-318"/>
<text text-anchor="start" x="3503.5" y="-336" font-family="Helvetica,sans-Serif" font-size="10.00" fill="#000000">tensorflow/compiler</text>
<text text-anchor="middle" x="3552" y="-325" font-family="Helvetica,sans-Serif" font-size="10.00" fill="#000000">/xla/util.h</text>
</g>
<!-- Node0&#45;&gt;Node52 -->
<g id="edge88" class="edge">
<title>Node0&#45;&gt;Node52</title>
<path fill="none" stroke="#191970" d="M3200.0239,-403.7053C3269.7505,-394.7416 3387.0068,-377.7465 3486,-354 3490.012,-353.0376 3494.1343,-351.9559 3498.2651,-350.8042"/>
<polygon fill="#191970" stroke="#191970" points="3499.2451,-354.1643 3507.8714,-348.013 3497.2919,-347.4423 3499.2451,-354.1643"/>
</g>
<!-- Node53 -->
<g id="node49" class="node">
<title>Node53</title>
<polygon fill="#ffffff" stroke="#bfbfbf" points="3626.5,-318 3626.5,-348 3733.5,-348 3733.5,-318 3626.5,-318"/>
<text text-anchor="start" x="3634.5" y="-336" font-family="Helvetica,sans-Serif" font-size="10.00" fill="#000000">tensorflow/core/lib</text>
<text text-anchor="middle" x="3680" y="-325" font-family="Helvetica,sans-Serif" font-size="10.00" fill="#000000">/strings/str_util.h</text>
</g>
<!-- Node0&#45;&gt;Node53 -->
<g id="edge90" class="edge">
<title>Node0&#45;&gt;Node53</title>
<path fill="none" stroke="#191970" d="M3200.032,-407.698C3291.5574,-401.8554 3469.3842,-387.0436 3617,-354 3620.8762,-353.1323 3624.8502,-352.1178 3628.8254,-351.0117"/>
<polygon fill="#191970" stroke="#191970" points="3630.0572,-354.2974 3638.6542,-348.1052 3628.0721,-347.5847 3630.0572,-354.2974"/>
</g>
<!-- Node54 -->
<g id="node50" class="node">
<title>Node54</title>
<polygon fill="#ffffff" stroke="#bfbfbf" points="3751.5,-318 3751.5,-348 3858.5,-348 3858.5,-318 3751.5,-318"/>
<text text-anchor="start" x="3759.5" y="-336" font-family="Helvetica,sans-Serif" font-size="10.00" fill="#000000">tensorflow/core/lib</text>
<text text-anchor="middle" x="3805" y="-325" font-family="Helvetica,sans-Serif" font-size="10.00" fill="#000000">/strings/strcat.h</text>
</g>
<!-- Node0&#45;&gt;Node54 -->
<g id="edge91" class="edge">
<title>Node0&#45;&gt;Node54</title>
<path fill="none" stroke="#191970" d="M3200.1468,-409.9075C3310.0039,-406.913 3547.5467,-395.7282 3743,-354 3747.0636,-353.1324 3751.2311,-352.0843 3755.39,-350.925"/>
<polygon fill="#191970" stroke="#191970" points="3756.4435,-354.2632 3765.0255,-348.0504 3754.4422,-347.5553 3756.4435,-354.2632"/>
</g>
<!-- Node2 -->
<g id="node3" class="node">
<title>Node2</title>
<polygon fill="#ffffff" stroke="#bfbfbf" points="0,-245.5 0,-264.5 64,-264.5 64,-245.5 0,-245.5"/>
<text text-anchor="middle" x="32" y="-252.5" font-family="Helvetica,sans-Serif" font-size="10.00" fill="#000000">algorithm</text>
</g>
<!-- Node1&#45;&gt;Node2 -->
<g id="edge2" class="edge">
<title>Node1&#45;&gt;Node2</title>
<path fill="none" stroke="#191970" d="M1141.3206,-331.2844C923.8879,-324.8533 181.4156,-301.2515 78,-276 71.3958,-274.3874 64.578,-271.8289 58.2801,-269.0443"/>
<polygon fill="#191970" stroke="#191970" points="59.4502,-265.725 48.9168,-264.5858 56.4408,-272.0451 59.4502,-265.725"/>
</g>
<!-- Node3 -->
<g id="node4" class="node">
<title>Node3</title>
<polygon fill="#ffffff" stroke="#bfbfbf" points="119,-11.5 119,-30.5 177,-30.5 177,-11.5 119,-11.5"/>
<text text-anchor="middle" x="148" y="-18.5" font-family="Helvetica,sans-Serif" font-size="10.00" fill="#000000">memory</text>
</g>
<!-- Node1&#45;&gt;Node3 -->
<g id="edge3" class="edge">
<title>Node1&#45;&gt;Node3</title>
<path fill="none" stroke="#191970" d="M1141.404,-332.4639C948.4901,-330.2995 349.2303,-320.0617 275,-276 187.6049,-224.1239 158.6841,-91.2239 150.6742,-40.8028"/>
<polygon fill="#191970" stroke="#191970" points="154.0906,-39.9792 149.1653,-30.5988 147.1659,-41.0033 154.0906,-39.9792"/>
</g>
<!-- Node4 -->
<g id="node5" class="node">
<title>Node4</title>
<polygon fill="#ffffff" stroke="#bfbfbf" points="195,-11.5 195,-30.5 239,-30.5 239,-11.5 195,-11.5"/>
<text text-anchor="middle" x="217" y="-18.5" font-family="Helvetica,sans-Serif" font-size="10.00" fill="#000000">string</text>
</g>
<!-- Node1&#45;&gt;Node4 -->
<g id="edge4" class="edge">
<title>Node1&#45;&gt;Node4</title>
<path fill="none" stroke="#191970" d="M1141.3975,-330.7602C962.1709,-323.7725 435.9723,-301.32 363,-276 305.0009,-255.8755 282.3765,-249.5257 249,-198 216.9686,-148.5508 214.77,-75.8489 215.8292,-41.028"/>
<polygon fill="#191970" stroke="#191970" points="219.3379,-40.9021 216.2749,-30.7597 212.3445,-40.5985 219.3379,-40.9021"/>
</g>
<!-- Node5 -->
<g id="node6" class="node">
<title>Node5</title>
<polygon fill="#ffffff" stroke="#bfbfbf" points="257.5,-11.5 257.5,-30.5 304.5,-30.5 304.5,-11.5 257.5,-11.5"/>
<text text-anchor="middle" x="281" y="-18.5" font-family="Helvetica,sans-Serif" font-size="10.00" fill="#000000">vector</text>
</g>
<!-- Node1&#45;&gt;Node5 -->
<g id="edge5" class="edge">
<title>Node1&#45;&gt;Node5</title>
<path fill="none" stroke="#191970" d="M1141.193,-328.529C945.5246,-313.3336 333.4866,-261.098 273,-198 231.9268,-155.1535 257.314,-76.3424 272.3098,-40.1224"/>
<polygon fill="#191970" stroke="#191970" points="275.6201,-41.2849 276.3729,-30.7169 269.1941,-38.5089 275.6201,-41.2849"/>
</g>
<!-- Node6 -->
<g id="node7" class="node">
<title>Node6</title>
<polygon fill="#ffffff" stroke="#bfbfbf" points="998.5,-240 998.5,-270 1111.5,-270 1111.5,-240 998.5,-240"/>
<text text-anchor="start" x="1006.5" y="-258" font-family="Helvetica,sans-Serif" font-size="10.00" fill="#000000">tensorflow/compiler</text>
<text text-anchor="middle" x="1055" y="-247" font-family="Helvetica,sans-Serif" font-size="10.00" fill="#000000">/xla/ptr_util.h</text>
</g>
<!-- Node1&#45;&gt;Node6 -->
<g id="edge6" class="edge">
<title>Node1&#45;&gt;Node6</title>
<path fill="none" stroke="#191970" d="M1162.258,-312.3022C1140.5258,-300.6919 1113.5549,-286.2828 1092.0958,-274.8183"/>
<polygon fill="#191970" stroke="#191970" points="1093.7374,-271.7272 1083.2679,-270.102 1090.4388,-277.9013 1093.7374,-271.7272"/>
</g>
<!-- Node7 -->
<g id="node8" class="node">
<title>Node7</title>
<g id="a_node8"><a xlink:href="../../db/da0/hlo__module_8h.html" target="_top" xlink:title="tensorflow/compiler\l/xla/service/hlo_module.h">
<polygon fill="#ffffff" stroke="#000000" points="1130,-240 1130,-270 1272,-270 1272,-240 1130,-240"/>
<text text-anchor="start" x="1138" y="-258" font-family="Helvetica,sans-Serif" font-size="10.00" fill="#000000">tensorflow/compiler</text>
<text text-anchor="middle" x="1201" y="-247" font-family="Helvetica,sans-Serif" font-size="10.00" fill="#000000">/xla/service/hlo_module.h</text>
</a>
</g>
</g>
<!-- Node1&#45;&gt;Node7 -->
<g id="edge7" class="edge">
<title>Node1&#45;&gt;Node7</title>
<path fill="none" stroke="#191970" d="M1201,-312.0974C1201,-302.3178 1201,-290.5873 1201,-280.3097"/>
<polygon fill="#191970" stroke="#191970" points="1204.5001,-280.2678 1201,-270.2679 1197.5001,-280.2679 1204.5001,-280.2678"/>
</g>
<!-- Node1&#45;&gt;Node29 -->
<g id="edge81" class="edge">
<title>Node1&#45;&gt;Node29</title>
<path fill="none" stroke="#191970" d="M1260.7878,-331.8445C1522.817,-326.2066 2561.2664,-297.6752 2663,-198 2703.4831,-158.336 2696.253,-84.7487 2688.8771,-46.1374"/>
<polygon fill="#191970" stroke="#191970" points="2692.2818,-45.3178 2686.8324,-36.2318 2685.4263,-46.7329 2692.2818,-45.3178"/>
</g>
<!-- Node38 -->
<g id="node35" class="node">
<title>Node38</title>
<polygon fill="#ffffff" stroke="#bfbfbf" points="2388.5,-6 2388.5,-36 2525.5,-36 2525.5,-6 2388.5,-6"/>
<text text-anchor="start" x="2396.5" y="-24" font-family="Helvetica,sans-Serif" font-size="10.00" fill="#000000">tensorflow/core/platform</text>
<text text-anchor="middle" x="2457" y="-13" font-family="Helvetica,sans-Serif" font-size="10.00" fill="#000000">/macros.h</text>
</g>
<!-- Node1&#45;&gt;Node38 -->
<g id="edge82" class="edge">
<title>Node1&#45;&gt;Node38</title>
<path fill="none" stroke="#191970" d="M1260.8416,-331.8442C1536.499,-326.3817 2671.6662,-302.3175 2697,-276 2780.8854,-188.8576 2589.4187,-83.1428 2499.9301,-40.3592"/>
<polygon fill="#191970" stroke="#191970" points="2501.3658,-37.1666 2490.8292,-36.0571 2498.3741,-43.4951 2501.3658,-37.1666"/>
</g>
<!-- Node42 -->
<g id="node39" class="node">
<title>Node42</title>
<polygon fill="#ffffff" stroke="#bfbfbf" points="1911.5,-84 1911.5,-114 2024.5,-114 2024.5,-84 1911.5,-84"/>
<text text-anchor="start" x="1919.5" y="-102" font-family="Helvetica,sans-Serif" font-size="10.00" fill="#000000">tensorflow/compiler</text>
<text text-anchor="middle" x="1968" y="-91" font-family="Helvetica,sans-Serif" font-size="10.00" fill="#000000">/xla/statusor.h</text>
</g>
<!-- Node1&#45;&gt;Node42 -->
<g id="edge80" class="edge">
<title>Node1&#45;&gt;Node42</title>
<path fill="none" stroke="#191970" d="M1260.6257,-332.1209C1523.1142,-327.6463 2566.9783,-303.2967 2663,-198 2675.5779,-184.2072 2675.8173,-169.5706 2663,-156 2614.8568,-105.0272 2101.9205,-132.8825 2033,-120 2028.3626,-119.1332 2023.5969,-118.0287 2018.8547,-116.7813"/>
<polygon fill="#191970" stroke="#191970" points="2019.7776,-113.405 2009.2024,-114.0505 2017.8719,-120.1407 2019.7776,-113.405"/>
</g>
<!-- Node48 -->
<g id="node44" class="node">
<title>Node48</title>
<polygon fill="#ffffff" stroke="#bfbfbf" points="2787.5,-234.5 2787.5,-275.5 2906.5,-275.5 2906.5,-234.5 2787.5,-234.5"/>
<text text-anchor="start" x="2795.5" y="-263.5" font-family="Helvetica,sans-Serif" font-size="10.00" fill="#000000">tensorflow/compiler</text>
<text text-anchor="start" x="2795.5" y="-252.5" font-family="Helvetica,sans-Serif" font-size="10.00" fill="#000000">/xla/service/hlo_pass</text>
<text text-anchor="middle" x="2847" y="-241.5" font-family="Helvetica,sans-Serif" font-size="10.00" fill="#000000">_interface.h</text>
</g>
<!-- Node1&#45;&gt;Node48 -->
<g id="edge79" class="edge">
<title>Node1&#45;&gt;Node48</title>
<path fill="none" stroke="#191970" d="M1260.5532,-332.7513C1510.2118,-331.4145 2473.3938,-323.2377 2773,-276 2774.2985,-275.7953 2775.6066,-275.5752 2776.9216,-275.3414"/>
<polygon fill="#191970" stroke="#191970" points="2777.977,-278.6995 2787.094,-273.3022 2776.6011,-271.836 2777.977,-278.6995"/>
</g>
<!-- Node7&#45;&gt;Node3 -->
<g id="edge10" class="edge">
<title>Node7&#45;&gt;Node3</title>
<path fill="none" stroke="#191970" d="M1149.4837,-239.9002C1139.7643,-237.5495 1129.6278,-235.4297 1120,-234 1023.8608,-219.7235 328.6992,-249.0627 246,-198 187.7885,-162.0573 161.4265,-78.3478 152.1464,-40.3628"/>
<polygon fill="#191970" stroke="#191970" points="155.5393,-39.4994 149.8834,-30.5405 148.718,-41.0711 155.5393,-39.4994"/>
</g>
<!-- Node7&#45;&gt;Node4 -->
<g id="edge12" class="edge">
<title>Node7&#45;&gt;Node4</title>
<path fill="none" stroke="#191970" d="M1149.4822,-239.9105C1139.7629,-237.5588 1129.6269,-235.436 1120,-234 1026.8347,-220.1028 347.7922,-255.2628 273,-198 247.5655,-178.5267 227.8667,-82.5808 220.3309,-40.6596"/>
<polygon fill="#191970" stroke="#191970" points="223.7406,-39.8393 218.5698,-30.592 216.8453,-41.0455 223.7406,-39.8393"/>
</g>
<!-- Node7&#45;&gt;Node5 -->
<g id="edge14" class="edge">
<title>Node7&#45;&gt;Node5</title>
<path fill="none" stroke="#191970" d="M1149.4805,-239.9219C1139.7614,-237.5691 1129.6258,-235.443 1120,-234 1074.9593,-227.248 334.2897,-229.0813 301,-198 257.5721,-157.4531 268.0638,-78.074 276.0031,-40.9862"/>
<polygon fill="#191970" stroke="#191970" points="279.4868,-41.4544 278.3225,-30.9238 272.6657,-39.8821 279.4868,-41.4544"/>
</g>
<!-- Node8 -->
<g id="node9" class="node">
<title>Node8</title>
<polygon fill="#ffffff" stroke="#bfbfbf" points="310,-167.5 310,-186.5 360,-186.5 360,-167.5 310,-167.5"/>
<text text-anchor="middle" x="335" y="-174.5" font-family="Helvetica,sans-Serif" font-size="10.00" fill="#000000">atomic</text>
</g>
<!-- Node7&#45;&gt;Node8 -->
<g id="edge8" class="edge">
<title>Node7&#45;&gt;Node8</title>
<path fill="none" stroke="#191970" d="M1149.4754,-239.9557C1139.7567,-237.5996 1129.6227,-235.4637 1120,-234 955.9165,-209.0422 533.9098,-242.4424 374,-198 368.6723,-196.5193 363.2606,-194.2136 358.2325,-191.6632"/>
<polygon fill="#191970" stroke="#191970" points="359.5982,-188.4177 349.1588,-186.6097 356.1922,-194.5332 359.5982,-188.4177"/>
</g>
<!-- Node9 -->
<g id="node10" class="node">
<title>Node9</title>
<polygon fill="#ffffff" stroke="#bfbfbf" points="323,-11.5 323,-30.5 355,-30.5 355,-11.5 323,-11.5"/>
<text text-anchor="middle" x="339" y="-18.5" font-family="Helvetica,sans-Serif" font-size="10.00" fill="#000000">list</text>
</g>
<!-- Node7&#45;&gt;Node9 -->
<g id="edge9" class="edge">
<title>Node7&#45;&gt;Node9</title>
<path fill="none" stroke="#191970" d="M1149.4727,-239.9732C1139.7543,-237.6154 1129.6211,-235.4744 1120,-234 1041.5922,-221.9845 471.2247,-244.5547 407,-198 355.5512,-160.7062 343.0281,-79.0187 339.9802,-41.0894"/>
<polygon fill="#191970" stroke="#191970" points="343.4537,-40.5698 339.3059,-30.8207 336.4688,-41.0285 343.4537,-40.5698"/>
</g>
<!-- Node10 -->
<g id="node11" class="node">
<title>Node10</title>
<polygon fill="#ffffff" stroke="#bfbfbf" points="416,-167.5 416,-186.5 470,-186.5 470,-167.5 416,-167.5"/>
<text text-anchor="middle" x="443" y="-174.5" font-family="Helvetica,sans-Serif" font-size="10.00" fill="#000000">random</text>
</g>
<!-- Node7&#45;&gt;Node10 -->
<g id="edge11" class="edge">
<title>Node7&#45;&gt;Node10</title>
<path fill="none" stroke="#191970" d="M1149.0299,-239.9155C1139.4453,-237.5945 1129.473,-235.4812 1120,-234 840.2798,-190.2616 757.2399,-272.1378 484,-198 478.3077,-196.4555 472.4924,-194.0581 467.0974,-191.4273"/>
<polygon fill="#191970" stroke="#191970" points="468.4312,-188.1727 457.9577,-186.5737 465.1481,-194.355 468.4312,-188.1727"/>
</g>
<!-- Node11 -->
<g id="node12" class="node">
<title>Node11</title>
<polygon fill="#ffffff" stroke="#bfbfbf" points="373.5,-11.5 373.5,-30.5 466.5,-30.5 466.5,-11.5 373.5,-11.5"/>
<text text-anchor="middle" x="420" y="-18.5" font-family="Helvetica,sans-Serif" font-size="10.00" fill="#000000">unordered_map</text>
</g>
<!-- Node7&#45;&gt;Node11 -->
<g id="edge13" class="edge">
<title>Node7&#45;&gt;Node11</title>
<path fill="none" stroke="#191970" d="M1147.6658,-239.928C1138.4913,-237.6935 1129.0103,-235.6061 1120,-234 960.8264,-205.6272 912.896,-244.3515 758,-198 630.1884,-159.7533 494.2755,-72.1297 442.1202,-36.4971"/>
<polygon fill="#191970" stroke="#191970" points="443.8722,-33.4539 433.6515,-30.663 439.901,-39.2184 443.8722,-33.4539"/>
</g>
<!-- Node12 -->
<g id="node13" class="node">
<title>Node12</title>
<polygon fill="#ffffff" stroke="#bfbfbf" points="484.5,-6 484.5,-36 597.5,-36 597.5,-6 484.5,-6"/>
<text text-anchor="start" x="492.5" y="-24" font-family="Helvetica,sans-Serif" font-size="10.00" fill="#000000">tensorflow/compiler</text>
<text text-anchor="middle" x="541" y="-13" font-family="Helvetica,sans-Serif" font-size="10.00" fill="#000000">/xla/iterator_util.h</text>
</g>
<!-- Node7&#45;&gt;Node12 -->
<g id="edge15" class="edge">
<title>Node7&#45;&gt;Node12</title>
<path fill="none" stroke="#191970" d="M1146.7393,-239.9916C1137.8445,-237.803 1128.6945,-235.7136 1120,-234 1003.816,-211.1007 969.0995,-233.0944 856,-198 782.3447,-175.145 768.2999,-157.6588 701,-120 655.4018,-94.4847 604.3179,-62.2028 572.4069,-41.5725"/>
<polygon fill="#191970" stroke="#191970" points="574.2297,-38.583 563.9353,-36.0779 570.4207,-44.4559 574.2297,-38.583"/>
</g>
<!-- Node13 -->
<g id="node14" class="node">
<title>Node13</title>
<polygon fill="#ffffff" stroke="#bfbfbf" points="615.5,-6 615.5,-36 730.5,-36 730.5,-6 615.5,-6"/>
<text text-anchor="start" x="623.5" y="-24" font-family="Helvetica,sans-Serif" font-size="10.00" fill="#000000">tensorflow/compiler</text>
<text text-anchor="middle" x="673" y="-13" font-family="Helvetica,sans-Serif" font-size="10.00" fill="#000000">/xla/service/hlo.pb.h</text>
</g>
<!-- Node7&#45;&gt;Node13 -->
<g id="edge16" class="edge">
<title>Node7&#45;&gt;Node13</title>
<path fill="none" stroke="#191970" d="M1146.3769,-239.9328C1028.5663,-207.2952 759.8128,-132.028 743,-120 716.1564,-100.7959 695.9357,-67.9774 684.2951,-45.426"/>
<polygon fill="#191970" stroke="#191970" points="687.2795,-43.5664 679.6973,-36.1663 681.0099,-46.6795 687.2795,-43.5664"/>
</g>
<!-- Node14 -->
<g id="node15" class="node">
<title>Node14</title>
<g id="a_node15"><a xlink:href="../../d2/d31/hlo__computation_8h.html" target="_top" xlink:title="tensorflow/compiler\l/xla/service/hlo_computation.h">
<polygon fill="#ffffff" stroke="#000000" points="1061.5,-162 1061.5,-192 1228.5,-192 1228.5,-162 1061.5,-162"/>
<text text-anchor="start" x="1069.5" y="-180" font-family="Helvetica,sans-Serif" font-size="10.00" fill="#000000">tensorflow/compiler</text>
<text text-anchor="middle" x="1145" y="-169" font-family="Helvetica,sans-Serif" font-size="10.00" fill="#000000">/xla/service/hlo_computation.h</text>
</a>
</g>
</g>
<!-- Node7&#45;&gt;Node14 -->
<g id="edge17" class="edge">
<title>Node7&#45;&gt;Node14</title>
<path fill="none" stroke="#191970" d="M1190.2026,-239.9608C1182.1973,-228.8105 1171.1289,-213.3938 1161.9485,-200.6068"/>
<polygon fill="#191970" stroke="#191970" points="1164.6305,-198.3412 1155.9553,-192.2592 1158.9443,-202.4236 1164.6305,-198.3412"/>
</g>
<!-- Node20 -->
<g id="node21" class="node">
<title>Node20</title>
<g id="a_node21"><a xlink:href="../../dd/d66/hlo__instruction_8h.html" target="_top" xlink:title="tensorflow/compiler\l/xla/service/hlo_instruction.h">
<polygon fill="#ffffff" stroke="#ff0000" points="1121.5,-84 1121.5,-114 1278.5,-114 1278.5,-84 1121.5,-84"/>
<text text-anchor="start" x="1129.5" y="-102" font-family="Helvetica,sans-Serif" font-size="10.00" fill="#000000">tensorflow/compiler</text>
<text text-anchor="middle" x="1200" y="-91" font-family="Helvetica,sans-Serif" font-size="10.00" fill="#000000">/xla/service/hlo_instruction.h</text>
</a>
</g>
</g>
<!-- Node7&#45;&gt;Node20 -->
<g id="edge68" class="edge">
<title>Node7&#45;&gt;Node20</title>
<path fill="none" stroke="#191970" d="M1214.0334,-239.7224C1222.4002,-228.8668 1232.5106,-213.5154 1237,-198 1242.1884,-180.0689 1242.2998,-173.8985 1237,-156 1233.4248,-143.9258 1226.399,-132.0114 1219.4215,-122.2225"/>
<polygon fill="#191970" stroke="#191970" points="1222.2028,-120.0976 1213.3901,-114.2166 1216.6119,-124.3097 1222.2028,-120.0976"/>
</g>
<!-- Node28 -->
<g id="node27" class="node">
<title>Node28</title>
<polygon fill="#ffffff" stroke="#bfbfbf" points="1829,-6 1829,-36 1983,-36 1983,-6 1829,-6"/>
<text text-anchor="start" x="1837" y="-24" font-family="Helvetica,sans-Serif" font-size="10.00" fill="#000000">tensorflow/compiler</text>
<text text-anchor="middle" x="1906" y="-13" font-family="Helvetica,sans-Serif" font-size="10.00" fill="#000000">/xla/service/name_uniquer.h</text>
</g>
<!-- Node7&#45;&gt;Node28 -->
<g id="edge70" class="edge">
<title>Node7&#45;&gt;Node28</title>
<path fill="none" stroke="#191970" d="M1272.0472,-250.2778C1483.8333,-235.4862 2099.7777,-187.0119 2158,-120 2170.2428,-105.9089 2169.7174,-92.5309 2158,-78 2110.6118,-19.2333 2065.5641,-58.9555 1992,-42 1987.0718,-40.8641 1981.9895,-39.6733 1976.8744,-38.4604"/>
<polygon fill="#191970" stroke="#191970" points="1977.5681,-35.0277 1967.0287,-36.1093 1975.9423,-41.8363 1977.5681,-35.0277"/>
</g>
<!-- Node7&#45;&gt;Node29 -->
<g id="edge74" class="edge">
<title>Node7&#45;&gt;Node29</title>
<path fill="none" stroke="#191970" d="M1272.1989,-252.0319C1435.4863,-244.8443 1832.9379,-225.0806 1964,-198 2123.808,-164.9798 2151.9305,-114.4118 2311,-78 2444.4854,-47.4445 2483.1446,-70.8916 2617,-42 2621.1652,-41.101 2625.442,-40.0484 2629.7196,-38.9021"/>
<polygon fill="#191970" stroke="#191970" points="2630.9848,-42.1814 2639.6501,-36.0853 2629.0745,-35.4471 2630.9848,-42.1814"/>
</g>
<!-- Node33 -->
<g id="node31" class="node">
<title>Node33</title>
<polygon fill="#ffffff" stroke="#bfbfbf" points="2132.5,-6 2132.5,-36 2239.5,-36 2239.5,-6 2132.5,-6"/>
<text text-anchor="start" x="2140.5" y="-24" font-family="Helvetica,sans-Serif" font-size="10.00" fill="#000000">tensorflow/core/lib</text>
<text text-anchor="middle" x="2186" y="-13" font-family="Helvetica,sans-Serif" font-size="10.00" fill="#000000">/gtl/array_slice.h</text>
</g>
<!-- Node7&#45;&gt;Node33 -->
<g id="edge75" class="edge">
<title>Node7&#45;&gt;Node33</title>
<path fill="none" stroke="#191970" d="M1272.2329,-252.1929C1435.5928,-245.3484 1833.1881,-226.2645 1964,-198 2062.5405,-176.7084 2115.5709,-199.9376 2177,-120 2193.0131,-99.1622 2193.1607,-68.0867 2190.6514,-46.3253"/>
<polygon fill="#191970" stroke="#191970" points="2194.0834,-45.5979 2189.2158,-36.1874 2187.1526,-46.5794 2194.0834,-45.5979"/>
</g>
<!-- Node36 -->
<g id="node33" class="node">
<title>Node36</title>
<polygon fill="#ffffff" stroke="#bfbfbf" points="2257.5,-6 2257.5,-36 2370.5,-36 2370.5,-6 2257.5,-6"/>
<text text-anchor="start" x="2265.5" y="-24" font-family="Helvetica,sans-Serif" font-size="10.00" fill="#000000">tensorflow/core/lib</text>
<text text-anchor="middle" x="2314" y="-13" font-family="Helvetica,sans-Serif" font-size="10.00" fill="#000000">/gtl/iterator_range.h</text>
</g>
<!-- Node7&#45;&gt;Node36 -->
<g id="edge76" class="edge">
<title>Node7&#45;&gt;Node36</title>
<path fill="none" stroke="#191970" d="M1272.1896,-254.5504C1451.7473,-252.7415 1919.2656,-243.6537 2067,-198 2163.5978,-168.1488 2253.9934,-83.7942 2293.3356,-43.2714"/>
<polygon fill="#191970" stroke="#191970" points="2295.9029,-45.651 2300.2941,-36.009 2290.8485,-40.8081 2295.9029,-45.651"/>
</g>
<!-- Node7&#45;&gt;Node37 -->
<g id="edge77" class="edge">
<title>Node7&#45;&gt;Node37</title>
<path fill="none" stroke="#191970" d="M1272.105,-252.1435C1458.7882,-244.3981 1959.7722,-221.9628 2124,-198 2199.849,-186.9327 2385.658,-138.677 2460,-120 2566.7035,-93.1928 2690.0876,-59.19 2762.8879,-38.8142"/>
<polygon fill="#191970" stroke="#191970" points="2764.1329,-42.1002 2772.8176,-36.0317 2762.2441,-35.3599 2764.1329,-42.1002"/>
</g>
<!-- Node44 -->
<g id="node41" class="node">
<title>Node44</title>
<polygon fill="#ffffff" stroke="#bfbfbf" points="2327.5,-156.5 2327.5,-197.5 2460.5,-197.5 2460.5,-156.5 2327.5,-156.5"/>
<text text-anchor="start" x="2335.5" y="-185.5" font-family="Helvetica,sans-Serif" font-size="10.00" fill="#000000">tensorflow/compiler</text>
<text text-anchor="start" x="2335.5" y="-174.5" font-family="Helvetica,sans-Serif" font-size="10.00" fill="#000000">/xla/service/hlo_module</text>
<text text-anchor="middle" x="2394" y="-163.5" font-family="Helvetica,sans-Serif" font-size="10.00" fill="#000000">_config.h</text>
</g>
<!-- Node7&#45;&gt;Node44 -->
<g id="edge69" class="edge">
<title>Node7&#45;&gt;Node44</title>
<path fill="none" stroke="#191970" d="M1272.1802,-253.2359C1484.4894,-247.6761 2111.0659,-229.0244 2313,-198 2314.4808,-197.7725 2315.9737,-197.5293 2317.4753,-197.2719"/>
<polygon fill="#191970" stroke="#191970" points="2318.2993,-200.6783 2327.4776,-195.3859 2317.0022,-193.7995 2318.2993,-200.6783"/>
</g>
<!-- Node45 -->
<g id="node42" class="node">
<title>Node45</title>
<g id="a_node42"><a xlink:href="../../d3/d4d/versioned__computation__handle_8h.html" target="_top" xlink:title="tensorflow/compiler\l/xla/service/versioned\l_computation_handle.h">
<polygon fill="#ffffff" stroke="#ff0000" points="2320.5,-78.5 2320.5,-119.5 2451.5,-119.5 2451.5,-78.5 2320.5,-78.5"/>
<text text-anchor="start" x="2328.5" y="-107.5" font-family="Helvetica,sans-Serif" font-size="10.00" fill="#000000">tensorflow/compiler</text>
<text text-anchor="start" x="2328.5" y="-96.5" font-family="Helvetica,sans-Serif" font-size="10.00" fill="#000000">/xla/service/versioned</text>
<text text-anchor="middle" x="2386" y="-85.5" font-family="Helvetica,sans-Serif" font-size="10.00" fill="#000000">_computation_handle.h</text>
</a>
</g>
</g>
<!-- Node7&#45;&gt;Node45 -->
<g id="edge71" class="edge">
<title>Node7&#45;&gt;Node45</title>
<path fill="none" stroke="#191970" d="M1272.4252,-254.4857C1534.114,-252.2566 2427.4323,-241.4782 2469,-198 2481.8995,-184.5076 2477.6945,-172.5182 2469,-156 2462.5138,-143.6771 2452.0269,-133.504 2440.6573,-125.3359"/>
<polygon fill="#191970" stroke="#191970" points="2442.5287,-122.377 2432.2671,-119.7406 2438.6449,-128.2008 2442.5287,-122.377"/>
</g>
<!-- Node47 -->
<g id="node43" class="node">
<title>Node47</title>
<polygon fill="#ffffff" stroke="#bfbfbf" points="2517.5,-162 2517.5,-192 2654.5,-192 2654.5,-162 2517.5,-162"/>
<text text-anchor="start" x="2525.5" y="-180" font-family="Helvetica,sans-Serif" font-size="10.00" fill="#000000">tensorflow/core/platform</text>
<text text-anchor="middle" x="2586" y="-169" font-family="Helvetica,sans-Serif" font-size="10.00" fill="#000000">/mutex.h</text>
</g>
<!-- Node7&#45;&gt;Node47 -->
<g id="edge78" class="edge">
<title>Node7&#45;&gt;Node47</title>
<path fill="none" stroke="#191970" d="M1272.3853,-253.7935C1508.4456,-249.5029 2262.4924,-233.312 2503,-198 2509.6201,-197.028 2516.4783,-195.7485 2523.2864,-194.2998"/>
<polygon fill="#191970" stroke="#191970" points="2524.2031,-197.6811 2533.1914,-192.0721 2522.6671,-190.8517 2524.2031,-197.6811"/>
</g>
<!-- Node14&#45;&gt;Node3 -->
<g id="edge19" class="edge">
<title>Node14&#45;&gt;Node3</title>
<path fill="none" stroke="#191970" d="M1061.0954,-171.8634C946.3565,-164.1637 734.2746,-147.5191 555,-120 389.3167,-94.5672 343.0792,-100.514 186,-42 181.3028,-40.2502 176.4818,-37.9925 171.9182,-35.6087"/>
<polygon fill="#191970" stroke="#191970" points="173.4741,-32.4691 163.0346,-30.6612 170.0681,-38.5846 173.4741,-32.4691"/>
</g>
<!-- Node14&#45;&gt;Node4 -->
<g id="edge20" class="edge">
<title>Node14&#45;&gt;Node4</title>
<path fill="none" stroke="#191970" d="M1061.4114,-175.6247C927.7597,-172.2271 672.8652,-160.4811 593,-120 570.5466,-108.6191 577.3741,-89.5359 555,-78 432.8952,-15.0437 376.7621,-89.8896 248,-42 244.1349,-40.5625 240.2817,-38.5479 236.672,-36.3304"/>
<polygon fill="#191970" stroke="#191970" points="238.5592,-33.3808 228.3321,-30.6138 234.6015,-39.1546 238.5592,-33.3808"/>
</g>
<!-- Node14&#45;&gt;Node5 -->
<g id="edge24" class="edge">
<title>Node14&#45;&gt;Node5</title>
<path fill="none" stroke="#191970" d="M1061.291,-174.8664C935.3649,-170.4668 704.1355,-157.4176 631,-120 608.5897,-108.5345 615.3069,-89.6654 593,-78 482.2072,-20.0607 431.5536,-84.5812 314,-42 309.8339,-40.4909 305.6476,-38.3868 301.7222,-36.0891"/>
<polygon fill="#191970" stroke="#191970" points="303.4677,-33.05 293.1683,-30.5652 299.6702,-38.9304 303.4677,-33.05"/>
</g>
<!-- Node14&#45;&gt;Node9 -->
<g id="edge18" class="edge">
<title>Node14&#45;&gt;Node9</title>
<path fill="none" stroke="#191970" d="M1061.1536,-173.987C943.2544,-168.5705 735.4434,-154.3608 669,-120 646.64,-108.4367 653.2735,-89.7289 631,-78 525.0513,-22.2089 473.5116,-90.4251 364,-42 361.0872,-40.712 358.2487,-38.9777 355.5922,-37.0552"/>
<polygon fill="#191970" stroke="#191970" points="357.7736,-34.3168 347.8572,-30.5864 353.2829,-39.6866 357.7736,-34.3168"/>
</g>
<!-- Node14&#45;&gt;Node11 -->
<g id="edge21" class="edge">
<title>Node14&#45;&gt;Node11</title>
<path fill="none" stroke="#191970" d="M1061.3933,-172.9782C951.9111,-166.5495 766.8657,-151.3483 707,-120 684.6995,-108.3225 690.9767,-90.2761 669,-78 592.4405,-35.2342 559.4203,-65.7377 475,-42 467.3376,-39.8454 459.2474,-37.0584 451.6988,-34.2231"/>
<polygon fill="#191970" stroke="#191970" points="452.7575,-30.8796 442.1689,-30.5172 450.2204,-37.4036 452.7575,-30.8796"/>
</g>
<!-- Node14&#45;&gt;Node12 -->
<g id="edge25" class="edge">
<title>Node14&#45;&gt;Node12</title>
<path fill="none" stroke="#191970" d="M1061.2696,-171.76C960.5256,-164.308 798.2711,-148.3083 745,-120 722.7707,-108.1873 728.014,-91.8597 707,-78 702.0872,-74.7598 642.6347,-54.6671 596.2674,-39.245"/>
<polygon fill="#191970" stroke="#191970" points="597.1895,-35.8633 586.596,-36.0327 594.983,-42.5064 597.1895,-35.8633"/>
</g>
<!-- Node14&#45;&gt;Node13 -->
<g id="edge29" class="edge">
<title>Node14&#45;&gt;Node13</title>
<path fill="none" stroke="#191970" d="M1061.3,-168.145C974.1056,-158.0564 843.9219,-140.3131 798,-120 798,-120 736.5929,-71.3656 699.8588,-42.2722"/>
<polygon fill="#191970" stroke="#191970" points="701.9971,-39.5009 691.9848,-36.036 697.651,-44.9884 701.9971,-39.5009"/>
</g>
<!-- Node15 -->
<g id="node16" class="node">
<title>Node15</title>
<polygon fill="#ffffff" stroke="#bfbfbf" points="749,-11.5 749,-30.5 835,-30.5 835,-11.5 749,-11.5"/>
<text text-anchor="middle" x="792" y="-18.5" font-family="Helvetica,sans-Serif" font-size="10.00" fill="#000000">unordered_set</text>
</g>
<!-- Node14&#45;&gt;Node15 -->
<g id="edge22" class="edge">
<title>Node14&#45;&gt;Node15</title>
<path fill="none" stroke="#191970" d="M1061.1718,-171.5483C978.7921,-164.5528 860.5525,-149.6029 826,-120 802.7423,-100.074 795.3715,-63.4791 793.0498,-40.7973"/>
<polygon fill="#191970" stroke="#191970" points="796.5245,-40.3357 792.2532,-30.64 789.5459,-40.8831 796.5245,-40.3357"/>
</g>
<!-- Node16 -->
<g id="node17" class="node">
<title>Node16</title>
<polygon fill="#ffffff" stroke="#bfbfbf" points="835.5,-89.5 835.5,-108.5 880.5,-108.5 880.5,-89.5 835.5,-89.5"/>
<text text-anchor="middle" x="858" y="-96.5" font-family="Helvetica,sans-Serif" font-size="10.00" fill="#000000">utility</text>
</g>
<!-- Node14&#45;&gt;Node16 -->
<g id="edge23" class="edge">
<title>Node14&#45;&gt;Node16</title>
<path fill="none" stroke="#191970" d="M1061.279,-164.2269C1011.8427,-155.1436 948.6398,-140.8172 895,-120 890.5415,-118.2697 885.9713,-116.0712 881.6312,-113.7521"/>
<polygon fill="#191970" stroke="#191970" points="883.0506,-110.5324 872.6303,-108.6175 879.5821,-116.6127 883.0506,-110.5324"/>
</g>
<!-- Node17 -->
<g id="node18" class="node">
<title>Node17</title>
<polygon fill="#ffffff" stroke="#bfbfbf" points="853.5,-6 853.5,-36 966.5,-36 966.5,-6 853.5,-6"/>
<text text-anchor="start" x="861.5" y="-24" font-family="Helvetica,sans-Serif" font-size="10.00" fill="#000000">tensorflow/compiler</text>
<text text-anchor="middle" x="910" y="-13" font-family="Helvetica,sans-Serif" font-size="10.00" fill="#000000">/xla/map_util.h</text>
</g>
<!-- Node14&#45;&gt;Node17 -->
<g id="edge26" class="edge">
<title>Node14&#45;&gt;Node17</title>
<path fill="none" stroke="#191970" d="M1073.0164,-161.9126C1027.1029,-151.0832 972.9639,-135.6862 955,-120 932.9017,-100.7037 921.0506,-68.3571 915.1487,-45.9127"/>
<polygon fill="#191970" stroke="#191970" points="918.5251,-44.9841 912.7751,-36.0853 911.7207,-46.6275 918.5251,-44.9841"/>
</g>
<!-- Node18 -->
<g id="node19" class="node">
<title>Node18</title>
<polygon fill="#ffffff" stroke="#bfbfbf" points="984.5,-.5 984.5,-41.5 1097.5,-41.5 1097.5,-.5 984.5,-.5"/>
<text text-anchor="start" x="992.5" y="-29.5" font-family="Helvetica,sans-Serif" font-size="10.00" fill="#000000">tensorflow/compiler</text>
<text text-anchor="start" x="992.5" y="-18.5" font-family="Helvetica,sans-Serif" font-size="10.00" fill="#000000">/xla/service/dfs_hlo</text>
<text text-anchor="middle" x="1041" y="-7.5" font-family="Helvetica,sans-Serif" font-size="10.00" fill="#000000">_visitor.h</text>
</g>
<!-- Node14&#45;&gt;Node18 -->
<g id="edge27" class="edge">
<title>Node14&#45;&gt;Node18</title>
<path fill="none" stroke="#191970" d="M1068.1494,-161.9517C1025.5399,-151.8778 978.6552,-137.3112 966,-120 954.9837,-104.9306 957.7052,-94.7225 966,-78 971.9649,-65.9746 981.8146,-55.801 992.4448,-47.5279"/>
<polygon fill="#191970" stroke="#191970" points="994.625,-50.2705 1000.6745,-41.5726 990.5213,-44.5995 994.625,-50.2705"/>
</g>
<!-- Node19 -->
<g id="node20" class="node">
<title>Node19</title>
<polygon fill="#ffffff" stroke="#bfbfbf" points="975,-78.5 975,-119.5 1103,-119.5 1103,-78.5 975,-78.5"/>
<text text-anchor="start" x="983" y="-107.5" font-family="Helvetica,sans-Serif" font-size="10.00" fill="#000000">tensorflow/compiler</text>
<text text-anchor="start" x="983" y="-96.5" font-family="Helvetica,sans-Serif" font-size="10.00" fill="#000000">/xla/service/dfs_hlo</text>
<text text-anchor="middle" x="1039" y="-85.5" font-family="Helvetica,sans-Serif" font-size="10.00" fill="#000000">_visitor_with_default.h</text>
</g>
<!-- Node14&#45;&gt;Node19 -->
<g id="edge28" class="edge">
<title>Node14&#45;&gt;Node19</title>
<path fill="none" stroke="#191970" d="M1124.5621,-161.9608C1110.6274,-151.7069 1091.7895,-137.8451 1075.3367,-125.7383"/>
<polygon fill="#191970" stroke="#191970" points="1077.1177,-122.7034 1066.9889,-119.5956 1072.9689,-128.3415 1077.1177,-122.7034"/>
</g>
<!-- Node14&#45;&gt;Node20 -->
<g id="edge30" class="edge">
<title>Node14&#45;&gt;Node20</title>
<path fill="none" stroke="#191970" d="M1155.6046,-161.9608C1163.467,-150.8105 1174.3377,-135.3938 1183.3542,-122.6068"/>
<polygon fill="#191970" stroke="#191970" points="1186.338,-124.4487 1189.2403,-114.2592 1180.6172,-120.4148 1186.338,-124.4487"/>
</g>
<!-- Node14&#45;&gt;Node28 -->
<g id="edge57" class="edge">
<title>Node14&#45;&gt;Node28</title>
<path fill="none" stroke="#191970" d="M1228.6706,-168.9406C1279.7939,-161.454 1345.2591,-147.1523 1398,-120 1422.9071,-107.1772 1419.337,-89.2339 1445,-78 1597.9756,-11.0351 1654.3162,-69.66 1819,-42 1825.4861,-40.9106 1832.2057,-39.6074 1838.9044,-38.1907"/>
<polygon fill="#191970" stroke="#191970" points="1839.6574,-41.6089 1848.6742,-36.0458 1838.1562,-34.7717 1839.6574,-41.6089"/>
</g>
<!-- Node14&#45;&gt;Node29 -->
<g id="edge60" class="edge">
<title>Node14&#45;&gt;Node29</title>
<path fill="none" stroke="#191970" d="M1228.6621,-171.4868C1330.3603,-163.7101 1495.1949,-147.3315 1550,-120 1573.6239,-108.2187 1567.7919,-88.5289 1592,-78 1696.5028,-32.5484 2504.7142,-61.4573 2617,-42 2621.7836,-41.1711 2626.6999,-40.0813 2631.5882,-38.8335"/>
<polygon fill="#191970" stroke="#191970" points="2632.8261,-42.1226 2641.5311,-36.0834 2630.9599,-35.3759 2632.8261,-42.1226"/>
</g>
<!-- Node30 -->
<g id="node29" class="node">
<title>Node30</title>
<polygon fill="#ffffff" stroke="#bfbfbf" points="2001.5,-6 2001.5,-36 2114.5,-36 2114.5,-6 2001.5,-6"/>
<text text-anchor="start" x="2009.5" y="-24" font-family="Helvetica,sans-Serif" font-size="10.00" fill="#000000">tensorflow/compiler</text>
<text text-anchor="middle" x="2058" y="-13" font-family="Helvetica,sans-Serif" font-size="10.00" fill="#000000">/xla/xla_data.pb.h</text>
</g>
<!-- Node14&#45;&gt;Node30 -->
<g id="edge61" class="edge">
<title>Node14&#45;&gt;Node30</title>
<path fill="none" stroke="#191970" d="M1228.8145,-165.6254C1301.4509,-154.8549 1400.3312,-137.7322 1436,-120 1461.0853,-107.5293 1457.1967,-88.9077 1483,-78 1587.445,-33.8483 1880.6326,-63.3409 1992,-42 1996.6278,-41.1132 2001.3854,-40.0058 2006.1245,-38.7661"/>
<polygon fill="#191970" stroke="#191970" points="2007.0922,-42.1299 2015.7788,-36.0641 2005.2055,-35.3889 2007.0922,-42.1299"/>
</g>
<!-- Node31 -->
<g id="node30" class="node">
<title>Node31</title>
<polygon fill="#ffffff" stroke="#bfbfbf" points="1423.5,-6 1423.5,-36 1530.5,-36 1530.5,-6 1423.5,-6"/>
<text text-anchor="start" x="1431.5" y="-24" font-family="Helvetica,sans-Serif" font-size="10.00" fill="#000000">tensorflow/core/lib</text>
<text text-anchor="middle" x="1477" y="-13" font-family="Helvetica,sans-Serif" font-size="10.00" fill="#000000">/core/status.h</text>
</g>
<!-- Node14&#45;&gt;Node31 -->
<g id="edge62" class="edge">
<title>Node14&#45;&gt;Node31</title>
<path fill="none" stroke="#191970" d="M1195.556,-161.9622C1223.7395,-152.3198 1258.7435,-138.1887 1287,-120 1309.7321,-105.3673 1308.1986,-92.5244 1331,-78 1346.943,-67.8444 1388.585,-51.9228 1423.335,-39.4853"/>
<polygon fill="#191970" stroke="#191970" points="1424.6754,-42.7235 1432.9264,-36.0774 1422.3317,-36.1275 1424.6754,-42.7235"/>
</g>
<!-- Node14&#45;&gt;Node33 -->
<g id="edge63" class="edge">
<title>Node14&#45;&gt;Node33</title>
<path fill="none" stroke="#191970" d="M1228.784,-167.81C1311.5798,-157.7836 1431.7933,-140.4097 1474,-120 1499.2202,-107.8044 1495.1377,-88.7672 1521,-78 1644.7226,-26.4907 1991.4137,-67.4076 2123,-42 2127.3847,-41.1534 2131.8849,-40.0822 2136.3652,-38.8737"/>
<polygon fill="#191970" stroke="#191970" points="2137.4659,-42.1987 2146.089,-36.043 2135.5092,-35.4777 2137.4659,-42.1987"/>
</g>
<!-- Node34 -->
<g id="node32" class="node">
<title>Node34</title>
<polygon fill="#ffffff" stroke="#bfbfbf" points="1548.5,-6 1548.5,-36 1655.5,-36 1655.5,-6 1548.5,-6"/>
<text text-anchor="start" x="1556.5" y="-24" font-family="Helvetica,sans-Serif" font-size="10.00" fill="#000000">tensorflow/core/lib</text>
<text text-anchor="middle" x="1602" y="-13" font-family="Helvetica,sans-Serif" font-size="10.00" fill="#000000">/gtl/flatmap.h</text>
</g>
<!-- Node14&#45;&gt;Node34 -->
<g id="edge64" class="edge">
<title>Node14&#45;&gt;Node34</title>
<path fill="none" stroke="#191970" d="M1215.5236,-161.8954C1249.4592,-152.7987 1289.8662,-139.1891 1323,-120 1346.9567,-106.1257 1344.3721,-90.6445 1369,-78 1437.7048,-42.7254 1464.4692,-62.2437 1539,-42 1542.3847,-41.0807 1545.8547,-40.0832 1549.3419,-39.0393"/>
<polygon fill="#191970" stroke="#191970" points="1550.6407,-42.3012 1559.1583,-36.0003 1548.5705,-35.6143 1550.6407,-42.3012"/>
</g>
<!-- Node14&#45;&gt;Node38 -->
<g id="edge66" class="edge">
<title>Node14&#45;&gt;Node38</title>
<path fill="none" stroke="#191970" d="M1228.7527,-169.5497C1321.1319,-160.3619 1463.1809,-143.0833 1512,-120 1537.3257,-108.0251 1533.0532,-88.5619 1559,-78 1727.9378,-9.2326 2198.7451,-69.8764 2379,-42 2385.0937,-41.0576 2391.3951,-39.8195 2397.6531,-38.4149"/>
<polygon fill="#191970" stroke="#191970" points="2398.4985,-41.8116 2407.4153,-36.0895 2396.8764,-35.0021 2398.4985,-41.8116"/>
</g>
<!-- Node39 -->
<g id="node36" class="node">
<title>Node39</title>
<polygon fill="#ffffff" stroke="#bfbfbf" points="1673.5,-6 1673.5,-36 1810.5,-36 1810.5,-6 1673.5,-6"/>
<text text-anchor="start" x="1681.5" y="-24" font-family="Helvetica,sans-Serif" font-size="10.00" fill="#000000">tensorflow/core/platform</text>
<text text-anchor="middle" x="1742" y="-13" font-family="Helvetica,sans-Serif" font-size="10.00" fill="#000000">/types.h</text>
</g>
<!-- Node14&#45;&gt;Node39 -->
<g id="edge67" class="edge">
<title>Node14&#45;&gt;Node39</title>
<path fill="none" stroke="#191970" d="M1228.5432,-164.3348C1269.8297,-155.7628 1319.3758,-141.889 1360,-120 1384.662,-106.7117 1381.5857,-89.7857 1407,-78 1511.6337,-29.4767 1550.9866,-65.0365 1664,-42 1669.2389,-40.9321 1674.6473,-39.7165 1680.0586,-38.421"/>
<polygon fill="#191970" stroke="#191970" points="1680.9004,-41.8183 1689.7659,-36.0171 1679.2178,-35.0235 1680.9004,-41.8183"/>
</g>
<!-- Node40 -->
<g id="node37" class="node">
<title>Node40</title>
<polygon fill="#ffffff" stroke="#bfbfbf" points="1601.5,-84 1601.5,-114 1762.5,-114 1762.5,-84 1601.5,-84"/>
<text text-anchor="start" x="1609.5" y="-102" font-family="Helvetica,sans-Serif" font-size="10.00" fill="#000000">tensorflow/compiler</text>
<text text-anchor="middle" x="1682" y="-91" font-family="Helvetica,sans-Serif" font-size="10.00" fill="#000000">/xla/service/hlo_reachability.h</text>
</g>
<!-- Node14&#45;&gt;Node40 -->
<g id="edge56" class="edge">
<title>Node14&#45;&gt;Node40</title>
<path fill="none" stroke="#191970" d="M1228.8378,-168.4442C1317.9892,-158.8201 1462.9553,-141.664 1587,-120 1593.7077,-118.8285 1600.6587,-117.5052 1607.6098,-116.107"/>
<polygon fill="#191970" stroke="#191970" points="1608.6784,-119.4605 1617.766,-114.0138 1607.2653,-112.6045 1608.6784,-119.4605"/>
</g>
<!-- Node41 -->
<g id="node38" class="node">
<title>Node41</title>
<polygon fill="#ffffff" stroke="#bfbfbf" points="1780.5,-84 1780.5,-114 1893.5,-114 1893.5,-84 1780.5,-84"/>
<text text-anchor="start" x="1788.5" y="-102" font-family="Helvetica,sans-Serif" font-size="10.00" fill="#000000">tensorflow/compiler</text>
<text text-anchor="middle" x="1837" y="-91" font-family="Helvetica,sans-Serif" font-size="10.00" fill="#000000">/xla/shape_tree.h</text>
</g>
<!-- Node14&#45;&gt;Node41 -->
<g id="edge58" class="edge">
<title>Node14&#45;&gt;Node41</title>
<path fill="none" stroke="#191970" d="M1228.6127,-175.1435C1349.4414,-171.1651 1579.395,-158.7262 1771,-120 1775.429,-119.1048 1779.9798,-118.02 1784.5213,-116.8204"/>
<polygon fill="#191970" stroke="#191970" points="1785.7201,-120.1191 1794.3975,-114.0402 1783.8232,-113.381 1785.7201,-120.1191"/>
</g>
<!-- Node14&#45;&gt;Node42 -->
<g id="edge59" class="edge">
<title>Node14&#45;&gt;Node42</title>
<path fill="none" stroke="#191970" d="M1228.7148,-173.159C1397.8643,-164.9938 1775.0422,-144.6278 1902,-120 1906.6258,-119.1027 1911.382,-117.988 1916.1201,-116.7435"/>
<polygon fill="#191970" stroke="#191970" points="1917.0906,-120.1064 1925.7732,-114.0348 1915.1994,-113.3667 1917.0906,-120.1064"/>
</g>
<!-- Node14&#45;&gt;Node43 -->
<g id="edge65" class="edge">
<title>Node14&#45;&gt;Node43</title>
<path fill="none" stroke="#191970" d="M1228.5415,-174.3835C1418.9542,-167.9747 1880.4345,-149.8045 2033,-120 2037.3829,-119.1438 2041.8818,-118.0659 2046.3612,-116.853"/>
<polygon fill="#191970" stroke="#191970" points="2047.4646,-120.1771 2056.0837,-114.0159 2045.5036,-113.4574 2047.4646,-120.1771"/>
</g>
<!-- Node20&#45;&gt;Node3 -->
<g id="edge34" class="edge">
<title>Node20&#45;&gt;Node3</title>
<path fill="none" stroke="#191970" d="M1143.9757,-83.9049C1133.4217,-81.5537 1122.4256,-79.4326 1112,-78 907.9839,-49.9658 384.37,-97.2978 186,-42 180.7791,-40.5446 175.493,-38.25 170.5904,-35.7024"/>
<polygon fill="#191970" stroke="#191970" points="172.1709,-32.5743 161.753,-30.6459 168.6944,-38.6501 172.1709,-32.5743"/>
</g>
<!-- Node20&#45;&gt;Node4 -->
<g id="edge36" class="edge">
<title>Node20&#45;&gt;Node4</title>
<path fill="none" stroke="#191970" d="M1143.9724,-83.9286C1133.4188,-81.5752 1122.4236,-79.4471 1112,-78 921.659,-51.5748 430.5002,-102.1803 248,-42 244.0161,-40.6863 240.0709,-38.7005 236.398,-36.465"/>
<polygon fill="#191970" stroke="#191970" points="238.1783,-33.4408 227.9621,-30.6338 234.198,-39.1991 238.1783,-33.4408"/>
</g>
<!-- Node20&#45;&gt;Node5 -->
<g id="edge40" class="edge">
<title>Node20&#45;&gt;Node5</title>
<path fill="none" stroke="#191970" d="M1143.9683,-83.958C1133.4151,-81.6016 1122.4211,-79.465 1112,-78 936.2149,-53.2874 483.2725,-95.4595 314,-42 309.7018,-40.6426 305.4141,-38.5773 301.4203,-36.2625"/>
<polygon fill="#191970" stroke="#191970" points="303.0573,-33.1517 292.7684,-30.6242 299.2354,-39.0163 303.0573,-33.1517"/>
</g>
<!-- Node20&#45;&gt;Node9 -->
<g id="edge33" class="edge">
<title>Node20&#45;&gt;Node9</title>
<path fill="none" stroke="#191970" d="M1143.9647,-83.9836C1133.4118,-81.6248 1122.4188,-79.4807 1112,-78 947.2409,-54.5847 518.9489,-102.7015 364,-42 361.0345,-40.8383 358.1665,-39.1749 355.496,-37.286"/>
<polygon fill="#191970" stroke="#191970" points="357.6773,-34.5476 347.7597,-30.8204 353.1883,-39.9188 357.6773,-34.5476"/>
</g>
<!-- Node20&#45;&gt;Node11 -->
<g id="edge38" class="edge">
<title>Node20&#45;&gt;Node11</title>
<path fill="none" stroke="#191970" d="M1143.4816,-83.949C1133.0746,-81.6246 1122.2571,-79.5015 1112,-78 831.4274,-36.9277 752.298,-101.2764 475,-42 466.615,-40.2076 457.8193,-37.3348 449.7824,-34.2822"/>
<polygon fill="#191970" stroke="#191970" points="451.0184,-31.0069 440.4343,-30.5301 448.4109,-37.5032 451.0184,-31.0069"/>
</g>
<!-- Node20&#45;&gt;Node12 -->
<g id="edge41" class="edge">
<title>Node20&#45;&gt;Node12</title>
<path fill="none" stroke="#191970" d="M1142.9899,-83.9663C1132.7304,-81.6702 1122.0907,-79.5523 1112,-78 889.1641,-43.7195 827.3248,-84.969 606,-42 601.558,-41.1376 596.9961,-40.0658 592.4488,-38.8661"/>
<polygon fill="#191970" stroke="#191970" points="593.1448,-35.4256 582.5694,-36.0672 591.2367,-42.1605 593.1448,-35.4256"/>
</g>
<!-- Node20&#45;&gt;Node13 -->
<g id="edge45" class="edge">
<title>Node20&#45;&gt;Node13</title>
<path fill="none" stroke="#191970" d="M1142.0078,-83.9669C1132.0461,-81.7278 1121.7603,-79.6289 1112,-78 948.1602,-50.657 902.7912,-75.0171 740,-42 735.5797,-41.1035 731.0376,-40.0274 726.5012,-38.8425"/>
<polygon fill="#191970" stroke="#191970" points="727.2007,-35.4044 716.6288,-36.1019 725.3282,-42.1493 727.2007,-35.4044"/>
</g>
<!-- Node20&#45;&gt;Node15 -->
<g id="edge39" class="edge">
<title>Node20&#45;&gt;Node15</title>
<path fill="none" stroke="#191970" d="M1140.5292,-83.9504C1131.0213,-81.7923 1121.2652,-79.7233 1112,-78 993.8454,-56.024 960.1825,-72.7421 844,-42 836.6232,-40.0481 828.8893,-37.323 821.7084,-34.4812"/>
<polygon fill="#191970" stroke="#191970" points="822.9223,-31.1956 812.3445,-30.5951 820.2391,-37.6609 822.9223,-31.1956"/>
</g>
<!-- Node20&#45;&gt;Node17 -->
<g id="edge43" class="edge">
<title>Node20&#45;&gt;Node17</title>
<path fill="none" stroke="#191970" d="M1138.7165,-83.946C1083.1367,-70.2069 1005.3982,-50.7511 975,-42 971.7093,-41.0527 968.3341,-40.0519 964.9351,-39.0218"/>
<polygon fill="#191970" stroke="#191970" points="965.9316,-35.6665 955.3442,-36.0609 963.8668,-42.355 965.9316,-35.6665"/>
</g>
<!-- Node20&#45;&gt;Node18 -->
<g id="edge44" class="edge">
<title>Node20&#45;&gt;Node18</title>
<path fill="none" stroke="#191970" d="M1169.3432,-83.9608C1147.4822,-73.2366 1117.5764,-58.5658 1092.1324,-46.0838"/>
<polygon fill="#191970" stroke="#191970" points="1093.5028,-42.8576 1082.9834,-41.5956 1090.4198,-49.1422 1093.5028,-42.8576"/>
</g>
<!-- Node20&#45;&gt;Node21 -->
<g id="edge31" class="edge">
<title>Node20&#45;&gt;Node21</title>
<path fill="none" stroke="#191970" d="M1278.7622,-93.904C1351.4804,-89.3152 1462.4948,-82.6037 1559,-78 1775.568,-67.6689 2323.9408,-95.6989 2534,-42 2539.9706,-40.4737 2546.0774,-38.0177 2551.7192,-35.3141"/>
<polygon fill="#191970" stroke="#191970" points="2553.4178,-38.3757 2560.669,-30.6509 2550.1833,-32.1678 2553.4178,-38.3757"/>
</g>
<!-- Node22 -->
<g id="node23" class="node">
<title>Node22</title>
<polygon fill="#ffffff" stroke="#bfbfbf" points="1115.5,-11.5 1115.5,-30.5 1164.5,-30.5 1164.5,-11.5 1115.5,-11.5"/>
<text text-anchor="middle" x="1140" y="-18.5" font-family="Helvetica,sans-Serif" font-size="10.00" fill="#000000">iosfwd</text>
</g>
<!-- Node20&#45;&gt;Node22 -->
<g id="edge32" class="edge">
<title>Node20&#45;&gt;Node22</title>
<path fill="none" stroke="#191970" d="M1188.4314,-83.9608C1178.4868,-71.0328 1164.1304,-52.3696 1153.6303,-38.7194"/>
<polygon fill="#191970" stroke="#191970" points="1156.2435,-36.3761 1147.3722,-30.5839 1150.6952,-40.6441 1156.2435,-36.3761"/>
</g>
<!-- Node23 -->
<g id="node24" class="node">
<title>Node23</title>
<polygon fill="#ffffff" stroke="#bfbfbf" points="1183,-11.5 1183,-30.5 1215,-30.5 1215,-11.5 1183,-11.5"/>
<text text-anchor="middle" x="1199" y="-18.5" font-family="Helvetica,sans-Serif" font-size="10.00" fill="#000000">set</text>
</g>
<!-- Node20&#45;&gt;Node23 -->
<g id="edge35" class="edge">
<title>Node20&#45;&gt;Node23</title>
<path fill="none" stroke="#191970" d="M1199.8072,-83.9608C1199.6493,-71.6484 1199.4248,-54.134 1199.2526,-40.7024"/>
<polygon fill="#191970" stroke="#191970" points="1202.7509,-40.5381 1199.1229,-30.5839 1195.7514,-40.6279 1202.7509,-40.5381"/>
</g>
<!-- Node24 -->
<g id="node25" class="node">
<title>Node24</title>
<polygon fill="#ffffff" stroke="#bfbfbf" points="1233.5,-11.5 1233.5,-30.5 1274.5,-30.5 1274.5,-11.5 1233.5,-11.5"/>
<text text-anchor="middle" x="1254" y="-18.5" font-family="Helvetica,sans-Serif" font-size="10.00" fill="#000000">tuple</text>
</g>
<!-- Node20&#45;&gt;Node24 -->
<g id="edge37" class="edge">
<title>Node20&#45;&gt;Node24</title>
<path fill="none" stroke="#191970" d="M1210.4117,-83.9608C1219.2767,-71.1559 1232.0368,-52.7246 1241.4618,-39.1108"/>
<polygon fill="#191970" stroke="#191970" points="1244.5506,-40.7981 1247.365,-30.5839 1238.7952,-36.8136 1244.5506,-40.7981"/>
</g>
<!-- Node25 -->
<g id="node26" class="node">
<title>Node25</title>
<polygon fill="#ffffff" stroke="#bfbfbf" points="1292.5,-6 1292.5,-36 1405.5,-36 1405.5,-6 1292.5,-6"/>
<text text-anchor="start" x="1300.5" y="-24" font-family="Helvetica,sans-Serif" font-size="10.00" fill="#000000">tensorflow/compiler</text>
<text text-anchor="middle" x="1349" y="-13" font-family="Helvetica,sans-Serif" font-size="10.00" fill="#000000">/xla/literal_util.h</text>
</g>
<!-- Node20&#45;&gt;Node25 -->
<g id="edge42" class="edge">
<title>Node20&#45;&gt;Node25</title>
<path fill="none" stroke="#191970" d="M1228.7287,-83.9608C1252.1521,-71.6989 1285.4313,-54.2776 1311.0473,-40.8678"/>
<polygon fill="#191970" stroke="#191970" points="1312.8695,-43.8646 1320.1057,-36.1259 1309.6229,-37.663 1312.8695,-43.8646"/>
</g>
<!-- Node20&#45;&gt;Node28 -->
<g id="edge46" class="edge">
<title>Node20&#45;&gt;Node28</title>
<path fill="none" stroke="#191970" d="M1278.6107,-90.7646C1317.2696,-86.781 1364.5648,-82.0063 1407,-78 1589.9951,-60.7236 1637.5979,-71.6475 1819,-42 1825.5938,-40.9223 1832.4271,-39.6142 1839.2334,-38.1835"/>
<polygon fill="#191970" stroke="#191970" points="1840.1345,-41.5692 1849.155,-36.0121 1838.6379,-34.731 1840.1345,-41.5692"/>
</g>
<!-- Node20&#45;&gt;Node29 -->
<g id="edge47" class="edge">
<title>Node20&#45;&gt;Node29</title>
<path fill="none" stroke="#191970" d="M1278.7592,-93.8385C1351.4752,-89.2048 1462.4882,-82.4641 1559,-78 1793.9959,-67.1304 2385.1852,-82.0392 2617,-42 2621.784,-41.1737 2626.7007,-40.0857 2631.5892,-38.8391"/>
<polygon fill="#191970" stroke="#191970" points="2632.8264,-42.1284 2641.5323,-36.0905 2630.9613,-35.3814 2632.8264,-42.1284"/>
</g>
<!-- Node20&#45;&gt;Node30 -->
<g id="edge48" class="edge">
<title>Node20&#45;&gt;Node30</title>
<path fill="none" stroke="#191970" d="M1278.5833,-91.8663C1326.6271,-87.6039 1389.3414,-82.2165 1445,-78 1687.9409,-59.5957 1752.6052,-87.2677 1992,-42 1996.63,-41.1245 2001.3891,-40.025 2006.1291,-38.7905"/>
<polygon fill="#191970" stroke="#191970" points="2007.0938,-42.1551 2015.7848,-36.0956 2005.212,-35.4128 2007.0938,-42.1551"/>
</g>
<!-- Node20&#45;&gt;Node31 -->
<g id="edge49" class="edge">
<title>Node20&#45;&gt;Node31</title>
<path fill="none" stroke="#191970" d="M1260.6973,-83.8921C1303.6913,-72.9329 1362.6203,-57.3901 1414,-42 1417.0924,-41.0737 1420.262,-40.0988 1423.4549,-39.0971"/>
<polygon fill="#191970" stroke="#191970" points="1424.5886,-42.4092 1433.0498,-36.0328 1422.459,-35.741 1424.5886,-42.4092"/>
</g>
<!-- Node20&#45;&gt;Node33 -->
<g id="edge50" class="edge">
<title>Node20&#45;&gt;Node33</title>
<path fill="none" stroke="#191970" d="M1278.6574,-92.7843C1335.429,-88.3906 1413.9266,-82.5051 1483,-78 1767.2901,-59.458 1843.1776,-95.5168 2123,-42 2127.3862,-41.1611 2131.8874,-40.0953 2136.3684,-38.8905"/>
<polygon fill="#191970" stroke="#191970" points="2137.4669,-42.2162 2146.0932,-36.0649 2135.5138,-35.4941 2137.4669,-42.2162"/>
</g>
<!-- Node20&#45;&gt;Node34 -->
<g id="edge51" class="edge">
<title>Node20&#45;&gt;Node34</title>
<path fill="none" stroke="#191970" d="M1278.7091,-86.426C1370.8861,-71.5965 1514.2072,-48.1768 1539,-42 1542.6253,-41.0968 1546.3424,-40.0857 1550.0698,-39.0086"/>
<polygon fill="#191970" stroke="#191970" points="1551.3476,-42.2788 1559.9048,-36.0318 1549.3197,-35.5789 1551.3476,-42.2788"/>
</g>
<!-- Node20&#45;&gt;Node36 -->
<g id="edge52" class="edge">
<title>Node20&#45;&gt;Node36</title>
<path fill="none" stroke="#191970" d="M1278.8,-93.4954C1343.768,-89.0411 1438.3413,-82.7501 1521,-78 1843.9742,-59.44 1929.6484,-99.5244 2248,-42 2252.7072,-41.1494 2257.5452,-40.0561 2262.3597,-38.816"/>
<polygon fill="#191970" stroke="#191970" points="2263.4604,-42.1429 2272.1596,-36.0952 2261.5877,-35.398 2263.4604,-42.1429"/>
</g>
<!-- Node20&#45;&gt;Node37 -->
<g id="edge53" class="edge">
<title>Node20&#45;&gt;Node37</title>
<path fill="none" stroke="#191970" d="M1278.812,-94.2585C1357.9511,-89.6196 1483.3931,-82.5996 1592,-78 1848.7832,-67.1249 2493.7609,-79.6611 2748,-42 2754.1906,-41.083 2760.5931,-39.8475 2766.9455,-38.4326"/>
<polygon fill="#191970" stroke="#191970" points="2767.9279,-41.7967 2776.8489,-36.0812 2766.3108,-34.986 2767.9279,-41.7967"/>
</g>
<!-- Node20&#45;&gt;Node38 -->
<g id="edge54" class="edge">
<title>Node20&#45;&gt;Node38</title>
<path fill="none" stroke="#191970" d="M1278.7908,-93.3297C1343.7534,-88.7786 1438.3239,-82.4382 1521,-78 1902.1201,-57.5407 2001.7586,-99.9656 2379,-42 2385.0946,-41.0635 2391.3966,-39.8293 2397.6549,-38.4271"/>
<polygon fill="#191970" stroke="#191970" points="2398.4993,-41.824 2407.4175,-36.1042 2396.8789,-35.0141 2398.4993,-41.824"/>
</g>
<!-- Node20&#45;&gt;Node39 -->
<g id="edge55" class="edge">
<title>Node20&#45;&gt;Node39</title>
<path fill="none" stroke="#191970" d="M1278.6694,-89.1882C1307.1272,-85.6484 1339.509,-81.6317 1369,-78 1500.0935,-61.8562 1534.3487,-67.2323 1664,-42 1669.3342,-40.9619 1674.8406,-39.7569 1680.345,-38.4593"/>
<polygon fill="#191970" stroke="#191970" points="1681.3342,-41.8205 1690.213,-36.0398 1679.6672,-35.0219 1681.3342,-41.8205"/>
</g>
<!-- Node45&#45;&gt;Node29 -->
<g id="edge72" class="edge">
<title>Node45&#45;&gt;Node29</title>
<path fill="none" stroke="#191970" d="M2451.8908,-81.5773C2456.6624,-80.3544 2461.4033,-79.1511 2466,-78 2532.9255,-61.2404 2550.5268,-60.472 2617,-42 2620.5082,-41.0251 2624.1099,-39.987 2627.7339,-38.9144"/>
<polygon fill="#191970" stroke="#191970" points="2628.7705,-42.2575 2637.33,-36.0137 2626.745,-35.5569 2628.7705,-42.2575"/>
</g>
<!-- Node45&#45;&gt;Node30 -->
<g id="edge73" class="edge">
<title>Node45&#45;&gt;Node30</title>
<path fill="none" stroke="#191970" d="M2320.4483,-86.6688C2266.9762,-76.1614 2189.6556,-59.9433 2123,-42 2119.4715,-41.0502 2115.8508,-40.0247 2112.2112,-38.9557"/>
<polygon fill="#191970" stroke="#191970" points="2113.1678,-35.5886 2102.5829,-36.046 2111.1428,-42.2893 2113.1678,-35.5886"/>
</g>
</g>
</svg>
