<?xml version="1.0" encoding="UTF-8" standalone="no"?>
<!DOCTYPE svg PUBLIC "-//W3C//DTD SVG 1.1//EN"
 "http://www.w3.org/Graphics/SVG/1.1/DTD/svg11.dtd">
<!-- Generated by graphviz version 2.40.1 (20161225.0304)
 -->
<!-- Title: tensorflow/tensorflow/compiler/xla/service/hlo_pass_pipeline.cc Pages: 1 -->
<svg width="1833pt" height="206pt"
 viewBox="0.00 0.00 1833.00 206.00" xmlns="http://www.w3.org/2000/svg" xmlns:xlink="http://www.w3.org/1999/xlink">
<g id="graph0" class="graph" transform="scale(1 1) rotate(0) translate(4 202)">
<title>tensorflow/tensorflow/compiler/xla/service/hlo_pass_pipeline.cc</title>
<polygon fill="#ffffff" stroke="transparent" points="-4,4 -4,-202 1829,-202 1829,4 -4,4"/>
<!-- Node0 -->
<g id="node1" class="node">
<title>Node0</title>
<polygon fill="#bfbfbf" stroke="#000000" points="1114,-156.5 1114,-197.5 1224,-197.5 1224,-156.5 1114,-156.5"/>
<text text-anchor="start" x="1122" y="-185.5" font-family="Helvetica,sans-Serif" font-size="10.00" fill="#000000">tensorflow/tensorflow</text>
<text text-anchor="start" x="1122" y="-174.5" font-family="Helvetica,sans-Serif" font-size="10.00" fill="#000000">/compiler/xla/service</text>
<text text-anchor="middle" x="1169" y="-163.5" font-family="Helvetica,sans-Serif" font-size="10.00" fill="#000000">/hlo_pass_pipeline.cc</text>
</g>
<!-- Node1 -->
<g id="node2" class="node">
<title>Node1</title>
<g id="a_node2"><a xlink:href="../../df/d0a/hlo__pass__pipeline_8h.html" target="_top" xlink:title="tensorflow/compiler\l/xla/service/hlo_pass\l_pipeline.h">
<polygon fill="#ffffff" stroke="#000000" points="395.5,-78.5 395.5,-119.5 504.5,-119.5 504.5,-78.5 395.5,-78.5"/>
<text text-anchor="start" x="403.5" y="-107.5" font-family="Helvetica,sans-Serif" font-size="10.00" fill="#000000">tensorflow/compiler</text>
<text text-anchor="start" x="403.5" y="-96.5" font-family="Helvetica,sans-Serif" font-size="10.00" fill="#000000">/xla/service/hlo_pass</text>
<text text-anchor="middle" x="450" y="-85.5" font-family="Helvetica,sans-Serif" font-size="10.00" fill="#000000">_pipeline.h</text>
</a>
</g>
</g>
<!-- Node0&#45;&gt;Node1 -->
<g id="edge1" class="edge">
<title>Node0&#45;&gt;Node1</title>
<path fill="none" stroke="#191970" d="M1113.7751,-171.009C983.0469,-156.8271 655.1401,-121.2544 515.0763,-106.0597"/>
<polygon fill="#191970" stroke="#191970" points="515.2392,-102.557 504.92,-104.9579 514.4841,-109.5161 515.2392,-102.557"/>
</g>
<!-- Node10 -->
<g id="node11" class="node">
<title>Node10</title>
<polygon fill="#ffffff" stroke="#bfbfbf" points="919.5,-6 919.5,-36 1020.5,-36 1020.5,-6 919.5,-6"/>
<text text-anchor="start" x="927.5" y="-24" font-family="Helvetica,sans-Serif" font-size="10.00" fill="#000000">tensorflow/compiler</text>
<text text-anchor="middle" x="970" y="-13" font-family="Helvetica,sans-Serif" font-size="10.00" fill="#000000">/xla/types.h</text>
</g>
<!-- Node0&#45;&gt;Node10 -->
<g id="edge16" class="edge">
<title>Node0&#45;&gt;Node10</title>
<path fill="none" stroke="#191970" d="M1113.7739,-173.0596C1009.7459,-165.0734 793.1482,-145.5461 771,-120 758.772,-105.896 759.5745,-92.7615 771,-78 810.0604,-27.5344 848.9415,-60.5569 910,-42 912.9154,-41.114 915.8998,-40.1748 918.9045,-39.2042"/>
<polygon fill="#191970" stroke="#191970" points="920.1166,-42.4898 928.5099,-36.0243 917.9166,-35.8445 920.1166,-42.4898"/>
</g>
<!-- Node12 -->
<g id="node13" class="node">
<title>Node12</title>
<polygon fill="#ffffff" stroke="#bfbfbf" points="779.5,-89.5 779.5,-108.5 838.5,-108.5 838.5,-89.5 779.5,-89.5"/>
<text text-anchor="middle" x="809" y="-96.5" font-family="Helvetica,sans-Serif" font-size="10.00" fill="#000000">functional</text>
</g>
<!-- Node0&#45;&gt;Node12 -->
<g id="edge12" class="edge">
<title>Node0&#45;&gt;Node12</title>
<path fill="none" stroke="#191970" d="M1113.9914,-172.5879C1048.9707,-166.1626 938.2095,-151.3876 848,-120 842.9545,-118.2445 837.7755,-115.8953 832.9069,-113.404"/>
<polygon fill="#191970" stroke="#191970" points="834.497,-110.2844 824.044,-108.5566 831.138,-116.4259 834.497,-110.2844"/>
</g>
<!-- Node13 -->
<g id="node14" class="node">
<title>Node13</title>
<polygon fill="#ffffff" stroke="#bfbfbf" points="857,-78.5 857,-119.5 969,-119.5 969,-78.5 857,-78.5"/>
<text text-anchor="start" x="865" y="-107.5" font-family="Helvetica,sans-Serif" font-size="10.00" fill="#000000">tensorflow/compiler</text>
<text text-anchor="start" x="865" y="-96.5" font-family="Helvetica,sans-Serif" font-size="10.00" fill="#000000">/xla/service/hlo_graph</text>
<text text-anchor="middle" x="913" y="-85.5" font-family="Helvetica,sans-Serif" font-size="10.00" fill="#000000">_dumper.h</text>
</g>
<!-- Node0&#45;&gt;Node13 -->
<g id="edge13" class="edge">
<title>Node0&#45;&gt;Node13</title>
<path fill="none" stroke="#191970" d="M1113.7362,-160.8646C1077.8561,-150.3066 1029.8432,-136.0259 979.1731,-120.3393"/>
<polygon fill="#191970" stroke="#191970" points="979.9337,-116.9108 969.3456,-117.2895 977.8589,-123.5962 979.9337,-116.9108"/>
</g>
<!-- Node14 -->
<g id="node15" class="node">
<title>Node14</title>
<polygon fill="#ffffff" stroke="#bfbfbf" points="987,-78.5 987,-119.5 1097,-119.5 1097,-78.5 987,-78.5"/>
<text text-anchor="start" x="995" y="-107.5" font-family="Helvetica,sans-Serif" font-size="10.00" fill="#000000">tensorflow/compiler</text>
<text text-anchor="start" x="995" y="-96.5" font-family="Helvetica,sans-Serif" font-size="10.00" fill="#000000">/xla/service/hlo_proto</text>
<text text-anchor="middle" x="1042" y="-85.5" font-family="Helvetica,sans-Serif" font-size="10.00" fill="#000000">_util.h</text>
</g>
<!-- Node0&#45;&gt;Node14 -->
<g id="edge14" class="edge">
<title>Node0&#45;&gt;Node14</title>
<path fill="none" stroke="#191970" d="M1135.2998,-156.3022C1119.675,-146.7059 1100.9371,-135.1976 1084.3665,-125.0204"/>
<polygon fill="#191970" stroke="#191970" points="1085.77,-121.775 1075.417,-119.5239 1082.1065,-127.7398 1085.77,-121.775"/>
</g>
<!-- Node15 -->
<g id="node16" class="node">
<title>Node15</title>
<polygon fill="#ffffff" stroke="#bfbfbf" points="1115,-84 1115,-114 1223,-114 1223,-84 1115,-84"/>
<text text-anchor="start" x="1123" y="-102" font-family="Helvetica,sans-Serif" font-size="10.00" fill="#000000">tensorflow/compiler</text>
<text text-anchor="middle" x="1169" y="-91" font-family="Helvetica,sans-Serif" font-size="10.00" fill="#000000">/xla/status_macros.h</text>
</g>
<!-- Node0&#45;&gt;Node15 -->
<g id="edge15" class="edge">
<title>Node0&#45;&gt;Node15</title>
<path fill="none" stroke="#191970" d="M1169,-156.0974C1169,-146.3178 1169,-134.5873 1169,-124.3097"/>
<polygon fill="#191970" stroke="#191970" points="1172.5001,-124.2678 1169,-114.2679 1165.5001,-124.2679 1172.5001,-124.2678"/>
</g>
<!-- Node16 -->
<g id="node17" class="node">
<title>Node16</title>
<polygon fill="#ffffff" stroke="#bfbfbf" points="1241.5,-84 1241.5,-114 1342.5,-114 1342.5,-84 1241.5,-84"/>
<text text-anchor="start" x="1249.5" y="-102" font-family="Helvetica,sans-Serif" font-size="10.00" fill="#000000">tensorflow/compiler</text>
<text text-anchor="middle" x="1292" y="-91" font-family="Helvetica,sans-Serif" font-size="10.00" fill="#000000">/xla/util.h</text>
</g>
<!-- Node0&#45;&gt;Node16 -->
<g id="edge17" class="edge">
<title>Node0&#45;&gt;Node16</title>
<path fill="none" stroke="#191970" d="M1201.6388,-156.3022C1219.457,-145.0028 1241.4554,-131.0527 1259.2855,-119.7458"/>
<polygon fill="#191970" stroke="#191970" points="1261.6146,-122.4133 1268.1853,-114.102 1257.8658,-116.5017 1261.6146,-122.4133"/>
</g>
<!-- Node17 -->
<g id="node18" class="node">
<title>Node17</title>
<polygon fill="#ffffff" stroke="#bfbfbf" points="1361,-84 1361,-114 1457,-114 1457,-84 1361,-84"/>
<text text-anchor="start" x="1369" y="-102" font-family="Helvetica,sans-Serif" font-size="10.00" fill="#000000">tensorflow/core/lib</text>
<text text-anchor="middle" x="1409" y="-91" font-family="Helvetica,sans-Serif" font-size="10.00" fill="#000000">/gtl/flatset.h</text>
</g>
<!-- Node0&#45;&gt;Node17 -->
<g id="edge18" class="edge">
<title>Node0&#45;&gt;Node17</title>
<path fill="none" stroke="#191970" d="M1224.0896,-160.6419C1260.5399,-149.622 1309.3067,-134.503 1352,-120 1354.4028,-119.1838 1356.8575,-118.3354 1359.3331,-117.4683"/>
<polygon fill="#191970" stroke="#191970" points="1360.671,-120.7073 1368.9196,-114.0582 1358.3249,-114.1121 1360.671,-120.7073"/>
</g>
<!-- Node18 -->
<g id="node19" class="node">
<title>Node18</title>
<polygon fill="#ffffff" stroke="#bfbfbf" points="1475,-84 1475,-114 1571,-114 1571,-84 1475,-84"/>
<text text-anchor="start" x="1483" y="-102" font-family="Helvetica,sans-Serif" font-size="10.00" fill="#000000">tensorflow/core/lib</text>
<text text-anchor="middle" x="1523" y="-91" font-family="Helvetica,sans-Serif" font-size="10.00" fill="#000000">/strings/str_util.h</text>
</g>
<!-- Node0&#45;&gt;Node18 -->
<g id="edge19" class="edge">
<title>Node0&#45;&gt;Node18</title>
<path fill="none" stroke="#191970" d="M1224.0872,-169.1888C1284.1858,-160.0296 1382.9173,-143.1103 1466,-120 1468.9528,-119.1786 1471.9699,-118.2731 1474.9984,-117.3131"/>
<polygon fill="#191970" stroke="#191970" points="1476.2655,-120.5802 1484.646,-114.098 1474.0524,-113.9392 1476.2655,-120.5802"/>
</g>
<!-- Node19 -->
<g id="node20" class="node">
<title>Node19</title>
<polygon fill="#ffffff" stroke="#bfbfbf" points="1589,-84 1589,-114 1685,-114 1685,-84 1589,-84"/>
<text text-anchor="start" x="1597" y="-102" font-family="Helvetica,sans-Serif" font-size="10.00" fill="#000000">tensorflow/core/lib</text>
<text text-anchor="middle" x="1637" y="-91" font-family="Helvetica,sans-Serif" font-size="10.00" fill="#000000">/strings/strcat.h</text>
</g>
<!-- Node0&#45;&gt;Node19 -->
<g id="edge20" class="edge">
<title>Node0&#45;&gt;Node19</title>
<path fill="none" stroke="#191970" d="M1224.2323,-173.1342C1303.8139,-166.7126 1454.9167,-151.3266 1580,-120 1583.3232,-119.1677 1586.7208,-118.2085 1590.1204,-117.168"/>
<polygon fill="#191970" stroke="#191970" points="1591.2264,-120.4888 1599.6466,-114.0583 1589.0541,-113.8344 1591.2264,-120.4888"/>
</g>
<!-- Node20 -->
<g id="node21" class="node">
<title>Node20</title>
<polygon fill="#ffffff" stroke="#bfbfbf" points="1703,-84 1703,-114 1825,-114 1825,-84 1703,-84"/>
<text text-anchor="start" x="1711" y="-102" font-family="Helvetica,sans-Serif" font-size="10.00" fill="#000000">tensorflow/core/platform</text>
<text text-anchor="middle" x="1764" y="-91" font-family="Helvetica,sans-Serif" font-size="10.00" fill="#000000">/logging.h</text>
</g>
<!-- Node0&#45;&gt;Node20 -->
<g id="edge21" class="edge">
<title>Node0&#45;&gt;Node20</title>
<path fill="none" stroke="#191970" d="M1224.306,-174.334C1320.5763,-168.9533 1524.8432,-154.255 1694,-120 1698.6516,-119.058 1703.4384,-117.943 1708.2216,-116.7255"/>
<polygon fill="#191970" stroke="#191970" points="1709.2382,-120.0766 1717.99,-114.1054 1707.4247,-113.3156 1709.2382,-120.0766"/>
</g>
<!-- Node2 -->
<g id="node3" class="node">
<title>Node2</title>
<polygon fill="#ffffff" stroke="#bfbfbf" points="0,-11.5 0,-30.5 56,-30.5 56,-11.5 0,-11.5"/>
<text text-anchor="middle" x="28" y="-18.5" font-family="Helvetica,sans-Serif" font-size="10.00" fill="#000000">algorithm</text>
</g>
<!-- Node1&#45;&gt;Node2 -->
<g id="edge2" class="edge">
<title>Node1&#45;&gt;Node2</title>
<path fill="none" stroke="#191970" d="M395.2659,-97.2061C319.2364,-93.3143 178.241,-80.9914 65,-42 60.2729,-40.3724 55.4589,-38.1373 50.9343,-35.7299"/>
<polygon fill="#191970" stroke="#191970" points="52.5869,-32.6427 42.1744,-30.6855 49.0937,-38.7088 52.5869,-32.6427"/>
</g>
<!-- Node3 -->
<g id="node4" class="node">
<title>Node3</title>
<polygon fill="#ffffff" stroke="#bfbfbf" points="74,-11.5 74,-30.5 126,-30.5 126,-11.5 74,-11.5"/>
<text text-anchor="middle" x="100" y="-18.5" font-family="Helvetica,sans-Serif" font-size="10.00" fill="#000000">memory</text>
</g>
<!-- Node1&#45;&gt;Node3 -->
<g id="edge3" class="edge">
<title>Node1&#45;&gt;Node3</title>
<path fill="none" stroke="#191970" d="M395.4761,-95.128C331.3858,-89.2281 222.6513,-74.9639 135,-42 130.6286,-40.356 126.1883,-38.1667 122.0043,-35.8217"/>
<polygon fill="#191970" stroke="#191970" points="123.7457,-32.7845 113.3803,-30.591 120.1154,-38.7696 123.7457,-32.7845"/>
</g>
<!-- Node4 -->
<g id="node5" class="node">
<title>Node4</title>
<polygon fill="#ffffff" stroke="#bfbfbf" points="144.5,-11.5 144.5,-30.5 185.5,-30.5 185.5,-11.5 144.5,-11.5"/>
<text text-anchor="middle" x="165" y="-18.5" font-family="Helvetica,sans-Serif" font-size="10.00" fill="#000000">string</text>
</g>
<!-- Node1&#45;&gt;Node4 -->
<g id="edge4" class="edge">
<title>Node1&#45;&gt;Node4</title>
<path fill="none" stroke="#191970" d="M395.3352,-93.05C342.3451,-85.8538 260.5809,-70.9193 195,-42 191.477,-40.4465 187.9419,-38.4527 184.5976,-36.3139"/>
<polygon fill="#191970" stroke="#191970" points="186.5272,-33.3922 176.33,-30.5166 182.5082,-39.1236 186.5272,-33.3922"/>
</g>
<!-- Node5 -->
<g id="node6" class="node">
<title>Node5</title>
<polygon fill="#ffffff" stroke="#bfbfbf" points="204,-11.5 204,-30.5 248,-30.5 248,-11.5 204,-11.5"/>
<text text-anchor="middle" x="226" y="-18.5" font-family="Helvetica,sans-Serif" font-size="10.00" fill="#000000">vector</text>
</g>
<!-- Node1&#45;&gt;Node5 -->
<g id="edge5" class="edge">
<title>Node1&#45;&gt;Node5</title>
<path fill="none" stroke="#191970" d="M395.1165,-87.5645C355.5675,-78.1949 301.5429,-63.0402 257,-42 253.5027,-40.348 249.9565,-38.3295 246.573,-36.2041"/>
<polygon fill="#191970" stroke="#191970" points="248.3875,-33.2061 238.1423,-30.5068 244.468,-39.0059 248.3875,-33.2061"/>
</g>
<!-- Node6 -->
<g id="node7" class="node">
<title>Node6</title>
<polygon fill="#ffffff" stroke="#bfbfbf" points="266.5,-6 266.5,-36 367.5,-36 367.5,-6 266.5,-6"/>
<text text-anchor="start" x="274.5" y="-24" font-family="Helvetica,sans-Serif" font-size="10.00" fill="#000000">tensorflow/compiler</text>
<text text-anchor="middle" x="317" y="-13" font-family="Helvetica,sans-Serif" font-size="10.00" fill="#000000">/xla/ptr_util.h</text>
</g>
<!-- Node1&#45;&gt;Node6 -->
<g id="edge6" class="edge">
<title>Node1&#45;&gt;Node6</title>
<path fill="none" stroke="#191970" d="M414.7076,-78.3022C395.1756,-66.8474 370.9984,-52.6682 351.5809,-41.2805"/>
<polygon fill="#191970" stroke="#191970" points="353.1475,-38.1418 342.7509,-36.102 349.6063,-44.18 353.1475,-38.1418"/>
</g>
<!-- Node7 -->
<g id="node8" class="node">
<title>Node7</title>
<polygon fill="#ffffff" stroke="#bfbfbf" points="386,-6 386,-36 514,-36 514,-6 386,-6"/>
<text text-anchor="start" x="394" y="-24" font-family="Helvetica,sans-Serif" font-size="10.00" fill="#000000">tensorflow/compiler</text>
<text text-anchor="middle" x="450" y="-13" font-family="Helvetica,sans-Serif" font-size="10.00" fill="#000000">/xla/service/hlo_module.h</text>
</g>
<!-- Node1&#45;&gt;Node7 -->
<g id="edge7" class="edge">
<title>Node1&#45;&gt;Node7</title>
<path fill="none" stroke="#191970" d="M450,-78.0974C450,-68.3178 450,-56.5873 450,-46.3097"/>
<polygon fill="#191970" stroke="#191970" points="453.5001,-46.2678 450,-36.2679 446.5001,-46.2679 453.5001,-46.2678"/>
</g>
<!-- Node8 -->
<g id="node9" class="node">
<title>Node8</title>
<polygon fill="#ffffff" stroke="#bfbfbf" points="532.5,-.5 532.5,-41.5 641.5,-41.5 641.5,-.5 532.5,-.5"/>
<text text-anchor="start" x="540.5" y="-29.5" font-family="Helvetica,sans-Serif" font-size="10.00" fill="#000000">tensorflow/compiler</text>
<text text-anchor="start" x="540.5" y="-18.5" font-family="Helvetica,sans-Serif" font-size="10.00" fill="#000000">/xla/service/hlo_pass</text>
<text text-anchor="middle" x="587" y="-7.5" font-family="Helvetica,sans-Serif" font-size="10.00" fill="#000000">_interface.h</text>
</g>
<!-- Node1&#45;&gt;Node8 -->
<g id="edge8" class="edge">
<title>Node1&#45;&gt;Node8</title>
<path fill="none" stroke="#191970" d="M486.3538,-78.3022C503.3649,-68.617 523.7968,-56.9843 541.7935,-46.738"/>
<polygon fill="#191970" stroke="#191970" points="543.9932,-49.5132 550.9517,-41.5239 540.5297,-43.43 543.9932,-49.5132"/>
</g>
<!-- Node9 -->
<g id="node10" class="node">
<title>Node9</title>
<polygon fill="#ffffff" stroke="#bfbfbf" points="659.5,-6 659.5,-36 760.5,-36 760.5,-6 659.5,-6"/>
<text text-anchor="start" x="667.5" y="-24" font-family="Helvetica,sans-Serif" font-size="10.00" fill="#000000">tensorflow/compiler</text>
<text text-anchor="middle" x="710" y="-13" font-family="Helvetica,sans-Serif" font-size="10.00" fill="#000000">/xla/statusor.h</text>
</g>
<!-- Node1&#45;&gt;Node9 -->
<g id="edge9" class="edge">
<title>Node1&#45;&gt;Node9</title>
<path fill="none" stroke="#191970" d="M504.5863,-84.3789C544.9401,-73.3434 601.1306,-57.5011 650,-42 652.7614,-41.1241 655.5874,-40.207 658.4357,-39.2664"/>
<polygon fill="#191970" stroke="#191970" points="659.7801,-42.507 668.144,-36.0035 657.55,-35.8717 659.7801,-42.507"/>
</g>
<!-- Node1&#45;&gt;Node10 -->
<g id="edge10" class="edge">
<title>Node1&#45;&gt;Node10</title>
<path fill="none" stroke="#191970" d="M504.8347,-95.9968C591.7421,-90.3926 766.0261,-75.7075 910,-42 913.6535,-41.1446 917.3949,-40.146 921.1365,-39.0574"/>
<polygon fill="#191970" stroke="#191970" points="922.4675,-42.309 930.9803,-36.0017 920.3923,-35.6237 922.4675,-42.309"/>
</g>
<!-- Node11 -->
<g id="node12" class="node">
<title>Node11</title>
<polygon fill="#ffffff" stroke="#bfbfbf" points="779,-6 779,-36 901,-36 901,-6 779,-6"/>
<text text-anchor="start" x="787" y="-24" font-family="Helvetica,sans-Serif" font-size="10.00" fill="#000000">tensorflow/core/platform</text>
<text text-anchor="middle" x="840" y="-13" font-family="Helvetica,sans-Serif" font-size="10.00" fill="#000000">/macros.h</text>
</g>
<!-- Node1&#45;&gt;Node11 -->
<g id="edge11" class="edge">
<title>Node1&#45;&gt;Node11</title>
<path fill="none" stroke="#191970" d="M504.7495,-91.2125C568.7851,-81.6519 677.7783,-63.9696 770,-42 774.0962,-41.0242 778.3067,-39.9485 782.5332,-38.8151"/>
<polygon fill="#191970" stroke="#191970" points="783.6759,-42.1304 792.3774,-36.086 781.8057,-35.3848 783.6759,-42.1304"/>
</g>
</g>
</svg>
