<?xml version="1.0" encoding="UTF-8" standalone="no"?>
<!DOCTYPE svg PUBLIC "-//W3C//DTD SVG 1.1//EN"
 "http://www.w3.org/Graphics/SVG/1.1/DTD/svg11.dtd">
<!-- Generated by graphviz version 2.40.1 (20161225.0304)
 -->
<!-- Title: tensorflow/tensorflow/compiler/xla/service/hlo_pass_pipeline.h Pages: 1 -->
<svg width="326pt" height="206pt"
 viewBox="0.00 0.00 325.50 206.00" xmlns="http://www.w3.org/2000/svg" xmlns:xlink="http://www.w3.org/1999/xlink">
<g id="graph0" class="graph" transform="scale(1 1) rotate(0) translate(4 202)">
<title>tensorflow/tensorflow/compiler/xla/service/hlo_pass_pipeline.h</title>
<polygon fill="#ffffff" stroke="transparent" points="-4,4 -4,-202 321.5,-202 321.5,4 -4,4"/>
<!-- Node38 -->
<g id="node1" class="node">
<title>Node38</title>
<polygon fill="#bfbfbf" stroke="#000000" points="43,-156.5 43,-197.5 153,-197.5 153,-156.5 43,-156.5"/>
<text text-anchor="start" x="51" y="-185.5" font-family="Helvetica,sans-Serif" font-size="10.00" fill="#000000">tensorflow/tensorflow</text>
<text text-anchor="start" x="51" y="-174.5" font-family="Helvetica,sans-Serif" font-size="10.00" fill="#000000">/compiler/xla/service</text>
<text text-anchor="middle" x="98" y="-163.5" font-family="Helvetica,sans-Serif" font-size="10.00" fill="#000000">/hlo_pass_pipeline.h</text>
</g>
<!-- Node39 -->
<g id="node2" class="node">
<title>Node39</title>
<g id="a_node2"><a xlink:href="../../d4/dcb/cpu__compiler_8cc.html" target="_top" xlink:title="tensorflow/tensorflow\l/compiler/xla/service\l/cpu/cpu_compiler.cc">
<polygon fill="#ffffff" stroke="#000000" points="0,-.5 0,-41.5 110,-41.5 110,-.5 0,-.5"/>
<text text-anchor="start" x="8" y="-29.5" font-family="Helvetica,sans-Serif" font-size="10.00" fill="#000000">tensorflow/tensorflow</text>
<text text-anchor="start" x="8" y="-18.5" font-family="Helvetica,sans-Serif" font-size="10.00" fill="#000000">/compiler/xla/service</text>
<text text-anchor="middle" x="55" y="-7.5" font-family="Helvetica,sans-Serif" font-size="10.00" fill="#000000">/cpu/cpu_compiler.cc</text>
</a>
</g>
</g>
<!-- Node38&#45;&gt;Node39 -->
<g id="edge1" class="edge">
<title>Node38&#45;&gt;Node39</title>
<path fill="none" stroke="#191970" d="M56.9411,-149.7058C47.6797,-141.3637 39.0898,-131.3488 34,-120 22.4962,-94.3496 33.5753,-62.0904 43.5023,-41.503"/>
<polygon fill="#191970" stroke="#191970" points="54.9059,-152.5669 64.8166,-156.3123 59.4046,-147.2039 54.9059,-152.5669"/>
</g>
<!-- Node40 -->
<g id="node3" class="node">
<title>Node40</title>
<g id="a_node3"><a xlink:href="../../d7/d62/hlo__pass__pipeline_8cc.html" target="_top" xlink:title="tensorflow/tensorflow\l/compiler/xla/service\l/hlo_pass_pipeline.cc">
<polygon fill="#ffffff" stroke="#000000" points="43,-78.5 43,-119.5 153,-119.5 153,-78.5 43,-78.5"/>
<text text-anchor="start" x="51" y="-107.5" font-family="Helvetica,sans-Serif" font-size="10.00" fill="#000000">tensorflow/tensorflow</text>
<text text-anchor="start" x="51" y="-96.5" font-family="Helvetica,sans-Serif" font-size="10.00" fill="#000000">/compiler/xla/service</text>
<text text-anchor="middle" x="98" y="-85.5" font-family="Helvetica,sans-Serif" font-size="10.00" fill="#000000">/hlo_pass_pipeline.cc</text>
</a>
</g>
</g>
<!-- Node38&#45;&gt;Node40 -->
<g id="edge2" class="edge">
<title>Node38&#45;&gt;Node40</title>
<path fill="none" stroke="#191970" d="M98,-146.0789C98,-137.2178 98,-127.7747 98,-119.6898"/>
<polygon fill="#191970" stroke="#191970" points="94.5001,-146.0974 98,-156.0974 101.5001,-146.0975 94.5001,-146.0974"/>
</g>
<!-- Node41 -->
<g id="node4" class="node">
<title>Node41</title>
<g id="a_node4"><a xlink:href="../../d2/d33/reduce__precision__insertion_8h.html" target="_top" xlink:title="tensorflow/tensorflow\l/compiler/xla/service\l/reduce_precision_insertion.h">
<polygon fill="#ffffff" stroke="#000000" points="171.5,-78.5 171.5,-119.5 314.5,-119.5 314.5,-78.5 171.5,-78.5"/>
<text text-anchor="start" x="179.5" y="-107.5" font-family="Helvetica,sans-Serif" font-size="10.00" fill="#000000">tensorflow/tensorflow</text>
<text text-anchor="start" x="179.5" y="-96.5" font-family="Helvetica,sans-Serif" font-size="10.00" fill="#000000">/compiler/xla/service</text>
<text text-anchor="middle" x="243" y="-85.5" font-family="Helvetica,sans-Serif" font-size="10.00" fill="#000000">/reduce_precision_insertion.h</text>
</a>
</g>
</g>
<!-- Node38&#45;&gt;Node41 -->
<g id="edge3" class="edge">
<title>Node38&#45;&gt;Node41</title>
<path fill="none" stroke="#191970" d="M145.4029,-151.5005C164.6717,-141.1352 186.6386,-129.3185 204.8467,-119.5239"/>
<polygon fill="#191970" stroke="#191970" points="143.6252,-148.4825 136.4767,-156.3022 146.9414,-154.6471 143.6252,-148.4825"/>
</g>
<!-- Node41&#45;&gt;Node39 -->
<g id="edge4" class="edge">
<title>Node41&#45;&gt;Node39</title>
<path fill="none" stroke="#191970" d="M183.5667,-74.3415C158.1068,-63.7784 128.7163,-51.5844 104.4678,-41.5239"/>
<polygon fill="#191970" stroke="#191970" points="182.5352,-77.7028 193.113,-78.3022 185.2177,-71.2372 182.5352,-77.7028"/>
</g>
<!-- Node42 -->
<g id="node5" class="node">
<title>Node42</title>
<g id="a_node5"><a xlink:href="../../de/d3b/reduce__precision__insertion_8cc.html" target="_top" xlink:title="tensorflow/tensorflow\l/compiler/xla/service\l/reduce_precision_insertion.cc">
<polygon fill="#ffffff" stroke="#000000" points="168.5,-.5 168.5,-41.5 317.5,-41.5 317.5,-.5 168.5,-.5"/>
<text text-anchor="start" x="176.5" y="-29.5" font-family="Helvetica,sans-Serif" font-size="10.00" fill="#000000">tensorflow/tensorflow</text>
<text text-anchor="start" x="176.5" y="-18.5" font-family="Helvetica,sans-Serif" font-size="10.00" fill="#000000">/compiler/xla/service</text>
<text text-anchor="middle" x="243" y="-7.5" font-family="Helvetica,sans-Serif" font-size="10.00" fill="#000000">/reduce_precision_insertion.cc</text>
</a>
</g>
</g>
<!-- Node41&#45;&gt;Node42 -->
<g id="edge5" class="edge">
<title>Node41&#45;&gt;Node42</title>
<path fill="none" stroke="#191970" d="M243,-68.0789C243,-59.2178 243,-49.7747 243,-41.6898"/>
<polygon fill="#191970" stroke="#191970" points="239.5001,-68.0974 243,-78.0974 246.5001,-68.0975 239.5001,-68.0974"/>
</g>
</g>
</svg>
