<?xml version="1.0" encoding="UTF-8" standalone="no"?>
<!DOCTYPE svg PUBLIC "-//W3C//DTD SVG 1.1//EN"
 "http://www.w3.org/Graphics/SVG/1.1/DTD/svg11.dtd">
<!-- Generated by graphviz version 2.40.1 (20161225.0304)
 -->
<!-- Title: xla::ServiceOptions Pages: 1 -->
<svg width="185pt" height="117pt"
 viewBox="0.00 0.00 185.00 117.00" xmlns="http://www.w3.org/2000/svg" xmlns:xlink="http://www.w3.org/1999/xlink">
<g id="graph0" class="graph" transform="scale(1 1) rotate(0) translate(4 113)">
<title>xla::ServiceOptions</title>
<polygon fill="#ffffff" stroke="transparent" points="-4,4 -4,-113 181,-113 181,4 -4,4"/>
<!-- Node1 -->
<g id="node1" class="node">
<title>Node1</title>
<polygon fill="#bfbfbf" stroke="#000000" points="12,-.5 12,-19.5 114,-19.5 114,-.5 12,-.5"/>
<text text-anchor="middle" x="63" y="-7.5" font-family="Helvetica,sans-Serif" font-size="10.00" fill="#000000">xla::ServiceOptions</text>
</g>
<!-- Node2 -->
<g id="node2" class="node">
<title>Node2</title>
<polygon fill="#ffffff" stroke="#bfbfbf" points="0,-89.5 0,-108.5 60,-108.5 60,-89.5 0,-89.5"/>
<text text-anchor="middle" x="30" y="-96.5" font-family="Helvetica,sans-Serif" font-size="10.00" fill="#000000">Platform *</text>
</g>
<!-- Node2&#45;&gt;Node1 -->
<g id="edge1" class="edge">
<title>Node2&#45;&gt;Node1</title>
<path fill="none" stroke="#9a32cd" stroke-dasharray="5,2" d="M26.3733,-79.1981C25.0356,-66.7979 25.0643,-50.8009 31,-38 34.4159,-30.6332 40.8045,-24.4275 46.9804,-19.7453"/>
<polygon fill="#9a32cd" stroke="#9a32cd" points="22.9514,-79.9886 27.8558,-89.3799 29.8784,-78.9799 22.9514,-79.9886"/>
<text text-anchor="middle" x="53" y="-52" font-family="Helvetica,sans-Serif" font-size="10.00" fill="#000000"> platform_</text>
</g>
<!-- Node3 -->
<g id="node3" class="node">
<title>Node3</title>
<polygon fill="#ffffff" stroke="#bfbfbf" points="82.5,-89.5 82.5,-108.5 111.5,-108.5 111.5,-89.5 82.5,-89.5"/>
<text text-anchor="middle" x="97" y="-96.5" font-family="Helvetica,sans-Serif" font-size="10.00" fill="#000000">int</text>
</g>
<!-- Node3&#45;&gt;Node1 -->
<g id="edge2" class="edge">
<title>Node3&#45;&gt;Node1</title>
<path fill="none" stroke="#9a32cd" stroke-dasharray="5,2" d="M90.4503,-79.9418C86.2177,-67.8578 80.4927,-51.9331 75,-38 72.556,-31.8005 69.6109,-24.9207 67.2499,-19.5321"/>
<polygon fill="#9a32cd" stroke="#9a32cd" points="87.1565,-81.1265 93.7423,-89.4258 93.7695,-78.831 87.1565,-81.1265"/>
<text text-anchor="start" x="86" y="-63" font-family="Helvetica,sans-Serif" font-size="10.00" fill="#000000"> intra_op_parallelism</text>
<text text-anchor="middle" x="131.5" y="-52" font-family="Helvetica,sans-Serif" font-size="10.00" fill="#000000">_threads_</text>
<text text-anchor="middle" x="131.5" y="-41" font-family="Helvetica,sans-Serif" font-size="10.00" fill="#000000">number_of_replicas_</text>
</g>
</g>
</svg>
