<?xml version="1.0" encoding="UTF-8" standalone="no"?>
<!DOCTYPE svg PUBLIC "-//W3C//DTD SVG 1.1//EN"
 "http://www.w3.org/Graphics/SVG/1.1/DTD/svg11.dtd">
<!-- Generated by graphviz version 2.40.1 (20161225.0304)
 -->
<!-- Title: xla::ComputationTracker::BuildHloModule Pages: 1 -->
<svg width="1071pt" height="174pt"
 viewBox="0.00 0.00 1071.00 173.50" xmlns="http://www.w3.org/2000/svg" xmlns:xlink="http://www.w3.org/1999/xlink">
<g id="graph0" class="graph" transform="scale(1 1) rotate(0) translate(4 169.5)">
<title>xla::ComputationTracker::BuildHloModule</title>
<polygon fill="#ffffff" stroke="transparent" points="-4,4 -4,-169.5 1067,-169.5 1067,4 -4,4"/>
<!-- Node17 -->
<g id="node1" class="node">
<title>Node17</title>
<polygon fill="#bfbfbf" stroke="#000000" points="0,-63.5 0,-93.5 122,-93.5 122,-63.5 0,-63.5"/>
<text text-anchor="start" x="8" y="-81.5" font-family="Helvetica,sans-Serif" font-size="10.00" fill="#000000">xla::ComputationTracker</text>
<text text-anchor="middle" x="61" y="-70.5" font-family="Helvetica,sans-Serif" font-size="10.00" fill="#000000">::BuildHloModule</text>
</g>
<!-- Node18 -->
<g id="node2" class="node">
<title>Node18</title>
<g id="a_node2"><a xlink:href="../../dc/d07/classxla_1_1CompileOnlyService.html#aceb67616a89167b9af1bf23d17ec37c9" target="_top" xlink:title="xla::CompileOnlyService\l::CompileAheadOfTime">
<polygon fill="#ffffff" stroke="#000000" points="172.5,-127.5 172.5,-157.5 297.5,-157.5 297.5,-127.5 172.5,-127.5"/>
<text text-anchor="start" x="180.5" y="-145.5" font-family="Helvetica,sans-Serif" font-size="10.00" fill="#000000">xla::CompileOnlyService</text>
<text text-anchor="middle" x="235" y="-134.5" font-family="Helvetica,sans-Serif" font-size="10.00" fill="#000000">::CompileAheadOfTime</text>
</a>
</g>
</g>
<!-- Node17&#45;&gt;Node18 -->
<g id="edge1" class="edge">
<title>Node17&#45;&gt;Node18</title>
<path fill="none" stroke="#191970" d="M107.753,-97.3361C123.639,-103.5973 141.5354,-110.4991 158,-116.5 168.075,-120.172 178.9543,-123.9553 189.2724,-127.4601"/>
<polygon fill="#191970" stroke="#191970" points="108.7385,-93.962 98.1523,-93.5342 106.1611,-100.4703 108.7385,-93.962"/>
</g>
<!-- Node24 -->
<g id="node8" class="node">
<title>Node24</title>
<g id="a_node8"><a xlink:href="../../d1/d10/classxla_1_1Service.html#aae12155f7d9a17dd6fda837a2d1189b3" target="_top" xlink:title="xla::Service::BuildExecutables">
<polygon fill="#ffffff" stroke="#000000" points="160,-88 160,-107 310,-107 310,-88 160,-88"/>
<text text-anchor="middle" x="235" y="-95" font-family="Helvetica,sans-Serif" font-size="10.00" fill="#000000">xla::Service::BuildExecutables</text>
</a>
</g>
</g>
<!-- Node17&#45;&gt;Node24 -->
<g id="edge7" class="edge">
<title>Node17&#45;&gt;Node24</title>
<path fill="none" stroke="#191970" d="M132.4405,-86.301C141.4882,-87.2889 150.7678,-88.3022 159.8708,-89.2962"/>
<polygon fill="#191970" stroke="#191970" points="132.6668,-82.805 122.3459,-85.1987 131.9068,-89.7636 132.6668,-82.805"/>
</g>
<!-- Node31 -->
<g id="node15" class="node">
<title>Node31</title>
<g id="a_node15"><a xlink:href="../../d1/d10/classxla_1_1Service.html#a18b542fa30535934fbe3f425088b6537" target="_top" xlink:title="xla::Service::ComputeConstant">
<polygon fill="#ffffff" stroke="#000000" points="158,-50 158,-69 312,-69 312,-50 158,-50"/>
<text text-anchor="middle" x="235" y="-57" font-family="Helvetica,sans-Serif" font-size="10.00" fill="#000000">xla::Service::ComputeConstant</text>
</a>
</g>
</g>
<!-- Node17&#45;&gt;Node31 -->
<g id="edge14" class="edge">
<title>Node17&#45;&gt;Node31</title>
<path fill="none" stroke="#191970" d="M132.4147,-70.7018C140.7675,-69.7898 149.3185,-68.856 157.746,-67.9358"/>
<polygon fill="#191970" stroke="#191970" points="131.9068,-67.2364 122.3459,-71.8013 132.6668,-74.195 131.9068,-67.2364"/>
</g>
<!-- Node32 -->
<g id="node16" class="node">
<title>Node32</title>
<g id="a_node16"><a xlink:href="../../d1/d10/classxla_1_1Service.html#a59107fc77e341a632ceaf179e29df9f6" target="_top" xlink:title="xla::Service::GetComputation\lStats">
<polygon fill="#ffffff" stroke="#000000" points="162,-.5 162,-30.5 308,-30.5 308,-.5 162,-.5"/>
<text text-anchor="start" x="170" y="-18.5" font-family="Helvetica,sans-Serif" font-size="10.00" fill="#000000">xla::Service::GetComputation</text>
<text text-anchor="middle" x="235" y="-7.5" font-family="Helvetica,sans-Serif" font-size="10.00" fill="#000000">Stats</text>
</a>
</g>
</g>
<!-- Node17&#45;&gt;Node32 -->
<g id="edge15" class="edge">
<title>Node17&#45;&gt;Node32</title>
<path fill="none" stroke="#191970" d="M107.7126,-59.5521C123.5957,-53.2828 141.5006,-46.4044 158,-40.5 167.3956,-37.1377 177.5023,-33.7175 187.2031,-30.53"/>
<polygon fill="#191970" stroke="#191970" points="106.1177,-56.4195 98.1151,-63.3628 108.7009,-62.9255 106.1177,-56.4195"/>
</g>
<!-- Node19 -->
<g id="node3" class="node">
<title>Node19</title>
<g id="a_node3"><a xlink:href="../../d1/dd1/classxla_1_1CompileOnlyClient.html#a5a585d21f617b77a1cecc1b587d18d7a" target="_top" xlink:title="Compiles a list of computations for ahead&#45;of&#45;time execution. This is intended for use in static compi...">
<polygon fill="#ffffff" stroke="#000000" points="360,-128.5 360,-158.5 479,-158.5 479,-128.5 360,-128.5"/>
<text text-anchor="start" x="368" y="-146.5" font-family="Helvetica,sans-Serif" font-size="10.00" fill="#000000">xla::CompileOnlyClient</text>
<text text-anchor="middle" x="419.5" y="-135.5" font-family="Helvetica,sans-Serif" font-size="10.00" fill="#000000">::CompileAheadOfTime</text>
</a>
</g>
</g>
<!-- Node18&#45;&gt;Node19 -->
<g id="edge2" class="edge">
<title>Node18&#45;&gt;Node19</title>
<path fill="none" stroke="#191970" d="M307.7416,-142.8943C324.9809,-142.9877 343.1728,-143.0863 359.7574,-143.1762"/>
<polygon fill="#191970" stroke="#191970" points="307.7396,-139.3943 297.7207,-142.8399 307.7016,-146.3942 307.7396,-139.3943"/>
</g>
<!-- Node20 -->
<g id="node4" class="node">
<title>Node20</title>
<g id="a_node4"><a xlink:href="../../d4/df4/namespacetensorflow_1_1tfcompile_1_1anonymous__namespace_02compile_8cc_03.html#a40f8a019f31fa8cbe2fff5d90e69c21b" target="_top" xlink:title="Compiles the XLA computation into executable code. ">
<polygon fill="#ffffff" stroke="#000000" points="535.5,-124 535.5,-165 664.5,-165 664.5,-124 535.5,-124"/>
<text text-anchor="start" x="543.5" y="-153" font-family="Helvetica,sans-Serif" font-size="10.00" fill="#000000">tensorflow::tfcompile</text>
<text text-anchor="start" x="543.5" y="-142" font-family="Helvetica,sans-Serif" font-size="10.00" fill="#000000">::anonymous_namespace</text>
<text text-anchor="middle" x="600" y="-131" font-family="Helvetica,sans-Serif" font-size="10.00" fill="#000000">{compile::cc}::CompileXla</text>
</a>
</g>
</g>
<!-- Node19&#45;&gt;Node20 -->
<g id="edge3" class="edge">
<title>Node19&#45;&gt;Node20</title>
<path fill="none" stroke="#191970" d="M489.4424,-143.8875C504.596,-143.9714 520.5552,-144.0599 535.4884,-144.1426"/>
<polygon fill="#191970" stroke="#191970" points="489.122,-140.3858 479.1027,-143.8302 489.0831,-147.3857 489.122,-140.3858"/>
</g>
<!-- Node21 -->
<g id="node5" class="node">
<title>Node21</title>
<g id="a_node5"><a xlink:href="../../d7/d38/namespacetensorflow_1_1tfcompile.html#a021cb1c58d938b16dcd998aa8d1fc191" target="_top" xlink:title="Converts the graph into an XLA computation, and compiles the computation. Called by tensorflow::tfcom...">
<polygon fill="#ffffff" stroke="#000000" points="724,-129.5 724,-159.5 831,-159.5 831,-129.5 724,-129.5"/>
<text text-anchor="start" x="732" y="-147.5" font-family="Helvetica,sans-Serif" font-size="10.00" fill="#000000">tensorflow::tfcompile</text>
<text text-anchor="middle" x="777.5" y="-136.5" font-family="Helvetica,sans-Serif" font-size="10.00" fill="#000000">::CompileGraph</text>
</a>
</g>
</g>
<!-- Node20&#45;&gt;Node21 -->
<g id="edge4" class="edge">
<title>Node20&#45;&gt;Node21</title>
<path fill="none" stroke="#191970" d="M674.7287,-144.5C691.193,-144.5 708.3177,-144.5 723.7587,-144.5"/>
<polygon fill="#191970" stroke="#191970" points="674.5837,-141.0001 664.5837,-144.5 674.5837,-148.0001 674.5837,-141.0001"/>
</g>
<!-- Node22 -->
<g id="node6" class="node">
<title>Node22</title>
<g id="a_node6"><a xlink:href="../../d7/d38/namespacetensorflow_1_1tfcompile.html#a460964a5bb277865d1275fe3746132c1" target="_top" xlink:title="tensorflow::tfcompile\l::Main">
<polygon fill="#ffffff" stroke="#000000" points="882,-129.5 882,-159.5 989,-159.5 989,-129.5 882,-129.5"/>
<text text-anchor="start" x="890" y="-147.5" font-family="Helvetica,sans-Serif" font-size="10.00" fill="#000000">tensorflow::tfcompile</text>
<text text-anchor="middle" x="935.5" y="-136.5" font-family="Helvetica,sans-Serif" font-size="10.00" fill="#000000">::Main</text>
</a>
</g>
</g>
<!-- Node21&#45;&gt;Node22 -->
<g id="edge5" class="edge">
<title>Node21&#45;&gt;Node22</title>
<path fill="none" stroke="#191970" d="M841.5167,-144.5C854.8898,-144.5 868.8576,-144.5 881.8103,-144.5"/>
<polygon fill="#191970" stroke="#191970" points="841.4328,-141.0001 831.4327,-144.5 841.4327,-148.0001 841.4328,-141.0001"/>
</g>
<!-- Node23 -->
<g id="node7" class="node">
<title>Node23</title>
<g id="a_node7"><a xlink:href="../../d4/d8d/tfcompile__main_8cc.html#a3c04138a5bfe5d72780bb7e82a18e627" target="_top" xlink:title="main">
<polygon fill="#ffffff" stroke="#000000" points="1025,-135 1025,-154 1063,-154 1063,-135 1025,-135"/>
<text text-anchor="middle" x="1044" y="-142" font-family="Helvetica,sans-Serif" font-size="10.00" fill="#000000">main</text>
</a>
</g>
</g>
<!-- Node22&#45;&gt;Node23 -->
<g id="edge6" class="edge">
<title>Node22&#45;&gt;Node23</title>
<path fill="none" stroke="#191970" d="M999.2814,-144.5C1008.5615,-144.5 1017.4574,-144.5 1024.8366,-144.5"/>
<polygon fill="#191970" stroke="#191970" points="999.1143,-141.0001 989.1143,-144.5 999.1142,-148.0001 999.1143,-141.0001"/>
</g>
<!-- Node25 -->
<g id="node9" class="node">
<title>Node25</title>
<g id="a_node9"><a xlink:href="../../d1/d10/classxla_1_1Service.html#aa0f93c81ca82a50f0ff7f044745bf227" target="_top" xlink:title="xla::Service::ExecuteParallel">
<polygon fill="#ffffff" stroke="#000000" points="348,-88 348,-107 491,-107 491,-88 348,-88"/>
<text text-anchor="middle" x="419.5" y="-95" font-family="Helvetica,sans-Serif" font-size="10.00" fill="#000000">xla::Service::ExecuteParallel</text>
</a>
</g>
</g>
<!-- Node24&#45;&gt;Node25 -->
<g id="edge8" class="edge">
<title>Node24&#45;&gt;Node25</title>
<path fill="none" stroke="#191970" d="M320.0549,-97.5C329.3332,-97.5 338.7092,-97.5 347.8043,-97.5"/>
<polygon fill="#191970" stroke="#191970" points="320.0432,-94.0001 310.0432,-97.5 320.0432,-101.0001 320.0432,-94.0001"/>
</g>
<!-- Node29 -->
<g id="node13" class="node">
<title>Node29</title>
<g id="a_node13"><a xlink:href="../../d1/d10/classxla_1_1Service.html#ae6f727fa681c065fc529a422a83f9133" target="_top" xlink:title="xla::Service::ExecuteGraph\lParallel">
<polygon fill="#ffffff" stroke="#000000" points="351,-38.5 351,-68.5 488,-68.5 488,-38.5 351,-38.5"/>
<text text-anchor="start" x="359" y="-56.5" font-family="Helvetica,sans-Serif" font-size="10.00" fill="#000000">xla::Service::ExecuteGraph</text>
<text text-anchor="middle" x="419.5" y="-45.5" font-family="Helvetica,sans-Serif" font-size="10.00" fill="#000000">Parallel</text>
</a>
</g>
</g>
<!-- Node24&#45;&gt;Node29 -->
<g id="edge12" class="edge">
<title>Node24&#45;&gt;Node29</title>
<path fill="none" stroke="#191970" d="M284.832,-85.616C306.842,-80.3669 332.9704,-74.1358 356.3282,-68.5654"/>
<polygon fill="#191970" stroke="#191970" points="283.949,-82.2283 275.0338,-87.9527 285.5729,-89.0373 283.949,-82.2283"/>
</g>
<!-- Node26 -->
<g id="node10" class="node">
<title>Node26</title>
<g id="a_node10"><a xlink:href="../../d1/d10/classxla_1_1Service.html#a170f36c8fd2b964f57d00d9b720c6912" target="_top" xlink:title="xla::Service::ExecuteOneToN">
<polygon fill="#ffffff" stroke="#000000" points="527,-86 527,-105 673,-105 673,-86 527,-86"/>
<text text-anchor="middle" x="600" y="-93" font-family="Helvetica,sans-Serif" font-size="10.00" fill="#000000">xla::Service::ExecuteOneToN</text>
</a>
</g>
</g>
<!-- Node25&#45;&gt;Node26 -->
<g id="edge9" class="edge">
<title>Node25&#45;&gt;Node26</title>
<path fill="none" stroke="#191970" d="M501.3445,-96.5931C509.802,-96.4994 518.3588,-96.4046 526.7144,-96.312"/>
<polygon fill="#191970" stroke="#191970" points="501.0582,-93.096 491.0976,-96.7067 501.1358,-100.0956 501.0582,-93.096"/>
</g>
<!-- Node27 -->
<g id="node11" class="node">
<title>Node27</title>
<g id="a_node11"><a xlink:href="../../d1/d10/classxla_1_1Service.html#ac3f89822d1f6faab8382f1902e54eea3" target="_top" xlink:title="xla::Service::Execute">
<polygon fill="#ffffff" stroke="#000000" points="722.5,-88 722.5,-107 832.5,-107 832.5,-88 722.5,-88"/>
<text text-anchor="middle" x="777.5" y="-95" font-family="Helvetica,sans-Serif" font-size="10.00" fill="#000000">xla::Service::Execute</text>
</a>
</g>
</g>
<!-- Node26&#45;&gt;Node27 -->
<g id="edge10" class="edge">
<title>Node26&#45;&gt;Node27</title>
<path fill="none" stroke="#191970" d="M683.3011,-96.4386C696.5501,-96.5879 709.9617,-96.739 722.3488,-96.8786"/>
<polygon fill="#191970" stroke="#191970" points="683.2597,-92.938 673.2208,-96.325 683.1807,-99.9376 683.2597,-92.938"/>
</g>
<!-- Node28 -->
<g id="node12" class="node">
<title>Node28</title>
<g id="a_node12"><a xlink:href="../../d1/d10/classxla_1_1Service.html#a6d2eb2712a109ab9484080dfd1e2e446" target="_top" xlink:title="xla::Service::ExecuteGraph">
<polygon fill="#ffffff" stroke="#000000" points="709,-50 709,-69 846,-69 846,-50 709,-50"/>
<text text-anchor="middle" x="777.5" y="-57" font-family="Helvetica,sans-Serif" font-size="10.00" fill="#000000">xla::Service::ExecuteGraph</text>
</a>
</g>
</g>
<!-- Node26&#45;&gt;Node28 -->
<g id="edge11" class="edge">
<title>Node26&#45;&gt;Node28</title>
<path fill="none" stroke="#191970" d="M657.0284,-83.9337C680.7455,-79.1235 707.9428,-73.6074 730.4874,-69.0349"/>
<polygon fill="#191970" stroke="#191970" points="656.2055,-80.5292 647.1007,-85.9472 657.5969,-87.3896 656.2055,-80.5292"/>
</g>
<!-- Node30 -->
<g id="node14" class="node">
<title>Node30</title>
<g id="a_node14"><a xlink:href="../../d1/d10/classxla_1_1Service.html#a11604b813ba3e3208b2bda70f0f02f0d" target="_top" xlink:title="xla::Service::ExecuteOneToN">
<polygon fill="#ffffff" stroke="#000000" points="527,-44 527,-63 673,-63 673,-44 527,-44"/>
<text text-anchor="middle" x="600" y="-51" font-family="Helvetica,sans-Serif" font-size="10.00" fill="#000000">xla::Service::ExecuteOneToN</text>
</a>
</g>
</g>
<!-- Node29&#45;&gt;Node30 -->
<g id="edge13" class="edge">
<title>Node29&#45;&gt;Node30</title>
<path fill="none" stroke="#191970" d="M498.4434,-53.5C507.9129,-53.5 517.5512,-53.5 526.9323,-53.5"/>
<polygon fill="#191970" stroke="#191970" points="498.2543,-50.0001 488.2542,-53.5 498.2542,-57.0001 498.2543,-50.0001"/>
</g>
</g>
</svg>
