<?xml version="1.0" encoding="UTF-8" standalone="no"?>
<!DOCTYPE svg PUBLIC "-//W3C//DTD SVG 1.1//EN"
 "http://www.w3.org/Graphics/SVG/1.1/DTD/svg11.dtd">
<!-- Generated by graphviz version 2.40.1 (20161225.0304)
 -->
<!-- Title: xla::ComputationTracker::LoadSessionComputation Pages: 1 -->
<svg width="487pt" height="39pt"
 viewBox="0.00 0.00 487.00 39.00" xmlns="http://www.w3.org/2000/svg" xmlns:xlink="http://www.w3.org/1999/xlink">
<g id="graph0" class="graph" transform="scale(1 1) rotate(0) translate(4 35)">
<title>xla::ComputationTracker::LoadSessionComputation</title>
<polygon fill="#ffffff" stroke="transparent" points="-4,4 -4,-35 483,-35 483,4 -4,4"/>
<!-- Node66 -->
<g id="node1" class="node">
<title>Node66</title>
<polygon fill="#bfbfbf" stroke="#000000" points="0,-.5 0,-30.5 134,-30.5 134,-.5 0,-.5"/>
<text text-anchor="start" x="8" y="-18.5" font-family="Helvetica,sans-Serif" font-size="10.00" fill="#000000">xla::ComputationTracker</text>
<text text-anchor="middle" x="67" y="-7.5" font-family="Helvetica,sans-Serif" font-size="10.00" fill="#000000">::LoadSessionComputation</text>
</g>
<!-- Node67 -->
<g id="node2" class="node">
<title>Node67</title>
<g id="a_node2"><a xlink:href="../../d8/d42/classxla_1_1ComputationTracker.html#a1facfad94400ca2ffa423eb26f815061" target="_top" xlink:title="xla::ComputationTracker\l::LoadSessionModule">
<polygon fill="#ffffff" stroke="#000000" points="170,-.5 170,-30.5 292,-30.5 292,-.5 170,-.5"/>
<text text-anchor="start" x="178" y="-18.5" font-family="Helvetica,sans-Serif" font-size="10.00" fill="#000000">xla::ComputationTracker</text>
<text text-anchor="middle" x="231" y="-7.5" font-family="Helvetica,sans-Serif" font-size="10.00" fill="#000000">::LoadSessionModule</text>
</a>
</g>
</g>
<!-- Node66&#45;&gt;Node67 -->
<g id="edge1" class="edge">
<title>Node66&#45;&gt;Node67</title>
<path fill="none" stroke="#191970" d="M144.258,-15.5C152.8916,-15.5 161.5955,-15.5 169.9853,-15.5"/>
<polygon fill="#191970" stroke="#191970" points="144.1783,-12.0001 134.1783,-15.5 144.1782,-19.0001 144.1783,-12.0001"/>
</g>
<!-- Node68 -->
<g id="node3" class="node">
<title>Node68</title>
<g id="a_node3"><a xlink:href="../../d1/d10/classxla_1_1Service.html#a6470d971df0e6843a824407ed1f35349" target="_top" xlink:title="xla::Service::LoadComputation\lSnapshot">
<polygon fill="#ffffff" stroke="#000000" points="328,-.5 328,-30.5 479,-30.5 479,-.5 328,-.5"/>
<text text-anchor="start" x="336" y="-18.5" font-family="Helvetica,sans-Serif" font-size="10.00" fill="#000000">xla::Service::LoadComputation</text>
<text text-anchor="middle" x="403.5" y="-7.5" font-family="Helvetica,sans-Serif" font-size="10.00" fill="#000000">Snapshot</text>
</a>
</g>
</g>
<!-- Node67&#45;&gt;Node68 -->
<g id="edge2" class="edge">
<title>Node67&#45;&gt;Node68</title>
<path fill="none" stroke="#191970" d="M302.4367,-15.5C310.8417,-15.5 319.4401,-15.5 327.8998,-15.5"/>
<polygon fill="#191970" stroke="#191970" points="302.3028,-12.0001 292.3028,-15.5 302.3027,-19.0001 302.3028,-12.0001"/>
</g>
</g>
</svg>
