<?xml version="1.0" encoding="UTF-8" standalone="no"?>
<!DOCTYPE svg PUBLIC "-//W3C//DTD SVG 1.1//EN"
 "http://www.w3.org/Graphics/SVG/1.1/DTD/svg11.dtd">
<!-- Generated by graphviz version 2.40.1 (20161225.0304)
 -->
<!-- Title: xla::ComputationTracker::SnapshotComputation Pages: 1 -->
<!--zoomable 137 -->
<svg id="main" version="1.1" xmlns="http://www.w3.org/2000/svg" xmlns:xlink="http://www.w3.org/1999/xlink" xml:space="preserve" onload="init(evt)">
<style type="text/css"><![CDATA[
.edge:hover path { stroke: red; }
.edge:hover polygon { stroke: red; fill: red; }
]]></style>
<script type="text/javascript"><![CDATA[
var edges = document.getElementsByTagName('g');
if (edges && edges.length) {
  for (var i=0;i<edges.length;i++) {
    if (edges[i].id.substr(0,4)=='edge') {
      edges[i].setAttribute('class','edge');
    }
  }
}
]]></script>
        <defs>
                <circle id="rim" cx="0" cy="0" r="7"/>
                <circle id="rim2" cx="0" cy="0" r="3.5"/>
                <g id="zoomPlus">
                        <use xlink:href="#rim" fill="#404040">
                                <set attributeName="fill" to="#808080" begin="zoomplus.mouseover" end="zoomplus.mouseout"/>
                        </use>
                        <path d="M-4,0h8M0,-4v8" fill="none" stroke="white" stroke-width="1.5" pointer-events="none"/>
                </g>
                <g id="zoomMin">
                        <use xlink:href="#rim" fill="#404040">
                                <set attributeName="fill" to="#808080" begin="zoomminus.mouseover" end="zoomminus.mouseout"/>
                        </use>
                        <path d="M-4,0h8" fill="none" stroke="white" stroke-width="1.5" pointer-events="none"/>
                </g>
                <g id="dirArrow">
                        <path fill="none" stroke="white" stroke-width="1.5" d="M0,-3.0v7 M-2.5,-0.5L0,-3.0L2.5,-0.5"/>
                </g>
               <g id="resetDef">
                       <use xlink:href="#rim2" fill="#404040">
                               <set attributeName="fill" to="#808080" begin="reset.mouseover" end="reset.mouseout"/>
                       </use>
               </g>
        </defs>

<script type="text/javascript">
var viewWidth = 1088;
var viewHeight = 137;
var sectionId = 'dynsection-15';
</script>
<script xlink:href="../../svgpan.js"/>
<svg id="graph" class="graph">
<g id="viewport">
<title>xla::ComputationTracker::SnapshotComputation</title>
<polygon fill="#ffffff" stroke="transparent" points="-4,4 -4,-132.5 1084,-132.5 1084,4 -4,4"/>
<!-- Node143 -->
<g id="node1" class="node">
<title>Node143</title>
<polygon fill="#bfbfbf" stroke="#000000" points="0,-44.5 0,-74.5 122,-74.5 122,-44.5 0,-44.5"/>
<text text-anchor="start" x="8" y="-62.5" font-family="Helvetica,sans-Serif" font-size="10.00" fill="#000000">xla::ComputationTracker</text>
<text text-anchor="middle" x="61" y="-51.5" font-family="Helvetica,sans-Serif" font-size="10.00" fill="#000000">::SnapshotComputation</text>
</g>
<!-- Node144 -->
<g id="node2" class="node">
<title>Node144</title>
<g id="a_node2"><a xlink:href="../../dc/d07/classxla_1_1CompileOnlyService.html#aceb67616a89167b9af1bf23d17ec37c9" target="_top" xlink:title="xla::CompileOnlyService\l::CompileAheadOfTime">
<polygon fill="#ffffff" stroke="#000000" points="181,-90.5 181,-120.5 306,-120.5 306,-90.5 181,-90.5"/>
<text text-anchor="start" x="189" y="-108.5" font-family="Helvetica,sans-Serif" font-size="10.00" fill="#000000">xla::CompileOnlyService</text>
<text text-anchor="middle" x="243.5" y="-97.5" font-family="Helvetica,sans-Serif" font-size="10.00" fill="#000000">::CompileAheadOfTime</text>
</a>
</g>
</g>
<!-- Node143&#45;&gt;Node144 -->
<g id="edge1" class="edge">
<title>Node143&#45;&gt;Node144</title>
<path fill="none" stroke="#191970" d="M130.9044,-77.1197C148.3914,-81.5274 166.9864,-86.2144 183.9203,-90.4826"/>
<polygon fill="#191970" stroke="#191970" points="131.3095,-73.6124 120.7573,-74.5621 129.5986,-80.4001 131.3095,-73.6124"/>
</g>
<!-- Node150 -->
<g id="node8" class="node">
<title>Node150</title>
<g id="a_node8"><a xlink:href="../../d1/d10/classxla_1_1Service.html#aae12155f7d9a17dd6fda837a2d1189b3" target="_top" xlink:title="xla::Service::BuildExecutables">
<polygon fill="#ffffff" stroke="#000000" points="168.5,-50 168.5,-69 318.5,-69 318.5,-50 168.5,-50"/>
<text text-anchor="middle" x="243.5" y="-57" font-family="Helvetica,sans-Serif" font-size="10.00" fill="#000000">xla::Service::BuildExecutables</text>
</a>
</g>
</g>
<!-- Node143&#45;&gt;Node150 -->
<g id="edge7" class="edge">
<title>Node143&#45;&gt;Node150</title>
<path fill="none" stroke="#191970" d="M132.2585,-59.5C144.0668,-59.5 156.3449,-59.5 168.248,-59.5"/>
<polygon fill="#191970" stroke="#191970" points="132.0236,-56.0001 122.0236,-59.5 132.0236,-63.0001 132.0236,-56.0001"/>
</g>
<!-- Node157 -->
<g id="node15" class="node">
<title>Node157</title>
<g id="a_node15"><a xlink:href="../../d1/d10/classxla_1_1Service.html#ab6915b044aa99a7186c77b543bc1fb30" target="_top" xlink:title="xla::Service::SnapshotComputation">
<polygon fill="#ffffff" stroke="#000000" points="158,-12 158,-31 329,-31 329,-12 158,-12"/>
<text text-anchor="middle" x="243.5" y="-19" font-family="Helvetica,sans-Serif" font-size="10.00" fill="#000000">xla::Service::SnapshotComputation</text>
</a>
</g>
</g>
<!-- Node143&#45;&gt;Node157 -->
<g id="edge14" class="edge">
<title>Node143&#45;&gt;Node157</title>
<path fill="none" stroke="#191970" d="M132.0483,-44.7064C154.1656,-40.1011 177.95,-35.1488 197.8435,-31.0066"/>
<polygon fill="#191970" stroke="#191970" points="131.1001,-41.3287 122.0236,-46.7937 132.5271,-48.1817 131.1001,-41.3287"/>
</g>
<!-- Node145 -->
<g id="node3" class="node">
<title>Node145</title>
<g id="a_node3"><a xlink:href="../../d1/dd1/classxla_1_1CompileOnlyClient.html#a5a585d21f617b77a1cecc1b587d18d7a" target="_top" xlink:title="Compiles a list of computations for ahead&#45;of&#45;time execution. This is intended for use in static compi...">
<polygon fill="#ffffff" stroke="#000000" points="377,-91.5 377,-121.5 496,-121.5 496,-91.5 377,-91.5"/>
<text text-anchor="start" x="385" y="-109.5" font-family="Helvetica,sans-Serif" font-size="10.00" fill="#000000">xla::CompileOnlyClient</text>
<text text-anchor="middle" x="436.5" y="-98.5" font-family="Helvetica,sans-Serif" font-size="10.00" fill="#000000">::CompileAheadOfTime</text>
</a>
</g>
</g>
<!-- Node144&#45;&gt;Node145 -->
<g id="edge2" class="edge">
<title>Node144&#45;&gt;Node145</title>
<path fill="none" stroke="#191970" d="M316.4277,-105.8779C336.3455,-105.9811 357.6905,-106.0917 376.778,-106.1906"/>
<polygon fill="#191970" stroke="#191970" points="316.1796,-102.3766 306.1616,-105.8247 316.1433,-109.3765 316.1796,-102.3766"/>
</g>
<!-- Node146 -->
<g id="node4" class="node">
<title>Node146</title>
<g id="a_node4"><a xlink:href="../../d4/df4/namespacetensorflow_1_1tfcompile_1_1anonymous__namespace_02compile_8cc_03.html#a40f8a019f31fa8cbe2fff5d90e69c21b" target="_top" xlink:title="Compiles the XLA computation into executable code. ">
<polygon fill="#ffffff" stroke="#000000" points="552.5,-87 552.5,-128 681.5,-128 681.5,-87 552.5,-87"/>
<text text-anchor="start" x="560.5" y="-116" font-family="Helvetica,sans-Serif" font-size="10.00" fill="#000000">tensorflow::tfcompile</text>
<text text-anchor="start" x="560.5" y="-105" font-family="Helvetica,sans-Serif" font-size="10.00" fill="#000000">::anonymous_namespace</text>
<text text-anchor="middle" x="617" y="-94" font-family="Helvetica,sans-Serif" font-size="10.00" fill="#000000">{compile::cc}::CompileXla</text>
</a>
</g>
</g>
<!-- Node145&#45;&gt;Node146 -->
<g id="edge3" class="edge">
<title>Node145&#45;&gt;Node146</title>
<path fill="none" stroke="#191970" d="M506.4424,-106.8875C521.596,-106.9714 537.5552,-107.0599 552.4884,-107.1426"/>
<polygon fill="#191970" stroke="#191970" points="506.122,-103.3858 496.1027,-106.8302 506.0831,-110.3857 506.122,-103.3858"/>
</g>
<!-- Node147 -->
<g id="node5" class="node">
<title>Node147</title>
<g id="a_node5"><a xlink:href="../../d7/d38/namespacetensorflow_1_1tfcompile.html#a021cb1c58d938b16dcd998aa8d1fc191" target="_top" xlink:title="Converts the graph into an XLA computation, and compiles the computation. Called by tensorflow::tfcom...">
<polygon fill="#ffffff" stroke="#000000" points="741,-92.5 741,-122.5 848,-122.5 848,-92.5 741,-92.5"/>
<text text-anchor="start" x="749" y="-110.5" font-family="Helvetica,sans-Serif" font-size="10.00" fill="#000000">tensorflow::tfcompile</text>
<text text-anchor="middle" x="794.5" y="-99.5" font-family="Helvetica,sans-Serif" font-size="10.00" fill="#000000">::CompileGraph</text>
</a>
</g>
</g>
<!-- Node146&#45;&gt;Node147 -->
<g id="edge4" class="edge">
<title>Node146&#45;&gt;Node147</title>
<path fill="none" stroke="#191970" d="M691.7287,-107.5C708.193,-107.5 725.3177,-107.5 740.7587,-107.5"/>
<polygon fill="#191970" stroke="#191970" points="691.5837,-104.0001 681.5837,-107.5 691.5837,-111.0001 691.5837,-104.0001"/>
</g>
<!-- Node148 -->
<g id="node6" class="node">
<title>Node148</title>
<g id="a_node6"><a xlink:href="../../d7/d38/namespacetensorflow_1_1tfcompile.html#a460964a5bb277865d1275fe3746132c1" target="_top" xlink:title="tensorflow::tfcompile\l::Main">
<polygon fill="#ffffff" stroke="#000000" points="899,-92.5 899,-122.5 1006,-122.5 1006,-92.5 899,-92.5"/>
<text text-anchor="start" x="907" y="-110.5" font-family="Helvetica,sans-Serif" font-size="10.00" fill="#000000">tensorflow::tfcompile</text>
<text text-anchor="middle" x="952.5" y="-99.5" font-family="Helvetica,sans-Serif" font-size="10.00" fill="#000000">::Main</text>
</a>
</g>
</g>
<!-- Node147&#45;&gt;Node148 -->
<g id="edge5" class="edge">
<title>Node147&#45;&gt;Node148</title>
<path fill="none" stroke="#191970" d="M858.5167,-107.5C871.8898,-107.5 885.8576,-107.5 898.8103,-107.5"/>
<polygon fill="#191970" stroke="#191970" points="858.4328,-104.0001 848.4327,-107.5 858.4327,-111.0001 858.4328,-104.0001"/>
</g>
<!-- Node149 -->
<g id="node7" class="node">
<title>Node149</title>
<g id="a_node7"><a xlink:href="../../d4/d8d/tfcompile__main_8cc.html#a3c04138a5bfe5d72780bb7e82a18e627" target="_top" xlink:title="main">
<polygon fill="#ffffff" stroke="#000000" points="1042,-98 1042,-117 1080,-117 1080,-98 1042,-98"/>
<text text-anchor="middle" x="1061" y="-105" font-family="Helvetica,sans-Serif" font-size="10.00" fill="#000000">main</text>
</a>
</g>
</g>
<!-- Node148&#45;&gt;Node149 -->
<g id="edge6" class="edge">
<title>Node148&#45;&gt;Node149</title>
<path fill="none" stroke="#191970" d="M1016.2814,-107.5C1025.5615,-107.5 1034.4574,-107.5 1041.8366,-107.5"/>
<polygon fill="#191970" stroke="#191970" points="1016.1143,-104.0001 1006.1143,-107.5 1016.1142,-111.0001 1016.1143,-104.0001"/>
</g>
<!-- Node151 -->
<g id="node9" class="node">
<title>Node151</title>
<g id="a_node9"><a xlink:href="../../d1/d10/classxla_1_1Service.html#aa0f93c81ca82a50f0ff7f044745bf227" target="_top" xlink:title="xla::Service::ExecuteParallel">
<polygon fill="#ffffff" stroke="#000000" points="365,-50 365,-69 508,-69 508,-50 365,-50"/>
<text text-anchor="middle" x="436.5" y="-57" font-family="Helvetica,sans-Serif" font-size="10.00" fill="#000000">xla::Service::ExecuteParallel</text>
</a>
</g>
</g>
<!-- Node150&#45;&gt;Node151 -->
<g id="edge8" class="edge">
<title>Node150&#45;&gt;Node151</title>
<path fill="none" stroke="#191970" d="M328.6932,-59.5C340.7101,-59.5 352.9641,-59.5 364.6961,-59.5"/>
<polygon fill="#191970" stroke="#191970" points="328.6715,-56.0001 318.6715,-59.5 328.6714,-63.0001 328.6715,-56.0001"/>
</g>
<!-- Node155 -->
<g id="node13" class="node">
<title>Node155</title>
<g id="a_node13"><a xlink:href="../../d1/d10/classxla_1_1Service.html#ae6f727fa681c065fc529a422a83f9133" target="_top" xlink:title="xla::Service::ExecuteGraph\lParallel">
<polygon fill="#ffffff" stroke="#000000" points="368,-.5 368,-30.5 505,-30.5 505,-.5 368,-.5"/>
<text text-anchor="start" x="376" y="-18.5" font-family="Helvetica,sans-Serif" font-size="10.00" fill="#000000">xla::Service::ExecuteGraph</text>
<text text-anchor="middle" x="436.5" y="-7.5" font-family="Helvetica,sans-Serif" font-size="10.00" fill="#000000">Parallel</text>
</a>
</g>
</g>
<!-- Node150&#45;&gt;Node155 -->
<g id="edge12" class="edge">
<title>Node150&#45;&gt;Node155</title>
<path fill="none" stroke="#191970" d="M297.0091,-47.6939C307.6143,-45.33 318.6625,-42.8506 329,-40.5 343.0132,-37.3136 358.0424,-33.8485 372.2894,-30.5414"/>
<polygon fill="#191970" stroke="#191970" points="296.0162,-44.3291 287.0146,-49.9168 297.536,-51.1621 296.0162,-44.3291"/>
</g>
<!-- Node152 -->
<g id="node10" class="node">
<title>Node152</title>
<g id="a_node10"><a xlink:href="../../d1/d10/classxla_1_1Service.html#a170f36c8fd2b964f57d00d9b720c6912" target="_top" xlink:title="xla::Service::ExecuteOneToN">
<polygon fill="#ffffff" stroke="#000000" points="544,-49 544,-68 690,-68 690,-49 544,-49"/>
<text text-anchor="middle" x="617" y="-56" font-family="Helvetica,sans-Serif" font-size="10.00" fill="#000000">xla::Service::ExecuteOneToN</text>
</a>
</g>
</g>
<!-- Node151&#45;&gt;Node152 -->
<g id="edge9" class="edge">
<title>Node151&#45;&gt;Node152</title>
<path fill="none" stroke="#191970" d="M518.3445,-59.0466C526.802,-58.9997 535.3588,-58.9523 543.7144,-58.906"/>
<polygon fill="#191970" stroke="#191970" points="518.078,-55.5479 508.0976,-59.1033 518.1169,-62.5478 518.078,-55.5479"/>
</g>
<!-- Node153 -->
<g id="node11" class="node">
<title>Node153</title>
<g id="a_node11"><a xlink:href="../../d1/d10/classxla_1_1Service.html#ac3f89822d1f6faab8382f1902e54eea3" target="_top" xlink:title="xla::Service::Execute">
<polygon fill="#ffffff" stroke="#000000" points="739.5,-51 739.5,-70 849.5,-70 849.5,-51 739.5,-51"/>
<text text-anchor="middle" x="794.5" y="-58" font-family="Helvetica,sans-Serif" font-size="10.00" fill="#000000">xla::Service::Execute</text>
</a>
</g>
</g>
<!-- Node152&#45;&gt;Node153 -->
<g id="edge10" class="edge">
<title>Node152&#45;&gt;Node153</title>
<path fill="none" stroke="#191970" d="M700.3011,-59.4386C713.5501,-59.5879 726.9617,-59.739 739.3488,-59.8786"/>
<polygon fill="#191970" stroke="#191970" points="700.2597,-55.938 690.2208,-59.325 700.1807,-62.9376 700.2597,-55.938"/>
</g>
<!-- Node154 -->
<g id="node12" class="node">
<title>Node154</title>
<g id="a_node12"><a xlink:href="../../d1/d10/classxla_1_1Service.html#a6d2eb2712a109ab9484080dfd1e2e446" target="_top" xlink:title="xla::Service::ExecuteGraph">
<polygon fill="#ffffff" stroke="#000000" points="726,-13 726,-32 863,-32 863,-13 726,-13"/>
<text text-anchor="middle" x="794.5" y="-20" font-family="Helvetica,sans-Serif" font-size="10.00" fill="#000000">xla::Service::ExecuteGraph</text>
</a>
</g>
</g>
<!-- Node152&#45;&gt;Node154 -->
<g id="edge11" class="edge">
<title>Node152&#45;&gt;Node154</title>
<path fill="none" stroke="#191970" d="M674.0284,-46.9337C697.7455,-42.1235 724.9428,-36.6074 747.4874,-32.0349"/>
<polygon fill="#191970" stroke="#191970" points="673.2055,-43.5292 664.1007,-48.9472 674.5969,-50.3896 673.2055,-43.5292"/>
</g>
<!-- Node156 -->
<g id="node14" class="node">
<title>Node156</title>
<g id="a_node14"><a xlink:href="../../d1/d10/classxla_1_1Service.html#a11604b813ba3e3208b2bda70f0f02f0d" target="_top" xlink:title="xla::Service::ExecuteOneToN">
<polygon fill="#ffffff" stroke="#000000" points="544,-6 544,-25 690,-25 690,-6 544,-6"/>
<text text-anchor="middle" x="617" y="-13" font-family="Helvetica,sans-Serif" font-size="10.00" fill="#000000">xla::Service::ExecuteOneToN</text>
</a>
</g>
</g>
<!-- Node155&#45;&gt;Node156 -->
<g id="edge13" class="edge">
<title>Node155&#45;&gt;Node156</title>
<path fill="none" stroke="#191970" d="M515.4434,-15.5C524.9129,-15.5 534.5512,-15.5 543.9323,-15.5"/>
<polygon fill="#191970" stroke="#191970" points="515.2543,-12.0001 505.2542,-15.5 515.2542,-19.0001 515.2543,-12.0001"/>
</g>
</g>
</svg>
        <g id="navigator" transform="translate(0 0)" fill="#404254">
                <rect fill="#f2f5e9" fill-opacity="0.5" stroke="#606060" stroke-width=".5" x="0" y="0" width="60" height="60"/>
                <use id="zoomplus" xlink:href="#zoomPlus" x="17" y="9" onmousedown="handleZoom(evt,'in')"/>
                <use id="zoomminus" xlink:href="#zoomMin" x="42" y="9" onmousedown="handleZoom(evt,'out')"/>
                <use id="reset" xlink:href="#resetDef" x="30" y="36" onmousedown="handleReset()"/>
                <g id="arrowUp" xlink:href="#dirArrow" transform="translate(30 24)" onmousedown="handlePan(0,-1)">
                  <use xlink:href="#rim" fill="#404040">
                        <set attributeName="fill" to="#808080" begin="arrowUp.mouseover" end="arrowUp.mouseout"/>
                  </use>
                  <path fill="none" stroke="white" stroke-width="1.5" d="M0,-3.0v7 M-2.5,-0.5L0,-3.0L2.5,-0.5"/>
                </g>
                <g id="arrowRight" xlink:href="#dirArrow" transform="rotate(90) translate(36 -43)" onmousedown="handlePan(1,0)">
                  <use xlink:href="#rim" fill="#404040">
                        <set attributeName="fill" to="#808080" begin="arrowRight.mouseover" end="arrowRight.mouseout"/>
                  </use>
                  <path fill="none" stroke="white" stroke-width="1.5" d="M0,-3.0v7 M-2.5,-0.5L0,-3.0L2.5,-0.5"/>
                </g>
                <g id="arrowDown" xlink:href="#dirArrow" transform="rotate(180) translate(-30 -48)" onmousedown="handlePan(0,1)">
                  <use xlink:href="#rim" fill="#404040">
                        <set attributeName="fill" to="#808080" begin="arrowDown.mouseover" end="arrowDown.mouseout"/>
                  </use>
                  <path fill="none" stroke="white" stroke-width="1.5" d="M0,-3.0v7 M-2.5,-0.5L0,-3.0L2.5,-0.5"/>
                </g>
                <g id="arrowLeft" xlink:href="#dirArrow" transform="rotate(270) translate(-36 17)" onmousedown="handlePan(-1,0)">
                  <use xlink:href="#rim" fill="#404040">
                        <set attributeName="fill" to="#808080" begin="arrowLeft.mouseover" end="arrowLeft.mouseout"/>
                  </use>
                  <path fill="none" stroke="white" stroke-width="1.5" d="M0,-3.0v7 M-2.5,-0.5L0,-3.0L2.5,-0.5"/>
                </g>
        </g>
        <svg viewBox="0 0 15 15" width="100%" height="30px" preserveAspectRatio="xMaxYMin meet">
         <g id="arrow_out" transform="scale(0.3 0.3)">
          <a xlink:href="classxla_1_1ComputationTracker_a1acead58332b1b2c6beaeac5505b1b8a_icgraph_org.svg" target="_base">
           <rect id="button" ry="5" rx="5" y="6" x="6" height="38" width="38"
                fill="#f2f5e9" fill-opacity="0.5" stroke="#606060" stroke-width="1.0"/>
           <path id="arrow"
             d="M 11.500037,31.436501 C 11.940474,20.09759 22.043105,11.32322 32.158766,21.979434 L 37.068811,17.246167 C 37.068811,17.246167 37.088388,32 37.088388,32 L 22.160133,31.978069 C 22.160133,31.978069 26.997745,27.140456 26.997745,27.140456 C 18.528582,18.264221 13.291696,25.230495 11.500037,31.436501 z"
             style="fill:#404040;"/>
          </a>
         </g>
        </svg>
</svg>
