<?xml version="1.0" encoding="UTF-8" standalone="no"?>
<!DOCTYPE svg PUBLIC "-//W3C//DTD SVG 1.1//EN"
 "http://www.w3.org/Graphics/SVG/1.1/DTD/svg11.dtd">
<!-- Generated by graphviz version 2.40.1 (20161225.0304)
 -->
<!-- Title: xla::ComputationTracker::ToStringInternal Pages: 1 -->
<svg width="1229pt" height="174pt"
 viewBox="0.00 0.00 1229.00 173.50" xmlns="http://www.w3.org/2000/svg" xmlns:xlink="http://www.w3.org/1999/xlink">
<g id="graph0" class="graph" transform="scale(1 1) rotate(0) translate(4 169.5)">
<title>xla::ComputationTracker::ToStringInternal</title>
<polygon fill="#ffffff" stroke="transparent" points="-4,4 -4,-169.5 1225,-169.5 1225,4 -4,4"/>
<!-- Node164 -->
<g id="node1" class="node">
<title>Node164</title>
<polygon fill="#bfbfbf" stroke="#000000" points="0,-38.5 0,-68.5 122,-68.5 122,-38.5 0,-38.5"/>
<text text-anchor="start" x="8" y="-56.5" font-family="Helvetica,sans-Serif" font-size="10.00" fill="#000000">xla::ComputationTracker</text>
<text text-anchor="middle" x="61" y="-45.5" font-family="Helvetica,sans-Serif" font-size="10.00" fill="#000000">::ToStringInternal</text>
</g>
<!-- Node165 -->
<g id="node2" class="node">
<title>Node165</title>
<g id="a_node2"><a xlink:href="../../d8/d42/classxla_1_1ComputationTracker.html#abaeb463c7038bcc61515a19e18fe0714" target="_top" xlink:title="xla::ComputationTracker\l::BuildHloModule">
<polygon fill="#ffffff" stroke="#000000" points="158,-63.5 158,-93.5 280,-93.5 280,-63.5 158,-63.5"/>
<text text-anchor="start" x="166" y="-81.5" font-family="Helvetica,sans-Serif" font-size="10.00" fill="#000000">xla::ComputationTracker</text>
<text text-anchor="middle" x="219" y="-70.5" font-family="Helvetica,sans-Serif" font-size="10.00" fill="#000000">::BuildHloModule</text>
</a>
</g>
</g>
<!-- Node164&#45;&gt;Node165 -->
<g id="edge1" class="edge">
<title>Node164&#45;&gt;Node165</title>
<path fill="none" stroke="#191970" d="M132.0855,-64.7477C140.6732,-66.1065 149.3868,-67.4853 157.815,-68.8188"/>
<polygon fill="#191970" stroke="#191970" points="132.5111,-61.2716 122.0869,-63.1657 131.417,-68.1856 132.5111,-61.2716"/>
</g>
<!-- Node181 -->
<g id="node18" class="node">
<title>Node181</title>
<g id="a_node18"><a xlink:href="../../d8/d42/classxla_1_1ComputationTracker.html#aca0c1f170daeface2e07357e289ae95e" target="_top" xlink:title="xla::ComputationTracker\l::ToString">
<polygon fill="#ffffff" stroke="#000000" points="158,-14.5 158,-44.5 280,-44.5 280,-14.5 158,-14.5"/>
<text text-anchor="start" x="166" y="-32.5" font-family="Helvetica,sans-Serif" font-size="10.00" fill="#000000">xla::ComputationTracker</text>
<text text-anchor="middle" x="219" y="-21.5" font-family="Helvetica,sans-Serif" font-size="10.00" fill="#000000">::ToString</text>
</a>
</g>
</g>
<!-- Node164&#45;&gt;Node181 -->
<g id="edge17" class="edge">
<title>Node164&#45;&gt;Node181</title>
<path fill="none" stroke="#191970" d="M132.0855,-42.7022C140.6732,-41.3977 149.3868,-40.0742 157.815,-38.7939"/>
<polygon fill="#191970" stroke="#191970" points="131.4479,-39.2588 122.0869,-44.221 132.4992,-46.1794 131.4479,-39.2588"/>
</g>
<!-- Node166 -->
<g id="node3" class="node">
<title>Node166</title>
<g id="a_node3"><a xlink:href="../../dc/d07/classxla_1_1CompileOnlyService.html#aceb67616a89167b9af1bf23d17ec37c9" target="_top" xlink:title="xla::CompileOnlyService\l::CompileAheadOfTime">
<polygon fill="#ffffff" stroke="#000000" points="330.5,-127.5 330.5,-157.5 455.5,-157.5 455.5,-127.5 330.5,-127.5"/>
<text text-anchor="start" x="338.5" y="-145.5" font-family="Helvetica,sans-Serif" font-size="10.00" fill="#000000">xla::CompileOnlyService</text>
<text text-anchor="middle" x="393" y="-134.5" font-family="Helvetica,sans-Serif" font-size="10.00" fill="#000000">::CompileAheadOfTime</text>
</a>
</g>
</g>
<!-- Node165&#45;&gt;Node166 -->
<g id="edge2" class="edge">
<title>Node165&#45;&gt;Node166</title>
<path fill="none" stroke="#191970" d="M265.753,-97.3361C281.639,-103.5973 299.5354,-110.4991 316,-116.5 326.075,-120.172 336.9543,-123.9553 347.2724,-127.4601"/>
<polygon fill="#191970" stroke="#191970" points="266.7385,-93.962 256.1523,-93.5342 264.1611,-100.4703 266.7385,-93.962"/>
</g>
<!-- Node172 -->
<g id="node9" class="node">
<title>Node172</title>
<g id="a_node9"><a xlink:href="../../d1/d10/classxla_1_1Service.html#aae12155f7d9a17dd6fda837a2d1189b3" target="_top" xlink:title="xla::Service::BuildExecutables">
<polygon fill="#ffffff" stroke="#000000" points="318,-88 318,-107 468,-107 468,-88 318,-88"/>
<text text-anchor="middle" x="393" y="-95" font-family="Helvetica,sans-Serif" font-size="10.00" fill="#000000">xla::Service::BuildExecutables</text>
</a>
</g>
</g>
<!-- Node165&#45;&gt;Node172 -->
<g id="edge8" class="edge">
<title>Node165&#45;&gt;Node172</title>
<path fill="none" stroke="#191970" d="M290.4405,-86.301C299.4882,-87.2889 308.7678,-88.3022 317.8708,-89.2962"/>
<polygon fill="#191970" stroke="#191970" points="290.6668,-82.805 280.3459,-85.1987 289.9068,-89.7636 290.6668,-82.805"/>
</g>
<!-- Node179 -->
<g id="node16" class="node">
<title>Node179</title>
<g id="a_node16"><a xlink:href="../../d1/d10/classxla_1_1Service.html#a18b542fa30535934fbe3f425088b6537" target="_top" xlink:title="xla::Service::ComputeConstant">
<polygon fill="#ffffff" stroke="#000000" points="316,-50 316,-69 470,-69 470,-50 316,-50"/>
<text text-anchor="middle" x="393" y="-57" font-family="Helvetica,sans-Serif" font-size="10.00" fill="#000000">xla::Service::ComputeConstant</text>
</a>
</g>
</g>
<!-- Node165&#45;&gt;Node179 -->
<g id="edge15" class="edge">
<title>Node165&#45;&gt;Node179</title>
<path fill="none" stroke="#191970" d="M290.4147,-70.7018C298.7675,-69.7898 307.3185,-68.856 315.746,-67.9358"/>
<polygon fill="#191970" stroke="#191970" points="289.9068,-67.2364 280.3459,-71.8013 290.6668,-74.195 289.9068,-67.2364"/>
</g>
<!-- Node180 -->
<g id="node17" class="node">
<title>Node180</title>
<g id="a_node17"><a xlink:href="../../d1/d10/classxla_1_1Service.html#a59107fc77e341a632ceaf179e29df9f6" target="_top" xlink:title="xla::Service::GetComputation\lStats">
<polygon fill="#ffffff" stroke="#000000" points="320,-.5 320,-30.5 466,-30.5 466,-.5 320,-.5"/>
<text text-anchor="start" x="328" y="-18.5" font-family="Helvetica,sans-Serif" font-size="10.00" fill="#000000">xla::Service::GetComputation</text>
<text text-anchor="middle" x="393" y="-7.5" font-family="Helvetica,sans-Serif" font-size="10.00" fill="#000000">Stats</text>
</a>
</g>
</g>
<!-- Node165&#45;&gt;Node180 -->
<g id="edge16" class="edge">
<title>Node165&#45;&gt;Node180</title>
<path fill="none" stroke="#191970" d="M265.7126,-59.5521C281.5957,-53.2828 299.5006,-46.4044 316,-40.5 325.3956,-37.1377 335.5023,-33.7175 345.2031,-30.53"/>
<polygon fill="#191970" stroke="#191970" points="264.1177,-56.4195 256.1151,-63.3628 266.7009,-62.9255 264.1177,-56.4195"/>
</g>
<!-- Node167 -->
<g id="node4" class="node">
<title>Node167</title>
<g id="a_node4"><a xlink:href="../../d1/dd1/classxla_1_1CompileOnlyClient.html#a5a585d21f617b77a1cecc1b587d18d7a" target="_top" xlink:title="Compiles a list of computations for ahead&#45;of&#45;time execution. This is intended for use in static compi...">
<polygon fill="#ffffff" stroke="#000000" points="518,-128.5 518,-158.5 637,-158.5 637,-128.5 518,-128.5"/>
<text text-anchor="start" x="526" y="-146.5" font-family="Helvetica,sans-Serif" font-size="10.00" fill="#000000">xla::CompileOnlyClient</text>
<text text-anchor="middle" x="577.5" y="-135.5" font-family="Helvetica,sans-Serif" font-size="10.00" fill="#000000">::CompileAheadOfTime</text>
</a>
</g>
</g>
<!-- Node166&#45;&gt;Node167 -->
<g id="edge3" class="edge">
<title>Node166&#45;&gt;Node167</title>
<path fill="none" stroke="#191970" d="M465.7416,-142.8943C482.9809,-142.9877 501.1728,-143.0863 517.7574,-143.1762"/>
<polygon fill="#191970" stroke="#191970" points="465.7396,-139.3943 455.7207,-142.8399 465.7016,-146.3942 465.7396,-139.3943"/>
</g>
<!-- Node168 -->
<g id="node5" class="node">
<title>Node168</title>
<g id="a_node5"><a xlink:href="../../d4/df4/namespacetensorflow_1_1tfcompile_1_1anonymous__namespace_02compile_8cc_03.html#a40f8a019f31fa8cbe2fff5d90e69c21b" target="_top" xlink:title="Compiles the XLA computation into executable code. ">
<polygon fill="#ffffff" stroke="#000000" points="693.5,-124 693.5,-165 822.5,-165 822.5,-124 693.5,-124"/>
<text text-anchor="start" x="701.5" y="-153" font-family="Helvetica,sans-Serif" font-size="10.00" fill="#000000">tensorflow::tfcompile</text>
<text text-anchor="start" x="701.5" y="-142" font-family="Helvetica,sans-Serif" font-size="10.00" fill="#000000">::anonymous_namespace</text>
<text text-anchor="middle" x="758" y="-131" font-family="Helvetica,sans-Serif" font-size="10.00" fill="#000000">{compile::cc}::CompileXla</text>
</a>
</g>
</g>
<!-- Node167&#45;&gt;Node168 -->
<g id="edge4" class="edge">
<title>Node167&#45;&gt;Node168</title>
<path fill="none" stroke="#191970" d="M647.4424,-143.8875C662.596,-143.9714 678.5552,-144.0599 693.4884,-144.1426"/>
<polygon fill="#191970" stroke="#191970" points="647.122,-140.3858 637.1027,-143.8302 647.0831,-147.3857 647.122,-140.3858"/>
</g>
<!-- Node169 -->
<g id="node6" class="node">
<title>Node169</title>
<g id="a_node6"><a xlink:href="../../d7/d38/namespacetensorflow_1_1tfcompile.html#a021cb1c58d938b16dcd998aa8d1fc191" target="_top" xlink:title="Converts the graph into an XLA computation, and compiles the computation. Called by tensorflow::tfcom...">
<polygon fill="#ffffff" stroke="#000000" points="882,-129.5 882,-159.5 989,-159.5 989,-129.5 882,-129.5"/>
<text text-anchor="start" x="890" y="-147.5" font-family="Helvetica,sans-Serif" font-size="10.00" fill="#000000">tensorflow::tfcompile</text>
<text text-anchor="middle" x="935.5" y="-136.5" font-family="Helvetica,sans-Serif" font-size="10.00" fill="#000000">::CompileGraph</text>
</a>
</g>
</g>
<!-- Node168&#45;&gt;Node169 -->
<g id="edge5" class="edge">
<title>Node168&#45;&gt;Node169</title>
<path fill="none" stroke="#191970" d="M832.7287,-144.5C849.193,-144.5 866.3177,-144.5 881.7587,-144.5"/>
<polygon fill="#191970" stroke="#191970" points="832.5837,-141.0001 822.5837,-144.5 832.5837,-148.0001 832.5837,-141.0001"/>
</g>
<!-- Node170 -->
<g id="node7" class="node">
<title>Node170</title>
<g id="a_node7"><a xlink:href="../../d7/d38/namespacetensorflow_1_1tfcompile.html#a460964a5bb277865d1275fe3746132c1" target="_top" xlink:title="tensorflow::tfcompile\l::Main">
<polygon fill="#ffffff" stroke="#000000" points="1040,-129.5 1040,-159.5 1147,-159.5 1147,-129.5 1040,-129.5"/>
<text text-anchor="start" x="1048" y="-147.5" font-family="Helvetica,sans-Serif" font-size="10.00" fill="#000000">tensorflow::tfcompile</text>
<text text-anchor="middle" x="1093.5" y="-136.5" font-family="Helvetica,sans-Serif" font-size="10.00" fill="#000000">::Main</text>
</a>
</g>
</g>
<!-- Node169&#45;&gt;Node170 -->
<g id="edge6" class="edge">
<title>Node169&#45;&gt;Node170</title>
<path fill="none" stroke="#191970" d="M999.5167,-144.5C1012.8898,-144.5 1026.8576,-144.5 1039.8103,-144.5"/>
<polygon fill="#191970" stroke="#191970" points="999.4328,-141.0001 989.4327,-144.5 999.4327,-148.0001 999.4328,-141.0001"/>
</g>
<!-- Node171 -->
<g id="node8" class="node">
<title>Node171</title>
<g id="a_node8"><a xlink:href="../../d4/d8d/tfcompile__main_8cc.html#a3c04138a5bfe5d72780bb7e82a18e627" target="_top" xlink:title="main">
<polygon fill="#ffffff" stroke="#000000" points="1183,-135 1183,-154 1221,-154 1221,-135 1183,-135"/>
<text text-anchor="middle" x="1202" y="-142" font-family="Helvetica,sans-Serif" font-size="10.00" fill="#000000">main</text>
</a>
</g>
</g>
<!-- Node170&#45;&gt;Node171 -->
<g id="edge7" class="edge">
<title>Node170&#45;&gt;Node171</title>
<path fill="none" stroke="#191970" d="M1157.2814,-144.5C1166.5615,-144.5 1175.4574,-144.5 1182.8366,-144.5"/>
<polygon fill="#191970" stroke="#191970" points="1157.1143,-141.0001 1147.1143,-144.5 1157.1142,-148.0001 1157.1143,-141.0001"/>
</g>
<!-- Node173 -->
<g id="node10" class="node">
<title>Node173</title>
<g id="a_node10"><a xlink:href="../../d1/d10/classxla_1_1Service.html#aa0f93c81ca82a50f0ff7f044745bf227" target="_top" xlink:title="xla::Service::ExecuteParallel">
<polygon fill="#ffffff" stroke="#000000" points="506,-88 506,-107 649,-107 649,-88 506,-88"/>
<text text-anchor="middle" x="577.5" y="-95" font-family="Helvetica,sans-Serif" font-size="10.00" fill="#000000">xla::Service::ExecuteParallel</text>
</a>
</g>
</g>
<!-- Node172&#45;&gt;Node173 -->
<g id="edge9" class="edge">
<title>Node172&#45;&gt;Node173</title>
<path fill="none" stroke="#191970" d="M478.0549,-97.5C487.3332,-97.5 496.7092,-97.5 505.8043,-97.5"/>
<polygon fill="#191970" stroke="#191970" points="478.0432,-94.0001 468.0432,-97.5 478.0432,-101.0001 478.0432,-94.0001"/>
</g>
<!-- Node177 -->
<g id="node14" class="node">
<title>Node177</title>
<g id="a_node14"><a xlink:href="../../d1/d10/classxla_1_1Service.html#ae6f727fa681c065fc529a422a83f9133" target="_top" xlink:title="xla::Service::ExecuteGraph\lParallel">
<polygon fill="#ffffff" stroke="#000000" points="509,-38.5 509,-68.5 646,-68.5 646,-38.5 509,-38.5"/>
<text text-anchor="start" x="517" y="-56.5" font-family="Helvetica,sans-Serif" font-size="10.00" fill="#000000">xla::Service::ExecuteGraph</text>
<text text-anchor="middle" x="577.5" y="-45.5" font-family="Helvetica,sans-Serif" font-size="10.00" fill="#000000">Parallel</text>
</a>
</g>
</g>
<!-- Node172&#45;&gt;Node177 -->
<g id="edge13" class="edge">
<title>Node172&#45;&gt;Node177</title>
<path fill="none" stroke="#191970" d="M442.832,-85.616C464.842,-80.3669 490.9704,-74.1358 514.3282,-68.5654"/>
<polygon fill="#191970" stroke="#191970" points="441.949,-82.2283 433.0338,-87.9527 443.5729,-89.0373 441.949,-82.2283"/>
</g>
<!-- Node174 -->
<g id="node11" class="node">
<title>Node174</title>
<g id="a_node11"><a xlink:href="../../d1/d10/classxla_1_1Service.html#a170f36c8fd2b964f57d00d9b720c6912" target="_top" xlink:title="xla::Service::ExecuteOneToN">
<polygon fill="#ffffff" stroke="#000000" points="685,-86 685,-105 831,-105 831,-86 685,-86"/>
<text text-anchor="middle" x="758" y="-93" font-family="Helvetica,sans-Serif" font-size="10.00" fill="#000000">xla::Service::ExecuteOneToN</text>
</a>
</g>
</g>
<!-- Node173&#45;&gt;Node174 -->
<g id="edge10" class="edge">
<title>Node173&#45;&gt;Node174</title>
<path fill="none" stroke="#191970" d="M659.3445,-96.5931C667.802,-96.4994 676.3588,-96.4046 684.7144,-96.312"/>
<polygon fill="#191970" stroke="#191970" points="659.0582,-93.096 649.0976,-96.7067 659.1358,-100.0956 659.0582,-93.096"/>
</g>
<!-- Node175 -->
<g id="node12" class="node">
<title>Node175</title>
<g id="a_node12"><a xlink:href="../../d1/d10/classxla_1_1Service.html#ac3f89822d1f6faab8382f1902e54eea3" target="_top" xlink:title="xla::Service::Execute">
<polygon fill="#ffffff" stroke="#000000" points="880.5,-88 880.5,-107 990.5,-107 990.5,-88 880.5,-88"/>
<text text-anchor="middle" x="935.5" y="-95" font-family="Helvetica,sans-Serif" font-size="10.00" fill="#000000">xla::Service::Execute</text>
</a>
</g>
</g>
<!-- Node174&#45;&gt;Node175 -->
<g id="edge11" class="edge">
<title>Node174&#45;&gt;Node175</title>
<path fill="none" stroke="#191970" d="M841.3011,-96.4386C854.5501,-96.5879 867.9617,-96.739 880.3488,-96.8786"/>
<polygon fill="#191970" stroke="#191970" points="841.2597,-92.938 831.2208,-96.325 841.1807,-99.9376 841.2597,-92.938"/>
</g>
<!-- Node176 -->
<g id="node13" class="node">
<title>Node176</title>
<g id="a_node13"><a xlink:href="../../d1/d10/classxla_1_1Service.html#a6d2eb2712a109ab9484080dfd1e2e446" target="_top" xlink:title="xla::Service::ExecuteGraph">
<polygon fill="#ffffff" stroke="#000000" points="867,-50 867,-69 1004,-69 1004,-50 867,-50"/>
<text text-anchor="middle" x="935.5" y="-57" font-family="Helvetica,sans-Serif" font-size="10.00" fill="#000000">xla::Service::ExecuteGraph</text>
</a>
</g>
</g>
<!-- Node174&#45;&gt;Node176 -->
<g id="edge12" class="edge">
<title>Node174&#45;&gt;Node176</title>
<path fill="none" stroke="#191970" d="M815.0284,-83.9337C838.7455,-79.1235 865.9428,-73.6074 888.4874,-69.0349"/>
<polygon fill="#191970" stroke="#191970" points="814.2055,-80.5292 805.1007,-85.9472 815.5969,-87.3896 814.2055,-80.5292"/>
</g>
<!-- Node178 -->
<g id="node15" class="node">
<title>Node178</title>
<g id="a_node15"><a xlink:href="../../d1/d10/classxla_1_1Service.html#a11604b813ba3e3208b2bda70f0f02f0d" target="_top" xlink:title="xla::Service::ExecuteOneToN">
<polygon fill="#ffffff" stroke="#000000" points="685,-44 685,-63 831,-63 831,-44 685,-44"/>
<text text-anchor="middle" x="758" y="-51" font-family="Helvetica,sans-Serif" font-size="10.00" fill="#000000">xla::Service::ExecuteOneToN</text>
</a>
</g>
</g>
<!-- Node177&#45;&gt;Node178 -->
<g id="edge14" class="edge">
<title>Node177&#45;&gt;Node178</title>
<path fill="none" stroke="#191970" d="M656.4434,-53.5C665.9129,-53.5 675.5512,-53.5 684.9323,-53.5"/>
<polygon fill="#191970" stroke="#191970" points="656.2543,-50.0001 646.2542,-53.5 656.2542,-57.0001 656.2543,-50.0001"/>
</g>
</g>
</svg>
