<?xml version="1.0" encoding="UTF-8" standalone="no"?>
<!DOCTYPE svg PUBLIC "-//W3C//DTD SVG 1.1//EN"
 "http://www.w3.org/Graphics/SVG/1.1/DTD/svg11.dtd">
<!-- Generated by graphviz version 2.40.1 (20161225.0304)
 -->
<!-- Title: xla::ComputationTracker::LoadSessionComputation Pages: 1 -->
<svg width="300pt" height="88pt"
 viewBox="0.00 0.00 300.00 88.00" xmlns="http://www.w3.org/2000/svg" xmlns:xlink="http://www.w3.org/1999/xlink">
<g id="graph0" class="graph" transform="scale(1 1) rotate(0) translate(4 84)">
<title>xla::ComputationTracker::LoadSessionComputation</title>
<polygon fill="#ffffff" stroke="transparent" points="-4,4 -4,-84 296,-84 296,4 -4,4"/>
<!-- Node63 -->
<g id="node1" class="node">
<title>Node63</title>
<polygon fill="#bfbfbf" stroke="#000000" points="0,-24.5 0,-54.5 134,-54.5 134,-24.5 0,-24.5"/>
<text text-anchor="start" x="8" y="-42.5" font-family="Helvetica,sans-Serif" font-size="10.00" fill="#000000">xla::ComputationTracker</text>
<text text-anchor="middle" x="67" y="-31.5" font-family="Helvetica,sans-Serif" font-size="10.00" fill="#000000">::LoadSessionComputation</text>
</g>
<!-- Node64 -->
<g id="node2" class="node">
<title>Node64</title>
<g id="a_node2"><a xlink:href="../../d8/d42/classxla_1_1ComputationTracker.html#a8115675a257ad818b64fbee5f3adcaa6" target="_top" xlink:title="xla::ComputationTracker\l::AllocateHandle">
<polygon fill="#ffffff" stroke="#000000" points="170,-49.5 170,-79.5 292,-79.5 292,-49.5 170,-49.5"/>
<text text-anchor="start" x="178" y="-67.5" font-family="Helvetica,sans-Serif" font-size="10.00" fill="#000000">xla::ComputationTracker</text>
<text text-anchor="middle" x="231" y="-56.5" font-family="Helvetica,sans-Serif" font-size="10.00" fill="#000000">::AllocateHandle</text>
</a>
</g>
</g>
<!-- Node63&#45;&gt;Node64 -->
<g id="edge1" class="edge">
<title>Node63&#45;&gt;Node64</title>
<path fill="none" stroke="#191970" d="M134.1783,-49.7406C142.6979,-51.0393 151.4384,-52.3717 160.0152,-53.6791"/>
<polygon fill="#191970" stroke="#191970" points="159.572,-57.1519 169.9853,-55.199 160.6269,-50.2319 159.572,-57.1519"/>
</g>
<!-- Node65 -->
<g id="node3" class="node">
<title>Node65</title>
<g id="a_node3"><a xlink:href="../../db/dbb/classxla_1_1UserComputation.html#acdf232b23be5ffe3f83a248d394558aa" target="_top" xlink:title="xla::UserComputation\l::MakeWithRemapping">
<polygon fill="#ffffff" stroke="#000000" points="173,-.5 173,-30.5 289,-30.5 289,-.5 173,-.5"/>
<text text-anchor="start" x="181" y="-18.5" font-family="Helvetica,sans-Serif" font-size="10.00" fill="#000000">xla::UserComputation</text>
<text text-anchor="middle" x="231" y="-7.5" font-family="Helvetica,sans-Serif" font-size="10.00" fill="#000000">::MakeWithRemapping</text>
</a>
</g>
</g>
<!-- Node63&#45;&gt;Node65 -->
<g id="edge2" class="edge">
<title>Node63&#45;&gt;Node65</title>
<path fill="none" stroke="#191970" d="M134.1783,-29.669C143.5977,-28.2906 153.2871,-26.8726 162.7267,-25.4912"/>
<polygon fill="#191970" stroke="#191970" points="163.4592,-28.9214 172.847,-24.0102 162.4456,-21.9952 163.4592,-28.9214"/>
</g>
</g>
</svg>
