<?xml version="1.0" encoding="UTF-8" standalone="no"?>
<!DOCTYPE svg PUBLIC "-//W3C//DTD SVG 1.1//EN"
 "http://www.w3.org/Graphics/SVG/1.1/DTD/svg11.dtd">
<!-- Generated by graphviz version 2.38.0 (20140413.2041)
 -->
<!-- Title: tensorflow/tensorflow/compiler/tf2xla/xla_op_registry.h Pages: 1 -->
<!--zoomable 117 -->
<svg id="main" version="1.1" xmlns="http://www.w3.org/2000/svg" xmlns:xlink="http://www.w3.org/1999/xlink" xml:space="preserve" onload="init(evt)">
<style type="text/css"><![CDATA[
.edge:hover path { stroke: red; }
.edge:hover polygon { stroke: red; fill: red; }
]]></style>
<script type="text/javascript"><![CDATA[
var edges = document.getElementsByTagName('g');
if (edges && edges.length) {
  for (var i=0;i<edges.length;i++) {
    if (edges[i].id.substr(0,4)=='edge') {
      edges[i].setAttribute('class','edge');
    }
  }
}
]]></script>
        <defs>
                <circle id="rim" cx="0" cy="0" r="7"/>
                <circle id="rim2" cx="0" cy="0" r="3.5"/>
                <g id="zoomPlus">
                        <use xlink:href="#rim" fill="#404040">
                                <set attributeName="fill" to="#808080" begin="zoomplus.mouseover" end="zoomplus.mouseout"/>
                        </use>
                        <path d="M-4,0h8M0,-4v8" fill="none" stroke="white" stroke-width="1.5" pointer-events="none"/>
                </g>
                <g id="zoomMin">
                        <use xlink:href="#rim" fill="#404040">
                                <set attributeName="fill" to="#808080" begin="zoomminus.mouseover" end="zoomminus.mouseout"/>
                        </use>
                        <path d="M-4,0h8" fill="none" stroke="white" stroke-width="1.5" pointer-events="none"/>
                </g>
                <g id="dirArrow">
                        <path fill="none" stroke="white" stroke-width="1.5" d="M0,-3.0v7 M-2.5,-0.5L0,-3.0L2.5,-0.5"/>
                </g>
               <g id="resetDef">
                       <use xlink:href="#rim2" fill="#404040">
                               <set attributeName="fill" to="#808080" begin="reset.mouseover" end="reset.mouseout"/>
                       </use>
               </g>
        </defs>

<script type="text/javascript">
var viewWidth = 1754;
var viewHeight = 117;
var sectionId = 'dynsection-0';
</script>
<script xlink:href="../../svgpan.js"/>
<svg id="graph" class="graph">
<g id="viewport">
<title>tensorflow/tensorflow/compiler/tf2xla/xla_op_registry.h</title>
<polygon fill="white" stroke="none" points="-4,4 -4,-113 1749.5,-113 1749.5,4 -4,4"/>
<!-- Node1 -->
<g id="node1" class="node"><title>Node1</title>
<polygon fill="#bfbfbf" stroke="black" points="660.5,-67.5 660.5,-108.5 770.5,-108.5 770.5,-67.5 660.5,-67.5"/>
<text text-anchor="start" x="668.5" y="-96.5" font-family="Helvetica,sans-Serif" font-size="10.00">tensorflow/tensorflow</text>
<text text-anchor="start" x="668.5" y="-85.5" font-family="Helvetica,sans-Serif" font-size="10.00">/compiler/tf2xla/xla</text>
<text text-anchor="middle" x="715.5" y="-74.5" font-family="Helvetica,sans-Serif" font-size="10.00">_op_registry.h</text>
</g>
<!-- Node2 -->
<g id="node2" class="node"><title>Node2</title>
<polygon fill="white" stroke="#bfbfbf" points="0,-6 0,-25 59,-25 59,-6 0,-6"/>
<text text-anchor="middle" x="29.5" y="-13" font-family="Helvetica,sans-Serif" font-size="10.00">functional</text>
</g>
<!-- Node1&#45;&gt;Node2 -->
<g id="edge1" class="edge"><title>Node1&#45;&gt;Node2</title>
<path fill="none" stroke="midnightblue" d="M660.205,-87.1963C547.472,-86.5113 283.551,-79.3489 68.5,-31 65.4276,-30.3093 62.2707,-29.4333 59.1471,-28.4552"/>
<polygon fill="midnightblue" stroke="midnightblue" points="60.0222,-25.0542 49.4274,-25.0848 57.7288,-31.6679 60.0222,-25.0542"/>
</g>
<!-- Node3 -->
<g id="node3" class="node"><title>Node3</title>
<polygon fill="white" stroke="#bfbfbf" points="77.5,-6 77.5,-25 129.5,-25 129.5,-6 77.5,-6"/>
<text text-anchor="middle" x="103.5" y="-13" font-family="Helvetica,sans-Serif" font-size="10.00">memory</text>
</g>
<!-- Node1&#45;&gt;Node3 -->
<g id="edge2" class="edge"><title>Node1&#45;&gt;Node3</title>
<path fill="none" stroke="midnightblue" d="M660.496,-87.0297C556.801,-85.9125 325.978,-77.8251 138.5,-31 135.987,-30.3724 133.42,-29.5949 130.873,-28.7284"/>
<polygon fill="midnightblue" stroke="midnightblue" points="131.91,-25.3777 121.32,-25.0743 129.409,-31.9158 131.91,-25.3777"/>
</g>
<!-- Node4 -->
<g id="node4" class="node"><title>Node4</title>
<polygon fill="white" stroke="#bfbfbf" points="147.5,-6 147.5,-25 177.5,-25 177.5,-6 147.5,-6"/>
<text text-anchor="middle" x="162.5" y="-13" font-family="Helvetica,sans-Serif" font-size="10.00">set</text>
</g>
<!-- Node1&#45;&gt;Node4 -->
<g id="edge3" class="edge"><title>Node1&#45;&gt;Node4</title>
<path fill="none" stroke="midnightblue" d="M660.131,-84.192C542.898,-77.7518 273.268,-60.1855 186.5,-31 185.612,-30.7012 184.721,-30.3654 183.834,-29.9998"/>
<polygon fill="midnightblue" stroke="midnightblue" points="185.186,-26.7586 174.696,-25.2733 181.97,-32.9762 185.186,-26.7586"/>
</g>
<!-- Node5 -->
<g id="node5" class="node"><title>Node5</title>
<polygon fill="white" stroke="#bfbfbf" points="196,-6 196,-25 279,-25 279,-6 196,-6"/>
<text text-anchor="middle" x="237.5" y="-13" font-family="Helvetica,sans-Serif" font-size="10.00">unordered_map</text>
</g>
<!-- Node1&#45;&gt;Node5 -->
<g id="edge4" class="edge"><title>Node1&#45;&gt;Node5</title>
<path fill="none" stroke="midnightblue" d="M660.473,-82.3844C578.733,-74.9428 420.664,-58.3009 288.5,-31 284.018,-30.0742 279.353,-28.961 274.746,-27.7682"/>
<polygon fill="midnightblue" stroke="midnightblue" points="275.412,-24.3224 264.844,-25.0717 273.573,-31.0764 275.412,-24.3224"/>
</g>
<!-- Node6 -->
<g id="node6" class="node"><title>Node6</title>
<polygon fill="white" stroke="#bfbfbf" points="297.5,-6 297.5,-25 341.5,-25 341.5,-6 297.5,-6"/>
<text text-anchor="middle" x="319.5" y="-13" font-family="Helvetica,sans-Serif" font-size="10.00">vector</text>
</g>
<!-- Node1&#45;&gt;Node6 -->
<g id="edge5" class="edge"><title>Node1&#45;&gt;Node6</title>
<path fill="none" stroke="midnightblue" d="M660.309,-83.4473C587.873,-77.6797 457.389,-63.4653 350.5,-31 348.624,-30.4302 346.716,-29.7663 344.817,-29.0421"/>
<polygon fill="midnightblue" stroke="midnightblue" points="346.135,-25.7994 335.565,-25.0746 343.376,-32.2328 346.135,-25.7994"/>
</g>
<!-- Node7 -->
<g id="node7" class="node"><title>Node7</title>
<polygon fill="white" stroke="#bfbfbf" points="360,-0.5 360,-30.5 489,-30.5 489,-0.5 360,-0.5"/>
<text text-anchor="start" x="368" y="-18.5" font-family="Helvetica,sans-Serif" font-size="10.00">tensorflow/core/common</text>
<text text-anchor="middle" x="424.5" y="-7.5" font-family="Helvetica,sans-Serif" font-size="10.00">_runtime/device_factory.h</text>
</g>
<!-- Node1&#45;&gt;Node7 -->
<g id="edge6" class="edge"><title>Node1&#45;&gt;Node7</title>
<path fill="none" stroke="midnightblue" d="M660.423,-73.6566C612.69,-62.0925 543.447,-45.317 492.314,-32.9292"/>
<polygon fill="midnightblue" stroke="midnightblue" points="492.884,-29.466 482.341,-30.513 491.236,-36.2692 492.884,-29.466"/>
</g>
<!-- Node8 -->
<g id="node8" class="node"><title>Node8</title>
<polygon fill="white" stroke="#bfbfbf" points="507.5,-0.5 507.5,-30.5 631.5,-30.5 631.5,-0.5 507.5,-0.5"/>
<text text-anchor="start" x="515.5" y="-18.5" font-family="Helvetica,sans-Serif" font-size="10.00">tensorflow/core/common</text>
<text text-anchor="middle" x="569.5" y="-7.5" font-family="Helvetica,sans-Serif" font-size="10.00">_runtime/local_device.h</text>
</g>
<!-- Node1&#45;&gt;Node8 -->
<g id="edge7" class="edge"><title>Node1&#45;&gt;Node8</title>
<path fill="none" stroke="midnightblue" d="M674.831,-67.3618C653.904,-57.2569 628.536,-45.0071 607.939,-35.0615"/>
<polygon fill="midnightblue" stroke="midnightblue" points="609.372,-31.8666 598.845,-30.67 606.328,-38.1702 609.372,-31.8666"/>
</g>
<!-- Node9 -->
<g id="node9" class="node"><title>Node9</title>
<polygon fill="white" stroke="#bfbfbf" points="649.5,-0.5 649.5,-30.5 781.5,-30.5 781.5,-0.5 649.5,-0.5"/>
<text text-anchor="start" x="657.5" y="-18.5" font-family="Helvetica,sans-Serif" font-size="10.00">tensorflow/core/framework</text>
<text text-anchor="middle" x="715.5" y="-7.5" font-family="Helvetica,sans-Serif" font-size="10.00">/device_base.h</text>
</g>
<!-- Node1&#45;&gt;Node9 -->
<g id="edge8" class="edge"><title>Node1&#45;&gt;Node9</title>
<path fill="none" stroke="midnightblue" d="M715.5,-67.3618C715.5,-59.226 715.5,-49.6997 715.5,-41.105"/>
<polygon fill="midnightblue" stroke="midnightblue" points="719,-40.8916 715.5,-30.8916 712,-40.8916 719,-40.8916"/>
</g>
<!-- Node10 -->
<g id="node10" class="node"><title>Node10</title>
<polygon fill="white" stroke="#bfbfbf" points="799.5,-0.5 799.5,-30.5 931.5,-30.5 931.5,-0.5 799.5,-0.5"/>
<text text-anchor="start" x="807.5" y="-18.5" font-family="Helvetica,sans-Serif" font-size="10.00">tensorflow/core/framework</text>
<text text-anchor="middle" x="865.5" y="-7.5" font-family="Helvetica,sans-Serif" font-size="10.00">/tensor.h</text>
</g>
<!-- Node1&#45;&gt;Node10 -->
<g id="edge9" class="edge"><title>Node1&#45;&gt;Node10</title>
<path fill="none" stroke="midnightblue" d="M757.283,-67.3618C778.88,-57.2114 805.081,-44.8967 826.293,-34.9272"/>
<polygon fill="midnightblue" stroke="midnightblue" points="827.79,-38.0913 835.351,-30.67 824.812,-31.7561 827.79,-38.0913"/>
</g>
<!-- Node11 -->
<g id="node11" class="node"><title>Node11</title>
<polygon fill="white" stroke="#bfbfbf" points="949.5,-0.5 949.5,-30.5 1081.5,-30.5 1081.5,-0.5 949.5,-0.5"/>
<text text-anchor="start" x="957.5" y="-18.5" font-family="Helvetica,sans-Serif" font-size="10.00">tensorflow/core/framework</text>
<text text-anchor="middle" x="1015.5" y="-7.5" font-family="Helvetica,sans-Serif" font-size="10.00">/types.pb.h</text>
</g>
<!-- Node1&#45;&gt;Node11 -->
<g id="edge10" class="edge"><title>Node1&#45;&gt;Node11</title>
<path fill="none" stroke="midnightblue" d="M770.525,-74.0692C819.788,-62.4924 892.269,-45.4594 945.615,-32.9229"/>
<polygon fill="midnightblue" stroke="midnightblue" points="946.746,-36.2526 955.68,-30.5577 945.145,-29.4382 946.746,-36.2526"/>
</g>
<!-- Node12 -->
<g id="node12" class="node"><title>Node12</title>
<polygon fill="white" stroke="#bfbfbf" points="1099.5,-0.5 1099.5,-30.5 1195.5,-30.5 1195.5,-0.5 1099.5,-0.5"/>
<text text-anchor="start" x="1107.5" y="-18.5" font-family="Helvetica,sans-Serif" font-size="10.00">tensorflow/core/lib</text>
<text text-anchor="middle" x="1147.5" y="-7.5" font-family="Helvetica,sans-Serif" font-size="10.00">/core/status.h</text>
</g>
<!-- Node1&#45;&gt;Node12 -->
<g id="edge11" class="edge"><title>Node1&#45;&gt;Node12</title>
<path fill="none" stroke="midnightblue" d="M770.767,-80.5186C842.174,-71.7518 970.473,-54.6702 1089.37,-31.1079"/>
<polygon fill="midnightblue" stroke="midnightblue" points="1090.26,-34.5001 1099.38,-29.1054 1088.88,-27.6363 1090.26,-34.5001"/>
</g>
<!-- Node13 -->
<g id="node13" class="node"><title>Node13</title>
<polygon fill="white" stroke="#bfbfbf" points="1213.5,-0.5 1213.5,-30.5 1335.5,-30.5 1335.5,-0.5 1213.5,-0.5"/>
<text text-anchor="start" x="1221.5" y="-18.5" font-family="Helvetica,sans-Serif" font-size="10.00">tensorflow/core/platform</text>
<text text-anchor="middle" x="1274.5" y="-7.5" font-family="Helvetica,sans-Serif" font-size="10.00">/mem.h</text>
</g>
<!-- Node1&#45;&gt;Node13 -->
<g id="edge12" class="edge"><title>Node1&#45;&gt;Node13</title>
<path fill="none" stroke="midnightblue" d="M770.722,-82.3131C859.682,-74.4039 1040.38,-56.8578 1203.27,-31.1068"/>
<polygon fill="midnightblue" stroke="midnightblue" points="1204.15,-34.5103 1213.48,-29.4786 1203.05,-27.5977 1204.15,-34.5103"/>
</g>
<!-- Node14 -->
<g id="node14" class="node"><title>Node14</title>
<polygon fill="white" stroke="#bfbfbf" points="1353.5,-0.5 1353.5,-30.5 1475.5,-30.5 1475.5,-0.5 1353.5,-0.5"/>
<text text-anchor="start" x="1361.5" y="-18.5" font-family="Helvetica,sans-Serif" font-size="10.00">tensorflow/core/platform</text>
<text text-anchor="middle" x="1414.5" y="-7.5" font-family="Helvetica,sans-Serif" font-size="10.00">/mutex.h</text>
</g>
<!-- Node1&#45;&gt;Node14 -->
<g id="edge13" class="edge"><title>Node1&#45;&gt;Node14</title>
<path fill="none" stroke="midnightblue" d="M770.862,-84.2243C879.047,-78.333 1126.19,-62.5794 1343.49,-31.0357"/>
<polygon fill="midnightblue" stroke="midnightblue" points="1344.1,-34.4836 1353.49,-29.5701 1343.09,-27.5577 1344.1,-34.4836"/>
</g>
<!-- Node15 -->
<g id="node15" class="node"><title>Node15</title>
<polygon fill="white" stroke="#bfbfbf" points="1493.5,-0.5 1493.5,-30.5 1615.5,-30.5 1615.5,-0.5 1493.5,-0.5"/>
<text text-anchor="start" x="1501.5" y="-18.5" font-family="Helvetica,sans-Serif" font-size="10.00">tensorflow/core/platform</text>
<text text-anchor="middle" x="1554.5" y="-7.5" font-family="Helvetica,sans-Serif" font-size="10.00">/thread_annotations.h</text>
</g>
<!-- Node1&#45;&gt;Node15 -->
<g id="edge14" class="edge"><title>Node1&#45;&gt;Node15</title>
<path fill="none" stroke="midnightblue" d="M770.778,-85.4687C895.984,-81.4634 1210.87,-68.3713 1483.41,-31.0243"/>
<polygon fill="midnightblue" stroke="midnightblue" points="1484.07,-34.4666 1493.5,-29.6286 1483.11,-27.5327 1484.07,-34.4666"/>
</g>
<!-- Node16 -->
<g id="node16" class="node"><title>Node16</title>
<polygon fill="white" stroke="#bfbfbf" points="1633.5,-0.5 1633.5,-30.5 1745.5,-30.5 1745.5,-0.5 1633.5,-0.5"/>
<text text-anchor="start" x="1641.5" y="-18.5" font-family="Helvetica,sans-Serif" font-size="10.00">tensorflow/core/public</text>
<text text-anchor="middle" x="1689.5" y="-7.5" font-family="Helvetica,sans-Serif" font-size="10.00">/session_options.h</text>
</g>
<!-- Node1&#45;&gt;Node16 -->
<g id="edge15" class="edge"><title>Node1&#45;&gt;Node16</title>
<path fill="none" stroke="midnightblue" d="M770.623,-86.6285C911.322,-85.0335 1295.19,-76.6227 1623.06,-31.0517"/>
<polygon fill="midnightblue" stroke="midnightblue" points="1623.81,-34.48 1633.23,-29.6234 1622.84,-27.5481 1623.81,-34.48"/>
</g>
</g>
</svg>
        <g id="navigator" transform="translate(0 0)" fill="#404254">
                <rect fill="#f2f5e9" fill-opacity="0.5" stroke="#606060" stroke-width=".5" x="0" y="0" width="60" height="60"/>
                <use id="zoomplus" xlink:href="#zoomPlus" x="17" y="9" onmousedown="handleZoom(evt,'in')"/>
                <use id="zoomminus" xlink:href="#zoomMin" x="42" y="9" onmousedown="handleZoom(evt,'out')"/>
                <use id="reset" xlink:href="#resetDef" x="30" y="36" onmousedown="handleReset()"/>
                <g id="arrowUp" xlink:href="#dirArrow" transform="translate(30 24)" onmousedown="handlePan(0,-1)">
                  <use xlink:href="#rim" fill="#404040">
                        <set attributeName="fill" to="#808080" begin="arrowUp.mouseover" end="arrowUp.mouseout"/>
                  </use>
                  <path fill="none" stroke="white" stroke-width="1.5" d="M0,-3.0v7 M-2.5,-0.5L0,-3.0L2.5,-0.5"/>
                </g>
                <g id="arrowRight" xlink:href="#dirArrow" transform="rotate(90) translate(36 -43)" onmousedown="handlePan(1,0)">
                  <use xlink:href="#rim" fill="#404040">
                        <set attributeName="fill" to="#808080" begin="arrowRight.mouseover" end="arrowRight.mouseout"/>
                  </use>
                  <path fill="none" stroke="white" stroke-width="1.5" d="M0,-3.0v7 M-2.5,-0.5L0,-3.0L2.5,-0.5"/>
                </g>
                <g id="arrowDown" xlink:href="#dirArrow" transform="rotate(180) translate(-30 -48)" onmousedown="handlePan(0,1)">
                  <use xlink:href="#rim" fill="#404040">
                        <set attributeName="fill" to="#808080" begin="arrowDown.mouseover" end="arrowDown.mouseout"/>
                  </use>
                  <path fill="none" stroke="white" stroke-width="1.5" d="M0,-3.0v7 M-2.5,-0.5L0,-3.0L2.5,-0.5"/>
                </g>
                <g id="arrowLeft" xlink:href="#dirArrow" transform="rotate(270) translate(-36 17)" onmousedown="handlePan(-1,0)">
                  <use xlink:href="#rim" fill="#404040">
                        <set attributeName="fill" to="#808080" begin="arrowLeft.mouseover" end="arrowLeft.mouseout"/>
                  </use>
                  <path fill="none" stroke="white" stroke-width="1.5" d="M0,-3.0v7 M-2.5,-0.5L0,-3.0L2.5,-0.5"/>
                </g>
        </g>
        <svg viewBox="0 0 15 15" width="100%" height="30px" preserveAspectRatio="xMaxYMin meet">
         <g id="arrow_out" transform="scale(0.3 0.3)">
          <a xlink:href="xla__op__registry_8h__incl_org.svg" target="_base">
           <rect id="button" ry="5" rx="5" y="6" x="6" height="38" width="38"
                fill="#f2f5e9" fill-opacity="0.5" stroke="#606060" stroke-width="1.0"/>
           <path id="arrow"
             d="M 11.500037,31.436501 C 11.940474,20.09759 22.043105,11.32322 32.158766,21.979434 L 37.068811,17.246167 C 37.068811,17.246167 37.088388,32 37.088388,32 L 22.160133,31.978069 C 22.160133,31.978069 26.997745,27.140456 26.997745,27.140456 C 18.528582,18.264221 13.291696,25.230495 11.500037,31.436501 z"
             style="fill:#404040;"/>
          </a>
         </g>
        </svg>
</svg>
