<?xml version="1.0" encoding="UTF-8" standalone="no"?>
<!DOCTYPE svg PUBLIC "-//W3C//DTD SVG 1.1//EN"
 "http://www.w3.org/Graphics/SVG/1.1/DTD/svg11.dtd">
<!-- Generated by graphviz version 2.40.1 (20161225.0304)
 -->
<!-- Title: tensorflow/tensorflow/compiler/tf2xla/xla_op_registry.h Pages: 1 -->
<!--zoomable 112 -->
<svg id="main" version="1.1" xmlns="http://www.w3.org/2000/svg" xmlns:xlink="http://www.w3.org/1999/xlink" xml:space="preserve" onload="init(evt)">
<style type="text/css"><![CDATA[
.edge:hover path { stroke: red; }
.edge:hover polygon { stroke: red; fill: red; }
]]></style>
<script type="text/javascript"><![CDATA[
var edges = document.getElementsByTagName('g');
if (edges && edges.length) {
  for (var i=0;i<edges.length;i++) {
    if (edges[i].id.substr(0,4)=='edge') {
      edges[i].setAttribute('class','edge');
    }
  }
}
]]></script>
        <defs>
                <circle id="rim" cx="0" cy="0" r="7"/>
                <circle id="rim2" cx="0" cy="0" r="3.5"/>
                <g id="zoomPlus">
                        <use xlink:href="#rim" fill="#404040">
                                <set attributeName="fill" to="#808080" begin="zoomplus.mouseover" end="zoomplus.mouseout"/>
                        </use>
                        <path d="M-4,0h8M0,-4v8" fill="none" stroke="white" stroke-width="1.5" pointer-events="none"/>
                </g>
                <g id="zoomMin">
                        <use xlink:href="#rim" fill="#404040">
                                <set attributeName="fill" to="#808080" begin="zoomminus.mouseover" end="zoomminus.mouseout"/>
                        </use>
                        <path d="M-4,0h8" fill="none" stroke="white" stroke-width="1.5" pointer-events="none"/>
                </g>
                <g id="dirArrow">
                        <path fill="none" stroke="white" stroke-width="1.5" d="M0,-3.0v7 M-2.5,-0.5L0,-3.0L2.5,-0.5"/>
                </g>
               <g id="resetDef">
                       <use xlink:href="#rim2" fill="#404040">
                               <set attributeName="fill" to="#808080" begin="reset.mouseover" end="reset.mouseout"/>
                       </use>
               </g>
        </defs>

<script type="text/javascript">
var viewWidth = 1762;
var viewHeight = 112;
var sectionId = 'dynsection-0';
</script>
<script xlink:href="../../svgpan.js"/>
<svg id="graph" class="graph">
<g id="viewport">
<title>tensorflow/tensorflow/compiler/tf2xla/xla_op_registry.h</title>
<polygon fill="#ffffff" stroke="transparent" points="-4,4 -4,-108 1757.7607,-108 1757.7607,4 -4,4"/>
<!-- Node0 -->
<g id="node1" class="node">
<title>Node0</title>
<polygon fill="#bfbfbf" stroke="#000000" points="661.4385,-65.5 661.4385,-103.5 771.3691,-103.5 771.3691,-65.5 661.4385,-65.5"/>
<text text-anchor="start" x="669.4385" y="-91.5" font-family="Helvetica,sans-Serif" font-size="10.00" fill="#000000">tensorflow/tensorflow</text>
<text text-anchor="start" x="669.4385" y="-81.5" font-family="Helvetica,sans-Serif" font-size="10.00" fill="#000000">/compiler/tf2xla/xla</text>
<text text-anchor="middle" x="716.4038" y="-71.5" font-family="Helvetica,sans-Serif" font-size="10.00" fill="#000000">_op_registry.h</text>
</g>
<!-- Node1 -->
<g id="node2" class="node">
<title>Node1</title>
<polygon fill="#ffffff" stroke="#bfbfbf" points="0,-5.5 0,-23.5 58.8076,-23.5 58.8076,-5.5 0,-5.5"/>
<text text-anchor="middle" x="29.4038" y="-11.5" font-family="Helvetica,sans-Serif" font-size="10.00" fill="#000000">functional</text>
</g>
<!-- Node0&#45;&gt;Node1 -->
<g id="edge1" class="edge">
<title>Node0&#45;&gt;Node1</title>
<path fill="none" stroke="#191970" d="M661.3652,-81.7706C526.0512,-74.7429 179.9829,-54.7568 67.4038,-29 64.7838,-28.4006 62.1029,-27.6589 59.4371,-26.8304"/>
<polygon fill="#191970" stroke="#191970" points="60.5793,-23.5221 49.9845,-23.5496 58.284,-30.1351 60.5793,-23.5221"/>
</g>
<!-- Node2 -->
<g id="node3" class="node">
<title>Node2</title>
<polygon fill="#ffffff" stroke="#bfbfbf" points="76.3472,-5.5 76.3472,-23.5 128.4604,-23.5 128.4604,-5.5 76.3472,-5.5"/>
<text text-anchor="middle" x="102.4038" y="-11.5" font-family="Helvetica,sans-Serif" font-size="10.00" fill="#000000">memory</text>
</g>
<!-- Node0&#45;&gt;Node2 -->
<g id="edge2" class="edge">
<title>Node0&#45;&gt;Node2</title>
<path fill="none" stroke="#191970" d="M661.3476,-81.3127C536.6542,-73.7559 235.8802,-53.5337 137.4038,-29 135.2259,-28.4574 133.0067,-27.8018 130.796,-27.073"/>
<polygon fill="#191970" stroke="#191970" points="131.9043,-23.7509 121.3117,-23.5323 129.456,-30.3088 131.9043,-23.7509"/>
</g>
<!-- Node3 -->
<g id="node4" class="node">
<title>Node3</title>
<polygon fill="#ffffff" stroke="#bfbfbf" points="146.7339,-5.5 146.7339,-23.5 176.0737,-23.5 176.0737,-5.5 146.7339,-5.5"/>
<text text-anchor="middle" x="161.4038" y="-11.5" font-family="Helvetica,sans-Serif" font-size="10.00" fill="#000000">set</text>
</g>
<!-- Node0&#45;&gt;Node3 -->
<g id="edge3" class="edge">
<title>Node0&#45;&gt;Node3</title>
<path fill="none" stroke="#191970" d="M661.2715,-81.7881C543.8352,-75.5173 272.6174,-58.2709 185.4038,-29 184.6769,-28.756 183.9487,-28.4872 183.2219,-28.1975"/>
<polygon fill="#191970" stroke="#191970" points="184.6004,-24.9725 174.0976,-23.579 181.4391,-31.218 184.6004,-24.9725"/>
</g>
<!-- Node4 -->
<g id="node5" class="node">
<title>Node4</title>
<polygon fill="#ffffff" stroke="#bfbfbf" points="194.1011,-5.5 194.1011,-23.5 280.7065,-23.5 280.7065,-5.5 194.1011,-5.5"/>
<text text-anchor="middle" x="237.4038" y="-11.5" font-family="Helvetica,sans-Serif" font-size="10.00" fill="#000000">unordered_map</text>
</g>
<!-- Node0&#45;&gt;Node4 -->
<g id="edge4" class="edge">
<title>Node0&#45;&gt;Node4</title>
<path fill="none" stroke="#191970" d="M661.3938,-79.8809C579.6744,-72.4495 421.6318,-55.8859 289.4038,-29 285.2709,-28.1597 280.9842,-27.1667 276.7255,-26.1008"/>
<polygon fill="#191970" stroke="#191970" points="277.4866,-22.6819 266.9249,-23.5186 275.7031,-29.4509 277.4866,-22.6819"/>
</g>
<!-- Node5 -->
<g id="node6" class="node">
<title>Node5</title>
<polygon fill="#ffffff" stroke="#bfbfbf" points="298.7881,-5.5 298.7881,-23.5 342.0195,-23.5 342.0195,-5.5 298.7881,-5.5"/>
<text text-anchor="middle" x="320.4038" y="-11.5" font-family="Helvetica,sans-Serif" font-size="10.00" fill="#000000">vector</text>
</g>
<!-- Node0&#45;&gt;Node5 -->
<g id="edge5" class="edge">
<title>Node0&#45;&gt;Node5</title>
<path fill="none" stroke="#191970" d="M661.3105,-81.2951C588.6696,-75.9138 457.5308,-62.1804 350.4038,-29 348.9878,-28.5614 347.5547,-28.0654 346.1221,-27.5277"/>
<polygon fill="#191970" stroke="#191970" points="347.431,-24.2807 336.8618,-23.5449 344.6653,-30.7112 347.431,-24.2807"/>
</g>
<!-- Node6 -->
<g id="node7" class="node">
<title>Node6</title>
<polygon fill="#ffffff" stroke="#bfbfbf" points="359.5215,-.5 359.5215,-28.5 489.2861,-28.5 489.2861,-.5 359.5215,-.5"/>
<text text-anchor="start" x="367.5215" y="-16.5" font-family="Helvetica,sans-Serif" font-size="10.00" fill="#000000">tensorflow/core/common</text>
<text text-anchor="middle" x="424.4038" y="-6.5" font-family="Helvetica,sans-Serif" font-size="10.00" fill="#000000">_runtime/device_factory.h</text>
</g>
<!-- Node0&#45;&gt;Node6 -->
<g id="edge6" class="edge">
<title>Node0&#45;&gt;Node6</title>
<path fill="none" stroke="#191970" d="M661.1376,-71.2512C613.3958,-59.8063 544.2087,-43.2203 492.9497,-30.9322"/>
<polygon fill="#191970" stroke="#191970" points="493.489,-27.4624 482.9486,-28.5347 491.8571,-34.2696 493.489,-27.4624"/>
</g>
<!-- Node7 -->
<g id="node8" class="node">
<title>Node7</title>
<polygon fill="#ffffff" stroke="#bfbfbf" points="506.9385,-.5 506.9385,-28.5 631.8691,-28.5 631.8691,-.5 506.9385,-.5"/>
<text text-anchor="start" x="514.9385" y="-16.5" font-family="Helvetica,sans-Serif" font-size="10.00" fill="#000000">tensorflow/core/common</text>
<text text-anchor="middle" x="569.4038" y="-6.5" font-family="Helvetica,sans-Serif" font-size="10.00" fill="#000000">_runtime/local_device.h</text>
</g>
<!-- Node0&#45;&gt;Node7 -->
<g id="edge7" class="edge">
<title>Node0&#45;&gt;Node7</title>
<path fill="none" stroke="#191970" d="M676.2354,-65.3722C655.1522,-55.3325 629.4267,-43.0823 608.5036,-33.1189"/>
<polygon fill="#191970" stroke="#191970" points="609.7956,-29.8576 599.2622,-28.7183 606.786,-36.1777 609.7956,-29.8576"/>
</g>
<!-- Node8 -->
<g id="node9" class="node">
<title>Node8</title>
<polygon fill="#ffffff" stroke="#bfbfbf" points="649.7734,-.5 649.7734,-28.5 783.0342,-28.5 783.0342,-.5 649.7734,-.5"/>
<text text-anchor="start" x="657.7734" y="-16.5" font-family="Helvetica,sans-Serif" font-size="10.00" fill="#000000">tensorflow/core/framework</text>
<text text-anchor="middle" x="716.4038" y="-6.5" font-family="Helvetica,sans-Serif" font-size="10.00" fill="#000000">/device_base.h</text>
</g>
<!-- Node0&#45;&gt;Node8 -->
<g id="edge8" class="edge">
<title>Node0&#45;&gt;Node8</title>
<path fill="none" stroke="#191970" d="M716.4038,-65.3722C716.4038,-57.2889 716.4038,-47.7725 716.4038,-39.1705"/>
<polygon fill="#191970" stroke="#191970" points="719.9039,-38.9403 716.4038,-28.9404 712.9039,-38.9404 719.9039,-38.9403"/>
</g>
<!-- Node9 -->
<g id="node10" class="node">
<title>Node9</title>
<polygon fill="#ffffff" stroke="#bfbfbf" points="800.7734,-.5 800.7734,-28.5 934.0342,-28.5 934.0342,-.5 800.7734,-.5"/>
<text text-anchor="start" x="808.7734" y="-16.5" font-family="Helvetica,sans-Serif" font-size="10.00" fill="#000000">tensorflow/core/framework</text>
<text text-anchor="middle" x="867.4038" y="-6.5" font-family="Helvetica,sans-Serif" font-size="10.00" fill="#000000">/tensor.h</text>
</g>
<!-- Node0&#45;&gt;Node9 -->
<g id="edge9" class="edge">
<title>Node0&#45;&gt;Node9</title>
<path fill="none" stroke="#191970" d="M757.6652,-65.3722C779.4197,-55.2873 805.9858,-42.9719 827.5302,-32.9844"/>
<polygon fill="#191970" stroke="#191970" points="829.1325,-36.0995 836.733,-28.7183 826.1884,-29.7487 829.1325,-36.0995"/>
</g>
<!-- Node10 -->
<g id="node11" class="node">
<title>Node10</title>
<polygon fill="#ffffff" stroke="#bfbfbf" points="951.7734,-.5 951.7734,-28.5 1085.0342,-28.5 1085.0342,-.5 951.7734,-.5"/>
<text text-anchor="start" x="959.7734" y="-16.5" font-family="Helvetica,sans-Serif" font-size="10.00" fill="#000000">tensorflow/core/framework</text>
<text text-anchor="middle" x="1018.4038" y="-6.5" font-family="Helvetica,sans-Serif" font-size="10.00" fill="#000000">/types.pb.h</text>
</g>
<!-- Node0&#45;&gt;Node10 -->
<g id="edge10" class="edge">
<title>Node0&#45;&gt;Node10</title>
<path fill="none" stroke="#191970" d="M771.4441,-71.7423C821.0144,-60.2525 894.1429,-43.3022 947.9638,-30.8271"/>
<polygon fill="#191970" stroke="#191970" points="948.8273,-34.2199 957.7787,-28.5522 947.2466,-27.4007 948.8273,-34.2199"/>
</g>
<!-- Node11 -->
<g id="node12" class="node">
<title>Node11</title>
<polygon fill="#ffffff" stroke="#bfbfbf" points="1103.1084,-.5 1103.1084,-28.5 1199.6992,-28.5 1199.6992,-.5 1103.1084,-.5"/>
<text text-anchor="start" x="1111.1084" y="-16.5" font-family="Helvetica,sans-Serif" font-size="10.00" fill="#000000">tensorflow/core/lib</text>
<text text-anchor="middle" x="1151.4038" y="-6.5" font-family="Helvetica,sans-Serif" font-size="10.00" fill="#000000">/core/status.h</text>
</g>
<!-- Node0&#45;&gt;Node11 -->
<g id="edge11" class="edge">
<title>Node0&#45;&gt;Node11</title>
<path fill="none" stroke="#191970" d="M771.4835,-78.2237C843.3325,-69.6357 973.0805,-52.7576 1092.8922,-29.1867"/>
<polygon fill="#191970" stroke="#191970" points="1093.8461,-32.5656 1102.9717,-27.183 1092.4812,-25.7 1093.8461,-32.5656"/>
</g>
<!-- Node12 -->
<g id="node13" class="node">
<title>Node12</title>
<polygon fill="#ffffff" stroke="#bfbfbf" points="1218.0493,-.5 1218.0493,-28.5 1340.7583,-28.5 1340.7583,-.5 1218.0493,-.5"/>
<text text-anchor="start" x="1226.0493" y="-16.5" font-family="Helvetica,sans-Serif" font-size="10.00" fill="#000000">tensorflow/core/platform</text>
<text text-anchor="middle" x="1279.4038" y="-6.5" font-family="Helvetica,sans-Serif" font-size="10.00" fill="#000000">/mem.h</text>
</g>
<!-- Node0&#45;&gt;Node12 -->
<g id="edge12" class="edge">
<title>Node0&#45;&gt;Node12</title>
<path fill="none" stroke="#191970" d="M771.5902,-79.8918C860.9533,-72.0752 1043.0321,-54.6806 1207.5798,-29.0335"/>
<polygon fill="#191970" stroke="#191970" points="1208.5565,-32.423 1217.8912,-27.4117 1207.4688,-25.508 1208.5565,-32.423"/>
</g>
<!-- Node13 -->
<g id="node14" class="node">
<title>Node13</title>
<polygon fill="#ffffff" stroke="#bfbfbf" points="1359.0493,-.5 1359.0493,-28.5 1481.7583,-28.5 1481.7583,-.5 1359.0493,-.5"/>
<text text-anchor="start" x="1367.0493" y="-16.5" font-family="Helvetica,sans-Serif" font-size="10.00" fill="#000000">tensorflow/core/platform</text>
<text text-anchor="middle" x="1420.4038" y="-6.5" font-family="Helvetica,sans-Serif" font-size="10.00" fill="#000000">/mutex.h</text>
</g>
<!-- Node0&#45;&gt;Node13 -->
<g id="edge13" class="edge">
<title>Node0&#45;&gt;Node13</title>
<path fill="none" stroke="#191970" d="M771.6847,-81.7776C880.3197,-75.9668 1129.3822,-60.3693 1348.8098,-28.9654"/>
<polygon fill="#191970" stroke="#191970" points="1349.5091,-32.4008 1358.9056,-27.5062 1348.5077,-25.4728 1349.5091,-32.4008"/>
</g>
<!-- Node14 -->
<g id="node15" class="node">
<title>Node14</title>
<polygon fill="#ffffff" stroke="#bfbfbf" points="1500.0493,-.5 1500.0493,-28.5 1622.7583,-28.5 1622.7583,-.5 1500.0493,-.5"/>
<text text-anchor="start" x="1508.0493" y="-16.5" font-family="Helvetica,sans-Serif" font-size="10.00" fill="#000000">tensorflow/core/platform</text>
<text text-anchor="middle" x="1561.4038" y="-6.5" font-family="Helvetica,sans-Serif" font-size="10.00" fill="#000000">/thread_annotations.h</text>
</g>
<!-- Node0&#45;&gt;Node14 -->
<g id="edge14" class="edge">
<title>Node0&#45;&gt;Node14</title>
<path fill="none" stroke="#191970" d="M771.5577,-83.0038C897.2376,-79.0651 1214.5967,-66.1282 1489.7336,-28.9558"/>
<polygon fill="#191970" stroke="#191970" points="1490.4792,-32.3866 1499.9141,-27.5666 1489.5327,-25.4509 1490.4792,-32.3866"/>
</g>
<!-- Node15 -->
<g id="node16" class="node">
<title>Node15</title>
<polygon fill="#ffffff" stroke="#bfbfbf" points="1641.0469,-.5 1641.0469,-28.5 1753.7607,-28.5 1753.7607,-.5 1641.0469,-.5"/>
<text text-anchor="start" x="1649.0469" y="-16.5" font-family="Helvetica,sans-Serif" font-size="10.00" fill="#000000">tensorflow/core/public</text>
<text text-anchor="middle" x="1697.4038" y="-6.5" font-family="Helvetica,sans-Serif" font-size="10.00" fill="#000000">/session_options.h</text>
</g>
<!-- Node0&#45;&gt;Node15 -->
<g id="edge15" class="edge">
<title>Node0&#45;&gt;Node15</title>
<path fill="none" stroke="#191970" d="M771.5712,-82.2831C939.7089,-75.3514 1445.0229,-53.1798 1631.0432,-28.8462"/>
<polygon fill="#191970" stroke="#191970" points="1631.5424,-32.3107 1640.9825,-27.501 1630.6034,-25.3739 1631.5424,-32.3107"/>
</g>
</g>
</svg>
        <g id="navigator" transform="translate(0 0)" fill="#404254">
                <rect fill="#f2f5e9" fill-opacity="0.5" stroke="#606060" stroke-width=".5" x="0" y="0" width="60" height="60"/>
                <use id="zoomplus" xlink:href="#zoomPlus" x="17" y="9" onmousedown="handleZoom(evt,'in')"/>
                <use id="zoomminus" xlink:href="#zoomMin" x="42" y="9" onmousedown="handleZoom(evt,'out')"/>
                <use id="reset" xlink:href="#resetDef" x="30" y="36" onmousedown="handleReset()"/>
                <g id="arrowUp" xlink:href="#dirArrow" transform="translate(30 24)" onmousedown="handlePan(0,-1)">
                  <use xlink:href="#rim" fill="#404040">
                        <set attributeName="fill" to="#808080" begin="arrowUp.mouseover" end="arrowUp.mouseout"/>
                  </use>
                  <path fill="none" stroke="white" stroke-width="1.5" d="M0,-3.0v7 M-2.5,-0.5L0,-3.0L2.5,-0.5"/>
                </g>
                <g id="arrowRight" xlink:href="#dirArrow" transform="rotate(90) translate(36 -43)" onmousedown="handlePan(1,0)">
                  <use xlink:href="#rim" fill="#404040">
                        <set attributeName="fill" to="#808080" begin="arrowRight.mouseover" end="arrowRight.mouseout"/>
                  </use>
                  <path fill="none" stroke="white" stroke-width="1.5" d="M0,-3.0v7 M-2.5,-0.5L0,-3.0L2.5,-0.5"/>
                </g>
                <g id="arrowDown" xlink:href="#dirArrow" transform="rotate(180) translate(-30 -48)" onmousedown="handlePan(0,1)">
                  <use xlink:href="#rim" fill="#404040">
                        <set attributeName="fill" to="#808080" begin="arrowDown.mouseover" end="arrowDown.mouseout"/>
                  </use>
                  <path fill="none" stroke="white" stroke-width="1.5" d="M0,-3.0v7 M-2.5,-0.5L0,-3.0L2.5,-0.5"/>
                </g>
                <g id="arrowLeft" xlink:href="#dirArrow" transform="rotate(270) translate(-36 17)" onmousedown="handlePan(-1,0)">
                  <use xlink:href="#rim" fill="#404040">
                        <set attributeName="fill" to="#808080" begin="arrowLeft.mouseover" end="arrowLeft.mouseout"/>
                  </use>
                  <path fill="none" stroke="white" stroke-width="1.5" d="M0,-3.0v7 M-2.5,-0.5L0,-3.0L2.5,-0.5"/>
                </g>
        </g>
        <svg viewBox="0 0 15 15" width="100%" height="30px" preserveAspectRatio="xMaxYMin meet">
         <g id="arrow_out" transform="scale(0.3 0.3)">
          <a xlink:href="xla__op__registry_8h__incl_org.svg" target="_base">
           <rect id="button" ry="5" rx="5" y="6" x="6" height="38" width="38"
                fill="#f2f5e9" fill-opacity="0.5" stroke="#606060" stroke-width="1.0"/>
           <path id="arrow"
             d="M 11.500037,31.436501 C 11.940474,20.09759 22.043105,11.32322 32.158766,21.979434 L 37.068811,17.246167 C 37.068811,17.246167 37.088388,32 37.088388,32 L 22.160133,31.978069 C 22.160133,31.978069 26.997745,27.140456 26.997745,27.140456 C 18.528582,18.264221 13.291696,25.230495 11.500037,31.436501 z"
             style="fill:#404040;"/>
          </a>
         </g>
        </svg>
</svg>
