<?xml version="1.0" encoding="UTF-8" standalone="no"?>
<!DOCTYPE svg PUBLIC "-//W3C//DTD SVG 1.1//EN"
 "http://www.w3.org/Graphics/SVG/1.1/DTD/svg11.dtd">
<!-- Generated by graphviz version 2.40.1 (20161225.0304)
 -->
<!-- Title: ComputationTracker::LoadSessionComputation Pages: 1 -->
<svg width="475pt" height="39pt"
 viewBox="0.00 0.00 475.00 39.00" xmlns="http://www.w3.org/2000/svg" xmlns:xlink="http://www.w3.org/1999/xlink">
<g id="graph0" class="graph" transform="scale(1 1) rotate(0) translate(4 35)">
<title>ComputationTracker::LoadSessionComputation</title>
<polygon fill="#ffffff" stroke="transparent" points="-4,4 -4,-35 471,-35 471,4 -4,4"/>
<!-- Node54 -->
<g id="node1" class="node">
<title>Node54</title>
<polygon fill="#bfbfbf" stroke="#000000" points="0,-.5 0,-30.5 134,-30.5 134,-.5 0,-.5"/>
<text text-anchor="start" x="8" y="-18.5" font-family="Helvetica,sans-Serif" font-size="10.00" fill="#000000">ComputationTracker</text>
<text text-anchor="middle" x="67" y="-7.5" font-family="Helvetica,sans-Serif" font-size="10.00" fill="#000000">::LoadSessionComputation</text>
</g>
<!-- Node55 -->
<g id="node2" class="node">
<title>Node55</title>
<g id="a_node2"><a xlink:href="../../dd/d3d/classComputationTracker.html#ab3c0e11cd68781554a5d3fe434ced9fe" target="_top" xlink:title="ComputationTracker\l::LoadSessionModule">
<polygon fill="#ffffff" stroke="#000000" points="170,-.5 170,-30.5 280,-30.5 280,-.5 170,-.5"/>
<text text-anchor="start" x="178" y="-18.5" font-family="Helvetica,sans-Serif" font-size="10.00" fill="#000000">ComputationTracker</text>
<text text-anchor="middle" x="225" y="-7.5" font-family="Helvetica,sans-Serif" font-size="10.00" fill="#000000">::LoadSessionModule</text>
</a>
</g>
</g>
<!-- Node54&#45;&gt;Node55 -->
<g id="edge1" class="edge">
<title>Node54&#45;&gt;Node55</title>
<path fill="none" stroke="#191970" d="M144.1471,-15.5C152.8187,-15.5 161.52,-15.5 169.8329,-15.5"/>
<polygon fill="#191970" stroke="#191970" points="144.0063,-12.0001 134.0062,-15.5 144.0062,-19.0001 144.0063,-12.0001"/>
</g>
<!-- Node56 -->
<g id="node3" class="node">
<title>Node56</title>
<g id="a_node3"><a xlink:href="../../d1/d10/classxla_1_1Service.html#a6470d971df0e6843a824407ed1f35349" target="_top" xlink:title="xla::Service::LoadComputation\lSnapshot">
<polygon fill="#ffffff" stroke="#000000" points="316,-.5 316,-30.5 467,-30.5 467,-.5 316,-.5"/>
<text text-anchor="start" x="324" y="-18.5" font-family="Helvetica,sans-Serif" font-size="10.00" fill="#000000">xla::Service::LoadComputation</text>
<text text-anchor="middle" x="391.5" y="-7.5" font-family="Helvetica,sans-Serif" font-size="10.00" fill="#000000">Snapshot</text>
</a>
</g>
</g>
<!-- Node55&#45;&gt;Node56 -->
<g id="edge2" class="edge">
<title>Node55&#45;&gt;Node56</title>
<path fill="none" stroke="#191970" d="M290.4578,-15.5C298.7899,-15.5 307.3715,-15.5 315.8471,-15.5"/>
<polygon fill="#191970" stroke="#191970" points="290.4421,-12.0001 280.4421,-15.5 290.4421,-19.0001 290.4421,-12.0001"/>
</g>
</g>
</svg>
