<?xml version="1.0" encoding="UTF-8" standalone="no"?>
<!DOCTYPE svg PUBLIC "-//W3C//DTD SVG 1.1//EN"
 "http://www.w3.org/Graphics/SVG/1.1/DTD/svg11.dtd">
<!-- Generated by graphviz version 2.40.1 (20161225.0304)
 -->
<!-- Title: ComputationTracker::BuildHloModule Pages: 1 -->
<svg width="450pt" height="127pt"
 viewBox="0.00 0.00 450.00 127.00" xmlns="http://www.w3.org/2000/svg" xmlns:xlink="http://www.w3.org/1999/xlink">
<g id="graph0" class="graph" transform="scale(1 1) rotate(0) translate(4 123)">
<title>ComputationTracker::BuildHloModule</title>
<polygon fill="#ffffff" stroke="transparent" points="-4,4 -4,-123 446,-123 446,4 -4,4"/>
<!-- Node7 -->
<g id="node1" class="node">
<title>Node7</title>
<polygon fill="#bfbfbf" stroke="#000000" points="0,-44.5 0,-74.5 104,-74.5 104,-44.5 0,-44.5"/>
<text text-anchor="start" x="8" y="-62.5" font-family="Helvetica,sans-Serif" font-size="10.00" fill="#000000">ComputationTracker</text>
<text text-anchor="middle" x="52" y="-51.5" font-family="Helvetica,sans-Serif" font-size="10.00" fill="#000000">::BuildHloModule</text>
</g>
<!-- Node8 -->
<g id="node2" class="node">
<title>Node8</title>
<g id="a_node2"><a xlink:href="../../dd/d3d/classComputationTracker.html#abc06e614b931e114f5f06fcf80071879" target="_top" xlink:title="ComputationTracker\l::ToStringInternal">
<polygon fill="#ffffff" stroke="#000000" points="169,-88.5 169,-118.5 273,-118.5 273,-88.5 169,-88.5"/>
<text text-anchor="start" x="177" y="-106.5" font-family="Helvetica,sans-Serif" font-size="10.00" fill="#000000">ComputationTracker</text>
<text text-anchor="middle" x="221" y="-95.5" font-family="Helvetica,sans-Serif" font-size="10.00" fill="#000000">::ToStringInternal</text>
</a>
</g>
</g>
<!-- Node7&#45;&gt;Node8 -->
<g id="edge1" class="edge">
<title>Node7&#45;&gt;Node8</title>
<path fill="none" stroke="#191970" d="M104.0846,-73.0605C121.4327,-77.5772 140.9294,-82.6532 158.956,-87.3465"/>
<polygon fill="#191970" stroke="#191970" points="158.2372,-90.776 168.7965,-89.9086 160.001,-84.0018 158.2372,-90.776"/>
</g>
<!-- Node9 -->
<g id="node3" class="node">
<title>Node9</title>
<g id="a_node3"><a xlink:href="../../dd/d3d/classComputationTracker.html#ac1e477d61fde00b342418b23c928822b" target="_top" xlink:title="ComputationTracker\l::ResolveInternal">
<polygon fill="#ffffff" stroke="#000000" points="338,-22.5 338,-52.5 442,-52.5 442,-22.5 338,-22.5"/>
<text text-anchor="start" x="346" y="-40.5" font-family="Helvetica,sans-Serif" font-size="10.00" fill="#000000">ComputationTracker</text>
<text text-anchor="middle" x="390" y="-29.5" font-family="Helvetica,sans-Serif" font-size="10.00" fill="#000000">::ResolveInternal</text>
</a>
</g>
</g>
<!-- Node7&#45;&gt;Node9 -->
<g id="edge2" class="edge">
<title>Node7&#45;&gt;Node9</title>
<path fill="none" stroke="#191970" d="M104.0718,-56.1107C164.3628,-52.1864 263.5967,-45.7274 327.8658,-41.5442"/>
<polygon fill="#191970" stroke="#191970" points="328.1175,-45.0354 337.8691,-40.8931 327.6628,-38.0501 328.1175,-45.0354"/>
</g>
<!-- Node10 -->
<g id="node4" class="node">
<title>Node10</title>
<g id="a_node4"><a xlink:href="../../dd/d3d/classComputationTracker.html#a0da1902bfa3e5f2cb6669aa8242bdb18" target="_top" xlink:title="ComputationTracker\l::ComputeComputationPostOrder">
<polygon fill="#ffffff" stroke="#000000" points="140,-.5 140,-30.5 302,-30.5 302,-.5 140,-.5"/>
<text text-anchor="start" x="148" y="-18.5" font-family="Helvetica,sans-Serif" font-size="10.00" fill="#000000">ComputationTracker</text>
<text text-anchor="middle" x="221" y="-7.5" font-family="Helvetica,sans-Serif" font-size="10.00" fill="#000000">::ComputeComputationPostOrder</text>
</a>
</g>
</g>
<!-- Node7&#45;&gt;Node10 -->
<g id="edge3" class="edge">
<title>Node7&#45;&gt;Node10</title>
<path fill="none" stroke="#191970" d="M104.0846,-45.9395C119.5855,-41.9038 136.8017,-37.4214 153.1519,-33.1646"/>
<polygon fill="#191970" stroke="#191970" points="154.4016,-36.456 163.1971,-30.5493 152.6379,-29.6818 154.4016,-36.456"/>
</g>
<!-- Node10&#45;&gt;Node9 -->
<g id="edge4" class="edge">
<title>Node10&#45;&gt;Node9</title>
<path fill="none" stroke="#191970" d="M302.035,-26.0489C310.7075,-27.1779 319.4287,-28.3132 327.8324,-29.4072"/>
<polygon fill="#191970" stroke="#191970" points="327.5329,-32.8976 337.901,-30.7179 328.4365,-25.9562 327.5329,-32.8976"/>
</g>
</g>
</svg>
