<?xml version="1.0" encoding="UTF-8" standalone="no"?>
<!DOCTYPE svg PUBLIC "-//W3C//DTD SVG 1.1//EN"
 "http://www.w3.org/Graphics/SVG/1.1/DTD/svg11.dtd">
<!-- Generated by graphviz version 2.40.1 (20161225.0304)
 -->
<!-- Title: ComputationTracker::BuildHloModule Pages: 1 -->
<svg width="1053pt" height="174pt"
 viewBox="0.00 0.00 1053.00 173.50" xmlns="http://www.w3.org/2000/svg" xmlns:xlink="http://www.w3.org/1999/xlink">
<g id="graph0" class="graph" transform="scale(1 1) rotate(0) translate(4 169.5)">
<title>ComputationTracker::BuildHloModule</title>
<polygon fill="#ffffff" stroke="transparent" points="-4,4 -4,-169.5 1049,-169.5 1049,4 -4,4"/>
<!-- Node11 -->
<g id="node1" class="node">
<title>Node11</title>
<polygon fill="#bfbfbf" stroke="#000000" points="0,-63.5 0,-93.5 104,-93.5 104,-63.5 0,-63.5"/>
<text text-anchor="start" x="8" y="-81.5" font-family="Helvetica,sans-Serif" font-size="10.00" fill="#000000">ComputationTracker</text>
<text text-anchor="middle" x="52" y="-70.5" font-family="Helvetica,sans-Serif" font-size="10.00" fill="#000000">::BuildHloModule</text>
</g>
<!-- Node12 -->
<g id="node2" class="node">
<title>Node12</title>
<g id="a_node2"><a xlink:href="../../dc/d07/classxla_1_1CompileOnlyService.html#aceb67616a89167b9af1bf23d17ec37c9" target="_top" xlink:title="xla::CompileOnlyService\l::CompileAheadOfTime">
<polygon fill="#ffffff" stroke="#000000" points="154.5,-127.5 154.5,-157.5 279.5,-157.5 279.5,-127.5 154.5,-127.5"/>
<text text-anchor="start" x="162.5" y="-145.5" font-family="Helvetica,sans-Serif" font-size="10.00" fill="#000000">xla::CompileOnlyService</text>
<text text-anchor="middle" x="217" y="-134.5" font-family="Helvetica,sans-Serif" font-size="10.00" fill="#000000">::CompileAheadOfTime</text>
</a>
</g>
</g>
<!-- Node11&#45;&gt;Node12 -->
<g id="edge1" class="edge">
<title>Node11&#45;&gt;Node12</title>
<path fill="none" stroke="#191970" d="M94.3232,-97.6102C108.7152,-103.885 124.9623,-110.7255 140,-116.5 149.7472,-120.2429 160.2931,-123.9944 170.3617,-127.4368"/>
<polygon fill="#191970" stroke="#191970" points="95.728,-94.4046 85.1648,-93.5854 92.9116,-100.813 95.728,-94.4046"/>
</g>
<!-- Node18 -->
<g id="node8" class="node">
<title>Node18</title>
<g id="a_node8"><a xlink:href="../../d1/d10/classxla_1_1Service.html#aae12155f7d9a17dd6fda837a2d1189b3" target="_top" xlink:title="xla::Service::BuildExecutables">
<polygon fill="#ffffff" stroke="#000000" points="142,-88 142,-107 292,-107 292,-88 142,-88"/>
<text text-anchor="middle" x="217" y="-95" font-family="Helvetica,sans-Serif" font-size="10.00" fill="#000000">xla::Service::BuildExecutables</text>
</a>
</g>
</g>
<!-- Node11&#45;&gt;Node18 -->
<g id="edge7" class="edge">
<title>Node11&#45;&gt;Node18</title>
<path fill="none" stroke="#191970" d="M114.2403,-85.6671C123.2793,-86.7079 132.6642,-87.7886 141.9233,-88.8548"/>
<polygon fill="#191970" stroke="#191970" points="114.5418,-82.1787 104.207,-84.5117 113.741,-89.1328 114.5418,-82.1787"/>
</g>
<!-- Node25 -->
<g id="node15" class="node">
<title>Node25</title>
<g id="a_node15"><a xlink:href="../../d1/d10/classxla_1_1Service.html#a18b542fa30535934fbe3f425088b6537" target="_top" xlink:title="xla::Service::ComputeConstant">
<polygon fill="#ffffff" stroke="#000000" points="140,-50 140,-69 294,-69 294,-50 140,-50"/>
<text text-anchor="middle" x="217" y="-57" font-family="Helvetica,sans-Serif" font-size="10.00" fill="#000000">xla::Service::ComputeConstant</text>
</a>
</g>
</g>
<!-- Node11&#45;&gt;Node25 -->
<g id="edge14" class="edge">
<title>Node11&#45;&gt;Node25</title>
<path fill="none" stroke="#191970" d="M114.2288,-71.3343C122.5856,-70.372 131.2383,-69.3756 139.8141,-68.3881"/>
<polygon fill="#191970" stroke="#191970" points="113.741,-67.8672 104.207,-72.4883 114.5418,-74.8213 113.741,-67.8672"/>
</g>
<!-- Node26 -->
<g id="node16" class="node">
<title>Node26</title>
<g id="a_node16"><a xlink:href="../../d1/d10/classxla_1_1Service.html#a59107fc77e341a632ceaf179e29df9f6" target="_top" xlink:title="xla::Service::GetComputation\lStats">
<polygon fill="#ffffff" stroke="#000000" points="144,-.5 144,-30.5 290,-30.5 290,-.5 144,-.5"/>
<text text-anchor="start" x="152" y="-18.5" font-family="Helvetica,sans-Serif" font-size="10.00" fill="#000000">xla::Service::GetComputation</text>
<text text-anchor="middle" x="217" y="-7.5" font-family="Helvetica,sans-Serif" font-size="10.00" fill="#000000">Stats</text>
</a>
</g>
</g>
<!-- Node11&#45;&gt;Node26 -->
<g id="edge15" class="edge">
<title>Node11&#45;&gt;Node26</title>
<path fill="none" stroke="#191970" d="M94.2843,-59.2875C108.6735,-53.0054 124.9288,-46.1864 140,-40.5 149.0736,-37.0765 158.8498,-33.6824 168.2906,-30.5504"/>
<polygon fill="#191970" stroke="#191970" points="92.8693,-56.0863 85.1292,-63.321 95.6916,-62.4921 92.8693,-56.0863"/>
</g>
<!-- Node13 -->
<g id="node3" class="node">
<title>Node13</title>
<g id="a_node3"><a xlink:href="../../d1/dd1/classxla_1_1CompileOnlyClient.html#a5a585d21f617b77a1cecc1b587d18d7a" target="_top" xlink:title="Compiles a list of computations for ahead&#45;of&#45;time execution. This is intended for use in static compi...">
<polygon fill="#ffffff" stroke="#000000" points="342,-128.5 342,-158.5 461,-158.5 461,-128.5 342,-128.5"/>
<text text-anchor="start" x="350" y="-146.5" font-family="Helvetica,sans-Serif" font-size="10.00" fill="#000000">xla::CompileOnlyClient</text>
<text text-anchor="middle" x="401.5" y="-135.5" font-family="Helvetica,sans-Serif" font-size="10.00" fill="#000000">::CompileAheadOfTime</text>
</a>
</g>
</g>
<!-- Node12&#45;&gt;Node13 -->
<g id="edge2" class="edge">
<title>Node12&#45;&gt;Node13</title>
<path fill="none" stroke="#191970" d="M289.7416,-142.8943C306.9809,-142.9877 325.1728,-143.0863 341.7574,-143.1762"/>
<polygon fill="#191970" stroke="#191970" points="289.7396,-139.3943 279.7207,-142.8399 289.7016,-146.3942 289.7396,-139.3943"/>
</g>
<!-- Node14 -->
<g id="node4" class="node">
<title>Node14</title>
<g id="a_node4"><a xlink:href="../../d4/df4/namespacetensorflow_1_1tfcompile_1_1anonymous__namespace_02compile_8cc_03.html#a40f8a019f31fa8cbe2fff5d90e69c21b" target="_top" xlink:title="Compiles the XLA computation into executable code. ">
<polygon fill="#ffffff" stroke="#000000" points="517.5,-124 517.5,-165 646.5,-165 646.5,-124 517.5,-124"/>
<text text-anchor="start" x="525.5" y="-153" font-family="Helvetica,sans-Serif" font-size="10.00" fill="#000000">tensorflow::tfcompile</text>
<text text-anchor="start" x="525.5" y="-142" font-family="Helvetica,sans-Serif" font-size="10.00" fill="#000000">::anonymous_namespace</text>
<text text-anchor="middle" x="582" y="-131" font-family="Helvetica,sans-Serif" font-size="10.00" fill="#000000">{compile::cc}::CompileXla</text>
</a>
</g>
</g>
<!-- Node13&#45;&gt;Node14 -->
<g id="edge3" class="edge">
<title>Node13&#45;&gt;Node14</title>
<path fill="none" stroke="#191970" d="M471.4424,-143.8875C486.596,-143.9714 502.5552,-144.0599 517.4884,-144.1426"/>
<polygon fill="#191970" stroke="#191970" points="471.122,-140.3858 461.1027,-143.8302 471.0831,-147.3857 471.122,-140.3858"/>
</g>
<!-- Node15 -->
<g id="node5" class="node">
<title>Node15</title>
<g id="a_node5"><a xlink:href="../../d7/d38/namespacetensorflow_1_1tfcompile.html#a021cb1c58d938b16dcd998aa8d1fc191" target="_top" xlink:title="Converts the graph into an XLA computation, and compiles the computation. Called by tensorflow::tfcom...">
<polygon fill="#ffffff" stroke="#000000" points="706,-129.5 706,-159.5 813,-159.5 813,-129.5 706,-129.5"/>
<text text-anchor="start" x="714" y="-147.5" font-family="Helvetica,sans-Serif" font-size="10.00" fill="#000000">tensorflow::tfcompile</text>
<text text-anchor="middle" x="759.5" y="-136.5" font-family="Helvetica,sans-Serif" font-size="10.00" fill="#000000">::CompileGraph</text>
</a>
</g>
</g>
<!-- Node14&#45;&gt;Node15 -->
<g id="edge4" class="edge">
<title>Node14&#45;&gt;Node15</title>
<path fill="none" stroke="#191970" d="M656.7287,-144.5C673.193,-144.5 690.3177,-144.5 705.7587,-144.5"/>
<polygon fill="#191970" stroke="#191970" points="656.5837,-141.0001 646.5837,-144.5 656.5837,-148.0001 656.5837,-141.0001"/>
</g>
<!-- Node16 -->
<g id="node6" class="node">
<title>Node16</title>
<g id="a_node6"><a xlink:href="../../d7/d38/namespacetensorflow_1_1tfcompile.html#a460964a5bb277865d1275fe3746132c1" target="_top" xlink:title="tensorflow::tfcompile\l::Main">
<polygon fill="#ffffff" stroke="#000000" points="864,-129.5 864,-159.5 971,-159.5 971,-129.5 864,-129.5"/>
<text text-anchor="start" x="872" y="-147.5" font-family="Helvetica,sans-Serif" font-size="10.00" fill="#000000">tensorflow::tfcompile</text>
<text text-anchor="middle" x="917.5" y="-136.5" font-family="Helvetica,sans-Serif" font-size="10.00" fill="#000000">::Main</text>
</a>
</g>
</g>
<!-- Node15&#45;&gt;Node16 -->
<g id="edge5" class="edge">
<title>Node15&#45;&gt;Node16</title>
<path fill="none" stroke="#191970" d="M823.5167,-144.5C836.8898,-144.5 850.8576,-144.5 863.8103,-144.5"/>
<polygon fill="#191970" stroke="#191970" points="823.4328,-141.0001 813.4327,-144.5 823.4327,-148.0001 823.4328,-141.0001"/>
</g>
<!-- Node17 -->
<g id="node7" class="node">
<title>Node17</title>
<g id="a_node7"><a xlink:href="../../d4/d8d/tfcompile__main_8cc.html#a3c04138a5bfe5d72780bb7e82a18e627" target="_top" xlink:title="main">
<polygon fill="#ffffff" stroke="#000000" points="1007,-135 1007,-154 1045,-154 1045,-135 1007,-135"/>
<text text-anchor="middle" x="1026" y="-142" font-family="Helvetica,sans-Serif" font-size="10.00" fill="#000000">main</text>
</a>
</g>
</g>
<!-- Node16&#45;&gt;Node17 -->
<g id="edge6" class="edge">
<title>Node16&#45;&gt;Node17</title>
<path fill="none" stroke="#191970" d="M981.2814,-144.5C990.5615,-144.5 999.4574,-144.5 1006.8366,-144.5"/>
<polygon fill="#191970" stroke="#191970" points="981.1143,-141.0001 971.1143,-144.5 981.1142,-148.0001 981.1143,-141.0001"/>
</g>
<!-- Node19 -->
<g id="node9" class="node">
<title>Node19</title>
<g id="a_node9"><a xlink:href="../../d1/d10/classxla_1_1Service.html#aa0f93c81ca82a50f0ff7f044745bf227" target="_top" xlink:title="xla::Service::ExecuteParallel">
<polygon fill="#ffffff" stroke="#000000" points="330,-88 330,-107 473,-107 473,-88 330,-88"/>
<text text-anchor="middle" x="401.5" y="-95" font-family="Helvetica,sans-Serif" font-size="10.00" fill="#000000">xla::Service::ExecuteParallel</text>
</a>
</g>
</g>
<!-- Node18&#45;&gt;Node19 -->
<g id="edge8" class="edge">
<title>Node18&#45;&gt;Node19</title>
<path fill="none" stroke="#191970" d="M302.0549,-97.5C311.3332,-97.5 320.7092,-97.5 329.8043,-97.5"/>
<polygon fill="#191970" stroke="#191970" points="302.0432,-94.0001 292.0432,-97.5 302.0432,-101.0001 302.0432,-94.0001"/>
</g>
<!-- Node23 -->
<g id="node13" class="node">
<title>Node23</title>
<g id="a_node13"><a xlink:href="../../d1/d10/classxla_1_1Service.html#ae6f727fa681c065fc529a422a83f9133" target="_top" xlink:title="xla::Service::ExecuteGraph\lParallel">
<polygon fill="#ffffff" stroke="#000000" points="333,-38.5 333,-68.5 470,-68.5 470,-38.5 333,-38.5"/>
<text text-anchor="start" x="341" y="-56.5" font-family="Helvetica,sans-Serif" font-size="10.00" fill="#000000">xla::Service::ExecuteGraph</text>
<text text-anchor="middle" x="401.5" y="-45.5" font-family="Helvetica,sans-Serif" font-size="10.00" fill="#000000">Parallel</text>
</a>
</g>
</g>
<!-- Node18&#45;&gt;Node23 -->
<g id="edge12" class="edge">
<title>Node18&#45;&gt;Node23</title>
<path fill="none" stroke="#191970" d="M266.832,-85.616C288.842,-80.3669 314.9704,-74.1358 338.3282,-68.5654"/>
<polygon fill="#191970" stroke="#191970" points="265.949,-82.2283 257.0338,-87.9527 267.5729,-89.0373 265.949,-82.2283"/>
</g>
<!-- Node20 -->
<g id="node10" class="node">
<title>Node20</title>
<g id="a_node10"><a xlink:href="../../d1/d10/classxla_1_1Service.html#a170f36c8fd2b964f57d00d9b720c6912" target="_top" xlink:title="xla::Service::ExecuteOneToN">
<polygon fill="#ffffff" stroke="#000000" points="509,-86 509,-105 655,-105 655,-86 509,-86"/>
<text text-anchor="middle" x="582" y="-93" font-family="Helvetica,sans-Serif" font-size="10.00" fill="#000000">xla::Service::ExecuteOneToN</text>
</a>
</g>
</g>
<!-- Node19&#45;&gt;Node20 -->
<g id="edge9" class="edge">
<title>Node19&#45;&gt;Node20</title>
<path fill="none" stroke="#191970" d="M483.3445,-96.5931C491.802,-96.4994 500.3588,-96.4046 508.7144,-96.312"/>
<polygon fill="#191970" stroke="#191970" points="483.0582,-93.096 473.0976,-96.7067 483.1358,-100.0956 483.0582,-93.096"/>
</g>
<!-- Node21 -->
<g id="node11" class="node">
<title>Node21</title>
<g id="a_node11"><a xlink:href="../../d1/d10/classxla_1_1Service.html#ac3f89822d1f6faab8382f1902e54eea3" target="_top" xlink:title="xla::Service::Execute">
<polygon fill="#ffffff" stroke="#000000" points="704.5,-88 704.5,-107 814.5,-107 814.5,-88 704.5,-88"/>
<text text-anchor="middle" x="759.5" y="-95" font-family="Helvetica,sans-Serif" font-size="10.00" fill="#000000">xla::Service::Execute</text>
</a>
</g>
</g>
<!-- Node20&#45;&gt;Node21 -->
<g id="edge10" class="edge">
<title>Node20&#45;&gt;Node21</title>
<path fill="none" stroke="#191970" d="M665.3011,-96.4386C678.5501,-96.5879 691.9617,-96.739 704.3488,-96.8786"/>
<polygon fill="#191970" stroke="#191970" points="665.2597,-92.938 655.2208,-96.325 665.1807,-99.9376 665.2597,-92.938"/>
</g>
<!-- Node22 -->
<g id="node12" class="node">
<title>Node22</title>
<g id="a_node12"><a xlink:href="../../d1/d10/classxla_1_1Service.html#a6d2eb2712a109ab9484080dfd1e2e446" target="_top" xlink:title="xla::Service::ExecuteGraph">
<polygon fill="#ffffff" stroke="#000000" points="691,-50 691,-69 828,-69 828,-50 691,-50"/>
<text text-anchor="middle" x="759.5" y="-57" font-family="Helvetica,sans-Serif" font-size="10.00" fill="#000000">xla::Service::ExecuteGraph</text>
</a>
</g>
</g>
<!-- Node20&#45;&gt;Node22 -->
<g id="edge11" class="edge">
<title>Node20&#45;&gt;Node22</title>
<path fill="none" stroke="#191970" d="M639.0284,-83.9337C662.7455,-79.1235 689.9428,-73.6074 712.4874,-69.0349"/>
<polygon fill="#191970" stroke="#191970" points="638.2055,-80.5292 629.1007,-85.9472 639.5969,-87.3896 638.2055,-80.5292"/>
</g>
<!-- Node24 -->
<g id="node14" class="node">
<title>Node24</title>
<g id="a_node14"><a xlink:href="../../d1/d10/classxla_1_1Service.html#a11604b813ba3e3208b2bda70f0f02f0d" target="_top" xlink:title="xla::Service::ExecuteOneToN">
<polygon fill="#ffffff" stroke="#000000" points="509,-44 509,-63 655,-63 655,-44 509,-44"/>
<text text-anchor="middle" x="582" y="-51" font-family="Helvetica,sans-Serif" font-size="10.00" fill="#000000">xla::Service::ExecuteOneToN</text>
</a>
</g>
</g>
<!-- Node23&#45;&gt;Node24 -->
<g id="edge13" class="edge">
<title>Node23&#45;&gt;Node24</title>
<path fill="none" stroke="#191970" d="M480.4434,-53.5C489.9129,-53.5 499.5512,-53.5 508.9323,-53.5"/>
<polygon fill="#191970" stroke="#191970" points="480.2543,-50.0001 470.2542,-53.5 480.2542,-57.0001 480.2543,-50.0001"/>
</g>
</g>
</svg>
