<?xml version="1.0" encoding="UTF-8" standalone="no"?>
<!DOCTYPE svg PUBLIC "-//W3C//DTD SVG 1.1//EN"
 "http://www.w3.org/Graphics/SVG/1.1/DTD/svg11.dtd">
<!-- Generated by graphviz version 2.40.1 (20161225.0304)
 -->
<!-- Title: tensorflow::anonymous_namespace{tf2xla::cc}::CreateXlaArgs Pages: 1 -->
<!--zoomable 50 -->
<svg id="main" version="1.1" xmlns="http://www.w3.org/2000/svg" xmlns:xlink="http://www.w3.org/1999/xlink" xml:space="preserve" onload="init(evt)">
<style type="text/css"><![CDATA[
.edge:hover path { stroke: red; }
.edge:hover polygon { stroke: red; fill: red; }
]]></style>
<script type="text/javascript"><![CDATA[
var edges = document.getElementsByTagName('g');
if (edges && edges.length) {
  for (var i=0;i<edges.length;i++) {
    if (edges[i].id.substr(0,4)=='edge') {
      edges[i].setAttribute('class','edge');
    }
  }
}
]]></script>
        <defs>
                <circle id="rim" cx="0" cy="0" r="7"/>
                <circle id="rim2" cx="0" cy="0" r="3.5"/>
                <g id="zoomPlus">
                        <use xlink:href="#rim" fill="#404040">
                                <set attributeName="fill" to="#808080" begin="zoomplus.mouseover" end="zoomplus.mouseout"/>
                        </use>
                        <path d="M-4,0h8M0,-4v8" fill="none" stroke="white" stroke-width="1.5" pointer-events="none"/>
                </g>
                <g id="zoomMin">
                        <use xlink:href="#rim" fill="#404040">
                                <set attributeName="fill" to="#808080" begin="zoomminus.mouseover" end="zoomminus.mouseout"/>
                        </use>
                        <path d="M-4,0h8" fill="none" stroke="white" stroke-width="1.5" pointer-events="none"/>
                </g>
                <g id="dirArrow">
                        <path fill="none" stroke="white" stroke-width="1.5" d="M0,-3.0v7 M-2.5,-0.5L0,-3.0L2.5,-0.5"/>
                </g>
               <g id="resetDef">
                       <use xlink:href="#rim2" fill="#404040">
                               <set attributeName="fill" to="#808080" begin="reset.mouseover" end="reset.mouseout"/>
                       </use>
               </g>
        </defs>

<script type="text/javascript">
var viewWidth = 806;
var viewHeight = 50;
var sectionId = 'dynsection-6';
</script>
<script xlink:href="../../svgpan.js"/>
<svg id="graph" class="graph">
<g id="viewport">
<title>tensorflow::anonymous_namespace{tf2xla::cc}::CreateXlaArgs</title>
<polygon fill="#ffffff" stroke="transparent" points="-4,4 -4,-46 802,-46 802,4 -4,4"/>
<!-- Node34 -->
<g id="node1" class="node">
<title>Node34</title>
<polygon fill="#bfbfbf" stroke="#000000" points="0,-.5 0,-41.5 119,-41.5 119,-.5 0,-.5"/>
<text text-anchor="start" x="8" y="-29.5" font-family="Helvetica,sans-Serif" font-size="10.00" fill="#000000">tensorflow::anonymous</text>
<text text-anchor="start" x="8" y="-18.5" font-family="Helvetica,sans-Serif" font-size="10.00" fill="#000000">_namespace{tf2xla::cc}</text>
<text text-anchor="middle" x="59.5" y="-7.5" font-family="Helvetica,sans-Serif" font-size="10.00" fill="#000000">::CreateXlaArgs</text>
</g>
<!-- Node35 -->
<g id="node2" class="node">
<title>Node35</title>
<g id="a_node2"><a xlink:href="../../d3/dfa/namespacetensorflow_1_1anonymous__namespace_02tf2xla_8cc_03.html#a8bea171341441170c6d6c7dbb0b3227d" target="_top" xlink:title="Converts the TensorFlow graph into an XLA computation, by executing the graph symbolically, with each op building up the XLA HLO. ">
<polygon fill="#ffffff" stroke="#000000" points="155,-.5 155,-41.5 274,-41.5 274,-.5 155,-.5"/>
<text text-anchor="start" x="163" y="-29.5" font-family="Helvetica,sans-Serif" font-size="10.00" fill="#000000">tensorflow::anonymous</text>
<text text-anchor="start" x="163" y="-18.5" font-family="Helvetica,sans-Serif" font-size="10.00" fill="#000000">_namespace{tf2xla::cc}</text>
<text text-anchor="middle" x="214.5" y="-7.5" font-family="Helvetica,sans-Serif" font-size="10.00" fill="#000000">::ConvertGraphToXla</text>
</a>
</g>
</g>
<!-- Node34&#45;&gt;Node35 -->
<g id="edge1" class="edge">
<title>Node34&#45;&gt;Node35</title>
<path fill="none" stroke="#191970" d="M129.6612,-21C138.1217,-21 146.6999,-21 154.9877,-21"/>
<polygon fill="#191970" stroke="#191970" points="129.4271,-17.5001 119.427,-21 129.427,-24.5001 129.4271,-17.5001"/>
</g>
<!-- Node36 -->
<g id="node3" class="node">
<title>Node36</title>
<g id="a_node3"><a xlink:href="../../de/d86/namespacetensorflow.html#a6f8fce5955ec6d67cd1762891d4830e9" target="_top" xlink:title="Convert tensorflow graph_def to XLA UserComputation. ">
<polygon fill="#ffffff" stroke="#000000" points="310,-6 310,-36 438,-36 438,-6 310,-6"/>
<text text-anchor="start" x="318" y="-24" font-family="Helvetica,sans-Serif" font-size="10.00" fill="#000000">tensorflow::ConvertGraph</text>
<text text-anchor="middle" x="374" y="-13" font-family="Helvetica,sans-Serif" font-size="10.00" fill="#000000">DefToXla</text>
</a>
</g>
</g>
<!-- Node35&#45;&gt;Node36 -->
<g id="edge2" class="edge">
<title>Node35&#45;&gt;Node36</title>
<path fill="none" stroke="#191970" d="M284.5119,-21C292.9271,-21 301.4891,-21 309.8156,-21"/>
<polygon fill="#191970" stroke="#191970" points="284.3457,-17.5001 274.3457,-21 284.3457,-24.5001 284.3457,-17.5001"/>
</g>
<!-- Node37 -->
<g id="node4" class="node">
<title>Node37</title>
<g id="a_node4"><a xlink:href="../../d7/d38/namespacetensorflow_1_1tfcompile.html#a021cb1c58d938b16dcd998aa8d1fc191" target="_top" xlink:title="Converts the graph into an XLA computation, and compiles the computation. Called by tensorflow::tfcom...">
<polygon fill="#ffffff" stroke="#000000" points="474,-6 474,-36 581,-36 581,-6 474,-6"/>
<text text-anchor="start" x="482" y="-24" font-family="Helvetica,sans-Serif" font-size="10.00" fill="#000000">tensorflow::tfcompile</text>
<text text-anchor="middle" x="527.5" y="-13" font-family="Helvetica,sans-Serif" font-size="10.00" fill="#000000">::CompileGraph</text>
</a>
</g>
</g>
<!-- Node36&#45;&gt;Node37 -->
<g id="edge3" class="edge">
<title>Node36&#45;&gt;Node37</title>
<path fill="none" stroke="#191970" d="M448.2612,-21C456.8631,-21 465.5067,-21 473.7592,-21"/>
<polygon fill="#191970" stroke="#191970" points="448.2084,-17.5001 438.2084,-21 448.2084,-24.5001 448.2084,-17.5001"/>
</g>
<!-- Node38 -->
<g id="node5" class="node">
<title>Node38</title>
<g id="a_node5"><a xlink:href="../../d7/d38/namespacetensorflow_1_1tfcompile.html#a460964a5bb277865d1275fe3746132c1" target="_top" xlink:title="tensorflow::tfcompile\l::Main">
<polygon fill="#ffffff" stroke="#000000" points="617,-6 617,-36 724,-36 724,-6 617,-6"/>
<text text-anchor="start" x="625" y="-24" font-family="Helvetica,sans-Serif" font-size="10.00" fill="#000000">tensorflow::tfcompile</text>
<text text-anchor="middle" x="670.5" y="-13" font-family="Helvetica,sans-Serif" font-size="10.00" fill="#000000">::Main</text>
</a>
</g>
</g>
<!-- Node37&#45;&gt;Node38 -->
<g id="edge4" class="edge">
<title>Node37&#45;&gt;Node38</title>
<path fill="none" stroke="#191970" d="M591.3238,-21C599.7452,-21 608.3103,-21 616.5445,-21"/>
<polygon fill="#191970" stroke="#191970" points="591.1548,-17.5001 581.1548,-21 591.1547,-24.5001 591.1548,-17.5001"/>
</g>
<!-- Node39 -->
<g id="node6" class="node">
<title>Node39</title>
<g id="a_node6"><a xlink:href="../../d4/d8d/tfcompile__main_8cc.html#a3c04138a5bfe5d72780bb7e82a18e627" target="_top" xlink:title="main">
<polygon fill="#ffffff" stroke="#000000" points="760,-11.5 760,-30.5 798,-30.5 798,-11.5 760,-11.5"/>
<text text-anchor="middle" x="779" y="-18.5" font-family="Helvetica,sans-Serif" font-size="10.00" fill="#000000">main</text>
</a>
</g>
</g>
<!-- Node38&#45;&gt;Node39 -->
<g id="edge5" class="edge">
<title>Node38&#45;&gt;Node39</title>
<path fill="none" stroke="#191970" d="M734.2814,-21C743.5615,-21 752.4574,-21 759.8366,-21"/>
<polygon fill="#191970" stroke="#191970" points="734.1143,-17.5001 724.1143,-21 734.1142,-24.5001 734.1143,-17.5001"/>
</g>
</g>
</svg>
        <g id="navigator" transform="translate(0 0)" fill="#404254">
                <rect fill="#f2f5e9" fill-opacity="0.5" stroke="#606060" stroke-width=".5" x="0" y="0" width="60" height="60"/>
                <use id="zoomplus" xlink:href="#zoomPlus" x="17" y="9" onmousedown="handleZoom(evt,'in')"/>
                <use id="zoomminus" xlink:href="#zoomMin" x="42" y="9" onmousedown="handleZoom(evt,'out')"/>
                <use id="reset" xlink:href="#resetDef" x="30" y="36" onmousedown="handleReset()"/>
                <g id="arrowUp" xlink:href="#dirArrow" transform="translate(30 24)" onmousedown="handlePan(0,-1)">
                  <use xlink:href="#rim" fill="#404040">
                        <set attributeName="fill" to="#808080" begin="arrowUp.mouseover" end="arrowUp.mouseout"/>
                  </use>
                  <path fill="none" stroke="white" stroke-width="1.5" d="M0,-3.0v7 M-2.5,-0.5L0,-3.0L2.5,-0.5"/>
                </g>
                <g id="arrowRight" xlink:href="#dirArrow" transform="rotate(90) translate(36 -43)" onmousedown="handlePan(1,0)">
                  <use xlink:href="#rim" fill="#404040">
                        <set attributeName="fill" to="#808080" begin="arrowRight.mouseover" end="arrowRight.mouseout"/>
                  </use>
                  <path fill="none" stroke="white" stroke-width="1.5" d="M0,-3.0v7 M-2.5,-0.5L0,-3.0L2.5,-0.5"/>
                </g>
                <g id="arrowDown" xlink:href="#dirArrow" transform="rotate(180) translate(-30 -48)" onmousedown="handlePan(0,1)">
                  <use xlink:href="#rim" fill="#404040">
                        <set attributeName="fill" to="#808080" begin="arrowDown.mouseover" end="arrowDown.mouseout"/>
                  </use>
                  <path fill="none" stroke="white" stroke-width="1.5" d="M0,-3.0v7 M-2.5,-0.5L0,-3.0L2.5,-0.5"/>
                </g>
                <g id="arrowLeft" xlink:href="#dirArrow" transform="rotate(270) translate(-36 17)" onmousedown="handlePan(-1,0)">
                  <use xlink:href="#rim" fill="#404040">
                        <set attributeName="fill" to="#808080" begin="arrowLeft.mouseover" end="arrowLeft.mouseout"/>
                  </use>
                  <path fill="none" stroke="white" stroke-width="1.5" d="M0,-3.0v7 M-2.5,-0.5L0,-3.0L2.5,-0.5"/>
                </g>
        </g>
        <svg viewBox="0 0 15 15" width="100%" height="30px" preserveAspectRatio="xMaxYMin meet">
         <g id="arrow_out" transform="scale(0.3 0.3)">
          <a xlink:href="namespacetensorflow_1_1anonymous__namespace_02tf2xla_8cc_03_a772cc088f229bde4039c15f70d2fc8e0_icgraph_org.svg" target="_base">
           <rect id="button" ry="5" rx="5" y="6" x="6" height="38" width="38"
                fill="#f2f5e9" fill-opacity="0.5" stroke="#606060" stroke-width="1.0"/>
           <path id="arrow"
             d="M 11.500037,31.436501 C 11.940474,20.09759 22.043105,11.32322 32.158766,21.979434 L 37.068811,17.246167 C 37.068811,17.246167 37.088388,32 37.088388,32 L 22.160133,31.978069 C 22.160133,31.978069 26.997745,27.140456 26.997745,27.140456 C 18.528582,18.264221 13.291696,25.230495 11.500037,31.436501 z"
             style="fill:#404040;"/>
          </a>
         </g>
        </svg>
</svg>
