<?xml version="1.0" encoding="UTF-8" standalone="no"?>
<!DOCTYPE svg PUBLIC "-//W3C//DTD SVG 1.1//EN"
 "http://www.w3.org/Graphics/SVG/1.1/DTD/svg11.dtd">
<!-- Generated by graphviz version 2.40.1 (20161225.0304)
 -->
<!-- Title: tensorflow::anonymous_namespace{tf2xla::cc}::InitGraph Pages: 1 -->
<svg width="710pt" height="438pt"
 viewBox="0.00 0.00 710.00 438.00" xmlns="http://www.w3.org/2000/svg" xmlns:xlink="http://www.w3.org/1999/xlink">
<g id="graph0" class="graph" transform="scale(1 1) rotate(0) translate(4 434)">
<title>tensorflow::anonymous_namespace{tf2xla::cc}::InitGraph</title>
<polygon fill="#ffffff" stroke="transparent" points="-4,4 -4,-434 706,-434 706,4 -4,4"/>
<!-- Node45 -->
<g id="node1" class="node">
<title>Node45</title>
<polygon fill="#bfbfbf" stroke="#000000" points="0,-156.5 0,-197.5 119,-197.5 119,-156.5 0,-156.5"/>
<text text-anchor="start" x="8" y="-185.5" font-family="Helvetica,sans-Serif" font-size="10.00" fill="#000000">tensorflow::anonymous</text>
<text text-anchor="start" x="8" y="-174.5" font-family="Helvetica,sans-Serif" font-size="10.00" fill="#000000">_namespace{tf2xla::cc}</text>
<text text-anchor="middle" x="59.5" y="-163.5" font-family="Helvetica,sans-Serif" font-size="10.00" fill="#000000">::InitGraph</text>
</g>
<!-- Node46 -->
<g id="node2" class="node">
<title>Node46</title>
<g id="a_node2"><a xlink:href="../../de/d86/namespacetensorflow.html#aaeeec358e2be013353667dd7c0a6dbaa" target="_top" xlink:title="Check settings of input config(feed &amp; fetch). For example, if id, shape are legal, duplicated names... ">
<polygon fill="#ffffff" stroke="#000000" points="165.5,-309.5 165.5,-328.5 296.5,-328.5 296.5,-309.5 165.5,-309.5"/>
<text text-anchor="middle" x="231" y="-316.5" font-family="Helvetica,sans-Serif" font-size="10.00" fill="#000000">tensorflow::ValidateConfig</text>
</a>
</g>
</g>
<!-- Node45&#45;&gt;Node46 -->
<g id="edge1" class="edge">
<title>Node45&#45;&gt;Node46</title>
<path fill="none" stroke="#191970" d="M80.4248,-197.7247C99.3248,-216.0885 128.2029,-243.2791 155,-265 172.133,-278.8875 192.5583,-293.2896 207.9175,-303.7243"/>
<polygon fill="#191970" stroke="#191970" points="206.0621,-306.6944 216.3121,-309.3757 209.9714,-300.8877 206.0621,-306.6944"/>
</g>
<!-- Node50 -->
<g id="node6" class="node">
<title>Node50</title>
<g id="a_node6"><a xlink:href="../../de/d86/namespacetensorflow.html#ac287ab9f1996e3d9086f8500c777ee9b" target="_top" xlink:title="Generate corresponding placeholder for each feed tensor. Traverse each inputs of each nodes...">
<polygon fill="#ffffff" stroke="#000000" points="160.5,-225 160.5,-255 301.5,-255 301.5,-225 160.5,-225"/>
<text text-anchor="start" x="168.5" y="-243" font-family="Helvetica,sans-Serif" font-size="10.00" fill="#000000">tensorflow::AddPlaceholders</text>
<text text-anchor="middle" x="231" y="-232" font-family="Helvetica,sans-Serif" font-size="10.00" fill="#000000">ForFeeds</text>
</a>
</g>
</g>
<!-- Node45&#45;&gt;Node50 -->
<g id="edge5" class="edge">
<title>Node45&#45;&gt;Node50</title>
<path fill="none" stroke="#191970" d="M115.6555,-197.6286C136.5701,-205.3115 160.1618,-213.9778 180.5348,-221.4618"/>
<polygon fill="#191970" stroke="#191970" points="179.3551,-224.757 189.9487,-224.9199 181.7689,-218.1864 179.3551,-224.757"/>
</g>
<!-- Node52 -->
<g id="node8" class="node">
<title>Node52</title>
<g id="a_node8"><a xlink:href="../../de/d86/namespacetensorflow.html#a491706512ccc1517e499cbdb810aa6ab" target="_top" xlink:title="Assign each NodeDefs of GraphDef default values Google Docs: Adds default attributes to NodeDefs in &#39;...">
<polygon fill="#ffffff" stroke="#000000" points="365.5,-181 365.5,-211 502.5,-211 502.5,-181 365.5,-181"/>
<text text-anchor="start" x="373.5" y="-199" font-family="Helvetica,sans-Serif" font-size="10.00" fill="#000000">tensorflow::AddDefaultAttrs</text>
<text text-anchor="middle" x="434" y="-188" font-family="Helvetica,sans-Serif" font-size="10.00" fill="#000000">ToGraphDef</text>
</a>
</g>
</g>
<!-- Node45&#45;&gt;Node52 -->
<g id="edge9" class="edge">
<title>Node45&#45;&gt;Node52</title>
<path fill="none" stroke="#191970" d="M119.2547,-180.0316C183.1251,-183.272 284.6844,-188.4246 355.0913,-191.9966"/>
<polygon fill="#191970" stroke="#191970" points="355.0804,-195.5005 365.2449,-192.5118 355.4351,-188.5095 355.0804,-195.5005"/>
</g>
<!-- Node53 -->
<g id="node9" class="node">
<title>Node53</title>
<g id="a_node9"><a xlink:href="../../de/d86/namespacetensorflow.html#ac09f7fb26bddd7564249fd5d1b255435" target="_top" xlink:title="Remove source nodes of feed tensor. Because they are removed at tensorflow::AddPlaceholdersForFeeds R...">
<polygon fill="#ffffff" stroke="#000000" points="155,-148.5 155,-167.5 307,-167.5 307,-148.5 155,-148.5"/>
<text text-anchor="middle" x="231" y="-155.5" font-family="Helvetica,sans-Serif" font-size="10.00" fill="#000000">tensorflow::PruneGraphDefInto</text>
</a>
</g>
</g>
<!-- Node45&#45;&gt;Node53 -->
<g id="edge8" class="edge">
<title>Node45&#45;&gt;Node53</title>
<path fill="none" stroke="#191970" d="M119.0011,-170.408C127.3453,-169.4836 136.0565,-168.5185 144.7743,-167.5527"/>
<polygon fill="#191970" stroke="#191970" points="145.4359,-171.0009 154.9896,-166.421 144.665,-164.0435 145.4359,-171.0009"/>
</g>
<!-- Node54 -->
<g id="node10" class="node">
<title>Node54</title>
<g id="a_node10"><a xlink:href="../../de/d86/namespacetensorflow.html#a43875c6284c3af69e7a420b67c7eec6b" target="_top" xlink:title="Convert GraphDef defined protobuf to type Graph ">
<polygon fill="#ffffff" stroke="#000000" points="167,-99 167,-129 295,-129 295,-99 167,-99"/>
<text text-anchor="start" x="175" y="-117" font-family="Helvetica,sans-Serif" font-size="10.00" fill="#000000">tensorflow::ConvertGraph</text>
<text text-anchor="middle" x="231" y="-106" font-family="Helvetica,sans-Serif" font-size="10.00" fill="#000000">DefToGraph</text>
</a>
</g>
</g>
<!-- Node45&#45;&gt;Node54 -->
<g id="edge10" class="edge">
<title>Node45&#45;&gt;Node54</title>
<path fill="none" stroke="#191970" d="M109.8341,-156.307C124.3425,-150.5235 140.2397,-144.3586 155,-139 161.2282,-136.7389 167.7742,-134.4524 174.3033,-132.2284"/>
<polygon fill="#191970" stroke="#191970" points="175.4575,-135.5329 183.8181,-129.0251 173.224,-128.8988 175.4575,-135.5329"/>
</g>
<!-- Node55 -->
<g id="node11" class="node">
<title>Node55</title>
<g id="a_node11"><a xlink:href="../../d3/dfa/namespacetensorflow_1_1anonymous__namespace_02tf2xla_8cc_03.html#af0d9ad360ae01cf7c15abe04de99b230" target="_top" xlink:title="tensorflow::anonymous\l_namespace\{tf2xla::cc\}\l::RewriteAndPruneGraph">
<polygon fill="#ffffff" stroke="#000000" points="168.5,-38.5 168.5,-79.5 293.5,-79.5 293.5,-38.5 168.5,-38.5"/>
<text text-anchor="start" x="176.5" y="-67.5" font-family="Helvetica,sans-Serif" font-size="10.00" fill="#000000">tensorflow::anonymous</text>
<text text-anchor="start" x="176.5" y="-56.5" font-family="Helvetica,sans-Serif" font-size="10.00" fill="#000000">_namespace{tf2xla::cc}</text>
<text text-anchor="middle" x="231" y="-45.5" font-family="Helvetica,sans-Serif" font-size="10.00" fill="#000000">::RewriteAndPruneGraph</text>
</a>
</g>
</g>
<!-- Node45&#45;&gt;Node55 -->
<g id="edge11" class="edge">
<title>Node45&#45;&gt;Node55</title>
<path fill="none" stroke="#191970" d="M77.9409,-156.4632C96.0511,-137.2594 125.2238,-108.796 155,-90 158.2949,-87.9201 161.753,-85.9309 165.3018,-84.0366"/>
<polygon fill="#191970" stroke="#191970" points="166.9081,-87.1466 174.2689,-79.5263 163.7626,-80.8931 166.9081,-87.1466"/>
</g>
<!-- Node47 -->
<g id="node3" class="node">
<title>Node47</title>
<g id="a_node3"><a xlink:href="../../d8/dc5/namespacetensorflow_1_1anonymous__namespace_02tf2xla__util_8cc_03.html#ad6360ec8ca6c6bd7d9713746d13b6532" target="_top" xlink:title="tensorflow::anonymous\l_namespace\{tf2xla_util\l::cc\}::ValidateTensorId">
<polygon fill="#ffffff" stroke="#000000" points="375,-388.5 375,-429.5 493,-429.5 493,-388.5 375,-388.5"/>
<text text-anchor="start" x="383" y="-417.5" font-family="Helvetica,sans-Serif" font-size="10.00" fill="#000000">tensorflow::anonymous</text>
<text text-anchor="start" x="383" y="-406.5" font-family="Helvetica,sans-Serif" font-size="10.00" fill="#000000">_namespace{tf2xla_util</text>
<text text-anchor="middle" x="434" y="-395.5" font-family="Helvetica,sans-Serif" font-size="10.00" fill="#000000">::cc}::ValidateTensorId</text>
</a>
</g>
</g>
<!-- Node46&#45;&gt;Node47 -->
<g id="edge2" class="edge">
<title>Node46&#45;&gt;Node47</title>
<path fill="none" stroke="#191970" d="M246.887,-328.6495C268.2113,-341.3338 307.5219,-363.7851 343,-379 350.0948,-382.0426 357.6076,-384.9679 365.1539,-387.7185"/>
<polygon fill="#191970" stroke="#191970" points="364.1066,-391.0607 374.7014,-391.1048 366.4466,-384.4633 364.1066,-391.0607"/>
</g>
<!-- Node48 -->
<g id="node4" class="node">
<title>Node48</title>
<g id="a_node4"><a xlink:href="../../d8/dc5/namespacetensorflow_1_1anonymous__namespace_02tf2xla__util_8cc_03.html#aa14d0da8e43dfc0a77a6f691d9b1d270" target="_top" xlink:title="tensorflow::anonymous\l_namespace\{tf2xla_util\l::cc\}::CheckNameDuplicates">
<polygon fill="#ffffff" stroke="#000000" points="362.5,-328.5 362.5,-369.5 505.5,-369.5 505.5,-328.5 362.5,-328.5"/>
<text text-anchor="start" x="370.5" y="-357.5" font-family="Helvetica,sans-Serif" font-size="10.00" fill="#000000">tensorflow::anonymous</text>
<text text-anchor="start" x="370.5" y="-346.5" font-family="Helvetica,sans-Serif" font-size="10.00" fill="#000000">_namespace{tf2xla_util</text>
<text text-anchor="middle" x="434" y="-335.5" font-family="Helvetica,sans-Serif" font-size="10.00" fill="#000000">::cc}::CheckNameDuplicates</text>
</a>
</g>
</g>
<!-- Node46&#45;&gt;Node48 -->
<g id="edge3" class="edge">
<title>Node46&#45;&gt;Node48</title>
<path fill="none" stroke="#191970" d="M295.5094,-328.5334C313.5184,-331.1948 333.3272,-334.1222 352.1922,-336.9102"/>
<polygon fill="#191970" stroke="#191970" points="351.852,-340.3978 362.2563,-338.3975 352.8755,-333.473 351.852,-340.3978"/>
</g>
<!-- Node49 -->
<g id="node5" class="node">
<title>Node49</title>
<g id="a_node5"><a xlink:href="../../d8/dc5/namespacetensorflow_1_1anonymous__namespace_02tf2xla__util_8cc_03.html#ab56178cbd59d0fc0fb00acc249efb9d3" target="_top" xlink:title="tensorflow::anonymous\l_namespace\{tf2xla_util\l::cc\}::CheckFeedFetchNameConflicts">
<polygon fill="#ffffff" stroke="#000000" points="343,-268.5 343,-309.5 525,-309.5 525,-268.5 343,-268.5"/>
<text text-anchor="start" x="351" y="-297.5" font-family="Helvetica,sans-Serif" font-size="10.00" fill="#000000">tensorflow::anonymous</text>
<text text-anchor="start" x="351" y="-286.5" font-family="Helvetica,sans-Serif" font-size="10.00" fill="#000000">_namespace{tf2xla_util</text>
<text text-anchor="middle" x="434" y="-275.5" font-family="Helvetica,sans-Serif" font-size="10.00" fill="#000000">::cc}::CheckFeedFetchNameConflicts</text>
</a>
</g>
</g>
<!-- Node46&#45;&gt;Node49 -->
<g id="edge4" class="edge">
<title>Node46&#45;&gt;Node49</title>
<path fill="none" stroke="#191970" d="M295.5094,-309.4666C307.4183,-307.7066 320.1143,-305.8304 332.804,-303.9551"/>
<polygon fill="#191970" stroke="#191970" points="333.5835,-307.378 342.9643,-302.4535 332.5601,-300.4532 333.5835,-307.378"/>
</g>
<!-- Node51 -->
<g id="node7" class="node">
<title>Node51</title>
<g id="a_node7"><a xlink:href="../../de/d86/namespacetensorflow.html#a7884448129fe060a9d8e61b96aefeb42" target="_top" xlink:title="tensorflow::TensorIdToString">
<polygon fill="#ffffff" stroke="#000000" points="561,-95.5 561,-114.5 702,-114.5 702,-95.5 561,-95.5"/>
<text text-anchor="middle" x="631.5" y="-102.5" font-family="Helvetica,sans-Serif" font-size="10.00" fill="#000000">tensorflow::TensorIdToString</text>
</a>
</g>
</g>
<!-- Node50&#45;&gt;Node51 -->
<g id="edge6" class="edge">
<title>Node50&#45;&gt;Node51</title>
<path fill="none" stroke="#191970" d="M301.5032,-249.6779C363.4793,-254.9668 454.524,-254.723 525,-221 569.5871,-199.6649 604.3152,-150.6076 620.8711,-123.6264"/>
<polygon fill="#191970" stroke="#191970" points="624.0305,-125.1611 626.1331,-114.7769 618.0138,-121.5834 624.0305,-125.1611"/>
</g>
<!-- Node50&#45;&gt;Node52 -->
<g id="edge7" class="edge">
<title>Node50&#45;&gt;Node52</title>
<path fill="none" stroke="#191970" d="M300.2933,-224.9808C318.0282,-221.1367 337.2265,-216.9755 355.3927,-213.038"/>
<polygon fill="#191970" stroke="#191970" points="356.3314,-216.4159 365.363,-210.877 354.8485,-209.5748 356.3314,-216.4159"/>
</g>
<!-- Node55&#45;&gt;Node51 -->
<g id="edge16" class="edge">
<title>Node55&#45;&gt;Node51</title>
<path fill="none" stroke="#191970" d="M284.1657,-79.5676C291.9041,-82.8833 299.7136,-86.4109 307,-90 323.6168,-98.1849 325.1187,-106.1658 343,-111 419.5755,-131.7021 511.7936,-124.4997 571.0091,-115.9917"/>
<polygon fill="#191970" stroke="#191970" points="571.5724,-119.4465 580.9454,-114.5072 570.538,-112.5233 571.5724,-119.4465"/>
</g>
<!-- Node56 -->
<g id="node12" class="node">
<title>Node56</title>
<g id="a_node12"><a xlink:href="../../d3/dfa/namespacetensorflow_1_1anonymous__namespace_02tf2xla_8cc_03.html#a5a9e535379a62f9f3ffe7b1bff6ce8ab" target="_top" xlink:title="tensorflow::anonymous\l_namespace\{tf2xla::cc\}\l::AddArgNodes">
<polygon fill="#ffffff" stroke="#000000" points="374.5,-60.5 374.5,-101.5 493.5,-101.5 493.5,-60.5 374.5,-60.5"/>
<text text-anchor="start" x="382.5" y="-89.5" font-family="Helvetica,sans-Serif" font-size="10.00" fill="#000000">tensorflow::anonymous</text>
<text text-anchor="start" x="382.5" y="-78.5" font-family="Helvetica,sans-Serif" font-size="10.00" fill="#000000">_namespace{tf2xla::cc}</text>
<text text-anchor="middle" x="434" y="-67.5" font-family="Helvetica,sans-Serif" font-size="10.00" fill="#000000">::AddArgNodes</text>
</a>
</g>
</g>
<!-- Node55&#45;&gt;Node56 -->
<g id="edge12" class="edge">
<title>Node55&#45;&gt;Node56</title>
<path fill="none" stroke="#191970" d="M293.5631,-65.7802C315.9901,-68.2107 341.4063,-70.9652 364.3933,-73.4564"/>
<polygon fill="#191970" stroke="#191970" points="364.1022,-76.9453 374.4211,-74.5432 364.8565,-69.986 364.1022,-76.9453"/>
</g>
<!-- Node57 -->
<g id="node13" class="node">
<title>Node57</title>
<g id="a_node13"><a xlink:href="../../d3/dfa/namespacetensorflow_1_1anonymous__namespace_02tf2xla_8cc_03.html#a5ff78a52c332a9f1b84959776a0d6161" target="_top" xlink:title="tensorflow::anonymous\l_namespace\{tf2xla::cc\}\l::AddRetvalNodes">
<polygon fill="#ffffff" stroke="#000000" points="374.5,-.5 374.5,-41.5 493.5,-41.5 493.5,-.5 374.5,-.5"/>
<text text-anchor="start" x="382.5" y="-29.5" font-family="Helvetica,sans-Serif" font-size="10.00" fill="#000000">tensorflow::anonymous</text>
<text text-anchor="start" x="382.5" y="-18.5" font-family="Helvetica,sans-Serif" font-size="10.00" fill="#000000">_namespace{tf2xla::cc}</text>
<text text-anchor="middle" x="434" y="-7.5" font-family="Helvetica,sans-Serif" font-size="10.00" fill="#000000">::AddRetvalNodes</text>
</a>
</g>
</g>
<!-- Node55&#45;&gt;Node57 -->
<g id="edge14" class="edge">
<title>Node55&#45;&gt;Node57</title>
<path fill="none" stroke="#191970" d="M293.5631,-47.2887C315.9901,-43.0905 341.4063,-38.3328 364.3933,-34.0298"/>
<polygon fill="#191970" stroke="#191970" points="365.2359,-37.433 374.4211,-32.1527 363.9478,-30.5525 365.2359,-37.433"/>
</g>
<!-- Node56&#45;&gt;Node51 -->
<g id="edge13" class="edge">
<title>Node56&#45;&gt;Node51</title>
<path fill="none" stroke="#191970" d="M493.5243,-88.2333C511.6109,-90.4312 531.7938,-92.8838 551.0194,-95.2201"/>
<polygon fill="#191970" stroke="#191970" points="550.6205,-98.6973 560.9697,-96.4292 551.4649,-91.7484 550.6205,-98.6973"/>
</g>
<!-- Node57&#45;&gt;Node51 -->
<g id="edge15" class="edge">
<title>Node57&#45;&gt;Node51</title>
<path fill="none" stroke="#191970" d="M493.7049,-39.2506C504.2341,-42.8742 515.0151,-46.8506 525,-51 553.2214,-62.728 584.2571,-78.8561 605.5069,-90.4273"/>
<polygon fill="#191970" stroke="#191970" points="604.0871,-93.6408 614.5364,-95.3909 607.4592,-87.5065 604.0871,-93.6408"/>
</g>
</g>
</svg>
