<?xml version="1.0" encoding="UTF-8" standalone="no"?>
<!DOCTYPE svg PUBLIC "-//W3C//DTD SVG 1.1//EN"
 "http://www.w3.org/Graphics/SVG/1.1/DTD/svg11.dtd">
<!-- Generated by graphviz version 2.40.1 (20161225.0304)
 -->
<!-- Title: tensorflow::anonymous_namespace{tf2xla::cc}::ConvertGraphToXla Pages: 1 -->
<svg width="653pt" height="47pt"
 viewBox="0.00 0.00 653.31 47.00" xmlns="http://www.w3.org/2000/svg" xmlns:xlink="http://www.w3.org/1999/xlink">
<g id="graph0" class="graph" transform="scale(1 1) rotate(0) translate(4 43)">
<title>tensorflow::anonymous_namespace{tf2xla::cc}::ConvertGraphToXla</title>
<polygon fill="#ffffff" stroke="transparent" points="-4,4 -4,-43 649.3086,-43 649.3086,4 -4,4"/>
<!-- Node2 -->
<g id="node1" class="node">
<title>Node2</title>
<polygon fill="#bfbfbf" stroke="#000000" points="0,-.5 0,-38.5 119.3984,-38.5 119.3984,-.5 0,-.5"/>
<text text-anchor="start" x="8" y="-26.5" font-family="Helvetica,sans-Serif" font-size="10.00" fill="#000000">tensorflow::anonymous</text>
<text text-anchor="start" x="8" y="-16.5" font-family="Helvetica,sans-Serif" font-size="10.00" fill="#000000">_namespace{tf2xla::cc}</text>
<text text-anchor="middle" x="59.6992" y="-6.5" font-family="Helvetica,sans-Serif" font-size="10.00" fill="#000000">::ConvertGraphToXla</text>
</g>
<!-- Node3 -->
<g id="node2" class="node">
<title>Node3</title>
<g id="a_node2"><a xlink:href="../../de/d86/namespacetensorflow.html#a6f8fce5955ec6d67cd1762891d4830e9" target="_top" xlink:title="Convert tensorflow graph_def to XLA UserComputation. ">
<polygon fill="#ffffff" stroke="#000000" points="155.3984,-5.5 155.3984,-33.5 285.3389,-33.5 285.3389,-5.5 155.3984,-5.5"/>
<text text-anchor="start" x="163.3984" y="-21.5" font-family="Helvetica,sans-Serif" font-size="10.00" fill="#000000">tensorflow::ConvertGraph</text>
<text text-anchor="middle" x="220.3687" y="-11.5" font-family="Helvetica,sans-Serif" font-size="10.00" fill="#000000">DefToXla</text>
</a>
</g>
</g>
<!-- Node2&#45;&gt;Node3 -->
<g id="edge1" class="edge">
<title>Node2&#45;&gt;Node3</title>
<path fill="none" stroke="#191970" d="M129.7915,-19.5C138.2916,-19.5 146.9472,-19.5 155.3692,-19.5"/>
<polygon fill="#191970" stroke="#191970" points="129.5266,-16.0001 119.5266,-19.5 129.5266,-23.0001 129.5266,-16.0001"/>
</g>
<!-- Node4 -->
<g id="node3" class="node">
<title>Node4</title>
<g id="a_node3"><a xlink:href="../../d7/d38/namespacetensorflow_1_1tfcompile.html#a021cb1c58d938b16dcd998aa8d1fc191" target="_top" xlink:title="Converts the graph into an XLA computation, and compiles the computation. Called by tensorflow::tfcom...">
<polygon fill="#ffffff" stroke="#000000" points="321.3389,-5.5 321.3389,-33.5 428.4863,-33.5 428.4863,-5.5 321.3389,-5.5"/>
<text text-anchor="start" x="329.3389" y="-21.5" font-family="Helvetica,sans-Serif" font-size="10.00" fill="#000000">tensorflow::tfcompile</text>
<text text-anchor="middle" x="374.9126" y="-11.5" font-family="Helvetica,sans-Serif" font-size="10.00" fill="#000000">::CompileGraph</text>
</a>
</g>
</g>
<!-- Node3&#45;&gt;Node4 -->
<g id="edge2" class="edge">
<title>Node3&#45;&gt;Node4</title>
<path fill="none" stroke="#191970" d="M295.5517,-19.5C304.1828,-19.5 312.8487,-19.5 321.1182,-19.5"/>
<polygon fill="#191970" stroke="#191970" points="295.4613,-16.0001 285.4613,-19.5 295.4613,-23.0001 295.4613,-16.0001"/>
</g>
<!-- Node5 -->
<g id="node4" class="node">
<title>Node5</title>
<g id="a_node4"><a xlink:href="../../d7/d38/namespacetensorflow_1_1tfcompile.html#a460964a5bb277865d1275fe3746132c1" target="_top" xlink:title="tensorflow::tfcompile\l::Main">
<polygon fill="#ffffff" stroke="#000000" points="464.4863,-5.5 464.4863,-33.5 571.6338,-33.5 571.6338,-5.5 464.4863,-5.5"/>
<text text-anchor="start" x="472.4863" y="-21.5" font-family="Helvetica,sans-Serif" font-size="10.00" fill="#000000">tensorflow::tfcompile</text>
<text text-anchor="middle" x="518.0601" y="-11.5" font-family="Helvetica,sans-Serif" font-size="10.00" fill="#000000">::Main</text>
</a>
</g>
</g>
<!-- Node4&#45;&gt;Node5 -->
<g id="edge3" class="edge">
<title>Node4&#45;&gt;Node5</title>
<path fill="none" stroke="#191970" d="M438.8023,-19.5C447.2323,-19.5 455.8062,-19.5 464.0489,-19.5"/>
<polygon fill="#191970" stroke="#191970" points="438.6227,-16.0001 428.6227,-19.5 438.6227,-23.0001 438.6227,-16.0001"/>
</g>
<!-- Node6 -->
<g id="node5" class="node">
<title>Node6</title>
<g id="a_node5"><a xlink:href="../../d4/d8d/tfcompile__main_8cc.html#a3c04138a5bfe5d72780bb7e82a18e627" target="_top" xlink:title="main">
<polygon fill="#ffffff" stroke="#000000" points="607.6338,-10.5 607.6338,-28.5 645.3086,-28.5 645.3086,-10.5 607.6338,-10.5"/>
<text text-anchor="middle" x="626.4712" y="-16.5" font-family="Helvetica,sans-Serif" font-size="10.00" fill="#000000">main</text>
</a>
</g>
</g>
<!-- Node5&#45;&gt;Node6 -->
<g id="edge4" class="edge">
<title>Node5&#45;&gt;Node6</title>
<path fill="none" stroke="#191970" d="M582.0633,-19.5C591.2922,-19.5 600.1292,-19.5 607.4556,-19.5"/>
<polygon fill="#191970" stroke="#191970" points="581.9481,-16.0001 571.948,-19.5 581.948,-23.0001 581.9481,-16.0001"/>
</g>
</g>
</svg>
