<?xml version="1.0" encoding="UTF-8" standalone="no"?>
<!DOCTYPE svg PUBLIC "-//W3C//DTD SVG 1.1//EN"
 "http://www.w3.org/Graphics/SVG/1.1/DTD/svg11.dtd">
<!-- Generated by graphviz version 2.40.1 (20161225.0304)
 -->
<!-- Title: tensorflow::anonymous_namespace{tf2xla::cc}::ConvertGraphToXla Pages: 1 -->
<svg width="437pt" height="50pt"
 viewBox="0.00 0.00 437.00 50.00" xmlns="http://www.w3.org/2000/svg" xmlns:xlink="http://www.w3.org/1999/xlink">
<g id="graph0" class="graph" transform="scale(1 1) rotate(0) translate(4 46)">
<title>tensorflow::anonymous_namespace{tf2xla::cc}::ConvertGraphToXla</title>
<polygon fill="#ffffff" stroke="transparent" points="-4,4 -4,-46 433,-46 433,4 -4,4"/>
<!-- Node24 -->
<g id="node1" class="node">
<title>Node24</title>
<polygon fill="#bfbfbf" stroke="#000000" points="0,-.5 0,-41.5 119,-41.5 119,-.5 0,-.5"/>
<text text-anchor="start" x="8" y="-29.5" font-family="Helvetica,sans-Serif" font-size="10.00" fill="#000000">tensorflow::anonymous</text>
<text text-anchor="start" x="8" y="-18.5" font-family="Helvetica,sans-Serif" font-size="10.00" fill="#000000">_namespace{tf2xla::cc}</text>
<text text-anchor="middle" x="59.5" y="-7.5" font-family="Helvetica,sans-Serif" font-size="10.00" fill="#000000">::ConvertGraphToXla</text>
</g>
<!-- Node25 -->
<g id="node2" class="node">
<title>Node25</title>
<g id="a_node2"><a xlink:href="../../d3/dfa/namespacetensorflow_1_1anonymous__namespace_02tf2xla_8cc_03.html#a772cc088f229bde4039c15f70d2fc8e0" target="_top" xlink:title="tensorflow::anonymous\l_namespace\{tf2xla::cc\}\l::CreateXlaArgs">
<polygon fill="#ffffff" stroke="#000000" points="155,-.5 155,-41.5 274,-41.5 274,-.5 155,-.5"/>
<text text-anchor="start" x="163" y="-29.5" font-family="Helvetica,sans-Serif" font-size="10.00" fill="#000000">tensorflow::anonymous</text>
<text text-anchor="start" x="163" y="-18.5" font-family="Helvetica,sans-Serif" font-size="10.00" fill="#000000">_namespace{tf2xla::cc}</text>
<text text-anchor="middle" x="214.5" y="-7.5" font-family="Helvetica,sans-Serif" font-size="10.00" fill="#000000">::CreateXlaArgs</text>
</a>
</g>
</g>
<!-- Node24&#45;&gt;Node25 -->
<g id="edge1" class="edge">
<title>Node24&#45;&gt;Node25</title>
<path fill="none" stroke="#191970" d="M119.427,-21C127.7244,-21 136.3054,-21 144.7618,-21"/>
<polygon fill="#191970" stroke="#191970" points="144.9877,-24.5001 154.9877,-21 144.9877,-17.5001 144.9877,-24.5001"/>
</g>
<!-- Node26 -->
<g id="node3" class="node">
<title>Node26</title>
<g id="a_node3"><a xlink:href="../../d3/dfa/namespacetensorflow_1_1anonymous__namespace_02tf2xla_8cc_03.html#a28218d7f431c9296266e934c1a7604a4" target="_top" xlink:title="tensorflow::anonymous\l_namespace\{tf2xla::cc\}\l::CollectArgNodes">
<polygon fill="#ffffff" stroke="#000000" points="310,-.5 310,-41.5 429,-41.5 429,-.5 310,-.5"/>
<text text-anchor="start" x="318" y="-29.5" font-family="Helvetica,sans-Serif" font-size="10.00" fill="#000000">tensorflow::anonymous</text>
<text text-anchor="start" x="318" y="-18.5" font-family="Helvetica,sans-Serif" font-size="10.00" fill="#000000">_namespace{tf2xla::cc}</text>
<text text-anchor="middle" x="369.5" y="-7.5" font-family="Helvetica,sans-Serif" font-size="10.00" fill="#000000">::CollectArgNodes</text>
</a>
</g>
</g>
<!-- Node25&#45;&gt;Node26 -->
<g id="edge2" class="edge">
<title>Node25&#45;&gt;Node26</title>
<path fill="none" stroke="#191970" d="M274.427,-21C282.7244,-21 291.3054,-21 299.7618,-21"/>
<polygon fill="#191970" stroke="#191970" points="299.9877,-24.5001 309.9877,-21 299.9877,-17.5001 299.9877,-24.5001"/>
</g>
</g>
</svg>
