<?xml version="1.0" encoding="UTF-8" standalone="no"?>
<!DOCTYPE svg PUBLIC "-//W3C//DTD SVG 1.1//EN"
 "http://www.w3.org/Graphics/SVG/1.1/DTD/svg11.dtd">
<!-- Generated by graphviz version 2.40.1 (20161225.0304)
 -->
<!-- Title: tensorflow::anonymous_namespace{tf2xla::cc}::ConvertGraphToXla Pages: 1 -->
<svg width="641pt" height="100pt"
 viewBox="0.00 0.00 641.00 99.50" xmlns="http://www.w3.org/2000/svg" xmlns:xlink="http://www.w3.org/1999/xlink">
<g id="graph0" class="graph" transform="scale(1 1) rotate(0) translate(4 95.5)">
<title>tensorflow::anonymous_namespace{tf2xla::cc}::ConvertGraphToXla</title>
<polygon fill="#ffffff" stroke="transparent" points="-4,4 -4,-95.5 637,-95.5 637,4 -4,4"/>
<!-- Node26 -->
<g id="node1" class="node">
<title>Node26</title>
<polygon fill="#bfbfbf" stroke="#000000" points="0,-27.5 0,-68.5 119,-68.5 119,-27.5 0,-27.5"/>
<text text-anchor="start" x="8" y="-56.5" font-family="Helvetica,sans-Serif" font-size="10.00" fill="#000000">tensorflow::anonymous</text>
<text text-anchor="start" x="8" y="-45.5" font-family="Helvetica,sans-Serif" font-size="10.00" fill="#000000">_namespace{tf2xla::cc}</text>
<text text-anchor="middle" x="59.5" y="-34.5" font-family="Helvetica,sans-Serif" font-size="10.00" fill="#000000">::ConvertGraphToXla</text>
</g>
<!-- Node27 -->
<g id="node2" class="node">
<title>Node27</title>
<g id="a_node2"><a xlink:href="../../d9/de9/classtensorflow_1_1XlaOpRegistry.html#a504bd86e27f0fedc9c5dcb82af983bfb" target="_top" xlink:title="Registers all JIT kernels on JIT devices, if not already registered. Does nothing otherwise...">
<polygon fill="#ffffff" stroke="#000000" points="155,-61 155,-91 299,-91 299,-61 155,-61"/>
<text text-anchor="start" x="163" y="-79" font-family="Helvetica,sans-Serif" font-size="10.00" fill="#000000">tensorflow::XlaOpRegistry</text>
<text text-anchor="middle" x="227" y="-68" font-family="Helvetica,sans-Serif" font-size="10.00" fill="#000000">::RegisterCompilationKernels</text>
</a>
</g>
</g>
<!-- Node26&#45;&gt;Node27 -->
<g id="edge1" class="edge">
<title>Node26&#45;&gt;Node27</title>
<path fill="none" stroke="#191970" d="M119.0259,-57.9506C127.3389,-59.3402 136.0003,-60.7881 144.6419,-62.2327"/>
<polygon fill="#191970" stroke="#191970" points="144.3151,-65.7265 154.7553,-63.9233 145.4692,-58.8223 144.3151,-65.7265"/>
</g>
<!-- Node30 -->
<g id="node5" class="node">
<title>Node30</title>
<g id="a_node5"><a xlink:href="../../d3/dfa/namespacetensorflow_1_1anonymous__namespace_02tf2xla_8cc_03.html#a772cc088f229bde4039c15f70d2fc8e0" target="_top" xlink:title="tensorflow::anonymous\l_namespace\{tf2xla::cc\}\l::CreateXlaArgs">
<polygon fill="#ffffff" stroke="#000000" points="167.5,-.5 167.5,-41.5 286.5,-41.5 286.5,-.5 167.5,-.5"/>
<text text-anchor="start" x="175.5" y="-29.5" font-family="Helvetica,sans-Serif" font-size="10.00" fill="#000000">tensorflow::anonymous</text>
<text text-anchor="start" x="175.5" y="-18.5" font-family="Helvetica,sans-Serif" font-size="10.00" fill="#000000">_namespace{tf2xla::cc}</text>
<text text-anchor="middle" x="227" y="-7.5" font-family="Helvetica,sans-Serif" font-size="10.00" fill="#000000">::CreateXlaArgs</text>
</a>
</g>
</g>
<!-- Node26&#45;&gt;Node30 -->
<g id="edge4" class="edge">
<title>Node26&#45;&gt;Node30</title>
<path fill="none" stroke="#191970" d="M119.0259,-38.4048C131.4168,-36.4074 144.5817,-34.2853 157.3015,-32.235"/>
<polygon fill="#191970" stroke="#191970" points="158.0682,-35.6567 167.3838,-30.6098 156.9542,-28.7459 158.0682,-35.6567"/>
</g>
<!-- Node28 -->
<g id="node3" class="node">
<title>Node28</title>
<g id="a_node3"><a xlink:href="../../d9/de9/classtensorflow_1_1XlaOpRegistry.html#a6df4a46abd7f1d52ab601ee4f694d4fe" target="_top" xlink:title="tensorflow::XlaOpRegistry\l::Instance">
<polygon fill="#ffffff" stroke="#000000" points="335,-61 335,-91 466,-91 466,-61 335,-61"/>
<text text-anchor="start" x="343" y="-79" font-family="Helvetica,sans-Serif" font-size="10.00" fill="#000000">tensorflow::XlaOpRegistry</text>
<text text-anchor="middle" x="400.5" y="-68" font-family="Helvetica,sans-Serif" font-size="10.00" fill="#000000">::Instance</text>
</a>
</g>
</g>
<!-- Node27&#45;&gt;Node28 -->
<g id="edge2" class="edge">
<title>Node27&#45;&gt;Node28</title>
<path fill="none" stroke="#191970" d="M299.0723,-76C307.4785,-76 316.0741,-76 324.5309,-76"/>
<polygon fill="#191970" stroke="#191970" points="324.7554,-79.5001 334.7554,-76 324.7554,-72.5001 324.7554,-79.5001"/>
</g>
<!-- Node29 -->
<g id="node4" class="node">
<title>Node29</title>
<g id="a_node4"><a xlink:href="../../d9/de9/classtensorflow_1_1XlaOpRegistry.html#a2be34fb36eb475b48d2d319d2a53e15b" target="_top" xlink:title="tensorflow::XlaOpRegistry\l::XlaOpRegistry">
<polygon fill="#ffffff" stroke="#000000" points="502,-61 502,-91 633,-91 633,-61 502,-61"/>
<text text-anchor="start" x="510" y="-79" font-family="Helvetica,sans-Serif" font-size="10.00" fill="#000000">tensorflow::XlaOpRegistry</text>
<text text-anchor="middle" x="567.5" y="-68" font-family="Helvetica,sans-Serif" font-size="10.00" fill="#000000">::XlaOpRegistry</text>
</a>
</g>
</g>
<!-- Node28&#45;&gt;Node29 -->
<g id="edge3" class="edge">
<title>Node28&#45;&gt;Node29</title>
<path fill="none" stroke="#191970" d="M466.0235,-76C474.496,-76 483.2278,-76 491.8471,-76"/>
<polygon fill="#191970" stroke="#191970" points="491.8914,-79.5001 501.8913,-76 491.8913,-72.5001 491.8914,-79.5001"/>
</g>
<!-- Node31 -->
<g id="node6" class="node">
<title>Node31</title>
<g id="a_node6"><a xlink:href="../../d3/dfa/namespacetensorflow_1_1anonymous__namespace_02tf2xla_8cc_03.html#a28218d7f431c9296266e934c1a7604a4" target="_top" xlink:title="tensorflow::anonymous\l_namespace\{tf2xla::cc\}\l::CollectArgNodes">
<polygon fill="#ffffff" stroke="#000000" points="341,-.5 341,-41.5 460,-41.5 460,-.5 341,-.5"/>
<text text-anchor="start" x="349" y="-29.5" font-family="Helvetica,sans-Serif" font-size="10.00" fill="#000000">tensorflow::anonymous</text>
<text text-anchor="start" x="349" y="-18.5" font-family="Helvetica,sans-Serif" font-size="10.00" fill="#000000">_namespace{tf2xla::cc}</text>
<text text-anchor="middle" x="400.5" y="-7.5" font-family="Helvetica,sans-Serif" font-size="10.00" fill="#000000">::CollectArgNodes</text>
</a>
</g>
</g>
<!-- Node30&#45;&gt;Node31 -->
<g id="edge5" class="edge">
<title>Node30&#45;&gt;Node31</title>
<path fill="none" stroke="#191970" d="M286.7089,-21C300.965,-21 316.3036,-21 330.9595,-21"/>
<polygon fill="#191970" stroke="#191970" points="330.9751,-24.5001 340.9751,-21 330.9751,-17.5001 330.9751,-24.5001"/>
</g>
</g>
</svg>
