<?xml version="1.0" encoding="UTF-8" standalone="no"?>
<!DOCTYPE svg PUBLIC "-//W3C//DTD SVG 1.1//EN"
 "http://www.w3.org/Graphics/SVG/1.1/DTD/svg11.dtd">
<!-- Generated by graphviz version 2.38.0 (20140413.2041)
 -->
<!-- Title: tensorflow::anonymous_namespace{tf2xla::cc}::ConvertGraphToXla Pages: 1 -->
<svg width="651pt" height="50pt"
 viewBox="0.00 0.00 651.00 50.00" xmlns="http://www.w3.org/2000/svg" xmlns:xlink="http://www.w3.org/1999/xlink">
<g id="graph0" class="graph" transform="scale(1 1) rotate(0) translate(4 46)">
<title>tensorflow::anonymous_namespace{tf2xla::cc}::ConvertGraphToXla</title>
<polygon fill="white" stroke="none" points="-4,4 -4,-46 647,-46 647,4 -4,4"/>
<!-- Node1 -->
<g id="node1" class="node"><title>Node1</title>
<polygon fill="#bfbfbf" stroke="black" points="0,-0.5 0,-41.5 119,-41.5 119,-0.5 0,-0.5"/>
<text text-anchor="start" x="8" y="-29.5" font-family="Helvetica,sans-Serif" font-size="10.00">tensorflow::anonymous</text>
<text text-anchor="start" x="8" y="-18.5" font-family="Helvetica,sans-Serif" font-size="10.00">_namespace{tf2xla::cc}</text>
<text text-anchor="middle" x="59.5" y="-7.5" font-family="Helvetica,sans-Serif" font-size="10.00">::ConvertGraphToXla</text>
</g>
<!-- Node2 -->
<g id="node2" class="node"><title>Node2</title>
<g id="a_node2"><a xlink:href="../../de/d86/namespacetensorflow.html#a6f8fce5955ec6d67cd1762891d4830e9" target="_top" xlink:title="Convert tensorflow graph_def to XLA UserComputation. ">
<polygon fill="white" stroke="black" points="155,-6 155,-36 283,-36 283,-6 155,-6"/>
<text text-anchor="start" x="163" y="-24" font-family="Helvetica,sans-Serif" font-size="10.00">tensorflow::ConvertGraph</text>
<text text-anchor="middle" x="219" y="-13" font-family="Helvetica,sans-Serif" font-size="10.00">DefToXla</text>
</a>
</g>
</g>
<!-- Node1&#45;&gt;Node2 -->
<g id="edge1" class="edge"><title>Node1&#45;&gt;Node2</title>
<path fill="none" stroke="midnightblue" d="M129.365,-21C137.826,-21 146.443,-21 154.814,-21"/>
<polygon fill="midnightblue" stroke="midnightblue" points="129.147,-17.5001 119.147,-21 129.147,-24.5001 129.147,-17.5001"/>
</g>
<!-- Node3 -->
<g id="node3" class="node"><title>Node3</title>
<g id="a_node3"><a xlink:href="../../d7/d38/namespacetensorflow_1_1tfcompile.html#a021cb1c58d938b16dcd998aa8d1fc191" target="_top" xlink:title="Converts the graph into an XLA computation, and compiles the computation. Called by tensorflow::tfcom...">
<polygon fill="white" stroke="black" points="319,-6 319,-36 426,-36 426,-6 319,-6"/>
<text text-anchor="start" x="327" y="-24" font-family="Helvetica,sans-Serif" font-size="10.00">tensorflow::tfcompile</text>
<text text-anchor="middle" x="372.5" y="-13" font-family="Helvetica,sans-Serif" font-size="10.00">::CompileGraph</text>
</a>
</g>
</g>
<!-- Node2&#45;&gt;Node3 -->
<g id="edge2" class="edge"><title>Node2&#45;&gt;Node3</title>
<path fill="none" stroke="midnightblue" d="M293.432,-21C302.04,-21 310.688,-21 318.931,-21"/>
<polygon fill="midnightblue" stroke="midnightblue" points="293.372,-17.5001 283.372,-21 293.372,-24.5001 293.372,-17.5001"/>
</g>
<!-- Node4 -->
<g id="node4" class="node"><title>Node4</title>
<g id="a_node4"><a xlink:href="../../d7/d38/namespacetensorflow_1_1tfcompile.html#a460964a5bb277865d1275fe3746132c1" target="_top" xlink:title="tensorflow::tfcompile\l::Main">
<polygon fill="white" stroke="black" points="462,-6 462,-36 569,-36 569,-6 462,-6"/>
<text text-anchor="start" x="470" y="-24" font-family="Helvetica,sans-Serif" font-size="10.00">tensorflow::tfcompile</text>
<text text-anchor="middle" x="515.5" y="-13" font-family="Helvetica,sans-Serif" font-size="10.00">::Main</text>
</a>
</g>
</g>
<!-- Node3&#45;&gt;Node4 -->
<g id="edge3" class="edge"><title>Node3&#45;&gt;Node4</title>
<path fill="none" stroke="midnightblue" d="M436.05,-21C444.7,-21 453.51,-21 461.953,-21"/>
<polygon fill="midnightblue" stroke="midnightblue" points="436.003,-17.5001 426.003,-21 436.003,-24.5001 436.003,-17.5001"/>
</g>
<!-- Node5 -->
<g id="node5" class="node"><title>Node5</title>
<g id="a_node5"><a xlink:href="../../d4/d8d/tfcompile__main_8cc.html#a3c04138a5bfe5d72780bb7e82a18e627" target="_top" xlink:title="main">
<polygon fill="white" stroke="black" points="605,-11.5 605,-30.5 643,-30.5 643,-11.5 605,-11.5"/>
<text text-anchor="middle" x="624" y="-18.5" font-family="Helvetica,sans-Serif" font-size="10.00">main</text>
</a>
</g>
</g>
<!-- Node4&#45;&gt;Node5 -->
<g id="edge4" class="edge"><title>Node4&#45;&gt;Node5</title>
<path fill="none" stroke="midnightblue" d="M579.27,-21C588.527,-21 597.386,-21 604.681,-21"/>
<polygon fill="midnightblue" stroke="midnightblue" points="579.126,-17.5001 569.126,-21 579.126,-24.5001 579.126,-17.5001"/>
</g>
</g>
</svg>
