<?xml version="1.0" encoding="UTF-8" standalone="no"?>
<!DOCTYPE svg PUBLIC "-//W3C//DTD SVG 1.1//EN"
 "http://www.w3.org/Graphics/SVG/1.1/DTD/svg11.dtd">
<!-- Generated by graphviz version 2.40.1 (20161225.0304)
 -->
<!-- Title: tensorflow/tensorflow/compiler/xla/service/hlo_ordering.h Pages: 1 -->
<svg width="288pt" height="206pt"
 viewBox="0.00 0.00 288.00 206.00" xmlns="http://www.w3.org/2000/svg" xmlns:xlink="http://www.w3.org/1999/xlink">
<g id="graph0" class="graph" transform="scale(1 1) rotate(0) translate(4 202)">
<title>tensorflow/tensorflow/compiler/xla/service/hlo_ordering.h</title>
<polygon fill="#ffffff" stroke="transparent" points="-4,4 -4,-202 284,-202 284,4 -4,4"/>
<!-- Node38 -->
<g id="node1" class="node">
<title>Node38</title>
<polygon fill="#bfbfbf" stroke="#000000" points="42,-156.5 42,-197.5 152,-197.5 152,-156.5 42,-156.5"/>
<text text-anchor="start" x="50" y="-185.5" font-family="Helvetica,sans-Serif" font-size="10.00" fill="#000000">tensorflow/tensorflow</text>
<text text-anchor="start" x="50" y="-174.5" font-family="Helvetica,sans-Serif" font-size="10.00" fill="#000000">/compiler/xla/service</text>
<text text-anchor="middle" x="97" y="-163.5" font-family="Helvetica,sans-Serif" font-size="10.00" fill="#000000">/hlo_ordering.h</text>
</g>
<!-- Node39 -->
<g id="node2" class="node">
<title>Node39</title>
<g id="a_node2"><a xlink:href="../../d4/dcb/cpu__compiler_8cc.html" target="_top" xlink:title="tensorflow/tensorflow\l/compiler/xla/service\l/cpu/cpu_compiler.cc">
<polygon fill="#ffffff" stroke="#000000" points="0,-.5 0,-41.5 110,-41.5 110,-.5 0,-.5"/>
<text text-anchor="start" x="8" y="-29.5" font-family="Helvetica,sans-Serif" font-size="10.00" fill="#000000">tensorflow/tensorflow</text>
<text text-anchor="start" x="8" y="-18.5" font-family="Helvetica,sans-Serif" font-size="10.00" fill="#000000">/compiler/xla/service</text>
<text text-anchor="middle" x="55" y="-7.5" font-family="Helvetica,sans-Serif" font-size="10.00" fill="#000000">/cpu/cpu_compiler.cc</text>
</a>
</g>
</g>
<!-- Node38&#45;&gt;Node39 -->
<g id="edge1" class="edge">
<title>Node38&#45;&gt;Node39</title>
<path fill="none" stroke="#191970" d="M55.9411,-149.7058C46.6797,-141.3637 38.0898,-131.3488 33,-120 21.5442,-94.4565 32.8053,-62.4528 42.9838,-41.8673"/>
<polygon fill="#191970" stroke="#191970" points="53.9059,-152.5669 63.8166,-156.3123 58.4046,-147.2039 53.9059,-152.5669"/>
</g>
<!-- Node40 -->
<g id="node3" class="node">
<title>Node40</title>
<g id="a_node3"><a xlink:href="../../da/d37/hlo__ordering_8cc.html" target="_top" xlink:title="tensorflow/tensorflow\l/compiler/xla/service\l/hlo_ordering.cc">
<polygon fill="#ffffff" stroke="#000000" points="42,-78.5 42,-119.5 152,-119.5 152,-78.5 42,-78.5"/>
<text text-anchor="start" x="50" y="-107.5" font-family="Helvetica,sans-Serif" font-size="10.00" fill="#000000">tensorflow/tensorflow</text>
<text text-anchor="start" x="50" y="-96.5" font-family="Helvetica,sans-Serif" font-size="10.00" fill="#000000">/compiler/xla/service</text>
<text text-anchor="middle" x="97" y="-85.5" font-family="Helvetica,sans-Serif" font-size="10.00" fill="#000000">/hlo_ordering.cc</text>
</a>
</g>
</g>
<!-- Node38&#45;&gt;Node40 -->
<g id="edge2" class="edge">
<title>Node38&#45;&gt;Node40</title>
<path fill="none" stroke="#191970" d="M97,-146.0789C97,-137.2178 97,-127.7747 97,-119.6898"/>
<polygon fill="#191970" stroke="#191970" points="93.5001,-146.0974 97,-156.0974 100.5001,-146.0975 93.5001,-146.0974"/>
</g>
<!-- Node41 -->
<g id="node4" class="node">
<title>Node41</title>
<g id="a_node4"><a xlink:href="../../db/da3/hlo__scheduling_8h.html" target="_top" xlink:title="tensorflow/tensorflow\l/compiler/xla/service\l/hlo_scheduling.h">
<polygon fill="#ffffff" stroke="#000000" points="170,-78.5 170,-119.5 280,-119.5 280,-78.5 170,-78.5"/>
<text text-anchor="start" x="178" y="-107.5" font-family="Helvetica,sans-Serif" font-size="10.00" fill="#000000">tensorflow/tensorflow</text>
<text text-anchor="start" x="178" y="-96.5" font-family="Helvetica,sans-Serif" font-size="10.00" fill="#000000">/compiler/xla/service</text>
<text text-anchor="middle" x="225" y="-85.5" font-family="Helvetica,sans-Serif" font-size="10.00" fill="#000000">/hlo_scheduling.h</text>
</a>
</g>
</g>
<!-- Node38&#45;&gt;Node41 -->
<g id="edge3" class="edge">
<title>Node38&#45;&gt;Node41</title>
<path fill="none" stroke="#191970" d="M139.5393,-151.0776C156.3809,-140.8148 175.4647,-129.1856 191.3198,-119.5239"/>
<polygon fill="#191970" stroke="#191970" points="137.6837,-148.1097 130.9656,-156.3022 141.3263,-154.0873 137.6837,-148.1097"/>
</g>
<!-- Node41&#45;&gt;Node39 -->
<g id="edge4" class="edge">
<title>Node41&#45;&gt;Node39</title>
<path fill="none" stroke="#191970" d="M170.6477,-74.0619C147.7669,-63.5637 121.4652,-51.4958 99.7315,-41.5239"/>
<polygon fill="#191970" stroke="#191970" points="169.3409,-77.3131 179.8894,-78.3022 172.2601,-70.9508 169.3409,-77.3131"/>
</g>
<!-- Node42 -->
<g id="node5" class="node">
<title>Node42</title>
<g id="a_node5"><a xlink:href="../../d6/d85/hlo__scheduling_8cc.html" target="_top" xlink:title="tensorflow/tensorflow\l/compiler/xla/service\l/hlo_scheduling.cc">
<polygon fill="#ffffff" stroke="#000000" points="170,-.5 170,-41.5 280,-41.5 280,-.5 170,-.5"/>
<text text-anchor="start" x="178" y="-29.5" font-family="Helvetica,sans-Serif" font-size="10.00" fill="#000000">tensorflow/tensorflow</text>
<text text-anchor="start" x="178" y="-18.5" font-family="Helvetica,sans-Serif" font-size="10.00" fill="#000000">/compiler/xla/service</text>
<text text-anchor="middle" x="225" y="-7.5" font-family="Helvetica,sans-Serif" font-size="10.00" fill="#000000">/hlo_scheduling.cc</text>
</a>
</g>
</g>
<!-- Node41&#45;&gt;Node42 -->
<g id="edge5" class="edge">
<title>Node41&#45;&gt;Node42</title>
<path fill="none" stroke="#191970" d="M225,-68.0789C225,-59.2178 225,-49.7747 225,-41.6898"/>
<polygon fill="#191970" stroke="#191970" points="221.5001,-68.0974 225,-78.0974 228.5001,-68.0975 221.5001,-68.0974"/>
</g>
</g>
</svg>
