<?xml version="1.0" encoding="UTF-8" standalone="no"?>
<!DOCTYPE svg PUBLIC "-//W3C//DTD SVG 1.1//EN"
 "http://www.w3.org/Graphics/SVG/1.1/DTD/svg11.dtd">
<!-- Generated by graphviz version 2.40.1 (20161225.0304)
 -->
<!-- Title: tensorflow/tensorflow/compiler/tf2xla/xla_compiler.h Pages: 1 -->
<svg width="1659pt" height="122pt"
 viewBox="0.00 0.00 1659.49 122.00" xmlns="http://www.w3.org/2000/svg" xmlns:xlink="http://www.w3.org/1999/xlink">
<g id="graph0" class="graph" transform="scale(1 1) rotate(0) translate(4 118)">
<title>tensorflow/tensorflow/compiler/tf2xla/xla_compiler.h</title>
<polygon fill="#ffffff" stroke="transparent" points="-4,4 -4,-118 1655.4946,-118 1655.4946,4 -4,4"/>
<!-- Node0 -->
<g id="node1" class="node">
<title>Node0</title>
<polygon fill="#bfbfbf" stroke="#000000" points="761.1724,-75.5 761.1724,-113.5 871.103,-113.5 871.103,-75.5 761.1724,-75.5"/>
<text text-anchor="start" x="769.1724" y="-101.5" font-family="Helvetica,sans-Serif" font-size="10.00" fill="#000000">tensorflow/tensorflow</text>
<text text-anchor="start" x="769.1724" y="-91.5" font-family="Helvetica,sans-Serif" font-size="10.00" fill="#000000">/compiler/tf2xla/xla</text>
<text text-anchor="middle" x="816.1377" y="-81.5" font-family="Helvetica,sans-Serif" font-size="10.00" fill="#000000">_compiler.h</text>
</g>
<!-- Node1 -->
<g id="node2" class="node">
<title>Node1</title>
<polygon fill="#ffffff" stroke="#bfbfbf" points="0,-.5 0,-38.5 108.2754,-38.5 108.2754,-.5 0,-.5"/>
<text text-anchor="start" x="8" y="-26.5" font-family="Helvetica,sans-Serif" font-size="10.00" fill="#000000">tensorflow/compiler</text>
<text text-anchor="start" x="8" y="-16.5" font-family="Helvetica,sans-Serif" font-size="10.00" fill="#000000">/tf2xla/host_compute</text>
<text text-anchor="middle" x="54.1377" y="-6.5" font-family="Helvetica,sans-Serif" font-size="10.00" fill="#000000">_metadata.pb.h</text>
</g>
<!-- Node0&#45;&gt;Node1 -->
<g id="edge1" class="edge">
<title>Node0&#45;&gt;Node1</title>
<path fill="none" stroke="#191970" d="M761.1704,-91.7087C622.25,-84.4083 258.7593,-63.7167 118.6762,-39.0214"/>
<polygon fill="#191970" stroke="#191970" points="119.0553,-35.5323 108.5862,-37.16 117.7853,-42.4162 119.0553,-35.5323"/>
</g>
<!-- Node2 -->
<g id="node3" class="node">
<title>Node2</title>
<polygon fill="#ffffff" stroke="#bfbfbf" points="125.9458,-.5 125.9458,-38.5 240.3296,-38.5 240.3296,-.5 125.9458,-.5"/>
<text text-anchor="start" x="133.9458" y="-26.5" font-family="Helvetica,sans-Serif" font-size="10.00" fill="#000000">tensorflow/compiler</text>
<text text-anchor="start" x="133.9458" y="-16.5" font-family="Helvetica,sans-Serif" font-size="10.00" fill="#000000">/tf2xla/xla_compilation</text>
<text text-anchor="middle" x="183.1377" y="-6.5" font-family="Helvetica,sans-Serif" font-size="10.00" fill="#000000">_device.h</text>
</g>
<!-- Node0&#45;&gt;Node2 -->
<g id="edge2" class="edge">
<title>Node0&#45;&gt;Node2</title>
<path fill="none" stroke="#191970" d="M760.9019,-92.5704C660.6667,-88.3148 442.1979,-75.5739 250.5433,-39.0914"/>
<polygon fill="#191970" stroke="#191970" points="251.0535,-35.6254 240.5714,-37.1668 249.727,-42.4985 251.0535,-35.6254"/>
</g>
<!-- Node3 -->
<g id="node4" class="node">
<title>Node3</title>
<polygon fill="#ffffff" stroke="#bfbfbf" points="258,-5.5 258,-33.5 376.2754,-33.5 376.2754,-5.5 258,-5.5"/>
<text text-anchor="start" x="266" y="-21.5" font-family="Helvetica,sans-Serif" font-size="10.00" fill="#000000">tensorflow/compiler</text>
<text text-anchor="middle" x="317.1377" y="-11.5" font-family="Helvetica,sans-Serif" font-size="10.00" fill="#000000">/xla/client/local_client.h</text>
</g>
<!-- Node0&#45;&gt;Node3 -->
<g id="edge3" class="edge">
<title>Node0&#45;&gt;Node3</title>
<path fill="none" stroke="#191970" d="M761.0695,-90.0048C678.8588,-82.7064 519.4285,-66.2822 386.1377,-39 381.9531,-38.1435 377.6507,-37.1663 373.3372,-36.1161"/>
<polygon fill="#191970" stroke="#191970" points="373.8575,-32.6368 363.3026,-33.5557 372.1268,-39.4194 373.8575,-32.6368"/>
</g>
<!-- Node4 -->
<g id="node5" class="node">
<title>Node4</title>
<polygon fill="#ffffff" stroke="#bfbfbf" points="394.6724,-5.5 394.6724,-33.5 519.603,-33.5 519.603,-5.5 394.6724,-5.5"/>
<text text-anchor="start" x="402.6724" y="-21.5" font-family="Helvetica,sans-Serif" font-size="10.00" fill="#000000">tensorflow/core/common</text>
<text text-anchor="middle" x="457.1377" y="-11.5" font-family="Helvetica,sans-Serif" font-size="10.00" fill="#000000">_runtime/device.h</text>
</g>
<!-- Node0&#45;&gt;Node4 -->
<g id="edge4" class="edge">
<title>Node0&#45;&gt;Node4</title>
<path fill="none" stroke="#191970" d="M761.1322,-85.1022C703.1733,-74.9108 609.3523,-57.5919 529.1377,-39 525.0927,-38.0625 520.9316,-37.0539 516.7468,-36.0068"/>
<polygon fill="#191970" stroke="#191970" points="517.5385,-32.5967 506.983,-33.5089 515.8035,-39.3783 517.5385,-32.5967"/>
</g>
<!-- Node5 -->
<g id="node6" class="node">
<title>Node5</title>
<polygon fill="#ffffff" stroke="#bfbfbf" points="537.6724,-5.5 537.6724,-33.5 662.603,-33.5 662.603,-5.5 537.6724,-5.5"/>
<text text-anchor="start" x="545.6724" y="-21.5" font-family="Helvetica,sans-Serif" font-size="10.00" fill="#000000">tensorflow/core/common</text>
<text text-anchor="middle" x="600.1377" y="-11.5" font-family="Helvetica,sans-Serif" font-size="10.00" fill="#000000">_runtime/device_mgr.h</text>
</g>
<!-- Node0&#45;&gt;Node5 -->
<g id="edge5" class="edge">
<title>Node0&#45;&gt;Node5</title>
<path fill="none" stroke="#191970" d="M761.3525,-75.4774C727.1121,-63.5883 683.3577,-48.3958 650.0737,-36.8389"/>
<polygon fill="#191970" stroke="#191970" points="651.1372,-33.5032 640.5424,-33.5294 648.8411,-40.116 651.1372,-33.5032"/>
</g>
<!-- Node6 -->
<g id="node7" class="node">
<title>Node6</title>
<polygon fill="#ffffff" stroke="#bfbfbf" points="680.6724,-5.5 680.6724,-33.5 805.603,-33.5 805.603,-5.5 680.6724,-5.5"/>
<text text-anchor="start" x="688.6724" y="-21.5" font-family="Helvetica,sans-Serif" font-size="10.00" fill="#000000">tensorflow/core/common</text>
<text text-anchor="middle" x="743.1377" y="-11.5" font-family="Helvetica,sans-Serif" font-size="10.00" fill="#000000">_runtime/function.h</text>
</g>
<!-- Node0&#45;&gt;Node6 -->
<g id="edge6" class="edge">
<title>Node0&#45;&gt;Node6</title>
<path fill="none" stroke="#191970" d="M797.3384,-75.1856C787.1402,-64.7081 774.5095,-51.7313 764.0073,-40.9414"/>
<polygon fill="#191970" stroke="#191970" points="766.2845,-38.263 756.8015,-33.5382 761.2683,-43.1454 766.2845,-38.263"/>
</g>
<!-- Node7 -->
<g id="node8" class="node">
<title>Node7</title>
<polygon fill="#ffffff" stroke="#bfbfbf" points="823.5073,-5.5 823.5073,-33.5 956.7681,-33.5 956.7681,-5.5 823.5073,-5.5"/>
<text text-anchor="start" x="831.5073" y="-21.5" font-family="Helvetica,sans-Serif" font-size="10.00" fill="#000000">tensorflow/core/framework</text>
<text text-anchor="middle" x="890.1377" y="-11.5" font-family="Helvetica,sans-Serif" font-size="10.00" fill="#000000">/function.h</text>
</g>
<!-- Node0&#45;&gt;Node7 -->
<g id="edge7" class="edge">
<title>Node0&#45;&gt;Node7</title>
<path fill="none" stroke="#191970" d="M835.1945,-75.1856C845.5324,-64.7081 858.3361,-51.7313 868.9822,-40.9414"/>
<polygon fill="#191970" stroke="#191970" points="871.7547,-43.1148 876.2867,-33.5382 866.7718,-38.1983 871.7547,-43.1148"/>
</g>
<!-- Node8 -->
<g id="node9" class="node">
<title>Node8</title>
<polygon fill="#ffffff" stroke="#bfbfbf" points="974.7832,-5.5 974.7832,-33.5 1097.4922,-33.5 1097.4922,-5.5 974.7832,-5.5"/>
<text text-anchor="start" x="982.7832" y="-21.5" font-family="Helvetica,sans-Serif" font-size="10.00" fill="#000000">tensorflow/core/platform</text>
<text text-anchor="middle" x="1036.1377" y="-11.5" font-family="Helvetica,sans-Serif" font-size="10.00" fill="#000000">/env.h</text>
</g>
<!-- Node0&#45;&gt;Node8 -->
<g id="edge8" class="edge">
<title>Node0&#45;&gt;Node8</title>
<path fill="none" stroke="#191970" d="M871.369,-75.6711C906.2387,-63.7837 950.9665,-48.5356 985.0195,-36.9267"/>
<polygon fill="#191970" stroke="#191970" points="986.4363,-40.1415 994.772,-33.6019 984.1775,-33.516 986.4363,-40.1415"/>
</g>
<!-- Node9 -->
<g id="node10" class="node">
<title>Node9</title>
<polygon fill="#ffffff" stroke="#bfbfbf" points="1115.7832,-5.5 1115.7832,-33.5 1238.4922,-33.5 1238.4922,-5.5 1115.7832,-5.5"/>
<text text-anchor="start" x="1123.7832" y="-21.5" font-family="Helvetica,sans-Serif" font-size="10.00" fill="#000000">tensorflow/core/platform</text>
<text text-anchor="middle" x="1177.1377" y="-11.5" font-family="Helvetica,sans-Serif" font-size="10.00" fill="#000000">/mutex.h</text>
</g>
<!-- Node0&#45;&gt;Node9 -->
<g id="edge9" class="edge">
<title>Node0&#45;&gt;Node9</title>
<path fill="none" stroke="#191970" d="M871.1959,-85.2973C929.7316,-75.2025 1024.8803,-57.903 1106.1377,-39 1110.0187,-38.0972 1114.0073,-37.1251 1118.0197,-36.114"/>
<polygon fill="#191970" stroke="#191970" points="1119.1878,-39.4272 1127.9948,-33.5375 1117.4372,-32.6496 1119.1878,-39.4272"/>
</g>
<!-- Node10 -->
<g id="node11" class="node">
<title>Node10</title>
<polygon fill="#ffffff" stroke="#bfbfbf" points="1256.7832,-5.5 1256.7832,-33.5 1379.4922,-33.5 1379.4922,-5.5 1256.7832,-5.5"/>
<text text-anchor="start" x="1264.7832" y="-21.5" font-family="Helvetica,sans-Serif" font-size="10.00" fill="#000000">tensorflow/core/platform</text>
<text text-anchor="middle" x="1318.1377" y="-11.5" font-family="Helvetica,sans-Serif" font-size="10.00" fill="#000000">/notification.h</text>
</g>
<!-- Node0&#45;&gt;Node10 -->
<g id="edge10" class="edge">
<title>Node0&#45;&gt;Node10</title>
<path fill="none" stroke="#191970" d="M871.3083,-89.8879C953.6777,-82.4413 1113.438,-65.8313 1247.1377,-39 1251.5575,-38.113 1256.107,-37.1004 1260.6665,-36.0135"/>
<polygon fill="#191970" stroke="#191970" points="1261.7597,-39.3482 1270.6177,-33.5356 1260.0683,-32.5556 1261.7597,-39.3482"/>
</g>
<!-- Node11 -->
<g id="node12" class="node">
<title>Node11</title>
<polygon fill="#ffffff" stroke="#bfbfbf" points="1397.7832,-5.5 1397.7832,-33.5 1520.4922,-33.5 1520.4922,-5.5 1397.7832,-5.5"/>
<text text-anchor="start" x="1405.7832" y="-21.5" font-family="Helvetica,sans-Serif" font-size="10.00" fill="#000000">tensorflow/core/platform</text>
<text text-anchor="middle" x="1459.1377" y="-11.5" font-family="Helvetica,sans-Serif" font-size="10.00" fill="#000000">/thread_annotations.h</text>
</g>
<!-- Node0&#45;&gt;Node11 -->
<g id="edge11" class="edge">
<title>Node0&#45;&gt;Node11</title>
<path fill="none" stroke="#191970" d="M871.3916,-92.2865C973.9724,-87.4823 1200.4887,-73.6084 1388.1377,-39 1392.84,-38.1328 1397.684,-37.1026 1402.5278,-35.9757"/>
<polygon fill="#191970" stroke="#191970" points="1403.5468,-39.3296 1412.425,-33.5478 1401.8791,-32.5311 1403.5468,-39.3296"/>
</g>
<!-- Node12 -->
<g id="node13" class="node">
<title>Node12</title>
<polygon fill="#ffffff" stroke="#bfbfbf" points="1538.7808,-5.5 1538.7808,-33.5 1651.4946,-33.5 1651.4946,-5.5 1538.7808,-5.5"/>
<text text-anchor="start" x="1546.7808" y="-21.5" font-family="Helvetica,sans-Serif" font-size="10.00" fill="#000000">tensorflow/core/public</text>
<text text-anchor="middle" x="1595.1377" y="-11.5" font-family="Helvetica,sans-Serif" font-size="10.00" fill="#000000">/version.h</text>
</g>
<!-- Node0&#45;&gt;Node12 -->
<g id="edge12" class="edge">
<title>Node0&#45;&gt;Node12</title>
<path fill="none" stroke="#191970" d="M871.1365,-91.7142C1015.5221,-84.1615 1402.9192,-62.2918 1529.1377,-39 1533.553,-38.1852 1538.0941,-37.1895 1542.6291,-36.0835"/>
<polygon fill="#191970" stroke="#191970" points="1543.7008,-39.4212 1552.4957,-33.5134 1541.9363,-32.6472 1543.7008,-39.4212"/>
</g>
</g>
</svg>
