<?xml version="1.0" encoding="UTF-8" standalone="no"?>
<!DOCTYPE svg PUBLIC "-//W3C//DTD SVG 1.1//EN"
 "http://www.w3.org/Graphics/SVG/1.1/DTD/svg11.dtd">
<!-- Generated by graphviz version 2.40.1 (20161225.0304)
 -->
<!-- Title: tensorflow/tensorflow/compiler/tf2xla/xla_compiler.h Pages: 1 -->
<svg width="1652pt" height="128pt"
 viewBox="0.00 0.00 1652.00 128.00" xmlns="http://www.w3.org/2000/svg" xmlns:xlink="http://www.w3.org/1999/xlink">
<g id="graph0" class="graph" transform="scale(1 1) rotate(0) translate(4 124)">
<title>tensorflow/tensorflow/compiler/tf2xla/xla_compiler.h</title>
<polygon fill="#ffffff" stroke="transparent" points="-4,4 -4,-124 1648,-124 1648,4 -4,4"/>
<!-- Node0 -->
<g id="node1" class="node">
<title>Node0</title>
<polygon fill="#bfbfbf" stroke="#000000" points="760,-78.5 760,-119.5 870,-119.5 870,-78.5 760,-78.5"/>
<text text-anchor="start" x="768" y="-107.5" font-family="Helvetica,sans-Serif" font-size="10.00" fill="#000000">tensorflow/tensorflow</text>
<text text-anchor="start" x="768" y="-96.5" font-family="Helvetica,sans-Serif" font-size="10.00" fill="#000000">/compiler/tf2xla/xla</text>
<text text-anchor="middle" x="815" y="-85.5" font-family="Helvetica,sans-Serif" font-size="10.00" fill="#000000">_compiler.h</text>
</g>
<!-- Node1 -->
<g id="node2" class="node">
<title>Node1</title>
<polygon fill="#ffffff" stroke="#bfbfbf" points="0,-.5 0,-41.5 108,-41.5 108,-.5 0,-.5"/>
<text text-anchor="start" x="8" y="-29.5" font-family="Helvetica,sans-Serif" font-size="10.00" fill="#000000">tensorflow/compiler</text>
<text text-anchor="start" x="8" y="-18.5" font-family="Helvetica,sans-Serif" font-size="10.00" fill="#000000">/tf2xla/host_compute</text>
<text text-anchor="middle" x="54" y="-7.5" font-family="Helvetica,sans-Serif" font-size="10.00" fill="#000000">_metadata.pb.h</text>
</g>
<!-- Node0&#45;&gt;Node1 -->
<g id="edge1" class="edge">
<title>Node0&#45;&gt;Node1</title>
<path fill="none" stroke="#191970" d="M759.822,-96.2098C620.834,-88.9137 258.066,-68.1413 118.1492,-41.9193"/>
<polygon fill="#191970" stroke="#191970" points="118.5577,-38.4327 108.0707,-39.9406 117.209,-45.3016 118.5577,-38.4327"/>
</g>
<!-- Node2 -->
<g id="node3" class="node">
<title>Node2</title>
<polygon fill="#ffffff" stroke="#bfbfbf" points="126,-.5 126,-41.5 240,-41.5 240,-.5 126,-.5"/>
<text text-anchor="start" x="134" y="-29.5" font-family="Helvetica,sans-Serif" font-size="10.00" fill="#000000">tensorflow/compiler</text>
<text text-anchor="start" x="134" y="-18.5" font-family="Helvetica,sans-Serif" font-size="10.00" fill="#000000">/tf2xla/xla_compilation</text>
<text text-anchor="middle" x="183" y="-7.5" font-family="Helvetica,sans-Serif" font-size="10.00" fill="#000000">_device.h</text>
</g>
<!-- Node0&#45;&gt;Node2 -->
<g id="edge2" class="edge">
<title>Node0&#45;&gt;Node2</title>
<path fill="none" stroke="#191970" d="M759.7869,-97.2404C659.609,-93.2249 441.3396,-80.6921 249.9996,-41.9917"/>
<polygon fill="#191970" stroke="#191970" points="250.5437,-38.5305 240.0443,-39.9492 249.1368,-45.3877 250.5437,-38.5305"/>
</g>
<!-- Node3 -->
<g id="node4" class="node">
<title>Node3</title>
<polygon fill="#ffffff" stroke="#bfbfbf" points="258.5,-6 258.5,-36 377.5,-36 377.5,-6 258.5,-6"/>
<text text-anchor="start" x="266.5" y="-24" font-family="Helvetica,sans-Serif" font-size="10.00" fill="#000000">tensorflow/compiler</text>
<text text-anchor="middle" x="318" y="-13" font-family="Helvetica,sans-Serif" font-size="10.00" fill="#000000">/xla/client/local_client.h</text>
</g>
<!-- Node0&#45;&gt;Node3 -->
<g id="edge3" class="edge">
<title>Node0&#45;&gt;Node3</title>
<path fill="none" stroke="#191970" d="M759.7786,-94.5462C677.7639,-87.2796 519.2216,-70.7243 387,-42 382.6141,-41.0472 378.1036,-39.9495 373.5896,-38.7662"/>
<polygon fill="#191970" stroke="#191970" points="374.3185,-35.3368 363.7485,-36.0619 372.4637,-42.0866 374.3185,-35.3368"/>
</g>
<!-- Node4 -->
<g id="node5" class="node">
<title>Node4</title>
<polygon fill="#ffffff" stroke="#bfbfbf" points="396,-6 396,-36 520,-36 520,-6 396,-6"/>
<text text-anchor="start" x="404" y="-24" font-family="Helvetica,sans-Serif" font-size="10.00" fill="#000000">tensorflow/core/common</text>
<text text-anchor="middle" x="458" y="-13" font-family="Helvetica,sans-Serif" font-size="10.00" fill="#000000">_runtime/device.h</text>
</g>
<!-- Node0&#45;&gt;Node4 -->
<g id="edge4" class="edge">
<title>Node0&#45;&gt;Node4</title>
<path fill="none" stroke="#191970" d="M759.8439,-89.5435C702.0049,-79.269 608.6265,-61.6674 529,-42 524.9287,-40.9944 520.7419,-39.904 516.5352,-38.7668"/>
<polygon fill="#191970" stroke="#191970" points="517.3004,-35.347 506.7286,-36.0463 515.429,-42.0922 517.3004,-35.347"/>
</g>
<!-- Node5 -->
<g id="node6" class="node">
<title>Node5</title>
<polygon fill="#ffffff" stroke="#bfbfbf" points="538,-6 538,-36 662,-36 662,-6 538,-6"/>
<text text-anchor="start" x="546" y="-24" font-family="Helvetica,sans-Serif" font-size="10.00" fill="#000000">tensorflow/core/common</text>
<text text-anchor="middle" x="600" y="-13" font-family="Helvetica,sans-Serif" font-size="10.00" fill="#000000">_runtime/device_mgr.h</text>
</g>
<!-- Node0&#45;&gt;Node5 -->
<g id="edge5" class="edge">
<title>Node0&#45;&gt;Node5</title>
<path fill="none" stroke="#191970" d="M759.9113,-79.0144C726.2794,-66.813 683.586,-51.3242 650.774,-39.4203"/>
<polygon fill="#191970" stroke="#191970" points="651.9583,-36.1268 641.3642,-36.0065 649.571,-42.7072 651.9583,-36.1268"/>
</g>
<!-- Node6 -->
<g id="node7" class="node">
<title>Node6</title>
<polygon fill="#ffffff" stroke="#bfbfbf" points="680,-6 680,-36 804,-36 804,-6 680,-6"/>
<text text-anchor="start" x="688" y="-24" font-family="Helvetica,sans-Serif" font-size="10.00" fill="#000000">tensorflow/core/common</text>
<text text-anchor="middle" x="742" y="-13" font-family="Helvetica,sans-Serif" font-size="10.00" fill="#000000">_runtime/function.h</text>
</g>
<!-- Node0&#45;&gt;Node6 -->
<g id="edge6" class="edge">
<title>Node0&#45;&gt;Node6</title>
<path fill="none" stroke="#191970" d="M795.4373,-78.0974C785.5138,-67.4942 773.4441,-54.5978 763.2881,-43.7461"/>
<polygon fill="#191970" stroke="#191970" points="765.6778,-41.1775 756.2892,-36.2679 760.5669,-45.9607 765.6778,-41.1775"/>
</g>
<!-- Node7 -->
<g id="node8" class="node">
<title>Node7</title>
<polygon fill="#ffffff" stroke="#bfbfbf" points="822,-6 822,-36 954,-36 954,-6 822,-6"/>
<text text-anchor="start" x="830" y="-24" font-family="Helvetica,sans-Serif" font-size="10.00" fill="#000000">tensorflow/core/framework</text>
<text text-anchor="middle" x="888" y="-13" font-family="Helvetica,sans-Serif" font-size="10.00" fill="#000000">/function.h</text>
</g>
<!-- Node0&#45;&gt;Node7 -->
<g id="edge7" class="edge">
<title>Node0&#45;&gt;Node7</title>
<path fill="none" stroke="#191970" d="M834.5627,-78.0974C844.4862,-67.4942 856.5559,-54.5978 866.7119,-43.7461"/>
<polygon fill="#191970" stroke="#191970" points="869.4331,-45.9607 873.7108,-36.2679 864.3222,-41.1775 869.4331,-45.9607"/>
</g>
<!-- Node8 -->
<g id="node9" class="node">
<title>Node8</title>
<polygon fill="#ffffff" stroke="#bfbfbf" points="972,-6 972,-36 1094,-36 1094,-6 972,-6"/>
<text text-anchor="start" x="980" y="-24" font-family="Helvetica,sans-Serif" font-size="10.00" fill="#000000">tensorflow/core/platform</text>
<text text-anchor="middle" x="1033" y="-13" font-family="Helvetica,sans-Serif" font-size="10.00" fill="#000000">/env.h</text>
</g>
<!-- Node0&#45;&gt;Node8 -->
<g id="edge8" class="edge">
<title>Node0&#45;&gt;Node8</title>
<path fill="none" stroke="#191970" d="M870.0106,-79.3173C904.1067,-67.1178 947.6322,-51.5444 981.1263,-39.5603"/>
<polygon fill="#191970" stroke="#191970" points="982.4968,-42.7873 990.7332,-36.123 980.1386,-36.1965 982.4968,-42.7873"/>
</g>
<!-- Node9 -->
<g id="node10" class="node">
<title>Node9</title>
<polygon fill="#ffffff" stroke="#bfbfbf" points="1112,-6 1112,-36 1234,-36 1234,-6 1112,-6"/>
<text text-anchor="start" x="1120" y="-24" font-family="Helvetica,sans-Serif" font-size="10.00" fill="#000000">tensorflow/core/platform</text>
<text text-anchor="middle" x="1173" y="-13" font-family="Helvetica,sans-Serif" font-size="10.00" fill="#000000">/mutex.h</text>
</g>
<!-- Node0&#45;&gt;Node9 -->
<g id="edge9" class="edge">
<title>Node0&#45;&gt;Node9</title>
<path fill="none" stroke="#191970" d="M870.0222,-89.7325C928.2388,-79.5495 1022.6158,-61.9633 1103,-42 1107.0174,-41.0023 1111.1477,-39.9178 1115.2969,-38.7849"/>
<polygon fill="#191970" stroke="#191970" points="1116.2857,-42.1427 1124.9685,-36.0715 1114.3947,-35.4029 1116.2857,-42.1427"/>
</g>
<!-- Node10 -->
<g id="node11" class="node">
<title>Node10</title>
<polygon fill="#ffffff" stroke="#bfbfbf" points="1252,-6 1252,-36 1374,-36 1374,-6 1252,-6"/>
<text text-anchor="start" x="1260" y="-24" font-family="Helvetica,sans-Serif" font-size="10.00" fill="#000000">tensorflow/core/platform</text>
<text text-anchor="middle" x="1313" y="-13" font-family="Helvetica,sans-Serif" font-size="10.00" fill="#000000">/notification.h</text>
</g>
<!-- Node0&#45;&gt;Node10 -->
<g id="edge10" class="edge">
<title>Node0&#45;&gt;Node10</title>
<path fill="none" stroke="#191970" d="M870.2065,-94.4774C952.2025,-87.1242 1110.7215,-70.4609 1243,-42 1247.4461,-41.0434 1252.0194,-39.943 1256.5972,-38.7578"/>
<polygon fill="#191970" stroke="#191970" points="1257.8431,-42.0464 1266.5782,-36.0506 1256.0107,-35.2905 1257.8431,-42.0464"/>
</g>
<!-- Node11 -->
<g id="node12" class="node">
<title>Node11</title>
<polygon fill="#ffffff" stroke="#bfbfbf" points="1392,-6 1392,-36 1514,-36 1514,-6 1392,-6"/>
<text text-anchor="start" x="1400" y="-24" font-family="Helvetica,sans-Serif" font-size="10.00" fill="#000000">tensorflow/core/platform</text>
<text text-anchor="middle" x="1453" y="-13" font-family="Helvetica,sans-Serif" font-size="10.00" fill="#000000">/thread_annotations.h</text>
</g>
<!-- Node0&#45;&gt;Node11 -->
<g id="edge11" class="edge">
<title>Node0&#45;&gt;Node11</title>
<path fill="none" stroke="#191970" d="M870.3478,-96.9623C972.5295,-92.4248 1197.3214,-78.8156 1383,-42 1387.7293,-41.0623 1392.597,-39.9403 1397.4577,-38.7093"/>
<polygon fill="#191970" stroke="#191970" points="1398.6238,-42.0204 1407.3787,-36.0537 1396.8138,-35.2585 1398.6238,-42.0204"/>
</g>
<!-- Node12 -->
<g id="node13" class="node">
<title>Node12</title>
<polygon fill="#ffffff" stroke="#bfbfbf" points="1532,-6 1532,-36 1644,-36 1644,-6 1532,-6"/>
<text text-anchor="start" x="1540" y="-24" font-family="Helvetica,sans-Serif" font-size="10.00" fill="#000000">tensorflow/core/public</text>
<text text-anchor="middle" x="1588" y="-13" font-family="Helvetica,sans-Serif" font-size="10.00" fill="#000000">/version.h</text>
</g>
<!-- Node0&#45;&gt;Node12 -->
<g id="edge12" class="edge">
<title>Node0&#45;&gt;Node12</title>
<path fill="none" stroke="#191970" d="M870.1688,-96.2178C1014.0351,-88.697 1398.126,-66.8473 1523,-42 1527.438,-41.1169 1531.997,-40.0306 1536.5424,-38.8212"/>
<polygon fill="#191970" stroke="#191970" points="1537.7603,-42.1136 1546.419,-36.0081 1535.8427,-35.3813 1537.7603,-42.1136"/>
</g>
</g>
</svg>
