<?xml version="1.0" encoding="UTF-8" standalone="no"?>
<!DOCTYPE svg PUBLIC "-//W3C//DTD SVG 1.1//EN"
 "http://www.w3.org/Graphics/SVG/1.1/DTD/svg11.dtd">
<!-- Generated by graphviz version 2.40.1 (20161225.0304)
 -->
<!-- Title: tensorflow::AddPlaceholdersForFeeds Pages: 1 -->
<svg width="324pt" height="37pt"
 viewBox="0.00 0.00 323.91 37.00" xmlns="http://www.w3.org/2000/svg" xmlns:xlink="http://www.w3.org/1999/xlink">
<g id="graph0" class="graph" transform="scale(1 1) rotate(0) translate(4 33)">
<title>tensorflow::AddPlaceholdersForFeeds</title>
<polygon fill="#ffffff" stroke="transparent" points="-4,4 -4,-33 319.9053,-33 319.9053,4 -4,4"/>
<!-- Node8 -->
<g id="node1" class="node">
<title>Node8</title>
<polygon fill="#bfbfbf" stroke="#000000" points="0,-.5 0,-28.5 142.7383,-28.5 142.7383,-.5 0,-.5"/>
<text text-anchor="start" x="8" y="-16.5" font-family="Helvetica,sans-Serif" font-size="10.00" fill="#000000">tensorflow::AddPlaceholders</text>
<text text-anchor="middle" x="71.3691" y="-6.5" font-family="Helvetica,sans-Serif" font-size="10.00" fill="#000000">ForFeeds</text>
</g>
<!-- Node9 -->
<g id="node2" class="node">
<title>Node9</title>
<g id="a_node2"><a xlink:href="../../de/d86/namespacetensorflow.html#a491706512ccc1517e499cbdb810aa6ab" target="_top" xlink:title="Assign each NodeDefs of GraphDef default values. ">
<polygon fill="#ffffff" stroke="#000000" points="178.7383,-.5 178.7383,-28.5 315.9053,-28.5 315.9053,-.5 178.7383,-.5"/>
<text text-anchor="start" x="186.7383" y="-16.5" font-family="Helvetica,sans-Serif" font-size="10.00" fill="#000000">tensorflow::AddDefaultAttrs</text>
<text text-anchor="middle" x="247.3218" y="-6.5" font-family="Helvetica,sans-Serif" font-size="10.00" fill="#000000">ToGraphDef</text>
</a>
</g>
</g>
<!-- Node8&#45;&gt;Node9 -->
<g id="edge1" class="edge">
<title>Node8&#45;&gt;Node9</title>
<path fill="none" stroke="#191970" d="M142.9358,-14.5C151.3233,-14.5 159.9171,-14.5 168.3975,-14.5"/>
<polygon fill="#191970" stroke="#191970" points="168.6641,-18.0001 178.664,-14.5 168.664,-11.0001 168.6641,-18.0001"/>
</g>
</g>
</svg>
