<?xml version="1.0" encoding="UTF-8" standalone="no"?>
<!DOCTYPE svg PUBLIC "-//W3C//DTD SVG 1.1//EN"
 "http://www.w3.org/Graphics/SVG/1.1/DTD/svg11.dtd">
<!-- Generated by graphviz version 2.40.1 (20161225.0304)
 -->
<!-- Title: tensorflow::PruneGraphDefInto Pages: 1 -->
<svg width="843pt" height="47pt"
 viewBox="0.00 0.00 843.16 47.00" xmlns="http://www.w3.org/2000/svg" xmlns:xlink="http://www.w3.org/1999/xlink">
<g id="graph0" class="graph" transform="scale(1 1) rotate(0) translate(4 43)">
<title>tensorflow::PruneGraphDefInto</title>
<polygon fill="#ffffff" stroke="transparent" points="-4,4 -4,-43 839.1602,-43 839.1602,4 -4,4"/>
<!-- Node38 -->
<g id="node1" class="node">
<title>Node38</title>
<polygon fill="#bfbfbf" stroke="#000000" points="0,-10.5 0,-28.5 153.8516,-28.5 153.8516,-10.5 0,-10.5"/>
<text text-anchor="middle" x="76.9258" y="-16.5" font-family="Helvetica,sans-Serif" font-size="10.00" fill="#000000">tensorflow::PruneGraphDefInto</text>
</g>
<!-- Node39 -->
<g id="node2" class="node">
<title>Node39</title>
<g id="a_node2"><a xlink:href="../../d3/dfa/namespacetensorflow_1_1anonymous__namespace_02tf2xla_8cc_03.html#aeef0cda05958b2b855b0e2fbe07b1314" target="_top" xlink:title="InitGraph creates a graph based on the graph_def, that may then be convert to an xla::Computation via...">
<polygon fill="#ffffff" stroke="#000000" points="189.8516,-.5 189.8516,-38.5 309.25,-38.5 309.25,-.5 189.8516,-.5"/>
<text text-anchor="start" x="197.8516" y="-26.5" font-family="Helvetica,sans-Serif" font-size="10.00" fill="#000000">tensorflow::anonymous</text>
<text text-anchor="start" x="197.8516" y="-16.5" font-family="Helvetica,sans-Serif" font-size="10.00" fill="#000000">_namespace{tf2xla::cc}</text>
<text text-anchor="middle" x="249.5508" y="-6.5" font-family="Helvetica,sans-Serif" font-size="10.00" fill="#000000">::InitGraph</text>
</a>
</g>
</g>
<!-- Node38&#45;&gt;Node39 -->
<g id="edge1" class="edge">
<title>Node38&#45;&gt;Node39</title>
<path fill="none" stroke="#191970" d="M164.1008,-19.5C172.8052,-19.5 181.4979,-19.5 189.8248,-19.5"/>
<polygon fill="#191970" stroke="#191970" points="163.8985,-16.0001 153.8984,-19.5 163.8984,-23.0001 163.8985,-16.0001"/>
</g>
<!-- Node40 -->
<g id="node3" class="node">
<title>Node40</title>
<g id="a_node3"><a xlink:href="../../de/d86/namespacetensorflow.html#a6f8fce5955ec6d67cd1762891d4830e9" target="_top" xlink:title="Convert tensorflow graph_def to XLA UserComputation. ">
<polygon fill="#ffffff" stroke="#000000" points="345.25,-5.5 345.25,-33.5 475.1904,-33.5 475.1904,-5.5 345.25,-5.5"/>
<text text-anchor="start" x="353.25" y="-21.5" font-family="Helvetica,sans-Serif" font-size="10.00" fill="#000000">tensorflow::ConvertGraph</text>
<text text-anchor="middle" x="410.2202" y="-11.5" font-family="Helvetica,sans-Serif" font-size="10.00" fill="#000000">DefToXla</text>
</a>
</g>
</g>
<!-- Node39&#45;&gt;Node40 -->
<g id="edge2" class="edge">
<title>Node39&#45;&gt;Node40</title>
<path fill="none" stroke="#191970" d="M319.6431,-19.5C328.1432,-19.5 336.7988,-19.5 345.2208,-19.5"/>
<polygon fill="#191970" stroke="#191970" points="319.3782,-16.0001 309.3781,-19.5 319.3781,-23.0001 319.3782,-16.0001"/>
</g>
<!-- Node41 -->
<g id="node4" class="node">
<title>Node41</title>
<g id="a_node4"><a xlink:href="../../d7/d38/namespacetensorflow_1_1tfcompile.html#a021cb1c58d938b16dcd998aa8d1fc191" target="_top" xlink:title="Converts the graph into an XLA computation, and compiles the computation. Called by tensorflow::tfcom...">
<polygon fill="#ffffff" stroke="#000000" points="511.1904,-5.5 511.1904,-33.5 618.3379,-33.5 618.3379,-5.5 511.1904,-5.5"/>
<text text-anchor="start" x="519.1904" y="-21.5" font-family="Helvetica,sans-Serif" font-size="10.00" fill="#000000">tensorflow::tfcompile</text>
<text text-anchor="middle" x="564.7642" y="-11.5" font-family="Helvetica,sans-Serif" font-size="10.00" fill="#000000">::CompileGraph</text>
</a>
</g>
</g>
<!-- Node40&#45;&gt;Node41 -->
<g id="edge3" class="edge">
<title>Node40&#45;&gt;Node41</title>
<path fill="none" stroke="#191970" d="M485.4032,-19.5C494.0344,-19.5 502.7003,-19.5 510.9698,-19.5"/>
<polygon fill="#191970" stroke="#191970" points="485.3129,-16.0001 475.3128,-19.5 485.3128,-23.0001 485.3129,-16.0001"/>
</g>
<!-- Node42 -->
<g id="node5" class="node">
<title>Node42</title>
<g id="a_node5"><a xlink:href="../../d7/d38/namespacetensorflow_1_1tfcompile.html#a460964a5bb277865d1275fe3746132c1" target="_top" xlink:title="tensorflow::tfcompile\l::Main">
<polygon fill="#ffffff" stroke="#000000" points="654.3379,-5.5 654.3379,-33.5 761.4854,-33.5 761.4854,-5.5 654.3379,-5.5"/>
<text text-anchor="start" x="662.3379" y="-21.5" font-family="Helvetica,sans-Serif" font-size="10.00" fill="#000000">tensorflow::tfcompile</text>
<text text-anchor="middle" x="707.9116" y="-11.5" font-family="Helvetica,sans-Serif" font-size="10.00" fill="#000000">::Main</text>
</a>
</g>
</g>
<!-- Node41&#45;&gt;Node42 -->
<g id="edge4" class="edge">
<title>Node41&#45;&gt;Node42</title>
<path fill="none" stroke="#191970" d="M628.6538,-19.5C637.0839,-19.5 645.6578,-19.5 653.9005,-19.5"/>
<polygon fill="#191970" stroke="#191970" points="628.4743,-16.0001 618.4743,-19.5 628.4742,-23.0001 628.4743,-16.0001"/>
</g>
<!-- Node43 -->
<g id="node6" class="node">
<title>Node43</title>
<g id="a_node6"><a xlink:href="../../d4/d8d/tfcompile__main_8cc.html#a3c04138a5bfe5d72780bb7e82a18e627" target="_top" xlink:title="main">
<polygon fill="#ffffff" stroke="#000000" points="797.4854,-10.5 797.4854,-28.5 835.1602,-28.5 835.1602,-10.5 797.4854,-10.5"/>
<text text-anchor="middle" x="816.3228" y="-16.5" font-family="Helvetica,sans-Serif" font-size="10.00" fill="#000000">main</text>
</a>
</g>
</g>
<!-- Node42&#45;&gt;Node43 -->
<g id="edge5" class="edge">
<title>Node42&#45;&gt;Node43</title>
<path fill="none" stroke="#191970" d="M771.9148,-19.5C781.1438,-19.5 789.9807,-19.5 797.3072,-19.5"/>
<polygon fill="#191970" stroke="#191970" points="771.7996,-16.0001 761.7996,-19.5 771.7995,-23.0001 771.7996,-16.0001"/>
</g>
</g>
</svg>
