<?xml version="1.0" encoding="UTF-8" standalone="no"?>
<!DOCTYPE svg PUBLIC "-//W3C//DTD SVG 1.1//EN"
 "http://www.w3.org/Graphics/SVG/1.1/DTD/svg11.dtd">
<!-- Generated by graphviz version 2.38.0 (20140413.2041)
 -->
<!-- Title: tensorflow::PruneGraphDefInto Pages: 1 -->
<svg width="839pt" height="50pt"
 viewBox="0.00 0.00 839.00 50.00" xmlns="http://www.w3.org/2000/svg" xmlns:xlink="http://www.w3.org/1999/xlink">
<g id="graph0" class="graph" transform="scale(1 1) rotate(0) translate(4 46)">
<title>tensorflow::PruneGraphDefInto</title>
<polygon fill="white" stroke="none" points="-4,4 -4,-46 835,-46 835,4 -4,4"/>
<!-- Node1 -->
<g id="node1" class="node"><title>Node1</title>
<polygon fill="#bfbfbf" stroke="black" points="0,-11.5 0,-30.5 152,-30.5 152,-11.5 0,-11.5"/>
<text text-anchor="middle" x="76" y="-18.5" font-family="Helvetica,sans-Serif" font-size="10.00">tensorflow::PruneGraphDefInto</text>
</g>
<!-- Node2 -->
<g id="node2" class="node"><title>Node2</title>
<g id="a_node2"><a xlink:href="../../d3/dfa/namespacetensorflow_1_1anonymous__namespace_02tf2xla_8cc_03.html#aeef0cda05958b2b855b0e2fbe07b1314" target="_top" xlink:title="InitGraph creates a graph based on the graph_def, that may then be convert to an xla::Computation via...">
<polygon fill="white" stroke="black" points="188,-0.5 188,-41.5 307,-41.5 307,-0.5 188,-0.5"/>
<text text-anchor="start" x="196" y="-29.5" font-family="Helvetica,sans-Serif" font-size="10.00">tensorflow::anonymous</text>
<text text-anchor="start" x="196" y="-18.5" font-family="Helvetica,sans-Serif" font-size="10.00">_namespace{tf2xla::cc}</text>
<text text-anchor="middle" x="247.5" y="-7.5" font-family="Helvetica,sans-Serif" font-size="10.00">::InitGraph</text>
</a>
</g>
</g>
<!-- Node1&#45;&gt;Node2 -->
<g id="edge1" class="edge"><title>Node1&#45;&gt;Node2</title>
<path fill="none" stroke="midnightblue" d="M162.442,-21C171.068,-21 179.685,-21 187.935,-21"/>
<polygon fill="midnightblue" stroke="midnightblue" points="162.332,-17.5001 152.332,-21 162.332,-24.5001 162.332,-17.5001"/>
</g>
<!-- Node3 -->
<g id="node3" class="node"><title>Node3</title>
<g id="a_node3"><a xlink:href="../../de/d86/namespacetensorflow.html#a6f8fce5955ec6d67cd1762891d4830e9" target="_top" xlink:title="Convert tensorflow graph_def to XLA UserComputation. ">
<polygon fill="white" stroke="black" points="343,-6 343,-36 471,-36 471,-6 343,-6"/>
<text text-anchor="start" x="351" y="-24" font-family="Helvetica,sans-Serif" font-size="10.00">tensorflow::ConvertGraph</text>
<text text-anchor="middle" x="407" y="-13" font-family="Helvetica,sans-Serif" font-size="10.00">DefToXla</text>
</a>
</g>
</g>
<!-- Node2&#45;&gt;Node3 -->
<g id="edge2" class="edge"><title>Node2&#45;&gt;Node3</title>
<path fill="none" stroke="midnightblue" d="M317.365,-21C325.826,-21 334.443,-21 342.814,-21"/>
<polygon fill="midnightblue" stroke="midnightblue" points="317.147,-17.5001 307.147,-21 317.147,-24.5001 317.147,-17.5001"/>
</g>
<!-- Node4 -->
<g id="node4" class="node"><title>Node4</title>
<g id="a_node4"><a xlink:href="../../d7/d38/namespacetensorflow_1_1tfcompile.html#a021cb1c58d938b16dcd998aa8d1fc191" target="_top" xlink:title="Converts the graph into an XLA computation, and compiles the computation. Called by tensorflow::tfcom...">
<polygon fill="white" stroke="black" points="507,-6 507,-36 614,-36 614,-6 507,-6"/>
<text text-anchor="start" x="515" y="-24" font-family="Helvetica,sans-Serif" font-size="10.00">tensorflow::tfcompile</text>
<text text-anchor="middle" x="560.5" y="-13" font-family="Helvetica,sans-Serif" font-size="10.00">::CompileGraph</text>
</a>
</g>
</g>
<!-- Node3&#45;&gt;Node4 -->
<g id="edge3" class="edge"><title>Node3&#45;&gt;Node4</title>
<path fill="none" stroke="midnightblue" d="M481.432,-21C490.04,-21 498.688,-21 506.931,-21"/>
<polygon fill="midnightblue" stroke="midnightblue" points="481.372,-17.5001 471.372,-21 481.372,-24.5001 481.372,-17.5001"/>
</g>
<!-- Node5 -->
<g id="node5" class="node"><title>Node5</title>
<g id="a_node5"><a xlink:href="../../d7/d38/namespacetensorflow_1_1tfcompile.html#a460964a5bb277865d1275fe3746132c1" target="_top" xlink:title="tensorflow::tfcompile\l::Main">
<polygon fill="white" stroke="black" points="650,-6 650,-36 757,-36 757,-6 650,-6"/>
<text text-anchor="start" x="658" y="-24" font-family="Helvetica,sans-Serif" font-size="10.00">tensorflow::tfcompile</text>
<text text-anchor="middle" x="703.5" y="-13" font-family="Helvetica,sans-Serif" font-size="10.00">::Main</text>
</a>
</g>
</g>
<!-- Node4&#45;&gt;Node5 -->
<g id="edge4" class="edge"><title>Node4&#45;&gt;Node5</title>
<path fill="none" stroke="midnightblue" d="M624.05,-21C632.7,-21 641.51,-21 649.953,-21"/>
<polygon fill="midnightblue" stroke="midnightblue" points="624.003,-17.5001 614.003,-21 624.003,-24.5001 624.003,-17.5001"/>
</g>
<!-- Node6 -->
<g id="node6" class="node"><title>Node6</title>
<g id="a_node6"><a xlink:href="../../d4/d8d/tfcompile__main_8cc.html#a3c04138a5bfe5d72780bb7e82a18e627" target="_top" xlink:title="main">
<polygon fill="white" stroke="black" points="793,-11.5 793,-30.5 831,-30.5 831,-11.5 793,-11.5"/>
<text text-anchor="middle" x="812" y="-18.5" font-family="Helvetica,sans-Serif" font-size="10.00">main</text>
</a>
</g>
</g>
<!-- Node5&#45;&gt;Node6 -->
<g id="edge5" class="edge"><title>Node5&#45;&gt;Node6</title>
<path fill="none" stroke="midnightblue" d="M767.27,-21C776.527,-21 785.386,-21 792.681,-21"/>
<polygon fill="midnightblue" stroke="midnightblue" points="767.126,-17.5001 757.126,-21 767.126,-24.5001 767.126,-17.5001"/>
</g>
</g>
</svg>
