<?xml version="1.0" encoding="UTF-8" standalone="no"?>
<!DOCTYPE svg PUBLIC "-//W3C//DTD SVG 1.1//EN"
 "http://www.w3.org/Graphics/SVG/1.1/DTD/svg11.dtd">
<!-- Generated by graphviz version 2.40.1 (20161225.0304)
 -->
<!-- Title: tensorflow::ValidateConfig Pages: 1 -->
<svg width="885pt" height="72pt"
 viewBox="0.00 0.00 885.00 71.50" xmlns="http://www.w3.org/2000/svg" xmlns:xlink="http://www.w3.org/1999/xlink">
<g id="graph0" class="graph" transform="scale(1 1) rotate(0) translate(4 67.5)">
<title>tensorflow::ValidateConfig</title>
<polygon fill="#ffffff" stroke="transparent" points="-4,4 -4,-67.5 881,-67.5 881,4 -4,4"/>
<!-- Node45 -->
<g id="node1" class="node">
<title>Node45</title>
<polygon fill="#bfbfbf" stroke="#000000" points="0,-35.5 0,-54.5 143,-54.5 143,-35.5 0,-35.5"/>
<text text-anchor="middle" x="71.5" y="-42.5" font-family="Helvetica,sans-Serif" font-size="10.00" fill="#000000">tensorflow::ValidateConfig</text>
</g>
<!-- Node46 -->
<g id="node2" class="node">
<title>Node46</title>
<g id="a_node2"><a xlink:href="../../d7/d38/namespacetensorflow_1_1tfcompile.html#a460964a5bb277865d1275fe3746132c1" target="_top" xlink:title="tensorflow::tfcompile\l::Main">
<polygon fill="#ffffff" stroke="#000000" points="681,-33 681,-63 800,-63 800,-33 681,-33"/>
<text text-anchor="start" x="689" y="-51" font-family="Helvetica,sans-Serif" font-size="10.00" fill="#000000">tensorflow::tfcompile</text>
<text text-anchor="middle" x="740.5" y="-40" font-family="Helvetica,sans-Serif" font-size="10.00" fill="#000000">::Main</text>
</a>
</g>
</g>
<!-- Node45&#45;&gt;Node46 -->
<g id="edge1" class="edge">
<title>Node45&#45;&gt;Node46</title>
<path fill="none" stroke="#191970" d="M153.322,-50.0427C161.9885,-50.4347 170.6735,-50.7678 179,-51 361.7115,-56.095 577.9913,-52.1173 680.653,-49.6238"/>
<polygon fill="#191970" stroke="#191970" points="153.3351,-46.5394 143.1795,-49.5581 153.001,-53.5315 153.3351,-46.5394"/>
</g>
<!-- Node48 -->
<g id="node4" class="node">
<title>Node48</title>
<g id="a_node4"><a xlink:href="../../d3/dfa/namespacetensorflow_1_1anonymous__namespace_02tf2xla_8cc_03.html#aeef0cda05958b2b855b0e2fbe07b1314" target="_top" xlink:title="InitGraph creates a graph based on the graph_def, that may then be convert to an xla::Computation via...">
<polygon fill="#ffffff" stroke="#000000" points="179,-.5 179,-41.5 314,-41.5 314,-.5 179,-.5"/>
<text text-anchor="start" x="187" y="-29.5" font-family="Helvetica,sans-Serif" font-size="10.00" fill="#000000">tensorflow::anonymous</text>
<text text-anchor="start" x="187" y="-18.5" font-family="Helvetica,sans-Serif" font-size="10.00" fill="#000000">_namespace{tf2xla::cc}</text>
<text text-anchor="middle" x="246.5" y="-7.5" font-family="Helvetica,sans-Serif" font-size="10.00" fill="#000000">::InitGraph</text>
</a>
</g>
</g>
<!-- Node45&#45;&gt;Node48 -->
<g id="edge3" class="edge">
<title>Node45&#45;&gt;Node48</title>
<path fill="none" stroke="#191970" d="M150.9665,-34.1017C160.2917,-32.8228 169.7397,-31.5271 178.882,-30.2733"/>
<polygon fill="#191970" stroke="#191970" points="150.3477,-30.6538 140.916,-35.4801 151.2988,-37.5888 150.3477,-30.6538"/>
</g>
<!-- Node47 -->
<g id="node3" class="node">
<title>Node47</title>
<g id="a_node3"><a xlink:href="../../d4/d8d/tfcompile__main_8cc.html#a3c04138a5bfe5d72780bb7e82a18e627" target="_top" xlink:title="main">
<polygon fill="#ffffff" stroke="#000000" points="836,-38.5 836,-57.5 877,-57.5 877,-38.5 836,-38.5"/>
<text text-anchor="middle" x="856.5" y="-45.5" font-family="Helvetica,sans-Serif" font-size="10.00" fill="#000000">main</text>
</a>
</g>
</g>
<!-- Node46&#45;&gt;Node47 -->
<g id="edge2" class="edge">
<title>Node46&#45;&gt;Node47</title>
<path fill="none" stroke="#191970" d="M810.3907,-48C819.6734,-48 828.5314,-48 835.9577,-48"/>
<polygon fill="#191970" stroke="#191970" points="810.199,-44.5001 800.199,-48 810.199,-51.5001 810.199,-44.5001"/>
</g>
<!-- Node49 -->
<g id="node5" class="node">
<title>Node49</title>
<g id="a_node5"><a xlink:href="../../de/d86/namespacetensorflow.html#a6f8fce5955ec6d67cd1762891d4830e9" target="_top" xlink:title="Convert tensorflow graph_def to XLA UserComputation. ">
<polygon fill="#ffffff" stroke="#000000" points="350,-9 350,-39 490,-39 490,-9 350,-9"/>
<text text-anchor="start" x="358" y="-27" font-family="Helvetica,sans-Serif" font-size="10.00" fill="#000000">tensorflow::ConvertGraph</text>
<text text-anchor="middle" x="420" y="-16" font-family="Helvetica,sans-Serif" font-size="10.00" fill="#000000">DefToXla</text>
</a>
</g>
</g>
<!-- Node48&#45;&gt;Node49 -->
<g id="edge4" class="edge">
<title>Node48&#45;&gt;Node49</title>
<path fill="none" stroke="#191970" d="M324.3262,-22.3457C332.7938,-22.4921 341.376,-22.6405 349.7455,-22.7852"/>
<polygon fill="#191970" stroke="#191970" points="324.1355,-18.842 314.0764,-22.1685 324.0144,-25.8409 324.1355,-18.842"/>
</g>
<!-- Node50 -->
<g id="node6" class="node">
<title>Node50</title>
<g id="a_node6"><a xlink:href="../../d7/d38/namespacetensorflow_1_1tfcompile.html#a021cb1c58d938b16dcd998aa8d1fc191" target="_top" xlink:title="Converts the graph into an XLA computation, and compiles the computation. Called by tensorflow::tfcom...">
<polygon fill="#ffffff" stroke="#000000" points="526,-11 526,-41 645,-41 645,-11 526,-11"/>
<text text-anchor="start" x="534" y="-29" font-family="Helvetica,sans-Serif" font-size="10.00" fill="#000000">tensorflow::tfcompile</text>
<text text-anchor="middle" x="585.5" y="-18" font-family="Helvetica,sans-Serif" font-size="10.00" fill="#000000">::CompileGraph</text>
</a>
</g>
</g>
<!-- Node49&#45;&gt;Node50 -->
<g id="edge5" class="edge">
<title>Node49&#45;&gt;Node50</title>
<path fill="none" stroke="#191970" d="M500.2836,-24.9702C508.9177,-25.0745 517.5876,-25.1793 525.917,-25.28"/>
<polygon fill="#191970" stroke="#191970" points="500.2285,-21.4694 490.1869,-24.8482 500.1438,-28.4689 500.2285,-21.4694"/>
</g>
<!-- Node50&#45;&gt;Node46 -->
<g id="edge6" class="edge">
<title>Node50&#45;&gt;Node46</title>
<path fill="none" stroke="#191970" d="M655.3823,-35.9188C663.9332,-37.1324 672.6089,-38.3638 680.9877,-39.5531"/>
<polygon fill="#191970" stroke="#191970" points="655.8197,-32.4459 645.427,-34.5058 654.8359,-39.3764 655.8197,-32.4459"/>
</g>
</g>
</svg>
