<?xml version="1.0" encoding="UTF-8" standalone="no"?>
<!DOCTYPE svg PUBLIC "-//W3C//DTD SVG 1.1//EN"
 "http://www.w3.org/Graphics/SVG/1.1/DTD/svg11.dtd">
<!-- Generated by graphviz version 2.40.1 (20161225.0304)
 -->
<!-- Title: tensorflow::LaunchOpHasKernelForDevice Pages: 1 -->
<svg width="333pt" height="39pt"
 viewBox="0.00 0.00 333.00 39.00" xmlns="http://www.w3.org/2000/svg" xmlns:xlink="http://www.w3.org/1999/xlink">
<g id="graph0" class="graph" transform="scale(1 1) rotate(0) translate(4 35)">
<title>tensorflow::LaunchOpHasKernelForDevice</title>
<polygon fill="#ffffff" stroke="transparent" points="-4,4 -4,-35 329,-35 329,4 -4,4"/>
<!-- Node60 -->
<g id="node1" class="node">
<title>Node60</title>
<polygon fill="#bfbfbf" stroke="#000000" points="0,-.5 0,-30.5 158,-30.5 158,-.5 0,-.5"/>
<text text-anchor="start" x="8" y="-18.5" font-family="Helvetica,sans-Serif" font-size="10.00" fill="#000000">tensorflow::LaunchOpHasKernel</text>
<text text-anchor="middle" x="79" y="-7.5" font-family="Helvetica,sans-Serif" font-size="10.00" fill="#000000">ForDevice</text>
</g>
<!-- Node61 -->
<g id="node2" class="node">
<title>Node61</title>
<g id="a_node2"><a xlink:href="../../d9/de9/classtensorflow_1_1XlaOpRegistry.html#a4c9d8e8c614f533e0bf12e6d56d74a24" target="_top" xlink:title="tensorflow::XlaOpRegistry\l::GetCompilationDevice">
<polygon fill="#ffffff" stroke="#000000" points="194,-.5 194,-30.5 325,-30.5 325,-.5 194,-.5"/>
<text text-anchor="start" x="202" y="-18.5" font-family="Helvetica,sans-Serif" font-size="10.00" fill="#000000">tensorflow::XlaOpRegistry</text>
<text text-anchor="middle" x="259.5" y="-7.5" font-family="Helvetica,sans-Serif" font-size="10.00" fill="#000000">::GetCompilationDevice</text>
</a>
</g>
</g>
<!-- Node60&#45;&gt;Node61 -->
<g id="edge1" class="edge">
<title>Node60&#45;&gt;Node61</title>
<path fill="none" stroke="#191970" d="M168.2835,-15.5C176.9195,-15.5 185.5673,-15.5 193.9106,-15.5"/>
<polygon fill="#191970" stroke="#191970" points="168.17,-12.0001 158.1699,-15.5 168.1699,-19.0001 168.17,-12.0001"/>
</g>
</g>
</svg>
