<?xml version="1.0" encoding="UTF-8" standalone="no"?>
<!DOCTYPE svg PUBLIC "-//W3C//DTD SVG 1.1//EN"
 "http://www.w3.org/Graphics/SVG/1.1/DTD/svg11.dtd">
<!-- Generated by graphviz version 2.40.1 (20161225.0304)
 -->
<!-- Title: tensorflow::ConvertGraphDefToXla Pages: 1 -->
<svg width="708pt" height="313pt"
 viewBox="0.00 0.00 708.00 313.50" xmlns="http://www.w3.org/2000/svg" xmlns:xlink="http://www.w3.org/1999/xlink">
<g id="graph0" class="graph" transform="scale(1 1) rotate(0) translate(4 309.5)">
<title>tensorflow::ConvertGraphDefToXla</title>
<polygon fill="#ffffff" stroke="transparent" points="-4,4 -4,-309.5 704,-309.5 704,4 -4,4"/>
<!-- Node23 -->
<g id="node1" class="node">
<title>Node23</title>
<polygon fill="#bfbfbf" stroke="#000000" points="0,-77.5 0,-107.5 140,-107.5 140,-77.5 0,-77.5"/>
<text text-anchor="start" x="8" y="-95.5" font-family="Helvetica,sans-Serif" font-size="10.00" fill="#000000">tensorflow::ConvertGraph</text>
<text text-anchor="middle" x="70" y="-84.5" font-family="Helvetica,sans-Serif" font-size="10.00" fill="#000000">DefToXla</text>
</g>
<!-- Node24 -->
<g id="node2" class="node">
<title>Node24</title>
<g id="a_node2"><a xlink:href="../../d3/dfa/namespacetensorflow_1_1anonymous__namespace_02tf2xla_8cc_03.html#aeef0cda05958b2b855b0e2fbe07b1314" target="_top" xlink:title="InitGraph creates a graph based on the graph_def, that may then be convert to an xla::Computation via...">
<polygon fill="#ffffff" stroke="#000000" points="176,-149 176,-190 311,-190 311,-149 176,-149"/>
<text text-anchor="start" x="184" y="-178" font-family="Helvetica,sans-Serif" font-size="10.00" fill="#000000">tensorflow::anonymous</text>
<text text-anchor="start" x="184" y="-167" font-family="Helvetica,sans-Serif" font-size="10.00" fill="#000000">_namespace{tf2xla::cc}</text>
<text text-anchor="middle" x="243.5" y="-156" font-family="Helvetica,sans-Serif" font-size="10.00" fill="#000000">::InitGraph</text>
</a>
</g>
</g>
<!-- Node23&#45;&gt;Node24 -->
<g id="edge1" class="edge">
<title>Node23&#45;&gt;Node24</title>
<path fill="none" stroke="#191970" d="M103.8644,-107.5292C127.7866,-118.1459 160.3852,-132.6133 188.0688,-144.8994"/>
<polygon fill="#191970" stroke="#191970" points="186.689,-148.1162 197.2491,-148.9737 189.5286,-141.718 186.689,-148.1162"/>
</g>
<!-- Node31 -->
<g id="node9" class="node">
<title>Node31</title>
<g id="a_node9"><a xlink:href="../../d3/dfa/namespacetensorflow_1_1anonymous__namespace_02tf2xla_8cc_03.html#a8bea171341441170c6d6c7dbb0b3227d" target="_top" xlink:title="Converts the TensorFlow graph into an XLA computation, by executing the graph symbolically, with each op building up the XLA HLO. ">
<polygon fill="#ffffff" stroke="#000000" points="176,-42 176,-83 311,-83 311,-42 176,-42"/>
<text text-anchor="start" x="184" y="-71" font-family="Helvetica,sans-Serif" font-size="10.00" fill="#000000">tensorflow::anonymous</text>
<text text-anchor="start" x="184" y="-60" font-family="Helvetica,sans-Serif" font-size="10.00" fill="#000000">_namespace{tf2xla::cc}</text>
<text text-anchor="middle" x="243.5" y="-49" font-family="Helvetica,sans-Serif" font-size="10.00" fill="#000000">::ConvertGraphToXla</text>
</a>
</g>
</g>
<!-- Node23&#45;&gt;Node31 -->
<g id="edge9" class="edge">
<title>Node23&#45;&gt;Node31</title>
<path fill="none" stroke="#191970" d="M140.069,-80.3843C148.5862,-78.9116 157.3264,-77.4003 165.9442,-75.9102"/>
<polygon fill="#191970" stroke="#191970" points="166.7263,-79.327 175.9838,-74.1743 165.5336,-72.4294 166.7263,-79.327"/>
</g>
<!-- Node25 -->
<g id="node3" class="node">
<title>Node25</title>
<g id="a_node3"><a xlink:href="../../de/d86/namespacetensorflow.html#aaeeec358e2be013353667dd7c0a6dbaa" target="_top" xlink:title="tensorflow::ValidateConfig">
<polygon fill="#ffffff" stroke="#000000" points="358.5,-286 358.5,-305 501.5,-305 501.5,-286 358.5,-286"/>
<text text-anchor="middle" x="430" y="-293" font-family="Helvetica,sans-Serif" font-size="10.00" fill="#000000">tensorflow::ValidateConfig</text>
</a>
</g>
</g>
<!-- Node24&#45;&gt;Node25 -->
<g id="edge2" class="edge">
<title>Node24&#45;&gt;Node25</title>
<path fill="none" stroke="#191970" d="M257.7369,-190.3055C275.6466,-214.8135 308.7308,-254.916 347,-276.5 350.9452,-278.7251 355.135,-280.6898 359.4544,-282.4244"/>
<polygon fill="#191970" stroke="#191970" points="358.4781,-285.7923 369.0726,-285.8664 360.8366,-279.2016 358.4781,-285.7923"/>
</g>
<!-- Node26 -->
<g id="node4" class="node">
<title>Node26</title>
<g id="a_node4"><a xlink:href="../../de/d86/namespacetensorflow.html#ac287ab9f1996e3d9086f8500c777ee9b" target="_top" xlink:title="Generate corresponding placeholder for each feed tensor. Traverse each inputs of each nodes...">
<polygon fill="#ffffff" stroke="#000000" points="353,-236.5 353,-266.5 507,-266.5 507,-236.5 353,-236.5"/>
<text text-anchor="start" x="361" y="-254.5" font-family="Helvetica,sans-Serif" font-size="10.00" fill="#000000">tensorflow::AddPlaceholders</text>
<text text-anchor="middle" x="430" y="-243.5" font-family="Helvetica,sans-Serif" font-size="10.00" fill="#000000">ForFeeds</text>
</a>
</g>
</g>
<!-- Node24&#45;&gt;Node26 -->
<g id="edge3" class="edge">
<title>Node24&#45;&gt;Node26</title>
<path fill="none" stroke="#191970" d="M281.8121,-190.1139C301.1075,-200.1437 325.0174,-212.0447 347,-221.5 356.1841,-225.4504 366.0786,-229.3359 375.7247,-232.9331"/>
<polygon fill="#191970" stroke="#191970" points="374.6588,-236.27 385.2525,-236.4258 377.0681,-229.6977 374.6588,-236.27"/>
</g>
<!-- Node27 -->
<g id="node5" class="node">
<title>Node27</title>
<g id="a_node5"><a xlink:href="../../de/d86/namespacetensorflow.html#a491706512ccc1517e499cbdb810aa6ab" target="_top" xlink:title="Assign each NodeDefs of GraphDef default values. ">
<polygon fill="#ffffff" stroke="#000000" points="549,-214.5 549,-244.5 700,-244.5 700,-214.5 549,-214.5"/>
<text text-anchor="start" x="557" y="-232.5" font-family="Helvetica,sans-Serif" font-size="10.00" fill="#000000">tensorflow::AddDefaultAttrs</text>
<text text-anchor="middle" x="624.5" y="-221.5" font-family="Helvetica,sans-Serif" font-size="10.00" fill="#000000">ToGraphDef</text>
</a>
</g>
</g>
<!-- Node24&#45;&gt;Node27 -->
<g id="edge6" class="edge">
<title>Node24&#45;&gt;Node27</title>
<path fill="none" stroke="#191970" d="M311.0847,-182.2575C323.0374,-184.4135 335.3748,-186.5748 347,-188.5 411.1142,-199.1179 483.7893,-209.8068 538.6792,-217.6076"/>
<polygon fill="#191970" stroke="#191970" points="538.323,-221.092 548.7153,-219.0298 539.3053,-214.1612 538.323,-221.092"/>
</g>
<!-- Node28 -->
<g id="node6" class="node">
<title>Node28</title>
<g id="a_node6"><a xlink:href="../../de/d86/namespacetensorflow.html#ac09f7fb26bddd7564249fd5d1b255435" target="_top" xlink:title="Remove source nodes of feed tensor. Because they are removed at tensorflow::AddPlaceholdersForFeeds ...">
<polygon fill="#ffffff" stroke="#000000" points="347,-160 347,-179 513,-179 513,-160 347,-160"/>
<text text-anchor="middle" x="430" y="-167" font-family="Helvetica,sans-Serif" font-size="10.00" fill="#000000">tensorflow::PruneGraphDefInto</text>
</a>
</g>
</g>
<!-- Node24&#45;&gt;Node28 -->
<g id="edge5" class="edge">
<title>Node24&#45;&gt;Node28</title>
<path fill="none" stroke="#191970" d="M311.0945,-169.5C319.4112,-169.5 328.0232,-169.5 336.6365,-169.5"/>
<polygon fill="#191970" stroke="#191970" points="336.7307,-173.0001 346.7307,-169.5 336.7306,-166.0001 336.7307,-173.0001"/>
</g>
<!-- Node29 -->
<g id="node7" class="node">
<title>Node29</title>
<g id="a_node7"><a xlink:href="../../de/d86/namespacetensorflow.html#a43875c6284c3af69e7a420b67c7eec6b" target="_top" xlink:title="Convert GraphDef defined protobuf to type Graph ">
<polygon fill="#ffffff" stroke="#000000" points="360,-110.5 360,-140.5 500,-140.5 500,-110.5 360,-110.5"/>
<text text-anchor="start" x="368" y="-128.5" font-family="Helvetica,sans-Serif" font-size="10.00" fill="#000000">tensorflow::ConvertGraph</text>
<text text-anchor="middle" x="430" y="-117.5" font-family="Helvetica,sans-Serif" font-size="10.00" fill="#000000">DefToGraph</text>
</a>
</g>
</g>
<!-- Node24&#45;&gt;Node29 -->
<g id="edge7" class="edge">
<title>Node24&#45;&gt;Node29</title>
<path fill="none" stroke="#191970" d="M311.0945,-153.5528C325.8882,-150.0626 341.6161,-146.352 356.6238,-142.8113"/>
<polygon fill="#191970" stroke="#191970" points="357.4358,-146.2159 366.3649,-140.5131 355.8284,-139.4029 357.4358,-146.2159"/>
</g>
<!-- Node30 -->
<g id="node8" class="node">
<title>Node30</title>
<g id="a_node8"><a xlink:href="../../d3/dfa/namespacetensorflow_1_1anonymous__namespace_02tf2xla_8cc_03.html#af0d9ad360ae01cf7c15abe04de99b230" target="_top" xlink:title="tensorflow::anonymous\l_namespace\{tf2xla::cc\}\l::RewriteAndPruneGraph">
<polygon fill="#ffffff" stroke="#000000" points="362.5,-50 362.5,-91 497.5,-91 497.5,-50 362.5,-50"/>
<text text-anchor="start" x="370.5" y="-79" font-family="Helvetica,sans-Serif" font-size="10.00" fill="#000000">tensorflow::anonymous</text>
<text text-anchor="start" x="370.5" y="-68" font-family="Helvetica,sans-Serif" font-size="10.00" fill="#000000">_namespace{tf2xla::cc}</text>
<text text-anchor="middle" x="430" y="-57" font-family="Helvetica,sans-Serif" font-size="10.00" fill="#000000">::RewriteAndPruneGraph</text>
</a>
</g>
</g>
<!-- Node24&#45;&gt;Node30 -->
<g id="edge8" class="edge">
<title>Node24&#45;&gt;Node30</title>
<path fill="none" stroke="#191970" d="M270.507,-148.8578C290.7731,-134.0361 319.6234,-114.3176 347,-100.5 350.6932,-98.636 354.5307,-96.8314 358.4408,-95.0945"/>
<polygon fill="#191970" stroke="#191970" points="359.8329,-98.3059 367.6629,-91.1684 357.091,-91.8652 359.8329,-98.3059"/>
</g>
<!-- Node26&#45;&gt;Node27 -->
<g id="edge4" class="edge">
<title>Node26&#45;&gt;Node27</title>
<path fill="none" stroke="#191970" d="M507.1509,-242.7734C517.5192,-241.6007 528.2062,-240.3918 538.7122,-239.2035"/>
<polygon fill="#191970" stroke="#191970" points="539.17,-242.6741 548.7133,-238.0723 538.3832,-235.7185 539.17,-242.6741"/>
</g>
<!-- Node32 -->
<g id="node10" class="node">
<title>Node32</title>
<g id="a_node10"><a xlink:href="../../d9/de9/classtensorflow_1_1XlaOpRegistry.html#a504bd86e27f0fedc9c5dcb82af983bfb" target="_top" xlink:title="tensorflow::XlaOpRegistry\l::RegisterCompilationKernels">
<polygon fill="#ffffff" stroke="#000000" points="351,-.5 351,-30.5 509,-30.5 509,-.5 351,-.5"/>
<text text-anchor="start" x="359" y="-18.5" font-family="Helvetica,sans-Serif" font-size="10.00" fill="#000000">tensorflow::XlaOpRegistry</text>
<text text-anchor="middle" x="430" y="-7.5" font-family="Helvetica,sans-Serif" font-size="10.00" fill="#000000">::RegisterCompilationKernels</text>
</a>
</g>
</g>
<!-- Node31&#45;&gt;Node32 -->
<g id="edge10" class="edge">
<title>Node31&#45;&gt;Node32</title>
<path fill="none" stroke="#191970" d="M311.0945,-45.4655C327.1514,-41.419 344.3087,-37.0951 360.4512,-33.027"/>
<polygon fill="#191970" stroke="#191970" points="361.5106,-36.3696 370.3521,-30.5319 359.8,-29.5818 361.5106,-36.3696"/>
</g>
</g>
</svg>
