<?xml version="1.0" encoding="UTF-8" standalone="no"?>
<!DOCTYPE svg PUBLIC "-//W3C//DTD SVG 1.1//EN"
 "http://www.w3.org/Graphics/SVG/1.1/DTD/svg11.dtd">
<!-- Generated by graphviz version 2.40.1 (20161225.0304)
 -->
<!-- Title: xla::CompileOnlyService::CompileAheadOfTime Pages: 1 -->
<!--zoomable 50 -->
<svg id="main" version="1.1" xmlns="http://www.w3.org/2000/svg" xmlns:xlink="http://www.w3.org/1999/xlink" xml:space="preserve" onload="init(evt)">
<style type="text/css"><![CDATA[
.edge:hover path { stroke: red; }
.edge:hover polygon { stroke: red; fill: red; }
]]></style>
<script type="text/javascript"><![CDATA[
var edges = document.getElementsByTagName('g');
if (edges && edges.length) {
  for (var i=0;i<edges.length;i++) {
    if (edges[i].id.substr(0,4)=='edge') {
      edges[i].setAttribute('class','edge');
    }
  }
}
]]></script>
        <defs>
                <circle id="rim" cx="0" cy="0" r="7"/>
                <circle id="rim2" cx="0" cy="0" r="3.5"/>
                <g id="zoomPlus">
                        <use xlink:href="#rim" fill="#404040">
                                <set attributeName="fill" to="#808080" begin="zoomplus.mouseover" end="zoomplus.mouseout"/>
                        </use>
                        <path d="M-4,0h8M0,-4v8" fill="none" stroke="white" stroke-width="1.5" pointer-events="none"/>
                </g>
                <g id="zoomMin">
                        <use xlink:href="#rim" fill="#404040">
                                <set attributeName="fill" to="#808080" begin="zoomminus.mouseover" end="zoomminus.mouseout"/>
                        </use>
                        <path d="M-4,0h8" fill="none" stroke="white" stroke-width="1.5" pointer-events="none"/>
                </g>
                <g id="dirArrow">
                        <path fill="none" stroke="white" stroke-width="1.5" d="M0,-3.0v7 M-2.5,-0.5L0,-3.0L2.5,-0.5"/>
                </g>
               <g id="resetDef">
                       <use xlink:href="#rim2" fill="#404040">
                               <set attributeName="fill" to="#808080" begin="reset.mouseover" end="reset.mouseout"/>
                       </use>
               </g>
        </defs>

<script type="text/javascript">
var viewWidth = 880;
var viewHeight = 50;
var sectionId = 'dynsection-3';
</script>
<script xlink:href="../../svgpan.js"/>
<svg id="graph" class="graph">
<g id="viewport">
<title>xla::CompileOnlyService::CompileAheadOfTime</title>
<polygon fill="#ffffff" stroke="transparent" points="-4,4 -4,-46 876,-46 876,4 -4,4"/>
<!-- Node7 -->
<g id="node1" class="node">
<title>Node7</title>
<polygon fill="#bfbfbf" stroke="#000000" points="0,-6 0,-36 137,-36 137,-6 0,-6"/>
<text text-anchor="start" x="8" y="-24" font-family="Helvetica,sans-Serif" font-size="10.00" fill="#000000">xla::CompileOnlyService</text>
<text text-anchor="middle" x="68.5" y="-13" font-family="Helvetica,sans-Serif" font-size="10.00" fill="#000000">::CompileAheadOfTime</text>
</g>
<!-- Node8 -->
<g id="node2" class="node">
<title>Node8</title>
<g id="a_node2"><a xlink:href="../../d1/dd1/classxla_1_1CompileOnlyClient.html#a5a585d21f617b77a1cecc1b587d18d7a" target="_top" xlink:title="Compiles a list of computations for ahead&#45;of&#45;time execution. This is intended for use in static compi...">
<polygon fill="#ffffff" stroke="#000000" points="173,-6 173,-36 303,-36 303,-6 173,-6"/>
<text text-anchor="start" x="181" y="-24" font-family="Helvetica,sans-Serif" font-size="10.00" fill="#000000">xla::CompileOnlyClient</text>
<text text-anchor="middle" x="238" y="-13" font-family="Helvetica,sans-Serif" font-size="10.00" fill="#000000">::CompileAheadOfTime</text>
</a>
</g>
</g>
<!-- Node7&#45;&gt;Node8 -->
<g id="edge1" class="edge">
<title>Node7&#45;&gt;Node8</title>
<path fill="none" stroke="#191970" d="M147.698,-21C156.1548,-21 164.6856,-21 172.9516,-21"/>
<polygon fill="#191970" stroke="#191970" points="147.4422,-17.5001 137.4421,-21 147.4421,-24.5001 147.4422,-17.5001"/>
</g>
<!-- Node9 -->
<g id="node3" class="node">
<title>Node9</title>
<g id="a_node3"><a xlink:href="../../d4/df4/namespacetensorflow_1_1tfcompile_1_1anonymous__namespace_02compile_8cc_03.html#a40f8a019f31fa8cbe2fff5d90e69c21b" target="_top" xlink:title="Compiles the XLA computation into executable code. ">
<polygon fill="#ffffff" stroke="#000000" points="339,-.5 339,-41.5 485,-41.5 485,-.5 339,-.5"/>
<text text-anchor="start" x="347" y="-29.5" font-family="Helvetica,sans-Serif" font-size="10.00" fill="#000000">tensorflow::tfcompile</text>
<text text-anchor="start" x="347" y="-18.5" font-family="Helvetica,sans-Serif" font-size="10.00" fill="#000000">::anonymous_namespace</text>
<text text-anchor="middle" x="412" y="-7.5" font-family="Helvetica,sans-Serif" font-size="10.00" fill="#000000">{compile::cc}::CompileXla</text>
</a>
</g>
</g>
<!-- Node8&#45;&gt;Node9 -->
<g id="edge2" class="edge">
<title>Node8&#45;&gt;Node9</title>
<path fill="none" stroke="#191970" d="M313.4369,-21C321.8358,-21 330.381,-21 338.752,-21"/>
<polygon fill="#191970" stroke="#191970" points="313.2863,-17.5001 303.2862,-21 313.2862,-24.5001 313.2863,-17.5001"/>
</g>
<!-- Node10 -->
<g id="node4" class="node">
<title>Node10</title>
<g id="a_node4"><a xlink:href="../../d7/d38/namespacetensorflow_1_1tfcompile.html#a021cb1c58d938b16dcd998aa8d1fc191" target="_top" xlink:title="Converts the graph into an XLA computation, and compiles the computation. Called by tensorflow::tfcom...">
<polygon fill="#ffffff" stroke="#000000" points="521,-6 521,-36 640,-36 640,-6 521,-6"/>
<text text-anchor="start" x="529" y="-24" font-family="Helvetica,sans-Serif" font-size="10.00" fill="#000000">tensorflow::tfcompile</text>
<text text-anchor="middle" x="580.5" y="-13" font-family="Helvetica,sans-Serif" font-size="10.00" fill="#000000">::CompileGraph</text>
</a>
</g>
</g>
<!-- Node9&#45;&gt;Node10 -->
<g id="edge3" class="edge">
<title>Node9&#45;&gt;Node10</title>
<path fill="none" stroke="#191970" d="M495.4913,-21C504.0962,-21 512.7115,-21 520.9784,-21"/>
<polygon fill="#191970" stroke="#191970" points="495.4164,-17.5001 485.4164,-21 495.4163,-24.5001 495.4164,-17.5001"/>
</g>
<!-- Node11 -->
<g id="node5" class="node">
<title>Node11</title>
<g id="a_node5"><a xlink:href="../../d7/d38/namespacetensorflow_1_1tfcompile.html#a460964a5bb277865d1275fe3746132c1" target="_top" xlink:title="tensorflow::tfcompile\l::Main">
<polygon fill="#ffffff" stroke="#000000" points="676,-6 676,-36 795,-36 795,-6 676,-6"/>
<text text-anchor="start" x="684" y="-24" font-family="Helvetica,sans-Serif" font-size="10.00" fill="#000000">tensorflow::tfcompile</text>
<text text-anchor="middle" x="735.5" y="-13" font-family="Helvetica,sans-Serif" font-size="10.00" fill="#000000">::Main</text>
</a>
</g>
</g>
<!-- Node10&#45;&gt;Node11 -->
<g id="edge4" class="edge">
<title>Node10&#45;&gt;Node11</title>
<path fill="none" stroke="#191970" d="M650.6612,-21C659.1217,-21 667.6999,-21 675.9877,-21"/>
<polygon fill="#191970" stroke="#191970" points="650.4271,-17.5001 640.427,-21 650.427,-24.5001 650.4271,-17.5001"/>
</g>
<!-- Node12 -->
<g id="node6" class="node">
<title>Node12</title>
<g id="a_node6"><a xlink:href="../../d4/d8d/tfcompile__main_8cc.html#a3c04138a5bfe5d72780bb7e82a18e627" target="_top" xlink:title="main">
<polygon fill="#ffffff" stroke="#000000" points="831,-11.5 831,-30.5 872,-30.5 872,-11.5 831,-11.5"/>
<text text-anchor="middle" x="851.5" y="-18.5" font-family="Helvetica,sans-Serif" font-size="10.00" fill="#000000">main</text>
</a>
</g>
</g>
<!-- Node11&#45;&gt;Node12 -->
<g id="edge5" class="edge">
<title>Node11&#45;&gt;Node12</title>
<path fill="none" stroke="#191970" d="M805.3907,-21C814.6734,-21 823.5314,-21 830.9577,-21"/>
<polygon fill="#191970" stroke="#191970" points="805.199,-17.5001 795.199,-21 805.199,-24.5001 805.199,-17.5001"/>
</g>
</g>
</svg>
        <g id="navigator" transform="translate(0 0)" fill="#404254">
                <rect fill="#f2f5e9" fill-opacity="0.5" stroke="#606060" stroke-width=".5" x="0" y="0" width="60" height="60"/>
                <use id="zoomplus" xlink:href="#zoomPlus" x="17" y="9" onmousedown="handleZoom(evt,'in')"/>
                <use id="zoomminus" xlink:href="#zoomMin" x="42" y="9" onmousedown="handleZoom(evt,'out')"/>
                <use id="reset" xlink:href="#resetDef" x="30" y="36" onmousedown="handleReset()"/>
                <g id="arrowUp" xlink:href="#dirArrow" transform="translate(30 24)" onmousedown="handlePan(0,-1)">
                  <use xlink:href="#rim" fill="#404040">
                        <set attributeName="fill" to="#808080" begin="arrowUp.mouseover" end="arrowUp.mouseout"/>
                  </use>
                  <path fill="none" stroke="white" stroke-width="1.5" d="M0,-3.0v7 M-2.5,-0.5L0,-3.0L2.5,-0.5"/>
                </g>
                <g id="arrowRight" xlink:href="#dirArrow" transform="rotate(90) translate(36 -43)" onmousedown="handlePan(1,0)">
                  <use xlink:href="#rim" fill="#404040">
                        <set attributeName="fill" to="#808080" begin="arrowRight.mouseover" end="arrowRight.mouseout"/>
                  </use>
                  <path fill="none" stroke="white" stroke-width="1.5" d="M0,-3.0v7 M-2.5,-0.5L0,-3.0L2.5,-0.5"/>
                </g>
                <g id="arrowDown" xlink:href="#dirArrow" transform="rotate(180) translate(-30 -48)" onmousedown="handlePan(0,1)">
                  <use xlink:href="#rim" fill="#404040">
                        <set attributeName="fill" to="#808080" begin="arrowDown.mouseover" end="arrowDown.mouseout"/>
                  </use>
                  <path fill="none" stroke="white" stroke-width="1.5" d="M0,-3.0v7 M-2.5,-0.5L0,-3.0L2.5,-0.5"/>
                </g>
                <g id="arrowLeft" xlink:href="#dirArrow" transform="rotate(270) translate(-36 17)" onmousedown="handlePan(-1,0)">
                  <use xlink:href="#rim" fill="#404040">
                        <set attributeName="fill" to="#808080" begin="arrowLeft.mouseover" end="arrowLeft.mouseout"/>
                  </use>
                  <path fill="none" stroke="white" stroke-width="1.5" d="M0,-3.0v7 M-2.5,-0.5L0,-3.0L2.5,-0.5"/>
                </g>
        </g>
        <svg viewBox="0 0 15 15" width="100%" height="30px" preserveAspectRatio="xMaxYMin meet">
         <g id="arrow_out" transform="scale(0.3 0.3)">
          <a xlink:href="classxla_1_1CompileOnlyService_aceb67616a89167b9af1bf23d17ec37c9_icgraph_org.svg" target="_base">
           <rect id="button" ry="5" rx="5" y="6" x="6" height="38" width="38"
                fill="#f2f5e9" fill-opacity="0.5" stroke="#606060" stroke-width="1.0"/>
           <path id="arrow"
             d="M 11.500037,31.436501 C 11.940474,20.09759 22.043105,11.32322 32.158766,21.979434 L 37.068811,17.246167 C 37.068811,17.246167 37.088388,32 37.088388,32 L 22.160133,31.978069 C 22.160133,31.978069 26.997745,27.140456 26.997745,27.140456 C 18.528582,18.264221 13.291696,25.230495 11.500037,31.436501 z"
             style="fill:#404040;"/>
          </a>
         </g>
        </svg>
</svg>
