<?xml version="1.0" encoding="UTF-8" standalone="no"?>
<!DOCTYPE svg PUBLIC "-//W3C//DTD SVG 1.1//EN"
 "http://www.w3.org/Graphics/SVG/1.1/DTD/svg11.dtd">
<!-- Generated by graphviz version 2.40.1 (20161225.0304)
 -->
<!-- Title: tensorflow/tensorflow/compiler/xla/service/cpu/conv_canonicalization.cc Pages: 1 -->
<!--zoomable 362 -->
<svg id="main" version="1.1" xmlns="http://www.w3.org/2000/svg" xmlns:xlink="http://www.w3.org/1999/xlink" xml:space="preserve" onload="init(evt)">
<style type="text/css"><![CDATA[
.edge:hover path { stroke: red; }
.edge:hover polygon { stroke: red; fill: red; }
]]></style>
<script type="text/javascript"><![CDATA[
var edges = document.getElementsByTagName('g');
if (edges && edges.length) {
  for (var i=0;i<edges.length;i++) {
    if (edges[i].id.substr(0,4)=='edge') {
      edges[i].setAttribute('class','edge');
    }
  }
}
]]></script>
        <defs>
                <circle id="rim" cx="0" cy="0" r="7"/>
                <circle id="rim2" cx="0" cy="0" r="3.5"/>
                <g id="zoomPlus">
                        <use xlink:href="#rim" fill="#404040">
                                <set attributeName="fill" to="#808080" begin="zoomplus.mouseover" end="zoomplus.mouseout"/>
                        </use>
                        <path d="M-4,0h8M0,-4v8" fill="none" stroke="white" stroke-width="1.5" pointer-events="none"/>
                </g>
                <g id="zoomMin">
                        <use xlink:href="#rim" fill="#404040">
                                <set attributeName="fill" to="#808080" begin="zoomminus.mouseover" end="zoomminus.mouseout"/>
                        </use>
                        <path d="M-4,0h8" fill="none" stroke="white" stroke-width="1.5" pointer-events="none"/>
                </g>
                <g id="dirArrow">
                        <path fill="none" stroke="white" stroke-width="1.5" d="M0,-3.0v7 M-2.5,-0.5L0,-3.0L2.5,-0.5"/>
                </g>
               <g id="resetDef">
                       <use xlink:href="#rim2" fill="#404040">
                               <set attributeName="fill" to="#808080" begin="reset.mouseover" end="reset.mouseout"/>
                       </use>
               </g>
        </defs>

<script type="text/javascript">
var viewWidth = 3101;
var viewHeight = 362;
var sectionId = 'dynsection-0';
</script>
<script xlink:href="../../svgpan.js"/>
<svg id="graph" class="graph">
<g id="viewport">
<title>tensorflow/tensorflow/compiler/xla/service/cpu/conv_canonicalization.cc</title>
<polygon fill="#ffffff" stroke="transparent" points="-4,4 -4,-358 3097,-358 3097,4 -4,4"/>
<!-- Node0 -->
<g id="node1" class="node">
<title>Node0</title>
<polygon fill="#bfbfbf" stroke="#000000" points="2408,-312.5 2408,-353.5 2556,-353.5 2556,-312.5 2408,-312.5"/>
<text text-anchor="start" x="2416" y="-341.5" font-family="Helvetica,sans-Serif" font-size="10.00" fill="#000000">tensorflow/tensorflow</text>
<text text-anchor="start" x="2416" y="-330.5" font-family="Helvetica,sans-Serif" font-size="10.00" fill="#000000">/compiler/xla/service</text>
<text text-anchor="middle" x="2482" y="-319.5" font-family="Helvetica,sans-Serif" font-size="10.00" fill="#000000">/cpu/conv_canonicalization.cc</text>
</g>
<!-- Node1 -->
<g id="node2" class="node">
<title>Node1</title>
<g id="a_node2"><a xlink:href="../../d6/d76/conv__canonicalization_8h.html" target="_top" xlink:title="tensorflow/compiler\l/xla/service/cpu/conv\l_canonicalization.h">
<polygon fill="#ffffff" stroke="#000000" points="853,-234.5 853,-275.5 963,-275.5 963,-234.5 853,-234.5"/>
<text text-anchor="start" x="861" y="-263.5" font-family="Helvetica,sans-Serif" font-size="10.00" fill="#000000">tensorflow/compiler</text>
<text text-anchor="start" x="861" y="-252.5" font-family="Helvetica,sans-Serif" font-size="10.00" fill="#000000">/xla/service/cpu/conv</text>
<text text-anchor="middle" x="908" y="-241.5" font-family="Helvetica,sans-Serif" font-size="10.00" fill="#000000">_canonicalization.h</text>
</a>
</g>
</g>
<!-- Node0&#45;&gt;Node1 -->
<g id="edge1" class="edge">
<title>Node0&#45;&gt;Node1</title>
<path fill="none" stroke="#191970" d="M2407.9314,-329.3295C2140.3673,-316.0703 1226.3144,-270.7742 973.3498,-258.2384"/>
<polygon fill="#191970" stroke="#191970" points="973.376,-254.7355 963.215,-257.7362 973.0295,-261.7269 973.376,-254.7355"/>
</g>
<!-- Node12 -->
<g id="node13" class="node">
<title>Node12</title>
<g id="a_node13"><a xlink:href="../../d2/d31/hlo__computation_8h.html" target="_top" xlink:title="tensorflow/compiler\l/xla/service/hlo_computation.h">
<polygon fill="#ffffff" stroke="#000000" points="1237.5,-84 1237.5,-114 1386.5,-114 1386.5,-84 1237.5,-84"/>
<text text-anchor="start" x="1245.5" y="-102" font-family="Helvetica,sans-Serif" font-size="10.00" fill="#000000">tensorflow/compiler</text>
<text text-anchor="middle" x="1312" y="-91" font-family="Helvetica,sans-Serif" font-size="10.00" fill="#000000">/xla/service/hlo_computation.h</text>
</a>
</g>
</g>
<!-- Node0&#45;&gt;Node12 -->
<g id="edge50" class="edge">
<title>Node0&#45;&gt;Node12</title>
<path fill="none" stroke="#191970" d="M2407.9237,-318.1847C2200.6358,-276.7272 1615.5822,-159.7164 1396.3525,-115.8705"/>
<polygon fill="#191970" stroke="#191970" points="1396.9985,-112.4305 1386.5062,-113.9012 1395.6256,-119.2945 1396.9985,-112.4305"/>
</g>
<!-- Node18 -->
<g id="node19" class="node">
<title>Node18</title>
<polygon fill="#ffffff" stroke="#bfbfbf" points="2527.5,-6 2527.5,-36 2668.5,-36 2668.5,-6 2527.5,-6"/>
<text text-anchor="start" x="2535.5" y="-24" font-family="Helvetica,sans-Serif" font-size="10.00" fill="#000000">tensorflow/compiler</text>
<text text-anchor="middle" x="2598" y="-13" font-family="Helvetica,sans-Serif" font-size="10.00" fill="#000000">/xla/service/hlo_instruction.h</text>
</g>
<!-- Node0&#45;&gt;Node18 -->
<g id="edge51" class="edge">
<title>Node0&#45;&gt;Node18</title>
<path fill="none" stroke="#191970" d="M2407.7569,-314.2289C2373.3769,-303.8867 2337.936,-290.2723 2328,-276 2277.7211,-203.7779 2271.8646,-145.7703 2328,-78 2355.4128,-44.9054 2476.081,-51.4611 2518,-42 2522.7405,-40.9301 2527.6258,-39.776 2532.5348,-38.5787"/>
<polygon fill="#191970" stroke="#191970" points="2533.7461,-41.8842 2542.6055,-36.0737 2532.0563,-35.0912 2533.7461,-41.8842"/>
</g>
<!-- Node24 -->
<g id="node25" class="node">
<title>Node24</title>
<polygon fill="#ffffff" stroke="#bfbfbf" points="2686.5,-6 2686.5,-36 2787.5,-36 2787.5,-6 2686.5,-6"/>
<text text-anchor="start" x="2694.5" y="-24" font-family="Helvetica,sans-Serif" font-size="10.00" fill="#000000">tensorflow/compiler</text>
<text text-anchor="middle" x="2737" y="-13" font-family="Helvetica,sans-Serif" font-size="10.00" fill="#000000">/xla/xla_data.pb.h</text>
</g>
<!-- Node0&#45;&gt;Node24 -->
<g id="edge55" class="edge">
<title>Node0&#45;&gt;Node24</title>
<path fill="none" stroke="#191970" d="M2407.8897,-313.7248C2389.4631,-305.2456 2371.8836,-293.1577 2361,-276 2351.0012,-260.2371 2351.6006,-250.1275 2361,-234 2398.0794,-170.3793 2599.3794,-79.0854 2691.246,-39.967"/>
<polygon fill="#191970" stroke="#191970" points="2692.7341,-43.1378 2700.576,-36.0135 2690.003,-36.6926 2692.7341,-43.1378"/>
</g>
<!-- Node37 -->
<g id="node38" class="node">
<title>Node37</title>
<polygon fill="#ffffff" stroke="#bfbfbf" points="2370,-234.5 2370,-275.5 2474,-275.5 2474,-234.5 2370,-234.5"/>
<text text-anchor="start" x="2378" y="-263.5" font-family="Helvetica,sans-Serif" font-size="10.00" fill="#000000">tensorflow/compiler</text>
<text text-anchor="start" x="2378" y="-252.5" font-family="Helvetica,sans-Serif" font-size="10.00" fill="#000000">/xla/service/cpu/cpu</text>
<text text-anchor="middle" x="2422" y="-241.5" font-family="Helvetica,sans-Serif" font-size="10.00" fill="#000000">_runtime.h</text>
</g>
<!-- Node0&#45;&gt;Node37 -->
<g id="edge48" class="edge">
<title>Node0&#45;&gt;Node37</title>
<path fill="none" stroke="#191970" d="M2465.9211,-312.0974C2459.2091,-303.3719 2451.3026,-293.0934 2444.0611,-283.6794"/>
<polygon fill="#191970" stroke="#191970" points="2446.7866,-281.4821 2437.9152,-275.6898 2441.2382,-285.7501 2446.7866,-281.4821"/>
</g>
<!-- Node38 -->
<g id="node39" class="node">
<title>Node38</title>
<polygon fill="#ffffff" stroke="#bfbfbf" points="2492.5,-234.5 2492.5,-275.5 2593.5,-275.5 2593.5,-234.5 2492.5,-234.5"/>
<text text-anchor="start" x="2500.5" y="-263.5" font-family="Helvetica,sans-Serif" font-size="10.00" fill="#000000">tensorflow/compiler</text>
<text text-anchor="start" x="2500.5" y="-252.5" font-family="Helvetica,sans-Serif" font-size="10.00" fill="#000000">/xla/service/cpu/ir</text>
<text text-anchor="middle" x="2543" y="-241.5" font-family="Helvetica,sans-Serif" font-size="10.00" fill="#000000">_emission_utils.h</text>
</g>
<!-- Node0&#45;&gt;Node38 -->
<g id="edge49" class="edge">
<title>Node0&#45;&gt;Node38</title>
<path fill="none" stroke="#191970" d="M2498.3469,-312.0974C2505.1707,-303.3719 2513.209,-293.0934 2520.5712,-283.6794"/>
<polygon fill="#191970" stroke="#191970" points="2523.4161,-285.7231 2526.8195,-275.6898 2517.9021,-281.4109 2523.4161,-285.7231"/>
</g>
<!-- Node39 -->
<g id="node40" class="node">
<title>Node39</title>
<polygon fill="#ffffff" stroke="#bfbfbf" points="2612,-240 2612,-270 2740,-270 2740,-240 2612,-240"/>
<text text-anchor="start" x="2620" y="-258" font-family="Helvetica,sans-Serif" font-size="10.00" fill="#000000">tensorflow/compiler</text>
<text text-anchor="middle" x="2676" y="-247" font-family="Helvetica,sans-Serif" font-size="10.00" fill="#000000">/xla/service/hlo_opcode.h</text>
</g>
<!-- Node0&#45;&gt;Node39 -->
<g id="edge52" class="edge">
<title>Node0&#45;&gt;Node39</title>
<path fill="none" stroke="#191970" d="M2533.225,-312.4044C2562.978,-300.4419 2600.1863,-285.4818 2629.1586,-273.8332"/>
<polygon fill="#191970" stroke="#191970" points="2630.673,-276.9966 2638.6456,-270.0188 2628.0617,-270.5019 2630.673,-276.9966"/>
</g>
<!-- Node40 -->
<g id="node41" class="node">
<title>Node40</title>
<polygon fill="#ffffff" stroke="#bfbfbf" points="2758.5,-240 2758.5,-270 2859.5,-270 2859.5,-240 2758.5,-240"/>
<text text-anchor="start" x="2766.5" y="-258" font-family="Helvetica,sans-Serif" font-size="10.00" fill="#000000">tensorflow/compiler</text>
<text text-anchor="middle" x="2809" y="-247" font-family="Helvetica,sans-Serif" font-size="10.00" fill="#000000">/xla/shape_util.h</text>
</g>
<!-- Node0&#45;&gt;Node40 -->
<g id="edge53" class="edge">
<title>Node0&#45;&gt;Node40</title>
<path fill="none" stroke="#191970" d="M2556.2762,-319.7552C2610.1901,-309.5097 2684.6519,-294.0516 2749,-276 2752.1347,-275.1206 2755.3437,-274.1651 2758.5682,-273.1625"/>
<polygon fill="#191970" stroke="#191970" points="2759.7886,-276.4465 2768.2296,-270.0434 2757.6379,-269.785 2759.7886,-276.4465"/>
</g>
<!-- Node41 -->
<g id="node42" class="node">
<title>Node41</title>
<polygon fill="#ffffff" stroke="#bfbfbf" points="2877.5,-240 2877.5,-270 2978.5,-270 2978.5,-240 2877.5,-240"/>
<text text-anchor="start" x="2885.5" y="-258" font-family="Helvetica,sans-Serif" font-size="10.00" fill="#000000">tensorflow/compiler</text>
<text text-anchor="middle" x="2928" y="-247" font-family="Helvetica,sans-Serif" font-size="10.00" fill="#000000">/xla/util.h</text>
</g>
<!-- Node0&#45;&gt;Node41 -->
<g id="edge54" class="edge">
<title>Node0&#45;&gt;Node41</title>
<path fill="none" stroke="#191970" d="M2556.3083,-326.4168C2634.8439,-318.449 2761.9138,-302.6708 2869,-276 2872.3728,-275.16 2875.8233,-274.2023 2879.2795,-273.1694"/>
<polygon fill="#191970" stroke="#191970" points="2880.5009,-276.4539 2888.975,-270.0946 2878.3848,-269.7814 2880.5009,-276.4539"/>
</g>
<!-- Node42 -->
<g id="node43" class="node">
<title>Node42</title>
<polygon fill="#ffffff" stroke="#bfbfbf" points="2997,-240 2997,-270 3093,-270 3093,-240 2997,-240"/>
<text text-anchor="start" x="3005" y="-258" font-family="Helvetica,sans-Serif" font-size="10.00" fill="#000000">tensorflow/core/lib</text>
<text text-anchor="middle" x="3045" y="-247" font-family="Helvetica,sans-Serif" font-size="10.00" fill="#000000">/core/errors.h</text>
</g>
<!-- Node0&#45;&gt;Node42 -->
<g id="edge56" class="edge">
<title>Node0&#45;&gt;Node42</title>
<path fill="none" stroke="#191970" d="M2556.2758,-330.2227C2655.765,-325.2397 2837.2455,-311.7091 2988,-276 2991.3865,-275.1978 2994.8471,-274.2535 2998.3064,-273.2171"/>
<polygon fill="#191970" stroke="#191970" points="2999.5468,-276.4946 3007.9893,-270.0935 2997.3977,-269.8326 2999.5468,-276.4946"/>
</g>
<!-- Node2 -->
<g id="node3" class="node">
<title>Node2</title>
<g id="a_node3"><a xlink:href="../../db/da0/hlo__module_8h.html" target="_top" xlink:title="tensorflow/compiler\l/xla/service/hlo_module.h">
<polygon fill="#ffffff" stroke="#000000" points="844,-162 844,-192 972,-192 972,-162 844,-162"/>
<text text-anchor="start" x="852" y="-180" font-family="Helvetica,sans-Serif" font-size="10.00" fill="#000000">tensorflow/compiler</text>
<text text-anchor="middle" x="908" y="-169" font-family="Helvetica,sans-Serif" font-size="10.00" fill="#000000">/xla/service/hlo_module.h</text>
</a>
</g>
</g>
<!-- Node1&#45;&gt;Node2 -->
<g id="edge2" class="edge">
<title>Node1&#45;&gt;Node2</title>
<path fill="none" stroke="#191970" d="M908,-234.0974C908,-224.3178 908,-212.5873 908,-202.3097"/>
<polygon fill="#191970" stroke="#191970" points="911.5001,-202.2678 908,-192.2679 904.5001,-202.2679 911.5001,-202.2678"/>
</g>
<!-- Node36 -->
<g id="node37" class="node">
<title>Node36</title>
<polygon fill="#ffffff" stroke="#bfbfbf" points="716.5,-156.5 716.5,-197.5 825.5,-197.5 825.5,-156.5 716.5,-156.5"/>
<text text-anchor="start" x="724.5" y="-185.5" font-family="Helvetica,sans-Serif" font-size="10.00" fill="#000000">tensorflow/compiler</text>
<text text-anchor="start" x="724.5" y="-174.5" font-family="Helvetica,sans-Serif" font-size="10.00" fill="#000000">/xla/service/hlo_pass</text>
<text text-anchor="middle" x="771" y="-163.5" font-family="Helvetica,sans-Serif" font-size="10.00" fill="#000000">_interface.h</text>
</g>
<!-- Node1&#45;&gt;Node36 -->
<g id="edge47" class="edge">
<title>Node1&#45;&gt;Node36</title>
<path fill="none" stroke="#191970" d="M871.6462,-234.3022C854.6351,-224.617 834.2032,-212.9843 816.2065,-202.738"/>
<polygon fill="#191970" stroke="#191970" points="817.4703,-199.43 807.0483,-197.5239 814.0068,-205.5132 817.4703,-199.43"/>
</g>
<!-- Node3 -->
<g id="node4" class="node">
<title>Node3</title>
<polygon fill="#ffffff" stroke="#bfbfbf" points="92,-89.5 92,-108.5 138,-108.5 138,-89.5 92,-89.5"/>
<text text-anchor="middle" x="115" y="-96.5" font-family="Helvetica,sans-Serif" font-size="10.00" fill="#000000">atomic</text>
</g>
<!-- Node2&#45;&gt;Node3 -->
<g id="edge3" class="edge">
<title>Node2&#45;&gt;Node3</title>
<path fill="none" stroke="#191970" d="M860.9861,-161.9601C852.1017,-159.6036 842.8266,-157.4663 834,-156 684.2854,-131.1281 297.6665,-162.5951 152,-120 147.0331,-118.5476 142.0135,-116.3173 137.3422,-113.8436"/>
<polygon fill="#191970" stroke="#191970" points="138.7698,-110.6239 128.371,-108.5955 135.2352,-116.666 138.7698,-110.6239"/>
</g>
<!-- Node4 -->
<g id="node5" class="node">
<title>Node4</title>
<polygon fill="#ffffff" stroke="#bfbfbf" points="395.5,-11.5 395.5,-30.5 424.5,-30.5 424.5,-11.5 395.5,-11.5"/>
<text text-anchor="middle" x="410" y="-18.5" font-family="Helvetica,sans-Serif" font-size="10.00" fill="#000000">list</text>
</g>
<!-- Node2&#45;&gt;Node4 -->
<g id="edge4" class="edge">
<title>Node2&#45;&gt;Node4</title>
<path fill="none" stroke="#191970" d="M860.5759,-161.9266C851.8141,-159.6045 842.6875,-157.488 834,-156 771.1234,-145.2308 304.6708,-166.5006 261,-120 248.2212,-106.3931 249.7907,-92.9264 261,-78 295.4605,-32.112 334.3822,-69.0384 385,-42 387.6249,-40.5979 390.2246,-38.8876 392.699,-37.0547"/>
<polygon fill="#191970" stroke="#191970" points="395.0064,-39.6883 400.4838,-30.6192 390.5463,-34.2931 395.0064,-39.6883"/>
</g>
<!-- Node5 -->
<g id="node6" class="node">
<title>Node5</title>
<polygon fill="#ffffff" stroke="#bfbfbf" points="443,-11.5 443,-30.5 495,-30.5 495,-11.5 443,-11.5"/>
<text text-anchor="middle" x="469" y="-18.5" font-family="Helvetica,sans-Serif" font-size="10.00" fill="#000000">memory</text>
</g>
<!-- Node2&#45;&gt;Node5 -->
<g id="edge5" class="edge">
<title>Node2&#45;&gt;Node5</title>
<path fill="none" stroke="#191970" d="M919.2542,-161.8577C933.6982,-140.4524 954.4789,-101.3568 933,-78 868.2424,-7.5806 595.0476,-71.373 504,-42 499.4773,-40.5409 494.9223,-38.4052 490.6623,-36.0474"/>
<polygon fill="#191970" stroke="#191970" points="492.2916,-32.9412 481.9348,-30.7079 488.6384,-38.9123 492.2916,-32.9412"/>
</g>
<!-- Node6 -->
<g id="node7" class="node">
<title>Node6</title>
<polygon fill="#ffffff" stroke="#bfbfbf" points="980.5,-89.5 980.5,-108.5 1029.5,-108.5 1029.5,-89.5 980.5,-89.5"/>
<text text-anchor="middle" x="1005" y="-96.5" font-family="Helvetica,sans-Serif" font-size="10.00" fill="#000000">random</text>
</g>
<!-- Node2&#45;&gt;Node6 -->
<g id="edge6" class="edge">
<title>Node2&#45;&gt;Node6</title>
<path fill="none" stroke="#191970" d="M926.7026,-161.9608C943.3922,-148.5403 967.7678,-128.9393 984.8765,-115.1818"/>
<polygon fill="#191970" stroke="#191970" points="987.4819,-117.578 993.0816,-108.5839 983.0953,-112.1229 987.4819,-117.578"/>
</g>
<!-- Node7 -->
<g id="node8" class="node">
<title>Node7</title>
<polygon fill="#ffffff" stroke="#bfbfbf" points="513.5,-11.5 513.5,-30.5 554.5,-30.5 554.5,-11.5 513.5,-11.5"/>
<text text-anchor="middle" x="534" y="-18.5" font-family="Helvetica,sans-Serif" font-size="10.00" fill="#000000">string</text>
</g>
<!-- Node2&#45;&gt;Node7 -->
<g id="edge7" class="edge">
<title>Node2&#45;&gt;Node7</title>
<path fill="none" stroke="#191970" d="M972.1515,-164.6708C997.0843,-156.4079 1023.1716,-142.6928 1038,-120 1048.2109,-104.3737 1050.6908,-91.689 1038,-78 966.0309,-.37 662.397,-78.4173 563,-42 559.3411,-40.6594 555.7352,-38.7162 552.3758,-36.5458"/>
<polygon fill="#191970" stroke="#191970" points="554.3215,-33.6322 544.1916,-30.5282 550.1748,-39.2718 554.3215,-33.6322"/>
</g>
<!-- Node8 -->
<g id="node9" class="node">
<title>Node8</title>
<polygon fill="#ffffff" stroke="#bfbfbf" points="572.5,-11.5 572.5,-30.5 655.5,-30.5 655.5,-11.5 572.5,-11.5"/>
<text text-anchor="middle" x="614" y="-18.5" font-family="Helvetica,sans-Serif" font-size="10.00" fill="#000000">unordered_map</text>
</g>
<!-- Node2&#45;&gt;Node8 -->
<g id="edge8" class="edge">
<title>Node2&#45;&gt;Node8</title>
<path fill="none" stroke="#191970" d="M972.2875,-162.7501C1012.8929,-152.2996 1059.903,-137.0113 1072,-120 1082.8178,-104.7875 1084.6044,-91.7685 1072,-78 1010.6901,-11.0277 753.2077,-63.5312 665,-42 657.5814,-40.1892 649.8356,-37.4686 642.6863,-34.5808"/>
<polygon fill="#191970" stroke="#191970" points="643.9648,-31.321 633.3939,-30.609 641.2136,-37.7577 643.9648,-31.321"/>
</g>
<!-- Node9 -->
<g id="node10" class="node">
<title>Node9</title>
<polygon fill="#ffffff" stroke="#bfbfbf" points="674,-11.5 674,-30.5 718,-30.5 718,-11.5 674,-11.5"/>
<text text-anchor="middle" x="696" y="-18.5" font-family="Helvetica,sans-Serif" font-size="10.00" fill="#000000">vector</text>
</g>
<!-- Node2&#45;&gt;Node9 -->
<g id="edge9" class="edge">
<title>Node2&#45;&gt;Node9</title>
<path fill="none" stroke="#191970" d="M972.2765,-168.2835C1047.2448,-155.6079 1155.4851,-127.961 1110,-78 1052.45,-14.7869 807.4616,-70.8761 727,-42 723.1186,-40.607 719.2572,-38.6149 715.6443,-36.4061"/>
<polygon fill="#191970" stroke="#191970" points="717.5318,-33.4565 707.3054,-30.6869 713.5726,-39.2293 717.5318,-33.4565"/>
</g>
<!-- Node10 -->
<g id="node11" class="node">
<title>Node10</title>
<polygon fill="#ffffff" stroke="#bfbfbf" points="736.5,-6 736.5,-36 837.5,-36 837.5,-6 736.5,-6"/>
<text text-anchor="start" x="744.5" y="-24" font-family="Helvetica,sans-Serif" font-size="10.00" fill="#000000">tensorflow/compiler</text>
<text text-anchor="middle" x="787" y="-13" font-family="Helvetica,sans-Serif" font-size="10.00" fill="#000000">/xla/iterator_util.h</text>
</g>
<!-- Node2&#45;&gt;Node10 -->
<g id="edge10" class="edge">
<title>Node2&#45;&gt;Node10</title>
<path fill="none" stroke="#191970" d="M972.0374,-172.161C1060.1489,-163.1738 1202.0782,-138.9314 1148,-78 1103.2831,-27.6162 912.6244,-57.2171 847,-42 843.3447,-41.1524 839.6019,-40.1595 835.8595,-39.0749"/>
<polygon fill="#191970" stroke="#191970" points="836.6017,-35.6408 826.0139,-36.0263 834.5312,-42.3276 836.6017,-35.6408"/>
</g>
<!-- Node11 -->
<g id="node12" class="node">
<title>Node11</title>
<polygon fill="#ffffff" stroke="#bfbfbf" points="856,-6 856,-36 960,-36 960,-6 856,-6"/>
<text text-anchor="start" x="864" y="-24" font-family="Helvetica,sans-Serif" font-size="10.00" fill="#000000">tensorflow/compiler</text>
<text text-anchor="middle" x="908" y="-13" font-family="Helvetica,sans-Serif" font-size="10.00" fill="#000000">/xla/service/hlo.pb.h</text>
</g>
<!-- Node2&#45;&gt;Node11 -->
<g id="edge11" class="edge">
<title>Node2&#45;&gt;Node11</title>
<path fill="none" stroke="#191970" d="M972.0789,-173.0102C1045.6222,-166.9381 1159.5284,-152.45 1186,-120 1197.7995,-105.5357 1198.071,-92.2385 1186,-78 1154.3904,-40.7144 1016.3861,-53.9976 969,-42 965.5849,-41.1353 962.0882,-40.1661 958.5814,-39.1312"/>
<polygon fill="#191970" stroke="#191970" points="959.3197,-35.6956 948.7316,-36.0723 957.2436,-42.3807 959.3197,-35.6956"/>
</g>
<!-- Node2&#45;&gt;Node12 -->
<g id="edge12" class="edge">
<title>Node2&#45;&gt;Node12</title>
<path fill="none" stroke="#191970" d="M972.0554,-166.5239C1036.0383,-155.8064 1137.1073,-138.1899 1224,-120 1229.6137,-118.8248 1235.4164,-117.5576 1241.24,-116.2486"/>
<polygon fill="#191970" stroke="#191970" points="1242.0596,-119.6516 1251.0306,-114.0149 1240.5026,-112.827 1242.0596,-119.6516"/>
</g>
<!-- Node2&#45;&gt;Node18 -->
<g id="edge38" class="edge">
<title>Node2&#45;&gt;Node18</title>
<path fill="none" stroke="#191970" d="M972.1642,-175.5999C1190.3266,-169.9958 1922.9569,-144.2546 2518,-42 2523.8023,-41.0029 2529.7981,-39.7865 2535.7765,-38.4467"/>
<polygon fill="#191970" stroke="#191970" points="2536.8515,-41.7895 2545.7842,-36.0923 2535.2483,-34.9755 2536.8515,-41.7895"/>
</g>
<!-- Node20 -->
<g id="node21" class="node">
<title>Node20</title>
<polygon fill="#ffffff" stroke="#bfbfbf" points="0,-6 0,-36 138,-36 138,-6 0,-6"/>
<text text-anchor="start" x="8" y="-24" font-family="Helvetica,sans-Serif" font-size="10.00" fill="#000000">tensorflow/compiler</text>
<text text-anchor="middle" x="69" y="-13" font-family="Helvetica,sans-Serif" font-size="10.00" fill="#000000">/xla/service/name_uniquer.h</text>
</g>
<!-- Node2&#45;&gt;Node20 -->
<g id="edge40" class="edge">
<title>Node2&#45;&gt;Node20</title>
<path fill="none" stroke="#191970" d="M860.9918,-161.9252C852.1069,-159.5721 842.8301,-157.445 834,-156 751.5563,-142.5086 144.7422,-176.275 83,-120 62.9539,-101.729 62.1631,-68.8798 64.5901,-46.0553"/>
<polygon fill="#191970" stroke="#191970" points="68.07,-46.4379 65.9216,-36.0631 61.1313,-45.5132 68.07,-46.4379"/>
</g>
<!-- Node23 -->
<g id="node24" class="node">
<title>Node23</title>
<polygon fill="#ffffff" stroke="#bfbfbf" points="159.5,-6 159.5,-36 260.5,-36 260.5,-6 159.5,-6"/>
<text text-anchor="start" x="167.5" y="-24" font-family="Helvetica,sans-Serif" font-size="10.00" fill="#000000">tensorflow/compiler</text>
<text text-anchor="middle" x="210" y="-13" font-family="Helvetica,sans-Serif" font-size="10.00" fill="#000000">/xla/types.h</text>
</g>
<!-- Node2&#45;&gt;Node23 -->
<g id="edge42" class="edge">
<title>Node2&#45;&gt;Node23</title>
<path fill="none" stroke="#191970" d="M860.5791,-161.9078C851.8169,-159.5876 842.6894,-157.4766 834,-156 768.376,-144.8486 287.4626,-162.2192 236,-120 214.5329,-102.3886 209.5851,-69.3938 208.9886,-46.3558"/>
<polygon fill="#191970" stroke="#191970" points="212.4886,-46.2583 208.9842,-36.2599 205.4886,-46.2614 212.4886,-46.2583"/>
</g>
<!-- Node26 -->
<g id="node27" class="node">
<title>Node26</title>
<polygon fill="#ffffff" stroke="#bfbfbf" points="280,-6 280,-36 376,-36 376,-6 280,-6"/>
<text text-anchor="start" x="288" y="-24" font-family="Helvetica,sans-Serif" font-size="10.00" fill="#000000">tensorflow/core/lib</text>
<text text-anchor="middle" x="328" y="-13" font-family="Helvetica,sans-Serif" font-size="10.00" fill="#000000">/gtl/array_slice.h</text>
</g>
<!-- Node2&#45;&gt;Node26 -->
<g id="edge43" class="edge">
<title>Node2&#45;&gt;Node26</title>
<path fill="none" stroke="#191970" d="M860.5776,-161.9166C851.8156,-159.5955 842.6885,-157.4819 834,-156 769.6948,-145.0321 292.6907,-167.5205 248,-120 235.2118,-106.402 239.4487,-94.5927 248,-78 255.9577,-62.5592 270.248,-50.3818 284.5718,-41.3155"/>
<polygon fill="#191970" stroke="#191970" points="286.6132,-44.1745 293.4385,-36.0711 283.0495,-38.1495 286.6132,-44.1745"/>
</g>
<!-- Node31 -->
<g id="node32" class="node">
<title>Node31</title>
<polygon fill="#ffffff" stroke="#bfbfbf" points="270.5,-78.5 270.5,-119.5 389.5,-119.5 389.5,-78.5 270.5,-78.5"/>
<text text-anchor="start" x="278.5" y="-107.5" font-family="Helvetica,sans-Serif" font-size="10.00" fill="#000000">tensorflow/compiler</text>
<text text-anchor="start" x="278.5" y="-96.5" font-family="Helvetica,sans-Serif" font-size="10.00" fill="#000000">/xla/service/hlo_module</text>
<text text-anchor="middle" x="330" y="-85.5" font-family="Helvetica,sans-Serif" font-size="10.00" fill="#000000">_config.h</text>
</g>
<!-- Node2&#45;&gt;Node31 -->
<g id="edge39" class="edge">
<title>Node2&#45;&gt;Node31</title>
<path fill="none" stroke="#191970" d="M860.1527,-161.9614C851.5155,-159.6657 842.5411,-157.5493 834,-156 645.9545,-121.8887 590.7814,-155.7074 399.6142,-120.1024"/>
<polygon fill="#191970" stroke="#191970" points="399.996,-116.6123 389.518,-118.1815 398.6876,-123.489 399.996,-116.6123"/>
</g>
<!-- Node32 -->
<g id="node33" class="node">
<title>Node32</title>
<polygon fill="#ffffff" stroke="#bfbfbf" points="407.5,-78.5 407.5,-119.5 524.5,-119.5 524.5,-78.5 407.5,-78.5"/>
<text text-anchor="start" x="415.5" y="-107.5" font-family="Helvetica,sans-Serif" font-size="10.00" fill="#000000">tensorflow/compiler</text>
<text text-anchor="start" x="415.5" y="-96.5" font-family="Helvetica,sans-Serif" font-size="10.00" fill="#000000">/xla/service/versioned</text>
<text text-anchor="middle" x="466" y="-85.5" font-family="Helvetica,sans-Serif" font-size="10.00" fill="#000000">_computation_handle.h</text>
</g>
<!-- Node2&#45;&gt;Node32 -->
<g id="edge41" class="edge">
<title>Node2&#45;&gt;Node32</title>
<path fill="none" stroke="#191970" d="M858.9057,-161.9015C850.6449,-159.6975 842.1184,-157.6269 834,-156 705.1204,-130.1732 666.6034,-147.3804 534.7401,-120.1864"/>
<polygon fill="#191970" stroke="#191970" points="535.1694,-116.7 524.6622,-118.06 533.7242,-123.5492 535.1694,-116.7"/>
</g>
<!-- Node33 -->
<g id="node34" class="node">
<title>Node33</title>
<polygon fill="#ffffff" stroke="#bfbfbf" points="542.5,-84 542.5,-114 643.5,-114 643.5,-84 542.5,-84"/>
<text text-anchor="start" x="550.5" y="-102" font-family="Helvetica,sans-Serif" font-size="10.00" fill="#000000">tensorflow/core/lib</text>
<text text-anchor="middle" x="593" y="-91" font-family="Helvetica,sans-Serif" font-size="10.00" fill="#000000">/gtl/iterator_range.h</text>
</g>
<!-- Node2&#45;&gt;Node33 -->
<g id="edge44" class="edge">
<title>Node2&#45;&gt;Node33</title>
<path fill="none" stroke="#191970" d="M856.7874,-161.8918C849.1738,-159.813 841.4003,-157.783 834,-156 754.2615,-136.7887 732.1247,-141.6009 653,-120 649.7062,-119.1008 646.3322,-118.1122 642.9456,-117.069"/>
<polygon fill="#191970" stroke="#191970" points="644.0149,-113.7365 633.4237,-114.0133 641.8759,-120.4017 644.0149,-113.7365"/>
</g>
<!-- Node34 -->
<g id="node35" class="node">
<title>Node34</title>
<polygon fill="#ffffff" stroke="#bfbfbf" points="662,-84 662,-114 784,-114 784,-84 662,-84"/>
<text text-anchor="start" x="670" y="-102" font-family="Helvetica,sans-Serif" font-size="10.00" fill="#000000">tensorflow/core/platform</text>
<text text-anchor="middle" x="723" y="-91" font-family="Helvetica,sans-Serif" font-size="10.00" fill="#000000">/logging.h</text>
</g>
<!-- Node2&#45;&gt;Node34 -->
<g id="edge45" class="edge">
<title>Node2&#45;&gt;Node34</title>
<path fill="none" stroke="#191970" d="M872.3301,-161.9608C842.7372,-149.4838 800.474,-131.6647 768.4574,-118.1658"/>
<polygon fill="#191970" stroke="#191970" points="769.4498,-114.7859 758.8755,-114.1259 766.7302,-121.236 769.4498,-114.7859"/>
</g>
<!-- Node35 -->
<g id="node36" class="node">
<title>Node35</title>
<polygon fill="#ffffff" stroke="#bfbfbf" points="802,-84 802,-114 924,-114 924,-84 802,-84"/>
<text text-anchor="start" x="810" y="-102" font-family="Helvetica,sans-Serif" font-size="10.00" fill="#000000">tensorflow/core/platform</text>
<text text-anchor="middle" x="863" y="-91" font-family="Helvetica,sans-Serif" font-size="10.00" fill="#000000">/mutex.h</text>
</g>
<!-- Node2&#45;&gt;Node35 -->
<g id="edge46" class="edge">
<title>Node2&#45;&gt;Node35</title>
<path fill="none" stroke="#191970" d="M899.3235,-161.9608C892.9525,-150.9177 884.1672,-135.6899 876.8325,-122.9764"/>
<polygon fill="#191970" stroke="#191970" points="879.8323,-121.172 871.8034,-114.2592 873.769,-124.6701 879.8323,-121.172"/>
</g>
<!-- Node12&#45;&gt;Node4 -->
<g id="edge13" class="edge">
<title>Node12&#45;&gt;Node4</title>
<path fill="none" stroke="#191970" d="M1237.3057,-92.9316C1182.2305,-88.5408 1105.4711,-82.596 1038,-78 903.8504,-68.8621 558.4055,-93.0184 434,-42 431.2146,-40.8577 428.5297,-39.2533 426.0283,-37.4345"/>
<polygon fill="#191970" stroke="#191970" points="428.2018,-34.6867 418.3512,-30.7859 423.6191,-39.9782 428.2018,-34.6867"/>
</g>
<!-- Node12&#45;&gt;Node5 -->
<g id="edge14" class="edge">
<title>Node12&#45;&gt;Node5</title>
<path fill="none" stroke="#191970" d="M1237.2947,-93.0884C1182.2141,-88.7751 1105.4527,-82.8584 1038,-78 919.3713,-69.4555 617.4872,-77.5871 504,-42 499.3873,-40.5536 494.7476,-38.3868 490.4229,-35.9863"/>
<polygon fill="#191970" stroke="#191970" points="491.9412,-32.8109 481.5911,-30.5469 488.2703,-38.7712 491.9412,-32.8109"/>
</g>
<!-- Node12&#45;&gt;Node7 -->
<g id="edge15" class="edge">
<title>Node12&#45;&gt;Node7</title>
<path fill="none" stroke="#191970" d="M1237.4332,-92.1531C1190.068,-87.8837 1127.4552,-82.3869 1072,-78 958.9595,-69.0576 669.5703,-80.7414 563,-42 559.3377,-40.6687 555.7301,-38.7301 552.37,-36.5616"/>
<polygon fill="#191970" stroke="#191970" points="554.3158,-33.648 544.1861,-30.5433 550.1687,-39.2873 554.3158,-33.648"/>
</g>
<!-- Node12&#45;&gt;Node8 -->
<g id="edge16" class="edge">
<title>Node12&#45;&gt;Node8</title>
<path fill="none" stroke="#191970" d="M1237.2147,-90.8135C1199.1485,-86.7512 1152.1306,-81.8936 1110,-78 912.4181,-59.74 857.9393,-88.3299 665,-42 657.5747,-40.217 649.8263,-37.5069 642.6767,-34.6204"/>
<polygon fill="#191970" stroke="#191970" points="643.9557,-31.3607 633.3851,-30.6453 641.2024,-37.7965 643.9557,-31.3607"/>
</g>
<!-- Node12&#45;&gt;Node9 -->
<g id="edge19" class="edge">
<title>Node12&#45;&gt;Node9</title>
<path fill="none" stroke="#191970" d="M1237.3758,-88.7718C1209.3758,-85.1112 1177.2561,-81.1226 1148,-78 961.2666,-58.0696 904.0213,-104.69 727,-42 723.1128,-40.6234 719.2485,-38.6395 715.6344,-36.4338"/>
<polygon fill="#191970" stroke="#191970" points="717.522,-33.4843 707.2958,-30.7137 713.5622,-39.2567 717.522,-33.4843"/>
</g>
<!-- Node12&#45;&gt;Node10 -->
<g id="edge20" class="edge">
<title>Node12&#45;&gt;Node10</title>
<path fill="none" stroke="#191970" d="M1237.4899,-85.8297C1220.5892,-83.0519 1202.6999,-80.2763 1186,-78 1035.8744,-57.5366 994.821,-75.2476 847,-42 843.3391,-41.1766 839.5923,-40.2015 835.847,-39.1295"/>
<polygon fill="#191970" stroke="#191970" points="836.5833,-35.6943 825.9963,-36.1033 834.5276,-42.3857 836.5833,-35.6943"/>
</g>
<!-- Node12&#45;&gt;Node11 -->
<g id="edge24" class="edge">
<title>Node12&#45;&gt;Node11</title>
<path fill="none" stroke="#191970" d="M1252.0434,-83.8969C1242.6874,-81.7705 1233.105,-79.7251 1224,-78 1111.5436,-56.6926 1080.2872,-68.7509 969,-42 965.4131,-41.1378 961.7394,-40.1498 958.0606,-39.0827"/>
<polygon fill="#191970" stroke="#191970" points="958.9538,-35.6957 948.3669,-36.1052 956.8984,-42.3872 958.9538,-35.6957"/>
</g>
<!-- Node13 -->
<g id="node14" class="node">
<title>Node13</title>
<polygon fill="#ffffff" stroke="#bfbfbf" points="2002,-11.5 2002,-30.5 2080,-30.5 2080,-11.5 2002,-11.5"/>
<text text-anchor="middle" x="2041" y="-18.5" font-family="Helvetica,sans-Serif" font-size="10.00" fill="#000000">unordered_set</text>
</g>
<!-- Node12&#45;&gt;Node13 -->
<g id="edge17" class="edge">
<title>Node12&#45;&gt;Node13</title>
<path fill="none" stroke="#191970" d="M1386.6589,-95.8434C1538.8095,-88.9047 1879.9269,-70.6265 1993,-42 1999.8723,-40.2601 2007.0091,-37.6333 2013.6124,-34.8207"/>
<polygon fill="#191970" stroke="#191970" points="2015.1503,-37.9664 2022.8122,-30.6488 2012.2593,-31.5913 2015.1503,-37.9664"/>
</g>
<!-- Node14 -->
<g id="node15" class="node">
<title>Node14</title>
<polygon fill="#ffffff" stroke="#bfbfbf" points="2098,-11.5 2098,-30.5 2138,-30.5 2138,-11.5 2098,-11.5"/>
<text text-anchor="middle" x="2118" y="-18.5" font-family="Helvetica,sans-Serif" font-size="10.00" fill="#000000">utility</text>
</g>
<!-- Node12&#45;&gt;Node14 -->
<g id="edge18" class="edge">
<title>Node12&#45;&gt;Node14</title>
<path fill="none" stroke="#191970" d="M1386.7972,-95.8425C1568.7148,-87.8316 2024.1604,-65.6672 2089,-42 2092.6605,-40.6639 2096.2672,-38.7229 2099.627,-36.5534"/>
<polygon fill="#191970" stroke="#191970" points="2101.8281,-39.2793 2107.811,-30.5354 2097.6812,-33.6398 2101.8281,-39.2793"/>
</g>
<!-- Node15 -->
<g id="node16" class="node">
<title>Node15</title>
<polygon fill="#ffffff" stroke="#bfbfbf" points="2156.5,-6 2156.5,-36 2257.5,-36 2257.5,-6 2156.5,-6"/>
<text text-anchor="start" x="2164.5" y="-24" font-family="Helvetica,sans-Serif" font-size="10.00" fill="#000000">tensorflow/compiler</text>
<text text-anchor="middle" x="2207" y="-13" font-family="Helvetica,sans-Serif" font-size="10.00" fill="#000000">/xla/map_util.h</text>
</g>
<!-- Node12&#45;&gt;Node15 -->
<g id="edge21" class="edge">
<title>Node12&#45;&gt;Node15</title>
<path fill="none" stroke="#191970" d="M1386.6251,-96.4711C1563.2167,-90.0727 2002.7068,-71.6128 2147,-42 2151.0744,-41.1638 2155.2495,-40.1187 2159.4074,-38.9443"/>
<polygon fill="#191970" stroke="#191970" points="2160.4813,-42.276 2169.0223,-36.0069 2158.436,-35.5814 2160.4813,-42.276"/>
</g>
<!-- Node16 -->
<g id="node17" class="node">
<title>Node16</title>
<polygon fill="#ffffff" stroke="#bfbfbf" points="2275.5,-.5 2275.5,-41.5 2376.5,-41.5 2376.5,-.5 2275.5,-.5"/>
<text text-anchor="start" x="2283.5" y="-29.5" font-family="Helvetica,sans-Serif" font-size="10.00" fill="#000000">tensorflow/compiler</text>
<text text-anchor="start" x="2283.5" y="-18.5" font-family="Helvetica,sans-Serif" font-size="10.00" fill="#000000">/xla/service/dfs_hlo</text>
<text text-anchor="middle" x="2326" y="-7.5" font-family="Helvetica,sans-Serif" font-size="10.00" fill="#000000">_visitor.h</text>
</g>
<!-- Node12&#45;&gt;Node16 -->
<g id="edge22" class="edge">
<title>Node12&#45;&gt;Node16</title>
<path fill="none" stroke="#191970" d="M1386.8125,-97.258C1577.7388,-92.3847 2080.451,-76.7596 2265.5213,-41.9688"/>
<polygon fill="#191970" stroke="#191970" points="2266.2708,-45.3885 2275.4101,-40.0289 2264.9233,-38.5195 2266.2708,-45.3885"/>
</g>
<!-- Node17 -->
<g id="node18" class="node">
<title>Node17</title>
<polygon fill="#ffffff" stroke="#bfbfbf" points="2395,-.5 2395,-41.5 2509,-41.5 2509,-.5 2395,-.5"/>
<text text-anchor="start" x="2403" y="-29.5" font-family="Helvetica,sans-Serif" font-size="10.00" fill="#000000">tensorflow/compiler</text>
<text text-anchor="start" x="2403" y="-18.5" font-family="Helvetica,sans-Serif" font-size="10.00" fill="#000000">/xla/service/dfs_hlo</text>
<text text-anchor="middle" x="2452" y="-7.5" font-family="Helvetica,sans-Serif" font-size="10.00" fill="#000000">_visitor_with_default.h</text>
</g>
<!-- Node12&#45;&gt;Node17 -->
<g id="edge23" class="edge">
<title>Node12&#45;&gt;Node17</title>
<path fill="none" stroke="#191970" d="M1386.7639,-97.5093C1594.1455,-92.9872 2174.5915,-77.6057 2384.9545,-41.8909"/>
<polygon fill="#191970" stroke="#191970" points="2385.7495,-45.3048 2394.9889,-40.1198 2384.5327,-38.4114 2385.7495,-45.3048"/>
</g>
<!-- Node12&#45;&gt;Node18 -->
<g id="edge25" class="edge">
<title>Node12&#45;&gt;Node18</title>
<path fill="none" stroke="#191970" d="M1386.7521,-96.3794C1632.5918,-87.6341 2406.6985,-59.0457 2518,-42 2524.2409,-41.0442 2530.6979,-39.7973 2537.1128,-38.3874"/>
<polygon fill="#191970" stroke="#191970" points="2538.1761,-41.7335 2547.1214,-36.0561 2536.588,-34.916 2538.1761,-41.7335"/>
</g>
<!-- Node19 -->
<g id="node20" class="node">
<title>Node19</title>
<polygon fill="#ffffff" stroke="#bfbfbf" points="978.5,-6 978.5,-36 1123.5,-36 1123.5,-6 978.5,-6"/>
<text text-anchor="start" x="986.5" y="-24" font-family="Helvetica,sans-Serif" font-size="10.00" fill="#000000">tensorflow/compiler</text>
<text text-anchor="middle" x="1051" y="-13" font-family="Helvetica,sans-Serif" font-size="10.00" fill="#000000">/xla/service/hlo_reachability.h</text>
</g>
<!-- Node12&#45;&gt;Node19 -->
<g id="edge26" class="edge">
<title>Node12&#45;&gt;Node19</title>
<path fill="none" stroke="#191970" d="M1261.6766,-83.9608C1218.7568,-71.1342 1156.9461,-52.6621 1111.3699,-39.0416"/>
<polygon fill="#191970" stroke="#191970" points="1112.197,-35.6359 1101.6135,-36.1259 1110.1926,-42.3428 1112.197,-35.6359"/>
</g>
<!-- Node12&#45;&gt;Node20 -->
<g id="edge27" class="edge">
<title>Node12&#45;&gt;Node20</title>
<path fill="none" stroke="#191970" d="M1237.33,-92.5482C1182.2667,-87.9681 1105.5117,-81.9543 1038,-78 643.685,-54.904 540.7253,-99.8924 150,-42 143.6815,-41.0638 137.1439,-39.8297 130.6491,-38.4277"/>
<polygon fill="#191970" stroke="#191970" points="131.0448,-34.9277 120.5155,-36.1049 129.4808,-41.7507 131.0448,-34.9277"/>
</g>
<!-- Node21 -->
<g id="node22" class="node">
<title>Node21</title>
<polygon fill="#ffffff" stroke="#bfbfbf" points="1141.5,-6 1141.5,-36 1242.5,-36 1242.5,-6 1141.5,-6"/>
<text text-anchor="start" x="1149.5" y="-24" font-family="Helvetica,sans-Serif" font-size="10.00" fill="#000000">tensorflow/compiler</text>
<text text-anchor="middle" x="1192" y="-13" font-family="Helvetica,sans-Serif" font-size="10.00" fill="#000000">/xla/shape_tree.h</text>
</g>
<!-- Node12&#45;&gt;Node21 -->
<g id="edge28" class="edge">
<title>Node12&#45;&gt;Node21</title>
<path fill="none" stroke="#191970" d="M1288.8628,-83.9608C1270.4713,-72.0064 1244.5354,-55.148 1224.1292,-41.884"/>
<polygon fill="#191970" stroke="#191970" points="1225.7675,-38.7745 1215.4756,-36.2592 1221.9526,-44.6436 1225.7675,-38.7745"/>
</g>
<!-- Node22 -->
<g id="node23" class="node">
<title>Node22</title>
<polygon fill="#ffffff" stroke="#bfbfbf" points="1260.5,-6 1260.5,-36 1361.5,-36 1361.5,-6 1260.5,-6"/>
<text text-anchor="start" x="1268.5" y="-24" font-family="Helvetica,sans-Serif" font-size="10.00" fill="#000000">tensorflow/compiler</text>
<text text-anchor="middle" x="1311" y="-13" font-family="Helvetica,sans-Serif" font-size="10.00" fill="#000000">/xla/statusor.h</text>
</g>
<!-- Node12&#45;&gt;Node22 -->
<g id="edge29" class="edge">
<title>Node12&#45;&gt;Node22</title>
<path fill="none" stroke="#191970" d="M1311.8072,-83.9608C1311.6711,-73.3466 1311.4855,-58.8663 1311.3265,-46.4685"/>
<polygon fill="#191970" stroke="#191970" points="1314.8236,-46.2134 1311.1956,-36.2592 1307.8242,-46.3032 1314.8236,-46.2134"/>
</g>
<!-- Node12&#45;&gt;Node23 -->
<g id="edge30" class="edge">
<title>Node12&#45;&gt;Node23</title>
<path fill="none" stroke="#191970" d="M1237.3223,-92.6769C1182.2552,-88.1604 1105.4988,-82.1698 1038,-78 697.3851,-56.9583 606.1725,-106.192 271,-42 266.7924,-41.1942 262.4803,-40.1603 258.1889,-38.9846"/>
<polygon fill="#191970" stroke="#191970" points="258.8555,-35.531 248.2722,-36.0242 256.8532,-42.2385 258.8555,-35.531"/>
</g>
<!-- Node12&#45;&gt;Node24 -->
<g id="edge31" class="edge">
<title>Node12&#45;&gt;Node24</title>
<path fill="none" stroke="#191970" d="M1386.7965,-97.1898C1653.8639,-90.5458 2551.3033,-66.6064 2678,-42 2682.0825,-41.2071 2686.2621,-40.1824 2690.4188,-39.0127"/>
<polygon fill="#191970" stroke="#191970" points="2691.4893,-42.3454 2700.0194,-36.0615 2689.4324,-35.6544 2691.4893,-42.3454"/>
</g>
<!-- Node25 -->
<g id="node26" class="node">
<title>Node25</title>
<polygon fill="#ffffff" stroke="#bfbfbf" points="1380,-6 1380,-36 1476,-36 1476,-6 1380,-6"/>
<text text-anchor="start" x="1388" y="-24" font-family="Helvetica,sans-Serif" font-size="10.00" fill="#000000">tensorflow/core/lib</text>
<text text-anchor="middle" x="1428" y="-13" font-family="Helvetica,sans-Serif" font-size="10.00" fill="#000000">/core/status.h</text>
</g>
<!-- Node12&#45;&gt;Node25 -->
<g id="edge32" class="edge">
<title>Node12&#45;&gt;Node25</title>
<path fill="none" stroke="#191970" d="M1334.366,-83.9608C1352.1444,-72.0064 1377.2158,-55.148 1396.9417,-41.884"/>
<polygon fill="#191970" stroke="#191970" points="1398.9615,-44.7436 1405.3069,-36.2592 1395.0554,-38.9347 1398.9615,-44.7436"/>
</g>
<!-- Node12&#45;&gt;Node26 -->
<g id="edge33" class="edge">
<title>Node12&#45;&gt;Node26</title>
<path fill="none" stroke="#191970" d="M1237.3116,-92.8434C1182.2393,-88.4091 1105.481,-82.4484 1038,-78 748.4094,-58.9099 670.3605,-100.0195 386,-42 382.1553,-41.2155 378.223,-40.2255 374.307,-39.1047"/>
<polygon fill="#191970" stroke="#191970" points="375.2541,-35.7338 364.6653,-36.0921 373.1664,-42.4152 375.2541,-35.7338"/>
</g>
<!-- Node27 -->
<g id="node28" class="node">
<title>Node27</title>
<polygon fill="#ffffff" stroke="#bfbfbf" points="1494,-6 1494,-36 1590,-36 1590,-6 1494,-6"/>
<text text-anchor="start" x="1502" y="-24" font-family="Helvetica,sans-Serif" font-size="10.00" fill="#000000">tensorflow/core/lib</text>
<text text-anchor="middle" x="1542" y="-13" font-family="Helvetica,sans-Serif" font-size="10.00" fill="#000000">/gtl/flatmap.h</text>
</g>
<!-- Node12&#45;&gt;Node27 -->
<g id="edge34" class="edge">
<title>Node12&#45;&gt;Node27</title>
<path fill="none" stroke="#191970" d="M1359.1416,-83.9559C1394.0101,-72.7101 1442.601,-56.7902 1485,-42 1487.2685,-41.2087 1489.5846,-40.3919 1491.9219,-39.5605"/>
<polygon fill="#191970" stroke="#191970" points="1493.3561,-42.7643 1501.5823,-36.0875 1490.9879,-36.177 1493.3561,-42.7643"/>
</g>
<!-- Node28 -->
<g id="node29" class="node">
<title>Node28</title>
<polygon fill="#ffffff" stroke="#bfbfbf" points="1608,-6 1608,-36 1704,-36 1704,-6 1608,-6"/>
<text text-anchor="start" x="1616" y="-24" font-family="Helvetica,sans-Serif" font-size="10.00" fill="#000000">tensorflow/core/lib</text>
<text text-anchor="middle" x="1656" y="-13" font-family="Helvetica,sans-Serif" font-size="10.00" fill="#000000">/gtl/flatset.h</text>
</g>
<!-- Node12&#45;&gt;Node28 -->
<g id="edge35" class="edge">
<title>Node12&#45;&gt;Node28</title>
<path fill="none" stroke="#191970" d="M1386.7896,-87.4573C1445.1561,-77.6565 1527.9766,-62.0026 1599,-42 1601.9502,-41.1691 1604.9651,-40.2563 1607.9921,-39.2907"/>
<polygon fill="#191970" stroke="#191970" points="1609.2639,-42.556 1617.6364,-36.0635 1607.0425,-35.9178 1609.2639,-42.556"/>
</g>
<!-- Node29 -->
<g id="node30" class="node">
<title>Node29</title>
<polygon fill="#ffffff" stroke="#bfbfbf" points="1722,-6 1722,-36 1844,-36 1844,-6 1722,-6"/>
<text text-anchor="start" x="1730" y="-24" font-family="Helvetica,sans-Serif" font-size="10.00" fill="#000000">tensorflow/core/platform</text>
<text text-anchor="middle" x="1783" y="-13" font-family="Helvetica,sans-Serif" font-size="10.00" fill="#000000">/macros.h</text>
</g>
<!-- Node12&#45;&gt;Node29 -->
<g id="edge36" class="edge">
<title>Node12&#45;&gt;Node29</title>
<path fill="none" stroke="#191970" d="M1386.5044,-91.797C1467.4742,-83.1841 1600.3666,-66.7531 1713,-42 1717.3702,-41.0396 1721.8647,-39.9453 1726.3663,-38.7721"/>
<polygon fill="#191970" stroke="#191970" points="1727.4572,-42.1027 1736.1872,-36.0995 1725.619,-35.3483 1727.4572,-42.1027"/>
</g>
<!-- Node30 -->
<g id="node31" class="node">
<title>Node30</title>
<polygon fill="#ffffff" stroke="#bfbfbf" points="1862,-6 1862,-36 1984,-36 1984,-6 1862,-6"/>
<text text-anchor="start" x="1870" y="-24" font-family="Helvetica,sans-Serif" font-size="10.00" fill="#000000">tensorflow/core/platform</text>
<text text-anchor="middle" x="1923" y="-13" font-family="Helvetica,sans-Serif" font-size="10.00" fill="#000000">/types.h</text>
</g>
<!-- Node12&#45;&gt;Node30 -->
<g id="edge37" class="edge">
<title>Node12&#45;&gt;Node30</title>
<path fill="none" stroke="#191970" d="M1386.6055,-95.5448C1491.5664,-89.6888 1688.4137,-75.0575 1853,-42 1857.727,-41.0506 1862.593,-39.9203 1867.4526,-38.6838"/>
<polygon fill="#191970" stroke="#191970" points="1868.6218,-41.9939 1877.3721,-36.0204 1866.8065,-35.2334 1868.6218,-41.9939"/>
</g>
</g>
</svg>
        <g id="navigator" transform="translate(0 0)" fill="#404254">
                <rect fill="#f2f5e9" fill-opacity="0.5" stroke="#606060" stroke-width=".5" x="0" y="0" width="60" height="60"/>
                <use id="zoomplus" xlink:href="#zoomPlus" x="17" y="9" onmousedown="handleZoom(evt,'in')"/>
                <use id="zoomminus" xlink:href="#zoomMin" x="42" y="9" onmousedown="handleZoom(evt,'out')"/>
                <use id="reset" xlink:href="#resetDef" x="30" y="36" onmousedown="handleReset()"/>
                <g id="arrowUp" xlink:href="#dirArrow" transform="translate(30 24)" onmousedown="handlePan(0,-1)">
                  <use xlink:href="#rim" fill="#404040">
                        <set attributeName="fill" to="#808080" begin="arrowUp.mouseover" end="arrowUp.mouseout"/>
                  </use>
                  <path fill="none" stroke="white" stroke-width="1.5" d="M0,-3.0v7 M-2.5,-0.5L0,-3.0L2.5,-0.5"/>
                </g>
                <g id="arrowRight" xlink:href="#dirArrow" transform="rotate(90) translate(36 -43)" onmousedown="handlePan(1,0)">
                  <use xlink:href="#rim" fill="#404040">
                        <set attributeName="fill" to="#808080" begin="arrowRight.mouseover" end="arrowRight.mouseout"/>
                  </use>
                  <path fill="none" stroke="white" stroke-width="1.5" d="M0,-3.0v7 M-2.5,-0.5L0,-3.0L2.5,-0.5"/>
                </g>
                <g id="arrowDown" xlink:href="#dirArrow" transform="rotate(180) translate(-30 -48)" onmousedown="handlePan(0,1)">
                  <use xlink:href="#rim" fill="#404040">
                        <set attributeName="fill" to="#808080" begin="arrowDown.mouseover" end="arrowDown.mouseout"/>
                  </use>
                  <path fill="none" stroke="white" stroke-width="1.5" d="M0,-3.0v7 M-2.5,-0.5L0,-3.0L2.5,-0.5"/>
                </g>
                <g id="arrowLeft" xlink:href="#dirArrow" transform="rotate(270) translate(-36 17)" onmousedown="handlePan(-1,0)">
                  <use xlink:href="#rim" fill="#404040">
                        <set attributeName="fill" to="#808080" begin="arrowLeft.mouseover" end="arrowLeft.mouseout"/>
                  </use>
                  <path fill="none" stroke="white" stroke-width="1.5" d="M0,-3.0v7 M-2.5,-0.5L0,-3.0L2.5,-0.5"/>
                </g>
        </g>
        <svg viewBox="0 0 15 15" width="100%" height="30px" preserveAspectRatio="xMaxYMin meet">
         <g id="arrow_out" transform="scale(0.3 0.3)">
          <a xlink:href="conv__canonicalization_8cc__incl_org.svg" target="_base">
           <rect id="button" ry="5" rx="5" y="6" x="6" height="38" width="38"
                fill="#f2f5e9" fill-opacity="0.5" stroke="#606060" stroke-width="1.0"/>
           <path id="arrow"
             d="M 11.500037,31.436501 C 11.940474,20.09759 22.043105,11.32322 32.158766,21.979434 L 37.068811,17.246167 C 37.068811,17.246167 37.088388,32 37.088388,32 L 22.160133,31.978069 C 22.160133,31.978069 26.997745,27.140456 26.997745,27.140456 C 18.528582,18.264221 13.291696,25.230495 11.500037,31.436501 z"
             style="fill:#404040;"/>
          </a>
         </g>
        </svg>
</svg>
