<?xml version="1.0" encoding="UTF-8" standalone="no"?>
<!DOCTYPE svg PUBLIC "-//W3C//DTD SVG 1.1//EN"
 "http://www.w3.org/Graphics/SVG/1.1/DTD/svg11.dtd">
<!-- Generated by graphviz version 2.40.1 (20161225.0304)
 -->
<!-- Title: tensorflow/tensorflow/compiler/xla/service/cpu/disassembler.h Pages: 1 -->
<svg width="1663pt" height="117pt"
 viewBox="0.00 0.00 1663.50 117.00" xmlns="http://www.w3.org/2000/svg" xmlns:xlink="http://www.w3.org/1999/xlink">
<g id="graph0" class="graph" transform="scale(1 1) rotate(0) translate(4 113)">
<title>tensorflow/tensorflow/compiler/xla/service/cpu/disassembler.h</title>
<polygon fill="#ffffff" stroke="transparent" points="-4,4 -4,-113 1659.5,-113 1659.5,4 -4,4"/>
<!-- Node0 -->
<g id="node1" class="node">
<title>Node0</title>
<polygon fill="#bfbfbf" stroke="#000000" points="684,-67.5 684,-108.5 806,-108.5 806,-67.5 684,-67.5"/>
<text text-anchor="start" x="692" y="-96.5" font-family="Helvetica,sans-Serif" font-size="10.00" fill="#000000">tensorflow/tensorflow</text>
<text text-anchor="start" x="692" y="-85.5" font-family="Helvetica,sans-Serif" font-size="10.00" fill="#000000">/compiler/xla/service</text>
<text text-anchor="middle" x="745" y="-74.5" font-family="Helvetica,sans-Serif" font-size="10.00" fill="#000000">/cpu/disassembler.h</text>
</g>
<!-- Node1 -->
<g id="node2" class="node">
<title>Node1</title>
<polygon fill="#ffffff" stroke="#bfbfbf" points="0,-6 0,-25 58,-25 58,-6 0,-6"/>
<text text-anchor="middle" x="29" y="-13" font-family="Helvetica,sans-Serif" font-size="10.00" fill="#000000">memory</text>
</g>
<!-- Node0&#45;&gt;Node1 -->
<g id="edge1" class="edge">
<title>Node0&#45;&gt;Node1</title>
<path fill="none" stroke="#191970" d="M683.7803,-85.2298C539.8368,-78.3332 183.2966,-58.9159 67,-31 64.2071,-30.3296 61.3515,-29.486 58.5222,-28.5403"/>
<polygon fill="#191970" stroke="#191970" points="59.7262,-25.2539 49.1336,-25.0355 57.2781,-31.8118 59.7262,-25.2539"/>
</g>
<!-- Node2 -->
<g id="node3" class="node">
<title>Node2</title>
<polygon fill="#ffffff" stroke="#bfbfbf" points="76,-6 76,-25 120,-25 120,-6 76,-6"/>
<text text-anchor="middle" x="98" y="-13" font-family="Helvetica,sans-Serif" font-size="10.00" fill="#000000">string</text>
</g>
<!-- Node0&#45;&gt;Node2 -->
<g id="edge2" class="edge">
<title>Node0&#45;&gt;Node2</title>
<path fill="none" stroke="#191970" d="M683.7886,-85.2166C549.3667,-78.6377 232.1499,-60.4334 129,-31 127.2894,-30.5119 125.5606,-29.9298 123.8404,-29.282"/>
<polygon fill="#191970" stroke="#191970" points="124.8331,-25.894 114.272,-25.0491 122.0011,-32.2956 124.8331,-25.894"/>
</g>
<!-- Node3 -->
<g id="node4" class="node">
<title>Node3</title>
<polygon fill="#ffffff" stroke="#bfbfbf" points="138,-6 138,-25 260,-25 260,-6 138,-6"/>
<text text-anchor="middle" x="199" y="-13" font-family="Helvetica,sans-Serif" font-size="10.00" fill="#000000">llvm/MC/MCContext.h</text>
</g>
<!-- Node0&#45;&gt;Node3 -->
<g id="edge3" class="edge">
<title>Node0&#45;&gt;Node3</title>
<path fill="none" stroke="#191970" d="M683.8595,-82.6268C592.9922,-74.2013 417.1001,-56.2008 269,-31 262.4045,-29.8777 255.4927,-28.5434 248.6882,-27.1356"/>
<polygon fill="#191970" stroke="#191970" points="249.3551,-23.6991 238.845,-25.0365 247.8951,-30.5452 249.3551,-23.6991"/>
</g>
<!-- Node4 -->
<g id="node5" class="node">
<title>Node4</title>
<polygon fill="#ffffff" stroke="#bfbfbf" points="278.5,-.5 278.5,-30.5 419.5,-30.5 419.5,-.5 278.5,-.5"/>
<text text-anchor="start" x="286.5" y="-18.5" font-family="Helvetica,sans-Serif" font-size="10.00" fill="#000000">llvm/MC/MCDisassembler</text>
<text text-anchor="middle" x="349" y="-7.5" font-family="Helvetica,sans-Serif" font-size="10.00" fill="#000000">/MCDisassembler.h</text>
</g>
<!-- Node0&#45;&gt;Node4 -->
<g id="edge4" class="edge">
<title>Node0&#45;&gt;Node4</title>
<path fill="none" stroke="#191970" d="M683.8806,-77.3059C622.1866,-66.4443 523.8921,-48.9567 429.6167,-31.2902"/>
<polygon fill="#191970" stroke="#191970" points="430.0987,-27.8196 419.6246,-29.4142 428.807,-34.6994 430.0987,-27.8196"/>
</g>
<!-- Node5 -->
<g id="node6" class="node">
<title>Node5</title>
<polygon fill="#ffffff" stroke="#bfbfbf" points="437.5,-6 437.5,-25 570.5,-25 570.5,-6 437.5,-6"/>
<text text-anchor="middle" x="504" y="-13" font-family="Helvetica,sans-Serif" font-size="10.00" fill="#000000">llvm/MC/MCInstPrinter.h</text>
</g>
<!-- Node0&#45;&gt;Node5 -->
<g id="edge5" class="edge">
<title>Node0&#45;&gt;Node5</title>
<path fill="none" stroke="#191970" d="M683.874,-69.6115C640.6061,-56.5952 583.7224,-39.4829 545.6149,-28.019"/>
<polygon fill="#191970" stroke="#191970" points="546.4561,-24.6172 535.8718,-25.088 544.4395,-31.3204 546.4561,-24.6172"/>
</g>
<!-- Node6 -->
<g id="node7" class="node">
<title>Node6</title>
<polygon fill="#ffffff" stroke="#bfbfbf" points="589,-6 589,-25 735,-25 735,-6 589,-6"/>
<text text-anchor="middle" x="662" y="-13" font-family="Helvetica,sans-Serif" font-size="10.00" fill="#000000">llvm/MC/MCInstrAnalysis.h</text>
</g>
<!-- Node0&#45;&gt;Node6 -->
<g id="edge6" class="edge">
<title>Node0&#45;&gt;Node6</title>
<path fill="none" stroke="#191970" d="M721.4375,-67.4183C708.5093,-56.1256 692.7052,-42.3208 680.6442,-31.7856"/>
<polygon fill="#191970" stroke="#191970" points="682.8075,-29.028 672.9736,-25.0853 678.2025,-34.3 682.8075,-29.028"/>
</g>
<!-- Node7 -->
<g id="node8" class="node">
<title>Node7</title>
<polygon fill="#ffffff" stroke="#bfbfbf" points="753,-6 753,-25 903,-25 903,-6 753,-6"/>
<text text-anchor="middle" x="828" y="-13" font-family="Helvetica,sans-Serif" font-size="10.00" fill="#000000">llvm/MC/MCObjectFileInfo.h</text>
</g>
<!-- Node0&#45;&gt;Node7 -->
<g id="edge7" class="edge">
<title>Node0&#45;&gt;Node7</title>
<path fill="none" stroke="#191970" d="M768.5625,-67.4183C781.4907,-56.1256 797.2948,-42.3208 809.3558,-31.7856"/>
<polygon fill="#191970" stroke="#191970" points="811.7975,-34.3 817.0264,-25.0853 807.1925,-29.028 811.7975,-34.3"/>
</g>
<!-- Node8 -->
<g id="node9" class="node">
<title>Node8</title>
<polygon fill="#ffffff" stroke="#bfbfbf" points="920.5,-6 920.5,-25 1069.5,-25 1069.5,-6 920.5,-6"/>
<text text-anchor="middle" x="995" y="-13" font-family="Helvetica,sans-Serif" font-size="10.00" fill="#000000">llvm/MC/MCSubtargetInfo.h</text>
</g>
<!-- Node0&#45;&gt;Node8 -->
<g id="edge8" class="edge">
<title>Node0&#45;&gt;Node8</title>
<path fill="none" stroke="#191970" d="M806.1569,-70.2645C851.4658,-57.1249 912.0724,-39.549 952.2663,-27.8928"/>
<polygon fill="#191970" stroke="#191970" points="953.3941,-31.21 962.0236,-25.0632 951.4444,-24.487 953.3941,-31.21"/>
</g>
<!-- Node9 -->
<g id="node10" class="node">
<title>Node9</title>
<polygon fill="#ffffff" stroke="#bfbfbf" points="1087.5,-6 1087.5,-25 1220.5,-25 1220.5,-6 1087.5,-6"/>
<text text-anchor="middle" x="1154" y="-13" font-family="Helvetica,sans-Serif" font-size="10.00" fill="#000000">llvm/Object/ObjectFile.h</text>
</g>
<!-- Node0&#45;&gt;Node9 -->
<g id="edge9" class="edge">
<title>Node0&#45;&gt;Node9</title>
<path fill="none" stroke="#191970" d="M806.0612,-78.2333C873.1149,-67.3559 983.9102,-48.9343 1079,-31 1085.5839,-29.7583 1092.4817,-28.4048 1099.3148,-27.0317"/>
<polygon fill="#191970" stroke="#191970" points="1100.1325,-30.4372 1109.2358,-25.0167 1098.7392,-23.5773 1100.1325,-30.4372"/>
</g>
<!-- Node10 -->
<g id="node11" class="node">
<title>Node10</title>
<polygon fill="#ffffff" stroke="#bfbfbf" points="1239,-6 1239,-25 1393,-25 1393,-6 1239,-6"/>
<text text-anchor="middle" x="1316" y="-13" font-family="Helvetica,sans-Serif" font-size="10.00" fill="#000000">llvm/Target/TargetMachine.h</text>
</g>
<!-- Node0&#45;&gt;Node10 -->
<g id="edge10" class="edge">
<title>Node0&#45;&gt;Node10</title>
<path fill="none" stroke="#191970" d="M806.0276,-82.041C898.1199,-72.7748 1078.0066,-53.6069 1230,-31 1238.4128,-29.7487 1247.2653,-28.3021 1255.9614,-26.8058"/>
<polygon fill="#191970" stroke="#191970" points="1256.817,-30.2093 1266.0624,-25.0351 1255.6083,-23.3144 1256.817,-30.2093"/>
</g>
<!-- Node11 -->
<g id="node12" class="node">
<title>Node11</title>
<polygon fill="#ffffff" stroke="#bfbfbf" points="1411.5,-.5 1411.5,-30.5 1524.5,-30.5 1524.5,-.5 1411.5,-.5"/>
<text text-anchor="start" x="1419.5" y="-18.5" font-family="Helvetica,sans-Serif" font-size="10.00" fill="#000000">tensorflow/compiler</text>
<text text-anchor="middle" x="1468" y="-7.5" font-family="Helvetica,sans-Serif" font-size="10.00" fill="#000000">/xla/statusor.h</text>
</g>
<!-- Node0&#45;&gt;Node11 -->
<g id="edge11" class="edge">
<title>Node0&#45;&gt;Node11</title>
<path fill="none" stroke="#191970" d="M806.0461,-85.6438C920.8393,-80.5738 1176.7317,-66.2377 1401.2306,-30.9692"/>
<polygon fill="#191970" stroke="#191970" points="1401.8944,-34.4078 1411.2216,-29.3824 1400.7963,-27.4944 1401.8944,-34.4078"/>
</g>
<!-- Node12 -->
<g id="node13" class="node">
<title>Node12</title>
<polygon fill="#ffffff" stroke="#bfbfbf" points="1542.5,-.5 1542.5,-30.5 1655.5,-30.5 1655.5,-.5 1542.5,-.5"/>
<text text-anchor="start" x="1550.5" y="-18.5" font-family="Helvetica,sans-Serif" font-size="10.00" fill="#000000">tensorflow/compiler</text>
<text text-anchor="middle" x="1599" y="-7.5" font-family="Helvetica,sans-Serif" font-size="10.00" fill="#000000">/xla/types.h</text>
</g>
<!-- Node0&#45;&gt;Node12 -->
<g id="edge12" class="edge">
<title>Node0&#45;&gt;Node12</title>
<path fill="none" stroke="#191970" d="M806.0072,-86.9516C937.386,-83.969 1256.8224,-72.8256 1532.198,-31.1305"/>
<polygon fill="#191970" stroke="#191970" points="1533.0314,-34.5437 1542.3866,-29.5706 1531.9721,-27.6244 1533.0314,-34.5437"/>
</g>
</g>
</svg>
