<?xml version="1.0" encoding="UTF-8" standalone="no"?>
<!DOCTYPE svg PUBLIC "-//W3C//DTD SVG 1.1//EN"
 "http://www.w3.org/Graphics/SVG/1.1/DTD/svg11.dtd">
<!-- Generated by graphviz version 2.40.1 (20161225.0304)
 -->
<!-- Title: xla::TuplePointsToAnalysis Pages: 1 -->
<svg width="391pt" height="262pt"
 viewBox="0.00 0.00 390.50 262.00" xmlns="http://www.w3.org/2000/svg" xmlns:xlink="http://www.w3.org/1999/xlink">
<g id="graph0" class="graph" transform="scale(1 1) rotate(0) translate(4 258)">
<title>xla::TuplePointsToAnalysis</title>
<polygon fill="#ffffff" stroke="transparent" points="-4,4 -4,-258 386.5,-258 386.5,4 -4,4"/>
<!-- Node1 -->
<g id="node1" class="node">
<title>Node1</title>
<polygon fill="#bfbfbf" stroke="#000000" points="0,-89.5 0,-108.5 145,-108.5 145,-89.5 0,-89.5"/>
<text text-anchor="middle" x="72.5" y="-96.5" font-family="Helvetica,sans-Serif" font-size="10.00" fill="#000000">xla::TuplePointsToAnalysis</text>
</g>
<!-- Node2 -->
<g id="node2" class="node">
<title>Node2</title>
<g id="a_node2"><a xlink:href="../../d7/d10/classxla_1_1HloModule.html" target="_top" xlink:title="xla::HloModule">
<polygon fill="#ffffff" stroke="#000000" points="114,-156.5 114,-175.5 203,-175.5 203,-156.5 114,-156.5"/>
<text text-anchor="middle" x="158.5" y="-163.5" font-family="Helvetica,sans-Serif" font-size="10.00" fill="#000000">xla::HloModule</text>
</a>
</g>
</g>
<!-- Node2&#45;&gt;Node1 -->
<g id="edge1" class="edge">
<title>Node2&#45;&gt;Node1</title>
<path fill="none" stroke="#9a32cd" stroke-dasharray="5,2" d="M124.4766,-152.0664C116.837,-148.1231 109.0594,-143.4068 102.5,-138 92.3489,-129.6326 83.5545,-117.219 78.158,-108.6553"/>
<polygon fill="#9a32cd" stroke="#9a32cd" points="123.1082,-155.2922 133.6355,-156.4872 126.1511,-148.9882 123.1082,-155.2922"/>
<text text-anchor="middle" x="125.5" y="-130" font-family="Helvetica,sans-Serif" font-size="10.00" fill="#000000"> module_</text>
</g>
<!-- Node4 -->
<g id="node4" class="node">
<title>Node4</title>
<g id="a_node4"><a xlink:href="../../d4/d36/classxla_1_1HloComputation.html" target="_top" xlink:title="xla::HloComputation">
<polygon fill="#ffffff" stroke="#000000" points="163,-89.5 163,-108.5 280,-108.5 280,-89.5 163,-89.5"/>
<text text-anchor="middle" x="221.5" y="-96.5" font-family="Helvetica,sans-Serif" font-size="10.00" fill="#000000">xla::HloComputation</text>
</a>
</g>
</g>
<!-- Node2&#45;&gt;Node4 -->
<g id="edge7" class="edge">
<title>Node2&#45;&gt;Node4</title>
<path fill="none" stroke="#9a32cd" stroke-dasharray="5,2" d="M152.2675,-145.9861C151.4104,-139.4756 151.8497,-132.5138 155.5,-127 161.0654,-118.5934 169.7164,-112.7034 178.9433,-108.5791"/>
<polygon fill="#9a32cd" stroke="#9a32cd" points="148.9572,-147.2117 154.5958,-156.1815 155.7815,-145.6532 148.9572,-147.2117"/>
<text text-anchor="middle" x="175.5" y="-130" font-family="Helvetica,sans-Serif" font-size="10.00" fill="#000000"> parent_</text>
</g>
<!-- Node3 -->
<g id="node3" class="node">
<title>Node3</title>
<g id="a_node3"><a xlink:href="../../db/df3/structxla_1_1VersionedComputationHandle.html" target="_top" xlink:title="xla::VersionedComputation\lHandle">
<polygon fill="#ffffff" stroke="#000000" points="84,-223.5 84,-253.5 233,-253.5 233,-223.5 84,-223.5"/>
<text text-anchor="start" x="92" y="-241.5" font-family="Helvetica,sans-Serif" font-size="10.00" fill="#000000">xla::VersionedComputation</text>
<text text-anchor="middle" x="158.5" y="-230.5" font-family="Helvetica,sans-Serif" font-size="10.00" fill="#000000">Handle</text>
</a>
</g>
</g>
<!-- Node3&#45;&gt;Node2 -->
<g id="edge2" class="edge">
<title>Node3&#45;&gt;Node2</title>
<path fill="none" stroke="#9a32cd" stroke-dasharray="5,2" d="M158.5,-213.305C158.5,-200.424 158.5,-185.4836 158.5,-175.8957"/>
<polygon fill="#9a32cd" stroke="#9a32cd" points="155.0001,-213.4779 158.5,-223.478 162.0001,-213.478 155.0001,-213.4779"/>
<text text-anchor="middle" x="228" y="-197" font-family="Helvetica,sans-Serif" font-size="10.00" fill="#000000"> entry_computation_handle_</text>
</g>
<!-- Node4&#45;&gt;Node2 -->
<g id="edge3" class="edge">
<title>Node4&#45;&gt;Node2</title>
<path fill="none" stroke="#9a32cd" stroke-dasharray="5,2" d="M213.0287,-117.9931C209.4548,-124.7625 204.8685,-132.1513 199.5,-138 192.8553,-145.2391 183.9981,-151.5834 176.2166,-156.3942"/>
<polygon fill="#9a32cd" stroke="#9a32cd" points="216.2881,-119.2936 217.5136,-108.7699 209.9929,-116.2324 216.2881,-119.2936"/>
<text text-anchor="middle" x="259" y="-130" font-family="Helvetica,sans-Serif" font-size="10.00" fill="#000000"> entry_computation_</text>
</g>
<!-- Node5 -->
<g id="node5" class="node">
<title>Node5</title>
<g id="a_node5"><a xlink:href="../../d7/d59/classxla_1_1HloInstruction.html" target="_top" xlink:title="xla::HloInstruction">
<polygon fill="#ffffff" stroke="#000000" points="167.5,-.5 167.5,-19.5 273.5,-19.5 273.5,-.5 167.5,-.5"/>
<text text-anchor="middle" x="220.5" y="-7.5" font-family="Helvetica,sans-Serif" font-size="10.00" fill="#000000">xla::HloInstruction</text>
</a>
</g>
</g>
<!-- Node4&#45;&gt;Node5 -->
<g id="edge6" class="edge">
<title>Node4&#45;&gt;Node5</title>
<path fill="none" stroke="#9a32cd" stroke-dasharray="5,2" d="M195.6309,-82.9699C191.9363,-79.4986 188.6616,-75.4974 186.5,-71 180.1466,-57.7809 180.2405,-51.2638 186.5,-38 190.0899,-30.3931 196.8722,-24.1537 203.4406,-19.5111"/>
<polygon fill="#9a32cd" stroke="#9a32cd" points="193.5896,-85.8192 203.5822,-89.3404 197.9664,-80.3563 193.5896,-85.8192"/>
<text text-anchor="middle" x="206.5" y="-52" font-family="Helvetica,sans-Serif" font-size="10.00" fill="#000000"> parent_</text>
</g>
<!-- Node5&#45;&gt;Node4 -->
<g id="edge4" class="edge">
<title>Node5&#45;&gt;Node4</title>
<path fill="none" stroke="#9a32cd" stroke-dasharray="5,2" d="M228.3616,-29.3227C229.2456,-32.1901 230.005,-35.1423 230.5,-38 233.0032,-52.4515 232.7715,-56.5103 230.5,-71 229.5194,-77.2551 227.3772,-84.0199 225.4287,-89.3331"/>
<polygon fill="#9a32cd" stroke="#9a32cd" points="231.5491,-27.8444 224.863,-19.6257 224.9646,-30.2201 231.5491,-27.8444"/>
<text text-anchor="start" x="232.5" y="-63" font-family="Helvetica,sans-Serif" font-size="10.00" fill="#000000"> fusion_instruction</text>
<text text-anchor="middle" x="278" y="-52" font-family="Helvetica,sans-Serif" font-size="10.00" fill="#000000">_</text>
<text text-anchor="middle" x="278" y="-41" font-family="Helvetica,sans-Serif" font-size="10.00" fill="#000000">root_instruction_</text>
</g>
<!-- Node5&#45;&gt;Node5 -->
<g id="edge5" class="edge">
<title>Node5&#45;&gt;Node5</title>
<path fill="none" stroke="#9a32cd" stroke-dasharray="5,2" d="M283.9305,-16.1307C288.622,-14.756 291.5,-12.7124 291.5,-10 291.5,-5.6602 284.1323,-3.0325 273.7572,-2.1171"/>
<polygon fill="#9a32cd" stroke="#9a32cd" points="283.018,-12.7363 273.7572,-17.8829 284.2062,-19.6347 283.018,-12.7363"/>
<text text-anchor="middle" x="337" y="-7.5" font-family="Helvetica,sans-Serif" font-size="10.00" fill="#000000"> trace_instruction_</text>
</g>
</g>
</svg>
