<?xml version="1.0" encoding="UTF-8" standalone="no"?>
<!DOCTYPE svg PUBLIC "-//W3C//DTD SVG 1.1//EN"
 "http://www.w3.org/Graphics/SVG/1.1/DTD/svg11.dtd">
<!-- Generated by graphviz version 2.40.1 (20161225.0304)
 -->
<!-- Title: xla::TuplePointsToAnalysis Pages: 1 -->
<svg width="287pt" height="95pt"
 viewBox="0.00 0.00 287.00 95.00" xmlns="http://www.w3.org/2000/svg" xmlns:xlink="http://www.w3.org/1999/xlink">
<g id="graph0" class="graph" transform="scale(1 1) rotate(0) translate(4 91)">
<title>xla::TuplePointsToAnalysis</title>
<polygon fill="#ffffff" stroke="transparent" points="-4,4 -4,-91 283,-91 283,4 -4,4"/>
<!-- Node1 -->
<g id="node1" class="node">
<title>Node1</title>
<polygon fill="#bfbfbf" stroke="#000000" points="0,-.5 0,-19.5 134,-19.5 134,-.5 0,-.5"/>
<text text-anchor="middle" x="67" y="-7.5" font-family="Helvetica,sans-Serif" font-size="10.00" fill="#000000">xla::TuplePointsToAnalysis</text>
</g>
<!-- Node2 -->
<g id="node2" class="node">
<title>Node2</title>
<g id="a_node2"><a xlink:href="../../d7/d10/classxla_1_1HloModule.html" target="_top" xlink:title="xla::HloModule">
<polygon fill="#ffffff" stroke="#000000" points="105,-67.5 105,-86.5 187,-86.5 187,-67.5 105,-67.5"/>
<text text-anchor="middle" x="146" y="-74.5" font-family="Helvetica,sans-Serif" font-size="10.00" fill="#000000">xla::HloModule</text>
</a>
</g>
</g>
<!-- Node2&#45;&gt;Node1 -->
<g id="edge1" class="edge">
<title>Node2&#45;&gt;Node1</title>
<path fill="none" stroke="#9a32cd" stroke-dasharray="5,2" d="M114.4205,-62.5368C107.6305,-58.6647 100.769,-54.1122 95,-49 85.3931,-40.4869 77.2119,-28.1029 72.2177,-19.5859"/>
<polygon fill="#9a32cd" stroke="#9a32cd" points="113.0541,-65.7744 123.526,-67.384 116.3435,-59.5954 113.0541,-65.7744"/>
<text text-anchor="middle" x="115" y="-41" font-family="Helvetica,sans-Serif" font-size="10.00" fill="#000000"> module_</text>
</g>
<!-- Node3 -->
<g id="node3" class="node">
<title>Node3</title>
<g id="a_node3"><a xlink:href="../../d4/d36/classxla_1_1HloComputation.html" target="_top" xlink:title="xla::HloComputation">
<polygon fill="#ffffff" stroke="#000000" points="152,-.5 152,-19.5 258,-19.5 258,-.5 152,-.5"/>
<text text-anchor="middle" x="205" y="-7.5" font-family="Helvetica,sans-Serif" font-size="10.00" fill="#000000">xla::HloComputation</text>
</a>
</g>
</g>
<!-- Node2&#45;&gt;Node3 -->
<g id="edge3" class="edge">
<title>Node2&#45;&gt;Node3</title>
<path fill="none" stroke="#9a32cd" stroke-dasharray="5,2" d="M139.8407,-57.034C138.9892,-50.5271 139.4133,-43.5553 143,-38 148.4453,-29.566 157.1097,-23.6459 166.2553,-19.5"/>
<polygon fill="#9a32cd" stroke="#9a32cd" points="136.5235,-58.2331 142.1449,-67.2136 143.3508,-56.6876 136.5235,-58.2331"/>
<text text-anchor="middle" x="161" y="-41" font-family="Helvetica,sans-Serif" font-size="10.00" fill="#000000"> parent_</text>
</g>
<!-- Node3&#45;&gt;Node2 -->
<g id="edge2" class="edge">
<title>Node3&#45;&gt;Node2</title>
<path fill="none" stroke="#9a32cd" stroke-dasharray="5,2" d="M196.3729,-28.8534C192.782,-35.6076 188.2247,-43.0225 183,-49 176.8503,-56.0358 168.6769,-62.4444 161.5764,-67.3496"/>
<polygon fill="#9a32cd" stroke="#9a32cd" points="199.616,-30.1908 200.9077,-19.675 193.3402,-27.0901 199.616,-30.1908"/>
<text text-anchor="middle" x="234.5" y="-41" font-family="Helvetica,sans-Serif" font-size="10.00" fill="#000000"> entry_computation_</text>
</g>
</g>
</svg>
