<?xml version="1.0" encoding="UTF-8" standalone="no"?>
<!DOCTYPE svg PUBLIC "-//W3C//DTD SVG 1.1//EN"
 "http://www.w3.org/Graphics/SVG/1.1/DTD/svg11.dtd">
<!-- Generated by graphviz version 2.40.1 (20161225.0304)
 -->
<!-- Title: tensorflow/tensorflow/compiler/xla/service/while_loop_invariant_code_motion.h Pages: 1 -->
<svg width="270pt" height="150pt"
 viewBox="0.00 0.00 270.00 150.00" xmlns="http://www.w3.org/2000/svg" xmlns:xlink="http://www.w3.org/1999/xlink">
<g id="graph0" class="graph" transform="scale(1 1) rotate(0) translate(4 146)">
<title>tensorflow/tensorflow/compiler/xla/service/while_loop_invariant_code_motion.h</title>
<polygon fill="#ffffff" stroke="transparent" points="-4,4 -4,-146 266,-146 266,4 -4,4"/>
<!-- Node46 -->
<g id="node1" class="node">
<title>Node46</title>
<polygon fill="#bfbfbf" stroke="#000000" points="70,-89.5 70,-141.5 192,-141.5 192,-89.5 70,-89.5"/>
<text text-anchor="start" x="78" y="-129.5" font-family="Helvetica,sans-Serif" font-size="10.00" fill="#000000">tensorflow/tensorflow</text>
<text text-anchor="start" x="78" y="-118.5" font-family="Helvetica,sans-Serif" font-size="10.00" fill="#000000">/compiler/xla/service</text>
<text text-anchor="start" x="78" y="-107.5" font-family="Helvetica,sans-Serif" font-size="10.00" fill="#000000">/while_loop_invariant</text>
<text text-anchor="middle" x="131" y="-96.5" font-family="Helvetica,sans-Serif" font-size="10.00" fill="#000000">_code_motion.h</text>
</g>
<!-- Node47 -->
<g id="node2" class="node">
<title>Node47</title>
<g id="a_node2"><a xlink:href="../../d4/dcb/cpu__compiler_8cc.html" target="_top" xlink:title="tensorflow/tensorflow\l/compiler/xla/service\l/cpu/cpu_compiler.cc">
<polygon fill="#ffffff" stroke="#000000" points="0,-6 0,-47 122,-47 122,-6 0,-6"/>
<text text-anchor="start" x="8" y="-35" font-family="Helvetica,sans-Serif" font-size="10.00" fill="#000000">tensorflow/tensorflow</text>
<text text-anchor="start" x="8" y="-24" font-family="Helvetica,sans-Serif" font-size="10.00" fill="#000000">/compiler/xla/service</text>
<text text-anchor="middle" x="61" y="-13" font-family="Helvetica,sans-Serif" font-size="10.00" fill="#000000">/cpu/cpu_compiler.cc</text>
</a>
</g>
</g>
<!-- Node46&#45;&gt;Node47 -->
<g id="edge1" class="edge">
<title>Node46&#45;&gt;Node47</title>
<path fill="none" stroke="#191970" d="M103.9798,-81.1458C94.9638,-69.6825 85.2015,-57.2705 77.2629,-47.1771"/>
<polygon fill="#191970" stroke="#191970" points="101.4431,-83.582 110.3763,-89.2784 106.9452,-79.2545 101.4431,-83.582"/>
</g>
<!-- Node48 -->
<g id="node3" class="node">
<title>Node48</title>
<g id="a_node3"><a xlink:href="../../da/df1/while__loop__invariant__code__motion_8cc.html" target="_top" xlink:title="tensorflow/tensorflow\l/compiler/xla/service\l/while_loop_invariant\l_code_motion.cc">
<polygon fill="#ffffff" stroke="#000000" points="140,-.5 140,-52.5 262,-52.5 262,-.5 140,-.5"/>
<text text-anchor="start" x="148" y="-40.5" font-family="Helvetica,sans-Serif" font-size="10.00" fill="#000000">tensorflow/tensorflow</text>
<text text-anchor="start" x="148" y="-29.5" font-family="Helvetica,sans-Serif" font-size="10.00" fill="#000000">/compiler/xla/service</text>
<text text-anchor="start" x="148" y="-18.5" font-family="Helvetica,sans-Serif" font-size="10.00" fill="#000000">/while_loop_invariant</text>
<text text-anchor="middle" x="201" y="-7.5" font-family="Helvetica,sans-Serif" font-size="10.00" fill="#000000">_code_motion.cc</text>
</a>
</g>
</g>
<!-- Node46&#45;&gt;Node48 -->
<g id="edge2" class="edge">
<title>Node46&#45;&gt;Node48</title>
<path fill="none" stroke="#191970" d="M158.0242,-81.1407C165.4995,-71.6363 173.4876,-61.4801 180.5237,-52.5341"/>
<polygon fill="#191970" stroke="#191970" points="155.0548,-79.2545 151.6237,-89.2784 160.5569,-83.582 155.0548,-79.2545"/>
</g>
</g>
</svg>
