<?xml version="1.0" encoding="UTF-8" standalone="no"?>
<!DOCTYPE svg PUBLIC "-//W3C//DTD SVG 1.1//EN"
 "http://www.w3.org/Graphics/SVG/1.1/DTD/svg11.dtd">
<!-- Generated by graphviz version 2.40.1 (20161225.0304)
 -->
<!-- Title: tensorflow/tensorflow/compiler/xla/service/cpu/parallel_task_assignment.h Pages: 1 -->
<svg width="436pt" height="139pt"
 viewBox="0.00 0.00 436.00 139.00" xmlns="http://www.w3.org/2000/svg" xmlns:xlink="http://www.w3.org/1999/xlink">
<g id="graph0" class="graph" transform="scale(1 1) rotate(0) translate(4 135)">
<title>tensorflow/tensorflow/compiler/xla/service/cpu/parallel_task_assignment.h</title>
<polygon fill="#ffffff" stroke="transparent" points="-4,4 -4,-135 432,-135 432,4 -4,4"/>
<!-- Node37 -->
<g id="node1" class="node">
<title>Node37</title>
<polygon fill="#bfbfbf" stroke="#000000" points="109.5,-89.5 109.5,-130.5 266.5,-130.5 266.5,-89.5 109.5,-89.5"/>
<text text-anchor="start" x="117.5" y="-118.5" font-family="Helvetica,sans-Serif" font-size="10.00" fill="#000000">tensorflow/tensorflow</text>
<text text-anchor="start" x="117.5" y="-107.5" font-family="Helvetica,sans-Serif" font-size="10.00" fill="#000000">/compiler/xla/service</text>
<text text-anchor="middle" x="188" y="-96.5" font-family="Helvetica,sans-Serif" font-size="10.00" fill="#000000">/cpu/parallel_task_assignment.h</text>
</g>
<!-- Node38 -->
<g id="node2" class="node">
<title>Node38</title>
<g id="a_node2"><a xlink:href="../../d4/dcb/cpu__compiler_8cc.html" target="_top" xlink:title="tensorflow/tensorflow\l/compiler/xla/service\l/cpu/cpu_compiler.cc">
<polygon fill="#ffffff" stroke="#000000" points="0,-6 0,-47 110,-47 110,-6 0,-6"/>
<text text-anchor="start" x="8" y="-35" font-family="Helvetica,sans-Serif" font-size="10.00" fill="#000000">tensorflow/tensorflow</text>
<text text-anchor="start" x="8" y="-24" font-family="Helvetica,sans-Serif" font-size="10.00" fill="#000000">/compiler/xla/service</text>
<text text-anchor="middle" x="55" y="-13" font-family="Helvetica,sans-Serif" font-size="10.00" fill="#000000">/cpu/cpu_compiler.cc</text>
</a>
</g>
</g>
<!-- Node37&#45;&gt;Node38 -->
<g id="edge1" class="edge">
<title>Node37&#45;&gt;Node38</title>
<path fill="none" stroke="#191970" d="M146.4373,-83.9061C127.5982,-72.0786 105.6368,-58.2908 87.9591,-47.1924"/>
<polygon fill="#191970" stroke="#191970" points="144.7933,-87.0066 155.1236,-89.3595 148.5154,-81.0781 144.7933,-87.0066"/>
</g>
<!-- Node39 -->
<g id="node3" class="node">
<title>Node39</title>
<g id="a_node3"><a xlink:href="../../d8/d10/cpu__parallelization__preparation_8cc.html" target="_top" xlink:title="tensorflow/tensorflow\l/compiler/xla/service\l/cpu/cpu_parallelization\l_preparation.cc">
<polygon fill="#ffffff" stroke="#000000" points="128.5,-.5 128.5,-52.5 247.5,-52.5 247.5,-.5 128.5,-.5"/>
<text text-anchor="start" x="136.5" y="-40.5" font-family="Helvetica,sans-Serif" font-size="10.00" fill="#000000">tensorflow/tensorflow</text>
<text text-anchor="start" x="136.5" y="-29.5" font-family="Helvetica,sans-Serif" font-size="10.00" fill="#000000">/compiler/xla/service</text>
<text text-anchor="start" x="136.5" y="-18.5" font-family="Helvetica,sans-Serif" font-size="10.00" fill="#000000">/cpu/cpu_parallelization</text>
<text text-anchor="middle" x="188" y="-7.5" font-family="Helvetica,sans-Serif" font-size="10.00" fill="#000000">_preparation.cc</text>
</a>
</g>
</g>
<!-- Node37&#45;&gt;Node39 -->
<g id="edge2" class="edge">
<title>Node37&#45;&gt;Node39</title>
<path fill="none" stroke="#191970" d="M188,-79.1618C188,-70.4305 188,-61.0145 188,-52.5925"/>
<polygon fill="#191970" stroke="#191970" points="184.5001,-79.3595 188,-89.3595 191.5001,-79.3596 184.5001,-79.3595"/>
</g>
<!-- Node40 -->
<g id="node4" class="node">
<title>Node40</title>
<g id="a_node4"><a xlink:href="../../dc/d17/parallel__task__assignment_8cc.html" target="_top" xlink:title="tensorflow/tensorflow\l/compiler/xla/service\l/cpu/parallel_task_assignment.cc">
<polygon fill="#ffffff" stroke="#000000" points="266,-6 266,-47 428,-47 428,-6 266,-6"/>
<text text-anchor="start" x="274" y="-35" font-family="Helvetica,sans-Serif" font-size="10.00" fill="#000000">tensorflow/tensorflow</text>
<text text-anchor="start" x="274" y="-24" font-family="Helvetica,sans-Serif" font-size="10.00" fill="#000000">/compiler/xla/service</text>
<text text-anchor="middle" x="347" y="-13" font-family="Helvetica,sans-Serif" font-size="10.00" fill="#000000">/cpu/parallel_task_assignment.cc</text>
</a>
</g>
</g>
<!-- Node37&#45;&gt;Node40 -->
<g id="edge3" class="edge">
<title>Node37&#45;&gt;Node40</title>
<path fill="none" stroke="#191970" d="M236.1992,-84.6878C259.1433,-72.6386 286.2266,-58.4156 307.8735,-47.0476"/>
<polygon fill="#191970" stroke="#191970" points="234.5295,-81.6114 227.3034,-89.3595 237.7841,-87.8088 234.5295,-81.6114"/>
</g>
</g>
</svg>
