<?xml version="1.0" encoding="UTF-8" standalone="no"?>
<!DOCTYPE svg PUBLIC "-//W3C//DTD SVG 1.1//EN"
 "http://www.w3.org/Graphics/SVG/1.1/DTD/svg11.dtd">
<!-- Generated by graphviz version 2.40.1 (20161225.0304)
 -->
<!-- Title: xla::SequentialHloOrdering Pages: 1 -->
<svg width="271pt" height="152pt"
 viewBox="0.00 0.00 270.50 152.00" xmlns="http://www.w3.org/2000/svg" xmlns:xlink="http://www.w3.org/1999/xlink">
<g id="graph0" class="graph" transform="scale(1 1) rotate(0) translate(4 148)">
<title>xla::SequentialHloOrdering</title>
<polygon fill="#ffffff" stroke="transparent" points="-4,4 -4,-148 266.5,-148 266.5,4 -4,4"/>
<!-- Node2 -->
<g id="node1" class="node">
<title>Node2</title>
<polygon fill="#bfbfbf" stroke="#000000" points="0,-.5 0,-19.5 133,-19.5 133,-.5 0,-.5"/>
<text text-anchor="middle" x="66.5" y="-7.5" font-family="Helvetica,sans-Serif" font-size="10.00" fill="#000000">xla::SequentialHloOrdering</text>
</g>
<!-- Node3 -->
<g id="node2" class="node">
<title>Node3</title>
<g id="a_node2"><a xlink:href="../../d0/d0f/classxla_1_1HloOrdering.html" target="_top" xlink:title="xla::HloOrdering">
<polygon fill="#ffffff" stroke="#000000" points="23,-57.5 23,-76.5 110,-76.5 110,-57.5 23,-57.5"/>
<text text-anchor="middle" x="66.5" y="-64.5" font-family="Helvetica,sans-Serif" font-size="10.00" fill="#000000">xla::HloOrdering</text>
</a>
</g>
</g>
<!-- Node3&#45;&gt;Node2 -->
<g id="edge1" class="edge">
<title>Node3&#45;&gt;Node2</title>
<path fill="none" stroke="#191970" d="M66.5,-47.2342C66.5,-37.8491 66.5,-27.0651 66.5,-19.5265"/>
<polygon fill="#191970" stroke="#191970" points="63.0001,-47.3307 66.5,-57.3307 70.0001,-47.3308 63.0001,-47.3307"/>
</g>
<!-- Node4 -->
<g id="node3" class="node">
<title>Node4</title>
<g id="a_node3"><a xlink:href="../../d7/d10/classxla_1_1HloModule.html" target="_top" xlink:title="xla::HloModule">
<polygon fill="#ffffff" stroke="#000000" points="88.5,-124.5 88.5,-143.5 170.5,-143.5 170.5,-124.5 88.5,-124.5"/>
<text text-anchor="middle" x="129.5" y="-131.5" font-family="Helvetica,sans-Serif" font-size="10.00" fill="#000000">xla::HloModule</text>
</a>
</g>
</g>
<!-- Node4&#45;&gt;Node3 -->
<g id="edge2" class="edge">
<title>Node4&#45;&gt;Node3</title>
<path fill="none" stroke="#9a32cd" stroke-dasharray="5,2" d="M95.4948,-119.5065C89.5574,-115.7887 83.888,-111.3055 79.5,-106 72.495,-97.5304 69.2135,-85.1375 67.7106,-76.6066"/>
<polygon fill="#9a32cd" stroke="#9a32cd" points="93.8311,-122.5862 104.2674,-124.4124 97.2478,-116.4767 93.8311,-122.5862"/>
<text text-anchor="middle" x="99.5" y="-98" font-family="Helvetica,sans-Serif" font-size="10.00" fill="#000000"> module_</text>
</g>
<!-- Node5 -->
<g id="node4" class="node">
<title>Node5</title>
<g id="a_node4"><a xlink:href="../../d4/d36/classxla_1_1HloComputation.html" target="_top" xlink:title="xla::HloComputation">
<polygon fill="#ffffff" stroke="#000000" points="131.5,-57.5 131.5,-76.5 237.5,-76.5 237.5,-57.5 131.5,-57.5"/>
<text text-anchor="middle" x="184.5" y="-64.5" font-family="Helvetica,sans-Serif" font-size="10.00" fill="#000000">xla::HloComputation</text>
</a>
</g>
</g>
<!-- Node4&#45;&gt;Node5 -->
<g id="edge4" class="edge">
<title>Node4&#45;&gt;Node5</title>
<path fill="none" stroke="#9a32cd" stroke-dasharray="5,2" d="M123.4228,-114.0863C122.5775,-107.5833 122.9846,-100.6007 126.5,-95 131.731,-86.666 140.2192,-80.7531 149.1072,-76.5814"/>
<polygon fill="#9a32cd" stroke="#9a32cd" points="120.0981,-115.256 125.7,-124.2487 126.9287,-113.7254 120.0981,-115.256"/>
<text text-anchor="middle" x="144.5" y="-98" font-family="Helvetica,sans-Serif" font-size="10.00" fill="#000000"> parent_</text>
</g>
<!-- Node5&#45;&gt;Node4 -->
<g id="edge3" class="edge">
<title>Node5&#45;&gt;Node4</title>
<path fill="none" stroke="#9a32cd" stroke-dasharray="5,2" d="M177.7813,-86.3746C174.9262,-93.0051 171.164,-100.2052 166.5,-106 160.742,-113.1541 152.775,-119.489 145.7082,-124.3157"/>
<polygon fill="#9a32cd" stroke="#9a32cd" points="181.1771,-87.2972 181.5204,-76.7079 174.6484,-84.7719 181.1771,-87.2972"/>
<text text-anchor="middle" x="218" y="-98" font-family="Helvetica,sans-Serif" font-size="10.00" fill="#000000"> entry_computation_</text>
</g>
</g>
</svg>
