<?xml version="1.0" encoding="UTF-8" standalone="no"?>
<!DOCTYPE svg PUBLIC "-//W3C//DTD SVG 1.1//EN"
 "http://www.w3.org/Graphics/SVG/1.1/DTD/svg11.dtd">
<!-- Generated by graphviz version 2.40.1 (20161225.0304)
 -->
<!-- Title: tensorflow::anonymous_namespace{graph_constructor.cc}::GraphConstructor::Options Pages: 1 -->
<svg width="570pt" height="205pt"
 viewBox="0.00 0.00 570.00 205.00" xmlns="http://www.w3.org/2000/svg" xmlns:xlink="http://www.w3.org/1999/xlink">
<g id="graph0" class="graph" transform="scale(1 1) rotate(0) translate(4 201)">
<title>tensorflow::anonymous_namespace{graph_constructor.cc}::GraphConstructor::Options</title>
<polygon fill="#ffffff" stroke="transparent" points="-4,4 -4,-201 566,-201 566,4 -4,4"/>
<!-- Node1 -->
<g id="node1" class="node">
<title>Node1</title>
<polygon fill="#bfbfbf" stroke="#000000" points="165.5,-.5 165.5,-41.5 334.5,-41.5 334.5,-.5 165.5,-.5"/>
<text text-anchor="start" x="173.5" y="-29.5" font-family="Helvetica,sans-Serif" font-size="10.00" fill="#000000">tensorflow::anonymous</text>
<text text-anchor="start" x="173.5" y="-18.5" font-family="Helvetica,sans-Serif" font-size="10.00" fill="#000000">_namespace{graph_constructor.cc}</text>
<text text-anchor="middle" x="250" y="-7.5" font-family="Helvetica,sans-Serif" font-size="10.00" fill="#000000">::GraphConstructor::Options</text>
</g>
<!-- Node2 -->
<g id="node2" class="node">
<title>Node2</title>
<polygon fill="#ffffff" stroke="#bfbfbf" points="0,-177.5 0,-196.5 86,-196.5 86,-177.5 0,-177.5"/>
<text text-anchor="middle" x="43" y="-184.5" font-family="Helvetica,sans-Serif" font-size="10.00" fill="#000000">vector&lt; string &gt;</text>
</g>
<!-- Node2&#45;&gt;Node1 -->
<g id="edge1" class="edge">
<title>Node2&#45;&gt;Node1</title>
<path fill="none" stroke="#9a32cd" stroke-dasharray="5,2" d="M38.7204,-167.126C34.0143,-139.3927 30.2962,-89.2103 57,-60 71.8482,-43.7581 120.5783,-33.9887 165.3542,-28.2895"/>
<polygon fill="#9a32cd" stroke="#9a32cd" points="35.3301,-168.0317 40.6449,-177.1971 42.2057,-166.7178 35.3301,-168.0317"/>
<text text-anchor="middle" x="106" y="-112.5" font-family="Helvetica,sans-Serif" font-size="10.00" fill="#000000"> control_dependencies</text>
<text text-anchor="middle" x="106" y="-101.5" font-family="Helvetica,sans-Serif" font-size="10.00" fill="#000000">return_nodes</text>
</g>
<!-- Node3 -->
<g id="node3" class="node">
<title>Node3</title>
<polygon fill="#ffffff" stroke="#bfbfbf" points="123.5,-177.5 123.5,-196.5 164.5,-196.5 164.5,-177.5 123.5,-177.5"/>
<text text-anchor="middle" x="144" y="-184.5" font-family="Helvetica,sans-Serif" font-size="10.00" fill="#000000">string</text>
</g>
<!-- Node3&#45;&gt;Node1 -->
<g id="edge2" class="edge">
<title>Node3&#45;&gt;Node1</title>
<path fill="none" stroke="#9a32cd" stroke-dasharray="5,2" d="M153.7037,-168.2549C167.0668,-142.9628 192.4004,-96.8345 218,-60 222.2986,-53.8149 227.3204,-47.3841 232.0944,-41.5707"/>
<polygon fill="#9a32cd" stroke="#9a32cd" points="150.4305,-166.961 148.8926,-177.4436 156.6319,-170.208 150.4305,-166.961"/>
<text text-anchor="middle" x="232" y="-107" font-family="Helvetica,sans-Serif" font-size="10.00" fill="#000000"> prefix</text>
</g>
<!-- Node4 -->
<g id="node4" class="node">
<title>Node4</title>
<polygon fill="#ffffff" stroke="#bfbfbf" points="183,-177.5 183,-196.5 317,-196.5 317,-177.5 183,-177.5"/>
<text text-anchor="middle" x="250" y="-184.5" font-family="Helvetica,sans-Serif" font-size="10.00" fill="#000000">map&lt; TensorId, TensorId &gt;</text>
</g>
<!-- Node4&#45;&gt;Node1 -->
<g id="edge3" class="edge">
<title>Node4&#45;&gt;Node1</title>
<path fill="none" stroke="#9a32cd" stroke-dasharray="5,2" d="M250,-166.8774C250,-135.1676 250,-73.8846 250,-41.7747"/>
<polygon fill="#9a32cd" stroke="#9a32cd" points="246.5001,-167.113 250,-177.1131 253.5001,-167.1131 246.5001,-167.113"/>
<text text-anchor="middle" x="274.5" y="-107" font-family="Helvetica,sans-Serif" font-size="10.00" fill="#000000"> input_map</text>
</g>
<!-- Node5 -->
<g id="node5" class="node">
<title>Node5</title>
<polygon fill="#ffffff" stroke="#bfbfbf" points="335.5,-177.5 335.5,-196.5 434.5,-196.5 434.5,-177.5 335.5,-177.5"/>
<text text-anchor="middle" x="385" y="-184.5" font-family="Helvetica,sans-Serif" font-size="10.00" fill="#000000">vector&lt; TensorId &gt;</text>
</g>
<!-- Node5&#45;&gt;Node1 -->
<g id="edge4" class="edge">
<title>Node5&#45;&gt;Node1</title>
<path fill="none" stroke="#9a32cd" stroke-dasharray="5,2" d="M375.5891,-168.0459C361.9804,-141.8345 334.91,-93.9204 303,-60 296.7378,-53.3433 289.2137,-47.0385 281.828,-41.5156"/>
<polygon fill="#9a32cd" stroke="#9a32cd" points="372.6207,-169.9297 380.2768,-177.2533 378.8588,-166.7538 372.6207,-169.9297"/>
<text text-anchor="middle" x="402" y="-107" font-family="Helvetica,sans-Serif" font-size="10.00" fill="#000000"> return_tensors</text>
</g>
<!-- Node6 -->
<g id="node6" class="node">
<title>Node6</title>
<polygon fill="#ffffff" stroke="#bfbfbf" points="454.5,-177.5 454.5,-196.5 489.5,-196.5 489.5,-177.5 454.5,-177.5"/>
<text text-anchor="middle" x="472" y="-184.5" font-family="Helvetica,sans-Serif" font-size="10.00" fill="#000000">bool</text>
</g>
<!-- Node6&#45;&gt;Node1 -->
<g id="edge5" class="edge">
<title>Node6&#45;&gt;Node1</title>
<path fill="none" stroke="#9a32cd" stroke-dasharray="5,2" d="M472.861,-167.2072C472.9282,-139.1601 468.6051,-88.1402 439,-60 423.6707,-45.4293 377.4943,-35.7449 334.6244,-29.671"/>
<polygon fill="#9a32cd" stroke="#9a32cd" points="469.3582,-167.2974 472.6378,-177.3719 476.3566,-167.4511 469.3582,-167.2974"/>
<text text-anchor="middle" x="517" y="-151" font-family="Helvetica,sans-Serif" font-size="10.00" fill="#000000"> allow_internal_ops</text>
<text text-anchor="start" x="472" y="-140" font-family="Helvetica,sans-Serif" font-size="10.00" fill="#000000">validate_colocation</text>
<text text-anchor="middle" x="517" y="-129" font-family="Helvetica,sans-Serif" font-size="10.00" fill="#000000">_constraints</text>
<text text-anchor="middle" x="517" y="-118" font-family="Helvetica,sans-Serif" font-size="10.00" fill="#000000">skip_mapped_nodes</text>
<text text-anchor="middle" x="517" y="-107" font-family="Helvetica,sans-Serif" font-size="10.00" fill="#000000">uniquify_prefix</text>
<text text-anchor="middle" x="517" y="-96" font-family="Helvetica,sans-Serif" font-size="10.00" fill="#000000">importing</text>
<text text-anchor="middle" x="517" y="-85" font-family="Helvetica,sans-Serif" font-size="10.00" fill="#000000">uniquify_names</text>
<text text-anchor="middle" x="517" y="-74" font-family="Helvetica,sans-Serif" font-size="10.00" fill="#000000">validate_shape</text>
<text text-anchor="middle" x="517" y="-63" font-family="Helvetica,sans-Serif" font-size="10.00" fill="#000000">expect_device_spec</text>
</g>
</g>
</svg>
