<?xml version="1.0" encoding="UTF-8" standalone="no"?>
<!DOCTYPE svg PUBLIC "-//W3C//DTD SVG 1.1//EN"
 "http://www.w3.org/Graphics/SVG/1.1/DTD/svg11.dtd">
<!-- Generated by graphviz version 2.40.1 (20161225.0304)
 -->
<!-- Title: xla::LocalClientOptions::number_of_replicas Pages: 1 -->
<svg width="289pt" height="88pt"
 viewBox="0.00 0.00 289.00 88.00" xmlns="http://www.w3.org/2000/svg" xmlns:xlink="http://www.w3.org/1999/xlink">
<g id="graph0" class="graph" transform="scale(1 1) rotate(0) translate(4 84)">
<title>xla::LocalClientOptions::number_of_replicas</title>
<polygon fill="#ffffff" stroke="transparent" points="-4,4 -4,-84 285,-84 285,4 -4,4"/>
<!-- Node6 -->
<g id="node1" class="node">
<title>Node6</title>
<polygon fill="#bfbfbf" stroke="#000000" points="0,-24.5 0,-54.5 118,-54.5 118,-24.5 0,-24.5"/>
<text text-anchor="start" x="8" y="-42.5" font-family="Helvetica,sans-Serif" font-size="10.00" fill="#000000">xla::LocalClientOptions</text>
<text text-anchor="middle" x="59" y="-31.5" font-family="Helvetica,sans-Serif" font-size="10.00" fill="#000000">::number_of_replicas</text>
</g>
<!-- Node7 -->
<g id="node2" class="node">
<title>Node7</title>
<g id="a_node2"><a xlink:href="../../df/d22/classxla_1_1LocalClientOptions.html#a3cb7d5933df313b9dc075b35275806ff" target="_top" xlink:title="xla::LocalClientOptions\l::set_number_of_replicas">
<polygon fill="#ffffff" stroke="#000000" points="154.5,-49.5 154.5,-79.5 280.5,-79.5 280.5,-49.5 154.5,-49.5"/>
<text text-anchor="start" x="162.5" y="-67.5" font-family="Helvetica,sans-Serif" font-size="10.00" fill="#000000">xla::LocalClientOptions</text>
<text text-anchor="middle" x="217.5" y="-56.5" font-family="Helvetica,sans-Serif" font-size="10.00" fill="#000000">::set_number_of_replicas</text>
</a>
</g>
</g>
<!-- Node6&#45;&gt;Node7 -->
<g id="edge1" class="edge">
<title>Node6&#45;&gt;Node7</title>
<path fill="none" stroke="#191970" d="M128.1733,-50.4106C136.91,-51.7886 145.8127,-53.1929 154.4475,-54.5548"/>
<polygon fill="#191970" stroke="#191970" points="128.4428,-46.9099 118.0195,-48.8091 127.3521,-53.8244 128.4428,-46.9099"/>
</g>
<!-- Node8 -->
<g id="node3" class="node">
<title>Node8</title>
<g id="a_node3"><a xlink:href="../../d5/ddb/classxla_1_1ClientLibrary.html#a7dadd4179a27235b58ed227ddbc2cbbe" target="_top" xlink:title="xla::ClientLibrary\l::GetOrCreateLocalClient">
<polygon fill="#ffffff" stroke="#000000" points="154,-.5 154,-30.5 281,-30.5 281,-.5 154,-.5"/>
<text text-anchor="start" x="162" y="-18.5" font-family="Helvetica,sans-Serif" font-size="10.00" fill="#000000">xla::ClientLibrary</text>
<text text-anchor="middle" x="217.5" y="-7.5" font-family="Helvetica,sans-Serif" font-size="10.00" fill="#000000">::GetOrCreateLocalClient</text>
</a>
</g>
</g>
<!-- Node6&#45;&gt;Node8 -->
<g id="edge2" class="edge">
<title>Node6&#45;&gt;Node8</title>
<path fill="none" stroke="#191970" d="M128.0214,-29.0488C136.6267,-27.7458 145.3957,-26.418 153.9132,-25.1283"/>
<polygon fill="#191970" stroke="#191970" points="127.3828,-25.6055 118.0195,-30.5633 128.4309,-32.5266 127.3828,-25.6055"/>
</g>
</g>
</svg>
