<?xml version="1.0" encoding="UTF-8" standalone="no"?>
<!DOCTYPE svg PUBLIC "-//W3C//DTD SVG 1.1//EN"
 "http://www.w3.org/Graphics/SVG/1.1/DTD/svg11.dtd">
<!-- Generated by graphviz version 2.40.1 (20161225.0304)
 -->
<!-- Title: xla::LocalClientOptions::set_platform Pages: 1 -->
<svg width="280pt" height="39pt"
 viewBox="0.00 0.00 280.00 39.00" xmlns="http://www.w3.org/2000/svg" xmlns:xlink="http://www.w3.org/1999/xlink">
<g id="graph0" class="graph" transform="scale(1 1) rotate(0) translate(4 35)">
<title>xla::LocalClientOptions::set_platform</title>
<polygon fill="#ffffff" stroke="transparent" points="-4,4 -4,-35 276,-35 276,4 -4,4"/>
<!-- Node20 -->
<g id="node1" class="node">
<title>Node20</title>
<polygon fill="#bfbfbf" stroke="#000000" points="0,-.5 0,-30.5 118,-30.5 118,-.5 0,-.5"/>
<text text-anchor="start" x="8" y="-18.5" font-family="Helvetica,sans-Serif" font-size="10.00" fill="#000000">xla::LocalClientOptions</text>
<text text-anchor="middle" x="59" y="-7.5" font-family="Helvetica,sans-Serif" font-size="10.00" fill="#000000">::set_platform</text>
</g>
<!-- Node21 -->
<g id="node2" class="node">
<title>Node21</title>
<g id="a_node2"><a xlink:href="../../df/d22/classxla_1_1LocalClientOptions.html#a20eaa49de3fd86a69c97a59f1817f86c" target="_top" xlink:title="xla::LocalClientOptions\l::platform">
<polygon fill="#ffffff" stroke="#000000" points="154,-.5 154,-30.5 272,-30.5 272,-.5 154,-.5"/>
<text text-anchor="start" x="162" y="-18.5" font-family="Helvetica,sans-Serif" font-size="10.00" fill="#000000">xla::LocalClientOptions</text>
<text text-anchor="middle" x="213" y="-7.5" font-family="Helvetica,sans-Serif" font-size="10.00" fill="#000000">::platform</text>
</a>
</g>
</g>
<!-- Node20&#45;&gt;Node21 -->
<g id="edge1" class="edge">
<title>Node20&#45;&gt;Node21</title>
<path fill="none" stroke="#191970" d="M118.1,-15.5C126.4218,-15.5 135.0389,-15.5 143.5326,-15.5"/>
<polygon fill="#191970" stroke="#191970" points="143.8037,-19.0001 153.8037,-15.5 143.8037,-12.0001 143.8037,-19.0001"/>
</g>
</g>
</svg>
