<?xml version="1.0" encoding="UTF-8" standalone="no"?>
<!DOCTYPE svg PUBLIC "-//W3C//DTD SVG 1.1//EN"
 "http://www.w3.org/Graphics/SVG/1.1/DTD/svg11.dtd">
<!-- Generated by graphviz version 2.40.1 (20161225.0304)
 -->
<!-- Title: tensorflow/tensorflow/compiler/xla/service/hlo_dce.h Pages: 1 -->
<svg width="3104pt" height="284pt"
 viewBox="0.00 0.00 3104.00 284.00" xmlns="http://www.w3.org/2000/svg" xmlns:xlink="http://www.w3.org/1999/xlink">
<g id="graph0" class="graph" transform="scale(1 1) rotate(0) translate(4 280)">
<title>tensorflow/tensorflow/compiler/xla/service/hlo_dce.h</title>
<polygon fill="#ffffff" stroke="transparent" points="-4,4 -4,-280 3100,-280 3100,4 -4,4"/>
<!-- Node0 -->
<g id="node1" class="node">
<title>Node0</title>
<polygon fill="#bfbfbf" stroke="#000000" points="1438.5,-234.5 1438.5,-275.5 1548.5,-275.5 1548.5,-234.5 1438.5,-234.5"/>
<text text-anchor="start" x="1446.5" y="-263.5" font-family="Helvetica,sans-Serif" font-size="10.00" fill="#000000">tensorflow/tensorflow</text>
<text text-anchor="start" x="1446.5" y="-252.5" font-family="Helvetica,sans-Serif" font-size="10.00" fill="#000000">/compiler/xla/service</text>
<text text-anchor="middle" x="1493.5" y="-241.5" font-family="Helvetica,sans-Serif" font-size="10.00" fill="#000000">/hlo_dce.h</text>
</g>
<!-- Node1 -->
<g id="node2" class="node">
<title>Node1</title>
<g id="a_node2"><a xlink:href="../../d2/d31/hlo__computation_8h.html" target="_top" xlink:title="tensorflow/compiler\l/xla/service/hlo_computation.h">
<polygon fill="#ffffff" stroke="#000000" points="1419,-84 1419,-114 1568,-114 1568,-84 1419,-84"/>
<text text-anchor="start" x="1427" y="-102" font-family="Helvetica,sans-Serif" font-size="10.00" fill="#000000">tensorflow/compiler</text>
<text text-anchor="middle" x="1493.5" y="-91" font-family="Helvetica,sans-Serif" font-size="10.00" fill="#000000">/xla/service/hlo_computation.h</text>
</a>
</g>
</g>
<!-- Node0&#45;&gt;Node1 -->
<g id="edge1" class="edge">
<title>Node0&#45;&gt;Node1</title>
<path fill="none" stroke="#191970" d="M1493.5,-234.2844C1493.5,-205.9391 1493.5,-155.0999 1493.5,-124.4643"/>
<polygon fill="#191970" stroke="#191970" points="1497.0001,-124.1707 1493.5,-114.1708 1490.0001,-124.1708 1497.0001,-124.1707"/>
</g>
<!-- Node14 -->
<g id="node15" class="node">
<title>Node14</title>
<polygon fill="#ffffff" stroke="#bfbfbf" points="0,-6 0,-36 141,-36 141,-6 0,-6"/>
<text text-anchor="start" x="8" y="-24" font-family="Helvetica,sans-Serif" font-size="10.00" fill="#000000">tensorflow/compiler</text>
<text text-anchor="middle" x="70.5" y="-13" font-family="Helvetica,sans-Serif" font-size="10.00" fill="#000000">/xla/service/hlo_instruction.h</text>
</g>
<!-- Node0&#45;&gt;Node14 -->
<g id="edge27" class="edge">
<title>Node0&#45;&gt;Node14</title>
<path fill="none" stroke="#191970" d="M1438.2619,-249.7377C1332.7741,-239.6876 1095.351,-217.0647 895.5,-198 532.3863,-163.361 334.5426,-379.7954 78.5,-120 59.6915,-100.9159 60.7688,-68.5239 64.5206,-46.011"/>
<polygon fill="#191970" stroke="#191970" points="67.9649,-46.6342 66.436,-36.1503 61.0933,-45.2994 67.9649,-46.6342"/>
</g>
<!-- Node18 -->
<g id="node19" class="node">
<title>Node18</title>
<polygon fill="#ffffff" stroke="#bfbfbf" points="2995,-6 2995,-36 3096,-36 3096,-6 2995,-6"/>
<text text-anchor="start" x="3003" y="-24" font-family="Helvetica,sans-Serif" font-size="10.00" fill="#000000">tensorflow/compiler</text>
<text text-anchor="middle" x="3045.5" y="-13" font-family="Helvetica,sans-Serif" font-size="10.00" fill="#000000">/xla/statusor.h</text>
</g>
<!-- Node0&#45;&gt;Node18 -->
<g id="edge49" class="edge">
<title>Node0&#45;&gt;Node18</title>
<path fill="none" stroke="#191970" d="M1511.192,-234.429C1532.8645,-210.8349 1571.9761,-173.1992 1614.5,-156 2181.3284,73.2591 2387.4732,-169.3508 2985.5,-42 2989.396,-41.1703 2993.3862,-40.1572 2997.3664,-39.0287"/>
<polygon fill="#191970" stroke="#191970" points="2998.6427,-42.2985 3007.1807,-36.0252 2996.5942,-35.6049 2998.6427,-42.2985"/>
</g>
<!-- Node27 -->
<g id="node28" class="node">
<title>Node27</title>
<g id="a_node28"><a xlink:href="../../db/da0/hlo__module_8h.html" target="_top" xlink:title="tensorflow/compiler\l/xla/service/hlo_module.h">
<polygon fill="#ffffff" stroke="#000000" points="904.5,-162 904.5,-192 1032.5,-192 1032.5,-162 904.5,-162"/>
<text text-anchor="start" x="912.5" y="-180" font-family="Helvetica,sans-Serif" font-size="10.00" fill="#000000">tensorflow/compiler</text>
<text text-anchor="middle" x="968.5" y="-169" font-family="Helvetica,sans-Serif" font-size="10.00" fill="#000000">/xla/service/hlo_module.h</text>
</a>
</g>
</g>
<!-- Node0&#45;&gt;Node27 -->
<g id="edge28" class="edge">
<title>Node0&#45;&gt;Node27</title>
<path fill="none" stroke="#191970" d="M1438.3081,-246.8001C1343.4339,-232.7045 1149.3654,-203.8714 1042.742,-188.0302"/>
<polygon fill="#191970" stroke="#191970" points="1043.1087,-184.5464 1032.7029,-186.5387 1042.0799,-191.4704 1043.1087,-184.5464"/>
</g>
<!-- Node35 -->
<g id="node36" class="node">
<title>Node35</title>
<polygon fill="#ffffff" stroke="#bfbfbf" points="1624,-156.5 1624,-197.5 1733,-197.5 1733,-156.5 1624,-156.5"/>
<text text-anchor="start" x="1632" y="-185.5" font-family="Helvetica,sans-Serif" font-size="10.00" fill="#000000">tensorflow/compiler</text>
<text text-anchor="start" x="1632" y="-174.5" font-family="Helvetica,sans-Serif" font-size="10.00" fill="#000000">/xla/service/hlo_pass</text>
<text text-anchor="middle" x="1678.5" y="-163.5" font-family="Helvetica,sans-Serif" font-size="10.00" fill="#000000">_interface.h</text>
</g>
<!-- Node0&#45;&gt;Node35 -->
<g id="edge48" class="edge">
<title>Node0&#45;&gt;Node35</title>
<path fill="none" stroke="#191970" d="M1542.5909,-234.3022C1566.5105,-224.2172 1595.4385,-212.0205 1620.4473,-201.4763"/>
<polygon fill="#191970" stroke="#191970" points="1621.9669,-204.634 1629.8216,-197.5239 1619.2474,-198.1839 1621.9669,-204.634"/>
</g>
<!-- Node2 -->
<g id="node3" class="node">
<title>Node2</title>
<polygon fill="#ffffff" stroke="#bfbfbf" points="863,-11.5 863,-30.5 892,-30.5 892,-11.5 863,-11.5"/>
<text text-anchor="middle" x="877.5" y="-18.5" font-family="Helvetica,sans-Serif" font-size="10.00" fill="#000000">list</text>
</g>
<!-- Node1&#45;&gt;Node2 -->
<g id="edge2" class="edge">
<title>Node1&#45;&gt;Node2</title>
<path fill="none" stroke="#191970" d="M1418.8716,-97.4799C1281.1287,-93.7488 992.6876,-81.3524 901.5,-42 898.7359,-40.8071 896.0633,-39.1736 893.5679,-37.3404"/>
<polygon fill="#191970" stroke="#191970" points="895.7414,-34.5926 885.8919,-30.689 891.1574,-39.8828 895.7414,-34.5926"/>
</g>
<!-- Node3 -->
<g id="node4" class="node">
<title>Node3</title>
<polygon fill="#ffffff" stroke="#bfbfbf" points="910.5,-11.5 910.5,-30.5 962.5,-30.5 962.5,-11.5 910.5,-11.5"/>
<text text-anchor="middle" x="936.5" y="-18.5" font-family="Helvetica,sans-Serif" font-size="10.00" fill="#000000">memory</text>
</g>
<!-- Node1&#45;&gt;Node3 -->
<g id="edge3" class="edge">
<title>Node1&#45;&gt;Node3</title>
<path fill="none" stroke="#191970" d="M1418.7774,-94.7954C1294.8719,-87.1639 1052.503,-69.257 971.5,-42 966.996,-40.4844 962.4498,-38.3218 958.1928,-35.9551"/>
<polygon fill="#191970" stroke="#191970" points="959.8215,-32.8486 949.4637,-30.6201 956.1711,-38.8215 959.8215,-32.8486"/>
</g>
<!-- Node4 -->
<g id="node5" class="node">
<title>Node4</title>
<polygon fill="#ffffff" stroke="#bfbfbf" points="981,-11.5 981,-30.5 1022,-30.5 1022,-11.5 981,-11.5"/>
<text text-anchor="middle" x="1001.5" y="-18.5" font-family="Helvetica,sans-Serif" font-size="10.00" fill="#000000">string</text>
</g>
<!-- Node1&#45;&gt;Node4 -->
<g id="edge4" class="edge">
<title>Node1&#45;&gt;Node4</title>
<path fill="none" stroke="#191970" d="M1418.8497,-94.3534C1306.4256,-86.5918 1099.4654,-69.1162 1030.5,-42 1026.935,-40.5983 1023.4058,-38.6545 1020.1019,-36.5109"/>
<polygon fill="#191970" stroke="#191970" points="1022.1526,-33.6746 1012.0122,-30.6049 1018.0251,-39.3282 1022.1526,-33.6746"/>
</g>
<!-- Node5 -->
<g id="node6" class="node">
<title>Node5</title>
<polygon fill="#ffffff" stroke="#bfbfbf" points="1040,-11.5 1040,-30.5 1123,-30.5 1123,-11.5 1040,-11.5"/>
<text text-anchor="middle" x="1081.5" y="-18.5" font-family="Helvetica,sans-Serif" font-size="10.00" fill="#000000">unordered_map</text>
</g>
<!-- Node1&#45;&gt;Node5 -->
<g id="edge5" class="edge">
<title>Node1&#45;&gt;Node5</title>
<path fill="none" stroke="#191970" d="M1418.7781,-92.3555C1345.0031,-84.5975 1229.4802,-69.2168 1132.5,-42 1125.5625,-40.0531 1118.2969,-37.4362 1111.4955,-34.7115"/>
<polygon fill="#191970" stroke="#191970" points="1112.5305,-31.3502 1101.9552,-30.7079 1109.8217,-37.8049 1112.5305,-31.3502"/>
</g>
<!-- Node6 -->
<g id="node7" class="node">
<title>Node6</title>
<polygon fill="#ffffff" stroke="#bfbfbf" points="1839.5,-11.5 1839.5,-30.5 1917.5,-30.5 1917.5,-11.5 1839.5,-11.5"/>
<text text-anchor="middle" x="1878.5" y="-18.5" font-family="Helvetica,sans-Serif" font-size="10.00" fill="#000000">unordered_set</text>
</g>
<!-- Node1&#45;&gt;Node6 -->
<g id="edge6" class="edge">
<title>Node1&#45;&gt;Node6</title>
<path fill="none" stroke="#191970" d="M1553.4617,-83.9239C1562.8171,-81.7939 1572.3979,-79.7403 1581.5,-78 1691.3278,-57.001 1722.9757,-72.686 1830.5,-42 1837.0437,-40.1325 1843.862,-37.5631 1850.2357,-34.8615"/>
<polygon fill="#191970" stroke="#191970" points="1852.0842,-37.8688 1859.782,-30.5891 1849.2247,-31.4795 1852.0842,-37.8688"/>
</g>
<!-- Node7 -->
<g id="node8" class="node">
<title>Node7</title>
<polygon fill="#ffffff" stroke="#bfbfbf" points="1935.5,-11.5 1935.5,-30.5 1975.5,-30.5 1975.5,-11.5 1935.5,-11.5"/>
<text text-anchor="middle" x="1955.5" y="-18.5" font-family="Helvetica,sans-Serif" font-size="10.00" fill="#000000">utility</text>
</g>
<!-- Node1&#45;&gt;Node7 -->
<g id="edge7" class="edge">
<title>Node1&#45;&gt;Node7</title>
<path fill="none" stroke="#191970" d="M1551.9773,-83.9224C1561.7895,-81.7159 1571.9007,-79.639 1581.5,-78 1733.4666,-52.0526 1782.5097,-97.0808 1926.5,-42 1930.0779,-40.6314 1933.6137,-38.7047 1936.9203,-36.5681"/>
<polygon fill="#191970" stroke="#191970" points="1938.9978,-39.3849 1945.0095,-30.6608 1934.8695,-33.7318 1938.9978,-39.3849"/>
</g>
<!-- Node8 -->
<g id="node9" class="node">
<title>Node8</title>
<polygon fill="#ffffff" stroke="#bfbfbf" points="1141.5,-11.5 1141.5,-30.5 1185.5,-30.5 1185.5,-11.5 1141.5,-11.5"/>
<text text-anchor="middle" x="1163.5" y="-18.5" font-family="Helvetica,sans-Serif" font-size="10.00" fill="#000000">vector</text>
</g>
<!-- Node1&#45;&gt;Node8 -->
<g id="edge8" class="edge">
<title>Node1&#45;&gt;Node8</title>
<path fill="none" stroke="#191970" d="M1418.9105,-93.2459C1356.9196,-86.4968 1267.3912,-72.1237 1194.5,-42 1190.8616,-40.4963 1187.2097,-38.5288 1183.7543,-36.4011"/>
<polygon fill="#191970" stroke="#191970" points="1185.451,-33.3227 1175.2111,-30.6032 1181.5201,-39.1148 1185.451,-33.3227"/>
</g>
<!-- Node9 -->
<g id="node10" class="node">
<title>Node9</title>
<polygon fill="#ffffff" stroke="#bfbfbf" points="1204,-6 1204,-36 1305,-36 1305,-6 1204,-6"/>
<text text-anchor="start" x="1212" y="-24" font-family="Helvetica,sans-Serif" font-size="10.00" fill="#000000">tensorflow/compiler</text>
<text text-anchor="middle" x="1254.5" y="-13" font-family="Helvetica,sans-Serif" font-size="10.00" fill="#000000">/xla/iterator_util.h</text>
</g>
<!-- Node1&#45;&gt;Node9 -->
<g id="edge9" class="edge">
<title>Node1&#45;&gt;Node9</title>
<path fill="none" stroke="#191970" d="M1444.7562,-83.8887C1408.6947,-72.6094 1358.4246,-56.6771 1314.5,-42 1311.9388,-41.1442 1309.319,-40.2601 1306.6753,-39.361"/>
<polygon fill="#191970" stroke="#191970" points="1307.654,-35.9966 1297.0594,-36.0632 1305.3831,-42.618 1307.654,-35.9966"/>
</g>
<!-- Node10 -->
<g id="node11" class="node">
<title>Node10</title>
<polygon fill="#ffffff" stroke="#bfbfbf" points="1994,-6 1994,-36 2095,-36 2095,-6 1994,-6"/>
<text text-anchor="start" x="2002" y="-24" font-family="Helvetica,sans-Serif" font-size="10.00" fill="#000000">tensorflow/compiler</text>
<text text-anchor="middle" x="2044.5" y="-13" font-family="Helvetica,sans-Serif" font-size="10.00" fill="#000000">/xla/map_util.h</text>
</g>
<!-- Node1&#45;&gt;Node10 -->
<g id="edge10" class="edge">
<title>Node1&#45;&gt;Node10</title>
<path fill="none" stroke="#191970" d="M1551.4821,-83.9055C1561.4449,-81.6735 1571.7338,-79.5929 1581.5,-78 1758.9793,-49.0535 1808.7351,-79.9933 1984.5,-42 1988.3345,-41.1711 1992.2609,-40.1676 1996.1799,-39.0538"/>
<polygon fill="#191970" stroke="#191970" points="1997.3111,-42.3679 2005.8492,-36.0949 1995.2628,-35.6743 1997.3111,-42.3679"/>
</g>
<!-- Node11 -->
<g id="node12" class="node">
<title>Node11</title>
<polygon fill="#ffffff" stroke="#bfbfbf" points="2113,-.5 2113,-41.5 2214,-41.5 2214,-.5 2113,-.5"/>
<text text-anchor="start" x="2121" y="-29.5" font-family="Helvetica,sans-Serif" font-size="10.00" fill="#000000">tensorflow/compiler</text>
<text text-anchor="start" x="2121" y="-18.5" font-family="Helvetica,sans-Serif" font-size="10.00" fill="#000000">/xla/service/dfs_hlo</text>
<text text-anchor="middle" x="2163.5" y="-7.5" font-family="Helvetica,sans-Serif" font-size="10.00" fill="#000000">_visitor.h</text>
</g>
<!-- Node1&#45;&gt;Node11 -->
<g id="edge11" class="edge">
<title>Node1&#45;&gt;Node11</title>
<path fill="none" stroke="#191970" d="M1550.5073,-83.9481C1560.7671,-81.6539 1571.4076,-79.5414 1581.5,-78 1808.1302,-43.3875 1873.8581,-87.5461 2102.7347,-41.8458"/>
<polygon fill="#191970" stroke="#191970" points="2103.5967,-45.2423 2112.6991,-39.8205 2102.2023,-38.3826 2103.5967,-45.2423"/>
</g>
<!-- Node12 -->
<g id="node13" class="node">
<title>Node12</title>
<polygon fill="#ffffff" stroke="#bfbfbf" points="2232.5,-.5 2232.5,-41.5 2346.5,-41.5 2346.5,-.5 2232.5,-.5"/>
<text text-anchor="start" x="2240.5" y="-29.5" font-family="Helvetica,sans-Serif" font-size="10.00" fill="#000000">tensorflow/compiler</text>
<text text-anchor="start" x="2240.5" y="-18.5" font-family="Helvetica,sans-Serif" font-size="10.00" fill="#000000">/xla/service/dfs_hlo</text>
<text text-anchor="middle" x="2289.5" y="-7.5" font-family="Helvetica,sans-Serif" font-size="10.00" fill="#000000">_visitor_with_default.h</text>
</g>
<!-- Node1&#45;&gt;Node12 -->
<g id="edge12" class="edge">
<title>Node1&#45;&gt;Node12</title>
<path fill="none" stroke="#191970" d="M1550.0179,-83.946C1560.425,-81.622 1571.2426,-79.4997 1581.5,-78 1863.8361,-36.7202 1941.768,-93.0611 2222.5,-42 2222.6012,-41.9816 2222.7024,-41.9631 2222.8038,-41.9445"/>
<polygon fill="#191970" stroke="#191970" points="2223.2874,-45.4194 2232.352,-39.9346 2221.8455,-38.5695 2223.2874,-45.4194"/>
</g>
<!-- Node13 -->
<g id="node14" class="node">
<title>Node13</title>
<polygon fill="#ffffff" stroke="#bfbfbf" points="1323.5,-6 1323.5,-36 1427.5,-36 1427.5,-6 1323.5,-6"/>
<text text-anchor="start" x="1331.5" y="-24" font-family="Helvetica,sans-Serif" font-size="10.00" fill="#000000">tensorflow/compiler</text>
<text text-anchor="middle" x="1375.5" y="-13" font-family="Helvetica,sans-Serif" font-size="10.00" fill="#000000">/xla/service/hlo.pb.h</text>
</g>
<!-- Node1&#45;&gt;Node13 -->
<g id="edge13" class="edge">
<title>Node1&#45;&gt;Node13</title>
<path fill="none" stroke="#191970" d="M1470.7484,-83.9608C1452.6635,-72.0064 1427.1598,-55.148 1407.0937,-41.884"/>
<polygon fill="#191970" stroke="#191970" points="1408.8566,-38.8538 1398.5844,-36.2592 1404.9965,-44.6933 1408.8566,-38.8538"/>
</g>
<!-- Node1&#45;&gt;Node14 -->
<g id="edge14" class="edge">
<title>Node1&#45;&gt;Node14</title>
<path fill="none" stroke="#191970" d="M1418.7017,-96.2045C1233.4834,-89.0955 738.6635,-68.9634 326.5,-42 267.8009,-38.1599 201.6231,-32.7015 151.2593,-28.3121"/>
<polygon fill="#191970" stroke="#191970" points="151.3501,-24.8067 141.0829,-27.421 150.7394,-31.7801 151.3501,-24.8067"/>
</g>
<!-- Node15 -->
<g id="node16" class="node">
<title>Node15</title>
<polygon fill="#ffffff" stroke="#bfbfbf" points="2365,-6 2365,-36 2510,-36 2510,-6 2365,-6"/>
<text text-anchor="start" x="2373" y="-24" font-family="Helvetica,sans-Serif" font-size="10.00" fill="#000000">tensorflow/compiler</text>
<text text-anchor="middle" x="2437.5" y="-13" font-family="Helvetica,sans-Serif" font-size="10.00" fill="#000000">/xla/service/hlo_reachability.h</text>
</g>
<!-- Node1&#45;&gt;Node15 -->
<g id="edge15" class="edge">
<title>Node1&#45;&gt;Node15</title>
<path fill="none" stroke="#191970" d="M1549.5334,-83.9698C1560.0865,-81.6124 1571.08,-79.4723 1581.5,-78 1922.4849,-29.8202 2014.923,-92.9834 2355.5,-42 2362.0424,-41.0206 2368.8194,-39.7363 2375.5462,-38.2847"/>
<polygon fill="#191970" stroke="#191970" points="2376.3606,-41.6889 2385.3327,-36.0541 2374.805,-34.8639 2376.3606,-41.6889"/>
</g>
<!-- Node16 -->
<g id="node17" class="node">
<title>Node16</title>
<polygon fill="#ffffff" stroke="#bfbfbf" points="335.5,-6 335.5,-36 473.5,-36 473.5,-6 335.5,-6"/>
<text text-anchor="start" x="343.5" y="-24" font-family="Helvetica,sans-Serif" font-size="10.00" fill="#000000">tensorflow/compiler</text>
<text text-anchor="middle" x="404.5" y="-13" font-family="Helvetica,sans-Serif" font-size="10.00" fill="#000000">/xla/service/name_uniquer.h</text>
</g>
<!-- Node1&#45;&gt;Node16 -->
<g id="edge16" class="edge">
<title>Node1&#45;&gt;Node16</title>
<path fill="none" stroke="#191970" d="M1418.9073,-94.9483C1267.9015,-86.5665 915.2254,-66.0793 619.5,-42 574.5297,-38.3383 524.3447,-33.4805 483.7776,-29.3593"/>
<polygon fill="#191970" stroke="#191970" points="483.9839,-25.8623 473.6802,-28.3287 483.2731,-32.8261 483.9839,-25.8623"/>
</g>
<!-- Node17 -->
<g id="node18" class="node">
<title>Node17</title>
<polygon fill="#ffffff" stroke="#bfbfbf" points="2528,-6 2528,-36 2629,-36 2629,-6 2528,-6"/>
<text text-anchor="start" x="2536" y="-24" font-family="Helvetica,sans-Serif" font-size="10.00" fill="#000000">tensorflow/compiler</text>
<text text-anchor="middle" x="2578.5" y="-13" font-family="Helvetica,sans-Serif" font-size="10.00" fill="#000000">/xla/shape_tree.h</text>
</g>
<!-- Node1&#45;&gt;Node17 -->
<g id="edge17" class="edge">
<title>Node1&#45;&gt;Node17</title>
<path fill="none" stroke="#191970" d="M1549.5238,-83.901C1560.0778,-81.5502 1571.0741,-79.4302 1581.5,-78 1994.3849,-21.3607 2109.0556,-119.6995 2518.5,-42 2522.6474,-41.213 2526.8948,-40.1923 2531.1199,-39.0254"/>
<polygon fill="#191970" stroke="#191970" points="2532.3188,-42.3195 2540.8802,-36.0783 2530.2954,-35.6184 2532.3188,-42.3195"/>
</g>
<!-- Node1&#45;&gt;Node18 -->
<g id="edge18" class="edge">
<title>Node1&#45;&gt;Node18</title>
<path fill="none" stroke="#191970" d="M1549.0369,-83.8971C1559.7361,-81.5144 1570.9094,-79.384 1581.5,-78 1890.9712,-37.5578 2678.5046,-98.2302 2985.5,-42 2989.7134,-41.2283 2994.0283,-40.2078 2998.3171,-39.0319"/>
<polygon fill="#191970" stroke="#191970" points="2999.6517,-42.2852 3008.2171,-36.0494 2997.6325,-35.5828 2999.6517,-42.2852"/>
</g>
<!-- Node19 -->
<g id="node20" class="node">
<title>Node19</title>
<polygon fill="#ffffff" stroke="#bfbfbf" points="629,-6 629,-36 730,-36 730,-6 629,-6"/>
<text text-anchor="start" x="637" y="-24" font-family="Helvetica,sans-Serif" font-size="10.00" fill="#000000">tensorflow/compiler</text>
<text text-anchor="middle" x="679.5" y="-13" font-family="Helvetica,sans-Serif" font-size="10.00" fill="#000000">/xla/types.h</text>
</g>
<!-- Node1&#45;&gt;Node19 -->
<g id="edge19" class="edge">
<title>Node1&#45;&gt;Node19</title>
<path fill="none" stroke="#191970" d="M1418.877,-95.8391C1254.954,-88.4922 867.8384,-68.8267 739.5,-42 735.6009,-41.185 731.6085,-40.1823 727.6267,-39.0611"/>
<polygon fill="#191970" stroke="#191970" points="728.396,-35.6367 717.81,-36.0694 726.3553,-42.3326 728.396,-35.6367"/>
</g>
<!-- Node20 -->
<g id="node21" class="node">
<title>Node20</title>
<polygon fill="#ffffff" stroke="#bfbfbf" points="2647,-6 2647,-36 2748,-36 2748,-6 2647,-6"/>
<text text-anchor="start" x="2655" y="-24" font-family="Helvetica,sans-Serif" font-size="10.00" fill="#000000">tensorflow/compiler</text>
<text text-anchor="middle" x="2697.5" y="-13" font-family="Helvetica,sans-Serif" font-size="10.00" fill="#000000">/xla/xla_data.pb.h</text>
</g>
<!-- Node1&#45;&gt;Node20 -->
<g id="edge20" class="edge">
<title>Node1&#45;&gt;Node20</title>
<path fill="none" stroke="#191970" d="M1549.0465,-83.9694C1559.7449,-81.5801 1570.9154,-79.4287 1581.5,-78 2046.8857,-15.1835 2175.9398,-128.5561 2637.5,-42 2641.649,-41.2219 2645.8977,-40.2076 2650.1236,-39.0449"/>
<polygon fill="#191970" stroke="#191970" points="2651.3198,-42.34 2659.8851,-36.1041 2649.3006,-35.6375 2651.3198,-42.34"/>
</g>
<!-- Node21 -->
<g id="node22" class="node">
<title>Node21</title>
<polygon fill="#ffffff" stroke="#bfbfbf" points="2766.5,-6 2766.5,-36 2862.5,-36 2862.5,-6 2766.5,-6"/>
<text text-anchor="start" x="2774.5" y="-24" font-family="Helvetica,sans-Serif" font-size="10.00" fill="#000000">tensorflow/core/lib</text>
<text text-anchor="middle" x="2814.5" y="-13" font-family="Helvetica,sans-Serif" font-size="10.00" fill="#000000">/core/status.h</text>
</g>
<!-- Node1&#45;&gt;Node21 -->
<g id="edge21" class="edge">
<title>Node1&#45;&gt;Node21</title>
<path fill="none" stroke="#191970" d="M1549.0425,-83.9399C1559.7413,-81.5533 1570.9129,-79.4104 1581.5,-78 1840.4458,-43.5028 2499.9186,-91.0816 2756.5,-42 2760.5825,-41.2191 2764.7602,-40.1922 2768.9105,-39.012"/>
<polygon fill="#191970" stroke="#191970" points="2769.9839,-42.3436 2778.4871,-36.0232 2767.8984,-35.6614 2769.9839,-42.3436"/>
</g>
<!-- Node22 -->
<g id="node23" class="node">
<title>Node22</title>
<polygon fill="#ffffff" stroke="#bfbfbf" points="748.5,-6 748.5,-36 844.5,-36 844.5,-6 748.5,-6"/>
<text text-anchor="start" x="756.5" y="-24" font-family="Helvetica,sans-Serif" font-size="10.00" fill="#000000">tensorflow/core/lib</text>
<text text-anchor="middle" x="796.5" y="-13" font-family="Helvetica,sans-Serif" font-size="10.00" fill="#000000">/gtl/array_slice.h</text>
</g>
<!-- Node1&#45;&gt;Node22 -->
<g id="edge22" class="edge">
<title>Node1&#45;&gt;Node22</title>
<path fill="none" stroke="#191970" d="M1418.7646,-94.8273C1273.7922,-86.3239 959.347,-65.7705 853.5,-42 849.8921,-41.1898 846.2033,-40.2075 842.5234,-39.1156"/>
<polygon fill="#191970" stroke="#191970" points="843.4562,-35.7392 832.8649,-36.0119 841.3146,-42.4035 843.4562,-35.7392"/>
</g>
<!-- Node23 -->
<g id="node24" class="node">
<title>Node23</title>
<polygon fill="#ffffff" stroke="#bfbfbf" points="2880.5,-6 2880.5,-36 2976.5,-36 2976.5,-6 2880.5,-6"/>
<text text-anchor="start" x="2888.5" y="-24" font-family="Helvetica,sans-Serif" font-size="10.00" fill="#000000">tensorflow/core/lib</text>
<text text-anchor="middle" x="2928.5" y="-13" font-family="Helvetica,sans-Serif" font-size="10.00" fill="#000000">/gtl/flatmap.h</text>
</g>
<!-- Node1&#45;&gt;Node23 -->
<g id="edge23" class="edge">
<title>Node1&#45;&gt;Node23</title>
<path fill="none" stroke="#191970" d="M1549.0394,-83.9165C1559.7384,-81.532 1570.911,-79.396 1581.5,-78 1865.8182,-40.5174 2589.9067,-96.286 2871.5,-42 2875.4075,-41.2467 2879.4016,-40.2592 2883.3717,-39.1229"/>
<polygon fill="#191970" stroke="#191970" points="2884.6471,-42.3906 2893.1282,-36.0406 2882.5384,-35.7158 2884.6471,-42.3906"/>
</g>
<!-- Node24 -->
<g id="node25" class="node">
<title>Node24</title>
<polygon fill="#ffffff" stroke="#bfbfbf" points="1445.5,-6 1445.5,-36 1541.5,-36 1541.5,-6 1445.5,-6"/>
<text text-anchor="start" x="1453.5" y="-24" font-family="Helvetica,sans-Serif" font-size="10.00" fill="#000000">tensorflow/core/lib</text>
<text text-anchor="middle" x="1493.5" y="-13" font-family="Helvetica,sans-Serif" font-size="10.00" fill="#000000">/gtl/flatset.h</text>
</g>
<!-- Node1&#45;&gt;Node24 -->
<g id="edge24" class="edge">
<title>Node1&#45;&gt;Node24</title>
<path fill="none" stroke="#191970" d="M1493.5,-83.9608C1493.5,-73.3466 1493.5,-58.8663 1493.5,-46.4685"/>
<polygon fill="#191970" stroke="#191970" points="1497.0001,-46.2591 1493.5,-36.2592 1490.0001,-46.2592 1497.0001,-46.2591"/>
</g>
<!-- Node25 -->
<g id="node26" class="node">
<title>Node25</title>
<polygon fill="#ffffff" stroke="#bfbfbf" points="1559.5,-6 1559.5,-36 1681.5,-36 1681.5,-6 1559.5,-6"/>
<text text-anchor="start" x="1567.5" y="-24" font-family="Helvetica,sans-Serif" font-size="10.00" fill="#000000">tensorflow/core/platform</text>
<text text-anchor="middle" x="1620.5" y="-13" font-family="Helvetica,sans-Serif" font-size="10.00" fill="#000000">/macros.h</text>
</g>
<!-- Node1&#45;&gt;Node25 -->
<g id="edge25" class="edge">
<title>Node1&#45;&gt;Node25</title>
<path fill="none" stroke="#191970" d="M1517.9869,-83.9608C1537.6257,-71.8992 1565.393,-54.8452 1587.0762,-41.528"/>
<polygon fill="#191970" stroke="#191970" points="1588.9655,-44.4751 1595.655,-36.2592 1585.302,-38.5103 1588.9655,-44.4751"/>
</g>
<!-- Node26 -->
<g id="node27" class="node">
<title>Node26</title>
<polygon fill="#ffffff" stroke="#bfbfbf" points="1699.5,-6 1699.5,-36 1821.5,-36 1821.5,-6 1699.5,-6"/>
<text text-anchor="start" x="1707.5" y="-24" font-family="Helvetica,sans-Serif" font-size="10.00" fill="#000000">tensorflow/core/platform</text>
<text text-anchor="middle" x="1760.5" y="-13" font-family="Helvetica,sans-Serif" font-size="10.00" fill="#000000">/types.h</text>
</g>
<!-- Node1&#45;&gt;Node26 -->
<g id="edge26" class="edge">
<title>Node1&#45;&gt;Node26</title>
<path fill="none" stroke="#191970" d="M1546.2181,-83.8985C1585.9159,-72.4898 1641.662,-56.3907 1690.5,-42 1693.826,-41.02 1697.2395,-40.0099 1700.6841,-38.9873"/>
<polygon fill="#191970" stroke="#191970" points="1701.841,-42.2947 1710.4266,-36.087 1699.8437,-35.5857 1701.841,-42.2947"/>
</g>
<!-- Node27&#45;&gt;Node1 -->
<g id="edge38" class="edge">
<title>Node27&#45;&gt;Node1</title>
<path fill="none" stroke="#191970" d="M1032.6127,-167.4747C1127.082,-153.4392 1303.806,-127.1831 1408.8355,-111.5787"/>
<polygon fill="#191970" stroke="#191970" points="1409.3936,-115.0343 1418.7707,-110.1026 1408.3649,-108.1103 1409.3936,-115.0343"/>
</g>
<!-- Node27&#45;&gt;Node2 -->
<g id="edge30" class="edge">
<title>Node27&#45;&gt;Node2</title>
<path fill="none" stroke="#191970" d="M981.5254,-161.6814C997.3617,-141.0977 1019.835,-104.0876 1001.5,-78 974.3383,-39.3535 942.2037,-65.9691 901.5,-42 899.2458,-40.6726 897.0061,-39.1198 894.8524,-37.47"/>
<polygon fill="#191970" stroke="#191970" points="897.009,-34.7096 887.1233,-30.8986 892.4748,-40.0426 897.009,-34.7096"/>
</g>
<!-- Node27&#45;&gt;Node3 -->
<g id="edge31" class="edge">
<title>Node27&#45;&gt;Node3</title>
<path fill="none" stroke="#191970" d="M997.8033,-161.9549C1013.2776,-152.2709 1030.8192,-138.1012 1039.5,-120 1047.5718,-103.1687 1049.1284,-93.9918 1039.5,-78 1021.8614,-48.7039 1001.2833,-58.8029 971.5,-42 967.9898,-40.0196 964.3118,-37.8827 960.7137,-35.7565"/>
<polygon fill="#191970" stroke="#191970" points="962.4542,-32.7192 952.0757,-30.5887 958.8603,-38.7263 962.4542,-32.7192"/>
</g>
<!-- Node27&#45;&gt;Node4 -->
<g id="edge33" class="edge">
<title>Node27&#45;&gt;Node4</title>
<path fill="none" stroke="#191970" d="M1008.682,-161.9573C1027.0527,-152.8193 1047.0206,-139.1558 1057.5,-120 1066.4588,-103.6237 1064.567,-95.2772 1057.5,-78 1050.715,-61.4124 1036.517,-47.0506 1024.1156,-36.8924"/>
<polygon fill="#191970" stroke="#191970" points="1025.9802,-33.9097 1015.9302,-30.5557 1021.6951,-39.4449 1025.9802,-33.9097"/>
</g>
<!-- Node27&#45;&gt;Node5 -->
<g id="edge34" class="edge">
<title>Node27&#45;&gt;Node5</title>
<path fill="none" stroke="#191970" d="M1020.1651,-161.8936C1040.8845,-153.1046 1062.8174,-139.7462 1075.5,-120 1090.8023,-96.175 1088.9211,-62.1081 1085.6183,-40.7883"/>
<polygon fill="#191970" stroke="#191970" points="1089.0113,-39.8816 1083.7913,-30.662 1082.1225,-41.1246 1089.0113,-39.8816"/>
</g>
<!-- Node27&#45;&gt;Node8 -->
<g id="edge35" class="edge">
<title>Node27&#45;&gt;Node8</title>
<path fill="none" stroke="#191970" d="M1018.9218,-161.9351C1044.1083,-152.6712 1073.9379,-138.9034 1096.5,-120 1123.2796,-97.563 1143.8112,-61.8257 1154.7322,-39.982"/>
<polygon fill="#191970" stroke="#191970" points="1157.9899,-41.2845 1159.1844,-30.7572 1151.6857,-38.2419 1157.9899,-41.2845"/>
</g>
<!-- Node27&#45;&gt;Node9 -->
<g id="edge36" class="edge">
<title>Node27&#45;&gt;Node9</title>
<path fill="none" stroke="#191970" d="M1025.2151,-161.9317C1056.9772,-152.2796 1096.674,-138.149 1129.5,-120 1168.2441,-98.579 1207.3622,-65.287 1231.2674,-43.315"/>
<polygon fill="#191970" stroke="#191970" points="1233.8346,-45.7069 1238.7686,-36.3311 1229.0647,-40.5837 1233.8346,-45.7069"/>
</g>
<!-- Node27&#45;&gt;Node13 -->
<g id="edge37" class="edge">
<title>Node27&#45;&gt;Node13</title>
<path fill="none" stroke="#191970" d="M1032.6015,-162.5576C1073.7671,-152.4813 1128.0301,-137.6934 1174.5,-120 1234.4058,-97.1908 1300.4742,-62.725 1339.9488,-41.0606"/>
<polygon fill="#191970" stroke="#191970" points="1341.8516,-44.0081 1348.9131,-36.1096 1338.4673,-37.8805 1341.8516,-44.0081"/>
</g>
<!-- Node27&#45;&gt;Node14 -->
<g id="edge39" class="edge">
<title>Node27&#45;&gt;Node14</title>
<path fill="none" stroke="#191970" d="M904.1994,-176.6158C715.7968,-174.956 174.2897,-166.1761 110.5,-120 86.9072,-102.9216 77.207,-69.5157 73.2334,-46.2569"/>
<polygon fill="#191970" stroke="#191970" points="76.6546,-45.4631 71.7439,-36.0751 69.7283,-46.4764 76.6546,-45.4631"/>
</g>
<!-- Node27&#45;&gt;Node16 -->
<g id="edge41" class="edge">
<title>Node27&#45;&gt;Node16</title>
<path fill="none" stroke="#191970" d="M904.1757,-175.0163C712.0337,-168.7816 153.9474,-148.3006 127.5,-120 65.4927,-53.6478 223.2913,-31.7074 325.4432,-24.495"/>
<polygon fill="#191970" stroke="#191970" points="325.71,-27.9851 335.4528,-23.8224 325.2406,-21.0008 325.71,-27.9851"/>
</g>
<!-- Node27&#45;&gt;Node19 -->
<g id="edge43" class="edge">
<title>Node27&#45;&gt;Node19</title>
<path fill="none" stroke="#191970" d="M967.2148,-161.9838C964.4883,-139.9973 956.087,-99.3468 930.5,-78 864.1692,-22.6615 822.9471,-64.3315 739.5,-42 736.3017,-41.1441 733.029,-40.2004 729.7433,-39.2012"/>
<polygon fill="#191970" stroke="#191970" points="730.499,-35.7688 719.9084,-36.0697 728.3751,-42.4388 730.499,-35.7688"/>
</g>
<!-- Node27&#45;&gt;Node22 -->
<g id="edge44" class="edge">
<title>Node27&#45;&gt;Node22</title>
<path fill="none" stroke="#191970" d="M972.5702,-161.8075C977.2511,-140.6947 982.0991,-102.3401 963.5,-78 932.2672,-37.1266 902.087,-58.8945 853.5,-42 851.2307,-41.2109 848.914,-40.396 846.5761,-39.5661"/>
<polygon fill="#191970" stroke="#191970" points="847.5087,-36.1822 836.9142,-36.0975 845.1435,-42.7705 847.5087,-36.1822"/>
</g>
<!-- Node28 -->
<g id="node29" class="node">
<title>Node28</title>
<polygon fill="#ffffff" stroke="#bfbfbf" points="136.5,-89.5 136.5,-108.5 182.5,-108.5 182.5,-89.5 136.5,-89.5"/>
<text text-anchor="middle" x="159.5" y="-96.5" font-family="Helvetica,sans-Serif" font-size="10.00" fill="#000000">atomic</text>
</g>
<!-- Node27&#45;&gt;Node28 -->
<g id="edge29" class="edge">
<title>Node27&#45;&gt;Node28</title>
<path fill="none" stroke="#191970" d="M904.4972,-176.4244C743.0871,-174.3177 322.9538,-164.5848 191.5,-120 187.3231,-118.5833 183.1609,-116.4896 179.2867,-114.165"/>
<polygon fill="#191970" stroke="#191970" points="181.151,-111.2011 170.8978,-108.5324 177.2489,-117.0126 181.151,-111.2011"/>
</g>
<!-- Node29 -->
<g id="node30" class="node">
<title>Node29</title>
<polygon fill="#ffffff" stroke="#bfbfbf" points="201,-89.5 201,-108.5 250,-108.5 250,-89.5 201,-89.5"/>
<text text-anchor="middle" x="225.5" y="-96.5" font-family="Helvetica,sans-Serif" font-size="10.00" fill="#000000">random</text>
</g>
<!-- Node27&#45;&gt;Node29 -->
<g id="edge32" class="edge">
<title>Node27&#45;&gt;Node29</title>
<path fill="none" stroke="#191970" d="M904.2691,-175.7923C752.8334,-172.3124 377.2881,-159.8164 258.5,-120 254.2263,-118.5675 249.9503,-116.4661 245.9605,-114.139"/>
<polygon fill="#191970" stroke="#191970" points="247.597,-111.0281 237.3062,-108.5079 243.7792,-116.8954 247.597,-111.0281"/>
</g>
<!-- Node30 -->
<g id="node31" class="node">
<title>Node30</title>
<polygon fill="#ffffff" stroke="#bfbfbf" points="268,-78.5 268,-119.5 387,-119.5 387,-78.5 268,-78.5"/>
<text text-anchor="start" x="276" y="-107.5" font-family="Helvetica,sans-Serif" font-size="10.00" fill="#000000">tensorflow/compiler</text>
<text text-anchor="start" x="276" y="-96.5" font-family="Helvetica,sans-Serif" font-size="10.00" fill="#000000">/xla/service/hlo_module</text>
<text text-anchor="middle" x="327.5" y="-85.5" font-family="Helvetica,sans-Serif" font-size="10.00" fill="#000000">_config.h</text>
</g>
<!-- Node27&#45;&gt;Node30 -->
<g id="edge40" class="edge">
<title>Node27&#45;&gt;Node30</title>
<path fill="none" stroke="#191970" d="M904.2852,-174.8045C799.5317,-170.3071 585.458,-157.2899 397.1139,-120.1408"/>
<polygon fill="#191970" stroke="#191970" points="397.5218,-116.6531 387.0295,-118.1234 396.1486,-123.5171 397.5218,-116.6531"/>
</g>
<!-- Node31 -->
<g id="node32" class="node">
<title>Node31</title>
<polygon fill="#ffffff" stroke="#bfbfbf" points="405,-78.5 405,-119.5 522,-119.5 522,-78.5 405,-78.5"/>
<text text-anchor="start" x="413" y="-107.5" font-family="Helvetica,sans-Serif" font-size="10.00" fill="#000000">tensorflow/compiler</text>
<text text-anchor="start" x="413" y="-96.5" font-family="Helvetica,sans-Serif" font-size="10.00" fill="#000000">/xla/service/versioned</text>
<text text-anchor="middle" x="463.5" y="-85.5" font-family="Helvetica,sans-Serif" font-size="10.00" fill="#000000">_computation_handle.h</text>
</g>
<!-- Node27&#45;&gt;Node31 -->
<g id="edge42" class="edge">
<title>Node27&#45;&gt;Node31</title>
<path fill="none" stroke="#191970" d="M904.4305,-172.1835C820.574,-165.0999 669.0591,-149.6251 532.0112,-120.1697"/>
<polygon fill="#191970" stroke="#191970" points="532.6859,-116.7347 522.1699,-118.0247 531.1951,-123.5741 532.6859,-116.7347"/>
</g>
<!-- Node32 -->
<g id="node33" class="node">
<title>Node32</title>
<polygon fill="#ffffff" stroke="#bfbfbf" points="540,-84 540,-114 641,-114 641,-84 540,-84"/>
<text text-anchor="start" x="548" y="-102" font-family="Helvetica,sans-Serif" font-size="10.00" fill="#000000">tensorflow/core/lib</text>
<text text-anchor="middle" x="590.5" y="-91" font-family="Helvetica,sans-Serif" font-size="10.00" fill="#000000">/gtl/iterator_range.h</text>
</g>
<!-- Node27&#45;&gt;Node32 -->
<g id="edge45" class="edge">
<title>Node27&#45;&gt;Node32</title>
<path fill="none" stroke="#191970" d="M904.4988,-168.5887C839.8138,-159.3746 737.2933,-142.812 650.5,-120 647.1428,-119.1176 643.7048,-118.1351 640.2565,-117.0902"/>
<polygon fill="#191970" stroke="#191970" points="641.1605,-113.7051 630.5701,-114.0125 639.0407,-120.3764 641.1605,-113.7051"/>
</g>
<!-- Node33 -->
<g id="node34" class="node">
<title>Node33</title>
<polygon fill="#ffffff" stroke="#bfbfbf" points="659.5,-84 659.5,-114 781.5,-114 781.5,-84 659.5,-84"/>
<text text-anchor="start" x="667.5" y="-102" font-family="Helvetica,sans-Serif" font-size="10.00" fill="#000000">tensorflow/core/platform</text>
<text text-anchor="middle" x="720.5" y="-91" font-family="Helvetica,sans-Serif" font-size="10.00" fill="#000000">/logging.h</text>
</g>
<!-- Node27&#45;&gt;Node33 -->
<g id="edge46" class="edge">
<title>Node27&#45;&gt;Node33</title>
<path fill="none" stroke="#191970" d="M920.6831,-161.9608C879.9866,-149.1611 821.4153,-130.7395 778.1356,-117.1273"/>
<polygon fill="#191970" stroke="#191970" points="779.182,-113.7875 768.5926,-114.1259 777.0817,-120.465 779.182,-113.7875"/>
</g>
<!-- Node34 -->
<g id="node35" class="node">
<title>Node34</title>
<polygon fill="#ffffff" stroke="#bfbfbf" points="799.5,-84 799.5,-114 921.5,-114 921.5,-84 799.5,-84"/>
<text text-anchor="start" x="807.5" y="-102" font-family="Helvetica,sans-Serif" font-size="10.00" fill="#000000">tensorflow/core/platform</text>
<text text-anchor="middle" x="860.5" y="-91" font-family="Helvetica,sans-Serif" font-size="10.00" fill="#000000">/mutex.h</text>
</g>
<!-- Node27&#45;&gt;Node34 -->
<g id="edge47" class="edge">
<title>Node27&#45;&gt;Node34</title>
<path fill="none" stroke="#191970" d="M947.6765,-161.9608C931.3469,-150.1672 908.4087,-133.6007 890.1602,-120.4212"/>
<polygon fill="#191970" stroke="#191970" points="891.7841,-117.2767 881.6281,-114.2592 887.6856,-122.9515 891.7841,-117.2767"/>
</g>
</g>
</svg>
