<?xml version="1.0" encoding="UTF-8" standalone="no"?>
<!DOCTYPE svg PUBLIC "-//W3C//DTD SVG 1.1//EN"
 "http://www.w3.org/Graphics/SVG/1.1/DTD/svg11.dtd">
<!-- Generated by graphviz version 2.40.1 (20161225.0304)
 -->
<!-- Title: xla::UserComputation::BuildHloComputation Pages: 1 -->
<!--zoomable 88 -->
<svg id="main" version="1.1" xmlns="http://www.w3.org/2000/svg" xmlns:xlink="http://www.w3.org/1999/xlink" xml:space="preserve" onload="init(evt)">
<style type="text/css"><![CDATA[
.edge:hover path { stroke: red; }
.edge:hover polygon { stroke: red; fill: red; }
]]></style>
<script type="text/javascript"><![CDATA[
var edges = document.getElementsByTagName('g');
if (edges && edges.length) {
  for (var i=0;i<edges.length;i++) {
    if (edges[i].id.substr(0,4)=='edge') {
      edges[i].setAttribute('class','edge');
    }
  }
}
]]></script>
        <defs>
                <circle id="rim" cx="0" cy="0" r="7"/>
                <circle id="rim2" cx="0" cy="0" r="3.5"/>
                <g id="zoomPlus">
                        <use xlink:href="#rim" fill="#404040">
                                <set attributeName="fill" to="#808080" begin="zoomplus.mouseover" end="zoomplus.mouseout"/>
                        </use>
                        <path d="M-4,0h8M0,-4v8" fill="none" stroke="white" stroke-width="1.5" pointer-events="none"/>
                </g>
                <g id="zoomMin">
                        <use xlink:href="#rim" fill="#404040">
                                <set attributeName="fill" to="#808080" begin="zoomminus.mouseover" end="zoomminus.mouseout"/>
                        </use>
                        <path d="M-4,0h8" fill="none" stroke="white" stroke-width="1.5" pointer-events="none"/>
                </g>
                <g id="dirArrow">
                        <path fill="none" stroke="white" stroke-width="1.5" d="M0,-3.0v7 M-2.5,-0.5L0,-3.0L2.5,-0.5"/>
                </g>
               <g id="resetDef">
                       <use xlink:href="#rim2" fill="#404040">
                               <set attributeName="fill" to="#808080" begin="reset.mouseover" end="reset.mouseout"/>
                       </use>
               </g>
        </defs>

<script type="text/javascript">
var viewWidth = 599;
var viewHeight = 88;
var sectionId = 'dynsection-86';
</script>
<script xlink:href="../../svgpan.js"/>
<svg id="graph" class="graph">
<g id="viewport">
<title>xla::UserComputation::BuildHloComputation</title>
<polygon fill="#ffffff" stroke="transparent" points="-4,4 -4,-84 595,-84 595,4 -4,4"/>
<!-- Node300 -->
<g id="node1" class="node">
<title>Node300</title>
<polygon fill="#bfbfbf" stroke="#000000" points="0,-24.5 0,-54.5 115,-54.5 115,-24.5 0,-24.5"/>
<text text-anchor="start" x="8" y="-42.5" font-family="Helvetica,sans-Serif" font-size="10.00" fill="#000000">xla::UserComputation</text>
<text text-anchor="middle" x="57.5" y="-31.5" font-family="Helvetica,sans-Serif" font-size="10.00" fill="#000000">::BuildHloComputation</text>
</g>
<!-- Node301 -->
<g id="node2" class="node">
<title>Node301</title>
<g id="a_node2"><a xlink:href="../../db/dbb/classxla_1_1UserComputation.html#aee9eeba8ef86ffdae79b8fe9d74cd99b" target="_top" xlink:title="xla::UserComputation\l::version">
<polygon fill="#ffffff" stroke="#000000" points="151,-49.5 151,-79.5 263,-79.5 263,-49.5 151,-49.5"/>
<text text-anchor="start" x="159" y="-67.5" font-family="Helvetica,sans-Serif" font-size="10.00" fill="#000000">xla::UserComputation</text>
<text text-anchor="middle" x="207" y="-56.5" font-family="Helvetica,sans-Serif" font-size="10.00" fill="#000000">::version</text>
</a>
</g>
</g>
<!-- Node300&#45;&gt;Node301 -->
<g id="edge1" class="edge">
<title>Node300&#45;&gt;Node301</title>
<path fill="none" stroke="#191970" d="M115.3006,-49.1657C123.6867,-50.568 132.3733,-52.0206 140.9073,-53.4477"/>
<polygon fill="#191970" stroke="#191970" points="140.3879,-56.9094 150.8282,-55.1067 141.5425,-50.0052 140.3879,-56.9094"/>
</g>
<!-- Node304 -->
<g id="node5" class="node">
<title>Node304</title>
<g id="a_node5"><a xlink:href="../../db/dbb/classxla_1_1UserComputation.html#af22e122e5671d4f05628c8aae80b8aee" target="_top" xlink:title="xla::UserComputation\l::name">
<polygon fill="#ffffff" stroke="#000000" points="151,-.5 151,-30.5 263,-30.5 263,-.5 151,-.5"/>
<text text-anchor="start" x="159" y="-18.5" font-family="Helvetica,sans-Serif" font-size="10.00" fill="#000000">xla::UserComputation</text>
<text text-anchor="middle" x="207" y="-7.5" font-family="Helvetica,sans-Serif" font-size="10.00" fill="#000000">::name</text>
</a>
</g>
</g>
<!-- Node300&#45;&gt;Node304 -->
<g id="edge4" class="edge">
<title>Node300&#45;&gt;Node304</title>
<path fill="none" stroke="#191970" d="M115.3006,-30.221C123.6867,-28.8747 132.3733,-27.4802 140.9073,-26.1102"/>
<polygon fill="#191970" stroke="#191970" points="141.5094,-29.5584 150.8282,-24.5175 140.3998,-22.6469 141.5094,-29.5584"/>
</g>
<!-- Node302 -->
<g id="node3" class="node">
<title>Node302</title>
<g id="a_node3"><a xlink:href="../../db/dbb/classxla_1_1UserComputation.html#a4fef8fc438e3b3b2c396de862820af3e" target="_top" xlink:title="xla::UserComputation\l::GetVersionedHandle">
<polygon fill="#ffffff" stroke="#000000" points="299,-49.5 299,-79.5 411,-79.5 411,-49.5 299,-49.5"/>
<text text-anchor="start" x="307" y="-67.5" font-family="Helvetica,sans-Serif" font-size="10.00" fill="#000000">xla::UserComputation</text>
<text text-anchor="middle" x="355" y="-56.5" font-family="Helvetica,sans-Serif" font-size="10.00" fill="#000000">::GetVersionedHandle</text>
</a>
</g>
</g>
<!-- Node301&#45;&gt;Node302 -->
<g id="edge2" class="edge">
<title>Node301&#45;&gt;Node302</title>
<path fill="none" stroke="#191970" d="M263.3747,-64.5C271.6214,-64.5 280.1782,-64.5 288.6023,-64.5"/>
<polygon fill="#191970" stroke="#191970" points="288.7821,-68.0001 298.7821,-64.5 288.7821,-61.0001 288.7821,-68.0001"/>
</g>
<!-- Node303 -->
<g id="node4" class="node">
<title>Node303</title>
<g id="a_node4"><a xlink:href="../../db/dbb/classxla_1_1UserComputation.html#af44a77b35aaed6ff22d5fbb266dd824e" target="_top" xlink:title="xla::UserComputation\l::GetVersionedHandleInternal">
<polygon fill="#ffffff" stroke="#000000" points="447,-49.5 447,-79.5 591,-79.5 591,-49.5 447,-49.5"/>
<text text-anchor="start" x="455" y="-67.5" font-family="Helvetica,sans-Serif" font-size="10.00" fill="#000000">xla::UserComputation</text>
<text text-anchor="middle" x="519" y="-56.5" font-family="Helvetica,sans-Serif" font-size="10.00" fill="#000000">::GetVersionedHandleInternal</text>
</a>
</g>
</g>
<!-- Node302&#45;&gt;Node303 -->
<g id="edge3" class="edge">
<title>Node302&#45;&gt;Node303</title>
<path fill="none" stroke="#191970" d="M411.4395,-64.5C419.6308,-64.5 428.2002,-64.5 436.7728,-64.5"/>
<polygon fill="#191970" stroke="#191970" points="436.8155,-68.0001 446.8155,-64.5 436.8155,-61.0001 436.8155,-68.0001"/>
</g>
</g>
</svg>
        <g id="navigator" transform="translate(0 0)" fill="#404254">
                <rect fill="#f2f5e9" fill-opacity="0.5" stroke="#606060" stroke-width=".5" x="0" y="0" width="60" height="60"/>
                <use id="zoomplus" xlink:href="#zoomPlus" x="17" y="9" onmousedown="handleZoom(evt,'in')"/>
                <use id="zoomminus" xlink:href="#zoomMin" x="42" y="9" onmousedown="handleZoom(evt,'out')"/>
                <use id="reset" xlink:href="#resetDef" x="30" y="36" onmousedown="handleReset()"/>
                <g id="arrowUp" xlink:href="#dirArrow" transform="translate(30 24)" onmousedown="handlePan(0,-1)">
                  <use xlink:href="#rim" fill="#404040">
                        <set attributeName="fill" to="#808080" begin="arrowUp.mouseover" end="arrowUp.mouseout"/>
                  </use>
                  <path fill="none" stroke="white" stroke-width="1.5" d="M0,-3.0v7 M-2.5,-0.5L0,-3.0L2.5,-0.5"/>
                </g>
                <g id="arrowRight" xlink:href="#dirArrow" transform="rotate(90) translate(36 -43)" onmousedown="handlePan(1,0)">
                  <use xlink:href="#rim" fill="#404040">
                        <set attributeName="fill" to="#808080" begin="arrowRight.mouseover" end="arrowRight.mouseout"/>
                  </use>
                  <path fill="none" stroke="white" stroke-width="1.5" d="M0,-3.0v7 M-2.5,-0.5L0,-3.0L2.5,-0.5"/>
                </g>
                <g id="arrowDown" xlink:href="#dirArrow" transform="rotate(180) translate(-30 -48)" onmousedown="handlePan(0,1)">
                  <use xlink:href="#rim" fill="#404040">
                        <set attributeName="fill" to="#808080" begin="arrowDown.mouseover" end="arrowDown.mouseout"/>
                  </use>
                  <path fill="none" stroke="white" stroke-width="1.5" d="M0,-3.0v7 M-2.5,-0.5L0,-3.0L2.5,-0.5"/>
                </g>
                <g id="arrowLeft" xlink:href="#dirArrow" transform="rotate(270) translate(-36 17)" onmousedown="handlePan(-1,0)">
                  <use xlink:href="#rim" fill="#404040">
                        <set attributeName="fill" to="#808080" begin="arrowLeft.mouseover" end="arrowLeft.mouseout"/>
                  </use>
                  <path fill="none" stroke="white" stroke-width="1.5" d="M0,-3.0v7 M-2.5,-0.5L0,-3.0L2.5,-0.5"/>
                </g>
        </g>
        <svg viewBox="0 0 15 15" width="100%" height="30px" preserveAspectRatio="xMaxYMin meet">
         <g id="arrow_out" transform="scale(0.3 0.3)">
          <a xlink:href="classxla_1_1UserComputation_a7ab95fda9f35270dfbf0868b96f636c6_cgraph_org.svg" target="_base">
           <rect id="button" ry="5" rx="5" y="6" x="6" height="38" width="38"
                fill="#f2f5e9" fill-opacity="0.5" stroke="#606060" stroke-width="1.0"/>
           <path id="arrow"
             d="M 11.500037,31.436501 C 11.940474,20.09759 22.043105,11.32322 32.158766,21.979434 L 37.068811,17.246167 C 37.068811,17.246167 37.088388,32 37.088388,32 L 22.160133,31.978069 C 22.160133,31.978069 26.997745,27.140456 26.997745,27.140456 C 18.528582,18.264221 13.291696,25.230495 11.500037,31.436501 z"
             style="fill:#404040;"/>
          </a>
         </g>
        </svg>
</svg>
