<?xml version="1.0" encoding="UTF-8" standalone="no"?>
<!DOCTYPE svg PUBLIC "-//W3C//DTD SVG 1.1//EN"
 "http://www.w3.org/Graphics/SVG/1.1/DTD/svg11.dtd">
<!-- Generated by graphviz version 2.40.1 (20161225.0304)
 -->
<!-- Title: xla::UserComputation::name Pages: 1 -->
<!--zoomable 417 -->
<svg id="main" version="1.1" xmlns="http://www.w3.org/2000/svg" xmlns:xlink="http://www.w3.org/1999/xlink" xml:space="preserve" onload="init(evt)">
<style type="text/css"><![CDATA[
.edge:hover path { stroke: red; }
.edge:hover polygon { stroke: red; fill: red; }
]]></style>
<script type="text/javascript"><![CDATA[
var edges = document.getElementsByTagName('g');
if (edges && edges.length) {
  for (var i=0;i<edges.length;i++) {
    if (edges[i].id.substr(0,4)=='edge') {
      edges[i].setAttribute('class','edge');
    }
  }
}
]]></script>
        <defs>
                <circle id="rim" cx="0" cy="0" r="7"/>
                <circle id="rim2" cx="0" cy="0" r="3.5"/>
                <g id="zoomPlus">
                        <use xlink:href="#rim" fill="#404040">
                                <set attributeName="fill" to="#808080" begin="zoomplus.mouseover" end="zoomplus.mouseout"/>
                        </use>
                        <path d="M-4,0h8M0,-4v8" fill="none" stroke="white" stroke-width="1.5" pointer-events="none"/>
                </g>
                <g id="zoomMin">
                        <use xlink:href="#rim" fill="#404040">
                                <set attributeName="fill" to="#808080" begin="zoomminus.mouseover" end="zoomminus.mouseout"/>
                        </use>
                        <path d="M-4,0h8" fill="none" stroke="white" stroke-width="1.5" pointer-events="none"/>
                </g>
                <g id="dirArrow">
                        <path fill="none" stroke="white" stroke-width="1.5" d="M0,-3.0v7 M-2.5,-0.5L0,-3.0L2.5,-0.5"/>
                </g>
               <g id="resetDef">
                       <use xlink:href="#rim2" fill="#404040">
                               <set attributeName="fill" to="#808080" begin="reset.mouseover" end="reset.mouseout"/>
                       </use>
               </g>
        </defs>

<script type="text/javascript">
var viewWidth = 1616;
var viewHeight = 417;
var sectionId = 'dynsection-108';
</script>
<script xlink:href="../../svgpan.js"/>
<svg id="graph" class="graph">
<g id="viewport">
<title>xla::UserComputation::name</title>
<polygon fill="#ffffff" stroke="transparent" points="-4,4 -4,-412.5 1612,-412.5 1612,4 -4,4"/>
<!-- Node653 -->
<g id="node1" class="node">
<title>Node653</title>
<polygon fill="#bfbfbf" stroke="#000000" points="0,-150.5 0,-180.5 112,-180.5 112,-150.5 0,-150.5"/>
<text text-anchor="start" x="8" y="-168.5" font-family="Helvetica,sans-Serif" font-size="10.00" fill="#000000">xla::UserComputation</text>
<text text-anchor="middle" x="56" y="-157.5" font-family="Helvetica,sans-Serif" font-size="10.00" fill="#000000">::name</text>
</g>
<!-- Node654 -->
<g id="node2" class="node">
<title>Node654</title>
<g id="a_node2"><a xlink:href="../../d8/d42/classxla_1_1ComputationTracker.html#abaeb463c7038bcc61515a19e18fe0714" target="_top" xlink:title="xla::ComputationTracker\l::BuildHloModule">
<polygon fill="#ffffff" stroke="#000000" points="528,-251.5 528,-281.5 650,-281.5 650,-251.5 528,-251.5"/>
<text text-anchor="start" x="536" y="-269.5" font-family="Helvetica,sans-Serif" font-size="10.00" fill="#000000">xla::ComputationTracker</text>
<text text-anchor="middle" x="589" y="-258.5" font-family="Helvetica,sans-Serif" font-size="10.00" fill="#000000">::BuildHloModule</text>
</a>
</g>
</g>
<!-- Node653&#45;&gt;Node654 -->
<g id="edge1" class="edge">
<title>Node653&#45;&gt;Node654</title>
<path fill="none" stroke="#191970" d="M101.9114,-184.1794C116.4504,-189.4931 132.7177,-194.828 148,-198.5 297.8689,-234.5103 340.4924,-214.1651 492,-242.5 505.3862,-245.0035 519.6836,-248.2283 533.0748,-251.4967"/>
<polygon fill="#191970" stroke="#191970" points="102.7478,-180.7552 92.1555,-180.5247 100.2922,-187.3104 102.7478,-180.7552"/>
</g>
<!-- Node662 -->
<g id="node10" class="node">
<title>Node662</title>
<g id="a_node10"><a xlink:href="../../d1/d10/classxla_1_1Service.html#aa0f93c81ca82a50f0ff7f044745bf227" target="_top" xlink:title="xla::Service::ExecuteParallel">
<polygon fill="#ffffff" stroke="#000000" points="893,-175 893,-194 1036,-194 1036,-175 893,-175"/>
<text text-anchor="middle" x="964.5" y="-182" font-family="Helvetica,sans-Serif" font-size="10.00" fill="#000000">xla::Service::ExecuteParallel</text>
</a>
</g>
</g>
<!-- Node653&#45;&gt;Node662 -->
<g id="edge17" class="edge">
<title>Node653&#45;&gt;Node662</title>
<path fill="none" stroke="#191970" d="M122.3887,-171.1777C193.6661,-176.7761 310.2587,-184.5 411,-184.5 411,-184.5 411,-184.5 589,-184.5 694.7724,-184.5 817.304,-184.5 892.8638,-184.5"/>
<polygon fill="#191970" stroke="#191970" points="122.4544,-167.672 112.2084,-170.3683 121.8996,-174.65 122.4544,-167.672"/>
</g>
<!-- Node664 -->
<g id="node12" class="node">
<title>Node664</title>
<g id="a_node12"><a xlink:href="../../d1/d10/classxla_1_1Service.html#ac3f89822d1f6faab8382f1902e54eea3" target="_top" xlink:title="xla::Service::Execute">
<polygon fill="#ffffff" stroke="#000000" points="1267.5,-137 1267.5,-156 1377.5,-156 1377.5,-137 1267.5,-137"/>
<text text-anchor="middle" x="1322.5" y="-144" font-family="Helvetica,sans-Serif" font-size="10.00" fill="#000000">xla::Service::Execute</text>
</a>
</g>
</g>
<!-- Node653&#45;&gt;Node664 -->
<g id="edge18" class="edge">
<title>Node653&#45;&gt;Node664</title>
<path fill="none" stroke="#191970" d="M122.3887,-159.8223C193.6661,-154.2239 310.2587,-146.5 411,-146.5 411,-146.5 411,-146.5 964.5,-146.5 1071.7135,-146.5 1196.988,-146.5 1267.3037,-146.5"/>
<polygon fill="#191970" stroke="#191970" points="121.8996,-156.35 112.2084,-160.6317 122.4544,-163.328 121.8996,-156.35"/>
</g>
<!-- Node670 -->
<g id="node18" class="node">
<title>Node670</title>
<g id="a_node18"><a xlink:href="../../d1/d10/classxla_1_1Service.html#ad940842d8a31741ccd025d883744223c" target="_top" xlink:title="xla::Service::ExecuteAsync">
<polygon fill="#ffffff" stroke="#000000" points="152,-99 152,-118 290,-118 290,-99 152,-99"/>
<text text-anchor="middle" x="221" y="-106" font-family="Helvetica,sans-Serif" font-size="10.00" fill="#000000">xla::Service::ExecuteAsync</text>
</a>
</g>
</g>
<!-- Node653&#45;&gt;Node670 -->
<g id="edge19" class="edge">
<title>Node653&#45;&gt;Node670</title>
<path fill="none" stroke="#191970" d="M106.6796,-147.047C120.0893,-142.2397 134.5703,-137.1153 148,-132.5 162.2569,-127.6004 178.1509,-122.3501 191.459,-118.0133"/>
<polygon fill="#191970" stroke="#191970" points="105.3604,-143.802 97.1349,-150.4797 107.7294,-150.3889 105.3604,-143.802"/>
</g>
<!-- Node671 -->
<g id="node19" class="node">
<title>Node671</title>
<g id="a_node19"><a xlink:href="../../db/dbb/classxla_1_1UserComputation.html#a8a978b597e454a03d8e9d000b8711d9d" target="_top" xlink:title="xla::UserComputation\l::UserComputation">
<polygon fill="#ffffff" stroke="#000000" points="165,-49.5 165,-79.5 277,-79.5 277,-49.5 165,-49.5"/>
<text text-anchor="start" x="173" y="-67.5" font-family="Helvetica,sans-Serif" font-size="10.00" fill="#000000">xla::UserComputation</text>
<text text-anchor="middle" x="221" y="-56.5" font-family="Helvetica,sans-Serif" font-size="10.00" fill="#000000">::UserComputation</text>
</a>
</g>
</g>
<!-- Node653&#45;&gt;Node671 -->
<g id="edge20" class="edge">
<title>Node653&#45;&gt;Node671</title>
<path fill="none" stroke="#191970" d="M78.1703,-143.2378C95.8167,-126.5481 121.8181,-104.1518 148,-89.5 154.6634,-85.771 161.9785,-82.4632 169.3249,-79.5739"/>
<polygon fill="#191970" stroke="#191970" points="75.4518,-140.9968 70.6798,-150.4561 80.3091,-146.0373 75.4518,-140.9968"/>
</g>
<!-- Node672 -->
<g id="node20" class="node">
<title>Node672</title>
<g id="a_node20"><a xlink:href="../../db/dbb/classxla_1_1UserComputation.html#a43162efd6a56fc6c8789c50196eba04b" target="_top" xlink:title="xla::UserComputation\l::SetReturnValue">
<polygon fill="#ffffff" stroke="#000000" points="165,-.5 165,-30.5 277,-30.5 277,-.5 165,-.5"/>
<text text-anchor="start" x="173" y="-18.5" font-family="Helvetica,sans-Serif" font-size="10.00" fill="#000000">xla::UserComputation</text>
<text text-anchor="middle" x="221" y="-7.5" font-family="Helvetica,sans-Serif" font-size="10.00" fill="#000000">::SetReturnValue</text>
</a>
</g>
</g>
<!-- Node653&#45;&gt;Node672 -->
<g id="edge21" class="edge">
<title>Node653&#45;&gt;Node672</title>
<path fill="none" stroke="#191970" d="M67.8109,-141.0972C82.7233,-112.7494 110.968,-66.4368 148,-39.5 153.1786,-35.7331 158.9816,-32.5351 164.9928,-29.825"/>
<polygon fill="#191970" stroke="#191970" points="64.5348,-139.8165 63.0996,-150.3137 70.7677,-143.0026 64.5348,-139.8165"/>
</g>
<!-- Node674 -->
<g id="node22" class="node">
<title>Node674</title>
<g id="a_node22"><a xlink:href="../../db/dbb/classxla_1_1UserComputation.html#add02ff5e2d9daf549727b8a4ed96f116" target="_top" xlink:title="xla::UserComputation\l::GetEmbeddedComputations">
<polygon fill="#ffffff" stroke="#000000" points="148,-298.5 148,-328.5 294,-328.5 294,-298.5 148,-298.5"/>
<text text-anchor="start" x="156" y="-316.5" font-family="Helvetica,sans-Serif" font-size="10.00" fill="#000000">xla::UserComputation</text>
<text text-anchor="middle" x="221" y="-305.5" font-family="Helvetica,sans-Serif" font-size="10.00" fill="#000000">::GetEmbeddedComputations</text>
</a>
</g>
</g>
<!-- Node653&#45;&gt;Node674 -->
<g id="edge23" class="edge">
<title>Node653&#45;&gt;Node674</title>
<path fill="none" stroke="#191970" d="M70.8856,-189.0183C87.3609,-213.5805 115.8698,-252.0113 148,-277.5 158.4063,-285.7552 171.0128,-292.8018 182.8007,-298.4143"/>
<polygon fill="#191970" stroke="#191970" points="73.797,-187.0754 65.3758,-180.6462 67.9496,-190.9237 73.797,-187.0754"/>
</g>
<!-- Node678 -->
<g id="node26" class="node">
<title>Node678</title>
<g id="a_node26"><a xlink:href="../../db/dbb/classxla_1_1UserComputation.html#a7ab95fda9f35270dfbf0868b96f636c6" target="_top" xlink:title="xla::UserComputation\l::BuildHloComputation">
<polygon fill="#ffffff" stroke="#000000" points="353.5,-251.5 353.5,-281.5 468.5,-281.5 468.5,-251.5 353.5,-251.5"/>
<text text-anchor="start" x="361.5" y="-269.5" font-family="Helvetica,sans-Serif" font-size="10.00" fill="#000000">xla::UserComputation</text>
<text text-anchor="middle" x="411" y="-258.5" font-family="Helvetica,sans-Serif" font-size="10.00" fill="#000000">::BuildHloComputation</text>
</a>
</g>
</g>
<!-- Node653&#45;&gt;Node678 -->
<g id="edge30" class="edge">
<title>Node653&#45;&gt;Node678</title>
<path fill="none" stroke="#191970" d="M77.665,-187.8272C95.0411,-204.2373 120.9252,-225.5153 148,-236.5 214.8576,-263.6251 298.6281,-268.763 353.4208,-268.6802"/>
<polygon fill="#191970" stroke="#191970" points="79.9198,-185.1381 70.3064,-180.6845 75.0442,-190.161 79.9198,-185.1381"/>
</g>
<!-- Node655 -->
<g id="node3" class="node">
<title>Node655</title>
<g id="a_node3"><a xlink:href="../../dc/d07/classxla_1_1CompileOnlyService.html#aceb67616a89167b9af1bf23d17ec37c9" target="_top" xlink:title="xla::CompileOnlyService\l::CompileAheadOfTime">
<polygon fill="#ffffff" stroke="#000000" points="709,-339.5 709,-369.5 834,-369.5 834,-339.5 709,-339.5"/>
<text text-anchor="start" x="717" y="-357.5" font-family="Helvetica,sans-Serif" font-size="10.00" fill="#000000">xla::CompileOnlyService</text>
<text text-anchor="middle" x="771.5" y="-346.5" font-family="Helvetica,sans-Serif" font-size="10.00" fill="#000000">::CompileAheadOfTime</text>
</a>
</g>
</g>
<!-- Node654&#45;&gt;Node655 -->
<g id="edge2" class="edge">
<title>Node654&#45;&gt;Node655</title>
<path fill="none" stroke="#191970" d="M616.5364,-287.4982C635.2984,-301.0039 661.1523,-318.0971 686,-329.5 694.1524,-333.2412 702.9995,-336.5705 711.8081,-339.4824"/>
<polygon fill="#191970" stroke="#191970" points="618.5817,-284.6579 608.4442,-281.5786 614.4489,-290.3076 618.5817,-284.6579"/>
</g>
<!-- Node661 -->
<g id="node9" class="node">
<title>Node661</title>
<g id="a_node9"><a xlink:href="../../d1/d10/classxla_1_1Service.html#aae12155f7d9a17dd6fda837a2d1189b3" target="_top" xlink:title="xla::Service::BuildExecutables">
<polygon fill="#ffffff" stroke="#000000" points="696.5,-301 696.5,-320 846.5,-320 846.5,-301 696.5,-301"/>
<text text-anchor="middle" x="771.5" y="-308" font-family="Helvetica,sans-Serif" font-size="10.00" fill="#000000">xla::Service::BuildExecutables</text>
</a>
</g>
</g>
<!-- Node654&#45;&gt;Node661 -->
<g id="edge8" class="edge">
<title>Node654&#45;&gt;Node661</title>
<path fill="none" stroke="#191970" d="M656.0445,-284.0919C666.0717,-286.6322 676.2975,-289.1723 686,-291.5 699.3077,-294.6926 713.8258,-297.9887 727.0586,-300.921"/>
<polygon fill="#191970" stroke="#191970" points="656.6651,-280.6382 646.1103,-281.5593 654.9358,-287.4212 656.6651,-280.6382"/>
</g>
<!-- Node668 -->
<g id="node16" class="node">
<title>Node668</title>
<g id="a_node16"><a xlink:href="../../d1/d10/classxla_1_1Service.html#a18b542fa30535934fbe3f425088b6537" target="_top" xlink:title="xla::Service::ComputeConstant">
<polygon fill="#ffffff" stroke="#000000" points="694.5,-213 694.5,-232 848.5,-232 848.5,-213 694.5,-213"/>
<text text-anchor="middle" x="771.5" y="-220" font-family="Helvetica,sans-Serif" font-size="10.00" fill="#000000">xla::Service::ComputeConstant</text>
</a>
</g>
</g>
<!-- Node654&#45;&gt;Node668 -->
<g id="edge15" class="edge">
<title>Node654&#45;&gt;Node668</title>
<path fill="none" stroke="#191970" d="M659.0301,-249.0602C668.0999,-246.8347 677.2676,-244.6015 686,-242.5 700.3766,-239.0401 716.1337,-235.3308 730.1611,-232.0578"/>
<polygon fill="#191970" stroke="#191970" points="658.1265,-245.6781 649.2521,-251.4656 659.7987,-252.4754 658.1265,-245.6781"/>
</g>
<!-- Node669 -->
<g id="node17" class="node">
<title>Node669</title>
<g id="a_node17"><a xlink:href="../../d1/d10/classxla_1_1Service.html#a59107fc77e341a632ceaf179e29df9f6" target="_top" xlink:title="xla::Service::GetComputation\lStats">
<polygon fill="#ffffff" stroke="#000000" points="698.5,-251.5 698.5,-281.5 844.5,-281.5 844.5,-251.5 698.5,-251.5"/>
<text text-anchor="start" x="706.5" y="-269.5" font-family="Helvetica,sans-Serif" font-size="10.00" fill="#000000">xla::Service::GetComputation</text>
<text text-anchor="middle" x="771.5" y="-258.5" font-family="Helvetica,sans-Serif" font-size="10.00" fill="#000000">Stats</text>
</a>
</g>
</g>
<!-- Node654&#45;&gt;Node669 -->
<g id="edge16" class="edge">
<title>Node654&#45;&gt;Node669</title>
<path fill="none" stroke="#191970" d="M660.321,-266.5C672.7508,-266.5 685.6993,-266.5 698.1818,-266.5"/>
<polygon fill="#191970" stroke="#191970" points="660.0236,-263.0001 650.0236,-266.5 660.0236,-270.0001 660.0236,-263.0001"/>
</g>
<!-- Node656 -->
<g id="node4" class="node">
<title>Node656</title>
<g id="a_node4"><a xlink:href="../../d1/dd1/classxla_1_1CompileOnlyClient.html#a5a585d21f617b77a1cecc1b587d18d7a" target="_top" xlink:title="Compiles a list of computations for ahead&#45;of&#45;time execution. This is intended for use in static compi...">
<polygon fill="#ffffff" stroke="#000000" points="905,-341.5 905,-371.5 1024,-371.5 1024,-341.5 905,-341.5"/>
<text text-anchor="start" x="913" y="-359.5" font-family="Helvetica,sans-Serif" font-size="10.00" fill="#000000">xla::CompileOnlyClient</text>
<text text-anchor="middle" x="964.5" y="-348.5" font-family="Helvetica,sans-Serif" font-size="10.00" fill="#000000">::CompileAheadOfTime</text>
</a>
</g>
</g>
<!-- Node655&#45;&gt;Node656 -->
<g id="edge3" class="edge">
<title>Node655&#45;&gt;Node656</title>
<path fill="none" stroke="#191970" d="M844.4277,-355.2557C864.3455,-355.4621 885.6905,-355.6833 904.778,-355.8811"/>
<polygon fill="#191970" stroke="#191970" points="844.1973,-351.7532 834.1616,-355.1493 844.1247,-358.7529 844.1973,-351.7532"/>
</g>
<!-- Node657 -->
<g id="node5" class="node">
<title>Node657</title>
<g id="a_node5"><a xlink:href="../../d4/df4/namespacetensorflow_1_1tfcompile_1_1anonymous__namespace_02compile_8cc_03.html#a40f8a019f31fa8cbe2fff5d90e69c21b" target="_top" xlink:title="Compiles the XLA computation into executable code. ">
<polygon fill="#ffffff" stroke="#000000" points="1080.5,-336 1080.5,-377 1209.5,-377 1209.5,-336 1080.5,-336"/>
<text text-anchor="start" x="1088.5" y="-365" font-family="Helvetica,sans-Serif" font-size="10.00" fill="#000000">tensorflow::tfcompile</text>
<text text-anchor="start" x="1088.5" y="-354" font-family="Helvetica,sans-Serif" font-size="10.00" fill="#000000">::anonymous_namespace</text>
<text text-anchor="middle" x="1145" y="-343" font-family="Helvetica,sans-Serif" font-size="10.00" fill="#000000">{compile::cc}::CompileXla</text>
</a>
</g>
</g>
<!-- Node656&#45;&gt;Node657 -->
<g id="edge4" class="edge">
<title>Node656&#45;&gt;Node657</title>
<path fill="none" stroke="#191970" d="M1034.4424,-356.5C1049.596,-356.5 1065.5552,-356.5 1080.4884,-356.5"/>
<polygon fill="#191970" stroke="#191970" points="1034.1027,-353.0001 1024.1027,-356.5 1034.1027,-360.0001 1034.1027,-353.0001"/>
</g>
<!-- Node658 -->
<g id="node6" class="node">
<title>Node658</title>
<g id="a_node6"><a xlink:href="../../d7/d38/namespacetensorflow_1_1tfcompile.html#a021cb1c58d938b16dcd998aa8d1fc191" target="_top" xlink:title="Converts the graph into an XLA computation, and compiles the computation. Called by tensorflow::tfcom...">
<polygon fill="#ffffff" stroke="#000000" points="1269,-341.5 1269,-371.5 1376,-371.5 1376,-341.5 1269,-341.5"/>
<text text-anchor="start" x="1277" y="-359.5" font-family="Helvetica,sans-Serif" font-size="10.00" fill="#000000">tensorflow::tfcompile</text>
<text text-anchor="middle" x="1322.5" y="-348.5" font-family="Helvetica,sans-Serif" font-size="10.00" fill="#000000">::CompileGraph</text>
</a>
</g>
</g>
<!-- Node657&#45;&gt;Node658 -->
<g id="edge5" class="edge">
<title>Node657&#45;&gt;Node658</title>
<path fill="none" stroke="#191970" d="M1219.7287,-356.5C1236.193,-356.5 1253.3177,-356.5 1268.7587,-356.5"/>
<polygon fill="#191970" stroke="#191970" points="1219.5837,-353.0001 1209.5837,-356.5 1219.5837,-360.0001 1219.5837,-353.0001"/>
</g>
<!-- Node659 -->
<g id="node7" class="node">
<title>Node659</title>
<g id="a_node7"><a xlink:href="../../d7/d38/namespacetensorflow_1_1tfcompile.html#a460964a5bb277865d1275fe3746132c1" target="_top" xlink:title="tensorflow::tfcompile\l::Main">
<polygon fill="#ffffff" stroke="#000000" points="1427,-341.5 1427,-371.5 1534,-371.5 1534,-341.5 1427,-341.5"/>
<text text-anchor="start" x="1435" y="-359.5" font-family="Helvetica,sans-Serif" font-size="10.00" fill="#000000">tensorflow::tfcompile</text>
<text text-anchor="middle" x="1480.5" y="-348.5" font-family="Helvetica,sans-Serif" font-size="10.00" fill="#000000">::Main</text>
</a>
</g>
</g>
<!-- Node658&#45;&gt;Node659 -->
<g id="edge6" class="edge">
<title>Node658&#45;&gt;Node659</title>
<path fill="none" stroke="#191970" d="M1386.5167,-356.5C1399.8898,-356.5 1413.8576,-356.5 1426.8103,-356.5"/>
<polygon fill="#191970" stroke="#191970" points="1386.4328,-353.0001 1376.4327,-356.5 1386.4327,-360.0001 1386.4328,-353.0001"/>
</g>
<!-- Node660 -->
<g id="node8" class="node">
<title>Node660</title>
<g id="a_node8"><a xlink:href="../../d4/d8d/tfcompile__main_8cc.html#a3c04138a5bfe5d72780bb7e82a18e627" target="_top" xlink:title="main">
<polygon fill="#ffffff" stroke="#000000" points="1570,-347 1570,-366 1608,-366 1608,-347 1570,-347"/>
<text text-anchor="middle" x="1589" y="-354" font-family="Helvetica,sans-Serif" font-size="10.00" fill="#000000">main</text>
</a>
</g>
</g>
<!-- Node659&#45;&gt;Node660 -->
<g id="edge7" class="edge">
<title>Node659&#45;&gt;Node660</title>
<path fill="none" stroke="#191970" d="M1544.2814,-356.5C1553.5615,-356.5 1562.4574,-356.5 1569.8366,-356.5"/>
<polygon fill="#191970" stroke="#191970" points="1544.1143,-353.0001 1534.1143,-356.5 1544.1142,-360.0001 1544.1143,-353.0001"/>
</g>
<!-- Node661&#45;&gt;Node662 -->
<g id="edge9" class="edge">
<title>Node661&#45;&gt;Node662</title>
<path fill="none" stroke="#191970" d="M843.7553,-297.5934C848.3453,-295.8177 852.8027,-293.7977 857,-291.5 902.9649,-266.3375 942.427,-215.6386 957.7213,-194.3093"/>
<polygon fill="#191970" stroke="#191970" points="842.4924,-294.3267 834.1881,-300.9061 844.7828,-300.9414 842.4924,-294.3267"/>
</g>
<!-- Node666 -->
<g id="node14" class="node">
<title>Node666</title>
<g id="a_node14"><a xlink:href="../../d1/d10/classxla_1_1Service.html#ae6f727fa681c065fc529a422a83f9133" target="_top" xlink:title="xla::Service::ExecuteGraph\lParallel">
<polygon fill="#ffffff" stroke="#000000" points="896,-292.5 896,-322.5 1033,-322.5 1033,-292.5 896,-292.5"/>
<text text-anchor="start" x="904" y="-310.5" font-family="Helvetica,sans-Serif" font-size="10.00" fill="#000000">xla::Service::ExecuteGraph</text>
<text text-anchor="middle" x="964.5" y="-299.5" font-family="Helvetica,sans-Serif" font-size="10.00" fill="#000000">Parallel</text>
</a>
</g>
</g>
<!-- Node661&#45;&gt;Node666 -->
<g id="edge13" class="edge">
<title>Node661&#45;&gt;Node666</title>
<path fill="none" stroke="#191970" d="M857.0134,-309.1708C870.0037,-308.9689 883.2631,-308.7628 895.8334,-308.5674"/>
<polygon fill="#191970" stroke="#191970" points="856.6158,-305.6764 846.6715,-309.3315 856.7247,-312.6756 856.6158,-305.6764"/>
</g>
<!-- Node663 -->
<g id="node11" class="node">
<title>Node663</title>
<g id="a_node11"><a xlink:href="../../d1/d10/classxla_1_1Service.html#a170f36c8fd2b964f57d00d9b720c6912" target="_top" xlink:title="xla::Service::ExecuteOneToN">
<polygon fill="#ffffff" stroke="#000000" points="1072,-175 1072,-194 1218,-194 1218,-175 1072,-175"/>
<text text-anchor="middle" x="1145" y="-182" font-family="Helvetica,sans-Serif" font-size="10.00" fill="#000000">xla::Service::ExecuteOneToN</text>
</a>
</g>
</g>
<!-- Node662&#45;&gt;Node663 -->
<g id="edge10" class="edge">
<title>Node662&#45;&gt;Node663</title>
<path fill="none" stroke="#191970" d="M1046.3445,-184.5C1054.802,-184.5 1063.3588,-184.5 1071.7144,-184.5"/>
<polygon fill="#191970" stroke="#191970" points="1046.0977,-181.0001 1036.0976,-184.5 1046.0976,-188.0001 1046.0977,-181.0001"/>
</g>
<!-- Node663&#45;&gt;Node664 -->
<g id="edge11" class="edge">
<title>Node663&#45;&gt;Node664</title>
<path fill="none" stroke="#191970" d="M1199.8969,-172.7474C1224.9954,-167.3742 1254.3428,-161.0914 1278.0313,-156.0201"/>
<polygon fill="#191970" stroke="#191970" points="1198.8365,-169.3951 1189.7907,-174.911 1200.3019,-176.24 1198.8365,-169.3951"/>
</g>
<!-- Node665 -->
<g id="node13" class="node">
<title>Node665</title>
<g id="a_node13"><a xlink:href="../../d1/d10/classxla_1_1Service.html#a6d2eb2712a109ab9484080dfd1e2e446" target="_top" xlink:title="xla::Service::ExecuteGraph">
<polygon fill="#ffffff" stroke="#000000" points="1254,-175 1254,-194 1391,-194 1391,-175 1254,-175"/>
<text text-anchor="middle" x="1322.5" y="-182" font-family="Helvetica,sans-Serif" font-size="10.00" fill="#000000">xla::Service::ExecuteGraph</text>
</a>
</g>
</g>
<!-- Node663&#45;&gt;Node665 -->
<g id="edge12" class="edge">
<title>Node663&#45;&gt;Node665</title>
<path fill="none" stroke="#191970" d="M1228.4801,-184.5C1236.9338,-184.5 1245.4516,-184.5 1253.725,-184.5"/>
<polygon fill="#191970" stroke="#191970" points="1228.2209,-181.0001 1218.2208,-184.5 1228.2208,-188.0001 1228.2209,-181.0001"/>
</g>
<!-- Node667 -->
<g id="node15" class="node">
<title>Node667</title>
<g id="a_node15"><a xlink:href="../../d1/d10/classxla_1_1Service.html#a11604b813ba3e3208b2bda70f0f02f0d" target="_top" xlink:title="xla::Service::ExecuteOneToN">
<polygon fill="#ffffff" stroke="#000000" points="1072,-298 1072,-317 1218,-317 1218,-298 1072,-298"/>
<text text-anchor="middle" x="1145" y="-305" font-family="Helvetica,sans-Serif" font-size="10.00" fill="#000000">xla::Service::ExecuteOneToN</text>
</a>
</g>
</g>
<!-- Node666&#45;&gt;Node667 -->
<g id="edge14" class="edge">
<title>Node666&#45;&gt;Node667</title>
<path fill="none" stroke="#191970" d="M1043.4434,-307.5C1052.9129,-307.5 1062.5512,-307.5 1071.9323,-307.5"/>
<polygon fill="#191970" stroke="#191970" points="1043.2543,-304.0001 1033.2542,-307.5 1043.2542,-311.0001 1043.2543,-304.0001"/>
</g>
<!-- Node673 -->
<g id="node21" class="node">
<title>Node673</title>
<g id="a_node21"><a xlink:href="../../d1/d10/classxla_1_1Service.html#a9d62e91a55079d0ad74a93e2c5729bca" target="_top" xlink:title="xla::Service::SetReturnValue">
<polygon fill="#ffffff" stroke="#000000" points="339.5,-6 339.5,-25 482.5,-25 482.5,-6 339.5,-6"/>
<text text-anchor="middle" x="411" y="-13" font-family="Helvetica,sans-Serif" font-size="10.00" fill="#000000">xla::Service::SetReturnValue</text>
</a>
</g>
</g>
<!-- Node672&#45;&gt;Node673 -->
<g id="edge22" class="edge">
<title>Node672&#45;&gt;Node673</title>
<path fill="none" stroke="#191970" d="M287.4897,-15.5C304.2647,-15.5 322.3468,-15.5 339.3627,-15.5"/>
<polygon fill="#191970" stroke="#191970" points="287.2351,-12.0001 277.2351,-15.5 287.235,-19.0001 287.2351,-12.0001"/>
</g>
<!-- Node675 -->
<g id="node23" class="node">
<title>Node675</title>
<g id="a_node23"><a xlink:href="../../d8/d42/classxla_1_1ComputationTracker.html#a8a16c1575ce6ceb15e15ba2a7d9b65fa" target="_top" xlink:title="xla::ComputationTracker\l::ComputeComputationPostOrder">
<polygon fill="#ffffff" stroke="#000000" points="330,-300.5 330,-330.5 492,-330.5 492,-300.5 330,-300.5"/>
<text text-anchor="start" x="338" y="-318.5" font-family="Helvetica,sans-Serif" font-size="10.00" fill="#000000">xla::ComputationTracker</text>
<text text-anchor="middle" x="411" y="-307.5" font-family="Helvetica,sans-Serif" font-size="10.00" fill="#000000">::ComputeComputationPostOrder</text>
</a>
</g>
</g>
<!-- Node674&#45;&gt;Node675 -->
<g id="edge24" class="edge">
<title>Node674&#45;&gt;Node675</title>
<path fill="none" stroke="#191970" d="M304.4392,-314.3783C312.9097,-314.4675 321.5047,-314.5579 329.9493,-314.6468"/>
<polygon fill="#191970" stroke="#191970" points="304.2235,-310.8759 294.1872,-314.2704 304.1498,-317.8756 304.2235,-310.8759"/>
</g>
<!-- Node675&#45;&gt;Node654 -->
<g id="edge29" class="edge">
<title>Node675&#45;&gt;Node654</title>
<path fill="none" stroke="#191970" d="M475.7384,-297.6788C494.9571,-292.3882 515.8099,-286.6478 534.3228,-281.5516"/>
<polygon fill="#191970" stroke="#191970" points="474.5707,-294.3699 465.8583,-300.3986 476.4286,-301.1189 474.5707,-294.3699"/>
</g>
<!-- Node676 -->
<g id="node24" class="node">
<title>Node676</title>
<g id="a_node24"><a xlink:href="../../d8/d42/classxla_1_1ComputationTracker.html#a1acead58332b1b2c6beaeac5505b1b8a" target="_top" xlink:title="xla::ComputationTracker\l::SnapshotComputation">
<polygon fill="#ffffff" stroke="#000000" points="528,-319.5 528,-349.5 650,-349.5 650,-319.5 528,-319.5"/>
<text text-anchor="start" x="536" y="-337.5" font-family="Helvetica,sans-Serif" font-size="10.00" fill="#000000">xla::ComputationTracker</text>
<text text-anchor="middle" x="589" y="-326.5" font-family="Helvetica,sans-Serif" font-size="10.00" fill="#000000">::SnapshotComputation</text>
</a>
</g>
</g>
<!-- Node675&#45;&gt;Node676 -->
<g id="edge25" class="edge">
<title>Node675&#45;&gt;Node676</title>
<path fill="none" stroke="#191970" d="M502.3471,-325.2505C511.0074,-326.175 519.6381,-327.0962 527.9108,-327.9792"/>
<polygon fill="#191970" stroke="#191970" points="502.5017,-321.7472 492.1867,-324.166 501.7587,-328.7077 502.5017,-321.7472"/>
</g>
<!-- Node676&#45;&gt;Node655 -->
<g id="edge26" class="edge">
<title>Node676&#45;&gt;Node655</title>
<path fill="none" stroke="#191970" d="M660.4136,-342.3262C676.4464,-344.0832 693.3377,-345.9343 708.9756,-347.648"/>
<polygon fill="#191970" stroke="#191970" points="660.3454,-338.7978 650.0236,-341.1875 659.5828,-345.7561 660.3454,-338.7978"/>
</g>
<!-- Node676&#45;&gt;Node661 -->
<g id="edge27" class="edge">
<title>Node676&#45;&gt;Node661</title>
<path fill="none" stroke="#191970" d="M660.1509,-325.1432C672.9529,-323.4596 686.3102,-321.703 699.1459,-320.0151"/>
<polygon fill="#191970" stroke="#191970" points="659.4818,-321.7009 650.0236,-326.475 660.3946,-328.6412 659.4818,-321.7009"/>
</g>
<!-- Node677 -->
<g id="node25" class="node">
<title>Node677</title>
<g id="a_node25"><a xlink:href="../../d1/d10/classxla_1_1Service.html#ab6915b044aa99a7186c77b543bc1fb30" target="_top" xlink:title="xla::Service::SnapshotComputation">
<polygon fill="#ffffff" stroke="#000000" points="686,-389 686,-408 857,-408 857,-389 686,-389"/>
<text text-anchor="middle" x="771.5" y="-396" font-family="Helvetica,sans-Serif" font-size="10.00" fill="#000000">xla::Service::SnapshotComputation</text>
</a>
</g>
</g>
<!-- Node676&#45;&gt;Node677 -->
<g id="edge28" class="edge">
<title>Node676&#45;&gt;Node677</title>
<path fill="none" stroke="#191970" d="M626.5761,-354.2408C644.2451,-362.9186 665.8231,-372.6673 686,-379.5 696.8018,-383.1579 708.613,-386.3033 719.9149,-388.9225"/>
<polygon fill="#191970" stroke="#191970" points="627.7059,-350.8929 617.1958,-349.5553 624.5779,-357.1551 627.7059,-350.8929"/>
</g>
<!-- Node678&#45;&gt;Node654 -->
<g id="edge31" class="edge">
<title>Node678&#45;&gt;Node654</title>
<path fill="none" stroke="#191970" d="M479.1541,-266.5C495.1681,-266.5 512.1362,-266.5 527.8223,-266.5"/>
<polygon fill="#191970" stroke="#191970" points="478.7915,-263.0001 468.7915,-266.5 478.7915,-270.0001 478.7915,-263.0001"/>
</g>
</g>
</svg>
        <g id="navigator" transform="translate(0 0)" fill="#404254">
                <rect fill="#f2f5e9" fill-opacity="0.5" stroke="#606060" stroke-width=".5" x="0" y="0" width="60" height="60"/>
                <use id="zoomplus" xlink:href="#zoomPlus" x="17" y="9" onmousedown="handleZoom(evt,'in')"/>
                <use id="zoomminus" xlink:href="#zoomMin" x="42" y="9" onmousedown="handleZoom(evt,'out')"/>
                <use id="reset" xlink:href="#resetDef" x="30" y="36" onmousedown="handleReset()"/>
                <g id="arrowUp" xlink:href="#dirArrow" transform="translate(30 24)" onmousedown="handlePan(0,-1)">
                  <use xlink:href="#rim" fill="#404040">
                        <set attributeName="fill" to="#808080" begin="arrowUp.mouseover" end="arrowUp.mouseout"/>
                  </use>
                  <path fill="none" stroke="white" stroke-width="1.5" d="M0,-3.0v7 M-2.5,-0.5L0,-3.0L2.5,-0.5"/>
                </g>
                <g id="arrowRight" xlink:href="#dirArrow" transform="rotate(90) translate(36 -43)" onmousedown="handlePan(1,0)">
                  <use xlink:href="#rim" fill="#404040">
                        <set attributeName="fill" to="#808080" begin="arrowRight.mouseover" end="arrowRight.mouseout"/>
                  </use>
                  <path fill="none" stroke="white" stroke-width="1.5" d="M0,-3.0v7 M-2.5,-0.5L0,-3.0L2.5,-0.5"/>
                </g>
                <g id="arrowDown" xlink:href="#dirArrow" transform="rotate(180) translate(-30 -48)" onmousedown="handlePan(0,1)">
                  <use xlink:href="#rim" fill="#404040">
                        <set attributeName="fill" to="#808080" begin="arrowDown.mouseover" end="arrowDown.mouseout"/>
                  </use>
                  <path fill="none" stroke="white" stroke-width="1.5" d="M0,-3.0v7 M-2.5,-0.5L0,-3.0L2.5,-0.5"/>
                </g>
                <g id="arrowLeft" xlink:href="#dirArrow" transform="rotate(270) translate(-36 17)" onmousedown="handlePan(-1,0)">
                  <use xlink:href="#rim" fill="#404040">
                        <set attributeName="fill" to="#808080" begin="arrowLeft.mouseover" end="arrowLeft.mouseout"/>
                  </use>
                  <path fill="none" stroke="white" stroke-width="1.5" d="M0,-3.0v7 M-2.5,-0.5L0,-3.0L2.5,-0.5"/>
                </g>
        </g>
        <svg viewBox="0 0 15 15" width="100%" height="30px" preserveAspectRatio="xMaxYMin meet">
         <g id="arrow_out" transform="scale(0.3 0.3)">
          <a xlink:href="classxla_1_1UserComputation_af22e122e5671d4f05628c8aae80b8aee_icgraph_org.svg" target="_base">
           <rect id="button" ry="5" rx="5" y="6" x="6" height="38" width="38"
                fill="#f2f5e9" fill-opacity="0.5" stroke="#606060" stroke-width="1.0"/>
           <path id="arrow"
             d="M 11.500037,31.436501 C 11.940474,20.09759 22.043105,11.32322 32.158766,21.979434 L 37.068811,17.246167 C 37.068811,17.246167 37.088388,32 37.088388,32 L 22.160133,31.978069 C 22.160133,31.978069 26.997745,27.140456 26.997745,27.140456 C 18.528582,18.264221 13.291696,25.230495 11.500037,31.436501 z"
             style="fill:#404040;"/>
          </a>
         </g>
        </svg>
</svg>
