<?xml version="1.0" encoding="UTF-8" standalone="no"?>
<!DOCTYPE svg PUBLIC "-//W3C//DTD SVG 1.1//EN"
 "http://www.w3.org/Graphics/SVG/1.1/DTD/svg11.dtd">
<!-- Generated by graphviz version 2.40.1 (20161225.0304)
 -->
<!-- Title: xla::UserComputation::MakeWithRemapping Pages: 1 -->
<svg width="639pt" height="61pt"
 viewBox="0.00 0.00 639.00 61.00" xmlns="http://www.w3.org/2000/svg" xmlns:xlink="http://www.w3.org/1999/xlink">
<g id="graph0" class="graph" transform="scale(1 1) rotate(0) translate(4 57)">
<title>xla::UserComputation::MakeWithRemapping</title>
<polygon fill="#ffffff" stroke="transparent" points="-4,4 -4,-57 635,-57 635,4 -4,4"/>
<!-- Node648 -->
<g id="node1" class="node">
<title>Node648</title>
<polygon fill="#bfbfbf" stroke="#000000" points="0,-22.5 0,-52.5 116,-52.5 116,-22.5 0,-22.5"/>
<text text-anchor="start" x="8" y="-40.5" font-family="Helvetica,sans-Serif" font-size="10.00" fill="#000000">xla::UserComputation</text>
<text text-anchor="middle" x="58" y="-29.5" font-family="Helvetica,sans-Serif" font-size="10.00" fill="#000000">::MakeWithRemapping</text>
</g>
<!-- Node649 -->
<g id="node2" class="node">
<title>Node649</title>
<g id="a_node2"><a xlink:href="../../d8/d42/classxla_1_1ComputationTracker.html#a1facfad94400ca2ffa423eb26f815061" target="_top" xlink:title="xla::ComputationTracker\l::LoadSessionModule">
<polygon fill="#ffffff" stroke="#000000" points="322,-22.5 322,-52.5 444,-52.5 444,-22.5 322,-22.5"/>
<text text-anchor="start" x="330" y="-40.5" font-family="Helvetica,sans-Serif" font-size="10.00" fill="#000000">xla::ComputationTracker</text>
<text text-anchor="middle" x="383" y="-29.5" font-family="Helvetica,sans-Serif" font-size="10.00" fill="#000000">::LoadSessionModule</text>
</a>
</g>
</g>
<!-- Node648&#45;&gt;Node649 -->
<g id="edge1" class="edge">
<title>Node648&#45;&gt;Node649</title>
<path fill="none" stroke="#191970" d="M126.2611,-39.9343C134.9238,-40.168 143.6688,-40.3671 152,-40.5 211.548,-41.45 226.4516,-41.4206 286,-40.5 297.624,-40.3203 310.0286,-40.0195 321.9488,-39.676"/>
<polygon fill="#191970" stroke="#191970" points="126.2552,-36.4328 116.1594,-39.646 126.0554,-43.4299 126.2552,-36.4328"/>
</g>
<!-- Node651 -->
<g id="node4" class="node">
<title>Node651</title>
<g id="a_node4"><a xlink:href="../../d8/d42/classxla_1_1ComputationTracker.html#a20564ecea90b9bd4a90202e873941cf1" target="_top" xlink:title="xla::ComputationTracker\l::LoadSessionComputation">
<polygon fill="#ffffff" stroke="#000000" points="152,-.5 152,-30.5 286,-30.5 286,-.5 152,-.5"/>
<text text-anchor="start" x="160" y="-18.5" font-family="Helvetica,sans-Serif" font-size="10.00" fill="#000000">xla::ComputationTracker</text>
<text text-anchor="middle" x="219" y="-7.5" font-family="Helvetica,sans-Serif" font-size="10.00" fill="#000000">::LoadSessionComputation</text>
</a>
</g>
</g>
<!-- Node648&#45;&gt;Node651 -->
<g id="edge3" class="edge">
<title>Node648&#45;&gt;Node651</title>
<path fill="none" stroke="#191970" d="M126.0647,-28.1992C134.6279,-27.0291 143.3834,-25.8327 151.931,-24.6647"/>
<polygon fill="#191970" stroke="#191970" points="125.5587,-24.7358 116.1247,-29.5575 126.5065,-31.6713 125.5587,-24.7358"/>
</g>
<!-- Node650 -->
<g id="node3" class="node">
<title>Node650</title>
<g id="a_node3"><a xlink:href="../../d1/d10/classxla_1_1Service.html#a6470d971df0e6843a824407ed1f35349" target="_top" xlink:title="xla::Service::LoadComputation\lSnapshot">
<polygon fill="#ffffff" stroke="#000000" points="480,-22.5 480,-52.5 631,-52.5 631,-22.5 480,-22.5"/>
<text text-anchor="start" x="488" y="-40.5" font-family="Helvetica,sans-Serif" font-size="10.00" fill="#000000">xla::Service::LoadComputation</text>
<text text-anchor="middle" x="555.5" y="-29.5" font-family="Helvetica,sans-Serif" font-size="10.00" fill="#000000">Snapshot</text>
</a>
</g>
</g>
<!-- Node649&#45;&gt;Node650 -->
<g id="edge2" class="edge">
<title>Node649&#45;&gt;Node650</title>
<path fill="none" stroke="#191970" d="M454.4367,-37.5C462.8417,-37.5 471.4401,-37.5 479.8998,-37.5"/>
<polygon fill="#191970" stroke="#191970" points="454.3028,-34.0001 444.3028,-37.5 454.3027,-41.0001 454.3028,-34.0001"/>
</g>
<!-- Node651&#45;&gt;Node649 -->
<g id="edge4" class="edge">
<title>Node651&#45;&gt;Node649</title>
<path fill="none" stroke="#191970" d="M296.258,-25.8639C304.8916,-27.022 313.5955,-28.1896 321.9853,-29.3151"/>
<polygon fill="#191970" stroke="#191970" points="296.5549,-22.3724 286.1783,-24.5117 295.6241,-29.3103 296.5549,-22.3724"/>
</g>
</g>
</svg>
