<?xml version="1.0" encoding="UTF-8" standalone="no"?>
<!DOCTYPE svg PUBLIC "-//W3C//DTD SVG 1.1//EN"
 "http://www.w3.org/Graphics/SVG/1.1/DTD/svg11.dtd">
<!-- Generated by graphviz version 2.40.1 (20161225.0304)
 -->
<!-- Title: xla::UserComputation::AddReverseInstruction Pages: 1 -->
<svg width="325pt" height="137pt"
 viewBox="0.00 0.00 325.00 137.00" xmlns="http://www.w3.org/2000/svg" xmlns:xlink="http://www.w3.org/1999/xlink">
<g id="graph0" class="graph" transform="scale(1 1) rotate(0) translate(4 133)">
<title>xla::UserComputation::AddReverseInstruction</title>
<polygon fill="#ffffff" stroke="transparent" points="-4,4 -4,-133 321,-133 321,4 -4,4"/>
<!-- Node220 -->
<g id="node1" class="node">
<title>Node220</title>
<polygon fill="#bfbfbf" stroke="#000000" points="0,-49.5 0,-79.5 122,-79.5 122,-49.5 0,-49.5"/>
<text text-anchor="start" x="8" y="-67.5" font-family="Helvetica,sans-Serif" font-size="10.00" fill="#000000">xla::UserComputation</text>
<text text-anchor="middle" x="61" y="-56.5" font-family="Helvetica,sans-Serif" font-size="10.00" fill="#000000">::AddReverseInstruction</text>
</g>
<!-- Node221 -->
<g id="node2" class="node">
<title>Node221</title>
<g id="a_node2"><a xlink:href="../../db/dbb/classxla_1_1UserComputation.html#a89b9415667968217b87209ccdf989070" target="_top" xlink:title="xla::UserComputation\l::LookUpRequest">
<polygon fill="#ffffff" stroke="#000000" points="181.5,-98.5 181.5,-128.5 293.5,-128.5 293.5,-98.5 181.5,-98.5"/>
<text text-anchor="start" x="189.5" y="-116.5" font-family="Helvetica,sans-Serif" font-size="10.00" fill="#000000">xla::UserComputation</text>
<text text-anchor="middle" x="237.5" y="-105.5" font-family="Helvetica,sans-Serif" font-size="10.00" fill="#000000">::LookUpRequest</text>
</a>
</g>
</g>
<!-- Node220&#45;&gt;Node221 -->
<g id="edge1" class="edge">
<title>Node220&#45;&gt;Node221</title>
<path fill="none" stroke="#191970" d="M115.396,-79.6014C133.7681,-84.7019 154.4474,-90.4429 173.4935,-95.7305"/>
<polygon fill="#191970" stroke="#191970" points="172.7117,-99.1458 183.2836,-98.4484 174.5843,-92.4009 172.7117,-99.1458"/>
</g>
<!-- Node222 -->
<g id="node3" class="node">
<title>Node222</title>
<g id="a_node3"><a xlink:href="../../db/dbb/classxla_1_1UserComputation.html#a3d120052a47ab98a431b908192f0d755" target="_top" xlink:title="xla::UserComputation\l::CreateComputationDataHandle">
<polygon fill="#ffffff" stroke="#000000" points="158,-49.5 158,-79.5 317,-79.5 317,-49.5 158,-49.5"/>
<text text-anchor="start" x="166" y="-67.5" font-family="Helvetica,sans-Serif" font-size="10.00" fill="#000000">xla::UserComputation</text>
<text text-anchor="middle" x="237.5" y="-56.5" font-family="Helvetica,sans-Serif" font-size="10.00" fill="#000000">::CreateComputationDataHandle</text>
</a>
</g>
</g>
<!-- Node220&#45;&gt;Node222 -->
<g id="edge2" class="edge">
<title>Node220&#45;&gt;Node222</title>
<path fill="none" stroke="#191970" d="M122.2358,-64.5C130.4655,-64.5 139.042,-64.5 147.639,-64.5"/>
<polygon fill="#191970" stroke="#191970" points="147.7209,-68.0001 157.7209,-64.5 147.7209,-61.0001 147.7209,-68.0001"/>
</g>
<!-- Node223 -->
<g id="node4" class="node">
<title>Node223</title>
<g id="a_node4"><a xlink:href="../../db/dbb/classxla_1_1UserComputation.html#af44a77b35aaed6ff22d5fbb266dd824e" target="_top" xlink:title="xla::UserComputation\l::GetVersionedHandleInternal">
<polygon fill="#ffffff" stroke="#000000" points="165.5,-.5 165.5,-30.5 309.5,-30.5 309.5,-.5 165.5,-.5"/>
<text text-anchor="start" x="173.5" y="-18.5" font-family="Helvetica,sans-Serif" font-size="10.00" fill="#000000">xla::UserComputation</text>
<text text-anchor="middle" x="237.5" y="-7.5" font-family="Helvetica,sans-Serif" font-size="10.00" fill="#000000">::GetVersionedHandleInternal</text>
</a>
</g>
</g>
<!-- Node220&#45;&gt;Node223 -->
<g id="edge3" class="edge">
<title>Node220&#45;&gt;Node223</title>
<path fill="none" stroke="#191970" d="M115.396,-49.3986C133.7681,-44.2981 154.4474,-38.5571 173.4935,-33.2695"/>
<polygon fill="#191970" stroke="#191970" points="174.5843,-36.5991 183.2836,-30.5516 172.7117,-29.8542 174.5843,-36.5991"/>
</g>
</g>
</svg>
