<?xml version="1.0" encoding="UTF-8" standalone="no"?>
<!DOCTYPE svg PUBLIC "-//W3C//DTD SVG 1.1//EN"
 "http://www.w3.org/Graphics/SVG/1.1/DTD/svg11.dtd">
<!-- Generated by graphviz version 2.40.1 (20161225.0304)
 -->
<!-- Title: xla::UserComputation::AddBroadcastInstruction Pages: 1 -->
<svg width="333pt" height="137pt"
 viewBox="0.00 0.00 333.00 137.00" xmlns="http://www.w3.org/2000/svg" xmlns:xlink="http://www.w3.org/1999/xlink">
<g id="graph0" class="graph" transform="scale(1 1) rotate(0) translate(4 133)">
<title>xla::UserComputation::AddBroadcastInstruction</title>
<polygon fill="#ffffff" stroke="transparent" points="-4,4 -4,-133 329,-133 329,4 -4,4"/>
<!-- Node33 -->
<g id="node1" class="node">
<title>Node33</title>
<polygon fill="#bfbfbf" stroke="#000000" points="0,-49.5 0,-79.5 130,-79.5 130,-49.5 0,-49.5"/>
<text text-anchor="start" x="8" y="-67.5" font-family="Helvetica,sans-Serif" font-size="10.00" fill="#000000">xla::UserComputation</text>
<text text-anchor="middle" x="65" y="-56.5" font-family="Helvetica,sans-Serif" font-size="10.00" fill="#000000">::AddBroadcastInstruction</text>
</g>
<!-- Node34 -->
<g id="node2" class="node">
<title>Node34</title>
<g id="a_node2"><a xlink:href="../../db/dbb/classxla_1_1UserComputation.html#a89b9415667968217b87209ccdf989070" target="_top" xlink:title="xla::UserComputation\l::LookUpRequest">
<polygon fill="#ffffff" stroke="#000000" points="189.5,-98.5 189.5,-128.5 301.5,-128.5 301.5,-98.5 189.5,-98.5"/>
<text text-anchor="start" x="197.5" y="-116.5" font-family="Helvetica,sans-Serif" font-size="10.00" fill="#000000">xla::UserComputation</text>
<text text-anchor="middle" x="245.5" y="-105.5" font-family="Helvetica,sans-Serif" font-size="10.00" fill="#000000">::LookUpRequest</text>
</a>
</g>
</g>
<!-- Node33&#45;&gt;Node34 -->
<g id="edge1" class="edge">
<title>Node33&#45;&gt;Node34</title>
<path fill="none" stroke="#191970" d="M120.6288,-79.6014C139.5034,-84.7253 160.7592,-90.4956 180.3108,-95.8032"/>
<polygon fill="#191970" stroke="#191970" points="179.4872,-99.2062 190.0549,-98.4484 181.3212,-92.4507 179.4872,-99.2062"/>
</g>
<!-- Node35 -->
<g id="node3" class="node">
<title>Node35</title>
<g id="a_node3"><a xlink:href="../../db/dbb/classxla_1_1UserComputation.html#a3d120052a47ab98a431b908192f0d755" target="_top" xlink:title="xla::UserComputation\l::CreateComputationDataHandle">
<polygon fill="#ffffff" stroke="#000000" points="166,-49.5 166,-79.5 325,-79.5 325,-49.5 166,-49.5"/>
<text text-anchor="start" x="174" y="-67.5" font-family="Helvetica,sans-Serif" font-size="10.00" fill="#000000">xla::UserComputation</text>
<text text-anchor="middle" x="245.5" y="-56.5" font-family="Helvetica,sans-Serif" font-size="10.00" fill="#000000">::CreateComputationDataHandle</text>
</a>
</g>
</g>
<!-- Node33&#45;&gt;Node35 -->
<g id="edge2" class="edge">
<title>Node33&#45;&gt;Node35</title>
<path fill="none" stroke="#191970" d="M130.1646,-64.5C138.5113,-64.5 147.1689,-64.5 155.8196,-64.5"/>
<polygon fill="#191970" stroke="#191970" points="155.9525,-68.0001 165.9525,-64.5 155.9524,-61.0001 155.9525,-68.0001"/>
</g>
<!-- Node36 -->
<g id="node4" class="node">
<title>Node36</title>
<g id="a_node4"><a xlink:href="../../db/dbb/classxla_1_1UserComputation.html#af44a77b35aaed6ff22d5fbb266dd824e" target="_top" xlink:title="xla::UserComputation\l::GetVersionedHandleInternal">
<polygon fill="#ffffff" stroke="#000000" points="173.5,-.5 173.5,-30.5 317.5,-30.5 317.5,-.5 173.5,-.5"/>
<text text-anchor="start" x="181.5" y="-18.5" font-family="Helvetica,sans-Serif" font-size="10.00" fill="#000000">xla::UserComputation</text>
<text text-anchor="middle" x="245.5" y="-7.5" font-family="Helvetica,sans-Serif" font-size="10.00" fill="#000000">::GetVersionedHandleInternal</text>
</a>
</g>
</g>
<!-- Node33&#45;&gt;Node36 -->
<g id="edge3" class="edge">
<title>Node33&#45;&gt;Node36</title>
<path fill="none" stroke="#191970" d="M120.6288,-49.3986C139.5034,-44.2747 160.7592,-38.5044 180.3108,-33.1968"/>
<polygon fill="#191970" stroke="#191970" points="181.3212,-36.5493 190.0549,-30.5516 179.4872,-29.7938 181.3212,-36.5493"/>
</g>
</g>
</svg>
