<?xml version="1.0" encoding="UTF-8" standalone="no"?>
<!DOCTYPE svg PUBLIC "-//W3C//DTD SVG 1.1//EN"
 "http://www.w3.org/Graphics/SVG/1.1/DTD/svg11.dtd">
<!-- Generated by graphviz version 2.40.1 (20161225.0304)
 -->
<!-- Title: xla::UserComputation::ComputeProgramShape Pages: 1 -->
<svg width="842pt" height="182pt"
 viewBox="0.00 0.00 842.00 181.50" xmlns="http://www.w3.org/2000/svg" xmlns:xlink="http://www.w3.org/1999/xlink">
<g id="graph0" class="graph" transform="scale(1 1) rotate(0) translate(4 177.5)">
<title>xla::UserComputation::ComputeProgramShape</title>
<polygon fill="#ffffff" stroke="transparent" points="-4,4 -4,-177.5 838,-177.5 838,4 -4,4"/>
<!-- Node353 -->
<g id="node1" class="node">
<title>Node353</title>
<polygon fill="#bfbfbf" stroke="#000000" points="0,-110 0,-140 127,-140 127,-110 0,-110"/>
<text text-anchor="start" x="8" y="-128" font-family="Helvetica,sans-Serif" font-size="10.00" fill="#000000">xla::UserComputation</text>
<text text-anchor="middle" x="63.5" y="-117" font-family="Helvetica,sans-Serif" font-size="10.00" fill="#000000">::ComputeProgramShape</text>
</g>
<!-- Node354 -->
<g id="node2" class="node">
<title>Node354</title>
<g id="a_node2"><a xlink:href="../../db/dbb/classxla_1_1UserComputation.html#aee9eeba8ef86ffdae79b8fe9d74cd99b" target="_top" xlink:title="xla::UserComputation\l::version">
<polygon fill="#ffffff" stroke="#000000" points="379.5,-143 379.5,-173 491.5,-173 491.5,-143 379.5,-143"/>
<text text-anchor="start" x="387.5" y="-161" font-family="Helvetica,sans-Serif" font-size="10.00" fill="#000000">xla::UserComputation</text>
<text text-anchor="middle" x="435.5" y="-150" font-family="Helvetica,sans-Serif" font-size="10.00" fill="#000000">::version</text>
</a>
</g>
</g>
<!-- Node353&#45;&gt;Node354 -->
<g id="edge1" class="edge">
<title>Node353&#45;&gt;Node354</title>
<path fill="none" stroke="#191970" d="M114.4681,-140.0607C129.921,-144.0137 147.0335,-147.7865 163,-150 232.9526,-159.6977 313.9358,-160.8084 369.3261,-160.0476"/>
<polygon fill="#191970" stroke="#191970" points="369.4203,-163.5466 379.3624,-159.8854 369.3071,-156.5475 369.4203,-163.5466"/>
</g>
<!-- Node357 -->
<g id="node5" class="node">
<title>Node357</title>
<g id="a_node5"><a xlink:href="../../db/dbb/classxla_1_1UserComputation.html#a02a015ab900f28dc61b02f47c44f96f0" target="_top" xlink:title="xla::UserComputation\l::CheckParametersAreContiguous">
<polygon fill="#ffffff" stroke="#000000" points="163,-110 163,-140 329,-140 329,-110 163,-110"/>
<text text-anchor="start" x="171" y="-128" font-family="Helvetica,sans-Serif" font-size="10.00" fill="#000000">xla::UserComputation</text>
<text text-anchor="middle" x="246" y="-117" font-family="Helvetica,sans-Serif" font-size="10.00" fill="#000000">::CheckParametersAreContiguous</text>
</a>
</g>
</g>
<!-- Node353&#45;&gt;Node357 -->
<g id="edge4" class="edge">
<title>Node353&#45;&gt;Node357</title>
<path fill="none" stroke="#191970" d="M127.0734,-125C135.3545,-125 143.9714,-125 152.6139,-125"/>
<polygon fill="#191970" stroke="#191970" points="152.7526,-128.5001 162.7525,-125 152.7525,-121.5001 152.7526,-128.5001"/>
</g>
<!-- Node358 -->
<g id="node6" class="node">
<title>Node358</title>
<g id="a_node6"><a xlink:href="../../dc/d9d/namespacexla_1_1anonymous__namespace_02user__computation_8cc_03.html#a5ee0643c24e2ef217ab180c717d5de36" target="_top" xlink:title="xla::anonymous_namespace\l\{user_computation::cc\}\l::GetRoot">
<polygon fill="#ffffff" stroke="#000000" points="175.5,-49.5 175.5,-90.5 316.5,-90.5 316.5,-49.5 175.5,-49.5"/>
<text text-anchor="start" x="183.5" y="-78.5" font-family="Helvetica,sans-Serif" font-size="10.00" fill="#000000">xla::anonymous_namespace</text>
<text text-anchor="start" x="183.5" y="-67.5" font-family="Helvetica,sans-Serif" font-size="10.00" fill="#000000">{user_computation::cc}</text>
<text text-anchor="middle" x="246" y="-56.5" font-family="Helvetica,sans-Serif" font-size="10.00" fill="#000000">::GetRoot</text>
</a>
</g>
</g>
<!-- Node353&#45;&gt;Node358 -->
<g id="edge6" class="edge">
<title>Node353&#45;&gt;Node358</title>
<path fill="none" stroke="#191970" d="M113.3689,-109.971C130.2647,-104.8791 149.5619,-99.0635 168.1068,-93.4747"/>
<polygon fill="#191970" stroke="#191970" points="169.1546,-96.8145 177.7193,-90.5777 167.1347,-90.1122 169.1546,-96.8145"/>
</g>
<!-- Node355 -->
<g id="node3" class="node">
<title>Node355</title>
<g id="a_node3"><a xlink:href="../../db/dbb/classxla_1_1UserComputation.html#a4fef8fc438e3b3b2c396de862820af3e" target="_top" xlink:title="xla::UserComputation\l::GetVersionedHandle">
<polygon fill="#ffffff" stroke="#000000" points="542,-143 542,-173 654,-173 654,-143 542,-143"/>
<text text-anchor="start" x="550" y="-161" font-family="Helvetica,sans-Serif" font-size="10.00" fill="#000000">xla::UserComputation</text>
<text text-anchor="middle" x="598" y="-150" font-family="Helvetica,sans-Serif" font-size="10.00" fill="#000000">::GetVersionedHandle</text>
</a>
</g>
</g>
<!-- Node354&#45;&gt;Node355 -->
<g id="edge2" class="edge">
<title>Node354&#45;&gt;Node355</title>
<path fill="none" stroke="#191970" d="M491.8786,-158C504.808,-158 518.6674,-158 531.9631,-158"/>
<polygon fill="#191970" stroke="#191970" points="531.9959,-161.5001 541.9959,-158 531.9958,-154.5001 531.9959,-161.5001"/>
</g>
<!-- Node356 -->
<g id="node4" class="node">
<title>Node356</title>
<g id="a_node4"><a xlink:href="../../db/dbb/classxla_1_1UserComputation.html#af44a77b35aaed6ff22d5fbb266dd824e" target="_top" xlink:title="xla::UserComputation\l::GetVersionedHandleInternal">
<polygon fill="#ffffff" stroke="#000000" points="690,-143 690,-173 834,-173 834,-143 690,-143"/>
<text text-anchor="start" x="698" y="-161" font-family="Helvetica,sans-Serif" font-size="10.00" fill="#000000">xla::UserComputation</text>
<text text-anchor="middle" x="762" y="-150" font-family="Helvetica,sans-Serif" font-size="10.00" fill="#000000">::GetVersionedHandleInternal</text>
</a>
</g>
</g>
<!-- Node355&#45;&gt;Node356 -->
<g id="edge3" class="edge">
<title>Node355&#45;&gt;Node356</title>
<path fill="none" stroke="#191970" d="M654.4395,-158C662.6308,-158 671.2002,-158 679.7728,-158"/>
<polygon fill="#191970" stroke="#191970" points="679.8155,-161.5001 689.8155,-158 679.8155,-154.5001 679.8155,-161.5001"/>
</g>
<!-- Node357&#45;&gt;Node354 -->
<g id="edge5" class="edge">
<title>Node357&#45;&gt;Node354</title>
<path fill="none" stroke="#191970" d="M329.1175,-139.4743C342.5357,-141.811 356.2699,-144.2027 369.2216,-146.4581"/>
<polygon fill="#191970" stroke="#191970" points="368.9677,-149.9665 379.4199,-148.2341 370.1687,-143.0703 368.9677,-149.9665"/>
</g>
<!-- Node359 -->
<g id="node7" class="node">
<title>Node359</title>
<g id="a_node7"><a xlink:href="../../dc/d9d/namespacexla_1_1anonymous__namespace_02user__computation_8cc_03.html#a48377f566f973539c09065de3f43058e" target="_top" xlink:title="xla::anonymous_namespace\l\{user_computation::cc\}\l::LookUpRequest">
<polygon fill="#ffffff" stroke="#000000" points="365,-60.5 365,-101.5 506,-101.5 506,-60.5 365,-60.5"/>
<text text-anchor="start" x="373" y="-89.5" font-family="Helvetica,sans-Serif" font-size="10.00" fill="#000000">xla::anonymous_namespace</text>
<text text-anchor="start" x="373" y="-78.5" font-family="Helvetica,sans-Serif" font-size="10.00" fill="#000000">{user_computation::cc}</text>
<text text-anchor="middle" x="435.5" y="-67.5" font-family="Helvetica,sans-Serif" font-size="10.00" fill="#000000">::LookUpRequest</text>
</a>
</g>
</g>
<!-- Node358&#45;&gt;Node359 -->
<g id="edge7" class="edge">
<title>Node358&#45;&gt;Node359</title>
<path fill="none" stroke="#191970" d="M316.5628,-74.096C329.0177,-74.819 342.0702,-75.5766 354.7784,-76.3143"/>
<polygon fill="#191970" stroke="#191970" points="354.6922,-79.8151 364.8783,-76.9006 355.0979,-72.8269 354.6922,-79.8151"/>
</g>
<!-- Node360 -->
<g id="node8" class="node">
<title>Node360</title>
<g id="a_node8"><a xlink:href="../../dc/d9d/namespacexla_1_1anonymous__namespace_02user__computation_8cc_03.html#a47ec5fc250056c19fc49c663922f592e" target="_top" xlink:title="xla::anonymous_namespace\l\{user_computation::cc\}\l::CanBeRoot">
<polygon fill="#ffffff" stroke="#000000" points="365,-.5 365,-41.5 506,-41.5 506,-.5 365,-.5"/>
<text text-anchor="start" x="373" y="-29.5" font-family="Helvetica,sans-Serif" font-size="10.00" fill="#000000">xla::anonymous_namespace</text>
<text text-anchor="start" x="373" y="-18.5" font-family="Helvetica,sans-Serif" font-size="10.00" fill="#000000">{user_computation::cc}</text>
<text text-anchor="middle" x="435.5" y="-7.5" font-family="Helvetica,sans-Serif" font-size="10.00" fill="#000000">::CanBeRoot</text>
</a>
</g>
</g>
<!-- Node358&#45;&gt;Node360 -->
<g id="edge8" class="edge">
<title>Node358&#45;&gt;Node360</title>
<path fill="none" stroke="#191970" d="M316.5628,-51.7542C329.141,-48.5018 342.3287,-45.0918 355.1557,-41.775"/>
<polygon fill="#191970" stroke="#191970" points="356.0729,-45.1531 364.8783,-39.261 354.3205,-38.376 356.0729,-45.1531"/>
</g>
</g>
</svg>
