<?xml version="1.0" encoding="UTF-8" standalone="no"?>
<!DOCTYPE svg PUBLIC "-//W3C//DTD SVG 1.1//EN"
 "http://www.w3.org/Graphics/SVG/1.1/DTD/svg11.dtd">
<!-- Generated by graphviz version 2.40.1 (20161225.0304)
 -->
<!-- Title: xla::UserComputation::AddSelectAndScatterInstruction Pages: 1 -->
<!--zoomable 294 -->
<svg id="main" version="1.1" xmlns="http://www.w3.org/2000/svg" xmlns:xlink="http://www.w3.org/1999/xlink" xml:space="preserve" onload="init(evt)">
<style type="text/css"><![CDATA[
.edge:hover path { stroke: red; }
.edge:hover polygon { stroke: red; fill: red; }
]]></style>
<script type="text/javascript"><![CDATA[
var edges = document.getElementsByTagName('g');
if (edges && edges.length) {
  for (var i=0;i<edges.length;i++) {
    if (edges[i].id.substr(0,4)=='edge') {
      edges[i].setAttribute('class','edge');
    }
  }
}
]]></script>
        <defs>
                <circle id="rim" cx="0" cy="0" r="7"/>
                <circle id="rim2" cx="0" cy="0" r="3.5"/>
                <g id="zoomPlus">
                        <use xlink:href="#rim" fill="#404040">
                                <set attributeName="fill" to="#808080" begin="zoomplus.mouseover" end="zoomplus.mouseout"/>
                        </use>
                        <path d="M-4,0h8M0,-4v8" fill="none" stroke="white" stroke-width="1.5" pointer-events="none"/>
                </g>
                <g id="zoomMin">
                        <use xlink:href="#rim" fill="#404040">
                                <set attributeName="fill" to="#808080" begin="zoomminus.mouseover" end="zoomminus.mouseout"/>
                        </use>
                        <path d="M-4,0h8" fill="none" stroke="white" stroke-width="1.5" pointer-events="none"/>
                </g>
                <g id="dirArrow">
                        <path fill="none" stroke="white" stroke-width="1.5" d="M0,-3.0v7 M-2.5,-0.5L0,-3.0L2.5,-0.5"/>
                </g>
               <g id="resetDef">
                       <use xlink:href="#rim2" fill="#404040">
                               <set attributeName="fill" to="#808080" begin="reset.mouseover" end="reset.mouseout"/>
                       </use>
               </g>
        </defs>

<script type="text/javascript">
var viewWidth = 1072;
var viewHeight = 294;
var sectionId = 'dynsection-68';
</script>
<script xlink:href="../../svgpan.js"/>
<svg id="graph" class="graph">
<g id="viewport">
<title>xla::UserComputation::AddSelectAndScatterInstruction</title>
<polygon fill="#ffffff" stroke="transparent" points="-4,4 -4,-289.5 1068,-289.5 1068,4 -4,4"/>
<!-- Node232 -->
<g id="node1" class="node">
<title>Node232</title>
<polygon fill="#bfbfbf" stroke="#000000" points="0,-173 0,-203 162,-203 162,-173 0,-173"/>
<text text-anchor="start" x="8" y="-191" font-family="Helvetica,sans-Serif" font-size="10.00" fill="#000000">xla::UserComputation</text>
<text text-anchor="middle" x="81" y="-180" font-family="Helvetica,sans-Serif" font-size="10.00" fill="#000000">::AddSelectAndScatterInstruction</text>
</g>
<!-- Node233 -->
<g id="node2" class="node">
<title>Node233</title>
<g id="a_node2"><a xlink:href="../../db/dbb/classxla_1_1UserComputation.html#a89b9415667968217b87209ccdf989070" target="_top" xlink:title="xla::UserComputation\l::LookUpRequest">
<polygon fill="#ffffff" stroke="#000000" points="221.5,-255 221.5,-285 333.5,-285 333.5,-255 221.5,-255"/>
<text text-anchor="start" x="229.5" y="-273" font-family="Helvetica,sans-Serif" font-size="10.00" fill="#000000">xla::UserComputation</text>
<text text-anchor="middle" x="277.5" y="-262" font-family="Helvetica,sans-Serif" font-size="10.00" fill="#000000">::LookUpRequest</text>
</a>
</g>
</g>
<!-- Node232&#45;&gt;Node233 -->
<g id="edge1" class="edge">
<title>Node232&#45;&gt;Node233</title>
<path fill="none" stroke="#191970" d="M113.5648,-203.0751C136.9191,-213.7383 169.2116,-228.1822 198,-240 207.2117,-243.7815 217.0927,-247.6545 226.6497,-251.3079"/>
<polygon fill="#191970" stroke="#191970" points="225.4706,-254.6039 236.0619,-254.8765 227.9523,-248.0585 225.4706,-254.6039"/>
</g>
<!-- Node234 -->
<g id="node3" class="node">
<title>Node234</title>
<g id="a_node3"><a xlink:href="../../db/dbb/classxla_1_1UserComputation.html#aee9eeba8ef86ffdae79b8fe9d74cd99b" target="_top" xlink:title="xla::UserComputation\l::version">
<polygon fill="#ffffff" stroke="#000000" points="609.5,-139 609.5,-169 721.5,-169 721.5,-139 609.5,-139"/>
<text text-anchor="start" x="617.5" y="-157" font-family="Helvetica,sans-Serif" font-size="10.00" fill="#000000">xla::UserComputation</text>
<text text-anchor="middle" x="665.5" y="-146" font-family="Helvetica,sans-Serif" font-size="10.00" fill="#000000">::version</text>
</a>
</g>
</g>
<!-- Node232&#45;&gt;Node234 -->
<g id="edge2" class="edge">
<title>Node232&#45;&gt;Node234</title>
<path fill="none" stroke="#191970" d="M162.3539,-187.2451C257.6047,-185.7876 420.0358,-181.5163 559,-169 572.041,-167.8254 585.9287,-166.1688 599.2208,-164.3824"/>
<polygon fill="#191970" stroke="#191970" points="599.8187,-167.8331 609.2453,-162.9968 598.8602,-160.899 599.8187,-167.8331"/>
</g>
<!-- Node236 -->
<g id="node5" class="node">
<title>Node236</title>
<g id="a_node5"><a xlink:href="../../db/dbb/classxla_1_1UserComputation.html#af44a77b35aaed6ff22d5fbb266dd824e" target="_top" xlink:title="xla::UserComputation\l::GetVersionedHandleInternal">
<polygon fill="#ffffff" stroke="#000000" points="920,-180 920,-210 1064,-210 1064,-180 920,-180"/>
<text text-anchor="start" x="928" y="-198" font-family="Helvetica,sans-Serif" font-size="10.00" fill="#000000">xla::UserComputation</text>
<text text-anchor="middle" x="992" y="-187" font-family="Helvetica,sans-Serif" font-size="10.00" fill="#000000">::GetVersionedHandleInternal</text>
</a>
</g>
</g>
<!-- Node232&#45;&gt;Node236 -->
<g id="edge13" class="edge">
<title>Node232&#45;&gt;Node236</title>
<path fill="none" stroke="#191970" d="M162.1049,-200.39C241.802,-211.4792 366.9768,-226 476,-226 476,-226 476,-226 665.5,-226 749.0398,-226 844.0669,-215.8176 909.9743,-207.1242"/>
<polygon fill="#191970" stroke="#191970" points="910.4406,-210.5931 919.8886,-205.7988 909.5129,-203.6549 910.4406,-210.5931"/>
</g>
<!-- Node237 -->
<g id="node6" class="node">
<title>Node237</title>
<g id="a_node6"><a xlink:href="../../db/dbb/classxla_1_1UserComputation.html#a186a2daf1d487b8f35cf85f0dba034bf" target="_top" xlink:title="xla::UserComputation\l::ComputeProgramShape">
<polygon fill="#ffffff" stroke="#000000" points="214,-129 214,-159 341,-159 341,-129 214,-129"/>
<text text-anchor="start" x="222" y="-147" font-family="Helvetica,sans-Serif" font-size="10.00" fill="#000000">xla::UserComputation</text>
<text text-anchor="middle" x="277.5" y="-136" font-family="Helvetica,sans-Serif" font-size="10.00" fill="#000000">::ComputeProgramShape</text>
</a>
</g>
</g>
<!-- Node232&#45;&gt;Node237 -->
<g id="edge5" class="edge">
<title>Node232&#45;&gt;Node237</title>
<path fill="none" stroke="#191970" d="M148.0746,-172.9808C165.992,-168.9687 185.4527,-164.6111 203.71,-160.523"/>
<polygon fill="#191970" stroke="#191970" points="204.7181,-163.884 213.7116,-158.2834 203.1885,-157.0531 204.7181,-163.884"/>
</g>
<!-- Node242 -->
<g id="node11" class="node">
<title>Node242</title>
<g id="a_node11"><a xlink:href="../../db/dbb/classxla_1_1UserComputation.html#a3d120052a47ab98a431b908192f0d755" target="_top" xlink:title="xla::UserComputation\l::CreateComputationDataHandle">
<polygon fill="#ffffff" stroke="#000000" points="198,-80 198,-110 357,-110 357,-80 198,-80"/>
<text text-anchor="start" x="206" y="-98" font-family="Helvetica,sans-Serif" font-size="10.00" fill="#000000">xla::UserComputation</text>
<text text-anchor="middle" x="277.5" y="-87" font-family="Helvetica,sans-Serif" font-size="10.00" fill="#000000">::CreateComputationDataHandle</text>
</a>
</g>
</g>
<!-- Node232&#45;&gt;Node242 -->
<g id="edge12" class="edge">
<title>Node232&#45;&gt;Node242</title>
<path fill="none" stroke="#191970" d="M103.5109,-172.8867C126.5037,-157.9444 163.6091,-135.1759 198,-120 203.2575,-117.68 208.7974,-115.478 214.4053,-113.4134"/>
<polygon fill="#191970" stroke="#191970" points="215.6054,-116.7016 223.8697,-110.0719 213.2749,-110.1009 215.6054,-116.7016"/>
</g>
<!-- Node235 -->
<g id="node4" class="node">
<title>Node235</title>
<g id="a_node4"><a xlink:href="../../db/dbb/classxla_1_1UserComputation.html#a4fef8fc438e3b3b2c396de862820af3e" target="_top" xlink:title="xla::UserComputation\l::GetVersionedHandle">
<polygon fill="#ffffff" stroke="#000000" points="772,-158 772,-188 884,-188 884,-158 772,-158"/>
<text text-anchor="start" x="780" y="-176" font-family="Helvetica,sans-Serif" font-size="10.00" fill="#000000">xla::UserComputation</text>
<text text-anchor="middle" x="828" y="-165" font-family="Helvetica,sans-Serif" font-size="10.00" fill="#000000">::GetVersionedHandle</text>
</a>
</g>
</g>
<!-- Node234&#45;&gt;Node235 -->
<g id="edge3" class="edge">
<title>Node234&#45;&gt;Node235</title>
<path fill="none" stroke="#191970" d="M721.8786,-160.592C734.808,-162.1037 748.6674,-163.7242 761.9631,-165.2788"/>
<polygon fill="#191970" stroke="#191970" points="761.657,-168.7667 771.9959,-166.4518 762.47,-161.8141 761.657,-168.7667"/>
</g>
<!-- Node235&#45;&gt;Node236 -->
<g id="edge4" class="edge">
<title>Node235&#45;&gt;Node236</title>
<path fill="none" stroke="#191970" d="M884.4395,-180.5712C892.6308,-181.67 901.2002,-182.8195 909.7728,-183.9695"/>
<polygon fill="#191970" stroke="#191970" points="909.4389,-187.456 919.8155,-185.3167 910.3697,-180.5181 909.4389,-187.456"/>
</g>
<!-- Node237&#45;&gt;Node234 -->
<g id="edge6" class="edge">
<title>Node237&#45;&gt;Node234</title>
<path fill="none" stroke="#191970" d="M338.2759,-128.9392C355.8212,-125.2549 375.0717,-121.843 393,-120 466.391,-112.4555 486.1011,-108.6458 559,-120 578.995,-123.1143 600.3685,-129.3314 618.6809,-135.6075"/>
<polygon fill="#191970" stroke="#191970" points="617.6373,-138.9507 628.2321,-138.9794 619.9676,-132.3499 617.6373,-138.9507"/>
</g>
<!-- Node238 -->
<g id="node7" class="node">
<title>Node238</title>
<g id="a_node7"><a xlink:href="../../db/dbb/classxla_1_1UserComputation.html#a02a015ab900f28dc61b02f47c44f96f0" target="_top" xlink:title="xla::UserComputation\l::CheckParametersAreContiguous">
<polygon fill="#ffffff" stroke="#000000" points="393,-129 393,-159 559,-159 559,-129 393,-129"/>
<text text-anchor="start" x="401" y="-147" font-family="Helvetica,sans-Serif" font-size="10.00" fill="#000000">xla::UserComputation</text>
<text text-anchor="middle" x="476" y="-136" font-family="Helvetica,sans-Serif" font-size="10.00" fill="#000000">::CheckParametersAreContiguous</text>
</a>
</g>
</g>
<!-- Node237&#45;&gt;Node238 -->
<g id="edge7" class="edge">
<title>Node237&#45;&gt;Node238</title>
<path fill="none" stroke="#191970" d="M341.1257,-144C354.3571,-144 368.5624,-144 382.6106,-144"/>
<polygon fill="#191970" stroke="#191970" points="382.796,-147.5001 392.796,-144 382.796,-140.5001 382.796,-147.5001"/>
</g>
<!-- Node239 -->
<g id="node8" class="node">
<title>Node239</title>
<g id="a_node8"><a xlink:href="../../dc/d9d/namespacexla_1_1anonymous__namespace_02user__computation_8cc_03.html#a5ee0643c24e2ef217ab180c717d5de36" target="_top" xlink:title="xla::anonymous_namespace\l\{user_computation::cc\}\l::GetRoot">
<polygon fill="#ffffff" stroke="#000000" points="405.5,-30.5 405.5,-71.5 546.5,-71.5 546.5,-30.5 405.5,-30.5"/>
<text text-anchor="start" x="413.5" y="-59.5" font-family="Helvetica,sans-Serif" font-size="10.00" fill="#000000">xla::anonymous_namespace</text>
<text text-anchor="start" x="413.5" y="-48.5" font-family="Helvetica,sans-Serif" font-size="10.00" fill="#000000">{user_computation::cc}</text>
<text text-anchor="middle" x="476" y="-37.5" font-family="Helvetica,sans-Serif" font-size="10.00" fill="#000000">::GetRoot</text>
</a>
</g>
</g>
<!-- Node237&#45;&gt;Node239 -->
<g id="edge9" class="edge">
<title>Node237&#45;&gt;Node239</title>
<path fill="none" stroke="#191970" d="M336.0776,-128.8382C343.3339,-126.0239 350.4833,-122.7599 357,-119 375.8003,-108.1529 374.7324,-97.722 393,-86 398.5711,-82.4251 404.5691,-79.0755 410.7004,-75.9745"/>
<polygon fill="#191970" stroke="#191970" points="412.2585,-79.1089 419.7447,-71.6117 409.2172,-72.8041 412.2585,-79.1089"/>
</g>
<!-- Node238&#45;&gt;Node234 -->
<g id="edge8" class="edge">
<title>Node238&#45;&gt;Node234</title>
<path fill="none" stroke="#191970" d="M559.1175,-148.3861C572.5357,-149.0942 586.2699,-149.819 599.2216,-150.5025"/>
<polygon fill="#191970" stroke="#191970" points="599.2493,-154.0087 609.4199,-151.0406 599.6183,-147.0184 599.2493,-154.0087"/>
</g>
<!-- Node240 -->
<g id="node9" class="node">
<title>Node240</title>
<g id="a_node9"><a xlink:href="../../dc/d9d/namespacexla_1_1anonymous__namespace_02user__computation_8cc_03.html#a48377f566f973539c09065de3f43058e" target="_top" xlink:title="xla::anonymous_namespace\l\{user_computation::cc\}\l::LookUpRequest">
<polygon fill="#ffffff" stroke="#000000" points="595,-60.5 595,-101.5 736,-101.5 736,-60.5 595,-60.5"/>
<text text-anchor="start" x="603" y="-89.5" font-family="Helvetica,sans-Serif" font-size="10.00" fill="#000000">xla::anonymous_namespace</text>
<text text-anchor="start" x="603" y="-78.5" font-family="Helvetica,sans-Serif" font-size="10.00" fill="#000000">{user_computation::cc}</text>
<text text-anchor="middle" x="665.5" y="-67.5" font-family="Helvetica,sans-Serif" font-size="10.00" fill="#000000">::LookUpRequest</text>
</a>
</g>
</g>
<!-- Node239&#45;&gt;Node240 -->
<g id="edge10" class="edge">
<title>Node239&#45;&gt;Node240</title>
<path fill="none" stroke="#191970" d="M546.5628,-62.1709C559.0177,-64.1426 572.0702,-66.209 584.7784,-68.2208"/>
<polygon fill="#191970" stroke="#191970" points="584.454,-71.713 594.8783,-69.8198 585.5486,-64.7991 584.454,-71.713"/>
</g>
<!-- Node241 -->
<g id="node10" class="node">
<title>Node241</title>
<g id="a_node10"><a xlink:href="../../dc/d9d/namespacexla_1_1anonymous__namespace_02user__computation_8cc_03.html#a47ec5fc250056c19fc49c663922f592e" target="_top" xlink:title="xla::anonymous_namespace\l\{user_computation::cc\}\l::CanBeRoot">
<polygon fill="#ffffff" stroke="#000000" points="595,-.5 595,-41.5 736,-41.5 736,-.5 595,-.5"/>
<text text-anchor="start" x="603" y="-29.5" font-family="Helvetica,sans-Serif" font-size="10.00" fill="#000000">xla::anonymous_namespace</text>
<text text-anchor="start" x="603" y="-18.5" font-family="Helvetica,sans-Serif" font-size="10.00" fill="#000000">{user_computation::cc}</text>
<text text-anchor="middle" x="665.5" y="-7.5" font-family="Helvetica,sans-Serif" font-size="10.00" fill="#000000">::CanBeRoot</text>
</a>
</g>
</g>
<!-- Node239&#45;&gt;Node241 -->
<g id="edge11" class="edge">
<title>Node239&#45;&gt;Node241</title>
<path fill="none" stroke="#191970" d="M546.5628,-39.8291C559.0177,-37.8574 572.0702,-35.791 584.7784,-33.7792"/>
<polygon fill="#191970" stroke="#191970" points="585.5486,-37.2009 594.8783,-32.1802 584.454,-30.287 585.5486,-37.2009"/>
</g>
</g>
</svg>
        <g id="navigator" transform="translate(0 0)" fill="#404254">
                <rect fill="#f2f5e9" fill-opacity="0.5" stroke="#606060" stroke-width=".5" x="0" y="0" width="60" height="60"/>
                <use id="zoomplus" xlink:href="#zoomPlus" x="17" y="9" onmousedown="handleZoom(evt,'in')"/>
                <use id="zoomminus" xlink:href="#zoomMin" x="42" y="9" onmousedown="handleZoom(evt,'out')"/>
                <use id="reset" xlink:href="#resetDef" x="30" y="36" onmousedown="handleReset()"/>
                <g id="arrowUp" xlink:href="#dirArrow" transform="translate(30 24)" onmousedown="handlePan(0,-1)">
                  <use xlink:href="#rim" fill="#404040">
                        <set attributeName="fill" to="#808080" begin="arrowUp.mouseover" end="arrowUp.mouseout"/>
                  </use>
                  <path fill="none" stroke="white" stroke-width="1.5" d="M0,-3.0v7 M-2.5,-0.5L0,-3.0L2.5,-0.5"/>
                </g>
                <g id="arrowRight" xlink:href="#dirArrow" transform="rotate(90) translate(36 -43)" onmousedown="handlePan(1,0)">
                  <use xlink:href="#rim" fill="#404040">
                        <set attributeName="fill" to="#808080" begin="arrowRight.mouseover" end="arrowRight.mouseout"/>
                  </use>
                  <path fill="none" stroke="white" stroke-width="1.5" d="M0,-3.0v7 M-2.5,-0.5L0,-3.0L2.5,-0.5"/>
                </g>
                <g id="arrowDown" xlink:href="#dirArrow" transform="rotate(180) translate(-30 -48)" onmousedown="handlePan(0,1)">
                  <use xlink:href="#rim" fill="#404040">
                        <set attributeName="fill" to="#808080" begin="arrowDown.mouseover" end="arrowDown.mouseout"/>
                  </use>
                  <path fill="none" stroke="white" stroke-width="1.5" d="M0,-3.0v7 M-2.5,-0.5L0,-3.0L2.5,-0.5"/>
                </g>
                <g id="arrowLeft" xlink:href="#dirArrow" transform="rotate(270) translate(-36 17)" onmousedown="handlePan(-1,0)">
                  <use xlink:href="#rim" fill="#404040">
                        <set attributeName="fill" to="#808080" begin="arrowLeft.mouseover" end="arrowLeft.mouseout"/>
                  </use>
                  <path fill="none" stroke="white" stroke-width="1.5" d="M0,-3.0v7 M-2.5,-0.5L0,-3.0L2.5,-0.5"/>
                </g>
        </g>
        <svg viewBox="0 0 15 15" width="100%" height="30px" preserveAspectRatio="xMaxYMin meet">
         <g id="arrow_out" transform="scale(0.3 0.3)">
          <a xlink:href="classxla_1_1UserComputation_a5d5027c8fb2d74cf8af3ef15b845f26c_cgraph_org.svg" target="_base">
           <rect id="button" ry="5" rx="5" y="6" x="6" height="38" width="38"
                fill="#f2f5e9" fill-opacity="0.5" stroke="#606060" stroke-width="1.0"/>
           <path id="arrow"
             d="M 11.500037,31.436501 C 11.940474,20.09759 22.043105,11.32322 32.158766,21.979434 L 37.068811,17.246167 C 37.068811,17.246167 37.088388,32 37.088388,32 L 22.160133,31.978069 C 22.160133,31.978069 26.997745,27.140456 26.997745,27.140456 C 18.528582,18.264221 13.291696,25.230495 11.500037,31.436501 z"
             style="fill:#404040;"/>
          </a>
         </g>
        </svg>
</svg>
