<?xml version="1.0" encoding="UTF-8" standalone="no"?>
<!DOCTYPE svg PUBLIC "-//W3C//DTD SVG 1.1//EN"
 "http://www.w3.org/Graphics/SVG/1.1/DTD/svg11.dtd">
<!-- Generated by graphviz version 2.40.1 (20161225.0304)
 -->
<!-- Title: xla::UserComputation::AddCrossReplicaSumInstruction Pages: 1 -->
<svg width="368pt" height="137pt"
 viewBox="0.00 0.00 368.00 137.00" xmlns="http://www.w3.org/2000/svg" xmlns:xlink="http://www.w3.org/1999/xlink">
<g id="graph0" class="graph" transform="scale(1 1) rotate(0) translate(4 133)">
<title>xla::UserComputation::AddCrossReplicaSumInstruction</title>
<polygon fill="#ffffff" stroke="transparent" points="-4,4 -4,-133 364,-133 364,4 -4,4"/>
<!-- Node88 -->
<g id="node1" class="node">
<title>Node88</title>
<polygon fill="#bfbfbf" stroke="#000000" points="0,-49.5 0,-79.5 165,-79.5 165,-49.5 0,-49.5"/>
<text text-anchor="start" x="8" y="-67.5" font-family="Helvetica,sans-Serif" font-size="10.00" fill="#000000">xla::UserComputation</text>
<text text-anchor="middle" x="82.5" y="-56.5" font-family="Helvetica,sans-Serif" font-size="10.00" fill="#000000">::AddCrossReplicaSumInstruction</text>
</g>
<!-- Node89 -->
<g id="node2" class="node">
<title>Node89</title>
<g id="a_node2"><a xlink:href="../../db/dbb/classxla_1_1UserComputation.html#a89b9415667968217b87209ccdf989070" target="_top" xlink:title="xla::UserComputation\l::LookUpRequest">
<polygon fill="#ffffff" stroke="#000000" points="224.5,-98.5 224.5,-128.5 336.5,-128.5 336.5,-98.5 224.5,-98.5"/>
<text text-anchor="start" x="232.5" y="-116.5" font-family="Helvetica,sans-Serif" font-size="10.00" fill="#000000">xla::UserComputation</text>
<text text-anchor="middle" x="280.5" y="-105.5" font-family="Helvetica,sans-Serif" font-size="10.00" fill="#000000">::LookUpRequest</text>
</a>
</g>
</g>
<!-- Node88&#45;&gt;Node89 -->
<g id="edge1" class="edge">
<title>Node88&#45;&gt;Node89</title>
<path fill="none" stroke="#191970" d="M143.2521,-79.5346C165.7306,-85.0975 191.3177,-91.4296 214.2595,-97.1072"/>
<polygon fill="#191970" stroke="#191970" points="213.704,-100.5752 224.252,-99.58 215.3857,-93.7802 213.704,-100.5752"/>
</g>
<!-- Node90 -->
<g id="node3" class="node">
<title>Node90</title>
<g id="a_node3"><a xlink:href="../../db/dbb/classxla_1_1UserComputation.html#a3d120052a47ab98a431b908192f0d755" target="_top" xlink:title="xla::UserComputation\l::CreateComputationDataHandle">
<polygon fill="#ffffff" stroke="#000000" points="201,-49.5 201,-79.5 360,-79.5 360,-49.5 201,-49.5"/>
<text text-anchor="start" x="209" y="-67.5" font-family="Helvetica,sans-Serif" font-size="10.00" fill="#000000">xla::UserComputation</text>
<text text-anchor="middle" x="280.5" y="-56.5" font-family="Helvetica,sans-Serif" font-size="10.00" fill="#000000">::CreateComputationDataHandle</text>
</a>
</g>
</g>
<!-- Node88&#45;&gt;Node90 -->
<g id="edge2" class="edge">
<title>Node88&#45;&gt;Node90</title>
<path fill="none" stroke="#191970" d="M165.0361,-64.5C173.578,-64.5 182.2882,-64.5 190.9026,-64.5"/>
<polygon fill="#191970" stroke="#191970" points="190.9553,-68.0001 200.9553,-64.5 190.9553,-61.0001 190.9553,-68.0001"/>
</g>
<!-- Node91 -->
<g id="node4" class="node">
<title>Node91</title>
<g id="a_node4"><a xlink:href="../../db/dbb/classxla_1_1UserComputation.html#af44a77b35aaed6ff22d5fbb266dd824e" target="_top" xlink:title="xla::UserComputation\l::GetVersionedHandleInternal">
<polygon fill="#ffffff" stroke="#000000" points="208.5,-.5 208.5,-30.5 352.5,-30.5 352.5,-.5 208.5,-.5"/>
<text text-anchor="start" x="216.5" y="-18.5" font-family="Helvetica,sans-Serif" font-size="10.00" fill="#000000">xla::UserComputation</text>
<text text-anchor="middle" x="280.5" y="-7.5" font-family="Helvetica,sans-Serif" font-size="10.00" fill="#000000">::GetVersionedHandleInternal</text>
</a>
</g>
</g>
<!-- Node88&#45;&gt;Node91 -->
<g id="edge3" class="edge">
<title>Node88&#45;&gt;Node91</title>
<path fill="none" stroke="#191970" d="M143.2521,-49.4654C164.3482,-44.2446 188.1824,-38.3463 209.9983,-32.9474"/>
<polygon fill="#191970" stroke="#191970" points="210.9964,-36.306 219.8628,-30.5062 209.3148,-29.511 210.9964,-36.306"/>
</g>
</g>
</svg>
