<?xml version="1.0" encoding="UTF-8" standalone="no"?>
<!DOCTYPE svg PUBLIC "-//W3C//DTD SVG 1.1//EN"
 "http://www.w3.org/Graphics/SVG/1.1/DTD/svg11.dtd">
<!-- Generated by graphviz version 2.40.1 (20161225.0304)
 -->
<!-- Title: xla::UserComputation::SetReturnValue Pages: 1 -->
<svg width="300pt" height="88pt"
 viewBox="0.00 0.00 300.00 88.00" xmlns="http://www.w3.org/2000/svg" xmlns:xlink="http://www.w3.org/1999/xlink">
<g id="graph0" class="graph" transform="scale(1 1) rotate(0) translate(4 84)">
<title>xla::UserComputation::SetReturnValue</title>
<polygon fill="#ffffff" stroke="transparent" points="-4,4 -4,-84 296,-84 296,4 -4,4"/>
<!-- Node702 -->
<g id="node1" class="node">
<title>Node702</title>
<polygon fill="#bfbfbf" stroke="#000000" points="0,-24.5 0,-54.5 112,-54.5 112,-24.5 0,-24.5"/>
<text text-anchor="start" x="8" y="-42.5" font-family="Helvetica,sans-Serif" font-size="10.00" fill="#000000">xla::UserComputation</text>
<text text-anchor="middle" x="56" y="-31.5" font-family="Helvetica,sans-Serif" font-size="10.00" fill="#000000">::SetReturnValue</text>
</g>
<!-- Node703 -->
<g id="node2" class="node">
<title>Node703</title>
<g id="a_node2"><a xlink:href="../../db/dbb/classxla_1_1UserComputation.html#af22e122e5671d4f05628c8aae80b8aee" target="_top" xlink:title="xla::UserComputation\l::name">
<polygon fill="#ffffff" stroke="#000000" points="164,-49.5 164,-79.5 276,-79.5 276,-49.5 164,-49.5"/>
<text text-anchor="start" x="172" y="-67.5" font-family="Helvetica,sans-Serif" font-size="10.00" fill="#000000">xla::UserComputation</text>
<text text-anchor="middle" x="220" y="-56.5" font-family="Helvetica,sans-Serif" font-size="10.00" fill="#000000">::name</text>
</a>
</g>
</g>
<!-- Node702&#45;&gt;Node703 -->
<g id="edge1" class="edge">
<title>Node702&#45;&gt;Node703</title>
<path fill="none" stroke="#191970" d="M112.4395,-48.1036C125.6559,-50.1183 139.8565,-52.283 153.4673,-54.3578"/>
<polygon fill="#191970" stroke="#191970" points="153.3211,-57.8759 163.7344,-55.9229 154.3761,-50.9558 153.3211,-57.8759"/>
</g>
<!-- Node704 -->
<g id="node3" class="node">
<title>Node704</title>
<g id="a_node3"><a xlink:href="../../db/dbb/classxla_1_1UserComputation.html#af44a77b35aaed6ff22d5fbb266dd824e" target="_top" xlink:title="xla::UserComputation\l::GetVersionedHandleInternal">
<polygon fill="#ffffff" stroke="#000000" points="148,-.5 148,-30.5 292,-30.5 292,-.5 148,-.5"/>
<text text-anchor="start" x="156" y="-18.5" font-family="Helvetica,sans-Serif" font-size="10.00" fill="#000000">xla::UserComputation</text>
<text text-anchor="middle" x="220" y="-7.5" font-family="Helvetica,sans-Serif" font-size="10.00" fill="#000000">::GetVersionedHandleInternal</text>
</a>
</g>
</g>
<!-- Node702&#45;&gt;Node704 -->
<g id="edge2" class="edge">
<title>Node702&#45;&gt;Node704</title>
<path fill="none" stroke="#191970" d="M112.4395,-31.2406C120.6308,-30.0418 129.2002,-28.7878 137.7728,-27.5332"/>
<polygon fill="#191970" stroke="#191970" points="138.4277,-30.9748 147.8155,-26.0636 137.4141,-24.0485 138.4277,-30.9748"/>
</g>
</g>
</svg>
