<?xml version="1.0" encoding="UTF-8" standalone="no"?>
<!DOCTYPE svg PUBLIC "-//W3C//DTD SVG 1.1//EN"
 "http://www.w3.org/Graphics/SVG/1.1/DTD/svg11.dtd">
<!-- Generated by graphviz version 2.40.1 (20161225.0304)
 -->
<!-- Title: xla::UserComputation::CheckParametersAreContiguous Pages: 1 -->
<svg width="650pt" height="39pt"
 viewBox="0.00 0.00 650.00 39.00" xmlns="http://www.w3.org/2000/svg" xmlns:xlink="http://www.w3.org/1999/xlink">
<g id="graph0" class="graph" transform="scale(1 1) rotate(0) translate(4 35)">
<title>xla::UserComputation::CheckParametersAreContiguous</title>
<polygon fill="#ffffff" stroke="transparent" points="-4,4 -4,-35 646,-35 646,4 -4,4"/>
<!-- Node322 -->
<g id="node1" class="node">
<title>Node322</title>
<polygon fill="#bfbfbf" stroke="#000000" points="0,-.5 0,-30.5 166,-30.5 166,-.5 0,-.5"/>
<text text-anchor="start" x="8" y="-18.5" font-family="Helvetica,sans-Serif" font-size="10.00" fill="#000000">xla::UserComputation</text>
<text text-anchor="middle" x="83" y="-7.5" font-family="Helvetica,sans-Serif" font-size="10.00" fill="#000000">::CheckParametersAreContiguous</text>
</g>
<!-- Node323 -->
<g id="node2" class="node">
<title>Node323</title>
<g id="a_node2"><a xlink:href="../../db/dbb/classxla_1_1UserComputation.html#aee9eeba8ef86ffdae79b8fe9d74cd99b" target="_top" xlink:title="xla::UserComputation\l::version">
<polygon fill="#ffffff" stroke="#000000" points="202,-.5 202,-30.5 314,-30.5 314,-.5 202,-.5"/>
<text text-anchor="start" x="210" y="-18.5" font-family="Helvetica,sans-Serif" font-size="10.00" fill="#000000">xla::UserComputation</text>
<text text-anchor="middle" x="258" y="-7.5" font-family="Helvetica,sans-Serif" font-size="10.00" fill="#000000">::version</text>
</a>
</g>
</g>
<!-- Node322&#45;&gt;Node323 -->
<g id="edge1" class="edge">
<title>Node322&#45;&gt;Node323</title>
<path fill="none" stroke="#191970" d="M166.1437,-15.5C174.5768,-15.5 183.0639,-15.5 191.2908,-15.5"/>
<polygon fill="#191970" stroke="#191970" points="191.5487,-19.0001 201.5487,-15.5 191.5487,-12.0001 191.5487,-19.0001"/>
</g>
<!-- Node324 -->
<g id="node3" class="node">
<title>Node324</title>
<g id="a_node3"><a xlink:href="../../db/dbb/classxla_1_1UserComputation.html#a4fef8fc438e3b3b2c396de862820af3e" target="_top" xlink:title="xla::UserComputation\l::GetVersionedHandle">
<polygon fill="#ffffff" stroke="#000000" points="350,-.5 350,-30.5 462,-30.5 462,-.5 350,-.5"/>
<text text-anchor="start" x="358" y="-18.5" font-family="Helvetica,sans-Serif" font-size="10.00" fill="#000000">xla::UserComputation</text>
<text text-anchor="middle" x="406" y="-7.5" font-family="Helvetica,sans-Serif" font-size="10.00" fill="#000000">::GetVersionedHandle</text>
</a>
</g>
</g>
<!-- Node323&#45;&gt;Node324 -->
<g id="edge2" class="edge">
<title>Node323&#45;&gt;Node324</title>
<path fill="none" stroke="#191970" d="M314.3747,-15.5C322.6214,-15.5 331.1782,-15.5 339.6023,-15.5"/>
<polygon fill="#191970" stroke="#191970" points="339.7821,-19.0001 349.7821,-15.5 339.7821,-12.0001 339.7821,-19.0001"/>
</g>
<!-- Node325 -->
<g id="node4" class="node">
<title>Node325</title>
<g id="a_node4"><a xlink:href="../../db/dbb/classxla_1_1UserComputation.html#af44a77b35aaed6ff22d5fbb266dd824e" target="_top" xlink:title="xla::UserComputation\l::GetVersionedHandleInternal">
<polygon fill="#ffffff" stroke="#000000" points="498,-.5 498,-30.5 642,-30.5 642,-.5 498,-.5"/>
<text text-anchor="start" x="506" y="-18.5" font-family="Helvetica,sans-Serif" font-size="10.00" fill="#000000">xla::UserComputation</text>
<text text-anchor="middle" x="570" y="-7.5" font-family="Helvetica,sans-Serif" font-size="10.00" fill="#000000">::GetVersionedHandleInternal</text>
</a>
</g>
</g>
<!-- Node324&#45;&gt;Node325 -->
<g id="edge3" class="edge">
<title>Node324&#45;&gt;Node325</title>
<path fill="none" stroke="#191970" d="M462.4395,-15.5C470.6308,-15.5 479.2002,-15.5 487.7728,-15.5"/>
<polygon fill="#191970" stroke="#191970" points="487.8155,-19.0001 497.8155,-15.5 487.8155,-12.0001 487.8155,-19.0001"/>
</g>
</g>
</svg>
