<?xml version="1.0" encoding="UTF-8" standalone="no"?>
<!DOCTYPE svg PUBLIC "-//W3C//DTD SVG 1.1//EN"
 "http://www.w3.org/Graphics/SVG/1.1/DTD/svg11.dtd">
<!-- Generated by graphviz version 2.40.1 (20161225.0304)
 -->
<!-- Title: xla::UserComputation::BuildHloComputation Pages: 1 -->
<svg width="1222pt" height="174pt"
 viewBox="0.00 0.00 1222.00 173.50" xmlns="http://www.w3.org/2000/svg" xmlns:xlink="http://www.w3.org/1999/xlink">
<g id="graph0" class="graph" transform="scale(1 1) rotate(0) translate(4 169.5)">
<title>xla::UserComputation::BuildHloComputation</title>
<polygon fill="#ffffff" stroke="transparent" points="-4,4 -4,-169.5 1218,-169.5 1218,4 -4,4"/>
<!-- Node305 -->
<g id="node1" class="node">
<title>Node305</title>
<polygon fill="#bfbfbf" stroke="#000000" points="0,-63.5 0,-93.5 115,-93.5 115,-63.5 0,-63.5"/>
<text text-anchor="start" x="8" y="-81.5" font-family="Helvetica,sans-Serif" font-size="10.00" fill="#000000">xla::UserComputation</text>
<text text-anchor="middle" x="57.5" y="-70.5" font-family="Helvetica,sans-Serif" font-size="10.00" fill="#000000">::BuildHloComputation</text>
</g>
<!-- Node306 -->
<g id="node2" class="node">
<title>Node306</title>
<g id="a_node2"><a xlink:href="../../d8/d42/classxla_1_1ComputationTracker.html#abaeb463c7038bcc61515a19e18fe0714" target="_top" xlink:title="xla::ComputationTracker\l::BuildHloModule">
<polygon fill="#ffffff" stroke="#000000" points="151,-63.5 151,-93.5 273,-93.5 273,-63.5 151,-63.5"/>
<text text-anchor="start" x="159" y="-81.5" font-family="Helvetica,sans-Serif" font-size="10.00" fill="#000000">xla::ComputationTracker</text>
<text text-anchor="middle" x="212" y="-70.5" font-family="Helvetica,sans-Serif" font-size="10.00" fill="#000000">::BuildHloModule</text>
</a>
</g>
</g>
<!-- Node305&#45;&gt;Node306 -->
<g id="edge1" class="edge">
<title>Node305&#45;&gt;Node306</title>
<path fill="none" stroke="#191970" d="M125.2815,-78.5C133.7719,-78.5 142.4172,-78.5 150.7988,-78.5"/>
<polygon fill="#191970" stroke="#191970" points="125.0301,-75.0001 115.0301,-78.5 125.0301,-82.0001 125.0301,-75.0001"/>
</g>
<!-- Node307 -->
<g id="node3" class="node">
<title>Node307</title>
<g id="a_node3"><a xlink:href="../../dc/d07/classxla_1_1CompileOnlyService.html#aceb67616a89167b9af1bf23d17ec37c9" target="_top" xlink:title="xla::CompileOnlyService\l::CompileAheadOfTime">
<polygon fill="#ffffff" stroke="#000000" points="323.5,-127.5 323.5,-157.5 448.5,-157.5 448.5,-127.5 323.5,-127.5"/>
<text text-anchor="start" x="331.5" y="-145.5" font-family="Helvetica,sans-Serif" font-size="10.00" fill="#000000">xla::CompileOnlyService</text>
<text text-anchor="middle" x="386" y="-134.5" font-family="Helvetica,sans-Serif" font-size="10.00" fill="#000000">::CompileAheadOfTime</text>
</a>
</g>
</g>
<!-- Node306&#45;&gt;Node307 -->
<g id="edge2" class="edge">
<title>Node306&#45;&gt;Node307</title>
<path fill="none" stroke="#191970" d="M258.753,-97.3361C274.639,-103.5973 292.5354,-110.4991 309,-116.5 319.075,-120.172 329.9543,-123.9553 340.2724,-127.4601"/>
<polygon fill="#191970" stroke="#191970" points="259.7385,-93.962 249.1523,-93.5342 257.1611,-100.4703 259.7385,-93.962"/>
</g>
<!-- Node313 -->
<g id="node9" class="node">
<title>Node313</title>
<g id="a_node9"><a xlink:href="../../d1/d10/classxla_1_1Service.html#aae12155f7d9a17dd6fda837a2d1189b3" target="_top" xlink:title="xla::Service::BuildExecutables">
<polygon fill="#ffffff" stroke="#000000" points="311,-88 311,-107 461,-107 461,-88 311,-88"/>
<text text-anchor="middle" x="386" y="-95" font-family="Helvetica,sans-Serif" font-size="10.00" fill="#000000">xla::Service::BuildExecutables</text>
</a>
</g>
</g>
<!-- Node306&#45;&gt;Node313 -->
<g id="edge8" class="edge">
<title>Node306&#45;&gt;Node313</title>
<path fill="none" stroke="#191970" d="M283.4405,-86.301C292.4882,-87.2889 301.7678,-88.3022 310.8708,-89.2962"/>
<polygon fill="#191970" stroke="#191970" points="283.6668,-82.805 273.3459,-85.1987 282.9068,-89.7636 283.6668,-82.805"/>
</g>
<!-- Node320 -->
<g id="node16" class="node">
<title>Node320</title>
<g id="a_node16"><a xlink:href="../../d1/d10/classxla_1_1Service.html#a18b542fa30535934fbe3f425088b6537" target="_top" xlink:title="xla::Service::ComputeConstant">
<polygon fill="#ffffff" stroke="#000000" points="309,-50 309,-69 463,-69 463,-50 309,-50"/>
<text text-anchor="middle" x="386" y="-57" font-family="Helvetica,sans-Serif" font-size="10.00" fill="#000000">xla::Service::ComputeConstant</text>
</a>
</g>
</g>
<!-- Node306&#45;&gt;Node320 -->
<g id="edge15" class="edge">
<title>Node306&#45;&gt;Node320</title>
<path fill="none" stroke="#191970" d="M283.4147,-70.7018C291.7675,-69.7898 300.3185,-68.856 308.746,-67.9358"/>
<polygon fill="#191970" stroke="#191970" points="282.9068,-67.2364 273.3459,-71.8013 283.6668,-74.195 282.9068,-67.2364"/>
</g>
<!-- Node321 -->
<g id="node17" class="node">
<title>Node321</title>
<g id="a_node17"><a xlink:href="../../d1/d10/classxla_1_1Service.html#a59107fc77e341a632ceaf179e29df9f6" target="_top" xlink:title="xla::Service::GetComputation\lStats">
<polygon fill="#ffffff" stroke="#000000" points="313,-.5 313,-30.5 459,-30.5 459,-.5 313,-.5"/>
<text text-anchor="start" x="321" y="-18.5" font-family="Helvetica,sans-Serif" font-size="10.00" fill="#000000">xla::Service::GetComputation</text>
<text text-anchor="middle" x="386" y="-7.5" font-family="Helvetica,sans-Serif" font-size="10.00" fill="#000000">Stats</text>
</a>
</g>
</g>
<!-- Node306&#45;&gt;Node321 -->
<g id="edge16" class="edge">
<title>Node306&#45;&gt;Node321</title>
<path fill="none" stroke="#191970" d="M258.7126,-59.5521C274.5957,-53.2828 292.5006,-46.4044 309,-40.5 318.3956,-37.1377 328.5023,-33.7175 338.2031,-30.53"/>
<polygon fill="#191970" stroke="#191970" points="257.1177,-56.4195 249.1151,-63.3628 259.7009,-62.9255 257.1177,-56.4195"/>
</g>
<!-- Node308 -->
<g id="node4" class="node">
<title>Node308</title>
<g id="a_node4"><a xlink:href="../../d1/dd1/classxla_1_1CompileOnlyClient.html#a5a585d21f617b77a1cecc1b587d18d7a" target="_top" xlink:title="Compiles a list of computations for ahead&#45;of&#45;time execution. This is intended for use in static compi...">
<polygon fill="#ffffff" stroke="#000000" points="511,-128.5 511,-158.5 630,-158.5 630,-128.5 511,-128.5"/>
<text text-anchor="start" x="519" y="-146.5" font-family="Helvetica,sans-Serif" font-size="10.00" fill="#000000">xla::CompileOnlyClient</text>
<text text-anchor="middle" x="570.5" y="-135.5" font-family="Helvetica,sans-Serif" font-size="10.00" fill="#000000">::CompileAheadOfTime</text>
</a>
</g>
</g>
<!-- Node307&#45;&gt;Node308 -->
<g id="edge3" class="edge">
<title>Node307&#45;&gt;Node308</title>
<path fill="none" stroke="#191970" d="M458.7416,-142.8943C475.9809,-142.9877 494.1728,-143.0863 510.7574,-143.1762"/>
<polygon fill="#191970" stroke="#191970" points="458.7396,-139.3943 448.7207,-142.8399 458.7016,-146.3942 458.7396,-139.3943"/>
</g>
<!-- Node309 -->
<g id="node5" class="node">
<title>Node309</title>
<g id="a_node5"><a xlink:href="../../d4/df4/namespacetensorflow_1_1tfcompile_1_1anonymous__namespace_02compile_8cc_03.html#a40f8a019f31fa8cbe2fff5d90e69c21b" target="_top" xlink:title="Compiles the XLA computation into executable code. ">
<polygon fill="#ffffff" stroke="#000000" points="686.5,-124 686.5,-165 815.5,-165 815.5,-124 686.5,-124"/>
<text text-anchor="start" x="694.5" y="-153" font-family="Helvetica,sans-Serif" font-size="10.00" fill="#000000">tensorflow::tfcompile</text>
<text text-anchor="start" x="694.5" y="-142" font-family="Helvetica,sans-Serif" font-size="10.00" fill="#000000">::anonymous_namespace</text>
<text text-anchor="middle" x="751" y="-131" font-family="Helvetica,sans-Serif" font-size="10.00" fill="#000000">{compile::cc}::CompileXla</text>
</a>
</g>
</g>
<!-- Node308&#45;&gt;Node309 -->
<g id="edge4" class="edge">
<title>Node308&#45;&gt;Node309</title>
<path fill="none" stroke="#191970" d="M640.4424,-143.8875C655.596,-143.9714 671.5552,-144.0599 686.4884,-144.1426"/>
<polygon fill="#191970" stroke="#191970" points="640.122,-140.3858 630.1027,-143.8302 640.0831,-147.3857 640.122,-140.3858"/>
</g>
<!-- Node310 -->
<g id="node6" class="node">
<title>Node310</title>
<g id="a_node6"><a xlink:href="../../d7/d38/namespacetensorflow_1_1tfcompile.html#a021cb1c58d938b16dcd998aa8d1fc191" target="_top" xlink:title="Converts the graph into an XLA computation, and compiles the computation. Called by tensorflow::tfcom...">
<polygon fill="#ffffff" stroke="#000000" points="875,-129.5 875,-159.5 982,-159.5 982,-129.5 875,-129.5"/>
<text text-anchor="start" x="883" y="-147.5" font-family="Helvetica,sans-Serif" font-size="10.00" fill="#000000">tensorflow::tfcompile</text>
<text text-anchor="middle" x="928.5" y="-136.5" font-family="Helvetica,sans-Serif" font-size="10.00" fill="#000000">::CompileGraph</text>
</a>
</g>
</g>
<!-- Node309&#45;&gt;Node310 -->
<g id="edge5" class="edge">
<title>Node309&#45;&gt;Node310</title>
<path fill="none" stroke="#191970" d="M825.7287,-144.5C842.193,-144.5 859.3177,-144.5 874.7587,-144.5"/>
<polygon fill="#191970" stroke="#191970" points="825.5837,-141.0001 815.5837,-144.5 825.5837,-148.0001 825.5837,-141.0001"/>
</g>
<!-- Node311 -->
<g id="node7" class="node">
<title>Node311</title>
<g id="a_node7"><a xlink:href="../../d7/d38/namespacetensorflow_1_1tfcompile.html#a460964a5bb277865d1275fe3746132c1" target="_top" xlink:title="tensorflow::tfcompile\l::Main">
<polygon fill="#ffffff" stroke="#000000" points="1033,-129.5 1033,-159.5 1140,-159.5 1140,-129.5 1033,-129.5"/>
<text text-anchor="start" x="1041" y="-147.5" font-family="Helvetica,sans-Serif" font-size="10.00" fill="#000000">tensorflow::tfcompile</text>
<text text-anchor="middle" x="1086.5" y="-136.5" font-family="Helvetica,sans-Serif" font-size="10.00" fill="#000000">::Main</text>
</a>
</g>
</g>
<!-- Node310&#45;&gt;Node311 -->
<g id="edge6" class="edge">
<title>Node310&#45;&gt;Node311</title>
<path fill="none" stroke="#191970" d="M992.5167,-144.5C1005.8898,-144.5 1019.8576,-144.5 1032.8103,-144.5"/>
<polygon fill="#191970" stroke="#191970" points="992.4328,-141.0001 982.4327,-144.5 992.4327,-148.0001 992.4328,-141.0001"/>
</g>
<!-- Node312 -->
<g id="node8" class="node">
<title>Node312</title>
<g id="a_node8"><a xlink:href="../../d4/d8d/tfcompile__main_8cc.html#a3c04138a5bfe5d72780bb7e82a18e627" target="_top" xlink:title="main">
<polygon fill="#ffffff" stroke="#000000" points="1176,-135 1176,-154 1214,-154 1214,-135 1176,-135"/>
<text text-anchor="middle" x="1195" y="-142" font-family="Helvetica,sans-Serif" font-size="10.00" fill="#000000">main</text>
</a>
</g>
</g>
<!-- Node311&#45;&gt;Node312 -->
<g id="edge7" class="edge">
<title>Node311&#45;&gt;Node312</title>
<path fill="none" stroke="#191970" d="M1150.2814,-144.5C1159.5615,-144.5 1168.4574,-144.5 1175.8366,-144.5"/>
<polygon fill="#191970" stroke="#191970" points="1150.1143,-141.0001 1140.1143,-144.5 1150.1142,-148.0001 1150.1143,-141.0001"/>
</g>
<!-- Node314 -->
<g id="node10" class="node">
<title>Node314</title>
<g id="a_node10"><a xlink:href="../../d1/d10/classxla_1_1Service.html#aa0f93c81ca82a50f0ff7f044745bf227" target="_top" xlink:title="xla::Service::ExecuteParallel">
<polygon fill="#ffffff" stroke="#000000" points="499,-88 499,-107 642,-107 642,-88 499,-88"/>
<text text-anchor="middle" x="570.5" y="-95" font-family="Helvetica,sans-Serif" font-size="10.00" fill="#000000">xla::Service::ExecuteParallel</text>
</a>
</g>
</g>
<!-- Node313&#45;&gt;Node314 -->
<g id="edge9" class="edge">
<title>Node313&#45;&gt;Node314</title>
<path fill="none" stroke="#191970" d="M471.0549,-97.5C480.3332,-97.5 489.7092,-97.5 498.8043,-97.5"/>
<polygon fill="#191970" stroke="#191970" points="471.0432,-94.0001 461.0432,-97.5 471.0432,-101.0001 471.0432,-94.0001"/>
</g>
<!-- Node318 -->
<g id="node14" class="node">
<title>Node318</title>
<g id="a_node14"><a xlink:href="../../d1/d10/classxla_1_1Service.html#ae6f727fa681c065fc529a422a83f9133" target="_top" xlink:title="xla::Service::ExecuteGraph\lParallel">
<polygon fill="#ffffff" stroke="#000000" points="502,-38.5 502,-68.5 639,-68.5 639,-38.5 502,-38.5"/>
<text text-anchor="start" x="510" y="-56.5" font-family="Helvetica,sans-Serif" font-size="10.00" fill="#000000">xla::Service::ExecuteGraph</text>
<text text-anchor="middle" x="570.5" y="-45.5" font-family="Helvetica,sans-Serif" font-size="10.00" fill="#000000">Parallel</text>
</a>
</g>
</g>
<!-- Node313&#45;&gt;Node318 -->
<g id="edge13" class="edge">
<title>Node313&#45;&gt;Node318</title>
<path fill="none" stroke="#191970" d="M435.832,-85.616C457.842,-80.3669 483.9704,-74.1358 507.3282,-68.5654"/>
<polygon fill="#191970" stroke="#191970" points="434.949,-82.2283 426.0338,-87.9527 436.5729,-89.0373 434.949,-82.2283"/>
</g>
<!-- Node315 -->
<g id="node11" class="node">
<title>Node315</title>
<g id="a_node11"><a xlink:href="../../d1/d10/classxla_1_1Service.html#a170f36c8fd2b964f57d00d9b720c6912" target="_top" xlink:title="xla::Service::ExecuteOneToN">
<polygon fill="#ffffff" stroke="#000000" points="678,-86 678,-105 824,-105 824,-86 678,-86"/>
<text text-anchor="middle" x="751" y="-93" font-family="Helvetica,sans-Serif" font-size="10.00" fill="#000000">xla::Service::ExecuteOneToN</text>
</a>
</g>
</g>
<!-- Node314&#45;&gt;Node315 -->
<g id="edge10" class="edge">
<title>Node314&#45;&gt;Node315</title>
<path fill="none" stroke="#191970" d="M652.3445,-96.5931C660.802,-96.4994 669.3588,-96.4046 677.7144,-96.312"/>
<polygon fill="#191970" stroke="#191970" points="652.0582,-93.096 642.0976,-96.7067 652.1358,-100.0956 652.0582,-93.096"/>
</g>
<!-- Node316 -->
<g id="node12" class="node">
<title>Node316</title>
<g id="a_node12"><a xlink:href="../../d1/d10/classxla_1_1Service.html#ac3f89822d1f6faab8382f1902e54eea3" target="_top" xlink:title="xla::Service::Execute">
<polygon fill="#ffffff" stroke="#000000" points="873.5,-88 873.5,-107 983.5,-107 983.5,-88 873.5,-88"/>
<text text-anchor="middle" x="928.5" y="-95" font-family="Helvetica,sans-Serif" font-size="10.00" fill="#000000">xla::Service::Execute</text>
</a>
</g>
</g>
<!-- Node315&#45;&gt;Node316 -->
<g id="edge11" class="edge">
<title>Node315&#45;&gt;Node316</title>
<path fill="none" stroke="#191970" d="M834.3011,-96.4386C847.5501,-96.5879 860.9617,-96.739 873.3488,-96.8786"/>
<polygon fill="#191970" stroke="#191970" points="834.2597,-92.938 824.2208,-96.325 834.1807,-99.9376 834.2597,-92.938"/>
</g>
<!-- Node317 -->
<g id="node13" class="node">
<title>Node317</title>
<g id="a_node13"><a xlink:href="../../d1/d10/classxla_1_1Service.html#a6d2eb2712a109ab9484080dfd1e2e446" target="_top" xlink:title="xla::Service::ExecuteGraph">
<polygon fill="#ffffff" stroke="#000000" points="860,-50 860,-69 997,-69 997,-50 860,-50"/>
<text text-anchor="middle" x="928.5" y="-57" font-family="Helvetica,sans-Serif" font-size="10.00" fill="#000000">xla::Service::ExecuteGraph</text>
</a>
</g>
</g>
<!-- Node315&#45;&gt;Node317 -->
<g id="edge12" class="edge">
<title>Node315&#45;&gt;Node317</title>
<path fill="none" stroke="#191970" d="M808.0284,-83.9337C831.7455,-79.1235 858.9428,-73.6074 881.4874,-69.0349"/>
<polygon fill="#191970" stroke="#191970" points="807.2055,-80.5292 798.1007,-85.9472 808.5969,-87.3896 807.2055,-80.5292"/>
</g>
<!-- Node319 -->
<g id="node15" class="node">
<title>Node319</title>
<g id="a_node15"><a xlink:href="../../d1/d10/classxla_1_1Service.html#a11604b813ba3e3208b2bda70f0f02f0d" target="_top" xlink:title="xla::Service::ExecuteOneToN">
<polygon fill="#ffffff" stroke="#000000" points="678,-44 678,-63 824,-63 824,-44 678,-44"/>
<text text-anchor="middle" x="751" y="-51" font-family="Helvetica,sans-Serif" font-size="10.00" fill="#000000">xla::Service::ExecuteOneToN</text>
</a>
</g>
</g>
<!-- Node318&#45;&gt;Node319 -->
<g id="edge14" class="edge">
<title>Node318&#45;&gt;Node319</title>
<path fill="none" stroke="#191970" d="M649.4434,-53.5C658.9129,-53.5 668.5512,-53.5 677.9323,-53.5"/>
<polygon fill="#191970" stroke="#191970" points="649.2543,-50.0001 639.2542,-53.5 649.2542,-57.0001 649.2543,-50.0001"/>
</g>
</g>
</svg>
