<?xml version="1.0" encoding="UTF-8" standalone="no"?>
<!DOCTYPE svg PUBLIC "-//W3C//DTD SVG 1.1//EN"
 "http://www.w3.org/Graphics/SVG/1.1/DTD/svg11.dtd">
<!-- Generated by graphviz version 2.40.1 (20161225.0304)
 -->
<!-- Title: xla::UserComputation::AddBatchNormGradInstruction Pages: 1 -->
<svg width="359pt" height="137pt"
 viewBox="0.00 0.00 359.00 137.00" xmlns="http://www.w3.org/2000/svg" xmlns:xlink="http://www.w3.org/1999/xlink">
<g id="graph0" class="graph" transform="scale(1 1) rotate(0) translate(4 133)">
<title>xla::UserComputation::AddBatchNormGradInstruction</title>
<polygon fill="#ffffff" stroke="transparent" points="-4,4 -4,-133 355,-133 355,4 -4,4"/>
<!-- Node3 -->
<g id="node1" class="node">
<title>Node3</title>
<polygon fill="#bfbfbf" stroke="#000000" points="0,-49.5 0,-79.5 156,-79.5 156,-49.5 0,-49.5"/>
<text text-anchor="start" x="8" y="-67.5" font-family="Helvetica,sans-Serif" font-size="10.00" fill="#000000">xla::UserComputation</text>
<text text-anchor="middle" x="78" y="-56.5" font-family="Helvetica,sans-Serif" font-size="10.00" fill="#000000">::AddBatchNormGradInstruction</text>
</g>
<!-- Node4 -->
<g id="node2" class="node">
<title>Node4</title>
<g id="a_node2"><a xlink:href="../../db/dbb/classxla_1_1UserComputation.html#a89b9415667968217b87209ccdf989070" target="_top" xlink:title="xla::UserComputation\l::LookUpRequest">
<polygon fill="#ffffff" stroke="#000000" points="215.5,-98.5 215.5,-128.5 327.5,-128.5 327.5,-98.5 215.5,-98.5"/>
<text text-anchor="start" x="223.5" y="-116.5" font-family="Helvetica,sans-Serif" font-size="10.00" fill="#000000">xla::UserComputation</text>
<text text-anchor="middle" x="271.5" y="-105.5" font-family="Helvetica,sans-Serif" font-size="10.00" fill="#000000">::LookUpRequest</text>
</a>
</g>
</g>
<!-- Node3&#45;&gt;Node4 -->
<g id="edge1" class="edge">
<title>Node3&#45;&gt;Node4</title>
<path fill="none" stroke="#191970" d="M137.3714,-79.5346C158.8551,-84.9749 183.2445,-91.1511 205.2798,-96.731"/>
<polygon fill="#191970" stroke="#191970" points="204.6663,-100.1861 215.2195,-99.2481 206.3847,-93.4003 204.6663,-100.1861"/>
</g>
<!-- Node5 -->
<g id="node3" class="node">
<title>Node5</title>
<g id="a_node3"><a xlink:href="../../db/dbb/classxla_1_1UserComputation.html#a3d120052a47ab98a431b908192f0d755" target="_top" xlink:title="xla::UserComputation\l::CreateComputationDataHandle">
<polygon fill="#ffffff" stroke="#000000" points="192,-49.5 192,-79.5 351,-79.5 351,-49.5 192,-49.5"/>
<text text-anchor="start" x="200" y="-67.5" font-family="Helvetica,sans-Serif" font-size="10.00" fill="#000000">xla::UserComputation</text>
<text text-anchor="middle" x="271.5" y="-56.5" font-family="Helvetica,sans-Serif" font-size="10.00" fill="#000000">::CreateComputationDataHandle</text>
</a>
</g>
</g>
<!-- Node3&#45;&gt;Node5 -->
<g id="edge2" class="edge">
<title>Node3&#45;&gt;Node5</title>
<path fill="none" stroke="#191970" d="M156.1461,-64.5C164.5897,-64.5 173.2298,-64.5 181.7958,-64.5"/>
<polygon fill="#191970" stroke="#191970" points="181.8013,-68.0001 191.8013,-64.5 181.8012,-61.0001 181.8013,-68.0001"/>
</g>
<!-- Node6 -->
<g id="node4" class="node">
<title>Node6</title>
<g id="a_node4"><a xlink:href="../../db/dbb/classxla_1_1UserComputation.html#af44a77b35aaed6ff22d5fbb266dd824e" target="_top" xlink:title="xla::UserComputation\l::GetVersionedHandleInternal">
<polygon fill="#ffffff" stroke="#000000" points="199.5,-.5 199.5,-30.5 343.5,-30.5 343.5,-.5 199.5,-.5"/>
<text text-anchor="start" x="207.5" y="-18.5" font-family="Helvetica,sans-Serif" font-size="10.00" fill="#000000">xla::UserComputation</text>
<text text-anchor="middle" x="271.5" y="-7.5" font-family="Helvetica,sans-Serif" font-size="10.00" fill="#000000">::GetVersionedHandleInternal</text>
</a>
</g>
</g>
<!-- Node3&#45;&gt;Node6 -->
<g id="edge3" class="edge">
<title>Node3&#45;&gt;Node6</title>
<path fill="none" stroke="#191970" d="M137.3714,-49.4654C157.8952,-44.2682 181.0708,-38.3994 202.3124,-33.0204"/>
<polygon fill="#191970" stroke="#191970" points="203.4061,-36.354 212.2409,-30.5062 201.6877,-29.5682 203.4061,-36.354"/>
</g>
</g>
</svg>
