<?xml version="1.0" encoding="UTF-8" standalone="no"?>
<!DOCTYPE svg PUBLIC "-//W3C//DTD SVG 1.1//EN"
 "http://www.w3.org/Graphics/SVG/1.1/DTD/svg11.dtd">
<!-- Generated by graphviz version 2.40.1 (20161225.0304)
 -->
<!-- Title: xla::UserComputation::GetVersionedHandleInternal Pages: 1 -->
<svg width="1427pt" height="126pt"
 viewBox="0.00 0.00 1427.00 126.00" xmlns="http://www.w3.org/2000/svg" xmlns:xlink="http://www.w3.org/1999/xlink">
<g id="graph0" class="graph" transform="scale(1 1) rotate(0) translate(4 122)">
<title>xla::UserComputation::GetVersionedHandleInternal</title>
<polygon fill="#ffffff" stroke="transparent" points="-4,4 -4,-122 1423,-122 1423,4 -4,4"/>
<!-- Node24 -->
<g id="node1" class="node">
<title>Node24</title>
<polygon fill="#bfbfbf" stroke="#000000" points="0,-62.5 0,-92.5 160,-92.5 160,-62.5 0,-62.5"/>
<text text-anchor="start" x="8" y="-80.5" font-family="Helvetica,sans-Serif" font-size="10.00" fill="#000000">xla::UserComputation</text>
<text text-anchor="middle" x="80" y="-69.5" font-family="Helvetica,sans-Serif" font-size="10.00" fill="#000000">::GetVersionedHandleInternal</text>
</g>
<!-- Node25 -->
<g id="node2" class="node">
<title>Node25</title>
<g id="a_node2"><a xlink:href="../../db/dbb/classxla_1_1UserComputation.html#a25685bdc2be08a3873ba52d4867e8db8" target="_top" xlink:title="Enqueue a parameter&#45;retrieving instruction onto this UserComputation. ">
<polygon fill="#ffffff" stroke="#000000" points="196,-87.5 196,-117.5 339,-117.5 339,-87.5 196,-87.5"/>
<text text-anchor="start" x="204" y="-105.5" font-family="Helvetica,sans-Serif" font-size="10.00" fill="#000000">xla::UserComputation</text>
<text text-anchor="middle" x="267.5" y="-94.5" font-family="Helvetica,sans-Serif" font-size="10.00" fill="#000000">::AddParameterInstruction</text>
</a>
</g>
</g>
<!-- Node24&#45;&gt;Node25 -->
<g id="edge1" class="edge">
<title>Node24&#45;&gt;Node25</title>
<path fill="none" stroke="#191970" d="M170.1081,-89.5144C178.6976,-90.6597 187.328,-91.8104 195.7102,-92.928"/>
<polygon fill="#191970" stroke="#191970" points="170.4356,-86.0272 160.0607,-88.1748 169.5104,-92.9658 170.4356,-86.0272"/>
</g>
<!-- Node27 -->
<g id="node4" class="node">
<title>Node27</title>
<g id="a_node4"><a xlink:href="../../db/dbb/classxla_1_1UserComputation.html#a4fef8fc438e3b3b2c396de862820af3e" target="_top" xlink:title="Lock mutex and call GetVersionedHandleInternal() ">
<polygon fill="#ffffff" stroke="#000000" points="206,-38.5 206,-68.5 329,-68.5 329,-38.5 206,-38.5"/>
<text text-anchor="start" x="214" y="-56.5" font-family="Helvetica,sans-Serif" font-size="10.00" fill="#000000">xla::UserComputation</text>
<text text-anchor="middle" x="267.5" y="-45.5" font-family="Helvetica,sans-Serif" font-size="10.00" fill="#000000">::GetVersionedHandle</text>
</a>
</g>
</g>
<!-- Node24&#45;&gt;Node27 -->
<g id="edge3" class="edge">
<title>Node24&#45;&gt;Node27</title>
<path fill="none" stroke="#191970" d="M170.174,-65.9577C182.2568,-64.4111 194.4189,-62.8544 205.8559,-61.3904"/>
<polygon fill="#191970" stroke="#191970" points="169.5354,-62.5108 160.0607,-67.2522 170.4242,-69.4542 169.5354,-62.5108"/>
</g>
<!-- Node26 -->
<g id="node3" class="node">
<title>Node26</title>
<g id="a_node3"><a xlink:href="../../d1/d10/classxla_1_1Service.html#a8aa08872316b8fa3297972486b4b339e" target="_top" xlink:title="Enqueue an Op on the computation. ">
<polygon fill="#ffffff" stroke="#000000" points="396.5,-93 396.5,-112 489.5,-112 489.5,-93 396.5,-93"/>
<text text-anchor="middle" x="443" y="-100" font-family="Helvetica,sans-Serif" font-size="10.00" fill="#000000">xla::Service::Op</text>
</a>
</g>
</g>
<!-- Node25&#45;&gt;Node26 -->
<g id="edge2" class="edge">
<title>Node25&#45;&gt;Node26</title>
<path fill="none" stroke="#191970" d="M349.1813,-102.5C365.4048,-102.5 381.9063,-102.5 396.4533,-102.5"/>
<polygon fill="#191970" stroke="#191970" points="349.1357,-99.0001 339.1357,-102.5 349.1357,-106.0001 349.1357,-99.0001"/>
</g>
<!-- Node28 -->
<g id="node5" class="node">
<title>Node28</title>
<g id="a_node5"><a xlink:href="../../dc/d07/classxla_1_1CompileOnlyService.html#aceb67616a89167b9af1bf23d17ec37c9" target="_top" xlink:title="xla::CompileOnlyService\l::CompileAheadOfTime">
<polygon fill="#ffffff" stroke="#000000" points="547,-22.5 547,-52.5 684,-52.5 684,-22.5 547,-22.5"/>
<text text-anchor="start" x="555" y="-40.5" font-family="Helvetica,sans-Serif" font-size="10.00" fill="#000000">xla::CompileOnlyService</text>
<text text-anchor="middle" x="615.5" y="-29.5" font-family="Helvetica,sans-Serif" font-size="10.00" fill="#000000">::CompileAheadOfTime</text>
</a>
</g>
</g>
<!-- Node27&#45;&gt;Node28 -->
<g id="edge4" class="edge">
<title>Node27&#45;&gt;Node28</title>
<path fill="none" stroke="#191970" d="M339.6061,-50.1848C400.4486,-47.3874 486.9547,-43.4101 546.8101,-40.6582"/>
<polygon fill="#191970" stroke="#191970" points="339.1431,-46.7023 329.3144,-50.658 339.4647,-53.6949 339.1431,-46.7023"/>
</g>
<!-- Node34 -->
<g id="node11" class="node">
<title>Node34</title>
<g id="a_node11"><a xlink:href="../../d8/d42/classxla_1_1ComputationTracker.html#a1acead58332b1b2c6beaeac5505b1b8a" target="_top" xlink:title="xla::ComputationTracker\l::SnapshotComputation">
<polygon fill="#ffffff" stroke="#000000" points="375,-.5 375,-30.5 511,-30.5 511,-.5 375,-.5"/>
<text text-anchor="start" x="383" y="-18.5" font-family="Helvetica,sans-Serif" font-size="10.00" fill="#000000">xla::ComputationTracker</text>
<text text-anchor="middle" x="443" y="-7.5" font-family="Helvetica,sans-Serif" font-size="10.00" fill="#000000">::SnapshotComputation</text>
</a>
</g>
</g>
<!-- Node27&#45;&gt;Node34 -->
<g id="edge10" class="edge">
<title>Node27&#45;&gt;Node34</title>
<path fill="none" stroke="#191970" d="M339.1577,-37.9844C350.9396,-35.4333 363.1223,-32.7955 374.8164,-30.2634"/>
<polygon fill="#191970" stroke="#191970" points="338.4076,-34.5656 329.3747,-40.1026 339.889,-41.4071 338.4076,-34.5656"/>
</g>
<!-- Node29 -->
<g id="node6" class="node">
<title>Node29</title>
<g id="a_node6"><a xlink:href="../../d1/dd1/classxla_1_1CompileOnlyClient.html#a5a585d21f617b77a1cecc1b587d18d7a" target="_top" xlink:title="Compiles a list of computations for ahead&#45;of&#45;time execution. This is intended for use in static compi...">
<polygon fill="#ffffff" stroke="#000000" points="720,-22.5 720,-52.5 850,-52.5 850,-22.5 720,-22.5"/>
<text text-anchor="start" x="728" y="-40.5" font-family="Helvetica,sans-Serif" font-size="10.00" fill="#000000">xla::CompileOnlyClient</text>
<text text-anchor="middle" x="785" y="-29.5" font-family="Helvetica,sans-Serif" font-size="10.00" fill="#000000">::CompileAheadOfTime</text>
</a>
</g>
</g>
<!-- Node28&#45;&gt;Node29 -->
<g id="edge5" class="edge">
<title>Node28&#45;&gt;Node29</title>
<path fill="none" stroke="#191970" d="M694.698,-37.5C703.1548,-37.5 711.6856,-37.5 719.9516,-37.5"/>
<polygon fill="#191970" stroke="#191970" points="694.4422,-34.0001 684.4421,-37.5 694.4421,-41.0001 694.4422,-34.0001"/>
</g>
<!-- Node30 -->
<g id="node7" class="node">
<title>Node30</title>
<g id="a_node7"><a xlink:href="../../d4/df4/namespacetensorflow_1_1tfcompile_1_1anonymous__namespace_02compile_8cc_03.html#a40f8a019f31fa8cbe2fff5d90e69c21b" target="_top" xlink:title="Compiles the XLA computation into executable code. ">
<polygon fill="#ffffff" stroke="#000000" points="886,-17 886,-58 1032,-58 1032,-17 886,-17"/>
<text text-anchor="start" x="894" y="-46" font-family="Helvetica,sans-Serif" font-size="10.00" fill="#000000">tensorflow::tfcompile</text>
<text text-anchor="start" x="894" y="-35" font-family="Helvetica,sans-Serif" font-size="10.00" fill="#000000">::anonymous_namespace</text>
<text text-anchor="middle" x="959" y="-24" font-family="Helvetica,sans-Serif" font-size="10.00" fill="#000000">{compile::cc}::CompileXla</text>
</a>
</g>
</g>
<!-- Node29&#45;&gt;Node30 -->
<g id="edge6" class="edge">
<title>Node29&#45;&gt;Node30</title>
<path fill="none" stroke="#191970" d="M860.4369,-37.5C868.8358,-37.5 877.381,-37.5 885.752,-37.5"/>
<polygon fill="#191970" stroke="#191970" points="860.2863,-34.0001 850.2862,-37.5 860.2862,-41.0001 860.2863,-34.0001"/>
</g>
<!-- Node31 -->
<g id="node8" class="node">
<title>Node31</title>
<g id="a_node8"><a xlink:href="../../d7/d38/namespacetensorflow_1_1tfcompile.html#a021cb1c58d938b16dcd998aa8d1fc191" target="_top" xlink:title="Converts the graph into an XLA computation, and compiles the computation. Called by tensorflow::tfcom...">
<polygon fill="#ffffff" stroke="#000000" points="1068,-22.5 1068,-52.5 1187,-52.5 1187,-22.5 1068,-22.5"/>
<text text-anchor="start" x="1076" y="-40.5" font-family="Helvetica,sans-Serif" font-size="10.00" fill="#000000">tensorflow::tfcompile</text>
<text text-anchor="middle" x="1127.5" y="-29.5" font-family="Helvetica,sans-Serif" font-size="10.00" fill="#000000">::CompileGraph</text>
</a>
</g>
</g>
<!-- Node30&#45;&gt;Node31 -->
<g id="edge7" class="edge">
<title>Node30&#45;&gt;Node31</title>
<path fill="none" stroke="#191970" d="M1042.4913,-37.5C1051.0962,-37.5 1059.7115,-37.5 1067.9784,-37.5"/>
<polygon fill="#191970" stroke="#191970" points="1042.4164,-34.0001 1032.4164,-37.5 1042.4163,-41.0001 1042.4164,-34.0001"/>
</g>
<!-- Node32 -->
<g id="node9" class="node">
<title>Node32</title>
<g id="a_node9"><a xlink:href="../../d7/d38/namespacetensorflow_1_1tfcompile.html#a460964a5bb277865d1275fe3746132c1" target="_top" xlink:title="tensorflow::tfcompile\l::Main">
<polygon fill="#ffffff" stroke="#000000" points="1223,-22.5 1223,-52.5 1342,-52.5 1342,-22.5 1223,-22.5"/>
<text text-anchor="start" x="1231" y="-40.5" font-family="Helvetica,sans-Serif" font-size="10.00" fill="#000000">tensorflow::tfcompile</text>
<text text-anchor="middle" x="1282.5" y="-29.5" font-family="Helvetica,sans-Serif" font-size="10.00" fill="#000000">::Main</text>
</a>
</g>
</g>
<!-- Node31&#45;&gt;Node32 -->
<g id="edge8" class="edge">
<title>Node31&#45;&gt;Node32</title>
<path fill="none" stroke="#191970" d="M1197.6612,-37.5C1206.1217,-37.5 1214.6999,-37.5 1222.9877,-37.5"/>
<polygon fill="#191970" stroke="#191970" points="1197.4271,-34.0001 1187.427,-37.5 1197.427,-41.0001 1197.4271,-34.0001"/>
</g>
<!-- Node33 -->
<g id="node10" class="node">
<title>Node33</title>
<g id="a_node10"><a xlink:href="../../d4/d8d/tfcompile__main_8cc.html#a3c04138a5bfe5d72780bb7e82a18e627" target="_top" xlink:title="main">
<polygon fill="#ffffff" stroke="#000000" points="1378,-28 1378,-47 1419,-47 1419,-28 1378,-28"/>
<text text-anchor="middle" x="1398.5" y="-35" font-family="Helvetica,sans-Serif" font-size="10.00" fill="#000000">main</text>
</a>
</g>
</g>
<!-- Node32&#45;&gt;Node33 -->
<g id="edge9" class="edge">
<title>Node32&#45;&gt;Node33</title>
<path fill="none" stroke="#191970" d="M1352.3907,-37.5C1361.6734,-37.5 1370.5314,-37.5 1377.9577,-37.5"/>
<polygon fill="#191970" stroke="#191970" points="1352.199,-34.0001 1342.199,-37.5 1352.199,-41.0001 1352.199,-34.0001"/>
</g>
<!-- Node34&#45;&gt;Node28 -->
<g id="edge11" class="edge">
<title>Node34&#45;&gt;Node28</title>
<path fill="none" stroke="#191970" d="M521.1998,-25.4733C529.7979,-26.5699 538.5036,-27.6802 546.9711,-28.7601"/>
<polygon fill="#191970" stroke="#191970" points="521.539,-21.9883 511.1766,-24.195 520.6534,-28.9321 521.539,-21.9883"/>
</g>
</g>
</svg>
