<?xml version="1.0" encoding="UTF-8" standalone="no"?>
<!DOCTYPE svg PUBLIC "-//W3C//DTD SVG 1.1//EN"
 "http://www.w3.org/Graphics/SVG/1.1/DTD/svg11.dtd">
<!-- Generated by graphviz version 2.40.1 (20161225.0304)
 -->
<!-- Title: tensorflow/tensorflow/compiler/xla/service/call_inliner.h Pages: 1 -->
<svg width="323pt" height="128pt"
 viewBox="0.00 0.00 323.00 128.00" xmlns="http://www.w3.org/2000/svg" xmlns:xlink="http://www.w3.org/1999/xlink">
<g id="graph0" class="graph" transform="scale(1 1) rotate(0) translate(4 124)">
<title>tensorflow/tensorflow/compiler/xla/service/call_inliner.h</title>
<polygon fill="#ffffff" stroke="transparent" points="-4,4 -4,-124 319,-124 319,4 -4,4"/>
<!-- Node0 -->
<g id="node1" class="node">
<title>Node0</title>
<polygon fill="#bfbfbf" stroke="#000000" points="63.5,-78.5 63.5,-119.5 185.5,-119.5 185.5,-78.5 63.5,-78.5"/>
<text text-anchor="start" x="71.5" y="-107.5" font-family="Helvetica,sans-Serif" font-size="10.00" fill="#000000">tensorflow/tensorflow</text>
<text text-anchor="start" x="71.5" y="-96.5" font-family="Helvetica,sans-Serif" font-size="10.00" fill="#000000">/compiler/xla/service</text>
<text text-anchor="middle" x="124.5" y="-85.5" font-family="Helvetica,sans-Serif" font-size="10.00" fill="#000000">/call_inliner.h</text>
</g>
<!-- Node1 -->
<g id="node2" class="node">
<title>Node1</title>
<polygon fill="#ffffff" stroke="#bfbfbf" points="0,-11.5 0,-30.5 47,-30.5 47,-11.5 0,-11.5"/>
<text text-anchor="middle" x="23.5" y="-18.5" font-family="Helvetica,sans-Serif" font-size="10.00" fill="#000000">deque</text>
</g>
<!-- Node0&#45;&gt;Node1 -->
<g id="edge1" class="edge">
<title>Node0&#45;&gt;Node1</title>
<path fill="none" stroke="#191970" d="M97.699,-78.3022C80.8352,-65.2786 59.4114,-48.7335 43.9243,-36.7732"/>
<polygon fill="#191970" stroke="#191970" points="46.0517,-33.9939 35.9978,-30.6517 41.7731,-39.5341 46.0517,-33.9939"/>
</g>
<!-- Node2 -->
<g id="node3" class="node">
<title>Node2</title>
<polygon fill="#ffffff" stroke="#bfbfbf" points="65,-.5 65,-41.5 184,-41.5 184,-.5 65,-.5"/>
<text text-anchor="start" x="73" y="-29.5" font-family="Helvetica,sans-Serif" font-size="10.00" fill="#000000">tensorflow/compiler</text>
<text text-anchor="start" x="73" y="-18.5" font-family="Helvetica,sans-Serif" font-size="10.00" fill="#000000">/xla/service/hlo_pass</text>
<text text-anchor="middle" x="124.5" y="-7.5" font-family="Helvetica,sans-Serif" font-size="10.00" fill="#000000">_interface.h</text>
</g>
<!-- Node0&#45;&gt;Node2 -->
<g id="edge2" class="edge">
<title>Node0&#45;&gt;Node2</title>
<path fill="none" stroke="#191970" d="M124.5,-78.0974C124.5,-70.077 124.5,-60.7444 124.5,-51.9772"/>
<polygon fill="#191970" stroke="#191970" points="128.0001,-51.6898 124.5,-41.6898 121.0001,-51.6898 128.0001,-51.6898"/>
</g>
<!-- Node3 -->
<g id="node4" class="node">
<title>Node3</title>
<polygon fill="#ffffff" stroke="#bfbfbf" points="202,-6 202,-36 315,-36 315,-6 202,-6"/>
<text text-anchor="start" x="210" y="-24" font-family="Helvetica,sans-Serif" font-size="10.00" fill="#000000">tensorflow/compiler</text>
<text text-anchor="middle" x="258.5" y="-13" font-family="Helvetica,sans-Serif" font-size="10.00" fill="#000000">/xla/statusor.h</text>
</g>
<!-- Node0&#45;&gt;Node3 -->
<g id="edge3" class="edge">
<title>Node0&#45;&gt;Node3</title>
<path fill="none" stroke="#191970" d="M160.0577,-78.3022C179.7366,-66.8474 204.0956,-52.6682 223.6591,-41.2805"/>
<polygon fill="#191970" stroke="#191970" points="225.6738,-44.1576 232.5555,-36.102 222.1523,-38.1079 225.6738,-44.1576"/>
</g>
</g>
</svg>
