<?xml version="1.0" encoding="UTF-8" standalone="no"?>
<!DOCTYPE svg PUBLIC "-//W3C//DTD SVG 1.1//EN"
 "http://www.w3.org/Graphics/SVG/1.1/DTD/svg11.dtd">
<!-- Generated by graphviz version 2.40.1 (20161225.0304)
 -->
<!-- Title: tensorflow::anonymous_namespace{graph_constructor.cc}::GraphConstructor::NodeInfo Pages: 1 -->
<svg width="177pt" height="117pt"
 viewBox="0.00 0.00 177.00 117.00" xmlns="http://www.w3.org/2000/svg" xmlns:xlink="http://www.w3.org/1999/xlink">
<g id="graph0" class="graph" transform="scale(1 1) rotate(0) translate(4 113)">
<title>tensorflow::anonymous_namespace{graph_constructor.cc}::GraphConstructor::NodeInfo</title>
<polygon fill="#ffffff" stroke="transparent" points="-4,4 -4,-113 173,-113 173,4 -4,4"/>
<!-- Node1 -->
<g id="node1" class="node">
<title>Node1</title>
<polygon fill="#bfbfbf" stroke="#000000" points="0,-.5 0,-41.5 169,-41.5 169,-.5 0,-.5"/>
<text text-anchor="start" x="8" y="-29.5" font-family="Helvetica,sans-Serif" font-size="10.00" fill="#000000">tensorflow::anonymous</text>
<text text-anchor="start" x="8" y="-18.5" font-family="Helvetica,sans-Serif" font-size="10.00" fill="#000000">_namespace{graph_constructor.cc}</text>
<text text-anchor="middle" x="84.5" y="-7.5" font-family="Helvetica,sans-Serif" font-size="10.00" fill="#000000">::GraphConstructor::NodeInfo</text>
</g>
<!-- Node2 -->
<g id="node2" class="node">
<title>Node2</title>
<polygon fill="#ffffff" stroke="#bfbfbf" points="33,-89.5 33,-108.5 62,-108.5 62,-89.5 33,-89.5"/>
<text text-anchor="middle" x="47.5" y="-96.5" font-family="Helvetica,sans-Serif" font-size="10.00" fill="#000000">int</text>
</g>
<!-- Node2&#45;&gt;Node1 -->
<g id="edge1" class="edge">
<title>Node2&#45;&gt;Node1</title>
<path fill="none" stroke="#9a32cd" stroke-dasharray="5,2" d="M45.3184,-78.9503C45.3392,-72.6883 46.1122,-65.8837 48.5,-60 51.2028,-53.3402 55.6006,-47.1182 60.4096,-41.6855"/>
<polygon fill="#9a32cd" stroke="#9a32cd" points="41.8459,-79.5344 45.9073,-89.3198 48.8346,-79.1374 41.8459,-79.5344"/>
<text text-anchor="middle" x="74" y="-63" font-family="Helvetica,sans-Serif" font-size="10.00" fill="#000000"> gdef_index</text>
</g>
<!-- Node3 -->
<g id="node3" class="node">
<title>Node3</title>
<polygon fill="#ffffff" stroke="#bfbfbf" points="98,-89.5 98,-108.5 145,-108.5 145,-89.5 98,-89.5"/>
<text text-anchor="middle" x="121.5" y="-96.5" font-family="Helvetica,sans-Serif" font-size="10.00" fill="#000000">Node *</text>
</g>
<!-- Node3&#45;&gt;Node1 -->
<g id="edge2" class="edge">
<title>Node3&#45;&gt;Node1</title>
<path fill="none" stroke="#9a32cd" stroke-dasharray="5,2" d="M112.6065,-80.2515C107.1045,-68.6528 100.0337,-53.7467 94.3606,-41.7873"/>
<polygon fill="#9a32cd" stroke="#9a32cd" points="109.5149,-81.9007 116.9631,-89.4357 115.8394,-78.9006 109.5149,-81.9007"/>
<text text-anchor="middle" x="119" y="-63" font-family="Helvetica,sans-Serif" font-size="10.00" fill="#000000"> node</text>
</g>
</g>
</svg>
