<?xml version="1.0" encoding="UTF-8" standalone="no"?>
<!DOCTYPE svg PUBLIC "-//W3C//DTD SVG 1.1//EN"
 "http://www.w3.org/Graphics/SVG/1.1/DTD/svg11.dtd">
<!-- Generated by graphviz version 2.40.1 (20161225.0304)
 -->
<!-- Title: tensorflow::anonymous_namespace{graph_constructor::cc}::GraphConstructor::RemapNodeDefInputs Pages: 1 -->
<svg width="377pt" height="61pt"
 viewBox="0.00 0.00 377.00 61.00" xmlns="http://www.w3.org/2000/svg" xmlns:xlink="http://www.w3.org/1999/xlink">
<g id="graph0" class="graph" transform="scale(1 1) rotate(0) translate(4 57)">
<title>tensorflow::anonymous_namespace{graph_constructor::cc}::GraphConstructor::RemapNodeDefInputs</title>
<polygon fill="#ffffff" stroke="transparent" points="-4,4 -4,-57 373,-57 373,4 -4,4"/>
<!-- Node50 -->
<g id="node1" class="node">
<title>Node50</title>
<polygon fill="#bfbfbf" stroke="#000000" points="0,-.5 0,-52.5 180,-52.5 180,-.5 0,-.5"/>
<text text-anchor="start" x="8" y="-40.5" font-family="Helvetica,sans-Serif" font-size="10.00" fill="#000000">tensorflow::anonymous</text>
<text text-anchor="start" x="8" y="-29.5" font-family="Helvetica,sans-Serif" font-size="10.00" fill="#000000">_namespace{graph_constructor</text>
<text text-anchor="start" x="8" y="-18.5" font-family="Helvetica,sans-Serif" font-size="10.00" fill="#000000">::cc}::GraphConstructor::RemapNode</text>
<text text-anchor="middle" x="90" y="-7.5" font-family="Helvetica,sans-Serif" font-size="10.00" fill="#000000">DefInputs</text>
</g>
<!-- Node51 -->
<g id="node2" class="node">
<title>Node51</title>
<g id="a_node2"><a xlink:href="../../d9/d86/namespacetensorflow_1_1anonymous__namespace_02graph__constructor_8cc_03.html#a5062b8a45e181a7a8b84564313412cb5" target="_top" xlink:title="tensorflow::anonymous\l_namespace\{graph_constructor\l::cc\}::RemoveInputs">
<polygon fill="#ffffff" stroke="#000000" points="216,-6 216,-47 369,-47 369,-6 216,-6"/>
<text text-anchor="start" x="224" y="-35" font-family="Helvetica,sans-Serif" font-size="10.00" fill="#000000">tensorflow::anonymous</text>
<text text-anchor="start" x="224" y="-24" font-family="Helvetica,sans-Serif" font-size="10.00" fill="#000000">_namespace{graph_constructor</text>
<text text-anchor="middle" x="292.5" y="-13" font-family="Helvetica,sans-Serif" font-size="10.00" fill="#000000">::cc}::RemoveInputs</text>
</a>
</g>
</g>
<!-- Node50&#45;&gt;Node51 -->
<g id="edge1" class="edge">
<title>Node50&#45;&gt;Node51</title>
<path fill="none" stroke="#191970" d="M180.2938,-26.5C188.7667,-26.5 197.3432,-26.5 205.7821,-26.5"/>
<polygon fill="#191970" stroke="#191970" points="205.9914,-30.0001 215.9913,-26.5 205.9913,-23.0001 205.9914,-30.0001"/>
</g>
</g>
</svg>
