<?xml version="1.0" encoding="UTF-8" standalone="no"?>
<!DOCTYPE svg PUBLIC "-//W3C//DTD SVG 1.1//EN"
 "http://www.w3.org/Graphics/SVG/1.1/DTD/svg11.dtd">
<!-- Generated by graphviz version 2.40.1 (20161225.0304)
 -->
<!-- Title: tensorflow/tensorflow/compiler/aot/tfcompile_main.cc Pages: 1 -->
<!--zoomable 128 -->
<svg id="main" version="1.1" xmlns="http://www.w3.org/2000/svg" xmlns:xlink="http://www.w3.org/1999/xlink" xml:space="preserve" onload="init(evt)">
<style type="text/css"><![CDATA[
.edge:hover path { stroke: red; }
.edge:hover polygon { stroke: red; fill: red; }
]]></style>
<script type="text/javascript"><![CDATA[
var edges = document.getElementsByTagName('g');
if (edges && edges.length) {
  for (var i=0;i<edges.length;i++) {
    if (edges[i].id.substr(0,4)=='edge') {
      edges[i].setAttribute('class','edge');
    }
  }
}
]]></script>
        <defs>
                <circle id="rim" cx="0" cy="0" r="7"/>
                <circle id="rim2" cx="0" cy="0" r="3.5"/>
                <g id="zoomPlus">
                        <use xlink:href="#rim" fill="#404040">
                                <set attributeName="fill" to="#808080" begin="zoomplus.mouseover" end="zoomplus.mouseout"/>
                        </use>
                        <path d="M-4,0h8M0,-4v8" fill="none" stroke="white" stroke-width="1.5" pointer-events="none"/>
                </g>
                <g id="zoomMin">
                        <use xlink:href="#rim" fill="#404040">
                                <set attributeName="fill" to="#808080" begin="zoomminus.mouseover" end="zoomminus.mouseout"/>
                        </use>
                        <path d="M-4,0h8" fill="none" stroke="white" stroke-width="1.5" pointer-events="none"/>
                </g>
                <g id="dirArrow">
                        <path fill="none" stroke="white" stroke-width="1.5" d="M0,-3.0v7 M-2.5,-0.5L0,-3.0L2.5,-0.5"/>
                </g>
               <g id="resetDef">
                       <use xlink:href="#rim2" fill="#404040">
                               <set attributeName="fill" to="#808080" begin="reset.mouseover" end="reset.mouseout"/>
                       </use>
               </g>
        </defs>

<script type="text/javascript">
var viewWidth = 3117;
var viewHeight = 128;
var sectionId = 'dynsection-0';
</script>
<script xlink:href="../../svgpan.js"/>
<svg id="graph" class="graph">
<g id="viewport">
<title>tensorflow/tensorflow/compiler/aot/tfcompile_main.cc</title>
<polygon fill="#ffffff" stroke="transparent" points="-4,4 -4,-124 3112.5,-124 3112.5,4 -4,4"/>
<!-- Node0 -->
<g id="node1" class="node">
<title>Node0</title>
<polygon fill="#bfbfbf" stroke="#000000" points="1348,-78.5 1348,-119.5 1464,-119.5 1464,-78.5 1348,-78.5"/>
<text text-anchor="start" x="1356" y="-107.5" font-family="Helvetica,sans-Serif" font-size="10.00" fill="#000000">tensorflow/tensorflow</text>
<text text-anchor="start" x="1356" y="-96.5" font-family="Helvetica,sans-Serif" font-size="10.00" fill="#000000">/compiler/aot/tfcompile</text>
<text text-anchor="middle" x="1406" y="-85.5" font-family="Helvetica,sans-Serif" font-size="10.00" fill="#000000">_main.cc</text>
</g>
<!-- Node1 -->
<g id="node2" class="node">
<title>Node1</title>
<polygon fill="#ffffff" stroke="#bfbfbf" points="0,-11.5 0,-30.5 52,-30.5 52,-11.5 0,-11.5"/>
<text text-anchor="middle" x="26" y="-18.5" font-family="Helvetica,sans-Serif" font-size="10.00" fill="#000000">memory</text>
</g>
<!-- Node0&#45;&gt;Node1 -->
<g id="edge1" class="edge">
<title>Node0&#45;&gt;Node1</title>
<path fill="none" stroke="#191970" d="M1347.7026,-98.2227C1105.4616,-94.763 185.2448,-79.264 61,-42 56.3696,-40.6112 51.7217,-38.4714 47.3943,-36.0794"/>
<polygon fill="#191970" stroke="#191970" points="48.9132,-32.9041 38.5644,-30.6338 45.2387,-38.8621 48.9132,-32.9041"/>
</g>
<!-- Node2 -->
<g id="node3" class="node">
<title>Node2</title>
<polygon fill="#ffffff" stroke="#bfbfbf" points="70.5,-11.5 70.5,-30.5 111.5,-30.5 111.5,-11.5 70.5,-11.5"/>
<text text-anchor="middle" x="91" y="-18.5" font-family="Helvetica,sans-Serif" font-size="10.00" fill="#000000">string</text>
</g>
<!-- Node0&#45;&gt;Node2 -->
<g id="edge2" class="edge">
<title>Node0&#45;&gt;Node2</title>
<path fill="none" stroke="#191970" d="M1347.8609,-98.3308C1112.5706,-95.3634 237.952,-81.7361 121,-42 117.1155,-40.6802 113.2831,-38.6914 109.7233,-36.4547"/>
<polygon fill="#191970" stroke="#191970" points="111.7334,-33.5893 101.562,-30.624 107.6642,-39.2851 111.7334,-33.5893"/>
</g>
<!-- Node3 -->
<g id="node4" class="node">
<title>Node3</title>
<polygon fill="#ffffff" stroke="#bfbfbf" points="130,-11.5 130,-30.5 170,-30.5 170,-11.5 130,-11.5"/>
<text text-anchor="middle" x="150" y="-18.5" font-family="Helvetica,sans-Serif" font-size="10.00" fill="#000000">utility</text>
</g>
<!-- Node0&#45;&gt;Node3 -->
<g id="edge3" class="edge">
<title>Node0&#45;&gt;Node3</title>
<path fill="none" stroke="#191970" d="M1347.7714,-98.25C1119.1269,-95.0389 289.8954,-80.8018 179,-42 175.3219,-40.713 171.7062,-38.7972 168.3429,-36.6375"/>
<polygon fill="#191970" stroke="#191970" points="170.2889,-33.724 160.1601,-30.6161 166.1401,-39.362 170.2889,-33.724"/>
</g>
<!-- Node4 -->
<g id="node5" class="node">
<title>Node4</title>
<polygon fill="#ffffff" stroke="#bfbfbf" points="188,-11.5 188,-30.5 232,-30.5 232,-11.5 188,-11.5"/>
<text text-anchor="middle" x="210" y="-18.5" font-family="Helvetica,sans-Serif" font-size="10.00" fill="#000000">vector</text>
</g>
<!-- Node0&#45;&gt;Node4 -->
<g id="edge4" class="edge">
<title>Node0&#45;&gt;Node4</title>
<path fill="none" stroke="#191970" d="M1347.7558,-97.9929C1126.6431,-93.918 346.3449,-77.1616 241,-42 237.0209,-40.6719 233.0781,-38.6789 229.406,-36.4408"/>
<polygon fill="#191970" stroke="#191970" points="231.1863,-33.4166 220.9697,-30.6108 227.2067,-39.1753 231.1863,-33.4166"/>
</g>
<!-- Node5 -->
<g id="node6" class="node">
<title>Node5</title>
<polygon fill="#ffffff" stroke="#bfbfbf" points="250.5,-6 250.5,-36 351.5,-36 351.5,-6 250.5,-6"/>
<text text-anchor="start" x="258.5" y="-24" font-family="Helvetica,sans-Serif" font-size="10.00" fill="#000000">tensorflow/compiler</text>
<text text-anchor="middle" x="301" y="-13" font-family="Helvetica,sans-Serif" font-size="10.00" fill="#000000">/aot/codegen.h</text>
</g>
<!-- Node0&#45;&gt;Node5 -->
<g id="edge5" class="edge">
<title>Node0&#45;&gt;Node5</title>
<path fill="none" stroke="#191970" d="M1347.8576,-98.0259C1157.0624,-94.4857 551.345,-80.428 360,-42 356.0942,-41.2156 352.0978,-40.2255 348.1168,-39.1048"/>
<polygon fill="#191970" stroke="#191970" points="348.9,-35.684 338.313,-36.0922 346.8438,-42.3752 348.9,-35.684"/>
</g>
<!-- Node6 -->
<g id="node7" class="node">
<title>Node6</title>
<polygon fill="#ffffff" stroke="#bfbfbf" points="369.5,-6 369.5,-36 470.5,-36 470.5,-6 369.5,-6"/>
<text text-anchor="start" x="377.5" y="-24" font-family="Helvetica,sans-Serif" font-size="10.00" fill="#000000">tensorflow/compiler</text>
<text text-anchor="middle" x="420" y="-13" font-family="Helvetica,sans-Serif" font-size="10.00" fill="#000000">/aot/compile.h</text>
</g>
<!-- Node0&#45;&gt;Node6 -->
<g id="edge6" class="edge">
<title>Node0&#45;&gt;Node6</title>
<path fill="none" stroke="#191970" d="M1347.7886,-97.5532C1171.6698,-92.8395 646.353,-76.217 479,-42 475.097,-41.202 471.1026,-40.2022 467.1229,-39.0748"/>
<polygon fill="#191970" stroke="#191970" points="467.9087,-35.6545 457.3213,-36.0515 465.8454,-42.3435 467.9087,-35.6545"/>
</g>
<!-- Node7 -->
<g id="node8" class="node">
<title>Node7</title>
<polygon fill="#ffffff" stroke="#bfbfbf" points="488.5,-6 488.5,-36 589.5,-36 589.5,-6 488.5,-6"/>
<text text-anchor="start" x="496.5" y="-24" font-family="Helvetica,sans-Serif" font-size="10.00" fill="#000000">tensorflow/compiler</text>
<text text-anchor="middle" x="539" y="-13" font-family="Helvetica,sans-Serif" font-size="10.00" fill="#000000">/aot/flags.h</text>
</g>
<!-- Node0&#45;&gt;Node7 -->
<g id="edge7" class="edge">
<title>Node0&#45;&gt;Node7</title>
<path fill="none" stroke="#191970" d="M1347.9795,-96.9518C1187.7594,-90.9708 741.5837,-72.0322 598,-42 594.1588,-41.1966 590.2279,-40.2022 586.309,-39.0868"/>
<polygon fill="#191970" stroke="#191970" points="587.2377,-35.7106 576.6502,-36.1045 585.1725,-42.399 587.2377,-35.7106"/>
</g>
<!-- Node8 -->
<g id="node9" class="node">
<title>Node8</title>
<polygon fill="#ffffff" stroke="#bfbfbf" points="607.5,-6 607.5,-36 708.5,-36 708.5,-6 607.5,-6"/>
<text text-anchor="start" x="615.5" y="-24" font-family="Helvetica,sans-Serif" font-size="10.00" fill="#000000">tensorflow/compiler</text>
<text text-anchor="middle" x="658" y="-13" font-family="Helvetica,sans-Serif" font-size="10.00" fill="#000000">/tf2xla/tf2xla.pb.h</text>
</g>
<!-- Node0&#45;&gt;Node8 -->
<g id="edge8" class="edge">
<title>Node0&#45;&gt;Node8</title>
<path fill="none" stroke="#191970" d="M1347.8704,-96.133C1204.4899,-88.7495 836.9,-67.8373 717,-42 713.1637,-41.1733 709.2364,-40.1623 705.32,-39.0354"/>
<polygon fill="#191970" stroke="#191970" points="706.2533,-35.6604 695.6651,-36.0343 704.1755,-42.3449 706.2533,-35.6604"/>
</g>
<!-- Node9 -->
<g id="node10" class="node">
<title>Node9</title>
<polygon fill="#ffffff" stroke="#bfbfbf" points="726.5,-6 726.5,-36 827.5,-36 827.5,-6 726.5,-6"/>
<text text-anchor="start" x="734.5" y="-24" font-family="Helvetica,sans-Serif" font-size="10.00" fill="#000000">tensorflow/compiler</text>
<text text-anchor="middle" x="777" y="-13" font-family="Helvetica,sans-Serif" font-size="10.00" fill="#000000">/tf2xla/tf2xla_util.h</text>
</g>
<!-- Node0&#45;&gt;Node9 -->
<g id="edge9" class="edge">
<title>Node0&#45;&gt;Node9</title>
<path fill="none" stroke="#191970" d="M1347.8196,-97.8153C1243.8641,-94.6775 1019.8856,-83.2767 836,-42 832.3367,-41.1777 828.5882,-40.1952 824.8442,-39.1106"/>
<polygon fill="#191970" stroke="#191970" points="825.5939,-35.6781 815.0053,-36.0411 823.5091,-42.3605 825.5939,-35.6781"/>
</g>
<!-- Node10 -->
<g id="node11" class="node">
<title>Node10</title>
<polygon fill="#ffffff" stroke="#bfbfbf" points="845.5,-.5 845.5,-41.5 964.5,-41.5 964.5,-.5 845.5,-.5"/>
<text text-anchor="start" x="853.5" y="-29.5" font-family="Helvetica,sans-Serif" font-size="10.00" fill="#000000">tensorflow/compiler</text>
<text text-anchor="start" x="853.5" y="-18.5" font-family="Helvetica,sans-Serif" font-size="10.00" fill="#000000">/xla/legacy_flags/debug</text>
<text text-anchor="middle" x="905" y="-7.5" font-family="Helvetica,sans-Serif" font-size="10.00" fill="#000000">_options_flags.h</text>
</g>
<!-- Node0&#45;&gt;Node10 -->
<g id="edge10" class="edge">
<title>Node0&#45;&gt;Node10</title>
<path fill="none" stroke="#191970" d="M1347.8321,-94.3817C1266.3345,-87.2382 1113.535,-71.3926 974.6552,-41.9621"/>
<polygon fill="#191970" stroke="#191970" points="975.1932,-38.4978 964.6811,-39.8195 973.723,-45.3417 975.1932,-38.4978"/>
</g>
<!-- Node11 -->
<g id="node12" class="node">
<title>Node11</title>
<polygon fill="#ffffff" stroke="#bfbfbf" points="983,-6 983,-36 1097,-36 1097,-6 983,-6"/>
<text text-anchor="start" x="991" y="-24" font-family="Helvetica,sans-Serif" font-size="10.00" fill="#000000">tensorflow/compiler</text>
<text text-anchor="middle" x="1040" y="-13" font-family="Helvetica,sans-Serif" font-size="10.00" fill="#000000">/xla/service/compiler.h</text>
</g>
<!-- Node0&#45;&gt;Node11 -->
<g id="edge11" class="edge">
<title>Node0&#45;&gt;Node11</title>
<path fill="none" stroke="#191970" d="M1347.755,-90.0669C1286.9762,-80.2488 1189.1303,-63.0415 1106,-42 1102.2389,-41.048 1098.3774,-40.0024 1094.5006,-38.9019"/>
<polygon fill="#191970" stroke="#191970" points="1095.462,-35.5365 1084.8808,-36.0753 1093.4885,-42.2525 1095.462,-35.5365"/>
</g>
<!-- Node12 -->
<g id="node13" class="node">
<title>Node12</title>
<polygon fill="#ffffff" stroke="#bfbfbf" points="1115,-6 1115,-36 1247,-36 1247,-6 1115,-6"/>
<text text-anchor="start" x="1123" y="-24" font-family="Helvetica,sans-Serif" font-size="10.00" fill="#000000">tensorflow/core/framework</text>
<text text-anchor="middle" x="1181" y="-13" font-family="Helvetica,sans-Serif" font-size="10.00" fill="#000000">/function.h</text>
</g>
<!-- Node0&#45;&gt;Node12 -->
<g id="edge12" class="edge">
<title>Node0&#45;&gt;Node12</title>
<path fill="none" stroke="#191970" d="M1347.7643,-78.8116C1312.6854,-66.6509 1268.3504,-51.2815 1234.2125,-39.447"/>
<polygon fill="#191970" stroke="#191970" points="1235.0145,-36.0207 1224.4197,-36.0522 1232.7217,-42.6346 1235.0145,-36.0207"/>
</g>
<!-- Node13 -->
<g id="node14" class="node">
<title>Node13</title>
<polygon fill="#ffffff" stroke="#bfbfbf" points="1265,-6 1265,-36 1397,-36 1397,-6 1265,-6"/>
<text text-anchor="start" x="1273" y="-24" font-family="Helvetica,sans-Serif" font-size="10.00" fill="#000000">tensorflow/core/framework</text>
<text text-anchor="middle" x="1331" y="-13" font-family="Helvetica,sans-Serif" font-size="10.00" fill="#000000">/graph.pb.h</text>
</g>
<!-- Node0&#45;&gt;Node13 -->
<g id="edge13" class="edge">
<title>Node0&#45;&gt;Node13</title>
<path fill="none" stroke="#191970" d="M1385.9014,-78.0974C1375.706,-67.4942 1363.3056,-54.5978 1352.8713,-43.7461"/>
<polygon fill="#191970" stroke="#191970" points="1355.1347,-41.0503 1345.6806,-36.2679 1350.0888,-45.9021 1355.1347,-41.0503"/>
</g>
<!-- Node14 -->
<g id="node15" class="node">
<title>Node14</title>
<polygon fill="#ffffff" stroke="#bfbfbf" points="1415,-6 1415,-36 1547,-36 1547,-6 1415,-6"/>
<text text-anchor="start" x="1423" y="-24" font-family="Helvetica,sans-Serif" font-size="10.00" fill="#000000">tensorflow/core/framework</text>
<text text-anchor="middle" x="1481" y="-13" font-family="Helvetica,sans-Serif" font-size="10.00" fill="#000000">/tensor_shape.h</text>
</g>
<!-- Node0&#45;&gt;Node14 -->
<g id="edge14" class="edge">
<title>Node0&#45;&gt;Node14</title>
<path fill="none" stroke="#191970" d="M1426.0986,-78.0974C1436.294,-67.4942 1448.6944,-54.5978 1459.1287,-43.7461"/>
<polygon fill="#191970" stroke="#191970" points="1461.9112,-45.9021 1466.3194,-36.2679 1456.8653,-41.0503 1461.9112,-45.9021"/>
</g>
<!-- Node15 -->
<g id="node16" class="node">
<title>Node15</title>
<polygon fill="#ffffff" stroke="#bfbfbf" points="1565,-6 1565,-36 1697,-36 1697,-6 1565,-6"/>
<text text-anchor="start" x="1573" y="-24" font-family="Helvetica,sans-Serif" font-size="10.00" fill="#000000">tensorflow/core/framework</text>
<text text-anchor="middle" x="1631" y="-13" font-family="Helvetica,sans-Serif" font-size="10.00" fill="#000000">/types.h</text>
</g>
<!-- Node0&#45;&gt;Node15 -->
<g id="edge15" class="edge">
<title>Node0&#45;&gt;Node15</title>
<path fill="none" stroke="#191970" d="M1464.2357,-78.8116C1499.3146,-66.6509 1543.6496,-51.2815 1577.7875,-39.447"/>
<polygon fill="#191970" stroke="#191970" points="1579.2783,-42.6346 1587.5803,-36.0522 1576.9855,-36.0207 1579.2783,-42.6346"/>
</g>
<!-- Node16 -->
<g id="node17" class="node">
<title>Node16</title>
<polygon fill="#ffffff" stroke="#bfbfbf" points="1715,-6 1715,-36 1825,-36 1825,-6 1715,-6"/>
<text text-anchor="start" x="1723" y="-24" font-family="Helvetica,sans-Serif" font-size="10.00" fill="#000000">tensorflow/core/graph</text>
<text text-anchor="middle" x="1770" y="-13" font-family="Helvetica,sans-Serif" font-size="10.00" fill="#000000">/graph.h</text>
</g>
<!-- Node0&#45;&gt;Node16 -->
<g id="edge16" class="edge">
<title>Node0&#45;&gt;Node16</title>
<path fill="none" stroke="#191970" d="M1464.0022,-90.2639C1524.7916,-80.577 1622.8369,-63.4485 1706,-42 1709.5492,-41.0846 1713.1887,-40.0786 1716.8432,-39.0178"/>
<polygon fill="#191970" stroke="#191970" points="1717.9358,-42.3441 1726.5,-36.1068 1715.9154,-35.642 1717.9358,-42.3441"/>
</g>
<!-- Node17 -->
<g id="node18" class="node">
<title>Node17</title>
<polygon fill="#ffffff" stroke="#bfbfbf" points="1843,-6 1843,-36 1953,-36 1953,-6 1843,-6"/>
<text text-anchor="start" x="1851" y="-24" font-family="Helvetica,sans-Serif" font-size="10.00" fill="#000000">tensorflow/core/graph</text>
<text text-anchor="middle" x="1898" y="-13" font-family="Helvetica,sans-Serif" font-size="10.00" fill="#000000">/tensor_id.h</text>
</g>
<!-- Node0&#45;&gt;Node17 -->
<g id="edge17" class="edge">
<title>Node0&#45;&gt;Node17</title>
<path fill="none" stroke="#191970" d="M1464.0622,-94.6893C1546.9367,-87.7658 1703.5581,-71.8175 1834,-42 1838.0398,-41.0765 1842.1876,-40.0063 1846.336,-38.8477"/>
<polygon fill="#191970" stroke="#191970" points="1847.3627,-42.1941 1855.9663,-36.0112 1845.3849,-35.4793 1847.3627,-42.1941"/>
</g>
<!-- Node18 -->
<g id="node19" class="node">
<title>Node18</title>
<polygon fill="#ffffff" stroke="#bfbfbf" points="1971,-6 1971,-36 2067,-36 2067,-6 1971,-6"/>
<text text-anchor="start" x="1979" y="-24" font-family="Helvetica,sans-Serif" font-size="10.00" fill="#000000">tensorflow/core/lib</text>
<text text-anchor="middle" x="2019" y="-13" font-family="Helvetica,sans-Serif" font-size="10.00" fill="#000000">/core/errors.h</text>
</g>
<!-- Node0&#45;&gt;Node18 -->
<g id="edge18" class="edge">
<title>Node0&#45;&gt;Node18</title>
<path fill="none" stroke="#191970" d="M1464.0086,-97.8208C1566.0035,-94.6964 1783.5712,-83.3219 1962,-42 1965.4434,-41.2025 1968.9622,-40.2539 1972.4776,-39.2075"/>
<polygon fill="#191970" stroke="#191970" points="1973.8634,-42.4384 1982.3104,-36.0432 1971.719,-35.7749 1973.8634,-42.4384"/>
</g>
<!-- Node19 -->
<g id="node20" class="node">
<title>Node19</title>
<polygon fill="#ffffff" stroke="#bfbfbf" points="2085.5,-6 2085.5,-36 2182.5,-36 2182.5,-6 2085.5,-6"/>
<text text-anchor="start" x="2093.5" y="-24" font-family="Helvetica,sans-Serif" font-size="10.00" fill="#000000">tensorflow/core/lib</text>
<text text-anchor="middle" x="2134" y="-13" font-family="Helvetica,sans-Serif" font-size="10.00" fill="#000000">/core/stringpiece.h</text>
</g>
<!-- Node0&#45;&gt;Node19 -->
<g id="edge19" class="edge">
<title>Node0&#45;&gt;Node19</title>
<path fill="none" stroke="#191970" d="M1464.0799,-96.0193C1604.6044,-88.492 1959.9096,-67.4885 2076,-42 2079.6675,-41.1948 2083.4185,-40.2162 2087.1611,-39.1268"/>
<polygon fill="#191970" stroke="#191970" points="2088.5022,-42.3739 2096.9859,-36.0275 2086.3962,-35.6981 2088.5022,-42.3739"/>
</g>
<!-- Node20 -->
<g id="node21" class="node">
<title>Node20</title>
<polygon fill="#ffffff" stroke="#bfbfbf" points="2201,-6 2201,-36 2299,-36 2299,-6 2201,-6"/>
<text text-anchor="start" x="2209" y="-24" font-family="Helvetica,sans-Serif" font-size="10.00" fill="#000000">tensorflow/core/lib</text>
<text text-anchor="middle" x="2250" y="-13" font-family="Helvetica,sans-Serif" font-size="10.00" fill="#000000">/strings/numbers.h</text>
</g>
<!-- Node0&#45;&gt;Node20 -->
<g id="edge20" class="edge">
<title>Node0&#45;&gt;Node20</title>
<path fill="none" stroke="#191970" d="M1464.1419,-96.8554C1621.4487,-90.7233 2052.917,-71.6284 2192,-42 2195.6725,-41.2177 2199.427,-40.2557 2203.1722,-39.178"/>
<polygon fill="#191970" stroke="#191970" points="2204.505,-42.4282 2213.0013,-36.0987 2202.4123,-35.7484 2204.505,-42.4282"/>
</g>
<!-- Node21 -->
<g id="node22" class="node">
<title>Node21</title>
<polygon fill="#ffffff" stroke="#bfbfbf" points="2317,-6 2317,-36 2413,-36 2413,-6 2317,-6"/>
<text text-anchor="start" x="2325" y="-24" font-family="Helvetica,sans-Serif" font-size="10.00" fill="#000000">tensorflow/core/lib</text>
<text text-anchor="middle" x="2365" y="-13" font-family="Helvetica,sans-Serif" font-size="10.00" fill="#000000">/strings/str_util.h</text>
</g>
<!-- Node0&#45;&gt;Node21 -->
<g id="edge21" class="edge">
<title>Node0&#45;&gt;Node21</title>
<path fill="none" stroke="#191970" d="M1464.185,-97.5219C1637.0923,-92.7822 2145.8382,-76.2331 2308,-42 2311.6728,-41.2247 2315.4262,-40.259 2319.1667,-39.1708"/>
<polygon fill="#191970" stroke="#191970" points="2320.5055,-42.4178 2328.9741,-36.0511 2318.3836,-35.7472 2320.5055,-42.4178"/>
</g>
<!-- Node22 -->
<g id="node23" class="node">
<title>Node22</title>
<polygon fill="#ffffff" stroke="#bfbfbf" points="2431,-6 2431,-36 2553,-36 2553,-6 2431,-6"/>
<text text-anchor="start" x="2439" y="-24" font-family="Helvetica,sans-Serif" font-size="10.00" fill="#000000">tensorflow/core/platform</text>
<text text-anchor="middle" x="2492" y="-13" font-family="Helvetica,sans-Serif" font-size="10.00" fill="#000000">/env.h</text>
</g>
<!-- Node0&#45;&gt;Node22 -->
<g id="edge22" class="edge">
<title>Node0&#45;&gt;Node22</title>
<path fill="none" stroke="#191970" d="M1464.0337,-97.5396C1650.9353,-92.5541 2235.8133,-74.6795 2422,-42 2427.1022,-41.1045 2432.3575,-39.9604 2437.5872,-38.6699"/>
<polygon fill="#191970" stroke="#191970" points="2438.7909,-41.9721 2447.5657,-36.0346 2437.0035,-35.2041 2438.7909,-41.9721"/>
</g>
<!-- Node23 -->
<g id="node24" class="node">
<title>Node23</title>
<polygon fill="#ffffff" stroke="#bfbfbf" points="2571,-6 2571,-36 2693,-36 2693,-6 2571,-6"/>
<text text-anchor="start" x="2579" y="-24" font-family="Helvetica,sans-Serif" font-size="10.00" fill="#000000">tensorflow/core/platform</text>
<text text-anchor="middle" x="2632" y="-13" font-family="Helvetica,sans-Serif" font-size="10.00" fill="#000000">/init_main.h</text>
</g>
<!-- Node0&#45;&gt;Node23 -->
<g id="edge23" class="edge">
<title>Node0&#45;&gt;Node23</title>
<path fill="none" stroke="#191970" d="M1464.0551,-97.9948C1667.4929,-94.1826 2347.3857,-78.9201 2562,-42 2567.1052,-41.1217 2572.3625,-39.9895 2577.5935,-38.7066"/>
<polygon fill="#191970" stroke="#191970" points="2578.7933,-42.0101 2587.5738,-36.081 2577.0123,-35.2405 2578.7933,-42.0101"/>
</g>
<!-- Node24 -->
<g id="node25" class="node">
<title>Node24</title>
<polygon fill="#ffffff" stroke="#bfbfbf" points="2711,-6 2711,-36 2833,-36 2833,-6 2711,-6"/>
<text text-anchor="start" x="2719" y="-24" font-family="Helvetica,sans-Serif" font-size="10.00" fill="#000000">tensorflow/core/platform</text>
<text text-anchor="middle" x="2772" y="-13" font-family="Helvetica,sans-Serif" font-size="10.00" fill="#000000">/logging.h</text>
</g>
<!-- Node0&#45;&gt;Node24 -->
<g id="edge24" class="edge">
<title>Node0&#45;&gt;Node24</title>
<path fill="none" stroke="#191970" d="M1464.154,-98.3518C1683.266,-95.6133 2458.8467,-83.1647 2702,-42 2707.3167,-41.0999 2712.7974,-39.9199 2718.241,-38.5777"/>
<polygon fill="#191970" stroke="#191970" points="2719.1814,-41.9494 2727.9562,-36.012 2717.394,-35.1815 2719.1814,-41.9494"/>
</g>
<!-- Node25 -->
<g id="node26" class="node">
<title>Node25</title>
<polygon fill="#ffffff" stroke="#bfbfbf" points="2851,-6 2851,-36 2973,-36 2973,-6 2851,-6"/>
<text text-anchor="start" x="2859" y="-24" font-family="Helvetica,sans-Serif" font-size="10.00" fill="#000000">tensorflow/core/platform</text>
<text text-anchor="middle" x="2912" y="-13" font-family="Helvetica,sans-Serif" font-size="10.00" fill="#000000">/protobuf.h</text>
</g>
<!-- Node0&#45;&gt;Node25 -->
<g id="edge25" class="edge">
<title>Node0&#45;&gt;Node25</title>
<path fill="none" stroke="#191970" d="M1464.3338,-98.64C1698.4457,-96.8932 2570.2243,-87.4122 2842,-42 2847.3186,-41.1113 2852.8006,-39.9389 2858.245,-38.6014"/>
<polygon fill="#191970" stroke="#191970" points="2859.1829,-41.9739 2867.9612,-36.0415 2857.3995,-35.2049 2859.1829,-41.9739"/>
</g>
<!-- Node26 -->
<g id="node27" class="node">
<title>Node26</title>
<polygon fill="#ffffff" stroke="#bfbfbf" points="2991.5,-6 2991.5,-36 3108.5,-36 3108.5,-6 2991.5,-6"/>
<text text-anchor="start" x="2999.5" y="-24" font-family="Helvetica,sans-Serif" font-size="10.00" fill="#000000">tensorflow/core/util</text>
<text text-anchor="middle" x="3050" y="-13" font-family="Helvetica,sans-Serif" font-size="10.00" fill="#000000">/command_line_flags.h</text>
</g>
<!-- Node0&#45;&gt;Node26 -->
<g id="edge26" class="edge">
<title>Node0&#45;&gt;Node26</title>
<path fill="none" stroke="#191970" d="M1464.384,-97.7987C1731.475,-92.1803 2830.4104,-67.6847 2982,-42 2987.0479,-41.1447 2992.2433,-40.0161 2997.4062,-38.725"/>
<polygon fill="#191970" stroke="#191970" points="2998.5034,-42.0542 3007.2472,-36.0712 2996.6808,-35.2957 2998.5034,-42.0542"/>
</g>
</g>
</svg>
        <g id="navigator" transform="translate(0 0)" fill="#404254">
                <rect fill="#f2f5e9" fill-opacity="0.5" stroke="#606060" stroke-width=".5" x="0" y="0" width="60" height="60"/>
                <use id="zoomplus" xlink:href="#zoomPlus" x="17" y="9" onmousedown="handleZoom(evt,'in')"/>
                <use id="zoomminus" xlink:href="#zoomMin" x="42" y="9" onmousedown="handleZoom(evt,'out')"/>
                <use id="reset" xlink:href="#resetDef" x="30" y="36" onmousedown="handleReset()"/>
                <g id="arrowUp" xlink:href="#dirArrow" transform="translate(30 24)" onmousedown="handlePan(0,-1)">
                  <use xlink:href="#rim" fill="#404040">
                        <set attributeName="fill" to="#808080" begin="arrowUp.mouseover" end="arrowUp.mouseout"/>
                  </use>
                  <path fill="none" stroke="white" stroke-width="1.5" d="M0,-3.0v7 M-2.5,-0.5L0,-3.0L2.5,-0.5"/>
                </g>
                <g id="arrowRight" xlink:href="#dirArrow" transform="rotate(90) translate(36 -43)" onmousedown="handlePan(1,0)">
                  <use xlink:href="#rim" fill="#404040">
                        <set attributeName="fill" to="#808080" begin="arrowRight.mouseover" end="arrowRight.mouseout"/>
                  </use>
                  <path fill="none" stroke="white" stroke-width="1.5" d="M0,-3.0v7 M-2.5,-0.5L0,-3.0L2.5,-0.5"/>
                </g>
                <g id="arrowDown" xlink:href="#dirArrow" transform="rotate(180) translate(-30 -48)" onmousedown="handlePan(0,1)">
                  <use xlink:href="#rim" fill="#404040">
                        <set attributeName="fill" to="#808080" begin="arrowDown.mouseover" end="arrowDown.mouseout"/>
                  </use>
                  <path fill="none" stroke="white" stroke-width="1.5" d="M0,-3.0v7 M-2.5,-0.5L0,-3.0L2.5,-0.5"/>
                </g>
                <g id="arrowLeft" xlink:href="#dirArrow" transform="rotate(270) translate(-36 17)" onmousedown="handlePan(-1,0)">
                  <use xlink:href="#rim" fill="#404040">
                        <set attributeName="fill" to="#808080" begin="arrowLeft.mouseover" end="arrowLeft.mouseout"/>
                  </use>
                  <path fill="none" stroke="white" stroke-width="1.5" d="M0,-3.0v7 M-2.5,-0.5L0,-3.0L2.5,-0.5"/>
                </g>
        </g>
        <svg viewBox="0 0 15 15" width="100%" height="30px" preserveAspectRatio="xMaxYMin meet">
         <g id="arrow_out" transform="scale(0.3 0.3)">
          <a xlink:href="tfcompile__main_8cc__incl_org.svg" target="_base">
           <rect id="button" ry="5" rx="5" y="6" x="6" height="38" width="38"
                fill="#f2f5e9" fill-opacity="0.5" stroke="#606060" stroke-width="1.0"/>
           <path id="arrow"
             d="M 11.500037,31.436501 C 11.940474,20.09759 22.043105,11.32322 32.158766,21.979434 L 37.068811,17.246167 C 37.068811,17.246167 37.088388,32 37.088388,32 L 22.160133,31.978069 C 22.160133,31.978069 26.997745,27.140456 26.997745,27.140456 C 18.528582,18.264221 13.291696,25.230495 11.500037,31.436501 z"
             style="fill:#404040;"/>
          </a>
         </g>
        </svg>
</svg>
