<?xml version="1.0" encoding="UTF-8" standalone="no"?>
<!DOCTYPE svg PUBLIC "-//W3C//DTD SVG 1.1//EN"
 "http://www.w3.org/Graphics/SVG/1.1/DTD/svg11.dtd">
<!-- Generated by graphviz version 2.40.1 (20161225.0304)
 -->
<!-- Title: tensorflow/tensorflow/compiler/xla/service/cpu/conv_canonicalization.h Pages: 1 -->
<svg width="264pt" height="128pt"
 viewBox="0.00 0.00 263.50 128.00" xmlns="http://www.w3.org/2000/svg" xmlns:xlink="http://www.w3.org/1999/xlink">
<g id="graph0" class="graph" transform="scale(1 1) rotate(0) translate(4 124)">
<title>tensorflow/tensorflow/compiler/xla/service/cpu/conv_canonicalization.h</title>
<polygon fill="#ffffff" stroke="transparent" points="-4,4 -4,-124 259.5,-124 259.5,4 -4,4"/>
<!-- Node0 -->
<g id="node1" class="node">
<title>Node0</title>
<polygon fill="#bfbfbf" stroke="#000000" points="60.5,-78.5 60.5,-119.5 203.5,-119.5 203.5,-78.5 60.5,-78.5"/>
<text text-anchor="start" x="68.5" y="-107.5" font-family="Helvetica,sans-Serif" font-size="10.00" fill="#000000">tensorflow/tensorflow</text>
<text text-anchor="start" x="68.5" y="-96.5" font-family="Helvetica,sans-Serif" font-size="10.00" fill="#000000">/compiler/xla/service</text>
<text text-anchor="middle" x="132" y="-85.5" font-family="Helvetica,sans-Serif" font-size="10.00" fill="#000000">/cpu/conv_canonicalization.h</text>
</g>
<!-- Node1 -->
<g id="node2" class="node">
<title>Node1</title>
<polygon fill="#ffffff" stroke="#bfbfbf" points="0,-6 0,-36 128,-36 128,-6 0,-6"/>
<text text-anchor="start" x="8" y="-24" font-family="Helvetica,sans-Serif" font-size="10.00" fill="#000000">tensorflow/compiler</text>
<text text-anchor="middle" x="64" y="-13" font-family="Helvetica,sans-Serif" font-size="10.00" fill="#000000">/xla/service/hlo_module.h</text>
</g>
<!-- Node0&#45;&gt;Node1 -->
<g id="edge1" class="edge">
<title>Node0&#45;&gt;Node1</title>
<path fill="none" stroke="#191970" d="M113.7772,-78.0974C104.6232,-67.5972 93.5085,-54.848 84.106,-44.0628"/>
<polygon fill="#191970" stroke="#191970" points="86.52,-41.5056 77.3104,-36.2679 81.2436,-46.1056 86.52,-41.5056"/>
</g>
<!-- Node2 -->
<g id="node3" class="node">
<title>Node2</title>
<polygon fill="#ffffff" stroke="#bfbfbf" points="146.5,-.5 146.5,-41.5 255.5,-41.5 255.5,-.5 146.5,-.5"/>
<text text-anchor="start" x="154.5" y="-29.5" font-family="Helvetica,sans-Serif" font-size="10.00" fill="#000000">tensorflow/compiler</text>
<text text-anchor="start" x="154.5" y="-18.5" font-family="Helvetica,sans-Serif" font-size="10.00" fill="#000000">/xla/service/hlo_pass</text>
<text text-anchor="middle" x="201" y="-7.5" font-family="Helvetica,sans-Serif" font-size="10.00" fill="#000000">_interface.h</text>
</g>
<!-- Node0&#45;&gt;Node2 -->
<g id="edge2" class="edge">
<title>Node0&#45;&gt;Node2</title>
<path fill="none" stroke="#191970" d="M150.4907,-78.0974C158.2875,-69.2837 167.4858,-58.8856 175.8819,-49.3944"/>
<polygon fill="#191970" stroke="#191970" points="178.6932,-51.4988 182.6975,-41.6898 173.4502,-46.8608 178.6932,-51.4988"/>
</g>
</g>
</svg>
