<?xml version="1.0" encoding="UTF-8" standalone="no"?>
<!DOCTYPE svg PUBLIC "-//W3C//DTD SVG 1.1//EN"
 "http://www.w3.org/Graphics/SVG/1.1/DTD/svg11.dtd">
<!-- Generated by graphviz version 2.40.1 (20161225.0304)
 -->
<!-- Title: xla::HloComputation::AddInstruction Pages: 1 -->
<svg width="298pt" height="39pt"
 viewBox="0.00 0.00 298.00 39.00" xmlns="http://www.w3.org/2000/svg" xmlns:xlink="http://www.w3.org/1999/xlink">
<g id="graph0" class="graph" transform="scale(1 1) rotate(0) translate(4 35)">
<title>xla::HloComputation::AddInstruction</title>
<polygon fill="#ffffff" stroke="transparent" points="-4,4 -4,-35 294,-35 294,4 -4,4"/>
<!-- Node2 -->
<g id="node1" class="node">
<title>Node2</title>
<polygon fill="#bfbfbf" stroke="#000000" points="0,-.5 0,-30.5 117,-30.5 117,-.5 0,-.5"/>
<text text-anchor="start" x="8" y="-18.5" font-family="Helvetica,sans-Serif" font-size="10.00" fill="#000000">xla::HloComputation</text>
<text text-anchor="middle" x="58.5" y="-7.5" font-family="Helvetica,sans-Serif" font-size="10.00" fill="#000000">::AddInstruction</text>
</g>
<!-- Node3 -->
<g id="node2" class="node">
<title>Node3</title>
<g id="a_node2"><a xlink:href="../../d4/d36/classxla_1_1HloComputation.html#ad8cc3c537fd802217acf3f58bed861ea" target="_top" xlink:title="xla::HloComputation\l::CreateFusionInstruction">
<polygon fill="#ffffff" stroke="#000000" points="153,-.5 153,-30.5 290,-30.5 290,-.5 153,-.5"/>
<text text-anchor="start" x="161" y="-18.5" font-family="Helvetica,sans-Serif" font-size="10.00" fill="#000000">xla::HloComputation</text>
<text text-anchor="middle" x="221.5" y="-7.5" font-family="Helvetica,sans-Serif" font-size="10.00" fill="#000000">::CreateFusionInstruction</text>
</a>
</g>
</g>
<!-- Node2&#45;&gt;Node3 -->
<g id="edge1" class="edge">
<title>Node2&#45;&gt;Node3</title>
<path fill="none" stroke="#191970" d="M127.4497,-15.5C135.8261,-15.5 144.3838,-15.5 152.7572,-15.5"/>
<polygon fill="#191970" stroke="#191970" points="127.3468,-12.0001 117.3467,-15.5 127.3467,-19.0001 127.3468,-12.0001"/>
</g>
</g>
</svg>
