<?xml version="1.0" encoding="UTF-8" standalone="no"?>
<!DOCTYPE svg PUBLIC "-//W3C//DTD SVG 1.1//EN"
 "http://www.w3.org/Graphics/SVG/1.1/DTD/svg11.dtd">
<!-- Generated by graphviz version 2.40.1 (20161225.0304)
 -->
<!-- Title: tensorflow/tensorflow/compiler/xla/service/while_loop_simplifier.cc Pages: 1 -->
<svg width="1010pt" height="206pt"
 viewBox="0.00 0.00 1010.00 206.00" xmlns="http://www.w3.org/2000/svg" xmlns:xlink="http://www.w3.org/1999/xlink">
<g id="graph0" class="graph" transform="scale(1 1) rotate(0) translate(4 202)">
<title>tensorflow/tensorflow/compiler/xla/service/while_loop_simplifier.cc</title>
<polygon fill="#ffffff" stroke="transparent" points="-4,4 -4,-202 1006,-202 1006,4 -4,4"/>
<!-- Node0 -->
<g id="node1" class="node">
<title>Node0</title>
<polygon fill="#bfbfbf" stroke="#000000" points="551,-156.5 551,-197.5 673,-197.5 673,-156.5 551,-156.5"/>
<text text-anchor="start" x="559" y="-185.5" font-family="Helvetica,sans-Serif" font-size="10.00" fill="#000000">tensorflow/tensorflow</text>
<text text-anchor="start" x="559" y="-174.5" font-family="Helvetica,sans-Serif" font-size="10.00" fill="#000000">/compiler/xla/service</text>
<text text-anchor="middle" x="612" y="-163.5" font-family="Helvetica,sans-Serif" font-size="10.00" fill="#000000">/while_loop_simplifier.cc</text>
</g>
<!-- Node1 -->
<g id="node2" class="node">
<title>Node1</title>
<g id="a_node2"><a xlink:href="../../da/d88/while__loop__simplifier_8h.html" target="_top" xlink:title="tensorflow/compiler\l/xla/service/while_loop\l_simplifier.h">
<polygon fill="#ffffff" stroke="#000000" points="135,-78.5 135,-119.5 251,-119.5 251,-78.5 135,-78.5"/>
<text text-anchor="start" x="143" y="-107.5" font-family="Helvetica,sans-Serif" font-size="10.00" fill="#000000">tensorflow/compiler</text>
<text text-anchor="start" x="143" y="-96.5" font-family="Helvetica,sans-Serif" font-size="10.00" fill="#000000">/xla/service/while_loop</text>
<text text-anchor="middle" x="193" y="-85.5" font-family="Helvetica,sans-Serif" font-size="10.00" fill="#000000">_simplifier.h</text>
</a>
</g>
</g>
<!-- Node0&#45;&gt;Node1 -->
<g id="edge1" class="edge">
<title>Node0&#45;&gt;Node1</title>
<path fill="none" stroke="#191970" d="M550.7468,-169.7866C482.2463,-161.1157 367.9438,-144.8434 261.2933,-120.159"/>
<polygon fill="#191970" stroke="#191970" points="261.8639,-116.698 251.3289,-117.8226 260.2658,-123.5131 261.8639,-116.698"/>
</g>
<!-- Node5 -->
<g id="node6" class="node">
<title>Node5</title>
<g id="a_node6"><a xlink:href="../../d5/db7/call__inliner_8h.html" target="_top" xlink:title="tensorflow/compiler\l/xla/service/call_inliner.h">
<polygon fill="#ffffff" stroke="#000000" points="269.5,-84 269.5,-114 392.5,-114 392.5,-84 269.5,-84"/>
<text text-anchor="start" x="277.5" y="-102" font-family="Helvetica,sans-Serif" font-size="10.00" fill="#000000">tensorflow/compiler</text>
<text text-anchor="middle" x="331" y="-91" font-family="Helvetica,sans-Serif" font-size="10.00" fill="#000000">/xla/service/call_inliner.h</text>
</a>
</g>
</g>
<!-- Node0&#45;&gt;Node5 -->
<g id="edge5" class="edge">
<title>Node0&#45;&gt;Node5</title>
<path fill="none" stroke="#191970" d="M550.7913,-160.776C508.8469,-149.5627 451.9737,-134.1707 402,-120 398.4523,-118.994 394.8081,-117.9498 391.1337,-116.8885"/>
<polygon fill="#191970" stroke="#191970" points="391.9613,-113.4843 381.3818,-114.054 390.0075,-120.2061 391.9613,-113.4843"/>
</g>
<!-- Node7 -->
<g id="node8" class="node">
<title>Node7</title>
<polygon fill="#ffffff" stroke="#bfbfbf" points="410.5,-84 410.5,-114 545.5,-114 545.5,-84 410.5,-84"/>
<text text-anchor="start" x="418.5" y="-102" font-family="Helvetica,sans-Serif" font-size="10.00" fill="#000000">tensorflow/compiler</text>
<text text-anchor="middle" x="478" y="-91" font-family="Helvetica,sans-Serif" font-size="10.00" fill="#000000">/xla/service/hlo_evaluator.h</text>
</g>
<!-- Node0&#45;&gt;Node7 -->
<g id="edge9" class="edge">
<title>Node0&#45;&gt;Node7</title>
<path fill="none" stroke="#191970" d="M576.4423,-156.3022C556.7634,-144.8474 532.4044,-130.6682 512.8409,-119.2805"/>
<polygon fill="#191970" stroke="#191970" points="514.3477,-116.1079 503.9445,-114.102 510.8262,-122.1576 514.3477,-116.1079"/>
</g>
<!-- Node8 -->
<g id="node9" class="node">
<title>Node8</title>
<polygon fill="#ffffff" stroke="#bfbfbf" points="564,-84 564,-114 660,-114 660,-84 564,-84"/>
<text text-anchor="start" x="572" y="-102" font-family="Helvetica,sans-Serif" font-size="10.00" fill="#000000">tensorflow/core/lib</text>
<text text-anchor="middle" x="612" y="-91" font-family="Helvetica,sans-Serif" font-size="10.00" fill="#000000">/gtl/flatmap.h</text>
</g>
<!-- Node0&#45;&gt;Node8 -->
<g id="edge10" class="edge">
<title>Node0&#45;&gt;Node8</title>
<path fill="none" stroke="#191970" d="M612,-156.0974C612,-146.3178 612,-134.5873 612,-124.3097"/>
<polygon fill="#191970" stroke="#191970" points="615.5001,-124.2678 612,-114.2679 608.5001,-124.2679 615.5001,-124.2678"/>
</g>
<!-- Node9 -->
<g id="node10" class="node">
<title>Node9</title>
<polygon fill="#ffffff" stroke="#bfbfbf" points="678,-84 678,-114 774,-114 774,-84 678,-84"/>
<text text-anchor="start" x="686" y="-102" font-family="Helvetica,sans-Serif" font-size="10.00" fill="#000000">tensorflow/core/lib</text>
<text text-anchor="middle" x="726" y="-91" font-family="Helvetica,sans-Serif" font-size="10.00" fill="#000000">/gtl/optional.h</text>
</g>
<!-- Node0&#45;&gt;Node9 -->
<g id="edge11" class="edge">
<title>Node0&#45;&gt;Node9</title>
<path fill="none" stroke="#191970" d="M642.2506,-156.3022C658.6136,-145.1065 678.78,-131.3084 695.2234,-120.0577"/>
<polygon fill="#191970" stroke="#191970" points="697.6511,-122.6375 703.9278,-114.102 693.6983,-116.8603 697.6511,-122.6375"/>
</g>
<!-- Node10 -->
<g id="node11" class="node">
<title>Node10</title>
<polygon fill="#ffffff" stroke="#bfbfbf" points="792,-84 792,-114 888,-114 888,-84 792,-84"/>
<text text-anchor="start" x="800" y="-102" font-family="Helvetica,sans-Serif" font-size="10.00" fill="#000000">tensorflow/core/lib</text>
<text text-anchor="middle" x="840" y="-91" font-family="Helvetica,sans-Serif" font-size="10.00" fill="#000000">/strings/str_util.h</text>
</g>
<!-- Node0&#45;&gt;Node10 -->
<g id="edge12" class="edge">
<title>Node0&#45;&gt;Node10</title>
<path fill="none" stroke="#191970" d="M673.0967,-157.1476C705.7848,-146.3969 746.6789,-132.7407 783,-120 785.2671,-119.2047 787.5821,-118.3847 789.9185,-117.5507"/>
<polygon fill="#191970" stroke="#191970" points="791.3552,-120.7533 799.5762,-114.07 788.9818,-114.1679 791.3552,-120.7533"/>
</g>
<!-- Node11 -->
<g id="node12" class="node">
<title>Node11</title>
<polygon fill="#ffffff" stroke="#bfbfbf" points="906,-84 906,-114 1002,-114 1002,-84 906,-84"/>
<text text-anchor="start" x="914" y="-102" font-family="Helvetica,sans-Serif" font-size="10.00" fill="#000000">tensorflow/core/lib</text>
<text text-anchor="middle" x="954" y="-91" font-family="Helvetica,sans-Serif" font-size="10.00" fill="#000000">/strings/strcat.h</text>
</g>
<!-- Node0&#45;&gt;Node11 -->
<g id="edge13" class="edge">
<title>Node0&#45;&gt;Node11</title>
<path fill="none" stroke="#191970" d="M673.252,-167.5861C731.4134,-157.9826 821.003,-141.4583 897,-120 899.9496,-119.1672 902.9642,-118.2528 905.9908,-117.2861"/>
<polygon fill="#191970" stroke="#191970" points="907.2635,-120.551 915.6344,-114.0564 905.0405,-113.9133 907.2635,-120.551"/>
</g>
<!-- Node2 -->
<g id="node3" class="node">
<title>Node2</title>
<polygon fill="#ffffff" stroke="#bfbfbf" points="0,-6 0,-36 128,-36 128,-6 0,-6"/>
<text text-anchor="start" x="8" y="-24" font-family="Helvetica,sans-Serif" font-size="10.00" fill="#000000">tensorflow/compiler</text>
<text text-anchor="middle" x="64" y="-13" font-family="Helvetica,sans-Serif" font-size="10.00" fill="#000000">/xla/service/hlo_module.h</text>
</g>
<!-- Node1&#45;&gt;Node2 -->
<g id="edge2" class="edge">
<title>Node1&#45;&gt;Node2</title>
<path fill="none" stroke="#191970" d="M158.769,-78.3022C139.8245,-66.8474 116.3743,-52.6682 97.5409,-41.2805"/>
<polygon fill="#191970" stroke="#191970" points="99.3447,-38.2812 88.9764,-36.102 95.7228,-44.2713 99.3447,-38.2812"/>
</g>
<!-- Node3 -->
<g id="node4" class="node">
<title>Node3</title>
<polygon fill="#ffffff" stroke="#bfbfbf" points="146.5,-.5 146.5,-41.5 255.5,-41.5 255.5,-.5 146.5,-.5"/>
<text text-anchor="start" x="154.5" y="-29.5" font-family="Helvetica,sans-Serif" font-size="10.00" fill="#000000">tensorflow/compiler</text>
<text text-anchor="start" x="154.5" y="-18.5" font-family="Helvetica,sans-Serif" font-size="10.00" fill="#000000">/xla/service/hlo_pass</text>
<text text-anchor="middle" x="201" y="-7.5" font-family="Helvetica,sans-Serif" font-size="10.00" fill="#000000">_interface.h</text>
</g>
<!-- Node1&#45;&gt;Node3 -->
<g id="edge3" class="edge">
<title>Node1&#45;&gt;Node3</title>
<path fill="none" stroke="#191970" d="M195.1439,-78.0974C195.9755,-69.9888 196.9447,-60.5392 197.8525,-51.6884"/>
<polygon fill="#191970" stroke="#191970" points="201.3393,-51.9947 198.878,-41.6898 194.3759,-51.2805 201.3393,-51.9947"/>
</g>
<!-- Node4 -->
<g id="node5" class="node">
<title>Node4</title>
<polygon fill="#ffffff" stroke="#bfbfbf" points="273.5,-6 273.5,-36 374.5,-36 374.5,-6 273.5,-6"/>
<text text-anchor="start" x="281.5" y="-24" font-family="Helvetica,sans-Serif" font-size="10.00" fill="#000000">tensorflow/compiler</text>
<text text-anchor="middle" x="324" y="-13" font-family="Helvetica,sans-Serif" font-size="10.00" fill="#000000">/xla/statusor.h</text>
</g>
<!-- Node1&#45;&gt;Node4 -->
<g id="edge4" class="edge">
<title>Node1&#45;&gt;Node4</title>
<path fill="none" stroke="#191970" d="M227.7617,-78.3022C247,-66.8474 270.8136,-52.6682 289.9391,-41.2805"/>
<polygon fill="#191970" stroke="#191970" points="291.8347,-44.2254 298.6363,-36.102 288.2535,-38.2108 291.8347,-44.2254"/>
</g>
<!-- Node5&#45;&gt;Node3 -->
<g id="edge7" class="edge">
<title>Node5&#45;&gt;Node3</title>
<path fill="none" stroke="#191970" d="M305.9347,-83.9608C288.3745,-73.4247 264.4656,-59.0793 243.9046,-46.7428"/>
<polygon fill="#191970" stroke="#191970" points="245.7017,-43.7394 235.326,-41.5956 242.1002,-49.7418 245.7017,-43.7394"/>
</g>
<!-- Node5&#45;&gt;Node4 -->
<g id="edge8" class="edge">
<title>Node5&#45;&gt;Node4</title>
<path fill="none" stroke="#191970" d="M329.6503,-83.9608C328.6978,-73.3466 327.3983,-58.8663 326.2856,-46.4685"/>
<polygon fill="#191970" stroke="#191970" points="329.7493,-45.9063 325.3694,-36.2592 322.7774,-46.532 329.7493,-45.9063"/>
</g>
<!-- Node6 -->
<g id="node7" class="node">
<title>Node6</title>
<polygon fill="#ffffff" stroke="#bfbfbf" points="392.5,-11.5 392.5,-30.5 435.5,-30.5 435.5,-11.5 392.5,-11.5"/>
<text text-anchor="middle" x="414" y="-18.5" font-family="Helvetica,sans-Serif" font-size="10.00" fill="#000000">deque</text>
</g>
<!-- Node5&#45;&gt;Node6 -->
<g id="edge6" class="edge">
<title>Node5&#45;&gt;Node6</title>
<path fill="none" stroke="#191970" d="M347.0032,-83.9608C361.153,-70.6634 381.7594,-51.2984 396.3764,-37.5619"/>
<polygon fill="#191970" stroke="#191970" points="398.9115,-39.9826 403.8018,-30.5839 394.1177,-34.8816 398.9115,-39.9826"/>
</g>
</g>
</svg>
