<?xml version="1.0" encoding="UTF-8" standalone="no"?>
<!DOCTYPE svg PUBLIC "-//W3C//DTD SVG 1.1//EN"
 "http://www.w3.org/Graphics/SVG/1.1/DTD/svg11.dtd">
<!-- Generated by graphviz version 2.40.1 (20161225.0304)
 -->
<!-- Title: tensorflow/tensorflow/compiler/aot/compile.cc Pages: 1 -->
<svg width="3655pt" height="485pt"
 viewBox="0.00 0.00 3655.00 485.00" xmlns="http://www.w3.org/2000/svg" xmlns:xlink="http://www.w3.org/1999/xlink">
<g id="graph0" class="graph" transform="scale(1 1) rotate(0) translate(4 481)">
<title>tensorflow/tensorflow/compiler/aot/compile.cc</title>
<polygon fill="#ffffff" stroke="transparent" points="-4,4 -4,-481 3651,-481 3651,4 -4,4"/>
<!-- Node0 -->
<g id="node1" class="node">
<title>Node0</title>
<polygon fill="#bfbfbf" stroke="#000000" points="1903.5,-446.5 1903.5,-476.5 2026.5,-476.5 2026.5,-446.5 1903.5,-446.5"/>
<text text-anchor="start" x="1911.5" y="-464.5" font-family="Helvetica,sans-Serif" font-size="10.00" fill="#000000">tensorflow/tensorflow</text>
<text text-anchor="middle" x="1965" y="-453.5" font-family="Helvetica,sans-Serif" font-size="10.00" fill="#000000">/compiler/aot/compile.cc</text>
</g>
<!-- Node1 -->
<g id="node2" class="node">
<title>Node1</title>
<g id="a_node2"><a xlink:href="../../d4/d03/compile_8h.html" target="_top" xlink:title="tensorflow/compiler\l/aot/compile.h">
<polygon fill="#ffffff" stroke="#000000" points="826.5,-379.5 826.5,-409.5 927.5,-409.5 927.5,-379.5 826.5,-379.5"/>
<text text-anchor="start" x="834.5" y="-397.5" font-family="Helvetica,sans-Serif" font-size="10.00" fill="#000000">tensorflow/compiler</text>
<text text-anchor="middle" x="877" y="-386.5" font-family="Helvetica,sans-Serif" font-size="10.00" fill="#000000">/aot/compile.h</text>
</a>
</g>
</g>
<!-- Node0&#45;&gt;Node1 -->
<g id="edge1" class="edge">
<title>Node0&#45;&gt;Node1</title>
<path fill="none" stroke="#191970" d="M1903.3034,-459.8823C1711.8091,-454.6267 1129.2565,-436.8078 942,-410 940.5286,-409.7894 939.0417,-409.561 937.5445,-409.3171"/>
<polygon fill="#191970" stroke="#191970" points="938.0332,-405.8488 927.5691,-407.5083 936.7842,-412.7364 938.0332,-405.8488"/>
</g>
<!-- Node2 -->
<g id="node3" class="node">
<title>Node2</title>
<polygon fill="#ffffff" stroke="#bfbfbf" points="546,-11.5 546,-30.5 598,-30.5 598,-11.5 546,-11.5"/>
<text text-anchor="middle" x="572" y="-18.5" font-family="Helvetica,sans-Serif" font-size="10.00" fill="#000000">memory</text>
</g>
<!-- Node0&#45;&gt;Node2 -->
<g id="edge42" class="edge">
<title>Node0&#45;&gt;Node2</title>
<path fill="none" stroke="#191970" d="M1903.3624,-461.2416C1643.8102,-459.8951 638.7524,-452.0186 325,-410 176.6784,-390.1363 0,-471.6458 0,-322 0,-322 0,-322 0,-171.5 0,-60.2483 409.8001,-29.5056 535.671,-22.6868"/>
<polygon fill="#191970" stroke="#191970" points="536.1324,-26.1676 545.936,-22.1502 535.7669,-19.1771 536.1324,-26.1676"/>
</g>
<!-- Node3 -->
<g id="node4" class="node">
<title>Node3</title>
<polygon fill="#ffffff" stroke="#bfbfbf" points="842.5,-11.5 842.5,-30.5 883.5,-30.5 883.5,-11.5 842.5,-11.5"/>
<text text-anchor="middle" x="863" y="-18.5" font-family="Helvetica,sans-Serif" font-size="10.00" fill="#000000">string</text>
</g>
<!-- Node0&#45;&gt;Node3 -->
<g id="edge43" class="edge">
<title>Node0&#45;&gt;Node3</title>
<path fill="none" stroke="#191970" d="M1903.4585,-459.1012C1713.3326,-450.9274 1138.0342,-420.2611 970,-343 942.6931,-330.4445 942.4831,-316.9348 917,-301 819.2512,-239.8769 762.9234,-271.0355 684,-187 661.906,-163.4748 662.3461,-151.6434 656,-120 652.3295,-101.6978 644.5244,-92.7226 656,-78 696.2908,-26.309 736.0472,-60.2278 799,-42 810.0659,-38.7959 822.0927,-34.9479 832.7021,-31.4261"/>
<polygon fill="#191970" stroke="#191970" points="833.9972,-34.6834 842.3621,-28.1812 831.7681,-28.0478 833.9972,-34.6834"/>
</g>
<!-- Node4 -->
<g id="node5" class="node">
<title>Node4</title>
<polygon fill="#ffffff" stroke="#bfbfbf" points="518.5,-307 518.5,-337 619.5,-337 619.5,-307 518.5,-307"/>
<text text-anchor="start" x="526.5" y="-325" font-family="Helvetica,sans-Serif" font-size="10.00" fill="#000000">tensorflow/compiler</text>
<text text-anchor="middle" x="569" y="-314" font-family="Helvetica,sans-Serif" font-size="10.00" fill="#000000">/aot/flags.h</text>
</g>
<!-- Node0&#45;&gt;Node4 -->
<g id="edge46" class="edge">
<title>Node0&#45;&gt;Node4</title>
<path fill="none" stroke="#191970" d="M1903.1152,-460.2308C1672.9819,-455.3217 874.1049,-436.523 763,-410 703.805,-395.8689 640.5529,-363.5446 602.9178,-342.2546"/>
<polygon fill="#191970" stroke="#191970" points="604.336,-339.0334 593.9195,-337.0975 600.8552,-345.1066 604.336,-339.0334"/>
</g>
<!-- Node6 -->
<g id="node7" class="node">
<title>Node6</title>
<g id="a_node7"><a xlink:href="../../db/de2/cpu__compiler_8h.html" target="_top" xlink:title="tensorflow/compiler\l/xla/service/cpu/cpu\l_compiler.h">
<polygon fill="#ffffff" stroke="#000000" points="1098,-301.5 1098,-342.5 1202,-342.5 1202,-301.5 1098,-301.5"/>
<text text-anchor="start" x="1106" y="-330.5" font-family="Helvetica,sans-Serif" font-size="10.00" fill="#000000">tensorflow/compiler</text>
<text text-anchor="start" x="1106" y="-319.5" font-family="Helvetica,sans-Serif" font-size="10.00" fill="#000000">/xla/service/cpu/cpu</text>
<text text-anchor="middle" x="1150" y="-308.5" font-family="Helvetica,sans-Serif" font-size="10.00" fill="#000000">_compiler.h</text>
</a>
</g>
</g>
<!-- Node0&#45;&gt;Node6 -->
<g id="edge105" class="edge">
<title>Node0&#45;&gt;Node6</title>
<path fill="none" stroke="#191970" d="M1903.4085,-450.9576C1752.2452,-425.0837 1364.2189,-358.6669 1212.3091,-332.6652"/>
<polygon fill="#191970" stroke="#191970" points="1212.6646,-329.1752 1202.2175,-330.9378 1211.4836,-336.0749 1212.6646,-329.1752"/>
</g>
<!-- Node13 -->
<g id="node12" class="node">
<title>Node13</title>
<polygon fill="#ffffff" stroke="#bfbfbf" points="2455,-11.5 2455,-30.5 2499,-30.5 2499,-11.5 2455,-11.5"/>
<text text-anchor="middle" x="2477" y="-18.5" font-family="Helvetica,sans-Serif" font-size="10.00" fill="#000000">vector</text>
</g>
<!-- Node0&#45;&gt;Node13 -->
<g id="edge45" class="edge">
<title>Node0&#45;&gt;Node13</title>
<path fill="none" stroke="#191970" d="M2026.7583,-459.7713C2176.1627,-455.1483 2553.7953,-440.7089 2676,-410 2746.8132,-392.2053 2785.8782,-404.0033 2826,-343 2891.1894,-243.8828 2886.6748,-152.0626 2794,-78 2750.2697,-43.0522 2581.0332,-27.9037 2509.3613,-22.9615"/>
<polygon fill="#191970" stroke="#191970" points="2509.3355,-19.4521 2499.125,-22.2798 2508.8703,-26.4367 2509.3355,-19.4521"/>
</g>
<!-- Node38 -->
<g id="node16" class="node">
<title>Node38</title>
<polygon fill="#ffffff" stroke="#bfbfbf" points="1941,-6 1941,-36 2063,-36 2063,-6 1941,-6"/>
<text text-anchor="start" x="1949" y="-24" font-family="Helvetica,sans-Serif" font-size="10.00" fill="#000000">tensorflow/core/platform</text>
<text text-anchor="middle" x="2002" y="-13" font-family="Helvetica,sans-Serif" font-size="10.00" fill="#000000">/logging.h</text>
</g>
<!-- Node0&#45;&gt;Node38 -->
<g id="edge114" class="edge">
<title>Node0&#45;&gt;Node38</title>
<path fill="none" stroke="#191970" d="M2026.5566,-460.2223C2131.4646,-457.09 2351.1963,-446.3741 2533,-410 2660.9108,-384.4084 2813,-452.4458 2813,-322 2813,-322 2813,-322 2813,-171.5 2813,-125.3821 2806.1082,-103.9737 2768,-78 2739.5435,-58.6047 2258.1487,-33.3917 2073.3987,-24.3824"/>
<polygon fill="#191970" stroke="#191970" points="2073.4016,-20.8785 2063.2434,-23.8889 2073.0618,-27.8702 2073.4016,-20.8785"/>
</g>
<!-- Node26 -->
<g id="node23" class="node">
<title>Node26</title>
<polygon fill="#ffffff" stroke="#bfbfbf" points="676.5,-84 676.5,-114 777.5,-114 777.5,-84 676.5,-84"/>
<text text-anchor="start" x="684.5" y="-102" font-family="Helvetica,sans-Serif" font-size="10.00" fill="#000000">tensorflow/compiler</text>
<text text-anchor="middle" x="727" y="-91" font-family="Helvetica,sans-Serif" font-size="10.00" fill="#000000">/xla/statusor.h</text>
</g>
<!-- Node0&#45;&gt;Node26 -->
<g id="edge106" class="edge">
<title>Node0&#45;&gt;Node26</title>
<path fill="none" stroke="#191970" d="M1903.3035,-460.2599C1663.0625,-455.2633 797.4559,-435.6392 677,-410 598.3758,-393.2647 554.1006,-409.5414 509,-343 446.9823,-251.499 605.2014,-158.1232 684.6784,-118.5899"/>
<polygon fill="#191970" stroke="#191970" points="686.522,-121.5842 693.9603,-114.0395 683.4406,-115.2989 686.522,-121.5842"/>
</g>
<!-- Node28 -->
<g id="node27" class="node">
<title>Node28</title>
<polygon fill="#ffffff" stroke="#bfbfbf" points="2607.5,-84 2607.5,-114 2708.5,-114 2708.5,-84 2607.5,-84"/>
<text text-anchor="start" x="2615.5" y="-102" font-family="Helvetica,sans-Serif" font-size="10.00" fill="#000000">tensorflow/compiler</text>
<text text-anchor="middle" x="2658" y="-91" font-family="Helvetica,sans-Serif" font-size="10.00" fill="#000000">/xla/xla_data.pb.h</text>
</g>
<!-- Node0&#45;&gt;Node28 -->
<g id="edge108" class="edge">
<title>Node0&#45;&gt;Node28</title>
<path fill="none" stroke="#191970" d="M2026.6233,-456.0936C2195.3745,-440.671 2655.3532,-394.2584 2699,-343 2753.4347,-279.0723 2700.8388,-170.5146 2672.9229,-122.7517"/>
<polygon fill="#191970" stroke="#191970" points="2675.8475,-120.8229 2667.7078,-114.0409 2669.8416,-124.4187 2675.8475,-120.8229"/>
</g>
<!-- Node48 -->
<g id="node28" class="node">
<title>Node48</title>
<polygon fill="#ffffff" stroke="#bfbfbf" points="638,-307 638,-337 770,-337 770,-307 638,-307"/>
<text text-anchor="start" x="646" y="-325" font-family="Helvetica,sans-Serif" font-size="10.00" fill="#000000">tensorflow/core/framework</text>
<text text-anchor="middle" x="704" y="-314" font-family="Helvetica,sans-Serif" font-size="10.00" fill="#000000">/graph.pb.h</text>
</g>
<!-- Node0&#45;&gt;Node48 -->
<g id="edge109" class="edge">
<title>Node0&#45;&gt;Node48</title>
<path fill="none" stroke="#191970" d="M1903.3688,-460.919C1679.7686,-458.5125 919.0173,-447.6146 817,-410 780.0148,-396.3633 745.5027,-365.8692 724.5841,-344.6255"/>
<polygon fill="#191970" stroke="#191970" points="726.9651,-342.0519 717.5129,-337.2658 721.9174,-346.9017 726.9651,-342.0519"/>
</g>
<!-- Node18 -->
<g id="node29" class="node">
<title>Node18</title>
<polygon fill="#ffffff" stroke="#bfbfbf" points="1945,-385 1945,-404 1985,-404 1985,-385 1945,-385"/>
<text text-anchor="middle" x="1965" y="-392" font-family="Helvetica,sans-Serif" font-size="10.00" fill="#000000">utility</text>
</g>
<!-- Node0&#45;&gt;Node18 -->
<g id="edge44" class="edge">
<title>Node0&#45;&gt;Node18</title>
<path fill="none" stroke="#191970" d="M1965,-446.2967C1965,-436.7699 1965,-424.3954 1965,-414.1306"/>
<polygon fill="#191970" stroke="#191970" points="1968.5001,-414.0549 1965,-404.055 1961.5001,-414.055 1968.5001,-414.0549"/>
</g>
<!-- Node49 -->
<g id="node30" class="node">
<title>Node49</title>
<g id="a_node30"><a xlink:href="../../d7/d62/tf2xla_8h.html" target="_top" xlink:title="tensorflow/compiler\l/tf2xla/tf2xla.h">
<polygon fill="#ffffff" stroke="#000000" points="1323.5,-379.5 1323.5,-409.5 1424.5,-409.5 1424.5,-379.5 1323.5,-379.5"/>
<text text-anchor="start" x="1331.5" y="-397.5" font-family="Helvetica,sans-Serif" font-size="10.00" fill="#000000">tensorflow/compiler</text>
<text text-anchor="middle" x="1374" y="-386.5" font-family="Helvetica,sans-Serif" font-size="10.00" fill="#000000">/tf2xla/tf2xla.h</text>
</a>
</g>
</g>
<!-- Node0&#45;&gt;Node49 -->
<g id="edge47" class="edge">
<title>Node0&#45;&gt;Node49</title>
<path fill="none" stroke="#191970" d="M1903.4251,-454.5194C1789.751,-441.6325 1548.2362,-414.2527 1434.9969,-401.415"/>
<polygon fill="#191970" stroke="#191970" points="1435.1049,-397.905 1424.7743,-400.2561 1434.3163,-404.8604 1435.1049,-397.905"/>
</g>
<!-- Node52 -->
<g id="node33" class="node">
<title>Node52</title>
<g id="a_node33"><a xlink:href="../../d2/d2b/tf2xla__util_8h.html" target="_top" xlink:title="tensorflow/compiler\l/tf2xla/tf2xla_util.h">
<polygon fill="#ffffff" stroke="#000000" points="334.5,-379.5 334.5,-409.5 435.5,-409.5 435.5,-379.5 334.5,-379.5"/>
<text text-anchor="start" x="342.5" y="-397.5" font-family="Helvetica,sans-Serif" font-size="10.00" fill="#000000">tensorflow/compiler</text>
<text text-anchor="middle" x="385" y="-386.5" font-family="Helvetica,sans-Serif" font-size="10.00" fill="#000000">/tf2xla/tf2xla_util.h</text>
</a>
</g>
</g>
<!-- Node0&#45;&gt;Node52 -->
<g id="edge52" class="edge">
<title>Node0&#45;&gt;Node52</title>
<path fill="none" stroke="#191970" d="M1903.4081,-460.4729C1659.3516,-456.2323 759.7025,-438.9358 476,-410 466.1948,-408.9999 455.8488,-407.5858 445.7878,-406.0143"/>
<polygon fill="#191970" stroke="#191970" points="446.2843,-402.5492 435.8524,-404.3999 445.1615,-409.4585 446.2843,-402.5492"/>
</g>
<!-- Node55 -->
<g id="node37" class="node">
<title>Node55</title>
<g id="a_node37"><a xlink:href="../../db/d47/client__library_8h.html" target="_top" xlink:title="tensorflow/compiler\l/xla/client/client_library.h">
<polygon fill="#ffffff" stroke="#000000" points="2087,-379.5 2087,-409.5 2211,-409.5 2211,-379.5 2087,-379.5"/>
<text text-anchor="start" x="2095" y="-397.5" font-family="Helvetica,sans-Serif" font-size="10.00" fill="#000000">tensorflow/compiler</text>
<text text-anchor="middle" x="2149" y="-386.5" font-family="Helvetica,sans-Serif" font-size="10.00" fill="#000000">/xla/client/client_library.h</text>
</a>
</g>
</g>
<!-- Node0&#45;&gt;Node55 -->
<g id="edge59" class="edge">
<title>Node0&#45;&gt;Node55</title>
<path fill="none" stroke="#191970" d="M2006.2932,-446.4639C2033.4236,-436.5849 2069.1098,-423.5905 2098.0086,-413.0675"/>
<polygon fill="#191970" stroke="#191970" points="2099.3278,-416.312 2107.5267,-409.6017 2096.9327,-409.7345 2099.3278,-416.312"/>
</g>
<!-- Node56 -->
<g id="node38" class="node">
<title>Node56</title>
<g id="a_node38"><a xlink:href="../../d4/dab/compile__only__client_8h.html" target="_top" xlink:title="tensorflow/compiler\l/xla/client/compile\l_only_client.h">
<polygon fill="#ffffff" stroke="#000000" points="1561.5,-301.5 1561.5,-342.5 1662.5,-342.5 1662.5,-301.5 1561.5,-301.5"/>
<text text-anchor="start" x="1569.5" y="-330.5" font-family="Helvetica,sans-Serif" font-size="10.00" fill="#000000">tensorflow/compiler</text>
<text text-anchor="start" x="1569.5" y="-319.5" font-family="Helvetica,sans-Serif" font-size="10.00" fill="#000000">/xla/client/compile</text>
<text text-anchor="middle" x="1612" y="-308.5" font-family="Helvetica,sans-Serif" font-size="10.00" fill="#000000">_only_client.h</text>
</a>
</g>
</g>
<!-- Node0&#45;&gt;Node56 -->
<g id="edge104" class="edge">
<title>Node0&#45;&gt;Node56</title>
<path fill="none" stroke="#191970" d="M1926.8874,-446.4385C1865.7212,-422.2666 1745.1322,-374.6117 1672.2262,-345.8005"/>
<polygon fill="#191970" stroke="#191970" points="1673.2908,-342.4578 1662.7043,-342.0375 1670.7181,-348.9679 1673.2908,-342.4578"/>
</g>
<!-- Node76 -->
<g id="node45" class="node">
<title>Node76</title>
<polygon fill="#ffffff" stroke="#bfbfbf" points="2879.5,-379.5 2879.5,-409.5 2980.5,-409.5 2980.5,-379.5 2879.5,-379.5"/>
<text text-anchor="start" x="2887.5" y="-397.5" font-family="Helvetica,sans-Serif" font-size="10.00" fill="#000000">tensorflow/compiler</text>
<text text-anchor="middle" x="2930" y="-386.5" font-family="Helvetica,sans-Serif" font-size="10.00" fill="#000000">/xla/util.h</text>
</g>
<!-- Node0&#45;&gt;Node76 -->
<g id="edge107" class="edge">
<title>Node0&#45;&gt;Node76</title>
<path fill="none" stroke="#191970" d="M2026.6107,-459.3968C2202.1408,-453.1786 2702.6021,-433.8178 2865,-410 2866.4707,-409.7843 2867.9569,-409.5514 2869.4536,-409.3035"/>
<polygon fill="#191970" stroke="#191970" points="2870.2216,-412.7211 2879.4259,-407.4741 2868.9585,-405.836 2870.2216,-412.7211"/>
</g>
<!-- Node77 -->
<g id="node46" class="node">
<title>Node77</title>
<polygon fill="#ffffff" stroke="#bfbfbf" points="2999,-379.5 2999,-409.5 3095,-409.5 3095,-379.5 2999,-379.5"/>
<text text-anchor="start" x="3007" y="-397.5" font-family="Helvetica,sans-Serif" font-size="10.00" fill="#000000">tensorflow/core/lib</text>
<text text-anchor="middle" x="3047" y="-386.5" font-family="Helvetica,sans-Serif" font-size="10.00" fill="#000000">/core/errors.h</text>
</g>
<!-- Node0&#45;&gt;Node77 -->
<g id="edge110" class="edge">
<title>Node0&#45;&gt;Node77</title>
<path fill="none" stroke="#191970" d="M2026.5173,-460.1461C2214.9683,-455.7292 2783.411,-440.3354 2988.8652,-409.8999"/>
<polygon fill="#191970" stroke="#191970" points="2989.6059,-413.3271 2998.9566,-408.3456 2988.5403,-406.4087 2989.6059,-413.3271"/>
</g>
<!-- Node78 -->
<g id="node47" class="node">
<title>Node78</title>
<polygon fill="#ffffff" stroke="#bfbfbf" points="3113,-379.5 3113,-409.5 3209,-409.5 3209,-379.5 3113,-379.5"/>
<text text-anchor="start" x="3121" y="-397.5" font-family="Helvetica,sans-Serif" font-size="10.00" fill="#000000">tensorflow/core/lib</text>
<text text-anchor="middle" x="3161" y="-386.5" font-family="Helvetica,sans-Serif" font-size="10.00" fill="#000000">/io/path.h</text>
</g>
<!-- Node0&#45;&gt;Node78 -->
<g id="edge111" class="edge">
<title>Node0&#45;&gt;Node78</title>
<path fill="none" stroke="#191970" d="M2026.7518,-460.5C2229.4995,-456.9399 2874.3778,-443.3491 3103.0401,-409.8693"/>
<polygon fill="#191970" stroke="#191970" points="3103.5982,-413.3248 3112.9593,-408.3629 3102.5471,-406.4041 3103.5982,-413.3248"/>
</g>
<!-- Node79 -->
<g id="node48" class="node">
<title>Node79</title>
<polygon fill="#ffffff" stroke="#bfbfbf" points="3227.5,-379.5 3227.5,-409.5 3366.5,-409.5 3366.5,-379.5 3227.5,-379.5"/>
<text text-anchor="start" x="3235.5" y="-397.5" font-family="Helvetica,sans-Serif" font-size="10.00" fill="#000000">tensorflow/core/lib</text>
<text text-anchor="middle" x="3297" y="-386.5" font-family="Helvetica,sans-Serif" font-size="10.00" fill="#000000">/strings/proto_serialization.h</text>
</g>
<!-- Node0&#45;&gt;Node79 -->
<g id="edge112" class="edge">
<title>Node0&#45;&gt;Node79</title>
<path fill="none" stroke="#191970" d="M2026.6684,-460.2133C2242.3745,-455.5205 2963.1868,-438.1708 3217.0206,-409.9531"/>
<polygon fill="#191970" stroke="#191970" points="3217.7683,-413.3904 3227.3043,-408.7734 3216.9705,-406.436 3217.7683,-413.3904"/>
</g>
<!-- Node80 -->
<g id="node49" class="node">
<title>Node80</title>
<polygon fill="#ffffff" stroke="#bfbfbf" points="3385,-379.5 3385,-409.5 3507,-409.5 3507,-379.5 3385,-379.5"/>
<text text-anchor="start" x="3393" y="-397.5" font-family="Helvetica,sans-Serif" font-size="10.00" fill="#000000">tensorflow/core/platform</text>
<text text-anchor="middle" x="3446" y="-386.5" font-family="Helvetica,sans-Serif" font-size="10.00" fill="#000000">/env.h</text>
</g>
<!-- Node0&#45;&gt;Node80 -->
<g id="edge113" class="edge">
<title>Node0&#45;&gt;Node80</title>
<path fill="none" stroke="#191970" d="M2026.597,-460.7391C2259.6959,-457.6315 3088.5678,-444.4548 3374.3082,-410.0306"/>
<polygon fill="#191970" stroke="#191970" points="3375.159,-413.4519 3384.6507,-408.7446 3374.2952,-406.5053 3375.159,-413.4519"/>
</g>
<!-- Node34 -->
<g id="node50" class="node">
<title>Node34</title>
<polygon fill="#ffffff" stroke="#bfbfbf" points="3525,-379.5 3525,-409.5 3647,-409.5 3647,-379.5 3525,-379.5"/>
<text text-anchor="start" x="3533" y="-397.5" font-family="Helvetica,sans-Serif" font-size="10.00" fill="#000000">tensorflow/core/platform</text>
<text text-anchor="middle" x="3586" y="-386.5" font-family="Helvetica,sans-Serif" font-size="10.00" fill="#000000">/types.h</text>
</g>
<!-- Node0&#45;&gt;Node34 -->
<g id="edge115" class="edge">
<title>Node0&#45;&gt;Node34</title>
<path fill="none" stroke="#191970" d="M2026.6317,-460.9739C2274.5241,-458.6253 3200.1193,-447.5633 3514.6245,-409.9896"/>
<polygon fill="#191970" stroke="#191970" points="3515.1543,-413.451 3524.6522,-408.7562 3514.2997,-406.5033 3515.1543,-413.451"/>
</g>
<!-- Node1&#45;&gt;Node2 -->
<g id="edge2" class="edge">
<title>Node1&#45;&gt;Node2</title>
<path fill="none" stroke="#191970" d="M887.5662,-379.2291C900.2248,-358.8784 917.4409,-322.896 898,-301 853.1268,-250.46 651.6537,-303.3479 596,-265 536.0859,-223.7165 537.3932,-190.6506 520,-120 515.5378,-101.8745 513.2537,-95.4049 520,-78 526.2329,-61.9195 539.3492,-47.5963 550.8486,-37.3301"/>
<polygon fill="#191970" stroke="#191970" points="553.4315,-39.73 558.8146,-30.6046 548.9158,-34.3813 553.4315,-39.73"/>
</g>
<!-- Node1&#45;&gt;Node3 -->
<g id="edge3" class="edge">
<title>Node1&#45;&gt;Node3</title>
<path fill="none" stroke="#191970" d="M900.6419,-379.4133C912.4416,-370.4299 925.5473,-357.8819 932,-343 939.4257,-325.8739 942.4651,-316.4573 932,-301 907.8474,-265.3258 879.0348,-287.0096 842,-265 755.1692,-213.3969 709.9716,-211.4107 667,-120 659.0586,-103.1068 655.6695,-92.8345 667,-78 703.9109,-29.6744 740.7586,-59.4849 799,-42 810.0339,-38.6875 822.0534,-34.8145 832.6658,-31.303"/>
<polygon fill="#191970" stroke="#191970" points="833.9538,-34.563 842.3315,-28.0772 831.7378,-27.923 833.9538,-34.563"/>
</g>
<!-- Node1&#45;&gt;Node4 -->
<g id="edge4" class="edge">
<title>Node1&#45;&gt;Node4</title>
<path fill="none" stroke="#191970" d="M826.1841,-385.9748C775.7235,-377.0358 696.3724,-361.6976 629,-343 625.8629,-342.1294 622.652,-341.1805 619.4261,-340.1831"/>
<polygon fill="#191970" stroke="#191970" points="620.3531,-336.8047 609.7617,-337.0744 618.2096,-343.4685 620.3531,-336.8047"/>
</g>
<!-- Node5 -->
<g id="node6" class="node">
<title>Node5</title>
<polygon fill="#ffffff" stroke="#bfbfbf" points="788.5,-307 788.5,-337 889.5,-337 889.5,-307 788.5,-307"/>
<text text-anchor="start" x="796.5" y="-325" font-family="Helvetica,sans-Serif" font-size="10.00" fill="#000000">tensorflow/compiler</text>
<text text-anchor="middle" x="839" y="-314" font-family="Helvetica,sans-Serif" font-size="10.00" fill="#000000">/tf2xla/tf2xla.pb.h</text>
</g>
<!-- Node1&#45;&gt;Node5 -->
<g id="edge5" class="edge">
<title>Node1&#45;&gt;Node5</title>
<path fill="none" stroke="#191970" d="M869.1264,-379.478C864.0822,-369.8542 857.4227,-357.1485 851.6478,-346.1307"/>
<polygon fill="#191970" stroke="#191970" points="854.6059,-344.2351 846.8635,-337.0028 848.4059,-347.4848 854.6059,-344.2351"/>
</g>
<!-- Node1&#45;&gt;Node6 -->
<g id="edge6" class="edge">
<title>Node1&#45;&gt;Node6</title>
<path fill="none" stroke="#191970" d="M927.7094,-381.0332C973.007,-369.0036 1039.5018,-351.3448 1087.9582,-338.4763"/>
<polygon fill="#191970" stroke="#191970" points="1088.9369,-341.8378 1097.7035,-335.8883 1087.1401,-335.0723 1088.9369,-341.8378"/>
</g>
<!-- Node1&#45;&gt;Node28 -->
<g id="edge40" class="edge">
<title>Node1&#45;&gt;Node28</title>
<path fill="none" stroke="#191970" d="M927.7734,-392.2636C1053.8829,-386.48 1391.4511,-369.5974 1672,-343 1821.8237,-328.796 1858.4003,-317.3954 2008,-301 2177.5151,-282.422 2228.0678,-318.4646 2390,-265 2488.0959,-232.612 2587.2298,-157.7417 2632.5433,-120.6415"/>
<polygon fill="#191970" stroke="#191970" points="2634.89,-123.2427 2640.3656,-114.1724 2630.4289,-117.8484 2634.89,-123.2427"/>
</g>
<!-- Node1&#45;&gt;Node48 -->
<g id="edge41" class="edge">
<title>Node1&#45;&gt;Node48</title>
<path fill="none" stroke="#191970" d="M841.1543,-379.478C814.4787,-368.2989 777.8796,-352.9611 749.1975,-340.9411"/>
<polygon fill="#191970" stroke="#191970" points="750.3755,-337.6399 739.7998,-337.0028 747.6699,-344.0959 750.3755,-337.6399"/>
</g>
<!-- Node6&#45;&gt;Node2 -->
<g id="edge7" class="edge">
<title>Node6&#45;&gt;Node2</title>
<path fill="none" stroke="#191970" d="M1097.9701,-311.7836C1037.3577,-299.5348 941.1597,-278.9195 907,-265 791.5907,-217.9728 764.3138,-197.8518 667,-120 635.2841,-94.627 603.673,-59.1351 586.0969,-38.2594"/>
<polygon fill="#191970" stroke="#191970" points="588.7527,-35.9791 579.6678,-30.5279 583.3704,-40.4547 588.7527,-35.9791"/>
</g>
<!-- Node7 -->
<g id="node8" class="node">
<title>Node7</title>
<polygon fill="#ffffff" stroke="#bfbfbf" points="1159.5,-84 1159.5,-114 1284.5,-114 1284.5,-84 1159.5,-84"/>
<text text-anchor="start" x="1167.5" y="-102" font-family="Helvetica,sans-Serif" font-size="10.00" fill="#000000">tensorflow/compiler</text>
<text text-anchor="middle" x="1222" y="-91" font-family="Helvetica,sans-Serif" font-size="10.00" fill="#000000">/xla/service/executable.h</text>
</g>
<!-- Node6&#45;&gt;Node7 -->
<g id="edge8" class="edge">
<title>Node6&#45;&gt;Node7</title>
<path fill="none" stroke="#191970" d="M1117.6564,-301.4741C1105.684,-291.9802 1093.4617,-279.5603 1087,-265 1067.349,-220.7202 1060.2231,-196.3716 1087,-156 1101.3384,-134.382 1125.6716,-120.9422 1149.7631,-112.5955"/>
<polygon fill="#191970" stroke="#191970" points="1150.865,-115.9178 1159.3203,-109.5336 1148.7293,-109.2515 1150.865,-115.9178"/>
</g>
<!-- Node8 -->
<g id="node9" class="node">
<title>Node8</title>
<g id="a_node9"><a xlink:href="../../db/da0/hlo__module_8h.html" target="_top" xlink:title="tensorflow/compiler\l/xla/service/hlo_module.h">
<polygon fill="#ffffff" stroke="#ff0000" points="1417,-84 1417,-114 1545,-114 1545,-84 1417,-84"/>
<text text-anchor="start" x="1425" y="-102" font-family="Helvetica,sans-Serif" font-size="10.00" fill="#000000">tensorflow/compiler</text>
<text text-anchor="middle" x="1481" y="-91" font-family="Helvetica,sans-Serif" font-size="10.00" fill="#000000">/xla/service/hlo_module.h</text>
</a>
</g>
</g>
<!-- Node6&#45;&gt;Node8 -->
<g id="edge9" class="edge">
<title>Node6&#45;&gt;Node8</title>
<path fill="none" stroke="#191970" d="M1136.4672,-301.2736C1130.4548,-290.8462 1124.0547,-277.7404 1121,-265 1109.072,-215.2506 1116.376,-185.7443 1158,-156 1177.991,-141.7146 1317.8489,-120.7819 1406.8553,-108.659"/>
<polygon fill="#191970" stroke="#191970" points="1407.4699,-112.1078 1416.9098,-107.2975 1406.5305,-105.1711 1407.4699,-112.1078"/>
</g>
<!-- Node30 -->
<g id="node15" class="node">
<title>Node30</title>
<polygon fill="#ffffff" stroke="#bfbfbf" points="1209,-6 1209,-36 1305,-36 1305,-6 1209,-6"/>
<text text-anchor="start" x="1217" y="-24" font-family="Helvetica,sans-Serif" font-size="10.00" fill="#000000">tensorflow/core/lib</text>
<text text-anchor="middle" x="1257" y="-13" font-family="Helvetica,sans-Serif" font-size="10.00" fill="#000000">/gtl/array_slice.h</text>
</g>
<!-- Node6&#45;&gt;Node30 -->
<g id="edge37" class="edge">
<title>Node6&#45;&gt;Node30</title>
<path fill="none" stroke="#191970" d="M1108.3088,-301.4424C1028.9338,-259.6667 869.9971,-161.7128 940,-78 972.3354,-39.3318 1116.3498,-26.8576 1198.705,-22.8613"/>
<polygon fill="#191970" stroke="#191970" points="1199.0905,-26.3474 1208.92,-22.3937 1198.7704,-19.3547 1199.0905,-26.3474"/>
</g>
<!-- Node40 -->
<g id="node18" class="node">
<title>Node40</title>
<g id="a_node18"><a xlink:href="../../d8/d1e/llvm__compiler_8h.html" target="_top" xlink:title="tensorflow/compiler\l/xla/service/llvm_compiler.h">
<polygon fill="#ffffff" stroke="#ff0000" points="1129.5,-229 1129.5,-259 1266.5,-259 1266.5,-229 1129.5,-229"/>
<text text-anchor="start" x="1137.5" y="-247" font-family="Helvetica,sans-Serif" font-size="10.00" fill="#000000">tensorflow/compiler</text>
<text text-anchor="middle" x="1198" y="-236" font-family="Helvetica,sans-Serif" font-size="10.00" fill="#000000">/xla/service/llvm_compiler.h</text>
</a>
</g>
</g>
<!-- Node6&#45;&gt;Node40 -->
<g id="edge20" class="edge">
<title>Node6&#45;&gt;Node40</title>
<path fill="none" stroke="#191970" d="M1162.8631,-301.0974C1169.1348,-290.906 1176.7101,-278.596 1183.2188,-268.0194"/>
<polygon fill="#191970" stroke="#191970" points="1186.3442,-269.6188 1188.6044,-259.2679 1180.3826,-265.9501 1186.3442,-269.6188"/>
</g>
<!-- Node6&#45;&gt;Node26 -->
<g id="edge36" class="edge">
<title>Node6&#45;&gt;Node26</title>
<path fill="none" stroke="#191970" d="M1097.7646,-305.3681C1093.1103,-303.8897 1088.4703,-302.417 1084,-301 1033.3508,-284.9449 1016.9507,-289.8745 970,-265 900.9361,-228.41 897.2502,-199.0239 832,-156 811.3704,-142.3975 787.2022,-129.1111 767.2565,-118.7924"/>
<polygon fill="#191970" stroke="#191970" points="768.6255,-115.5614 758.1286,-114.1237 765.4379,-121.7935 768.6255,-115.5614"/>
</g>
<!-- Node46 -->
<g id="node24" class="node">
<title>Node46</title>
<polygon fill="#ffffff" stroke="#bfbfbf" points="1677.5,-84 1677.5,-114 1820.5,-114 1820.5,-84 1677.5,-84"/>
<text text-anchor="start" x="1685.5" y="-102" font-family="Helvetica,sans-Serif" font-size="10.00" fill="#000000">tensorflow/core/platform</text>
<text text-anchor="middle" x="1749" y="-91" font-family="Helvetica,sans-Serif" font-size="10.00" fill="#000000">/stream_executor_no_cuda.h</text>
</g>
<!-- Node6&#45;&gt;Node46 -->
<g id="edge39" class="edge">
<title>Node6&#45;&gt;Node46</title>
<path fill="none" stroke="#191970" d="M1202.1667,-303.8473C1225.8838,-294.2642 1253.5866,-281.1241 1276,-265 1296.6784,-250.1241 1293.2882,-236.3224 1315,-223 1346.3951,-203.736 1565.7827,-145.8807 1680.0842,-116.5126"/>
<polygon fill="#191970" stroke="#191970" points="1680.9869,-119.8944 1689.8033,-114.019 1679.2472,-113.114 1680.9869,-119.8944"/>
</g>
<!-- Node33 -->
<g id="node26" class="node">
<title>Node33</title>
<polygon fill="#ffffff" stroke="#bfbfbf" points="2342,-84 2342,-114 2464,-114 2464,-84 2342,-84"/>
<text text-anchor="start" x="2350" y="-102" font-family="Helvetica,sans-Serif" font-size="10.00" fill="#000000">tensorflow/core/platform</text>
<text text-anchor="middle" x="2403" y="-91" font-family="Helvetica,sans-Serif" font-size="10.00" fill="#000000">/macros.h</text>
</g>
<!-- Node6&#45;&gt;Node33 -->
<g id="edge38" class="edge">
<title>Node6&#45;&gt;Node33</title>
<path fill="none" stroke="#191970" d="M1202.1942,-319.7554C1350.3629,-313.116 1771.5895,-292.3162 1907,-265 2078.6331,-230.3766 2273.1034,-153.7366 2358.6402,-118.0159"/>
<polygon fill="#191970" stroke="#191970" points="2360.17,-121.1697 2368.0369,-114.073 2357.4615,-114.7149 2360.17,-121.1697"/>
</g>
<!-- Node8&#45;&gt;Node2 -->
<g id="edge11" class="edge">
<title>Node8&#45;&gt;Node2</title>
<path fill="none" stroke="#191970" d="M1416.6932,-89.086C1389.1321,-85.1342 1356.5442,-80.8554 1327,-78 1048.2857,-51.0626 976.2848,-73.0622 698,-42 667.7227,-38.6204 633.6571,-32.8208 608.5876,-28.1715"/>
<polygon fill="#191970" stroke="#191970" points="608.9065,-24.6702 598.4316,-26.2598 607.6115,-31.5493 608.9065,-24.6702"/>
</g>
<!-- Node8&#45;&gt;Node3 -->
<g id="edge12" class="edge">
<title>Node8&#45;&gt;Node3</title>
<path fill="none" stroke="#191970" d="M1416.6992,-86.5786C1399.9081,-83.5494 1381.8061,-80.4726 1365,-78 1187.2216,-51.8442 972.4963,-31.0479 893.8072,-23.7834"/>
<polygon fill="#191970" stroke="#191970" points="893.9027,-20.2776 883.6247,-22.8491 893.263,-27.2483 893.9027,-20.2776"/>
</g>
<!-- Node9 -->
<g id="node10" class="node">
<title>Node9</title>
<polygon fill="#ffffff" stroke="#bfbfbf" points="1449,-11.5 1449,-30.5 1495,-30.5 1495,-11.5 1449,-11.5"/>
<text text-anchor="middle" x="1472" y="-18.5" font-family="Helvetica,sans-Serif" font-size="10.00" fill="#000000">atomic</text>
</g>
<!-- Node8&#45;&gt;Node9 -->
<g id="edge10" class="edge">
<title>Node8&#45;&gt;Node9</title>
<path fill="none" stroke="#191970" d="M1479.2647,-83.9608C1477.844,-71.6484 1475.8232,-54.134 1474.2734,-40.7024"/>
<polygon fill="#191970" stroke="#191970" points="1477.7291,-40.1167 1473.1058,-30.5839 1470.7752,-40.9192 1477.7291,-40.1167"/>
</g>
<!-- Node12 -->
<g id="node11" class="node">
<title>Node12</title>
<polygon fill="#ffffff" stroke="#bfbfbf" points="707.5,-11.5 707.5,-30.5 790.5,-30.5 790.5,-11.5 707.5,-11.5"/>
<text text-anchor="middle" x="749" y="-18.5" font-family="Helvetica,sans-Serif" font-size="10.00" fill="#000000">unordered_map</text>
</g>
<!-- Node8&#45;&gt;Node12 -->
<g id="edge13" class="edge">
<title>Node8&#45;&gt;Node12</title>
<path fill="none" stroke="#191970" d="M1416.6707,-89.3104C1389.1057,-85.3965 1356.5211,-81.0854 1327,-78 1108.0548,-55.117 1050.3658,-76.8247 833,-42 819.3979,-39.8208 804.7701,-36.5107 791.5939,-33.1587"/>
<polygon fill="#191970" stroke="#191970" points="792.4025,-29.7525 781.842,-30.6053 790.6293,-36.5242 792.4025,-29.7525"/>
</g>
<!-- Node8&#45;&gt;Node13 -->
<g id="edge14" class="edge">
<title>Node8&#45;&gt;Node13</title>
<path fill="none" stroke="#191970" d="M1545.3219,-91.1578C1581.6032,-86.8995 1627.7898,-81.7536 1669,-78 1970.223,-50.5631 2335.6567,-28.9934 2444.7661,-22.7998"/>
<polygon fill="#191970" stroke="#191970" points="2445.015,-26.2915 2454.8015,-22.2326 2444.6199,-19.3026 2445.015,-26.2915"/>
</g>
<!-- Node35 -->
<g id="node13" class="node">
<title>Node35</title>
<polygon fill="#ffffff" stroke="#bfbfbf" points="1513.5,-.5 1513.5,-41.5 1632.5,-41.5 1632.5,-.5 1513.5,-.5"/>
<text text-anchor="start" x="1521.5" y="-29.5" font-family="Helvetica,sans-Serif" font-size="10.00" fill="#000000">tensorflow/compiler</text>
<text text-anchor="start" x="1521.5" y="-18.5" font-family="Helvetica,sans-Serif" font-size="10.00" fill="#000000">/xla/service/hlo_module</text>
<text text-anchor="middle" x="1573" y="-7.5" font-family="Helvetica,sans-Serif" font-size="10.00" fill="#000000">_config.h</text>
</g>
<!-- Node8&#45;&gt;Node35 -->
<g id="edge15" class="edge">
<title>Node8&#45;&gt;Node35</title>
<path fill="none" stroke="#191970" d="M1498.7385,-83.9608C1510.7219,-73.801 1526.8831,-60.0992 1541.069,-48.072"/>
<polygon fill="#191970" stroke="#191970" points="1543.3436,-50.7322 1548.7077,-41.5956 1538.8167,-45.3928 1543.3436,-50.7322"/>
</g>
<!-- Node27 -->
<g id="node14" class="node">
<title>Node27</title>
<polygon fill="#ffffff" stroke="#bfbfbf" points="1806.5,-6 1806.5,-36 1907.5,-36 1907.5,-6 1806.5,-6"/>
<text text-anchor="start" x="1814.5" y="-24" font-family="Helvetica,sans-Serif" font-size="10.00" fill="#000000">tensorflow/compiler</text>
<text text-anchor="middle" x="1857" y="-13" font-family="Helvetica,sans-Serif" font-size="10.00" fill="#000000">/xla/types.h</text>
</g>
<!-- Node8&#45;&gt;Node27 -->
<g id="edge16" class="edge">
<title>Node8&#45;&gt;Node27</title>
<path fill="none" stroke="#191970" d="M1545.045,-88.5138C1606.2103,-78.1125 1700.8284,-61.0127 1782,-42 1786.6901,-40.9014 1791.5273,-39.7019 1796.3798,-38.4509"/>
<polygon fill="#191970" stroke="#191970" points="1797.5444,-41.7634 1806.3195,-35.8264 1795.7573,-34.9954 1797.5444,-41.7634"/>
</g>
<!-- Node8&#45;&gt;Node30 -->
<g id="edge17" class="edge">
<title>Node8&#45;&gt;Node30</title>
<path fill="none" stroke="#191970" d="M1437.8105,-83.9608C1401.3613,-71.2687 1349.0373,-53.0487 1310.0463,-39.4715"/>
<polygon fill="#191970" stroke="#191970" points="1311.0333,-36.1091 1300.4384,-36.1259 1308.7313,-42.7198 1311.0333,-36.1091"/>
</g>
<!-- Node8&#45;&gt;Node38 -->
<g id="edge18" class="edge">
<title>Node8&#45;&gt;Node38</title>
<path fill="none" stroke="#191970" d="M1545.3196,-91.4918C1648.6837,-79.2738 1847.231,-55.1362 1917,-42 1922.8376,-40.9009 1928.8736,-39.648 1934.9114,-38.3139"/>
<polygon fill="#191970" stroke="#191970" points="1936.0679,-41.6401 1945.0397,-36.0048 1934.5119,-34.8153 1936.0679,-41.6401"/>
</g>
<!-- Node39 -->
<g id="node17" class="node">
<title>Node39</title>
<polygon fill="#ffffff" stroke="#bfbfbf" points="1651,-6 1651,-36 1773,-36 1773,-6 1651,-6"/>
<text text-anchor="start" x="1659" y="-24" font-family="Helvetica,sans-Serif" font-size="10.00" fill="#000000">tensorflow/core/platform</text>
<text text-anchor="middle" x="1712" y="-13" font-family="Helvetica,sans-Serif" font-size="10.00" fill="#000000">/mutex.h</text>
</g>
<!-- Node8&#45;&gt;Node39 -->
<g id="edge19" class="edge">
<title>Node8&#45;&gt;Node39</title>
<path fill="none" stroke="#191970" d="M1525.5391,-83.9608C1563.2071,-71.2418 1617.3153,-52.9715 1657.5513,-39.3853"/>
<polygon fill="#191970" stroke="#191970" points="1658.8494,-42.6412 1667.2041,-36.1259 1656.6099,-36.0091 1658.8494,-42.6412"/>
</g>
<!-- Node42 -->
<g id="node19" class="node">
<title>Node42</title>
<g id="a_node19"><a xlink:href="../../d4/dd1/compiler_8h.html" target="_top" xlink:title="tensorflow/compiler\l/xla/service/compiler.h">
<polygon fill="#ffffff" stroke="#000000" points="1167,-156.5 1167,-186.5 1281,-186.5 1281,-156.5 1167,-156.5"/>
<text text-anchor="start" x="1175" y="-174.5" font-family="Helvetica,sans-Serif" font-size="10.00" fill="#000000">tensorflow/compiler</text>
<text text-anchor="middle" x="1224" y="-163.5" font-family="Helvetica,sans-Serif" font-size="10.00" fill="#000000">/xla/service/compiler.h</text>
</a>
</g>
</g>
<!-- Node40&#45;&gt;Node42 -->
<g id="edge21" class="edge">
<title>Node40&#45;&gt;Node42</title>
<path fill="none" stroke="#191970" d="M1203.3872,-228.978C1206.8036,-219.4514 1211.3031,-206.9049 1215.2263,-195.9651"/>
<polygon fill="#191970" stroke="#191970" points="1218.5385,-197.0973 1218.6197,-186.5028 1211.9494,-194.7343 1218.5385,-197.0973"/>
</g>
<!-- Node42&#45;&gt;Node2 -->
<g id="edge24" class="edge">
<title>Node42&#45;&gt;Node2</title>
<path fill="none" stroke="#191970" d="M1166.7245,-158.5979C1162.0897,-157.6754 1157.4716,-156.7964 1153,-156 1038.1495,-135.5439 1005.8616,-149.5185 893,-120 843.5746,-107.073 834.5396,-93.9336 786,-78 724.4104,-57.7826 651.1251,-39.472 608.2632,-29.3256"/>
<polygon fill="#191970" stroke="#191970" points="608.8406,-25.8661 598.3051,-26.9859 607.2394,-32.6805 608.8406,-25.8661"/>
</g>
<!-- Node42&#45;&gt;Node3 -->
<g id="edge25" class="edge">
<title>Node42&#45;&gt;Node3</title>
<path fill="none" stroke="#191970" d="M1166.6971,-158.7456C1162.0684,-157.7899 1157.4593,-156.8631 1153,-156 1058.74,-137.7561 1022.4174,-169.2459 940,-120 907.7613,-100.7368 884.0115,-62.4921 871.9458,-39.5869"/>
<polygon fill="#191970" stroke="#191970" points="875.0048,-37.8801 867.3673,-30.5372 868.7587,-41.0403 875.0048,-37.8801"/>
</g>
<!-- Node42&#45;&gt;Node7 -->
<g id="edge26" class="edge">
<title>Node42&#45;&gt;Node7</title>
<path fill="none" stroke="#191970" d="M1223.5856,-156.478C1223.3282,-147.1459 1222.9908,-134.9157 1222.6934,-124.1368"/>
<polygon fill="#191970" stroke="#191970" points="1226.1884,-123.9025 1222.4139,-114.0028 1219.1911,-124.0955 1226.1884,-123.9025"/>
</g>
<!-- Node42&#45;&gt;Node8 -->
<g id="edge27" class="edge">
<title>Node42&#45;&gt;Node8</title>
<path fill="none" stroke="#191970" d="M1277.2506,-156.478C1318.1707,-144.9343 1374.8098,-128.9564 1417.9867,-116.7761"/>
<polygon fill="#191970" stroke="#191970" points="1419.1436,-120.0865 1427.8177,-114.0028 1417.243,-113.3494 1419.1436,-120.0865"/>
</g>
<!-- Node42&#45;&gt;Node35 -->
<g id="edge28" class="edge">
<title>Node42&#45;&gt;Node35</title>
<path fill="none" stroke="#191970" d="M1281.2759,-158.6005C1285.9107,-157.6774 1290.5286,-156.7976 1295,-156 1352.2059,-145.7956 1511.8665,-160.0176 1554,-120 1572.1027,-102.8064 1575.9299,-74.0328 1575.7704,-51.9242"/>
<polygon fill="#191970" stroke="#191970" points="1579.2599,-51.5594 1575.4168,-41.6862 1572.2641,-51.8011 1579.2599,-51.5594"/>
</g>
<!-- Node42&#45;&gt;Node27 -->
<g id="edge31" class="edge">
<title>Node42&#45;&gt;Node27</title>
<path fill="none" stroke="#191970" d="M1281.2526,-158.4644C1285.8926,-157.5718 1290.518,-156.7362 1295,-156 1437.9704,-132.517 1485.8153,-177.0424 1619,-120 1645.678,-108.5739 1643.4826,-91.8252 1669,-78 1680.5265,-71.755 1746.0199,-52.4512 1796.4991,-38.0271"/>
<polygon fill="#191970" stroke="#191970" points="1797.7166,-41.3196 1806.3743,-35.2127 1795.7979,-34.5876 1797.7166,-41.3196"/>
</g>
<!-- Node42&#45;&gt;Node30 -->
<g id="edge32" class="edge">
<title>Node42&#45;&gt;Node30</title>
<path fill="none" stroke="#191970" d="M1189.8107,-156.4711C1175.0442,-148.045 1159.2794,-135.9734 1151,-120 1142.4099,-103.4273 1141.4235,-94.0229 1151,-78 1161.8703,-59.8123 1180.7612,-47.0898 1199.6128,-38.3564"/>
<polygon fill="#191970" stroke="#191970" points="1201.0315,-41.5563 1208.8288,-34.3832 1198.2601,-35.1282 1201.0315,-41.5563"/>
</g>
<!-- Node42&#45;&gt;Node39 -->
<g id="edge33" class="edge">
<title>Node42&#45;&gt;Node39</title>
<path fill="none" stroke="#191970" d="M1281.2662,-158.5453C1285.9032,-157.6346 1290.5242,-156.7727 1295,-156 1419.5086,-134.5048 1459.6563,-166.8496 1577,-120 1578.5096,-119.3973 1643.885,-71.2545 1683.0937,-42.335"/>
<polygon fill="#191970" stroke="#191970" points="1685.5324,-44.8852 1691.5018,-36.1321 1681.3768,-39.2522 1685.5324,-44.8852"/>
</g>
<!-- Node43 -->
<g id="node20" class="node">
<title>Node43</title>
<polygon fill="#ffffff" stroke="#bfbfbf" points="1838.5,-89.5 1838.5,-108.5 1897.5,-108.5 1897.5,-89.5 1838.5,-89.5"/>
<text text-anchor="middle" x="1868" y="-96.5" font-family="Helvetica,sans-Serif" font-size="10.00" fill="#000000">functional</text>
</g>
<!-- Node42&#45;&gt;Node43 -->
<g id="edge22" class="edge">
<title>Node42&#45;&gt;Node43</title>
<path fill="none" stroke="#191970" d="M1281.3479,-169.6771C1412.0042,-165.0323 1728.3366,-150.8721 1830,-120 1835.0983,-118.4518 1840.2783,-116.1575 1845.1062,-113.6471"/>
<polygon fill="#191970" stroke="#191970" points="1846.8704,-116.6703 1853.8424,-108.6928 1843.4172,-110.5813 1846.8704,-116.6703"/>
</g>
<!-- Node44 -->
<g id="node21" class="node">
<title>Node44</title>
<polygon fill="#ffffff" stroke="#bfbfbf" points="948.5,-89.5 948.5,-108.5 983.5,-108.5 983.5,-89.5 948.5,-89.5"/>
<text text-anchor="middle" x="966" y="-96.5" font-family="Helvetica,sans-Serif" font-size="10.00" fill="#000000">map</text>
</g>
<!-- Node42&#45;&gt;Node44 -->
<g id="edge23" class="edge">
<title>Node42&#45;&gt;Node44</title>
<path fill="none" stroke="#191970" d="M1166.9444,-158.9385C1099.1914,-143.999 995.0038,-120.9438 993,-120 990.0855,-118.6272 987.1938,-116.8932 984.446,-115.0127"/>
<polygon fill="#191970" stroke="#191970" points="986.3712,-112.0783 976.3067,-108.7683 982.1103,-117.6322 986.3712,-112.0783"/>
</g>
<!-- Node45 -->
<g id="node22" class="node">
<title>Node45</title>
<polygon fill="#ffffff" stroke="#bfbfbf" points="1001.5,-78.5 1001.5,-119.5 1102.5,-119.5 1102.5,-78.5 1001.5,-78.5"/>
<text text-anchor="start" x="1009.5" y="-107.5" font-family="Helvetica,sans-Serif" font-size="10.00" fill="#000000">tensorflow/compiler</text>
<text text-anchor="start" x="1009.5" y="-96.5" font-family="Helvetica,sans-Serif" font-size="10.00" fill="#000000">/xla/service/logical</text>
<text text-anchor="middle" x="1052" y="-85.5" font-family="Helvetica,sans-Serif" font-size="10.00" fill="#000000">_buffer.h</text>
</g>
<!-- Node42&#45;&gt;Node45 -->
<g id="edge29" class="edge">
<title>Node42&#45;&gt;Node45</title>
<path fill="none" stroke="#191970" d="M1188.3615,-156.478C1165.7514,-146.9476 1135.9707,-134.3946 1110.0095,-123.4517"/>
<polygon fill="#191970" stroke="#191970" points="1111.2124,-120.1605 1100.6381,-119.5015 1108.4934,-126.6109 1111.2124,-120.1605"/>
</g>
<!-- Node42&#45;&gt;Node26 -->
<g id="edge30" class="edge">
<title>Node42&#45;&gt;Node26</title>
<path fill="none" stroke="#191970" d="M1166.7471,-158.4661C1162.1072,-157.5731 1157.4818,-156.7369 1153,-156 1010.4694,-132.5643 972.689,-142.4509 830,-120 816.2184,-117.8316 801.483,-115.0856 787.5924,-112.3004"/>
<polygon fill="#191970" stroke="#191970" points="788.1506,-108.8423 777.6528,-110.2731 786.7516,-115.7011 788.1506,-108.8423"/>
</g>
<!-- Node42&#45;&gt;Node46 -->
<g id="edge34" class="edge">
<title>Node42&#45;&gt;Node46</title>
<path fill="none" stroke="#191970" d="M1281.2421,-158.3991C1285.8844,-157.5212 1290.5133,-156.7067 1295,-156 1457.3349,-130.4306 1500.9913,-147.561 1663,-120 1669.2642,-118.9343 1675.7482,-117.6651 1682.2175,-116.286"/>
<polygon fill="#191970" stroke="#191970" points="1683.3328,-119.6238 1692.3378,-114.0416 1681.8172,-112.7898 1683.3328,-119.6238"/>
</g>
<!-- Node47 -->
<g id="node25" class="node">
<title>Node47</title>
<polygon fill="#ffffff" stroke="#bfbfbf" points="2202,-84 2202,-114 2324,-114 2324,-84 2202,-84"/>
<text text-anchor="start" x="2210" y="-102" font-family="Helvetica,sans-Serif" font-size="10.00" fill="#000000">tensorflow/core/platform</text>
<text text-anchor="middle" x="2263" y="-91" font-family="Helvetica,sans-Serif" font-size="10.00" fill="#000000">/thread_annotations.h</text>
</g>
<!-- Node42&#45;&gt;Node47 -->
<g id="edge35" class="edge">
<title>Node42&#45;&gt;Node47</title>
<path fill="none" stroke="#191970" d="M1281.2358,-170.2473C1461.5042,-166.0203 2016.0315,-150.7929 2193,-120 2198.1035,-119.112 2203.3597,-117.9731 2208.5899,-116.6859"/>
<polygon fill="#191970" stroke="#191970" points="2209.792,-119.9886 2218.5692,-114.0547 2208.0073,-113.2199 2209.792,-119.9886"/>
</g>
<!-- Node49&#45;&gt;Node5 -->
<g id="edge48" class="edge">
<title>Node49&#45;&gt;Node5</title>
<path fill="none" stroke="#191970" d="M1323.1862,-387.614C1224.2623,-374.2084 1006.2144,-344.6599 899.8066,-330.2401"/>
<polygon fill="#191970" stroke="#191970" points="900.2447,-326.7676 889.8653,-328.893 899.3047,-333.7042 900.2447,-326.7676"/>
</g>
<!-- Node49&#45;&gt;Node48 -->
<g id="edge51" class="edge">
<title>Node49&#45;&gt;Node48</title>
<path fill="none" stroke="#191970" d="M1323.4299,-393.3001C1220.2678,-390.1565 978.4407,-379.225 779,-343 773.5953,-342.0183 768.0172,-340.8194 762.4569,-339.4968"/>
<polygon fill="#191970" stroke="#191970" points="763.0597,-336.0397 752.5088,-337.003 761.3576,-342.8296 763.0597,-336.0397"/>
</g>
<!-- Node50 -->
<g id="node31" class="node">
<title>Node50</title>
<polygon fill="#ffffff" stroke="#bfbfbf" points="1323.5,-229 1323.5,-259 1424.5,-259 1424.5,-229 1323.5,-229"/>
<text text-anchor="start" x="1331.5" y="-247" font-family="Helvetica,sans-Serif" font-size="10.00" fill="#000000">tensorflow/compiler</text>
<text text-anchor="middle" x="1374" y="-236" font-family="Helvetica,sans-Serif" font-size="10.00" fill="#000000">/xla/client/client.h</text>
</g>
<!-- Node49&#45;&gt;Node50 -->
<g id="edge49" class="edge">
<title>Node49&#45;&gt;Node50</title>
<path fill="none" stroke="#191970" d="M1374,-379.241C1374,-353.4378 1374,-300.9292 1374,-269.4705"/>
<polygon fill="#191970" stroke="#191970" points="1377.5001,-269.2993 1374,-259.2994 1370.5001,-269.2994 1377.5001,-269.2993"/>
</g>
<!-- Node51 -->
<g id="node32" class="node">
<title>Node51</title>
<polygon fill="#ffffff" stroke="#bfbfbf" points="1442.5,-229 1442.5,-259 1565.5,-259 1565.5,-229 1442.5,-229"/>
<text text-anchor="start" x="1450.5" y="-247" font-family="Helvetica,sans-Serif" font-size="10.00" fill="#000000">tensorflow/compiler</text>
<text text-anchor="middle" x="1504" y="-236" font-family="Helvetica,sans-Serif" font-size="10.00" fill="#000000">/xla/client/computation.h</text>
</g>
<!-- Node49&#45;&gt;Node51 -->
<g id="edge50" class="edge">
<title>Node49&#45;&gt;Node51</title>
<path fill="none" stroke="#191970" d="M1387.1805,-379.241C1410.053,-352.7617 1457.2179,-298.1593 1484.0966,-267.042"/>
<polygon fill="#191970" stroke="#191970" points="1486.8964,-269.155 1490.7846,-259.2994 1481.599,-264.5791 1486.8964,-269.155"/>
</g>
<!-- Node52&#45;&gt;Node5 -->
<g id="edge54" class="edge">
<title>Node52&#45;&gt;Node5</title>
<path fill="none" stroke="#191970" d="M435.6705,-391.2396C511.2682,-385.6223 657.689,-371.8299 779,-343 782.5936,-342.146 786.2731,-341.1563 789.9546,-340.0811"/>
<polygon fill="#191970" stroke="#191970" points="791.1359,-343.3792 799.6469,-337.0694 789.0587,-336.6945 791.1359,-343.3792"/>
</g>
<!-- Node52&#45;&gt;Node12 -->
<g id="edge53" class="edge">
<title>Node52&#45;&gt;Node12</title>
<path fill="none" stroke="#191970" d="M334.386,-390.145C246.8522,-382.0975 74.7958,-363.808 57,-343 44.8675,-328.8139 46.6261,-316.5186 57,-301 133.1394,-187.1004 555.5145,-70.3534 700.2925,-33.1509"/>
<polygon fill="#191970" stroke="#191970" points="701.4066,-36.4787 710.2282,-30.611 699.6729,-29.6968 701.4066,-36.4787"/>
</g>
<!-- Node52&#45;&gt;Node48 -->
<g id="edge55" class="edge">
<title>Node52&#45;&gt;Node48</title>
<path fill="none" stroke="#191970" d="M435.9337,-384.6418C485.2422,-374.8778 562.013,-359.0933 628,-343 632.3056,-341.9499 636.7376,-340.8296 641.1953,-339.6736"/>
<polygon fill="#191970" stroke="#191970" points="642.1792,-343.0338 650.9558,-337.0992 640.3939,-336.2653 642.1792,-343.0338"/>
</g>
<!-- Node53 -->
<g id="node34" class="node">
<title>Node53</title>
<polygon fill="#ffffff" stroke="#bfbfbf" points="308,-312.5 308,-331.5 462,-331.5 462,-312.5 308,-312.5"/>
<text text-anchor="middle" x="385" y="-319.5" font-family="Helvetica,sans-Serif" font-size="10.00" fill="#000000">tensorflow/core/framework/op.h</text>
</g>
<!-- Node52&#45;&gt;Node53 -->
<g id="edge56" class="edge">
<title>Node52&#45;&gt;Node53</title>
<path fill="none" stroke="#191970" d="M385,-379.478C385,-368.6657 385,-353.9631 385,-342.1348"/>
<polygon fill="#191970" stroke="#191970" points="388.5001,-341.8956 385,-331.8957 381.5001,-341.8957 388.5001,-341.8956"/>
</g>
<!-- Node54 -->
<g id="node35" class="node">
<title>Node54</title>
<polygon fill="#ffffff" stroke="#bfbfbf" points="66,-307 66,-337 176,-337 176,-307 66,-307"/>
<text text-anchor="start" x="74" y="-325" font-family="Helvetica,sans-Serif" font-size="10.00" fill="#000000">tensorflow/core/graph</text>
<text text-anchor="middle" x="121" y="-314" font-family="Helvetica,sans-Serif" font-size="10.00" fill="#000000">/graph.h</text>
</g>
<!-- Node52&#45;&gt;Node54 -->
<g id="edge57" class="edge">
<title>Node52&#45;&gt;Node54</title>
<path fill="none" stroke="#191970" d="M334.2002,-382.3869C293.6263,-372.4798 235.4153,-357.7453 185,-343 181.8573,-342.0808 178.6365,-341.1115 175.3922,-340.114"/>
<polygon fill="#191970" stroke="#191970" points="176.2327,-336.7096 165.6436,-337.059 174.1393,-343.3893 176.2327,-336.7096"/>
</g>
<!-- Node29 -->
<g id="node36" class="node">
<title>Node29</title>
<polygon fill="#ffffff" stroke="#bfbfbf" points="194,-307 194,-337 290,-337 290,-307 194,-307"/>
<text text-anchor="start" x="202" y="-325" font-family="Helvetica,sans-Serif" font-size="10.00" fill="#000000">tensorflow/core/lib</text>
<text text-anchor="middle" x="242" y="-314" font-family="Helvetica,sans-Serif" font-size="10.00" fill="#000000">/core/status.h</text>
</g>
<!-- Node52&#45;&gt;Node29 -->
<g id="edge58" class="edge">
<title>Node52&#45;&gt;Node29</title>
<path fill="none" stroke="#191970" d="M355.3703,-379.478C333.704,-368.4933 304.1179,-353.4933 280.6026,-341.5712"/>
<polygon fill="#191970" stroke="#191970" points="282.0936,-338.4031 271.5917,-337.0028 278.9282,-344.6465 282.0936,-338.4031"/>
</g>
<!-- Node55&#45;&gt;Node2 -->
<g id="edge61" class="edge">
<title>Node55&#45;&gt;Node2</title>
<path fill="none" stroke="#191970" d="M2086.8522,-387.4006C2058.5591,-384.3964 2024.6222,-381.1105 1994,-379 1783.6804,-364.5045 1251.5849,-389.6829 1046,-343 1000.1874,-332.5972 992.8574,-317.8386 949,-301 902.1588,-283.0158 887.6255,-285.8768 842,-265 780.0351,-236.6468 766.843,-224.5823 710,-187 668.1048,-159.3006 650.9577,-158.745 619,-120 599,-95.7523 585.2401,-61.5719 577.9954,-40.3763"/>
<polygon fill="#191970" stroke="#191970" points="581.2335,-39.0169 574.8023,-30.5973 574.5793,-41.1898 581.2335,-39.0169"/>
</g>
<!-- Node55&#45;&gt;Node3 -->
<g id="edge62" class="edge">
<title>Node55&#45;&gt;Node3</title>
<path fill="none" stroke="#191970" d="M2086.8577,-390.0688C2022.5089,-384.158 1919.713,-370.9864 1835,-343 1724.3969,-306.4603 1714.0025,-254.9945 1602,-223 1411.6338,-168.6202 1353.3156,-219.3767 1158,-187 1098.0758,-177.0666 936.9399,-161.9388 893,-120 871.2169,-99.2089 865.0987,-63.1835 863.4701,-40.7987"/>
<polygon fill="#191970" stroke="#191970" points="866.9634,-40.5759 862.9751,-30.7604 859.9719,-40.9206 866.9634,-40.5759"/>
</g>
<!-- Node55&#45;&gt;Node13 -->
<g id="edge63" class="edge">
<title>Node55&#45;&gt;Node13</title>
<path fill="none" stroke="#191970" d="M2211.0503,-392.4663C2346.8786,-387.4805 2661.4502,-372.8227 2699,-343 2794.3037,-267.3082 2845.3461,-171.9661 2768,-78 2735.5467,-38.5731 2578.6342,-26.0228 2509.651,-22.3707"/>
<polygon fill="#191970" stroke="#191970" points="2509.5289,-18.8604 2499.3671,-21.8582 2509.1804,-25.8517 2509.5289,-18.8604"/>
</g>
<!-- Node55&#45;&gt;Node27 -->
<g id="edge99" class="edge">
<title>Node55&#45;&gt;Node27</title>
<path fill="none" stroke="#191970" d="M2211.2866,-392.152C2342.7194,-386.6649 2639.3085,-371.2747 2675,-343 2695.5188,-326.745 2746.7202,-145.825 2751,-120 2754.0519,-101.5845 2763.9063,-91.486 2751,-78 2719.5106,-45.0961 1976.9733,-49.1871 1932,-42 1926.269,-41.0841 1920.3514,-39.8851 1914.4709,-38.5235"/>
<polygon fill="#191970" stroke="#191970" points="1915.1963,-35.0976 1904.649,-36.0999 1913.5193,-41.8937 1915.1963,-35.0976"/>
</g>
<!-- Node55&#45;&gt;Node39 -->
<g id="edge101" class="edge">
<title>Node55&#45;&gt;Node39</title>
<path fill="none" stroke="#191970" d="M2211.1893,-389.1603C2263.9825,-382.9465 2340.8427,-369.8706 2403,-343 2486.9661,-306.7014 2781.4063,-143.9359 2718,-78 2682.5455,-41.131 1848.6547,-49.1025 1798,-42 1791.1485,-41.0393 1784.0473,-39.7672 1776.9963,-38.3228"/>
<polygon fill="#191970" stroke="#191970" points="1777.2507,-34.7968 1766.7363,-36.0996 1775.7683,-41.638 1777.2507,-34.7968"/>
</g>
<!-- Node55&#45;&gt;Node43 -->
<g id="edge60" class="edge">
<title>Node55&#45;&gt;Node43</title>
<path fill="none" stroke="#191970" d="M2086.7584,-383.5374C2059.7323,-376.0424 2029.4279,-363.579 2008,-343 1943.1733,-280.7416 1982.7094,-229.517 1931,-156 1919.7233,-139.9676 1903.1776,-125.2204 1889.872,-114.7444"/>
<polygon fill="#191970" stroke="#191970" points="1891.7597,-111.7825 1881.6841,-108.5063 1887.5175,-117.3506 1891.7597,-111.7825"/>
</g>
<!-- Node55&#45;&gt;Node26 -->
<g id="edge98" class="edge">
<title>Node55&#45;&gt;Node26</title>
<path fill="none" stroke="#191970" d="M2086.8504,-387.4262C2058.557,-384.4271 2024.6203,-381.1381 1994,-379 1893.6094,-371.9901 1181.4266,-382.8089 1089,-343 1064.4643,-332.4323 1069.269,-314.1237 1046,-301 990.4151,-269.6501 963.0286,-295.5498 907,-265 838.2401,-227.5085 775.225,-158.0077 745.2967,-121.9853"/>
<polygon fill="#191970" stroke="#191970" points="747.7976,-119.5153 738.7508,-114.001 742.3842,-123.9533 747.7976,-119.5153"/>
</g>
<!-- Node55&#45;&gt;Node46 -->
<g id="edge102" class="edge">
<title>Node55&#45;&gt;Node46</title>
<path fill="none" stroke="#191970" d="M2086.6898,-380.3998C1993.459,-358.025 1824.3721,-312.0799 1785,-265 1751.2255,-224.6135 1747.0503,-159.8231 1747.6162,-124.3087"/>
<polygon fill="#191970" stroke="#191970" points="1751.1153,-124.3866 1747.9165,-114.2863 1744.1185,-124.1769 1751.1153,-124.3866"/>
</g>
<!-- Node55&#45;&gt;Node47 -->
<g id="edge103" class="edge">
<title>Node55&#45;&gt;Node47</title>
<path fill="none" stroke="#191970" d="M2211.245,-383.2687C2253.2244,-374.2817 2303.2075,-360.3319 2316,-343 2366.0775,-275.1523 2309.4447,-169.5251 2279.3611,-122.712"/>
<polygon fill="#191970" stroke="#191970" points="2282.1571,-120.5938 2273.7378,-114.1622 2276.3087,-124.4404 2282.1571,-120.5938"/>
</g>
<!-- Node55&#45;&gt;Node33 -->
<g id="edge100" class="edge">
<title>Node55&#45;&gt;Node33</title>
<path fill="none" stroke="#191970" d="M2211.09,-384.4462C2259.0405,-375.465 2320.1353,-360.9665 2338,-343 2398.0601,-282.5977 2404.3942,-173.3217 2403.9589,-124.1593"/>
<polygon fill="#191970" stroke="#191970" points="2407.4568,-124.0141 2403.7643,-114.0836 2400.4581,-124.1493 2407.4568,-124.0141"/>
</g>
<!-- Node55&#45;&gt;Node56 -->
<g id="edge64" class="edge">
<title>Node55&#45;&gt;Node56</title>
<path fill="none" stroke="#191970" d="M2086.625,-388.0348C1962.9353,-375.1672 1696.7494,-347.2215 1677,-343 1675.5504,-342.6901 1674.0873,-342.3605 1672.6156,-342.0137"/>
<polygon fill="#191970" stroke="#191970" points="1673.3838,-338.5975 1662.8278,-339.5044 1671.6454,-345.3782 1673.3838,-338.5975"/>
</g>
<!-- Node57 -->
<g id="node39" class="node">
<title>Node57</title>
<g id="a_node39"><a xlink:href="../../d2/d89/compile__only__service_8h.html" target="_top" xlink:title="tensorflow/compiler\l/xla/service/compile\l_only_service.h">
<polygon fill="#ffffff" stroke="#000000" points="1794,-223.5 1794,-264.5 1898,-264.5 1898,-223.5 1794,-223.5"/>
<text text-anchor="start" x="1802" y="-252.5" font-family="Helvetica,sans-Serif" font-size="10.00" fill="#000000">tensorflow/compiler</text>
<text text-anchor="start" x="1802" y="-241.5" font-family="Helvetica,sans-Serif" font-size="10.00" fill="#000000">/xla/service/compile</text>
<text text-anchor="middle" x="1846" y="-230.5" font-family="Helvetica,sans-Serif" font-size="10.00" fill="#000000">_only_service.h</text>
</a>
</g>
</g>
<!-- Node55&#45;&gt;Node57 -->
<g id="edge95" class="edge">
<title>Node55&#45;&gt;Node57</title>
<path fill="none" stroke="#191970" d="M2211.0162,-380.7351C2247.0347,-371.3454 2287.36,-357.9352 2298,-343 2308.8309,-327.7968 2310.346,-315.0007 2298,-301 2285.2447,-286.5351 2029.4963,-261.0197 1908.4682,-249.6924"/>
<polygon fill="#191970" stroke="#191970" points="1908.5202,-246.1822 1898.2385,-248.7388 1907.8704,-253.1519 1908.5202,-246.1822"/>
</g>
<!-- Node70 -->
<g id="node42" class="node">
<title>Node70</title>
<polygon fill="#ffffff" stroke="#bfbfbf" points="2482.5,-78.5 2482.5,-119.5 2589.5,-119.5 2589.5,-78.5 2482.5,-78.5"/>
<text text-anchor="start" x="2490.5" y="-107.5" font-family="Helvetica,sans-Serif" font-size="10.00" fill="#000000">tensorflow/compiler</text>
<text text-anchor="start" x="2490.5" y="-96.5" font-family="Helvetica,sans-Serif" font-size="10.00" fill="#000000">/xla/service/device</text>
<text text-anchor="middle" x="2536" y="-85.5" font-family="Helvetica,sans-Serif" font-size="10.00" fill="#000000">_memory_allocator.h</text>
</g>
<!-- Node55&#45;&gt;Node70 -->
<g id="edge96" class="edge">
<title>Node55&#45;&gt;Node70</title>
<path fill="none" stroke="#191970" d="M2211.0375,-384.8439C2265.9145,-375.4008 2341.0334,-359.9944 2366,-343 2446.7924,-288.0058 2501.0548,-180.9261 2523.8461,-128.8606"/>
<polygon fill="#191970" stroke="#191970" points="2527.1323,-130.078 2527.8592,-119.5081 2520.6995,-127.3176 2527.1323,-130.078"/>
</g>
<!-- Node74 -->
<g id="node43" class="node">
<title>Node74</title>
<polygon fill="#ffffff" stroke="#bfbfbf" points="2016.5,-307 2016.5,-337 2135.5,-337 2135.5,-307 2016.5,-307"/>
<text text-anchor="start" x="2024.5" y="-325" font-family="Helvetica,sans-Serif" font-size="10.00" fill="#000000">tensorflow/compiler</text>
<text text-anchor="middle" x="2076" y="-314" font-family="Helvetica,sans-Serif" font-size="10.00" fill="#000000">/xla/client/local_client.h</text>
</g>
<!-- Node55&#45;&gt;Node74 -->
<g id="edge94" class="edge">
<title>Node55&#45;&gt;Node74</title>
<path fill="none" stroke="#191970" d="M2133.8744,-379.478C2123.597,-369.271 2109.8288,-355.5971 2098.2999,-344.1471"/>
<polygon fill="#191970" stroke="#191970" points="2100.668,-341.5662 2091.1063,-337.0028 2095.7353,-346.5329 2100.668,-341.5662"/>
</g>
<!-- Node75 -->
<g id="node44" class="node">
<title>Node75</title>
<polygon fill="#ffffff" stroke="#bfbfbf" points="2153.5,-307 2153.5,-337 2288.5,-337 2288.5,-307 2153.5,-307"/>
<text text-anchor="start" x="2161.5" y="-325" font-family="Helvetica,sans-Serif" font-size="10.00" fill="#000000">tensorflow/compiler</text>
<text text-anchor="middle" x="2221" y="-314" font-family="Helvetica,sans-Serif" font-size="10.00" fill="#000000">/xla/service/local_service.h</text>
</g>
<!-- Node55&#45;&gt;Node75 -->
<g id="edge97" class="edge">
<title>Node55&#45;&gt;Node75</title>
<path fill="none" stroke="#191970" d="M2163.9184,-379.478C2174.055,-369.271 2187.6346,-355.5971 2199.0056,-344.1471"/>
<polygon fill="#191970" stroke="#191970" points="2201.5375,-346.5646 2206.1007,-337.0028 2196.5706,-341.632 2201.5375,-346.5646"/>
</g>
<!-- Node56&#45;&gt;Node42 -->
<g id="edge90" class="edge">
<title>Node56&#45;&gt;Node42</title>
<path fill="none" stroke="#191970" d="M1618.0892,-301.3181C1623.2516,-279.0421 1627.1155,-243.9801 1608,-223 1587.0381,-199.9935 1395.6618,-183.334 1291.2458,-175.8698"/>
<polygon fill="#191970" stroke="#191970" points="1291.3352,-172.3675 1281.1136,-175.1548 1290.8424,-179.3501 1291.3352,-172.3675"/>
</g>
<!-- Node56&#45;&gt;Node26 -->
<g id="edge91" class="edge">
<title>Node56&#45;&gt;Node26</title>
<path fill="none" stroke="#191970" d="M1610.665,-301.4595C1607.9536,-278.2644 1599.7549,-241.369 1575,-223 1524.4834,-185.5151 1071.8786,-198.3178 1010,-187 925.2506,-171.4991 830.2923,-138.627 774.7385,-117.7401"/>
<polygon fill="#191970" stroke="#191970" points="775.7602,-114.3844 765.1688,-114.1138 773.2797,-120.9302 775.7602,-114.3844"/>
</g>
<!-- Node56&#45;&gt;Node46 -->
<g id="edge93" class="edge">
<title>Node56&#45;&gt;Node46</title>
<path fill="none" stroke="#191970" d="M1624.6431,-301.4204C1650.1221,-259.9472 1707.5032,-166.5459 1734.4736,-122.6451"/>
<polygon fill="#191970" stroke="#191970" points="1737.4924,-124.4177 1739.7448,-114.065 1731.528,-120.7535 1737.4924,-124.4177"/>
</g>
<!-- Node56&#45;&gt;Node28 -->
<g id="edge92" class="edge">
<title>Node56&#45;&gt;Node28</title>
<path fill="none" stroke="#191970" d="M1662.7779,-318.5583C1821.3991,-307.7301 2299.0063,-274.5144 2331,-265 2428.0331,-236.144 2440.3095,-200.9815 2531,-156 2557.9501,-142.6331 2588.718,-128.7888 2613.2194,-118.0918"/>
<polygon fill="#191970" stroke="#191970" points="2614.8447,-121.2017 2622.6217,-114.0067 2612.0552,-114.7815 2614.8447,-121.2017"/>
</g>
<!-- Node56&#45;&gt;Node50 -->
<g id="edge65" class="edge">
<title>Node56&#45;&gt;Node50</title>
<path fill="none" stroke="#191970" d="M1561.2436,-306.1437C1525.5687,-294.9019 1476.7669,-279.3289 1434,-265 1431.4395,-264.1421 1428.8203,-263.2564 1426.177,-262.3559"/>
<polygon fill="#191970" stroke="#191970" points="1427.1569,-258.9919 1416.5623,-259.0546 1424.8836,-265.6125 1427.1569,-258.9919"/>
</g>
<!-- Node56&#45;&gt;Node51 -->
<g id="edge66" class="edge">
<title>Node56&#45;&gt;Node51</title>
<path fill="none" stroke="#191970" d="M1583.3415,-301.3022C1567.8398,-290.1065 1548.7347,-276.3084 1533.1568,-265.0577"/>
<polygon fill="#191970" stroke="#191970" points="1535.0665,-262.1196 1524.9105,-259.102 1530.9681,-267.7944 1535.0665,-262.1196"/>
</g>
<!-- Node56&#45;&gt;Node57 -->
<g id="edge67" class="edge">
<title>Node56&#45;&gt;Node57</title>
<path fill="none" stroke="#191970" d="M1662.7745,-305.0752C1698.3109,-293.2297 1746.0008,-277.3331 1783.8183,-264.7272"/>
<polygon fill="#191970" stroke="#191970" points="1785.3243,-267.9146 1793.7043,-261.4319 1783.1107,-261.2738 1785.3243,-267.9146"/>
</g>
<!-- Node57&#45;&gt;Node42 -->
<g id="edge69" class="edge">
<title>Node57&#45;&gt;Node42</title>
<path fill="none" stroke="#191970" d="M1793.8642,-237.0073C1762.123,-232.8084 1720.7432,-227.438 1684,-223 1544.3803,-206.1362 1380.6814,-188.2616 1291.0734,-178.6392"/>
<polygon fill="#191970" stroke="#191970" points="1291.3651,-175.1505 1281.0488,-177.564 1290.6185,-182.1106 1291.3651,-175.1505"/>
</g>
<!-- Node57&#45;&gt;Node26 -->
<g id="edge87" class="edge">
<title>Node57&#45;&gt;Node26</title>
<path fill="none" stroke="#191970" d="M1793.5439,-239.2475C1745.3268,-234.9085 1671.861,-228.3717 1608,-223 1408.0671,-206.1824 1356.9954,-212.6287 1158,-187 1115.9118,-181.5794 822.8924,-131.341 782,-120 779.0899,-119.1929 776.1188,-118.2924 773.1397,-117.3307"/>
<polygon fill="#191970" stroke="#191970" points="774.2566,-114.0137 763.662,-114.0909 771.9923,-120.6374 774.2566,-114.0137"/>
</g>
<!-- Node57&#45;&gt;Node46 -->
<g id="edge89" class="edge">
<title>Node57&#45;&gt;Node46</title>
<path fill="none" stroke="#191970" d="M1829.5811,-223.238C1821.3507,-212.5834 1811.3787,-199.2908 1803,-187 1788.5555,-165.8113 1773.3911,-140.8223 1762.8224,-122.8978"/>
<polygon fill="#191970" stroke="#191970" points="1765.8171,-121.0855 1757.7427,-114.2259 1759.7771,-124.6236 1765.8171,-121.0855"/>
</g>
<!-- Node57&#45;&gt;Node28 -->
<g id="edge88" class="edge">
<title>Node57&#45;&gt;Node28</title>
<path fill="none" stroke="#191970" d="M1898.2457,-238.6538C2021.6332,-225.325 2340.1829,-186.7986 2599,-120 2602.3113,-119.1454 2605.6995,-118.1838 2609.0958,-117.1544"/>
<polygon fill="#191970" stroke="#191970" points="2610.1719,-120.4849 2618.6314,-114.1062 2608.0405,-113.8173 2610.1719,-120.4849"/>
</g>
<!-- Node58 -->
<g id="node40" class="node">
<title>Node58</title>
<polygon fill="#ffffff" stroke="#bfbfbf" points="2068.5,-84 2068.5,-114 2183.5,-114 2183.5,-84 2068.5,-84"/>
<text text-anchor="start" x="2076.5" y="-102" font-family="Helvetica,sans-Serif" font-size="10.00" fill="#000000">tensorflow/compiler</text>
<text text-anchor="middle" x="2126" y="-91" font-family="Helvetica,sans-Serif" font-size="10.00" fill="#000000">/xla/service/backend.h</text>
</g>
<!-- Node57&#45;&gt;Node58 -->
<g id="edge68" class="edge">
<title>Node57&#45;&gt;Node58</title>
<path fill="none" stroke="#191970" d="M1885.8198,-223.379C1939.6586,-195.4982 2035.0063,-146.1217 2087.9287,-118.7155"/>
<polygon fill="#191970" stroke="#191970" points="2089.7139,-121.7326 2096.9843,-114.026 2086.4948,-115.5166 2089.7139,-121.7326"/>
</g>
<!-- Node59 -->
<g id="node41" class="node">
<title>Node59</title>
<g id="a_node41"><a xlink:href="../../d5/d83/service_8h.html" target="_top" xlink:title="tensorflow/compiler\l/xla/service/service.h">
<polygon fill="#ffffff" stroke="#ff0000" points="1812,-156.5 1812,-186.5 1922,-186.5 1922,-156.5 1812,-156.5"/>
<text text-anchor="start" x="1820" y="-174.5" font-family="Helvetica,sans-Serif" font-size="10.00" fill="#000000">tensorflow/compiler</text>
<text text-anchor="middle" x="1867" y="-163.5" font-family="Helvetica,sans-Serif" font-size="10.00" fill="#000000">/xla/service/service.h</text>
</a>
</g>
</g>
<!-- Node57&#45;&gt;Node59 -->
<g id="edge70" class="edge">
<title>Node57&#45;&gt;Node59</title>
<path fill="none" stroke="#191970" d="M1851.9616,-223.4183C1854.4019,-214.9933 1857.2473,-205.17 1859.8023,-196.3494"/>
<polygon fill="#191970" stroke="#191970" points="1863.206,-197.1781 1862.6265,-186.5991 1856.4824,-195.2305 1863.206,-197.1781"/>
</g>
<!-- Node59&#45;&gt;Node2 -->
<g id="edge72" class="edge">
<title>Node59&#45;&gt;Node2</title>
<path fill="none" stroke="#191970" d="M1811.587,-168.687C1682.3693,-161.7767 1368.8409,-142.8553 1327,-120 1306.1663,-108.6197 1315.0283,-89.0166 1294,-78 1176.4667,-16.4252 829.8435,-56.9272 698,-42 667.7281,-38.5726 633.6621,-32.7765 608.591,-28.1407"/>
<polygon fill="#191970" stroke="#191970" points="608.9083,-24.6393 598.4343,-26.2353 607.6175,-31.5192 608.9083,-24.6393"/>
</g>
<!-- Node59&#45;&gt;Node3 -->
<g id="edge73" class="edge">
<title>Node59&#45;&gt;Node3</title>
<path fill="none" stroke="#191970" d="M1811.9981,-170.7761C1698.4087,-168.4929 1442.0836,-159.039 1365,-120 1342.5428,-108.6266 1349.3423,-89.5974 1327,-78 1250.9437,-38.5207 984.6517,-25.3886 893.7116,-21.9998"/>
<polygon fill="#191970" stroke="#191970" points="893.6344,-18.4949 883.5152,-21.6337 893.3831,-25.4904 893.6344,-18.4949"/>
</g>
<!-- Node59&#45;&gt;Node7 -->
<g id="edge77" class="edge">
<title>Node59&#45;&gt;Node7</title>
<path fill="none" stroke="#191970" d="M1811.7376,-169.7141C1709.6948,-165.7042 1485.1204,-153.5486 1299,-120 1293.5454,-119.0168 1287.9155,-117.8281 1282.2982,-116.5223"/>
<polygon fill="#191970" stroke="#191970" points="1282.7864,-113.0386 1272.2413,-114.0641 1281.1243,-119.8384 1282.7864,-113.0386"/>
</g>
<!-- Node59&#45;&gt;Node8 -->
<g id="edge78" class="edge">
<title>Node59&#45;&gt;Node8</title>
<path fill="none" stroke="#191970" d="M1811.6956,-161.1125C1744.2631,-148.4471 1630.0369,-126.9927 1555.0609,-112.9104"/>
<polygon fill="#191970" stroke="#191970" points="1555.6815,-109.4658 1545.2072,-111.0597 1554.3893,-116.3455 1555.6815,-109.4658"/>
</g>
<!-- Node59&#45;&gt;Node13 -->
<g id="edge74" class="edge">
<title>Node59&#45;&gt;Node13</title>
<path fill="none" stroke="#191970" d="M1902.8862,-156.4647C1925.9831,-146.5683 1956.5245,-133.0706 1983,-120 2017.9545,-102.7434 2022.9674,-90.1735 2060,-78 2131.8098,-54.3943 2359.9288,-31.7129 2444.7908,-23.8809"/>
<polygon fill="#191970" stroke="#191970" points="2445.2303,-27.3554 2454.8698,-22.9586 2444.5924,-20.3845 2445.2303,-27.3554"/>
</g>
<!-- Node59&#45;&gt;Node35 -->
<g id="edge79" class="edge">
<title>Node59&#45;&gt;Node35</title>
<path fill="none" stroke="#191970" d="M1882.5836,-156.3313C1901.1694,-136.4193 1927.3242,-101.2719 1907,-78 1869.7399,-35.3359 1715.5115,-52.8267 1642.7975,-41.6697"/>
<polygon fill="#191970" stroke="#191970" points="1643.1531,-38.1764 1632.6843,-39.8052 1641.8839,-45.0604 1643.1531,-38.1764"/>
</g>
<!-- Node59&#45;&gt;Node27 -->
<g id="edge81" class="edge">
<title>Node59&#45;&gt;Node27</title>
<path fill="none" stroke="#191970" d="M1901.1893,-156.4711C1915.9558,-148.045 1931.7206,-135.9734 1940,-120 1948.5901,-103.4273 1948.6945,-94.5182 1940,-78 1931.8415,-62.5 1917.3535,-50.4011 1902.7408,-41.4155"/>
<polygon fill="#191970" stroke="#191970" points="1904.0978,-38.1591 1893.6818,-36.2205 1900.6155,-44.2314 1904.0978,-38.1591"/>
</g>
<!-- Node59&#45;&gt;Node30 -->
<g id="edge83" class="edge">
<title>Node59&#45;&gt;Node30</title>
<path fill="none" stroke="#191970" d="M1811.6405,-169.764C1705.6383,-165.7144 1478.2841,-153.3191 1408,-120 1383.8604,-108.5563 1386.5921,-93.7308 1365,-78 1345.0877,-63.493 1321,-50.4116 1300.6302,-40.4506"/>
<polygon fill="#191970" stroke="#191970" points="1302.0912,-37.2696 1291.5611,-36.0996 1299.0632,-43.5809 1302.0912,-37.2696"/>
</g>
<!-- Node59&#45;&gt;Node38 -->
<g id="edge84" class="edge">
<title>Node59&#45;&gt;Node38</title>
<path fill="none" stroke="#191970" d="M1904.7917,-156.4285C1922.4552,-147.8724 1942.6945,-135.7037 1957,-120 1976.4488,-98.6504 1988.722,-67.4673 1995.4509,-45.8253"/>
<polygon fill="#191970" stroke="#191970" points="1998.8613,-46.6332 1998.3159,-36.0524 1992.144,-44.6639 1998.8613,-46.6332"/>
</g>
<!-- Node59&#45;&gt;Node43 -->
<g id="edge71" class="edge">
<title>Node59&#45;&gt;Node43</title>
<path fill="none" stroke="#191970" d="M1867.2072,-156.478C1867.3563,-145.6657 1867.5591,-130.9631 1867.7223,-119.1348"/>
<polygon fill="#191970" stroke="#191970" points="1871.2252,-118.943 1867.8635,-108.8957 1864.2258,-118.8464 1871.2252,-118.943"/>
</g>
<!-- Node59&#45;&gt;Node26 -->
<g id="edge80" class="edge">
<title>Node59&#45;&gt;Node26</title>
<path fill="none" stroke="#191970" d="M1811.8299,-169.2597C1668.1231,-163.2452 1270.4589,-145.4579 940,-120 888.6601,-116.0449 830.4898,-110.2184 787.9271,-105.7054"/>
<polygon fill="#191970" stroke="#191970" points="788.0446,-102.1981 777.7297,-104.6176 787.302,-109.1586 788.0446,-102.1981"/>
</g>
<!-- Node59&#45;&gt;Node46 -->
<g id="edge86" class="edge">
<title>Node59&#45;&gt;Node46</title>
<path fill="none" stroke="#191970" d="M1842.5503,-156.478C1825.0674,-145.7363 1801.3352,-131.1551 1782.149,-119.367"/>
<polygon fill="#191970" stroke="#191970" points="1783.7709,-116.2557 1773.4184,-114.0028 1780.1064,-122.2199 1783.7709,-116.2557"/>
</g>
<!-- Node59&#45;&gt;Node33 -->
<g id="edge85" class="edge">
<title>Node59&#45;&gt;Node33</title>
<path fill="none" stroke="#191970" d="M1922.0228,-168.6577C2009.7116,-163.4047 2186.2407,-149.8661 2333,-120 2337.6507,-119.0536 2342.4369,-117.9353 2347.2196,-116.7157"/>
<polygon fill="#191970" stroke="#191970" points="2348.2374,-120.0665 2356.9874,-114.0926 2346.4218,-113.306 2348.2374,-120.0665"/>
</g>
<!-- Node59&#45;&gt;Node28 -->
<g id="edge82" class="edge">
<title>Node59&#45;&gt;Node28</title>
<path fill="none" stroke="#191970" d="M1922.1999,-169.5576C2069.5465,-164.063 2469.7002,-147.0318 2599,-120 2602.8995,-119.1848 2606.8913,-118.1727 2610.8693,-117.0369"/>
<polygon fill="#191970" stroke="#191970" points="2612.1524,-120.3035 2620.6681,-114.0001 2610.0802,-113.6172 2612.1524,-120.3035"/>
</g>
<!-- Node59&#45;&gt;Node58 -->
<g id="edge75" class="edge">
<title>Node59&#45;&gt;Node58</title>
<path fill="none" stroke="#191970" d="M1922.2924,-156.507C1959.5495,-146.3468 2009.778,-132.5377 2054,-120 2057.5937,-118.9811 2061.2861,-117.9269 2065.01,-116.858"/>
<polygon fill="#191970" stroke="#191970" points="2066.2554,-120.1416 2074.8947,-114.0087 2064.3165,-113.4155 2066.2554,-120.1416"/>
</g>
<!-- Node59&#45;&gt;Node70 -->
<g id="edge76" class="edge">
<title>Node59&#45;&gt;Node70</title>
<path fill="none" stroke="#191970" d="M1922.0955,-168.493C2047.1976,-161.4022 2350.5864,-142.6572 2472.1192,-119.8448"/>
<polygon fill="#191970" stroke="#191970" points="2473.1407,-123.2108 2482.2733,-117.84 2471.7847,-116.3434 2473.1407,-123.2108"/>
</g>
</g>
</svg>
