<?xml version="1.0" encoding="UTF-8" standalone="no"?>
<!DOCTYPE svg PUBLIC "-//W3C//DTD SVG 1.1//EN"
 "http://www.w3.org/Graphics/SVG/1.1/DTD/svg11.dtd">
<!-- Generated by graphviz version 2.40.1 (20161225.0304)
 -->
<!-- Title: tensorflow/tensorflow/core/graph/graph_constructor.cc Pages: 1 -->
<svg width="3221pt" height="173pt"
 viewBox="0.00 0.00 3221.00 173.00" xmlns="http://www.w3.org/2000/svg" xmlns:xlink="http://www.w3.org/1999/xlink">
<g id="graph0" class="graph" transform="scale(1 1) rotate(0) translate(4 169)">
<title>tensorflow/tensorflow/core/graph/graph_constructor.cc</title>
<polygon fill="#ffffff" stroke="transparent" points="-4,4 -4,-169 3217,-169 3217,4 -4,4"/>
<!-- Node0 -->
<g id="node1" class="node">
<title>Node0</title>
<polygon fill="#bfbfbf" stroke="#000000" points="1277.5,-134.5 1277.5,-164.5 1452.5,-164.5 1452.5,-134.5 1277.5,-134.5"/>
<text text-anchor="start" x="1285.5" y="-152.5" font-family="Helvetica,sans-Serif" font-size="10.00" fill="#000000">tensorflow/tensorflow</text>
<text text-anchor="middle" x="1365" y="-141.5" font-family="Helvetica,sans-Serif" font-size="10.00" fill="#000000">/core/graph/graph_constructor.cc</text>
</g>
<!-- Node1 -->
<g id="node2" class="node">
<title>Node1</title>
<g id="a_node2"><a xlink:href="../../d7/dfb/graph__constructor_8h.html" target="_top" xlink:title="tensorflow/core/graph\l/graph_constructor.h">
<polygon fill="#ffffff" stroke="#000000" points="255,-67.5 255,-97.5 377,-97.5 377,-67.5 255,-67.5"/>
<text text-anchor="start" x="263" y="-85.5" font-family="Helvetica,sans-Serif" font-size="10.00" fill="#000000">tensorflow/core/graph</text>
<text text-anchor="middle" x="316" y="-74.5" font-family="Helvetica,sans-Serif" font-size="10.00" fill="#000000">/graph_constructor.h</text>
</a>
</g>
</g>
<!-- Node0&#45;&gt;Node1 -->
<g id="edge1" class="edge">
<title>Node0&#45;&gt;Node1</title>
<path fill="none" stroke="#191970" d="M1277.4425,-146.5669C1071.5091,-139.3935 561.0407,-119.9387 391,-98 389.739,-97.8373 388.4676,-97.6651 387.1883,-97.4844"/>
<polygon fill="#191970" stroke="#191970" points="387.6857,-94.0198 377.2677,-95.9474 386.6139,-100.9373 387.6857,-94.0198"/>
</g>
<!-- Node2 -->
<g id="node3" class="node">
<title>Node2</title>
<polygon fill="#ffffff" stroke="#bfbfbf" points="0,-.5 0,-30.5 148,-30.5 148,-.5 0,-.5"/>
<text text-anchor="start" x="8" y="-18.5" font-family="Helvetica,sans-Serif" font-size="10.00" fill="#000000">tensorflow/core/framework</text>
<text text-anchor="middle" x="74" y="-7.5" font-family="Helvetica,sans-Serif" font-size="10.00" fill="#000000">/graph.pb.h</text>
</g>
<!-- Node0&#45;&gt;Node2 -->
<g id="edge14" class="edge">
<title>Node0&#45;&gt;Node2</title>
<path fill="none" stroke="#191970" d="M1277.4266,-147.8374C1027.81,-142.7772 324.2206,-126.1661 224,-98 178.623,-85.2472 131.9004,-56.6327 102.9146,-36.7038"/>
<polygon fill="#191970" stroke="#191970" points="104.7101,-33.6885 94.5096,-30.825 100.698,-39.4246 104.7101,-33.6885"/>
</g>
<!-- Node3 -->
<g id="node4" class="node">
<title>Node3</title>
<polygon fill="#ffffff" stroke="#bfbfbf" points="166,-.5 166,-30.5 288,-30.5 288,-.5 166,-.5"/>
<text text-anchor="start" x="174" y="-18.5" font-family="Helvetica,sans-Serif" font-size="10.00" fill="#000000">tensorflow/core/graph</text>
<text text-anchor="middle" x="227" y="-7.5" font-family="Helvetica,sans-Serif" font-size="10.00" fill="#000000">/graph.h</text>
</g>
<!-- Node0&#45;&gt;Node3 -->
<g id="edge22" class="edge">
<title>Node0&#45;&gt;Node3</title>
<path fill="none" stroke="#191970" d="M1277.0788,-148.3312C1020.0252,-144.5367 285.3888,-130.8559 246,-98 229.6012,-84.3211 225.6965,-59.5947 225.3862,-40.7671"/>
<polygon fill="#191970" stroke="#191970" points="228.8858,-40.8093 225.539,-30.757 221.8867,-40.7023 228.8858,-40.8093"/>
</g>
<!-- Node4 -->
<g id="node5" class="node">
<title>Node4</title>
<polygon fill="#ffffff" stroke="#bfbfbf" points="432,-.5 432,-30.5 554,-30.5 554,-.5 432,-.5"/>
<text text-anchor="start" x="440" y="-18.5" font-family="Helvetica,sans-Serif" font-size="10.00" fill="#000000">tensorflow/core/graph</text>
<text text-anchor="middle" x="493" y="-7.5" font-family="Helvetica,sans-Serif" font-size="10.00" fill="#000000">/tensor_id.h</text>
</g>
<!-- Node0&#45;&gt;Node4 -->
<g id="edge23" class="edge">
<title>Node0&#45;&gt;Node4</title>
<path fill="none" stroke="#191970" d="M1277.1458,-147.9245C1048.9484,-143.4049 453.0706,-128.7051 424,-98 404.8543,-77.7779 431.4351,-53.1173 456.9616,-36.0531"/>
<polygon fill="#191970" stroke="#191970" points="458.9793,-38.9171 465.5104,-30.5748 455.2025,-33.0235 458.9793,-38.9171"/>
</g>
<!-- Node6 -->
<g id="node7" class="node">
<title>Node6</title>
<polygon fill="#ffffff" stroke="#bfbfbf" points="433,-73 433,-92 497,-92 497,-73 433,-73"/>
<text text-anchor="middle" x="465" y="-80" font-family="Helvetica,sans-Serif" font-size="10.00" fill="#000000">algorithm</text>
</g>
<!-- Node0&#45;&gt;Node6 -->
<g id="edge6" class="edge">
<title>Node0&#45;&gt;Node6</title>
<path fill="none" stroke="#191970" d="M1277.4724,-147.5918C1089.245,-142.9443 651.2751,-129.0647 506,-98 502.8002,-97.3158 499.5185,-96.4241 496.2728,-95.4139"/>
<polygon fill="#191970" stroke="#191970" points="497.3561,-92.0852 486.7613,-92.1172 495.0636,-98.6992 497.3561,-92.0852"/>
</g>
<!-- Node7 -->
<g id="node8" class="node">
<title>Node7</title>
<polygon fill="#ffffff" stroke="#bfbfbf" points="515,-73 515,-92 547,-92 547,-73 515,-73"/>
<text text-anchor="middle" x="531" y="-80" font-family="Helvetica,sans-Serif" font-size="10.00" fill="#000000">set</text>
</g>
<!-- Node0&#45;&gt;Node7 -->
<g id="edge7" class="edge">
<title>Node0&#45;&gt;Node7</title>
<path fill="none" stroke="#191970" d="M1277.256,-146.3293C1081.9538,-138.9248 623.2385,-119.4853 556,-98 554.9541,-97.6658 553.9076,-97.2784 552.8679,-96.8491"/>
<polygon fill="#191970" stroke="#191970" points="554.3807,-93.6906 543.8971,-92.1591 551.1374,-99.894 554.3807,-93.6906"/>
</g>
<!-- Node8 -->
<g id="node9" class="node">
<title>Node8</title>
<polygon fill="#ffffff" stroke="#bfbfbf" points="565,-73 565,-92 609,-92 609,-73 565,-73"/>
<text text-anchor="middle" x="587" y="-80" font-family="Helvetica,sans-Serif" font-size="10.00" fill="#000000">string</text>
</g>
<!-- Node0&#45;&gt;Node8 -->
<g id="edge8" class="edge">
<title>Node0&#45;&gt;Node8</title>
<path fill="none" stroke="#191970" d="M1277.3227,-147.6226C1107.7734,-143.3059 740.9304,-130.4358 619,-98 617.0761,-97.4882 615.1291,-96.8594 613.1954,-96.1511"/>
<polygon fill="#191970" stroke="#191970" points="614.3752,-92.8488 603.8053,-92.1221 611.6149,-99.2817 614.3752,-92.8488"/>
</g>
<!-- Node9 -->
<g id="node10" class="node">
<title>Node9</title>
<polygon fill="#ffffff" stroke="#bfbfbf" points="627.5,-73 627.5,-92 720.5,-92 720.5,-73 627.5,-73"/>
<text text-anchor="middle" x="674" y="-80" font-family="Helvetica,sans-Serif" font-size="10.00" fill="#000000">unordered_map</text>
</g>
<!-- Node0&#45;&gt;Node9 -->
<g id="edge9" class="edge">
<title>Node0&#45;&gt;Node9</title>
<path fill="none" stroke="#191970" d="M1277.2834,-147.6185C1154.152,-143.794 923.4452,-132.2976 730,-98 724.8551,-97.0878 719.4996,-95.9102 714.2294,-94.612"/>
<polygon fill="#191970" stroke="#191970" points="714.8379,-91.1533 704.2774,-92.0047 713.0639,-97.9248 714.8379,-91.1533"/>
</g>
<!-- Node10 -->
<g id="node11" class="node">
<title>Node10</title>
<polygon fill="#ffffff" stroke="#bfbfbf" points="738.5,-73 738.5,-92 785.5,-92 785.5,-73 738.5,-73"/>
<text text-anchor="middle" x="762" y="-80" font-family="Helvetica,sans-Serif" font-size="10.00" fill="#000000">vector</text>
</g>
<!-- Node0&#45;&gt;Node10 -->
<g id="edge10" class="edge">
<title>Node0&#45;&gt;Node10</title>
<path fill="none" stroke="#191970" d="M1277.4272,-145.3166C1140.8329,-138.1624 883.5306,-121.9885 795,-98 793.0297,-97.4661 791.0322,-96.8208 789.0454,-96.1005"/>
<polygon fill="#191970" stroke="#191970" points="789.9542,-92.6862 779.3789,-92.0442 787.2456,-99.141 789.9542,-92.6862"/>
</g>
<!-- Node11 -->
<g id="node12" class="node">
<title>Node11</title>
<polygon fill="#ffffff" stroke="#bfbfbf" points="803.5,-67.5 803.5,-97.5 940.5,-97.5 940.5,-67.5 803.5,-67.5"/>
<text text-anchor="start" x="811.5" y="-85.5" font-family="Helvetica,sans-Serif" font-size="10.00" fill="#000000">tensorflow/core/common</text>
<text text-anchor="middle" x="872" y="-74.5" font-family="Helvetica,sans-Serif" font-size="10.00" fill="#000000">_runtime/shape_refiner.h</text>
</g>
<!-- Node0&#45;&gt;Node11 -->
<g id="edge11" class="edge">
<title>Node0&#45;&gt;Node11</title>
<path fill="none" stroke="#191970" d="M1277.2987,-140.4893C1195.425,-131.6476 1069.6385,-116.9687 950.8547,-98.0687"/>
<polygon fill="#191970" stroke="#191970" points="951.2826,-94.5926 940.8545,-96.4647 950.174,-101.5043 951.2826,-94.5926"/>
</g>
<!-- Node12 -->
<g id="node13" class="node">
<title>Node12</title>
<polygon fill="#ffffff" stroke="#bfbfbf" points="959,-67.5 959,-97.5 1107,-97.5 1107,-67.5 959,-67.5"/>
<text text-anchor="start" x="967" y="-85.5" font-family="Helvetica,sans-Serif" font-size="10.00" fill="#000000">tensorflow/core/framework</text>
<text text-anchor="middle" x="1033" y="-74.5" font-family="Helvetica,sans-Serif" font-size="10.00" fill="#000000">/function.h</text>
</g>
<!-- Node0&#45;&gt;Node12 -->
<g id="edge12" class="edge">
<title>Node0&#45;&gt;Node12</title>
<path fill="none" stroke="#191970" d="M1290.4927,-134.4639C1239.1255,-124.0976 1170.7606,-110.3011 1117.3836,-99.5292"/>
<polygon fill="#191970" stroke="#191970" points="1117.7534,-96.0334 1107.2586,-97.4859 1116.3686,-102.895 1117.7534,-96.0334"/>
</g>
<!-- Node13 -->
<g id="node14" class="node">
<title>Node13</title>
<polygon fill="#ffffff" stroke="#bfbfbf" points="1125,-67.5 1125,-97.5 1273,-97.5 1273,-67.5 1125,-67.5"/>
<text text-anchor="start" x="1133" y="-85.5" font-family="Helvetica,sans-Serif" font-size="10.00" fill="#000000">tensorflow/core/framework</text>
<text text-anchor="middle" x="1199" y="-74.5" font-family="Helvetica,sans-Serif" font-size="10.00" fill="#000000">/function.pb.h</text>
</g>
<!-- Node0&#45;&gt;Node13 -->
<g id="edge13" class="edge">
<title>Node0&#45;&gt;Node13</title>
<path fill="none" stroke="#191970" d="M1327.7464,-134.4639C1303.5892,-124.7137 1271.9134,-111.9289 1246.0264,-101.4805"/>
<polygon fill="#191970" stroke="#191970" points="1246.9993,-98.0989 1236.4161,-97.6017 1244.3793,-104.5901 1246.9993,-98.0989"/>
</g>
<!-- Node14 -->
<g id="node15" class="node">
<title>Node14</title>
<polygon fill="#ffffff" stroke="#bfbfbf" points="1291,-67.5 1291,-97.5 1439,-97.5 1439,-67.5 1291,-67.5"/>
<text text-anchor="start" x="1299" y="-85.5" font-family="Helvetica,sans-Serif" font-size="10.00" fill="#000000">tensorflow/core/framework</text>
<text text-anchor="middle" x="1365" y="-74.5" font-family="Helvetica,sans-Serif" font-size="10.00" fill="#000000">/node_def.pb.h</text>
</g>
<!-- Node0&#45;&gt;Node14 -->
<g id="edge15" class="edge">
<title>Node0&#45;&gt;Node14</title>
<path fill="none" stroke="#191970" d="M1365,-134.2967C1365,-126.5013 1365,-116.7991 1365,-107.9064"/>
<polygon fill="#191970" stroke="#191970" points="1368.5001,-107.6431 1365,-97.6432 1361.5001,-107.6432 1368.5001,-107.6431"/>
</g>
<!-- Node15 -->
<g id="node16" class="node">
<title>Node15</title>
<polygon fill="#ffffff" stroke="#bfbfbf" points="1457,-67.5 1457,-97.5 1605,-97.5 1605,-67.5 1457,-67.5"/>
<text text-anchor="start" x="1465" y="-85.5" font-family="Helvetica,sans-Serif" font-size="10.00" fill="#000000">tensorflow/core/framework</text>
<text text-anchor="middle" x="1531" y="-74.5" font-family="Helvetica,sans-Serif" font-size="10.00" fill="#000000">/node_def_util.h</text>
</g>
<!-- Node0&#45;&gt;Node15 -->
<g id="edge16" class="edge">
<title>Node0&#45;&gt;Node15</title>
<path fill="none" stroke="#191970" d="M1402.2536,-134.4639C1426.4108,-124.7137 1458.0866,-111.9289 1483.9736,-101.4805"/>
<polygon fill="#191970" stroke="#191970" points="1485.6207,-104.5901 1493.5839,-97.6017 1483.0007,-98.0989 1485.6207,-104.5901"/>
</g>
<!-- Node16 -->
<g id="node17" class="node">
<title>Node16</title>
<polygon fill="#ffffff" stroke="#bfbfbf" points="1623,-67.5 1623,-97.5 1771,-97.5 1771,-67.5 1623,-67.5"/>
<text text-anchor="start" x="1631" y="-85.5" font-family="Helvetica,sans-Serif" font-size="10.00" fill="#000000">tensorflow/core/framework</text>
<text text-anchor="middle" x="1697" y="-74.5" font-family="Helvetica,sans-Serif" font-size="10.00" fill="#000000">/tensor_shape.pb.h</text>
</g>
<!-- Node0&#45;&gt;Node16 -->
<g id="edge17" class="edge">
<title>Node0&#45;&gt;Node16</title>
<path fill="none" stroke="#191970" d="M1439.5073,-134.4639C1490.8745,-124.0976 1559.2394,-110.3011 1612.6164,-99.5292"/>
<polygon fill="#191970" stroke="#191970" points="1613.6314,-102.895 1622.7414,-97.4859 1612.2466,-96.0334 1613.6314,-102.895"/>
</g>
<!-- Node17 -->
<g id="node18" class="node">
<title>Node17</title>
<polygon fill="#ffffff" stroke="#bfbfbf" points="1789,-67.5 1789,-97.5 1937,-97.5 1937,-67.5 1789,-67.5"/>
<text text-anchor="start" x="1797" y="-85.5" font-family="Helvetica,sans-Serif" font-size="10.00" fill="#000000">tensorflow/core/framework</text>
<text text-anchor="middle" x="1863" y="-74.5" font-family="Helvetica,sans-Serif" font-size="10.00" fill="#000000">/types.h</text>
</g>
<!-- Node0&#45;&gt;Node17 -->
<g id="edge18" class="edge">
<title>Node0&#45;&gt;Node17</title>
<path fill="none" stroke="#191970" d="M1452.6552,-140.1978C1534.4964,-131.1509 1660.26,-116.3271 1778.8439,-98.127"/>
<polygon fill="#191970" stroke="#191970" points="1779.4788,-101.5705 1788.8268,-96.5841 1778.4095,-94.6526 1779.4788,-101.5705"/>
</g>
<!-- Node18 -->
<g id="node19" class="node">
<title>Node18</title>
<polygon fill="#ffffff" stroke="#bfbfbf" points="1955,-67.5 1955,-97.5 2103,-97.5 2103,-67.5 1955,-67.5"/>
<text text-anchor="start" x="1963" y="-85.5" font-family="Helvetica,sans-Serif" font-size="10.00" fill="#000000">tensorflow/core/framework</text>
<text text-anchor="middle" x="2029" y="-74.5" font-family="Helvetica,sans-Serif" font-size="10.00" fill="#000000">/versions.h</text>
</g>
<!-- Node0&#45;&gt;Node18 -->
<g id="edge19" class="edge">
<title>Node0&#45;&gt;Node18</title>
<path fill="none" stroke="#191970" d="M1452.8982,-144.3513C1564.8868,-137.1976 1764.565,-122.4552 1944.9116,-98.0695"/>
<polygon fill="#191970" stroke="#191970" points="1945.411,-101.5339 1954.8458,-96.7137 1944.4643,-94.5982 1945.411,-101.5339"/>
</g>
<!-- Node19 -->
<g id="node20" class="node">
<title>Node19</title>
<polygon fill="#ffffff" stroke="#bfbfbf" points="2121,-67.5 2121,-97.5 2269,-97.5 2269,-67.5 2121,-67.5"/>
<text text-anchor="start" x="2129" y="-85.5" font-family="Helvetica,sans-Serif" font-size="10.00" fill="#000000">tensorflow/core/framework</text>
<text text-anchor="middle" x="2195" y="-74.5" font-family="Helvetica,sans-Serif" font-size="10.00" fill="#000000">/versions.pb.h</text>
</g>
<!-- Node0&#45;&gt;Node19 -->
<g id="edge20" class="edge">
<title>Node0&#45;&gt;Node19</title>
<path fill="none" stroke="#191970" d="M1452.723,-146.7442C1590.7196,-141.6801 1867.0397,-128.5952 2110.7406,-98.0659"/>
<polygon fill="#191970" stroke="#191970" points="2111.3738,-101.5137 2120.8554,-96.7863 2110.4952,-94.5691 2111.3738,-101.5137"/>
</g>
<!-- Node20 -->
<g id="node21" class="node">
<title>Node20</title>
<polygon fill="#ffffff" stroke="#bfbfbf" points="2287,-67.5 2287,-97.5 2409,-97.5 2409,-67.5 2287,-67.5"/>
<text text-anchor="start" x="2295" y="-85.5" font-family="Helvetica,sans-Serif" font-size="10.00" fill="#000000">tensorflow/core/graph</text>
<text text-anchor="middle" x="2348" y="-74.5" font-family="Helvetica,sans-Serif" font-size="10.00" fill="#000000">/algorithm.h</text>
</g>
<!-- Node0&#45;&gt;Node20 -->
<g id="edge21" class="edge">
<title>Node0&#45;&gt;Node20</title>
<path fill="none" stroke="#191970" d="M1452.5308,-146.3694C1645.1736,-139.1911 2101.9374,-120.5188 2276.5468,-98.0234"/>
<polygon fill="#191970" stroke="#191970" points="2277.1931,-101.4682 2286.6414,-96.6746 2276.2659,-94.5299 2277.1931,-101.4682"/>
</g>
<!-- Node21 -->
<g id="node22" class="node">
<title>Node21</title>
<polygon fill="#ffffff" stroke="#bfbfbf" points="2427.5,-67.5 2427.5,-97.5 2534.5,-97.5 2534.5,-67.5 2427.5,-67.5"/>
<text text-anchor="start" x="2435.5" y="-85.5" font-family="Helvetica,sans-Serif" font-size="10.00" fill="#000000">tensorflow/core/lib</text>
<text text-anchor="middle" x="2481" y="-74.5" font-family="Helvetica,sans-Serif" font-size="10.00" fill="#000000">/core/errors.h</text>
</g>
<!-- Node0&#45;&gt;Node21 -->
<g id="edge24" class="edge">
<title>Node0&#45;&gt;Node21</title>
<path fill="none" stroke="#191970" d="M1452.816,-147.3806C1667.2393,-141.8612 2214.1428,-125.6197 2417.1921,-97.8786"/>
<polygon fill="#191970" stroke="#191970" points="2417.7683,-101.3321 2427.1784,-96.4638 2416.7863,-94.4013 2417.7683,-101.3321"/>
</g>
<!-- Node22 -->
<g id="node23" class="node">
<title>Node22</title>
<polygon fill="#ffffff" stroke="#bfbfbf" points="2552.5,-67.5 2552.5,-97.5 2665.5,-97.5 2665.5,-67.5 2552.5,-67.5"/>
<text text-anchor="start" x="2560.5" y="-85.5" font-family="Helvetica,sans-Serif" font-size="10.00" fill="#000000">tensorflow/core/lib</text>
<text text-anchor="middle" x="2609" y="-74.5" font-family="Helvetica,sans-Serif" font-size="10.00" fill="#000000">/gtl/inlined_vector.h</text>
</g>
<!-- Node0&#45;&gt;Node22 -->
<g id="edge25" class="edge">
<title>Node0&#45;&gt;Node22</title>
<path fill="none" stroke="#191970" d="M1452.8225,-147.8321C1685.2973,-143.0758 2313.9367,-127.9109 2542.1643,-98.0543"/>
<polygon fill="#191970" stroke="#191970" points="2542.9613,-101.4784 2552.4008,-96.6672 2542.0214,-94.5418 2542.9613,-101.4784"/>
</g>
<!-- Node23 -->
<g id="node24" class="node">
<title>Node23</title>
<polygon fill="#ffffff" stroke="#bfbfbf" points="2683.5,-67.5 2683.5,-97.5 2790.5,-97.5 2790.5,-67.5 2683.5,-67.5"/>
<text text-anchor="start" x="2691.5" y="-85.5" font-family="Helvetica,sans-Serif" font-size="10.00" fill="#000000">tensorflow/core/lib</text>
<text text-anchor="middle" x="2737" y="-74.5" font-family="Helvetica,sans-Serif" font-size="10.00" fill="#000000">/strings/scanner.h</text>
</g>
<!-- Node0&#45;&gt;Node23 -->
<g id="edge26" class="edge">
<title>Node0&#45;&gt;Node23</title>
<path fill="none" stroke="#191970" d="M1452.8668,-148.4011C1703.3793,-144.899 2418.9394,-132.2346 2673.4154,-98.0089"/>
<polygon fill="#191970" stroke="#191970" points="2673.9427,-101.4694 2683.3655,-96.6256 2672.9788,-94.536 2673.9427,-101.4694"/>
</g>
<!-- Node24 -->
<g id="node25" class="node">
<title>Node24</title>
<polygon fill="#ffffff" stroke="#bfbfbf" points="2808.5,-67.5 2808.5,-97.5 2915.5,-97.5 2915.5,-67.5 2808.5,-67.5"/>
<text text-anchor="start" x="2816.5" y="-85.5" font-family="Helvetica,sans-Serif" font-size="10.00" fill="#000000">tensorflow/core/lib</text>
<text text-anchor="middle" x="2862" y="-74.5" font-family="Helvetica,sans-Serif" font-size="10.00" fill="#000000">/strings/str_util.h</text>
</g>
<!-- Node0&#45;&gt;Node24 -->
<g id="edge27" class="edge">
<title>Node0&#45;&gt;Node24</title>
<path fill="none" stroke="#191970" d="M1452.5017,-148.7557C1718.8218,-146.1166 2517.9029,-135.3405 2798.2146,-98.0324"/>
<polygon fill="#191970" stroke="#191970" points="2798.9368,-101.4662 2808.3671,-96.6371 2797.9837,-94.5313 2798.9368,-101.4662"/>
</g>
<!-- Node25 -->
<g id="node26" class="node">
<title>Node25</title>
<polygon fill="#ffffff" stroke="#bfbfbf" points="2933.5,-67.5 2933.5,-97.5 3070.5,-97.5 3070.5,-67.5 2933.5,-67.5"/>
<text text-anchor="start" x="2941.5" y="-85.5" font-family="Helvetica,sans-Serif" font-size="10.00" fill="#000000">tensorflow/core/platform</text>
<text text-anchor="middle" x="3002" y="-74.5" font-family="Helvetica,sans-Serif" font-size="10.00" fill="#000000">/logging.h</text>
</g>
<!-- Node0&#45;&gt;Node25 -->
<g id="edge28" class="edge">
<title>Node0&#45;&gt;Node25</title>
<path fill="none" stroke="#191970" d="M1452.9335,-148.5143C1735.0826,-145.0532 2616.5557,-131.848 2923.0248,-98.0858"/>
<polygon fill="#191970" stroke="#191970" points="2923.7011,-101.5316 2933.2432,-96.9274 2922.9125,-94.5762 2923.7011,-101.5316"/>
</g>
<!-- Node26 -->
<g id="node27" class="node">
<title>Node26</title>
<polygon fill="#ffffff" stroke="#bfbfbf" points="3089,-67.5 3089,-97.5 3213,-97.5 3213,-67.5 3089,-67.5"/>
<text text-anchor="start" x="3097" y="-85.5" font-family="Helvetica,sans-Serif" font-size="10.00" fill="#000000">tensorflow/core/public</text>
<text text-anchor="middle" x="3151" y="-74.5" font-family="Helvetica,sans-Serif" font-size="10.00" fill="#000000">/version.h</text>
</g>
<!-- Node0&#45;&gt;Node26 -->
<g id="edge29" class="edge">
<title>Node0&#45;&gt;Node26</title>
<path fill="none" stroke="#191970" d="M1452.5569,-149.0103C1752.7723,-146.9998 2740.112,-137.5637 3078.7037,-97.9762"/>
<polygon fill="#191970" stroke="#191970" points="3079.2629,-101.4342 3088.7738,-96.7661 3078.4277,-94.4842 3079.2629,-101.4342"/>
</g>
<!-- Node1&#45;&gt;Node2 -->
<g id="edge2" class="edge">
<title>Node1&#45;&gt;Node2</title>
<path fill="none" stroke="#191970" d="M261.6905,-67.4639C225.2323,-57.3701 177.027,-44.024 138.5988,-33.3848"/>
<polygon fill="#191970" stroke="#191970" points="139.1178,-29.8969 128.5464,-30.6017 137.25,-36.6431 139.1178,-29.8969"/>
</g>
<!-- Node1&#45;&gt;Node3 -->
<g id="edge3" class="edge">
<title>Node1&#45;&gt;Node3</title>
<path fill="none" stroke="#191970" d="M295.8045,-67.2967C283.8564,-58.302 268.5361,-46.7687 255.3862,-36.8694"/>
<polygon fill="#191970" stroke="#191970" points="257.2098,-33.8613 247.1156,-30.6432 252.9998,-39.4538 257.2098,-33.8613"/>
</g>
<!-- Node1&#45;&gt;Node4 -->
<g id="edge4" class="edge">
<title>Node1&#45;&gt;Node4</title>
<path fill="none" stroke="#191970" d="M355.7223,-67.4639C381.7071,-57.6278 415.8507,-44.7034 443.5855,-34.2049"/>
<polygon fill="#191970" stroke="#191970" points="444.9912,-37.4153 453.1045,-30.6017 442.513,-30.8686 444.9912,-37.4153"/>
</g>
<!-- Node5 -->
<g id="node6" class="node">
<title>Node5</title>
<polygon fill="#ffffff" stroke="#bfbfbf" points="306.5,-.5 306.5,-30.5 413.5,-30.5 413.5,-.5 306.5,-.5"/>
<text text-anchor="start" x="314.5" y="-18.5" font-family="Helvetica,sans-Serif" font-size="10.00" fill="#000000">tensorflow/core/lib</text>
<text text-anchor="middle" x="360" y="-7.5" font-family="Helvetica,sans-Serif" font-size="10.00" fill="#000000">/core/status.h</text>
</g>
<!-- Node1&#45;&gt;Node5 -->
<g id="edge5" class="edge">
<title>Node1&#45;&gt;Node5</title>
<path fill="none" stroke="#191970" d="M325.9843,-67.2967C331.4412,-58.9873 338.3208,-48.5115 344.4629,-39.1587"/>
<polygon fill="#191970" stroke="#191970" points="347.4914,-40.9231 350.0552,-30.6432 341.6404,-37.0806 347.4914,-40.9231"/>
</g>
</g>
</svg>
