<?xml version="1.0" encoding="UTF-8" standalone="no"?>
<!DOCTYPE svg PUBLIC "-//W3C//DTD SVG 1.1//EN"
 "http://www.w3.org/Graphics/SVG/1.1/DTD/svg11.dtd">
<!-- Generated by graphviz version 2.40.1 (20161225.0304)
 -->
<!-- Title: tensorflow/tensorflow/core/graph/graph_constructor.cc Pages: 1 -->
<!--zoomable 167 -->
<svg id="main" version="1.1" xmlns="http://www.w3.org/2000/svg" xmlns:xlink="http://www.w3.org/1999/xlink" xml:space="preserve" onload="init(evt)">
<style type="text/css"><![CDATA[
.edge:hover path { stroke: red; }
.edge:hover polygon { stroke: red; fill: red; }
]]></style>
<script type="text/javascript"><![CDATA[
var edges = document.getElementsByTagName('g');
if (edges && edges.length) {
  for (var i=0;i<edges.length;i++) {
    if (edges[i].id.substr(0,4)=='edge') {
      edges[i].setAttribute('class','edge');
    }
  }
}
]]></script>
        <defs>
                <circle id="rim" cx="0" cy="0" r="7"/>
                <circle id="rim2" cx="0" cy="0" r="3.5"/>
                <g id="zoomPlus">
                        <use xlink:href="#rim" fill="#404040">
                                <set attributeName="fill" to="#808080" begin="zoomplus.mouseover" end="zoomplus.mouseout"/>
                        </use>
                        <path d="M-4,0h8M0,-4v8" fill="none" stroke="white" stroke-width="1.5" pointer-events="none"/>
                </g>
                <g id="zoomMin">
                        <use xlink:href="#rim" fill="#404040">
                                <set attributeName="fill" to="#808080" begin="zoomminus.mouseover" end="zoomminus.mouseout"/>
                        </use>
                        <path d="M-4,0h8" fill="none" stroke="white" stroke-width="1.5" pointer-events="none"/>
                </g>
                <g id="dirArrow">
                        <path fill="none" stroke="white" stroke-width="1.5" d="M0,-3.0v7 M-2.5,-0.5L0,-3.0L2.5,-0.5"/>
                </g>
               <g id="resetDef">
                       <use xlink:href="#rim2" fill="#404040">
                               <set attributeName="fill" to="#808080" begin="reset.mouseover" end="reset.mouseout"/>
                       </use>
               </g>
        </defs>

<script type="text/javascript">
var viewWidth = 2960;
var viewHeight = 167;
var sectionId = 'dynsection-0';
</script>
<script xlink:href="../../svgpan.js"/>
<svg id="graph" class="graph">
<g id="viewport">
<title>tensorflow/tensorflow/core/graph/graph_constructor.cc</title>
<polygon fill="#ffffff" stroke="transparent" points="-4,4 -4,-163 2955.9873,-163 2955.9873,4 -4,4"/>
<!-- Node0 -->
<g id="node1" class="node">
<title>Node0</title>
<polygon fill="#bfbfbf" stroke="#000000" points="1183.5322,-130.5 1183.5322,-158.5 1345.7285,-158.5 1345.7285,-130.5 1183.5322,-130.5"/>
<text text-anchor="start" x="1191.5322" y="-146.5" font-family="Helvetica,sans-Serif" font-size="10.00" fill="#000000">tensorflow/tensorflow</text>
<text text-anchor="middle" x="1264.6304" y="-136.5" font-family="Helvetica,sans-Serif" font-size="10.00" fill="#000000">/core/graph/graph_constructor.cc</text>
</g>
<!-- Node1 -->
<g id="node2" class="node">
<title>Node1</title>
<g id="a_node2"><a xlink:href="../../d7/dfb/graph__constructor_8h.html" target="_top" xlink:title="tensorflow/core/graph\l/graph_constructor.h">
<polygon fill="#ffffff" stroke="#000000" points="235.5493,-65.5 235.5493,-93.5 347.7114,-93.5 347.7114,-65.5 235.5493,-65.5"/>
<text text-anchor="start" x="243.5493" y="-81.5" font-family="Helvetica,sans-Serif" font-size="10.00" fill="#000000">tensorflow/core/graph</text>
<text text-anchor="middle" x="291.6304" y="-71.5" font-family="Helvetica,sans-Serif" font-size="10.00" fill="#000000">/graph_constructor.h</text>
</a>
</g>
</g>
<!-- Node0&#45;&gt;Node1 -->
<g id="edge1" class="edge">
<title>Node0&#45;&gt;Node1</title>
<path fill="none" stroke="#191970" d="M1183.4541,-141.5067C992.5295,-134.216 519.2661,-114.6186 361.6304,-94 360.5228,-93.8551 359.4067,-93.7025 358.2838,-93.5429"/>
<polygon fill="#191970" stroke="#191970" points="358.4734,-90.0299 348.0516,-91.9366 357.3877,-96.9452 358.4734,-90.0299"/>
</g>
<!-- Node2 -->
<g id="node3" class="node">
<title>Node2</title>
<polygon fill="#ffffff" stroke="#bfbfbf" points="0,-.5 0,-28.5 133.2607,-28.5 133.2607,-.5 0,-.5"/>
<text text-anchor="start" x="8" y="-16.5" font-family="Helvetica,sans-Serif" font-size="10.00" fill="#000000">tensorflow/core/framework</text>
<text text-anchor="middle" x="66.6304" y="-6.5" font-family="Helvetica,sans-Serif" font-size="10.00" fill="#000000">/graph.pb.h</text>
</g>
<!-- Node0&#45;&gt;Node2 -->
<g id="edge14" class="edge">
<title>Node0&#45;&gt;Node2</title>
<path fill="none" stroke="#191970" d="M1183.3269,-142.8134C951.5852,-137.6991 298.4036,-121.0385 205.6304,-94 163.1875,-81.6301 119.8383,-53.9515 93.0863,-34.7564"/>
<polygon fill="#191970" stroke="#191970" points="94.8135,-31.6835 84.6754,-28.6063 90.6818,-37.3341 94.8135,-31.6835"/>
</g>
<!-- Node3 -->
<g id="node4" class="node">
<title>Node3</title>
<polygon fill="#ffffff" stroke="#bfbfbf" points="151.5493,-.5 151.5493,-28.5 263.7114,-28.5 263.7114,-.5 151.5493,-.5"/>
<text text-anchor="start" x="159.5493" y="-16.5" font-family="Helvetica,sans-Serif" font-size="10.00" fill="#000000">tensorflow/core/graph</text>
<text text-anchor="middle" x="207.6304" y="-6.5" font-family="Helvetica,sans-Serif" font-size="10.00" fill="#000000">/graph.h</text>
</g>
<!-- Node0&#45;&gt;Node3 -->
<g id="edge22" class="edge">
<title>Node0&#45;&gt;Node3</title>
<path fill="none" stroke="#191970" d="M1183.505,-143.1908C945.4662,-139.0038 263.2797,-124.3966 226.6304,-94 210.7262,-80.8092 206.7672,-56.9052 206.3102,-38.7419"/>
<polygon fill="#191970" stroke="#191970" points="209.8113,-38.6068 206.3922,-28.5789 202.8115,-38.5503 209.8113,-38.6068"/>
</g>
<!-- Node4 -->
<g id="node5" class="node">
<title>Node4</title>
<polygon fill="#ffffff" stroke="#bfbfbf" points="395.5493,-.5 395.5493,-28.5 507.7114,-28.5 507.7114,-.5 395.5493,-.5"/>
<text text-anchor="start" x="403.5493" y="-16.5" font-family="Helvetica,sans-Serif" font-size="10.00" fill="#000000">tensorflow/core/graph</text>
<text text-anchor="middle" x="451.6304" y="-6.5" font-family="Helvetica,sans-Serif" font-size="10.00" fill="#000000">/tensor_id.h</text>
</g>
<!-- Node0&#45;&gt;Node4 -->
<g id="edge23" class="edge">
<title>Node0&#45;&gt;Node4</title>
<path fill="none" stroke="#191970" d="M1183.4002,-142.7695C972.4092,-137.8804 421.4656,-122.4381 394.6304,-94 377.1636,-75.49 399.6777,-51.4089 421.3504,-34.6217"/>
<polygon fill="#191970" stroke="#191970" points="423.5716,-37.3322 429.5304,-28.5718 419.4092,-31.7042 423.5716,-37.3322"/>
</g>
<!-- Node6 -->
<g id="node7" class="node">
<title>Node6</title>
<polygon fill="#ffffff" stroke="#bfbfbf" points="404.0664,-70.5 404.0664,-88.5 461.1943,-88.5 461.1943,-70.5 404.0664,-70.5"/>
<text text-anchor="middle" x="432.6304" y="-76.5" font-family="Helvetica,sans-Serif" font-size="10.00" fill="#000000">algorithm</text>
</g>
<!-- Node0&#45;&gt;Node6 -->
<g id="edge6" class="edge">
<title>Node0&#45;&gt;Node6</title>
<path fill="none" stroke="#191970" d="M1183.2654,-142.5219C1008.8222,-137.7612 603.7983,-123.7867 469.6304,-94 467.1552,-93.4505 464.6281,-92.7599 462.1151,-91.9801"/>
<polygon fill="#191970" stroke="#191970" points="463.2267,-88.6609 452.6319,-88.64 460.9012,-95.2634 463.2267,-88.6609"/>
</g>
<!-- Node7 -->
<g id="node8" class="node">
<title>Node7</title>
<polygon fill="#ffffff" stroke="#bfbfbf" points="478.9604,-70.5 478.9604,-88.5 508.3003,-88.5 508.3003,-70.5 478.9604,-70.5"/>
<text text-anchor="middle" x="493.6304" y="-76.5" font-family="Helvetica,sans-Serif" font-size="10.00" fill="#000000">set</text>
</g>
<!-- Node0&#45;&gt;Node7 -->
<g id="edge7" class="edge">
<title>Node0&#45;&gt;Node7</title>
<path fill="none" stroke="#191970" d="M1183.3439,-143.8254C1016.2707,-141.6545 639.7362,-132.5074 517.6304,-94 516.8991,-93.7694 516.1671,-93.5123 515.437,-93.2328"/>
<polygon fill="#191970" stroke="#191970" points="516.8041,-90.0036 506.2928,-88.6755 513.6816,-96.2686 516.8041,-90.0036"/>
</g>
<!-- Node8 -->
<g id="node9" class="node">
<title>Node8</title>
<polygon fill="#ffffff" stroke="#bfbfbf" points="526.4038,-70.5 526.4038,-88.5 566.8569,-88.5 566.8569,-70.5 526.4038,-70.5"/>
<text text-anchor="middle" x="546.6304" y="-76.5" font-family="Helvetica,sans-Serif" font-size="10.00" fill="#000000">string</text>
</g>
<!-- Node0&#45;&gt;Node8 -->
<g id="edge8" class="edge">
<title>Node0&#45;&gt;Node8</title>
<path fill="none" stroke="#191970" d="M1183.4648,-142.3568C1026.959,-137.5971 688.9908,-124.1007 576.6304,-94 575.1636,-93.6071 573.6822,-93.1422 572.2046,-92.6244"/>
<polygon fill="#191970" stroke="#191970" points="573.279,-89.2797 562.7036,-88.6382 570.5708,-95.7346 573.279,-89.2797"/>
</g>
<!-- Node9 -->
<g id="node10" class="node">
<title>Node9</title>
<polygon fill="#ffffff" stroke="#bfbfbf" points="585.3276,-70.5 585.3276,-88.5 671.9331,-88.5 671.9331,-70.5 585.3276,-70.5"/>
<text text-anchor="middle" x="628.6304" y="-76.5" font-family="Helvetica,sans-Serif" font-size="10.00" fill="#000000">unordered_map</text>
</g>
<!-- Node0&#45;&gt;Node9 -->
<g id="edge9" class="edge">
<title>Node0&#45;&gt;Node9</title>
<path fill="none" stroke="#191970" d="M1183.23,-142.2261C1069.7988,-137.9792 858.1276,-126.1337 680.6304,-94 676.2051,-93.1989 671.6119,-92.1886 667.0691,-91.0758"/>
<polygon fill="#191970" stroke="#191970" points="667.8498,-87.6623 657.2895,-88.5172 666.0779,-94.4344 667.8498,-87.6623"/>
</g>
<!-- Node10 -->
<g id="node11" class="node">
<title>Node10</title>
<polygon fill="#ffffff" stroke="#bfbfbf" points="690.0146,-70.5 690.0146,-88.5 733.2461,-88.5 733.2461,-70.5 690.0146,-70.5"/>
<text text-anchor="middle" x="711.6304" y="-76.5" font-family="Helvetica,sans-Serif" font-size="10.00" fill="#000000">vector</text>
</g>
<!-- Node0&#45;&gt;Node10 -->
<g id="edge10" class="edge">
<title>Node0&#45;&gt;Node10</title>
<path fill="none" stroke="#191970" d="M1183.4124,-140.0224C1058.063,-132.541 823.482,-116.1134 742.6304,-94 740.9755,-93.5474 739.2996,-93.0124 737.6284,-92.4194"/>
<polygon fill="#191970" stroke="#191970" points="738.8669,-89.1441 728.2883,-88.5579 736.1924,-95.6131 738.8669,-89.1441"/>
</g>
<!-- Node11 -->
<g id="node12" class="node">
<title>Node11</title>
<polygon fill="#ffffff" stroke="#bfbfbf" points="751.3154,-65.5 751.3154,-93.5 877.9453,-93.5 877.9453,-65.5 751.3154,-65.5"/>
<text text-anchor="start" x="759.3154" y="-81.5" font-family="Helvetica,sans-Serif" font-size="10.00" fill="#000000">tensorflow/core/common</text>
<text text-anchor="middle" x="814.6304" y="-71.5" font-family="Helvetica,sans-Serif" font-size="10.00" fill="#000000">_runtime/shape_refiner.h</text>
</g>
<!-- Node0&#45;&gt;Node11 -->
<g id="edge11" class="edge">
<title>Node0&#45;&gt;Node11</title>
<path fill="none" stroke="#191970" d="M1183.2886,-135.2048C1108.9032,-126.3442 995.6106,-111.9476 888.2298,-94.208"/>
<polygon fill="#191970" stroke="#191970" points="888.6306,-90.7266 878.1916,-92.5369 887.481,-97.6316 888.6306,-90.7266"/>
</g>
<!-- Node12 -->
<g id="node13" class="node">
<title>Node12</title>
<polygon fill="#ffffff" stroke="#bfbfbf" points="896,-65.5 896,-93.5 1029.2607,-93.5 1029.2607,-65.5 896,-65.5"/>
<text text-anchor="start" x="904" y="-81.5" font-family="Helvetica,sans-Serif" font-size="10.00" fill="#000000">tensorflow/core/framework</text>
<text text-anchor="middle" x="962.6304" y="-71.5" font-family="Helvetica,sans-Serif" font-size="10.00" fill="#000000">/function.h</text>
</g>
<!-- Node0&#45;&gt;Node12 -->
<g id="edge12" class="edge">
<title>Node0&#45;&gt;Node12</title>
<path fill="none" stroke="#191970" d="M1199.4727,-130.476C1152.0228,-120.2633 1087.6384,-106.4057 1037.9757,-95.7167"/>
<polygon fill="#191970" stroke="#191970" points="1038.444,-92.2374 1027.9314,-93.5549 1036.9711,-99.0807 1038.444,-92.2374"/>
</g>
<!-- Node13 -->
<g id="node14" class="node">
<title>Node13</title>
<polygon fill="#ffffff" stroke="#bfbfbf" points="1047,-65.5 1047,-93.5 1180.2607,-93.5 1180.2607,-65.5 1047,-65.5"/>
<text text-anchor="start" x="1055" y="-81.5" font-family="Helvetica,sans-Serif" font-size="10.00" fill="#000000">tensorflow/core/framework</text>
<text text-anchor="middle" x="1113.6304" y="-71.5" font-family="Helvetica,sans-Serif" font-size="10.00" fill="#000000">/function.pb.h</text>
</g>
<!-- Node0&#45;&gt;Node13 -->
<g id="edge13" class="edge">
<title>Node0&#45;&gt;Node13</title>
<path fill="none" stroke="#191970" d="M1231.8656,-130.396C1209.506,-120.7709 1179.69,-107.9362 1155.5938,-97.5637"/>
<polygon fill="#191970" stroke="#191970" points="1156.9002,-94.3156 1146.3312,-93.5765 1154.1325,-100.7452 1156.9002,-94.3156"/>
</g>
<!-- Node14 -->
<g id="node15" class="node">
<title>Node14</title>
<polygon fill="#ffffff" stroke="#bfbfbf" points="1198,-65.5 1198,-93.5 1331.2607,-93.5 1331.2607,-65.5 1198,-65.5"/>
<text text-anchor="start" x="1206" y="-81.5" font-family="Helvetica,sans-Serif" font-size="10.00" fill="#000000">tensorflow/core/framework</text>
<text text-anchor="middle" x="1264.6304" y="-71.5" font-family="Helvetica,sans-Serif" font-size="10.00" fill="#000000">/node_def.pb.h</text>
</g>
<!-- Node0&#45;&gt;Node14 -->
<g id="edge15" class="edge">
<title>Node0&#45;&gt;Node14</title>
<path fill="none" stroke="#191970" d="M1264.6304,-130.396C1264.6304,-122.6448 1264.6304,-112.8122 1264.6304,-103.8601"/>
<polygon fill="#191970" stroke="#191970" points="1268.1305,-103.5765 1264.6304,-93.5765 1261.1305,-103.5765 1268.1305,-103.5765"/>
</g>
<!-- Node15 -->
<g id="node16" class="node">
<title>Node15</title>
<polygon fill="#ffffff" stroke="#bfbfbf" points="1349,-65.5 1349,-93.5 1482.2607,-93.5 1482.2607,-65.5 1349,-65.5"/>
<text text-anchor="start" x="1357" y="-81.5" font-family="Helvetica,sans-Serif" font-size="10.00" fill="#000000">tensorflow/core/framework</text>
<text text-anchor="middle" x="1415.6304" y="-71.5" font-family="Helvetica,sans-Serif" font-size="10.00" fill="#000000">/node_def_util.h</text>
</g>
<!-- Node0&#45;&gt;Node15 -->
<g id="edge16" class="edge">
<title>Node0&#45;&gt;Node15</title>
<path fill="none" stroke="#191970" d="M1297.3951,-130.396C1319.7548,-120.7709 1349.5708,-107.9362 1373.6669,-97.5637"/>
<polygon fill="#191970" stroke="#191970" points="1375.1283,-100.7452 1382.9296,-93.5765 1372.3605,-94.3156 1375.1283,-100.7452"/>
</g>
<!-- Node16 -->
<g id="node17" class="node">
<title>Node16</title>
<polygon fill="#ffffff" stroke="#bfbfbf" points="1500,-65.5 1500,-93.5 1633.2607,-93.5 1633.2607,-65.5 1500,-65.5"/>
<text text-anchor="start" x="1508" y="-81.5" font-family="Helvetica,sans-Serif" font-size="10.00" fill="#000000">tensorflow/core/framework</text>
<text text-anchor="middle" x="1566.6304" y="-71.5" font-family="Helvetica,sans-Serif" font-size="10.00" fill="#000000">/tensor_shape.pb.h</text>
</g>
<!-- Node0&#45;&gt;Node16 -->
<g id="edge17" class="edge">
<title>Node0&#45;&gt;Node16</title>
<path fill="none" stroke="#191970" d="M1329.7881,-130.476C1377.238,-120.2633 1441.6223,-106.4057 1491.285,-95.7167"/>
<polygon fill="#191970" stroke="#191970" points="1492.2897,-99.0807 1501.3293,-93.5549 1490.8167,-92.2374 1492.2897,-99.0807"/>
</g>
<!-- Node17 -->
<g id="node18" class="node">
<title>Node17</title>
<polygon fill="#ffffff" stroke="#bfbfbf" points="1651,-65.5 1651,-93.5 1784.2607,-93.5 1784.2607,-65.5 1651,-65.5"/>
<text text-anchor="start" x="1659" y="-81.5" font-family="Helvetica,sans-Serif" font-size="10.00" fill="#000000">tensorflow/core/framework</text>
<text text-anchor="middle" x="1717.6304" y="-71.5" font-family="Helvetica,sans-Serif" font-size="10.00" fill="#000000">/types.h</text>
</g>
<!-- Node0&#45;&gt;Node17 -->
<g id="edge18" class="edge">
<title>Node0&#45;&gt;Node17</title>
<path fill="none" stroke="#191970" d="M1345.9422,-135.024C1420.3072,-126.0395 1533.5857,-111.5578 1640.603,-94.2842"/>
<polygon fill="#191970" stroke="#191970" points="1641.2972,-97.7173 1650.6061,-92.6583 1640.1741,-90.808 1641.2972,-97.7173"/>
</g>
<!-- Node18 -->
<g id="node19" class="node">
<title>Node18</title>
<polygon fill="#ffffff" stroke="#bfbfbf" points="1802,-65.5 1802,-93.5 1935.2607,-93.5 1935.2607,-65.5 1802,-65.5"/>
<text text-anchor="start" x="1810" y="-81.5" font-family="Helvetica,sans-Serif" font-size="10.00" fill="#000000">tensorflow/core/framework</text>
<text text-anchor="middle" x="1868.6304" y="-71.5" font-family="Helvetica,sans-Serif" font-size="10.00" fill="#000000">/versions.h</text>
</g>
<!-- Node0&#45;&gt;Node18 -->
<g id="edge19" class="edge">
<title>Node0&#45;&gt;Node18</title>
<path fill="none" stroke="#191970" d="M1346.028,-139.1616C1448.0119,-131.9274 1628.2997,-117.3392 1791.4041,-94.2458"/>
<polygon fill="#191970" stroke="#191970" points="1792.2217,-97.6646 1801.6255,-92.7841 1791.2307,-90.7351 1792.2217,-97.6646"/>
</g>
<!-- Node19 -->
<g id="node20" class="node">
<title>Node19</title>
<polygon fill="#ffffff" stroke="#bfbfbf" points="1953,-65.5 1953,-93.5 2086.2607,-93.5 2086.2607,-65.5 1953,-65.5"/>
<text text-anchor="start" x="1961" y="-81.5" font-family="Helvetica,sans-Serif" font-size="10.00" fill="#000000">tensorflow/core/framework</text>
<text text-anchor="middle" x="2019.6304" y="-71.5" font-family="Helvetica,sans-Serif" font-size="10.00" fill="#000000">/versions.pb.h</text>
</g>
<!-- Node0&#45;&gt;Node19 -->
<g id="edge20" class="edge">
<title>Node0&#45;&gt;Node19</title>
<path fill="none" stroke="#191970" d="M1345.8074,-141.5403C1471.7015,-136.2709 1721.739,-123.0973 1942.4787,-94.1982"/>
<polygon fill="#191970" stroke="#191970" points="1943.1807,-97.6359 1952.6352,-92.8546 1942.2626,-90.6964 1943.1807,-97.6359"/>
</g>
<!-- Node20 -->
<g id="node21" class="node">
<title>Node20</title>
<polygon fill="#ffffff" stroke="#bfbfbf" points="2104.5493,-65.5 2104.5493,-93.5 2216.7114,-93.5 2216.7114,-65.5 2104.5493,-65.5"/>
<text text-anchor="start" x="2112.5493" y="-81.5" font-family="Helvetica,sans-Serif" font-size="10.00" fill="#000000">tensorflow/core/graph</text>
<text text-anchor="middle" x="2160.6304" y="-71.5" font-family="Helvetica,sans-Serif" font-size="10.00" fill="#000000">/algorithm.h</text>
</g>
<!-- Node0&#45;&gt;Node20 -->
<g id="edge21" class="edge">
<title>Node0&#45;&gt;Node20</title>
<path fill="none" stroke="#191970" d="M1345.9816,-141.2049C1521.9492,-133.8146 1934.2887,-115.0131 2094.1977,-94.0126"/>
<polygon fill="#191970" stroke="#191970" points="2094.9253,-97.4459 2104.3604,-92.6263 2093.9791,-90.5101 2094.9253,-97.4459"/>
</g>
<!-- Node21 -->
<g id="node22" class="node">
<title>Node21</title>
<polygon fill="#ffffff" stroke="#bfbfbf" points="2234.335,-65.5 2234.335,-93.5 2330.9258,-93.5 2330.9258,-65.5 2234.335,-65.5"/>
<text text-anchor="start" x="2242.335" y="-81.5" font-family="Helvetica,sans-Serif" font-size="10.00" fill="#000000">tensorflow/core/lib</text>
<text text-anchor="middle" x="2282.6304" y="-71.5" font-family="Helvetica,sans-Serif" font-size="10.00" fill="#000000">/core/errors.h</text>
</g>
<!-- Node0&#45;&gt;Node21 -->
<g id="edge24" class="edge">
<title>Node0&#45;&gt;Node21</title>
<path fill="none" stroke="#191970" d="M1345.8851,-142.2858C1542.081,-136.6141 2038.5746,-120.2387 2224.3201,-93.9562"/>
<polygon fill="#191970" stroke="#191970" points="2224.8689,-97.4132 2234.2532,-92.4955 2223.8504,-90.4877 2224.8689,-97.4132"/>
</g>
<!-- Node22 -->
<g id="node23" class="node">
<title>Node22</title>
<polygon fill="#ffffff" stroke="#bfbfbf" points="2348.8228,-65.5 2348.8228,-93.5 2450.438,-93.5 2450.438,-65.5 2348.8228,-65.5"/>
<text text-anchor="start" x="2356.8228" y="-81.5" font-family="Helvetica,sans-Serif" font-size="10.00" fill="#000000">tensorflow/core/lib</text>
<text text-anchor="middle" x="2399.6304" y="-71.5" font-family="Helvetica,sans-Serif" font-size="10.00" fill="#000000">/gtl/inlined_vector.h</text>
</g>
<!-- Node0&#45;&gt;Node22 -->
<g id="edge25" class="edge">
<title>Node0&#45;&gt;Node22</title>
<path fill="none" stroke="#191970" d="M1345.882,-142.6851C1558.5915,-137.6189 2129.1839,-121.9233 2338.6953,-93.8939"/>
<polygon fill="#191970" stroke="#191970" points="2339.2709,-97.3476 2348.6952,-92.5068 2338.3091,-90.414 2339.2709,-97.3476"/>
</g>
<!-- Node23 -->
<g id="node24" class="node">
<title>Node23</title>
<polygon fill="#ffffff" stroke="#bfbfbf" points="2468.335,-65.5 2468.335,-93.5 2564.9258,-93.5 2564.9258,-65.5 2468.335,-65.5"/>
<text text-anchor="start" x="2476.335" y="-81.5" font-family="Helvetica,sans-Serif" font-size="10.00" fill="#000000">tensorflow/core/lib</text>
<text text-anchor="middle" x="2516.6304" y="-71.5" font-family="Helvetica,sans-Serif" font-size="10.00" fill="#000000">/strings/scanner.h</text>
</g>
<!-- Node0&#45;&gt;Node23 -->
<g id="edge26" class="edge">
<title>Node0&#45;&gt;Node23</title>
<path fill="none" stroke="#191970" d="M1346.0352,-143.253C1575.3575,-139.3967 2224.6375,-126.029 2458.1237,-93.9721"/>
<polygon fill="#191970" stroke="#191970" points="2458.8512,-97.4039 2468.2584,-92.53 2457.865,-90.4737 2458.8512,-97.4039"/>
</g>
<!-- Node24 -->
<g id="node25" class="node">
<title>Node24</title>
<polygon fill="#ffffff" stroke="#bfbfbf" points="2583.335,-65.5 2583.335,-93.5 2679.9258,-93.5 2679.9258,-65.5 2583.335,-65.5"/>
<text text-anchor="start" x="2591.335" y="-81.5" font-family="Helvetica,sans-Serif" font-size="10.00" fill="#000000">tensorflow/core/lib</text>
<text text-anchor="middle" x="2631.6304" y="-71.5" font-family="Helvetica,sans-Serif" font-size="10.00" fill="#000000">/strings/str_util.h</text>
</g>
<!-- Node0&#45;&gt;Node24 -->
<g id="edge27" class="edge">
<title>Node0&#45;&gt;Node24</title>
<path fill="none" stroke="#191970" d="M1345.7576,-143.5617C1589.7591,-140.3981 2315.3629,-128.4043 2572.9687,-93.8189"/>
<polygon fill="#191970" stroke="#191970" points="2573.6168,-97.2626 2583.0405,-92.4206 2572.6542,-90.3291 2573.6168,-97.2626"/>
</g>
<!-- Node25 -->
<g id="node26" class="node">
<title>Node25</title>
<polygon fill="#ffffff" stroke="#bfbfbf" points="2698.2759,-65.5 2698.2759,-93.5 2820.9849,-93.5 2820.9849,-65.5 2698.2759,-65.5"/>
<text text-anchor="start" x="2706.2759" y="-81.5" font-family="Helvetica,sans-Serif" font-size="10.00" fill="#000000">tensorflow/core/platform</text>
<text text-anchor="middle" x="2759.6304" y="-71.5" font-family="Helvetica,sans-Serif" font-size="10.00" fill="#000000">/logging.h</text>
</g>
<!-- Node0&#45;&gt;Node25 -->
<g id="edge28" class="edge">
<title>Node0&#45;&gt;Node25</title>
<path fill="none" stroke="#191970" d="M1345.8168,-143.394C1604.1151,-139.5997 2405.8916,-125.6271 2687.9418,-93.8891"/>
<polygon fill="#191970" stroke="#191970" points="2688.6281,-97.333 2698.1583,-92.7043 2687.8217,-90.3796 2688.6281,-97.333"/>
</g>
<!-- Node26 -->
<g id="node27" class="node">
<title>Node26</title>
<polygon fill="#ffffff" stroke="#bfbfbf" points="2839.2734,-65.5 2839.2734,-93.5 2951.9873,-93.5 2951.9873,-65.5 2839.2734,-65.5"/>
<text text-anchor="start" x="2847.2734" y="-81.5" font-family="Helvetica,sans-Serif" font-size="10.00" fill="#000000">tensorflow/core/public</text>
<text text-anchor="middle" x="2895.6304" y="-71.5" font-family="Helvetica,sans-Serif" font-size="10.00" fill="#000000">/version.h</text>
</g>
<!-- Node0&#45;&gt;Node26 -->
<g id="edge29" class="edge">
<title>Node0&#45;&gt;Node26</title>
<path fill="none" stroke="#191970" d="M1345.977,-143.8517C1621.318,-141.3511 2517.8578,-130.632 2828.8547,-93.8704"/>
<polygon fill="#191970" stroke="#191970" points="2829.7197,-97.291 2839.2232,-92.6077 2828.8734,-90.3424 2829.7197,-97.291"/>
</g>
<!-- Node1&#45;&gt;Node2 -->
<g id="edge2" class="edge">
<title>Node1&#45;&gt;Node2</title>
<path fill="none" stroke="#191970" d="M243.0857,-65.476C208.6049,-55.5149 162.1212,-42.0862 125.5193,-31.5123"/>
<polygon fill="#191970" stroke="#191970" points="126.0544,-28.0239 115.4758,-28.6109 124.1116,-34.7489 126.0544,-28.0239"/>
</g>
<!-- Node1&#45;&gt;Node3 -->
<g id="edge3" class="edge">
<title>Node1&#45;&gt;Node3</title>
<path fill="none" stroke="#191970" d="M273.4036,-65.396C261.8457,-56.4524 246.7065,-44.7375 233.8665,-34.8018"/>
<polygon fill="#191970" stroke="#191970" points="235.8722,-31.9283 225.8215,-28.5765 231.5883,-37.4644 235.8722,-31.9283"/>
</g>
<!-- Node1&#45;&gt;Node4 -->
<g id="edge4" class="edge">
<title>Node1&#45;&gt;Node4</title>
<path fill="none" stroke="#191970" d="M326.348,-65.396C350.1452,-55.7284 381.9132,-42.8226 407.5044,-32.4262"/>
<polygon fill="#191970" stroke="#191970" points="409.0332,-35.583 416.9805,-28.5765 406.3985,-29.0977 409.0332,-35.583"/>
</g>
<!-- Node5 -->
<g id="node6" class="node">
<title>Node5</title>
<polygon fill="#ffffff" stroke="#bfbfbf" points="281.335,-.5 281.335,-28.5 377.9258,-28.5 377.9258,-.5 281.335,-.5"/>
<text text-anchor="start" x="289.335" y="-16.5" font-family="Helvetica,sans-Serif" font-size="10.00" fill="#000000">tensorflow/core/lib</text>
<text text-anchor="middle" x="329.6304" y="-6.5" font-family="Helvetica,sans-Serif" font-size="10.00" fill="#000000">/core/status.h</text>
</g>
<!-- Node1&#45;&gt;Node5 -->
<g id="edge5" class="edge">
<title>Node1&#45;&gt;Node5</title>
<path fill="none" stroke="#191970" d="M299.8758,-65.396C304.6562,-57.219 310.7909,-46.7254 316.2468,-37.393"/>
<polygon fill="#191970" stroke="#191970" points="319.3756,-38.9759 321.401,-28.5765 313.3325,-35.443 319.3756,-38.9759"/>
</g>
</g>
</svg>
        <g id="navigator" transform="translate(0 0)" fill="#404254">
                <rect fill="#f2f5e9" fill-opacity="0.5" stroke="#606060" stroke-width=".5" x="0" y="0" width="60" height="60"/>
                <use id="zoomplus" xlink:href="#zoomPlus" x="17" y="9" onmousedown="handleZoom(evt,'in')"/>
                <use id="zoomminus" xlink:href="#zoomMin" x="42" y="9" onmousedown="handleZoom(evt,'out')"/>
                <use id="reset" xlink:href="#resetDef" x="30" y="36" onmousedown="handleReset()"/>
                <g id="arrowUp" xlink:href="#dirArrow" transform="translate(30 24)" onmousedown="handlePan(0,-1)">
                  <use xlink:href="#rim" fill="#404040">
                        <set attributeName="fill" to="#808080" begin="arrowUp.mouseover" end="arrowUp.mouseout"/>
                  </use>
                  <path fill="none" stroke="white" stroke-width="1.5" d="M0,-3.0v7 M-2.5,-0.5L0,-3.0L2.5,-0.5"/>
                </g>
                <g id="arrowRight" xlink:href="#dirArrow" transform="rotate(90) translate(36 -43)" onmousedown="handlePan(1,0)">
                  <use xlink:href="#rim" fill="#404040">
                        <set attributeName="fill" to="#808080" begin="arrowRight.mouseover" end="arrowRight.mouseout"/>
                  </use>
                  <path fill="none" stroke="white" stroke-width="1.5" d="M0,-3.0v7 M-2.5,-0.5L0,-3.0L2.5,-0.5"/>
                </g>
                <g id="arrowDown" xlink:href="#dirArrow" transform="rotate(180) translate(-30 -48)" onmousedown="handlePan(0,1)">
                  <use xlink:href="#rim" fill="#404040">
                        <set attributeName="fill" to="#808080" begin="arrowDown.mouseover" end="arrowDown.mouseout"/>
                  </use>
                  <path fill="none" stroke="white" stroke-width="1.5" d="M0,-3.0v7 M-2.5,-0.5L0,-3.0L2.5,-0.5"/>
                </g>
                <g id="arrowLeft" xlink:href="#dirArrow" transform="rotate(270) translate(-36 17)" onmousedown="handlePan(-1,0)">
                  <use xlink:href="#rim" fill="#404040">
                        <set attributeName="fill" to="#808080" begin="arrowLeft.mouseover" end="arrowLeft.mouseout"/>
                  </use>
                  <path fill="none" stroke="white" stroke-width="1.5" d="M0,-3.0v7 M-2.5,-0.5L0,-3.0L2.5,-0.5"/>
                </g>
        </g>
        <svg viewBox="0 0 15 15" width="100%" height="30px" preserveAspectRatio="xMaxYMin meet">
         <g id="arrow_out" transform="scale(0.3 0.3)">
          <a xlink:href="graph__constructor_8cc__incl_org.svg" target="_base">
           <rect id="button" ry="5" rx="5" y="6" x="6" height="38" width="38"
                fill="#f2f5e9" fill-opacity="0.5" stroke="#606060" stroke-width="1.0"/>
           <path id="arrow"
             d="M 11.500037,31.436501 C 11.940474,20.09759 22.043105,11.32322 32.158766,21.979434 L 37.068811,17.246167 C 37.068811,17.246167 37.088388,32 37.088388,32 L 22.160133,31.978069 C 22.160133,31.978069 26.997745,27.140456 26.997745,27.140456 C 18.528582,18.264221 13.291696,25.230495 11.500037,31.436501 z"
             style="fill:#404040;"/>
          </a>
         </g>
        </svg>
</svg>
