<?xml version="1.0" encoding="UTF-8" standalone="no"?>
<!DOCTYPE svg PUBLIC "-//W3C//DTD SVG 1.1//EN"
 "http://www.w3.org/Graphics/SVG/1.1/DTD/svg11.dtd">
<!-- Generated by graphviz version 2.40.1 (20161225.0304)
 -->
<!-- Title: tensorflow::XlaOpRegistrationBuilder Pages: 1 -->
<svg width="175pt" height="117pt"
 viewBox="0.00 0.00 175.00 117.00" xmlns="http://www.w3.org/2000/svg" xmlns:xlink="http://www.w3.org/1999/xlink">
<g id="graph0" class="graph" transform="scale(1 1) rotate(0) translate(4 113)">
<title>tensorflow::XlaOpRegistrationBuilder</title>
<polygon fill="#ffffff" stroke="transparent" points="-4,4 -4,-113 171,-113 171,4 -4,4"/>
<!-- Node1 -->
<g id="node1" class="node">
<title>Node1</title>
<polygon fill="#bfbfbf" stroke="#000000" points="10,-.5 10,-30.5 157,-30.5 157,-.5 10,-.5"/>
<text text-anchor="start" x="18" y="-18.5" font-family="Helvetica,sans-Serif" font-size="10.00" fill="#000000">tensorflow::XlaOpRegistration</text>
<text text-anchor="middle" x="83.5" y="-7.5" font-family="Helvetica,sans-Serif" font-size="10.00" fill="#000000">Builder</text>
</g>
<!-- Node2 -->
<g id="node2" class="node">
<title>Node2</title>
<polygon fill="#ffffff" stroke="#bfbfbf" points="0,-78.5 0,-108.5 167,-108.5 167,-78.5 0,-78.5"/>
<text text-anchor="start" x="8" y="-96.5" font-family="Helvetica,sans-Serif" font-size="10.00" fill="#000000">unique_ptr&lt; tensorflow</text>
<text text-anchor="middle" x="83.5" y="-85.5" font-family="Helvetica,sans-Serif" font-size="10.00" fill="#000000">::XlaOpRegistry::OpRegistration &gt;</text>
</g>
<!-- Node2&#45;&gt;Node1 -->
<g id="edge1" class="edge">
<title>Node2&#45;&gt;Node1</title>
<path fill="none" stroke="#9a32cd" stroke-dasharray="5,2" d="M83.5,-68.2875C83.5,-55.9187 83.5,-41.4264 83.5,-30.7592"/>
<polygon fill="#9a32cd" stroke="#9a32cd" points="80.0001,-68.4608 83.5,-78.4608 87.0001,-68.4608 80.0001,-68.4608"/>
<text text-anchor="middle" x="112" y="-52" font-family="Helvetica,sans-Serif" font-size="10.00" fill="#000000"> registration_</text>
</g>
</g>
</svg>
