<?xml version="1.0" encoding="UTF-8" standalone="no"?>
<!DOCTYPE svg PUBLIC "-//W3C//DTD SVG 1.1//EN"
 "http://www.w3.org/Graphics/SVG/1.1/DTD/svg11.dtd">
<!-- Generated by graphviz version 2.38.0 (20140413.2041)
 -->
<!-- Title: tensorflow/tensorflow/compiler/tf2xla/tf2xla_util.h Pages: 1 -->
<svg width="775pt" height="117pt"
 viewBox="0.00 0.00 774.50 117.00" xmlns="http://www.w3.org/2000/svg" xmlns:xlink="http://www.w3.org/1999/xlink">
<g id="graph0" class="graph" transform="scale(1 1) rotate(0) translate(4 113)">
<title>tensorflow/tensorflow/compiler/tf2xla/tf2xla_util.h</title>
<polygon fill="white" stroke="none" points="-4,4 -4,-113 770.5,-113 770.5,4 -4,4"/>
<!-- Node1 -->
<g id="node1" class="node"><title>Node1</title>
<polygon fill="#bfbfbf" stroke="black" points="311.5,-67.5 311.5,-108.5 421.5,-108.5 421.5,-67.5 311.5,-67.5"/>
<text text-anchor="start" x="319.5" y="-96.5" font-family="Helvetica,sans-Serif" font-size="10.00">tensorflow/tensorflow</text>
<text text-anchor="start" x="319.5" y="-85.5" font-family="Helvetica,sans-Serif" font-size="10.00">/compiler/tf2xla/tf2xla</text>
<text text-anchor="middle" x="366.5" y="-74.5" font-family="Helvetica,sans-Serif" font-size="10.00">_util.h</text>
</g>
<!-- Node2 -->
<g id="node2" class="node"><title>Node2</title>
<polygon fill="white" stroke="#bfbfbf" points="0,-6 0,-25 83,-25 83,-6 0,-6"/>
<text text-anchor="middle" x="41.5" y="-13" font-family="Helvetica,sans-Serif" font-size="10.00">unordered_map</text>
</g>
<!-- Node1&#45;&gt;Node2 -->
<g id="edge1" class="edge"><title>Node1&#45;&gt;Node2</title>
<path fill="none" stroke="midnightblue" d="M311.421,-77.1491C255.692,-66.8622 167.193,-49.6496 91.5,-31 87.4522,-30.0027 83.2398,-28.894 79.0537,-27.7465"/>
<polygon fill="midnightblue" stroke="midnightblue" points="79.9976,-24.3763 69.4231,-25.0327 78.0989,-31.1139 79.9976,-24.3763"/>
</g>
<!-- Node3 -->
<g id="node3" class="node"><title>Node3</title>
<polygon fill="white" stroke="#bfbfbf" points="101,-0.5 101,-30.5 202,-30.5 202,-0.5 101,-0.5"/>
<text text-anchor="start" x="109" y="-18.5" font-family="Helvetica,sans-Serif" font-size="10.00">tensorflow/compiler</text>
<text text-anchor="middle" x="151.5" y="-7.5" font-family="Helvetica,sans-Serif" font-size="10.00">/tf2xla/tf2xla.pb.h</text>
</g>
<!-- Node1&#45;&gt;Node3 -->
<g id="edge2" class="edge"><title>Node1&#45;&gt;Node3</title>
<path fill="none" stroke="midnightblue" d="M311.411,-68.936C278.375,-58.1031 236.595,-44.4031 204.026,-33.7235"/>
<polygon fill="midnightblue" stroke="midnightblue" points="204.826,-30.3028 194.234,-30.5127 202.645,-36.9543 204.826,-30.3028"/>
</g>
<!-- Node4 -->
<g id="node4" class="node"><title>Node4</title>
<polygon fill="white" stroke="#bfbfbf" points="220.5,-0.5 220.5,-30.5 352.5,-30.5 352.5,-0.5 220.5,-0.5"/>
<text text-anchor="start" x="228.5" y="-18.5" font-family="Helvetica,sans-Serif" font-size="10.00">tensorflow/core/framework</text>
<text text-anchor="middle" x="286.5" y="-7.5" font-family="Helvetica,sans-Serif" font-size="10.00">/graph.pb.h</text>
</g>
<!-- Node1&#45;&gt;Node4 -->
<g id="edge3" class="edge"><title>Node1&#45;&gt;Node4</title>
<path fill="none" stroke="midnightblue" d="M344.216,-67.3618C333.679,-58.0763 321.087,-46.9795 310.357,-37.5238"/>
<polygon fill="midnightblue" stroke="midnightblue" points="312.396,-34.6557 302.579,-30.67 307.768,-39.9075 312.396,-34.6557"/>
</g>
<!-- Node5 -->
<g id="node5" class="node"><title>Node5</title>
<polygon fill="white" stroke="#bfbfbf" points="370.5,-6 370.5,-25 524.5,-25 524.5,-6 370.5,-6"/>
<text text-anchor="middle" x="447.5" y="-13" font-family="Helvetica,sans-Serif" font-size="10.00">tensorflow/core/framework/op.h</text>
</g>
<!-- Node1&#45;&gt;Node5 -->
<g id="edge4" class="edge"><title>Node1&#45;&gt;Node5</title>
<path fill="none" stroke="midnightblue" d="M389.063,-67.3618C401.995,-56.1066 417.984,-42.1903 429.966,-31.761"/>
<polygon fill="midnightblue" stroke="midnightblue" points="432.29,-34.3787 437.535,-25.1734 427.694,-29.0986 432.29,-34.3787"/>
</g>
<!-- Node6 -->
<g id="node6" class="node"><title>Node6</title>
<polygon fill="white" stroke="#bfbfbf" points="542.5,-0.5 542.5,-30.5 652.5,-30.5 652.5,-0.5 542.5,-0.5"/>
<text text-anchor="start" x="550.5" y="-18.5" font-family="Helvetica,sans-Serif" font-size="10.00">tensorflow/core/graph</text>
<text text-anchor="middle" x="597.5" y="-7.5" font-family="Helvetica,sans-Serif" font-size="10.00">/graph.h</text>
</g>
<!-- Node1&#45;&gt;Node6 -->
<g id="edge5" class="edge"><title>Node1&#45;&gt;Node6</title>
<path fill="none" stroke="midnightblue" d="M421.537,-70.2031C457.765,-59.1465 505.045,-44.7168 541.472,-33.5994"/>
<polygon fill="midnightblue" stroke="midnightblue" points="542.898,-36.8238 551.44,-30.5572 540.854,-30.1287 542.898,-36.8238"/>
</g>
<!-- Node7 -->
<g id="node7" class="node"><title>Node7</title>
<polygon fill="white" stroke="#bfbfbf" points="670.5,-0.5 670.5,-30.5 766.5,-30.5 766.5,-0.5 670.5,-0.5"/>
<text text-anchor="start" x="678.5" y="-18.5" font-family="Helvetica,sans-Serif" font-size="10.00">tensorflow/core/lib</text>
<text text-anchor="middle" x="718.5" y="-7.5" font-family="Helvetica,sans-Serif" font-size="10.00">/core/status.h</text>
</g>
<!-- Node1&#45;&gt;Node7 -->
<g id="edge6" class="edge"><title>Node1&#45;&gt;Node7</title>
<path fill="none" stroke="midnightblue" d="M421.62,-77.5812C478.891,-67.5605 571.313,-50.7341 660.351,-31.1811"/>
<polygon fill="midnightblue" stroke="midnightblue" points="661.339,-34.5472 670.348,-28.9709 659.828,-27.7122 661.339,-34.5472"/>
</g>
</g>
</svg>
