<?xml version="1.0" encoding="UTF-8" standalone="no"?>
<!DOCTYPE svg PUBLIC "-//W3C//DTD SVG 1.1//EN"
 "http://www.w3.org/Graphics/SVG/1.1/DTD/svg11.dtd">
<!-- Generated by graphviz version 2.40.1 (20161225.0304)
 -->
<!-- Title: tensorflow::anonymous_namespace{graph_constructor::cc}::RemoveInputs Pages: 1 -->
<svg width="377pt" height="61pt"
 viewBox="0.00 0.00 377.00 61.00" xmlns="http://www.w3.org/2000/svg" xmlns:xlink="http://www.w3.org/1999/xlink">
<g id="graph0" class="graph" transform="scale(1 1) rotate(0) translate(4 57)">
<title>tensorflow::anonymous_namespace{graph_constructor::cc}::RemoveInputs</title>
<polygon fill="#ffffff" stroke="transparent" points="-4,4 -4,-57 373,-57 373,4 -4,4"/>
<!-- Node26 -->
<g id="node1" class="node">
<title>Node26</title>
<polygon fill="#bfbfbf" stroke="#000000" points="0,-6 0,-47 153,-47 153,-6 0,-6"/>
<text text-anchor="start" x="8" y="-35" font-family="Helvetica,sans-Serif" font-size="10.00" fill="#000000">tensorflow::anonymous</text>
<text text-anchor="start" x="8" y="-24" font-family="Helvetica,sans-Serif" font-size="10.00" fill="#000000">_namespace{graph_constructor</text>
<text text-anchor="middle" x="76.5" y="-13" font-family="Helvetica,sans-Serif" font-size="10.00" fill="#000000">::cc}::RemoveInputs</text>
</g>
<!-- Node27 -->
<g id="node2" class="node">
<title>Node27</title>
<g id="a_node2"><a xlink:href="../../d2/d97/classtensorflow_1_1anonymous__namespace_02graph__constructor_8cc_03_1_1GraphConstructor.html#afeb232060c61246e27301138f5c06e61" target="_top" xlink:title="tensorflow::anonymous\l_namespace\{graph_constructor\l::cc\}::GraphConstructor::RemapNode\lDefInputs">
<polygon fill="#ffffff" stroke="#000000" points="189,-.5 189,-52.5 369,-52.5 369,-.5 189,-.5"/>
<text text-anchor="start" x="197" y="-40.5" font-family="Helvetica,sans-Serif" font-size="10.00" fill="#000000">tensorflow::anonymous</text>
<text text-anchor="start" x="197" y="-29.5" font-family="Helvetica,sans-Serif" font-size="10.00" fill="#000000">_namespace{graph_constructor</text>
<text text-anchor="start" x="197" y="-18.5" font-family="Helvetica,sans-Serif" font-size="10.00" fill="#000000">::cc}::GraphConstructor::RemapNode</text>
<text text-anchor="middle" x="279" y="-7.5" font-family="Helvetica,sans-Serif" font-size="10.00" fill="#000000">DefInputs</text>
</a>
</g>
</g>
<!-- Node26&#45;&gt;Node27 -->
<g id="edge1" class="edge">
<title>Node26&#45;&gt;Node27</title>
<path fill="none" stroke="#191970" d="M163.2579,-26.5C171.6901,-26.5 180.2591,-26.5 188.7247,-26.5"/>
<polygon fill="#191970" stroke="#191970" points="163.0566,-23.0001 153.0566,-26.5 163.0565,-30.0001 163.0566,-23.0001"/>
</g>
</g>
</svg>
