<?xml version="1.0" encoding="UTF-8" standalone="no"?>
<!DOCTYPE svg PUBLIC "-//W3C//DTD SVG 1.1//EN"
 "http://www.w3.org/Graphics/SVG/1.1/DTD/svg11.dtd">
<!-- Generated by graphviz version 2.40.1 (20161225.0304)
 -->
<!-- Title: tensorflow/tensorflow/compiler/xla/service/user_computation.h Pages: 1 -->
<svg width="1803pt" height="122pt"
 viewBox="0.00 0.00 1802.76 122.00" xmlns="http://www.w3.org/2000/svg" xmlns:xlink="http://www.w3.org/1999/xlink">
<g id="graph0" class="graph" transform="scale(1 1) rotate(0) translate(4 118)">
<title>tensorflow/tensorflow/compiler/xla/service/user_computation.h</title>
<polygon fill="#ffffff" stroke="transparent" points="-4,4 -4,-118 1798.7583,-118 1798.7583,4 -4,4"/>
<!-- Node0 -->
<g id="node1" class="node">
<title>Node0</title>
<polygon fill="#bfbfbf" stroke="#000000" points="700.4385,-75.5 700.4385,-113.5 810.3691,-113.5 810.3691,-75.5 700.4385,-75.5"/>
<text text-anchor="start" x="708.4385" y="-101.5" font-family="Helvetica,sans-Serif" font-size="10.00" fill="#000000">tensorflow/tensorflow</text>
<text text-anchor="start" x="708.4385" y="-91.5" font-family="Helvetica,sans-Serif" font-size="10.00" fill="#000000">/compiler/xla/service</text>
<text text-anchor="middle" x="755.4038" y="-81.5" font-family="Helvetica,sans-Serif" font-size="10.00" fill="#000000">/user_computation.h</text>
</g>
<!-- Node1 -->
<g id="node2" class="node">
<title>Node1</title>
<polygon fill="#ffffff" stroke="#bfbfbf" points="0,-10.5 0,-28.5 58.8076,-28.5 58.8076,-10.5 0,-10.5"/>
<text text-anchor="middle" x="29.4038" y="-16.5" font-family="Helvetica,sans-Serif" font-size="10.00" fill="#000000">functional</text>
</g>
<!-- Node0&#45;&gt;Node1 -->
<g id="edge1" class="edge">
<title>Node0&#45;&gt;Node1</title>
<path fill="none" stroke="#191970" d="M700.2486,-92.8339C558.8181,-88.1181 186.0438,-72.7697 67.4038,-39 62.4917,-37.6018 57.4722,-35.5445 52.7585,-33.2839"/>
<polygon fill="#191970" stroke="#191970" points="54.1268,-30.0494 43.6452,-28.5043 50.8755,-36.2485 54.1268,-30.0494"/>
</g>
<!-- Node2 -->
<g id="node3" class="node">
<title>Node2</title>
<polygon fill="#ffffff" stroke="#bfbfbf" points="76.6772,-10.5 76.6772,-28.5 112.1304,-28.5 112.1304,-10.5 76.6772,-10.5"/>
<text text-anchor="middle" x="94.4038" y="-16.5" font-family="Helvetica,sans-Serif" font-size="10.00" fill="#000000">map</text>
</g>
<!-- Node0&#45;&gt;Node2 -->
<g id="edge2" class="edge">
<title>Node0&#45;&gt;Node2</title>
<path fill="none" stroke="#191970" d="M700.1355,-93.4159C566.0746,-90.1882 226.8923,-78.2733 121.4038,-39 118.3591,-37.8665 115.3503,-36.2911 112.5082,-34.5226"/>
<polygon fill="#191970" stroke="#191970" points="114.3192,-31.5139 104.1569,-28.5174 110.2325,-37.1971 114.3192,-31.5139"/>
</g>
<!-- Node3 -->
<g id="node4" class="node">
<title>Node3</title>
<polygon fill="#ffffff" stroke="#bfbfbf" points="130.3472,-10.5 130.3472,-28.5 182.4604,-28.5 182.4604,-10.5 130.3472,-10.5"/>
<text text-anchor="middle" x="156.4038" y="-16.5" font-family="Helvetica,sans-Serif" font-size="10.00" fill="#000000">memory</text>
</g>
<!-- Node0&#45;&gt;Node3 -->
<g id="edge3" class="edge">
<title>Node0&#45;&gt;Node3</title>
<path fill="none" stroke="#191970" d="M700.1868,-91.9349C577.4529,-85.7702 285.4229,-68.4134 191.4038,-39 187.1468,-37.6682 182.8265,-35.7801 178.7415,-33.698"/>
<polygon fill="#191970" stroke="#191970" points="180.21,-30.5083 169.778,-28.6579 176.7791,-36.6099 180.21,-30.5083"/>
</g>
<!-- Node4 -->
<g id="node5" class="node">
<title>Node4</title>
<polygon fill="#ffffff" stroke="#bfbfbf" points="200.1772,-10.5 200.1772,-28.5 240.6304,-28.5 240.6304,-10.5 200.1772,-10.5"/>
<text text-anchor="middle" x="220.4038" y="-16.5" font-family="Helvetica,sans-Serif" font-size="10.00" fill="#000000">string</text>
</g>
<!-- Node0&#45;&gt;Node4 -->
<g id="edge4" class="edge">
<title>Node0&#45;&gt;Node4</title>
<path fill="none" stroke="#191970" d="M700.1895,-91.7793C586.729,-85.6472 331.1566,-68.8985 249.4038,-39 246.156,-37.8122 242.9167,-36.1866 239.8433,-34.3771"/>
<polygon fill="#191970" stroke="#191970" points="241.536,-31.2987 231.2775,-28.6505 237.6455,-37.118 241.536,-31.2987"/>
</g>
<!-- Node5 -->
<g id="node6" class="node">
<title>Node5</title>
<polygon fill="#ffffff" stroke="#bfbfbf" points="258.7881,-10.5 258.7881,-28.5 302.0195,-28.5 302.0195,-10.5 258.7881,-10.5"/>
<text text-anchor="middle" x="280.4038" y="-16.5" font-family="Helvetica,sans-Serif" font-size="10.00" fill="#000000">vector</text>
</g>
<!-- Node0&#45;&gt;Node5 -->
<g id="edge5" class="edge">
<title>Node0&#45;&gt;Node5</title>
<path fill="none" stroke="#191970" d="M700.3987,-90.6204C597.9497,-82.9024 381.9119,-64.1735 311.4038,-39 307.7773,-37.7052 304.1318,-35.9317 300.6791,-33.9785"/>
<polygon fill="#191970" stroke="#191970" points="302.4618,-30.9649 292.1357,-28.5936 298.7292,-36.8868 302.4618,-30.9649"/>
</g>
<!-- Node6 -->
<g id="node7" class="node">
<title>Node6</title>
<polygon fill="#ffffff" stroke="#bfbfbf" points="320.1455,-5.5 320.1455,-33.5 470.6621,-33.5 470.6621,-5.5 320.1455,-5.5"/>
<text text-anchor="start" x="328.1455" y="-21.5" font-family="Helvetica,sans-Serif" font-size="10.00" fill="#000000">tensorflow/compiler</text>
<text text-anchor="middle" x="395.4038" y="-11.5" font-family="Helvetica,sans-Serif" font-size="10.00" fill="#000000">/xla/service/hlo_computation.h</text>
</g>
<!-- Node0&#45;&gt;Node6 -->
<g id="edge6" class="edge">
<title>Node0&#45;&gt;Node6</title>
<path fill="none" stroke="#191970" d="M700.2694,-83.8166C644.6838,-72.9415 556.4638,-55.3967 480.4038,-39 475.6585,-37.977 470.7685,-36.9044 465.8445,-35.8106"/>
<polygon fill="#191970" stroke="#191970" points="466.2481,-32.3144 455.725,-33.5449 464.7187,-39.1453 466.2481,-32.3144"/>
</g>
<!-- Node7 -->
<g id="node8" class="node">
<title>Node7</title>
<polygon fill="#ffffff" stroke="#bfbfbf" points="488.9336,-5.5 488.9336,-33.5 613.874,-33.5 613.874,-5.5 488.9336,-5.5"/>
<text text-anchor="start" x="496.9336" y="-21.5" font-family="Helvetica,sans-Serif" font-size="10.00" fill="#000000">tensorflow/compiler</text>
<text text-anchor="middle" x="551.4038" y="-11.5" font-family="Helvetica,sans-Serif" font-size="10.00" fill="#000000">/xla/service/session.pb.h</text>
</g>
<!-- Node0&#45;&gt;Node7 -->
<g id="edge7" class="edge">
<title>Node0&#45;&gt;Node7</title>
<path fill="none" stroke="#191970" d="M703.6623,-75.4774C671.4628,-63.6394 630.355,-48.5262 598.9709,-36.9879"/>
<polygon fill="#191970" stroke="#191970" points="600.1574,-33.6951 589.5638,-33.5294 597.7419,-40.2652 600.1574,-33.6951"/>
</g>
<!-- Node8 -->
<g id="node9" class="node">
<title>Node8</title>
<polygon fill="#ffffff" stroke="#bfbfbf" points="631.4189,-.5 631.4189,-38.5 751.3887,-38.5 751.3887,-.5 631.4189,-.5"/>
<text text-anchor="start" x="639.4189" y="-26.5" font-family="Helvetica,sans-Serif" font-size="10.00" fill="#000000">tensorflow/compiler</text>
<text text-anchor="start" x="639.4189" y="-16.5" font-family="Helvetica,sans-Serif" font-size="10.00" fill="#000000">/xla/service/versioned</text>
<text text-anchor="middle" x="691.4038" y="-6.5" font-family="Helvetica,sans-Serif" font-size="10.00" fill="#000000">_computation_handle.h</text>
</g>
<!-- Node0&#45;&gt;Node8 -->
<g id="edge8" class="edge">
<title>Node0&#45;&gt;Node8</title>
<path fill="none" stroke="#191970" d="M738.9222,-75.1856C731.457,-66.4374 722.5051,-55.9468 714.394,-46.4416"/>
<polygon fill="#191970" stroke="#191970" points="716.9832,-44.0839 707.8295,-38.7489 711.6584,-48.6277 716.9832,-44.0839"/>
</g>
<!-- Node9 -->
<g id="node10" class="node">
<title>Node9</title>
<polygon fill="#ffffff" stroke="#bfbfbf" points="769.3325,-5.5 769.3325,-33.5 871.4751,-33.5 871.4751,-5.5 769.3325,-5.5"/>
<text text-anchor="start" x="777.3325" y="-21.5" font-family="Helvetica,sans-Serif" font-size="10.00" fill="#000000">tensorflow/compiler</text>
<text text-anchor="middle" x="820.4038" y="-11.5" font-family="Helvetica,sans-Serif" font-size="10.00" fill="#000000">/xla/statusor.h</text>
</g>
<!-- Node0&#45;&gt;Node9 -->
<g id="edge9" class="edge">
<title>Node0&#45;&gt;Node9</title>
<path fill="none" stroke="#191970" d="M772.1429,-75.1856C781.1353,-64.8098 792.2518,-51.9831 801.5483,-41.2563"/>
<polygon fill="#191970" stroke="#191970" points="804.333,-43.3874 808.2374,-33.5382 799.0431,-38.8028 804.333,-43.3874"/>
</g>
<!-- Node10 -->
<g id="node11" class="node">
<title>Node10</title>
<polygon fill="#ffffff" stroke="#bfbfbf" points="889.3325,-5.5 889.3325,-33.5 991.4751,-33.5 991.4751,-5.5 889.3325,-5.5"/>
<text text-anchor="start" x="897.3325" y="-21.5" font-family="Helvetica,sans-Serif" font-size="10.00" fill="#000000">tensorflow/compiler</text>
<text text-anchor="middle" x="940.4038" y="-11.5" font-family="Helvetica,sans-Serif" font-size="10.00" fill="#000000">/xla/types.h</text>
</g>
<!-- Node0&#45;&gt;Node10 -->
<g id="edge10" class="edge">
<title>Node0&#45;&gt;Node10</title>
<path fill="none" stroke="#191970" d="M802.5658,-75.3803C831.2943,-63.7336 867.7745,-48.9443 895.9881,-37.5064"/>
<polygon fill="#191970" stroke="#191970" points="897.6441,-40.6118 905.5965,-33.6111 895.0142,-34.1246 897.6441,-40.6118"/>
</g>
<!-- Node11 -->
<g id="node12" class="node">
<title>Node11</title>
<polygon fill="#ffffff" stroke="#bfbfbf" points="1009.3325,-5.5 1009.3325,-33.5 1111.4751,-33.5 1111.4751,-5.5 1009.3325,-5.5"/>
<text text-anchor="start" x="1017.3325" y="-21.5" font-family="Helvetica,sans-Serif" font-size="10.00" fill="#000000">tensorflow/compiler</text>
<text text-anchor="middle" x="1060.4038" y="-11.5" font-family="Helvetica,sans-Serif" font-size="10.00" fill="#000000">/xla/xla.pb.h</text>
</g>
<!-- Node0&#45;&gt;Node11 -->
<g id="edge11" class="edge">
<title>Node0&#45;&gt;Node11</title>
<path fill="none" stroke="#191970" d="M810.7388,-83.4741C860.6311,-73.1756 935.8574,-56.7596 1000.4038,-39 1003.3195,-38.1978 1006.3042,-37.3417 1009.309,-36.4529"/>
<polygon fill="#191970" stroke="#191970" points="1010.3682,-39.7891 1018.915,-33.5279 1008.3291,-33.0927 1010.3682,-39.7891"/>
</g>
<!-- Node12 -->
<g id="node13" class="node">
<title>Node12</title>
<polygon fill="#ffffff" stroke="#bfbfbf" points="1129.3325,-5.5 1129.3325,-33.5 1231.4751,-33.5 1231.4751,-5.5 1129.3325,-5.5"/>
<text text-anchor="start" x="1137.3325" y="-21.5" font-family="Helvetica,sans-Serif" font-size="10.00" fill="#000000">tensorflow/compiler</text>
<text text-anchor="middle" x="1180.4038" y="-11.5" font-family="Helvetica,sans-Serif" font-size="10.00" fill="#000000">/xla/xla_data.pb.h</text>
</g>
<!-- Node0&#45;&gt;Node12 -->
<g id="edge12" class="edge">
<title>Node0&#45;&gt;Node12</title>
<path fill="none" stroke="#191970" d="M810.6663,-88.9428C882.6313,-81.0593 1012.0345,-64.6674 1120.4038,-39 1123.7561,-38.206 1127.1904,-37.3127 1130.6359,-36.3566"/>
<polygon fill="#191970" stroke="#191970" points="1131.7013,-39.6917 1140.3171,-33.5257 1129.7367,-32.9731 1131.7013,-39.6917"/>
</g>
<!-- Node13 -->
<g id="node14" class="node">
<title>Node13</title>
<polygon fill="#ffffff" stroke="#bfbfbf" points="1249.0493,-5.5 1249.0493,-33.5 1371.7583,-33.5 1371.7583,-5.5 1249.0493,-5.5"/>
<text text-anchor="start" x="1257.0493" y="-21.5" font-family="Helvetica,sans-Serif" font-size="10.00" fill="#000000">tensorflow/core/platform</text>
<text text-anchor="middle" x="1310.4038" y="-11.5" font-family="Helvetica,sans-Serif" font-size="10.00" fill="#000000">/macros.h</text>
</g>
<!-- Node0&#45;&gt;Node13 -->
<g id="edge13" class="edge">
<title>Node0&#45;&gt;Node13</title>
<path fill="none" stroke="#191970" d="M810.3857,-91.0449C900.7649,-84.733 1086.1041,-69.1248 1240.4038,-39 1244.8419,-38.1335 1249.4095,-37.1274 1253.9833,-36.0377"/>
<polygon fill="#191970" stroke="#191970" points="1255.1076,-39.3644 1263.9582,-33.5406 1253.4076,-32.5739 1255.1076,-39.3644"/>
</g>
<!-- Node14 -->
<g id="node15" class="node">
<title>Node14</title>
<polygon fill="#ffffff" stroke="#bfbfbf" points="1390.0493,-5.5 1390.0493,-33.5 1512.7583,-33.5 1512.7583,-5.5 1390.0493,-5.5"/>
<text text-anchor="start" x="1398.0493" y="-21.5" font-family="Helvetica,sans-Serif" font-size="10.00" fill="#000000">tensorflow/core/platform</text>
<text text-anchor="middle" x="1451.4038" y="-11.5" font-family="Helvetica,sans-Serif" font-size="10.00" fill="#000000">/mutex.h</text>
</g>
<!-- Node0&#45;&gt;Node14 -->
<g id="edge14" class="edge">
<title>Node0&#45;&gt;Node14</title>
<path fill="none" stroke="#191970" d="M810.604,-92.9212C920.0892,-89.0601 1172.1544,-76.5301 1380.4038,-39 1385.1843,-38.1385 1390.1099,-37.1031 1395.0323,-35.9644"/>
<polygon fill="#191970" stroke="#191970" points="1396.2027,-39.2813 1405.0842,-33.5046 1394.5388,-32.4819 1396.2027,-39.2813"/>
</g>
<!-- Node15 -->
<g id="node16" class="node">
<title>Node15</title>
<polygon fill="#ffffff" stroke="#bfbfbf" points="1531.0493,-5.5 1531.0493,-33.5 1653.7583,-33.5 1653.7583,-5.5 1531.0493,-5.5"/>
<text text-anchor="start" x="1539.0493" y="-21.5" font-family="Helvetica,sans-Serif" font-size="10.00" fill="#000000">tensorflow/core/platform</text>
<text text-anchor="middle" x="1592.4038" y="-11.5" font-family="Helvetica,sans-Serif" font-size="10.00" fill="#000000">/thread_annotations.h</text>
</g>
<!-- Node0&#45;&gt;Node15 -->
<g id="edge15" class="edge">
<title>Node0&#45;&gt;Node15</title>
<path fill="none" stroke="#191970" d="M810.5831,-91.9083C962.4527,-84.5512 1384.4104,-62.5417 1521.4038,-39 1526.3939,-38.1425 1531.5395,-37.0835 1536.673,-35.9059"/>
<polygon fill="#191970" stroke="#191970" points="1537.5979,-39.2831 1546.4862,-33.517 1535.9421,-32.4817 1537.5979,-39.2831"/>
</g>
<!-- Node16 -->
<g id="node17" class="node">
<title>Node16</title>
<polygon fill="#ffffff" stroke="#bfbfbf" points="1672.0493,-5.5 1672.0493,-33.5 1794.7583,-33.5 1794.7583,-5.5 1672.0493,-5.5"/>
<text text-anchor="start" x="1680.0493" y="-21.5" font-family="Helvetica,sans-Serif" font-size="10.00" fill="#000000">tensorflow/core/platform</text>
<text text-anchor="middle" x="1733.4038" y="-11.5" font-family="Helvetica,sans-Serif" font-size="10.00" fill="#000000">/types.h</text>
</g>
<!-- Node0&#45;&gt;Node16 -->
<g id="edge16" class="edge">
<title>Node0&#45;&gt;Node16</title>
<path fill="none" stroke="#191970" d="M810.4449,-92.6266C980.6521,-86.5976 1496.9517,-66.4781 1662.4038,-39 1667.3986,-38.1705 1672.5475,-37.1308 1677.6832,-35.9659"/>
<polygon fill="#191970" stroke="#191970" points="1678.6012,-39.3449 1687.4992,-33.5937 1676.9568,-32.5408 1678.6012,-39.3449"/>
</g>
</g>
</svg>
