<?xml version="1.0" encoding="UTF-8" standalone="no"?>
<!DOCTYPE svg PUBLIC "-//W3C//DTD SVG 1.1//EN"
 "http://www.w3.org/Graphics/SVG/1.1/DTD/svg11.dtd">
<!-- Generated by graphviz version 2.40.1 (20161225.0304)
 -->
<!-- Title: xla::cpu::CpuCompiler::ShapeSizeBytesFunction Pages: 1 -->
<svg width="291pt" height="39pt"
 viewBox="0.00 0.00 291.00 39.00" xmlns="http://www.w3.org/2000/svg" xmlns:xlink="http://www.w3.org/1999/xlink">
<g id="graph0" class="graph" transform="scale(1 1) rotate(0) translate(4 35)">
<title>xla::cpu::CpuCompiler::ShapeSizeBytesFunction</title>
<polygon fill="#ffffff" stroke="transparent" points="-4,4 -4,-35 287,-35 287,4 -4,4"/>
<!-- Node48 -->
<g id="node1" class="node">
<title>Node48</title>
<polygon fill="#bfbfbf" stroke="#000000" points="0,-.5 0,-30.5 133,-30.5 133,-.5 0,-.5"/>
<text text-anchor="start" x="8" y="-18.5" font-family="Helvetica,sans-Serif" font-size="10.00" fill="#000000">xla::cpu::CpuCompiler</text>
<text text-anchor="middle" x="66.5" y="-7.5" font-family="Helvetica,sans-Serif" font-size="10.00" fill="#000000">::ShapeSizeBytesFunction</text>
</g>
<!-- Node49 -->
<g id="node2" class="node">
<title>Node49</title>
<g id="a_node2"><a xlink:href="../../d2/d94/classxla_1_1cpu_1_1CpuCompiler.html#ab3bae76bdf9896dcfe3e1e749373f6b1" target="_top" xlink:title="xla::cpu::CpuCompiler\l::RunHloPasses">
<polygon fill="#ffffff" stroke="#000000" points="169,-.5 169,-30.5 283,-30.5 283,-.5 169,-.5"/>
<text text-anchor="start" x="177" y="-18.5" font-family="Helvetica,sans-Serif" font-size="10.00" fill="#000000">xla::cpu::CpuCompiler</text>
<text text-anchor="middle" x="226" y="-7.5" font-family="Helvetica,sans-Serif" font-size="10.00" fill="#000000">::RunHloPasses</text>
</a>
</g>
</g>
<!-- Node48&#45;&gt;Node49 -->
<g id="edge1" class="edge">
<title>Node48&#45;&gt;Node49</title>
<path fill="none" stroke="#191970" d="M143.2268,-15.5C151.791,-15.5 160.4018,-15.5 168.6633,-15.5"/>
<polygon fill="#191970" stroke="#191970" points="143.2182,-12.0001 133.2182,-15.5 143.2182,-19.0001 143.2182,-12.0001"/>
</g>
</g>
</svg>
