<?xml version="1.0" encoding="UTF-8" standalone="no"?>
<!DOCTYPE svg PUBLIC "-//W3C//DTD SVG 1.1//EN"
 "http://www.w3.org/Graphics/SVG/1.1/DTD/svg11.dtd">
<!-- Generated by graphviz version 2.40.1 (20161225.0304)
 -->
<!-- Title: xla::cpu::CpuCompiler::RunHloPasses Pages: 1 -->
<svg width="479pt" height="166pt"
 viewBox="0.00 0.00 479.00 165.50" xmlns="http://www.w3.org/2000/svg" xmlns:xlink="http://www.w3.org/1999/xlink">
<g id="graph0" class="graph" transform="scale(1 1) rotate(0) translate(4 161.5)">
<title>xla::cpu::CpuCompiler::RunHloPasses</title>
<polygon fill="#ffffff" stroke="transparent" points="-4,4 -4,-161.5 475,-161.5 475,4 -4,4"/>
<!-- Node2 -->
<g id="node1" class="node">
<title>Node2</title>
<polygon fill="#bfbfbf" stroke="#000000" points="0,-61 0,-91 124,-91 124,-61 0,-61"/>
<text text-anchor="start" x="8" y="-79" font-family="Helvetica,sans-Serif" font-size="10.00" fill="#000000">xla::cpu::CpuCompiler</text>
<text text-anchor="middle" x="62" y="-68" font-family="Helvetica,sans-Serif" font-size="10.00" fill="#000000">::RunHloPasses</text>
</g>
<!-- Node3 -->
<g id="node2" class="node">
<title>Node3</title>
<g id="a_node2"><a xlink:href="../../d2/dbd/classxla_1_1HloPassPipeline.html#a9bd9a8eb4c18afcb83765613e16f088e" target="_top" xlink:title="xla::HloPassPipeline\l::AddInvariantChecker">
<polygon fill="#ffffff" stroke="#000000" points="177.5,-127 177.5,-157 302.5,-157 302.5,-127 177.5,-127"/>
<text text-anchor="start" x="185.5" y="-145" font-family="Helvetica,sans-Serif" font-size="10.00" fill="#000000">xla::HloPassPipeline</text>
<text text-anchor="middle" x="240" y="-134" font-family="Helvetica,sans-Serif" font-size="10.00" fill="#000000">::AddInvariantChecker</text>
</a>
</g>
</g>
<!-- Node2&#45;&gt;Node3 -->
<g id="edge1" class="edge">
<title>Node2&#45;&gt;Node3</title>
<path fill="none" stroke="#191970" d="M102.8368,-91.1417C128.7285,-100.742 162.4026,-113.2279 189.9054,-123.4256"/>
<polygon fill="#191970" stroke="#191970" points="188.7602,-126.7338 199.3532,-126.9287 191.1938,-120.1704 188.7602,-126.7338"/>
</g>
<!-- Node4 -->
<g id="node3" class="node">
<title>Node4</title>
<g id="a_node3"><a xlink:href="../../d2/dbd/classxla_1_1HloPassPipeline.html#ab0bacc2152a8a12a8dfa3e4914554c1c" target="_top" xlink:title="Add a pass to the pipeline. It should be called with the arguments for the pass constructor: ...">
<polygon fill="#ffffff" stroke="#000000" points="356,-61 356,-91 471,-91 471,-61 356,-61"/>
<text text-anchor="start" x="364" y="-79" font-family="Helvetica,sans-Serif" font-size="10.00" fill="#000000">xla::HloPassPipeline</text>
<text text-anchor="middle" x="413.5" y="-68" font-family="Helvetica,sans-Serif" font-size="10.00" fill="#000000">::AddPass</text>
</a>
</g>
</g>
<!-- Node2&#45;&gt;Node4 -->
<g id="edge2" class="edge">
<title>Node2&#45;&gt;Node4</title>
<path fill="none" stroke="#191970" d="M124.2047,-78.1909C136.0869,-78.5282 148.4265,-78.8229 160,-79 231.1028,-80.0881 248.898,-80.1404 320,-79 328.2869,-78.8671 336.9854,-78.668 345.602,-78.4343"/>
<polygon fill="#191970" stroke="#191970" points="345.7546,-81.9314 355.65,-78.146 345.5538,-74.9343 345.7546,-81.9314"/>
</g>
<!-- Node5 -->
<g id="node4" class="node">
<title>Node5</title>
<g id="a_node4"><a xlink:href="../../d2/d62/classxla_1_1ReducePrecisionInsertion.html#aba1c5793f719bc13e0880999cd5daa17" target="_top" xlink:title="xla::ReducePrecisionInsertion\l::AddPasses">
<polygon fill="#ffffff" stroke="#000000" points="160,-39 160,-69 320,-69 320,-39 160,-39"/>
<text text-anchor="start" x="168" y="-57" font-family="Helvetica,sans-Serif" font-size="10.00" fill="#000000">xla::ReducePrecisionInsertion</text>
<text text-anchor="middle" x="240" y="-46" font-family="Helvetica,sans-Serif" font-size="10.00" fill="#000000">::AddPasses</text>
</a>
</g>
</g>
<!-- Node2&#45;&gt;Node5 -->
<g id="edge3" class="edge">
<title>Node2&#45;&gt;Node5</title>
<path fill="none" stroke="#191970" d="M124.2558,-68.3055C132.5424,-67.2813 141.17,-66.2149 149.8126,-65.1468"/>
<polygon fill="#191970" stroke="#191970" points="150.4504,-68.5947 159.9455,-63.8944 149.5917,-61.6475 150.4504,-68.5947"/>
</g>
<!-- Node6 -->
<g id="node5" class="node">
<title>Node6</title>
<g id="a_node5"><a xlink:href="../../d2/dbd/classxla_1_1HloPassPipeline.html#ab27120e575c66e2991a9085a94c88169" target="_top" xlink:title="Run the Hlo pipeline by invoking each class&#39; Run method. ">
<polygon fill="#ffffff" stroke="#000000" points="170.5,-.5 170.5,-19.5 309.5,-19.5 309.5,-.5 170.5,-.5"/>
<text text-anchor="middle" x="240" y="-7.5" font-family="Helvetica,sans-Serif" font-size="10.00" fill="#000000">xla::HloPassPipeline::Run</text>
</a>
</g>
</g>
<!-- Node2&#45;&gt;Node6 -->
<g id="edge5" class="edge">
<title>Node2&#45;&gt;Node6</title>
<path fill="none" stroke="#191970" d="M90.5382,-60.803C109.7654,-51.0173 135.9185,-38.5705 160,-30 168.0462,-27.1364 176.6867,-24.5213 185.2075,-22.1945"/>
<polygon fill="#191970" stroke="#191970" points="186.327,-25.5193 195.1125,-19.5977 184.5518,-18.7481 186.327,-25.5193"/>
</g>
<!-- Node5&#45;&gt;Node4 -->
<g id="edge4" class="edge">
<title>Node5&#45;&gt;Node4</title>
<path fill="none" stroke="#191970" d="M320.1478,-64.1628C328.7326,-65.2514 337.4041,-66.351 345.8235,-67.4185"/>
<polygon fill="#191970" stroke="#191970" points="345.5845,-70.9162 355.9454,-68.702 346.4652,-63.9718 345.5845,-70.9162"/>
</g>
</g>
</svg>
