<?xml version="1.0" encoding="UTF-8" standalone="no"?>
<!DOCTYPE svg PUBLIC "-//W3C//DTD SVG 1.1//EN"
 "http://www.w3.org/Graphics/SVG/1.1/DTD/svg11.dtd">
<!-- Generated by graphviz version 2.40.1 (20161225.0304)
 -->
<!-- Title: tensorflow/tensorflow/compiler/aot Pages: 1 -->
<svg width="134pt" height="151pt"
 viewBox="0.00 0.00 134.00 151.00" xmlns="http://www.w3.org/2000/svg" xmlns:xlink="http://www.w3.org/1999/xlink">
<g id="graph0" class="graph" transform="scale(1 1) rotate(0) translate(4 147)">
<title>tensorflow/tensorflow/compiler/aot</title>
<polygon fill="#ffffff" stroke="transparent" points="-4,4 -4,-147 130,-147 130,4 -4,4"/>
<g id="clust1" class="cluster">
<title>clusterdir_35e171c11ba32daff3400401598418ce</title>
<g id="a_clust1"><a xlink:href="dir_35e171c11ba32daff3400401598418ce.html" target="_top" xlink:title="compiler">
<polygon fill="#ddddee" stroke="#000000" points="28,-64 28,-135 98,-135 98,-64 28,-64"/>
<text text-anchor="middle" x="63" y="-123" font-family="Helvetica,sans-Serif" font-size="10.00" fill="#000000">compiler</text>
</a>
</g>
</g>
<!-- dir_d075286e861c51843f275f8953d4e234 -->
<g id="node1" class="node">
<title>dir_d075286e861c51843f275f8953d4e234</title>
<g id="a_node1"><a xlink:href="dir_d075286e861c51843f275f8953d4e234.html" target="_top" xlink:title="aot">
<polygon fill="#eeeeff" stroke="#000000" points="90,-108 36,-108 36,-72 90,-72 90,-108"/>
<text text-anchor="middle" x="63" y="-87.5" font-family="Helvetica,sans-Serif" font-size="10.00" fill="#000000">aot</text>
</a>
</g>
</g>
<!-- dir_65d27d648b6c8d7c473b428cec9844b6 -->
<g id="node2" class="node">
<title>dir_65d27d648b6c8d7c473b428cec9844b6</title>
<g id="a_node2"><a xlink:href="dir_65d27d648b6c8d7c473b428cec9844b6.html" target="_top" xlink:title="xla">
<polygon fill="#ffffff" stroke="#ff0000" points="54,-36 0,-36 0,0 54,0 54,-36"/>
<text text-anchor="middle" x="27" y="-15.5" font-family="Helvetica,sans-Serif" font-size="10.00" fill="#000000">xla</text>
</a>
</g>
</g>
<!-- dir_d075286e861c51843f275f8953d4e234&#45;&gt;dir_65d27d648b6c8d7c473b428cec9844b6 -->
<g id="edge1" class="edge">
<title>dir_d075286e861c51843f275f8953d4e234&#45;&gt;dir_65d27d648b6c8d7c473b428cec9844b6</title>
<path fill="none" stroke="#000000" d="M53.9157,-71.8314C49.9385,-63.8771 45.1845,-54.369 40.7861,-45.5723"/>
<polygon fill="#000000" stroke="#000000" points="43.8093,-43.7923 36.2066,-36.4133 37.5483,-46.9228 43.8093,-43.7923"/>
<g id="a_edge1&#45;headlabel"><a xlink:href="dir_000003_000005.html" target="_top" xlink:title="1">
<text text-anchor="middle" x="47.9563" y="-43.2377" font-family="Helvetica,sans-Serif" font-size="10.00" fill="#000000">1</text>
</a>
</g>
</g>
<!-- dir_4a3cfe425e67df9180c6e183677a1167 -->
<g id="node3" class="node">
<title>dir_4a3cfe425e67df9180c6e183677a1167</title>
<g id="a_node3"><a xlink:href="dir_4a3cfe425e67df9180c6e183677a1167.html" target="_top" xlink:title="tf2xla">
<polygon fill="none" stroke="#000000" points="126,-36 72,-36 72,0 126,0 126,-36"/>
<text text-anchor="middle" x="99" y="-15.5" font-family="Helvetica,sans-Serif" font-size="10.00" fill="#000000">tf2xla</text>
</a>
</g>
</g>
<!-- dir_d075286e861c51843f275f8953d4e234&#45;&gt;dir_4a3cfe425e67df9180c6e183677a1167 -->
<g id="edge2" class="edge">
<title>dir_d075286e861c51843f275f8953d4e234&#45;&gt;dir_4a3cfe425e67df9180c6e183677a1167</title>
<path fill="none" stroke="#000000" d="M72.0843,-71.8314C76.0615,-63.8771 80.8155,-54.369 85.2139,-45.5723"/>
<polygon fill="#000000" stroke="#000000" points="88.4517,-46.9228 89.7934,-36.4133 82.1907,-43.7923 88.4517,-46.9228"/>
<g id="a_edge2&#45;headlabel"><a xlink:href="dir_000003_000004.html" target="_top" xlink:title="3">
<text text-anchor="middle" x="89.3837" y="-48.9077" font-family="Helvetica,sans-Serif" font-size="10.00" fill="#000000">3</text>
</a>
</g>
</g>
</g>
</svg>
