<?xml version="1.0" encoding="UTF-8" standalone="no"?>
<!DOCTYPE svg PUBLIC "-//W3C//DTD SVG 1.1//EN"
 "http://www.w3.org/Graphics/SVG/1.1/DTD/svg11.dtd">
<!-- Generated by graphviz version 2.40.1 (20161225.0304)
 -->
<!-- Title: tensorflow/tensorflow Pages: 1 -->
<svg width="190pt" height="182pt"
 viewBox="0.00 0.00 190.00 182.00" xmlns="http://www.w3.org/2000/svg" xmlns:xlink="http://www.w3.org/1999/xlink">
<g id="graph0" class="graph" transform="scale(1 1) rotate(0) translate(4 178)">
<title>tensorflow/tensorflow</title>
<polygon fill="#ffffff" stroke="transparent" points="-4,4 -4,-178 186,-178 186,4 -4,4"/>
<g id="clust1" class="cluster">
<title>clusterdir_aebb2560abf93afd5af145563db9a4dd</title>
<g id="a_clust1"><a xlink:href="dir_aebb2560abf93afd5af145563db9a4dd.html" target="_top" xlink:title="tensorflow">
<polygon fill="#ddddee" stroke="#000000" points="8,-8 8,-166 174,-166 174,-8 8,-8"/>
<text text-anchor="middle" x="91" y="-154" font-family="Helvetica,sans-Serif" font-size="10.00" fill="#000000">tensorflow</text>
</a>
</g>
</g>
<g id="clust2" class="cluster">
<title>clusterdir_20ceb55edc1bc5420a2145fe0b53e73a</title>
<g id="a_clust2"><a xlink:href="dir_20ceb55edc1bc5420a2145fe0b53e73a.html" target="_top">
<polygon fill="#eeeeff" stroke="#000000" points="16,-16 16,-140 166,-140 166,-16 16,-16"/>
</a>
</g>
</g>
<!-- dir_20ceb55edc1bc5420a2145fe0b53e73a -->
<g id="node1" class="node">
<title>dir_20ceb55edc1bc5420a2145fe0b53e73a</title>
<text text-anchor="middle" x="127" y="-111" font-family="Helvetica,sans-Serif" font-size="10.00" fill="#000000">tensorflow</text>
</g>
<!-- dir_35e171c11ba32daff3400401598418ce -->
<g id="node2" class="node">
<title>dir_35e171c11ba32daff3400401598418ce</title>
<g id="a_node2"><a xlink:href="dir_35e171c11ba32daff3400401598418ce.html" target="_top" xlink:title="compiler">
<polygon fill="#ffffff" stroke="#ff0000" points="78,-132 24,-132 24,-96 78,-96 78,-132"/>
<text text-anchor="middle" x="51" y="-111" font-family="Helvetica,sans-Serif" font-size="10.00" fill="#000000">compiler</text>
</a>
</g>
</g>
<!-- dir_13a028fedcb26a4af0b3346e8a3b283e -->
<g id="node3" class="node">
<title>dir_13a028fedcb26a4af0b3346e8a3b283e</title>
<g id="a_node3"><a xlink:href="dir_13a028fedcb26a4af0b3346e8a3b283e.html" target="_top" xlink:title="core">
<polygon fill="#ffffff" stroke="#ff0000" points="78,-60 24,-60 24,-24 78,-24 78,-60"/>
<text text-anchor="middle" x="51" y="-39" font-family="Helvetica,sans-Serif" font-size="10.00" fill="#000000">core</text>
</a>
</g>
</g>
<!-- dir_35e171c11ba32daff3400401598418ce&#45;&gt;dir_13a028fedcb26a4af0b3346e8a3b283e -->
<g id="edge1" class="edge">
<title>dir_35e171c11ba32daff3400401598418ce&#45;&gt;dir_13a028fedcb26a4af0b3346e8a3b283e</title>
<path fill="none" stroke="#000000" d="M51,-95.8314C51,-88.131 51,-78.9743 51,-70.4166"/>
<polygon fill="#000000" stroke="#000000" points="54.5001,-70.4132 51,-60.4133 47.5001,-70.4133 54.5001,-70.4132"/>
<g id="a_edge1&#45;headlabel"><a xlink:href="dir_000002_000009.html" target="_top" xlink:title="4">
<text text-anchor="middle" x="57.3393" y="-71.0079" font-family="Helvetica,sans-Serif" font-size="10.00" fill="#000000">4</text>
</a>
</g>
</g>
</g>
</svg>
