<?xml version="1.0" encoding="UTF-8" standalone="no"?>
<!DOCTYPE svg PUBLIC "-//W3C//DTD SVG 1.1//EN"
 "http://www.w3.org/Graphics/SVG/1.1/DTD/svg11.dtd">
<!-- Generated by graphviz version 2.40.1 (20161225.0304)
 -->
<!-- Title: Graphical Class Hierarchy Pages: 1 -->
<svg width="393pt" height="28pt"
 viewBox="0.00 0.00 393.00 28.00" xmlns="http://www.w3.org/2000/svg" xmlns:xlink="http://www.w3.org/1999/xlink">
<g id="graph0" class="graph" transform="scale(1 1) rotate(0) translate(4 24)">
<title>Graphical Class Hierarchy</title>
<polygon fill="#ffffff" stroke="transparent" points="-4,4 -4,-24 389,-24 389,4 -4,4"/>
<!-- Node0 -->
<g id="node1" class="node">
<title>Node0</title>
<g id="a_node1"><a xlink:href="d3/d3e/classxla_1_1Compiler.html" target="_top" xlink:title="xla::Compiler">
<polygon fill="#ffffff" stroke="#000000" points="0,-.5 0,-19.5 82,-19.5 82,-.5 0,-.5"/>
<text text-anchor="middle" x="41" y="-7.5" font-family="Helvetica,sans-Serif" font-size="10.00" fill="#000000">xla::Compiler</text>
</a>
</g>
</g>
<!-- Node1 -->
<g id="node2" class="node">
<title>Node1</title>
<g id="a_node2"><a xlink:href="d5/d52/classxla_1_1LLVMCompiler.html" target="_top" xlink:title="xla::LLVMCompiler">
<polygon fill="#ffffff" stroke="#000000" points="118,-.5 118,-19.5 225,-19.5 225,-.5 118,-.5"/>
<text text-anchor="middle" x="171.5" y="-7.5" font-family="Helvetica,sans-Serif" font-size="10.00" fill="#000000">xla::LLVMCompiler</text>
</a>
</g>
</g>
<!-- Node0&#45;&gt;Node1 -->
<g id="edge1" class="edge">
<title>Node0&#45;&gt;Node1</title>
<path fill="none" stroke="#191970" d="M92.5141,-10C100.7471,-10 109.2857,-10 117.5729,-10"/>
<polygon fill="#191970" stroke="#191970" points="92.291,-6.5001 82.291,-10 92.291,-13.5001 92.291,-6.5001"/>
</g>
<!-- Node2 -->
<g id="node3" class="node">
<title>Node2</title>
<g id="a_node3"><a xlink:href="d2/d94/classxla_1_1cpu_1_1CpuCompiler.html" target="_top" xlink:title="xla::cpu::CpuCompiler">
<polygon fill="#ffffff" stroke="#000000" points="261,-.5 261,-19.5 385,-19.5 385,-.5 261,-.5"/>
<text text-anchor="middle" x="323" y="-7.5" font-family="Helvetica,sans-Serif" font-size="10.00" fill="#000000">xla::cpu::CpuCompiler</text>
</a>
</g>
</g>
<!-- Node1&#45;&gt;Node2 -->
<g id="edge2" class="edge">
<title>Node1&#45;&gt;Node2</title>
<path fill="none" stroke="#191970" d="M235.4522,-10C243.8465,-10 252.439,-10 260.8036,-10"/>
<polygon fill="#191970" stroke="#191970" points="235.3398,-6.5001 225.3398,-10 235.3398,-13.5001 235.3398,-6.5001"/>
</g>
</g>
</svg>
