<?xml version="1.0" encoding="UTF-8" standalone="no"?>
<!DOCTYPE svg PUBLIC "-//W3C//DTD SVG 1.1//EN"
 "http://www.w3.org/Graphics/SVG/1.1/DTD/svg11.dtd">
<!-- Generated by graphviz version 2.40.1 (20161225.0304)
 -->
<!-- Title: tensorflow/tensorflow/compiler/xla/service/hlo_module.cc Pages: 1 -->
<svg width="3371pt" height="351pt"
 viewBox="0.00 0.00 3371.00 351.00" xmlns="http://www.w3.org/2000/svg" xmlns:xlink="http://www.w3.org/1999/xlink">
<g id="graph0" class="graph" transform="scale(1 1) rotate(0) translate(4 347)">
<title>tensorflow/tensorflow/compiler/xla/service/hlo_module.cc</title>
<polygon fill="#ffffff" stroke="transparent" points="-4,4 -4,-347 3367,-347 3367,4 -4,4"/>
<!-- Node0 -->
<g id="node1" class="node">
<title>Node0</title>
<polygon fill="#bfbfbf" stroke="#000000" points="2614.5,-301.5 2614.5,-342.5 2736.5,-342.5 2736.5,-301.5 2614.5,-301.5"/>
<text text-anchor="start" x="2622.5" y="-330.5" font-family="Helvetica,sans-Serif" font-size="10.00" fill="#000000">tensorflow/tensorflow</text>
<text text-anchor="start" x="2622.5" y="-319.5" font-family="Helvetica,sans-Serif" font-size="10.00" fill="#000000">/compiler/xla/service</text>
<text text-anchor="middle" x="2675.5" y="-308.5" font-family="Helvetica,sans-Serif" font-size="10.00" fill="#000000">/hlo_module.cc</text>
</g>
<!-- Node1 -->
<g id="node2" class="node">
<title>Node1</title>
<g id="a_node2"><a xlink:href="../../db/da0/hlo__module_8h.html" target="_top" xlink:title="tensorflow/compiler\l/xla/service/hlo_module.h">
<polygon fill="#ffffff" stroke="#000000" points="1906.5,-234.5 1906.5,-264.5 2048.5,-264.5 2048.5,-234.5 1906.5,-234.5"/>
<text text-anchor="start" x="1914.5" y="-252.5" font-family="Helvetica,sans-Serif" font-size="10.00" fill="#000000">tensorflow/compiler</text>
<text text-anchor="middle" x="1977.5" y="-241.5" font-family="Helvetica,sans-Serif" font-size="10.00" fill="#000000">/xla/service/hlo_module.h</text>
</a>
</g>
</g>
<!-- Node0&#45;&gt;Node1 -->
<g id="edge1" class="edge">
<title>Node0&#45;&gt;Node1</title>
<path fill="none" stroke="#191970" d="M2614.4738,-315.6613C2488.6563,-302.5929 2200.3886,-272.651 2058.8861,-257.9534"/>
<polygon fill="#191970" stroke="#191970" points="2058.8515,-254.4311 2048.5434,-256.8791 2058.1283,-261.3936 2058.8515,-254.4311"/>
</g>
<!-- Node7 -->
<g id="node8" class="node">
<title>Node7</title>
<polygon fill="#ffffff" stroke="#bfbfbf" points="236,-11.5 236,-30.5 329,-30.5 329,-11.5 236,-11.5"/>
<text text-anchor="middle" x="282.5" y="-18.5" font-family="Helvetica,sans-Serif" font-size="10.00" fill="#000000">unordered_map</text>
</g>
<!-- Node0&#45;&gt;Node7 -->
<g id="edge80" class="edge">
<title>Node0&#45;&gt;Node7</title>
<path fill="none" stroke="#191970" d="M2614.3865,-321.1665C2343.938,-317.3022 1253.1352,-299.8223 912.5,-265 738.8464,-247.2478 686.9591,-264.3452 525.5,-198 469.3924,-174.9448 462.5954,-155.6265 413.5,-120 374.0795,-91.3941 328.9267,-56.8742 303.2521,-37.0762"/>
<polygon fill="#191970" stroke="#191970" points="305.078,-34.0641 295.0244,-30.7212 300.7991,-39.604 305.078,-34.0641"/>
</g>
<!-- Node12 -->
<g id="node13" class="node">
<title>Node12</title>
<polygon fill="#ffffff" stroke="#bfbfbf" points="131.5,-11.5 131.5,-30.5 217.5,-30.5 217.5,-11.5 131.5,-11.5"/>
<text text-anchor="middle" x="174.5" y="-18.5" font-family="Helvetica,sans-Serif" font-size="10.00" fill="#000000">unordered_set</text>
</g>
<!-- Node0&#45;&gt;Node12 -->
<g id="edge81" class="edge">
<title>Node0&#45;&gt;Node12</title>
<path fill="none" stroke="#191970" d="M2614.2612,-321.5298C2294.8672,-318.9122 827.1445,-304.7915 628.5,-265 442.8505,-227.8116 253.9367,-85.4061 193.9841,-37.1213"/>
<polygon fill="#191970" stroke="#191970" points="196.0574,-34.2961 186.0901,-30.7039 191.6418,-39.7278 196.0574,-34.2961"/>
</g>
<!-- Node13 -->
<g id="node14" class="node">
<title>Node13</title>
<polygon fill="#ffffff" stroke="#bfbfbf" points="2396,-89.5 2396,-108.5 2441,-108.5 2441,-89.5 2396,-89.5"/>
<text text-anchor="middle" x="2418.5" y="-96.5" font-family="Helvetica,sans-Serif" font-size="10.00" fill="#000000">utility</text>
</g>
<!-- Node0&#45;&gt;Node13 -->
<g id="edge82" class="edge">
<title>Node0&#45;&gt;Node13</title>
<path fill="none" stroke="#191970" d="M2651.7827,-301.4204C2601.1296,-257.4685 2483.264,-155.196 2437.3151,-115.326"/>
<polygon fill="#191970" stroke="#191970" points="2439.4517,-112.5459 2429.6048,-108.6357 2434.864,-117.8331 2439.4517,-112.5459"/>
</g>
<!-- Node14 -->
<g id="node15" class="node">
<title>Node14</title>
<polygon fill="#ffffff" stroke="#bfbfbf" points="0,-6 0,-36 113,-36 113,-6 0,-6"/>
<text text-anchor="start" x="8" y="-24" font-family="Helvetica,sans-Serif" font-size="10.00" fill="#000000">tensorflow/compiler</text>
<text text-anchor="middle" x="56.5" y="-13" font-family="Helvetica,sans-Serif" font-size="10.00" fill="#000000">/xla/map_util.h</text>
</g>
<!-- Node0&#45;&gt;Node14 -->
<g id="edge83" class="edge">
<title>Node0&#45;&gt;Node14</title>
<path fill="none" stroke="#191970" d="M2614.2858,-321.7418C2284.8166,-320.1702 729.6047,-310.3838 520.5,-265 359.1591,-229.9828 319.9905,-205.0737 178.5,-120 141.1157,-97.522 102.8292,-64.4937 79.3567,-42.8684"/>
<polygon fill="#191970" stroke="#191970" points="81.69,-40.2585 71.9871,-36.0034 76.9187,-45.3806 81.69,-40.2585"/>
</g>
<!-- Node20 -->
<g id="node21" class="node">
<title>Node20</title>
<polygon fill="#ffffff" stroke="#bfbfbf" points="347.5,-11.5 347.5,-30.5 379.5,-30.5 379.5,-11.5 347.5,-11.5"/>
<text text-anchor="middle" x="363.5" y="-18.5" font-family="Helvetica,sans-Serif" font-size="10.00" fill="#000000">set</text>
</g>
<!-- Node0&#45;&gt;Node20 -->
<g id="edge78" class="edge">
<title>Node0&#45;&gt;Node20</title>
<path fill="none" stroke="#191970" d="M2614.4965,-320.8384C2320.6106,-314.8471 1049.2062,-284.3118 663.5,-198 572.0071,-177.5261 546.4452,-170.5746 467.5,-120 431.3656,-96.8512 396.8003,-60.0681 378.0337,-38.4554"/>
<polygon fill="#191970" stroke="#191970" points="380.5833,-36.0512 371.4287,-30.7179 375.2592,-40.596 380.5833,-36.0512"/>
</g>
<!-- Node26 -->
<g id="node27" class="node">
<title>Node26</title>
<polygon fill="#ffffff" stroke="#bfbfbf" points="3242,-6 3242,-36 3355,-36 3355,-6 3242,-6"/>
<text text-anchor="start" x="3250" y="-24" font-family="Helvetica,sans-Serif" font-size="10.00" fill="#000000">tensorflow/compiler</text>
<text text-anchor="middle" x="3298.5" y="-13" font-family="Helvetica,sans-Serif" font-size="10.00" fill="#000000">/xla/types.h</text>
</g>
<!-- Node0&#45;&gt;Node26 -->
<g id="edge86" class="edge">
<title>Node0&#45;&gt;Node26</title>
<path fill="none" stroke="#191970" d="M2679.4421,-301.4915C2684.2544,-281.7049 2694.2514,-252.1551 2713.5,-234 2733.8242,-214.8304 3103.0148,-87.6516 3244.2085,-39.4628"/>
<polygon fill="#191970" stroke="#191970" points="3245.6379,-42.6733 3253.9725,-36.1323 3243.378,-36.0482 3245.6379,-42.6733"/>
</g>
<!-- Node36 -->
<g id="node37" class="node">
<title>Node36</title>
<polygon fill="#ffffff" stroke="#bfbfbf" points="3087,-6 3087,-36 3224,-36 3224,-6 3087,-6"/>
<text text-anchor="start" x="3095" y="-24" font-family="Helvetica,sans-Serif" font-size="10.00" fill="#000000">tensorflow/core/platform</text>
<text text-anchor="middle" x="3155.5" y="-13" font-family="Helvetica,sans-Serif" font-size="10.00" fill="#000000">/types.h</text>
</g>
<!-- Node0&#45;&gt;Node36 -->
<g id="edge89" class="edge">
<title>Node0&#45;&gt;Node36</title>
<path fill="none" stroke="#191970" d="M2667.9344,-301.3289C2652.3136,-254.6121 2622.567,-140.1336 2680.5,-78 2710.705,-45.6048 3033.8977,-49.7863 3077.5,-42 3083.1602,-40.9892 3089.0081,-39.7635 3094.8384,-38.4177"/>
<polygon fill="#191970" stroke="#191970" points="3095.7012,-41.8101 3104.5974,-36.0562 3094.0547,-35.0064 3095.7012,-41.8101"/>
</g>
<!-- Node45 -->
<g id="node45" class="node">
<title>Node45</title>
<polygon fill="#ffffff" stroke="#bfbfbf" points="2723,-240 2723,-259 2776,-259 2776,-240 2723,-240"/>
<text text-anchor="middle" x="2749.5" y="-247" font-family="Helvetica,sans-Serif" font-size="10.00" fill="#000000">iterator</text>
</g>
<!-- Node0&#45;&gt;Node45 -->
<g id="edge77" class="edge">
<title>Node0&#45;&gt;Node45</title>
<path fill="none" stroke="#191970" d="M2696.5075,-301.4183C2707.923,-290.2342 2721.8535,-276.5861 2732.5664,-266.0904"/>
<polygon fill="#191970" stroke="#191970" points="2735.0226,-268.5838 2739.7163,-259.0853 2730.1238,-263.5836 2735.0226,-268.5838"/>
</g>
<!-- Node46 -->
<g id="node46" class="node">
<title>Node46</title>
<polygon fill="#ffffff" stroke="#bfbfbf" points="2794.5,-240 2794.5,-259 2850.5,-259 2850.5,-240 2794.5,-240"/>
<text text-anchor="middle" x="2822.5" y="-247" font-family="Helvetica,sans-Serif" font-size="10.00" fill="#000000">sstream</text>
</g>
<!-- Node0&#45;&gt;Node46 -->
<g id="edge79" class="edge">
<title>Node0&#45;&gt;Node46</title>
<path fill="none" stroke="#191970" d="M2717.2311,-301.4183C2741.7793,-289.3112 2772.182,-274.3167 2793.9931,-263.5595"/>
<polygon fill="#191970" stroke="#191970" points="2795.6445,-266.6477 2803.0649,-259.0853 2792.5482,-260.3697 2795.6445,-266.6477"/>
</g>
<!-- Node47 -->
<g id="node47" class="node">
<title>Node47</title>
<polygon fill="#ffffff" stroke="#bfbfbf" points="2869,-234.5 2869,-264.5 2982,-264.5 2982,-234.5 2869,-234.5"/>
<text text-anchor="start" x="2877" y="-252.5" font-family="Helvetica,sans-Serif" font-size="10.00" fill="#000000">tensorflow/compiler</text>
<text text-anchor="middle" x="2925.5" y="-241.5" font-family="Helvetica,sans-Serif" font-size="10.00" fill="#000000">/xla/ptr_util.h</text>
</g>
<!-- Node0&#45;&gt;Node47 -->
<g id="edge84" class="edge">
<title>Node0&#45;&gt;Node47</title>
<path fill="none" stroke="#191970" d="M2736.6569,-304.2645C2775.139,-293.1047 2824.6561,-278.7447 2863.3298,-267.5294"/>
<polygon fill="#191970" stroke="#191970" points="2864.7928,-270.7494 2873.4222,-264.6025 2862.8431,-264.0264 2864.7928,-270.7494"/>
</g>
<!-- Node48 -->
<g id="node48" class="node">
<title>Node48</title>
<polygon fill="#ffffff" stroke="#bfbfbf" points="3000,-234.5 3000,-264.5 3113,-264.5 3113,-234.5 3000,-234.5"/>
<text text-anchor="start" x="3008" y="-252.5" font-family="Helvetica,sans-Serif" font-size="10.00" fill="#000000">tensorflow/compiler</text>
<text text-anchor="middle" x="3056.5" y="-241.5" font-family="Helvetica,sans-Serif" font-size="10.00" fill="#000000">/xla/shape_util.h</text>
</g>
<!-- Node0&#45;&gt;Node48 -->
<g id="edge85" class="edge">
<title>Node0&#45;&gt;Node48</title>
<path fill="none" stroke="#191970" d="M2736.6566,-311.8965C2798.0826,-301.5308 2895.6695,-284.4729 2989.6926,-265.1097"/>
<polygon fill="#191970" stroke="#191970" points="2990.5773,-268.5008 2999.6597,-263.0454 2989.1576,-261.6462 2990.5773,-268.5008"/>
</g>
<!-- Node49 -->
<g id="node49" class="node">
<title>Node49</title>
<polygon fill="#ffffff" stroke="#bfbfbf" points="3131,-234.5 3131,-264.5 3238,-264.5 3238,-234.5 3131,-234.5"/>
<text text-anchor="start" x="3139" y="-252.5" font-family="Helvetica,sans-Serif" font-size="10.00" fill="#000000">tensorflow/core/lib</text>
<text text-anchor="middle" x="3184.5" y="-241.5" font-family="Helvetica,sans-Serif" font-size="10.00" fill="#000000">/gtl/map_util.h</text>
</g>
<!-- Node0&#45;&gt;Node49 -->
<g id="edge87" class="edge">
<title>Node0&#45;&gt;Node49</title>
<path fill="none" stroke="#191970" d="M2736.8026,-316.4015C2821.1556,-308.2025 2977.8552,-291.1969 3121.121,-264.9348"/>
<polygon fill="#191970" stroke="#191970" points="3121.7788,-268.3726 3130.9742,-263.1098 3120.504,-261.4896 3121.7788,-268.3726"/>
</g>
<!-- Node50 -->
<g id="node50" class="node">
<title>Node50</title>
<polygon fill="#ffffff" stroke="#bfbfbf" points="3256,-234.5 3256,-264.5 3363,-264.5 3363,-234.5 3256,-234.5"/>
<text text-anchor="start" x="3264" y="-252.5" font-family="Helvetica,sans-Serif" font-size="10.00" fill="#000000">tensorflow/core/lib</text>
<text text-anchor="middle" x="3309.5" y="-241.5" font-family="Helvetica,sans-Serif" font-size="10.00" fill="#000000">/strings/strcat.h</text>
</g>
<!-- Node0&#45;&gt;Node50 -->
<g id="edge88" class="edge">
<title>Node0&#45;&gt;Node50</title>
<path fill="none" stroke="#191970" d="M2736.7271,-318.7434C2839.8803,-312.632 3054.8973,-297.2095 3246.0444,-264.9119"/>
<polygon fill="#191970" stroke="#191970" points="3246.7249,-268.3464 3255.9924,-263.2119 3245.5457,-261.4464 3246.7249,-268.3464"/>
</g>
<!-- Node2 -->
<g id="node3" class="node">
<title>Node2</title>
<polygon fill="#ffffff" stroke="#bfbfbf" points="1270.5,-167.5 1270.5,-186.5 1320.5,-186.5 1320.5,-167.5 1270.5,-167.5"/>
<text text-anchor="middle" x="1295.5" y="-174.5" font-family="Helvetica,sans-Serif" font-size="10.00" fill="#000000">atomic</text>
</g>
<!-- Node1&#45;&gt;Node2 -->
<g id="edge2" class="edge">
<title>Node1&#45;&gt;Node2</title>
<path fill="none" stroke="#191970" d="M1906.2423,-248.1719C1760.6573,-244.7548 1433.9426,-233.2891 1328.5,-198 1324.2256,-196.5695 1319.9493,-194.469 1315.9594,-192.1422"/>
<polygon fill="#191970" stroke="#191970" points="1317.5959,-189.0313 1307.3052,-186.5109 1313.7781,-194.8986 1317.5959,-189.0313"/>
</g>
<!-- Node3 -->
<g id="node4" class="node">
<title>Node3</title>
<polygon fill="#ffffff" stroke="#bfbfbf" points="397.5,-11.5 397.5,-30.5 429.5,-30.5 429.5,-11.5 397.5,-11.5"/>
<text text-anchor="middle" x="413.5" y="-18.5" font-family="Helvetica,sans-Serif" font-size="10.00" fill="#000000">list</text>
</g>
<!-- Node1&#45;&gt;Node3 -->
<g id="edge3" class="edge">
<title>Node1&#45;&gt;Node3</title>
<path fill="none" stroke="#191970" d="M1906.1004,-248.723C1651.0672,-245.0843 786.8701,-225.0973 534.5,-120 490.3146,-101.5994 449.5878,-61.5731 428.5208,-38.4457"/>
<polygon fill="#191970" stroke="#191970" points="430.9426,-35.9023 421.6789,-30.761 425.7145,-40.5571 430.9426,-35.9023"/>
</g>
<!-- Node4 -->
<g id="node5" class="node">
<title>Node4</title>
<polygon fill="#ffffff" stroke="#bfbfbf" points="2879.5,-11.5 2879.5,-30.5 2937.5,-30.5 2937.5,-11.5 2879.5,-11.5"/>
<text text-anchor="middle" x="2908.5" y="-18.5" font-family="Helvetica,sans-Serif" font-size="10.00" fill="#000000">memory</text>
</g>
<!-- Node1&#45;&gt;Node4 -->
<g id="edge4" class="edge">
<title>Node1&#45;&gt;Node4</title>
<path fill="none" stroke="#191970" d="M2048.5675,-244.6007C2103.3132,-238.7398 2179.8163,-225.9268 2241.5,-198 2293.1681,-174.6077 2299.4836,-156.9646 2342.5,-120 2363.0041,-102.3805 2361.7961,-88.9809 2386.5,-78 2583.2049,9.4355 2662.871,-102.3509 2869.5,-42 2874.8078,-40.4497 2880.2108,-38.1135 2885.2368,-35.5552"/>
<polygon fill="#191970" stroke="#191970" points="2887.2729,-38.4279 2894.3128,-30.5102 2883.8719,-32.3096 2887.2729,-38.4279"/>
</g>
<!-- Node5 -->
<g id="node6" class="node">
<title>Node5</title>
<polygon fill="#ffffff" stroke="#bfbfbf" points="1636.5,-167.5 1636.5,-186.5 1690.5,-186.5 1690.5,-167.5 1636.5,-167.5"/>
<text text-anchor="middle" x="1663.5" y="-174.5" font-family="Helvetica,sans-Serif" font-size="10.00" fill="#000000">random</text>
</g>
<!-- Node1&#45;&gt;Node5 -->
<g id="edge5" class="edge">
<title>Node1&#45;&gt;Node5</title>
<path fill="none" stroke="#191970" d="M1906.3012,-243.139C1849.0417,-236.4195 1767.2553,-223.1654 1699.5,-198 1695.0296,-196.3396 1690.475,-194.1423 1686.1758,-191.7946"/>
<polygon fill="#191970" stroke="#191970" points="1687.696,-188.6279 1677.304,-186.5649 1684.1413,-194.6582 1687.696,-188.6279"/>
</g>
<!-- Node6 -->
<g id="node7" class="node">
<title>Node6</title>
<polygon fill="#ffffff" stroke="#bfbfbf" points="2293.5,-11.5 2293.5,-30.5 2337.5,-30.5 2337.5,-11.5 2293.5,-11.5"/>
<text text-anchor="middle" x="2315.5" y="-18.5" font-family="Helvetica,sans-Serif" font-size="10.00" fill="#000000">string</text>
</g>
<!-- Node1&#45;&gt;Node6 -->
<g id="edge6" class="edge">
<title>Node1&#45;&gt;Node6</title>
<path fill="none" stroke="#191970" d="M1993.046,-234.0892C2002.4942,-224.2618 2014.4411,-210.9751 2023.5,-198 2058.102,-148.4396 2038.7036,-113.6713 2087.5,-78 2159.0007,-25.7315 2201.2893,-74.9507 2283.5,-42 2287.3454,-40.4587 2291.2156,-38.4227 2294.8706,-36.2243"/>
<polygon fill="#191970" stroke="#191970" points="2296.9553,-39.0422 2303.3758,-30.6144 2293.101,-33.1988 2296.9553,-39.0422"/>
</g>
<!-- Node1&#45;&gt;Node7 -->
<g id="edge7" class="edge">
<title>Node1&#45;&gt;Node7</title>
<path fill="none" stroke="#191970" d="M1906.4244,-248.0269C1650.5917,-242.5439 785.3672,-222.3746 663.5,-198 517.5046,-168.7996 362.0834,-73.6219 305.1007,-36.2555"/>
<polygon fill="#191970" stroke="#191970" points="306.7883,-33.1753 296.5178,-30.5737 302.9243,-39.0122 306.7883,-33.1753"/>
</g>
<!-- Node8 -->
<g id="node9" class="node">
<title>Node8</title>
<polygon fill="#ffffff" stroke="#bfbfbf" points="2528,-11.5 2528,-30.5 2575,-30.5 2575,-11.5 2528,-11.5"/>
<text text-anchor="middle" x="2551.5" y="-18.5" font-family="Helvetica,sans-Serif" font-size="10.00" fill="#000000">vector</text>
</g>
<!-- Node1&#45;&gt;Node8 -->
<g id="edge8" class="edge">
<title>Node1&#45;&gt;Node8</title>
<path fill="none" stroke="#191970" d="M2015.9125,-234.4472C2039.3237,-224.855 2069.6161,-211.6903 2095.5,-198 2153.0533,-167.5595 2165.549,-156.4459 2219.5,-120 2245.8729,-102.1841 2248.0332,-90.0269 2277.5,-78 2377.7694,-37.0751 2417.0479,-79.8982 2518.5,-42 2522.5793,-40.4762 2526.6855,-38.3981 2530.5492,-36.1391"/>
<polygon fill="#191970" stroke="#191970" points="2532.4734,-39.063 2538.9977,-30.7152 2528.6917,-33.1724 2532.4734,-39.063"/>
</g>
<!-- Node9 -->
<g id="node10" class="node">
<title>Node9</title>
<polygon fill="#ffffff" stroke="#bfbfbf" points="2593,-6 2593,-36 2706,-36 2706,-6 2593,-6"/>
<text text-anchor="start" x="2601" y="-24" font-family="Helvetica,sans-Serif" font-size="10.00" fill="#000000">tensorflow/compiler</text>
<text text-anchor="middle" x="2649.5" y="-13" font-family="Helvetica,sans-Serif" font-size="10.00" fill="#000000">/xla/iterator_util.h</text>
</g>
<!-- Node1&#45;&gt;Node9 -->
<g id="edge9" class="edge">
<title>Node1&#45;&gt;Node9</title>
<path fill="none" stroke="#191970" d="M2042.1617,-234.4008C2074.0897,-225.7738 2112.6975,-213.5522 2145.5,-198 2201.9707,-171.2263 2211.9668,-156.772 2262.5,-120 2286.8019,-102.316 2287.8388,-89.7545 2315.5,-78 2426.1083,-30.9973 2466.2365,-68.3198 2583.5,-42 2587.5917,-41.0816 2591.7934,-40.0237 2595.9993,-38.8814"/>
<polygon fill="#191970" stroke="#191970" points="2597.1176,-42.202 2605.7707,-36.0885 2595.1938,-35.4715 2597.1176,-42.202"/>
</g>
<!-- Node10 -->
<g id="node11" class="node">
<title>Node10</title>
<polygon fill="#ffffff" stroke="#bfbfbf" points="1109,-6 1109,-36 1224,-36 1224,-6 1109,-6"/>
<text text-anchor="start" x="1117" y="-24" font-family="Helvetica,sans-Serif" font-size="10.00" fill="#000000">tensorflow/compiler</text>
<text text-anchor="middle" x="1166.5" y="-13" font-family="Helvetica,sans-Serif" font-size="10.00" fill="#000000">/xla/service/hlo.pb.h</text>
</g>
<!-- Node1&#45;&gt;Node10 -->
<g id="edge10" class="edge">
<title>Node1&#45;&gt;Node10</title>
<path fill="none" stroke="#191970" d="M1906.1826,-247.6898C1811.1126,-243.9525 1649.3763,-232.5619 1602.5,-198 1555.1289,-163.0732 1594.2581,-112.3958 1546.5,-78 1489.5076,-36.9536 1301.1757,-56.7168 1232.5,-42 1228.3335,-41.1071 1224.0557,-40.0591 1219.7775,-38.9158"/>
<polygon fill="#191970" stroke="#191970" points="1220.4211,-35.4606 1209.8459,-36.104 1218.5142,-42.1958 1220.4211,-35.4606"/>
</g>
<!-- Node11 -->
<g id="node12" class="node">
<title>Node11</title>
<g id="a_node12"><a xlink:href="../../d2/d31/hlo__computation_8h.html" target="_top" xlink:title="tensorflow/compiler\l/xla/service/hlo_computation.h">
<polygon fill="#ffffff" stroke="#000000" points="1338,-162 1338,-192 1505,-192 1505,-162 1338,-162"/>
<text text-anchor="start" x="1346" y="-180" font-family="Helvetica,sans-Serif" font-size="10.00" fill="#000000">tensorflow/compiler</text>
<text text-anchor="middle" x="1421.5" y="-169" font-family="Helvetica,sans-Serif" font-size="10.00" fill="#000000">/xla/service/hlo_computation.h</text>
</a>
</g>
</g>
<!-- Node1&#45;&gt;Node11 -->
<g id="edge11" class="edge">
<title>Node1&#45;&gt;Node11</title>
<path fill="none" stroke="#191970" d="M1906.4255,-243.7784C1815.9525,-235.9792 1655.0019,-220.3745 1518.5,-198 1511.3692,-196.8312 1503.9715,-195.4817 1496.5858,-194.0422"/>
<polygon fill="#191970" stroke="#191970" points="1497.0407,-190.5639 1486.548,-192.0319 1495.666,-197.4276 1497.0407,-190.5639"/>
</g>
<!-- Node17 -->
<g id="node18" class="node">
<title>Node17</title>
<g id="a_node18"><a xlink:href="../../dd/d66/hlo__instruction_8h.html" target="_top" xlink:title="tensorflow/compiler\l/xla/service/hlo_instruction.h">
<polygon fill="#ffffff" stroke="#000000" points="1637,-84 1637,-114 1794,-114 1794,-84 1637,-84"/>
<text text-anchor="start" x="1645" y="-102" font-family="Helvetica,sans-Serif" font-size="10.00" fill="#000000">tensorflow/compiler</text>
<text text-anchor="middle" x="1715.5" y="-91" font-family="Helvetica,sans-Serif" font-size="10.00" fill="#000000">/xla/service/hlo_instruction.h</text>
</a>
</g>
</g>
<!-- Node1&#45;&gt;Node17 -->
<g id="edge66" class="edge">
<title>Node1&#45;&gt;Node17</title>
<path fill="none" stroke="#191970" d="M1989.7934,-234.2199C2004.3365,-214.1847 2024.338,-178.9011 2005.5,-156 1980.3097,-125.3765 1879.8269,-110.9535 1804.15,-104.3317"/>
<polygon fill="#191970" stroke="#191970" points="1804.3745,-100.8383 1794.1159,-103.4862 1803.7866,-107.8136 1804.3745,-100.8383"/>
</g>
<!-- Node25 -->
<g id="node26" class="node">
<title>Node25</title>
<polygon fill="#ffffff" stroke="#bfbfbf" points="2355.5,-6 2355.5,-36 2509.5,-36 2509.5,-6 2355.5,-6"/>
<text text-anchor="start" x="2363.5" y="-24" font-family="Helvetica,sans-Serif" font-size="10.00" fill="#000000">tensorflow/compiler</text>
<text text-anchor="middle" x="2432.5" y="-13" font-family="Helvetica,sans-Serif" font-size="10.00" fill="#000000">/xla/service/name_uniquer.h</text>
</g>
<!-- Node1&#45;&gt;Node25 -->
<g id="edge68" class="edge">
<title>Node1&#45;&gt;Node25</title>
<path fill="none" stroke="#191970" d="M1998.9184,-234.3048C2052.0132,-196.8308 2189.0513,-101.3436 2239.5,-78 2261.9976,-67.5899 2318.857,-51.2064 2365.0702,-38.6705"/>
<polygon fill="#191970" stroke="#191970" points="2366.011,-42.0419 2374.7539,-36.0575 2364.1873,-35.2837 2366.011,-42.0419"/>
</g>
<!-- Node1&#45;&gt;Node26 -->
<g id="edge72" class="edge">
<title>Node1&#45;&gt;Node26</title>
<path fill="none" stroke="#191970" d="M2048.691,-244.3274C2158.2724,-235.8811 2362.9982,-218.0464 2433.5,-198 2511.5218,-175.8154 2525.7265,-155.8269 2598.5,-120 2635.2363,-101.9145 2641.0284,-88.8918 2680.5,-78 2917.4972,-12.6028 2990.9128,-87.608 3232.5,-42 3237.1303,-41.1259 3241.8895,-40.0273 3246.6297,-38.7934"/>
<polygon fill="#191970" stroke="#191970" points="3247.594,-42.1581 3256.2855,-36.0994 3245.7128,-35.4157 3247.594,-42.1581"/>
</g>
<!-- Node30 -->
<g id="node31" class="node">
<title>Node30</title>
<polygon fill="#ffffff" stroke="#bfbfbf" points="984,-6 984,-36 1091,-36 1091,-6 984,-6"/>
<text text-anchor="start" x="992" y="-24" font-family="Helvetica,sans-Serif" font-size="10.00" fill="#000000">tensorflow/core/lib</text>
<text text-anchor="middle" x="1037.5" y="-13" font-family="Helvetica,sans-Serif" font-size="10.00" fill="#000000">/gtl/array_slice.h</text>
</g>
<!-- Node1&#45;&gt;Node30 -->
<g id="edge73" class="edge">
<title>Node1&#45;&gt;Node30</title>
<path fill="none" stroke="#191970" d="M1906.1099,-245.908C1806.2078,-239.9535 1630.5301,-225.832 1573.5,-198 1505.4334,-164.782 1520.979,-110.3592 1452.5,-78 1309.9152,-10.6228 1253.6018,-75.5078 1099.5,-42 1095.4397,-41.1171 1091.2745,-40.0581 1087.1172,-38.8912"/>
<polygon fill="#191970" stroke="#191970" points="1088.0681,-35.5224 1077.4843,-36.0049 1086.0589,-42.2279 1088.0681,-35.5224"/>
</g>
<!-- Node33 -->
<g id="node34" class="node">
<title>Node33</title>
<polygon fill="#ffffff" stroke="#bfbfbf" points="1242,-6 1242,-36 1355,-36 1355,-6 1242,-6"/>
<text text-anchor="start" x="1250" y="-24" font-family="Helvetica,sans-Serif" font-size="10.00" fill="#000000">tensorflow/core/lib</text>
<text text-anchor="middle" x="1298.5" y="-13" font-family="Helvetica,sans-Serif" font-size="10.00" fill="#000000">/gtl/iterator_range.h</text>
</g>
<!-- Node1&#45;&gt;Node33 -->
<g id="edge74" class="edge">
<title>Node1&#45;&gt;Node33</title>
<path fill="none" stroke="#191970" d="M1906.2699,-247.4908C1816.5147,-243.5526 1668.9514,-231.9616 1627.5,-198 1583.6765,-162.0949 1628.0461,-114.2411 1584.5,-78 1508.0082,-14.3399 1460.2354,-65.3638 1363.5,-42 1359.6545,-41.0712 1355.7074,-40.0279 1351.7506,-38.9157"/>
<polygon fill="#191970" stroke="#191970" points="1352.5283,-35.4963 1341.9472,-36.035 1350.5548,-42.2123 1352.5283,-35.4963"/>
</g>
<!-- Node34 -->
<g id="node35" class="node">
<title>Node34</title>
<polygon fill="#ffffff" stroke="#bfbfbf" points="2724,-6 2724,-36 2861,-36 2861,-6 2724,-6"/>
<text text-anchor="start" x="2732" y="-24" font-family="Helvetica,sans-Serif" font-size="10.00" fill="#000000">tensorflow/core/platform</text>
<text text-anchor="middle" x="2792.5" y="-13" font-family="Helvetica,sans-Serif" font-size="10.00" fill="#000000">/logging.h</text>
</g>
<!-- Node1&#45;&gt;Node34 -->
<g id="edge75" class="edge">
<title>Node1&#45;&gt;Node34</title>
<path fill="none" stroke="#191970" d="M2048.6679,-239.7701C2092.1661,-232.1019 2148.1563,-219.0899 2194.5,-198 2248.7201,-173.3258 2256.4357,-156.5184 2303.5,-120 2326.4291,-102.2087 2326.7581,-89.2757 2353.5,-78 2502.0731,-15.3546 2555.8994,-71.0563 2714.5,-42 2719.9315,-41.0049 2725.5374,-39.8192 2731.1356,-38.5249"/>
<polygon fill="#191970" stroke="#191970" points="2732.2697,-41.8515 2741.1647,-36.0958 2730.6218,-35.0482 2732.2697,-41.8515"/>
</g>
<!-- Node41 -->
<g id="node42" class="node">
<title>Node41</title>
<polygon fill="#ffffff" stroke="#bfbfbf" points="1709,-156.5 1709,-197.5 1842,-197.5 1842,-156.5 1709,-156.5"/>
<text text-anchor="start" x="1717" y="-185.5" font-family="Helvetica,sans-Serif" font-size="10.00" fill="#000000">tensorflow/compiler</text>
<text text-anchor="start" x="1717" y="-174.5" font-family="Helvetica,sans-Serif" font-size="10.00" fill="#000000">/xla/service/hlo_module</text>
<text text-anchor="middle" x="1775.5" y="-163.5" font-family="Helvetica,sans-Serif" font-size="10.00" fill="#000000">_config.h</text>
</g>
<!-- Node1&#45;&gt;Node41 -->
<g id="edge67" class="edge">
<title>Node1&#45;&gt;Node41</title>
<path fill="none" stroke="#191970" d="M1935.6455,-234.478C1908.7424,-224.8222 1873.1949,-212.0638 1842.4263,-201.0206"/>
<polygon fill="#191970" stroke="#191970" points="1843.216,-197.5854 1832.6214,-197.5015 1840.8512,-204.1739 1843.216,-197.5854"/>
</g>
<!-- Node42 -->
<g id="node43" class="node">
<title>Node42</title>
<g id="a_node43"><a xlink:href="../../d3/d4d/versioned__computation__handle_8h.html" target="_top" xlink:title="tensorflow/compiler\l/xla/service/versioned\l_computation_handle.h">
<polygon fill="#ffffff" stroke="#ff0000" points="2459,-78.5 2459,-119.5 2590,-119.5 2590,-78.5 2459,-78.5"/>
<text text-anchor="start" x="2467" y="-107.5" font-family="Helvetica,sans-Serif" font-size="10.00" fill="#000000">tensorflow/compiler</text>
<text text-anchor="start" x="2467" y="-96.5" font-family="Helvetica,sans-Serif" font-size="10.00" fill="#000000">/xla/service/versioned</text>
<text text-anchor="middle" x="2524.5" y="-85.5" font-family="Helvetica,sans-Serif" font-size="10.00" fill="#000000">_computation_handle.h</text>
</a>
</g>
</g>
<!-- Node1&#45;&gt;Node42 -->
<g id="edge69" class="edge">
<title>Node1&#45;&gt;Node42</title>
<path fill="none" stroke="#191970" d="M2048.7096,-244.5068C2147.9509,-236.8538 2322.3304,-220.6892 2381.5,-198 2424.6098,-181.4691 2467.2375,-149.3669 2494.5794,-126.192"/>
<polygon fill="#191970" stroke="#191970" points="2496.9235,-128.7923 2502.2152,-119.6136 2492.3546,-123.489 2496.9235,-128.7923"/>
</g>
<!-- Node44 -->
<g id="node44" class="node">
<title>Node44</title>
<polygon fill="#ffffff" stroke="#bfbfbf" points="1860,-162 1860,-192 1997,-192 1997,-162 1860,-162"/>
<text text-anchor="start" x="1868" y="-180" font-family="Helvetica,sans-Serif" font-size="10.00" fill="#000000">tensorflow/core/platform</text>
<text text-anchor="middle" x="1928.5" y="-169" font-family="Helvetica,sans-Serif" font-size="10.00" fill="#000000">/mutex.h</text>
</g>
<!-- Node1&#45;&gt;Node44 -->
<g id="edge76" class="edge">
<title>Node1&#45;&gt;Node44</title>
<path fill="none" stroke="#191970" d="M1967.3472,-234.478C1960.7115,-224.6598 1951.9077,-211.6339 1944.3591,-200.4651"/>
<polygon fill="#191970" stroke="#191970" points="1947.1393,-198.3281 1938.6398,-192.0028 1941.3397,-202.2479 1947.1393,-198.3281"/>
</g>
<!-- Node11&#45;&gt;Node3 -->
<g id="edge12" class="edge">
<title>Node11&#45;&gt;Node3</title>
<path fill="none" stroke="#191970" d="M1366.3037,-161.9077C1338.8111,-152.6679 1306.0726,-138.9297 1280.5,-120 1261.1967,-105.711 1267.9405,-88.821 1246.5,-78 1086.0441,2.982 605.9669,-107.2612 438.5,-42 435.5325,-40.8436 432.6633,-39.1831 429.9922,-37.2957"/>
<polygon fill="#191970" stroke="#191970" points="432.1735,-34.5573 422.2558,-30.8301 427.6846,-39.9285 432.1735,-34.5573"/>
</g>
<!-- Node11&#45;&gt;Node4 -->
<g id="edge13" class="edge">
<title>Node11&#45;&gt;Node4</title>
<path fill="none" stroke="#191970" d="M1505.1843,-168.4011C1542.6029,-164.5738 1587.2584,-160.0302 1627.5,-156 1790.138,-139.7117 1833.4062,-152.9611 1993.5,-120 2053.8,-107.5851 2064.9101,-88.9129 2125.5,-78 2451.311,-19.3176 2550.5416,-130.6678 2869.5,-42 2874.8276,-40.519 2880.2392,-38.2131 2885.2674,-35.6627"/>
<polygon fill="#191970" stroke="#191970" points="2887.3076,-38.5327 2894.3411,-30.6092 2883.9016,-32.4172 2887.3076,-38.5327"/>
</g>
<!-- Node11&#45;&gt;Node6 -->
<g id="edge14" class="edge">
<title>Node11&#45;&gt;Node6</title>
<path fill="none" stroke="#191970" d="M1505.1493,-168.28C1600.2613,-157.6998 1749.2453,-138.9187 1802.5,-120 1837.048,-107.7268 1838.5942,-89.2152 1873.5,-78 2047.6548,-22.0441 2110.6954,-101.9958 2283.5,-42 2287.4823,-40.6174 2291.4559,-38.6305 2295.1806,-36.4237"/>
<polygon fill="#191970" stroke="#191970" points="2297.3974,-39.153 2303.79,-30.7039 2293.5238,-33.3224 2297.3974,-39.153"/>
</g>
<!-- Node11&#45;&gt;Node7 -->
<g id="edge15" class="edge">
<title>Node11&#45;&gt;Node7</title>
<path fill="none" stroke="#191970" d="M1362.8924,-161.9751C1351.8623,-159.6172 1340.377,-157.4755 1329.5,-156 1154.2574,-132.2271 705.3216,-165.772 534.5,-120 495.33,-109.5043 490.9933,-93.4498 453.5,-78 403.9824,-57.5954 389.1484,-59.4092 338.5,-42 331.4116,-39.5635 323.868,-36.8313 316.6896,-34.1639"/>
<polygon fill="#191970" stroke="#191970" points="317.7963,-30.8409 307.2042,-30.6006 315.3346,-37.3938 317.7963,-30.8409"/>
</g>
<!-- Node11&#45;&gt;Node8 -->
<g id="edge18" class="edge">
<title>Node11&#45;&gt;Node8</title>
<path fill="none" stroke="#191970" d="M1505.0565,-168.0752C1637.8513,-153.7521 1884.0586,-126.572 1902.5,-120 1935.2515,-108.3283 1935.453,-88.8066 1968.5,-78 2201.3348,-1.8616 2285.6652,-118.1384 2518.5,-42 2522.7842,-40.599 2527.0652,-38.5128 2531.0567,-36.1909"/>
<polygon fill="#191970" stroke="#191970" points="2533.2395,-38.9462 2539.71,-30.5568 2529.42,-33.0801 2533.2395,-38.9462"/>
</g>
<!-- Node11&#45;&gt;Node9 -->
<g id="edge19" class="edge">
<title>Node11&#45;&gt;Node9</title>
<path fill="none" stroke="#191970" d="M1505.2011,-168.5022C1651.4863,-153.5767 1939.2161,-123.8607 1949.5,-120 1979.9741,-108.5596 1978.7767,-88.7534 2009.5,-78 2130.1307,-35.7784 2457.8828,-65.5527 2583.5,-42 2588.2015,-41.1185 2593.0356,-40.0038 2597.8475,-38.7498"/>
<polygon fill="#191970" stroke="#191970" points="2598.9562,-42.0741 2607.6439,-36.01 2597.0707,-35.3328 2598.9562,-42.0741"/>
</g>
<!-- Node11&#45;&gt;Node10 -->
<g id="edge23" class="edge">
<title>Node11&#45;&gt;Node10</title>
<path fill="none" stroke="#191970" d="M1438.9425,-161.8875C1460.7372,-141.2093 1492.6347,-103.7346 1470.5,-78 1435.6194,-37.4466 1284.593,-54.1471 1232.5,-42 1228.4819,-41.0631 1224.3553,-40 1220.2214,-38.8615"/>
<polygon fill="#191970" stroke="#191970" points="1221.1881,-35.4977 1210.61,-36.0919 1219.2498,-42.2241 1221.1881,-35.4977"/>
</g>
<!-- Node11&#45;&gt;Node12 -->
<g id="edge16" class="edge">
<title>Node11&#45;&gt;Node12</title>
<path fill="none" stroke="#191970" d="M1362.8976,-161.9363C1351.867,-159.5821 1340.3802,-157.4518 1329.5,-156 941.5006,-104.2274 833.9912,-193.4194 449.5,-120 356.2798,-102.1994 252.4865,-57.5662 203.3267,-34.809"/>
<polygon fill="#191970" stroke="#191970" points="204.7839,-31.6267 194.2425,-30.5636 201.8202,-37.9683 204.7839,-31.6267"/>
</g>
<!-- Node11&#45;&gt;Node13 -->
<g id="edge17" class="edge">
<title>Node11&#45;&gt;Node13</title>
<path fill="none" stroke="#191970" d="M1505.1185,-167.6738C1542.5246,-163.7087 1587.1886,-159.2586 1627.5,-156 1894.6621,-134.4038 1962.4386,-142.8071 2229.5,-120 2284.2889,-115.321 2347.7892,-107.8411 2385.4727,-103.1856"/>
<polygon fill="#191970" stroke="#191970" points="2386.3531,-106.6031 2395.8443,-101.8949 2385.4886,-99.6567 2386.3531,-106.6031"/>
</g>
<!-- Node11&#45;&gt;Node14 -->
<g id="edge20" class="edge">
<title>Node11&#45;&gt;Node14</title>
<path fill="none" stroke="#191970" d="M1363.3979,-161.9915C1352.2161,-159.6001 1340.5467,-157.4423 1329.5,-156 1104.3808,-126.6073 530.7858,-166.169 308.5,-120 229.3264,-103.5556 142.7635,-64.5059 94.4957,-40.6583"/>
<polygon fill="#191970" stroke="#191970" points="95.8768,-37.436 85.3662,-36.1027 92.7513,-43.6995 95.8768,-37.436"/>
</g>
<!-- Node15 -->
<g id="node16" class="node">
<title>Node15</title>
<polygon fill="#ffffff" stroke="#bfbfbf" points="728,-.5 728,-41.5 841,-41.5 841,-.5 728,-.5"/>
<text text-anchor="start" x="736" y="-29.5" font-family="Helvetica,sans-Serif" font-size="10.00" fill="#000000">tensorflow/compiler</text>
<text text-anchor="start" x="736" y="-18.5" font-family="Helvetica,sans-Serif" font-size="10.00" fill="#000000">/xla/service/dfs_hlo</text>
<text text-anchor="middle" x="784.5" y="-7.5" font-family="Helvetica,sans-Serif" font-size="10.00" fill="#000000">_visitor.h</text>
</g>
<!-- Node11&#45;&gt;Node15 -->
<g id="edge21" class="edge">
<title>Node11&#45;&gt;Node15</title>
<path fill="none" stroke="#191970" d="M1413.7069,-161.8249C1400.4121,-136.5851 1373.1723,-87.7765 1356.5,-78 1261.73,-22.4277 976.5653,-61.261 851.1958,-41.9176"/>
<polygon fill="#191970" stroke="#191970" points="851.4611,-38.4112 841.0091,-40.1449 850.261,-45.3076 851.4611,-38.4112"/>
</g>
<!-- Node16 -->
<g id="node17" class="node">
<title>Node16</title>
<polygon fill="#ffffff" stroke="#bfbfbf" points="543.5,-78.5 543.5,-119.5 671.5,-119.5 671.5,-78.5 543.5,-78.5"/>
<text text-anchor="start" x="551.5" y="-107.5" font-family="Helvetica,sans-Serif" font-size="10.00" fill="#000000">tensorflow/compiler</text>
<text text-anchor="start" x="551.5" y="-96.5" font-family="Helvetica,sans-Serif" font-size="10.00" fill="#000000">/xla/service/dfs_hlo</text>
<text text-anchor="middle" x="607.5" y="-85.5" font-family="Helvetica,sans-Serif" font-size="10.00" fill="#000000">_visitor_with_default.h</text>
</g>
<!-- Node11&#45;&gt;Node16 -->
<g id="edge22" class="edge">
<title>Node11&#45;&gt;Node16</title>
<path fill="none" stroke="#191970" d="M1362.3858,-161.9596C1351.5084,-159.6342 1340.2071,-157.5079 1329.5,-156 1046.7875,-116.1842 967.1913,-167.0187 682.0365,-120.0592"/>
<polygon fill="#191970" stroke="#191970" points="682.2458,-116.5456 671.8053,-118.3471 681.0905,-123.4496 682.2458,-116.5456"/>
</g>
<!-- Node11&#45;&gt;Node17 -->
<g id="edge24" class="edge">
<title>Node11&#45;&gt;Node17</title>
<path fill="none" stroke="#191970" d="M1478.1862,-161.9608C1527.0164,-149.0059 1597.554,-130.2918 1649.0328,-116.6342"/>
<polygon fill="#191970" stroke="#191970" points="1649.9696,-120.0068 1658.7376,-114.0594 1648.1745,-113.2409 1649.9696,-120.0068"/>
</g>
<!-- Node11&#45;&gt;Node25 -->
<g id="edge55" class="edge">
<title>Node11&#45;&gt;Node25</title>
<path fill="none" stroke="#191970" d="M1505.3755,-167.7105C1621.4501,-154.579 1820.4545,-130.9686 1852.5,-120 1887.5502,-108.003 1889.181,-89.1809 1924.5,-78 2103.9591,-21.1887 2160.737,-72.417 2346.5,-42 2353.0219,-40.9321 2359.7792,-39.6305 2366.5089,-38.2037"/>
<polygon fill="#191970" stroke="#191970" points="2367.3087,-41.6115 2376.3181,-36.0366 2365.7985,-34.7763 2367.3087,-41.6115"/>
</g>
<!-- Node11&#45;&gt;Node26 -->
<g id="edge58" class="edge">
<title>Node11&#45;&gt;Node26</title>
<path fill="none" stroke="#191970" d="M1505.1265,-167.7718C1542.5342,-163.8253 1587.1971,-159.3626 1627.5,-156 1873.3872,-135.4848 1936.9535,-152.8388 2181.5,-120 2273.6763,-107.6221 2294.1911,-89.3464 2386.5,-78 2760.0291,-32.0865 2861.9268,-107.6314 3232.5,-42 3237.2804,-41.1533 3242.1947,-40.0514 3247.0816,-38.7957"/>
<polygon fill="#191970" stroke="#191970" points="3248.3239,-42.0833 3257.0226,-36.035 3246.4507,-35.3385 3248.3239,-42.0833"/>
</g>
<!-- Node27 -->
<g id="node28" class="node">
<title>Node27</title>
<polygon fill="#ffffff" stroke="#bfbfbf" points="2956,-6 2956,-36 3069,-36 3069,-6 2956,-6"/>
<text text-anchor="start" x="2964" y="-24" font-family="Helvetica,sans-Serif" font-size="10.00" fill="#000000">tensorflow/compiler</text>
<text text-anchor="middle" x="3012.5" y="-13" font-family="Helvetica,sans-Serif" font-size="10.00" fill="#000000">/xla/xla_data.pb.h</text>
</g>
<!-- Node11&#45;&gt;Node27 -->
<g id="edge59" class="edge">
<title>Node11&#45;&gt;Node27</title>
<path fill="none" stroke="#191970" d="M1505.1525,-168.069C1542.5651,-164.1788 1587.2247,-159.6779 1627.5,-156 1825.5429,-137.9148 1881.2449,-170.8528 2073.5,-120 2116.1736,-108.7125 2120.6375,-88.5476 2163.5,-78 2501.7759,5.243 2603.5751,-103.3392 2946.5,-42 2951.279,-41.1452 2956.1922,-40.0376 2961.0785,-38.7784"/>
<polygon fill="#191970" stroke="#191970" points="2962.3228,-42.0652 2971.0187,-36.0128 2960.4464,-35.3213 2962.3228,-42.0652"/>
</g>
<!-- Node28 -->
<g id="node29" class="node">
<title>Node28</title>
<polygon fill="#ffffff" stroke="#bfbfbf" points="859,-6 859,-36 966,-36 966,-6 859,-6"/>
<text text-anchor="start" x="867" y="-24" font-family="Helvetica,sans-Serif" font-size="10.00" fill="#000000">tensorflow/core/lib</text>
<text text-anchor="middle" x="912.5" y="-13" font-family="Helvetica,sans-Serif" font-size="10.00" fill="#000000">/core/status.h</text>
</g>
<!-- Node11&#45;&gt;Node28 -->
<g id="edge60" class="edge">
<title>Node11&#45;&gt;Node28</title>
<path fill="none" stroke="#191970" d="M1422.2826,-161.8044C1422.5083,-139.5892 1419.2658,-98.6502 1394.5,-78 1322.5536,-18.0098 1066.1941,-61.1649 974.5,-42 970.4327,-41.1499 966.2625,-40.1143 962.1018,-38.9634"/>
<polygon fill="#191970" stroke="#191970" points="963.0461,-35.5929 952.4636,-36.1022 961.054,-42.3034 963.0461,-35.5929"/>
</g>
<!-- Node11&#45;&gt;Node30 -->
<g id="edge61" class="edge">
<title>Node11&#45;&gt;Node30</title>
<path fill="none" stroke="#191970" d="M1429.4992,-161.7703C1439.5616,-140.2586 1453.1787,-101.0347 1432.5,-78 1382.778,-22.613 1172.1834,-58.035 1099.5,-42 1095.6158,-41.1431 1091.6348,-40.128 1087.656,-39.0139"/>
<polygon fill="#191970" stroke="#191970" points="1088.4106,-35.5864 1077.827,-36.0746 1086.405,-42.293 1088.4106,-35.5864"/>
</g>
<!-- Node31 -->
<g id="node32" class="node">
<title>Node31</title>
<polygon fill="#ffffff" stroke="#bfbfbf" points="448,-6 448,-36 555,-36 555,-6 448,-6"/>
<text text-anchor="start" x="456" y="-24" font-family="Helvetica,sans-Serif" font-size="10.00" fill="#000000">tensorflow/core/lib</text>
<text text-anchor="middle" x="501.5" y="-13" font-family="Helvetica,sans-Serif" font-size="10.00" fill="#000000">/gtl/flatmap.h</text>
</g>
<!-- Node11&#45;&gt;Node31 -->
<g id="edge62" class="edge">
<title>Node11&#45;&gt;Node31</title>
<path fill="none" stroke="#191970" d="M1387.7666,-161.865C1366.768,-151.6135 1339.7989,-136.8881 1318.5,-120 1298.7752,-104.36 1303.2456,-88.785 1280.5,-78 1136.3495,-9.6498 720.2119,-71.8747 563.5,-42 559.1113,-41.1634 554.6085,-40.0885 550.13,-38.8682"/>
<polygon fill="#191970" stroke="#191970" points="551.0003,-35.4759 540.4185,-36.0007 549.018,-42.1893 551.0003,-35.4759"/>
</g>
<!-- Node35 -->
<g id="node36" class="node">
<title>Node35</title>
<polygon fill="#ffffff" stroke="#bfbfbf" points="573,-6 573,-36 710,-36 710,-6 573,-6"/>
<text text-anchor="start" x="581" y="-24" font-family="Helvetica,sans-Serif" font-size="10.00" fill="#000000">tensorflow/core/platform</text>
<text text-anchor="middle" x="641.5" y="-13" font-family="Helvetica,sans-Serif" font-size="10.00" fill="#000000">/macros.h</text>
</g>
<!-- Node11&#45;&gt;Node35 -->
<g id="edge64" class="edge">
<title>Node11&#45;&gt;Node35</title>
<path fill="none" stroke="#191970" d="M1403.0635,-161.8156C1389.7669,-150.6313 1371.58,-134.8478 1356.5,-120 1338.5624,-102.3387 1341.1927,-88.8959 1318.5,-78 1198.0878,-20.184 850.3006,-63.688 718.5,-42 712.7191,-41.0487 706.7474,-39.8389 700.8055,-38.4818"/>
<polygon fill="#191970" stroke="#191970" points="701.4156,-35.0284 690.8729,-36.0785 699.7693,-41.8321 701.4156,-35.0284"/>
</g>
<!-- Node11&#45;&gt;Node36 -->
<g id="edge65" class="edge">
<title>Node11&#45;&gt;Node36</title>
<path fill="none" stroke="#191970" d="M1505.1366,-167.891C1542.5462,-163.9671 1587.2079,-159.4891 1627.5,-156 1739.5875,-146.2939 2025.3208,-154.2117 2132.5,-120 2166.701,-109.083 2167.1386,-88.4011 2201.5,-78 2387.9752,-21.5542 2884.9164,-71.5069 3077.5,-42 3083.686,-41.0522 3090.0854,-39.7967 3096.436,-38.3697"/>
<polygon fill="#191970" stroke="#191970" points="3097.4238,-41.7323 3106.3374,-36.0054 3095.798,-34.9237 3097.4238,-41.7323"/>
</g>
<!-- Node37 -->
<g id="node38" class="node">
<title>Node37</title>
<polygon fill="#ffffff" stroke="#bfbfbf" points="690,-84 690,-114 851,-114 851,-84 690,-84"/>
<text text-anchor="start" x="698" y="-102" font-family="Helvetica,sans-Serif" font-size="10.00" fill="#000000">tensorflow/compiler</text>
<text text-anchor="middle" x="770.5" y="-91" font-family="Helvetica,sans-Serif" font-size="10.00" fill="#000000">/xla/service/hlo_reachability.h</text>
</g>
<!-- Node11&#45;&gt;Node37 -->
<g id="edge54" class="edge">
<title>Node11&#45;&gt;Node37</title>
<path fill="none" stroke="#191970" d="M1361.3689,-161.9329C1350.8001,-159.6695 1339.8667,-157.5714 1329.5,-156 1122.3652,-124.6033 1066.5188,-152.1526 859.5,-120 852.7543,-118.9523 845.7638,-117.6641 838.8009,-116.2457"/>
<polygon fill="#191970" stroke="#191970" points="839.1605,-112.744 828.6511,-114.0873 837.7044,-119.5909 839.1605,-112.744"/>
</g>
<!-- Node38 -->
<g id="node39" class="node">
<title>Node38</title>
<polygon fill="#ffffff" stroke="#bfbfbf" points="869,-84 869,-114 982,-114 982,-84 869,-84"/>
<text text-anchor="start" x="877" y="-102" font-family="Helvetica,sans-Serif" font-size="10.00" fill="#000000">tensorflow/compiler</text>
<text text-anchor="middle" x="925.5" y="-91" font-family="Helvetica,sans-Serif" font-size="10.00" fill="#000000">/xla/shape_tree.h</text>
</g>
<!-- Node11&#45;&gt;Node38 -->
<g id="edge56" class="edge">
<title>Node11&#45;&gt;Node38</title>
<path fill="none" stroke="#191970" d="M1360.3366,-161.9748C1350.0818,-159.762 1339.5194,-157.6695 1329.5,-156 1180.0466,-131.0975 1138.7122,-151.4578 990.5,-120 986.3238,-119.1136 982.0367,-118.0612 977.7526,-116.9071"/>
<polygon fill="#191970" stroke="#191970" points="978.3923,-113.4496 967.8151,-114.0596 976.4641,-120.1788 978.3923,-113.4496"/>
</g>
<!-- Node39 -->
<g id="node40" class="node">
<title>Node39</title>
<polygon fill="#ffffff" stroke="#bfbfbf" points="1000,-84 1000,-114 1113,-114 1113,-84 1000,-84"/>
<text text-anchor="start" x="1008" y="-102" font-family="Helvetica,sans-Serif" font-size="10.00" fill="#000000">tensorflow/compiler</text>
<text text-anchor="middle" x="1056.5" y="-91" font-family="Helvetica,sans-Serif" font-size="10.00" fill="#000000">/xla/statusor.h</text>
</g>
<!-- Node11&#45;&gt;Node39 -->
<g id="edge57" class="edge">
<title>Node11&#45;&gt;Node39</title>
<path fill="none" stroke="#191970" d="M1357.7499,-161.9879C1348.2958,-159.8955 1338.6561,-157.836 1329.5,-156 1237.5123,-137.5544 1212.5865,-142.4773 1121.5,-120 1117.7221,-119.0677 1113.8448,-118.0294 1109.9556,-116.9276"/>
<polygon fill="#191970" stroke="#191970" points="1110.8954,-113.5558 1100.3136,-114.0822 1108.9141,-120.2696 1110.8954,-113.5558"/>
</g>
<!-- Node40 -->
<g id="node41" class="node">
<title>Node40</title>
<polygon fill="#ffffff" stroke="#bfbfbf" points="1131,-84 1131,-114 1238,-114 1238,-84 1131,-84"/>
<text text-anchor="start" x="1139" y="-102" font-family="Helvetica,sans-Serif" font-size="10.00" fill="#000000">tensorflow/core/lib</text>
<text text-anchor="middle" x="1184.5" y="-91" font-family="Helvetica,sans-Serif" font-size="10.00" fill="#000000">/gtl/flatset.h</text>
</g>
<!-- Node11&#45;&gt;Node40 -->
<g id="edge63" class="edge">
<title>Node11&#45;&gt;Node40</title>
<path fill="none" stroke="#191970" d="M1375.804,-161.9608C1337.076,-149.2149 1281.4093,-130.8942 1240.1013,-117.2992"/>
<polygon fill="#191970" stroke="#191970" points="1241.0524,-113.9276 1230.4594,-114.1259 1238.864,-120.5767 1241.0524,-113.9276"/>
</g>
<!-- Node17&#45;&gt;Node3 -->
<g id="edge27" class="edge">
<title>Node17&#45;&gt;Node3</title>
<path fill="none" stroke="#191970" d="M1636.9223,-95.0762C1549.8089,-90.7565 1405.1255,-83.6724 1280.5,-78 1186.9558,-73.7423 525.7805,-75.9227 438.5,-42 435.5314,-40.8462 432.6616,-39.1873 429.9903,-37.3005"/>
<polygon fill="#191970" stroke="#191970" points="432.1716,-34.5622 422.2539,-30.8351 427.6827,-39.9334 432.1716,-34.5622"/>
</g>
<!-- Node17&#45;&gt;Node4 -->
<g id="edge28" class="edge">
<title>Node17&#45;&gt;Node4</title>
<path fill="none" stroke="#191970" d="M1794.0744,-92.7557C1853.2671,-88.2052 1936.4415,-82.1375 2009.5,-78 2200.4725,-67.1848 2685.0441,-92.6307 2869.5,-42 2874.8324,-40.5363 2880.2461,-38.2381 2885.2748,-35.6896"/>
<polygon fill="#191970" stroke="#191970" points="2887.3161,-38.5589 2894.3479,-30.6341 2883.9088,-32.4441 2887.3161,-38.5589"/>
</g>
<!-- Node17&#45;&gt;Node6 -->
<g id="edge30" class="edge">
<title>Node17&#45;&gt;Node6</title>
<path fill="none" stroke="#191970" d="M1777.6098,-83.9489C1788.5213,-81.6837 1799.8058,-79.5808 1810.5,-78 2019.0638,-47.1698 2083.9339,-109.9909 2283.5,-42 2287.675,-40.5776 2291.8362,-38.4811 2295.7101,-36.1556"/>
<polygon fill="#191970" stroke="#191970" points="2297.7476,-39.0034 2304.0992,-30.5235 2293.8458,-33.1916 2297.7476,-39.0034"/>
</g>
<!-- Node17&#45;&gt;Node7 -->
<g id="edge32" class="edge">
<title>Node17&#45;&gt;Node7</title>
<path fill="none" stroke="#191970" d="M1636.672,-95.3471C1543.4842,-91.0572 1383.7141,-83.792 1246.5,-78 1044.7434,-69.4835 536.4431,-81.96 338.5,-42 329.7946,-40.2426 320.6552,-37.3153 312.3435,-34.1961"/>
<polygon fill="#191970" stroke="#191970" points="313.6279,-30.9404 303.0421,-30.5048 311.0458,-37.4468 313.6279,-30.9404"/>
</g>
<!-- Node17&#45;&gt;Node8 -->
<g id="edge34" class="edge">
<title>Node17&#45;&gt;Node8</title>
<path fill="none" stroke="#191970" d="M1794.3332,-90.3346C1833.4466,-86.225 1881.4255,-81.468 1924.5,-78 2056.3157,-67.3875 2392.7086,-82.7986 2518.5,-42 2522.7875,-40.6094 2527.0702,-38.5282 2531.0622,-36.2079"/>
<polygon fill="#191970" stroke="#191970" points="2533.2455,-38.9629 2539.7152,-30.5728 2529.4255,-33.0971 2533.2455,-38.9629"/>
</g>
<!-- Node17&#45;&gt;Node9 -->
<g id="edge35" class="edge">
<title>Node17&#45;&gt;Node9</title>
<path fill="none" stroke="#191970" d="M1794.0961,-91.9804C1844.0231,-87.6441 1910.0269,-82.1375 1968.5,-78 2241.6183,-58.6742 2314.2837,-91.8968 2583.5,-42 2588.2033,-41.1283 2593.0387,-40.0204 2597.8514,-38.7707"/>
<polygon fill="#191970" stroke="#191970" points="2598.9576,-42.0959 2607.6489,-36.0369 2597.0762,-35.3534 2598.9576,-42.0959"/>
</g>
<!-- Node17&#45;&gt;Node10 -->
<g id="edge39" class="edge">
<title>Node17&#45;&gt;Node10</title>
<path fill="none" stroke="#191970" d="M1636.9828,-85.666C1619.7199,-82.9433 1601.5141,-80.2319 1584.5,-78 1428.5754,-57.5457 1386.4681,-74.0109 1232.5,-42 1228.1441,-41.0944 1223.6687,-40.0119 1219.1992,-38.8225"/>
<polygon fill="#191970" stroke="#191970" points="1220.0479,-35.4254 1209.4731,-36.0753 1218.1452,-42.1618 1220.0479,-35.4254"/>
</g>
<!-- Node17&#45;&gt;Node12 -->
<g id="edge33" class="edge">
<title>Node17&#45;&gt;Node12</title>
<path fill="none" stroke="#191970" d="M1636.6763,-95.2425C1543.4926,-90.8534 1383.7263,-83.4937 1246.5,-78 1019.8737,-68.9272 448.3464,-89.1802 226.5,-42 218.6865,-40.3383 210.5401,-37.5847 203.0768,-34.6097"/>
<polygon fill="#191970" stroke="#191970" points="204.3167,-31.3338 193.7443,-30.6446 201.5794,-37.7764 204.3167,-31.3338"/>
</g>
<!-- Node17&#45;&gt;Node14 -->
<g id="edge37" class="edge">
<title>Node17&#45;&gt;Node14</title>
<path fill="none" stroke="#191970" d="M1636.6794,-95.1641C1543.4986,-90.7003 1383.7351,-83.2699 1246.5,-78 996.7782,-68.4105 368.8019,-84.2883 122.5,-42 117.7152,-41.1785 112.7979,-40.0937 107.9091,-38.8492"/>
<polygon fill="#191970" stroke="#191970" points="108.5363,-35.3915 97.9654,-36.1035 106.6731,-42.139 108.5363,-35.3915"/>
</g>
<!-- Node17&#45;&gt;Node15 -->
<g id="edge38" class="edge">
<title>Node17&#45;&gt;Node15</title>
<path fill="none" stroke="#191970" d="M1636.9872,-93.8637C1439.1197,-80.9155 930.6043,-47.6146 851.3111,-41.1488"/>
<polygon fill="#191970" stroke="#191970" points="851.2936,-37.6312 841.0057,-40.1626 850.6268,-44.5994 851.2936,-37.6312"/>
</g>
<!-- Node18 -->
<g id="node19" class="node">
<title>Node18</title>
<polygon fill="#ffffff" stroke="#bfbfbf" points="1629,-11.5 1629,-30.5 1694,-30.5 1694,-11.5 1629,-11.5"/>
<text text-anchor="middle" x="1661.5" y="-18.5" font-family="Helvetica,sans-Serif" font-size="10.00" fill="#000000">functional</text>
</g>
<!-- Node17&#45;&gt;Node18 -->
<g id="edge25" class="edge">
<title>Node17&#45;&gt;Node18</title>
<path fill="none" stroke="#191970" d="M1705.0883,-83.9608C1696.2233,-71.1559 1683.4632,-52.7246 1674.0382,-39.1108"/>
<polygon fill="#191970" stroke="#191970" points="1676.7048,-36.8136 1668.135,-30.5839 1670.9494,-40.7981 1676.7048,-36.8136"/>
</g>
<!-- Node19 -->
<g id="node20" class="node">
<title>Node19</title>
<polygon fill="#ffffff" stroke="#bfbfbf" points="1712,-11.5 1712,-30.5 1761,-30.5 1761,-11.5 1712,-11.5"/>
<text text-anchor="middle" x="1736.5" y="-18.5" font-family="Helvetica,sans-Serif" font-size="10.00" fill="#000000">iosfwd</text>
</g>
<!-- Node17&#45;&gt;Node19 -->
<g id="edge26" class="edge">
<title>Node17&#45;&gt;Node19</title>
<path fill="none" stroke="#191970" d="M1719.549,-83.9608C1722.897,-71.5253 1727.6737,-53.7832 1731.3037,-40.3007"/>
<polygon fill="#191970" stroke="#191970" points="1734.6996,-41.15 1733.9197,-30.5839 1727.9403,-39.3301 1734.6996,-41.15"/>
</g>
<!-- Node17&#45;&gt;Node20 -->
<g id="edge29" class="edge">
<title>Node17&#45;&gt;Node20</title>
<path fill="none" stroke="#191970" d="M1636.6696,-95.4025C1543.4796,-91.1654 1383.7073,-83.9503 1246.5,-78 1151.1724,-73.8659 477.4498,-76.5307 388.5,-42 385.531,-40.8474 382.6609,-39.1891 379.9894,-37.3027"/>
<polygon fill="#191970" stroke="#191970" points="382.1707,-34.5643 372.2531,-30.8373 377.6819,-39.9356 382.1707,-34.5643"/>
</g>
<!-- Node21 -->
<g id="node22" class="node">
<title>Node21</title>
<polygon fill="#ffffff" stroke="#bfbfbf" points="1779,-11.5 1779,-30.5 1820,-30.5 1820,-11.5 1779,-11.5"/>
<text text-anchor="middle" x="1799.5" y="-18.5" font-family="Helvetica,sans-Serif" font-size="10.00" fill="#000000">tuple</text>
</g>
<!-- Node17&#45;&gt;Node21 -->
<g id="edge31" class="edge">
<title>Node17&#45;&gt;Node21</title>
<path fill="none" stroke="#191970" d="M1731.696,-83.9608C1746.0163,-70.6634 1766.8709,-51.2984 1781.6641,-37.5619"/>
<polygon fill="#191970" stroke="#191970" points="1784.2325,-39.9532 1789.1789,-30.5839 1779.4694,-34.8236 1784.2325,-39.9532"/>
</g>
<!-- Node22 -->
<g id="node23" class="node">
<title>Node22</title>
<polygon fill="#ffffff" stroke="#bfbfbf" points="1838,-6 1838,-36 1951,-36 1951,-6 1838,-6"/>
<text text-anchor="start" x="1846" y="-24" font-family="Helvetica,sans-Serif" font-size="10.00" fill="#000000">tensorflow/compiler</text>
<text text-anchor="middle" x="1894.5" y="-13" font-family="Helvetica,sans-Serif" font-size="10.00" fill="#000000">/xla/literal_util.h</text>
</g>
<!-- Node17&#45;&gt;Node22 -->
<g id="edge36" class="edge">
<title>Node17&#45;&gt;Node22</title>
<path fill="none" stroke="#191970" d="M1750.013,-83.9608C1778.6462,-71.4838 1819.5386,-53.6647 1850.5169,-40.1658"/>
<polygon fill="#191970" stroke="#191970" points="1852.0188,-43.3293 1859.788,-36.1259 1849.2224,-36.9121 1852.0188,-43.3293"/>
</g>
<!-- Node23 -->
<g id="node24" class="node">
<title>Node23</title>
<polygon fill="#ffffff" stroke="#bfbfbf" points="1969.5,-6 1969.5,-36 2109.5,-36 2109.5,-6 1969.5,-6"/>
<text text-anchor="start" x="1977.5" y="-24" font-family="Helvetica,sans-Serif" font-size="10.00" fill="#000000">tensorflow/compiler</text>
<text text-anchor="middle" x="2039.5" y="-13" font-family="Helvetica,sans-Serif" font-size="10.00" fill="#000000">/xla/service/hlo_opcode.h</text>
</g>
<!-- Node17&#45;&gt;Node23 -->
<g id="edge40" class="edge">
<title>Node17&#45;&gt;Node23</title>
<path fill="none" stroke="#191970" d="M1782.1555,-83.9437C1831.2694,-72.7247 1899.6496,-56.8432 1959.5,-42 1963.851,-40.9209 1968.3306,-39.7927 1972.8426,-38.6435"/>
<polygon fill="#191970" stroke="#191970" points="1973.9187,-41.9808 1982.7347,-36.1047 1972.1785,-35.2005 1973.9187,-41.9808"/>
</g>
<!-- Node24 -->
<g id="node25" class="node">
<title>Node24</title>
<polygon fill="#ffffff" stroke="#bfbfbf" points="2128,-6 2128,-36 2275,-36 2275,-6 2128,-6"/>
<text text-anchor="start" x="2136" y="-24" font-family="Helvetica,sans-Serif" font-size="10.00" fill="#000000">tensorflow/compiler</text>
<text text-anchor="middle" x="2201.5" y="-13" font-family="Helvetica,sans-Serif" font-size="10.00" fill="#000000">/xla/service/hlo_sharding.h</text>
</g>
<!-- Node17&#45;&gt;Node24 -->
<g id="edge41" class="edge">
<title>Node17&#45;&gt;Node24</title>
<path fill="none" stroke="#191970" d="M1779.2032,-83.9892C1789.6274,-81.8009 1800.3396,-79.7123 1810.5,-78 1946.4044,-55.0969 1982.9576,-66.9564 2118.5,-42 2124.3061,-40.931 2130.3085,-39.6881 2136.3066,-38.3512"/>
<polygon fill="#191970" stroke="#191970" points="2137.4069,-41.6892 2146.3614,-36.0264 2135.8299,-34.8691 2137.4069,-41.6892"/>
</g>
<!-- Node17&#45;&gt;Node25 -->
<g id="edge42" class="edge">
<title>Node17&#45;&gt;Node25</title>
<path fill="none" stroke="#191970" d="M1794.1563,-87.6604C1819.4547,-84.2506 1847.6292,-80.7016 1873.5,-78 2083.19,-56.1026 2138.287,-75.1168 2346.5,-42 2353.1287,-40.9457 2359.9986,-39.6399 2366.8344,-38.1992"/>
<polygon fill="#191970" stroke="#191970" points="2367.7804,-41.5749 2376.7933,-36.0055 2366.2744,-34.7388 2367.7804,-41.5749"/>
</g>
<!-- Node17&#45;&gt;Node26 -->
<g id="edge43" class="edge">
<title>Node17&#45;&gt;Node26</title>
<path fill="none" stroke="#191970" d="M1794.1962,-95.399C1890.3038,-91.0476 2057.8271,-83.6123 2201.5,-78 2430.576,-69.0516 3006.6115,-81.1191 3232.5,-42 3237.2836,-41.1716 3242.2001,-40.0821 3247.0884,-38.8345"/>
<polygon fill="#191970" stroke="#191970" points="3248.3261,-42.1237 3257.0313,-36.0847 3246.4602,-35.377 3248.3261,-42.1237"/>
</g>
<!-- Node17&#45;&gt;Node27 -->
<g id="edge44" class="edge">
<title>Node17&#45;&gt;Node27</title>
<path fill="none" stroke="#191970" d="M1794.0913,-94.8026C1876.6168,-90.4355 2010.1666,-83.4822 2125.5,-78 2490.3276,-60.6584 2586.8987,-105.9281 2946.5,-42 2951.2799,-41.1503 2956.1938,-40.0462 2961.0804,-38.7892"/>
<polygon fill="#191970" stroke="#191970" points="2962.3235,-42.0764 2971.0211,-36.0266 2960.4491,-35.332 2962.3235,-42.0764"/>
</g>
<!-- Node17&#45;&gt;Node28 -->
<g id="edge45" class="edge">
<title>Node17&#45;&gt;Node28</title>
<path fill="none" stroke="#191970" d="M1636.85,-93.0777C1447.7455,-78.8218 982.5538,-43.6466 974.5,-42 970.3664,-41.1549 966.1278,-40.1132 961.9016,-38.9498"/>
<polygon fill="#191970" stroke="#191970" points="962.7006,-35.5362 952.1182,-36.0494 960.7109,-42.2474 962.7006,-35.5362"/>
</g>
<!-- Node29 -->
<g id="node30" class="node">
<title>Node29</title>
<polygon fill="#ffffff" stroke="#bfbfbf" points="1373,-6 1373,-36 1480,-36 1480,-6 1373,-6"/>
<text text-anchor="start" x="1381" y="-24" font-family="Helvetica,sans-Serif" font-size="10.00" fill="#000000">tensorflow/core/lib</text>
<text text-anchor="middle" x="1426.5" y="-13" font-family="Helvetica,sans-Serif" font-size="10.00" fill="#000000">/core/stringpiece.h</text>
</g>
<!-- Node17&#45;&gt;Node29 -->
<g id="edge46" class="edge">
<title>Node17&#45;&gt;Node29</title>
<path fill="none" stroke="#191970" d="M1649.5598,-83.9264C1604.0524,-73.1618 1542.2913,-57.8354 1488.5,-42 1485.3929,-41.0853 1482.2093,-40.114 1479.0045,-39.1101"/>
<polygon fill="#191970" stroke="#191970" points="1479.9739,-35.7454 1469.3827,-36.0241 1477.836,-42.411 1479.9739,-35.7454"/>
</g>
<!-- Node17&#45;&gt;Node30 -->
<g id="edge47" class="edge">
<title>Node17&#45;&gt;Node30</title>
<path fill="none" stroke="#191970" d="M1636.9063,-88.517C1608.4558,-84.9119 1576.0593,-81.0254 1546.5,-78 1348.2259,-57.7066 1294.6983,-82.2748 1099.5,-42 1095.3679,-41.1474 1091.1304,-40.1005 1086.905,-38.9335"/>
<polygon fill="#191970" stroke="#191970" points="1087.7054,-35.5202 1077.1227,-36.0276 1085.712,-42.2304 1087.7054,-35.5202"/>
</g>
<!-- Node17&#45;&gt;Node31 -->
<g id="edge48" class="edge">
<title>Node17&#45;&gt;Node31</title>
<path fill="none" stroke="#191970" d="M1636.7916,-94.7157C1556.6961,-90.3843 1428.9649,-83.5552 1318.5,-78 982.9872,-61.1274 893.5731,-104.4922 563.5,-42 559.1103,-41.1689 554.6067,-40.0978 550.1277,-38.8801"/>
<polygon fill="#191970" stroke="#191970" points="550.9972,-35.4875 540.4155,-36.0162 549.0173,-42.2017 550.9972,-35.4875"/>
</g>
<!-- Node32 -->
<g id="node33" class="node">
<title>Node32</title>
<polygon fill="#ffffff" stroke="#bfbfbf" points="1498,-6 1498,-36 1611,-36 1611,-6 1498,-6"/>
<text text-anchor="start" x="1506" y="-24" font-family="Helvetica,sans-Serif" font-size="10.00" fill="#000000">tensorflow/core/lib</text>
<text text-anchor="middle" x="1554.5" y="-13" font-family="Helvetica,sans-Serif" font-size="10.00" fill="#000000">/gtl/inlined_vector.h</text>
</g>
<!-- Node17&#45;&gt;Node32 -->
<g id="edge49" class="edge">
<title>Node17&#45;&gt;Node32</title>
<path fill="none" stroke="#191970" d="M1684.4576,-83.9608C1658.9257,-71.5913 1622.5567,-53.9716 1594.7828,-40.5159"/>
<polygon fill="#191970" stroke="#191970" points="1596.2469,-37.3361 1585.7214,-36.1259 1593.1948,-43.6358 1596.2469,-37.3361"/>
</g>
<!-- Node17&#45;&gt;Node33 -->
<g id="edge50" class="edge">
<title>Node17&#45;&gt;Node33</title>
<path fill="none" stroke="#191970" d="M1652.3625,-83.9941C1642.3985,-81.8426 1632.1894,-79.7641 1622.5,-78 1508.1619,-57.1825 1476.7806,-67.9631 1363.5,-42 1359.4687,-41.0761 1355.3294,-40.0141 1351.1864,-38.8689"/>
<polygon fill="#191970" stroke="#191970" points="1352.1413,-35.5017 1341.5618,-36.0715 1350.1875,-42.2235 1352.1413,-35.5017"/>
</g>
<!-- Node17&#45;&gt;Node34 -->
<g id="edge51" class="edge">
<title>Node17&#45;&gt;Node34</title>
<path fill="none" stroke="#191970" d="M1794.086,-92.9517C1853.2846,-88.5013 1936.4613,-82.4729 2009.5,-78 2322.6549,-58.8224 2404.6175,-91.0575 2714.5,-42 2720.5903,-41.0358 2726.8894,-39.7834 2733.1461,-38.3701"/>
<polygon fill="#191970" stroke="#191970" points="2733.9955,-41.7658 2742.9068,-36.0353 2732.3669,-34.9579 2733.9955,-41.7658"/>
</g>
<!-- Node17&#45;&gt;Node35 -->
<g id="edge52" class="edge">
<title>Node17&#45;&gt;Node35</title>
<path fill="none" stroke="#191970" d="M1636.7146,-94.3445C1563.9806,-90.0578 1452.9559,-83.5425 1356.5,-78 1072.9611,-61.7076 998.8196,-87.6145 718.5,-42 712.7174,-41.059 706.7446,-39.8561 700.802,-38.5033"/>
<polygon fill="#191970" stroke="#191970" points="701.4107,-35.0498 690.8686,-36.105 699.7679,-41.8543 701.4107,-35.0498"/>
</g>
<!-- Node17&#45;&gt;Node36 -->
<g id="edge53" class="edge">
<title>Node17&#45;&gt;Node36</title>
<path fill="none" stroke="#191970" d="M1794.3954,-95.1232C1883.8804,-90.7676 2034.1727,-83.578 2163.5,-78 2569.6596,-60.4821 2675.5998,-103.2268 3077.5,-42 3083.6868,-41.0575 3090.0868,-39.8055 3096.4376,-38.3805"/>
<polygon fill="#191970" stroke="#191970" points="3097.4245,-41.7433 3106.3394,-36.0184 3095.8002,-34.9344 3097.4245,-41.7433"/>
</g>
<!-- Node42&#45;&gt;Node26 -->
<g id="edge70" class="edge">
<title>Node42&#45;&gt;Node26</title>
<path fill="none" stroke="#191970" d="M2590.2003,-80.6434C2595.0166,-79.6396 2599.8197,-78.7408 2604.5,-78 2880.6315,-34.2918 2957.5815,-92.7819 3232.5,-42 3237.2039,-41.1311 3242.0396,-40.0252 3246.8525,-38.7768"/>
<polygon fill="#191970" stroke="#191970" points="3247.958,-42.1022 3256.6504,-36.0448 3246.0777,-35.3594 3247.958,-42.1022"/>
</g>
<!-- Node42&#45;&gt;Node27 -->
<g id="edge71" class="edge">
<title>Node42&#45;&gt;Node27</title>
<path fill="none" stroke="#191970" d="M2590.2435,-80.8965C2595.0497,-79.8334 2599.8386,-78.852 2604.5,-78 2754.8487,-50.518 2796.9063,-73.3323 2946.5,-42 2950.8545,-41.0879 2955.329,-40.0009 2959.7978,-38.8084"/>
<polygon fill="#191970" stroke="#191970" points="2960.8538,-42.1471 2969.523,-36.0565 2958.9478,-35.4115 2960.8538,-42.1471"/>
</g>
</g>
</svg>
