<?xml version="1.0" encoding="UTF-8" standalone="no"?>
<!DOCTYPE svg PUBLIC "-//W3C//DTD SVG 1.1//EN"
 "http://www.w3.org/Graphics/SVG/1.1/DTD/svg11.dtd">
<!-- Generated by graphviz version 2.40.1 (20161225.0304)
 -->
<!-- Title: tensorflow/tensorflow/compiler/xla/service/hlo_module.cc Pages: 1 -->
<svg width="3221pt" height="273pt"
 viewBox="0.00 0.00 3221.00 273.00" xmlns="http://www.w3.org/2000/svg" xmlns:xlink="http://www.w3.org/1999/xlink">
<g id="graph0" class="graph" transform="scale(1 1) rotate(0) translate(4 269)">
<title>tensorflow/tensorflow/compiler/xla/service/hlo_module.cc</title>
<polygon fill="#ffffff" stroke="transparent" points="-4,4 -4,-269 3217,-269 3217,4 -4,4"/>
<!-- Node0 -->
<g id="node1" class="node">
<title>Node0</title>
<polygon fill="#bfbfbf" stroke="#000000" points="2523,-223.5 2523,-264.5 2633,-264.5 2633,-223.5 2523,-223.5"/>
<text text-anchor="start" x="2531" y="-252.5" font-family="Helvetica,sans-Serif" font-size="10.00" fill="#000000">tensorflow/tensorflow</text>
<text text-anchor="start" x="2531" y="-241.5" font-family="Helvetica,sans-Serif" font-size="10.00" fill="#000000">/compiler/xla/service</text>
<text text-anchor="middle" x="2578" y="-230.5" font-family="Helvetica,sans-Serif" font-size="10.00" fill="#000000">/hlo_module.cc</text>
</g>
<!-- Node1 -->
<g id="node2" class="node">
<title>Node1</title>
<g id="a_node2"><a xlink:href="../../db/da0/hlo__module_8h.html" target="_top" xlink:title="tensorflow/compiler\l/xla/service/hlo_module.h">
<polygon fill="#ffffff" stroke="#000000" points="1744,-156.5 1744,-186.5 1872,-186.5 1872,-156.5 1744,-156.5"/>
<text text-anchor="start" x="1752" y="-174.5" font-family="Helvetica,sans-Serif" font-size="10.00" fill="#000000">tensorflow/compiler</text>
<text text-anchor="middle" x="1808" y="-163.5" font-family="Helvetica,sans-Serif" font-size="10.00" fill="#000000">/xla/service/hlo_module.h</text>
</a>
</g>
</g>
<!-- Node0&#45;&gt;Node1 -->
<g id="edge1" class="edge">
<title>Node0&#45;&gt;Node1</title>
<path fill="none" stroke="#191970" d="M2522.9325,-238.8151C2387.2484,-226.0396 2036.7111,-193.0345 1882.5825,-178.5224"/>
<polygon fill="#191970" stroke="#191970" points="1882.5584,-175.0047 1872.2743,-177.5518 1881.9022,-181.9739 1882.5584,-175.0047"/>
</g>
<!-- Node7 -->
<g id="node8" class="node">
<title>Node7</title>
<polygon fill="#ffffff" stroke="#bfbfbf" points="273.5,-11.5 273.5,-30.5 356.5,-30.5 356.5,-11.5 273.5,-11.5"/>
<text text-anchor="middle" x="315" y="-18.5" font-family="Helvetica,sans-Serif" font-size="10.00" fill="#000000">unordered_map</text>
</g>
<!-- Node0&#45;&gt;Node7 -->
<g id="edge49" class="edge">
<title>Node0&#45;&gt;Node7</title>
<path fill="none" stroke="#191970" d="M2522.7279,-240.7777C2387.9728,-232.8095 2031.8026,-211.0735 1735,-187 1419.9621,-161.4474 1338.1731,-175.436 1027,-120 955.0425,-107.1806 940.0996,-89.9945 868,-78 646.9111,-41.2196 582.9912,-94.0859 365,-42 357.863,-40.2947 350.4373,-37.6814 343.5603,-34.8709"/>
<polygon fill="#191970" stroke="#191970" points="344.5403,-31.4802 333.9746,-30.695 341.7446,-37.8977 344.5403,-31.4802"/>
</g>
<!-- Node12 -->
<g id="node13" class="node">
<title>Node12</title>
<polygon fill="#ffffff" stroke="#bfbfbf" points="0,-11.5 0,-30.5 78,-30.5 78,-11.5 0,-11.5"/>
<text text-anchor="middle" x="39" y="-18.5" font-family="Helvetica,sans-Serif" font-size="10.00" fill="#000000">unordered_set</text>
</g>
<!-- Node0&#45;&gt;Node12 -->
<g id="edge50" class="edge">
<title>Node0&#45;&gt;Node12</title>
<path fill="none" stroke="#191970" d="M2522.9616,-242.9012C2261.5941,-237.5817 1143.9783,-213.6687 796,-187 550.0286,-168.149 481.7763,-189.2407 245,-120 175.4838,-99.6713 100.3717,-58.0015 62.9848,-35.7584"/>
<polygon fill="#191970" stroke="#191970" points="64.6923,-32.7012 54.3188,-30.5468 61.0846,-38.6999 64.6923,-32.7012"/>
</g>
<!-- Node13 -->
<g id="node14" class="node">
<title>Node13</title>
<polygon fill="#ffffff" stroke="#bfbfbf" points="96,-11.5 96,-30.5 136,-30.5 136,-11.5 96,-11.5"/>
<text text-anchor="middle" x="116" y="-18.5" font-family="Helvetica,sans-Serif" font-size="10.00" fill="#000000">utility</text>
</g>
<!-- Node0&#45;&gt;Node13 -->
<g id="edge51" class="edge">
<title>Node0&#45;&gt;Node13</title>
<path fill="none" stroke="#191970" d="M2522.8939,-242.794C2283.4357,-237.4257 1331.9644,-214.7429 1034,-187 833.9792,-168.3764 785.2645,-152.3471 587,-120 390.1232,-87.8793 328.6781,-119.8111 145,-42 141.6355,-40.5747 138.2871,-38.6968 135.1249,-36.6492"/>
<polygon fill="#191970" stroke="#191970" points="137.0011,-33.6868 126.8466,-30.6643 132.8999,-39.3596 137.0011,-33.6868"/>
</g>
<!-- Node14 -->
<g id="node15" class="node">
<title>Node14</title>
<polygon fill="#ffffff" stroke="#bfbfbf" points="154.5,-6 154.5,-36 255.5,-36 255.5,-6 154.5,-6"/>
<text text-anchor="start" x="162.5" y="-24" font-family="Helvetica,sans-Serif" font-size="10.00" fill="#000000">tensorflow/compiler</text>
<text text-anchor="middle" x="205" y="-13" font-family="Helvetica,sans-Serif" font-size="10.00" fill="#000000">/xla/map_util.h</text>
</g>
<!-- Node0&#45;&gt;Node14 -->
<g id="edge52" class="edge">
<title>Node0&#45;&gt;Node14</title>
<path fill="none" stroke="#191970" d="M2522.8872,-242.4351C2307.265,-236.1824 1520.5234,-212.1135 1272,-187 965.2873,-156.0064 892.4947,-119.3072 587,-78 443.8582,-58.6452 404.756,-74.4339 264,-42 260.3977,-41.1699 256.7116,-40.1899 253.0274,-39.1145"/>
<polygon fill="#191970" stroke="#191970" points="253.9277,-35.7289 243.3387,-36.0821 251.8368,-42.4093 253.9277,-35.7289"/>
</g>
<!-- Node22 -->
<g id="node23" class="node">
<title>Node22</title>
<polygon fill="#ffffff" stroke="#bfbfbf" points="2681.5,-6 2681.5,-36 2782.5,-36 2782.5,-6 2681.5,-6"/>
<text text-anchor="start" x="2689.5" y="-24" font-family="Helvetica,sans-Serif" font-size="10.00" fill="#000000">tensorflow/compiler</text>
<text text-anchor="middle" x="2732" y="-13" font-family="Helvetica,sans-Serif" font-size="10.00" fill="#000000">/xla/types.h</text>
</g>
<!-- Node0&#45;&gt;Node22 -->
<g id="edge55" class="edge">
<title>Node0&#45;&gt;Node22</title>
<path fill="none" stroke="#191970" d="M2570.7995,-223.4086C2565.5816,-204.8896 2561.0216,-177.389 2571,-156 2595.7708,-102.9028 2652.8389,-63.2897 2691.9239,-41.1428"/>
<polygon fill="#191970" stroke="#191970" points="2693.8911,-44.0547 2700.9514,-36.1552 2690.5059,-37.9276 2693.8911,-44.0547"/>
</g>
<!-- Node29 -->
<g id="node30" class="node">
<title>Node29</title>
<polygon fill="#ffffff" stroke="#bfbfbf" points="2541,-6 2541,-36 2663,-36 2663,-6 2541,-6"/>
<text text-anchor="start" x="2549" y="-24" font-family="Helvetica,sans-Serif" font-size="10.00" fill="#000000">tensorflow/core/platform</text>
<text text-anchor="middle" x="2602" y="-13" font-family="Helvetica,sans-Serif" font-size="10.00" fill="#000000">/types.h</text>
</g>
<!-- Node0&#45;&gt;Node29 -->
<g id="edge58" class="edge">
<title>Node0&#45;&gt;Node29</title>
<path fill="none" stroke="#191970" d="M2558.7746,-223.2382C2550.6847,-213.106 2542.1875,-200.2571 2538,-187 2533.8501,-173.8621 2534.9752,-169.4416 2538,-156 2547.2811,-114.7567 2570.6858,-71.3092 2586.4683,-45.1814"/>
<polygon fill="#191970" stroke="#191970" points="2589.6288,-46.7242 2591.8978,-36.3751 2583.6703,-43.0504 2589.6288,-46.7242"/>
</g>
<!-- Node35 -->
<g id="node36" class="node">
<title>Node35</title>
<polygon fill="#ffffff" stroke="#bfbfbf" points="2580.5,-162 2580.5,-181 2627.5,-181 2627.5,-162 2580.5,-162"/>
<text text-anchor="middle" x="2604" y="-169" font-family="Helvetica,sans-Serif" font-size="10.00" fill="#000000">iterator</text>
</g>
<!-- Node0&#45;&gt;Node35 -->
<g id="edge46" class="edge">
<title>Node0&#45;&gt;Node35</title>
<path fill="none" stroke="#191970" d="M2585.381,-223.4183C2589.0803,-213.1029 2593.5314,-200.6913 2597.1538,-190.5904"/>
<polygon fill="#191970" stroke="#191970" points="2600.4813,-191.6799 2600.5625,-181.0853 2593.8922,-189.3168 2600.4813,-191.6799"/>
</g>
<!-- Node36 -->
<g id="node37" class="node">
<title>Node36</title>
<polygon fill="#ffffff" stroke="#bfbfbf" points="2646,-162 2646,-181 2676,-181 2676,-162 2646,-162"/>
<text text-anchor="middle" x="2661" y="-169" font-family="Helvetica,sans-Serif" font-size="10.00" fill="#000000">set</text>
</g>
<!-- Node0&#45;&gt;Node36 -->
<g id="edge47" class="edge">
<title>Node0&#45;&gt;Node36</title>
<path fill="none" stroke="#191970" d="M2601.5625,-223.4183C2614.4907,-212.1256 2630.2948,-198.3208 2642.3558,-187.7856"/>
<polygon fill="#191970" stroke="#191970" points="2644.7975,-190.3 2650.0264,-181.0853 2640.1925,-185.028 2644.7975,-190.3"/>
</g>
<!-- Node37 -->
<g id="node38" class="node">
<title>Node37</title>
<polygon fill="#ffffff" stroke="#bfbfbf" points="2694,-162 2694,-181 2746,-181 2746,-162 2694,-162"/>
<text text-anchor="middle" x="2720" y="-169" font-family="Helvetica,sans-Serif" font-size="10.00" fill="#000000">sstream</text>
</g>
<!-- Node0&#45;&gt;Node37 -->
<g id="edge48" class="edge">
<title>Node0&#45;&gt;Node37</title>
<path fill="none" stroke="#191970" d="M2618.3117,-223.4183C2641.9185,-211.3655 2671.1302,-196.4511 2692.1788,-185.7045"/>
<polygon fill="#191970" stroke="#191970" points="2693.9112,-188.7499 2701.2259,-181.0853 2690.728,-182.5154 2693.9112,-188.7499"/>
</g>
<!-- Node38 -->
<g id="node39" class="node">
<title>Node38</title>
<polygon fill="#ffffff" stroke="#bfbfbf" points="2764.5,-156.5 2764.5,-186.5 2865.5,-186.5 2865.5,-156.5 2764.5,-156.5"/>
<text text-anchor="start" x="2772.5" y="-174.5" font-family="Helvetica,sans-Serif" font-size="10.00" fill="#000000">tensorflow/compiler</text>
<text text-anchor="middle" x="2815" y="-163.5" font-family="Helvetica,sans-Serif" font-size="10.00" fill="#000000">/xla/ptr_util.h</text>
</g>
<!-- Node0&#45;&gt;Node38 -->
<g id="edge53" class="edge">
<title>Node0&#45;&gt;Node38</title>
<path fill="none" stroke="#191970" d="M2633.2669,-227.0935C2670.056,-215.8394 2718.3445,-201.0676 2755.8982,-189.5797"/>
<polygon fill="#191970" stroke="#191970" points="2757.154,-192.8557 2765.6927,-186.5834 2755.1063,-186.1619 2757.154,-192.8557"/>
</g>
<!-- Node39 -->
<g id="node40" class="node">
<title>Node39</title>
<polygon fill="#ffffff" stroke="#bfbfbf" points="2883.5,-156.5 2883.5,-186.5 2984.5,-186.5 2984.5,-156.5 2883.5,-156.5"/>
<text text-anchor="start" x="2891.5" y="-174.5" font-family="Helvetica,sans-Serif" font-size="10.00" fill="#000000">tensorflow/compiler</text>
<text text-anchor="middle" x="2934" y="-163.5" font-family="Helvetica,sans-Serif" font-size="10.00" fill="#000000">/xla/shape_util.h</text>
</g>
<!-- Node0&#45;&gt;Node39 -->
<g id="edge54" class="edge">
<title>Node0&#45;&gt;Node39</title>
<path fill="none" stroke="#191970" d="M2633.0406,-234.4643C2690.5446,-224.2631 2783.5722,-207.0894 2873.4992,-187.0348"/>
<polygon fill="#191970" stroke="#191970" points="2874.3245,-190.4367 2883.3151,-184.8314 2872.7913,-183.6067 2874.3245,-190.4367"/>
</g>
<!-- Node40 -->
<g id="node41" class="node">
<title>Node40</title>
<polygon fill="#ffffff" stroke="#bfbfbf" points="3003,-156.5 3003,-186.5 3099,-186.5 3099,-156.5 3003,-156.5"/>
<text text-anchor="start" x="3011" y="-174.5" font-family="Helvetica,sans-Serif" font-size="10.00" fill="#000000">tensorflow/core/lib</text>
<text text-anchor="middle" x="3051" y="-163.5" font-family="Helvetica,sans-Serif" font-size="10.00" fill="#000000">/gtl/map_util.h</text>
</g>
<!-- Node0&#45;&gt;Node40 -->
<g id="edge56" class="edge">
<title>Node0&#45;&gt;Node40</title>
<path fill="none" stroke="#191970" d="M2633.0791,-238.6448C2710.9624,-230.5856 2857.8152,-213.6029 2992.5914,-186.916"/>
<polygon fill="#191970" stroke="#191970" points="2993.5679,-190.2901 3002.6858,-184.8943 2992.1931,-183.4264 2993.5679,-190.2901"/>
</g>
<!-- Node41 -->
<g id="node42" class="node">
<title>Node41</title>
<polygon fill="#ffffff" stroke="#bfbfbf" points="3117,-156.5 3117,-186.5 3213,-186.5 3213,-156.5 3117,-156.5"/>
<text text-anchor="start" x="3125" y="-174.5" font-family="Helvetica,sans-Serif" font-size="10.00" fill="#000000">tensorflow/core/lib</text>
<text text-anchor="middle" x="3165" y="-163.5" font-family="Helvetica,sans-Serif" font-size="10.00" fill="#000000">/strings/strcat.h</text>
</g>
<!-- Node0&#45;&gt;Node41 -->
<g id="edge57" class="edge">
<title>Node0&#45;&gt;Node41</title>
<path fill="none" stroke="#191970" d="M2633.3559,-240.9414C2728.4463,-235.0569 2928.9539,-219.8923 3106.8574,-187.0316"/>
<polygon fill="#191970" stroke="#191970" points="3107.7364,-190.428 3116.9224,-185.1488 3106.4493,-183.5473 3107.7364,-190.428"/>
</g>
<!-- Node2 -->
<g id="node3" class="node">
<title>Node2</title>
<polygon fill="#ffffff" stroke="#bfbfbf" points="1511,-89.5 1511,-108.5 1557,-108.5 1557,-89.5 1511,-89.5"/>
<text text-anchor="middle" x="1534" y="-96.5" font-family="Helvetica,sans-Serif" font-size="10.00" fill="#000000">atomic</text>
</g>
<!-- Node1&#45;&gt;Node2 -->
<g id="edge2" class="edge">
<title>Node1&#45;&gt;Node2</title>
<path fill="none" stroke="#191970" d="M1743.8714,-162.9436C1695.3093,-155.1902 1627.5379,-141.611 1571,-120 1566.5327,-118.2924 1561.9582,-116.1052 1557.6166,-113.7902"/>
<polygon fill="#191970" stroke="#191970" points="1559.0361,-110.5705 1548.6159,-108.6548 1555.5671,-116.6506 1559.0361,-110.5705"/>
</g>
<!-- Node3 -->
<g id="node4" class="node">
<title>Node3</title>
<polygon fill="#ffffff" stroke="#bfbfbf" points="2301.5,-11.5 2301.5,-30.5 2330.5,-30.5 2330.5,-11.5 2301.5,-11.5"/>
<text text-anchor="middle" x="2316" y="-18.5" font-family="Helvetica,sans-Serif" font-size="10.00" fill="#000000">list</text>
</g>
<!-- Node1&#45;&gt;Node3 -->
<g id="edge3" class="edge">
<title>Node1&#45;&gt;Node3</title>
<path fill="none" stroke="#191970" d="M1872.1344,-170.0603C2007.3552,-166.3608 2311.8651,-154.2759 2343,-120 2363.5432,-97.3843 2344.4443,-60.6394 2329.5977,-38.846"/>
<polygon fill="#191970" stroke="#191970" points="2332.2922,-36.5972 2323.6233,-30.5061 2326.6017,-40.6737 2332.2922,-36.5972"/>
</g>
<!-- Node4 -->
<g id="node5" class="node">
<title>Node4</title>
<polygon fill="#ffffff" stroke="#bfbfbf" points="2349,-11.5 2349,-30.5 2401,-30.5 2401,-11.5 2349,-11.5"/>
<text text-anchor="middle" x="2375" y="-18.5" font-family="Helvetica,sans-Serif" font-size="10.00" fill="#000000">memory</text>
</g>
<!-- Node1&#45;&gt;Node4 -->
<g id="edge4" class="edge">
<title>Node1&#45;&gt;Node4</title>
<path fill="none" stroke="#191970" d="M1872.233,-169.9571C2010.6319,-166.0099 2327.3166,-153.3941 2362,-120 2383.0451,-99.7372 2382.0156,-63.249 2378.8551,-40.6794"/>
<polygon fill="#191970" stroke="#191970" points="2382.2673,-39.8635 2377.1668,-30.5772 2375.3631,-41.0174 2382.2673,-39.8635"/>
</g>
<!-- Node5 -->
<g id="node6" class="node">
<title>Node5</title>
<polygon fill="#ffffff" stroke="#bfbfbf" points="1613.5,-89.5 1613.5,-108.5 1662.5,-108.5 1662.5,-89.5 1613.5,-89.5"/>
<text text-anchor="middle" x="1638" y="-96.5" font-family="Helvetica,sans-Serif" font-size="10.00" fill="#000000">random</text>
</g>
<!-- Node1&#45;&gt;Node5 -->
<g id="edge5" class="edge">
<title>Node1&#45;&gt;Node5</title>
<path fill="none" stroke="#191970" d="M1760.6899,-156.4309C1733.8131,-147.2046 1699.8707,-134.4174 1671,-120 1667.5142,-118.2593 1663.9333,-116.244 1660.475,-114.1646"/>
<polygon fill="#191970" stroke="#191970" points="1662.08,-111.0386 1651.7566,-108.6555 1658.3406,-116.9562 1662.08,-111.0386"/>
</g>
<!-- Node6 -->
<g id="node7" class="node">
<title>Node6</title>
<polygon fill="#ffffff" stroke="#bfbfbf" points="2419.5,-11.5 2419.5,-30.5 2460.5,-30.5 2460.5,-11.5 2419.5,-11.5"/>
<text text-anchor="middle" x="2440" y="-18.5" font-family="Helvetica,sans-Serif" font-size="10.00" fill="#000000">string</text>
</g>
<!-- Node1&#45;&gt;Node6 -->
<g id="edge6" class="edge">
<title>Node1&#45;&gt;Node6</title>
<path fill="none" stroke="#191970" d="M1872.1685,-169.1405C2013.5595,-163.4626 2342.7849,-147.4388 2385,-120 2413.1786,-101.6846 2428.2477,-63.6916 2435.1511,-40.4636"/>
<polygon fill="#191970" stroke="#191970" points="2438.5659,-41.2451 2437.8362,-30.6754 2431.8153,-39.3932 2438.5659,-41.2451"/>
</g>
<!-- Node1&#45;&gt;Node7 -->
<g id="edge7" class="edge">
<title>Node1&#45;&gt;Node7</title>
<path fill="none" stroke="#191970" d="M1743.965,-169.321C1597.5827,-163.9105 1242.1777,-148.2213 1126,-120 1079.5548,-108.7178 1073.5613,-88.7929 1027,-78 739.9539,-11.4625 652.1655,-108.0206 365,-42 357.5562,-40.2886 349.8091,-37.5531 342.6984,-34.6142"/>
<polygon fill="#191970" stroke="#191970" points="344.0474,-31.384 333.4848,-30.5579 341.2268,-37.7906 344.0474,-31.384"/>
</g>
<!-- Node8 -->
<g id="node9" class="node">
<title>Node8</title>
<polygon fill="#ffffff" stroke="#bfbfbf" points="2479,-11.5 2479,-30.5 2523,-30.5 2523,-11.5 2479,-11.5"/>
<text text-anchor="middle" x="2501" y="-18.5" font-family="Helvetica,sans-Serif" font-size="10.00" fill="#000000">vector</text>
</g>
<!-- Node1&#45;&gt;Node8 -->
<g id="edge8" class="edge">
<title>Node1&#45;&gt;Node8</title>
<path fill="none" stroke="#191970" d="M1872.0457,-168.8444C2018.5995,-162.3746 2369.4262,-144.5124 2417,-120 2451.7146,-102.1133 2477.9146,-63.0944 2491.2252,-39.7382"/>
<polygon fill="#191970" stroke="#191970" points="2494.3901,-41.246 2496.1279,-30.7946 2488.2518,-37.8811 2494.3901,-41.246"/>
</g>
<!-- Node9 -->
<g id="node10" class="node">
<title>Node9</title>
<polygon fill="#ffffff" stroke="#bfbfbf" points="374.5,-6 374.5,-36 475.5,-36 475.5,-6 374.5,-6"/>
<text text-anchor="start" x="382.5" y="-24" font-family="Helvetica,sans-Serif" font-size="10.00" fill="#000000">tensorflow/compiler</text>
<text text-anchor="middle" x="425" y="-13" font-family="Helvetica,sans-Serif" font-size="10.00" fill="#000000">/xla/iterator_util.h</text>
</g>
<!-- Node1&#45;&gt;Node9 -->
<g id="edge9" class="edge">
<title>Node1&#45;&gt;Node9</title>
<path fill="none" stroke="#191970" d="M1743.9909,-169.8967C1608.0554,-165.8816 1294.7665,-153.2239 1194,-120 1160.2642,-108.8769 1159.886,-88.6569 1126,-78 853.8056,7.603 764.8529,-97.6777 485,-42 480.9207,-41.1884 476.742,-40.1606 472.5818,-38.9979"/>
<polygon fill="#191970" stroke="#191970" points="473.5488,-35.6338 462.9633,-36.0783 471.5155,-42.3321 473.5488,-35.6338"/>
</g>
<!-- Node10 -->
<g id="node11" class="node">
<title>Node10</title>
<polygon fill="#ffffff" stroke="#bfbfbf" points="494,-6 494,-36 598,-36 598,-6 494,-6"/>
<text text-anchor="start" x="502" y="-24" font-family="Helvetica,sans-Serif" font-size="10.00" fill="#000000">tensorflow/compiler</text>
<text text-anchor="middle" x="546" y="-13" font-family="Helvetica,sans-Serif" font-size="10.00" fill="#000000">/xla/service/hlo.pb.h</text>
</g>
<!-- Node1&#45;&gt;Node10 -->
<g id="edge10" class="edge">
<title>Node1&#45;&gt;Node10</title>
<path fill="none" stroke="#191970" d="M1743.883,-169.3084C1618.8692,-164.4107 1347.0789,-150.5239 1259,-120 1226.5013,-108.7375 1226.6763,-88.7365 1194,-78 945.6816,3.5905 863.354,-93.0063 607,-42 602.86,-41.1763 598.617,-40.14 594.3909,-38.9715"/>
<polygon fill="#191970" stroke="#191970" points="595.2013,-35.5606 584.6174,-36.0431 593.1921,-42.2661 595.2013,-35.5606"/>
</g>
<!-- Node11 -->
<g id="node12" class="node">
<title>Node11</title>
<g id="a_node12"><a xlink:href="../../d2/d31/hlo__computation_8h.html" target="_top" xlink:title="tensorflow/compiler\l/xla/service/hlo_computation.h">
<polygon fill="#ffffff" stroke="#000000" points="1268.5,-84 1268.5,-114 1417.5,-114 1417.5,-84 1268.5,-84"/>
<text text-anchor="start" x="1276.5" y="-102" font-family="Helvetica,sans-Serif" font-size="10.00" fill="#000000">tensorflow/compiler</text>
<text text-anchor="middle" x="1343" y="-91" font-family="Helvetica,sans-Serif" font-size="10.00" fill="#000000">/xla/service/hlo_computation.h</text>
</a>
</g>
</g>
<!-- Node1&#45;&gt;Node11 -->
<g id="edge11" class="edge">
<title>Node1&#45;&gt;Node11</title>
<path fill="none" stroke="#191970" d="M1743.9889,-164.7022C1668.7385,-156.2618 1540.248,-140.4458 1431,-120 1424.921,-118.8623 1418.6302,-117.5778 1412.3365,-116.2185"/>
<polygon fill="#191970" stroke="#191970" points="1412.9948,-112.7796 1402.4742,-114.0314 1411.4792,-119.6135 1412.9948,-112.7796"/>
</g>
<!-- Node17 -->
<g id="node18" class="node">
<title>Node17</title>
<polygon fill="#ffffff" stroke="#bfbfbf" points="1871.5,-6 1871.5,-36 2012.5,-36 2012.5,-6 1871.5,-6"/>
<text text-anchor="start" x="1879.5" y="-24" font-family="Helvetica,sans-Serif" font-size="10.00" fill="#000000">tensorflow/compiler</text>
<text text-anchor="middle" x="1942" y="-13" font-family="Helvetica,sans-Serif" font-size="10.00" fill="#000000">/xla/service/hlo_instruction.h</text>
</g>
<!-- Node1&#45;&gt;Node17 -->
<g id="edge37" class="edge">
<title>Node1&#45;&gt;Node17</title>
<path fill="none" stroke="#191970" d="M1743.8241,-166.2272C1650.5488,-157.9048 1486.6558,-140.5406 1469,-120 1456.8322,-105.8441 1456.4171,-91.7882 1469,-78 1498.5582,-45.6104 1818.8128,-49.5926 1862,-42 1867.7984,-40.9806 1873.7916,-39.7491 1879.7683,-38.3995"/>
<polygon fill="#191970" stroke="#191970" points="1880.8478,-41.7409 1889.7739,-36.0335 1879.2369,-34.9287 1880.8478,-41.7409"/>
</g>
<!-- Node19 -->
<g id="node20" class="node">
<title>Node19</title>
<polygon fill="#ffffff" stroke="#bfbfbf" points="2031,-6 2031,-36 2169,-36 2169,-6 2031,-6"/>
<text text-anchor="start" x="2039" y="-24" font-family="Helvetica,sans-Serif" font-size="10.00" fill="#000000">tensorflow/compiler</text>
<text text-anchor="middle" x="2100" y="-13" font-family="Helvetica,sans-Serif" font-size="10.00" fill="#000000">/xla/service/name_uniquer.h</text>
</g>
<!-- Node1&#45;&gt;Node19 -->
<g id="edge39" class="edge">
<title>Node1&#45;&gt;Node19</title>
<path fill="none" stroke="#191970" d="M1743.6823,-165.0913C1658.5762,-155.9526 1517.4376,-138.2528 1502,-120 1489.9457,-105.7474 1489.2655,-91.6484 1502,-78 1541.4349,-35.735 1963.9754,-51.4681 2021,-42 2026.8297,-41.0321 2032.853,-39.8234 2038.8528,-38.478"/>
<polygon fill="#191970" stroke="#191970" points="2039.9641,-41.8117 2048.8893,-36.1028 2038.3521,-34.9998 2039.9641,-41.8117"/>
</g>
<!-- Node1&#45;&gt;Node22 -->
<g id="edge41" class="edge">
<title>Node1&#45;&gt;Node22</title>
<path fill="none" stroke="#191970" d="M1872.0462,-168.5528C2012.7331,-161.7291 2344.9632,-143.6079 2455,-120 2466.4775,-117.5376 2604.3866,-67.5329 2681.1733,-39.5558"/>
<polygon fill="#191970" stroke="#191970" points="2682.4788,-42.8053 2690.6757,-36.0924 2680.0817,-36.2285 2682.4788,-42.8053"/>
</g>
<!-- Node25 -->
<g id="node26" class="node">
<title>Node25</title>
<polygon fill="#ffffff" stroke="#bfbfbf" points="2187,-6 2187,-36 2283,-36 2283,-6 2187,-6"/>
<text text-anchor="start" x="2195" y="-24" font-family="Helvetica,sans-Serif" font-size="10.00" fill="#000000">tensorflow/core/lib</text>
<text text-anchor="middle" x="2235" y="-13" font-family="Helvetica,sans-Serif" font-size="10.00" fill="#000000">/gtl/array_slice.h</text>
</g>
<!-- Node1&#45;&gt;Node25 -->
<g id="edge42" class="edge">
<title>Node1&#45;&gt;Node25</title>
<path fill="none" stroke="#191970" d="M1743.6778,-163.9781C1667.8754,-152.7027 1557.7234,-127.2698 1604,-78 1647.7492,-31.4209 2115.4718,-55.1845 2178,-42 2181.673,-41.2255 2185.4265,-40.2605 2189.1671,-39.1727"/>
<polygon fill="#191970" stroke="#191970" points="2190.5056,-42.4199 2198.9746,-36.0538 2188.3842,-35.7491 2190.5056,-42.4199"/>
</g>
<!-- Node30 -->
<g id="node31" class="node">
<title>Node30</title>
<polygon fill="#ffffff" stroke="#bfbfbf" points="1680.5,-78.5 1680.5,-119.5 1799.5,-119.5 1799.5,-78.5 1680.5,-78.5"/>
<text text-anchor="start" x="1688.5" y="-107.5" font-family="Helvetica,sans-Serif" font-size="10.00" fill="#000000">tensorflow/compiler</text>
<text text-anchor="start" x="1688.5" y="-96.5" font-family="Helvetica,sans-Serif" font-size="10.00" fill="#000000">/xla/service/hlo_module</text>
<text text-anchor="middle" x="1740" y="-85.5" font-family="Helvetica,sans-Serif" font-size="10.00" fill="#000000">_config.h</text>
</g>
<!-- Node1&#45;&gt;Node30 -->
<g id="edge38" class="edge">
<title>Node1&#45;&gt;Node30</title>
<path fill="none" stroke="#191970" d="M1793.9104,-156.478C1785.9124,-147.9508 1775.645,-137.0039 1766.2203,-126.9555"/>
<polygon fill="#191970" stroke="#191970" points="1768.623,-124.4009 1759.229,-119.5015 1763.5173,-129.1897 1768.623,-124.4009"/>
</g>
<!-- Node31 -->
<g id="node32" class="node">
<title>Node31</title>
<polygon fill="#ffffff" stroke="#bfbfbf" points="1817.5,-78.5 1817.5,-119.5 1934.5,-119.5 1934.5,-78.5 1817.5,-78.5"/>
<text text-anchor="start" x="1825.5" y="-107.5" font-family="Helvetica,sans-Serif" font-size="10.00" fill="#000000">tensorflow/compiler</text>
<text text-anchor="start" x="1825.5" y="-96.5" font-family="Helvetica,sans-Serif" font-size="10.00" fill="#000000">/xla/service/versioned</text>
<text text-anchor="middle" x="1876" y="-85.5" font-family="Helvetica,sans-Serif" font-size="10.00" fill="#000000">_computation_handle.h</text>
</g>
<!-- Node1&#45;&gt;Node31 -->
<g id="edge40" class="edge">
<title>Node1&#45;&gt;Node31</title>
<path fill="none" stroke="#191970" d="M1822.0896,-156.478C1830.0876,-147.9508 1840.355,-137.0039 1849.7797,-126.9555"/>
<polygon fill="#191970" stroke="#191970" points="1852.4827,-129.1897 1856.771,-119.5015 1847.377,-124.4009 1852.4827,-129.1897"/>
</g>
<!-- Node32 -->
<g id="node33" class="node">
<title>Node32</title>
<polygon fill="#ffffff" stroke="#bfbfbf" points="1952.5,-84 1952.5,-114 2053.5,-114 2053.5,-84 1952.5,-84"/>
<text text-anchor="start" x="1960.5" y="-102" font-family="Helvetica,sans-Serif" font-size="10.00" fill="#000000">tensorflow/core/lib</text>
<text text-anchor="middle" x="2003" y="-91" font-family="Helvetica,sans-Serif" font-size="10.00" fill="#000000">/gtl/iterator_range.h</text>
</g>
<!-- Node1&#45;&gt;Node32 -->
<g id="edge43" class="edge">
<title>Node1&#45;&gt;Node32</title>
<path fill="none" stroke="#191970" d="M1848.4041,-156.478C1878.7334,-145.2017 1920.4436,-129.694 1952.8962,-117.6283"/>
<polygon fill="#191970" stroke="#191970" points="1954.4942,-120.7683 1962.6476,-114.0028 1952.0548,-114.2071 1954.4942,-120.7683"/>
</g>
<!-- Node33 -->
<g id="node34" class="node">
<title>Node33</title>
<polygon fill="#ffffff" stroke="#bfbfbf" points="2072,-84 2072,-114 2194,-114 2194,-84 2072,-84"/>
<text text-anchor="start" x="2080" y="-102" font-family="Helvetica,sans-Serif" font-size="10.00" fill="#000000">tensorflow/core/platform</text>
<text text-anchor="middle" x="2133" y="-91" font-family="Helvetica,sans-Serif" font-size="10.00" fill="#000000">/logging.h</text>
</g>
<!-- Node1&#45;&gt;Node33 -->
<g id="edge44" class="edge">
<title>Node1&#45;&gt;Node33</title>
<path fill="none" stroke="#191970" d="M1872.0217,-160.1251C1923.5911,-150.5777 1997.8142,-135.9668 2062,-120 2066.0697,-118.9876 2070.2552,-117.8922 2074.4609,-116.7514"/>
<polygon fill="#191970" stroke="#191970" points="2075.5694,-120.0761 2084.266,-114.0247 2073.6939,-113.332 2075.5694,-120.0761"/>
</g>
<!-- Node34 -->
<g id="node35" class="node">
<title>Node34</title>
<polygon fill="#ffffff" stroke="#bfbfbf" points="2212,-84 2212,-114 2334,-114 2334,-84 2212,-84"/>
<text text-anchor="start" x="2220" y="-102" font-family="Helvetica,sans-Serif" font-size="10.00" fill="#000000">tensorflow/core/platform</text>
<text text-anchor="middle" x="2273" y="-91" font-family="Helvetica,sans-Serif" font-size="10.00" fill="#000000">/mutex.h</text>
</g>
<!-- Node1&#45;&gt;Node34 -->
<g id="edge45" class="edge">
<title>Node1&#45;&gt;Node34</title>
<path fill="none" stroke="#191970" d="M1872.1641,-166.3501C1950.7648,-159.3054 2087.6917,-144.6437 2203,-120 2207.4474,-119.0495 2212.0216,-117.9535 2216.6001,-116.7713"/>
<polygon fill="#191970" stroke="#191970" points="2217.8443,-120.0606 2226.5821,-114.0689 2216.0149,-113.3038 2217.8443,-120.0606"/>
</g>
<!-- Node11&#45;&gt;Node3 -->
<g id="edge12" class="edge">
<title>Node11&#45;&gt;Node3</title>
<path fill="none" stroke="#191970" d="M1417.6728,-87.7942C1444.2396,-84.1638 1474.4036,-80.4466 1502,-78 1589.5256,-70.2402 2210.4707,-74.7705 2292,-42 2294.7933,-40.8772 2297.4827,-39.284 2299.9864,-37.4709"/>
<polygon fill="#191970" stroke="#191970" points="2302.3951,-40.015 2307.664,-30.8232 2297.813,-34.7231 2302.3951,-40.015"/>
</g>
<!-- Node11&#45;&gt;Node4 -->
<g id="edge13" class="edge">
<title>Node11&#45;&gt;Node4</title>
<path fill="none" stroke="#191970" d="M1417.6693,-87.7547C1444.2358,-84.1207 1474.4005,-80.4114 1502,-78 1687.4654,-61.7957 2160.3656,-94.4382 2339,-42 2343.8642,-40.5721 2348.7624,-38.3529 2353.3116,-35.8824"/>
<polygon fill="#191970" stroke="#191970" points="2355.2734,-38.7867 2362.0367,-30.6315 2351.6639,-32.7891 2355.2734,-38.7867"/>
</g>
<!-- Node11&#45;&gt;Node6 -->
<g id="edge14" class="edge">
<title>Node11&#45;&gt;Node6</title>
<path fill="none" stroke="#191970" d="M1417.6648,-87.7027C1444.2309,-84.064 1474.3965,-80.3651 1502,-78 1703.1992,-60.7613 2218.6463,-106.5138 2410,-42 2413.8876,-40.6893 2417.7216,-38.705 2421.2818,-36.47"/>
<polygon fill="#191970" stroke="#191970" points="2423.3414,-39.3001 2429.443,-30.6386 2419.2718,-33.6046 2423.3414,-39.3001"/>
</g>
<!-- Node11&#45;&gt;Node7 -->
<g id="edge15" class="edge">
<title>Node11&#45;&gt;Node7</title>
<path fill="none" stroke="#191970" d="M1268.2573,-90.8516C1226.4555,-86.5246 1173.3786,-81.4111 1126,-78 957.1369,-65.8425 530.1287,-79.3509 365,-42 357.5502,-40.3149 349.8009,-37.5889 342.69,-34.651"/>
<polygon fill="#191970" stroke="#191970" points="344.0395,-31.421 333.4772,-30.5912 341.2167,-37.8266 344.0395,-31.421"/>
</g>
<!-- Node11&#45;&gt;Node8 -->
<g id="edge18" class="edge">
<title>Node11&#45;&gt;Node8</title>
<path fill="none" stroke="#191970" d="M1417.6617,-87.6654C1444.2274,-84.0233 1474.3936,-80.3317 1502,-78 1716.2748,-59.9016 2264.1458,-107.391 2469,-42 2473.2018,-40.6588 2477.3759,-38.6013 2481.2542,-36.2892"/>
<polygon fill="#191970" stroke="#191970" points="2483.2958,-39.1341 2489.6407,-30.6493 2479.3894,-33.3255 2483.2958,-39.1341"/>
</g>
<!-- Node11&#45;&gt;Node9 -->
<g id="edge19" class="edge">
<title>Node11&#45;&gt;Node9</title>
<path fill="none" stroke="#191970" d="M1268.1191,-87.1146C1244.4616,-83.7177 1218.1846,-80.3136 1194,-78 879.9169,-47.9532 794.6163,-102.7353 485,-42 480.8576,-41.1874 476.6136,-40.1488 472.3908,-38.9699"/>
<polygon fill="#191970" stroke="#191970" points="473.2196,-35.5638 462.6339,-36.0048 471.1842,-42.2614 473.2196,-35.5638"/>
</g>
<!-- Node11&#45;&gt;Node10 -->
<g id="edge23" class="edge">
<title>Node11&#45;&gt;Node10</title>
<path fill="none" stroke="#191970" d="M1281.2888,-83.9864C1269.9413,-81.6582 1258.1565,-79.5241 1247,-78 964.7278,-39.4375 886.5567,-96.8878 607,-42 602.858,-41.1868 598.6135,-40.1578 594.3864,-38.9944"/>
<polygon fill="#191970" stroke="#191970" points="595.1949,-35.5831 584.6114,-36.0736 593.1908,-42.2901 595.1949,-35.5831"/>
</g>
<!-- Node11&#45;&gt;Node12 -->
<g id="edge16" class="edge">
<title>Node11&#45;&gt;Node12</title>
<path fill="none" stroke="#191970" d="M1268.1212,-97.1969C1015.152,-90.8851 201.6644,-68.7126 87,-42 79.9767,-40.3638 72.6998,-37.727 66.0001,-34.8662"/>
<polygon fill="#191970" stroke="#191970" points="67.2433,-31.586 56.6939,-30.605 64.329,-37.9505 67.2433,-31.586"/>
</g>
<!-- Node11&#45;&gt;Node13 -->
<g id="edge17" class="edge">
<title>Node11&#45;&gt;Node13</title>
<path fill="none" stroke="#191970" d="M1268.2817,-96.6222C1014.4527,-88.3907 198.0548,-60.5971 145,-42 141.3226,-40.711 137.7073,-38.794 134.3442,-36.634"/>
<polygon fill="#191970" stroke="#191970" points="136.2901,-33.7205 126.1613,-30.6127 132.1414,-39.3586 136.2901,-33.7205"/>
</g>
<!-- Node11&#45;&gt;Node14 -->
<g id="edge20" class="edge">
<title>Node11&#45;&gt;Node14</title>
<path fill="none" stroke="#191970" d="M1268.1332,-95.6391C1031.617,-84.9433 313.1193,-51.8222 264,-42 260.0936,-41.2188 256.0967,-40.2311 252.1154,-39.1119"/>
<polygon fill="#191970" stroke="#191970" points="252.8979,-35.691 242.3111,-36.1019 250.8435,-42.3827 252.8979,-35.691"/>
</g>
<!-- Node15 -->
<g id="node16" class="node">
<title>Node15</title>
<polygon fill="#ffffff" stroke="#bfbfbf" points="756.5,-.5 756.5,-41.5 857.5,-41.5 857.5,-.5 756.5,-.5"/>
<text text-anchor="start" x="764.5" y="-29.5" font-family="Helvetica,sans-Serif" font-size="10.00" fill="#000000">tensorflow/compiler</text>
<text text-anchor="start" x="764.5" y="-18.5" font-family="Helvetica,sans-Serif" font-size="10.00" fill="#000000">/xla/service/dfs_hlo</text>
<text text-anchor="middle" x="807" y="-7.5" font-family="Helvetica,sans-Serif" font-size="10.00" fill="#000000">_visitor.h</text>
</g>
<!-- Node11&#45;&gt;Node15 -->
<g id="edge21" class="edge">
<title>Node11&#45;&gt;Node15</title>
<path fill="none" stroke="#191970" d="M1279.4294,-83.9637C1268.6485,-81.7387 1257.5353,-79.6452 1247,-78 1082.6599,-52.3371 1034.5879,-77.2734 867.9235,-41.9142"/>
<polygon fill="#191970" stroke="#191970" points="868.3344,-38.4222 857.8204,-39.7284 866.8542,-45.2639 868.3344,-38.4222"/>
</g>
<!-- Node16 -->
<g id="node17" class="node">
<title>Node16</title>
<polygon fill="#ffffff" stroke="#bfbfbf" points="876,-.5 876,-41.5 990,-41.5 990,-.5 876,-.5"/>
<text text-anchor="start" x="884" y="-29.5" font-family="Helvetica,sans-Serif" font-size="10.00" fill="#000000">tensorflow/compiler</text>
<text text-anchor="start" x="884" y="-18.5" font-family="Helvetica,sans-Serif" font-size="10.00" fill="#000000">/xla/service/dfs_hlo</text>
<text text-anchor="middle" x="933" y="-7.5" font-family="Helvetica,sans-Serif" font-size="10.00" fill="#000000">_visitor_with_default.h</text>
</g>
<!-- Node11&#45;&gt;Node16 -->
<g id="edge22" class="edge">
<title>Node11&#45;&gt;Node16</title>
<path fill="none" stroke="#191970" d="M1277.2818,-83.9748C1267.1646,-81.8499 1256.8197,-79.7844 1247,-78 1140.5205,-58.6508 1109.2986,-66.4888 999.8516,-42.0158"/>
<polygon fill="#191970" stroke="#191970" points="1000.606,-38.5981 990.0787,-39.7922 999.0529,-45.4236 1000.606,-38.5981"/>
</g>
<!-- Node11&#45;&gt;Node17 -->
<g id="edge24" class="edge">
<title>Node11&#45;&gt;Node17</title>
<path fill="none" stroke="#191970" d="M1400.5001,-83.9636C1410.6112,-81.6968 1421.0741,-79.5896 1431,-78 1620.8042,-47.6043 1672.549,-74.5246 1862,-42 1867.8025,-41.0038 1873.7984,-39.7881 1879.7768,-38.4487"/>
<polygon fill="#191970" stroke="#191970" points="1880.8516,-41.7915 1889.7846,-36.0947 1879.2488,-34.9774 1880.8516,-41.7915"/>
</g>
<!-- Node18 -->
<g id="node19" class="node">
<title>Node18</title>
<polygon fill="#ffffff" stroke="#bfbfbf" points="1008.5,-6 1008.5,-36 1153.5,-36 1153.5,-6 1008.5,-6"/>
<text text-anchor="start" x="1016.5" y="-24" font-family="Helvetica,sans-Serif" font-size="10.00" fill="#000000">tensorflow/compiler</text>
<text text-anchor="middle" x="1081" y="-13" font-family="Helvetica,sans-Serif" font-size="10.00" fill="#000000">/xla/service/hlo_reachability.h</text>
</g>
<!-- Node11&#45;&gt;Node18 -->
<g id="edge25" class="edge">
<title>Node11&#45;&gt;Node18</title>
<path fill="none" stroke="#191970" d="M1292.4838,-83.9608C1249.3995,-71.1342 1187.352,-52.6621 1141.6012,-39.0416"/>
<polygon fill="#191970" stroke="#191970" points="1142.3904,-35.6248 1131.8075,-36.1259 1140.3931,-42.3338 1142.3904,-35.6248"/>
</g>
<!-- Node11&#45;&gt;Node19 -->
<g id="edge26" class="edge">
<title>Node11&#45;&gt;Node19</title>
<path fill="none" stroke="#191970" d="M1417.7803,-85.2711C1434.5861,-82.539 1452.3674,-79.9235 1469,-78 1713.2267,-49.7556 1778.3832,-81.7684 2021,-42 2027.0658,-41.0057 2033.3404,-39.7468 2039.5796,-38.3412"/>
<polygon fill="#191970" stroke="#191970" points="2040.3987,-41.744 2049.3197,-36.0286 2038.7816,-34.9334 2040.3987,-41.744"/>
</g>
<!-- Node20 -->
<g id="node21" class="node">
<title>Node20</title>
<polygon fill="#ffffff" stroke="#bfbfbf" points="1171.5,-6 1171.5,-36 1272.5,-36 1272.5,-6 1171.5,-6"/>
<text text-anchor="start" x="1179.5" y="-24" font-family="Helvetica,sans-Serif" font-size="10.00" fill="#000000">tensorflow/compiler</text>
<text text-anchor="middle" x="1222" y="-13" font-family="Helvetica,sans-Serif" font-size="10.00" fill="#000000">/xla/shape_tree.h</text>
</g>
<!-- Node11&#45;&gt;Node20 -->
<g id="edge27" class="edge">
<title>Node11&#45;&gt;Node20</title>
<path fill="none" stroke="#191970" d="M1319.67,-83.9608C1301.0421,-71.9528 1274.7385,-54.9967 1254.1205,-41.7058"/>
<polygon fill="#191970" stroke="#191970" points="1255.9726,-38.7355 1245.6713,-36.2592 1252.1799,-44.6191 1255.9726,-38.7355"/>
</g>
<!-- Node21 -->
<g id="node22" class="node">
<title>Node21</title>
<polygon fill="#ffffff" stroke="#bfbfbf" points="1290.5,-6 1290.5,-36 1391.5,-36 1391.5,-6 1290.5,-6"/>
<text text-anchor="start" x="1298.5" y="-24" font-family="Helvetica,sans-Serif" font-size="10.00" fill="#000000">tensorflow/compiler</text>
<text text-anchor="middle" x="1341" y="-13" font-family="Helvetica,sans-Serif" font-size="10.00" fill="#000000">/xla/statusor.h</text>
</g>
<!-- Node11&#45;&gt;Node21 -->
<g id="edge28" class="edge">
<title>Node11&#45;&gt;Node21</title>
<path fill="none" stroke="#191970" d="M1342.6144,-83.9608C1342.3422,-73.3466 1341.9709,-58.8663 1341.653,-46.4685"/>
<polygon fill="#191970" stroke="#191970" points="1345.1465,-46.1661 1341.3913,-36.2592 1338.1488,-46.3456 1345.1465,-46.1661"/>
</g>
<!-- Node11&#45;&gt;Node22 -->
<g id="edge29" class="edge">
<title>Node11&#45;&gt;Node22</title>
<path fill="none" stroke="#191970" d="M1417.6534,-87.5655C1444.2184,-83.9144 1474.3863,-80.2427 1502,-78 1761.2694,-56.9433 2416.2545,-89.5207 2672,-42 2676.2114,-41.2175 2680.5249,-40.1895 2684.8128,-39.0086"/>
<polygon fill="#191970" stroke="#191970" points="2686.1506,-42.2607 2694.7114,-36.0187 2684.1265,-35.5597 2686.1506,-42.2607"/>
</g>
<!-- Node23 -->
<g id="node24" class="node">
<title>Node23</title>
<polygon fill="#ffffff" stroke="#bfbfbf" points="1409.5,-6 1409.5,-36 1510.5,-36 1510.5,-6 1409.5,-6"/>
<text text-anchor="start" x="1417.5" y="-24" font-family="Helvetica,sans-Serif" font-size="10.00" fill="#000000">tensorflow/compiler</text>
<text text-anchor="middle" x="1460" y="-13" font-family="Helvetica,sans-Serif" font-size="10.00" fill="#000000">/xla/xla_data.pb.h</text>
</g>
<!-- Node11&#45;&gt;Node23 -->
<g id="edge30" class="edge">
<title>Node11&#45;&gt;Node23</title>
<path fill="none" stroke="#191970" d="M1365.5588,-83.9608C1383.4904,-72.0064 1408.778,-55.148 1428.674,-41.884"/>
<polygon fill="#191970" stroke="#191970" points="1430.7322,-44.7184 1437.1113,-36.2592 1426.8493,-38.894 1430.7322,-44.7184"/>
</g>
<!-- Node24 -->
<g id="node25" class="node">
<title>Node24</title>
<polygon fill="#ffffff" stroke="#bfbfbf" points="1529,-6 1529,-36 1625,-36 1625,-6 1529,-6"/>
<text text-anchor="start" x="1537" y="-24" font-family="Helvetica,sans-Serif" font-size="10.00" fill="#000000">tensorflow/core/lib</text>
<text text-anchor="middle" x="1577" y="-13" font-family="Helvetica,sans-Serif" font-size="10.00" fill="#000000">/core/status.h</text>
</g>
<!-- Node11&#45;&gt;Node24 -->
<g id="edge31" class="edge">
<title>Node11&#45;&gt;Node24</title>
<path fill="none" stroke="#191970" d="M1390.9542,-83.9568C1426.4249,-72.7114 1475.8576,-56.7916 1519,-42 1521.3933,-41.1795 1523.8388,-40.3315 1526.3065,-39.4682"/>
<polygon fill="#191970" stroke="#191970" points="1527.609,-42.7201 1535.8712,-36.0878 1525.2764,-36.1202 1527.609,-42.7201"/>
</g>
<!-- Node11&#45;&gt;Node25 -->
<g id="edge32" class="edge">
<title>Node11&#45;&gt;Node25</title>
<path fill="none" stroke="#191970" d="M1417.6835,-87.9128C1444.2513,-84.2931 1474.4132,-80.5524 1502,-78 1801.5906,-50.2811 1883.3137,-102.6867 2178,-42 2181.8412,-41.209 2185.7692,-40.2046 2189.6778,-39.0656"/>
<polygon fill="#191970" stroke="#191970" points="2190.8275,-42.3727 2199.2928,-36.0018 2188.7022,-35.7031 2190.8275,-42.3727"/>
</g>
<!-- Node26 -->
<g id="node27" class="node">
<title>Node26</title>
<polygon fill="#ffffff" stroke="#bfbfbf" points="1643,-6 1643,-36 1739,-36 1739,-6 1643,-6"/>
<text text-anchor="start" x="1651" y="-24" font-family="Helvetica,sans-Serif" font-size="10.00" fill="#000000">tensorflow/core/lib</text>
<text text-anchor="middle" x="1691" y="-13" font-family="Helvetica,sans-Serif" font-size="10.00" fill="#000000">/gtl/flatmap.h</text>
</g>
<!-- Node11&#45;&gt;Node26 -->
<g id="edge33" class="edge">
<title>Node11&#45;&gt;Node26</title>
<path fill="none" stroke="#191970" d="M1403.9645,-83.9617C1413.0096,-81.873 1422.2344,-79.8215 1431,-78 1520.7135,-59.3575 1545.5507,-65.9326 1634,-42 1637.1049,-41.1599 1640.279,-40.2219 1643.4619,-39.2212"/>
<polygon fill="#191970" stroke="#191970" points="1644.5856,-42.536 1652.9758,-36.0665 1642.3824,-35.8918 1644.5856,-42.536"/>
</g>
<!-- Node27 -->
<g id="node28" class="node">
<title>Node27</title>
<polygon fill="#ffffff" stroke="#bfbfbf" points="1757,-6 1757,-36 1853,-36 1853,-6 1757,-6"/>
<text text-anchor="start" x="1765" y="-24" font-family="Helvetica,sans-Serif" font-size="10.00" fill="#000000">tensorflow/core/lib</text>
<text text-anchor="middle" x="1805" y="-13" font-family="Helvetica,sans-Serif" font-size="10.00" fill="#000000">/gtl/flatset.h</text>
</g>
<!-- Node11&#45;&gt;Node27 -->
<g id="edge34" class="edge">
<title>Node11&#45;&gt;Node27</title>
<path fill="none" stroke="#191970" d="M1401.4903,-83.9977C1411.3009,-81.7821 1421.4083,-79.6827 1431,-78 1570.6616,-53.4985 1610.0382,-74.7449 1748,-42 1751.3861,-41.1963 1754.8464,-40.2509 1758.3055,-39.2136"/>
<polygon fill="#191970" stroke="#191970" points="1759.5466,-42.4909 1767.9881,-36.0885 1757.3965,-35.8292 1759.5466,-42.4909"/>
</g>
<!-- Node28 -->
<g id="node29" class="node">
<title>Node28</title>
<polygon fill="#ffffff" stroke="#bfbfbf" points="616,-6 616,-36 738,-36 738,-6 616,-6"/>
<text text-anchor="start" x="624" y="-24" font-family="Helvetica,sans-Serif" font-size="10.00" fill="#000000">tensorflow/core/platform</text>
<text text-anchor="middle" x="677" y="-13" font-family="Helvetica,sans-Serif" font-size="10.00" fill="#000000">/macros.h</text>
</g>
<!-- Node11&#45;&gt;Node28 -->
<g id="edge35" class="edge">
<title>Node11&#45;&gt;Node28</title>
<path fill="none" stroke="#191970" d="M1280.4943,-83.9714C1269.3879,-81.6894 1257.8909,-79.575 1247,-78 1026.4963,-46.1124 966.1311,-82.2525 747,-42 741.9811,-41.0781 736.8114,-39.9275 731.6622,-38.6429"/>
<polygon fill="#191970" stroke="#191970" points="732.3937,-35.2159 721.8304,-36.0321 730.5972,-41.9814 732.3937,-35.2159"/>
</g>
<!-- Node11&#45;&gt;Node29 -->
<g id="edge36" class="edge">
<title>Node11&#45;&gt;Node29</title>
<path fill="none" stroke="#191970" d="M1417.6587,-87.6302C1444.2242,-83.9849 1474.391,-80.3003 1502,-78 1958.4756,-39.9672 2080.029,-116.4222 2532,-42 2537.3207,-41.1239 2542.804,-39.9599 2548.2494,-38.6277"/>
<polygon fill="#191970" stroke="#191970" points="2549.1846,-42.0009 2557.9666,-36.0741 2547.4054,-35.2308 2549.1846,-42.0009"/>
</g>
</g>
</svg>
