<?xml version="1.0" encoding="UTF-8" standalone="no"?>
<!DOCTYPE svg PUBLIC "-//W3C//DTD SVG 1.1//EN"
 "http://www.w3.org/Graphics/SVG/1.1/DTD/svg11.dtd">
<!-- Generated by graphviz version 2.40.1 (20161225.0304)
 -->
<!-- Title: tensorflow/tensorflow/compiler/xla/service/cpu/parallel_task_assignment.h Pages: 1 -->
<svg width="389pt" height="128pt"
 viewBox="0.00 0.00 389.00 128.00" xmlns="http://www.w3.org/2000/svg" xmlns:xlink="http://www.w3.org/1999/xlink">
<g id="graph0" class="graph" transform="scale(1 1) rotate(0) translate(4 124)">
<title>tensorflow/tensorflow/compiler/xla/service/cpu/parallel_task_assignment.h</title>
<polygon fill="#ffffff" stroke="transparent" points="-4,4 -4,-124 385,-124 385,4 -4,4"/>
<!-- Node0 -->
<g id="node1" class="node">
<title>Node0</title>
<polygon fill="#bfbfbf" stroke="#000000" points="111,-78.5 111,-119.5 268,-119.5 268,-78.5 111,-78.5"/>
<text text-anchor="start" x="119" y="-107.5" font-family="Helvetica,sans-Serif" font-size="10.00" fill="#000000">tensorflow/tensorflow</text>
<text text-anchor="start" x="119" y="-96.5" font-family="Helvetica,sans-Serif" font-size="10.00" fill="#000000">/compiler/xla/service</text>
<text text-anchor="middle" x="189.5" y="-85.5" font-family="Helvetica,sans-Serif" font-size="10.00" fill="#000000">/cpu/parallel_task_assignment.h</text>
</g>
<!-- Node1 -->
<g id="node2" class="node">
<title>Node1</title>
<polygon fill="#ffffff" stroke="#bfbfbf" points="0,-.5 0,-41.5 107,-41.5 107,-.5 0,-.5"/>
<text text-anchor="start" x="8" y="-29.5" font-family="Helvetica,sans-Serif" font-size="10.00" fill="#000000">tensorflow/compiler</text>
<text text-anchor="start" x="8" y="-18.5" font-family="Helvetica,sans-Serif" font-size="10.00" fill="#000000">/xla/service/hlo_cost</text>
<text text-anchor="middle" x="53.5" y="-7.5" font-family="Helvetica,sans-Serif" font-size="10.00" fill="#000000">_analysis.h</text>
</g>
<!-- Node0&#45;&gt;Node1 -->
<g id="edge1" class="edge">
<title>Node0&#45;&gt;Node1</title>
<path fill="none" stroke="#191970" d="M153.4116,-78.3022C136.5246,-68.617 116.2419,-56.9843 98.3765,-46.738"/>
<polygon fill="#191970" stroke="#191970" points="99.7011,-43.4629 89.2852,-41.5239 96.2185,-49.5351 99.7011,-43.4629"/>
</g>
<!-- Node2 -->
<g id="node3" class="node">
<title>Node2</title>
<polygon fill="#ffffff" stroke="#bfbfbf" points="125.5,-6 125.5,-36 253.5,-36 253.5,-6 125.5,-6"/>
<text text-anchor="start" x="133.5" y="-24" font-family="Helvetica,sans-Serif" font-size="10.00" fill="#000000">tensorflow/compiler</text>
<text text-anchor="middle" x="189.5" y="-13" font-family="Helvetica,sans-Serif" font-size="10.00" fill="#000000">/xla/service/hlo_module.h</text>
</g>
<!-- Node0&#45;&gt;Node2 -->
<g id="edge2" class="edge">
<title>Node0&#45;&gt;Node2</title>
<path fill="none" stroke="#191970" d="M189.5,-78.0974C189.5,-68.3178 189.5,-56.5873 189.5,-46.3097"/>
<polygon fill="#191970" stroke="#191970" points="193.0001,-46.2678 189.5,-36.2679 186.0001,-46.2679 193.0001,-46.2678"/>
</g>
<!-- Node3 -->
<g id="node4" class="node">
<title>Node3</title>
<polygon fill="#ffffff" stroke="#bfbfbf" points="272,-.5 272,-41.5 381,-41.5 381,-.5 272,-.5"/>
<text text-anchor="start" x="280" y="-29.5" font-family="Helvetica,sans-Serif" font-size="10.00" fill="#000000">tensorflow/compiler</text>
<text text-anchor="start" x="280" y="-18.5" font-family="Helvetica,sans-Serif" font-size="10.00" fill="#000000">/xla/service/hlo_pass</text>
<text text-anchor="middle" x="326.5" y="-7.5" font-family="Helvetica,sans-Serif" font-size="10.00" fill="#000000">_interface.h</text>
</g>
<!-- Node0&#45;&gt;Node3 -->
<g id="edge3" class="edge">
<title>Node0&#45;&gt;Node3</title>
<path fill="none" stroke="#191970" d="M225.8538,-78.3022C242.8649,-68.617 263.2968,-56.9843 281.2935,-46.738"/>
<polygon fill="#191970" stroke="#191970" points="283.4932,-49.5132 290.4517,-41.5239 280.0297,-43.43 283.4932,-49.5132"/>
</g>
</g>
</svg>
