<?xml version="1.0" encoding="UTF-8" standalone="no"?>
<!DOCTYPE svg PUBLIC "-//W3C//DTD SVG 1.1//EN"
 "http://www.w3.org/Graphics/SVG/1.1/DTD/svg11.dtd">
<!-- Generated by graphviz version 2.40.1 (20161225.0304)
 -->
<!-- Title: tensorflow/tensorflow/compiler/tf2xla/xla_compiler.h Pages: 1 -->
<svg width="258pt" height="122pt"
 viewBox="0.00 0.00 258.32 122.00" xmlns="http://www.w3.org/2000/svg" xmlns:xlink="http://www.w3.org/1999/xlink">
<g id="graph0" class="graph" transform="scale(1 1) rotate(0) translate(4 118)">
<title>tensorflow/tensorflow/compiler/tf2xla/xla_compiler.h</title>
<polygon fill="#ffffff" stroke="transparent" points="-4,4 -4,-118 254.3174,-118 254.3174,4 -4,4"/>
<!-- Node13 -->
<g id="node1" class="node">
<title>Node13</title>
<polygon fill="#bfbfbf" stroke="#000000" points="73.3867,-75.5 73.3867,-113.5 183.3174,-113.5 183.3174,-75.5 73.3867,-75.5"/>
<text text-anchor="start" x="81.3867" y="-101.5" font-family="Helvetica,sans-Serif" font-size="10.00" fill="#000000">tensorflow/tensorflow</text>
<text text-anchor="start" x="81.3867" y="-91.5" font-family="Helvetica,sans-Serif" font-size="10.00" fill="#000000">/compiler/tf2xla/xla</text>
<text text-anchor="middle" x="128.3521" y="-81.5" font-family="Helvetica,sans-Serif" font-size="10.00" fill="#000000">_compiler.h</text>
</g>
<!-- Node14 -->
<g id="node2" class="node">
<title>Node14</title>
<g id="a_node2"><a xlink:href="../../d8/db8/tf2xla_8cc.html" target="_top" xlink:title="tensorflow/tensorflow\l/compiler/tf2xla/tf2xla.cc">
<polygon fill="#ffffff" stroke="#000000" points="0,-5.5 0,-33.5 122.7041,-33.5 122.7041,-5.5 0,-5.5"/>
<text text-anchor="start" x="8" y="-21.5" font-family="Helvetica,sans-Serif" font-size="10.00" fill="#000000">tensorflow/tensorflow</text>
<text text-anchor="middle" x="61.3521" y="-11.5" font-family="Helvetica,sans-Serif" font-size="10.00" fill="#000000">/compiler/tf2xla/tf2xla.cc</text>
</a>
</g>
</g>
<!-- Node13&#45;&gt;Node14 -->
<g id="edge1" class="edge">
<title>Node13&#45;&gt;Node14</title>
<path fill="none" stroke="#191970" d="M104.2443,-67.5137C93.9724,-56.0154 82.4189,-43.0823 73.8928,-33.5382"/>
<polygon fill="#191970" stroke="#191970" points="101.8255,-70.0598 111.0979,-75.1856 107.0459,-65.3962 101.8255,-70.0598"/>
</g>
<!-- Node15 -->
<g id="node3" class="node">
<title>Node15</title>
<g id="a_node3"><a xlink:href="../../d5/d88/xla__compiler_8cc.html" target="_top" xlink:title="tensorflow/tensorflow\l/compiler/tf2xla/xla\l_compiler.cc">
<polygon fill="#ffffff" stroke="#000000" points="140.3867,-.5 140.3867,-38.5 250.3174,-38.5 250.3174,-.5 140.3867,-.5"/>
<text text-anchor="start" x="148.3867" y="-26.5" font-family="Helvetica,sans-Serif" font-size="10.00" fill="#000000">tensorflow/tensorflow</text>
<text text-anchor="start" x="148.3867" y="-16.5" font-family="Helvetica,sans-Serif" font-size="10.00" fill="#000000">/compiler/tf2xla/xla</text>
<text text-anchor="middle" x="195.3521" y="-6.5" font-family="Helvetica,sans-Serif" font-size="10.00" fill="#000000">_compiler.cc</text>
</a>
</g>
</g>
<!-- Node13&#45;&gt;Node15 -->
<g id="edge2" class="edge">
<title>Node13&#45;&gt;Node15</title>
<path fill="none" stroke="#191970" d="M152.4835,-67.4872C160.9792,-57.9771 170.349,-47.4885 178.1564,-38.7489"/>
<polygon fill="#191970" stroke="#191970" points="149.6582,-65.3962 145.6062,-75.1856 154.8786,-70.0598 149.6582,-65.3962"/>
</g>
</g>
</svg>
