<?xml version="1.0" encoding="UTF-8" standalone="no"?>
<!DOCTYPE svg PUBLIC "-//W3C//DTD SVG 1.1//EN"
 "http://www.w3.org/Graphics/SVG/1.1/DTD/svg11.dtd">
<!-- Generated by graphviz version 2.40.1 (20161225.0304)
 -->
<!-- Title: tensorflow/tensorflow/compiler/xla/service/computation_tracker.cc Pages: 1 -->
<svg width="1802pt" height="272pt"
 viewBox="0.00 0.00 1802.43 272.00" xmlns="http://www.w3.org/2000/svg" xmlns:xlink="http://www.w3.org/1999/xlink">
<g id="graph0" class="graph" transform="scale(1 1) rotate(0) translate(4 268)">
<title>tensorflow/tensorflow/compiler/xla/service/computation_tracker.cc</title>
<polygon fill="#ffffff" stroke="transparent" points="-4,4 -4,-268 1798.4258,-268 1798.4258,4 -4,4"/>
<!-- Node0 -->
<g id="node1" class="node">
<title>Node0</title>
<polygon fill="#bfbfbf" stroke="#000000" points="783.2661,-225.5 783.2661,-263.5 904.8765,-263.5 904.8765,-225.5 783.2661,-225.5"/>
<text text-anchor="start" x="791.2661" y="-251.5" font-family="Helvetica,sans-Serif" font-size="10.00" fill="#000000">tensorflow/tensorflow</text>
<text text-anchor="start" x="791.2661" y="-241.5" font-family="Helvetica,sans-Serif" font-size="10.00" fill="#000000">/compiler/xla/service</text>
<text text-anchor="middle" x="844.0713" y="-231.5" font-family="Helvetica,sans-Serif" font-size="10.00" fill="#000000">/computation_tracker.cc</text>
</g>
<!-- Node1 -->
<g id="node2" class="node">
<title>Node1</title>
<g id="a_node2"><a xlink:href="../../d1/dc5/computation__tracker_8h.html" target="_top" xlink:title="tensorflow/compiler\l/xla/service/computation\l_tracker.h">
<polygon fill="#ffffff" stroke="#000000" points="683.436,-150.5 683.436,-188.5 806.7065,-188.5 806.7065,-150.5 683.436,-150.5"/>
<text text-anchor="start" x="691.436" y="-176.5" font-family="Helvetica,sans-Serif" font-size="10.00" fill="#000000">tensorflow/compiler</text>
<text text-anchor="start" x="691.436" y="-166.5" font-family="Helvetica,sans-Serif" font-size="10.00" fill="#000000">/xla/service/computation</text>
<text text-anchor="middle" x="745.0713" y="-156.5" font-family="Helvetica,sans-Serif" font-size="10.00" fill="#000000">_tracker.h</text>
</a>
</g>
</g>
<!-- Node0&#45;&gt;Node1 -->
<g id="edge1" class="edge">
<title>Node0&#45;&gt;Node1</title>
<path fill="none" stroke="#191970" d="M818.8333,-225.3803C806.4985,-216.0358 791.4935,-204.6683 778.2454,-194.6319"/>
<polygon fill="#191970" stroke="#191970" points="780.3477,-191.8336 770.2632,-188.5848 776.1207,-197.4133 780.3477,-191.8336"/>
</g>
<!-- Node2 -->
<g id="node3" class="node">
<title>Node2</title>
<polygon fill="#ffffff" stroke="#bfbfbf" points="416.5713,-85.5 416.5713,-103.5 445.5713,-103.5 445.5713,-85.5 416.5713,-85.5"/>
<text text-anchor="middle" x="430.6821" y="-91.5" font-family="Helvetica,sans-Serif" font-size="10.00" fill="#000000">list</text>
</g>
<!-- Node0&#45;&gt;Node2 -->
<g id="edge35" class="edge">
<title>Node0&#45;&gt;Node2</title>
<path fill="none" stroke="#191970" d="M783.1569,-229.3622C705.6574,-208.8665 568.8173,-168.4931 460.0713,-114 457.2338,-112.5781 454.345,-110.9231 451.5443,-109.1895"/>
<polygon fill="#191970" stroke="#191970" points="453.3376,-106.1792 443.0682,-103.5732 449.471,-112.0144 453.3376,-106.1792"/>
</g>
<!-- Node6 -->
<g id="node7" class="node">
<title>Node6</title>
<polygon fill="#ffffff" stroke="#bfbfbf" points="349.8447,-10.5 349.8447,-28.5 390.2979,-28.5 390.2979,-10.5 349.8447,-10.5"/>
<text text-anchor="middle" x="370.0713" y="-16.5" font-family="Helvetica,sans-Serif" font-size="10.00" fill="#000000">string</text>
</g>
<!-- Node0&#45;&gt;Node6 -->
<g id="edge36" class="edge">
<title>Node0&#45;&gt;Node6</title>
<path fill="none" stroke="#191970" d="M783.0334,-239.6925C719.8927,-233.2967 619.2086,-219.0816 537.0713,-189 474.436,-166.0608 450.5688,-164.5702 407.0713,-114 388.1677,-92.0227 378.2795,-59.2606 373.6266,-38.6544"/>
<polygon fill="#191970" stroke="#191970" points="377.0018,-37.6911 371.5563,-28.6028 370.1457,-39.1033 377.0018,-37.6911"/>
</g>
<!-- Node12 -->
<g id="node13" class="node">
<title>Node12</title>
<polygon fill="#ffffff" stroke="#bfbfbf" points="120.4556,-10.5 120.4556,-28.5 163.687,-28.5 163.687,-10.5 120.4556,-10.5"/>
<text text-anchor="middle" x="142.0713" y="-16.5" font-family="Helvetica,sans-Serif" font-size="10.00" fill="#000000">vector</text>
</g>
<!-- Node0&#45;&gt;Node12 -->
<g id="edge38" class="edge">
<title>Node0&#45;&gt;Node12</title>
<path fill="none" stroke="#191970" d="M783.0909,-241.0584C673.923,-234.2709 449.723,-217.3107 377.0713,-189 283.8201,-152.6621 193.5762,-70.4306 157.9871,-35.5862"/>
<polygon fill="#191970" stroke="#191970" points="160.4385,-33.088 150.8724,-28.5338 155.5106,-38.0595 160.4385,-33.088"/>
</g>
<!-- Node13 -->
<g id="node14" class="node">
<title>Node13</title>
<polygon fill="#ffffff" stroke="#bfbfbf" points="181.813,-5.5 181.813,-33.5 332.3296,-33.5 332.3296,-5.5 181.813,-5.5"/>
<text text-anchor="start" x="189.813" y="-21.5" font-family="Helvetica,sans-Serif" font-size="10.00" fill="#000000">tensorflow/compiler</text>
<text text-anchor="middle" x="257.0713" y="-11.5" font-family="Helvetica,sans-Serif" font-size="10.00" fill="#000000">/xla/service/hlo_computation.h</text>
</g>
<!-- Node0&#45;&gt;Node13 -->
<g id="edge40" class="edge">
<title>Node0&#45;&gt;Node13</title>
<path fill="none" stroke="#191970" d="M783.2474,-240.5447C686.214,-233.4977 501.2881,-216.8381 442.0713,-189 368.3496,-154.343 303.6138,-79.8697 274.0755,-42.2456"/>
<polygon fill="#191970" stroke="#191970" points="276.5473,-39.7201 267.6636,-33.9468 271.008,-43.9999 276.5473,-39.7201"/>
</g>
<!-- Node16 -->
<g id="node17" class="node">
<title>Node16</title>
<polygon fill="#ffffff" stroke="#bfbfbf" points="0,-5.5 0,-33.5 102.1426,-33.5 102.1426,-5.5 0,-5.5"/>
<text text-anchor="start" x="8" y="-21.5" font-family="Helvetica,sans-Serif" font-size="10.00" fill="#000000">tensorflow/compiler</text>
<text text-anchor="middle" x="51.0713" y="-11.5" font-family="Helvetica,sans-Serif" font-size="10.00" fill="#000000">/xla/types.h</text>
</g>
<!-- Node0&#45;&gt;Node16 -->
<g id="edge42" class="edge">
<title>Node0&#45;&gt;Node16</title>
<path fill="none" stroke="#191970" d="M783.0712,-242.1C659.9196,-236.637 385.8528,-221.1785 298.0713,-189 205.141,-154.9341 113.875,-77.8428 73.1573,-40.5237"/>
<polygon fill="#191970" stroke="#191970" points="75.4159,-37.8449 65.7022,-33.6147 70.6577,-42.9791 75.4159,-37.8449"/>
</g>
<!-- Node23 -->
<g id="node24" class="node">
<title>Node23</title>
<polygon fill="#ffffff" stroke="#bfbfbf" points="824.6797,-160.5 824.6797,-178.5 863.4629,-178.5 863.4629,-160.5 824.6797,-160.5"/>
<text text-anchor="middle" x="844.0713" y="-166.5" font-family="Helvetica,sans-Serif" font-size="10.00" fill="#000000">utility</text>
</g>
<!-- Node0&#45;&gt;Node23 -->
<g id="edge37" class="edge">
<title>Node0&#45;&gt;Node23</title>
<path fill="none" stroke="#191970" d="M844.0713,-225.1856C844.0713,-213.9878 844.0713,-199.9355 844.0713,-188.7489"/>
<polygon fill="#191970" stroke="#191970" points="847.5714,-188.7293 844.0713,-178.7294 840.5714,-188.7294 847.5714,-188.7293"/>
</g>
<!-- Node24 -->
<g id="node25" class="node">
<title>Node24</title>
<polygon fill="#ffffff" stroke="#bfbfbf" points="881,-155.5 881,-183.5 983.1426,-183.5 983.1426,-155.5 881,-155.5"/>
<text text-anchor="start" x="889" y="-171.5" font-family="Helvetica,sans-Serif" font-size="10.00" fill="#000000">tensorflow/compiler</text>
<text text-anchor="middle" x="932.0713" y="-161.5" font-family="Helvetica,sans-Serif" font-size="10.00" fill="#000000">/xla/ptr_util.h</text>
</g>
<!-- Node0&#45;&gt;Node24 -->
<g id="edge39" class="edge">
<title>Node0&#45;&gt;Node24</title>
<path fill="none" stroke="#191970" d="M866.7335,-225.1856C879.2659,-214.5046 894.8456,-201.2264 907.6479,-190.3154"/>
<polygon fill="#191970" stroke="#191970" points="910.2593,-192.6885 915.5998,-183.5382 905.7187,-187.3609 910.2593,-192.6885"/>
</g>
<!-- Node25 -->
<g id="node26" class="node">
<title>Node25</title>
<polygon fill="#ffffff" stroke="#bfbfbf" points="1001.2192,-155.5 1001.2192,-183.5 1108.9233,-183.5 1108.9233,-155.5 1001.2192,-155.5"/>
<text text-anchor="start" x="1009.2192" y="-171.5" font-family="Helvetica,sans-Serif" font-size="10.00" fill="#000000">tensorflow/compiler</text>
<text text-anchor="middle" x="1055.0713" y="-161.5" font-family="Helvetica,sans-Serif" font-size="10.00" fill="#000000">/xla/status_macros.h</text>
</g>
<!-- Node0&#45;&gt;Node25 -->
<g id="edge41" class="edge">
<title>Node0&#45;&gt;Node25</title>
<path fill="none" stroke="#191970" d="M897.5883,-225.4774C930.8926,-213.6394 973.411,-198.5262 1005.872,-186.9879"/>
<polygon fill="#191970" stroke="#191970" points="1007.3516,-190.1766 1015.6019,-183.5294 1005.0071,-183.5808 1007.3516,-190.1766"/>
</g>
<!-- Node26 -->
<g id="node27" class="node">
<title>Node26</title>
<polygon fill="#ffffff" stroke="#bfbfbf" points="1127,-155.5 1127,-183.5 1229.1426,-183.5 1229.1426,-155.5 1127,-155.5"/>
<text text-anchor="start" x="1135" y="-171.5" font-family="Helvetica,sans-Serif" font-size="10.00" fill="#000000">tensorflow/compiler</text>
<text text-anchor="middle" x="1178.0713" y="-161.5" font-family="Helvetica,sans-Serif" font-size="10.00" fill="#000000">/xla/util.h</text>
</g>
<!-- Node0&#45;&gt;Node26 -->
<g id="edge43" class="edge">
<title>Node0&#45;&gt;Node26</title>
<path fill="none" stroke="#191970" d="M904.9321,-234.2348C960.7629,-224.3314 1045.5476,-208.0633 1118.0713,-189 1121.0473,-188.2177 1124.0927,-187.3723 1127.1565,-186.487"/>
<polygon fill="#191970" stroke="#191970" points="1128.3684,-189.7777 1136.9414,-183.5524 1126.3574,-183.0727 1128.3684,-189.7777"/>
</g>
<!-- Node27 -->
<g id="node28" class="node">
<title>Node27</title>
<polygon fill="#ffffff" stroke="#bfbfbf" points="1246.7759,-155.5 1246.7759,-183.5 1343.3667,-183.5 1343.3667,-155.5 1246.7759,-155.5"/>
<text text-anchor="start" x="1254.7759" y="-171.5" font-family="Helvetica,sans-Serif" font-size="10.00" fill="#000000">tensorflow/core/lib</text>
<text text-anchor="middle" x="1295.0713" y="-161.5" font-family="Helvetica,sans-Serif" font-size="10.00" fill="#000000">/strings/strcat.h</text>
</g>
<!-- Node0&#45;&gt;Node27 -->
<g id="edge44" class="edge">
<title>Node0&#45;&gt;Node27</title>
<path fill="none" stroke="#191970" d="M905.1505,-239.5168C983.1756,-232.3278 1122.0128,-216.7606 1238.0713,-189 1241.2246,-188.2457 1244.45,-187.3882 1247.6839,-186.4635"/>
<polygon fill="#191970" stroke="#191970" points="1248.7987,-189.7828 1257.3471,-183.5238 1246.7613,-183.0858 1248.7987,-189.7828"/>
</g>
<!-- Node28 -->
<g id="node29" class="node">
<title>Node28</title>
<polygon fill="#ffffff" stroke="#bfbfbf" points="1361.0542,-155.5 1361.0542,-183.5 1467.0884,-183.5 1467.0884,-155.5 1361.0542,-155.5"/>
<text text-anchor="start" x="1369.0542" y="-171.5" font-family="Helvetica,sans-Serif" font-size="10.00" fill="#000000">tensorflow/core/lib</text>
<text text-anchor="middle" x="1414.0713" y="-161.5" font-family="Helvetica,sans-Serif" font-size="10.00" fill="#000000">/strings/stringprintf.h</text>
</g>
<!-- Node0&#45;&gt;Node28 -->
<g id="edge45" class="edge">
<title>Node0&#45;&gt;Node28</title>
<path fill="none" stroke="#191970" d="M904.8876,-241.7092C1000.8154,-236.4467 1192.7393,-222.4228 1352.0713,-189 1355.8761,-188.2019 1359.7797,-187.2654 1363.6867,-186.2422"/>
<polygon fill="#191970" stroke="#191970" points="1364.657,-189.6053 1373.3508,-183.5499 1362.7784,-182.8621 1364.657,-189.6053"/>
</g>
<!-- Node29 -->
<g id="node30" class="node">
<title>Node29</title>
<polygon fill="#ffffff" stroke="#bfbfbf" points="1484.7168,-155.5 1484.7168,-183.5 1607.4258,-183.5 1607.4258,-155.5 1484.7168,-155.5"/>
<text text-anchor="start" x="1492.7168" y="-171.5" font-family="Helvetica,sans-Serif" font-size="10.00" fill="#000000">tensorflow/core/platform</text>
<text text-anchor="middle" x="1546.0713" y="-161.5" font-family="Helvetica,sans-Serif" font-size="10.00" fill="#000000">/logging.h</text>
</g>
<!-- Node0&#45;&gt;Node29 -->
<g id="edge46" class="edge">
<title>Node0&#45;&gt;Node29</title>
<path fill="none" stroke="#191970" d="M905.1347,-242.8679C1018.498,-239.0147 1268.8097,-226.6377 1476.0713,-189 1480.788,-188.1435 1485.6469,-187.1115 1490.5017,-185.9752"/>
<polygon fill="#191970" stroke="#191970" points="1491.5498,-189.3214 1500.4143,-183.5187 1489.866,-182.5269 1491.5498,-189.3214"/>
</g>
<!-- Node1&#45;&gt;Node2 -->
<g id="edge2" class="edge">
<title>Node1&#45;&gt;Node2</title>
<path fill="none" stroke="#191970" d="M683.2646,-164.6194C624.1169,-158.3123 533.3216,-144.2942 460.0713,-114 456.9316,-112.7015 453.7779,-111.038 450.7664,-109.2313"/>
<polygon fill="#191970" stroke="#191970" points="452.5788,-106.2332 442.3154,-103.6035 448.6988,-112.0595 452.5788,-106.2332"/>
</g>
<!-- Node3 -->
<g id="node4" class="node">
<title>Node3</title>
<polygon fill="#ffffff" stroke="#bfbfbf" points="1027.3447,-10.5 1027.3447,-28.5 1062.7979,-28.5 1062.7979,-10.5 1027.3447,-10.5"/>
<text text-anchor="middle" x="1045.0713" y="-16.5" font-family="Helvetica,sans-Serif" font-size="10.00" fill="#000000">map</text>
</g>
<!-- Node1&#45;&gt;Node3 -->
<g id="edge3" class="edge">
<title>Node1&#45;&gt;Node3</title>
<path fill="none" stroke="#191970" d="M807.0095,-152.418C810.0722,-151.5956 813.1057,-150.7858 816.0713,-150 878.5909,-133.4348 901.4479,-147.0022 957.0713,-114 974.4904,-103.665 1011.1619,-60.8387 1031.2291,-36.5376"/>
<polygon fill="#191970" stroke="#191970" points="1033.9412,-38.75 1037.5759,-28.7981 1028.5284,-34.3112 1033.9412,-38.75"/>
</g>
<!-- Node4 -->
<g id="node5" class="node">
<title>Node4</title>
<polygon fill="#ffffff" stroke="#bfbfbf" points="1081.0146,-10.5 1081.0146,-28.5 1133.1279,-28.5 1133.1279,-10.5 1081.0146,-10.5"/>
<text text-anchor="middle" x="1107.0713" y="-16.5" font-family="Helvetica,sans-Serif" font-size="10.00" fill="#000000">memory</text>
</g>
<!-- Node1&#45;&gt;Node4 -->
<g id="edge4" class="edge">
<title>Node1&#45;&gt;Node4</title>
<path fill="none" stroke="#191970" d="M806.9669,-152.2496C810.0409,-151.4717 813.0885,-150.7174 816.0713,-150 892.8529,-131.5331 918.7289,-147.8631 990.0713,-114 1014.9033,-102.2133 1016.6953,-92.2807 1038.0713,-75 1054.9022,-61.3936 1074.0885,-45.968 1087.9497,-34.8388"/>
<polygon fill="#191970" stroke="#191970" points="1090.2154,-37.5083 1095.8233,-28.5193 1085.8338,-32.0491 1090.2154,-37.5083"/>
</g>
<!-- Node5 -->
<g id="node6" class="node">
<title>Node5</title>
<polygon fill="#ffffff" stroke="#bfbfbf" points="1232.4014,-85.5 1232.4014,-103.5 1261.7412,-103.5 1261.7412,-85.5 1232.4014,-85.5"/>
<text text-anchor="middle" x="1247.0713" y="-91.5" font-family="Helvetica,sans-Serif" font-size="10.00" fill="#000000">set</text>
</g>
<!-- Node1&#45;&gt;Node5 -->
<g id="edge5" class="edge">
<title>Node1&#45;&gt;Node5</title>
<path fill="none" stroke="#191970" d="M806.8777,-151.8254C809.9753,-151.1596 813.0522,-150.5452 816.0713,-150 992.5971,-118.119 1048.9969,-173.9301 1218.0713,-114 1221.4916,-112.7876 1224.8968,-111.0773 1228.1071,-109.1679"/>
<polygon fill="#191970" stroke="#191970" points="1230.1609,-112.0043 1236.4898,-103.5075 1226.2436,-106.203 1230.1609,-112.0043"/>
</g>
<!-- Node1&#45;&gt;Node6 -->
<g id="edge6" class="edge">
<title>Node1&#45;&gt;Node6</title>
<path fill="none" stroke="#191970" d="M712.8478,-150.2591C697.3742,-140.3286 678.9985,-127.4835 664.0713,-114 647.2217,-98.78 650.8703,-86.1156 631.0713,-75 540.4677,-24.1332 497.1142,-76.1365 400.0713,-39 396.661,-37.695 393.2352,-35.9611 389.9807,-34.0642"/>
<polygon fill="#191970" stroke="#191970" points="391.7114,-31.015 381.4176,-28.507 387.9006,-36.8868 391.7114,-31.015"/>
</g>
<!-- Node7 -->
<g id="node8" class="node">
<title>Node7</title>
<polygon fill="#ffffff" stroke="#bfbfbf" points="1279.6528,-80.5 1279.6528,-108.5 1408.4897,-108.5 1408.4897,-80.5 1279.6528,-80.5"/>
<text text-anchor="start" x="1287.6528" y="-96.5" font-family="Helvetica,sans-Serif" font-size="10.00" fill="#000000">tensorflow/compiler</text>
<text text-anchor="middle" x="1344.0713" y="-86.5" font-family="Helvetica,sans-Serif" font-size="10.00" fill="#000000">/xla/service/hlo_module.h</text>
</g>
<!-- Node1&#45;&gt;Node7 -->
<g id="edge7" class="edge">
<title>Node1&#45;&gt;Node7</title>
<path fill="none" stroke="#191970" d="M806.8709,-151.7869C809.9702,-151.1313 813.0495,-150.5296 816.0713,-150 1015.88,-114.9816 1071.141,-148.3179 1271.0713,-114 1276.1136,-113.1345 1281.3137,-112.0801 1286.5067,-110.9145"/>
<polygon fill="#191970" stroke="#191970" points="1287.5195,-114.2715 1296.4408,-108.5564 1285.9027,-107.4607 1287.5195,-114.2715"/>
</g>
<!-- Node8 -->
<g id="node9" class="node">
<title>Node8</title>
<polygon fill="#ffffff" stroke="#bfbfbf" points="501.8228,-75.5 501.8228,-113.5 622.3198,-113.5 622.3198,-75.5 501.8228,-75.5"/>
<text text-anchor="start" x="509.8228" y="-101.5" font-family="Helvetica,sans-Serif" font-size="10.00" fill="#000000">tensorflow/compiler</text>
<text text-anchor="start" x="509.8228" y="-91.5" font-family="Helvetica,sans-Serif" font-size="10.00" fill="#000000">/xla/service/hlo_module</text>
<text text-anchor="middle" x="562.0713" y="-81.5" font-family="Helvetica,sans-Serif" font-size="10.00" fill="#000000">_config.h</text>
</g>
<!-- Node1&#45;&gt;Node8 -->
<g id="edge8" class="edge">
<title>Node1&#45;&gt;Node8</title>
<path fill="none" stroke="#191970" d="M698.4192,-150.3803C673.8978,-140.3305 643.6673,-127.941 617.9075,-117.3837"/>
<polygon fill="#191970" stroke="#191970" points="619.2186,-114.1385 608.6382,-113.5848 616.564,-120.6157 619.2186,-114.1385"/>
</g>
<!-- Node9 -->
<g id="node10" class="node">
<title>Node9</title>
<polygon fill="#ffffff" stroke="#bfbfbf" points="1151.6011,-5.5 1151.6011,-33.5 1276.5415,-33.5 1276.5415,-5.5 1151.6011,-5.5"/>
<text text-anchor="start" x="1159.6011" y="-21.5" font-family="Helvetica,sans-Serif" font-size="10.00" fill="#000000">tensorflow/compiler</text>
<text text-anchor="middle" x="1214.0713" y="-11.5" font-family="Helvetica,sans-Serif" font-size="10.00" fill="#000000">/xla/service/session.pb.h</text>
</g>
<!-- Node1&#45;&gt;Node9 -->
<g id="edge9" class="edge">
<title>Node1&#45;&gt;Node9</title>
<path fill="none" stroke="#191970" d="M806.9365,-152.1177C810.0185,-151.3747 813.0761,-150.6639 816.0713,-150 909.3778,-129.3187 941.0127,-153.4287 1028.0713,-114 1053.1104,-102.6598 1052.3877,-88.9514 1076.0713,-75 1102.3113,-59.5427 1133.6619,-46.5486 1159.8456,-37.0287"/>
<polygon fill="#191970" stroke="#191970" points="1161.3603,-40.2046 1169.6063,-33.5523 1159.0117,-33.6104 1161.3603,-40.2046"/>
</g>
<!-- Node10 -->
<g id="node11" class="node">
<title>Node10</title>
<g id="a_node11"><a xlink:href="../../d6/d38/user__computation_8h.html" target="_top" xlink:title="tensorflow/compiler\l/xla/service/user_computation.h">
<polygon fill="#ffffff" stroke="#000000" points="791.7588,-80.5 791.7588,-108.5 948.3838,-108.5 948.3838,-80.5 791.7588,-80.5"/>
<text text-anchor="start" x="799.7588" y="-96.5" font-family="Helvetica,sans-Serif" font-size="10.00" fill="#000000">tensorflow/compiler</text>
<text text-anchor="middle" x="870.0713" y="-86.5" font-family="Helvetica,sans-Serif" font-size="10.00" fill="#000000">/xla/service/user_computation.h</text>
</a>
</g>
</g>
<!-- Node1&#45;&gt;Node10 -->
<g id="edge10" class="edge">
<title>Node1&#45;&gt;Node10</title>
<path fill="none" stroke="#191970" d="M776.9375,-150.3803C795.5858,-139.1913 819.0681,-125.1019 837.7878,-113.8701"/>
<polygon fill="#191970" stroke="#191970" points="839.7787,-116.7573 846.5529,-108.6111 836.1772,-110.7548 839.7787,-116.7573"/>
</g>
<!-- Node14 -->
<g id="node15" class="node">
<title>Node14</title>
<polygon fill="#ffffff" stroke="#bfbfbf" points="1294.0864,-.5 1294.0864,-38.5 1414.0562,-38.5 1414.0562,-.5 1294.0864,-.5"/>
<text text-anchor="start" x="1302.0864" y="-26.5" font-family="Helvetica,sans-Serif" font-size="10.00" fill="#000000">tensorflow/compiler</text>
<text text-anchor="start" x="1302.0864" y="-16.5" font-family="Helvetica,sans-Serif" font-size="10.00" fill="#000000">/xla/service/versioned</text>
<text text-anchor="middle" x="1354.0713" y="-6.5" font-family="Helvetica,sans-Serif" font-size="10.00" fill="#000000">_computation_handle.h</text>
</g>
<!-- Node1&#45;&gt;Node14 -->
<g id="edge27" class="edge">
<title>Node1&#45;&gt;Node14</title>
<path fill="none" stroke="#191970" d="M806.9165,-152.0247C810.0038,-151.3062 813.068,-150.6261 816.0713,-150 925.9659,-127.0901 963.2376,-159.0212 1066.0713,-114 1091.2512,-102.9761 1089.2598,-86.8298 1114.0713,-75 1181.3011,-42.9456 1207.4931,-56.3425 1283.8453,-39.139"/>
<polygon fill="#191970" stroke="#191970" points="1284.9971,-42.4633 1293.9244,-36.7578 1283.3876,-35.6509 1284.9971,-42.4633"/>
</g>
<!-- Node15 -->
<g id="node16" class="node">
<title>Node15</title>
<polygon fill="#ffffff" stroke="#bfbfbf" points="1432,-5.5 1432,-33.5 1534.1426,-33.5 1534.1426,-5.5 1432,-5.5"/>
<text text-anchor="start" x="1440" y="-21.5" font-family="Helvetica,sans-Serif" font-size="10.00" fill="#000000">tensorflow/compiler</text>
<text text-anchor="middle" x="1483.0713" y="-11.5" font-family="Helvetica,sans-Serif" font-size="10.00" fill="#000000">/xla/statusor.h</text>
</g>
<!-- Node1&#45;&gt;Node15 -->
<g id="edge28" class="edge">
<title>Node1&#45;&gt;Node15</title>
<path fill="none" stroke="#191970" d="M806.9024,-151.9556C809.9934,-151.2554 813.0623,-150.5981 816.0713,-150 942.5926,-124.8534 985.4262,-164.6295 1104.0713,-114 1129.353,-103.2115 1126.8314,-85.8859 1152.0713,-75 1263.6393,-26.881 1304.5814,-65.8888 1423.0713,-39 1426.486,-38.2251 1429.9835,-37.3396 1433.49,-36.3833"/>
<polygon fill="#191970" stroke="#191970" points="1434.7016,-39.6763 1443.334,-33.5336 1432.7551,-32.9524 1434.7016,-39.6763"/>
</g>
<!-- Node1&#45;&gt;Node16 -->
<g id="edge29" class="edge">
<title>Node1&#45;&gt;Node16</title>
<path fill="none" stroke="#191970" d="M683.3091,-159.9856C619.6493,-149.4607 525.2899,-131.6466 493.0713,-114 471.5719,-102.2244 476.1972,-85.5515 454.0713,-75 315.7166,-9.0206 261.0047,-70.8636 111.0713,-39 107.4855,-38.238 103.8118,-37.3419 100.1345,-36.3598"/>
<polygon fill="#191970" stroke="#191970" points="101.0264,-32.9747 90.4496,-33.5925 99.1032,-39.7053 101.0264,-32.9747"/>
</g>
<!-- Node18 -->
<g id="node19" class="node">
<title>Node18</title>
<polygon fill="#ffffff" stroke="#bfbfbf" points="1552,-5.5 1552,-33.5 1654.1426,-33.5 1654.1426,-5.5 1552,-5.5"/>
<text text-anchor="start" x="1560" y="-21.5" font-family="Helvetica,sans-Serif" font-size="10.00" fill="#000000">tensorflow/compiler</text>
<text text-anchor="middle" x="1603.0713" y="-11.5" font-family="Helvetica,sans-Serif" font-size="10.00" fill="#000000">/xla/xla_data.pb.h</text>
</g>
<!-- Node1&#45;&gt;Node18 -->
<g id="edge30" class="edge">
<title>Node1&#45;&gt;Node18</title>
<path fill="none" stroke="#191970" d="M806.892,-151.9022C809.9858,-151.2161 813.058,-150.5764 816.0713,-150 959.2448,-122.6116 1007.591,-170.2481 1142.0713,-114 1167.4299,-103.3935 1164.6687,-85.5005 1190.0713,-75 1335.8132,-14.7555 1388.7656,-71.5556 1543.0713,-39 1546.7151,-38.2312 1550.4494,-37.3227 1554.1858,-36.3251"/>
<polygon fill="#191970" stroke="#191970" points="1555.3693,-39.627 1564.0207,-33.5111 1553.4437,-32.897 1555.3693,-39.627"/>
</g>
<!-- Node19 -->
<g id="node20" class="node">
<title>Node19</title>
<polygon fill="#ffffff" stroke="#bfbfbf" points="1671.7168,-5.5 1671.7168,-33.5 1794.4258,-33.5 1794.4258,-5.5 1671.7168,-5.5"/>
<text text-anchor="start" x="1679.7168" y="-21.5" font-family="Helvetica,sans-Serif" font-size="10.00" fill="#000000">tensorflow/core/platform</text>
<text text-anchor="middle" x="1733.0713" y="-11.5" font-family="Helvetica,sans-Serif" font-size="10.00" fill="#000000">/macros.h</text>
</g>
<!-- Node1&#45;&gt;Node19 -->
<g id="edge31" class="edge">
<title>Node1&#45;&gt;Node19</title>
<path fill="none" stroke="#191970" d="M806.884,-151.8599C809.9799,-151.185 813.0548,-150.5592 816.0713,-150 975.9147,-120.3665 1031.4757,-179.9347 1180.0713,-114 1203.6547,-103.5356 1199.4001,-85.2642 1223.0713,-75 1313.0783,-35.9715 1566.4937,-56.2411 1663.0713,-39 1667.7906,-38.1575 1672.6512,-37.1355 1677.5072,-36.0058"/>
<polygon fill="#191970" stroke="#191970" points="1678.5516,-39.3531 1687.4215,-33.5587 1676.8741,-32.557 1678.5516,-39.3531"/>
</g>
<!-- Node20 -->
<g id="node21" class="node">
<title>Node20</title>
<polygon fill="#ffffff" stroke="#bfbfbf" points="408.7168,-5.5 408.7168,-33.5 531.4258,-33.5 531.4258,-5.5 408.7168,-5.5"/>
<text text-anchor="start" x="416.7168" y="-21.5" font-family="Helvetica,sans-Serif" font-size="10.00" fill="#000000">tensorflow/core/platform</text>
<text text-anchor="middle" x="470.0713" y="-11.5" font-family="Helvetica,sans-Serif" font-size="10.00" fill="#000000">/mutex.h</text>
</g>
<!-- Node1&#45;&gt;Node20 -->
<g id="edge32" class="edge">
<title>Node1&#45;&gt;Node20</title>
<path fill="none" stroke="#191970" d="M730.655,-150.1711C711.9931,-125.6205 679.9852,-85.2094 664.0713,-75 661.1246,-73.1096 586.1729,-51.9283 530.3156,-36.292"/>
<polygon fill="#191970" stroke="#191970" points="531.0537,-32.8642 520.4805,-33.5409 529.168,-39.6054 531.0537,-32.8642"/>
</g>
<!-- Node21 -->
<g id="node22" class="node">
<title>Node21</title>
<polygon fill="#ffffff" stroke="#bfbfbf" points="549.7168,-5.5 549.7168,-33.5 672.4258,-33.5 672.4258,-5.5 549.7168,-5.5"/>
<text text-anchor="start" x="557.7168" y="-21.5" font-family="Helvetica,sans-Serif" font-size="10.00" fill="#000000">tensorflow/core/platform</text>
<text text-anchor="middle" x="611.0713" y="-11.5" font-family="Helvetica,sans-Serif" font-size="10.00" fill="#000000">/thread_annotations.h</text>
</g>
<!-- Node1&#45;&gt;Node21 -->
<g id="edge33" class="edge">
<title>Node1&#45;&gt;Node21</title>
<path fill="none" stroke="#191970" d="M739.9983,-150.2302C733.8093,-129.6849 721.6759,-97.1246 702.0713,-75 688.6099,-59.8082 669.9779,-47.4459 653.0775,-38.2773"/>
<polygon fill="#191970" stroke="#191970" points="654.3978,-35.0191 643.9103,-33.5146 651.1705,-41.2308 654.3978,-35.0191"/>
</g>
<!-- Node22 -->
<g id="node23" class="node">
<title>Node22</title>
<polygon fill="#ffffff" stroke="#bfbfbf" points="690.7168,-5.5 690.7168,-33.5 813.4258,-33.5 813.4258,-5.5 690.7168,-5.5"/>
<text text-anchor="start" x="698.7168" y="-21.5" font-family="Helvetica,sans-Serif" font-size="10.00" fill="#000000">tensorflow/core/platform</text>
<text text-anchor="middle" x="752.0713" y="-11.5" font-family="Helvetica,sans-Serif" font-size="10.00" fill="#000000">/types.h</text>
</g>
<!-- Node1&#45;&gt;Node22 -->
<g id="edge34" class="edge">
<title>Node1&#45;&gt;Node22</title>
<path fill="none" stroke="#191970" d="M745.9721,-150.1972C747.2359,-123.1144 749.5357,-73.8334 750.9216,-44.1365"/>
<polygon fill="#191970" stroke="#191970" points="754.4339,-43.9532 751.4039,-33.8009 747.4415,-43.6268 754.4339,-43.9532"/>
</g>
<!-- Node10&#45;&gt;Node3 -->
<g id="edge12" class="edge">
<title>Node10&#45;&gt;Node3</title>
<path fill="none" stroke="#191970" d="M917.1256,-80.4282C946.9234,-70.6592 985.7841,-56.31 1018.0713,-39 1020.5652,-37.663 1023.0922,-36.1245 1025.5486,-34.5106"/>
<polygon fill="#191970" stroke="#191970" points="1027.8147,-37.1946 1033.9515,-28.558 1023.7683,-31.4826 1027.8147,-37.1946"/>
</g>
<!-- Node10&#45;&gt;Node4 -->
<g id="edge13" class="edge">
<title>Node10&#45;&gt;Node4</title>
<path fill="none" stroke="#191970" d="M936.9009,-80.4073C976.9033,-70.9298 1028.3099,-56.8975 1072.0713,-39 1075.8738,-37.4448 1079.7848,-35.5693 1083.5517,-33.604"/>
<polygon fill="#191970" stroke="#191970" points="1085.4206,-36.57 1092.475,-28.6652 1082.0308,-30.4455 1085.4206,-36.57"/>
</g>
<!-- Node10&#45;&gt;Node6 -->
<g id="edge14" class="edge">
<title>Node10&#45;&gt;Node6</title>
<path fill="none" stroke="#191970" d="M791.6749,-87.2107C667.5186,-75.3714 435.9768,-51.9829 400.0713,-39 396.6374,-37.7584 393.1988,-36.0588 389.9387,-34.1772"/>
<polygon fill="#191970" stroke="#191970" points="391.6693,-31.1278 381.3754,-28.6206 387.8589,-37 391.6693,-31.1278"/>
</g>
<!-- Node10&#45;&gt;Node9 -->
<g id="edge17" class="edge">
<title>Node10&#45;&gt;Node9</title>
<path fill="none" stroke="#191970" d="M945.3947,-80.4574C1000.152,-69.9267 1075.9505,-54.6831 1142.0713,-39 1145.9303,-38.0847 1149.8963,-37.1093 1153.8887,-36.1013"/>
<polygon fill="#191970" stroke="#191970" points="1155.0091,-39.4271 1163.8206,-33.5443 1153.2637,-32.6482 1155.0091,-39.4271"/>
</g>
<!-- Node11 -->
<g id="node12" class="node">
<title>Node11</title>
<polygon fill="#ffffff" stroke="#bfbfbf" points="950.6675,-10.5 950.6675,-28.5 1009.4751,-28.5 1009.4751,-10.5 950.6675,-10.5"/>
<text text-anchor="middle" x="980.0713" y="-16.5" font-family="Helvetica,sans-Serif" font-size="10.00" fill="#000000">functional</text>
</g>
<!-- Node10&#45;&gt;Node11 -->
<g id="edge11" class="edge">
<title>Node10&#45;&gt;Node11</title>
<path fill="none" stroke="#191970" d="M890.7614,-80.3931C910.0825,-67.2196 938.8089,-47.6335 958.431,-34.2548"/>
<polygon fill="#191970" stroke="#191970" points="960.4488,-37.1151 966.7394,-28.5899 956.5054,-31.3315 960.4488,-37.1151"/>
</g>
<!-- Node10&#45;&gt;Node12 -->
<g id="edge15" class="edge">
<title>Node10&#45;&gt;Node12</title>
<path fill="none" stroke="#191970" d="M791.4961,-88.03C744.8728,-84.2057 684.6038,-79.2877 631.0713,-75 529.3055,-66.849 269.9814,-71.1115 173.0713,-39 169.3519,-37.7676 165.6269,-35.9985 162.1144,-34.0226"/>
<polygon fill="#191970" stroke="#191970" points="163.7824,-30.936 153.463,-28.5357 160.0332,-36.8473 163.7824,-30.936"/>
</g>
<!-- Node10&#45;&gt;Node13 -->
<g id="edge16" class="edge">
<title>Node10&#45;&gt;Node13</title>
<path fill="none" stroke="#191970" d="M791.5358,-87.4633C665.9972,-76.0119 425.6526,-53.1985 341.0713,-39 335.3016,-38.0314 329.336,-36.9042 323.3688,-35.6893"/>
<polygon fill="#191970" stroke="#191970" points="323.8668,-32.2173 313.3592,-33.5745 322.4197,-39.0661 323.8668,-32.2173"/>
</g>
<!-- Node10&#45;&gt;Node14 -->
<g id="edge18" class="edge">
<title>Node10&#45;&gt;Node14</title>
<path fill="none" stroke="#191970" d="M948.649,-87.3602C1030.3159,-79.1777 1161.8852,-63.8601 1284.0794,-39.061"/>
<polygon fill="#191970" stroke="#191970" points="1284.8943,-42.4668 1293.9851,-37.0254 1283.4852,-35.6101 1284.8943,-42.4668"/>
</g>
<!-- Node10&#45;&gt;Node15 -->
<g id="edge19" class="edge">
<title>Node10&#45;&gt;Node15</title>
<path fill="none" stroke="#191970" d="M948.5321,-87.5646C1090.097,-74.9122 1377.8054,-48.5123 1423.0713,-39 1426.7157,-38.2342 1430.4504,-37.3278 1434.1872,-36.3317"/>
<polygon fill="#191970" stroke="#191970" points="1435.3696,-39.634 1444.0227,-33.5204 1433.4458,-32.9035 1435.3696,-39.634"/>
</g>
<!-- Node10&#45;&gt;Node16 -->
<g id="edge20" class="edge">
<title>Node10&#45;&gt;Node16</title>
<path fill="none" stroke="#191970" d="M791.5104,-87.8458C744.892,-83.9581 684.6232,-79.0382 631.0713,-75 400.0629,-57.5802 338.493,-83.1331 111.0713,-39 107.1903,-38.2469 103.211,-37.3185 99.2383,-36.2792"/>
<polygon fill="#191970" stroke="#191970" points="100.0115,-32.8606 89.4362,-33.5042 98.1046,-39.5959 100.0115,-32.8606"/>
</g>
<!-- Node17 -->
<g id="node18" class="node">
<title>Node17</title>
<polygon fill="#ffffff" stroke="#bfbfbf" points="831,-5.5 831,-33.5 933.1426,-33.5 933.1426,-5.5 831,-5.5"/>
<text text-anchor="start" x="839" y="-21.5" font-family="Helvetica,sans-Serif" font-size="10.00" fill="#000000">tensorflow/compiler</text>
<text text-anchor="middle" x="882.0713" y="-11.5" font-family="Helvetica,sans-Serif" font-size="10.00" fill="#000000">/xla/xla.pb.h</text>
</g>
<!-- Node10&#45;&gt;Node17 -->
<g id="edge21" class="edge">
<title>Node10&#45;&gt;Node17</title>
<path fill="none" stroke="#191970" d="M872.3284,-80.3931C873.9877,-70.0222 876.283,-55.6769 878.2289,-43.5148"/>
<polygon fill="#191970" stroke="#191970" points="881.7004,-43.9711 879.8243,-33.5437 874.7883,-42.8651 881.7004,-43.9711"/>
</g>
<!-- Node10&#45;&gt;Node18 -->
<g id="edge22" class="edge">
<title>Node10&#45;&gt;Node18</title>
<path fill="none" stroke="#191970" d="M948.6673,-89.0484C1113.7596,-77.4477 1486.1039,-50.4445 1543.0713,-39 1546.8885,-38.2331 1550.8024,-37.3033 1554.7127,-36.2705"/>
<polygon fill="#191970" stroke="#191970" points="1555.7061,-39.6268 1564.3677,-33.5253 1553.7917,-32.8937 1555.7061,-39.6268"/>
</g>
<!-- Node10&#45;&gt;Node19 -->
<g id="edge23" class="edge">
<title>Node10&#45;&gt;Node19</title>
<path fill="none" stroke="#191970" d="M948.5069,-89.4394C1141.8622,-76.9062 1628.2631,-45.003 1663.0713,-39 1667.8693,-38.1725 1672.8115,-37.1514 1677.7455,-36.0138"/>
<polygon fill="#191970" stroke="#191970" points="1678.9369,-39.3252 1687.8127,-33.5397 1677.2663,-32.5274 1678.9369,-39.3252"/>
</g>
<!-- Node10&#45;&gt;Node20 -->
<g id="edge24" class="edge">
<title>Node10&#45;&gt;Node20</title>
<path fill="none" stroke="#191970" d="M791.5346,-83.5304C724.6097,-73.6396 626.0517,-57.7874 541.0713,-39 536.9992,-38.0998 532.8119,-37.1123 528.6049,-36.0744"/>
<polygon fill="#191970" stroke="#191970" points="529.3519,-32.653 518.7976,-33.5785 527.6255,-39.4368 529.3519,-32.653"/>
</g>
<!-- Node10&#45;&gt;Node21 -->
<g id="edge25" class="edge">
<title>Node10&#45;&gt;Node21</title>
<path fill="none" stroke="#191970" d="M821.6592,-80.4811C778.5551,-67.9992 715.3956,-49.7097 669.4954,-36.4182"/>
<polygon fill="#191970" stroke="#191970" points="670.264,-32.997 659.6851,-33.5773 668.3169,-39.7208 670.264,-32.997"/>
</g>
<!-- Node10&#45;&gt;Node22 -->
<g id="edge26" class="edge">
<title>Node10&#45;&gt;Node22</title>
<path fill="none" stroke="#191970" d="M847.8764,-80.3931C829.4993,-68.7127 803.1904,-51.991 782.7902,-39.0247"/>
<polygon fill="#191970" stroke="#191970" points="784.4837,-35.954 774.1667,-33.5437 780.7288,-41.8617 784.4837,-35.954"/>
</g>
</g>
</svg>
