<?xml version="1.0" encoding="UTF-8" standalone="no"?>
<!DOCTYPE svg PUBLIC "-//W3C//DTD SVG 1.1//EN"
 "http://www.w3.org/Graphics/SVG/1.1/DTD/svg11.dtd">
<!-- Generated by graphviz version 2.40.1 (20161225.0304)
 -->
<!-- Title: tensorflow/tensorflow/core/framework/graph_def_util.cc Pages: 1 -->
<svg width="1889pt" height="184pt"
 viewBox="0.00 0.00 1889.00 184.00" xmlns="http://www.w3.org/2000/svg" xmlns:xlink="http://www.w3.org/1999/xlink">
<g id="graph0" class="graph" transform="scale(1 1) rotate(0) translate(4 180)">
<title>tensorflow/tensorflow/core/framework/graph_def_util.cc</title>
<polygon fill="#ffffff" stroke="transparent" points="-4,4 -4,-180 1885,-180 1885,4 -4,4"/>
<!-- Node0 -->
<g id="node1" class="node">
<title>Node0</title>
<polygon fill="#bfbfbf" stroke="#000000" points="741,-134.5 741,-175.5 855,-175.5 855,-134.5 741,-134.5"/>
<text text-anchor="start" x="749" y="-163.5" font-family="Helvetica,sans-Serif" font-size="10.00" fill="#000000">tensorflow/tensorflow</text>
<text text-anchor="start" x="749" y="-152.5" font-family="Helvetica,sans-Serif" font-size="10.00" fill="#000000">/core/framework/graph</text>
<text text-anchor="middle" x="798" y="-141.5" font-family="Helvetica,sans-Serif" font-size="10.00" fill="#000000">_def_util.cc</text>
</g>
<!-- Node1 -->
<g id="node2" class="node">
<title>Node1</title>
<g id="a_node2"><a xlink:href="../../de/d25/graph__def__util_8h.html" target="_top" xlink:title="tensorflow/core/framework\l/graph_def_util.h">
<polygon fill="#ffffff" stroke="#000000" points="59,-67.5 59,-97.5 191,-97.5 191,-67.5 59,-67.5"/>
<text text-anchor="start" x="67" y="-85.5" font-family="Helvetica,sans-Serif" font-size="10.00" fill="#000000">tensorflow/core/framework</text>
<text text-anchor="middle" x="125" y="-74.5" font-family="Helvetica,sans-Serif" font-size="10.00" fill="#000000">/graph_def_util.h</text>
</a>
</g>
</g>
<!-- Node0&#45;&gt;Node1 -->
<g id="edge1" class="edge">
<title>Node0&#45;&gt;Node1</title>
<path fill="none" stroke="#191970" d="M740.9531,-151.3379C634.9917,-144.1321 400.766,-126.3074 205,-98 203.7399,-97.8178 202.4694,-97.6292 201.191,-97.435"/>
<polygon fill="#191970" stroke="#191970" points="201.6991,-93.9718 191.2714,-95.8459 200.5918,-100.8837 201.6991,-93.9718"/>
</g>
<!-- Node2 -->
<g id="node3" class="node">
<title>Node2</title>
<polygon fill="#ffffff" stroke="#bfbfbf" points="0,-6 0,-25 30,-25 30,-6 0,-6"/>
<text text-anchor="middle" x="15" y="-13" font-family="Helvetica,sans-Serif" font-size="10.00" fill="#000000">set</text>
</g>
<!-- Node0&#45;&gt;Node2 -->
<g id="edge5" class="edge">
<title>Node0&#45;&gt;Node2</title>
<path fill="none" stroke="#191970" d="M740.7882,-154.027C575.5269,-150.7503 105.669,-137.9794 50,-98 29.6224,-83.3655 21.0294,-54.435 17.4601,-35.0243"/>
<polygon fill="#191970" stroke="#191970" points="20.9155,-34.4662 15.9193,-25.1234 13.9987,-35.5427 20.9155,-34.4662"/>
</g>
<!-- Node4 -->
<g id="node5" class="node">
<title>Node4</title>
<polygon fill="#ffffff" stroke="#bfbfbf" points="220,-.5 220,-30.5 316,-30.5 316,-.5 220,-.5"/>
<text text-anchor="start" x="228" y="-18.5" font-family="Helvetica,sans-Serif" font-size="10.00" fill="#000000">tensorflow/core/lib</text>
<text text-anchor="middle" x="268" y="-7.5" font-family="Helvetica,sans-Serif" font-size="10.00" fill="#000000">/core/status.h</text>
</g>
<!-- Node0&#45;&gt;Node4 -->
<g id="edge17" class="edge">
<title>Node0&#45;&gt;Node4</title>
<path fill="none" stroke="#191970" d="M740.8102,-153.4225C605.0575,-149.0894 272.2249,-134.7851 239,-98 224.1331,-81.5401 235.6792,-56.9987 248.3334,-38.9603"/>
<polygon fill="#191970" stroke="#191970" points="251.3326,-40.7942 254.5236,-30.6913 245.7288,-36.5992 251.3326,-40.7942"/>
</g>
<!-- Node5 -->
<g id="node6" class="node">
<title>Node5</title>
<polygon fill="#ffffff" stroke="#bfbfbf" points="247.5,-73 247.5,-92 330.5,-92 330.5,-73 247.5,-73"/>
<text text-anchor="middle" x="289" y="-80" font-family="Helvetica,sans-Serif" font-size="10.00" fill="#000000">unordered_map</text>
</g>
<!-- Node0&#45;&gt;Node5 -->
<g id="edge6" class="edge">
<title>Node0&#45;&gt;Node5</title>
<path fill="none" stroke="#191970" d="M740.7144,-151.0376C653.484,-144.294 482.4492,-128.2777 340,-98 335.8248,-97.1126 331.4986,-96.0417 327.2112,-94.8824"/>
<polygon fill="#191970" stroke="#191970" points="327.9446,-91.4518 317.3673,-92.0614 326.0161,-98.1809 327.9446,-91.4518"/>
</g>
<!-- Node6 -->
<g id="node7" class="node">
<title>Node6</title>
<polygon fill="#ffffff" stroke="#bfbfbf" points="349,-73 349,-92 427,-92 427,-73 349,-73"/>
<text text-anchor="middle" x="388" y="-80" font-family="Helvetica,sans-Serif" font-size="10.00" fill="#000000">unordered_set</text>
</g>
<!-- Node0&#45;&gt;Node6 -->
<g id="edge7" class="edge">
<title>Node0&#45;&gt;Node6</title>
<path fill="none" stroke="#191970" d="M740.7188,-148.7843C668.8953,-140.3508 542.2854,-123.3643 436,-98 432.3347,-97.1253 428.5453,-96.1067 424.7772,-95.0173"/>
<polygon fill="#191970" stroke="#191970" points="425.5385,-91.5903 414.9523,-92.0185 423.4949,-98.2854 425.5385,-91.5903"/>
</g>
<!-- Node7 -->
<g id="node8" class="node">
<title>Node7</title>
<polygon fill="#ffffff" stroke="#bfbfbf" points="445,-73 445,-92 489,-92 489,-73 445,-73"/>
<text text-anchor="middle" x="467" y="-80" font-family="Helvetica,sans-Serif" font-size="10.00" fill="#000000">vector</text>
</g>
<!-- Node0&#45;&gt;Node7 -->
<g id="edge8" class="edge">
<title>Node0&#45;&gt;Node7</title>
<path fill="none" stroke="#191970" d="M740.9676,-148.9157C679.7169,-141.2936 580.1225,-125.7355 498,-98 496.3931,-97.4573 494.7642,-96.8462 493.1376,-96.1883"/>
<polygon fill="#191970" stroke="#191970" points="494.5705,-92.995 484.017,-92.0598 491.6838,-99.3721 494.5705,-92.995"/>
</g>
<!-- Node8 -->
<g id="node9" class="node">
<title>Node8</title>
<polygon fill="#ffffff" stroke="#bfbfbf" points="507,-67.5 507,-97.5 639,-97.5 639,-67.5 507,-67.5"/>
<text text-anchor="start" x="515" y="-85.5" font-family="Helvetica,sans-Serif" font-size="10.00" fill="#000000">tensorflow/core/framework</text>
<text text-anchor="middle" x="573" y="-74.5" font-family="Helvetica,sans-Serif" font-size="10.00" fill="#000000">/attr_value.pb.h</text>
</g>
<!-- Node0&#45;&gt;Node8 -->
<g id="edge9" class="edge">
<title>Node0&#45;&gt;Node8</title>
<path fill="none" stroke="#191970" d="M740.9321,-136.6115C706.8054,-125.6151 663.6059,-111.6952 629.5683,-100.7276"/>
<polygon fill="#191970" stroke="#191970" points="630.3654,-97.3072 619.7738,-97.5716 628.2185,-103.9699 630.3654,-97.3072"/>
</g>
<!-- Node9 -->
<g id="node10" class="node">
<title>Node9</title>
<polygon fill="#ffffff" stroke="#bfbfbf" points="657,-67.5 657,-97.5 789,-97.5 789,-67.5 657,-67.5"/>
<text text-anchor="start" x="665" y="-85.5" font-family="Helvetica,sans-Serif" font-size="10.00" fill="#000000">tensorflow/core/framework</text>
<text text-anchor="middle" x="723" y="-74.5" font-family="Helvetica,sans-Serif" font-size="10.00" fill="#000000">/function.pb.h</text>
</g>
<!-- Node0&#45;&gt;Node9 -->
<g id="edge10" class="edge">
<title>Node0&#45;&gt;Node9</title>
<path fill="none" stroke="#191970" d="M776.7086,-134.4183C767.1404,-125.1691 755.829,-114.2347 746.0604,-104.7917"/>
<polygon fill="#191970" stroke="#191970" points="748.2423,-102.0329 738.6198,-97.5991 743.3771,-107.0658 748.2423,-102.0329"/>
</g>
<!-- Node10 -->
<g id="node11" class="node">
<title>Node10</title>
<polygon fill="#ffffff" stroke="#bfbfbf" points="807,-67.5 807,-97.5 939,-97.5 939,-67.5 807,-67.5"/>
<text text-anchor="start" x="815" y="-85.5" font-family="Helvetica,sans-Serif" font-size="10.00" fill="#000000">tensorflow/core/framework</text>
<text text-anchor="middle" x="873" y="-74.5" font-family="Helvetica,sans-Serif" font-size="10.00" fill="#000000">/graph.pb.h</text>
</g>
<!-- Node0&#45;&gt;Node10 -->
<g id="edge11" class="edge">
<title>Node0&#45;&gt;Node10</title>
<path fill="none" stroke="#191970" d="M819.2914,-134.4183C828.8596,-125.1691 840.171,-114.2347 849.9396,-104.7917"/>
<polygon fill="#191970" stroke="#191970" points="852.6229,-107.0658 857.3802,-97.5991 847.7577,-102.0329 852.6229,-107.0658"/>
</g>
<!-- Node11 -->
<g id="node12" class="node">
<title>Node11</title>
<polygon fill="#ffffff" stroke="#bfbfbf" points="957,-67.5 957,-97.5 1089,-97.5 1089,-67.5 957,-67.5"/>
<text text-anchor="start" x="965" y="-85.5" font-family="Helvetica,sans-Serif" font-size="10.00" fill="#000000">tensorflow/core/framework</text>
<text text-anchor="middle" x="1023" y="-74.5" font-family="Helvetica,sans-Serif" font-size="10.00" fill="#000000">/node_def.pb.h</text>
</g>
<!-- Node0&#45;&gt;Node11 -->
<g id="edge12" class="edge">
<title>Node0&#45;&gt;Node11</title>
<path fill="none" stroke="#191970" d="M855.0679,-136.6115C889.1946,-125.6151 932.3941,-111.6952 966.4317,-100.7276"/>
<polygon fill="#191970" stroke="#191970" points="967.7815,-103.9699 976.2262,-97.5716 965.6346,-97.3072 967.7815,-103.9699"/>
</g>
<!-- Node12 -->
<g id="node13" class="node">
<title>Node12</title>
<polygon fill="#ffffff" stroke="#bfbfbf" points="1107,-67.5 1107,-97.5 1239,-97.5 1239,-67.5 1107,-67.5"/>
<text text-anchor="start" x="1115" y="-85.5" font-family="Helvetica,sans-Serif" font-size="10.00" fill="#000000">tensorflow/core/framework</text>
<text text-anchor="middle" x="1173" y="-74.5" font-family="Helvetica,sans-Serif" font-size="10.00" fill="#000000">/node_def_util.h</text>
</g>
<!-- Node0&#45;&gt;Node12 -->
<g id="edge13" class="edge">
<title>Node0&#45;&gt;Node12</title>
<path fill="none" stroke="#191970" d="M855.0066,-144.4501C913.2714,-133.6038 1006.6451,-116.0471 1096.906,-98.2015"/>
<polygon fill="#191970" stroke="#191970" points="1097.629,-101.6264 1106.7583,-96.25 1096.2688,-94.7598 1097.629,-101.6264"/>
</g>
<!-- Node13 -->
<g id="node14" class="node">
<title>Node13</title>
<polygon fill="#ffffff" stroke="#bfbfbf" points="1257,-67.5 1257,-97.5 1389,-97.5 1389,-67.5 1257,-67.5"/>
<text text-anchor="start" x="1265" y="-85.5" font-family="Helvetica,sans-Serif" font-size="10.00" fill="#000000">tensorflow/core/framework</text>
<text text-anchor="middle" x="1323" y="-74.5" font-family="Helvetica,sans-Serif" font-size="10.00" fill="#000000">/op_def_util.h</text>
</g>
<!-- Node0&#45;&gt;Node13 -->
<g id="edge14" class="edge">
<title>Node0&#45;&gt;Node13</title>
<path fill="none" stroke="#191970" d="M855.0362,-149.2142C938.7404,-140.4057 1099.9483,-122.2372 1246.7067,-98.1429"/>
<polygon fill="#191970" stroke="#191970" points="1247.5046,-101.5586 1256.7989,-96.4727 1246.3616,-94.6525 1247.5046,-101.5586"/>
</g>
<!-- Node14 -->
<g id="node15" class="node">
<title>Node14</title>
<polygon fill="#ffffff" stroke="#bfbfbf" points="1407,-67.5 1407,-97.5 1539,-97.5 1539,-67.5 1407,-67.5"/>
<text text-anchor="start" x="1415" y="-85.5" font-family="Helvetica,sans-Serif" font-size="10.00" fill="#000000">tensorflow/core/framework</text>
<text text-anchor="middle" x="1473" y="-74.5" font-family="Helvetica,sans-Serif" font-size="10.00" fill="#000000">/versions.pb_text.h</text>
</g>
<!-- Node0&#45;&gt;Node14 -->
<g id="edge15" class="edge">
<title>Node0&#45;&gt;Node14</title>
<path fill="none" stroke="#191970" d="M855.336,-151.6427C960.6815,-145.019 1192.2324,-128.3455 1396.7891,-98.0837"/>
<polygon fill="#191970" stroke="#191970" points="1397.4436,-101.5249 1406.8169,-96.586 1396.4095,-94.6017 1397.4436,-101.5249"/>
</g>
<!-- Node15 -->
<g id="node16" class="node">
<title>Node15</title>
<polygon fill="#ffffff" stroke="#bfbfbf" points="1557,-67.5 1557,-97.5 1653,-97.5 1653,-67.5 1557,-67.5"/>
<text text-anchor="start" x="1565" y="-85.5" font-family="Helvetica,sans-Serif" font-size="10.00" fill="#000000">tensorflow/core/lib</text>
<text text-anchor="middle" x="1605" y="-74.5" font-family="Helvetica,sans-Serif" font-size="10.00" fill="#000000">/core/errors.h</text>
</g>
<!-- Node0&#45;&gt;Node15 -->
<g id="edge16" class="edge">
<title>Node0&#45;&gt;Node15</title>
<path fill="none" stroke="#191970" d="M855.3763,-154.337C979.9442,-152.1022 1284.377,-142.3356 1546.8385,-97.9849"/>
<polygon fill="#191970" stroke="#191970" points="1547.6751,-101.3927 1556.9418,-96.2568 1546.4949,-94.4929 1547.6751,-101.3927"/>
</g>
<!-- Node16 -->
<g id="node17" class="node">
<title>Node16</title>
<polygon fill="#ffffff" stroke="#bfbfbf" points="1671,-67.5 1671,-97.5 1767,-97.5 1767,-67.5 1671,-67.5"/>
<text text-anchor="start" x="1679" y="-85.5" font-family="Helvetica,sans-Serif" font-size="10.00" fill="#000000">tensorflow/core/lib</text>
<text text-anchor="middle" x="1719" y="-74.5" font-family="Helvetica,sans-Serif" font-size="10.00" fill="#000000">/strings/str_util.h</text>
</g>
<!-- Node0&#45;&gt;Node16 -->
<g id="edge18" class="edge">
<title>Node0&#45;&gt;Node16</title>
<path fill="none" stroke="#191970" d="M855.0922,-152.7236C1018.5301,-145.9754 1487.0681,-124.9545 1660.9141,-97.9143"/>
<polygon fill="#191970" stroke="#191970" points="1661.6349,-101.3433 1670.9477,-96.2913 1660.5171,-94.4331 1661.6349,-101.3433"/>
</g>
<!-- Node17 -->
<g id="node18" class="node">
<title>Node17</title>
<polygon fill="#ffffff" stroke="#bfbfbf" points="1785,-67.5 1785,-97.5 1881,-97.5 1881,-67.5 1785,-67.5"/>
<text text-anchor="start" x="1793" y="-85.5" font-family="Helvetica,sans-Serif" font-size="10.00" fill="#000000">tensorflow/core/lib</text>
<text text-anchor="middle" x="1833" y="-74.5" font-family="Helvetica,sans-Serif" font-size="10.00" fill="#000000">/strings/strcat.h</text>
</g>
<!-- Node0&#45;&gt;Node17 -->
<g id="edge19" class="edge">
<title>Node0&#45;&gt;Node17</title>
<path fill="none" stroke="#191970" d="M855.0989,-153.228C1033.1798,-147.4606 1577.7649,-127.9426 1774.9837,-97.8947"/>
<polygon fill="#191970" stroke="#191970" points="1775.6218,-101.3374 1784.9521,-96.3178 1774.528,-94.4233 1775.6218,-101.3374"/>
</g>
<!-- Node1&#45;&gt;Node2 -->
<g id="edge2" class="edge">
<title>Node1&#45;&gt;Node2</title>
<path fill="none" stroke="#191970" d="M99.2733,-67.4019C82.1121,-57.2552 59.0967,-43.5019 39,-31 38.7157,-30.8231 38.4297,-30.6448 38.1423,-30.4653"/>
<polygon fill="#191970" stroke="#191970" points="39.9911,-27.4933 29.673,-25.0879 36.239,-33.4028 39.9911,-27.4933"/>
</g>
<!-- Node3 -->
<g id="node4" class="node">
<title>Node3</title>
<polygon fill="#ffffff" stroke="#bfbfbf" points="48,-6 48,-25 202,-25 202,-6 48,-6"/>
<text text-anchor="middle" x="125" y="-13" font-family="Helvetica,sans-Serif" font-size="10.00" fill="#000000">tensorflow/core/framework/op.h</text>
</g>
<!-- Node1&#45;&gt;Node3 -->
<g id="edge3" class="edge">
<title>Node1&#45;&gt;Node3</title>
<path fill="none" stroke="#191970" d="M125,-67.2967C125,-57.7699 125,-45.3954 125,-35.1306"/>
<polygon fill="#191970" stroke="#191970" points="128.5001,-35.0549 125,-25.055 121.5001,-35.055 128.5001,-35.0549"/>
</g>
<!-- Node1&#45;&gt;Node4 -->
<g id="edge4" class="edge">
<title>Node1&#45;&gt;Node4</title>
<path fill="none" stroke="#191970" d="M157.092,-67.4639C177.555,-57.8763 204.2806,-45.3545 226.3694,-35.0052"/>
<polygon fill="#191970" stroke="#191970" points="227.95,-38.1299 235.5204,-30.7177 224.98,-31.7911 227.95,-38.1299"/>
</g>
</g>
</svg>
