<?xml version="1.0" encoding="UTF-8" standalone="no"?>
<!DOCTYPE svg PUBLIC "-//W3C//DTD SVG 1.1//EN"
 "http://www.w3.org/Graphics/SVG/1.1/DTD/svg11.dtd">
<!-- Generated by graphviz version 2.38.0 (20140413.2041)
 -->
<!-- Title: tensorflow/tensorflow/core/framework/graph_def_util.cc Pages: 1 -->
<!--zoomable 184 -->
<svg id="main" version="1.1" xmlns="http://www.w3.org/2000/svg" xmlns:xlink="http://www.w3.org/1999/xlink" xml:space="preserve" onload="init(evt)">
<style type="text/css"><![CDATA[
.edge:hover path { stroke: red; }
.edge:hover polygon { stroke: red; fill: red; }
]]></style>
<script type="text/javascript"><![CDATA[
var edges = document.getElementsByTagName('g');
if (edges && edges.length) {
  for (var i=0;i<edges.length;i++) {
    if (edges[i].id.substr(0,4)=='edge') {
      edges[i].setAttribute('class','edge');
    }
  }
}
]]></script>
        <defs>
                <circle id="rim" cx="0" cy="0" r="7"/>
                <circle id="rim2" cx="0" cy="0" r="3.5"/>
                <g id="zoomPlus">
                        <use xlink:href="#rim" fill="#404040">
                                <set attributeName="fill" to="#808080" begin="zoomplus.mouseover" end="zoomplus.mouseout"/>
                        </use>
                        <path d="M-4,0h8M0,-4v8" fill="none" stroke="white" stroke-width="1.5" pointer-events="none"/>
                </g>
                <g id="zoomMin">
                        <use xlink:href="#rim" fill="#404040">
                                <set attributeName="fill" to="#808080" begin="zoomminus.mouseover" end="zoomminus.mouseout"/>
                        </use>
                        <path d="M-4,0h8" fill="none" stroke="white" stroke-width="1.5" pointer-events="none"/>
                </g>
                <g id="dirArrow">
                        <path fill="none" stroke="white" stroke-width="1.5" d="M0,-3.0v7 M-2.5,-0.5L0,-3.0L2.5,-0.5"/>
                </g>
               <g id="resetDef">
                       <use xlink:href="#rim2" fill="#404040">
                               <set attributeName="fill" to="#808080" begin="reset.mouseover" end="reset.mouseout"/>
                       </use>
               </g>
        </defs>

<script type="text/javascript">
var viewWidth = 1889;
var viewHeight = 184;
var sectionId = 'dynsection-0';
</script>
<script xlink:href="../../svgpan.js"/>
<svg id="graph" class="graph">
<g id="viewport">
<title>tensorflow/tensorflow/core/framework/graph_def_util.cc</title>
<polygon fill="white" stroke="none" points="-4,4 -4,-180 1885,-180 1885,4 -4,4"/>
<!-- Node1 -->
<g id="node1" class="node"><title>Node1</title>
<polygon fill="#bfbfbf" stroke="black" points="741,-134.5 741,-175.5 855,-175.5 855,-134.5 741,-134.5"/>
<text text-anchor="start" x="749" y="-163.5" font-family="Helvetica,sans-Serif" font-size="10.00">tensorflow/tensorflow</text>
<text text-anchor="start" x="749" y="-152.5" font-family="Helvetica,sans-Serif" font-size="10.00">/core/framework/graph</text>
<text text-anchor="middle" x="798" y="-141.5" font-family="Helvetica,sans-Serif" font-size="10.00">_def_util.cc</text>
</g>
<!-- Node2 -->
<g id="node2" class="node"><title>Node2</title>
<g id="a_node2"><a xlink:href="../../de/d25/graph__def__util_8h.html" target="_top" xlink:title="tensorflow/core/framework\l/graph_def_util.h">
<polygon fill="white" stroke="black" points="59,-67.5 59,-97.5 191,-97.5 191,-67.5 59,-67.5"/>
<text text-anchor="start" x="67" y="-85.5" font-family="Helvetica,sans-Serif" font-size="10.00">tensorflow/core/framework</text>
<text text-anchor="middle" x="125" y="-74.5" font-family="Helvetica,sans-Serif" font-size="10.00">/graph_def_util.h</text>
</a>
</g>
</g>
<!-- Node1&#45;&gt;Node2 -->
<g id="edge1" class="edge"><title>Node1&#45;&gt;Node2</title>
<path fill="none" stroke="midnightblue" d="M740.984,-150.238C635.072,-142.891 400.925,-124.957 205,-98 203.741,-97.8268 202.473,-97.6479 201.196,-97.4639"/>
<polygon fill="midnightblue" stroke="midnightblue" points="201.696,-93.9999 191.285,-95.9628 200.648,-100.921 201.696,-93.9999"/>
</g>
<!-- Node3 -->
<g id="node3" class="node"><title>Node3</title>
<polygon fill="white" stroke="#bfbfbf" points="0,-6 0,-25 30,-25 30,-6 0,-6"/>
<text text-anchor="middle" x="15" y="-13" font-family="Helvetica,sans-Serif" font-size="10.00">set</text>
</g>
<!-- Node1&#45;&gt;Node3 -->
<g id="edge5" class="edge"><title>Node1&#45;&gt;Node3</title>
<path fill="none" stroke="midnightblue" d="M740.798,-153.095C575.566,-150.016 105.778,-137.816 50,-98 29.5697,-83.4163 20.9667,-54.3608 17.4123,-35.1762"/>
<polygon fill="midnightblue" stroke="midnightblue" points="20.856,-34.5438 15.8517,-25.2053 13.9402,-35.6263 20.856,-34.5438"/>
</g>
<!-- Node5 -->
<g id="node5" class="node"><title>Node5</title>
<polygon fill="white" stroke="#bfbfbf" points="220,-0.5 220,-30.5 316,-30.5 316,-0.5 220,-0.5"/>
<text text-anchor="start" x="228" y="-18.5" font-family="Helvetica,sans-Serif" font-size="10.00">tensorflow/core/lib</text>
<text text-anchor="middle" x="268" y="-7.5" font-family="Helvetica,sans-Serif" font-size="10.00">/core/status.h</text>
</g>
<!-- Node1&#45;&gt;Node5 -->
<g id="edge17" class="edge"><title>Node1&#45;&gt;Node5</title>
<path fill="none" stroke="midnightblue" d="M740.814,-152.528C605.068,-148.444 272.252,-134.749 239,-98 224.019,-81.4435 236.219,-56.6298 249.082,-38.7337"/>
<polygon fill="midnightblue" stroke="midnightblue" points="252.033,-40.6379 255.334,-30.5705 246.475,-36.3817 252.033,-40.6379"/>
</g>
<!-- Node6 -->
<g id="node6" class="node"><title>Node6</title>
<polygon fill="white" stroke="#bfbfbf" points="247.5,-73 247.5,-92 330.5,-92 330.5,-73 247.5,-73"/>
<text text-anchor="middle" x="289" y="-80" font-family="Helvetica,sans-Serif" font-size="10.00">unordered_map</text>
</g>
<!-- Node1&#45;&gt;Node6 -->
<g id="edge6" class="edge"><title>Node1&#45;&gt;Node6</title>
<path fill="none" stroke="midnightblue" d="M740.78,-149.876C653.635,-142.95 482.71,-126.83 340,-98 335.462,-97.0832 330.738,-95.9669 326.077,-94.765"/>
<polygon fill="midnightblue" stroke="midnightblue" points="326.638,-91.2904 316.07,-92.0409 324.8,-98.0446 326.638,-91.2904"/>
</g>
<!-- Node7 -->
<g id="node7" class="node"><title>Node7</title>
<polygon fill="white" stroke="#bfbfbf" points="349,-73 349,-92 427,-92 427,-73 349,-73"/>
<text text-anchor="middle" x="388" y="-80" font-family="Helvetica,sans-Serif" font-size="10.00">unordered_set</text>
</g>
<!-- Node1&#45;&gt;Node7 -->
<g id="edge7" class="edge"><title>Node1&#45;&gt;Node7</title>
<path fill="none" stroke="midnightblue" d="M740.791,-147.66C669.043,-139.135 542.509,-122.201 436,-98 432.054,-97.1034 427.958,-96.0543 423.898,-94.9377"/>
<polygon fill="midnightblue" stroke="midnightblue" points="424.559,-91.4857 413.98,-92.0714 422.615,-98.2104 424.559,-91.4857"/>
</g>
<!-- Node8 -->
<g id="node8" class="node"><title>Node8</title>
<polygon fill="white" stroke="#bfbfbf" points="445,-73 445,-92 489,-92 489,-73 445,-73"/>
<text text-anchor="middle" x="467" y="-80" font-family="Helvetica,sans-Serif" font-size="10.00">vector</text>
</g>
<!-- Node1&#45;&gt;Node8 -->
<g id="edge8" class="edge"><title>Node1&#45;&gt;Node8</title>
<path fill="none" stroke="midnightblue" d="M740.823,-147.698C679.664,-139.953 580.345,-124.47 498,-98 496.328,-97.4625 494.628,-96.8557 492.93,-96.2029"/>
<polygon fill="midnightblue" stroke="midnightblue" points="493.989,-92.8487 483.42,-92.1215 491.229,-99.2814 493.989,-92.8487"/>
</g>
<!-- Node9 -->
<g id="node9" class="node"><title>Node9</title>
<polygon fill="white" stroke="#bfbfbf" points="507,-67.5 507,-97.5 639,-97.5 639,-67.5 507,-67.5"/>
<text text-anchor="start" x="515" y="-85.5" font-family="Helvetica,sans-Serif" font-size="10.00">tensorflow/core/framework</text>
<text text-anchor="middle" x="573" y="-74.5" font-family="Helvetica,sans-Serif" font-size="10.00">/attr_value.pb.h</text>
</g>
<!-- Node1&#45;&gt;Node9 -->
<g id="edge9" class="edge"><title>Node1&#45;&gt;Node9</title>
<path fill="none" stroke="midnightblue" d="M740.932,-136.119C706.213,-125.24 662.103,-111.419 627.804,-100.672"/>
<polygon fill="midnightblue" stroke="midnightblue" points="628.541,-97.2351 617.952,-97.5849 626.448,-103.915 628.541,-97.2351"/>
</g>
<!-- Node10 -->
<g id="node10" class="node"><title>Node10</title>
<polygon fill="white" stroke="#bfbfbf" points="657,-67.5 657,-97.5 789,-97.5 789,-67.5 657,-67.5"/>
<text text-anchor="start" x="665" y="-85.5" font-family="Helvetica,sans-Serif" font-size="10.00">tensorflow/core/framework</text>
<text text-anchor="middle" x="723" y="-74.5" font-family="Helvetica,sans-Serif" font-size="10.00">/function.pb.h</text>
</g>
<!-- Node1&#45;&gt;Node10 -->
<g id="edge10" class="edge"><title>Node1&#45;&gt;Node10</title>
<path fill="none" stroke="midnightblue" d="M777.108,-134.362C767.395,-125.232 755.819,-114.35 745.872,-105"/>
<polygon fill="midnightblue" stroke="midnightblue" points="747.994,-102.191 738.31,-97.8916 743.199,-107.291 747.994,-102.191"/>
</g>
<!-- Node11 -->
<g id="node11" class="node"><title>Node11</title>
<polygon fill="white" stroke="#bfbfbf" points="807,-67.5 807,-97.5 939,-97.5 939,-67.5 807,-67.5"/>
<text text-anchor="start" x="815" y="-85.5" font-family="Helvetica,sans-Serif" font-size="10.00">tensorflow/core/framework</text>
<text text-anchor="middle" x="873" y="-74.5" font-family="Helvetica,sans-Serif" font-size="10.00">/graph.pb.h</text>
</g>
<!-- Node1&#45;&gt;Node11 -->
<g id="edge11" class="edge"><title>Node1&#45;&gt;Node11</title>
<path fill="none" stroke="midnightblue" d="M818.892,-134.362C828.605,-125.232 840.181,-114.35 850.128,-105"/>
<polygon fill="midnightblue" stroke="midnightblue" points="852.801,-107.291 857.69,-97.8916 848.006,-102.191 852.801,-107.291"/>
</g>
<!-- Node12 -->
<g id="node12" class="node"><title>Node12</title>
<polygon fill="white" stroke="#bfbfbf" points="957,-67.5 957,-97.5 1089,-97.5 1089,-67.5 957,-67.5"/>
<text text-anchor="start" x="965" y="-85.5" font-family="Helvetica,sans-Serif" font-size="10.00">tensorflow/core/framework</text>
<text text-anchor="middle" x="1023" y="-74.5" font-family="Helvetica,sans-Serif" font-size="10.00">/node_def.pb.h</text>
</g>
<!-- Node1&#45;&gt;Node12 -->
<g id="edge12" class="edge"><title>Node1&#45;&gt;Node12</title>
<path fill="none" stroke="midnightblue" d="M855.068,-136.119C889.787,-125.24 933.897,-111.419 968.196,-100.672"/>
<polygon fill="midnightblue" stroke="midnightblue" points="969.552,-103.915 978.048,-97.5849 967.459,-97.2351 969.552,-103.915"/>
</g>
<!-- Node13 -->
<g id="node13" class="node"><title>Node13</title>
<polygon fill="white" stroke="#bfbfbf" points="1107,-67.5 1107,-97.5 1239,-97.5 1239,-67.5 1107,-67.5"/>
<text text-anchor="start" x="1115" y="-85.5" font-family="Helvetica,sans-Serif" font-size="10.00">tensorflow/core/framework</text>
<text text-anchor="middle" x="1173" y="-74.5" font-family="Helvetica,sans-Serif" font-size="10.00">/node_def_util.h</text>
</g>
<!-- Node1&#45;&gt;Node13 -->
<g id="edge13" class="edge"><title>Node1&#45;&gt;Node13</title>
<path fill="none" stroke="midnightblue" d="M855.253,-143.426C913.515,-132.64 1006.71,-115.317 1096.91,-98.2018"/>
<polygon fill="midnightblue" stroke="midnightblue" points="1097.58,-101.636 1106.75,-96.3321 1096.27,-94.7593 1097.58,-101.636"/>
</g>
<!-- Node14 -->
<g id="node14" class="node"><title>Node14</title>
<polygon fill="white" stroke="#bfbfbf" points="1257,-67.5 1257,-97.5 1389,-97.5 1389,-67.5 1257,-67.5"/>
<text text-anchor="start" x="1265" y="-85.5" font-family="Helvetica,sans-Serif" font-size="10.00">tensorflow/core/framework</text>
<text text-anchor="middle" x="1323" y="-74.5" font-family="Helvetica,sans-Serif" font-size="10.00">/op_def_util.h</text>
</g>
<!-- Node1&#45;&gt;Node14 -->
<g id="edge14" class="edge"><title>Node1&#45;&gt;Node14</title>
<path fill="none" stroke="midnightblue" d="M855.002,-148.148C938.663,-139.285 1099.82,-121.173 1246.69,-98.1459"/>
<polygon fill="midnightblue" stroke="midnightblue" points="1247.46,-101.568 1256.79,-96.5509 1246.37,-94.6536 1247.46,-101.568"/>
</g>
<!-- Node15 -->
<g id="node15" class="node"><title>Node15</title>
<polygon fill="white" stroke="#bfbfbf" points="1407,-67.5 1407,-97.5 1539,-97.5 1539,-67.5 1407,-67.5"/>
<text text-anchor="start" x="1415" y="-85.5" font-family="Helvetica,sans-Serif" font-size="10.00">tensorflow/core/framework</text>
<text text-anchor="middle" x="1473" y="-74.5" font-family="Helvetica,sans-Serif" font-size="10.00">/versions.pb_text.h</text>
</g>
<!-- Node1&#45;&gt;Node15 -->
<g id="edge15" class="edge"><title>Node1&#45;&gt;Node15</title>
<path fill="none" stroke="midnightblue" d="M855.302,-150.527C960.592,-143.737 1192.06,-126.911 1396.77,-98.0878"/>
<polygon fill="midnightblue" stroke="midnightblue" points="1397.4,-101.534 1406.81,-96.662 1396.41,-94.6035 1397.4,-101.534"/>
</g>
<!-- Node16 -->
<g id="node16" class="node"><title>Node16</title>
<polygon fill="white" stroke="#bfbfbf" points="1557,-67.5 1557,-97.5 1653,-97.5 1653,-67.5 1557,-67.5"/>
<text text-anchor="start" x="1565" y="-85.5" font-family="Helvetica,sans-Serif" font-size="10.00">tensorflow/core/lib</text>
<text text-anchor="middle" x="1605" y="-74.5" font-family="Helvetica,sans-Serif" font-size="10.00">/core/errors.h</text>
</g>
<!-- Node1&#45;&gt;Node16 -->
<g id="edge16" class="edge"><title>Node1&#45;&gt;Node16</title>
<path fill="none" stroke="midnightblue" d="M855.323,-153.124C979.787,-150.488 1284.03,-140.079 1546.81,-97.9977"/>
<polygon fill="midnightblue" stroke="midnightblue" points="1547.61,-101.413 1556.92,-96.3586 1546.49,-94.5032 1547.61,-101.413"/>
</g>
<!-- Node17 -->
<g id="node17" class="node"><title>Node17</title>
<polygon fill="white" stroke="#bfbfbf" points="1671,-67.5 1671,-97.5 1767,-97.5 1767,-67.5 1671,-67.5"/>
<text text-anchor="start" x="1679" y="-85.5" font-family="Helvetica,sans-Serif" font-size="10.00">tensorflow/core/lib</text>
<text text-anchor="middle" x="1719" y="-74.5" font-family="Helvetica,sans-Serif" font-size="10.00">/strings/str_util.h</text>
</g>
<!-- Node1&#45;&gt;Node17 -->
<g id="edge18" class="edge"><title>Node1&#45;&gt;Node17</title>
<path fill="none" stroke="midnightblue" d="M855.01,-153.925C992.431,-152.967 1352.76,-145.84 1660.91,-97.9664"/>
<polygon fill="midnightblue" stroke="midnightblue" points="1661.59,-101.402 1670.93,-96.3924 1660.51,-94.4868 1661.59,-101.402"/>
</g>
<!-- Node18 -->
<g id="node18" class="node"><title>Node18</title>
<polygon fill="white" stroke="#bfbfbf" points="1785,-67.5 1785,-97.5 1881,-97.5 1881,-67.5 1785,-67.5"/>
<text text-anchor="start" x="1793" y="-85.5" font-family="Helvetica,sans-Serif" font-size="10.00">tensorflow/core/lib</text>
<text text-anchor="middle" x="1833" y="-74.5" font-family="Helvetica,sans-Serif" font-size="10.00">/strings/strcat.h</text>
</g>
<!-- Node1&#45;&gt;Node18 -->
<g id="edge19" class="edge"><title>Node1&#45;&gt;Node18</title>
<path fill="none" stroke="midnightblue" d="M855.174,-154.54C1005.04,-155.142 1421.51,-151.578 1775.02,-97.9385"/>
<polygon fill="midnightblue" stroke="midnightblue" points="1775.58,-101.394 1784.93,-96.4184 1774.52,-94.4744 1775.58,-101.394"/>
</g>
<!-- Node2&#45;&gt;Node3 -->
<g id="edge2" class="edge"><title>Node2&#45;&gt;Node3</title>
<path fill="none" stroke="midnightblue" d="M100.857,-67.4314C83.5934,-57.3451 59.8256,-43.4049 39,-31 38.6027,-30.7633 38.2018,-30.5243 37.7982,-30.2833"/>
<polygon fill="midnightblue" stroke="midnightblue" points="39.5707,-27.2651 29.1959,-25.1168 35.9665,-33.266 39.5707,-27.2651"/>
</g>
<!-- Node4 -->
<g id="node4" class="node"><title>Node4</title>
<polygon fill="white" stroke="#bfbfbf" points="48,-6 48,-25 202,-25 202,-6 48,-6"/>
<text text-anchor="middle" x="125" y="-13" font-family="Helvetica,sans-Serif" font-size="10.00">tensorflow/core/framework/op.h</text>
</g>
<!-- Node2&#45;&gt;Node4 -->
<g id="edge3" class="edge"><title>Node2&#45;&gt;Node4</title>
<path fill="none" stroke="midnightblue" d="M125,-67.396C125,-58.0638 125,-45.7143 125,-35.5173"/>
<polygon fill="midnightblue" stroke="midnightblue" points="128.5,-35.1945 125,-25.1945 121.5,-35.1946 128.5,-35.1945"/>
</g>
<!-- Node2&#45;&gt;Node5 -->
<g id="edge4" class="edge"><title>Node2&#45;&gt;Node5</title>
<path fill="none" stroke="midnightblue" d="M156.029,-67.396C177.017,-57.8561 204.941,-45.1632 227.653,-34.8397"/>
<polygon fill="midnightblue" stroke="midnightblue" points="229.376,-37.9009 237.032,-30.5765 226.48,-31.5283 229.376,-37.9009"/>
</g>
</g>
</svg>
        <g id="navigator" transform="translate(0 0)" fill="#404254">
                <rect fill="#f2f5e9" fill-opacity="0.5" stroke="#606060" stroke-width=".5" x="0" y="0" width="60" height="60"/>
                <use id="zoomplus" xlink:href="#zoomPlus" x="17" y="9" onmousedown="handleZoom(evt,'in')"/>
                <use id="zoomminus" xlink:href="#zoomMin" x="42" y="9" onmousedown="handleZoom(evt,'out')"/>
                <use id="reset" xlink:href="#resetDef" x="30" y="36" onmousedown="handleReset()"/>
                <g id="arrowUp" xlink:href="#dirArrow" transform="translate(30 24)" onmousedown="handlePan(0,-1)">
                  <use xlink:href="#rim" fill="#404040">
                        <set attributeName="fill" to="#808080" begin="arrowUp.mouseover" end="arrowUp.mouseout"/>
                  </use>
                  <path fill="none" stroke="white" stroke-width="1.5" d="M0,-3.0v7 M-2.5,-0.5L0,-3.0L2.5,-0.5"/>
                </g>
                <g id="arrowRight" xlink:href="#dirArrow" transform="rotate(90) translate(36 -43)" onmousedown="handlePan(1,0)">
                  <use xlink:href="#rim" fill="#404040">
                        <set attributeName="fill" to="#808080" begin="arrowRight.mouseover" end="arrowRight.mouseout"/>
                  </use>
                  <path fill="none" stroke="white" stroke-width="1.5" d="M0,-3.0v7 M-2.5,-0.5L0,-3.0L2.5,-0.5"/>
                </g>
                <g id="arrowDown" xlink:href="#dirArrow" transform="rotate(180) translate(-30 -48)" onmousedown="handlePan(0,1)">
                  <use xlink:href="#rim" fill="#404040">
                        <set attributeName="fill" to="#808080" begin="arrowDown.mouseover" end="arrowDown.mouseout"/>
                  </use>
                  <path fill="none" stroke="white" stroke-width="1.5" d="M0,-3.0v7 M-2.5,-0.5L0,-3.0L2.5,-0.5"/>
                </g>
                <g id="arrowLeft" xlink:href="#dirArrow" transform="rotate(270) translate(-36 17)" onmousedown="handlePan(-1,0)">
                  <use xlink:href="#rim" fill="#404040">
                        <set attributeName="fill" to="#808080" begin="arrowLeft.mouseover" end="arrowLeft.mouseout"/>
                  </use>
                  <path fill="none" stroke="white" stroke-width="1.5" d="M0,-3.0v7 M-2.5,-0.5L0,-3.0L2.5,-0.5"/>
                </g>
        </g>
        <svg viewBox="0 0 15 15" width="100%" height="30px" preserveAspectRatio="xMaxYMin meet">
         <g id="arrow_out" transform="scale(0.3 0.3)">
          <a xlink:href="graph__def__util_8cc__incl_org.svg" target="_base">
           <rect id="button" ry="5" rx="5" y="6" x="6" height="38" width="38"
                fill="#f2f5e9" fill-opacity="0.5" stroke="#606060" stroke-width="1.0"/>
           <path id="arrow"
             d="M 11.500037,31.436501 C 11.940474,20.09759 22.043105,11.32322 32.158766,21.979434 L 37.068811,17.246167 C 37.068811,17.246167 37.088388,32 37.088388,32 L 22.160133,31.978069 C 22.160133,31.978069 26.997745,27.140456 26.997745,27.140456 C 18.528582,18.264221 13.291696,25.230495 11.500037,31.436501 z"
             style="fill:#404040;"/>
          </a>
         </g>
        </svg>
</svg>
