<?xml version="1.0" encoding="UTF-8" standalone="no"?>
<!DOCTYPE svg PUBLIC "-//W3C//DTD SVG 1.1//EN"
 "http://www.w3.org/Graphics/SVG/1.1/DTD/svg11.dtd">
<!-- Generated by graphviz version 2.40.1 (20161225.0304)
 -->
<!-- Title: tensorflow/tensorflow/core/framework/graph_def_util.cc Pages: 1 -->
<svg width="2076pt" height="184pt"
 viewBox="0.00 0.00 2075.50 184.00" xmlns="http://www.w3.org/2000/svg" xmlns:xlink="http://www.w3.org/1999/xlink">
<g id="graph0" class="graph" transform="scale(1 1) rotate(0) translate(4 180)">
<title>tensorflow/tensorflow/core/framework/graph_def_util.cc</title>
<polygon fill="#ffffff" stroke="transparent" points="-4,4 -4,-180 2071.5,-180 2071.5,4 -4,4"/>
<!-- Node0 -->
<g id="node1" class="node">
<title>Node0</title>
<polygon fill="#bfbfbf" stroke="#000000" points="807,-134.5 807,-175.5 935,-175.5 935,-134.5 807,-134.5"/>
<text text-anchor="start" x="815" y="-163.5" font-family="Helvetica,sans-Serif" font-size="10.00" fill="#000000">tensorflow/tensorflow</text>
<text text-anchor="start" x="815" y="-152.5" font-family="Helvetica,sans-Serif" font-size="10.00" fill="#000000">/core/framework/graph</text>
<text text-anchor="middle" x="871" y="-141.5" font-family="Helvetica,sans-Serif" font-size="10.00" fill="#000000">_def_util.cc</text>
</g>
<!-- Node1 -->
<g id="node2" class="node">
<title>Node1</title>
<g id="a_node2"><a xlink:href="../../de/d25/graph__def__util_8h.html" target="_top" xlink:title="tensorflow/core/framework\l/graph_def_util.h">
<polygon fill="#ffffff" stroke="#000000" points="62,-67.5 62,-97.5 210,-97.5 210,-67.5 62,-67.5"/>
<text text-anchor="start" x="70" y="-85.5" font-family="Helvetica,sans-Serif" font-size="10.00" fill="#000000">tensorflow/core/framework</text>
<text text-anchor="middle" x="136" y="-74.5" font-family="Helvetica,sans-Serif" font-size="10.00" fill="#000000">/graph_def_util.h</text>
</a>
</g>
</g>
<!-- Node0&#45;&gt;Node1 -->
<g id="edge1" class="edge">
<title>Node0&#45;&gt;Node1</title>
<path fill="none" stroke="#191970" d="M806.9752,-151.2016C690.585,-143.8873 436.6874,-126.0464 224,-98 222.885,-97.853 221.7625,-97.7018 220.6339,-97.5469"/>
<polygon fill="#191970" stroke="#191970" points="220.7451,-94.0267 210.3474,-96.061 219.7443,-100.9548 220.7451,-94.0267"/>
</g>
<!-- Node2 -->
<g id="node3" class="node">
<title>Node2</title>
<polygon fill="#ffffff" stroke="#bfbfbf" points="0,-6 0,-25 32,-25 32,-6 0,-6"/>
<text text-anchor="middle" x="16" y="-13" font-family="Helvetica,sans-Serif" font-size="10.00" fill="#000000">set</text>
</g>
<!-- Node0&#45;&gt;Node2 -->
<g id="edge5" class="edge">
<title>Node0&#45;&gt;Node2</title>
<path fill="none" stroke="#191970" d="M806.8692,-154.2792C624.8585,-151.7161 114.2487,-140.752 53,-98 32.2441,-83.5123 22.9559,-54.5436 18.9238,-35.0846"/>
<polygon fill="#191970" stroke="#191970" points="22.354,-34.3834 17.1474,-25.1562 15.4634,-35.6163 22.354,-34.3834"/>
</g>
<!-- Node4 -->
<g id="node5" class="node">
<title>Node4</title>
<polygon fill="#ffffff" stroke="#bfbfbf" points="240.5,-.5 240.5,-30.5 347.5,-30.5 347.5,-.5 240.5,-.5"/>
<text text-anchor="start" x="248.5" y="-18.5" font-family="Helvetica,sans-Serif" font-size="10.00" fill="#000000">tensorflow/core/lib</text>
<text text-anchor="middle" x="294" y="-7.5" font-family="Helvetica,sans-Serif" font-size="10.00" fill="#000000">/core/status.h</text>
</g>
<!-- Node0&#45;&gt;Node4 -->
<g id="edge17" class="edge">
<title>Node0&#45;&gt;Node4</title>
<path fill="none" stroke="#191970" d="M806.9254,-153.8186C657.2387,-150.3964 294.4694,-138.0178 258,-98 242.4822,-80.9723 256.7752,-56.1971 271.6909,-38.2443"/>
<polygon fill="#191970" stroke="#191970" points="274.5029,-40.3469 278.4831,-30.5281 269.2485,-35.7217 274.5029,-40.3469"/>
</g>
<!-- Node5 -->
<g id="node6" class="node">
<title>Node5</title>
<polygon fill="#ffffff" stroke="#bfbfbf" points="266.5,-73 266.5,-92 359.5,-92 359.5,-73 266.5,-73"/>
<text text-anchor="middle" x="313" y="-80" font-family="Helvetica,sans-Serif" font-size="10.00" fill="#000000">unordered_map</text>
</g>
<!-- Node0&#45;&gt;Node5 -->
<g id="edge6" class="edge">
<title>Node0&#45;&gt;Node5</title>
<path fill="none" stroke="#191970" d="M806.7195,-150.9439C710.7538,-144.1591 524.6414,-128.1821 369,-98 364.1783,-97.065 359.1652,-95.925 354.2077,-94.6918"/>
<polygon fill="#191970" stroke="#191970" points="354.75,-91.2157 344.1893,-92.0654 352.9748,-97.9869 354.75,-91.2157"/>
</g>
<!-- Node6 -->
<g id="node7" class="node">
<title>Node6</title>
<polygon fill="#ffffff" stroke="#bfbfbf" points="378,-73 378,-92 464,-92 464,-73 378,-73"/>
<text text-anchor="middle" x="421" y="-80" font-family="Helvetica,sans-Serif" font-size="10.00" fill="#000000">unordered_set</text>
</g>
<!-- Node0&#45;&gt;Node6 -->
<g id="edge7" class="edge">
<title>Node0&#45;&gt;Node6</title>
<path fill="none" stroke="#191970" d="M806.9017,-148.63C728.0031,-140.1406 590.1929,-123.1985 474,-98 469.6127,-97.0485 465.057,-95.9265 460.5414,-94.7282"/>
<polygon fill="#191970" stroke="#191970" points="461.373,-91.3267 450.8008,-92.0195 459.4975,-98.0708 461.373,-91.3267"/>
</g>
<!-- Node7 -->
<g id="node8" class="node">
<title>Node7</title>
<polygon fill="#ffffff" stroke="#bfbfbf" points="482.5,-73 482.5,-92 529.5,-92 529.5,-73 482.5,-73"/>
<text text-anchor="middle" x="506" y="-80" font-family="Helvetica,sans-Serif" font-size="10.00" fill="#000000">vector</text>
</g>
<!-- Node0&#45;&gt;Node7 -->
<g id="edge8" class="edge">
<title>Node0&#45;&gt;Node7</title>
<path fill="none" stroke="#191970" d="M806.7691,-149.1484C738.996,-141.7845 629.6597,-126.499 539,-98 537.1432,-97.4163 535.2564,-96.7492 533.3734,-96.0272"/>
<polygon fill="#191970" stroke="#191970" points="534.7206,-92.7967 524.1493,-92.0907 531.973,-99.235 534.7206,-92.7967"/>
</g>
<!-- Node8 -->
<g id="node9" class="node">
<title>Node8</title>
<polygon fill="#ffffff" stroke="#bfbfbf" points="548,-67.5 548,-97.5 696,-97.5 696,-67.5 548,-67.5"/>
<text text-anchor="start" x="556" y="-85.5" font-family="Helvetica,sans-Serif" font-size="10.00" fill="#000000">tensorflow/core/framework</text>
<text text-anchor="middle" x="622" y="-74.5" font-family="Helvetica,sans-Serif" font-size="10.00" fill="#000000">/attr_value.pb.h</text>
</g>
<!-- Node0&#45;&gt;Node8 -->
<g id="edge9" class="edge">
<title>Node0&#45;&gt;Node8</title>
<path fill="none" stroke="#191970" d="M806.8763,-136.3294C768.9133,-125.276 721.0682,-111.3452 683.5627,-100.4249"/>
<polygon fill="#191970" stroke="#191970" points="684.3499,-97.0088 673.7701,-97.5736 682.393,-103.7297 684.3499,-97.0088"/>
</g>
<!-- Node9 -->
<g id="node10" class="node">
<title>Node9</title>
<polygon fill="#ffffff" stroke="#bfbfbf" points="714,-67.5 714,-97.5 862,-97.5 862,-67.5 714,-67.5"/>
<text text-anchor="start" x="722" y="-85.5" font-family="Helvetica,sans-Serif" font-size="10.00" fill="#000000">tensorflow/core/framework</text>
<text text-anchor="middle" x="788" y="-74.5" font-family="Helvetica,sans-Serif" font-size="10.00" fill="#000000">/function.pb.h</text>
</g>
<!-- Node0&#45;&gt;Node9 -->
<g id="edge10" class="edge">
<title>Node0&#45;&gt;Node9</title>
<path fill="none" stroke="#191970" d="M847.4375,-134.4183C836.6391,-124.9859 823.8342,-113.801 812.88,-104.2325"/>
<polygon fill="#191970" stroke="#191970" points="815.1198,-101.5418 805.2859,-97.5991 810.5148,-106.8138 815.1198,-101.5418"/>
</g>
<!-- Node10 -->
<g id="node11" class="node">
<title>Node10</title>
<polygon fill="#ffffff" stroke="#bfbfbf" points="880,-67.5 880,-97.5 1028,-97.5 1028,-67.5 880,-67.5"/>
<text text-anchor="start" x="888" y="-85.5" font-family="Helvetica,sans-Serif" font-size="10.00" fill="#000000">tensorflow/core/framework</text>
<text text-anchor="middle" x="954" y="-74.5" font-family="Helvetica,sans-Serif" font-size="10.00" fill="#000000">/graph.pb.h</text>
</g>
<!-- Node0&#45;&gt;Node10 -->
<g id="edge11" class="edge">
<title>Node0&#45;&gt;Node10</title>
<path fill="none" stroke="#191970" d="M894.5625,-134.4183C905.3609,-124.9859 918.1658,-113.801 929.12,-104.2325"/>
<polygon fill="#191970" stroke="#191970" points="931.4852,-106.8138 936.7141,-97.5991 926.8802,-101.5418 931.4852,-106.8138"/>
</g>
<!-- Node11 -->
<g id="node12" class="node">
<title>Node11</title>
<polygon fill="#ffffff" stroke="#bfbfbf" points="1046,-67.5 1046,-97.5 1194,-97.5 1194,-67.5 1046,-67.5"/>
<text text-anchor="start" x="1054" y="-85.5" font-family="Helvetica,sans-Serif" font-size="10.00" fill="#000000">tensorflow/core/framework</text>
<text text-anchor="middle" x="1120" y="-74.5" font-family="Helvetica,sans-Serif" font-size="10.00" fill="#000000">/node_def.pb.h</text>
</g>
<!-- Node0&#45;&gt;Node11 -->
<g id="edge12" class="edge">
<title>Node0&#45;&gt;Node11</title>
<path fill="none" stroke="#191970" d="M935.1237,-136.3294C973.0867,-125.276 1020.9318,-111.3452 1058.4373,-100.4249"/>
<polygon fill="#191970" stroke="#191970" points="1059.607,-103.7297 1068.2299,-97.5736 1057.6501,-97.0088 1059.607,-103.7297"/>
</g>
<!-- Node12 -->
<g id="node13" class="node">
<title>Node12</title>
<polygon fill="#ffffff" stroke="#bfbfbf" points="1212,-67.5 1212,-97.5 1360,-97.5 1360,-67.5 1212,-67.5"/>
<text text-anchor="start" x="1220" y="-85.5" font-family="Helvetica,sans-Serif" font-size="10.00" fill="#000000">tensorflow/core/framework</text>
<text text-anchor="middle" x="1286" y="-74.5" font-family="Helvetica,sans-Serif" font-size="10.00" fill="#000000">/node_def_util.h</text>
</g>
<!-- Node0&#45;&gt;Node12 -->
<g id="edge13" class="edge">
<title>Node0&#45;&gt;Node12</title>
<path fill="none" stroke="#191970" d="M935.0048,-144.296C999.7436,-133.4046 1102.9708,-115.862 1201.9282,-98.1792"/>
<polygon fill="#191970" stroke="#191970" points="1202.5713,-101.6198 1211.7981,-96.4125 1201.3379,-94.7293 1202.5713,-101.6198"/>
</g>
<!-- Node13 -->
<g id="node14" class="node">
<title>Node13</title>
<polygon fill="#ffffff" stroke="#bfbfbf" points="1378,-67.5 1378,-97.5 1526,-97.5 1526,-67.5 1378,-67.5"/>
<text text-anchor="start" x="1386" y="-85.5" font-family="Helvetica,sans-Serif" font-size="10.00" fill="#000000">tensorflow/core/framework</text>
<text text-anchor="middle" x="1452" y="-74.5" font-family="Helvetica,sans-Serif" font-size="10.00" fill="#000000">/op_def_util.h</text>
</g>
<!-- Node0&#45;&gt;Node13 -->
<g id="edge14" class="edge">
<title>Node0&#45;&gt;Node13</title>
<path fill="none" stroke="#191970" d="M935.2611,-149.1096C1028.3667,-140.2508 1206.3941,-122.0951 1367.7218,-98.132"/>
<polygon fill="#191970" stroke="#191970" points="1368.4602,-101.5605 1377.8322,-96.6192 1367.4243,-94.6376 1368.4602,-101.5605"/>
</g>
<!-- Node14 -->
<g id="node15" class="node">
<title>Node14</title>
<polygon fill="#ffffff" stroke="#bfbfbf" points="1544,-67.5 1544,-97.5 1692,-97.5 1692,-67.5 1544,-67.5"/>
<text text-anchor="start" x="1552" y="-85.5" font-family="Helvetica,sans-Serif" font-size="10.00" fill="#000000">tensorflow/core/framework</text>
<text text-anchor="middle" x="1618" y="-74.5" font-family="Helvetica,sans-Serif" font-size="10.00" fill="#000000">/versions.pb_text.h</text>
</g>
<!-- Node0&#45;&gt;Node14 -->
<g id="edge15" class="edge">
<title>Node0&#45;&gt;Node14</title>
<path fill="none" stroke="#191970" d="M935.332,-151.5998C1052.4409,-144.9464 1308.3837,-128.269 1533.8141,-98.0794"/>
<polygon fill="#191970" stroke="#191970" points="1534.4058,-101.5313 1543.8472,-96.724 1533.4686,-94.5943 1534.4058,-101.5313"/>
</g>
<!-- Node15 -->
<g id="node16" class="node">
<title>Node15</title>
<polygon fill="#ffffff" stroke="#bfbfbf" points="1710.5,-67.5 1710.5,-97.5 1817.5,-97.5 1817.5,-67.5 1710.5,-67.5"/>
<text text-anchor="start" x="1718.5" y="-85.5" font-family="Helvetica,sans-Serif" font-size="10.00" fill="#000000">tensorflow/core/lib</text>
<text text-anchor="middle" x="1764" y="-74.5" font-family="Helvetica,sans-Serif" font-size="10.00" fill="#000000">/core/errors.h</text>
</g>
<!-- Node0&#45;&gt;Node15 -->
<g id="edge16" class="edge">
<title>Node0&#45;&gt;Node15</title>
<path fill="none" stroke="#191970" d="M935.2629,-152.0261C1099.9705,-144.1781 1535.2212,-121.9593 1700.1676,-97.9059"/>
<polygon fill="#191970" stroke="#191970" points="1700.8039,-101.3495 1710.1677,-96.3928 1699.7566,-94.4283 1700.8039,-101.3495"/>
</g>
<!-- Node16 -->
<g id="node17" class="node">
<title>Node16</title>
<polygon fill="#ffffff" stroke="#bfbfbf" points="1835.5,-67.5 1835.5,-97.5 1942.5,-97.5 1942.5,-67.5 1835.5,-67.5"/>
<text text-anchor="start" x="1843.5" y="-85.5" font-family="Helvetica,sans-Serif" font-size="10.00" fill="#000000">tensorflow/core/lib</text>
<text text-anchor="middle" x="1889" y="-74.5" font-family="Helvetica,sans-Serif" font-size="10.00" fill="#000000">/strings/str_util.h</text>
</g>
<!-- Node0&#45;&gt;Node16 -->
<g id="edge18" class="edge">
<title>Node0&#45;&gt;Node16</title>
<path fill="none" stroke="#191970" d="M935.1309,-152.7295C1117.0653,-146.0462 1635.0594,-125.2804 1825.1976,-98.0663"/>
<polygon fill="#191970" stroke="#191970" points="1825.9781,-101.4889 1835.3554,-96.5577 1824.9497,-94.5648 1825.9781,-101.4889"/>
</g>
<!-- Node17 -->
<g id="node18" class="node">
<title>Node17</title>
<polygon fill="#ffffff" stroke="#bfbfbf" points="1960.5,-67.5 1960.5,-97.5 2067.5,-97.5 2067.5,-67.5 1960.5,-67.5"/>
<text text-anchor="start" x="1968.5" y="-85.5" font-family="Helvetica,sans-Serif" font-size="10.00" fill="#000000">tensorflow/core/lib</text>
<text text-anchor="middle" x="2014" y="-74.5" font-family="Helvetica,sans-Serif" font-size="10.00" fill="#000000">/strings/strcat.h</text>
</g>
<!-- Node0&#45;&gt;Node17 -->
<g id="edge19" class="edge">
<title>Node0&#45;&gt;Node17</title>
<path fill="none" stroke="#191970" d="M935.1426,-153.2379C1133.2857,-147.5434 1734.7506,-128.3098 1950.3854,-98.0309"/>
<polygon fill="#191970" stroke="#191970" points="1950.9666,-101.4833 1960.3589,-96.5807 1949.9593,-94.5562 1950.9666,-101.4833"/>
</g>
<!-- Node1&#45;&gt;Node2 -->
<g id="edge2" class="edge">
<title>Node1&#45;&gt;Node2</title>
<path fill="none" stroke="#191970" d="M107.0734,-67.3809C88.1256,-57.3399 62.9048,-43.7134 41,-31 40.7019,-30.827 40.4021,-30.6523 40.1009,-30.4762"/>
<polygon fill="#191970" stroke="#191970" points="41.6242,-27.308 31.2512,-25.151 38.015,-33.3058 41.6242,-27.308"/>
</g>
<!-- Node3 -->
<g id="node4" class="node">
<title>Node3</title>
<polygon fill="#ffffff" stroke="#bfbfbf" points="50,-6 50,-25 222,-25 222,-6 50,-6"/>
<text text-anchor="middle" x="136" y="-13" font-family="Helvetica,sans-Serif" font-size="10.00" fill="#000000">tensorflow/core/framework/op.h</text>
</g>
<!-- Node1&#45;&gt;Node3 -->
<g id="edge3" class="edge">
<title>Node1&#45;&gt;Node3</title>
<path fill="none" stroke="#191970" d="M136,-67.2967C136,-57.7699 136,-45.3954 136,-35.1306"/>
<polygon fill="#191970" stroke="#191970" points="139.5001,-35.0549 136,-25.055 132.5001,-35.055 139.5001,-35.0549"/>
</g>
<!-- Node1&#45;&gt;Node4 -->
<g id="edge4" class="edge">
<title>Node1&#45;&gt;Node4</title>
<path fill="none" stroke="#191970" d="M171.4583,-67.4639C194.3499,-57.7567 224.335,-45.0415 248.914,-34.6188"/>
<polygon fill="#191970" stroke="#191970" points="250.547,-37.728 258.3871,-30.6017 247.8142,-31.2835 250.547,-37.728"/>
</g>
</g>
</svg>
