<?xml version="1.0" encoding="UTF-8" standalone="no"?>
<!DOCTYPE svg PUBLIC "-//W3C//DTD SVG 1.1//EN"
 "http://www.w3.org/Graphics/SVG/1.1/DTD/svg11.dtd">
<!-- Generated by graphviz version 2.40.1 (20161225.0304)
 -->
<!-- Title: tensorflow/tensorflow/compiler/xla/service/hlo_ordering.h Pages: 1 -->
<!--zoomable 284 -->
<svg id="main" version="1.1" xmlns="http://www.w3.org/2000/svg" xmlns:xlink="http://www.w3.org/1999/xlink" xml:space="preserve" onload="init(evt)">
<style type="text/css"><![CDATA[
.edge:hover path { stroke: red; }
.edge:hover polygon { stroke: red; fill: red; }
]]></style>
<script type="text/javascript"><![CDATA[
var edges = document.getElementsByTagName('g');
if (edges && edges.length) {
  for (var i=0;i<edges.length;i++) {
    if (edges[i].id.substr(0,4)=='edge') {
      edges[i].setAttribute('class','edge');
    }
  }
}
]]></script>
        <defs>
                <circle id="rim" cx="0" cy="0" r="7"/>
                <circle id="rim2" cx="0" cy="0" r="3.5"/>
                <g id="zoomPlus">
                        <use xlink:href="#rim" fill="#404040">
                                <set attributeName="fill" to="#808080" begin="zoomplus.mouseover" end="zoomplus.mouseout"/>
                        </use>
                        <path d="M-4,0h8M0,-4v8" fill="none" stroke="white" stroke-width="1.5" pointer-events="none"/>
                </g>
                <g id="zoomMin">
                        <use xlink:href="#rim" fill="#404040">
                                <set attributeName="fill" to="#808080" begin="zoomminus.mouseover" end="zoomminus.mouseout"/>
                        </use>
                        <path d="M-4,0h8" fill="none" stroke="white" stroke-width="1.5" pointer-events="none"/>
                </g>
                <g id="dirArrow">
                        <path fill="none" stroke="white" stroke-width="1.5" d="M0,-3.0v7 M-2.5,-0.5L0,-3.0L2.5,-0.5"/>
                </g>
               <g id="resetDef">
                       <use xlink:href="#rim2" fill="#404040">
                               <set attributeName="fill" to="#808080" begin="reset.mouseover" end="reset.mouseout"/>
                       </use>
               </g>
        </defs>

<script type="text/javascript">
var viewWidth = 2790;
var viewHeight = 284;
var sectionId = 'dynsection-0';
</script>
<script xlink:href="../../svgpan.js"/>
<svg id="graph" class="graph">
<g id="viewport">
<title>tensorflow/tensorflow/compiler/xla/service/hlo_ordering.h</title>
<polygon fill="#ffffff" stroke="transparent" points="-4,4 -4,-280 2786,-280 2786,4 -4,4"/>
<!-- Node0 -->
<g id="node1" class="node">
<title>Node0</title>
<polygon fill="#bfbfbf" stroke="#000000" points="1438.5,-234.5 1438.5,-275.5 1548.5,-275.5 1548.5,-234.5 1438.5,-234.5"/>
<text text-anchor="start" x="1446.5" y="-263.5" font-family="Helvetica,sans-Serif" font-size="10.00" fill="#000000">tensorflow/tensorflow</text>
<text text-anchor="start" x="1446.5" y="-252.5" font-family="Helvetica,sans-Serif" font-size="10.00" fill="#000000">/compiler/xla/service</text>
<text text-anchor="middle" x="1493.5" y="-241.5" font-family="Helvetica,sans-Serif" font-size="10.00" fill="#000000">/hlo_ordering.h</text>
</g>
<!-- Node1 -->
<g id="node2" class="node">
<title>Node1</title>
<polygon fill="#ffffff" stroke="#bfbfbf" points="2496.5,-11.5 2496.5,-30.5 2548.5,-30.5 2548.5,-11.5 2496.5,-11.5"/>
<text text-anchor="middle" x="2522.5" y="-18.5" font-family="Helvetica,sans-Serif" font-size="10.00" fill="#000000">memory</text>
</g>
<!-- Node0&#45;&gt;Node1 -->
<g id="edge1" class="edge">
<title>Node0&#45;&gt;Node1</title>
<path fill="none" stroke="#191970" d="M1548.6964,-243.2898C1593.8351,-233.1133 1659.0328,-217.0368 1714.5,-198 1746.2253,-187.1116 1958.9252,-85.9959 1991.5,-78 2205.7218,-25.4167 2275.7928,-107.2572 2486.5,-42 2491.3426,-40.5002 2496.2309,-38.2485 2500.7773,-35.7686"/>
<polygon fill="#191970" stroke="#191970" points="2502.7349,-38.6757 2509.5049,-30.526 2499.1303,-32.6751 2502.7349,-38.6757"/>
</g>
<!-- Node2 -->
<g id="node3" class="node">
<title>Node2</title>
<polygon fill="#ffffff" stroke="#bfbfbf" points="0,-11.5 0,-30.5 41,-30.5 41,-11.5 0,-11.5"/>
<text text-anchor="middle" x="20.5" y="-18.5" font-family="Helvetica,sans-Serif" font-size="10.00" fill="#000000">string</text>
</g>
<!-- Node0&#45;&gt;Node2 -->
<g id="edge2" class="edge">
<title>Node0&#45;&gt;Node2</title>
<path fill="none" stroke="#191970" d="M1438.4321,-254.5798C1246.2426,-252.729 606.1223,-243.234 406.5,-198 238.0246,-159.8239 200.1807,-128.2385 50.5,-42 47.5253,-40.2861 44.4707,-38.3609 41.5023,-36.3898"/>
<polygon fill="#191970" stroke="#191970" points="43.2326,-33.3303 33.0217,-30.504 39.2414,-39.081 43.2326,-33.3303"/>
</g>
<!-- Node3 -->
<g id="node4" class="node">
<title>Node3</title>
<polygon fill="#ffffff" stroke="#bfbfbf" points="181.5,-11.5 181.5,-30.5 221.5,-30.5 221.5,-11.5 181.5,-11.5"/>
<text text-anchor="middle" x="201.5" y="-18.5" font-family="Helvetica,sans-Serif" font-size="10.00" fill="#000000">utility</text>
</g>
<!-- Node0&#45;&gt;Node3 -->
<g id="edge3" class="edge">
<title>Node0&#45;&gt;Node3</title>
<path fill="none" stroke="#191970" d="M1438.3583,-253.4342C1323.921,-249.4926 1052.6128,-236.5498 828.5,-198 557.803,-151.4372 478.8976,-159.233 230.5,-42 227.2536,-40.4678 223.9961,-38.5583 220.8977,-36.5195"/>
<polygon fill="#191970" stroke="#191970" points="222.8887,-33.6403 212.7282,-30.6379 218.7988,-39.3212 222.8887,-33.6403"/>
</g>
<!-- Node4 -->
<g id="node5" class="node">
<title>Node4</title>
<polygon fill="#ffffff" stroke="#bfbfbf" points="837.5,-162 837.5,-192 959.5,-192 959.5,-162 837.5,-162"/>
<text text-anchor="start" x="845.5" y="-180" font-family="Helvetica,sans-Serif" font-size="10.00" fill="#000000">tensorflow/compiler</text>
<text text-anchor="middle" x="898.5" y="-169" font-family="Helvetica,sans-Serif" font-size="10.00" fill="#000000">/xla/service/call_graph.h</text>
</g>
<!-- Node0&#45;&gt;Node4 -->
<g id="edge4" class="edge">
<title>Node0&#45;&gt;Node4</title>
<path fill="none" stroke="#191970" d="M1438.194,-252.334C1341.9237,-246.9533 1137.6568,-232.255 968.5,-198 963.8484,-197.058 959.0616,-195.943 954.2784,-194.7255"/>
<polygon fill="#191970" stroke="#191970" points="955.0753,-191.3156 944.51,-192.1054 953.2618,-198.0766 955.0753,-191.3156"/>
</g>
<!-- Node5 -->
<g id="node6" class="node">
<title>Node5</title>
<polygon fill="#ffffff" stroke="#bfbfbf" points="59.5,-6 59.5,-36 163.5,-36 163.5,-6 59.5,-6"/>
<text text-anchor="start" x="67.5" y="-24" font-family="Helvetica,sans-Serif" font-size="10.00" fill="#000000">tensorflow/compiler</text>
<text text-anchor="middle" x="111.5" y="-13" font-family="Helvetica,sans-Serif" font-size="10.00" fill="#000000">/xla/service/hlo.pb.h</text>
</g>
<!-- Node0&#45;&gt;Node5 -->
<g id="edge5" class="edge">
<title>Node0&#45;&gt;Node5</title>
<path fill="none" stroke="#191970" d="M1438.3041,-253.3063C1265.7382,-247.7417 737.9099,-228.6068 569.5,-198 453.3114,-176.8839 425.3905,-163.2406 315.5,-120 255.1755,-96.2631 188.0488,-62.1002 147.8318,-40.7461"/>
<polygon fill="#191970" stroke="#191970" points="149.4096,-37.6209 138.9394,-36.0001 146.1136,-43.7964 149.4096,-37.6209"/>
</g>
<!-- Node6 -->
<g id="node7" class="node">
<title>Node6</title>
<polygon fill="#ffffff" stroke="#bfbfbf" points="1431,-156.5 1431,-197.5 1556,-197.5 1556,-156.5 1431,-156.5"/>
<text text-anchor="start" x="1439" y="-185.5" font-family="Helvetica,sans-Serif" font-size="10.00" fill="#000000">tensorflow/compiler</text>
<text text-anchor="start" x="1439" y="-174.5" font-family="Helvetica,sans-Serif" font-size="10.00" fill="#000000">/xla/service/hlo_dataflow</text>
<text text-anchor="middle" x="1493.5" y="-163.5" font-family="Helvetica,sans-Serif" font-size="10.00" fill="#000000">_analysis.h</text>
</g>
<!-- Node0&#45;&gt;Node6 -->
<g id="edge6" class="edge">
<title>Node0&#45;&gt;Node6</title>
<path fill="none" stroke="#191970" d="M1493.5,-234.0974C1493.5,-226.077 1493.5,-216.7444 1493.5,-207.9772"/>
<polygon fill="#191970" stroke="#191970" points="1497.0001,-207.6898 1493.5,-197.6898 1490.0001,-207.6898 1497.0001,-207.6898"/>
</g>
<!-- Node7 -->
<g id="node8" class="node">
<title>Node7</title>
<polygon fill="#ffffff" stroke="#bfbfbf" points="2337,-6 2337,-36 2478,-36 2478,-6 2337,-6"/>
<text text-anchor="start" x="2345" y="-24" font-family="Helvetica,sans-Serif" font-size="10.00" fill="#000000">tensorflow/compiler</text>
<text text-anchor="middle" x="2407.5" y="-13" font-family="Helvetica,sans-Serif" font-size="10.00" fill="#000000">/xla/service/hlo_instruction.h</text>
</g>
<!-- Node0&#45;&gt;Node7 -->
<g id="edge7" class="edge">
<title>Node0&#45;&gt;Node7</title>
<path fill="none" stroke="#191970" d="M1548.549,-235.169C1616.5609,-210.2214 1735.4266,-165.1565 1834.5,-120 1871.3997,-103.1816 1876.5585,-89.314 1915.5,-78 2092.0099,-26.7169 2146.4013,-73.4473 2327.5,-42 2333.3006,-40.9927 2339.2951,-39.7695 2345.2728,-38.4252"/>
<polygon fill="#191970" stroke="#191970" points="2346.3498,-41.7673 2355.2795,-36.0655 2344.7431,-34.9542 2346.3498,-41.7673"/>
</g>
<!-- Node8 -->
<g id="node9" class="node">
<title>Node8</title>
<g id="a_node9"><a xlink:href="../../db/da0/hlo__module_8h.html" target="_top" xlink:title="tensorflow/compiler\l/xla/service/hlo_module.h">
<polygon fill="#ffffff" stroke="#000000" points="977.5,-162 977.5,-192 1105.5,-192 1105.5,-162 977.5,-162"/>
<text text-anchor="start" x="985.5" y="-180" font-family="Helvetica,sans-Serif" font-size="10.00" fill="#000000">tensorflow/compiler</text>
<text text-anchor="middle" x="1041.5" y="-169" font-family="Helvetica,sans-Serif" font-size="10.00" fill="#000000">/xla/service/hlo_module.h</text>
</a>
</g>
</g>
<!-- Node0&#45;&gt;Node8 -->
<g id="edge8" class="edge">
<title>Node0&#45;&gt;Node8</title>
<path fill="none" stroke="#191970" d="M1438.0759,-245.4357C1357.0725,-231.4572 1206.1727,-205.417 1115.6809,-189.8011"/>
<polygon fill="#191970" stroke="#191970" points="1116.2151,-186.3417 1105.7656,-188.0901 1115.0247,-193.2397 1116.2151,-186.3417"/>
</g>
<!-- Node24 -->
<g id="node25" class="node">
<title>Node24</title>
<polygon fill="#ffffff" stroke="#bfbfbf" points="2681,-6 2681,-36 2782,-36 2782,-6 2681,-6"/>
<text text-anchor="start" x="2689" y="-24" font-family="Helvetica,sans-Serif" font-size="10.00" fill="#000000">tensorflow/compiler</text>
<text text-anchor="middle" x="2731.5" y="-13" font-family="Helvetica,sans-Serif" font-size="10.00" fill="#000000">/xla/types.h</text>
</g>
<!-- Node0&#45;&gt;Node24 -->
<g id="edge54" class="edge">
<title>Node0&#45;&gt;Node24</title>
<path fill="none" stroke="#191970" d="M1548.7449,-246.4932C1617.7905,-235.7485 1739.5381,-216.4307 1843.5,-198 1941.0855,-180.6998 1965.1256,-174.451 2062.5,-156 2333.0538,-104.734 2405.4483,-113.0213 2671.5,-42 2674.6989,-41.1461 2677.972,-40.2039 2681.258,-39.2059"/>
<polygon fill="#191970" stroke="#191970" points="2682.6252,-42.4438 2691.0934,-36.0767 2680.5029,-35.7733 2682.6252,-42.4438"/>
</g>
<!-- Node28 -->
<g id="node29" class="node">
<title>Node28</title>
<polygon fill="#ffffff" stroke="#bfbfbf" points="2566.5,-6 2566.5,-36 2662.5,-36 2662.5,-6 2566.5,-6"/>
<text text-anchor="start" x="2574.5" y="-24" font-family="Helvetica,sans-Serif" font-size="10.00" fill="#000000">tensorflow/core/lib</text>
<text text-anchor="middle" x="2614.5" y="-13" font-family="Helvetica,sans-Serif" font-size="10.00" fill="#000000">/gtl/flatmap.h</text>
</g>
<!-- Node0&#45;&gt;Node28 -->
<g id="edge55" class="edge">
<title>Node0&#45;&gt;Node28</title>
<path fill="none" stroke="#191970" d="M1548.721,-247.1927C1605.9924,-238.311 1697.7349,-221.8743 1774.5,-198 1858.9245,-171.7436 1878.494,-159.6854 1957.5,-120 1990.6048,-103.3712 1994.0871,-88.8799 2029.5,-78 2254.3395,-8.9228 2327.4821,-91.1549 2557.5,-42 2561.1709,-41.2155 2564.9228,-40.2433 2568.6624,-39.1505"/>
<polygon fill="#191970" stroke="#191970" points="2570.0045,-42.3963 2578.4681,-36.0231 2567.8774,-35.7273 2570.0045,-42.3963"/>
</g>
<!-- Node37 -->
<g id="node38" class="node">
<title>Node37</title>
<polygon fill="#ffffff" stroke="#bfbfbf" points="2072,-162 2072,-192 2191,-192 2191,-162 2072,-162"/>
<text text-anchor="start" x="2080" y="-180" font-family="Helvetica,sans-Serif" font-size="10.00" fill="#000000">tensorflow/compiler</text>
<text text-anchor="middle" x="2131.5" y="-169" font-family="Helvetica,sans-Serif" font-size="10.00" fill="#000000">/xla/service/hlo_value.h</text>
</g>
<!-- Node0&#45;&gt;Node37 -->
<g id="edge53" class="edge">
<title>Node0&#45;&gt;Node37</title>
<path fill="none" stroke="#191970" d="M1548.8048,-252.6388C1650.3677,-247.5897 1873.102,-233.1992 2057.5,-198 2062.6159,-197.0234 2067.8905,-195.857 2073.1567,-194.5813"/>
<polygon fill="#191970" stroke="#191970" points="2074.4036,-197.8755 2083.2296,-192.0144 2072.675,-191.0923 2074.4036,-197.8755"/>
</g>
<!-- Node8&#45;&gt;Node1 -->
<g id="edge11" class="edge">
<title>Node8&#45;&gt;Node1</title>
<path fill="none" stroke="#191970" d="M1105.7331,-173.0934C1288.3487,-161.8925 1799.6294,-129.8407 1834.5,-120 1873.5274,-108.9862 1876.4245,-88.8421 1915.5,-78 2160.5246,-10.0138 2243.2412,-116.0561 2486.5,-42 2491.3497,-40.5236 2496.2413,-38.2824 2500.7887,-35.8056"/>
<polygon fill="#191970" stroke="#191970" points="2502.7476,-38.7118 2509.5154,-30.5602 2499.1414,-32.7121 2502.7476,-38.7118"/>
</g>
<!-- Node8&#45;&gt;Node2 -->
<g id="edge13" class="edge">
<title>Node8&#45;&gt;Node2</title>
<path fill="none" stroke="#191970" d="M994.7231,-161.9433C986.079,-159.6195 977.0739,-157.498 968.5,-156 728.9355,-114.1434 663.4394,-153.0353 422.5,-120 255.1372,-97.0528 205.5151,-109.1358 50.5,-42 46.9668,-40.4698 43.4263,-38.4883 40.0798,-36.3547"/>
<polygon fill="#191970" stroke="#191970" points="42.0094,-33.433 31.8123,-30.5571 37.9903,-39.1643 42.0094,-33.433"/>
</g>
<!-- Node8&#45;&gt;Node5 -->
<g id="edge17" class="edge">
<title>Node8&#45;&gt;Node5</title>
<path fill="none" stroke="#191970" d="M993.9042,-161.9097C985.5051,-159.6489 976.7951,-157.5576 968.5,-156 795.6798,-123.5488 747.4885,-151.5418 574.5,-120 505.5497,-107.428 491.1009,-92.3568 422.5,-78 312.6232,-55.0049 281.6117,-68.3877 172.5,-42 168.9143,-41.1328 165.2415,-40.1412 161.5633,-39.0714"/>
<polygon fill="#191970" stroke="#191970" points="162.4579,-35.6848 151.8708,-36.0891 160.3993,-42.3752 162.4579,-35.6848"/>
</g>
<!-- Node8&#45;&gt;Node7 -->
<g id="edge44" class="edge">
<title>Node8&#45;&gt;Node7</title>
<path fill="none" stroke="#191970" d="M1066.5725,-161.955C1083.6412,-151.2033 1106.3413,-135.8804 1124.5,-120 1143.449,-103.4285 1139.6515,-88.5653 1162.5,-78 1280.0475,-23.6451 2199.3305,-60.5589 2327.5,-42 2333.8418,-41.0817 2340.4035,-39.8455 2346.9157,-38.43"/>
<polygon fill="#191970" stroke="#191970" points="2348.1176,-41.7444 2357.0699,-36.0781 2346.538,-34.9249 2348.1176,-41.7444"/>
</g>
<!-- Node9 -->
<g id="node10" class="node">
<title>Node9</title>
<polygon fill="#ffffff" stroke="#bfbfbf" points="645.5,-89.5 645.5,-108.5 691.5,-108.5 691.5,-89.5 645.5,-89.5"/>
<text text-anchor="middle" x="668.5" y="-96.5" font-family="Helvetica,sans-Serif" font-size="10.00" fill="#000000">atomic</text>
</g>
<!-- Node8&#45;&gt;Node9 -->
<g id="edge9" class="edge">
<title>Node8&#45;&gt;Node9</title>
<path fill="none" stroke="#191970" d="M993.0577,-161.9912C984.9099,-159.7765 976.5021,-157.679 968.5,-156 850.8802,-131.3212 813.0975,-162.0151 700.5,-120 696.5506,-118.5263 692.5935,-116.4934 688.8751,-114.269"/>
<polygon fill="#191970" stroke="#191970" points="690.5314,-111.1676 680.2639,-108.5544 686.6608,-117.0002 690.5314,-111.1676"/>
</g>
<!-- Node10 -->
<g id="node11" class="node">
<title>Node10</title>
<polygon fill="#ffffff" stroke="#bfbfbf" points="510,-11.5 510,-30.5 539,-30.5 539,-11.5 510,-11.5"/>
<text text-anchor="middle" x="524.5" y="-18.5" font-family="Helvetica,sans-Serif" font-size="10.00" fill="#000000">list</text>
</g>
<!-- Node8&#45;&gt;Node10 -->
<g id="edge10" class="edge">
<title>Node8&#45;&gt;Node10</title>
<path fill="none" stroke="#191970" d="M989.2766,-161.9222C982.2938,-159.9222 975.2247,-157.9055 968.5,-156 911.2308,-139.7719 890.1286,-151.3026 839.5,-120 818.0889,-106.762 823.7337,-89.8043 801.5,-78 700.7959,-24.5343 650.6385,-90.6041 547.5,-42 545.0177,-40.8302 542.6157,-39.2989 540.3597,-37.5955"/>
<polygon fill="#191970" stroke="#191970" points="542.3054,-34.6394 532.5218,-30.5733 537.6344,-39.853 542.3054,-34.6394"/>
</g>
<!-- Node11 -->
<g id="node12" class="node">
<title>Node11</title>
<polygon fill="#ffffff" stroke="#bfbfbf" points="710,-89.5 710,-108.5 759,-108.5 759,-89.5 710,-89.5"/>
<text text-anchor="middle" x="734.5" y="-96.5" font-family="Helvetica,sans-Serif" font-size="10.00" fill="#000000">random</text>
</g>
<!-- Node8&#45;&gt;Node11 -->
<g id="edge12" class="edge">
<title>Node8&#45;&gt;Node11</title>
<path fill="none" stroke="#191970" d="M991.4045,-161.8926C983.7637,-159.7907 975.945,-157.7537 968.5,-156 882.7165,-135.7936 856.6374,-149.2452 773.5,-120 768.4605,-118.2273 763.2843,-115.8703 758.4165,-113.3766"/>
<polygon fill="#191970" stroke="#191970" points="760.0063,-110.2569 749.5531,-108.5306 756.6483,-116.3989 760.0063,-110.2569"/>
</g>
<!-- Node12 -->
<g id="node13" class="node">
<title>Node12</title>
<polygon fill="#ffffff" stroke="#bfbfbf" points="557,-11.5 557,-30.5 640,-30.5 640,-11.5 557,-11.5"/>
<text text-anchor="middle" x="598.5" y="-18.5" font-family="Helvetica,sans-Serif" font-size="10.00" fill="#000000">unordered_map</text>
</g>
<!-- Node8&#45;&gt;Node12 -->
<g id="edge14" class="edge">
<title>Node8&#45;&gt;Node12</title>
<path fill="none" stroke="#191970" d="M989.3113,-161.949C948.7081,-149.6742 896.2231,-132.3991 877.5,-120 856.512,-106.101 861.4535,-90.3175 839.5,-78 764.5452,-35.9448 731.8843,-66.4886 649.5,-42 642.5932,-39.947 635.3402,-37.2864 628.5414,-34.5529"/>
<polygon fill="#191970" stroke="#191970" points="629.5744,-31.191 618.9985,-30.558 626.8713,-37.6481 629.5744,-31.191"/>
</g>
<!-- Node13 -->
<g id="node14" class="node">
<title>Node13</title>
<polygon fill="#ffffff" stroke="#bfbfbf" points="658.5,-11.5 658.5,-30.5 702.5,-30.5 702.5,-11.5 658.5,-11.5"/>
<text text-anchor="middle" x="680.5" y="-18.5" font-family="Helvetica,sans-Serif" font-size="10.00" fill="#000000">vector</text>
</g>
<!-- Node8&#45;&gt;Node13 -->
<g id="edge15" class="edge">
<title>Node8&#45;&gt;Node13</title>
<path fill="none" stroke="#191970" d="M996.8262,-161.9667C971.5845,-152.2464 940.2334,-138.0371 915.5,-120 895.1609,-105.1676 899.2896,-90.6052 877.5,-78 812.1538,-40.1974 780.9009,-71.7098 711.5,-42 707.8808,-40.4506 704.239,-38.4591 700.7879,-36.3212"/>
<polygon fill="#191970" stroke="#191970" points="702.4845,-33.2428 692.2445,-30.5238 698.554,-39.0351 702.4845,-33.2428"/>
</g>
<!-- Node14 -->
<g id="node15" class="node">
<title>Node14</title>
<polygon fill="#ffffff" stroke="#bfbfbf" points="721,-6 721,-36 822,-36 822,-6 721,-6"/>
<text text-anchor="start" x="729" y="-24" font-family="Helvetica,sans-Serif" font-size="10.00" fill="#000000">tensorflow/compiler</text>
<text text-anchor="middle" x="771.5" y="-13" font-family="Helvetica,sans-Serif" font-size="10.00" fill="#000000">/xla/iterator_util.h</text>
</g>
<!-- Node8&#45;&gt;Node14 -->
<g id="edge16" class="edge">
<title>Node8&#45;&gt;Node14</title>
<path fill="none" stroke="#191970" d="M1016.7321,-161.9456C999.5228,-151.0716 976.3809,-135.6085 957.5,-120 937.1536,-103.18 937.5648,-92.4926 915.5,-78 907.1353,-72.5059 859.7952,-54.1233 821.643,-39.7016"/>
<polygon fill="#191970" stroke="#191970" points="822.7624,-36.3832 812.1705,-36.1307 820.2931,-42.9333 822.7624,-36.3832"/>
</g>
<!-- Node15 -->
<g id="node16" class="node">
<title>Node15</title>
<g id="a_node16"><a xlink:href="../../d2/d31/hlo__computation_8h.html" target="_top" xlink:title="tensorflow/compiler\l/xla/service/hlo_computation.h">
<polygon fill="#ffffff" stroke="#000000" points="967,-84 967,-114 1116,-114 1116,-84 967,-84"/>
<text text-anchor="start" x="975" y="-102" font-family="Helvetica,sans-Serif" font-size="10.00" fill="#000000">tensorflow/compiler</text>
<text text-anchor="middle" x="1041.5" y="-91" font-family="Helvetica,sans-Serif" font-size="10.00" fill="#000000">/xla/service/hlo_computation.h</text>
</a>
</g>
</g>
<!-- Node8&#45;&gt;Node15 -->
<g id="edge18" class="edge">
<title>Node8&#45;&gt;Node15</title>
<path fill="none" stroke="#191970" d="M1041.5,-161.9608C1041.5,-151.3466 1041.5,-136.8663 1041.5,-124.4685"/>
<polygon fill="#191970" stroke="#191970" points="1045.0001,-124.2591 1041.5,-114.2592 1038.0001,-124.2592 1045.0001,-124.2591"/>
</g>
<!-- Node21 -->
<g id="node22" class="node">
<title>Node21</title>
<polygon fill="#ffffff" stroke="#bfbfbf" points="239.5,-6 239.5,-36 377.5,-36 377.5,-6 239.5,-6"/>
<text text-anchor="start" x="247.5" y="-24" font-family="Helvetica,sans-Serif" font-size="10.00" fill="#000000">tensorflow/compiler</text>
<text text-anchor="middle" x="308.5" y="-13" font-family="Helvetica,sans-Serif" font-size="10.00" fill="#000000">/xla/service/name_uniquer.h</text>
</g>
<!-- Node8&#45;&gt;Node21 -->
<g id="edge46" class="edge">
<title>Node8&#45;&gt;Node21</title>
<path fill="none" stroke="#191970" d="M993.4877,-161.9214C985.2131,-159.6876 976.6522,-157.6022 968.5,-156 822.8655,-127.378 775.8349,-171.1315 636.5,-120 605.2545,-108.5339 605.2544,-90.7247 574.5,-78 495.8893,-45.4747 469.4085,-61.0714 386.5,-42 381.8746,-40.936 377.1089,-39.7863 372.3209,-38.5922"/>
<polygon fill="#191970" stroke="#191970" points="373.0537,-35.1672 362.4993,-36.0919 371.3267,-41.9508 373.0537,-35.1672"/>
</g>
<!-- Node8&#45;&gt;Node24 -->
<g id="edge48" class="edge">
<title>Node8&#45;&gt;Node24</title>
<path fill="none" stroke="#191970" d="M1105.7572,-173.5145C1290.234,-163.3908 1813.1849,-133.8308 1889.5,-120 1953.4206,-108.4155 1965.516,-89.2296 2029.5,-78 2310.9794,-28.5987 2391.2094,-97.7521 2671.5,-42 2675.5794,-41.1886 2679.758,-40.1609 2683.9183,-38.9983"/>
<polygon fill="#191970" stroke="#191970" points="2684.9845,-42.3325 2693.5369,-36.0789 2682.9514,-35.6342 2684.9845,-42.3325"/>
</g>
<!-- Node27 -->
<g id="node28" class="node">
<title>Node27</title>
<polygon fill="#ffffff" stroke="#bfbfbf" points="395.5,-6 395.5,-36 491.5,-36 491.5,-6 395.5,-6"/>
<text text-anchor="start" x="403.5" y="-24" font-family="Helvetica,sans-Serif" font-size="10.00" fill="#000000">tensorflow/core/lib</text>
<text text-anchor="middle" x="443.5" y="-13" font-family="Helvetica,sans-Serif" font-size="10.00" fill="#000000">/gtl/array_slice.h</text>
</g>
<!-- Node8&#45;&gt;Node27 -->
<g id="edge49" class="edge">
<title>Node8&#45;&gt;Node27</title>
<path fill="none" stroke="#191970" d="M990.9612,-161.9809C983.4531,-159.8895 975.7902,-157.8321 968.5,-156 894.8626,-137.494 866.1782,-159.7701 801.5,-120 781.0417,-107.4204 788.435,-89.7693 767.5,-78 663.123,-19.321 616.7079,-70.8703 500.5,-42 497.1752,-41.174 493.7765,-40.2195 490.376,-39.1824"/>
<polygon fill="#191970" stroke="#191970" points="491.4406,-35.8482 480.8483,-36.0791 489.2726,-42.5041 491.4406,-35.8482"/>
</g>
<!-- Node32 -->
<g id="node33" class="node">
<title>Node32</title>
<polygon fill="#ffffff" stroke="#bfbfbf" points="1172,-78.5 1172,-119.5 1291,-119.5 1291,-78.5 1172,-78.5"/>
<text text-anchor="start" x="1180" y="-107.5" font-family="Helvetica,sans-Serif" font-size="10.00" fill="#000000">tensorflow/compiler</text>
<text text-anchor="start" x="1180" y="-96.5" font-family="Helvetica,sans-Serif" font-size="10.00" fill="#000000">/xla/service/hlo_module</text>
<text text-anchor="middle" x="1231.5" y="-85.5" font-family="Helvetica,sans-Serif" font-size="10.00" fill="#000000">_config.h</text>
</g>
<!-- Node8&#45;&gt;Node32 -->
<g id="edge45" class="edge">
<title>Node8&#45;&gt;Node32</title>
<path fill="none" stroke="#191970" d="M1078.1339,-161.9608C1104.7154,-151.0484 1141.2505,-136.0498 1171.9936,-123.4289"/>
<polygon fill="#191970" stroke="#191970" points="1173.4096,-126.6312 1181.3312,-119.5956 1170.7512,-120.1556 1173.4096,-126.6312"/>
</g>
<!-- Node33 -->
<g id="node34" class="node">
<title>Node33</title>
<polygon fill="#ffffff" stroke="#bfbfbf" points="1309,-78.5 1309,-119.5 1426,-119.5 1426,-78.5 1309,-78.5"/>
<text text-anchor="start" x="1317" y="-107.5" font-family="Helvetica,sans-Serif" font-size="10.00" fill="#000000">tensorflow/compiler</text>
<text text-anchor="start" x="1317" y="-96.5" font-family="Helvetica,sans-Serif" font-size="10.00" fill="#000000">/xla/service/versioned</text>
<text text-anchor="middle" x="1367.5" y="-85.5" font-family="Helvetica,sans-Serif" font-size="10.00" fill="#000000">_computation_handle.h</text>
</g>
<!-- Node8&#45;&gt;Node33 -->
<g id="edge47" class="edge">
<title>Node8&#45;&gt;Node33</title>
<path fill="none" stroke="#191970" d="M1105.7328,-164.3369C1155.8942,-154.0978 1227.5027,-138.7161 1299.3111,-119.9532"/>
<polygon fill="#191970" stroke="#191970" points="1300.204,-123.3375 1308.9826,-117.4057 1298.4209,-116.5684 1300.204,-123.3375"/>
</g>
<!-- Node34 -->
<g id="node35" class="node">
<title>Node34</title>
<polygon fill="#ffffff" stroke="#bfbfbf" points="1444,-84 1444,-114 1545,-114 1545,-84 1444,-84"/>
<text text-anchor="start" x="1452" y="-102" font-family="Helvetica,sans-Serif" font-size="10.00" fill="#000000">tensorflow/core/lib</text>
<text text-anchor="middle" x="1494.5" y="-91" font-family="Helvetica,sans-Serif" font-size="10.00" fill="#000000">/gtl/iterator_range.h</text>
</g>
<!-- Node8&#45;&gt;Node34 -->
<g id="edge50" class="edge">
<title>Node8&#45;&gt;Node34</title>
<path fill="none" stroke="#191970" d="M1105.5251,-171.5365C1183.9131,-163.9749 1320.3311,-147.9819 1434.5,-120 1437.9267,-119.1601 1441.4333,-118.2025 1444.9463,-117.1697"/>
<polygon fill="#191970" stroke="#191970" points="1446.2987,-120.4143 1454.8028,-114.0952 1444.2142,-113.7318 1446.2987,-120.4143"/>
</g>
<!-- Node35 -->
<g id="node36" class="node">
<title>Node35</title>
<polygon fill="#ffffff" stroke="#bfbfbf" points="1563.5,-84 1563.5,-114 1685.5,-114 1685.5,-84 1563.5,-84"/>
<text text-anchor="start" x="1571.5" y="-102" font-family="Helvetica,sans-Serif" font-size="10.00" fill="#000000">tensorflow/core/platform</text>
<text text-anchor="middle" x="1624.5" y="-91" font-family="Helvetica,sans-Serif" font-size="10.00" fill="#000000">/logging.h</text>
</g>
<!-- Node8&#45;&gt;Node35 -->
<g id="edge51" class="edge">
<title>Node8&#45;&gt;Node35</title>
<path fill="none" stroke="#191970" d="M1105.5161,-173.5154C1203.0005,-167.3921 1394.1616,-152.1707 1553.5,-120 1558.2132,-119.0484 1563.0649,-117.9265 1567.914,-116.7045"/>
<polygon fill="#191970" stroke="#191970" points="1569.05,-120.0243 1577.8187,-114.0778 1567.2556,-113.2582 1569.05,-120.0243"/>
</g>
<!-- Node36 -->
<g id="node37" class="node">
<title>Node36</title>
<polygon fill="#ffffff" stroke="#bfbfbf" points="1703.5,-84 1703.5,-114 1825.5,-114 1825.5,-84 1703.5,-84"/>
<text text-anchor="start" x="1711.5" y="-102" font-family="Helvetica,sans-Serif" font-size="10.00" fill="#000000">tensorflow/core/platform</text>
<text text-anchor="middle" x="1764.5" y="-91" font-family="Helvetica,sans-Serif" font-size="10.00" fill="#000000">/mutex.h</text>
</g>
<!-- Node8&#45;&gt;Node36 -->
<g id="edge52" class="edge">
<title>Node8&#45;&gt;Node36</title>
<path fill="none" stroke="#191970" d="M1105.5259,-173.0841C1247.0423,-164.1567 1582.733,-141.4096 1694.5,-120 1699.4358,-119.0545 1704.5201,-117.8989 1709.5886,-116.6207"/>
<polygon fill="#191970" stroke="#191970" points="1710.5146,-119.9962 1719.2732,-114.0349 1708.7087,-113.2331 1710.5146,-119.9962"/>
</g>
<!-- Node15&#45;&gt;Node1 -->
<g id="edge20" class="edge">
<title>Node15&#45;&gt;Node1</title>
<path fill="none" stroke="#191970" d="M1116.1417,-84.3061C1131.422,-81.789 1147.437,-79.5039 1162.5,-78 1308.9374,-63.3793 2344.9698,-82.3346 2486.5,-42 2491.3754,-40.6106 2496.2786,-38.4087 2500.8292,-35.9432"/>
<polygon fill="#191970" stroke="#191970" points="2502.7933,-38.8461 2509.5531,-30.688 2499.1812,-32.8501 2502.7933,-38.8461"/>
</g>
<!-- Node15&#45;&gt;Node2 -->
<g id="edge21" class="edge">
<title>Node15&#45;&gt;Node2</title>
<path fill="none" stroke="#191970" d="M966.8181,-92.7428C911.749,-88.2587 834.9919,-82.28 767.5,-78 608.2858,-67.9035 201.4029,-93.7633 50.5,-42 46.6193,-40.6688 42.7889,-38.6744 39.2298,-36.4357"/>
<polygon fill="#191970" stroke="#191970" points="41.2399,-33.5702 31.0681,-30.606 37.1712,-39.2664 41.2399,-33.5702"/>
</g>
<!-- Node15&#45;&gt;Node3 -->
<g id="edge24" class="edge">
<title>Node15&#45;&gt;Node3</title>
<path fill="none" stroke="#191970" d="M966.7953,-93.0809C911.7149,-88.7638 834.9536,-82.8458 767.5,-78 648.2062,-69.43 342.9791,-82.6559 230.5,-42 226.8353,-40.6754 223.2264,-38.7403 219.8658,-36.5731"/>
<polygon fill="#191970" stroke="#191970" points="221.8117,-33.6595 211.6821,-30.5543 217.6643,-39.2987 221.8117,-33.6595"/>
</g>
<!-- Node15&#45;&gt;Node5 -->
<g id="edge30" class="edge">
<title>Node15&#45;&gt;Node5</title>
<path fill="none" stroke="#191970" d="M966.8045,-92.9497C911.7286,-88.5678 834.969,-82.6263 767.5,-78 503.1926,-59.8768 432.356,-93.5921 172.5,-42 168.3597,-41.178 164.1164,-40.1429 159.8902,-38.9752"/>
<polygon fill="#191970" stroke="#191970" points="160.7002,-35.5643 150.1164,-36.048 158.6919,-42.27 160.7002,-35.5643"/>
</g>
<!-- Node15&#45;&gt;Node7 -->
<g id="edge31" class="edge">
<title>Node15&#45;&gt;Node7</title>
<path fill="none" stroke="#191970" d="M1097.0419,-83.9348C1107.7407,-81.5487 1118.9125,-79.4073 1129.5,-78 1657.5404,-7.8114 1800.2809,-118.1121 2327.5,-42 2333.8421,-41.0844 2340.4041,-39.8499 2346.9165,-38.4355"/>
<polygon fill="#191970" stroke="#191970" points="2348.1179,-41.75 2357.0709,-36.0848 2346.5391,-34.9304 2348.1179,-41.75"/>
</g>
<!-- Node15&#45;&gt;Node10 -->
<g id="edge19" class="edge">
<title>Node15&#45;&gt;Node10</title>
<path fill="none" stroke="#191970" d="M966.8755,-90.9849C831.157,-76.3267 556.9463,-46.3029 547.5,-42 545.0028,-40.8625 542.5918,-39.3507 540.3309,-37.6577"/>
<polygon fill="#191970" stroke="#191970" points="542.2763,-34.7017 532.4912,-30.6395 537.6074,-39.9171 542.2763,-34.7017"/>
</g>
<!-- Node15&#45;&gt;Node12 -->
<g id="edge22" class="edge">
<title>Node15&#45;&gt;Node12</title>
<path fill="none" stroke="#191970" d="M966.6965,-89.133C861.5251,-75.1059 679.3879,-50.1914 649.5,-42 642.4267,-40.0614 635.0206,-37.403 628.114,-34.629"/>
<polygon fill="#191970" stroke="#191970" points="629.0236,-31.2141 618.4495,-30.5525 626.3031,-37.6639 629.0236,-31.2141"/>
</g>
<!-- Node15&#45;&gt;Node13 -->
<g id="edge25" class="edge">
<title>Node15&#45;&gt;Node13</title>
<path fill="none" stroke="#191970" d="M966.6997,-86.4804C871.1838,-70.436 717.4315,-44.3913 711.5,-42 707.8487,-40.5279 704.19,-38.5771 700.7318,-36.4563"/>
<polygon fill="#191970" stroke="#191970" points="702.4285,-33.378 692.1887,-30.6581 698.4974,-39.1699 702.4285,-33.378"/>
</g>
<!-- Node15&#45;&gt;Node14 -->
<g id="edge26" class="edge">
<title>Node15&#45;&gt;Node14</title>
<path fill="none" stroke="#191970" d="M981.4287,-83.9158C939.2533,-73.0282 881.652,-57.561 831.5,-42 828.7331,-41.1415 825.9028,-40.2383 823.0511,-39.3085"/>
<polygon fill="#191970" stroke="#191970" points="823.9283,-35.9116 813.3347,-36.0715 821.7158,-42.5528 823.9283,-35.9116"/>
</g>
<!-- Node16 -->
<g id="node17" class="node">
<title>Node16</title>
<polygon fill="#ffffff" stroke="#bfbfbf" points="1120.5,-11.5 1120.5,-30.5 1198.5,-30.5 1198.5,-11.5 1120.5,-11.5"/>
<text text-anchor="middle" x="1159.5" y="-18.5" font-family="Helvetica,sans-Serif" font-size="10.00" fill="#000000">unordered_set</text>
</g>
<!-- Node15&#45;&gt;Node16 -->
<g id="edge23" class="edge">
<title>Node15&#45;&gt;Node16</title>
<path fill="none" stroke="#191970" d="M1064.2516,-83.9608C1085.0201,-70.2325 1115.5723,-50.0369 1136.4377,-36.2446"/>
<polygon fill="#191970" stroke="#191970" points="1138.5892,-39.018 1145.0013,-30.5839 1134.7291,-33.1785 1138.5892,-39.018"/>
</g>
<!-- Node17 -->
<g id="node18" class="node">
<title>Node17</title>
<polygon fill="#ffffff" stroke="#bfbfbf" points="1217,-6 1217,-36 1318,-36 1318,-6 1217,-6"/>
<text text-anchor="start" x="1225" y="-24" font-family="Helvetica,sans-Serif" font-size="10.00" fill="#000000">tensorflow/compiler</text>
<text text-anchor="middle" x="1267.5" y="-13" font-family="Helvetica,sans-Serif" font-size="10.00" fill="#000000">/xla/map_util.h</text>
</g>
<!-- Node15&#45;&gt;Node17 -->
<g id="edge27" class="edge">
<title>Node15&#45;&gt;Node17</title>
<path fill="none" stroke="#191970" d="M1085.5621,-83.9495C1119.0298,-72.4985 1166.1863,-56.3228 1207.5,-42 1209.9179,-41.1618 1212.39,-40.3031 1214.8866,-39.4346"/>
<polygon fill="#191970" stroke="#191970" points="1216.2843,-42.654 1224.5755,-36.0581 1213.9807,-36.0439 1216.2843,-42.654"/>
</g>
<!-- Node18 -->
<g id="node19" class="node">
<title>Node18</title>
<polygon fill="#ffffff" stroke="#bfbfbf" points="1336,-.5 1336,-41.5 1437,-41.5 1437,-.5 1336,-.5"/>
<text text-anchor="start" x="1344" y="-29.5" font-family="Helvetica,sans-Serif" font-size="10.00" fill="#000000">tensorflow/compiler</text>
<text text-anchor="start" x="1344" y="-18.5" font-family="Helvetica,sans-Serif" font-size="10.00" fill="#000000">/xla/service/dfs_hlo</text>
<text text-anchor="middle" x="1386.5" y="-7.5" font-family="Helvetica,sans-Serif" font-size="10.00" fill="#000000">_visitor.h</text>
</g>
<!-- Node15&#45;&gt;Node18 -->
<g id="edge28" class="edge">
<title>Node15&#45;&gt;Node18</title>
<path fill="none" stroke="#191970" d="M1102.9494,-83.893C1111.8405,-81.8362 1120.8929,-79.8121 1129.5,-78 1213.5342,-60.3082 1238.7007,-64.4405 1326.1234,-41.8944"/>
<polygon fill="#191970" stroke="#191970" points="1327.1488,-45.2439 1335.9336,-39.3212 1325.3728,-38.4729 1327.1488,-45.2439"/>
</g>
<!-- Node19 -->
<g id="node20" class="node">
<title>Node19</title>
<polygon fill="#ffffff" stroke="#bfbfbf" points="1455.5,-.5 1455.5,-41.5 1569.5,-41.5 1569.5,-.5 1455.5,-.5"/>
<text text-anchor="start" x="1463.5" y="-29.5" font-family="Helvetica,sans-Serif" font-size="10.00" fill="#000000">tensorflow/compiler</text>
<text text-anchor="start" x="1463.5" y="-18.5" font-family="Helvetica,sans-Serif" font-size="10.00" fill="#000000">/xla/service/dfs_hlo</text>
<text text-anchor="middle" x="1512.5" y="-7.5" font-family="Helvetica,sans-Serif" font-size="10.00" fill="#000000">_visitor_with_default.h</text>
</g>
<!-- Node15&#45;&gt;Node19 -->
<g id="edge29" class="edge">
<title>Node15&#45;&gt;Node19</title>
<path fill="none" stroke="#191970" d="M1100.4658,-83.8935C1110.1273,-81.7171 1120.0633,-79.6573 1129.5,-78 1268.7223,-53.5501 1307.2109,-71.2707 1445.5,-42 1445.6006,-41.9787 1445.7013,-41.9573 1445.8021,-41.9358"/>
<polygon fill="#191970" stroke="#191970" points="1446.3682,-45.398 1455.3083,-39.7124 1444.774,-38.5819 1446.3682,-45.398"/>
</g>
<!-- Node20 -->
<g id="node21" class="node">
<title>Node20</title>
<polygon fill="#ffffff" stroke="#bfbfbf" points="1588,-6 1588,-36 1733,-36 1733,-6 1588,-6"/>
<text text-anchor="start" x="1596" y="-24" font-family="Helvetica,sans-Serif" font-size="10.00" fill="#000000">tensorflow/compiler</text>
<text text-anchor="middle" x="1660.5" y="-13" font-family="Helvetica,sans-Serif" font-size="10.00" fill="#000000">/xla/service/hlo_reachability.h</text>
</g>
<!-- Node15&#45;&gt;Node20 -->
<g id="edge32" class="edge">
<title>Node15&#45;&gt;Node20</title>
<path fill="none" stroke="#191970" d="M1098.9957,-83.9358C1109.1073,-81.6721 1119.5715,-79.573 1129.5,-78 1327.2296,-46.6723 1381.0348,-74.9534 1578.5,-42 1584.6831,-40.9682 1591.0823,-39.6971 1597.4539,-38.2953"/>
<polygon fill="#191970" stroke="#191970" points="1598.4507,-41.6574 1607.4088,-36.0002 1596.8781,-34.8363 1598.4507,-41.6574"/>
</g>
<!-- Node15&#45;&gt;Node21 -->
<g id="edge33" class="edge">
<title>Node15&#45;&gt;Node21</title>
<path fill="none" stroke="#191970" d="M966.8608,-93.2506C807.1947,-80.8434 442.4208,-51.8815 386.5,-42 380.8379,-40.9995 374.9888,-39.7808 369.1577,-38.4395"/>
<polygon fill="#191970" stroke="#191970" points="369.9399,-35.0278 359.3978,-36.0832 368.2971,-41.8323 369.9399,-35.0278"/>
</g>
<!-- Node22 -->
<g id="node23" class="node">
<title>Node22</title>
<polygon fill="#ffffff" stroke="#bfbfbf" points="1751,-6 1751,-36 1852,-36 1852,-6 1751,-6"/>
<text text-anchor="start" x="1759" y="-24" font-family="Helvetica,sans-Serif" font-size="10.00" fill="#000000">tensorflow/compiler</text>
<text text-anchor="middle" x="1801.5" y="-13" font-family="Helvetica,sans-Serif" font-size="10.00" fill="#000000">/xla/shape_tree.h</text>
</g>
<!-- Node15&#45;&gt;Node22 -->
<g id="edge34" class="edge">
<title>Node15&#45;&gt;Node22</title>
<path fill="none" stroke="#191970" d="M1098.0212,-83.9685C1108.428,-81.6421 1119.2446,-79.5133 1129.5,-78 1399.0513,-38.2243 1474.3381,-95.5212 1741.5,-42 1745.5783,-41.183 1749.7561,-40.1514 1753.9158,-38.9861"/>
<polygon fill="#191970" stroke="#191970" points="1754.9838,-42.3197 1763.5336,-36.0626 1752.9479,-35.6223 1754.9838,-42.3197"/>
</g>
<!-- Node23 -->
<g id="node24" class="node">
<title>Node23</title>
<polygon fill="#ffffff" stroke="#bfbfbf" points="1870,-6 1870,-36 1971,-36 1971,-6 1870,-6"/>
<text text-anchor="start" x="1878" y="-24" font-family="Helvetica,sans-Serif" font-size="10.00" fill="#000000">tensorflow/compiler</text>
<text text-anchor="middle" x="1920.5" y="-13" font-family="Helvetica,sans-Serif" font-size="10.00" fill="#000000">/xla/statusor.h</text>
</g>
<!-- Node15&#45;&gt;Node23 -->
<g id="edge35" class="edge">
<title>Node15&#45;&gt;Node23</title>
<path fill="none" stroke="#191970" d="M1097.5367,-83.9931C1108.0894,-81.6334 1119.082,-79.4865 1129.5,-78 1451.521,-32.0514 1541.2532,-104.3718 1860.5,-42 1864.643,-41.1906 1868.8875,-40.1542 1873.1106,-38.9768"/>
<polygon fill="#191970" stroke="#191970" points="1874.3162,-42.2686 1882.8678,-36.0139 1872.2823,-35.5706 1874.3162,-42.2686"/>
</g>
<!-- Node15&#45;&gt;Node24 -->
<g id="edge36" class="edge">
<title>Node15&#45;&gt;Node24</title>
<path fill="none" stroke="#191970" d="M1116.1378,-84.2668C1131.4184,-81.7527 1147.4345,-79.4788 1162.5,-78 1496.3243,-45.2316 2341.5064,-102.1386 2671.5,-42 2675.714,-41.232 2680.0295,-40.2142 2684.3186,-39.04"/>
<polygon fill="#191970" stroke="#191970" points="2685.6521,-42.2938 2694.2191,-36.0601 2683.6346,-35.5908 2685.6521,-42.2938"/>
</g>
<!-- Node25 -->
<g id="node26" class="node">
<title>Node25</title>
<polygon fill="#ffffff" stroke="#bfbfbf" points="1989,-6 1989,-36 2090,-36 2090,-6 1989,-6"/>
<text text-anchor="start" x="1997" y="-24" font-family="Helvetica,sans-Serif" font-size="10.00" fill="#000000">tensorflow/compiler</text>
<text text-anchor="middle" x="2039.5" y="-13" font-family="Helvetica,sans-Serif" font-size="10.00" fill="#000000">/xla/xla_data.pb.h</text>
</g>
<!-- Node15&#45;&gt;Node25 -->
<g id="edge37" class="edge">
<title>Node15&#45;&gt;Node25</title>
<path fill="none" stroke="#191970" d="M1097.5284,-83.9345C1108.082,-81.5805 1119.0769,-79.4507 1129.5,-78 1504.0066,-25.8762 1608.1525,-113.2254 1979.5,-42 1983.6458,-41.2048 1987.8922,-40.1785 1992.1166,-39.0077"/>
<polygon fill="#191970" stroke="#191970" points="1993.3179,-42.301 2001.8758,-36.0549 1991.2907,-35.601 1993.3179,-42.301"/>
</g>
<!-- Node26 -->
<g id="node27" class="node">
<title>Node26</title>
<polygon fill="#ffffff" stroke="#bfbfbf" points="2108.5,-6 2108.5,-36 2204.5,-36 2204.5,-6 2108.5,-6"/>
<text text-anchor="start" x="2116.5" y="-24" font-family="Helvetica,sans-Serif" font-size="10.00" fill="#000000">tensorflow/core/lib</text>
<text text-anchor="middle" x="2156.5" y="-13" font-family="Helvetica,sans-Serif" font-size="10.00" fill="#000000">/core/status.h</text>
</g>
<!-- Node15&#45;&gt;Node26 -->
<g id="edge38" class="edge">
<title>Node15&#45;&gt;Node26</title>
<path fill="none" stroke="#191970" d="M1097.0501,-83.9956C1107.7481,-81.6038 1118.9176,-79.4449 1129.5,-78 1556.5022,-19.6997 1675.4768,-124.3477 2098.5,-42 2102.4091,-41.239 2106.4064,-40.256 2110.3837,-39.1315"/>
<polygon fill="#191970" stroke="#191970" points="2111.6571,-42.401 2120.1678,-36.0908 2109.5796,-35.7164 2111.6571,-42.401"/>
</g>
<!-- Node15&#45;&gt;Node27 -->
<g id="edge39" class="edge">
<title>Node15&#45;&gt;Node27</title>
<path fill="none" stroke="#191970" d="M966.8616,-92.1726C829.0959,-79.418 544.8221,-52.3301 500.5,-42 497.0577,-41.1977 493.5397,-40.2455 490.0249,-39.1965"/>
<polygon fill="#191970" stroke="#191970" points="490.7848,-35.7642 480.1932,-36.0276 488.6373,-42.4266 490.7848,-35.7642"/>
</g>
<!-- Node15&#45;&gt;Node28 -->
<g id="edge40" class="edge">
<title>Node15&#45;&gt;Node28</title>
<path fill="none" stroke="#191970" d="M1116.1401,-84.2898C1131.4205,-81.7739 1147.436,-79.4935 1162.5,-78 1471.0903,-47.405 2252.942,-100.3817 2557.5,-42 2561.4083,-41.2508 2565.4029,-40.2662 2569.3734,-39.1319"/>
<polygon fill="#191970" stroke="#191970" points="2570.6475,-42.4 2579.1305,-36.0526 2568.5408,-35.7246 2570.6475,-42.4"/>
</g>
<!-- Node29 -->
<g id="node30" class="node">
<title>Node29</title>
<polygon fill="#ffffff" stroke="#bfbfbf" points="2222.5,-6 2222.5,-36 2318.5,-36 2318.5,-6 2222.5,-6"/>
<text text-anchor="start" x="2230.5" y="-24" font-family="Helvetica,sans-Serif" font-size="10.00" fill="#000000">tensorflow/core/lib</text>
<text text-anchor="middle" x="2270.5" y="-13" font-family="Helvetica,sans-Serif" font-size="10.00" fill="#000000">/gtl/flatset.h</text>
</g>
<!-- Node15&#45;&gt;Node29 -->
<g id="edge41" class="edge">
<title>Node15&#45;&gt;Node29</title>
<path fill="none" stroke="#191970" d="M1097.0455,-83.9619C1107.7439,-81.5732 1118.9148,-79.424 1129.5,-78 1368.3698,-45.8649 1976.9577,-88.2512 2213.5,-42 2217.4055,-41.2363 2221.3981,-40.2416 2225.3673,-39.1004"/>
<polygon fill="#191970" stroke="#191970" points="2226.6461,-42.3668 2235.1223,-36.0103 2224.5322,-35.6935 2226.6461,-42.3668"/>
</g>
<!-- Node30 -->
<g id="node31" class="node">
<title>Node30</title>
<polygon fill="#ffffff" stroke="#bfbfbf" points="840.5,-6 840.5,-36 962.5,-36 962.5,-6 840.5,-6"/>
<text text-anchor="start" x="848.5" y="-24" font-family="Helvetica,sans-Serif" font-size="10.00" fill="#000000">tensorflow/core/platform</text>
<text text-anchor="middle" x="901.5" y="-13" font-family="Helvetica,sans-Serif" font-size="10.00" fill="#000000">/macros.h</text>
</g>
<!-- Node15&#45;&gt;Node30 -->
<g id="edge42" class="edge">
<title>Node15&#45;&gt;Node30</title>
<path fill="none" stroke="#191970" d="M1014.5066,-83.9608C992.665,-71.7919 961.703,-54.5417 937.7093,-41.1738"/>
<polygon fill="#191970" stroke="#191970" points="939.3274,-38.0687 928.8882,-36.2592 935.9204,-44.1837 939.3274,-38.0687"/>
</g>
<!-- Node31 -->
<g id="node32" class="node">
<title>Node31</title>
<polygon fill="#ffffff" stroke="#bfbfbf" points="980.5,-6 980.5,-36 1102.5,-36 1102.5,-6 980.5,-6"/>
<text text-anchor="start" x="988.5" y="-24" font-family="Helvetica,sans-Serif" font-size="10.00" fill="#000000">tensorflow/core/platform</text>
<text text-anchor="middle" x="1041.5" y="-13" font-family="Helvetica,sans-Serif" font-size="10.00" fill="#000000">/types.h</text>
</g>
<!-- Node15&#45;&gt;Node31 -->
<g id="edge43" class="edge">
<title>Node15&#45;&gt;Node31</title>
<path fill="none" stroke="#191970" d="M1041.5,-83.9608C1041.5,-73.3466 1041.5,-58.8663 1041.5,-46.4685"/>
<polygon fill="#191970" stroke="#191970" points="1045.0001,-46.2591 1041.5,-36.2592 1038.0001,-46.2592 1045.0001,-46.2591"/>
</g>
</g>
</svg>
        <g id="navigator" transform="translate(0 0)" fill="#404254">
                <rect fill="#f2f5e9" fill-opacity="0.5" stroke="#606060" stroke-width=".5" x="0" y="0" width="60" height="60"/>
                <use id="zoomplus" xlink:href="#zoomPlus" x="17" y="9" onmousedown="handleZoom(evt,'in')"/>
                <use id="zoomminus" xlink:href="#zoomMin" x="42" y="9" onmousedown="handleZoom(evt,'out')"/>
                <use id="reset" xlink:href="#resetDef" x="30" y="36" onmousedown="handleReset()"/>
                <g id="arrowUp" xlink:href="#dirArrow" transform="translate(30 24)" onmousedown="handlePan(0,-1)">
                  <use xlink:href="#rim" fill="#404040">
                        <set attributeName="fill" to="#808080" begin="arrowUp.mouseover" end="arrowUp.mouseout"/>
                  </use>
                  <path fill="none" stroke="white" stroke-width="1.5" d="M0,-3.0v7 M-2.5,-0.5L0,-3.0L2.5,-0.5"/>
                </g>
                <g id="arrowRight" xlink:href="#dirArrow" transform="rotate(90) translate(36 -43)" onmousedown="handlePan(1,0)">
                  <use xlink:href="#rim" fill="#404040">
                        <set attributeName="fill" to="#808080" begin="arrowRight.mouseover" end="arrowRight.mouseout"/>
                  </use>
                  <path fill="none" stroke="white" stroke-width="1.5" d="M0,-3.0v7 M-2.5,-0.5L0,-3.0L2.5,-0.5"/>
                </g>
                <g id="arrowDown" xlink:href="#dirArrow" transform="rotate(180) translate(-30 -48)" onmousedown="handlePan(0,1)">
                  <use xlink:href="#rim" fill="#404040">
                        <set attributeName="fill" to="#808080" begin="arrowDown.mouseover" end="arrowDown.mouseout"/>
                  </use>
                  <path fill="none" stroke="white" stroke-width="1.5" d="M0,-3.0v7 M-2.5,-0.5L0,-3.0L2.5,-0.5"/>
                </g>
                <g id="arrowLeft" xlink:href="#dirArrow" transform="rotate(270) translate(-36 17)" onmousedown="handlePan(-1,0)">
                  <use xlink:href="#rim" fill="#404040">
                        <set attributeName="fill" to="#808080" begin="arrowLeft.mouseover" end="arrowLeft.mouseout"/>
                  </use>
                  <path fill="none" stroke="white" stroke-width="1.5" d="M0,-3.0v7 M-2.5,-0.5L0,-3.0L2.5,-0.5"/>
                </g>
        </g>
        <svg viewBox="0 0 15 15" width="100%" height="30px" preserveAspectRatio="xMaxYMin meet">
         <g id="arrow_out" transform="scale(0.3 0.3)">
          <a xlink:href="hlo__ordering_8h__incl_org.svg" target="_base">
           <rect id="button" ry="5" rx="5" y="6" x="6" height="38" width="38"
                fill="#f2f5e9" fill-opacity="0.5" stroke="#606060" stroke-width="1.0"/>
           <path id="arrow"
             d="M 11.500037,31.436501 C 11.940474,20.09759 22.043105,11.32322 32.158766,21.979434 L 37.068811,17.246167 C 37.068811,17.246167 37.088388,32 37.088388,32 L 22.160133,31.978069 C 22.160133,31.978069 26.997745,27.140456 26.997745,27.140456 C 18.528582,18.264221 13.291696,25.230495 11.500037,31.436501 z"
             style="fill:#404040;"/>
          </a>
         </g>
        </svg>
</svg>
