<?xml version="1.0" encoding="UTF-8" standalone="no"?>
<!DOCTYPE svg PUBLIC "-//W3C//DTD SVG 1.1//EN"
 "http://www.w3.org/Graphics/SVG/1.1/DTD/svg11.dtd">
<!-- Generated by graphviz version 2.40.1 (20161225.0304)
 -->
<!-- Title: tensorflow/tensorflow/compiler/xla/service/call_inliner.cc Pages: 1 -->
<svg width="478pt" height="195pt"
 viewBox="0.00 0.00 478.00 195.00" xmlns="http://www.w3.org/2000/svg" xmlns:xlink="http://www.w3.org/1999/xlink">
<g id="graph0" class="graph" transform="scale(1 1) rotate(0) translate(4 191)">
<title>tensorflow/tensorflow/compiler/xla/service/call_inliner.cc</title>
<polygon fill="#ffffff" stroke="transparent" points="-4,4 -4,-191 474,-191 474,4 -4,4"/>
<!-- Node0 -->
<g id="node1" class="node">
<title>Node0</title>
<polygon fill="#bfbfbf" stroke="#000000" points="139.5,-145.5 139.5,-186.5 261.5,-186.5 261.5,-145.5 139.5,-145.5"/>
<text text-anchor="start" x="147.5" y="-174.5" font-family="Helvetica,sans-Serif" font-size="10.00" fill="#000000">tensorflow/tensorflow</text>
<text text-anchor="start" x="147.5" y="-163.5" font-family="Helvetica,sans-Serif" font-size="10.00" fill="#000000">/compiler/xla/service</text>
<text text-anchor="middle" x="200.5" y="-152.5" font-family="Helvetica,sans-Serif" font-size="10.00" fill="#000000">/call_inliner.cc</text>
</g>
<!-- Node1 -->
<g id="node2" class="node">
<title>Node1</title>
<g id="a_node2"><a xlink:href="../../d5/db7/call__inliner_8h.html" target="_top" xlink:title="tensorflow/compiler\l/xla/service/call_inliner.h">
<polygon fill="#ffffff" stroke="#000000" points="55,-78.5 55,-108.5 192,-108.5 192,-78.5 55,-78.5"/>
<text text-anchor="start" x="63" y="-96.5" font-family="Helvetica,sans-Serif" font-size="10.00" fill="#000000">tensorflow/compiler</text>
<text text-anchor="middle" x="123.5" y="-85.5" font-family="Helvetica,sans-Serif" font-size="10.00" fill="#000000">/xla/service/call_inliner.h</text>
</a>
</g>
</g>
<!-- Node0&#45;&gt;Node1 -->
<g id="edge1" class="edge">
<title>Node0&#45;&gt;Node1</title>
<path fill="none" stroke="#191970" d="M178.6409,-145.4183C168.7203,-136.0775 156.9743,-125.018 146.8779,-115.5117"/>
<polygon fill="#191970" stroke="#191970" points="149.2162,-112.906 139.5363,-108.5991 144.4176,-118.0025 149.2162,-112.906"/>
</g>
<!-- Node2 -->
<g id="node3" class="node">
<title>Node2</title>
<polygon fill="#ffffff" stroke="#bfbfbf" points="0,-11.5 0,-30.5 47,-30.5 47,-11.5 0,-11.5"/>
<text text-anchor="middle" x="23.5" y="-18.5" font-family="Helvetica,sans-Serif" font-size="10.00" fill="#000000">deque</text>
</g>
<!-- Node0&#45;&gt;Node2 -->
<g id="edge5" class="edge">
<title>Node0&#45;&gt;Node2</title>
<path fill="none" stroke="#191970" d="M139.4719,-157.5368C107.2619,-149.9946 69.5412,-135.7729 45.5,-109 28.6127,-90.1939 24.253,-60.3787 23.3503,-40.7509"/>
<polygon fill="#191970" stroke="#191970" points="26.8454,-40.4612 23.1497,-30.5318 19.8467,-40.5986 26.8454,-40.4612"/>
</g>
<!-- Node5 -->
<g id="node6" class="node">
<title>Node5</title>
<polygon fill="#ffffff" stroke="#bfbfbf" points="210,-78.5 210,-108.5 345,-108.5 345,-78.5 210,-78.5"/>
<text text-anchor="start" x="218" y="-96.5" font-family="Helvetica,sans-Serif" font-size="10.00" fill="#000000">tensorflow/compiler</text>
<text text-anchor="middle" x="277.5" y="-85.5" font-family="Helvetica,sans-Serif" font-size="10.00" fill="#000000">/xla/service/call_graph.h</text>
</g>
<!-- Node0&#45;&gt;Node5 -->
<g id="edge6" class="edge">
<title>Node0&#45;&gt;Node5</title>
<path fill="none" stroke="#191970" d="M222.3591,-145.4183C232.2797,-136.0775 244.0257,-125.018 254.1221,-115.5117"/>
<polygon fill="#191970" stroke="#191970" points="256.5824,-118.0025 261.4637,-108.5991 251.7838,-112.906 256.5824,-118.0025"/>
</g>
<!-- Node6 -->
<g id="node7" class="node">
<title>Node6</title>
<polygon fill="#ffffff" stroke="#bfbfbf" points="363,-78.5 363,-108.5 470,-108.5 470,-78.5 363,-78.5"/>
<text text-anchor="start" x="371" y="-96.5" font-family="Helvetica,sans-Serif" font-size="10.00" fill="#000000">tensorflow/core/lib</text>
<text text-anchor="middle" x="416.5" y="-85.5" font-family="Helvetica,sans-Serif" font-size="10.00" fill="#000000">/core/errors.h</text>
</g>
<!-- Node0&#45;&gt;Node6 -->
<g id="edge7" class="edge">
<title>Node0&#45;&gt;Node6</title>
<path fill="none" stroke="#191970" d="M261.5308,-145.5151C293.1631,-134.8978 331.4716,-122.0396 362.0859,-111.764"/>
<polygon fill="#191970" stroke="#191970" points="363.3705,-115.0248 371.737,-108.5246 361.143,-108.3886 363.3705,-115.0248"/>
</g>
<!-- Node1&#45;&gt;Node2 -->
<g id="edge2" class="edge">
<title>Node1&#45;&gt;Node2</title>
<path fill="none" stroke="#191970" d="M102.7799,-78.478C85.9241,-66.2574 62.2135,-49.0673 45.1197,-36.6743"/>
<polygon fill="#191970" stroke="#191970" points="47.0057,-33.7186 36.8552,-30.6825 42.8969,-39.3859 47.0057,-33.7186"/>
</g>
<!-- Node3 -->
<g id="node4" class="node">
<title>Node3</title>
<polygon fill="#ffffff" stroke="#bfbfbf" points="65,-.5 65,-41.5 184,-41.5 184,-.5 65,-.5"/>
<text text-anchor="start" x="73" y="-29.5" font-family="Helvetica,sans-Serif" font-size="10.00" fill="#000000">tensorflow/compiler</text>
<text text-anchor="start" x="73" y="-18.5" font-family="Helvetica,sans-Serif" font-size="10.00" fill="#000000">/xla/service/hlo_pass</text>
<text text-anchor="middle" x="124.5" y="-7.5" font-family="Helvetica,sans-Serif" font-size="10.00" fill="#000000">_interface.h</text>
</g>
<!-- Node1&#45;&gt;Node3 -->
<g id="edge3" class="edge">
<title>Node1&#45;&gt;Node3</title>
<path fill="none" stroke="#191970" d="M123.7072,-78.478C123.8144,-70.7032 123.9494,-60.9168 124.0775,-51.634"/>
<polygon fill="#191970" stroke="#191970" points="127.5789,-51.5489 124.2172,-41.5015 120.5795,-51.4523 127.5789,-51.5489"/>
</g>
<!-- Node4 -->
<g id="node5" class="node">
<title>Node4</title>
<polygon fill="#ffffff" stroke="#bfbfbf" points="202,-6 202,-36 315,-36 315,-6 202,-6"/>
<text text-anchor="start" x="210" y="-24" font-family="Helvetica,sans-Serif" font-size="10.00" fill="#000000">tensorflow/compiler</text>
<text text-anchor="middle" x="258.5" y="-13" font-family="Helvetica,sans-Serif" font-size="10.00" fill="#000000">/xla/statusor.h</text>
</g>
<!-- Node1&#45;&gt;Node4 -->
<g id="edge4" class="edge">
<title>Node1&#45;&gt;Node4</title>
<path fill="none" stroke="#191970" d="M151.4721,-78.478C171.7453,-67.5905 199.3635,-52.7585 221.4663,-40.8885"/>
<polygon fill="#191970" stroke="#191970" points="223.4098,-43.8176 230.5637,-36.0028 220.0978,-37.6506 223.4098,-43.8176"/>
</g>
</g>
</svg>
