<?xml version="1.0" encoding="UTF-8" standalone="no"?>
<!DOCTYPE svg PUBLIC "-//W3C//DTD SVG 1.1//EN"
 "http://www.w3.org/Graphics/SVG/1.1/DTD/svg11.dtd">
<!-- Generated by graphviz version 2.40.1 (20161225.0304)
 -->
<!-- Title: tensorflow/tensorflow/compiler/xla/service/cpu/cpu_parallelization_preparation.cc Pages: 1 -->
<svg width="1541pt" height="217pt"
 viewBox="0.00 0.00 1540.50 217.00" xmlns="http://www.w3.org/2000/svg" xmlns:xlink="http://www.w3.org/1999/xlink">
<g id="graph0" class="graph" transform="scale(1 1) rotate(0) translate(4 213)">
<title>tensorflow/tensorflow/compiler/xla/service/cpu/cpu_parallelization_preparation.cc</title>
<polygon fill="#ffffff" stroke="transparent" points="-4,4 -4,-213 1536.5,-213 1536.5,4 -4,4"/>
<!-- Node0 -->
<g id="node1" class="node">
<title>Node0</title>
<polygon fill="#bfbfbf" stroke="#000000" points="740,-156.5 740,-208.5 859,-208.5 859,-156.5 740,-156.5"/>
<text text-anchor="start" x="748" y="-196.5" font-family="Helvetica,sans-Serif" font-size="10.00" fill="#000000">tensorflow/tensorflow</text>
<text text-anchor="start" x="748" y="-185.5" font-family="Helvetica,sans-Serif" font-size="10.00" fill="#000000">/compiler/xla/service</text>
<text text-anchor="start" x="748" y="-174.5" font-family="Helvetica,sans-Serif" font-size="10.00" fill="#000000">/cpu/cpu_parallelization</text>
<text text-anchor="middle" x="799.5" y="-163.5" font-family="Helvetica,sans-Serif" font-size="10.00" fill="#000000">_preparation.cc</text>
</g>
<!-- Node1 -->
<g id="node2" class="node">
<title>Node1</title>
<g id="a_node2"><a xlink:href="../../db/db4/cpu__parallelization__preparation_8h.html" target="_top" xlink:title="tensorflow/compiler\l/xla/service/cpu/cpu\l_parallelization_preparation.h">
<polygon fill="#ffffff" stroke="#000000" points="193,-78.5 193,-119.5 336,-119.5 336,-78.5 193,-78.5"/>
<text text-anchor="start" x="201" y="-107.5" font-family="Helvetica,sans-Serif" font-size="10.00" fill="#000000">tensorflow/compiler</text>
<text text-anchor="start" x="201" y="-96.5" font-family="Helvetica,sans-Serif" font-size="10.00" fill="#000000">/xla/service/cpu/cpu</text>
<text text-anchor="middle" x="264.5" y="-85.5" font-family="Helvetica,sans-Serif" font-size="10.00" fill="#000000">_parallelization_preparation.h</text>
</a>
</g>
</g>
<!-- Node0&#45;&gt;Node1 -->
<g id="edge1" class="edge">
<title>Node0&#45;&gt;Node1</title>
<path fill="none" stroke="#191970" d="M739.6382,-176.5146C654.3969,-167.4938 493.0564,-148.5808 346.4684,-120.0826"/>
<polygon fill="#191970" stroke="#191970" points="346.8755,-116.5958 336.3885,-118.103 345.5265,-123.4646 346.8755,-116.5958"/>
</g>
<!-- Node5 -->
<g id="node6" class="node">
<title>Node5</title>
<polygon fill="#ffffff" stroke="#bfbfbf" points="354,-84 354,-114 455,-114 455,-84 354,-84"/>
<text text-anchor="start" x="362" y="-102" font-family="Helvetica,sans-Serif" font-size="10.00" fill="#000000">tensorflow/compiler</text>
<text text-anchor="middle" x="404.5" y="-91" font-family="Helvetica,sans-Serif" font-size="10.00" fill="#000000">/xla/map_util.h</text>
</g>
<!-- Node0&#45;&gt;Node5 -->
<g id="edge5" class="edge">
<title>Node0&#45;&gt;Node5</title>
<path fill="none" stroke="#191970" d="M739.8895,-174.1841C672.421,-164.126 559.5389,-145.3395 464.5,-120 461.3009,-119.147 458.0276,-118.2056 454.7414,-117.2081"/>
<polygon fill="#191970" stroke="#191970" points="455.4961,-113.7755 444.9057,-114.0801 453.3746,-120.4463 455.4961,-113.7755"/>
</g>
<!-- Node6 -->
<g id="node7" class="node">
<title>Node6</title>
<polygon fill="#ffffff" stroke="#bfbfbf" points="473,-78.5 473,-119.5 574,-119.5 574,-78.5 473,-78.5"/>
<text text-anchor="start" x="481" y="-107.5" font-family="Helvetica,sans-Serif" font-size="10.00" fill="#000000">tensorflow/compiler</text>
<text text-anchor="start" x="481" y="-96.5" font-family="Helvetica,sans-Serif" font-size="10.00" fill="#000000">/xla/service/cpu/ir</text>
<text text-anchor="middle" x="523.5" y="-85.5" font-family="Helvetica,sans-Serif" font-size="10.00" fill="#000000">_emission_utils.h</text>
</g>
<!-- Node0&#45;&gt;Node6 -->
<g id="edge6" class="edge">
<title>Node0&#45;&gt;Node6</title>
<path fill="none" stroke="#191970" d="M739.6398,-166.1335C698.4288,-154.6465 642.237,-138.554 583.9287,-120.0653"/>
<polygon fill="#191970" stroke="#191970" points="584.7638,-116.658 574.1731,-116.9556 582.6378,-123.3274 584.7638,-116.658"/>
</g>
<!-- Node7 -->
<g id="node8" class="node">
<title>Node7</title>
<g id="a_node8"><a xlink:href="../../dc/df9/parallel__task__assignment_8h.html" target="_top" xlink:title="tensorflow/compiler\l/xla/service/cpu/parallel\l_task_assignment.h">
<polygon fill="#ffffff" stroke="#000000" points="56,-78.5 56,-119.5 175,-119.5 175,-78.5 56,-78.5"/>
<text text-anchor="start" x="64" y="-107.5" font-family="Helvetica,sans-Serif" font-size="10.00" fill="#000000">tensorflow/compiler</text>
<text text-anchor="start" x="64" y="-96.5" font-family="Helvetica,sans-Serif" font-size="10.00" fill="#000000">/xla/service/cpu/parallel</text>
<text text-anchor="middle" x="115.5" y="-85.5" font-family="Helvetica,sans-Serif" font-size="10.00" fill="#000000">_task_assignment.h</text>
</a>
</g>
</g>
<!-- Node0&#45;&gt;Node7 -->
<g id="edge7" class="edge">
<title>Node0&#45;&gt;Node7</title>
<path fill="none" stroke="#191970" d="M739.878,-180.3786C630.9429,-175.6508 392.5702,-161.3638 184.8962,-120.1019"/>
<polygon fill="#191970" stroke="#191970" points="185.5248,-116.6583 175.0309,-118.1166 184.1438,-123.5208 185.5248,-116.6583"/>
</g>
<!-- Node8 -->
<g id="node9" class="node">
<title>Node8</title>
<polygon fill="#ffffff" stroke="#bfbfbf" points="592,-78.5 592,-119.5 707,-119.5 707,-78.5 592,-78.5"/>
<text text-anchor="start" x="600" y="-107.5" font-family="Helvetica,sans-Serif" font-size="10.00" fill="#000000">tensorflow/compiler</text>
<text text-anchor="start" x="600" y="-96.5" font-family="Helvetica,sans-Serif" font-size="10.00" fill="#000000">/xla/service/cpu/shape</text>
<text text-anchor="middle" x="649.5" y="-85.5" font-family="Helvetica,sans-Serif" font-size="10.00" fill="#000000">_partition.h</text>
</g>
<!-- Node0&#45;&gt;Node8 -->
<g id="edge11" class="edge">
<title>Node0&#45;&gt;Node8</title>
<path fill="none" stroke="#191970" d="M752.4506,-156.3092C734.3058,-146.2086 713.6139,-134.6901 695.5633,-124.6419"/>
<polygon fill="#191970" stroke="#191970" points="696.8321,-121.3425 686.3923,-119.5367 693.4273,-127.4587 696.8321,-121.3425"/>
</g>
<!-- Node9 -->
<g id="node10" class="node">
<title>Node9</title>
<polygon fill="#ffffff" stroke="#bfbfbf" points="725,-84 725,-114 874,-114 874,-84 725,-84"/>
<text text-anchor="start" x="733" y="-102" font-family="Helvetica,sans-Serif" font-size="10.00" fill="#000000">tensorflow/compiler</text>
<text text-anchor="middle" x="799.5" y="-91" font-family="Helvetica,sans-Serif" font-size="10.00" fill="#000000">/xla/service/hlo_computation.h</text>
</g>
<!-- Node0&#45;&gt;Node9 -->
<g id="edge12" class="edge">
<title>Node0&#45;&gt;Node9</title>
<path fill="none" stroke="#191970" d="M799.5,-156.0801C799.5,-145.9748 799.5,-134.4781 799.5,-124.4638"/>
<polygon fill="#191970" stroke="#191970" points="803.0001,-124.3152 799.5,-114.3152 796.0001,-124.3152 803.0001,-124.3152"/>
</g>
<!-- Node10 -->
<g id="node11" class="node">
<title>Node10</title>
<polygon fill="#ffffff" stroke="#bfbfbf" points="892,-84 892,-114 1033,-114 1033,-84 892,-84"/>
<text text-anchor="start" x="900" y="-102" font-family="Helvetica,sans-Serif" font-size="10.00" fill="#000000">tensorflow/compiler</text>
<text text-anchor="middle" x="962.5" y="-91" font-family="Helvetica,sans-Serif" font-size="10.00" fill="#000000">/xla/service/hlo_instruction.h</text>
</g>
<!-- Node0&#45;&gt;Node10 -->
<g id="edge13" class="edge">
<title>Node0&#45;&gt;Node10</title>
<path fill="none" stroke="#191970" d="M850.627,-156.3092C874.3182,-144.1729 902.0052,-129.9897 923.9082,-118.7694"/>
<polygon fill="#191970" stroke="#191970" points="925.6081,-121.8312 932.9125,-114.1568 922.4166,-115.601 925.6081,-121.8312"/>
</g>
<!-- Node11 -->
<g id="node12" class="node">
<title>Node11</title>
<polygon fill="#ffffff" stroke="#bfbfbf" points="1051.5,-84 1051.5,-114 1179.5,-114 1179.5,-84 1051.5,-84"/>
<text text-anchor="start" x="1059.5" y="-102" font-family="Helvetica,sans-Serif" font-size="10.00" fill="#000000">tensorflow/compiler</text>
<text text-anchor="middle" x="1115.5" y="-91" font-family="Helvetica,sans-Serif" font-size="10.00" fill="#000000">/xla/service/hlo_opcode.h</text>
</g>
<!-- Node0&#45;&gt;Node11 -->
<g id="edge14" class="edge">
<title>Node0&#45;&gt;Node11</title>
<path fill="none" stroke="#191970" d="M859.0441,-167.6862C908.3151,-155.3081 980.0864,-137.0001 1042.5,-120 1046.2576,-118.9765 1050.1196,-117.9097 1054.0121,-116.8232"/>
<polygon fill="#191970" stroke="#191970" points="1055.0297,-120.1729 1063.7081,-114.0953 1053.1338,-113.4345 1055.0297,-120.1729"/>
</g>
<!-- Node12 -->
<g id="node13" class="node">
<title>Node12</title>
<polygon fill="#ffffff" stroke="#bfbfbf" points="1198,-84 1198,-114 1299,-114 1299,-84 1198,-84"/>
<text text-anchor="start" x="1206" y="-102" font-family="Helvetica,sans-Serif" font-size="10.00" fill="#000000">tensorflow/compiler</text>
<text text-anchor="middle" x="1248.5" y="-91" font-family="Helvetica,sans-Serif" font-size="10.00" fill="#000000">/xla/types.h</text>
</g>
<!-- Node0&#45;&gt;Node12 -->
<g id="edge15" class="edge">
<title>Node0&#45;&gt;Node12</title>
<path fill="none" stroke="#191970" d="M859.1487,-176.2485C936.07,-167.4298 1073.6209,-149.0877 1188.5,-120 1191.9202,-119.134 1195.4219,-118.1568 1198.9313,-117.1097"/>
<polygon fill="#191970" stroke="#191970" points="1200.2942,-120.35 1208.7811,-114.0078 1198.1915,-113.6733 1200.2942,-120.35"/>
</g>
<!-- Node13 -->
<g id="node14" class="node">
<title>Node13</title>
<polygon fill="#ffffff" stroke="#bfbfbf" points="1317,-84 1317,-114 1418,-114 1418,-84 1317,-84"/>
<text text-anchor="start" x="1325" y="-102" font-family="Helvetica,sans-Serif" font-size="10.00" fill="#000000">tensorflow/compiler</text>
<text text-anchor="middle" x="1367.5" y="-91" font-family="Helvetica,sans-Serif" font-size="10.00" fill="#000000">/xla/util.h</text>
</g>
<!-- Node0&#45;&gt;Node13 -->
<g id="edge16" class="edge">
<title>Node0&#45;&gt;Node13</title>
<path fill="none" stroke="#191970" d="M859.0266,-179.438C954.8218,-173.5661 1148.6397,-157.7784 1308.5,-120 1312.0976,-119.1498 1315.7803,-118.155 1319.462,-117.0691"/>
<polygon fill="#191970" stroke="#191970" points="1320.6601,-120.3613 1329.1463,-114.0182 1318.5567,-113.6847 1320.6601,-120.3613"/>
</g>
<!-- Node14 -->
<g id="node15" class="node">
<title>Node14</title>
<polygon fill="#ffffff" stroke="#bfbfbf" points="1436.5,-84 1436.5,-114 1532.5,-114 1532.5,-84 1436.5,-84"/>
<text text-anchor="start" x="1444.5" y="-102" font-family="Helvetica,sans-Serif" font-size="10.00" fill="#000000">tensorflow/core/lib</text>
<text text-anchor="middle" x="1484.5" y="-91" font-family="Helvetica,sans-Serif" font-size="10.00" fill="#000000">/strings/strcat.h</text>
</g>
<!-- Node0&#45;&gt;Node14 -->
<g id="edge17" class="edge">
<title>Node0&#45;&gt;Node14</title>
<path fill="none" stroke="#191970" d="M859.1461,-178.5031C994.2461,-169.136 1320.1882,-144.6845 1427.5,-120 1430.9446,-119.2076 1434.4643,-118.2628 1437.9803,-117.219"/>
<polygon fill="#191970" stroke="#191970" points="1439.364,-120.4508 1447.8142,-114.0598 1437.2229,-113.7862 1439.364,-120.4508"/>
</g>
<!-- Node2 -->
<g id="node3" class="node">
<title>Node2</title>
<polygon fill="#ffffff" stroke="#bfbfbf" points="0,-.5 0,-41.5 107,-41.5 107,-.5 0,-.5"/>
<text text-anchor="start" x="8" y="-29.5" font-family="Helvetica,sans-Serif" font-size="10.00" fill="#000000">tensorflow/compiler</text>
<text text-anchor="start" x="8" y="-18.5" font-family="Helvetica,sans-Serif" font-size="10.00" fill="#000000">/xla/service/hlo_cost</text>
<text text-anchor="middle" x="53.5" y="-7.5" font-family="Helvetica,sans-Serif" font-size="10.00" fill="#000000">_analysis.h</text>
</g>
<!-- Node1&#45;&gt;Node2 -->
<g id="edge2" class="edge">
<title>Node1&#45;&gt;Node2</title>
<path fill="none" stroke="#191970" d="M208.7862,-78.4044C180.5945,-67.9828 146.2485,-55.2862 117.0327,-44.486"/>
<polygon fill="#191970" stroke="#191970" points="117.9309,-41.0866 107.3377,-40.9021 115.5037,-47.6524 117.9309,-41.0866"/>
</g>
<!-- Node3 -->
<g id="node4" class="node">
<title>Node3</title>
<polygon fill="#ffffff" stroke="#bfbfbf" points="125.5,-6 125.5,-36 253.5,-36 253.5,-6 125.5,-6"/>
<text text-anchor="start" x="133.5" y="-24" font-family="Helvetica,sans-Serif" font-size="10.00" fill="#000000">tensorflow/compiler</text>
<text text-anchor="middle" x="189.5" y="-13" font-family="Helvetica,sans-Serif" font-size="10.00" fill="#000000">/xla/service/hlo_module.h</text>
</g>
<!-- Node1&#45;&gt;Node3 -->
<g id="edge3" class="edge">
<title>Node1&#45;&gt;Node3</title>
<path fill="none" stroke="#191970" d="M244.4014,-78.0974C234.206,-67.4942 221.8056,-54.5978 211.3713,-43.7461"/>
<polygon fill="#191970" stroke="#191970" points="213.6347,-41.0503 204.1806,-36.2679 208.5888,-45.9021 213.6347,-41.0503"/>
</g>
<!-- Node4 -->
<g id="node5" class="node">
<title>Node4</title>
<polygon fill="#ffffff" stroke="#bfbfbf" points="272,-.5 272,-41.5 381,-41.5 381,-.5 272,-.5"/>
<text text-anchor="start" x="280" y="-29.5" font-family="Helvetica,sans-Serif" font-size="10.00" fill="#000000">tensorflow/compiler</text>
<text text-anchor="start" x="280" y="-18.5" font-family="Helvetica,sans-Serif" font-size="10.00" fill="#000000">/xla/service/hlo_pass</text>
<text text-anchor="middle" x="326.5" y="-7.5" font-family="Helvetica,sans-Serif" font-size="10.00" fill="#000000">_interface.h</text>
</g>
<!-- Node1&#45;&gt;Node4 -->
<g id="edge4" class="edge">
<title>Node1&#45;&gt;Node4</title>
<path fill="none" stroke="#191970" d="M281.1149,-78.0974C288.0506,-69.3719 296.2206,-59.0934 303.7035,-49.6794"/>
<polygon fill="#191970" stroke="#191970" points="306.5717,-51.6959 310.0543,-41.6898 301.0919,-47.3402 306.5717,-51.6959"/>
</g>
<!-- Node7&#45;&gt;Node2 -->
<g id="edge8" class="edge">
<title>Node7&#45;&gt;Node2</title>
<path fill="none" stroke="#191970" d="M98.8851,-78.0974C91.9494,-69.3719 83.7794,-59.0934 76.2965,-49.6794"/>
<polygon fill="#191970" stroke="#191970" points="78.9081,-47.3402 69.9457,-41.6898 73.4283,-51.6959 78.9081,-47.3402"/>
</g>
<!-- Node7&#45;&gt;Node3 -->
<g id="edge9" class="edge">
<title>Node7&#45;&gt;Node3</title>
<path fill="none" stroke="#191970" d="M135.3306,-78.0974C145.3901,-67.4942 157.6252,-54.5978 167.9203,-43.7461"/>
<polygon fill="#191970" stroke="#191970" points="170.6716,-45.9314 175.0151,-36.2679 165.5933,-41.1136 170.6716,-45.9314"/>
</g>
<!-- Node7&#45;&gt;Node4 -->
<g id="edge10" class="edge">
<title>Node7&#45;&gt;Node4</title>
<path fill="none" stroke="#191970" d="M171.2138,-78.4044C199.1861,-68.0639 233.2173,-55.4837 262.2843,-44.7385"/>
<polygon fill="#191970" stroke="#191970" points="263.7695,-47.921 271.9356,-41.1707 261.3423,-41.3553 263.7695,-47.921"/>
</g>
</g>
</svg>
