<?xml version="1.0" encoding="UTF-8" standalone="no"?>
<!DOCTYPE svg PUBLIC "-//W3C//DTD SVG 1.1//EN"
 "http://www.w3.org/Graphics/SVG/1.1/DTD/svg11.dtd">
<!-- Generated by graphviz version 2.40.1 (20161225.0304)
 -->
<!-- Title: tensorflow::XlaOpRegistry::RegisterCompilationDevice Pages: 1 -->
<svg width="484pt" height="39pt"
 viewBox="0.00 0.00 484.00 39.00" xmlns="http://www.w3.org/2000/svg" xmlns:xlink="http://www.w3.org/1999/xlink">
<g id="graph0" class="graph" transform="scale(1 1) rotate(0) translate(4 35)">
<title>tensorflow::XlaOpRegistry::RegisterCompilationDevice</title>
<polygon fill="#ffffff" stroke="transparent" points="-4,4 -4,-35 480,-35 480,4 -4,4"/>
<!-- Node76 -->
<g id="node1" class="node">
<title>Node76</title>
<polygon fill="#bfbfbf" stroke="#000000" points="0,-.5 0,-30.5 142,-30.5 142,-.5 0,-.5"/>
<text text-anchor="start" x="8" y="-18.5" font-family="Helvetica,sans-Serif" font-size="10.00" fill="#000000">tensorflow::XlaOpRegistry</text>
<text text-anchor="middle" x="71" y="-7.5" font-family="Helvetica,sans-Serif" font-size="10.00" fill="#000000">::RegisterCompilationDevice</text>
</g>
<!-- Node77 -->
<g id="node2" class="node">
<title>Node77</title>
<g id="a_node2"><a xlink:href="../../d9/de9/classtensorflow_1_1XlaOpRegistry.html#a6df4a46abd7f1d52ab601ee4f694d4fe" target="_top" xlink:title="tensorflow::XlaOpRegistry\l::Instance">
<polygon fill="#ffffff" stroke="#000000" points="178,-.5 178,-30.5 309,-30.5 309,-.5 178,-.5"/>
<text text-anchor="start" x="186" y="-18.5" font-family="Helvetica,sans-Serif" font-size="10.00" fill="#000000">tensorflow::XlaOpRegistry</text>
<text text-anchor="middle" x="243.5" y="-7.5" font-family="Helvetica,sans-Serif" font-size="10.00" fill="#000000">::Instance</text>
</a>
</g>
</g>
<!-- Node76&#45;&gt;Node77 -->
<g id="edge1" class="edge">
<title>Node76&#45;&gt;Node77</title>
<path fill="none" stroke="#191970" d="M142.1583,-15.5C150.5377,-15.5 159.1133,-15.5 167.5553,-15.5"/>
<polygon fill="#191970" stroke="#191970" points="167.7642,-19.0001 177.7642,-15.5 167.7642,-12.0001 167.7642,-19.0001"/>
</g>
<!-- Node78 -->
<g id="node3" class="node">
<title>Node78</title>
<g id="a_node3"><a xlink:href="../../d9/de9/classtensorflow_1_1XlaOpRegistry.html#a2be34fb36eb475b48d2d319d2a53e15b" target="_top" xlink:title="tensorflow::XlaOpRegistry\l::XlaOpRegistry">
<polygon fill="#ffffff" stroke="#000000" points="345,-.5 345,-30.5 476,-30.5 476,-.5 345,-.5"/>
<text text-anchor="start" x="353" y="-18.5" font-family="Helvetica,sans-Serif" font-size="10.00" fill="#000000">tensorflow::XlaOpRegistry</text>
<text text-anchor="middle" x="410.5" y="-7.5" font-family="Helvetica,sans-Serif" font-size="10.00" fill="#000000">::XlaOpRegistry</text>
</a>
</g>
</g>
<!-- Node77&#45;&gt;Node78 -->
<g id="edge2" class="edge">
<title>Node77&#45;&gt;Node78</title>
<path fill="none" stroke="#191970" d="M309.0235,-15.5C317.496,-15.5 326.2278,-15.5 334.8471,-15.5"/>
<polygon fill="#191970" stroke="#191970" points="334.8914,-19.0001 344.8913,-15.5 334.8913,-12.0001 334.8914,-19.0001"/>
</g>
</g>
</svg>
