<?xml version="1.0" encoding="UTF-8" standalone="no"?>
<!DOCTYPE svg PUBLIC "-//W3C//DTD SVG 1.1//EN"
 "http://www.w3.org/Graphics/SVG/1.1/DTD/svg11.dtd">
<!-- Generated by graphviz version 2.40.1 (20161225.0304)
 -->
<!-- Title: tensorflow::XlaOpRegistry::GetCompilationDevice Pages: 1 -->
<svg width="500pt" height="88pt"
 viewBox="0.00 0.00 500.00 88.00" xmlns="http://www.w3.org/2000/svg" xmlns:xlink="http://www.w3.org/1999/xlink">
<g id="graph0" class="graph" transform="scale(1 1) rotate(0) translate(4 84)">
<title>tensorflow::XlaOpRegistry::GetCompilationDevice</title>
<polygon fill="#ffffff" stroke="transparent" points="-4,4 -4,-84 496,-84 496,4 -4,4"/>
<!-- Node33 -->
<g id="node1" class="node">
<title>Node33</title>
<polygon fill="#bfbfbf" stroke="#000000" points="0,-24.5 0,-54.5 131,-54.5 131,-24.5 0,-24.5"/>
<text text-anchor="start" x="8" y="-42.5" font-family="Helvetica,sans-Serif" font-size="10.00" fill="#000000">tensorflow::XlaOpRegistry</text>
<text text-anchor="middle" x="65.5" y="-31.5" font-family="Helvetica,sans-Serif" font-size="10.00" fill="#000000">::GetCompilationDevice</text>
</g>
<!-- Node34 -->
<g id="node2" class="node">
<title>Node34</title>
<g id="a_node2"><a xlink:href="../../d9/de9/classtensorflow_1_1XlaOpRegistry.html#a6df4a46abd7f1d52ab601ee4f694d4fe" target="_top" xlink:title="tensorflow::XlaOpRegistry\l::Instance">
<polygon fill="#ffffff" stroke="#000000" points="180.5,-49.5 180.5,-79.5 311.5,-79.5 311.5,-49.5 180.5,-49.5"/>
<text text-anchor="start" x="188.5" y="-67.5" font-family="Helvetica,sans-Serif" font-size="10.00" fill="#000000">tensorflow::XlaOpRegistry</text>
<text text-anchor="middle" x="246" y="-56.5" font-family="Helvetica,sans-Serif" font-size="10.00" fill="#000000">::Instance</text>
</a>
</g>
</g>
<!-- Node33&#45;&gt;Node34 -->
<g id="edge1" class="edge">
<title>Node33&#45;&gt;Node34</title>
<path fill="none" stroke="#191970" d="M131.1752,-48.5963C143.8217,-50.3479 157.165,-52.196 170.1042,-53.9881"/>
<polygon fill="#191970" stroke="#191970" points="169.988,-57.5054 180.3737,-55.4105 170.9484,-50.5715 169.988,-57.5054"/>
</g>
<!-- Node36 -->
<g id="node4" class="node">
<title>Node36</title>
<g id="a_node4"><a xlink:href="../../de/d86/namespacetensorflow.html#a2d163d2001e9ec46d2997cd7040c721e" target="_top" xlink:title="tensorflow::LaunchOpHasKernel\lForDevice">
<polygon fill="#ffffff" stroke="#000000" points="167,-.5 167,-30.5 325,-30.5 325,-.5 167,-.5"/>
<text text-anchor="start" x="175" y="-18.5" font-family="Helvetica,sans-Serif" font-size="10.00" fill="#000000">tensorflow::LaunchOpHasKernel</text>
<text text-anchor="middle" x="246" y="-7.5" font-family="Helvetica,sans-Serif" font-size="10.00" fill="#000000">ForDevice</text>
</a>
</g>
</g>
<!-- Node33&#45;&gt;Node36 -->
<g id="edge3" class="edge">
<title>Node33&#45;&gt;Node36</title>
<path fill="none" stroke="#191970" d="M131.1752,-30.7676C139.507,-29.6597 148.1412,-28.5117 156.763,-27.3653"/>
<polygon fill="#191970" stroke="#191970" points="157.4084,-30.8104 166.8598,-26.0228 156.4857,-23.8715 157.4084,-30.8104"/>
</g>
<!-- Node35 -->
<g id="node3" class="node">
<title>Node35</title>
<g id="a_node3"><a xlink:href="../../d9/de9/classtensorflow_1_1XlaOpRegistry.html#a2be34fb36eb475b48d2d319d2a53e15b" target="_top" xlink:title="tensorflow::XlaOpRegistry\l::XlaOpRegistry">
<polygon fill="#ffffff" stroke="#000000" points="361,-49.5 361,-79.5 492,-79.5 492,-49.5 361,-49.5"/>
<text text-anchor="start" x="369" y="-67.5" font-family="Helvetica,sans-Serif" font-size="10.00" fill="#000000">tensorflow::XlaOpRegistry</text>
<text text-anchor="middle" x="426.5" y="-56.5" font-family="Helvetica,sans-Serif" font-size="10.00" fill="#000000">::XlaOpRegistry</text>
</a>
</g>
</g>
<!-- Node34&#45;&gt;Node35 -->
<g id="edge2" class="edge">
<title>Node34&#45;&gt;Node35</title>
<path fill="none" stroke="#191970" d="M311.6752,-64.5C324.3217,-64.5 337.665,-64.5 350.6042,-64.5"/>
<polygon fill="#191970" stroke="#191970" points="350.8737,-68.0001 360.8737,-64.5 350.8736,-61.0001 350.8737,-68.0001"/>
</g>
</g>
</svg>
