<?xml version="1.0" encoding="UTF-8" standalone="no"?>
<!DOCTYPE svg PUBLIC "-//W3C//DTD SVG 1.1//EN"
 "http://www.w3.org/Graphics/SVG/1.1/DTD/svg11.dtd">
<!-- Generated by graphviz version 2.40.1 (20161225.0304)
 -->
<!-- Title: tensorflow::XlaOpRegistry::RegisterBackend Pages: 1 -->
<svg width="473pt" height="39pt"
 viewBox="0.00 0.00 473.00 39.00" xmlns="http://www.w3.org/2000/svg" xmlns:xlink="http://www.w3.org/1999/xlink">
<g id="graph0" class="graph" transform="scale(1 1) rotate(0) translate(4 35)">
<title>tensorflow::XlaOpRegistry::RegisterBackend</title>
<polygon fill="#ffffff" stroke="transparent" points="-4,4 -4,-35 469,-35 469,4 -4,4"/>
<!-- Node71 -->
<g id="node1" class="node">
<title>Node71</title>
<polygon fill="#bfbfbf" stroke="#000000" points="0,-.5 0,-30.5 131,-30.5 131,-.5 0,-.5"/>
<text text-anchor="start" x="8" y="-18.5" font-family="Helvetica,sans-Serif" font-size="10.00" fill="#000000">tensorflow::XlaOpRegistry</text>
<text text-anchor="middle" x="65.5" y="-7.5" font-family="Helvetica,sans-Serif" font-size="10.00" fill="#000000">::RegisterBackend</text>
</g>
<!-- Node72 -->
<g id="node2" class="node">
<title>Node72</title>
<g id="a_node2"><a xlink:href="../../d9/de9/classtensorflow_1_1XlaOpRegistry.html#a6df4a46abd7f1d52ab601ee4f694d4fe" target="_top" xlink:title="tensorflow::XlaOpRegistry\l::Instance">
<polygon fill="#ffffff" stroke="#000000" points="167,-.5 167,-30.5 298,-30.5 298,-.5 167,-.5"/>
<text text-anchor="start" x="175" y="-18.5" font-family="Helvetica,sans-Serif" font-size="10.00" fill="#000000">tensorflow::XlaOpRegistry</text>
<text text-anchor="middle" x="232.5" y="-7.5" font-family="Helvetica,sans-Serif" font-size="10.00" fill="#000000">::Instance</text>
</a>
</g>
</g>
<!-- Node71&#45;&gt;Node72 -->
<g id="edge1" class="edge">
<title>Node71&#45;&gt;Node72</title>
<path fill="none" stroke="#191970" d="M131.0235,-15.5C139.496,-15.5 148.2278,-15.5 156.8471,-15.5"/>
<polygon fill="#191970" stroke="#191970" points="156.8914,-19.0001 166.8913,-15.5 156.8913,-12.0001 156.8914,-19.0001"/>
</g>
<!-- Node73 -->
<g id="node3" class="node">
<title>Node73</title>
<g id="a_node3"><a xlink:href="../../d9/de9/classtensorflow_1_1XlaOpRegistry.html#a2be34fb36eb475b48d2d319d2a53e15b" target="_top" xlink:title="tensorflow::XlaOpRegistry\l::XlaOpRegistry">
<polygon fill="#ffffff" stroke="#000000" points="334,-.5 334,-30.5 465,-30.5 465,-.5 334,-.5"/>
<text text-anchor="start" x="342" y="-18.5" font-family="Helvetica,sans-Serif" font-size="10.00" fill="#000000">tensorflow::XlaOpRegistry</text>
<text text-anchor="middle" x="399.5" y="-7.5" font-family="Helvetica,sans-Serif" font-size="10.00" fill="#000000">::XlaOpRegistry</text>
</a>
</g>
</g>
<!-- Node72&#45;&gt;Node73 -->
<g id="edge2" class="edge">
<title>Node72&#45;&gt;Node73</title>
<path fill="none" stroke="#191970" d="M298.0235,-15.5C306.496,-15.5 315.2278,-15.5 323.8471,-15.5"/>
<polygon fill="#191970" stroke="#191970" points="323.8914,-19.0001 333.8913,-15.5 323.8913,-12.0001 323.8914,-19.0001"/>
</g>
</g>
</svg>
