<?xml version="1.0" encoding="UTF-8" standalone="no"?>
<!DOCTYPE svg PUBLIC "-//W3C//DTD SVG 1.1//EN"
 "http://www.w3.org/Graphics/SVG/1.1/DTD/svg11.dtd">
<!-- Generated by graphviz version 2.40.1 (20161225.0304)
 -->
<!-- Title: tensorflow::XlaOpRegistry::XlaOpRegistry Pages: 1 -->
<svg width="1209pt" height="460pt"
 viewBox="0.00 0.00 1209.00 460.00" xmlns="http://www.w3.org/2000/svg" xmlns:xlink="http://www.w3.org/1999/xlink">
<g id="graph0" class="graph" transform="scale(1 1) rotate(0) translate(4 456)">
<title>tensorflow::XlaOpRegistry::XlaOpRegistry</title>
<polygon fill="#ffffff" stroke="transparent" points="-4,4 -4,-456 1205,-456 1205,4 -4,4"/>
<!-- Node1 -->
<g id="node1" class="node">
<title>Node1</title>
<polygon fill="#bfbfbf" stroke="#000000" points="0,-213.5 0,-243.5 131,-243.5 131,-213.5 0,-213.5"/>
<text text-anchor="start" x="8" y="-231.5" font-family="Helvetica,sans-Serif" font-size="10.00" fill="#000000">tensorflow::XlaOpRegistry</text>
<text text-anchor="middle" x="65.5" y="-220.5" font-family="Helvetica,sans-Serif" font-size="10.00" fill="#000000">::XlaOpRegistry</text>
</g>
<!-- Node2 -->
<g id="node2" class="node">
<title>Node2</title>
<g id="a_node2"><a xlink:href="../../d9/de9/classtensorflow_1_1XlaOpRegistry.html#a6df4a46abd7f1d52ab601ee4f694d4fe" target="_top" xlink:title="tensorflow::XlaOpRegistry\l::Instance">
<polygon fill="#ffffff" stroke="#000000" points="167,-213.5 167,-243.5 298,-243.5 298,-213.5 167,-213.5"/>
<text text-anchor="start" x="175" y="-231.5" font-family="Helvetica,sans-Serif" font-size="10.00" fill="#000000">tensorflow::XlaOpRegistry</text>
<text text-anchor="middle" x="232.5" y="-220.5" font-family="Helvetica,sans-Serif" font-size="10.00" fill="#000000">::Instance</text>
</a>
</g>
</g>
<!-- Node1&#45;&gt;Node2 -->
<g id="edge1" class="edge">
<title>Node1&#45;&gt;Node2</title>
<path fill="none" stroke="#191970" d="M141.0663,-228.5C149.6848,-228.5 158.4171,-228.5 166.8913,-228.5"/>
<polygon fill="#191970" stroke="#191970" points="141.0235,-225.0001 131.0235,-228.5 141.0235,-232.0001 141.0235,-225.0001"/>
</g>
<!-- Node3 -->
<g id="node3" class="node">
<title>Node3</title>
<g id="a_node3"><a xlink:href="../../d9/de9/classtensorflow_1_1XlaOpRegistry.html#a6b6d684b68684deb7eca78ea4c95f94a" target="_top" xlink:title="tensorflow::XlaOpRegistry\l::RegisterCompilationDevice">
<polygon fill="#ffffff" stroke="#000000" points="336.5,-421.5 336.5,-451.5 478.5,-451.5 478.5,-421.5 336.5,-421.5"/>
<text text-anchor="start" x="344.5" y="-439.5" font-family="Helvetica,sans-Serif" font-size="10.00" fill="#000000">tensorflow::XlaOpRegistry</text>
<text text-anchor="middle" x="407.5" y="-428.5" font-family="Helvetica,sans-Serif" font-size="10.00" fill="#000000">::RegisterCompilationDevice</text>
</a>
</g>
</g>
<!-- Node2&#45;&gt;Node3 -->
<g id="edge2" class="edge">
<title>Node2&#45;&gt;Node3</title>
<path fill="none" stroke="#191970" d="M239.5971,-253.2001C252.1572,-292.57 282.0048,-369.4851 334,-412.5 338.1372,-415.9226 342.7759,-418.8616 347.6584,-421.3845"/>
<polygon fill="#191970" stroke="#191970" points="242.9279,-252.1236 236.6406,-243.596 236.2377,-254.1832 242.9279,-252.1236"/>
</g>
<!-- Node4 -->
<g id="node4" class="node">
<title>Node4</title>
<g id="a_node4"><a xlink:href="../../d9/de9/classtensorflow_1_1XlaOpRegistry.html#a3a702dcfe8024dd83f59fe9ef5186bb4" target="_top" xlink:title="tensorflow::XlaOpRegistry\l::RegisterBackend">
<polygon fill="#ffffff" stroke="#000000" points="342,-372.5 342,-402.5 473,-402.5 473,-372.5 342,-372.5"/>
<text text-anchor="start" x="350" y="-390.5" font-family="Helvetica,sans-Serif" font-size="10.00" fill="#000000">tensorflow::XlaOpRegistry</text>
<text text-anchor="middle" x="407.5" y="-379.5" font-family="Helvetica,sans-Serif" font-size="10.00" fill="#000000">::RegisterBackend</text>
</a>
</g>
</g>
<!-- Node2&#45;&gt;Node4 -->
<g id="edge3" class="edge">
<title>Node2&#45;&gt;Node4</title>
<path fill="none" stroke="#191970" d="M246.1288,-252.6199C263.3206,-281.1322 295.3561,-328.376 334,-357.5 341.8147,-363.3896 350.9483,-368.3198 360.068,-372.3699"/>
<polygon fill="#191970" stroke="#191970" points="248.9752,-250.5564 240.8795,-243.7219 242.9461,-254.1132 248.9752,-250.5564"/>
</g>
<!-- Node5 -->
<g id="node5" class="node">
<title>Node5</title>
<g id="a_node5"><a xlink:href="../../d5/d99/classtensorflow_1_1XlaBackendRegistrar.html#abb4a520ea201bb379112af955f71887c" target="_top" xlink:title="tensorflow::XlaBackendRegistrar\l::XlaBackendRegistrar">
<polygon fill="#ffffff" stroke="#000000" points="517,-350.5 517,-380.5 677,-380.5 677,-350.5 517,-350.5"/>
<text text-anchor="start" x="525" y="-368.5" font-family="Helvetica,sans-Serif" font-size="10.00" fill="#000000">tensorflow::XlaBackendRegistrar</text>
<text text-anchor="middle" x="597" y="-357.5" font-family="Helvetica,sans-Serif" font-size="10.00" fill="#000000">::XlaBackendRegistrar</text>
</a>
</g>
</g>
<!-- Node2&#45;&gt;Node5 -->
<g id="edge18" class="edge">
<title>Node2&#45;&gt;Node5</title>
<path fill="none" stroke="#191970" d="M250.0511,-251.829C268.3722,-274.3424 299.2444,-307.4488 334,-324.5 391.0451,-352.4866 462.6832,-362.2374 516.7815,-365.2679"/>
<polygon fill="#191970" stroke="#191970" points="252.6188,-249.434 243.662,-243.7747 247.1347,-253.7843 252.6188,-249.434"/>
</g>
<!-- Node6 -->
<g id="node6" class="node">
<title>Node6</title>
<g id="a_node6"><a xlink:href="../../d9/de9/classtensorflow_1_1XlaOpRegistry.html#a4c9d8e8c614f533e0bf12e6d56d74a24" target="_top" xlink:title="tensorflow::XlaOpRegistry\l::GetCompilationDevice">
<polygon fill="#ffffff" stroke="#000000" points="342,-284.5 342,-314.5 473,-314.5 473,-284.5 342,-284.5"/>
<text text-anchor="start" x="350" y="-302.5" font-family="Helvetica,sans-Serif" font-size="10.00" fill="#000000">tensorflow::XlaOpRegistry</text>
<text text-anchor="middle" x="407.5" y="-291.5" font-family="Helvetica,sans-Serif" font-size="10.00" fill="#000000">::GetCompilationDevice</text>
</a>
</g>
</g>
<!-- Node2&#45;&gt;Node6 -->
<g id="edge5" class="edge">
<title>Node2&#45;&gt;Node6</title>
<path fill="none" stroke="#191970" d="M272.9745,-247.9382C291.4113,-256.5081 313.6246,-266.44 334,-274.5 342.648,-277.921 351.9738,-281.314 360.9837,-284.4456"/>
<polygon fill="#191970" stroke="#191970" points="274.2476,-244.6697 263.7071,-243.598 271.2787,-251.009 274.2476,-244.6697"/>
</g>
<!-- Node7 -->
<g id="node7" class="node">
<title>Node7</title>
<g id="a_node7"><a xlink:href="../../d9/de9/classtensorflow_1_1XlaOpRegistry.html#a504bd86e27f0fedc9c5dcb82af983bfb" target="_top" xlink:title="Registers all JIT kernels on JIT devices, if not already registered. Does nothing otherwise...">
<polygon fill="#ffffff" stroke="#000000" points="335.5,-235.5 335.5,-265.5 479.5,-265.5 479.5,-235.5 335.5,-235.5"/>
<text text-anchor="start" x="343.5" y="-253.5" font-family="Helvetica,sans-Serif" font-size="10.00" fill="#000000">tensorflow::XlaOpRegistry</text>
<text text-anchor="middle" x="407.5" y="-242.5" font-family="Helvetica,sans-Serif" font-size="10.00" fill="#000000">::RegisterCompilationKernels</text>
</a>
</g>
</g>
<!-- Node2&#45;&gt;Node7 -->
<g id="edge6" class="edge">
<title>Node2&#45;&gt;Node7</title>
<path fill="none" stroke="#191970" d="M308.2196,-238.019C317.2102,-239.1493 326.3699,-240.3008 335.3095,-241.4246"/>
<polygon fill="#191970" stroke="#191970" points="308.5199,-234.5293 298.1614,-236.7546 307.6467,-241.4747 308.5199,-234.5293"/>
</g>
<!-- Node13 -->
<g id="node13" class="node">
<title>Node13</title>
<g id="a_node13"><a xlink:href="../../d9/de9/classtensorflow_1_1XlaOpRegistry.html#a7d7734cf12a6ac5d2ceeadb57a075812" target="_top" xlink:title="tensorflow::XlaOpRegistry\l::DeviceKernels">
<polygon fill="#ffffff" stroke="#000000" points="531.5,-191.5 531.5,-221.5 662.5,-221.5 662.5,-191.5 531.5,-191.5"/>
<text text-anchor="start" x="539.5" y="-209.5" font-family="Helvetica,sans-Serif" font-size="10.00" fill="#000000">tensorflow::XlaOpRegistry</text>
<text text-anchor="middle" x="597" y="-198.5" font-family="Helvetica,sans-Serif" font-size="10.00" fill="#000000">::DeviceKernels</text>
</a>
</g>
</g>
<!-- Node2&#45;&gt;Node13 -->
<g id="edge13" class="edge">
<title>Node2&#45;&gt;Node13</title>
<path fill="none" stroke="#191970" d="M308.4039,-223.9187C374.2735,-219.943 468.6499,-214.2468 531.3265,-210.4638"/>
<polygon fill="#191970" stroke="#191970" points="307.8572,-220.4452 298.0863,-224.5414 308.279,-227.4325 307.8572,-220.4452"/>
</g>
<!-- Node14 -->
<g id="node14" class="node">
<title>Node14</title>
<g id="a_node14"><a xlink:href="../../d9/de9/classtensorflow_1_1XlaOpRegistry.html#ad39465d13588909105b117ba98ef144e" target="_top" xlink:title="tensorflow::XlaOpRegistry\l::CompileTimeConstantInputs">
<polygon fill="#ffffff" stroke="#000000" points="334,-147.5 334,-177.5 481,-177.5 481,-147.5 334,-147.5"/>
<text text-anchor="start" x="342" y="-165.5" font-family="Helvetica,sans-Serif" font-size="10.00" fill="#000000">tensorflow::XlaOpRegistry</text>
<text text-anchor="middle" x="407.5" y="-154.5" font-family="Helvetica,sans-Serif" font-size="10.00" fill="#000000">::CompileTimeConstantInputs</text>
</a>
</g>
</g>
<!-- Node2&#45;&gt;Node14 -->
<g id="edge14" class="edge">
<title>Node2&#45;&gt;Node14</title>
<path fill="none" stroke="#191970" d="M282.304,-209.7168C309.3068,-199.5329 342.2315,-187.1156 367.5383,-177.5713"/>
<polygon fill="#191970" stroke="#191970" points="280.7701,-206.5546 272.6485,-213.3583 283.2403,-213.1042 280.7701,-206.5546"/>
</g>
<!-- Node15 -->
<g id="node15" class="node">
<title>Node15</title>
<g id="a_node15"><a xlink:href="../../d9/de9/classtensorflow_1_1XlaOpRegistry.html#a89ea89d5893bbd6d049d7326a2b24cbd" target="_top" xlink:title="tensorflow::XlaOpRegistry\l::BackendNames">
<polygon fill="#ffffff" stroke="#000000" points="342,-98.5 342,-128.5 473,-128.5 473,-98.5 342,-98.5"/>
<text text-anchor="start" x="350" y="-116.5" font-family="Helvetica,sans-Serif" font-size="10.00" fill="#000000">tensorflow::XlaOpRegistry</text>
<text text-anchor="middle" x="407.5" y="-105.5" font-family="Helvetica,sans-Serif" font-size="10.00" fill="#000000">::BackendNames</text>
</a>
</g>
</g>
<!-- Node2&#45;&gt;Node15 -->
<g id="edge15" class="edge">
<title>Node2&#45;&gt;Node15</title>
<path fill="none" stroke="#191970" d="M252.4541,-205.8909C271.5708,-185.467 302.1481,-155.8753 334,-137.5 339.8137,-134.1461 346.1602,-131.1868 352.6096,-128.5959"/>
<polygon fill="#191970" stroke="#191970" points="249.6589,-203.7601 245.471,-213.4921 254.8138,-208.4959 249.6589,-203.7601"/>
</g>
<!-- Node16 -->
<g id="node16" class="node">
<title>Node16</title>
<g id="a_node16"><a xlink:href="../../d9/de9/classtensorflow_1_1XlaOpRegistry.html#a6a251f50fef1c4bd5293f9e215ea180e" target="_top" xlink:title="tensorflow::XlaOpRegistry\l::IsBackendRegistered">
<polygon fill="#ffffff" stroke="#000000" points="342,-49.5 342,-79.5 473,-79.5 473,-49.5 342,-49.5"/>
<text text-anchor="start" x="350" y="-67.5" font-family="Helvetica,sans-Serif" font-size="10.00" fill="#000000">tensorflow::XlaOpRegistry</text>
<text text-anchor="middle" x="407.5" y="-56.5" font-family="Helvetica,sans-Serif" font-size="10.00" fill="#000000">::IsBackendRegistered</text>
</a>
</g>
</g>
<!-- Node2&#45;&gt;Node16 -->
<g id="edge16" class="edge">
<title>Node2&#45;&gt;Node16</title>
<path fill="none" stroke="#191970" d="M244.0322,-204.1586C260.005,-172.9737 291.7403,-119.2832 334,-88.5 338.6655,-85.1015 343.8374,-82.1676 349.2139,-79.638"/>
<polygon fill="#191970" stroke="#191970" points="240.7368,-202.9242 239.4067,-213.4352 247.0012,-206.0478 240.7368,-202.9242"/>
</g>
<!-- Node17 -->
<g id="node17" class="node">
<title>Node17</title>
<g id="a_node17"><a xlink:href="../../d4/df6/classtensorflow_1_1XlaOpRegistrar.html#a445d470a578bf0b473d283dbe1a534b1" target="_top" xlink:title="tensorflow::XlaOpRegistrar\l::XlaOpRegistrar">
<polygon fill="#ffffff" stroke="#000000" points="340.5,-.5 340.5,-30.5 474.5,-30.5 474.5,-.5 340.5,-.5"/>
<text text-anchor="start" x="348.5" y="-18.5" font-family="Helvetica,sans-Serif" font-size="10.00" fill="#000000">tensorflow::XlaOpRegistrar</text>
<text text-anchor="middle" x="407.5" y="-7.5" font-family="Helvetica,sans-Serif" font-size="10.00" fill="#000000">::XlaOpRegistrar</text>
</a>
</g>
</g>
<!-- Node2&#45;&gt;Node17 -->
<g id="edge17" class="edge">
<title>Node2&#45;&gt;Node17</title>
<path fill="none" stroke="#191970" d="M239.3123,-203.4355C251.5457,-163.0968 281.0351,-83.8217 334,-39.5 338.1178,-36.0542 342.7433,-33.0992 347.6171,-30.5659"/>
<polygon fill="#191970" stroke="#191970" points="235.8856,-202.684 236.4416,-213.2642 242.6049,-204.6465 235.8856,-202.684"/>
</g>
<!-- Node4&#45;&gt;Node5 -->
<g id="edge4" class="edge">
<title>Node4&#45;&gt;Node5</title>
<path fill="none" stroke="#191970" d="M483.3058,-378.6993C494.39,-377.4125 505.8349,-376.0838 516.9997,-374.7876"/>
<polygon fill="#191970" stroke="#191970" points="482.7757,-375.2373 473.2461,-379.8672 483.583,-382.1906 482.7757,-375.2373"/>
</g>
<!-- Node8 -->
<g id="node8" class="node">
<title>Node8</title>
<g id="a_node8"><a xlink:href="../../d3/dfa/namespacetensorflow_1_1anonymous__namespace_02tf2xla_8cc_03.html#a8bea171341441170c6d6c7dbb0b3227d" target="_top" xlink:title="Converts the TensorFlow graph into an XLA computation, by executing the graph symbolically, with each op building up the XLA HLO. ">
<polygon fill="#ffffff" stroke="#000000" points="537.5,-241 537.5,-282 656.5,-282 656.5,-241 537.5,-241"/>
<text text-anchor="start" x="545.5" y="-270" font-family="Helvetica,sans-Serif" font-size="10.00" fill="#000000">tensorflow::anonymous</text>
<text text-anchor="start" x="545.5" y="-259" font-family="Helvetica,sans-Serif" font-size="10.00" fill="#000000">_namespace{tf2xla::cc}</text>
<text text-anchor="middle" x="597" y="-248" font-family="Helvetica,sans-Serif" font-size="10.00" fill="#000000">::ConvertGraphToXla</text>
</a>
</g>
</g>
<!-- Node7&#45;&gt;Node8 -->
<g id="edge7" class="edge">
<title>Node7&#45;&gt;Node8</title>
<path fill="none" stroke="#191970" d="M490.0499,-255.2918C505.958,-256.2152 522.3326,-257.1657 537.3397,-258.0369"/>
<polygon fill="#191970" stroke="#191970" points="489.8685,-251.7755 479.6824,-254.69 489.4627,-258.7637 489.8685,-251.7755"/>
</g>
<!-- Node7&#45;&gt;Node13 -->
<g id="edge12" class="edge">
<title>Node7&#45;&gt;Node13</title>
<path fill="none" stroke="#191970" d="M482.3391,-233.1231C498.853,-229.2888 516.212,-225.2582 532.2849,-221.5262"/>
<polygon fill="#191970" stroke="#191970" points="481.1344,-229.8096 472.1851,-235.4808 482.7176,-236.6283 481.1344,-229.8096"/>
</g>
<!-- Node9 -->
<g id="node9" class="node">
<title>Node9</title>
<g id="a_node9"><a xlink:href="../../de/d86/namespacetensorflow.html#a6f8fce5955ec6d67cd1762891d4830e9" target="_top" xlink:title="Convert tensorflow graph_def to XLA UserComputation. ">
<polygon fill="#ffffff" stroke="#000000" points="713,-246.5 713,-276.5 841,-276.5 841,-246.5 713,-246.5"/>
<text text-anchor="start" x="721" y="-264.5" font-family="Helvetica,sans-Serif" font-size="10.00" fill="#000000">tensorflow::ConvertGraph</text>
<text text-anchor="middle" x="777" y="-253.5" font-family="Helvetica,sans-Serif" font-size="10.00" fill="#000000">DefToXla</text>
</a>
</g>
</g>
<!-- Node8&#45;&gt;Node9 -->
<g id="edge8" class="edge">
<title>Node8&#45;&gt;Node9</title>
<path fill="none" stroke="#191970" d="M667.1717,-261.5C682.1644,-261.5 697.9297,-261.5 712.689,-261.5"/>
<polygon fill="#191970" stroke="#191970" points="666.9374,-258.0001 656.9374,-261.5 666.9374,-265.0001 666.9374,-258.0001"/>
</g>
<!-- Node10 -->
<g id="node10" class="node">
<title>Node10</title>
<g id="a_node10"><a xlink:href="../../d7/d38/namespacetensorflow_1_1tfcompile.html#a021cb1c58d938b16dcd998aa8d1fc191" target="_top" xlink:title="Converts the graph into an XLA computation, and compiles the computation. Called by tensorflow::tfcom...">
<polygon fill="#ffffff" stroke="#000000" points="877,-246.5 877,-276.5 984,-276.5 984,-246.5 877,-246.5"/>
<text text-anchor="start" x="885" y="-264.5" font-family="Helvetica,sans-Serif" font-size="10.00" fill="#000000">tensorflow::tfcompile</text>
<text text-anchor="middle" x="930.5" y="-253.5" font-family="Helvetica,sans-Serif" font-size="10.00" fill="#000000">::CompileGraph</text>
</a>
</g>
</g>
<!-- Node9&#45;&gt;Node10 -->
<g id="edge9" class="edge">
<title>Node9&#45;&gt;Node10</title>
<path fill="none" stroke="#191970" d="M851.2612,-261.5C859.8631,-261.5 868.5067,-261.5 876.7592,-261.5"/>
<polygon fill="#191970" stroke="#191970" points="851.2084,-258.0001 841.2084,-261.5 851.2084,-265.0001 851.2084,-258.0001"/>
</g>
<!-- Node11 -->
<g id="node11" class="node">
<title>Node11</title>
<g id="a_node11"><a xlink:href="../../d7/d38/namespacetensorflow_1_1tfcompile.html#a460964a5bb277865d1275fe3746132c1" target="_top" xlink:title="tensorflow::tfcompile\l::Main">
<polygon fill="#ffffff" stroke="#000000" points="1020,-246.5 1020,-276.5 1127,-276.5 1127,-246.5 1020,-246.5"/>
<text text-anchor="start" x="1028" y="-264.5" font-family="Helvetica,sans-Serif" font-size="10.00" fill="#000000">tensorflow::tfcompile</text>
<text text-anchor="middle" x="1073.5" y="-253.5" font-family="Helvetica,sans-Serif" font-size="10.00" fill="#000000">::Main</text>
</a>
</g>
</g>
<!-- Node10&#45;&gt;Node11 -->
<g id="edge10" class="edge">
<title>Node10&#45;&gt;Node11</title>
<path fill="none" stroke="#191970" d="M994.3238,-261.5C1002.7452,-261.5 1011.3103,-261.5 1019.5445,-261.5"/>
<polygon fill="#191970" stroke="#191970" points="994.1548,-258.0001 984.1548,-261.5 994.1547,-265.0001 994.1548,-258.0001"/>
</g>
<!-- Node12 -->
<g id="node12" class="node">
<title>Node12</title>
<g id="a_node12"><a xlink:href="../../d4/d8d/tfcompile__main_8cc.html#a3c04138a5bfe5d72780bb7e82a18e627" target="_top" xlink:title="main">
<polygon fill="#ffffff" stroke="#000000" points="1163,-252 1163,-271 1201,-271 1201,-252 1163,-252"/>
<text text-anchor="middle" x="1182" y="-259" font-family="Helvetica,sans-Serif" font-size="10.00" fill="#000000">main</text>
</a>
</g>
</g>
<!-- Node11&#45;&gt;Node12 -->
<g id="edge11" class="edge">
<title>Node11&#45;&gt;Node12</title>
<path fill="none" stroke="#191970" d="M1137.2814,-261.5C1146.5615,-261.5 1155.4574,-261.5 1162.8366,-261.5"/>
<polygon fill="#191970" stroke="#191970" points="1137.1143,-258.0001 1127.1143,-261.5 1137.1142,-265.0001 1137.1143,-258.0001"/>
</g>
</g>
</svg>
